<?xml version="1.0" encoding="utf-8" standalone="no"?>
<!DOCTYPE svg PUBLIC "-//W3C//DTD SVG 1.1//EN"
  "http://www.w3.org/Graphics/SVG/1.1/DTD/svg11.dtd">
<svg xmlns:xlink="http://www.w3.org/1999/xlink" width="770.481098pt" height="320.4275pt" viewBox="0 0 770.481098 320.4275" xmlns="http://www.w3.org/2000/svg" version="1.1">
 <metadata>
  <rdf:RDF xmlns:dc="http://purl.org/dc/elements/1.1/" xmlns:cc="http://creativecommons.org/ns#" xmlns:rdf="http://www.w3.org/1999/02/22-rdf-syntax-ns#">
   <cc:Work>
    <dc:type rdf:resource="http://purl.org/dc/dcmitype/StillImage"/>
    <dc:date>2022-03-12T04:32:34.246070</dc:date>
    <dc:format>image/svg+xml</dc:format>
    <dc:creator>
     <cc:Agent>
      <dc:title>Matplotlib v3.5.1, https://matplotlib.org/</dc:title>
     </cc:Agent>
    </dc:creator>
   </cc:Work>
  </rdf:RDF>
 </metadata>
 <defs>
  <style type="text/css">*{stroke-linejoin: round; stroke-linecap: butt}</style>
 </defs>
 <g id="figure_1">
  <g id="patch_1">
   <path d="M 0 320.4275 
L 770.481098 320.4275 
L 770.481098 0 
L 0 0 
L 0 320.4275 
z
" style="fill: none"/>
  </g>
  <g id="axes_1">
   <g id="patch_2">
    <path d="M 37.44875 279 
L 367.176023 279 
L 367.176023 7.2 
L 37.44875 7.2 
z
" style="fill: #ffffff"/>
   </g>
   <g id="PathCollection_1">
    <defs>
     <path id="m8d52accb41" d="M 0 3 
C 0.795609 3 1.55874 2.683901 2.12132 2.12132 
C 2.683901 1.55874 3 0.795609 3 0 
C 3 -0.795609 2.683901 -1.55874 2.12132 -2.12132 
C 1.55874 -2.683901 0.795609 -3 0 -3 
C -0.795609 -3 -1.55874 -2.683901 -2.12132 -2.12132 
C -2.683901 -1.55874 -3 -0.795609 -3 0 
C -3 0.795609 -2.683901 1.55874 -2.12132 2.12132 
C -1.55874 2.683901 -0.795609 3 0 3 
z
" style="stroke: #333333"/>
    </defs>
    <g clip-path="url(#p766b4ba342)">
     <use xlink:href="#m8d52accb41" x="52.436353" y="258.202313" style="fill: #1f77b4; stroke: #333333"/>
     <use xlink:href="#m8d52accb41" x="85.742138" y="249.301329" style="fill: #1f77b4; stroke: #333333"/>
     <use xlink:href="#m8d52accb41" x="119.047924" y="195.895421" style="fill: #1f77b4; stroke: #333333"/>
     <use xlink:href="#m8d52accb41" x="152.353709" y="228.532365" style="fill: #1f77b4; stroke: #333333"/>
     <use xlink:href="#m8d52accb41" x="185.659494" y="139.522519" style="fill: #1f77b4; stroke: #333333"/>
     <use xlink:href="#m8d52accb41" x="218.965279" y="100.951586" style="fill: #1f77b4; stroke: #333333"/>
     <use xlink:href="#m8d52accb41" x="252.271064" y="92.050601" style="fill: #1f77b4; stroke: #333333"/>
     <use xlink:href="#m8d52accb41" x="285.576849" y="68.314643" style="fill: #1f77b4; stroke: #333333"/>
     <use xlink:href="#m8d52accb41" x="318.882634" y="50.512673" style="fill: #1f77b4; stroke: #333333"/>
     <use xlink:href="#m8d52accb41" x="352.188419" y="20.842725" style="fill: #1f77b4; stroke: #333333"/>
    </g>
   </g>
   <g id="matplotlib.axis_1">
    <g id="xtick_1">
     <g id="line2d_1">
      <path d="M 58.81701 279 
L 58.81701 7.2 
" clip-path="url(#p766b4ba342)" style="fill: none; stroke: #b0b0b0; stroke-width: 0.8; stroke-linecap: square"/>
     </g>
     <g id="line2d_2">
      <defs>
       <path id="mb93dc98fb6" d="M 0 0 
L 0 3.5 
" style="stroke: #000000; stroke-width: 0.8"/>
      </defs>
      <g>
       <use xlink:href="#mb93dc98fb6" x="58.81701" y="279" style="stroke: #000000; stroke-width: 0.8"/>
      </g>
     </g>
     <g id="text_1">
      <!-- −1.5 -->
      <g transform="translate(44.247322 295.118125)scale(0.12 -0.12)">
       <defs>
        <path id="DejaVuSans-2212" d="M 678 2272 
L 4684 2272 
L 4684 1741 
L 678 1741 
L 678 2272 
z
" transform="scale(0.015625)"/>
        <path id="DejaVuSans-31" d="M 794 531 
L 1825 531 
L 1825 4091 
L 703 3866 
L 703 4441 
L 1819 4666 
L 2450 4666 
L 2450 531 
L 3481 531 
L 3481 0 
L 794 0 
L 794 531 
z
" transform="scale(0.015625)"/>
        <path id="DejaVuSans-2e" d="M 684 794 
L 1344 794 
L 1344 0 
L 684 0 
L 684 794 
z
" transform="scale(0.015625)"/>
        <path id="DejaVuSans-35" d="M 691 4666 
L 3169 4666 
L 3169 4134 
L 1269 4134 
L 1269 2991 
Q 1406 3038 1543 3061 
Q 1681 3084 1819 3084 
Q 2600 3084 3056 2656 
Q 3513 2228 3513 1497 
Q 3513 744 3044 326 
Q 2575 -91 1722 -91 
Q 1428 -91 1123 -41 
Q 819 9 494 109 
L 494 744 
Q 775 591 1075 516 
Q 1375 441 1709 441 
Q 2250 441 2565 725 
Q 2881 1009 2881 1497 
Q 2881 1984 2565 2268 
Q 2250 2553 1709 2553 
Q 1456 2553 1204 2497 
Q 953 2441 691 2322 
L 691 4666 
z
" transform="scale(0.015625)"/>
       </defs>
       <use xlink:href="#DejaVuSans-2212"/>
       <use xlink:href="#DejaVuSans-31" x="83.789062"/>
       <use xlink:href="#DejaVuSans-2e" x="147.412109"/>
       <use xlink:href="#DejaVuSans-35" x="179.199219"/>
      </g>
     </g>
    </g>
    <g id="xtick_2">
     <g id="line2d_3">
      <path d="M 106.648802 279 
L 106.648802 7.2 
" clip-path="url(#p766b4ba342)" style="fill: none; stroke: #b0b0b0; stroke-width: 0.8; stroke-linecap: square"/>
     </g>
     <g id="line2d_4">
      <g>
       <use xlink:href="#mb93dc98fb6" x="106.648802" y="279" style="stroke: #000000; stroke-width: 0.8"/>
      </g>
     </g>
     <g id="text_2">
      <!-- −1.0 -->
      <g transform="translate(92.079114 295.118125)scale(0.12 -0.12)">
       <defs>
        <path id="DejaVuSans-30" d="M 2034 4250 
Q 1547 4250 1301 3770 
Q 1056 3291 1056 2328 
Q 1056 1369 1301 889 
Q 1547 409 2034 409 
Q 2525 409 2770 889 
Q 3016 1369 3016 2328 
Q 3016 3291 2770 3770 
Q 2525 4250 2034 4250 
z
M 2034 4750 
Q 2819 4750 3233 4129 
Q 3647 3509 3647 2328 
Q 3647 1150 3233 529 
Q 2819 -91 2034 -91 
Q 1250 -91 836 529 
Q 422 1150 422 2328 
Q 422 3509 836 4129 
Q 1250 4750 2034 4750 
z
" transform="scale(0.015625)"/>
       </defs>
       <use xlink:href="#DejaVuSans-2212"/>
       <use xlink:href="#DejaVuSans-31" x="83.789062"/>
       <use xlink:href="#DejaVuSans-2e" x="147.412109"/>
       <use xlink:href="#DejaVuSans-30" x="179.199219"/>
      </g>
     </g>
    </g>
    <g id="xtick_3">
     <g id="line2d_5">
      <path d="M 154.480594 279 
L 154.480594 7.2 
" clip-path="url(#p766b4ba342)" style="fill: none; stroke: #b0b0b0; stroke-width: 0.8; stroke-linecap: square"/>
     </g>
     <g id="line2d_6">
      <g>
       <use xlink:href="#mb93dc98fb6" x="154.480594" y="279" style="stroke: #000000; stroke-width: 0.8"/>
      </g>
     </g>
     <g id="text_3">
      <!-- −0.5 -->
      <g transform="translate(139.910907 295.118125)scale(0.12 -0.12)">
       <use xlink:href="#DejaVuSans-2212"/>
       <use xlink:href="#DejaVuSans-30" x="83.789062"/>
       <use xlink:href="#DejaVuSans-2e" x="147.412109"/>
       <use xlink:href="#DejaVuSans-35" x="179.199219"/>
      </g>
     </g>
    </g>
    <g id="xtick_4">
     <g id="line2d_7">
      <path d="M 202.312386 279 
L 202.312386 7.2 
" clip-path="url(#p766b4ba342)" style="fill: none; stroke: #b0b0b0; stroke-width: 0.8; stroke-linecap: square"/>
     </g>
     <g id="line2d_8">
      <g>
       <use xlink:href="#mb93dc98fb6" x="202.312386" y="279" style="stroke: #000000; stroke-width: 0.8"/>
      </g>
     </g>
     <g id="text_4">
      <!-- 0.0 -->
      <g transform="translate(192.770511 295.118125)scale(0.12 -0.12)">
       <use xlink:href="#DejaVuSans-30"/>
       <use xlink:href="#DejaVuSans-2e" x="63.623047"/>
       <use xlink:href="#DejaVuSans-30" x="95.410156"/>
      </g>
     </g>
    </g>
    <g id="xtick_5">
     <g id="line2d_9">
      <path d="M 250.144179 279 
L 250.144179 7.2 
" clip-path="url(#p766b4ba342)" style="fill: none; stroke: #b0b0b0; stroke-width: 0.8; stroke-linecap: square"/>
     </g>
     <g id="line2d_10">
      <g>
       <use xlink:href="#mb93dc98fb6" x="250.144179" y="279" style="stroke: #000000; stroke-width: 0.8"/>
      </g>
     </g>
     <g id="text_5">
      <!-- 0.5 -->
      <g transform="translate(240.602304 295.118125)scale(0.12 -0.12)">
       <use xlink:href="#DejaVuSans-30"/>
       <use xlink:href="#DejaVuSans-2e" x="63.623047"/>
       <use xlink:href="#DejaVuSans-35" x="95.410156"/>
      </g>
     </g>
    </g>
    <g id="xtick_6">
     <g id="line2d_11">
      <path d="M 297.975971 279 
L 297.975971 7.2 
" clip-path="url(#p766b4ba342)" style="fill: none; stroke: #b0b0b0; stroke-width: 0.8; stroke-linecap: square"/>
     </g>
     <g id="line2d_12">
      <g>
       <use xlink:href="#mb93dc98fb6" x="297.975971" y="279" style="stroke: #000000; stroke-width: 0.8"/>
      </g>
     </g>
     <g id="text_6">
      <!-- 1.0 -->
      <g transform="translate(288.434096 295.118125)scale(0.12 -0.12)">
       <use xlink:href="#DejaVuSans-31"/>
       <use xlink:href="#DejaVuSans-2e" x="63.623047"/>
       <use xlink:href="#DejaVuSans-30" x="95.410156"/>
      </g>
     </g>
    </g>
    <g id="xtick_7">
     <g id="line2d_13">
      <path d="M 345.807763 279 
L 345.807763 7.2 
" clip-path="url(#p766b4ba342)" style="fill: none; stroke: #b0b0b0; stroke-width: 0.8; stroke-linecap: square"/>
     </g>
     <g id="line2d_14">
      <g>
       <use xlink:href="#mb93dc98fb6" x="345.807763" y="279" style="stroke: #000000; stroke-width: 0.8"/>
      </g>
     </g>
     <g id="text_7">
      <!-- 1.5 -->
      <g transform="translate(336.265888 295.118125)scale(0.12 -0.12)">
       <use xlink:href="#DejaVuSans-31"/>
       <use xlink:href="#DejaVuSans-2e" x="63.623047"/>
       <use xlink:href="#DejaVuSans-35" x="95.410156"/>
      </g>
     </g>
    </g>
    <g id="text_8">
     <!-- x -->
     <g transform="translate(198.761136 310.731875)scale(0.12 -0.12)">
      <defs>
       <path id="DejaVuSans-78" d="M 3513 3500 
L 2247 1797 
L 3578 0 
L 2900 0 
L 1881 1375 
L 863 0 
L 184 0 
L 1544 1831 
L 300 3500 
L 978 3500 
L 1906 2253 
L 2834 3500 
L 3513 3500 
z
" transform="scale(0.015625)"/>
      </defs>
      <use xlink:href="#DejaVuSans-78"/>
     </g>
    </g>
   </g>
   <g id="matplotlib.axis_2">
    <g id="ytick_1">
     <g id="line2d_15">
      <path d="M 37.44875 228.532365 
L 367.176023 228.532365 
" clip-path="url(#p766b4ba342)" style="fill: none; stroke: #b0b0b0; stroke-width: 0.8; stroke-linecap: square"/>
     </g>
     <g id="line2d_16">
      <defs>
       <path id="m99707d1e21" d="M 0 0 
L -3.5 0 
" style="stroke: #000000; stroke-width: 0.8"/>
      </defs>
      <g>
       <use xlink:href="#m99707d1e21" x="37.44875" y="228.532365" style="stroke: #000000; stroke-width: 0.8"/>
      </g>
     </g>
     <g id="text_9">
      <!-- 2 -->
      <g transform="translate(22.81375 233.091427)scale(0.12 -0.12)">
       <defs>
        <path id="DejaVuSans-32" d="M 1228 531 
L 3431 531 
L 3431 0 
L 469 0 
L 469 531 
Q 828 903 1448 1529 
Q 2069 2156 2228 2338 
Q 2531 2678 2651 2914 
Q 2772 3150 2772 3378 
Q 2772 3750 2511 3984 
Q 2250 4219 1831 4219 
Q 1534 4219 1204 4116 
Q 875 4013 500 3803 
L 500 4441 
Q 881 4594 1212 4672 
Q 1544 4750 1819 4750 
Q 2544 4750 2975 4387 
Q 3406 4025 3406 3419 
Q 3406 3131 3298 2873 
Q 3191 2616 2906 2266 
Q 2828 2175 2409 1742 
Q 1991 1309 1228 531 
z
" transform="scale(0.015625)"/>
       </defs>
       <use xlink:href="#DejaVuSans-32"/>
      </g>
     </g>
    </g>
    <g id="ytick_2">
     <g id="line2d_17">
      <path d="M 37.44875 169.192468 
L 367.176023 169.192468 
" clip-path="url(#p766b4ba342)" style="fill: none; stroke: #b0b0b0; stroke-width: 0.8; stroke-linecap: square"/>
     </g>
     <g id="line2d_18">
      <g>
       <use xlink:href="#m99707d1e21" x="37.44875" y="169.192468" style="stroke: #000000; stroke-width: 0.8"/>
      </g>
     </g>
     <g id="text_10">
      <!-- 4 -->
      <g transform="translate(22.81375 173.75153)scale(0.12 -0.12)">
       <defs>
        <path id="DejaVuSans-34" d="M 2419 4116 
L 825 1625 
L 2419 1625 
L 2419 4116 
z
M 2253 4666 
L 3047 4666 
L 3047 1625 
L 3713 1625 
L 3713 1100 
L 3047 1100 
L 3047 0 
L 2419 0 
L 2419 1100 
L 313 1100 
L 313 1709 
L 2253 4666 
z
" transform="scale(0.015625)"/>
       </defs>
       <use xlink:href="#DejaVuSans-34"/>
      </g>
     </g>
    </g>
    <g id="ytick_3">
     <g id="line2d_19">
      <path d="M 37.44875 109.852571 
L 367.176023 109.852571 
" clip-path="url(#p766b4ba342)" style="fill: none; stroke: #b0b0b0; stroke-width: 0.8; stroke-linecap: square"/>
     </g>
     <g id="line2d_20">
      <g>
       <use xlink:href="#m99707d1e21" x="37.44875" y="109.852571" style="stroke: #000000; stroke-width: 0.8"/>
      </g>
     </g>
     <g id="text_11">
      <!-- 6 -->
      <g transform="translate(22.81375 114.411633)scale(0.12 -0.12)">
       <defs>
        <path id="DejaVuSans-36" d="M 2113 2584 
Q 1688 2584 1439 2293 
Q 1191 2003 1191 1497 
Q 1191 994 1439 701 
Q 1688 409 2113 409 
Q 2538 409 2786 701 
Q 3034 994 3034 1497 
Q 3034 2003 2786 2293 
Q 2538 2584 2113 2584 
z
M 3366 4563 
L 3366 3988 
Q 3128 4100 2886 4159 
Q 2644 4219 2406 4219 
Q 1781 4219 1451 3797 
Q 1122 3375 1075 2522 
Q 1259 2794 1537 2939 
Q 1816 3084 2150 3084 
Q 2853 3084 3261 2657 
Q 3669 2231 3669 1497 
Q 3669 778 3244 343 
Q 2819 -91 2113 -91 
Q 1303 -91 875 529 
Q 447 1150 447 2328 
Q 447 3434 972 4092 
Q 1497 4750 2381 4750 
Q 2619 4750 2861 4703 
Q 3103 4656 3366 4563 
z
" transform="scale(0.015625)"/>
       </defs>
       <use xlink:href="#DejaVuSans-36"/>
      </g>
     </g>
    </g>
    <g id="ytick_4">
     <g id="line2d_21">
      <path d="M 37.44875 50.512673 
L 367.176023 50.512673 
" clip-path="url(#p766b4ba342)" style="fill: none; stroke: #b0b0b0; stroke-width: 0.8; stroke-linecap: square"/>
     </g>
     <g id="line2d_22">
      <g>
       <use xlink:href="#m99707d1e21" x="37.44875" y="50.512673" style="stroke: #000000; stroke-width: 0.8"/>
      </g>
     </g>
     <g id="text_12">
      <!-- 8 -->
      <g transform="translate(22.81375 55.071736)scale(0.12 -0.12)">
       <defs>
        <path id="DejaVuSans-38" d="M 2034 2216 
Q 1584 2216 1326 1975 
Q 1069 1734 1069 1313 
Q 1069 891 1326 650 
Q 1584 409 2034 409 
Q 2484 409 2743 651 
Q 3003 894 3003 1313 
Q 3003 1734 2745 1975 
Q 2488 2216 2034 2216 
z
M 1403 2484 
Q 997 2584 770 2862 
Q 544 3141 544 3541 
Q 544 4100 942 4425 
Q 1341 4750 2034 4750 
Q 2731 4750 3128 4425 
Q 3525 4100 3525 3541 
Q 3525 3141 3298 2862 
Q 3072 2584 2669 2484 
Q 3125 2378 3379 2068 
Q 3634 1759 3634 1313 
Q 3634 634 3220 271 
Q 2806 -91 2034 -91 
Q 1263 -91 848 271 
Q 434 634 434 1313 
Q 434 1759 690 2068 
Q 947 2378 1403 2484 
z
M 1172 3481 
Q 1172 3119 1398 2916 
Q 1625 2713 2034 2713 
Q 2441 2713 2670 2916 
Q 2900 3119 2900 3481 
Q 2900 3844 2670 4047 
Q 2441 4250 2034 4250 
Q 1625 4250 1398 4047 
Q 1172 3844 1172 3481 
z
" transform="scale(0.015625)"/>
       </defs>
       <use xlink:href="#DejaVuSans-38"/>
      </g>
     </g>
    </g>
    <g id="text_13">
     <!-- y -->
     <g transform="translate(16.318125 146.65125)rotate(-90)scale(0.12 -0.12)">
      <defs>
       <path id="DejaVuSans-79" d="M 2059 -325 
Q 1816 -950 1584 -1140 
Q 1353 -1331 966 -1331 
L 506 -1331 
L 506 -850 
L 844 -850 
Q 1081 -850 1212 -737 
Q 1344 -625 1503 -206 
L 1606 56 
L 191 3500 
L 800 3500 
L 1894 763 
L 2988 3500 
L 3597 3500 
L 2059 -325 
z
" transform="scale(0.015625)"/>
      </defs>
      <use xlink:href="#DejaVuSans-79"/>
     </g>
    </g>
   </g>
   <g id="line2d_23">
    <path d="M 52.436353 266.645455 
L 55.464152 264.149582 
L 58.491951 261.653717 
L 61.519749 259.157844 
L 64.547548 256.661979 
L 67.575347 254.166106 
L 70.603145 251.670248 
L 73.630944 249.174375 
L 76.658742 246.67851 
L 79.686541 244.182645 
L 82.71434 241.686772 
L 85.742138 239.190914 
L 88.769937 236.695041 
L 91.797736 234.199176 
L 94.825534 231.703303 
L 97.853333 229.207438 
L 100.881132 226.711566 
L 103.90893 224.215707 
L 106.936729 221.719835 
L 109.964528 219.223962 
L 112.992326 216.728097 
L 116.020125 214.232231 
L 119.047924 211.736359 
L 122.075722 209.240494 
L 125.103521 206.744628 
L 128.131319 204.248756 
L 131.159118 201.75289 
L 134.186917 199.257025 
L 137.214715 196.761152 
L 140.242514 194.265287 
L 143.270313 191.769421 
L 146.298111 189.273549 
L 149.32591 186.777684 
L 152.353709 184.281818 
L 155.381507 181.785946 
L 158.409306 179.290087 
L 161.437105 176.794215 
L 164.464903 174.298342 
L 167.492702 171.802477 
L 170.520501 169.306612 
L 173.548299 166.810739 
L 176.576098 164.314881 
L 179.603897 161.819008 
L 182.631695 159.323136 
L 185.659494 156.827277 
L 188.687292 154.331405 
L 191.715091 151.835532 
L 194.74289 149.339674 
L 197.770688 146.843802 
L 200.798487 144.347929 
L 203.826286 141.852071 
L 206.854084 139.356198 
L 209.881883 136.860326 
L 212.909682 134.364468 
L 215.93748 131.868595 
L 218.965279 129.372723 
L 221.993078 126.876864 
L 225.020876 124.380992 
L 228.048675 121.885119 
L 231.076474 119.389261 
L 234.104272 116.893388 
L 237.132071 114.397516 
L 240.159869 111.901658 
L 243.187668 109.405785 
L 246.215467 106.909913 
L 249.243265 104.414054 
L 252.271064 101.918182 
L 255.298863 99.422323 
L 258.326661 96.926451 
L 261.35446 94.430579 
L 264.382259 91.93472 
L 267.410057 89.438848 
L 270.437856 86.942975 
L 273.465655 84.447117 
L 276.493453 81.951244 
L 279.521252 79.455372 
L 282.549051 76.959514 
L 285.576849 74.463641 
L 288.604648 71.967769 
L 291.632446 69.47191 
L 294.660245 66.976038 
L 297.688044 64.480165 
L 300.715842 61.984293 
L 303.743641 59.488434 
L 306.77144 56.992562 
L 309.799238 54.496704 
L 312.827037 52.000817 
L 315.854836 49.504959 
L 318.882634 47.009072 
L 321.910433 44.513242 
L 324.938232 42.017355 
L 327.96603 39.521497 
L 330.993829 37.025639 
L 334.021628 34.529752 
L 337.049426 32.033894 
L 340.077225 29.538035 
L 343.105023 27.042149 
L 346.132822 24.54629 
L 349.160621 22.050432 
L 352.188419 19.554545 
" clip-path="url(#p766b4ba342)" style="fill: none; stroke-dasharray: 11.1,4.8; stroke-dashoffset: 0; stroke: #1f77b4; stroke-width: 3"/>
   </g>
   <g id="patch_3">
    <path d="M 37.44875 279 
L 37.44875 7.2 
" style="fill: none; stroke: #000000; stroke-width: 0.8; stroke-linejoin: miter; stroke-linecap: square"/>
   </g>
   <g id="patch_4">
    <path d="M 367.176023 279 
L 367.176023 7.2 
" style="fill: none; stroke: #000000; stroke-width: 0.8; stroke-linejoin: miter; stroke-linecap: square"/>
   </g>
   <g id="patch_5">
    <path d="M 37.44875 279 
L 367.176023 279 
" style="fill: none; stroke: #000000; stroke-width: 0.8; stroke-linejoin: miter; stroke-linecap: square"/>
   </g>
   <g id="patch_6">
    <path d="M 37.44875 7.2 
L 367.176023 7.2 
" style="fill: none; stroke: #000000; stroke-width: 0.8; stroke-linejoin: miter; stroke-linecap: square"/>
   </g>
   <g id="legend_1">
    <g id="patch_7">
     <path d="M 45.84875 52.0275 
L 193.31 52.0275 
Q 195.71 52.0275 195.71 49.6275 
L 195.71 15.6 
Q 195.71 13.2 193.31 13.2 
L 45.84875 13.2 
Q 43.44875 13.2 43.44875 15.6 
L 43.44875 49.6275 
Q 43.44875 52.0275 45.84875 52.0275 
z
" style="fill: #ffffff; opacity: 0.8; stroke: #cccccc; stroke-linejoin: miter"/>
    </g>
    <g id="PathCollection_2">
     <g>
      <use xlink:href="#m8d52accb41" x="60.24875" y="23.968125" style="fill: #1f77b4; stroke: #333333"/>
     </g>
    </g>
    <g id="text_14">
     <!-- Training examples -->
     <g transform="translate(81.84875 27.118125)scale(0.12 -0.12)">
      <defs>
       <path id="DejaVuSans-54" d="M -19 4666 
L 3928 4666 
L 3928 4134 
L 2272 4134 
L 2272 0 
L 1638 0 
L 1638 4134 
L -19 4134 
L -19 4666 
z
" transform="scale(0.015625)"/>
       <path id="DejaVuSans-72" d="M 2631 2963 
Q 2534 3019 2420 3045 
Q 2306 3072 2169 3072 
Q 1681 3072 1420 2755 
Q 1159 2438 1159 1844 
L 1159 0 
L 581 0 
L 581 3500 
L 1159 3500 
L 1159 2956 
Q 1341 3275 1631 3429 
Q 1922 3584 2338 3584 
Q 2397 3584 2469 3576 
Q 2541 3569 2628 3553 
L 2631 2963 
z
" transform="scale(0.015625)"/>
       <path id="DejaVuSans-61" d="M 2194 1759 
Q 1497 1759 1228 1600 
Q 959 1441 959 1056 
Q 959 750 1161 570 
Q 1363 391 1709 391 
Q 2188 391 2477 730 
Q 2766 1069 2766 1631 
L 2766 1759 
L 2194 1759 
z
M 3341 1997 
L 3341 0 
L 2766 0 
L 2766 531 
Q 2569 213 2275 61 
Q 1981 -91 1556 -91 
Q 1019 -91 701 211 
Q 384 513 384 1019 
Q 384 1609 779 1909 
Q 1175 2209 1959 2209 
L 2766 2209 
L 2766 2266 
Q 2766 2663 2505 2880 
Q 2244 3097 1772 3097 
Q 1472 3097 1187 3025 
Q 903 2953 641 2809 
L 641 3341 
Q 956 3463 1253 3523 
Q 1550 3584 1831 3584 
Q 2591 3584 2966 3190 
Q 3341 2797 3341 1997 
z
" transform="scale(0.015625)"/>
       <path id="DejaVuSans-69" d="M 603 3500 
L 1178 3500 
L 1178 0 
L 603 0 
L 603 3500 
z
M 603 4863 
L 1178 4863 
L 1178 4134 
L 603 4134 
L 603 4863 
z
" transform="scale(0.015625)"/>
       <path id="DejaVuSans-6e" d="M 3513 2113 
L 3513 0 
L 2938 0 
L 2938 2094 
Q 2938 2591 2744 2837 
Q 2550 3084 2163 3084 
Q 1697 3084 1428 2787 
Q 1159 2491 1159 1978 
L 1159 0 
L 581 0 
L 581 3500 
L 1159 3500 
L 1159 2956 
Q 1366 3272 1645 3428 
Q 1925 3584 2291 3584 
Q 2894 3584 3203 3211 
Q 3513 2838 3513 2113 
z
" transform="scale(0.015625)"/>
       <path id="DejaVuSans-67" d="M 2906 1791 
Q 2906 2416 2648 2759 
Q 2391 3103 1925 3103 
Q 1463 3103 1205 2759 
Q 947 2416 947 1791 
Q 947 1169 1205 825 
Q 1463 481 1925 481 
Q 2391 481 2648 825 
Q 2906 1169 2906 1791 
z
M 3481 434 
Q 3481 -459 3084 -895 
Q 2688 -1331 1869 -1331 
Q 1566 -1331 1297 -1286 
Q 1028 -1241 775 -1147 
L 775 -588 
Q 1028 -725 1275 -790 
Q 1522 -856 1778 -856 
Q 2344 -856 2625 -561 
Q 2906 -266 2906 331 
L 2906 616 
Q 2728 306 2450 153 
Q 2172 0 1784 0 
Q 1141 0 747 490 
Q 353 981 353 1791 
Q 353 2603 747 3093 
Q 1141 3584 1784 3584 
Q 2172 3584 2450 3431 
Q 2728 3278 2906 2969 
L 2906 3500 
L 3481 3500 
L 3481 434 
z
" transform="scale(0.015625)"/>
       <path id="DejaVuSans-20" transform="scale(0.015625)"/>
       <path id="DejaVuSans-65" d="M 3597 1894 
L 3597 1613 
L 953 1613 
Q 991 1019 1311 708 
Q 1631 397 2203 397 
Q 2534 397 2845 478 
Q 3156 559 3463 722 
L 3463 178 
Q 3153 47 2828 -22 
Q 2503 -91 2169 -91 
Q 1331 -91 842 396 
Q 353 884 353 1716 
Q 353 2575 817 3079 
Q 1281 3584 2069 3584 
Q 2775 3584 3186 3129 
Q 3597 2675 3597 1894 
z
M 3022 2063 
Q 3016 2534 2758 2815 
Q 2500 3097 2075 3097 
Q 1594 3097 1305 2825 
Q 1016 2553 972 2059 
L 3022 2063 
z
" transform="scale(0.015625)"/>
       <path id="DejaVuSans-6d" d="M 3328 2828 
Q 3544 3216 3844 3400 
Q 4144 3584 4550 3584 
Q 5097 3584 5394 3201 
Q 5691 2819 5691 2113 
L 5691 0 
L 5113 0 
L 5113 2094 
Q 5113 2597 4934 2840 
Q 4756 3084 4391 3084 
Q 3944 3084 3684 2787 
Q 3425 2491 3425 1978 
L 3425 0 
L 2847 0 
L 2847 2094 
Q 2847 2600 2669 2842 
Q 2491 3084 2119 3084 
Q 1678 3084 1418 2786 
Q 1159 2488 1159 1978 
L 1159 0 
L 581 0 
L 581 3500 
L 1159 3500 
L 1159 2956 
Q 1356 3278 1631 3431 
Q 1906 3584 2284 3584 
Q 2666 3584 2933 3390 
Q 3200 3197 3328 2828 
z
" transform="scale(0.015625)"/>
       <path id="DejaVuSans-70" d="M 1159 525 
L 1159 -1331 
L 581 -1331 
L 581 3500 
L 1159 3500 
L 1159 2969 
Q 1341 3281 1617 3432 
Q 1894 3584 2278 3584 
Q 2916 3584 3314 3078 
Q 3713 2572 3713 1747 
Q 3713 922 3314 415 
Q 2916 -91 2278 -91 
Q 1894 -91 1617 61 
Q 1341 213 1159 525 
z
M 3116 1747 
Q 3116 2381 2855 2742 
Q 2594 3103 2138 3103 
Q 1681 3103 1420 2742 
Q 1159 2381 1159 1747 
Q 1159 1113 1420 752 
Q 1681 391 2138 391 
Q 2594 391 2855 752 
Q 3116 1113 3116 1747 
z
" transform="scale(0.015625)"/>
       <path id="DejaVuSans-6c" d="M 603 4863 
L 1178 4863 
L 1178 0 
L 603 0 
L 603 4863 
z
" transform="scale(0.015625)"/>
       <path id="DejaVuSans-73" d="M 2834 3397 
L 2834 2853 
Q 2591 2978 2328 3040 
Q 2066 3103 1784 3103 
Q 1356 3103 1142 2972 
Q 928 2841 928 2578 
Q 928 2378 1081 2264 
Q 1234 2150 1697 2047 
L 1894 2003 
Q 2506 1872 2764 1633 
Q 3022 1394 3022 966 
Q 3022 478 2636 193 
Q 2250 -91 1575 -91 
Q 1294 -91 989 -36 
Q 684 19 347 128 
L 347 722 
Q 666 556 975 473 
Q 1284 391 1588 391 
Q 1994 391 2212 530 
Q 2431 669 2431 922 
Q 2431 1156 2273 1281 
Q 2116 1406 1581 1522 
L 1381 1569 
Q 847 1681 609 1914 
Q 372 2147 372 2553 
Q 372 3047 722 3315 
Q 1072 3584 1716 3584 
Q 2034 3584 2315 3537 
Q 2597 3491 2834 3397 
z
" transform="scale(0.015625)"/>
      </defs>
      <use xlink:href="#DejaVuSans-54"/>
      <use xlink:href="#DejaVuSans-72" x="46.333984"/>
      <use xlink:href="#DejaVuSans-61" x="87.447266"/>
      <use xlink:href="#DejaVuSans-69" x="148.726562"/>
      <use xlink:href="#DejaVuSans-6e" x="176.509766"/>
      <use xlink:href="#DejaVuSans-69" x="239.888672"/>
      <use xlink:href="#DejaVuSans-6e" x="267.671875"/>
      <use xlink:href="#DejaVuSans-67" x="331.050781"/>
      <use xlink:href="#DejaVuSans-20" x="394.527344"/>
      <use xlink:href="#DejaVuSans-65" x="426.314453"/>
      <use xlink:href="#DejaVuSans-78" x="486.087891"/>
      <use xlink:href="#DejaVuSans-61" x="545.267578"/>
      <use xlink:href="#DejaVuSans-6d" x="606.546875"/>
      <use xlink:href="#DejaVuSans-70" x="703.958984"/>
      <use xlink:href="#DejaVuSans-6c" x="767.435547"/>
      <use xlink:href="#DejaVuSans-65" x="795.21875"/>
      <use xlink:href="#DejaVuSans-73" x="856.742188"/>
     </g>
    </g>
    <g id="line2d_24">
     <path d="M 48.24875 40.531875 
L 60.24875 40.531875 
L 72.24875 40.531875 
" style="fill: none; stroke-dasharray: 11.1,4.8; stroke-dashoffset: 0; stroke: #1f77b4; stroke-width: 3"/>
    </g>
    <g id="text_15">
     <!-- Trained Model -->
     <g transform="translate(81.84875 44.731875)scale(0.12 -0.12)">
      <defs>
       <path id="DejaVuSans-64" d="M 2906 2969 
L 2906 4863 
L 3481 4863 
L 3481 0 
L 2906 0 
L 2906 525 
Q 2725 213 2448 61 
Q 2172 -91 1784 -91 
Q 1150 -91 751 415 
Q 353 922 353 1747 
Q 353 2572 751 3078 
Q 1150 3584 1784 3584 
Q 2172 3584 2448 3432 
Q 2725 3281 2906 2969 
z
M 947 1747 
Q 947 1113 1208 752 
Q 1469 391 1925 391 
Q 2381 391 2643 752 
Q 2906 1113 2906 1747 
Q 2906 2381 2643 2742 
Q 2381 3103 1925 3103 
Q 1469 3103 1208 2742 
Q 947 2381 947 1747 
z
" transform="scale(0.015625)"/>
       <path id="DejaVuSans-4d" d="M 628 4666 
L 1569 4666 
L 2759 1491 
L 3956 4666 
L 4897 4666 
L 4897 0 
L 4281 0 
L 4281 4097 
L 3078 897 
L 2444 897 
L 1241 4097 
L 1241 0 
L 628 0 
L 628 4666 
z
" transform="scale(0.015625)"/>
       <path id="DejaVuSans-6f" d="M 1959 3097 
Q 1497 3097 1228 2736 
Q 959 2375 959 1747 
Q 959 1119 1226 758 
Q 1494 397 1959 397 
Q 2419 397 2687 759 
Q 2956 1122 2956 1747 
Q 2956 2369 2687 2733 
Q 2419 3097 1959 3097 
z
M 1959 3584 
Q 2709 3584 3137 3096 
Q 3566 2609 3566 1747 
Q 3566 888 3137 398 
Q 2709 -91 1959 -91 
Q 1206 -91 779 398 
Q 353 888 353 1747 
Q 353 2609 779 3096 
Q 1206 3584 1959 3584 
z
" transform="scale(0.015625)"/>
      </defs>
      <use xlink:href="#DejaVuSans-54"/>
      <use xlink:href="#DejaVuSans-72" x="46.333984"/>
      <use xlink:href="#DejaVuSans-61" x="87.447266"/>
      <use xlink:href="#DejaVuSans-69" x="148.726562"/>
      <use xlink:href="#DejaVuSans-6e" x="176.509766"/>
      <use xlink:href="#DejaVuSans-65" x="239.888672"/>
      <use xlink:href="#DejaVuSans-64" x="301.412109"/>
      <use xlink:href="#DejaVuSans-20" x="364.888672"/>
      <use xlink:href="#DejaVuSans-4d" x="396.675781"/>
      <use xlink:href="#DejaVuSans-6f" x="482.955078"/>
      <use xlink:href="#DejaVuSans-64" x="544.136719"/>
      <use xlink:href="#DejaVuSans-65" x="607.613281"/>
      <use xlink:href="#DejaVuSans-6c" x="669.136719"/>
     </g>
    </g>
   </g>
  </g>
  <g id="axes_2">
   <g id="patch_8">
    <path d="M 433.121477 279 
L 762.84875 279 
L 762.84875 7.2 
L 433.121477 7.2 
z
" style="fill: #ffffff"/>
   </g>
   <g id="matplotlib.axis_3">
    <g id="xtick_8">
     <g id="line2d_25">
      <path d="M 448.109081 279 
L 448.109081 7.2 
" clip-path="url(#p1e7745c0d7)" style="fill: none; stroke: #b0b0b0; stroke-width: 0.8; stroke-linecap: square"/>
     </g>
     <g id="line2d_26">
      <g>
       <use xlink:href="#mb93dc98fb6" x="448.109081" y="279" style="stroke: #000000; stroke-width: 0.8"/>
      </g>
     </g>
     <g id="text_16">
      <!-- 0 -->
      <g transform="translate(444.291581 295.118125)scale(0.12 -0.12)">
       <use xlink:href="#DejaVuSans-30"/>
      </g>
     </g>
    </g>
    <g id="xtick_9">
     <g id="line2d_27">
      <path d="M 485.596833 279 
L 485.596833 7.2 
" clip-path="url(#p1e7745c0d7)" style="fill: none; stroke: #b0b0b0; stroke-width: 0.8; stroke-linecap: square"/>
     </g>
     <g id="line2d_28">
      <g>
       <use xlink:href="#mb93dc98fb6" x="485.596833" y="279" style="stroke: #000000; stroke-width: 0.8"/>
      </g>
     </g>
     <g id="text_17">
      <!-- 250 -->
      <g transform="translate(474.144333 295.118125)scale(0.12 -0.12)">
       <use xlink:href="#DejaVuSans-32"/>
       <use xlink:href="#DejaVuSans-35" x="63.623047"/>
       <use xlink:href="#DejaVuSans-30" x="127.246094"/>
      </g>
     </g>
    </g>
    <g id="xtick_10">
     <g id="line2d_29">
      <path d="M 523.084585 279 
L 523.084585 7.2 
" clip-path="url(#p1e7745c0d7)" style="fill: none; stroke: #b0b0b0; stroke-width: 0.8; stroke-linecap: square"/>
     </g>
     <g id="line2d_30">
      <g>
       <use xlink:href="#mb93dc98fb6" x="523.084585" y="279" style="stroke: #000000; stroke-width: 0.8"/>
      </g>
     </g>
     <g id="text_18">
      <!-- 500 -->
      <g transform="translate(511.632085 295.118125)scale(0.12 -0.12)">
       <use xlink:href="#DejaVuSans-35"/>
       <use xlink:href="#DejaVuSans-30" x="63.623047"/>
       <use xlink:href="#DejaVuSans-30" x="127.246094"/>
      </g>
     </g>
    </g>
    <g id="xtick_11">
     <g id="line2d_31">
      <path d="M 560.572337 279 
L 560.572337 7.2 
" clip-path="url(#p1e7745c0d7)" style="fill: none; stroke: #b0b0b0; stroke-width: 0.8; stroke-linecap: square"/>
     </g>
     <g id="line2d_32">
      <g>
       <use xlink:href="#mb93dc98fb6" x="560.572337" y="279" style="stroke: #000000; stroke-width: 0.8"/>
      </g>
     </g>
     <g id="text_19">
      <!-- 750 -->
      <g transform="translate(549.119837 295.118125)scale(0.12 -0.12)">
       <defs>
        <path id="DejaVuSans-37" d="M 525 4666 
L 3525 4666 
L 3525 4397 
L 1831 0 
L 1172 0 
L 2766 4134 
L 525 4134 
L 525 4666 
z
" transform="scale(0.015625)"/>
       </defs>
       <use xlink:href="#DejaVuSans-37"/>
       <use xlink:href="#DejaVuSans-35" x="63.623047"/>
       <use xlink:href="#DejaVuSans-30" x="127.246094"/>
      </g>
     </g>
    </g>
    <g id="xtick_12">
     <g id="line2d_33">
      <path d="M 598.060089 279 
L 598.060089 7.2 
" clip-path="url(#p1e7745c0d7)" style="fill: none; stroke: #b0b0b0; stroke-width: 0.8; stroke-linecap: square"/>
     </g>
     <g id="line2d_34">
      <g>
       <use xlink:href="#mb93dc98fb6" x="598.060089" y="279" style="stroke: #000000; stroke-width: 0.8"/>
      </g>
     </g>
     <g id="text_20">
      <!-- 1000 -->
      <g transform="translate(582.790089 295.118125)scale(0.12 -0.12)">
       <use xlink:href="#DejaVuSans-31"/>
       <use xlink:href="#DejaVuSans-30" x="63.623047"/>
       <use xlink:href="#DejaVuSans-30" x="127.246094"/>
       <use xlink:href="#DejaVuSans-30" x="190.869141"/>
      </g>
     </g>
    </g>
    <g id="xtick_13">
     <g id="line2d_35">
      <path d="M 635.547841 279 
L 635.547841 7.2 
" clip-path="url(#p1e7745c0d7)" style="fill: none; stroke: #b0b0b0; stroke-width: 0.8; stroke-linecap: square"/>
     </g>
     <g id="line2d_36">
      <g>
       <use xlink:href="#mb93dc98fb6" x="635.547841" y="279" style="stroke: #000000; stroke-width: 0.8"/>
      </g>
     </g>
     <g id="text_21">
      <!-- 1250 -->
      <g transform="translate(620.277841 295.118125)scale(0.12 -0.12)">
       <use xlink:href="#DejaVuSans-31"/>
       <use xlink:href="#DejaVuSans-32" x="63.623047"/>
       <use xlink:href="#DejaVuSans-35" x="127.246094"/>
       <use xlink:href="#DejaVuSans-30" x="190.869141"/>
      </g>
     </g>
    </g>
    <g id="xtick_14">
     <g id="line2d_37">
      <path d="M 673.035593 279 
L 673.035593 7.2 
" clip-path="url(#p1e7745c0d7)" style="fill: none; stroke: #b0b0b0; stroke-width: 0.8; stroke-linecap: square"/>
     </g>
     <g id="line2d_38">
      <g>
       <use xlink:href="#mb93dc98fb6" x="673.035593" y="279" style="stroke: #000000; stroke-width: 0.8"/>
      </g>
     </g>
     <g id="text_22">
      <!-- 1500 -->
      <g transform="translate(657.765593 295.118125)scale(0.12 -0.12)">
       <use xlink:href="#DejaVuSans-31"/>
       <use xlink:href="#DejaVuSans-35" x="63.623047"/>
       <use xlink:href="#DejaVuSans-30" x="127.246094"/>
       <use xlink:href="#DejaVuSans-30" x="190.869141"/>
      </g>
     </g>
    </g>
    <g id="xtick_15">
     <g id="line2d_39">
      <path d="M 710.523346 279 
L 710.523346 7.2 
" clip-path="url(#p1e7745c0d7)" style="fill: none; stroke: #b0b0b0; stroke-width: 0.8; stroke-linecap: square"/>
     </g>
     <g id="line2d_40">
      <g>
       <use xlink:href="#mb93dc98fb6" x="710.523346" y="279" style="stroke: #000000; stroke-width: 0.8"/>
      </g>
     </g>
     <g id="text_23">
      <!-- 1750 -->
      <g transform="translate(695.253346 295.118125)scale(0.12 -0.12)">
       <use xlink:href="#DejaVuSans-31"/>
       <use xlink:href="#DejaVuSans-37" x="63.623047"/>
       <use xlink:href="#DejaVuSans-35" x="127.246094"/>
       <use xlink:href="#DejaVuSans-30" x="190.869141"/>
      </g>
     </g>
    </g>
    <g id="xtick_16">
     <g id="line2d_41">
      <path d="M 748.011098 279 
L 748.011098 7.2 
" clip-path="url(#p1e7745c0d7)" style="fill: none; stroke: #b0b0b0; stroke-width: 0.8; stroke-linecap: square"/>
     </g>
     <g id="line2d_42">
      <g>
       <use xlink:href="#mb93dc98fb6" x="748.011098" y="279" style="stroke: #000000; stroke-width: 0.8"/>
      </g>
     </g>
     <g id="text_24">
      <!-- 2000 -->
      <g transform="translate(732.741098 295.118125)scale(0.12 -0.12)">
       <use xlink:href="#DejaVuSans-32"/>
       <use xlink:href="#DejaVuSans-30" x="63.623047"/>
       <use xlink:href="#DejaVuSans-30" x="127.246094"/>
       <use xlink:href="#DejaVuSans-30" x="190.869141"/>
      </g>
     </g>
    </g>
    <g id="text_25">
     <!-- Iteration -->
     <g transform="translate(572.534801 310.731875)scale(0.12 -0.12)">
      <defs>
       <path id="DejaVuSans-49" d="M 628 4666 
L 1259 4666 
L 1259 0 
L 628 0 
L 628 4666 
z
" transform="scale(0.015625)"/>
       <path id="DejaVuSans-74" d="M 1172 4494 
L 1172 3500 
L 2356 3500 
L 2356 3053 
L 1172 3053 
L 1172 1153 
Q 1172 725 1289 603 
Q 1406 481 1766 481 
L 2356 481 
L 2356 0 
L 1766 0 
Q 1100 0 847 248 
Q 594 497 594 1153 
L 594 3053 
L 172 3053 
L 172 3500 
L 594 3500 
L 594 4494 
L 1172 4494 
z
" transform="scale(0.015625)"/>
      </defs>
      <use xlink:href="#DejaVuSans-49"/>
      <use xlink:href="#DejaVuSans-74" x="29.492188"/>
      <use xlink:href="#DejaVuSans-65" x="68.701172"/>
      <use xlink:href="#DejaVuSans-72" x="130.224609"/>
      <use xlink:href="#DejaVuSans-61" x="171.337891"/>
      <use xlink:href="#DejaVuSans-74" x="232.617188"/>
      <use xlink:href="#DejaVuSans-69" x="271.826172"/>
      <use xlink:href="#DejaVuSans-6f" x="299.609375"/>
      <use xlink:href="#DejaVuSans-6e" x="360.791016"/>
     </g>
    </g>
   </g>
   <g id="matplotlib.axis_4">
    <g id="ytick_5">
     <g id="line2d_43">
      <path d="M 433.121477 266.63498 
L 762.84875 266.63498 
" clip-path="url(#p1e7745c0d7)" style="fill: none; stroke: #b0b0b0; stroke-width: 0.8; stroke-linecap: square"/>
     </g>
     <g id="line2d_44">
      <g>
       <use xlink:href="#m99707d1e21" x="433.121477" y="266.63498" style="stroke: #000000; stroke-width: 0.8"/>
      </g>
     </g>
     <g id="text_26">
      <!-- 0 -->
      <g transform="translate(418.486477 271.194042)scale(0.12 -0.12)">
       <use xlink:href="#DejaVuSans-30"/>
      </g>
     </g>
    </g>
    <g id="ytick_6">
     <g id="line2d_45">
      <path d="M 433.121477 216.031261 
L 762.84875 216.031261 
" clip-path="url(#p1e7745c0d7)" style="fill: none; stroke: #b0b0b0; stroke-width: 0.8; stroke-linecap: square"/>
     </g>
     <g id="line2d_46">
      <g>
       <use xlink:href="#m99707d1e21" x="433.121477" y="216.031261" style="stroke: #000000; stroke-width: 0.8"/>
      </g>
     </g>
     <g id="text_27">
      <!-- 1 -->
      <g transform="translate(418.486477 220.590324)scale(0.12 -0.12)">
       <use xlink:href="#DejaVuSans-31"/>
      </g>
     </g>
    </g>
    <g id="ytick_7">
     <g id="line2d_47">
      <path d="M 433.121477 165.427543 
L 762.84875 165.427543 
" clip-path="url(#p1e7745c0d7)" style="fill: none; stroke: #b0b0b0; stroke-width: 0.8; stroke-linecap: square"/>
     </g>
     <g id="line2d_48">
      <g>
       <use xlink:href="#m99707d1e21" x="433.121477" y="165.427543" style="stroke: #000000; stroke-width: 0.8"/>
      </g>
     </g>
     <g id="text_28">
      <!-- 2 -->
      <g transform="translate(418.486477 169.986605)scale(0.12 -0.12)">
       <use xlink:href="#DejaVuSans-32"/>
      </g>
     </g>
    </g>
    <g id="ytick_8">
     <g id="line2d_49">
      <path d="M 433.121477 114.823824 
L 762.84875 114.823824 
" clip-path="url(#p1e7745c0d7)" style="fill: none; stroke: #b0b0b0; stroke-width: 0.8; stroke-linecap: square"/>
     </g>
     <g id="line2d_50">
      <g>
       <use xlink:href="#m99707d1e21" x="433.121477" y="114.823824" style="stroke: #000000; stroke-width: 0.8"/>
      </g>
     </g>
     <g id="text_29">
      <!-- 3 -->
      <g transform="translate(418.486477 119.382887)scale(0.12 -0.12)">
       <defs>
        <path id="DejaVuSans-33" d="M 2597 2516 
Q 3050 2419 3304 2112 
Q 3559 1806 3559 1356 
Q 3559 666 3084 287 
Q 2609 -91 1734 -91 
Q 1441 -91 1130 -33 
Q 819 25 488 141 
L 488 750 
Q 750 597 1062 519 
Q 1375 441 1716 441 
Q 2309 441 2620 675 
Q 2931 909 2931 1356 
Q 2931 1769 2642 2001 
Q 2353 2234 1838 2234 
L 1294 2234 
L 1294 2753 
L 1863 2753 
Q 2328 2753 2575 2939 
Q 2822 3125 2822 3475 
Q 2822 3834 2567 4026 
Q 2313 4219 1838 4219 
Q 1578 4219 1281 4162 
Q 984 4106 628 3988 
L 628 4550 
Q 988 4650 1302 4700 
Q 1616 4750 1894 4750 
Q 2613 4750 3031 4423 
Q 3450 4097 3450 3541 
Q 3450 3153 3228 2886 
Q 3006 2619 2597 2516 
z
" transform="scale(0.015625)"/>
       </defs>
       <use xlink:href="#DejaVuSans-33"/>
      </g>
     </g>
    </g>
    <g id="ytick_9">
     <g id="line2d_51">
      <path d="M 433.121477 64.220106 
L 762.84875 64.220106 
" clip-path="url(#p1e7745c0d7)" style="fill: none; stroke: #b0b0b0; stroke-width: 0.8; stroke-linecap: square"/>
     </g>
     <g id="line2d_52">
      <g>
       <use xlink:href="#m99707d1e21" x="433.121477" y="64.220106" style="stroke: #000000; stroke-width: 0.8"/>
      </g>
     </g>
     <g id="text_30">
      <!-- 4 -->
      <g transform="translate(418.486477 68.779168)scale(0.12 -0.12)">
       <use xlink:href="#DejaVuSans-34"/>
      </g>
     </g>
    </g>
    <g id="ytick_10">
     <g id="line2d_53">
      <path d="M 433.121477 13.616387 
L 762.84875 13.616387 
" clip-path="url(#p1e7745c0d7)" style="fill: none; stroke: #b0b0b0; stroke-width: 0.8; stroke-linecap: square"/>
     </g>
     <g id="line2d_54">
      <g>
       <use xlink:href="#m99707d1e21" x="433.121477" y="13.616387" style="stroke: #000000; stroke-width: 0.8"/>
      </g>
     </g>
     <g id="text_31">
      <!-- 5 -->
      <g transform="translate(418.486477 18.175449)scale(0.12 -0.12)">
       <use xlink:href="#DejaVuSans-35"/>
      </g>
     </g>
    </g>
    <g id="text_32">
     <!-- Value -->
     <g transform="translate(411.990852 159.5775)rotate(-90)scale(0.12 -0.12)">
      <defs>
       <path id="DejaVuSans-56" d="M 1831 0 
L 50 4666 
L 709 4666 
L 2188 738 
L 3669 4666 
L 4325 4666 
L 2547 0 
L 1831 0 
z
" transform="scale(0.015625)"/>
       <path id="DejaVuSans-75" d="M 544 1381 
L 544 3500 
L 1119 3500 
L 1119 1403 
Q 1119 906 1312 657 
Q 1506 409 1894 409 
Q 2359 409 2629 706 
Q 2900 1003 2900 1516 
L 2900 3500 
L 3475 3500 
L 3475 0 
L 2900 0 
L 2900 538 
Q 2691 219 2414 64 
Q 2138 -91 1772 -91 
Q 1169 -91 856 284 
Q 544 659 544 1381 
z
M 1991 3584 
L 1991 3584 
z
" transform="scale(0.015625)"/>
      </defs>
      <use xlink:href="#DejaVuSans-56"/>
      <use xlink:href="#DejaVuSans-61" x="60.658203"/>
      <use xlink:href="#DejaVuSans-6c" x="121.9375"/>
      <use xlink:href="#DejaVuSans-75" x="149.720703"/>
      <use xlink:href="#DejaVuSans-65" x="213.099609"/>
     </g>
    </g>
   </g>
   <g id="line2d_55">
    <path d="M 448.109081 266.63498 
L 448.259032 266.286144 
L 448.408983 266.374022 
L 448.558934 266.645455 
L 448.708885 265.996159 
L 449.008787 263.60637 
L 449.158738 263.767474 
L 449.308689 263.65806 
L 449.758542 264.074357 
L 449.908493 263.965291 
L 450.058444 264.051552 
L 450.358346 262.023171 
L 450.508297 261.68503 
L 450.808199 262.10368 
L 450.95815 261.152241 
L 451.258052 261.404861 
L 451.408003 261.297658 
L 451.557954 260.352717 
L 451.857856 260.587072 
L 452.007807 260.254044 
L 452.157758 258.897838 
L 452.307709 258.993687 
L 452.45766 258.377185 
L 452.607611 258.637758 
L 452.757562 258.023548 
L 453.057464 258.253817 
L 453.357366 258.604929 
L 453.507317 257.268838 
L 453.657268 257.419163 
L 453.807219 257.314786 
L 454.107121 256.076052 
L 454.407023 254.569332 
L 454.556974 254.65091 
L 454.706925 254.740936 
L 454.856876 253.439464 
L 455.306729 253.989966 
L 455.606631 253.569758 
L 455.756582 253.710446 
L 456.206435 252.704596 
L 456.356386 252.953594 
L 456.506337 252.071577 
L 456.95619 252.379679 
L 457.256092 249.847767 
L 457.555994 250.232638 
L 457.705945 250.311384 
L 458.155798 249.331634 
L 458.4557 249.555856 
L 458.755602 248.393795 
L 459.205455 248.856353 
L 459.355406 248.291155 
L 459.505357 248.193445 
L 459.655308 248.321964 
L 459.805259 247.47657 
L 459.95521 247.554791 
L 460.105161 246.335682 
L 460.405063 246.542787 
L 460.555014 245.331883 
L 460.704965 245.475086 
L 460.854916 245.378733 
L 461.154818 244.531204 
L 461.45472 244.84328 
L 461.604671 244.020889 
L 461.754622 244.160422 
L 461.904573 244.065271 
L 462.054524 243.248385 
L 462.354426 243.448392 
L 462.504377 242.907103 
L 462.654328 241.734279 
L 462.804279 241.445723 
L 462.95423 241.517895 
L 463.104181 241.749998 
L 463.404083 240.662148 
L 463.853936 241.151478 
L 464.153838 241.294763 
L 464.30379 240.764642 
L 464.453741 239.616522 
L 464.603692 239.524304 
L 465.203496 239.756444 
L 465.353447 239.475408 
L 465.503398 239.54223 
L 465.653349 239.766633 
L 466.103202 237.344792 
L 466.253153 237.410331 
L 466.553055 236.366283 
L 466.703006 236.589414 
L 466.852957 235.483117 
L 467.002908 235.619133 
L 467.152859 235.529545 
L 467.30281 235.599814 
L 467.452761 235.094206 
L 467.752663 235.270455 
L 467.902614 234.766729 
L 468.052565 234.836425 
L 468.352467 233.818455 
L 468.502418 233.93023 
L 468.652369 233.842108 
L 468.952271 234.189157 
L 469.102222 233.112015 
L 469.252173 233.242357 
L 469.402124 232.976086 
L 469.552075 233.192026 
L 469.702026 232.699402 
L 470.30183 232.845369 
L 470.601732 231.060034 
L 470.751683 231.273347 
L 470.901634 231.187315 
L 471.051585 230.704112 
L 471.351487 230.895952 
L 471.501438 230.636648 
L 471.80134 228.888256 
L 471.951291 228.942695 
L 472.101242 229.047032 
L 472.251193 228.340182 
L 472.401144 228.394115 
L 472.701046 226.903139 
L 472.850997 226.819224 
L 473.150899 227.131916 
L 473.450801 227.323859 
L 473.600752 227.071799 
L 473.750703 227.123247 
L 473.900654 227.039963 
L 474.050605 226.789168 
L 474.200556 226.994379 
L 474.500458 225.309867 
L 474.650409 225.409879 
L 474.80036 225.47429 
L 474.950311 225.016317 
L 475.100262 225.140793 
L 475.250213 224.463025 
L 475.400164 224.52696 
L 475.999968 222.775307 
L 476.899674 223.413711 
L 477.199576 223.091392 
L 477.349527 223.28991 
L 477.499478 222.329321 
L 477.649429 222.422419 
L 477.79938 221.766096 
L 477.949331 221.828291 
L 478.549135 219.891038 
L 478.699086 220.015047 
L 478.998988 219.978858 
L 479.148939 220.040226 
L 479.29889 219.607321 
L 479.448841 219.802428 
L 479.598792 219.568906 
L 479.748743 219.61005 
L 479.898694 219.377183 
L 480.048645 219.570556 
L 480.198596 218.647597 
L 480.348547 218.570056 
L 480.7984 218.836029 
L 481.098302 217.784232 
L 481.248253 217.707418 
L 481.398204 217.897762 
L 481.698106 217.249822 
L 482.14796 217.485669 
L 482.297911 216.867926 
L 482.447862 216.927011 
L 482.747764 215.145609 
L 483.047666 215.348981 
L 483.197617 215.536843 
L 483.497519 214.903437 
L 483.797421 214.996319 
L 483.947372 214.394849 
L 484.097323 214.320306 
L 484.247274 214.505484 
L 484.397225 213.635902 
L 484.547176 213.693506 
L 484.697127 213.619536 
L 484.847078 213.401512 
L 484.997029 212.811757 
L 485.14698 212.926048 
L 485.296931 212.527075 
L 485.746784 212.717567 
L 485.896735 211.865956 
L 486.046686 211.980922 
L 486.196637 211.585587 
L 486.346588 211.51283 
L 486.496539 211.569215 
L 486.64649 211.749922 
L 486.946392 210.960548 
L 487.246294 211.045907 
L 487.546196 210.086473 
L 487.846098 210.191286 
L 487.996049 210.119742 
L 488.146 210.23019 
L 488.295951 210.020713 
L 488.445902 210.197886 
L 488.595853 209.375557 
L 488.745804 209.304621 
L 489.045706 209.507377 
L 489.495559 209.741424 
L 489.795461 209.154752 
L 490.095363 207.794347 
L 490.395265 206.791594 
L 490.545216 206.419972 
L 490.845118 206.603762 
L 490.995069 206.534516 
L 491.444922 206.783571 
L 491.744824 205.876377 
L 491.894775 205.807807 
L 492.194677 206.000621 
L 492.344628 206.106201 
L 492.64453 204.797169 
L 492.794481 204.849699 
L 492.944432 204.652807 
L 493.094383 204.720388 
L 493.244334 204.194595 
L 493.394285 204.21522 
L 493.694187 204.490233 
L 493.844138 204.542269 
L 493.994089 203.779341 
L 494.14404 203.712248 
L 494.293991 203.356853 
L 494.443942 203.42251 
L 494.593893 203.229315 
L 495.043746 203.450386 
L 495.193697 203.383885 
L 495.343648 203.548829 
L 495.64355 202.60827 
L 495.793501 202.259186 
L 495.943452 202.276125 
L 496.093403 201.76978 
L 496.243354 201.82035 
L 496.393305 201.317082 
L 496.543256 201.333334 
L 496.843158 200.259724 
L 496.993109 200.366081 
L 497.14306 200.30113 
L 497.293011 200.114951 
L 497.592913 200.338356 
L 497.742864 200.273749 
L 498.042766 200.493915 
L 498.192717 200.308882 
L 498.492619 200.422424 
L 498.64257 199.704981 
L 498.792521 199.754236 
L 499.092423 198.933004 
L 499.242374 198.750879 
L 499.392326 198.9099 
L 499.542277 198.206325 
L 499.692228 198.308388 
L 499.842179 197.978173 
L 499.99213 197.990057 
L 500.142081 197.513657 
L 500.441983 197.499011 
L 500.741885 197.612276 
L 501.041787 197.371032 
L 501.191738 196.900919 
L 501.341689 197.001003 
L 501.49164 196.677429 
L 501.941493 196.889391 
L 502.091444 196.208365 
L 502.391346 196.264835 
L 502.691248 195.414817 
L 502.841199 195.568964 
L 502.99115 195.507704 
L 503.141101 195.605466 
L 503.441003 194.833779 
L 503.890856 195.030219 
L 504.040807 194.858319 
L 504.190758 194.864955 
L 504.340709 194.552227 
L 504.49066 194.703503 
L 504.790562 193.60017 
L 504.940513 193.651615 
L 505.090464 193.591598 
L 505.390366 193.738766 
L 505.540317 193.089947 
L 505.840219 193.140608 
L 506.290072 193.062391 
L 506.889876 191.256492 
L 507.339729 191.390345 
L 507.789582 191.02563 
L 508.089484 191.074734 
L 508.389386 190.853935 
L 508.689288 190.89936 
L 508.839239 190.281427 
L 509.139141 190.421862 
L 509.289092 190.129289 
L 509.439043 190.273881 
L 509.588994 189.856617 
L 509.738945 190.000738 
L 509.888896 189.391927 
L 510.038847 189.334866 
L 510.338749 189.428278 
L 510.4887 189.016655 
L 510.638651 189.059944 
L 510.788602 188.90219 
L 510.938553 188.945491 
L 511.238455 188.503036 
L 511.388406 188.446705 
L 511.688308 187.572183 
L 511.838259 187.713638 
L 511.98821 187.313784 
L 512.288112 187.405151 
L 512.887916 187.67056 
L 513.037867 187.761022 
L 513.48772 186.824324 
L 513.637671 186.54831 
L 513.787622 186.544419 
L 514.087524 186.337609 
L 514.237475 186.428627 
L 514.387426 186.039474 
L 514.837279 185.873619 
L 514.98723 185.307933 
L 515.137181 185.302655 
L 515.287132 185.032909 
L 515.587034 185.210871 
L 515.736985 184.651743 
L 515.886936 184.743442 
L 516.036887 184.689579 
L 516.186838 184.31225 
L 516.636691 184.52502 
L 516.936594 184.114211 
L 517.086545 184.106731 
L 517.236496 183.55936 
L 517.386447 183.596454 
L 517.536398 183.3347 
L 517.986251 183.500912 
L 518.136202 183.356701 
L 518.286153 182.98973 
L 518.436104 182.937103 
L 518.885957 183.106155 
L 519.185859 183.179063 
L 519.33581 183.036746 
L 519.485761 182.503926 
L 519.785663 182.580441 
L 520.085565 181.966695 
L 520.235516 181.826326 
L 520.385467 181.303308 
L 520.83532 181.280162 
L 521.135222 181.496328 
L 521.735026 180.413953 
L 521.884977 180.5433 
L 522.634732 179.94168 
L 523.534438 179.931002 
L 523.684389 179.429273 
L 524.134242 179.623402 
L 524.434144 179.045363 
L 524.734046 178.673475 
L 524.883997 178.183527 
L 525.183899 178.16283 
L 525.483801 178.233252 
L 525.633752 178.101739 
L 525.783703 177.773243 
L 526.383507 177.998506 
L 526.533458 177.517371 
L 526.683409 177.501102 
L 527.133262 177.224141 
L 527.283213 177.347444 
L 527.433164 177.298961 
L 527.583115 176.978024 
L 527.883017 177.136327 
L 528.032968 176.817362 
L 528.482821 176.56561 
L 528.782723 175.973901 
L 529.232576 176.019778 
L 529.382527 176.044076 
L 529.532478 175.58268 
L 529.982331 175.821202 
L 530.132282 175.69627 
L 530.432184 175.165024 
L 531.031988 175.028595 
L 531.181939 174.579281 
L 531.481841 174.635895 
L 531.781743 174.117076 
L 532.081645 174.214138 
L 532.381547 174.227753 
L 532.531498 174.307978 
L 532.681449 174.091631 
L 532.8314 174.112292 
L 533.281253 173.649888 
L 533.431204 173.214588 
L 533.581155 173.331351 
L 533.731106 172.898904 
L 534.031008 173.036058 
L 534.180959 173.116199 
L 534.480862 172.707755 
L 534.780764 172.639486 
L 534.930715 172.430154 
L 535.080666 172.463845 
L 535.380568 172.301868 
L 535.68047 172.398164 
L 535.980372 171.907896 
L 536.130323 171.490615 
L 536.580176 171.613242 
L 536.730127 171.333838 
L 537.479882 171.428571 
L 537.779784 170.904304 
L 537.929735 170.703243 
L 538.079686 170.781653 
L 538.229637 170.668852 
L 538.379588 170.780712 
L 538.829441 170.122447 
L 539.129343 170.11116 
L 539.279294 170.188327 
L 539.729147 169.697076 
L 539.879098 169.807789 
L 540.029049 169.612091 
L 540.328951 169.601009 
L 540.628853 169.463578 
L 540.778804 169.539593 
L 540.928755 169.148914 
L 541.078706 169.162795 
L 541.67851 168.283339 
L 542.278314 168.513862 
L 542.578216 168.377734 
L 542.728167 167.998083 
L 543.627873 167.782025 
L 543.777824 167.531245 
L 543.927775 167.501252 
L 544.377628 167.726569 
L 544.827481 167.726111 
L 544.977432 167.355822 
L 545.127383 167.314397 
L 546.027089 166.386935 
L 546.326991 166.294934 
L 546.626893 166.430181 
L 546.776844 166.398246 
L 547.226697 165.878606 
L 547.67655 165.704805 
L 547.826501 165.353042 
L 548.126403 165.466633 
L 548.276354 165.540922 
L 548.426305 165.365047 
L 548.726207 165.467972 
L 548.876158 165.570789 
L 549.026109 165.530673 
L 549.326011 164.95244 
L 549.475962 164.981722 
L 549.775864 164.711046 
L 550.375668 164.673199 
L 550.825521 164.315017 
L 550.975472 164.416181 
L 551.125423 164.246344 
L 551.425325 164.323656 
L 551.575276 163.988494 
L 552.175081 163.935348 
L 552.774885 163.177867 
L 553.074787 163.306165 
L 553.52464 162.929608 
L 553.824542 162.963342 
L 553.974493 162.991465 
L 554.124444 162.669948 
L 554.274395 162.633235 
L 554.424346 162.732131 
L 555.02415 162.338321 
L 555.324052 162.437507 
L 555.474003 162.400106 
L 555.623954 162.498 
L 555.773905 162.18213 
L 555.923856 162.144198 
L 556.823562 161.223588 
L 556.973513 161.320758 
L 557.423366 161.271835 
L 557.723268 161.344273 
L 557.873219 161.039647 
L 558.173121 161.029585 
L 558.473023 160.740438 
L 558.772925 160.77159 
L 558.922876 160.867144 
L 559.072827 160.713654 
L 559.372729 160.835582 
L 559.52268 160.537893 
L 559.672631 160.5384 
L 559.822582 160.341767 
L 560.122484 160.370952 
L 560.422386 160.183283 
L 560.722288 160.123043 
L 560.872239 160.122753 
L 561.02219 159.831761 
L 561.322092 159.993973 
L 562.5217 159.402022 
L 562.821602 159.495236 
L 563.121504 159.223667 
L 563.271455 159.221303 
L 563.421406 158.940831 
L 563.571357 158.898664 
L 563.721308 158.620086 
L 564.02121 158.71447 
L 564.171161 158.678987 
L 564.471063 158.767519 
L 564.770965 158.502285 
L 565.820622 158.244302 
L 565.970573 158.310852 
L 566.720328 157.667493 
L 566.870279 157.692551 
L 567.02023 157.554155 
L 567.320132 157.576487 
L 567.470083 157.541825 
L 567.620034 157.631238 
L 567.919936 157.194827 
L 568.369789 157.077074 
L 568.51974 156.818355 
L 568.669691 156.842992 
L 568.819642 156.673577 
L 569.119544 156.695028 
L 569.569398 156.644887 
L 569.719349 156.390342 
L 570.019251 156.409694 
L 570.169202 156.243139 
L 570.319153 156.331297 
L 571.36881 156.087031 
L 571.518761 156.152483 
L 571.818663 155.773212 
L 571.968614 155.739708 
L 572.268516 155.819963 
L 572.568418 155.583299 
L 572.86832 155.447907 
L 573.168222 155.479963 
L 573.318173 155.238413 
L 573.618075 155.214983 
L 573.917977 154.983048 
L 574.067928 155.06901 
L 574.517781 154.888194 
L 574.967634 154.520553 
L 575.267536 154.553249 
L 575.417487 154.638487 
L 576.317193 154.172072 
L 576.617095 154.321036 
L 576.916997 154.04825 
L 577.066948 154.071282 
L 577.666752 153.66659 
L 577.816703 153.634437 
L 578.116605 153.417016 
L 578.86636 153.734262 
L 579.166262 153.565245 
L 579.466164 153.312221 
L 579.766066 153.099505 
L 580.515821 152.961012 
L 581.115625 152.573248 
L 582.315233 152.657545 
L 582.615135 152.30998 
L 583.064988 152.192022 
L 583.36489 152.334797 
L 583.664792 152.148359 
L 583.814743 152.170197 
L 584.114645 151.897663 
L 584.414547 151.774083 
L 584.8644 151.664956 
L 585.164302 151.353646 
L 585.764106 151.486879 
L 586.513861 151.306762 
L 586.813763 151.388791 
L 586.963715 151.358617 
L 587.263617 151.036328 
L 587.863421 150.833711 
L 588.163323 150.897269 
L 588.613176 150.642615 
L 589.063029 150.454162 
L 589.362931 150.353167 
L 589.962735 150.243437 
L 590.262637 150.288367 
L 590.412588 150.226281 
L 590.862441 149.828092 
L 591.612196 149.601393 
L 591.762147 149.678367 
L 591.912098 149.577288 
L 592.361951 149.659655 
L 593.261657 149.160688 
L 593.561559 149.241426 
L 593.861461 149.288141 
L 594.011412 149.308229 
L 594.311314 149.077742 
L 594.461265 149.137017 
L 594.911118 148.869044 
L 596.260677 148.735824 
L 596.560579 148.470927 
L 597.910138 148.079121 
L 598.659893 148.221366 
L 598.959795 147.966097 
L 600.159403 147.569766 
L 600.459305 147.572879 
L 600.759207 147.500936 
L 601.059109 147.373905 
L 601.508962 147.198337 
L 601.658913 147.217388 
L 601.958815 146.966258 
L 602.258717 147.019946 
L 602.558619 147.023747 
L 602.858521 146.908081 
L 603.008472 146.92689 
L 603.158423 146.776646 
L 603.458325 146.813915 
L 604.358032 146.605578 
L 604.657934 146.519496 
L 604.807885 146.372485 
L 605.407689 146.428044 
L 605.55764 146.342552 
L 605.707591 146.413482 
L 608.106807 145.580825 
L 608.706611 145.705153 
L 609.156464 145.532228 
L 609.456366 145.567023 
L 611.405729 145.001699 
L 611.55568 145.058151 
L 611.705631 144.927259 
L 612.005533 145.001422 
L 615.454406 144.302033 
L 615.904259 144.140038 
L 616.05421 144.157315 
L 616.354112 143.973688 
L 617.55372 143.870654 
L 617.703671 143.937421 
L 618.453426 143.60361 
L 618.753328 143.633905 
L 619.05323 143.587528 
L 619.203181 143.472308 
L 619.503083 143.555508 
L 620.702691 143.286304 
L 621.452446 143.0154 
L 621.9023 143.110266 
L 622.052251 143.040386 
L 622.202202 143.09475 
L 622.502104 142.959539 
L 622.951957 142.90748 
L 623.251859 142.774501 
L 623.40181 142.839651 
L 623.701712 142.748706 
L 623.851663 142.813711 
L 624.90132 142.459463 
L 625.201222 142.489613 
L 626.250879 142.14095 
L 626.700732 142.193903 
L 627.000634 142.104961 
L 627.450487 142.13265 
L 627.600438 142.033151 
L 627.750389 142.096926 
L 628.050291 142.010384 
L 628.350193 142.089988 
L 628.800046 141.942242 
L 629.099948 141.931046 
L 629.699752 141.669274 
L 630.299556 141.68672 
L 630.89936 141.460878 
L 631.349213 141.592349 
L 632.098968 141.393508 
L 632.848723 141.203184 
L 633.598478 141.240296 
L 634.348233 140.975532 
L 634.498184 141.037667 
L 634.948037 140.871425 
L 635.247939 140.940086 
L 635.697792 140.801219 
L 639.146665 140.317744 
L 639.296616 140.37831 
L 639.896421 140.163157 
L 640.946078 140.181218 
L 642.595539 139.803672 
L 642.895441 139.801018 
L 643.795147 139.661439 
L 644.095049 139.60734 
L 644.394951 139.512933 
L 644.844804 139.562954 
L 645.294657 139.386469 
L 645.74451 139.348054 
L 646.044412 139.36801 
L 646.344314 139.313476 
L 647.24402 139.156042 
L 647.543922 139.175672 
L 648.74353 138.963728 
L 649.043432 138.988003 
L 649.793187 138.909195 
L 650.093089 138.938693 
L 651.142746 138.810251 
L 651.442648 138.796618 
L 653.24206 138.478491 
L 653.541962 138.444336 
L 653.991815 138.281605 
L 654.291717 138.353535 
L 655.041472 138.270167 
L 655.341374 138.294357 
L 655.941178 138.280422 
L 656.690933 138.04184 
L 656.990836 138.058947 
L 657.59064 137.973564 
L 657.890542 138.001615 
L 658.640297 137.743162 
L 659.09015 137.741617 
L 659.689954 137.713892 
L 660.889562 137.548881 
L 661.489366 137.689811 
L 663.738631 137.222756 
L 664.038533 137.29208 
L 664.488386 137.185439 
L 664.938239 137.270496 
L 666.437749 137.047007 
L 666.5877 137.095942 
L 667.037553 136.991472 
L 667.487406 137.050771 
L 668.986916 136.808641 
L 669.286818 136.837307 
L 670.036573 136.701903 
L 670.336475 136.722076 
L 670.636377 136.741283 
L 671.08623 136.715066 
L 671.985936 136.589459 
L 677.534124 136.030868 
L 680.833046 135.766068 
L 681.282899 135.834765 
L 681.732752 135.729029 
L 682.332556 135.674737 
L 682.632458 135.612892 
L 683.382213 135.484727 
L 683.832066 135.556163 
L 691.029714 134.97442 
L 691.479567 134.861215 
L 692.379274 134.817709 
L 692.829127 134.894586 
L 693.578882 134.827626 
L 693.728833 134.878781 
L 694.328637 134.652372 
L 694.928441 134.600976 
L 695.378294 134.670156 
L 698.377314 134.50623 
L 698.827167 134.499812 
L 701.226383 134.301888 
L 701.376334 134.352343 
L 701.676236 134.32323 
L 702.575942 134.198588 
L 702.725893 134.249019 
L 703.025795 134.184376 
L 703.625599 134.127068 
L 705.874864 133.960922 
L 706.174766 134.008603 
L 706.624619 133.934247 
L 706.924521 133.966364 
L 707.224423 133.863113 
L 707.974178 133.829705 
L 708.573982 133.825024 
L 708.873884 133.835339 
L 709.923542 133.74431 
L 710.373395 133.707729 
L 710.673297 133.714968 
L 710.973199 133.612405 
L 711.573003 133.694675 
L 712.772611 133.561467 
L 713.072513 133.495822 
L 713.822268 133.627667 
L 728.667418 132.863756 
L 729.267222 132.965366 
L 731.216585 132.7849 
L 731.366536 132.829998 
L 731.666438 132.752168 
L 731.96634 132.780508 
L 732.866046 132.641786 
L 733.46585 132.718181 
L 734.215605 132.724153 
L 734.515507 132.628648 
L 735.115311 132.611009 
L 735.415213 132.515515 
L 735.865066 132.567877 
L 737.514527 132.511992 
L 737.814429 132.516275 
L 738.714135 132.53132 
L 739.014037 132.456265 
L 739.763792 132.446951 
L 740.063694 132.327014 
L 740.513547 132.400851 
L 741.563204 132.375201 
L 742.013057 132.346137 
L 742.312959 132.28048 
L 744.262322 132.359372 
L 744.562225 132.262612 
L 745.461931 132.251753 
L 745.761833 132.179086 
L 746.211686 132.220867 
L 747.561245 132.221494 
L 747.861147 132.21878 
L 747.861147 132.21878 
" clip-path="url(#p1e7745c0d7)" style="fill: none; stroke: #1f77b4; stroke-width: 3; stroke-linecap: square"/>
   </g>
   <g id="line2d_56">
    <path d="M 448.109081 266.63498 
L 448.408983 265.462188 
L 448.558934 265.150336 
L 449.308689 261.970202 
L 449.758542 261.545195 
L 450.658248 257.852075 
L 450.808199 257.726655 
L 450.95815 256.945856 
L 451.258052 256.65877 
L 452.157758 253.155664 
L 452.307709 252.972127 
L 452.757562 251.258772 
L 453.057464 250.659844 
L 453.357366 250.185105 
L 453.507317 249.332299 
L 453.657268 249.236348 
L 455.006827 244.262131 
L 455.45668 243.243827 
L 455.606631 242.657515 
L 455.756582 242.542059 
L 456.656288 239.209957 
L 456.95619 238.955856 
L 457.406043 237.055401 
L 457.555994 236.942682 
L 458.005847 235.329344 
L 458.155798 234.672147 
L 458.4557 234.424654 
L 458.755602 233.137631 
L 458.905553 233.046261 
L 459.205455 232.323669 
L 459.505357 231.113005 
L 459.655308 231.007537 
L 459.805259 230.313762 
L 459.95521 230.16398 
L 460.105161 229.385841 
L 460.405063 229.130669 
L 460.555014 228.357766 
L 460.704965 228.266363 
L 461.604671 225.13296 
L 461.754622 225.043897 
L 462.204475 223.723971 
L 462.504377 222.673763 
L 462.804279 221.372628 
L 463.104181 220.967764 
L 463.404083 219.761597 
L 463.703985 219.408796 
L 464.003887 219.174898 
L 464.30379 218.145867 
L 464.753643 216.467312 
L 465.053545 216.285157 
L 465.503398 215.09148 
L 465.653349 214.83366 
L 466.253153 212.755131 
L 466.852957 210.634339 
L 467.002908 210.54752 
L 467.452761 209.048327 
L 467.752663 208.835183 
L 468.352467 206.726275 
L 468.502418 206.634546 
L 468.652369 206.128328 
L 468.80232 206.045382 
L 468.952271 205.795959 
L 469.102222 205.108437 
L 469.252173 205.025243 
L 469.702026 203.701293 
L 469.851977 203.589301 
L 470.901634 200.599639 
L 471.201536 199.659116 
L 471.351487 199.579482 
L 471.951291 197.732339 
L 472.101242 197.646715 
L 472.251193 197.066636 
L 472.401144 196.963361 
L 472.850997 195.289668 
L 473.900654 193.44764 
L 474.500458 191.530829 
L 474.650409 191.448757 
L 475.550115 189.028159 
L 476.149919 187.393979 
L 476.29987 187.314309 
L 476.599772 186.994565 
L 476.899674 186.828511 
L 477.499478 185.062154 
L 477.649429 184.985753 
L 478.249233 183.050729 
L 478.399184 182.974473 
L 478.549135 182.374451 
L 478.699086 182.2953 
L 478.849037 181.842602 
L 478.998988 181.760995 
L 480.498498 178.386018 
L 480.648449 178.31098 
L 480.948351 177.449102 
L 481.698106 175.384472 
L 482.14796 175.17099 
L 482.747764 173.18758 
L 483.047666 173.042181 
L 483.197617 172.826346 
L 483.64747 171.593733 
L 483.797421 171.527431 
L 484.397225 169.837824 
L 484.847078 168.664516 
L 484.997029 168.180534 
L 485.14698 168.107584 
L 485.296931 167.649197 
L 485.746784 167.458035 
L 485.896735 166.914465 
L 486.046686 166.841086 
L 486.496539 165.645042 
L 486.64649 165.437424 
L 486.946392 164.557219 
L 487.096343 164.500804 
L 487.396245 163.710386 
L 487.546196 163.26506 
L 487.846098 163.147886 
L 487.996049 162.736908 
L 488.146 162.666413 
L 488.895755 160.926841 
L 489.345608 160.74857 
L 489.795461 159.601985 
L 490.545216 157.306331 
L 490.845118 157.175849 
L 491.14502 156.470815 
L 491.294971 156.426006 
L 491.444922 156.22819 
L 492.044726 154.77289 
L 492.344628 154.663449 
L 492.944432 153.051752 
L 493.094383 152.99629 
L 493.244334 152.564802 
L 493.394285 152.525314 
L 493.844138 151.964539 
L 494.293991 150.683853 
L 494.443942 150.629972 
L 494.593893 150.260039 
L 494.893795 150.139957 
L 495.64355 148.42928 
L 495.793501 148.028207 
L 495.943452 147.995765 
L 496.393305 146.876712 
L 496.543256 146.845597 
L 496.843158 145.985456 
L 496.993109 145.917567 
L 497.442962 145.001313 
L 497.592913 144.951292 
L 497.892815 144.394981 
L 498.042766 144.346553 
L 498.192717 143.992244 
L 498.492619 143.902324 
L 499.092423 142.377796 
L 499.542277 141.397272 
L 499.692228 141.332122 
L 499.842179 140.95273 
L 499.99213 140.929976 
L 500.441983 139.900456 
L 500.741885 139.807497 
L 501.641591 138.010966 
L 502.391346 137.090935 
L 502.691248 136.325841 
L 502.841199 136.148741 
L 502.99115 135.796845 
L 503.141101 135.734446 
L 503.441003 134.997741 
L 503.590954 134.954464 
L 504.040807 134.295662 
L 504.190758 134.282958 
L 504.790562 132.963725 
L 504.940513 132.92151 
L 505.090464 132.576744 
L 505.390366 132.473674 
L 505.690268 131.797052 
L 505.840219 131.787545 
L 507.189778 128.893172 
L 507.48968 128.410119 
L 507.639631 128.0689 
L 508.089484 127.965022 
L 508.539337 127.066237 
L 508.689288 127.06386 
L 508.839239 126.669448 
L 509.139141 126.571433 
L 509.588994 125.726748 
L 509.738945 125.561169 
L 510.038847 124.844782 
L 510.338749 124.785591 
L 510.788602 123.897038 
L 510.938553 123.861507 
L 511.98821 121.71676 
L 512.588014 121.383335 
L 512.887916 121.189031 
L 513.037867 121.131288 
L 513.637671 119.875492 
L 513.787622 119.882948 
L 514.537377 118.585034 
L 514.687328 118.553014 
L 515.287132 117.604522 
L 516.48674 115.787095 
L 516.636691 115.757017 
L 516.936594 115.17321 
L 517.086545 115.187531 
L 517.236496 114.838157 
L 517.386447 114.807717 
L 517.686349 114.276212 
L 517.8363 114.291546 
L 518.136202 113.861398 
L 518.586055 113.201196 
L 519.185859 112.492771 
L 519.635712 111.824836 
L 519.785663 111.84426 
L 520.385467 110.654604 
L 520.535418 110.67503 
L 521.435124 109.376332 
L 521.585075 109.35032 
L 522.034928 108.611431 
L 522.484781 107.827154 
L 522.934634 107.77121 
L 523.234536 107.426866 
L 523.384487 107.452371 
L 523.83434 106.818532 
L 524.734046 105.373897 
L 525.033948 104.777506 
L 525.483801 104.728438 
L 526.083605 103.851829 
L 526.233556 103.829654 
L 526.983311 102.827655 
L 527.283213 102.631975 
L 527.883017 101.741672 
L 528.182919 101.20388 
L 528.33287 101.184167 
L 528.782723 100.383916 
L 529.232576 100.401893 
L 529.382527 100.381949 
L 529.682429 99.948302 
L 531.931694 96.97804 
L 532.231596 97.058718 
L 532.681449 96.559884 
L 532.8314 96.542933 
L 533.881057 95.099504 
L 534.780764 94.233404 
L 535.380568 93.316751 
L 535.68047 93.25206 
L 536.280274 92.324416 
L 536.430225 92.371276 
L 536.880078 91.996578 
L 537.030029 92.04392 
L 537.629833 91.207185 
L 538.229637 90.492909 
L 538.529539 90.14088 
L 538.67949 89.8842 
L 538.829441 89.870881 
L 539.129343 89.434772 
L 539.279294 89.385523 
L 539.429245 89.158981 
L 539.579196 89.210583 
L 540.478902 87.998257 
L 540.778804 88.003143 
L 540.928755 87.753774 
L 541.078706 87.742385 
L 541.978412 86.587801 
L 542.278314 86.452747 
L 542.428265 86.508209 
L 543.477922 85.21225 
L 543.627873 85.163906 
L 543.777824 84.958103 
L 543.927775 85.015532 
L 544.977432 84.099845 
L 545.277334 83.651382 
L 545.427285 83.711006 
L 546.17704 82.825324 
L 546.326991 82.816807 
L 547.67655 81.592343 
L 547.826501 81.367816 
L 547.976452 81.35995 
L 549.026109 80.425562 
L 549.775864 79.460119 
L 550.225717 79.352694 
L 550.525619 78.938688 
L 550.67557 79.005069 
L 551.125423 78.508105 
L 551.425325 78.457746 
L 551.575276 78.243812 
L 552.02513 78.260184 
L 553.374689 76.622873 
L 553.674591 76.572454 
L 554.124444 75.984267 
L 554.274395 76.054569 
L 556.073807 74.559298 
L 556.673611 73.837542 
L 556.973513 73.723022 
L 557.273415 73.351448 
L 557.573317 73.380657 
L 557.723268 73.378992 
L 558.473023 72.480871 
L 558.772925 72.511178 
L 559.372729 71.961901 
L 559.52268 71.771892 
L 559.672631 71.771481 
L 559.972533 71.565896 
L 560.122484 71.642677 
L 560.722288 70.94049 
L 560.872239 70.940731 
L 561.172141 70.647084 
L 561.322092 70.603494 
L 561.472043 70.438965 
L 561.621994 70.517471 
L 562.371749 69.607189 
L 563.421406 68.816856 
L 563.571357 68.897594 
L 564.171161 68.324428 
L 564.770965 67.913825 
L 564.920916 67.995914 
L 565.370769 67.525927 
L 565.52072 67.528726 
L 565.670671 67.372052 
L 565.970573 67.412517 
L 567.02023 66.330733 
L 567.170181 66.288337 
L 567.320132 66.372755 
L 567.919936 65.760813 
L 568.069887 65.764276 
L 568.669691 65.108381 
L 568.969593 64.926914 
L 569.269495 65.016869 
L 569.719349 64.59823 
L 570.169202 64.325359 
L 570.319153 64.224063 
L 570.469104 64.311256 
L 570.918957 63.817766 
L 571.668712 63.524494 
L 572.118565 63.082171 
L 572.268516 63.087649 
L 572.718369 62.662531 
L 573.018271 62.626288 
L 573.468124 62.145117 
L 573.618075 62.235363 
L 574.067928 61.864923 
L 574.36783 61.961297 
L 575.717389 60.748223 
L 575.86734 60.755221 
L 576.167242 60.468825 
L 576.317193 60.561338 
L 577.216899 59.886936 
L 577.36685 59.742665 
L 577.666752 59.842827 
L 578.116605 59.402242 
L 578.416507 59.264582 
L 578.86636 58.998407 
L 579.016311 59.093333 
L 580.36587 57.947268 
L 580.515821 58.043545 
L 581.265576 57.436634 
L 581.715429 57.414435 
L 582.165282 57.014774 
L 582.315233 57.112596 
L 583.064988 56.566878 
L 583.36489 56.434575 
L 583.514841 56.323867 
L 583.664792 56.422558 
L 584.714449 55.61788 
L 584.8644 55.628183 
L 585.764106 54.944009 
L 585.914057 55.044702 
L 586.513861 54.734587 
L 586.813763 54.573521 
L 587.263617 54.171447 
L 587.413568 54.273226 
L 588.013372 53.817198 
L 588.163323 53.829239 
L 588.913078 53.274883 
L 589.063029 53.377892 
L 589.362931 53.158095 
L 589.512882 53.261177 
L 590.112686 52.843708 
L 590.262637 52.856208 
L 590.862441 52.332954 
L 591.162343 52.449163 
L 592.062049 51.874465 
L 592.212 51.979381 
L 592.811804 51.567101 
L 592.961755 51.400485 
L 593.111706 51.413274 
L 594.161363 50.66407 
L 594.311314 50.770868 
L 594.611216 50.641532 
L 595.360971 50.203385 
L 595.660873 50.127786 
L 595.810824 50.090023 
L 596.110726 49.840956 
L 596.260677 49.949057 
L 596.560579 49.731166 
L 596.860481 49.853045 
L 598.959795 48.438343 
L 599.259697 48.563625 
L 599.859501 48.285433 
L 600.009452 48.395344 
L 603.308374 46.5645 
L 603.458325 46.581102 
L 603.758227 46.40119 
L 603.908178 46.513948 
L 604.507983 46.190465 
L 604.657934 46.303537 
L 606.007493 45.530396 
L 606.307395 45.456222 
L 606.757248 45.240647 
L 606.907199 45.087785 
L 607.05715 45.202546 
L 607.956856 44.590712 
L 608.106807 44.706004 
L 608.856562 44.431552 
L 609.006513 44.280476 
L 609.156464 44.396347 
L 609.906219 44.101506 
L 610.955876 43.549924 
L 611.105827 43.666616 
L 611.705631 43.365115 
L 612.005533 43.22731 
L 612.305435 42.988812 
L 612.605337 42.929404 
L 612.755288 42.863723 
L 612.905239 42.981669 
L 613.505043 42.694622 
L 613.804945 42.624959 
L 614.254798 42.299739 
L 614.404749 42.418578 
L 615.754308 41.780588 
L 615.904259 41.900006 
L 616.204161 41.723352 
L 616.504063 41.861808 
L 618.153524 40.973472 
L 618.453426 40.905306 
L 618.753328 40.726794 
L 618.903279 40.629744 
L 619.05323 40.750875 
L 619.952936 40.401332 
L 620.252838 40.386878 
L 622.352153 39.640546 
L 622.502104 39.661611 
L 623.101908 39.262578 
L 623.251859 39.385615 
L 623.851663 39.204111 
L 624.601418 38.82846 
L 624.751369 38.689665 
L 624.90132 38.813523 
L 625.201222 38.640199 
L 625.801026 38.452325 
L 625.950977 38.5764 
L 626.700732 38.23383 
L 626.850683 38.358243 
L 627.300536 38.093637 
L 627.90034 37.827341 
L 628.200242 37.77662 
L 628.350193 37.684927 
L 628.500144 37.81033 
L 628.800046 37.625761 
L 629.699752 37.3384 
L 630.299556 37.101157 
L 630.449507 37.227307 
L 631.049311 36.958188 
L 631.799066 36.626187 
L 631.949017 36.752989 
L 633.598478 36.008707 
L 633.748429 36.136571 
L 634.198282 36.060851 
L 634.798086 36.064809 
L 636.8974 35.150581 
L 637.047351 35.279579 
L 637.497204 35.072835 
L 637.647155 35.201785 
L 637.947057 34.997985 
L 638.846763 34.711662 
L 639.446568 34.492588 
L 639.74647 34.646897 
L 640.946078 34.190556 
L 641.545882 34.106657 
L 642.145686 34.143069 
L 642.595539 33.894388 
L 643.045392 33.728737 
L 643.345294 33.553917 
L 643.645196 33.510387 
L 643.945098 33.357404 
L 644.095049 33.488936 
L 645.144706 33.152471 
L 645.294657 33.284195 
L 645.894461 33.067148 
L 646.194363 32.915806 
L 646.344314 33.047916 
L 647.393971 32.618455 
L 647.993775 32.686694 
L 648.143726 32.561413 
L 648.443628 32.504539 
L 649.493285 32.195775 
L 649.643236 32.328899 
L 650.542942 31.954212 
L 651.292697 31.735886 
L 652.042452 31.621801 
L 652.192403 31.755697 
L 656.24108 30.583474 
L 656.391031 30.521751 
L 656.540982 30.657384 
L 657.59064 30.303015 
L 657.890542 30.214507 
L 658.340395 30.513546 
L 659.09015 30.241387 
L 659.689954 30.012589 
L 659.989856 29.939186 
L 660.139807 29.819889 
L 660.439709 29.815546 
L 660.58966 29.738234 
L 660.739611 29.874905 
L 661.789268 29.542952 
L 661.939219 29.679985 
L 662.988876 29.280083 
L 663.138827 29.417429 
L 664.338435 29.070226 
L 664.488386 29.207814 
L 665.238141 28.917895 
L 665.538043 28.898157 
L 666.437749 28.623344 
L 666.5877 28.59212 
L 666.737651 28.73048 
L 667.637357 28.446473 
L 667.937259 28.428472 
L 668.08721 28.567025 
L 669.286818 28.065682 
L 669.886622 28.124944 
L 670.936279 27.888328 
L 671.236181 27.728396 
L 671.386132 27.868059 
L 672.435789 27.580529 
L 672.885642 27.451749 
L 673.035593 27.591774 
L 673.185544 27.560646 
L 673.335495 27.70043 
L 673.785348 27.47957 
L 674.08525 27.436016 
L 674.685055 27.373954 
L 674.835006 27.513883 
L 675.134908 27.386719 
L 675.884663 27.132343 
L 676.334516 27.005928 
L 676.484467 27.146435 
L 676.784369 27.061643 
L 676.93432 27.090937 
L 677.234222 26.965945 
L 679.333536 26.546184 
L 679.483487 26.687415 
L 681.282899 26.166503 
L 681.582801 26.298347 
L 681.882703 26.146837 
L 682.332556 26.126809 
L 682.482507 26.056206 
L 682.632458 26.198185 
L 684.881723 25.601336 
L 685.181625 25.774443 
L 686.981037 25.356299 
L 687.130988 25.499315 
L 688.030694 25.327632 
L 688.330596 25.211954 
L 688.780449 25.067417 
L 688.9304 25.210869 
L 690.279959 24.837992 
L 690.729812 24.755903 
L 691.179665 25.074463 
L 691.929421 24.985328 
L 692.229323 24.862315 
L 692.829127 24.689835 
L 693.728833 24.36961 
L 694.178686 24.689546 
L 694.478588 24.67403 
L 694.928441 24.485505 
L 696.577902 24.105799 
L 696.877804 24.282115 
L 697.177706 24.141077 
L 698.377314 23.965099 
L 698.527265 23.996853 
L 698.827167 23.832168 
L 701.226383 23.565414 
L 701.376334 23.507454 
L 701.526285 23.653125 
L 702.725893 23.40553 
L 702.875844 23.551298 
L 703.325697 23.389701 
L 703.925501 23.430408 
L 704.525305 23.31999 
L 704.825207 23.206484 
L 705.27506 23.133226 
L 705.574962 23.311062 
L 706.174766 23.157935 
L 706.474668 23.181823 
L 707.074472 23.123598 
L 708.124129 23.006449 
L 708.424031 22.894945 
L 709.473689 22.68241 
L 709.773591 22.822218 
L 710.073493 22.824462 
L 710.673297 22.720897 
L 710.823248 22.867485 
L 714.422072 22.092028 
L 714.721974 22.272736 
L 715.471729 22.149722 
L 715.62168 22.2973 
L 716.071533 22.098085 
L 716.521386 22.107037 
L 716.821288 22.000408 
L 716.971239 21.971042 
L 717.271141 22.122987 
L 717.870945 22.008322 
L 718.920602 21.758483 
L 719.220504 21.902899 
L 719.370455 21.935957 
L 719.670357 21.795088 
L 719.970259 21.690292 
L 720.720014 21.664063 
L 721.019916 21.702743 
L 721.169867 21.646617 
L 721.319818 21.794871 
L 723.269181 21.550533 
L 723.569083 21.521191 
L 724.018936 21.445231 
L 724.318838 21.626542 
L 724.768691 21.538347 
L 725.218544 21.456186 
L 726.268201 21.273524 
L 726.718054 21.312638 
L 727.317859 21.166605 
L 727.617761 21.322507 
L 729.567124 20.810619 
L 729.717075 20.960223 
L 730.316879 20.901564 
L 730.616781 20.874225 
L 731.066634 20.821019 
L 731.366536 20.692841 
L 731.666438 20.842784 
L 732.266242 20.756761 
L 732.416193 20.906269 
L 733.765752 20.62342 
L 734.065654 20.596757 
L 734.215605 20.567898 
L 734.365556 20.717743 
L 734.665458 20.557956 
L 735.715115 20.537398 
L 736.764772 20.445729 
L 736.914723 20.447177 
L 737.064674 20.597167 
L 738.414233 20.158875 
L 739.613841 20.21611 
L 739.763792 20.118047 
L 740.063694 20.302471 
L 741.113351 20.026885 
L 741.413253 20.007002 
L 741.863106 19.947064 
L 742.312959 20.25882 
L 743.212665 19.998146 
L 743.512567 19.998146 
L 744.262322 19.736894 
L 744.412273 19.888018 
L 744.862127 19.86898 
L 745.162029 19.881986 
L 745.461931 19.730548 
L 745.761833 19.885533 
L 746.511588 19.809452 
L 746.81149 19.814857 
L 747.711196 19.554545 
L 747.861147 19.566659 
L 747.861147 19.566659 
" clip-path="url(#p1e7745c0d7)" style="fill: none; stroke: #ff7f0e; stroke-width: 3; stroke-linecap: square"/>
   </g>
   <g id="patch_9">
    <path d="M 433.121477 279 
L 433.121477 7.2 
" style="fill: none; stroke: #000000; stroke-width: 0.8; stroke-linejoin: miter; stroke-linecap: square"/>
   </g>
   <g id="patch_10">
    <path d="M 762.84875 279 
L 762.84875 7.2 
" style="fill: none; stroke: #000000; stroke-width: 0.8; stroke-linejoin: miter; stroke-linecap: square"/>
   </g>
   <g id="patch_11">
    <path d="M 433.121477 279 
L 762.84875 279 
" style="fill: none; stroke: #000000; stroke-width: 0.8; stroke-linejoin: miter; stroke-linecap: square"/>
   </g>
   <g id="patch_12">
    <path d="M 433.121477 7.2 
L 762.84875 7.2 
" style="fill: none; stroke: #000000; stroke-width: 0.8; stroke-linejoin: miter; stroke-linecap: square"/>
   </g>
   <g id="legend_2">
    <g id="patch_13">
     <path d="M 441.521477 52.05375 
L 543.641477 52.05375 
Q 546.041477 52.05375 546.041477 49.65375 
L 546.041477 15.6 
Q 546.041477 13.2 543.641477 13.2 
L 441.521477 13.2 
Q 439.121477 13.2 439.121477 15.6 
L 439.121477 49.65375 
Q 439.121477 52.05375 441.521477 52.05375 
z
" style="fill: #ffffff; opacity: 0.8; stroke: #cccccc; stroke-linejoin: miter"/>
    </g>
    <g id="line2d_57">
     <path d="M 443.921477 22.92 
L 455.921477 22.92 
L 467.921477 22.92 
" style="fill: none; stroke: #1f77b4; stroke-width: 3; stroke-linecap: square"/>
    </g>
    <g id="text_33">
     <!-- Weight $w$ -->
     <g transform="translate(477.521477 27.12)scale(0.12 -0.12)">
      <defs>
       <path id="DejaVuSans-57" d="M 213 4666 
L 850 4666 
L 1831 722 
L 2809 4666 
L 3519 4666 
L 4500 722 
L 5478 4666 
L 6119 4666 
L 4947 0 
L 4153 0 
L 3169 4050 
L 2175 0 
L 1381 0 
L 213 4666 
z
" transform="scale(0.015625)"/>
       <path id="DejaVuSans-68" d="M 3513 2113 
L 3513 0 
L 2938 0 
L 2938 2094 
Q 2938 2591 2744 2837 
Q 2550 3084 2163 3084 
Q 1697 3084 1428 2787 
Q 1159 2491 1159 1978 
L 1159 0 
L 581 0 
L 581 4863 
L 1159 4863 
L 1159 2956 
Q 1366 3272 1645 3428 
Q 1925 3584 2291 3584 
Q 2894 3584 3203 3211 
Q 3513 2838 3513 2113 
z
" transform="scale(0.015625)"/>
       <path id="DejaVuSans-Oblique-77" d="M 544 3500 
L 1113 3500 
L 1259 684 
L 2566 3500 
L 3231 3500 
L 3425 684 
L 4666 3500 
L 5241 3500 
L 3641 0 
L 2969 0 
L 2797 2900 
L 1459 0 
L 781 0 
L 544 3500 
z
" transform="scale(0.015625)"/>
      </defs>
      <use xlink:href="#DejaVuSans-57" transform="translate(0 0.015625)"/>
      <use xlink:href="#DejaVuSans-65" transform="translate(98.876953 0.015625)"/>
      <use xlink:href="#DejaVuSans-69" transform="translate(160.400391 0.015625)"/>
      <use xlink:href="#DejaVuSans-67" transform="translate(188.183594 0.015625)"/>
      <use xlink:href="#DejaVuSans-68" transform="translate(251.660156 0.015625)"/>
      <use xlink:href="#DejaVuSans-74" transform="translate(315.039062 0.015625)"/>
      <use xlink:href="#DejaVuSans-20" transform="translate(354.248047 0.015625)"/>
      <use xlink:href="#DejaVuSans-Oblique-77" transform="translate(386.035156 0.015625)"/>
     </g>
    </g>
    <g id="line2d_58">
     <path d="M 443.921477 40.558125 
L 455.921477 40.558125 
L 467.921477 40.558125 
" style="fill: none; stroke: #ff7f0e; stroke-width: 3; stroke-linecap: square"/>
    </g>
    <g id="text_34">
     <!-- Bias unit $b$ -->
     <g transform="translate(477.521477 44.758125)scale(0.12 -0.12)">
      <defs>
       <path id="DejaVuSans-42" d="M 1259 2228 
L 1259 519 
L 2272 519 
Q 2781 519 3026 730 
Q 3272 941 3272 1375 
Q 3272 1813 3026 2020 
Q 2781 2228 2272 2228 
L 1259 2228 
z
M 1259 4147 
L 1259 2741 
L 2194 2741 
Q 2656 2741 2882 2914 
Q 3109 3088 3109 3444 
Q 3109 3797 2882 3972 
Q 2656 4147 2194 4147 
L 1259 4147 
z
M 628 4666 
L 2241 4666 
Q 2963 4666 3353 4366 
Q 3744 4066 3744 3513 
Q 3744 3084 3544 2831 
Q 3344 2578 2956 2516 
Q 3422 2416 3680 2098 
Q 3938 1781 3938 1306 
Q 3938 681 3513 340 
Q 3088 0 2303 0 
L 628 0 
L 628 4666 
z
" transform="scale(0.015625)"/>
       <path id="DejaVuSans-Oblique-62" d="M 3169 2138 
Q 3169 2591 2961 2847 
Q 2753 3103 2388 3103 
Q 2122 3103 1889 2973 
Q 1656 2844 1484 2597 
Q 1303 2338 1198 1995 
Q 1094 1653 1094 1313 
Q 1094 881 1298 636 
Q 1503 391 1863 391 
Q 2134 391 2365 517 
Q 2597 644 2772 891 
Q 2950 1147 3059 1487 
Q 3169 1828 3169 2138 
z
M 1381 2969 
Q 1594 3256 1914 3420 
Q 2234 3584 2584 3584 
Q 3122 3584 3439 3221 
Q 3756 2859 3756 2241 
Q 3756 1734 3570 1259 
Q 3384 784 3041 416 
Q 2816 172 2522 40 
Q 2228 -91 1906 -91 
Q 1566 -91 1316 65 
Q 1066 222 909 531 
L 806 0 
L 231 0 
L 1178 4863 
L 1753 4863 
L 1381 2969 
z
" transform="scale(0.015625)"/>
      </defs>
      <use xlink:href="#DejaVuSans-42" transform="translate(0 0.015625)"/>
      <use xlink:href="#DejaVuSans-69" transform="translate(68.603516 0.015625)"/>
      <use xlink:href="#DejaVuSans-61" transform="translate(96.386719 0.015625)"/>
      <use xlink:href="#DejaVuSans-73" transform="translate(157.666016 0.015625)"/>
      <use xlink:href="#DejaVuSans-20" transform="translate(209.765625 0.015625)"/>
      <use xlink:href="#DejaVuSans-75" transform="translate(241.552734 0.015625)"/>
      <use xlink:href="#DejaVuSans-6e" transform="translate(304.931641 0.015625)"/>
      <use xlink:href="#DejaVuSans-69" transform="translate(368.310547 0.015625)"/>
      <use xlink:href="#DejaVuSans-74" transform="translate(396.09375 0.015625)"/>
      <use xlink:href="#DejaVuSans-20" transform="translate(435.302734 0.015625)"/>
      <use xlink:href="#DejaVuSans-Oblique-62" transform="translate(467.089844 0.015625)"/>
     </g>
    </g>
   </g>
  </g>
 </g>
 <defs>
  <clipPath id="p766b4ba342">
   <rect x="37.44875" y="7.2" width="329.727273" height="271.8"/>
  </clipPath>
  <clipPath id="p1e7745c0d7">
   <rect x="433.121477" y="7.2" width="329.727273" height="271.8"/>
  </clipPath>
 </defs>
</svg>
