<?xml version="1.0" encoding="utf-8" standalone="no"?>
<!DOCTYPE svg PUBLIC "-//W3C//DTD SVG 1.1//EN"
  "http://www.w3.org/Graphics/SVG/1.1/DTD/svg11.dtd">
<svg xmlns:xlink="http://www.w3.org/1999/xlink" width="382.603125pt" height="252.087616pt" viewBox="0 0 382.603125 252.087616" xmlns="http://www.w3.org/2000/svg" version="1.1">
 <metadata>
  <rdf:RDF xmlns:dc="http://purl.org/dc/elements/1.1/" xmlns:cc="http://creativecommons.org/ns#" xmlns:rdf="http://www.w3.org/1999/02/22-rdf-syntax-ns#">
   <cc:Work>
    <dc:type rdf:resource="http://purl.org/dc/dcmitype/StillImage"/>
    <dc:date>2022-03-13T07:43:32.103135</dc:date>
    <dc:format>image/svg+xml</dc:format>
    <dc:creator>
     <cc:Agent>
      <dc:title>Matplotlib v3.5.1, https://matplotlib.org/</dc:title>
     </cc:Agent>
    </dc:creator>
   </cc:Work>
  </rdf:RDF>
 </metadata>
 <defs>
  <style type="text/css">*{stroke-linejoin: round; stroke-linecap: butt}</style>
 </defs>
 <g id="figure_1">
  <g id="patch_1">
   <path d="M 0 252.087616 
L 382.603125 252.087616 
L 382.603125 0 
L 0 0 
L 0 252.087616 
z
" style="fill: none"/>
  </g>
  <g id="axes_1">
   <g id="patch_2">
    <path d="M 40.603125 228.209491 
L 375.403125 228.209491 
L 375.403125 10.769491 
L 40.603125 10.769491 
z
" style="fill: #ffffff"/>
   </g>
   <g id="patch_3">
    <path d="M 74.343207 228.209491 
L 79.689604 228.209491 
L 79.689604 21.123777 
L 74.343207 21.123777 
z
" clip-path="url(#p35d3e80da3)" style="fill: #1f77b4; opacity: 0.4"/>
   </g>
   <g id="patch_4">
    <path d="M 79.689604 228.209491 
L 85.036001 228.209491 
L 85.036001 216.069443 
L 79.689604 216.069443 
z
" clip-path="url(#p35d3e80da3)" style="fill: #1f77b4; opacity: 0.4"/>
   </g>
   <g id="patch_5">
    <path d="M 85.036001 228.209491 
L 90.382397 228.209491 
L 90.382397 215.247053 
L 85.036001 215.247053 
z
" clip-path="url(#p35d3e80da3)" style="fill: #1f77b4; opacity: 0.4"/>
   </g>
   <g id="patch_6">
    <path d="M 90.382397 228.209491 
L 95.728794 228.209491 
L 95.728794 216.539381 
L 90.382397 216.539381 
z
" clip-path="url(#p35d3e80da3)" style="fill: #1f77b4; opacity: 0.4"/>
   </g>
   <g id="patch_7">
    <path d="M 95.728794 228.209491 
L 101.075191 228.209491 
L 101.075191 216.461058 
L 95.728794 216.461058 
z
" clip-path="url(#p35d3e80da3)" style="fill: #1f77b4; opacity: 0.4"/>
   </g>
   <g id="patch_8">
    <path d="M 101.075191 228.209491 
L 106.421587 228.209491 
L 106.421587 216.343573 
L 101.075191 216.343573 
z
" clip-path="url(#p35d3e80da3)" style="fill: #1f77b4; opacity: 0.4"/>
   </g>
   <g id="patch_9">
    <path d="M 106.421587 228.209491 
L 111.767984 228.209491 
L 111.767984 217.518417 
L 106.421587 217.518417 
z
" clip-path="url(#p35d3e80da3)" style="fill: #1f77b4; opacity: 0.4"/>
   </g>
   <g id="patch_10">
    <path d="M 111.767984 228.209491 
L 117.114381 228.209491 
L 117.114381 217.988354 
L 111.767984 217.988354 
z
" clip-path="url(#p35d3e80da3)" style="fill: #1f77b4; opacity: 0.4"/>
   </g>
   <g id="patch_11">
    <path d="M 117.114381 228.209491 
L 122.460778 228.209491 
L 122.460778 218.027515 
L 117.114381 218.027515 
z
" clip-path="url(#p35d3e80da3)" style="fill: #1f77b4; opacity: 0.4"/>
   </g>
   <g id="patch_12">
    <path d="M 122.460778 228.209491 
L 127.807174 228.209491 
L 127.807174 218.223323 
L 122.460778 218.223323 
z
" clip-path="url(#p35d3e80da3)" style="fill: #1f77b4; opacity: 0.4"/>
   </g>
   <g id="patch_13">
    <path d="M 127.807174 228.209491 
L 133.153571 228.209491 
L 133.153571 218.889067 
L 127.807174 218.889067 
z
" clip-path="url(#p35d3e80da3)" style="fill: #1f77b4; opacity: 0.4"/>
   </g>
   <g id="patch_14">
    <path d="M 133.153571 228.209491 
L 138.499968 228.209491 
L 138.499968 219.868103 
L 133.153571 219.868103 
z
" clip-path="url(#p35d3e80da3)" style="fill: #1f77b4; opacity: 0.4"/>
   </g>
   <g id="patch_15">
    <path d="M 138.499968 228.209491 
L 143.846364 228.209491 
L 143.846364 221.473722 
L 138.499968 221.473722 
z
" clip-path="url(#p35d3e80da3)" style="fill: #1f77b4; opacity: 0.4"/>
   </g>
   <g id="patch_16">
    <path d="M 143.846364 228.209491 
L 149.192761 228.209491 
L 149.192761 220.886301 
L 143.846364 220.886301 
z
" clip-path="url(#p35d3e80da3)" style="fill: #1f77b4; opacity: 0.4"/>
   </g>
   <g id="patch_17">
    <path d="M 149.192761 228.209491 
L 154.539158 228.209491 
L 154.539158 221.787014 
L 149.192761 221.787014 
z
" clip-path="url(#p35d3e80da3)" style="fill: #1f77b4; opacity: 0.4"/>
   </g>
   <g id="patch_18">
    <path d="M 154.539158 228.209491 
L 159.885555 228.209491 
L 159.885555 222.49192 
L 154.539158 222.49192 
z
" clip-path="url(#p35d3e80da3)" style="fill: #1f77b4; opacity: 0.4"/>
   </g>
   <g id="patch_19">
    <path d="M 159.885555 228.209491 
L 165.231951 228.209491 
L 165.231951 223.079342 
L 159.885555 223.079342 
z
" clip-path="url(#p35d3e80da3)" style="fill: #1f77b4; opacity: 0.4"/>
   </g>
   <g id="patch_20">
    <path d="M 165.231951 228.209491 
L 170.578348 228.209491 
L 170.578348 223.431795 
L 165.231951 223.431795 
z
" clip-path="url(#p35d3e80da3)" style="fill: #1f77b4; opacity: 0.4"/>
   </g>
   <g id="patch_21">
    <path d="M 170.578348 228.209491 
L 175.924745 228.209491 
L 175.924745 223.901732 
L 170.578348 223.901732 
z
" clip-path="url(#p35d3e80da3)" style="fill: #1f77b4; opacity: 0.4"/>
   </g>
   <g id="patch_22">
    <path d="M 175.924745 228.209491 
L 181.271141 228.209491 
L 181.271141 224.371669 
L 175.924745 224.371669 
z
" clip-path="url(#p35d3e80da3)" style="fill: #1f77b4; opacity: 0.4"/>
   </g>
   <g id="patch_23">
    <path d="M 181.271141 228.209491 
L 186.617538 228.209491 
L 186.617538 224.998252 
L 181.271141 224.998252 
z
" clip-path="url(#p35d3e80da3)" style="fill: #1f77b4; opacity: 0.4"/>
   </g>
   <g id="patch_24">
    <path d="M 186.617538 228.209491 
L 191.963935 228.209491 
L 191.963935 224.959091 
L 186.617538 224.959091 
z
" clip-path="url(#p35d3e80da3)" style="fill: #1f77b4; opacity: 0.4"/>
   </g>
   <g id="patch_25">
    <path d="M 191.963935 228.209491 
L 197.310332 228.209491 
L 197.310332 225.820643 
L 191.963935 225.820643 
z
" clip-path="url(#p35d3e80da3)" style="fill: #1f77b4; opacity: 0.4"/>
   </g>
   <g id="patch_26">
    <path d="M 197.310332 228.209491 
L 202.656728 228.209491 
L 202.656728 226.408064 
L 197.310332 226.408064 
z
" clip-path="url(#p35d3e80da3)" style="fill: #1f77b4; opacity: 0.4"/>
   </g>
   <g id="patch_27">
    <path d="M 202.656728 228.209491 
L 208.003125 228.209491 
L 208.003125 226.329741 
L 202.656728 226.329741 
z
" clip-path="url(#p35d3e80da3)" style="fill: #1f77b4; opacity: 0.4"/>
   </g>
   <g id="patch_28">
    <path d="M 208.003125 228.209491 
L 213.349522 228.209491 
L 213.349522 226.56471 
L 208.003125 226.56471 
z
" clip-path="url(#p35d3e80da3)" style="fill: #1f77b4; opacity: 0.4"/>
   </g>
   <g id="patch_29">
    <path d="M 213.349522 228.209491 
L 218.695918 228.209491 
L 218.695918 226.956325 
L 213.349522 226.956325 
z
" clip-path="url(#p35d3e80da3)" style="fill: #1f77b4; opacity: 0.4"/>
   </g>
   <g id="patch_30">
    <path d="M 218.695918 228.209491 
L 224.042315 228.209491 
L 224.042315 227.073809 
L 218.695918 227.073809 
z
" clip-path="url(#p35d3e80da3)" style="fill: #1f77b4; opacity: 0.4"/>
   </g>
   <g id="patch_31">
    <path d="M 224.042315 228.209491 
L 229.388712 228.209491 
L 229.388712 227.269616 
L 224.042315 227.269616 
z
" clip-path="url(#p35d3e80da3)" style="fill: #1f77b4; opacity: 0.4"/>
   </g>
   <g id="patch_32">
    <path d="M 229.388712 228.209491 
L 234.735109 228.209491 
L 234.735109 227.582908 
L 229.388712 227.582908 
z
" clip-path="url(#p35d3e80da3)" style="fill: #1f77b4; opacity: 0.4"/>
   </g>
   <g id="patch_33">
    <path d="M 234.735109 228.209491 
L 240.081505 228.209491 
L 240.081505 227.778715 
L 234.735109 227.778715 
z
" clip-path="url(#p35d3e80da3)" style="fill: #1f77b4; opacity: 0.4"/>
   </g>
   <g id="patch_34">
    <path d="M 240.081505 228.209491 
L 245.427902 228.209491 
L 245.427902 227.857038 
L 240.081505 227.857038 
z
" clip-path="url(#p35d3e80da3)" style="fill: #1f77b4; opacity: 0.4"/>
   </g>
   <g id="patch_35">
    <path d="M 245.427902 228.209491 
L 250.774299 228.209491 
L 250.774299 227.817876 
L 245.427902 227.817876 
z
" clip-path="url(#p35d3e80da3)" style="fill: #1f77b4; opacity: 0.4"/>
   </g>
   <g id="patch_36">
    <path d="M 250.774299 228.209491 
L 256.120695 228.209491 
L 256.120695 227.974522 
L 250.774299 227.974522 
z
" clip-path="url(#p35d3e80da3)" style="fill: #1f77b4; opacity: 0.4"/>
   </g>
   <g id="patch_37">
    <path d="M 256.120695 228.209491 
L 261.467092 228.209491 
L 261.467092 227.700392 
L 256.120695 227.700392 
z
" clip-path="url(#p35d3e80da3)" style="fill: #1f77b4; opacity: 0.4"/>
   </g>
   <g id="patch_38">
    <path d="M 261.467092 228.209491 
L 266.813489 228.209491 
L 266.813489 227.935361 
L 261.467092 227.935361 
z
" clip-path="url(#p35d3e80da3)" style="fill: #1f77b4; opacity: 0.4"/>
   </g>
   <g id="patch_39">
    <path d="M 266.813489 228.209491 
L 272.159886 228.209491 
L 272.159886 228.131168 
L 266.813489 228.131168 
z
" clip-path="url(#p35d3e80da3)" style="fill: #1f77b4; opacity: 0.4"/>
   </g>
   <g id="patch_40">
    <path d="M 272.159886 228.209491 
L 277.506282 228.209491 
L 277.506282 227.974522 
L 272.159886 227.974522 
z
" clip-path="url(#p35d3e80da3)" style="fill: #1f77b4; opacity: 0.4"/>
   </g>
   <g id="patch_41">
    <path d="M 277.506282 228.209491 
L 282.852679 228.209491 
L 282.852679 228.092006 
L 277.506282 228.092006 
z
" clip-path="url(#p35d3e80da3)" style="fill: #1f77b4; opacity: 0.4"/>
   </g>
   <g id="patch_42">
    <path d="M 282.852679 228.209491 
L 288.199076 228.209491 
L 288.199076 228.092006 
L 282.852679 228.092006 
z
" clip-path="url(#p35d3e80da3)" style="fill: #1f77b4; opacity: 0.4"/>
   </g>
   <g id="patch_43">
    <path d="M 288.199076 228.209491 
L 293.545472 228.209491 
L 293.545472 228.170329 
L 288.199076 228.170329 
z
" clip-path="url(#p35d3e80da3)" style="fill: #1f77b4; opacity: 0.4"/>
   </g>
   <g id="patch_44">
    <path d="M 293.545472 228.209491 
L 298.891869 228.209491 
L 298.891869 228.170329 
L 293.545472 228.170329 
z
" clip-path="url(#p35d3e80da3)" style="fill: #1f77b4; opacity: 0.4"/>
   </g>
   <g id="patch_45">
    <path d="M 298.891869 228.209491 
L 304.238266 228.209491 
L 304.238266 228.209491 
L 298.891869 228.209491 
z
" clip-path="url(#p35d3e80da3)" style="fill: #1f77b4; opacity: 0.4"/>
   </g>
   <g id="patch_46">
    <path d="M 304.238266 228.209491 
L 309.584663 228.209491 
L 309.584663 228.131168 
L 304.238266 228.131168 
z
" clip-path="url(#p35d3e80da3)" style="fill: #1f77b4; opacity: 0.4"/>
   </g>
   <g id="patch_47">
    <path d="M 309.584663 228.209491 
L 314.931059 228.209491 
L 314.931059 228.209491 
L 309.584663 228.209491 
z
" clip-path="url(#p35d3e80da3)" style="fill: #1f77b4; opacity: 0.4"/>
   </g>
   <g id="patch_48">
    <path d="M 314.931059 228.209491 
L 320.277456 228.209491 
L 320.277456 228.209491 
L 314.931059 228.209491 
z
" clip-path="url(#p35d3e80da3)" style="fill: #1f77b4; opacity: 0.4"/>
   </g>
   <g id="patch_49">
    <path d="M 320.277456 228.209491 
L 325.623853 228.209491 
L 325.623853 228.170329 
L 320.277456 228.170329 
z
" clip-path="url(#p35d3e80da3)" style="fill: #1f77b4; opacity: 0.4"/>
   </g>
   <g id="patch_50">
    <path d="M 325.623853 228.209491 
L 330.970249 228.209491 
L 330.970249 228.209491 
L 325.623853 228.209491 
z
" clip-path="url(#p35d3e80da3)" style="fill: #1f77b4; opacity: 0.4"/>
   </g>
   <g id="patch_51">
    <path d="M 330.970249 228.209491 
L 336.316646 228.209491 
L 336.316646 228.170329 
L 330.970249 228.170329 
z
" clip-path="url(#p35d3e80da3)" style="fill: #1f77b4; opacity: 0.4"/>
   </g>
   <g id="patch_52">
    <path d="M 336.316646 228.209491 
L 341.663043 228.209491 
L 341.663043 228.170329 
L 336.316646 228.170329 
z
" clip-path="url(#p35d3e80da3)" style="fill: #1f77b4; opacity: 0.4"/>
   </g>
   <g id="matplotlib.axis_1">
    <g id="xtick_1">
     <g id="line2d_1">
      <defs>
       <path id="m0754473186" d="M 0 0 
L 0 3.5 
" style="stroke: #000000; stroke-width: 0.8"/>
      </defs>
      <g>
       <use xlink:href="#m0754473186" x="74.343207" y="228.209491" style="stroke: #000000; stroke-width: 0.8"/>
      </g>
     </g>
     <g id="text_1">
      <!-- 0.0 -->
      <g transform="translate(66.391645 242.807928)scale(0.1 -0.1)">
       <defs>
        <path id="DejaVuSans-30" d="M 2034 4250 
Q 1547 4250 1301 3770 
Q 1056 3291 1056 2328 
Q 1056 1369 1301 889 
Q 1547 409 2034 409 
Q 2525 409 2770 889 
Q 3016 1369 3016 2328 
Q 3016 3291 2770 3770 
Q 2525 4250 2034 4250 
z
M 2034 4750 
Q 2819 4750 3233 4129 
Q 3647 3509 3647 2328 
Q 3647 1150 3233 529 
Q 2819 -91 2034 -91 
Q 1250 -91 836 529 
Q 422 1150 422 2328 
Q 422 3509 836 4129 
Q 1250 4750 2034 4750 
z
" transform="scale(0.015625)"/>
        <path id="DejaVuSans-2e" d="M 684 794 
L 1344 794 
L 1344 0 
L 684 0 
L 684 794 
z
" transform="scale(0.015625)"/>
       </defs>
       <use xlink:href="#DejaVuSans-30"/>
       <use xlink:href="#DejaVuSans-2e" x="63.623047"/>
       <use xlink:href="#DejaVuSans-30" x="95.410156"/>
      </g>
     </g>
    </g>
    <g id="xtick_2">
     <g id="line2d_2">
      <g>
       <use xlink:href="#m0754473186" x="141.817378" y="228.209491" style="stroke: #000000; stroke-width: 0.8"/>
      </g>
     </g>
     <g id="text_2">
      <!-- 0.1 -->
      <g transform="translate(133.865815 242.807928)scale(0.1 -0.1)">
       <defs>
        <path id="DejaVuSans-31" d="M 794 531 
L 1825 531 
L 1825 4091 
L 703 3866 
L 703 4441 
L 1819 4666 
L 2450 4666 
L 2450 531 
L 3481 531 
L 3481 0 
L 794 0 
L 794 531 
z
" transform="scale(0.015625)"/>
       </defs>
       <use xlink:href="#DejaVuSans-30"/>
       <use xlink:href="#DejaVuSans-2e" x="63.623047"/>
       <use xlink:href="#DejaVuSans-31" x="95.410156"/>
      </g>
     </g>
    </g>
    <g id="xtick_3">
     <g id="line2d_3">
      <g>
       <use xlink:href="#m0754473186" x="209.291549" y="228.209491" style="stroke: #000000; stroke-width: 0.8"/>
      </g>
     </g>
     <g id="text_3">
      <!-- 0.2 -->
      <g transform="translate(201.339986 242.807928)scale(0.1 -0.1)">
       <defs>
        <path id="DejaVuSans-32" d="M 1228 531 
L 3431 531 
L 3431 0 
L 469 0 
L 469 531 
Q 828 903 1448 1529 
Q 2069 2156 2228 2338 
Q 2531 2678 2651 2914 
Q 2772 3150 2772 3378 
Q 2772 3750 2511 3984 
Q 2250 4219 1831 4219 
Q 1534 4219 1204 4116 
Q 875 4013 500 3803 
L 500 4441 
Q 881 4594 1212 4672 
Q 1544 4750 1819 4750 
Q 2544 4750 2975 4387 
Q 3406 4025 3406 3419 
Q 3406 3131 3298 2873 
Q 3191 2616 2906 2266 
Q 2828 2175 2409 1742 
Q 1991 1309 1228 531 
z
" transform="scale(0.015625)"/>
       </defs>
       <use xlink:href="#DejaVuSans-30"/>
       <use xlink:href="#DejaVuSans-2e" x="63.623047"/>
       <use xlink:href="#DejaVuSans-32" x="95.410156"/>
      </g>
     </g>
    </g>
    <g id="xtick_4">
     <g id="line2d_4">
      <g>
       <use xlink:href="#m0754473186" x="276.765719" y="228.209491" style="stroke: #000000; stroke-width: 0.8"/>
      </g>
     </g>
     <g id="text_4">
      <!-- 0.3 -->
      <g transform="translate(268.814157 242.807928)scale(0.1 -0.1)">
       <defs>
        <path id="DejaVuSans-33" d="M 2597 2516 
Q 3050 2419 3304 2112 
Q 3559 1806 3559 1356 
Q 3559 666 3084 287 
Q 2609 -91 1734 -91 
Q 1441 -91 1130 -33 
Q 819 25 488 141 
L 488 750 
Q 750 597 1062 519 
Q 1375 441 1716 441 
Q 2309 441 2620 675 
Q 2931 909 2931 1356 
Q 2931 1769 2642 2001 
Q 2353 2234 1838 2234 
L 1294 2234 
L 1294 2753 
L 1863 2753 
Q 2328 2753 2575 2939 
Q 2822 3125 2822 3475 
Q 2822 3834 2567 4026 
Q 2313 4219 1838 4219 
Q 1578 4219 1281 4162 
Q 984 4106 628 3988 
L 628 4550 
Q 988 4650 1302 4700 
Q 1616 4750 1894 4750 
Q 2613 4750 3031 4423 
Q 3450 4097 3450 3541 
Q 3450 3153 3228 2886 
Q 3006 2619 2597 2516 
z
" transform="scale(0.015625)"/>
       </defs>
       <use xlink:href="#DejaVuSans-30"/>
       <use xlink:href="#DejaVuSans-2e" x="63.623047"/>
       <use xlink:href="#DejaVuSans-33" x="95.410156"/>
      </g>
     </g>
    </g>
    <g id="xtick_5">
     <g id="line2d_5">
      <g>
       <use xlink:href="#m0754473186" x="344.23989" y="228.209491" style="stroke: #000000; stroke-width: 0.8"/>
      </g>
     </g>
     <g id="text_5">
      <!-- 0.4 -->
      <g transform="translate(336.288328 242.807928)scale(0.1 -0.1)">
       <defs>
        <path id="DejaVuSans-34" d="M 2419 4116 
L 825 1625 
L 2419 1625 
L 2419 4116 
z
M 2253 4666 
L 3047 4666 
L 3047 1625 
L 3713 1625 
L 3713 1100 
L 3047 1100 
L 3047 0 
L 2419 0 
L 2419 1100 
L 313 1100 
L 313 1709 
L 2253 4666 
z
" transform="scale(0.015625)"/>
       </defs>
       <use xlink:href="#DejaVuSans-30"/>
       <use xlink:href="#DejaVuSans-2e" x="63.623047"/>
       <use xlink:href="#DejaVuSans-34" x="95.410156"/>
      </g>
     </g>
    </g>
   </g>
   <g id="matplotlib.axis_2">
    <g id="ytick_1">
     <g id="line2d_6">
      <defs>
       <path id="med26427601" d="M 0 0 
L -3.5 0 
" style="stroke: #000000; stroke-width: 0.8"/>
      </defs>
      <g>
       <use xlink:href="#med26427601" x="40.603125" y="228.209491" style="stroke: #000000; stroke-width: 0.8"/>
      </g>
     </g>
     <g id="text_6">
      <!-- 0 -->
      <g transform="translate(27.240625 232.00871)scale(0.1 -0.1)">
       <use xlink:href="#DejaVuSans-30"/>
      </g>
     </g>
    </g>
    <g id="ytick_2">
     <g id="line2d_7">
      <g>
       <use xlink:href="#med26427601" x="40.603125" y="197.179452" style="stroke: #000000; stroke-width: 0.8"/>
      </g>
     </g>
     <g id="text_7">
      <!-- 10 -->
      <g transform="translate(20.878125 200.978671)scale(0.1 -0.1)">
       <use xlink:href="#DejaVuSans-31"/>
       <use xlink:href="#DejaVuSans-30" x="63.623047"/>
      </g>
     </g>
    </g>
    <g id="ytick_3">
     <g id="line2d_8">
      <g>
       <use xlink:href="#med26427601" x="40.603125" y="166.149413" style="stroke: #000000; stroke-width: 0.8"/>
      </g>
     </g>
     <g id="text_8">
      <!-- 20 -->
      <g transform="translate(20.878125 169.948632)scale(0.1 -0.1)">
       <use xlink:href="#DejaVuSans-32"/>
       <use xlink:href="#DejaVuSans-30" x="63.623047"/>
      </g>
     </g>
    </g>
    <g id="ytick_4">
     <g id="line2d_9">
      <g>
       <use xlink:href="#med26427601" x="40.603125" y="135.119374" style="stroke: #000000; stroke-width: 0.8"/>
      </g>
     </g>
     <g id="text_9">
      <!-- 30 -->
      <g transform="translate(20.878125 138.918593)scale(0.1 -0.1)">
       <use xlink:href="#DejaVuSans-33"/>
       <use xlink:href="#DejaVuSans-30" x="63.623047"/>
      </g>
     </g>
    </g>
    <g id="ytick_5">
     <g id="line2d_10">
      <g>
       <use xlink:href="#med26427601" x="40.603125" y="104.089335" style="stroke: #000000; stroke-width: 0.8"/>
      </g>
     </g>
     <g id="text_10">
      <!-- 40 -->
      <g transform="translate(20.878125 107.888554)scale(0.1 -0.1)">
       <use xlink:href="#DejaVuSans-34"/>
       <use xlink:href="#DejaVuSans-30" x="63.623047"/>
      </g>
     </g>
    </g>
    <g id="ytick_6">
     <g id="line2d_11">
      <g>
       <use xlink:href="#med26427601" x="40.603125" y="73.059296" style="stroke: #000000; stroke-width: 0.8"/>
      </g>
     </g>
     <g id="text_11">
      <!-- 50 -->
      <g transform="translate(20.878125 76.858515)scale(0.1 -0.1)">
       <defs>
        <path id="DejaVuSans-35" d="M 691 4666 
L 3169 4666 
L 3169 4134 
L 1269 4134 
L 1269 2991 
Q 1406 3038 1543 3061 
Q 1681 3084 1819 3084 
Q 2600 3084 3056 2656 
Q 3513 2228 3513 1497 
Q 3513 744 3044 326 
Q 2575 -91 1722 -91 
Q 1428 -91 1123 -41 
Q 819 9 494 109 
L 494 744 
Q 775 591 1075 516 
Q 1375 441 1709 441 
Q 2250 441 2565 725 
Q 2881 1009 2881 1497 
Q 2881 1984 2565 2268 
Q 2250 2553 1709 2553 
Q 1456 2553 1204 2497 
Q 953 2441 691 2322 
L 691 4666 
z
" transform="scale(0.015625)"/>
       </defs>
       <use xlink:href="#DejaVuSans-35"/>
       <use xlink:href="#DejaVuSans-30" x="63.623047"/>
      </g>
     </g>
    </g>
    <g id="ytick_7">
     <g id="line2d_12">
      <g>
       <use xlink:href="#med26427601" x="40.603125" y="42.029258" style="stroke: #000000; stroke-width: 0.8"/>
      </g>
     </g>
     <g id="text_12">
      <!-- 60 -->
      <g transform="translate(20.878125 45.828476)scale(0.1 -0.1)">
       <defs>
        <path id="DejaVuSans-36" d="M 2113 2584 
Q 1688 2584 1439 2293 
Q 1191 2003 1191 1497 
Q 1191 994 1439 701 
Q 1688 409 2113 409 
Q 2538 409 2786 701 
Q 3034 994 3034 1497 
Q 3034 2003 2786 2293 
Q 2538 2584 2113 2584 
z
M 3366 4563 
L 3366 3988 
Q 3128 4100 2886 4159 
Q 2644 4219 2406 4219 
Q 1781 4219 1451 3797 
Q 1122 3375 1075 2522 
Q 1259 2794 1537 2939 
Q 1816 3084 2150 3084 
Q 2853 3084 3261 2657 
Q 3669 2231 3669 1497 
Q 3669 778 3244 343 
Q 2819 -91 2113 -91 
Q 1303 -91 875 529 
Q 447 1150 447 2328 
Q 447 3434 972 4092 
Q 1497 4750 2381 4750 
Q 2619 4750 2861 4703 
Q 3103 4656 3366 4563 
z
" transform="scale(0.015625)"/>
       </defs>
       <use xlink:href="#DejaVuSans-36"/>
       <use xlink:href="#DejaVuSans-30" x="63.623047"/>
      </g>
     </g>
    </g>
    <g id="ytick_8">
     <g id="line2d_13">
      <g>
       <use xlink:href="#med26427601" x="40.603125" y="10.999219" style="stroke: #000000; stroke-width: 0.8"/>
      </g>
     </g>
     <g id="text_13">
      <!-- 70 -->
      <g transform="translate(20.878125 14.798438)scale(0.1 -0.1)">
       <defs>
        <path id="DejaVuSans-37" d="M 525 4666 
L 3525 4666 
L 3525 4397 
L 1831 0 
L 1172 0 
L 2766 4134 
L 525 4134 
L 525 4666 
z
" transform="scale(0.015625)"/>
       </defs>
       <use xlink:href="#DejaVuSans-37"/>
       <use xlink:href="#DejaVuSans-30" x="63.623047"/>
      </g>
     </g>
    </g>
    <g id="text_14">
     <!-- Density -->
     <g transform="translate(14.798438 138.498085)rotate(-90)scale(0.1 -0.1)">
      <defs>
       <path id="DejaVuSans-44" d="M 1259 4147 
L 1259 519 
L 2022 519 
Q 2988 519 3436 956 
Q 3884 1394 3884 2338 
Q 3884 3275 3436 3711 
Q 2988 4147 2022 4147 
L 1259 4147 
z
M 628 4666 
L 1925 4666 
Q 3281 4666 3915 4102 
Q 4550 3538 4550 2338 
Q 4550 1131 3912 565 
Q 3275 0 1925 0 
L 628 0 
L 628 4666 
z
" transform="scale(0.015625)"/>
       <path id="DejaVuSans-65" d="M 3597 1894 
L 3597 1613 
L 953 1613 
Q 991 1019 1311 708 
Q 1631 397 2203 397 
Q 2534 397 2845 478 
Q 3156 559 3463 722 
L 3463 178 
Q 3153 47 2828 -22 
Q 2503 -91 2169 -91 
Q 1331 -91 842 396 
Q 353 884 353 1716 
Q 353 2575 817 3079 
Q 1281 3584 2069 3584 
Q 2775 3584 3186 3129 
Q 3597 2675 3597 1894 
z
M 3022 2063 
Q 3016 2534 2758 2815 
Q 2500 3097 2075 3097 
Q 1594 3097 1305 2825 
Q 1016 2553 972 2059 
L 3022 2063 
z
" transform="scale(0.015625)"/>
       <path id="DejaVuSans-6e" d="M 3513 2113 
L 3513 0 
L 2938 0 
L 2938 2094 
Q 2938 2591 2744 2837 
Q 2550 3084 2163 3084 
Q 1697 3084 1428 2787 
Q 1159 2491 1159 1978 
L 1159 0 
L 581 0 
L 581 3500 
L 1159 3500 
L 1159 2956 
Q 1366 3272 1645 3428 
Q 1925 3584 2291 3584 
Q 2894 3584 3203 3211 
Q 3513 2838 3513 2113 
z
" transform="scale(0.015625)"/>
       <path id="DejaVuSans-73" d="M 2834 3397 
L 2834 2853 
Q 2591 2978 2328 3040 
Q 2066 3103 1784 3103 
Q 1356 3103 1142 2972 
Q 928 2841 928 2578 
Q 928 2378 1081 2264 
Q 1234 2150 1697 2047 
L 1894 2003 
Q 2506 1872 2764 1633 
Q 3022 1394 3022 966 
Q 3022 478 2636 193 
Q 2250 -91 1575 -91 
Q 1294 -91 989 -36 
Q 684 19 347 128 
L 347 722 
Q 666 556 975 473 
Q 1284 391 1588 391 
Q 1994 391 2212 530 
Q 2431 669 2431 922 
Q 2431 1156 2273 1281 
Q 2116 1406 1581 1522 
L 1381 1569 
Q 847 1681 609 1914 
Q 372 2147 372 2553 
Q 372 3047 722 3315 
Q 1072 3584 1716 3584 
Q 2034 3584 2315 3537 
Q 2597 3491 2834 3397 
z
" transform="scale(0.015625)"/>
       <path id="DejaVuSans-69" d="M 603 3500 
L 1178 3500 
L 1178 0 
L 603 0 
L 603 3500 
z
M 603 4863 
L 1178 4863 
L 1178 4134 
L 603 4134 
L 603 4863 
z
" transform="scale(0.015625)"/>
       <path id="DejaVuSans-74" d="M 1172 4494 
L 1172 3500 
L 2356 3500 
L 2356 3053 
L 1172 3053 
L 1172 1153 
Q 1172 725 1289 603 
Q 1406 481 1766 481 
L 2356 481 
L 2356 0 
L 1766 0 
Q 1100 0 847 248 
Q 594 497 594 1153 
L 594 3053 
L 172 3053 
L 172 3500 
L 594 3500 
L 594 4494 
L 1172 4494 
z
" transform="scale(0.015625)"/>
       <path id="DejaVuSans-79" d="M 2059 -325 
Q 1816 -950 1584 -1140 
Q 1353 -1331 966 -1331 
L 506 -1331 
L 506 -850 
L 844 -850 
Q 1081 -850 1212 -737 
Q 1344 -625 1503 -206 
L 1606 56 
L 191 3500 
L 800 3500 
L 1894 763 
L 2988 3500 
L 3597 3500 
L 2059 -325 
z
" transform="scale(0.015625)"/>
      </defs>
      <use xlink:href="#DejaVuSans-44"/>
      <use xlink:href="#DejaVuSans-65" x="77.001953"/>
      <use xlink:href="#DejaVuSans-6e" x="138.525391"/>
      <use xlink:href="#DejaVuSans-73" x="201.904297"/>
      <use xlink:href="#DejaVuSans-69" x="254.003906"/>
      <use xlink:href="#DejaVuSans-74" x="281.787109"/>
      <use xlink:href="#DejaVuSans-79" x="320.996094"/>
     </g>
    </g>
   </g>
   <g id="line2d_14">
    <path d="M 55.821307 227.446334 
L 57.350772 226.650797 
L 58.880238 225.214737 
L 60.409703 222.796485 
L 61.939169 219.004507 
L 63.468634 213.481118 
L 64.9981 206.033295 
L 66.527565 196.783285 
L 71.115962 165.871574 
L 72.645427 158.652208 
L 74.174893 154.969458 
L 75.704358 155.330859 
L 77.233824 159.525864 
L 78.763289 166.696083 
L 83.351686 193.448241 
L 84.881151 200.631217 
L 86.410617 206.148603 
L 87.940083 210.073223 
L 89.469548 212.679382 
L 90.999014 214.309513 
L 92.528479 215.281238 
L 94.057945 215.842575 
L 95.58741 216.164798 
L 98.646341 216.481128 
L 106.293669 217.040302 
L 113.940996 217.750609 
L 124.647255 218.425714 
L 129.235651 218.99462 
L 143.000841 220.893933 
L 152.177634 221.852322 
L 161.354427 222.87346 
L 181.237479 224.584787 
L 204.179461 226.343571 
L 233.239306 227.574508 
L 242.416099 227.801028 
L 256.181289 227.877992 
L 277.593806 228.046739 
L 351.00815 228.204554 
L 360.184943 228.209335 
L 360.184943 228.209335 
" clip-path="url(#p35d3e80da3)" style="fill: none; stroke: #1f77b4; stroke-width: 1.5; stroke-linecap: square"/>
   </g>
   <g id="patch_53">
    <path d="M 40.603125 228.209491 
L 40.603125 10.769491 
" style="fill: none; stroke: #000000; stroke-width: 0.8; stroke-linejoin: miter; stroke-linecap: square"/>
   </g>
   <g id="patch_54">
    <path d="M 375.403125 228.209491 
L 375.403125 10.769491 
" style="fill: none; stroke: #000000; stroke-width: 0.8; stroke-linejoin: miter; stroke-linecap: square"/>
   </g>
   <g id="patch_55">
    <path d="M 40.603125 228.209491 
L 375.403125 228.209491 
" style="fill: none; stroke: #000000; stroke-width: 0.8; stroke-linejoin: miter; stroke-linecap: square"/>
   </g>
   <g id="patch_56">
    <path d="M 40.603125 10.769491 
L 375.403125 10.769491 
" style="fill: none; stroke: #000000; stroke-width: 0.8; stroke-linejoin: miter; stroke-linecap: square"/>
   </g>
  </g>
 </g>
 <defs>
  <clipPath id="p35d3e80da3">
   <rect x="40.603125" y="10.769491" width="334.8" height="217.44"/>
  </clipPath>
 </defs>
</svg>
