<?xml version="1.0" encoding="utf-8" standalone="no"?>
<!DOCTYPE svg PUBLIC "-//W3C//DTD SVG 1.1//EN"
  "http://www.w3.org/Graphics/SVG/1.1/DTD/svg11.dtd">
<svg xmlns:xlink="http://www.w3.org/1999/xlink" width="388.965625pt" height="248.518125pt" viewBox="0 0 388.965625 248.518125" xmlns="http://www.w3.org/2000/svg" version="1.1">
 <metadata>
  <rdf:RDF xmlns:dc="http://purl.org/dc/elements/1.1/" xmlns:cc="http://creativecommons.org/ns#" xmlns:rdf="http://www.w3.org/1999/02/22-rdf-syntax-ns#">
   <cc:Work>
    <dc:type rdf:resource="http://purl.org/dc/dcmitype/StillImage"/>
    <dc:date>2022-04-12T22:58:04.499585</dc:date>
    <dc:format>image/svg+xml</dc:format>
    <dc:creator>
     <cc:Agent>
      <dc:title>Matplotlib v3.5.1, https://matplotlib.org/</dc:title>
     </cc:Agent>
    </dc:creator>
   </cc:Work>
  </rdf:RDF>
 </metadata>
 <defs>
  <style type="text/css">*{stroke-linejoin: round; stroke-linecap: butt}</style>
 </defs>
 <g id="figure_1">
  <g id="patch_1">
   <path d="M 0 248.518125 
L 388.965625 248.518125 
L 388.965625 0 
L 0 0 
L 0 248.518125 
z
" style="fill: none"/>
  </g>
  <g id="axes_1">
   <g id="patch_2">
    <path d="M 46.965625 224.64 
L 381.765625 224.64 
L 381.765625 7.2 
L 46.965625 7.2 
z
" style="fill: #ffffff"/>
   </g>
   <g id="patch_3">
    <path d="M 62.183807 224.64 
L 67.256534 224.64 
L 67.256534 17.554286 
L 62.183807 17.554286 
z
" clip-path="url(#pa47d4a5de2)" style="fill: #1f77b4; fill-opacity: 0.5; stroke: #000000; stroke-width: 0.507273; stroke-linejoin: miter"/>
   </g>
   <g id="patch_4">
    <path d="M 67.256534 224.64 
L 72.329261 224.64 
L 72.329261 23.132352 
L 67.256534 23.132352 
z
" clip-path="url(#pa47d4a5de2)" style="fill: #1f77b4; fill-opacity: 0.5; stroke: #000000; stroke-width: 0.507273; stroke-linejoin: miter"/>
   </g>
   <g id="patch_5">
    <path d="M 72.329261 224.64 
L 77.401989 224.64 
L 77.401989 46.839134 
L 72.329261 46.839134 
z
" clip-path="url(#pa47d4a5de2)" style="fill: #1f77b4; fill-opacity: 0.5; stroke: #000000; stroke-width: 0.507273; stroke-linejoin: miter"/>
   </g>
   <g id="patch_6">
    <path d="M 77.401989 224.64 
L 82.474716 224.64 
L 82.474716 28.710418 
L 77.401989 28.710418 
z
" clip-path="url(#pa47d4a5de2)" style="fill: #1f77b4; fill-opacity: 0.5; stroke: #000000; stroke-width: 0.507273; stroke-linejoin: miter"/>
   </g>
   <g id="patch_7">
    <path d="M 82.474716 224.64 
L 87.547443 224.64 
L 87.547443 57.298009 
L 82.474716 57.298009 
z
" clip-path="url(#pa47d4a5de2)" style="fill: #1f77b4; fill-opacity: 0.5; stroke: #000000; stroke-width: 0.507273; stroke-linejoin: miter"/>
   </g>
   <g id="patch_8">
    <path d="M 87.547443 224.64 
L 92.62017 224.64 
L 92.62017 71.243175 
L 87.547443 71.243175 
z
" clip-path="url(#pa47d4a5de2)" style="fill: #1f77b4; fill-opacity: 0.5; stroke: #000000; stroke-width: 0.507273; stroke-linejoin: miter"/>
   </g>
   <g id="patch_9">
    <path d="M 92.62017 224.64 
L 97.692898 224.64 
L 97.692898 50.325426 
L 92.62017 50.325426 
z
" clip-path="url(#pa47d4a5de2)" style="fill: #1f77b4; fill-opacity: 0.5; stroke: #000000; stroke-width: 0.507273; stroke-linejoin: miter"/>
   </g>
   <g id="patch_10">
    <path d="M 97.692898 224.64 
L 102.765625 224.64 
L 102.765625 51.022684 
L 97.692898 51.022684 
z
" clip-path="url(#pa47d4a5de2)" style="fill: #1f77b4; fill-opacity: 0.5; stroke: #000000; stroke-width: 0.507273; stroke-linejoin: miter"/>
   </g>
   <g id="patch_11">
    <path d="M 102.765625 224.64 
L 107.838352 224.64 
L 107.838352 53.114459 
L 102.765625 53.114459 
z
" clip-path="url(#pa47d4a5de2)" style="fill: #1f77b4; fill-opacity: 0.5; stroke: #000000; stroke-width: 0.507273; stroke-linejoin: miter"/>
   </g>
   <g id="patch_12">
    <path d="M 107.838352 224.64 
L 112.91108 224.64 
L 112.91108 71.940433 
L 107.838352 71.940433 
z
" clip-path="url(#pa47d4a5de2)" style="fill: #1f77b4; fill-opacity: 0.5; stroke: #000000; stroke-width: 0.507273; stroke-linejoin: miter"/>
   </g>
   <g id="patch_13">
    <path d="M 112.91108 224.64 
L 117.983807 224.64 
L 117.983807 70.545916 
L 112.91108 70.545916 
z
" clip-path="url(#pa47d4a5de2)" style="fill: #1f77b4; fill-opacity: 0.5; stroke: #000000; stroke-width: 0.507273; stroke-linejoin: miter"/>
   </g>
   <g id="patch_14">
    <path d="M 117.983807 224.64 
L 123.056534 224.64 
L 123.056534 84.491082 
L 117.983807 84.491082 
z
" clip-path="url(#pa47d4a5de2)" style="fill: #1f77b4; fill-opacity: 0.5; stroke: #000000; stroke-width: 0.507273; stroke-linejoin: miter"/>
   </g>
   <g id="patch_15">
    <path d="M 123.056534 224.64 
L 128.129261 224.64 
L 128.129261 100.528023 
L 123.056534 100.528023 
z
" clip-path="url(#pa47d4a5de2)" style="fill: #1f77b4; fill-opacity: 0.5; stroke: #000000; stroke-width: 0.507273; stroke-linejoin: miter"/>
   </g>
   <g id="patch_16">
    <path d="M 128.129261 224.64 
L 133.201989 224.64 
L 133.201989 92.160924 
L 128.129261 92.160924 
z
" clip-path="url(#pa47d4a5de2)" style="fill: #1f77b4; fill-opacity: 0.5; stroke: #000000; stroke-width: 0.507273; stroke-linejoin: miter"/>
   </g>
   <g id="patch_17">
    <path d="M 133.201989 224.64 
L 138.274716 224.64 
L 138.274716 113.775931 
L 133.201989 113.775931 
z
" clip-path="url(#pa47d4a5de2)" style="fill: #1f77b4; fill-opacity: 0.5; stroke: #000000; stroke-width: 0.507273; stroke-linejoin: miter"/>
   </g>
   <g id="patch_18">
    <path d="M 138.274716 224.64 
L 143.347443 224.64 
L 143.347443 117.262222 
L 138.274716 117.262222 
z
" clip-path="url(#pa47d4a5de2)" style="fill: #1f77b4; fill-opacity: 0.5; stroke: #000000; stroke-width: 0.507273; stroke-linejoin: miter"/>
   </g>
   <g id="patch_19">
    <path d="M 143.347443 224.64 
L 148.42017 224.64 
L 148.42017 133.996421 
L 143.347443 133.996421 
z
" clip-path="url(#pa47d4a5de2)" style="fill: #1f77b4; fill-opacity: 0.5; stroke: #000000; stroke-width: 0.507273; stroke-linejoin: miter"/>
   </g>
   <g id="patch_20">
    <path d="M 148.42017 224.64 
L 153.492898 224.64 
L 153.492898 137.482713 
L 148.42017 137.482713 
z
" clip-path="url(#pa47d4a5de2)" style="fill: #1f77b4; fill-opacity: 0.5; stroke: #000000; stroke-width: 0.507273; stroke-linejoin: miter"/>
   </g>
   <g id="patch_21">
    <path d="M 153.492898 224.64 
L 158.565625 224.64 
L 158.565625 140.271746 
L 153.492898 140.271746 
z
" clip-path="url(#pa47d4a5de2)" style="fill: #1f77b4; fill-opacity: 0.5; stroke: #000000; stroke-width: 0.507273; stroke-linejoin: miter"/>
   </g>
   <g id="patch_22">
    <path d="M 158.565625 224.64 
L 163.638352 224.64 
L 163.638352 144.455296 
L 158.565625 144.455296 
z
" clip-path="url(#pa47d4a5de2)" style="fill: #1f77b4; fill-opacity: 0.5; stroke: #000000; stroke-width: 0.507273; stroke-linejoin: miter"/>
   </g>
   <g id="patch_23">
    <path d="M 163.638352 224.64 
L 168.71108 224.64 
L 168.71108 154.91417 
L 163.638352 154.91417 
z
" clip-path="url(#pa47d4a5de2)" style="fill: #1f77b4; fill-opacity: 0.5; stroke: #000000; stroke-width: 0.507273; stroke-linejoin: miter"/>
   </g>
   <g id="patch_24">
    <path d="M 168.71108 224.64 
L 173.783807 224.64 
L 173.783807 159.794978 
L 168.71108 159.794978 
z
" clip-path="url(#pa47d4a5de2)" style="fill: #1f77b4; fill-opacity: 0.5; stroke: #000000; stroke-width: 0.507273; stroke-linejoin: miter"/>
   </g>
   <g id="patch_25">
    <path d="M 173.783807 224.64 
L 178.856534 224.64 
L 178.856534 179.318211 
L 173.783807 179.318211 
z
" clip-path="url(#pa47d4a5de2)" style="fill: #1f77b4; fill-opacity: 0.5; stroke: #000000; stroke-width: 0.507273; stroke-linejoin: miter"/>
   </g>
   <g id="patch_26">
    <path d="M 178.856534 224.64 
L 183.929261 224.64 
L 183.929261 172.345628 
L 178.856534 172.345628 
z
" clip-path="url(#pa47d4a5de2)" style="fill: #1f77b4; fill-opacity: 0.5; stroke: #000000; stroke-width: 0.507273; stroke-linejoin: miter"/>
   </g>
   <g id="patch_27">
    <path d="M 183.929261 224.64 
L 189.001989 224.64 
L 189.001989 177.226436 
L 183.929261 177.226436 
z
" clip-path="url(#pa47d4a5de2)" style="fill: #1f77b4; fill-opacity: 0.5; stroke: #000000; stroke-width: 0.507273; stroke-linejoin: miter"/>
   </g>
   <g id="patch_28">
    <path d="M 189.001989 224.64 
L 194.074716 224.64 
L 194.074716 195.355152 
L 189.001989 195.355152 
z
" clip-path="url(#pa47d4a5de2)" style="fill: #1f77b4; fill-opacity: 0.5; stroke: #000000; stroke-width: 0.507273; stroke-linejoin: miter"/>
   </g>
   <g id="patch_29">
    <path d="M 194.074716 224.64 
L 199.147443 224.64 
L 199.147443 187.68531 
L 194.074716 187.68531 
z
" clip-path="url(#pa47d4a5de2)" style="fill: #1f77b4; fill-opacity: 0.5; stroke: #000000; stroke-width: 0.507273; stroke-linejoin: miter"/>
   </g>
   <g id="patch_30">
    <path d="M 199.147443 224.64 
L 204.22017 224.64 
L 204.22017 201.630476 
L 199.147443 201.630476 
z
" clip-path="url(#pa47d4a5de2)" style="fill: #1f77b4; fill-opacity: 0.5; stroke: #000000; stroke-width: 0.507273; stroke-linejoin: miter"/>
   </g>
   <g id="patch_31">
    <path d="M 204.22017 224.64 
L 209.292898 224.64 
L 209.292898 195.355152 
L 204.22017 195.355152 
z
" clip-path="url(#pa47d4a5de2)" style="fill: #1f77b4; fill-opacity: 0.5; stroke: #000000; stroke-width: 0.507273; stroke-linejoin: miter"/>
   </g>
   <g id="patch_32">
    <path d="M 209.292898 224.64 
L 214.365625 224.64 
L 214.365625 193.960635 
L 209.292898 193.960635 
z
" clip-path="url(#pa47d4a5de2)" style="fill: #1f77b4; fill-opacity: 0.5; stroke: #000000; stroke-width: 0.507273; stroke-linejoin: miter"/>
   </g>
   <g id="patch_33">
    <path d="M 214.365625 224.64 
L 219.438352 224.64 
L 219.438352 203.024993 
L 214.365625 203.024993 
z
" clip-path="url(#pa47d4a5de2)" style="fill: #1f77b4; fill-opacity: 0.5; stroke: #000000; stroke-width: 0.507273; stroke-linejoin: miter"/>
   </g>
   <g id="patch_34">
    <path d="M 219.438352 224.64 
L 224.51108 224.64 
L 224.51108 200.23596 
L 219.438352 200.23596 
z
" clip-path="url(#pa47d4a5de2)" style="fill: #1f77b4; fill-opacity: 0.5; stroke: #000000; stroke-width: 0.507273; stroke-linejoin: miter"/>
   </g>
   <g id="patch_35">
    <path d="M 224.51108 224.64 
L 229.583807 224.64 
L 229.583807 204.419509 
L 224.51108 204.419509 
z
" clip-path="url(#pa47d4a5de2)" style="fill: #1f77b4; fill-opacity: 0.5; stroke: #000000; stroke-width: 0.507273; stroke-linejoin: miter"/>
   </g>
   <g id="patch_36">
    <path d="M 229.583807 224.64 
L 234.656534 224.64 
L 234.656534 201.630476 
L 229.583807 201.630476 
z
" clip-path="url(#pa47d4a5de2)" style="fill: #1f77b4; fill-opacity: 0.5; stroke: #000000; stroke-width: 0.507273; stroke-linejoin: miter"/>
   </g>
   <g id="patch_37">
    <path d="M 234.656534 224.64 
L 239.729261 224.64 
L 239.729261 218.364675 
L 234.656534 218.364675 
z
" clip-path="url(#pa47d4a5de2)" style="fill: #1f77b4; fill-opacity: 0.5; stroke: #000000; stroke-width: 0.507273; stroke-linejoin: miter"/>
   </g>
   <g id="patch_38">
    <path d="M 239.729261 224.64 
L 244.801989 224.64 
L 244.801989 217.667417 
L 239.729261 217.667417 
z
" clip-path="url(#pa47d4a5de2)" style="fill: #1f77b4; fill-opacity: 0.5; stroke: #000000; stroke-width: 0.507273; stroke-linejoin: miter"/>
   </g>
   <g id="patch_39">
    <path d="M 244.801989 224.64 
L 249.874716 224.64 
L 249.874716 219.759192 
L 244.801989 219.759192 
z
" clip-path="url(#pa47d4a5de2)" style="fill: #1f77b4; fill-opacity: 0.5; stroke: #000000; stroke-width: 0.507273; stroke-linejoin: miter"/>
   </g>
   <g id="patch_40">
    <path d="M 249.874716 224.64 
L 254.947443 224.64 
L 254.947443 215.575642 
L 249.874716 215.575642 
z
" clip-path="url(#pa47d4a5de2)" style="fill: #1f77b4; fill-opacity: 0.5; stroke: #000000; stroke-width: 0.507273; stroke-linejoin: miter"/>
   </g>
   <g id="patch_41">
    <path d="M 254.947443 224.64 
L 260.02017 224.64 
L 260.02017 216.2729 
L 254.947443 216.2729 
z
" clip-path="url(#pa47d4a5de2)" style="fill: #1f77b4; fill-opacity: 0.5; stroke: #000000; stroke-width: 0.507273; stroke-linejoin: miter"/>
   </g>
   <g id="patch_42">
    <path d="M 260.02017 224.64 
L 265.092898 224.64 
L 265.092898 222.548225 
L 260.02017 222.548225 
z
" clip-path="url(#pa47d4a5de2)" style="fill: #1f77b4; fill-opacity: 0.5; stroke: #000000; stroke-width: 0.507273; stroke-linejoin: miter"/>
   </g>
   <g id="patch_43">
    <path d="M 265.092898 224.64 
L 270.165625 224.64 
L 270.165625 221.153709 
L 265.092898 221.153709 
z
" clip-path="url(#pa47d4a5de2)" style="fill: #1f77b4; fill-opacity: 0.5; stroke: #000000; stroke-width: 0.507273; stroke-linejoin: miter"/>
   </g>
   <g id="patch_44">
    <path d="M 270.165625 224.64 
L 275.238352 224.64 
L 275.238352 221.153709 
L 270.165625 221.153709 
z
" clip-path="url(#pa47d4a5de2)" style="fill: #1f77b4; fill-opacity: 0.5; stroke: #000000; stroke-width: 0.507273; stroke-linejoin: miter"/>
   </g>
   <g id="patch_45">
    <path d="M 275.238352 224.64 
L 280.31108 224.64 
L 280.31108 221.153709 
L 275.238352 221.153709 
z
" clip-path="url(#pa47d4a5de2)" style="fill: #1f77b4; fill-opacity: 0.5; stroke: #000000; stroke-width: 0.507273; stroke-linejoin: miter"/>
   </g>
   <g id="patch_46">
    <path d="M 280.31108 224.64 
L 285.383807 224.64 
L 285.383807 223.245483 
L 280.31108 223.245483 
z
" clip-path="url(#pa47d4a5de2)" style="fill: #1f77b4; fill-opacity: 0.5; stroke: #000000; stroke-width: 0.507273; stroke-linejoin: miter"/>
   </g>
   <g id="patch_47">
    <path d="M 285.383807 224.64 
L 290.456534 224.64 
L 290.456534 223.942742 
L 285.383807 223.942742 
z
" clip-path="url(#pa47d4a5de2)" style="fill: #1f77b4; fill-opacity: 0.5; stroke: #000000; stroke-width: 0.507273; stroke-linejoin: miter"/>
   </g>
   <g id="patch_48">
    <path d="M 290.456534 224.64 
L 295.529261 224.64 
L 295.529261 223.942742 
L 290.456534 223.942742 
z
" clip-path="url(#pa47d4a5de2)" style="fill: #1f77b4; fill-opacity: 0.5; stroke: #000000; stroke-width: 0.507273; stroke-linejoin: miter"/>
   </g>
   <g id="patch_49">
    <path d="M 295.529261 224.64 
L 300.601989 224.64 
L 300.601989 223.245483 
L 295.529261 223.245483 
z
" clip-path="url(#pa47d4a5de2)" style="fill: #1f77b4; fill-opacity: 0.5; stroke: #000000; stroke-width: 0.507273; stroke-linejoin: miter"/>
   </g>
   <g id="patch_50">
    <path d="M 300.601989 224.64 
L 305.674716 224.64 
L 305.674716 223.942742 
L 300.601989 223.942742 
z
" clip-path="url(#pa47d4a5de2)" style="fill: #1f77b4; fill-opacity: 0.5; stroke: #000000; stroke-width: 0.507273; stroke-linejoin: miter"/>
   </g>
   <g id="patch_51">
    <path d="M 305.674716 224.64 
L 310.747443 224.64 
L 310.747443 224.64 
L 305.674716 224.64 
z
" clip-path="url(#pa47d4a5de2)" style="fill: #1f77b4; fill-opacity: 0.5; stroke: #000000; stroke-width: 0.507273; stroke-linejoin: miter"/>
   </g>
   <g id="patch_52">
    <path d="M 310.747443 224.64 
L 315.82017 224.64 
L 315.82017 223.245483 
L 310.747443 223.245483 
z
" clip-path="url(#pa47d4a5de2)" style="fill: #1f77b4; fill-opacity: 0.5; stroke: #000000; stroke-width: 0.507273; stroke-linejoin: miter"/>
   </g>
   <g id="patch_53">
    <path d="M 315.82017 224.64 
L 320.892898 224.64 
L 320.892898 224.64 
L 315.82017 224.64 
z
" clip-path="url(#pa47d4a5de2)" style="fill: #1f77b4; fill-opacity: 0.5; stroke: #000000; stroke-width: 0.507273; stroke-linejoin: miter"/>
   </g>
   <g id="patch_54">
    <path d="M 320.892898 224.64 
L 325.965625 224.64 
L 325.965625 223.942742 
L 320.892898 223.942742 
z
" clip-path="url(#pa47d4a5de2)" style="fill: #1f77b4; fill-opacity: 0.5; stroke: #000000; stroke-width: 0.507273; stroke-linejoin: miter"/>
   </g>
   <g id="patch_55">
    <path d="M 325.965625 224.64 
L 331.038352 224.64 
L 331.038352 223.245483 
L 325.965625 223.245483 
z
" clip-path="url(#pa47d4a5de2)" style="fill: #1f77b4; fill-opacity: 0.5; stroke: #000000; stroke-width: 0.507273; stroke-linejoin: miter"/>
   </g>
   <g id="patch_56">
    <path d="M 331.038352 224.64 
L 336.11108 224.64 
L 336.11108 224.64 
L 331.038352 224.64 
z
" clip-path="url(#pa47d4a5de2)" style="fill: #1f77b4; fill-opacity: 0.5; stroke: #000000; stroke-width: 0.507273; stroke-linejoin: miter"/>
   </g>
   <g id="patch_57">
    <path d="M 336.11108 224.64 
L 341.183807 224.64 
L 341.183807 224.64 
L 336.11108 224.64 
z
" clip-path="url(#pa47d4a5de2)" style="fill: #1f77b4; fill-opacity: 0.5; stroke: #000000; stroke-width: 0.507273; stroke-linejoin: miter"/>
   </g>
   <g id="patch_58">
    <path d="M 341.183807 224.64 
L 346.256534 224.64 
L 346.256534 224.64 
L 341.183807 224.64 
z
" clip-path="url(#pa47d4a5de2)" style="fill: #1f77b4; fill-opacity: 0.5; stroke: #000000; stroke-width: 0.507273; stroke-linejoin: miter"/>
   </g>
   <g id="patch_59">
    <path d="M 346.256534 224.64 
L 351.329261 224.64 
L 351.329261 224.64 
L 346.256534 224.64 
z
" clip-path="url(#pa47d4a5de2)" style="fill: #1f77b4; fill-opacity: 0.5; stroke: #000000; stroke-width: 0.507273; stroke-linejoin: miter"/>
   </g>
   <g id="patch_60">
    <path d="M 351.329261 224.64 
L 356.401989 224.64 
L 356.401989 224.64 
L 351.329261 224.64 
z
" clip-path="url(#pa47d4a5de2)" style="fill: #1f77b4; fill-opacity: 0.5; stroke: #000000; stroke-width: 0.507273; stroke-linejoin: miter"/>
   </g>
   <g id="patch_61">
    <path d="M 356.401989 224.64 
L 361.474716 224.64 
L 361.474716 223.942742 
L 356.401989 223.942742 
z
" clip-path="url(#pa47d4a5de2)" style="fill: #1f77b4; fill-opacity: 0.5; stroke: #000000; stroke-width: 0.507273; stroke-linejoin: miter"/>
   </g>
   <g id="patch_62">
    <path d="M 361.474716 224.64 
L 366.547443 224.64 
L 366.547443 223.942742 
L 361.474716 223.942742 
z
" clip-path="url(#pa47d4a5de2)" style="fill: #1f77b4; fill-opacity: 0.5; stroke: #000000; stroke-width: 0.507273; stroke-linejoin: miter"/>
   </g>
   <g id="matplotlib.axis_1">
    <g id="xtick_1">
     <g id="line2d_1">
      <defs>
       <path id="m8b2079021a" d="M 0 0 
L 0 3.5 
" style="stroke: #000000; stroke-width: 0.8"/>
      </defs>
      <g>
       <use xlink:href="#m8b2079021a" x="62.145012" y="224.64" style="stroke: #000000; stroke-width: 0.8"/>
      </g>
     </g>
     <g id="text_1">
      <!-- 0.0000 -->
      <g transform="translate(44.6497 239.238437)scale(0.1 -0.1)">
       <defs>
        <path id="DejaVuSans-30" d="M 2034 4250 
Q 1547 4250 1301 3770 
Q 1056 3291 1056 2328 
Q 1056 1369 1301 889 
Q 1547 409 2034 409 
Q 2525 409 2770 889 
Q 3016 1369 3016 2328 
Q 3016 3291 2770 3770 
Q 2525 4250 2034 4250 
z
M 2034 4750 
Q 2819 4750 3233 4129 
Q 3647 3509 3647 2328 
Q 3647 1150 3233 529 
Q 2819 -91 2034 -91 
Q 1250 -91 836 529 
Q 422 1150 422 2328 
Q 422 3509 836 4129 
Q 1250 4750 2034 4750 
z
" transform="scale(0.015625)"/>
        <path id="DejaVuSans-2e" d="M 684 794 
L 1344 794 
L 1344 0 
L 684 0 
L 684 794 
z
" transform="scale(0.015625)"/>
       </defs>
       <use xlink:href="#DejaVuSans-30"/>
       <use xlink:href="#DejaVuSans-2e" x="63.623047"/>
       <use xlink:href="#DejaVuSans-30" x="95.410156"/>
       <use xlink:href="#DejaVuSans-30" x="159.033203"/>
       <use xlink:href="#DejaVuSans-30" x="222.65625"/>
       <use xlink:href="#DejaVuSans-30" x="286.279297"/>
      </g>
     </g>
    </g>
    <g id="xtick_2">
     <g id="line2d_2">
      <g>
       <use xlink:href="#m8b2079021a" x="103.144755" y="224.64" style="stroke: #000000; stroke-width: 0.8"/>
      </g>
     </g>
     <g id="text_2">
      <!-- 0.0025 -->
      <g transform="translate(85.649443 239.238437)scale(0.1 -0.1)">
       <defs>
        <path id="DejaVuSans-32" d="M 1228 531 
L 3431 531 
L 3431 0 
L 469 0 
L 469 531 
Q 828 903 1448 1529 
Q 2069 2156 2228 2338 
Q 2531 2678 2651 2914 
Q 2772 3150 2772 3378 
Q 2772 3750 2511 3984 
Q 2250 4219 1831 4219 
Q 1534 4219 1204 4116 
Q 875 4013 500 3803 
L 500 4441 
Q 881 4594 1212 4672 
Q 1544 4750 1819 4750 
Q 2544 4750 2975 4387 
Q 3406 4025 3406 3419 
Q 3406 3131 3298 2873 
Q 3191 2616 2906 2266 
Q 2828 2175 2409 1742 
Q 1991 1309 1228 531 
z
" transform="scale(0.015625)"/>
        <path id="DejaVuSans-35" d="M 691 4666 
L 3169 4666 
L 3169 4134 
L 1269 4134 
L 1269 2991 
Q 1406 3038 1543 3061 
Q 1681 3084 1819 3084 
Q 2600 3084 3056 2656 
Q 3513 2228 3513 1497 
Q 3513 744 3044 326 
Q 2575 -91 1722 -91 
Q 1428 -91 1123 -41 
Q 819 9 494 109 
L 494 744 
Q 775 591 1075 516 
Q 1375 441 1709 441 
Q 2250 441 2565 725 
Q 2881 1009 2881 1497 
Q 2881 1984 2565 2268 
Q 2250 2553 1709 2553 
Q 1456 2553 1204 2497 
Q 953 2441 691 2322 
L 691 4666 
z
" transform="scale(0.015625)"/>
       </defs>
       <use xlink:href="#DejaVuSans-30"/>
       <use xlink:href="#DejaVuSans-2e" x="63.623047"/>
       <use xlink:href="#DejaVuSans-30" x="95.410156"/>
       <use xlink:href="#DejaVuSans-30" x="159.033203"/>
       <use xlink:href="#DejaVuSans-32" x="222.65625"/>
       <use xlink:href="#DejaVuSans-35" x="286.279297"/>
      </g>
     </g>
    </g>
    <g id="xtick_3">
     <g id="line2d_3">
      <g>
       <use xlink:href="#m8b2079021a" x="144.144498" y="224.64" style="stroke: #000000; stroke-width: 0.8"/>
      </g>
     </g>
     <g id="text_3">
      <!-- 0.0050 -->
      <g transform="translate(126.649185 239.238437)scale(0.1 -0.1)">
       <use xlink:href="#DejaVuSans-30"/>
       <use xlink:href="#DejaVuSans-2e" x="63.623047"/>
       <use xlink:href="#DejaVuSans-30" x="95.410156"/>
       <use xlink:href="#DejaVuSans-30" x="159.033203"/>
       <use xlink:href="#DejaVuSans-35" x="222.65625"/>
       <use xlink:href="#DejaVuSans-30" x="286.279297"/>
      </g>
     </g>
    </g>
    <g id="xtick_4">
     <g id="line2d_4">
      <g>
       <use xlink:href="#m8b2079021a" x="185.144241" y="224.64" style="stroke: #000000; stroke-width: 0.8"/>
      </g>
     </g>
     <g id="text_4">
      <!-- 0.0075 -->
      <g transform="translate(167.648928 239.238437)scale(0.1 -0.1)">
       <defs>
        <path id="DejaVuSans-37" d="M 525 4666 
L 3525 4666 
L 3525 4397 
L 1831 0 
L 1172 0 
L 2766 4134 
L 525 4134 
L 525 4666 
z
" transform="scale(0.015625)"/>
       </defs>
       <use xlink:href="#DejaVuSans-30"/>
       <use xlink:href="#DejaVuSans-2e" x="63.623047"/>
       <use xlink:href="#DejaVuSans-30" x="95.410156"/>
       <use xlink:href="#DejaVuSans-30" x="159.033203"/>
       <use xlink:href="#DejaVuSans-37" x="222.65625"/>
       <use xlink:href="#DejaVuSans-35" x="286.279297"/>
      </g>
     </g>
    </g>
    <g id="xtick_5">
     <g id="line2d_5">
      <g>
       <use xlink:href="#m8b2079021a" x="226.143983" y="224.64" style="stroke: #000000; stroke-width: 0.8"/>
      </g>
     </g>
     <g id="text_5">
      <!-- 0.0100 -->
      <g transform="translate(208.648671 239.238437)scale(0.1 -0.1)">
       <defs>
        <path id="DejaVuSans-31" d="M 794 531 
L 1825 531 
L 1825 4091 
L 703 3866 
L 703 4441 
L 1819 4666 
L 2450 4666 
L 2450 531 
L 3481 531 
L 3481 0 
L 794 0 
L 794 531 
z
" transform="scale(0.015625)"/>
       </defs>
       <use xlink:href="#DejaVuSans-30"/>
       <use xlink:href="#DejaVuSans-2e" x="63.623047"/>
       <use xlink:href="#DejaVuSans-30" x="95.410156"/>
       <use xlink:href="#DejaVuSans-31" x="159.033203"/>
       <use xlink:href="#DejaVuSans-30" x="222.65625"/>
       <use xlink:href="#DejaVuSans-30" x="286.279297"/>
      </g>
     </g>
    </g>
    <g id="xtick_6">
     <g id="line2d_6">
      <g>
       <use xlink:href="#m8b2079021a" x="267.143726" y="224.64" style="stroke: #000000; stroke-width: 0.8"/>
      </g>
     </g>
     <g id="text_6">
      <!-- 0.0125 -->
      <g transform="translate(249.648414 239.238437)scale(0.1 -0.1)">
       <use xlink:href="#DejaVuSans-30"/>
       <use xlink:href="#DejaVuSans-2e" x="63.623047"/>
       <use xlink:href="#DejaVuSans-30" x="95.410156"/>
       <use xlink:href="#DejaVuSans-31" x="159.033203"/>
       <use xlink:href="#DejaVuSans-32" x="222.65625"/>
       <use xlink:href="#DejaVuSans-35" x="286.279297"/>
      </g>
     </g>
    </g>
    <g id="xtick_7">
     <g id="line2d_7">
      <g>
       <use xlink:href="#m8b2079021a" x="308.143469" y="224.64" style="stroke: #000000; stroke-width: 0.8"/>
      </g>
     </g>
     <g id="text_7">
      <!-- 0.0150 -->
      <g transform="translate(290.648156 239.238437)scale(0.1 -0.1)">
       <use xlink:href="#DejaVuSans-30"/>
       <use xlink:href="#DejaVuSans-2e" x="63.623047"/>
       <use xlink:href="#DejaVuSans-30" x="95.410156"/>
       <use xlink:href="#DejaVuSans-31" x="159.033203"/>
       <use xlink:href="#DejaVuSans-35" x="222.65625"/>
       <use xlink:href="#DejaVuSans-30" x="286.279297"/>
      </g>
     </g>
    </g>
    <g id="xtick_8">
     <g id="line2d_8">
      <g>
       <use xlink:href="#m8b2079021a" x="349.143212" y="224.64" style="stroke: #000000; stroke-width: 0.8"/>
      </g>
     </g>
     <g id="text_8">
      <!-- 0.0175 -->
      <g transform="translate(331.647899 239.238437)scale(0.1 -0.1)">
       <use xlink:href="#DejaVuSans-30"/>
       <use xlink:href="#DejaVuSans-2e" x="63.623047"/>
       <use xlink:href="#DejaVuSans-30" x="95.410156"/>
       <use xlink:href="#DejaVuSans-31" x="159.033203"/>
       <use xlink:href="#DejaVuSans-37" x="222.65625"/>
       <use xlink:href="#DejaVuSans-35" x="286.279297"/>
      </g>
     </g>
    </g>
   </g>
   <g id="matplotlib.axis_2">
    <g id="ytick_1">
     <g id="line2d_9">
      <defs>
       <path id="m6deef2eac2" d="M 0 0 
L -3.5 0 
" style="stroke: #000000; stroke-width: 0.8"/>
      </defs>
      <g>
       <use xlink:href="#m6deef2eac2" x="46.965625" y="224.64" style="stroke: #000000; stroke-width: 0.8"/>
      </g>
     </g>
     <g id="text_9">
      <!-- 0 -->
      <g transform="translate(33.603125 228.439219)scale(0.1 -0.1)">
       <use xlink:href="#DejaVuSans-30"/>
      </g>
     </g>
    </g>
    <g id="ytick_2">
     <g id="line2d_10">
      <g>
       <use xlink:href="#m6deef2eac2" x="46.965625" y="189.777085" style="stroke: #000000; stroke-width: 0.8"/>
      </g>
     </g>
     <g id="text_10">
      <!-- 50 -->
      <g transform="translate(27.240625 193.576304)scale(0.1 -0.1)">
       <use xlink:href="#DejaVuSans-35"/>
       <use xlink:href="#DejaVuSans-30" x="63.623047"/>
      </g>
     </g>
    </g>
    <g id="ytick_3">
     <g id="line2d_11">
      <g>
       <use xlink:href="#m6deef2eac2" x="46.965625" y="154.91417" style="stroke: #000000; stroke-width: 0.8"/>
      </g>
     </g>
     <g id="text_11">
      <!-- 100 -->
      <g transform="translate(20.878125 158.713389)scale(0.1 -0.1)">
       <use xlink:href="#DejaVuSans-31"/>
       <use xlink:href="#DejaVuSans-30" x="63.623047"/>
       <use xlink:href="#DejaVuSans-30" x="127.246094"/>
      </g>
     </g>
    </g>
    <g id="ytick_4">
     <g id="line2d_12">
      <g>
       <use xlink:href="#m6deef2eac2" x="46.965625" y="120.051255" style="stroke: #000000; stroke-width: 0.8"/>
      </g>
     </g>
     <g id="text_12">
      <!-- 150 -->
      <g transform="translate(20.878125 123.850474)scale(0.1 -0.1)">
       <use xlink:href="#DejaVuSans-31"/>
       <use xlink:href="#DejaVuSans-35" x="63.623047"/>
       <use xlink:href="#DejaVuSans-30" x="127.246094"/>
      </g>
     </g>
    </g>
    <g id="ytick_5">
     <g id="line2d_13">
      <g>
       <use xlink:href="#m6deef2eac2" x="46.965625" y="85.188341" style="stroke: #000000; stroke-width: 0.8"/>
      </g>
     </g>
     <g id="text_13">
      <!-- 200 -->
      <g transform="translate(20.878125 88.987559)scale(0.1 -0.1)">
       <use xlink:href="#DejaVuSans-32"/>
       <use xlink:href="#DejaVuSans-30" x="63.623047"/>
       <use xlink:href="#DejaVuSans-30" x="127.246094"/>
      </g>
     </g>
    </g>
    <g id="ytick_6">
     <g id="line2d_14">
      <g>
       <use xlink:href="#m6deef2eac2" x="46.965625" y="50.325426" style="stroke: #000000; stroke-width: 0.8"/>
      </g>
     </g>
     <g id="text_14">
      <!-- 250 -->
      <g transform="translate(20.878125 54.124644)scale(0.1 -0.1)">
       <use xlink:href="#DejaVuSans-32"/>
       <use xlink:href="#DejaVuSans-35" x="63.623047"/>
       <use xlink:href="#DejaVuSans-30" x="127.246094"/>
      </g>
     </g>
    </g>
    <g id="ytick_7">
     <g id="line2d_15">
      <g>
       <use xlink:href="#m6deef2eac2" x="46.965625" y="15.462511" style="stroke: #000000; stroke-width: 0.8"/>
      </g>
     </g>
     <g id="text_15">
      <!-- 300 -->
      <g transform="translate(20.878125 19.26173)scale(0.1 -0.1)">
       <defs>
        <path id="DejaVuSans-33" d="M 2597 2516 
Q 3050 2419 3304 2112 
Q 3559 1806 3559 1356 
Q 3559 666 3084 287 
Q 2609 -91 1734 -91 
Q 1441 -91 1130 -33 
Q 819 25 488 141 
L 488 750 
Q 750 597 1062 519 
Q 1375 441 1716 441 
Q 2309 441 2620 675 
Q 2931 909 2931 1356 
Q 2931 1769 2642 2001 
Q 2353 2234 1838 2234 
L 1294 2234 
L 1294 2753 
L 1863 2753 
Q 2328 2753 2575 2939 
Q 2822 3125 2822 3475 
Q 2822 3834 2567 4026 
Q 2313 4219 1838 4219 
Q 1578 4219 1281 4162 
Q 984 4106 628 3988 
L 628 4550 
Q 988 4650 1302 4700 
Q 1616 4750 1894 4750 
Q 2613 4750 3031 4423 
Q 3450 4097 3450 3541 
Q 3450 3153 3228 2886 
Q 3006 2619 2597 2516 
z
" transform="scale(0.015625)"/>
       </defs>
       <use xlink:href="#DejaVuSans-33"/>
       <use xlink:href="#DejaVuSans-30" x="63.623047"/>
       <use xlink:href="#DejaVuSans-30" x="127.246094"/>
      </g>
     </g>
    </g>
    <g id="text_16">
     <!-- Count -->
     <g transform="translate(14.798438 130.768437)rotate(-90)scale(0.1 -0.1)">
      <defs>
       <path id="DejaVuSans-43" d="M 4122 4306 
L 4122 3641 
Q 3803 3938 3442 4084 
Q 3081 4231 2675 4231 
Q 1875 4231 1450 3742 
Q 1025 3253 1025 2328 
Q 1025 1406 1450 917 
Q 1875 428 2675 428 
Q 3081 428 3442 575 
Q 3803 722 4122 1019 
L 4122 359 
Q 3791 134 3420 21 
Q 3050 -91 2638 -91 
Q 1578 -91 968 557 
Q 359 1206 359 2328 
Q 359 3453 968 4101 
Q 1578 4750 2638 4750 
Q 3056 4750 3426 4639 
Q 3797 4528 4122 4306 
z
" transform="scale(0.015625)"/>
       <path id="DejaVuSans-6f" d="M 1959 3097 
Q 1497 3097 1228 2736 
Q 959 2375 959 1747 
Q 959 1119 1226 758 
Q 1494 397 1959 397 
Q 2419 397 2687 759 
Q 2956 1122 2956 1747 
Q 2956 2369 2687 2733 
Q 2419 3097 1959 3097 
z
M 1959 3584 
Q 2709 3584 3137 3096 
Q 3566 2609 3566 1747 
Q 3566 888 3137 398 
Q 2709 -91 1959 -91 
Q 1206 -91 779 398 
Q 353 888 353 1747 
Q 353 2609 779 3096 
Q 1206 3584 1959 3584 
z
" transform="scale(0.015625)"/>
       <path id="DejaVuSans-75" d="M 544 1381 
L 544 3500 
L 1119 3500 
L 1119 1403 
Q 1119 906 1312 657 
Q 1506 409 1894 409 
Q 2359 409 2629 706 
Q 2900 1003 2900 1516 
L 2900 3500 
L 3475 3500 
L 3475 0 
L 2900 0 
L 2900 538 
Q 2691 219 2414 64 
Q 2138 -91 1772 -91 
Q 1169 -91 856 284 
Q 544 659 544 1381 
z
M 1991 3584 
L 1991 3584 
z
" transform="scale(0.015625)"/>
       <path id="DejaVuSans-6e" d="M 3513 2113 
L 3513 0 
L 2938 0 
L 2938 2094 
Q 2938 2591 2744 2837 
Q 2550 3084 2163 3084 
Q 1697 3084 1428 2787 
Q 1159 2491 1159 1978 
L 1159 0 
L 581 0 
L 581 3500 
L 1159 3500 
L 1159 2956 
Q 1366 3272 1645 3428 
Q 1925 3584 2291 3584 
Q 2894 3584 3203 3211 
Q 3513 2838 3513 2113 
z
" transform="scale(0.015625)"/>
       <path id="DejaVuSans-74" d="M 1172 4494 
L 1172 3500 
L 2356 3500 
L 2356 3053 
L 1172 3053 
L 1172 1153 
Q 1172 725 1289 603 
Q 1406 481 1766 481 
L 2356 481 
L 2356 0 
L 1766 0 
Q 1100 0 847 248 
Q 594 497 594 1153 
L 594 3053 
L 172 3053 
L 172 3500 
L 594 3500 
L 594 4494 
L 1172 4494 
z
" transform="scale(0.015625)"/>
      </defs>
      <use xlink:href="#DejaVuSans-43"/>
      <use xlink:href="#DejaVuSans-6f" x="69.824219"/>
      <use xlink:href="#DejaVuSans-75" x="131.005859"/>
      <use xlink:href="#DejaVuSans-6e" x="194.384766"/>
      <use xlink:href="#DejaVuSans-74" x="257.763672"/>
     </g>
    </g>
   </g>
   <g id="line2d_16">
    <path d="M 62.183807 125.489615 
L 65.242738 97.706531 
L 66.772203 85.350697 
L 68.301669 74.532703 
L 69.831134 65.47655 
L 71.3606 58.266256 
L 72.890065 52.859081 
L 74.419531 49.111994 
L 75.948996 46.81413 
L 77.478462 45.718357 
L 79.007927 45.567204 
L 80.537393 46.111216 
L 82.066858 47.120402 
L 88.18472 52.224469 
L 89.714186 53.18566 
L 91.243651 53.932517 
L 92.773117 54.493492 
L 98.890979 56.354604 
L 100.420445 57.146293 
L 101.94991 58.194031 
L 103.479376 59.519372 
L 105.008841 61.119118 
L 106.538307 62.969928 
L 109.597238 67.269529 
L 112.656169 72.071893 
L 123.362427 89.286601 
L 131.009755 101.26122 
L 134.068686 106.442887 
L 138.657082 114.726022 
L 143.245479 123.033145 
L 146.30441 128.166706 
L 149.363341 132.800887 
L 152.422272 136.950618 
L 157.010668 142.624964 
L 161.599065 148.375049 
L 164.657996 152.587573 
L 169.246392 159.471599 
L 173.834789 166.36101 
L 176.89372 170.554639 
L 179.952651 174.361376 
L 184.541048 179.613898 
L 189.129444 184.593274 
L 192.188375 187.660316 
L 195.247306 190.348562 
L 198.306237 192.552874 
L 201.365168 194.271841 
L 204.424099 195.604444 
L 209.012496 197.216255 
L 216.659823 199.800773 
L 221.24822 201.604591 
L 224.307151 203.104433 
L 227.366082 204.963813 
L 230.425013 207.176454 
L 236.542875 211.923198 
L 239.601806 213.92177 
L 241.131271 214.737776 
L 242.660737 215.422215 
L 245.719668 216.432091 
L 248.778599 217.100315 
L 256.425927 218.513441 
L 267.132185 220.786775 
L 271.720582 221.388319 
L 291.603633 223.47308 
L 299.250961 223.774983 
L 309.957219 224.00086 
L 331.369736 224.17829 
L 345.134926 224.540423 
L 352.782254 224.476001 
L 365.017978 224.326004 
L 366.547443 224.340612 
L 366.547443 224.340612 
" clip-path="url(#pa47d4a5de2)" style="fill: none; stroke: #1f77b4; stroke-width: 1.5; stroke-linecap: square"/>
   </g>
   <g id="patch_63">
    <path d="M 46.965625 224.64 
L 46.965625 7.2 
" style="fill: none; stroke: #000000; stroke-width: 0.8; stroke-linejoin: miter; stroke-linecap: square"/>
   </g>
   <g id="patch_64">
    <path d="M 381.765625 224.64 
L 381.765625 7.2 
" style="fill: none; stroke: #000000; stroke-width: 0.8; stroke-linejoin: miter; stroke-linecap: square"/>
   </g>
   <g id="patch_65">
    <path d="M 46.965625 224.64 
L 381.765625 224.64 
" style="fill: none; stroke: #000000; stroke-width: 0.8; stroke-linejoin: miter; stroke-linecap: square"/>
   </g>
   <g id="patch_66">
    <path d="M 46.965625 7.2 
L 381.765625 7.2 
" style="fill: none; stroke: #000000; stroke-width: 0.8; stroke-linejoin: miter; stroke-linecap: square"/>
   </g>
  </g>
 </g>
 <defs>
  <clipPath id="pa47d4a5de2">
   <rect x="46.965625" y="7.2" width="334.8" height="217.44"/>
  </clipPath>
 </defs>
</svg>
