<?xml version="1.0" encoding="utf-8" standalone="no"?>
<!DOCTYPE svg PUBLIC "-//W3C//DTD SVG 1.1//EN"
  "http://www.w3.org/Graphics/SVG/1.1/DTD/svg11.dtd">
<svg xmlns:xlink="http://www.w3.org/1999/xlink" width="380.482812pt" height="357.238125pt" viewBox="0 0 380.482812 357.238125" xmlns="http://www.w3.org/2000/svg" version="1.1">
 <metadata>
  <rdf:RDF xmlns:dc="http://purl.org/dc/elements/1.1/" xmlns:cc="http://creativecommons.org/ns#" xmlns:rdf="http://www.w3.org/1999/02/22-rdf-syntax-ns#">
   <cc:Work>
    <dc:type rdf:resource="http://purl.org/dc/dcmitype/StillImage"/>
    <dc:date>2022-04-12T22:06:23.101356</dc:date>
    <dc:format>image/svg+xml</dc:format>
    <dc:creator>
     <cc:Agent>
      <dc:title>Matplotlib v3.5.1, https://matplotlib.org/</dc:title>
     </cc:Agent>
    </dc:creator>
   </cc:Work>
  </rdf:RDF>
 </metadata>
 <defs>
  <style type="text/css">*{stroke-linejoin: round; stroke-linecap: butt}</style>
 </defs>
 <g id="figure_1">
  <g id="patch_1">
   <path d="M -0 357.238125 
L 380.482812 357.238125 
L 380.482812 0 
L -0 0 
L -0 357.238125 
z
" style="fill: none"/>
  </g>
  <g id="axes_1">
   <g id="patch_2">
    <path d="M 38.482813 333.36 
L 373.282813 333.36 
L 373.282813 7.2 
L 38.482813 7.2 
z
" style="fill: #ffffff"/>
   </g>
   <g id="PathCollection_1">
    <defs>
     <path id="mb73fd821e5" d="M 0 3.162278 
C 0.838646 3.162278 1.643056 2.82908 2.236068 2.236068 
C 2.82908 1.643056 3.162278 0.838646 3.162278 0 
C 3.162278 -0.838646 2.82908 -1.643056 2.236068 -2.236068 
C 1.643056 -2.82908 0.838646 -3.162278 0 -3.162278 
C -0.838646 -3.162278 -1.643056 -2.82908 -2.236068 -2.236068 
C -2.82908 -1.643056 -3.162278 -0.838646 -3.162278 0 
C -3.162278 0.838646 -2.82908 1.643056 -2.236068 2.236068 
C -1.643056 2.82908 -0.838646 3.162278 0 3.162278 
z
" style="stroke: #000000"/>
    </defs>
    <g clip-path="url(#p01649964e1)">
     <use xlink:href="#mb73fd821e5" x="138.1031" y="57.195563" style="fill: #1f77b4; stroke: #000000"/>
     <use xlink:href="#mb73fd821e5" x="335.816163" y="273.148534" style="fill: #1f77b4; stroke: #000000"/>
     <use xlink:href="#mb73fd821e5" x="324.549604" y="278.495571" style="fill: #1f77b4; stroke: #000000"/>
     <use xlink:href="#mb73fd821e5" x="115.803851" y="83.760458" style="fill: #1f77b4; stroke: #000000"/>
     <use xlink:href="#mb73fd821e5" x="136.864351" y="108.610709" style="fill: #1f77b4; stroke: #000000"/>
     <use xlink:href="#mb73fd821e5" x="148.204778" y="61.579305" style="fill: #1f77b4; stroke: #000000"/>
     <use xlink:href="#mb73fd821e5" x="302.506214" y="282.299385" style="fill: #1f77b4; stroke: #000000"/>
     <use xlink:href="#mb73fd821e5" x="179.663726" y="64.794585" style="fill: #1f77b4; stroke: #000000"/>
     <use xlink:href="#mb73fd821e5" x="266.540025" y="315.361252" style="fill: #1f77b4; stroke: #000000"/>
     <use xlink:href="#mb73fd821e5" x="269.756597" y="219.64769" style="fill: #1f77b4; stroke: #000000"/>
     <use xlink:href="#mb73fd821e5" x="358.064631" y="297.655282" style="fill: #1f77b4; stroke: #000000"/>
     <use xlink:href="#mb73fd821e5" x="115.308337" y="80.152802" style="fill: #1f77b4; stroke: #000000"/>
     <use xlink:href="#mb73fd821e5" x="193.481006" y="131.941867" style="fill: #1f77b4; stroke: #000000"/>
     <use xlink:href="#mb73fd821e5" x="117.251019" y="56.679393" style="fill: #1f77b4; stroke: #000000"/>
     <use xlink:href="#mb73fd821e5" x="282.285964" y="266.568006" style="fill: #1f77b4; stroke: #000000"/>
     <use xlink:href="#mb73fd821e5" x="311.127593" y="277.615083" style="fill: #1f77b4; stroke: #000000"/>
     <use xlink:href="#mb73fd821e5" x="159.248616" y="57.512924" style="fill: #1f77b4; stroke: #000000"/>
     <use xlink:href="#mb73fd821e5" x="103.524915" y="49.638435" style="fill: #1f77b4; stroke: #000000"/>
     <use xlink:href="#mb73fd821e5" x="324.918456" y="268.351271" style="fill: #1f77b4; stroke: #000000"/>
     <use xlink:href="#mb73fd821e5" x="280.369013" y="259.232491" style="fill: #1f77b4; stroke: #000000"/>
     <use xlink:href="#mb73fd821e5" x="310.794019" y="230.170894" style="fill: #1f77b4; stroke: #000000"/>
     <use xlink:href="#mb73fd821e5" x="53.700994" y="107.03395" style="fill: #1f77b4; stroke: #000000"/>
     <use xlink:href="#mb73fd821e5" x="277.661866" y="309.649768" style="fill: #1f77b4; stroke: #000000"/>
     <use xlink:href="#mb73fd821e5" x="281.84565" y="291.481901" style="fill: #1f77b4; stroke: #000000"/>
     <use xlink:href="#mb73fd821e5" x="149.610025" y="43.205063" style="fill: #1f77b4; stroke: #000000"/>
     <use xlink:href="#mb73fd821e5" x="144.229202" y="97.238426" style="fill: #1f77b4; stroke: #000000"/>
     <use xlink:href="#mb73fd821e5" x="120.419482" y="51.655586" style="fill: #1f77b4; stroke: #000000"/>
     <use xlink:href="#mb73fd821e5" x="302.663868" y="300.284028" style="fill: #1f77b4; stroke: #000000"/>
     <use xlink:href="#mb73fd821e5" x="100.586743" y="104.475934" style="fill: #1f77b4; stroke: #000000"/>
     <use xlink:href="#mb73fd821e5" x="175.149309" y="113.340967" style="fill: #1f77b4; stroke: #000000"/>
     <use xlink:href="#mb73fd821e5" x="305.429387" y="296.61247" style="fill: #1f77b4; stroke: #000000"/>
     <use xlink:href="#mb73fd821e5" x="282.115523" y="290.323157" style="fill: #1f77b4; stroke: #000000"/>
     <use xlink:href="#mb73fd821e5" x="152.512579" y="124.419667" style="fill: #1f77b4; stroke: #000000"/>
     <use xlink:href="#mb73fd821e5" x="303.588626" y="259.052847" style="fill: #1f77b4; stroke: #000000"/>
     <use xlink:href="#mb73fd821e5" x="311.570126" y="218.326401" style="fill: #1f77b4; stroke: #000000"/>
     <use xlink:href="#mb73fd821e5" x="105.049221" y="86.647082" style="fill: #1f77b4; stroke: #000000"/>
     <use xlink:href="#mb73fd821e5" x="249.537473" y="289.305832" style="fill: #1f77b4; stroke: #000000"/>
     <use xlink:href="#mb73fd821e5" x="189.186048" y="58.029247" style="fill: #1f77b4; stroke: #000000"/>
     <use xlink:href="#mb73fd821e5" x="282.386592" y="211.936979" style="fill: #1f77b4; stroke: #000000"/>
     <use xlink:href="#mb73fd821e5" x="335.116401" y="291.250775" style="fill: #1f77b4; stroke: #000000"/>
     <use xlink:href="#mb73fd821e5" x="326.883433" y="290.817328" style="fill: #1f77b4; stroke: #000000"/>
     <use xlink:href="#mb73fd821e5" x="123.373944" y="44.582586" style="fill: #1f77b4; stroke: #000000"/>
     <use xlink:href="#mb73fd821e5" x="291.121258" y="266.9119" style="fill: #1f77b4; stroke: #000000"/>
     <use xlink:href="#mb73fd821e5" x="123.03602" y="74.342753" style="fill: #1f77b4; stroke: #000000"/>
     <use xlink:href="#mb73fd821e5" x="142.316545" y="95.163644" style="fill: #1f77b4; stroke: #000000"/>
     <use xlink:href="#mb73fd821e5" x="318.67404" y="255.20095" style="fill: #1f77b4; stroke: #000000"/>
     <use xlink:href="#mb73fd821e5" x="316.038077" y="228.475175" style="fill: #1f77b4; stroke: #000000"/>
     <use xlink:href="#mb73fd821e5" x="162.495336" y="45.621263" style="fill: #1f77b4; stroke: #000000"/>
     <use xlink:href="#mb73fd821e5" x="128.892855" y="113.635523" style="fill: #1f77b4; stroke: #000000"/>
     <use xlink:href="#mb73fd821e5" x="157.879934" y="67.681196" style="fill: #1f77b4; stroke: #000000"/>
     <use xlink:href="#mb73fd821e5" x="167.121017" y="97.674595" style="fill: #1f77b4; stroke: #000000"/>
    </g>
   </g>
   <g id="PathCollection_2">
    <defs>
     <path id="m5a5dd93a2a" d="M 0 3.162278 
C 0.838646 3.162278 1.643056 2.82908 2.236068 2.236068 
C 2.82908 1.643056 3.162278 0.838646 3.162278 0 
C 3.162278 -0.838646 2.82908 -1.643056 2.236068 -2.236068 
C 1.643056 -2.82908 0.838646 -3.162278 0 -3.162278 
C -0.838646 -3.162278 -1.643056 -2.82908 -2.236068 -2.236068 
C -2.82908 -1.643056 -3.162278 -0.838646 -3.162278 0 
C -3.162278 0.838646 -2.82908 1.643056 -2.236068 2.236068 
C -1.643056 2.82908 -0.838646 3.162278 0 3.162278 
z
" style="stroke: #000000"/>
    </defs>
    <g clip-path="url(#p01649964e1)">
     <use xlink:href="#m5a5dd93a2a" x="155.148503" y="300.642574" style="fill: #ff7f0e; stroke: #000000"/>
     <use xlink:href="#m5a5dd93a2a" x="129.625109" y="252.669755" style="fill: #ff7f0e; stroke: #000000"/>
     <use xlink:href="#m5a5dd93a2a" x="285.941487" y="58.686543" style="fill: #ff7f0e; stroke: #000000"/>
     <use xlink:href="#m5a5dd93a2a" x="124.013401" y="248.461736" style="fill: #ff7f0e; stroke: #000000"/>
     <use xlink:href="#m5a5dd93a2a" x="108.520941" y="259.774066" style="fill: #ff7f0e; stroke: #000000"/>
     <use xlink:href="#m5a5dd93a2a" x="311.616979" y="128.861907" style="fill: #ff7f0e; stroke: #000000"/>
     <use xlink:href="#m5a5dd93a2a" x="86.973311" y="274.552732" style="fill: #ff7f0e; stroke: #000000"/>
     <use xlink:href="#m5a5dd93a2a" x="259.575248" y="93.378407" style="fill: #ff7f0e; stroke: #000000"/>
     <use xlink:href="#m5a5dd93a2a" x="287.83381" y="22.025455" style="fill: #ff7f0e; stroke: #000000"/>
     <use xlink:href="#m5a5dd93a2a" x="105.275471" y="254.367371" style="fill: #ff7f0e; stroke: #000000"/>
     <use xlink:href="#m5a5dd93a2a" x="282.631313" y="91.589667" style="fill: #ff7f0e; stroke: #000000"/>
     <use xlink:href="#m5a5dd93a2a" x="115.541494" y="283.286475" style="fill: #ff7f0e; stroke: #000000"/>
     <use xlink:href="#m5a5dd93a2a" x="155.929133" y="217.716995" style="fill: #ff7f0e; stroke: #000000"/>
     <use xlink:href="#m5a5dd93a2a" x="302.632408" y="108.018688" style="fill: #ff7f0e; stroke: #000000"/>
     <use xlink:href="#m5a5dd93a2a" x="104.127045" y="312.790099" style="fill: #ff7f0e; stroke: #000000"/>
     <use xlink:href="#m5a5dd93a2a" x="281.858338" y="85.89977" style="fill: #ff7f0e; stroke: #000000"/>
     <use xlink:href="#m5a5dd93a2a" x="110.7254" y="250.510043" style="fill: #ff7f0e; stroke: #000000"/>
     <use xlink:href="#m5a5dd93a2a" x="126.624888" y="297.477355" style="fill: #ff7f0e; stroke: #000000"/>
     <use xlink:href="#m5a5dd93a2a" x="150.988141" y="299.099125" style="fill: #ff7f0e; stroke: #000000"/>
     <use xlink:href="#m5a5dd93a2a" x="182.187656" y="259.766959" style="fill: #ff7f0e; stroke: #000000"/>
     <use xlink:href="#m5a5dd93a2a" x="311.306147" y="47.933837" style="fill: #ff7f0e; stroke: #000000"/>
     <use xlink:href="#m5a5dd93a2a" x="164.395935" y="298.021244" style="fill: #ff7f0e; stroke: #000000"/>
     <use xlink:href="#m5a5dd93a2a" x="139.604159" y="262.382686" style="fill: #ff7f0e; stroke: #000000"/>
     <use xlink:href="#m5a5dd93a2a" x="237.062534" y="52.474138" style="fill: #ff7f0e; stroke: #000000"/>
     <use xlink:href="#m5a5dd93a2a" x="148.378532" y="264.993011" style="fill: #ff7f0e; stroke: #000000"/>
     <use xlink:href="#m5a5dd93a2a" x="96.234433" y="271.743112" style="fill: #ff7f0e; stroke: #000000"/>
     <use xlink:href="#m5a5dd93a2a" x="285.30922" y="86.44498" style="fill: #ff7f0e; stroke: #000000"/>
     <use xlink:href="#m5a5dd93a2a" x="136.762463" y="200.977829" style="fill: #ff7f0e; stroke: #000000"/>
     <use xlink:href="#m5a5dd93a2a" x="182.70118" y="268.610262" style="fill: #ff7f0e; stroke: #000000"/>
     <use xlink:href="#m5a5dd93a2a" x="304.670904" y="118.865025" style="fill: #ff7f0e; stroke: #000000"/>
     <use xlink:href="#m5a5dd93a2a" x="303.100629" y="83.694516" style="fill: #ff7f0e; stroke: #000000"/>
     <use xlink:href="#m5a5dd93a2a" x="305.161974" y="85.598201" style="fill: #ff7f0e; stroke: #000000"/>
     <use xlink:href="#m5a5dd93a2a" x="94.804919" y="268.313095" style="fill: #ff7f0e; stroke: #000000"/>
     <use xlink:href="#m5a5dd93a2a" x="108.304858" y="259.511653" style="fill: #ff7f0e; stroke: #000000"/>
     <use xlink:href="#m5a5dd93a2a" x="301.160298" y="47.106769" style="fill: #ff7f0e; stroke: #000000"/>
     <use xlink:href="#m5a5dd93a2a" x="275.138004" y="112.111381" style="fill: #ff7f0e; stroke: #000000"/>
     <use xlink:href="#m5a5dd93a2a" x="342.702962" y="54.083718" style="fill: #ff7f0e; stroke: #000000"/>
     <use xlink:href="#m5a5dd93a2a" x="99.638225" y="286.19973" style="fill: #ff7f0e; stroke: #000000"/>
     <use xlink:href="#m5a5dd93a2a" x="315.468676" y="80.848075" style="fill: #ff7f0e; stroke: #000000"/>
     <use xlink:href="#m5a5dd93a2a" x="142.620478" y="294.879054" style="fill: #ff7f0e; stroke: #000000"/>
     <use xlink:href="#m5a5dd93a2a" x="129.073496" y="296.042914" style="fill: #ff7f0e; stroke: #000000"/>
     <use xlink:href="#m5a5dd93a2a" x="159.484463" y="261.57111" style="fill: #ff7f0e; stroke: #000000"/>
     <use xlink:href="#m5a5dd93a2a" x="131.189405" y="261.829092" style="fill: #ff7f0e; stroke: #000000"/>
     <use xlink:href="#m5a5dd93a2a" x="265.774253" y="98.034372" style="fill: #ff7f0e; stroke: #000000"/>
     <use xlink:href="#m5a5dd93a2a" x="297.080981" y="83.681213" style="fill: #ff7f0e; stroke: #000000"/>
     <use xlink:href="#m5a5dd93a2a" x="113.942898" y="318.534545" style="fill: #ff7f0e; stroke: #000000"/>
     <use xlink:href="#m5a5dd93a2a" x="291.312983" y="90.525023" style="fill: #ff7f0e; stroke: #000000"/>
     <use xlink:href="#m5a5dd93a2a" x="141.726787" y="275.969174" style="fill: #ff7f0e; stroke: #000000"/>
     <use xlink:href="#m5a5dd93a2a" x="113.010422" y="269.226481" style="fill: #ff7f0e; stroke: #000000"/>
    </g>
   </g>
   <g id="matplotlib.axis_1">
    <g id="xtick_1">
     <g id="line2d_1">
      <defs>
       <path id="mef24f33184" d="M 0 0 
L 0 3.5 
" style="stroke: #000000; stroke-width: 0.8"/>
      </defs>
      <g>
       <use xlink:href="#mef24f33184" x="51.384731" y="333.36" style="stroke: #000000; stroke-width: 0.8"/>
      </g>
     </g>
     <g id="text_1">
      <!-- −2.0 -->
      <g transform="translate(39.243325 347.958438)scale(0.1 -0.1)">
       <defs>
        <path id="DejaVuSans-2212" d="M 678 2272 
L 4684 2272 
L 4684 1741 
L 678 1741 
L 678 2272 
z
" transform="scale(0.015625)"/>
        <path id="DejaVuSans-32" d="M 1228 531 
L 3431 531 
L 3431 0 
L 469 0 
L 469 531 
Q 828 903 1448 1529 
Q 2069 2156 2228 2338 
Q 2531 2678 2651 2914 
Q 2772 3150 2772 3378 
Q 2772 3750 2511 3984 
Q 2250 4219 1831 4219 
Q 1534 4219 1204 4116 
Q 875 4013 500 3803 
L 500 4441 
Q 881 4594 1212 4672 
Q 1544 4750 1819 4750 
Q 2544 4750 2975 4387 
Q 3406 4025 3406 3419 
Q 3406 3131 3298 2873 
Q 3191 2616 2906 2266 
Q 2828 2175 2409 1742 
Q 1991 1309 1228 531 
z
" transform="scale(0.015625)"/>
        <path id="DejaVuSans-2e" d="M 684 794 
L 1344 794 
L 1344 0 
L 684 0 
L 684 794 
z
" transform="scale(0.015625)"/>
        <path id="DejaVuSans-30" d="M 2034 4250 
Q 1547 4250 1301 3770 
Q 1056 3291 1056 2328 
Q 1056 1369 1301 889 
Q 1547 409 2034 409 
Q 2525 409 2770 889 
Q 3016 1369 3016 2328 
Q 3016 3291 2770 3770 
Q 2525 4250 2034 4250 
z
M 2034 4750 
Q 2819 4750 3233 4129 
Q 3647 3509 3647 2328 
Q 3647 1150 3233 529 
Q 2819 -91 2034 -91 
Q 1250 -91 836 529 
Q 422 1150 422 2328 
Q 422 3509 836 4129 
Q 1250 4750 2034 4750 
z
" transform="scale(0.015625)"/>
       </defs>
       <use xlink:href="#DejaVuSans-2212"/>
       <use xlink:href="#DejaVuSans-32" x="83.789062"/>
       <use xlink:href="#DejaVuSans-2e" x="147.412109"/>
       <use xlink:href="#DejaVuSans-30" x="179.199219"/>
      </g>
     </g>
    </g>
    <g id="xtick_2">
     <g id="line2d_2">
      <g>
       <use xlink:href="#mef24f33184" x="93.31594" y="333.36" style="stroke: #000000; stroke-width: 0.8"/>
      </g>
     </g>
     <g id="text_2">
      <!-- −1.5 -->
      <g transform="translate(81.174533 347.958438)scale(0.1 -0.1)">
       <defs>
        <path id="DejaVuSans-31" d="M 794 531 
L 1825 531 
L 1825 4091 
L 703 3866 
L 703 4441 
L 1819 4666 
L 2450 4666 
L 2450 531 
L 3481 531 
L 3481 0 
L 794 0 
L 794 531 
z
" transform="scale(0.015625)"/>
        <path id="DejaVuSans-35" d="M 691 4666 
L 3169 4666 
L 3169 4134 
L 1269 4134 
L 1269 2991 
Q 1406 3038 1543 3061 
Q 1681 3084 1819 3084 
Q 2600 3084 3056 2656 
Q 3513 2228 3513 1497 
Q 3513 744 3044 326 
Q 2575 -91 1722 -91 
Q 1428 -91 1123 -41 
Q 819 9 494 109 
L 494 744 
Q 775 591 1075 516 
Q 1375 441 1709 441 
Q 2250 441 2565 725 
Q 2881 1009 2881 1497 
Q 2881 1984 2565 2268 
Q 2250 2553 1709 2553 
Q 1456 2553 1204 2497 
Q 953 2441 691 2322 
L 691 4666 
z
" transform="scale(0.015625)"/>
       </defs>
       <use xlink:href="#DejaVuSans-2212"/>
       <use xlink:href="#DejaVuSans-31" x="83.789062"/>
       <use xlink:href="#DejaVuSans-2e" x="147.412109"/>
       <use xlink:href="#DejaVuSans-35" x="179.199219"/>
      </g>
     </g>
    </g>
    <g id="xtick_3">
     <g id="line2d_3">
      <g>
       <use xlink:href="#mef24f33184" x="135.247148" y="333.36" style="stroke: #000000; stroke-width: 0.8"/>
      </g>
     </g>
     <g id="text_3">
      <!-- −1.0 -->
      <g transform="translate(123.105742 347.958438)scale(0.1 -0.1)">
       <use xlink:href="#DejaVuSans-2212"/>
       <use xlink:href="#DejaVuSans-31" x="83.789062"/>
       <use xlink:href="#DejaVuSans-2e" x="147.412109"/>
       <use xlink:href="#DejaVuSans-30" x="179.199219"/>
      </g>
     </g>
    </g>
    <g id="xtick_4">
     <g id="line2d_4">
      <g>
       <use xlink:href="#mef24f33184" x="177.178356" y="333.36" style="stroke: #000000; stroke-width: 0.8"/>
      </g>
     </g>
     <g id="text_4">
      <!-- −0.5 -->
      <g transform="translate(165.03695 347.958438)scale(0.1 -0.1)">
       <use xlink:href="#DejaVuSans-2212"/>
       <use xlink:href="#DejaVuSans-30" x="83.789062"/>
       <use xlink:href="#DejaVuSans-2e" x="147.412109"/>
       <use xlink:href="#DejaVuSans-35" x="179.199219"/>
      </g>
     </g>
    </g>
    <g id="xtick_5">
     <g id="line2d_5">
      <g>
       <use xlink:href="#mef24f33184" x="219.109564" y="333.36" style="stroke: #000000; stroke-width: 0.8"/>
      </g>
     </g>
     <g id="text_5">
      <!-- 0.0 -->
      <g transform="translate(211.158002 347.958438)scale(0.1 -0.1)">
       <use xlink:href="#DejaVuSans-30"/>
       <use xlink:href="#DejaVuSans-2e" x="63.623047"/>
       <use xlink:href="#DejaVuSans-30" x="95.410156"/>
      </g>
     </g>
    </g>
    <g id="xtick_6">
     <g id="line2d_6">
      <g>
       <use xlink:href="#mef24f33184" x="261.040773" y="333.36" style="stroke: #000000; stroke-width: 0.8"/>
      </g>
     </g>
     <g id="text_6">
      <!-- 0.5 -->
      <g transform="translate(253.08921 347.958438)scale(0.1 -0.1)">
       <use xlink:href="#DejaVuSans-30"/>
       <use xlink:href="#DejaVuSans-2e" x="63.623047"/>
       <use xlink:href="#DejaVuSans-35" x="95.410156"/>
      </g>
     </g>
    </g>
    <g id="xtick_7">
     <g id="line2d_7">
      <g>
       <use xlink:href="#mef24f33184" x="302.971981" y="333.36" style="stroke: #000000; stroke-width: 0.8"/>
      </g>
     </g>
     <g id="text_7">
      <!-- 1.0 -->
      <g transform="translate(295.020418 347.958438)scale(0.1 -0.1)">
       <use xlink:href="#DejaVuSans-31"/>
       <use xlink:href="#DejaVuSans-2e" x="63.623047"/>
       <use xlink:href="#DejaVuSans-30" x="95.410156"/>
      </g>
     </g>
    </g>
    <g id="xtick_8">
     <g id="line2d_8">
      <g>
       <use xlink:href="#mef24f33184" x="344.903189" y="333.36" style="stroke: #000000; stroke-width: 0.8"/>
      </g>
     </g>
     <g id="text_8">
      <!-- 1.5 -->
      <g transform="translate(336.951627 347.958438)scale(0.1 -0.1)">
       <use xlink:href="#DejaVuSans-31"/>
       <use xlink:href="#DejaVuSans-2e" x="63.623047"/>
       <use xlink:href="#DejaVuSans-35" x="95.410156"/>
      </g>
     </g>
    </g>
   </g>
   <g id="matplotlib.axis_2">
    <g id="ytick_1">
     <g id="line2d_9">
      <defs>
       <path id="m721f7d3228" d="M 0 0 
L -3.5 0 
" style="stroke: #000000; stroke-width: 0.8"/>
      </defs>
      <g>
       <use xlink:href="#m721f7d3228" x="38.482813" y="323.020969" style="stroke: #000000; stroke-width: 0.8"/>
      </g>
     </g>
     <g id="text_9">
      <!-- −1.5 -->
      <g transform="translate(7.2 326.820188)scale(0.1 -0.1)">
       <use xlink:href="#DejaVuSans-2212"/>
       <use xlink:href="#DejaVuSans-31" x="83.789062"/>
       <use xlink:href="#DejaVuSans-2e" x="147.412109"/>
       <use xlink:href="#DejaVuSans-35" x="179.199219"/>
      </g>
     </g>
    </g>
    <g id="ytick_2">
     <g id="line2d_10">
      <g>
       <use xlink:href="#m721f7d3228" x="38.482813" y="273.769219" style="stroke: #000000; stroke-width: 0.8"/>
      </g>
     </g>
     <g id="text_10">
      <!-- −1.0 -->
      <g transform="translate(7.2 277.568438)scale(0.1 -0.1)">
       <use xlink:href="#DejaVuSans-2212"/>
       <use xlink:href="#DejaVuSans-31" x="83.789062"/>
       <use xlink:href="#DejaVuSans-2e" x="147.412109"/>
       <use xlink:href="#DejaVuSans-30" x="179.199219"/>
      </g>
     </g>
    </g>
    <g id="ytick_3">
     <g id="line2d_11">
      <g>
       <use xlink:href="#m721f7d3228" x="38.482813" y="224.51747" style="stroke: #000000; stroke-width: 0.8"/>
      </g>
     </g>
     <g id="text_11">
      <!-- −0.5 -->
      <g transform="translate(7.2 228.316688)scale(0.1 -0.1)">
       <use xlink:href="#DejaVuSans-2212"/>
       <use xlink:href="#DejaVuSans-30" x="83.789062"/>
       <use xlink:href="#DejaVuSans-2e" x="147.412109"/>
       <use xlink:href="#DejaVuSans-35" x="179.199219"/>
      </g>
     </g>
    </g>
    <g id="ytick_4">
     <g id="line2d_12">
      <g>
       <use xlink:href="#m721f7d3228" x="38.482813" y="175.26572" style="stroke: #000000; stroke-width: 0.8"/>
      </g>
     </g>
     <g id="text_12">
      <!-- 0.0 -->
      <g transform="translate(15.579688 179.064938)scale(0.1 -0.1)">
       <use xlink:href="#DejaVuSans-30"/>
       <use xlink:href="#DejaVuSans-2e" x="63.623047"/>
       <use xlink:href="#DejaVuSans-30" x="95.410156"/>
      </g>
     </g>
    </g>
    <g id="ytick_5">
     <g id="line2d_13">
      <g>
       <use xlink:href="#m721f7d3228" x="38.482813" y="126.01397" style="stroke: #000000; stroke-width: 0.8"/>
      </g>
     </g>
     <g id="text_13">
      <!-- 0.5 -->
      <g transform="translate(15.579688 129.813188)scale(0.1 -0.1)">
       <use xlink:href="#DejaVuSans-30"/>
       <use xlink:href="#DejaVuSans-2e" x="63.623047"/>
       <use xlink:href="#DejaVuSans-35" x="95.410156"/>
      </g>
     </g>
    </g>
    <g id="ytick_6">
     <g id="line2d_14">
      <g>
       <use xlink:href="#m721f7d3228" x="38.482813" y="76.76222" style="stroke: #000000; stroke-width: 0.8"/>
      </g>
     </g>
     <g id="text_14">
      <!-- 1.0 -->
      <g transform="translate(15.579688 80.561438)scale(0.1 -0.1)">
       <use xlink:href="#DejaVuSans-31"/>
       <use xlink:href="#DejaVuSans-2e" x="63.623047"/>
       <use xlink:href="#DejaVuSans-30" x="95.410156"/>
      </g>
     </g>
    </g>
    <g id="ytick_7">
     <g id="line2d_15">
      <g>
       <use xlink:href="#m721f7d3228" x="38.482813" y="27.51047" style="stroke: #000000; stroke-width: 0.8"/>
      </g>
     </g>
     <g id="text_15">
      <!-- 1.5 -->
      <g transform="translate(15.579688 31.309689)scale(0.1 -0.1)">
       <use xlink:href="#DejaVuSans-31"/>
       <use xlink:href="#DejaVuSans-2e" x="63.623047"/>
       <use xlink:href="#DejaVuSans-35" x="95.410156"/>
      </g>
     </g>
    </g>
   </g>
   <g id="patch_3">
    <path d="M 38.482813 333.36 
L 38.482813 7.2 
" style="fill: none; stroke: #000000; stroke-width: 0.8; stroke-linejoin: miter; stroke-linecap: square"/>
   </g>
   <g id="patch_4">
    <path d="M 373.282813 333.36 
L 373.282813 7.2 
" style="fill: none; stroke: #000000; stroke-width: 0.8; stroke-linejoin: miter; stroke-linecap: square"/>
   </g>
   <g id="patch_5">
    <path d="M 38.482813 333.36 
L 373.282812 333.36 
" style="fill: none; stroke: #000000; stroke-width: 0.8; stroke-linejoin: miter; stroke-linecap: square"/>
   </g>
   <g id="patch_6">
    <path d="M 38.482813 7.2 
L 373.282812 7.2 
" style="fill: none; stroke: #000000; stroke-width: 0.8; stroke-linejoin: miter; stroke-linecap: square"/>
   </g>
   <g id="legend_1">
    <g id="patch_7">
     <path d="M 327.920313 44.55625 
L 366.282813 44.55625 
Q 368.282813 44.55625 368.282813 42.55625 
L 368.282813 14.2 
Q 368.282813 12.2 366.282813 12.2 
L 327.920313 12.2 
Q 325.920313 12.2 325.920313 14.2 
L 325.920313 42.55625 
Q 325.920313 44.55625 327.920313 44.55625 
z
" style="fill: #ffffff; opacity: 0.8; stroke: #cccccc; stroke-linejoin: miter"/>
    </g>
    <g id="PathCollection_3">
     <g>
      <use xlink:href="#mb73fd821e5" x="339.920313" y="21.173437" style="fill: #1f77b4; stroke: #000000"/>
     </g>
    </g>
    <g id="text_16">
     <!-- 0 -->
     <g transform="translate(357.920313 23.798437)scale(0.1 -0.1)">
      <use xlink:href="#DejaVuSans-30"/>
     </g>
    </g>
    <g id="PathCollection_4">
     <g>
      <use xlink:href="#m5a5dd93a2a" x="339.920313" y="35.851562" style="fill: #ff7f0e; stroke: #000000"/>
     </g>
    </g>
    <g id="text_17">
     <!-- 1 -->
     <g transform="translate(357.920313 38.476562)scale(0.1 -0.1)">
      <use xlink:href="#DejaVuSans-31"/>
     </g>
    </g>
   </g>
  </g>
 </g>
 <defs>
  <clipPath id="p01649964e1">
   <rect x="38.482813" y="7.2" width="334.8" height="326.16"/>
  </clipPath>
 </defs>
</svg>
