<?xml version="1.0" encoding="utf-8" standalone="no"?>
<!DOCTYPE svg PUBLIC "-//W3C//DTD SVG 1.1//EN"
  "http://www.w3.org/Graphics/SVG/1.1/DTD/svg11.dtd">
<svg xmlns:xlink="http://www.w3.org/1999/xlink" width="713.265625pt" height="589.79625pt" viewBox="0 0 713.265625 589.79625" xmlns="http://www.w3.org/2000/svg" version="1.1">
 <metadata>
  <rdf:RDF xmlns:dc="http://purl.org/dc/elements/1.1/" xmlns:cc="http://creativecommons.org/ns#" xmlns:rdf="http://www.w3.org/1999/02/22-rdf-syntax-ns#">
   <cc:Work>
    <dc:type rdf:resource="http://purl.org/dc/dcmitype/StillImage"/>
    <dc:date>2022-04-13T05:10:50.983806</dc:date>
    <dc:format>image/svg+xml</dc:format>
    <dc:creator>
     <cc:Agent>
      <dc:title>Matplotlib v3.5.1, https://matplotlib.org/</dc:title>
     </cc:Agent>
    </dc:creator>
   </cc:Work>
  </rdf:RDF>
 </metadata>
 <defs>
  <style type="text/css">*{stroke-linejoin: round; stroke-linecap: butt}</style>
 </defs>
 <g id="figure_1">
  <g id="patch_1">
   <path d="M 0 589.79625 
L 713.265625 589.79625 
L 713.265625 0 
L 0 0 
L 0 589.79625 
z
" style="fill: none"/>
  </g>
  <g id="axes_1">
   <g id="patch_2">
    <path d="M 36.465625 269.409034 
L 340.829261 269.409034 
L 340.829261 22.318125 
L 36.465625 22.318125 
z
" style="fill: #ffffff"/>
   </g>
   <g id="matplotlib.axis_1">
    <g id="xtick_1">
     <g id="line2d_1">
      <path d="M 50.300336 269.409034 
L 50.300336 22.318125 
" clip-path="url(#p67f7b82f71)" style="fill: none; stroke: #b0b0b0; stroke-width: 0.8; stroke-linecap: square"/>
     </g>
     <g id="line2d_2">
      <defs>
       <path id="mdf15727279" d="M 0 0 
L 0 3.5 
" style="stroke: #000000; stroke-width: 0.8"/>
      </defs>
      <g>
       <use xlink:href="#mdf15727279" x="50.300336" y="269.409034" style="stroke: #000000; stroke-width: 0.8"/>
      </g>
     </g>
     <g id="text_1">
      <!-- 0 -->
      <g transform="translate(47.119086 284.007472)scale(0.1 -0.1)">
       <defs>
        <path id="DejaVuSans-30" d="M 2034 4250 
Q 1547 4250 1301 3770 
Q 1056 3291 1056 2328 
Q 1056 1369 1301 889 
Q 1547 409 2034 409 
Q 2525 409 2770 889 
Q 3016 1369 3016 2328 
Q 3016 3291 2770 3770 
Q 2525 4250 2034 4250 
z
M 2034 4750 
Q 2819 4750 3233 4129 
Q 3647 3509 3647 2328 
Q 3647 1150 3233 529 
Q 2819 -91 2034 -91 
Q 1250 -91 836 529 
Q 422 1150 422 2328 
Q 422 3509 836 4129 
Q 1250 4750 2034 4750 
z
" transform="scale(0.015625)"/>
       </defs>
       <use xlink:href="#DejaVuSans-30"/>
      </g>
     </g>
    </g>
    <g id="xtick_2">
     <g id="line2d_3">
      <path d="M 103.510762 269.409034 
L 103.510762 22.318125 
" clip-path="url(#p67f7b82f71)" style="fill: none; stroke: #b0b0b0; stroke-width: 0.8; stroke-linecap: square"/>
     </g>
     <g id="line2d_4">
      <g>
       <use xlink:href="#mdf15727279" x="103.510762" y="269.409034" style="stroke: #000000; stroke-width: 0.8"/>
      </g>
     </g>
     <g id="text_2">
      <!-- 5 -->
      <g transform="translate(100.329512 284.007472)scale(0.1 -0.1)">
       <defs>
        <path id="DejaVuSans-35" d="M 691 4666 
L 3169 4666 
L 3169 4134 
L 1269 4134 
L 1269 2991 
Q 1406 3038 1543 3061 
Q 1681 3084 1819 3084 
Q 2600 3084 3056 2656 
Q 3513 2228 3513 1497 
Q 3513 744 3044 326 
Q 2575 -91 1722 -91 
Q 1428 -91 1123 -41 
Q 819 9 494 109 
L 494 744 
Q 775 591 1075 516 
Q 1375 441 1709 441 
Q 2250 441 2565 725 
Q 2881 1009 2881 1497 
Q 2881 1984 2565 2268 
Q 2250 2553 1709 2553 
Q 1456 2553 1204 2497 
Q 953 2441 691 2322 
L 691 4666 
z
" transform="scale(0.015625)"/>
       </defs>
       <use xlink:href="#DejaVuSans-35"/>
      </g>
     </g>
    </g>
    <g id="xtick_3">
     <g id="line2d_5">
      <path d="M 156.721188 269.409034 
L 156.721188 22.318125 
" clip-path="url(#p67f7b82f71)" style="fill: none; stroke: #b0b0b0; stroke-width: 0.8; stroke-linecap: square"/>
     </g>
     <g id="line2d_6">
      <g>
       <use xlink:href="#mdf15727279" x="156.721188" y="269.409034" style="stroke: #000000; stroke-width: 0.8"/>
      </g>
     </g>
     <g id="text_3">
      <!-- 10 -->
      <g transform="translate(150.358688 284.007472)scale(0.1 -0.1)">
       <defs>
        <path id="DejaVuSans-31" d="M 794 531 
L 1825 531 
L 1825 4091 
L 703 3866 
L 703 4441 
L 1819 4666 
L 2450 4666 
L 2450 531 
L 3481 531 
L 3481 0 
L 794 0 
L 794 531 
z
" transform="scale(0.015625)"/>
       </defs>
       <use xlink:href="#DejaVuSans-31"/>
       <use xlink:href="#DejaVuSans-30" x="63.623047"/>
      </g>
     </g>
    </g>
    <g id="xtick_4">
     <g id="line2d_7">
      <path d="M 209.931614 269.409034 
L 209.931614 22.318125 
" clip-path="url(#p67f7b82f71)" style="fill: none; stroke: #b0b0b0; stroke-width: 0.8; stroke-linecap: square"/>
     </g>
     <g id="line2d_8">
      <g>
       <use xlink:href="#mdf15727279" x="209.931614" y="269.409034" style="stroke: #000000; stroke-width: 0.8"/>
      </g>
     </g>
     <g id="text_4">
      <!-- 15 -->
      <g transform="translate(203.569114 284.007472)scale(0.1 -0.1)">
       <use xlink:href="#DejaVuSans-31"/>
       <use xlink:href="#DejaVuSans-35" x="63.623047"/>
      </g>
     </g>
    </g>
    <g id="xtick_5">
     <g id="line2d_9">
      <path d="M 263.142039 269.409034 
L 263.142039 22.318125 
" clip-path="url(#p67f7b82f71)" style="fill: none; stroke: #b0b0b0; stroke-width: 0.8; stroke-linecap: square"/>
     </g>
     <g id="line2d_10">
      <g>
       <use xlink:href="#mdf15727279" x="263.142039" y="269.409034" style="stroke: #000000; stroke-width: 0.8"/>
      </g>
     </g>
     <g id="text_5">
      <!-- 20 -->
      <g transform="translate(256.779539 284.007472)scale(0.1 -0.1)">
       <defs>
        <path id="DejaVuSans-32" d="M 1228 531 
L 3431 531 
L 3431 0 
L 469 0 
L 469 531 
Q 828 903 1448 1529 
Q 2069 2156 2228 2338 
Q 2531 2678 2651 2914 
Q 2772 3150 2772 3378 
Q 2772 3750 2511 3984 
Q 2250 4219 1831 4219 
Q 1534 4219 1204 4116 
Q 875 4013 500 3803 
L 500 4441 
Q 881 4594 1212 4672 
Q 1544 4750 1819 4750 
Q 2544 4750 2975 4387 
Q 3406 4025 3406 3419 
Q 3406 3131 3298 2873 
Q 3191 2616 2906 2266 
Q 2828 2175 2409 1742 
Q 1991 1309 1228 531 
z
" transform="scale(0.015625)"/>
       </defs>
       <use xlink:href="#DejaVuSans-32"/>
       <use xlink:href="#DejaVuSans-30" x="63.623047"/>
      </g>
     </g>
    </g>
    <g id="xtick_6">
     <g id="line2d_11">
      <path d="M 316.352465 269.409034 
L 316.352465 22.318125 
" clip-path="url(#p67f7b82f71)" style="fill: none; stroke: #b0b0b0; stroke-width: 0.8; stroke-linecap: square"/>
     </g>
     <g id="line2d_12">
      <g>
       <use xlink:href="#mdf15727279" x="316.352465" y="269.409034" style="stroke: #000000; stroke-width: 0.8"/>
      </g>
     </g>
     <g id="text_6">
      <!-- 25 -->
      <g transform="translate(309.989965 284.007472)scale(0.1 -0.1)">
       <use xlink:href="#DejaVuSans-32"/>
       <use xlink:href="#DejaVuSans-35" x="63.623047"/>
      </g>
     </g>
    </g>
   </g>
   <g id="matplotlib.axis_2">
    <g id="ytick_1">
     <g id="line2d_13">
      <path d="M 36.465625 251.266113 
L 340.829261 251.266113 
" clip-path="url(#p67f7b82f71)" style="fill: none; stroke: #b0b0b0; stroke-width: 0.8; stroke-linecap: square"/>
     </g>
     <g id="line2d_14">
      <defs>
       <path id="m5aa858c4e3" d="M 0 0 
L -3.5 0 
" style="stroke: #000000; stroke-width: 0.8"/>
      </defs>
      <g>
       <use xlink:href="#m5aa858c4e3" x="36.465625" y="251.266113" style="stroke: #000000; stroke-width: 0.8"/>
      </g>
     </g>
     <g id="text_7">
      <!-- 0.2 -->
      <g transform="translate(13.5625 255.065331)scale(0.1 -0.1)">
       <defs>
        <path id="DejaVuSans-2e" d="M 684 794 
L 1344 794 
L 1344 0 
L 684 0 
L 684 794 
z
" transform="scale(0.015625)"/>
       </defs>
       <use xlink:href="#DejaVuSans-30"/>
       <use xlink:href="#DejaVuSans-2e" x="63.623047"/>
       <use xlink:href="#DejaVuSans-32" x="95.410156"/>
      </g>
     </g>
    </g>
    <g id="ytick_2">
     <g id="line2d_15">
      <path d="M 36.465625 197.196839 
L 340.829261 197.196839 
" clip-path="url(#p67f7b82f71)" style="fill: none; stroke: #b0b0b0; stroke-width: 0.8; stroke-linecap: square"/>
     </g>
     <g id="line2d_16">
      <g>
       <use xlink:href="#m5aa858c4e3" x="36.465625" y="197.196839" style="stroke: #000000; stroke-width: 0.8"/>
      </g>
     </g>
     <g id="text_8">
      <!-- 0.4 -->
      <g transform="translate(13.5625 200.996057)scale(0.1 -0.1)">
       <defs>
        <path id="DejaVuSans-34" d="M 2419 4116 
L 825 1625 
L 2419 1625 
L 2419 4116 
z
M 2253 4666 
L 3047 4666 
L 3047 1625 
L 3713 1625 
L 3713 1100 
L 3047 1100 
L 3047 0 
L 2419 0 
L 2419 1100 
L 313 1100 
L 313 1709 
L 2253 4666 
z
" transform="scale(0.015625)"/>
       </defs>
       <use xlink:href="#DejaVuSans-30"/>
       <use xlink:href="#DejaVuSans-2e" x="63.623047"/>
       <use xlink:href="#DejaVuSans-34" x="95.410156"/>
      </g>
     </g>
    </g>
    <g id="ytick_3">
     <g id="line2d_17">
      <path d="M 36.465625 143.127565 
L 340.829261 143.127565 
" clip-path="url(#p67f7b82f71)" style="fill: none; stroke: #b0b0b0; stroke-width: 0.8; stroke-linecap: square"/>
     </g>
     <g id="line2d_18">
      <g>
       <use xlink:href="#m5aa858c4e3" x="36.465625" y="143.127565" style="stroke: #000000; stroke-width: 0.8"/>
      </g>
     </g>
     <g id="text_9">
      <!-- 0.6 -->
      <g transform="translate(13.5625 146.926783)scale(0.1 -0.1)">
       <defs>
        <path id="DejaVuSans-36" d="M 2113 2584 
Q 1688 2584 1439 2293 
Q 1191 2003 1191 1497 
Q 1191 994 1439 701 
Q 1688 409 2113 409 
Q 2538 409 2786 701 
Q 3034 994 3034 1497 
Q 3034 2003 2786 2293 
Q 2538 2584 2113 2584 
z
M 3366 4563 
L 3366 3988 
Q 3128 4100 2886 4159 
Q 2644 4219 2406 4219 
Q 1781 4219 1451 3797 
Q 1122 3375 1075 2522 
Q 1259 2794 1537 2939 
Q 1816 3084 2150 3084 
Q 2853 3084 3261 2657 
Q 3669 2231 3669 1497 
Q 3669 778 3244 343 
Q 2819 -91 2113 -91 
Q 1303 -91 875 529 
Q 447 1150 447 2328 
Q 447 3434 972 4092 
Q 1497 4750 2381 4750 
Q 2619 4750 2861 4703 
Q 3103 4656 3366 4563 
z
" transform="scale(0.015625)"/>
       </defs>
       <use xlink:href="#DejaVuSans-30"/>
       <use xlink:href="#DejaVuSans-2e" x="63.623047"/>
       <use xlink:href="#DejaVuSans-36" x="95.410156"/>
      </g>
     </g>
    </g>
    <g id="ytick_4">
     <g id="line2d_19">
      <path d="M 36.465625 89.058291 
L 340.829261 89.058291 
" clip-path="url(#p67f7b82f71)" style="fill: none; stroke: #b0b0b0; stroke-width: 0.8; stroke-linecap: square"/>
     </g>
     <g id="line2d_20">
      <g>
       <use xlink:href="#m5aa858c4e3" x="36.465625" y="89.058291" style="stroke: #000000; stroke-width: 0.8"/>
      </g>
     </g>
     <g id="text_10">
      <!-- 0.8 -->
      <g transform="translate(13.5625 92.85751)scale(0.1 -0.1)">
       <defs>
        <path id="DejaVuSans-38" d="M 2034 2216 
Q 1584 2216 1326 1975 
Q 1069 1734 1069 1313 
Q 1069 891 1326 650 
Q 1584 409 2034 409 
Q 2484 409 2743 651 
Q 3003 894 3003 1313 
Q 3003 1734 2745 1975 
Q 2488 2216 2034 2216 
z
M 1403 2484 
Q 997 2584 770 2862 
Q 544 3141 544 3541 
Q 544 4100 942 4425 
Q 1341 4750 2034 4750 
Q 2731 4750 3128 4425 
Q 3525 4100 3525 3541 
Q 3525 3141 3298 2862 
Q 3072 2584 2669 2484 
Q 3125 2378 3379 2068 
Q 3634 1759 3634 1313 
Q 3634 634 3220 271 
Q 2806 -91 2034 -91 
Q 1263 -91 848 271 
Q 434 634 434 1313 
Q 434 1759 690 2068 
Q 947 2378 1403 2484 
z
M 1172 3481 
Q 1172 3119 1398 2916 
Q 1625 2713 2034 2713 
Q 2441 2713 2670 2916 
Q 2900 3119 2900 3481 
Q 2900 3844 2670 4047 
Q 2441 4250 2034 4250 
Q 1625 4250 1398 4047 
Q 1172 3844 1172 3481 
z
" transform="scale(0.015625)"/>
       </defs>
       <use xlink:href="#DejaVuSans-30"/>
       <use xlink:href="#DejaVuSans-2e" x="63.623047"/>
       <use xlink:href="#DejaVuSans-38" x="95.410156"/>
      </g>
     </g>
    </g>
    <g id="ytick_5">
     <g id="line2d_21">
      <path d="M 36.465625 34.989017 
L 340.829261 34.989017 
" clip-path="url(#p67f7b82f71)" style="fill: none; stroke: #b0b0b0; stroke-width: 0.8; stroke-linecap: square"/>
     </g>
     <g id="line2d_22">
      <g>
       <use xlink:href="#m5aa858c4e3" x="36.465625" y="34.989017" style="stroke: #000000; stroke-width: 0.8"/>
      </g>
     </g>
     <g id="text_11">
      <!-- 1.0 -->
      <g transform="translate(13.5625 38.788236)scale(0.1 -0.1)">
       <use xlink:href="#DejaVuSans-31"/>
       <use xlink:href="#DejaVuSans-2e" x="63.623047"/>
       <use xlink:href="#DejaVuSans-30" x="95.410156"/>
      </g>
     </g>
    </g>
   </g>
   <g id="line2d_23">
    <path d="M 50.300336 138.911582 
L 60.942421 190.83913 
L 71.584506 200.229529 
L 82.226591 205.996742 
L 92.868676 210.249909 
L 103.510762 213.586977 
L 114.152847 217.83228 
L 124.794932 219.62836 
L 135.437017 222.414969 
L 146.079102 224.809687 
L 156.721188 227.003385 
L 167.363273 228.622663 
L 178.005358 230.229976 
L 188.647443 233.004894 
L 199.289528 233.75324 
L 209.931614 235.379004 
L 220.573699 237.085635 
L 231.215784 239.217524 
L 241.857869 240.435618 
L 252.499954 241.523753 
L 263.142039 242.221908 
L 273.784125 243.707887 
L 284.42621 244.606535 
L 295.068295 245.711256 
L 305.71038 247.028511 
L 316.352465 248.212576 
L 326.994551 249.717232 
" clip-path="url(#p67f7b82f71)" style="fill: none; stroke: #1f77b4; stroke-width: 1.5; stroke-linecap: square"/>
   </g>
   <g id="line2d_24">
    <path d="M 50.300336 93.796499 
L 60.942421 186.126081 
L 71.584506 198.607996 
L 82.226591 206.356807 
L 92.868676 213.232246 
L 103.510762 218.247802 
L 114.152847 222.184459 
L 124.794932 223.896464 
L 135.437017 228.309401 
L 146.079102 230.12211 
L 156.721188 234.005382 
L 167.363273 236.567065 
L 178.005358 238.781204 
L 188.647443 241.260577 
L 199.289528 242.596596 
" clip-path="url(#p67f7b82f71)" style="fill: none; stroke: #ff7f0e; stroke-width: 1.5; stroke-linecap: square"/>
   </g>
   <g id="line2d_25">
    <path d="M 50.300336 103.980177 
L 60.942421 184.0752 
L 71.584506 197.24028 
L 82.226591 206.166011 
L 92.868676 210.944628 
L 103.510762 216.878015 
L 114.152847 220.822585 
L 124.794932 224.651078 
L 135.437017 226.618779 
L 146.079102 230.360765 
L 156.721188 232.223177 
L 167.363273 234.806179 
L 178.005358 236.405886 
L 188.647443 239.607202 
L 199.289528 240.498333 
L 209.931614 243.586207 
L 220.573699 245.293656 
L 231.215784 246.87414 
L 241.857869 249.524473 
L 252.499954 249.906091 
L 263.142039 252.233216 
L 273.784125 253.534284 
L 284.42621 256.187853 
L 295.068295 257.319189 
L 305.71038 258.177629 
" clip-path="url(#p67f7b82f71)" style="fill: none; stroke: #2ca02c; stroke-width: 1.5; stroke-linecap: square"/>
   </g>
   <g id="line2d_26">
    <path d="M 50.300336 144.049128 
L 60.942421 189.750411 
L 71.584506 199.862068 
L 82.226591 203.840976 
L 92.868676 209.252983 
L 103.510762 213.61972 
L 114.152847 216.296884 
L 124.794932 217.894673 
L 135.437017 221.195606 
L 146.079102 223.42892 
L 156.721188 226.093305 
L 167.363273 228.751494 
L 178.005358 229.582979 
L 188.647443 231.256706 
L 199.289528 233.071332 
L 209.931614 234.643235 
L 220.573699 236.295643 
L 231.215784 236.970267 
L 241.857869 238.969587 
L 252.499954 239.734353 
L 263.142039 241.076858 
L 273.784125 241.402041 
" clip-path="url(#p67f7b82f71)" style="fill: none; stroke: #d62728; stroke-width: 1.5; stroke-linecap: square"/>
   </g>
   <g id="line2d_27">
    <path d="M 50.300336 33.54953 
L 60.942421 162.908449 
L 71.584506 180.472801 
L 82.226591 190.476938 
L 92.868676 198.139685 
L 103.510762 202.396309 
L 114.152847 206.791947 
L 124.794932 209.034067 
L 135.437017 211.051979 
L 146.079102 212.972143 
L 156.721188 216.373199 
L 167.363273 217.916886 
L 178.005358 219.608113 
" clip-path="url(#p67f7b82f71)" style="fill: none; stroke: #9467bd; stroke-width: 1.5; stroke-linecap: square"/>
   </g>
   <g id="patch_3">
    <path d="M 36.465625 269.409034 
L 36.465625 22.318125 
" style="fill: none; stroke: #000000; stroke-width: 0.8; stroke-linejoin: miter; stroke-linecap: square"/>
   </g>
   <g id="patch_4">
    <path d="M 340.829261 269.409034 
L 340.829261 22.318125 
" style="fill: none; stroke: #000000; stroke-width: 0.8; stroke-linejoin: miter; stroke-linecap: square"/>
   </g>
   <g id="patch_5">
    <path d="M 36.465625 269.409034 
L 340.829261 269.409034 
" style="fill: none; stroke: #000000; stroke-width: 0.8; stroke-linejoin: miter; stroke-linecap: square"/>
   </g>
   <g id="patch_6">
    <path d="M 36.465625 22.318125 
L 340.829261 22.318125 
" style="fill: none; stroke: #000000; stroke-width: 0.8; stroke-linejoin: miter; stroke-linecap: square"/>
   </g>
   <g id="text_12">
    <!-- Train loss -->
    <g transform="translate(160.758693 16.318125)scale(0.12 -0.12)">
     <defs>
      <path id="DejaVuSans-54" d="M -19 4666 
L 3928 4666 
L 3928 4134 
L 2272 4134 
L 2272 0 
L 1638 0 
L 1638 4134 
L -19 4134 
L -19 4666 
z
" transform="scale(0.015625)"/>
      <path id="DejaVuSans-72" d="M 2631 2963 
Q 2534 3019 2420 3045 
Q 2306 3072 2169 3072 
Q 1681 3072 1420 2755 
Q 1159 2438 1159 1844 
L 1159 0 
L 581 0 
L 581 3500 
L 1159 3500 
L 1159 2956 
Q 1341 3275 1631 3429 
Q 1922 3584 2338 3584 
Q 2397 3584 2469 3576 
Q 2541 3569 2628 3553 
L 2631 2963 
z
" transform="scale(0.015625)"/>
      <path id="DejaVuSans-61" d="M 2194 1759 
Q 1497 1759 1228 1600 
Q 959 1441 959 1056 
Q 959 750 1161 570 
Q 1363 391 1709 391 
Q 2188 391 2477 730 
Q 2766 1069 2766 1631 
L 2766 1759 
L 2194 1759 
z
M 3341 1997 
L 3341 0 
L 2766 0 
L 2766 531 
Q 2569 213 2275 61 
Q 1981 -91 1556 -91 
Q 1019 -91 701 211 
Q 384 513 384 1019 
Q 384 1609 779 1909 
Q 1175 2209 1959 2209 
L 2766 2209 
L 2766 2266 
Q 2766 2663 2505 2880 
Q 2244 3097 1772 3097 
Q 1472 3097 1187 3025 
Q 903 2953 641 2809 
L 641 3341 
Q 956 3463 1253 3523 
Q 1550 3584 1831 3584 
Q 2591 3584 2966 3190 
Q 3341 2797 3341 1997 
z
" transform="scale(0.015625)"/>
      <path id="DejaVuSans-69" d="M 603 3500 
L 1178 3500 
L 1178 0 
L 603 0 
L 603 3500 
z
M 603 4863 
L 1178 4863 
L 1178 4134 
L 603 4134 
L 603 4863 
z
" transform="scale(0.015625)"/>
      <path id="DejaVuSans-6e" d="M 3513 2113 
L 3513 0 
L 2938 0 
L 2938 2094 
Q 2938 2591 2744 2837 
Q 2550 3084 2163 3084 
Q 1697 3084 1428 2787 
Q 1159 2491 1159 1978 
L 1159 0 
L 581 0 
L 581 3500 
L 1159 3500 
L 1159 2956 
Q 1366 3272 1645 3428 
Q 1925 3584 2291 3584 
Q 2894 3584 3203 3211 
Q 3513 2838 3513 2113 
z
" transform="scale(0.015625)"/>
      <path id="DejaVuSans-20" transform="scale(0.015625)"/>
      <path id="DejaVuSans-6c" d="M 603 4863 
L 1178 4863 
L 1178 0 
L 603 0 
L 603 4863 
z
" transform="scale(0.015625)"/>
      <path id="DejaVuSans-6f" d="M 1959 3097 
Q 1497 3097 1228 2736 
Q 959 2375 959 1747 
Q 959 1119 1226 758 
Q 1494 397 1959 397 
Q 2419 397 2687 759 
Q 2956 1122 2956 1747 
Q 2956 2369 2687 2733 
Q 2419 3097 1959 3097 
z
M 1959 3584 
Q 2709 3584 3137 3096 
Q 3566 2609 3566 1747 
Q 3566 888 3137 398 
Q 2709 -91 1959 -91 
Q 1206 -91 779 398 
Q 353 888 353 1747 
Q 353 2609 779 3096 
Q 1206 3584 1959 3584 
z
" transform="scale(0.015625)"/>
      <path id="DejaVuSans-73" d="M 2834 3397 
L 2834 2853 
Q 2591 2978 2328 3040 
Q 2066 3103 1784 3103 
Q 1356 3103 1142 2972 
Q 928 2841 928 2578 
Q 928 2378 1081 2264 
Q 1234 2150 1697 2047 
L 1894 2003 
Q 2506 1872 2764 1633 
Q 3022 1394 3022 966 
Q 3022 478 2636 193 
Q 2250 -91 1575 -91 
Q 1294 -91 989 -36 
Q 684 19 347 128 
L 347 722 
Q 666 556 975 473 
Q 1284 391 1588 391 
Q 1994 391 2212 530 
Q 2431 669 2431 922 
Q 2431 1156 2273 1281 
Q 2116 1406 1581 1522 
L 1381 1569 
Q 847 1681 609 1914 
Q 372 2147 372 2553 
Q 372 3047 722 3315 
Q 1072 3584 1716 3584 
Q 2034 3584 2315 3537 
Q 2597 3491 2834 3397 
z
" transform="scale(0.015625)"/>
     </defs>
     <use xlink:href="#DejaVuSans-54"/>
     <use xlink:href="#DejaVuSans-72" x="46.333984"/>
     <use xlink:href="#DejaVuSans-61" x="87.447266"/>
     <use xlink:href="#DejaVuSans-69" x="148.726562"/>
     <use xlink:href="#DejaVuSans-6e" x="176.509766"/>
     <use xlink:href="#DejaVuSans-20" x="239.888672"/>
     <use xlink:href="#DejaVuSans-6c" x="271.675781"/>
     <use xlink:href="#DejaVuSans-6f" x="299.458984"/>
     <use xlink:href="#DejaVuSans-73" x="360.640625"/>
     <use xlink:href="#DejaVuSans-73" x="412.740234"/>
    </g>
   </g>
   <g id="legend_1">
    <g id="patch_7">
     <path d="M 256.268324 103.70875 
L 333.829261 103.70875 
Q 335.829261 103.70875 335.829261 101.70875 
L 335.829261 29.318125 
Q 335.829261 27.318125 333.829261 27.318125 
L 256.268324 27.318125 
Q 254.268324 27.318125 254.268324 29.318125 
L 254.268324 101.70875 
Q 254.268324 103.70875 256.268324 103.70875 
z
" style="fill: #ffffff; opacity: 0.8; stroke: #cccccc; stroke-linejoin: miter"/>
    </g>
    <g id="line2d_28">
     <path d="M 258.268324 35.416562 
L 268.268324 35.416562 
L 278.268324 35.416562 
" style="fill: none; stroke: #1f77b4; stroke-width: 1.5; stroke-linecap: square"/>
    </g>
    <g id="text_13">
     <!-- tanh -->
     <g transform="translate(286.268324 38.916562)scale(0.1 -0.1)">
      <defs>
       <path id="DejaVuSans-74" d="M 1172 4494 
L 1172 3500 
L 2356 3500 
L 2356 3053 
L 1172 3053 
L 1172 1153 
Q 1172 725 1289 603 
Q 1406 481 1766 481 
L 2356 481 
L 2356 0 
L 1766 0 
Q 1100 0 847 248 
Q 594 497 594 1153 
L 594 3053 
L 172 3053 
L 172 3500 
L 594 3500 
L 594 4494 
L 1172 4494 
z
" transform="scale(0.015625)"/>
       <path id="DejaVuSans-68" d="M 3513 2113 
L 3513 0 
L 2938 0 
L 2938 2094 
Q 2938 2591 2744 2837 
Q 2550 3084 2163 3084 
Q 1697 3084 1428 2787 
Q 1159 2491 1159 1978 
L 1159 0 
L 581 0 
L 581 4863 
L 1159 4863 
L 1159 2956 
Q 1366 3272 1645 3428 
Q 1925 3584 2291 3584 
Q 2894 3584 3203 3211 
Q 3513 2838 3513 2113 
z
" transform="scale(0.015625)"/>
      </defs>
      <use xlink:href="#DejaVuSans-74"/>
      <use xlink:href="#DejaVuSans-61" x="39.208984"/>
      <use xlink:href="#DejaVuSans-6e" x="100.488281"/>
      <use xlink:href="#DejaVuSans-68" x="163.867188"/>
     </g>
    </g>
    <g id="line2d_29">
     <path d="M 258.268324 50.094687 
L 268.268324 50.094687 
L 278.268324 50.094687 
" style="fill: none; stroke: #ff7f0e; stroke-width: 1.5; stroke-linecap: square"/>
    </g>
    <g id="text_14">
     <!-- relu -->
     <g transform="translate(286.268324 53.594687)scale(0.1 -0.1)">
      <defs>
       <path id="DejaVuSans-65" d="M 3597 1894 
L 3597 1613 
L 953 1613 
Q 991 1019 1311 708 
Q 1631 397 2203 397 
Q 2534 397 2845 478 
Q 3156 559 3463 722 
L 3463 178 
Q 3153 47 2828 -22 
Q 2503 -91 2169 -91 
Q 1331 -91 842 396 
Q 353 884 353 1716 
Q 353 2575 817 3079 
Q 1281 3584 2069 3584 
Q 2775 3584 3186 3129 
Q 3597 2675 3597 1894 
z
M 3022 2063 
Q 3016 2534 2758 2815 
Q 2500 3097 2075 3097 
Q 1594 3097 1305 2825 
Q 1016 2553 972 2059 
L 3022 2063 
z
" transform="scale(0.015625)"/>
       <path id="DejaVuSans-75" d="M 544 1381 
L 544 3500 
L 1119 3500 
L 1119 1403 
Q 1119 906 1312 657 
Q 1506 409 1894 409 
Q 2359 409 2629 706 
Q 2900 1003 2900 1516 
L 2900 3500 
L 3475 3500 
L 3475 0 
L 2900 0 
L 2900 538 
Q 2691 219 2414 64 
Q 2138 -91 1772 -91 
Q 1169 -91 856 284 
Q 544 659 544 1381 
z
M 1991 3584 
L 1991 3584 
z
" transform="scale(0.015625)"/>
      </defs>
      <use xlink:href="#DejaVuSans-72"/>
      <use xlink:href="#DejaVuSans-65" x="38.863281"/>
      <use xlink:href="#DejaVuSans-6c" x="100.386719"/>
      <use xlink:href="#DejaVuSans-75" x="128.169922"/>
     </g>
    </g>
    <g id="line2d_30">
     <path d="M 258.268324 64.772812 
L 268.268324 64.772812 
L 278.268324 64.772812 
" style="fill: none; stroke: #2ca02c; stroke-width: 1.5; stroke-linecap: square"/>
    </g>
    <g id="text_15">
     <!-- leakyrelu -->
     <g transform="translate(286.268324 68.272812)scale(0.1 -0.1)">
      <defs>
       <path id="DejaVuSans-6b" d="M 581 4863 
L 1159 4863 
L 1159 1991 
L 2875 3500 
L 3609 3500 
L 1753 1863 
L 3688 0 
L 2938 0 
L 1159 1709 
L 1159 0 
L 581 0 
L 581 4863 
z
" transform="scale(0.015625)"/>
       <path id="DejaVuSans-79" d="M 2059 -325 
Q 1816 -950 1584 -1140 
Q 1353 -1331 966 -1331 
L 506 -1331 
L 506 -850 
L 844 -850 
Q 1081 -850 1212 -737 
Q 1344 -625 1503 -206 
L 1606 56 
L 191 3500 
L 800 3500 
L 1894 763 
L 2988 3500 
L 3597 3500 
L 2059 -325 
z
" transform="scale(0.015625)"/>
      </defs>
      <use xlink:href="#DejaVuSans-6c"/>
      <use xlink:href="#DejaVuSans-65" x="27.783203"/>
      <use xlink:href="#DejaVuSans-61" x="89.306641"/>
      <use xlink:href="#DejaVuSans-6b" x="150.585938"/>
      <use xlink:href="#DejaVuSans-79" x="204.871094"/>
      <use xlink:href="#DejaVuSans-72" x="264.050781"/>
      <use xlink:href="#DejaVuSans-65" x="302.914062"/>
      <use xlink:href="#DejaVuSans-6c" x="364.4375"/>
      <use xlink:href="#DejaVuSans-75" x="392.220703"/>
     </g>
    </g>
    <g id="line2d_31">
     <path d="M 258.268324 79.450937 
L 268.268324 79.450937 
L 278.268324 79.450937 
" style="fill: none; stroke: #d62728; stroke-width: 1.5; stroke-linecap: square"/>
    </g>
    <g id="text_16">
     <!-- elu -->
     <g transform="translate(286.268324 82.950937)scale(0.1 -0.1)">
      <use xlink:href="#DejaVuSans-65"/>
      <use xlink:href="#DejaVuSans-6c" x="61.523438"/>
      <use xlink:href="#DejaVuSans-75" x="89.306641"/>
     </g>
    </g>
    <g id="line2d_32">
     <path d="M 258.268324 94.129062 
L 268.268324 94.129062 
L 278.268324 94.129062 
" style="fill: none; stroke: #9467bd; stroke-width: 1.5; stroke-linecap: square"/>
    </g>
    <g id="text_17">
     <!-- swish -->
     <g transform="translate(286.268324 97.629062)scale(0.1 -0.1)">
      <defs>
       <path id="DejaVuSans-77" d="M 269 3500 
L 844 3500 
L 1563 769 
L 2278 3500 
L 2956 3500 
L 3675 769 
L 4391 3500 
L 4966 3500 
L 4050 0 
L 3372 0 
L 2619 2869 
L 1863 0 
L 1184 0 
L 269 3500 
z
" transform="scale(0.015625)"/>
      </defs>
      <use xlink:href="#DejaVuSans-73"/>
      <use xlink:href="#DejaVuSans-77" x="52.099609"/>
      <use xlink:href="#DejaVuSans-69" x="133.886719"/>
      <use xlink:href="#DejaVuSans-73" x="161.669922"/>
      <use xlink:href="#DejaVuSans-68" x="213.769531"/>
     </g>
    </g>
   </g>
  </g>
  <g id="axes_2">
   <g id="patch_8">
    <path d="M 401.701989 269.409034 
L 706.065625 269.409034 
L 706.065625 22.318125 
L 401.701989 22.318125 
z
" style="fill: #ffffff"/>
   </g>
   <g id="matplotlib.axis_3">
    <g id="xtick_7">
     <g id="line2d_33">
      <path d="M 415.536699 269.409034 
L 415.536699 22.318125 
" clip-path="url(#p45dce829f3)" style="fill: none; stroke: #b0b0b0; stroke-width: 0.8; stroke-linecap: square"/>
     </g>
     <g id="line2d_34">
      <g>
       <use xlink:href="#mdf15727279" x="415.536699" y="269.409034" style="stroke: #000000; stroke-width: 0.8"/>
      </g>
     </g>
     <g id="text_18">
      <!-- 0 -->
      <g transform="translate(412.355449 284.007472)scale(0.1 -0.1)">
       <use xlink:href="#DejaVuSans-30"/>
      </g>
     </g>
    </g>
    <g id="xtick_8">
     <g id="line2d_35">
      <path d="M 468.747125 269.409034 
L 468.747125 22.318125 
" clip-path="url(#p45dce829f3)" style="fill: none; stroke: #b0b0b0; stroke-width: 0.8; stroke-linecap: square"/>
     </g>
     <g id="line2d_36">
      <g>
       <use xlink:href="#mdf15727279" x="468.747125" y="269.409034" style="stroke: #000000; stroke-width: 0.8"/>
      </g>
     </g>
     <g id="text_19">
      <!-- 5 -->
      <g transform="translate(465.565875 284.007472)scale(0.1 -0.1)">
       <use xlink:href="#DejaVuSans-35"/>
      </g>
     </g>
    </g>
    <g id="xtick_9">
     <g id="line2d_37">
      <path d="M 521.957551 269.409034 
L 521.957551 22.318125 
" clip-path="url(#p45dce829f3)" style="fill: none; stroke: #b0b0b0; stroke-width: 0.8; stroke-linecap: square"/>
     </g>
     <g id="line2d_38">
      <g>
       <use xlink:href="#mdf15727279" x="521.957551" y="269.409034" style="stroke: #000000; stroke-width: 0.8"/>
      </g>
     </g>
     <g id="text_20">
      <!-- 10 -->
      <g transform="translate(515.595051 284.007472)scale(0.1 -0.1)">
       <use xlink:href="#DejaVuSans-31"/>
       <use xlink:href="#DejaVuSans-30" x="63.623047"/>
      </g>
     </g>
    </g>
    <g id="xtick_10">
     <g id="line2d_39">
      <path d="M 575.167977 269.409034 
L 575.167977 22.318125 
" clip-path="url(#p45dce829f3)" style="fill: none; stroke: #b0b0b0; stroke-width: 0.8; stroke-linecap: square"/>
     </g>
     <g id="line2d_40">
      <g>
       <use xlink:href="#mdf15727279" x="575.167977" y="269.409034" style="stroke: #000000; stroke-width: 0.8"/>
      </g>
     </g>
     <g id="text_21">
      <!-- 15 -->
      <g transform="translate(568.805477 284.007472)scale(0.1 -0.1)">
       <use xlink:href="#DejaVuSans-31"/>
       <use xlink:href="#DejaVuSans-35" x="63.623047"/>
      </g>
     </g>
    </g>
    <g id="xtick_11">
     <g id="line2d_41">
      <path d="M 628.378403 269.409034 
L 628.378403 22.318125 
" clip-path="url(#p45dce829f3)" style="fill: none; stroke: #b0b0b0; stroke-width: 0.8; stroke-linecap: square"/>
     </g>
     <g id="line2d_42">
      <g>
       <use xlink:href="#mdf15727279" x="628.378403" y="269.409034" style="stroke: #000000; stroke-width: 0.8"/>
      </g>
     </g>
     <g id="text_22">
      <!-- 20 -->
      <g transform="translate(622.015903 284.007472)scale(0.1 -0.1)">
       <use xlink:href="#DejaVuSans-32"/>
       <use xlink:href="#DejaVuSans-30" x="63.623047"/>
      </g>
     </g>
    </g>
    <g id="xtick_12">
     <g id="line2d_43">
      <path d="M 681.588829 269.409034 
L 681.588829 22.318125 
" clip-path="url(#p45dce829f3)" style="fill: none; stroke: #b0b0b0; stroke-width: 0.8; stroke-linecap: square"/>
     </g>
     <g id="line2d_44">
      <g>
       <use xlink:href="#mdf15727279" x="681.588829" y="269.409034" style="stroke: #000000; stroke-width: 0.8"/>
      </g>
     </g>
     <g id="text_23">
      <!-- 25 -->
      <g transform="translate(675.226329 284.007472)scale(0.1 -0.1)">
       <use xlink:href="#DejaVuSans-32"/>
       <use xlink:href="#DejaVuSans-35" x="63.623047"/>
      </g>
     </g>
    </g>
   </g>
   <g id="matplotlib.axis_4">
    <g id="ytick_6">
     <g id="line2d_45">
      <path d="M 401.701989 268.36297 
L 706.065625 268.36297 
" clip-path="url(#p45dce829f3)" style="fill: none; stroke: #b0b0b0; stroke-width: 0.8; stroke-linecap: square"/>
     </g>
     <g id="line2d_46">
      <g>
       <use xlink:href="#m5aa858c4e3" x="401.701989" y="268.36297" style="stroke: #000000; stroke-width: 0.8"/>
      </g>
     </g>
     <g id="text_24">
      <!-- 0.65 -->
      <g transform="translate(372.436364 272.162189)scale(0.1 -0.1)">
       <use xlink:href="#DejaVuSans-30"/>
       <use xlink:href="#DejaVuSans-2e" x="63.623047"/>
       <use xlink:href="#DejaVuSans-36" x="95.410156"/>
       <use xlink:href="#DejaVuSans-35" x="159.033203"/>
      </g>
     </g>
    </g>
    <g id="ytick_7">
     <g id="line2d_47">
      <path d="M 401.701989 227.270552 
L 706.065625 227.270552 
" clip-path="url(#p45dce829f3)" style="fill: none; stroke: #b0b0b0; stroke-width: 0.8; stroke-linecap: square"/>
     </g>
     <g id="line2d_48">
      <g>
       <use xlink:href="#m5aa858c4e3" x="401.701989" y="227.270552" style="stroke: #000000; stroke-width: 0.8"/>
      </g>
     </g>
     <g id="text_25">
      <!-- 0.70 -->
      <g transform="translate(372.436364 231.069771)scale(0.1 -0.1)">
       <defs>
        <path id="DejaVuSans-37" d="M 525 4666 
L 3525 4666 
L 3525 4397 
L 1831 0 
L 1172 0 
L 2766 4134 
L 525 4134 
L 525 4666 
z
" transform="scale(0.015625)"/>
       </defs>
       <use xlink:href="#DejaVuSans-30"/>
       <use xlink:href="#DejaVuSans-2e" x="63.623047"/>
       <use xlink:href="#DejaVuSans-37" x="95.410156"/>
       <use xlink:href="#DejaVuSans-30" x="159.033203"/>
      </g>
     </g>
    </g>
    <g id="ytick_8">
     <g id="line2d_49">
      <path d="M 401.701989 186.178134 
L 706.065625 186.178134 
" clip-path="url(#p45dce829f3)" style="fill: none; stroke: #b0b0b0; stroke-width: 0.8; stroke-linecap: square"/>
     </g>
     <g id="line2d_50">
      <g>
       <use xlink:href="#m5aa858c4e3" x="401.701989" y="186.178134" style="stroke: #000000; stroke-width: 0.8"/>
      </g>
     </g>
     <g id="text_26">
      <!-- 0.75 -->
      <g transform="translate(372.436364 189.977353)scale(0.1 -0.1)">
       <use xlink:href="#DejaVuSans-30"/>
       <use xlink:href="#DejaVuSans-2e" x="63.623047"/>
       <use xlink:href="#DejaVuSans-37" x="95.410156"/>
       <use xlink:href="#DejaVuSans-35" x="159.033203"/>
      </g>
     </g>
    </g>
    <g id="ytick_9">
     <g id="line2d_51">
      <path d="M 401.701989 145.085716 
L 706.065625 145.085716 
" clip-path="url(#p45dce829f3)" style="fill: none; stroke: #b0b0b0; stroke-width: 0.8; stroke-linecap: square"/>
     </g>
     <g id="line2d_52">
      <g>
       <use xlink:href="#m5aa858c4e3" x="401.701989" y="145.085716" style="stroke: #000000; stroke-width: 0.8"/>
      </g>
     </g>
     <g id="text_27">
      <!-- 0.80 -->
      <g transform="translate(372.436364 148.884935)scale(0.1 -0.1)">
       <use xlink:href="#DejaVuSans-30"/>
       <use xlink:href="#DejaVuSans-2e" x="63.623047"/>
       <use xlink:href="#DejaVuSans-38" x="95.410156"/>
       <use xlink:href="#DejaVuSans-30" x="159.033203"/>
      </g>
     </g>
    </g>
    <g id="ytick_10">
     <g id="line2d_53">
      <path d="M 401.701989 103.993299 
L 706.065625 103.993299 
" clip-path="url(#p45dce829f3)" style="fill: none; stroke: #b0b0b0; stroke-width: 0.8; stroke-linecap: square"/>
     </g>
     <g id="line2d_54">
      <g>
       <use xlink:href="#m5aa858c4e3" x="401.701989" y="103.993299" style="stroke: #000000; stroke-width: 0.8"/>
      </g>
     </g>
     <g id="text_28">
      <!-- 0.85 -->
      <g transform="translate(372.436364 107.792517)scale(0.1 -0.1)">
       <use xlink:href="#DejaVuSans-30"/>
       <use xlink:href="#DejaVuSans-2e" x="63.623047"/>
       <use xlink:href="#DejaVuSans-38" x="95.410156"/>
       <use xlink:href="#DejaVuSans-35" x="159.033203"/>
      </g>
     </g>
    </g>
    <g id="ytick_11">
     <g id="line2d_55">
      <path d="M 401.701989 62.900881 
L 706.065625 62.900881 
" clip-path="url(#p45dce829f3)" style="fill: none; stroke: #b0b0b0; stroke-width: 0.8; stroke-linecap: square"/>
     </g>
     <g id="line2d_56">
      <g>
       <use xlink:href="#m5aa858c4e3" x="401.701989" y="62.900881" style="stroke: #000000; stroke-width: 0.8"/>
      </g>
     </g>
     <g id="text_29">
      <!-- 0.90 -->
      <g transform="translate(372.436364 66.700099)scale(0.1 -0.1)">
       <defs>
        <path id="DejaVuSans-39" d="M 703 97 
L 703 672 
Q 941 559 1184 500 
Q 1428 441 1663 441 
Q 2288 441 2617 861 
Q 2947 1281 2994 2138 
Q 2813 1869 2534 1725 
Q 2256 1581 1919 1581 
Q 1219 1581 811 2004 
Q 403 2428 403 3163 
Q 403 3881 828 4315 
Q 1253 4750 1959 4750 
Q 2769 4750 3195 4129 
Q 3622 3509 3622 2328 
Q 3622 1225 3098 567 
Q 2575 -91 1691 -91 
Q 1453 -91 1209 -44 
Q 966 3 703 97 
z
M 1959 2075 
Q 2384 2075 2632 2365 
Q 2881 2656 2881 3163 
Q 2881 3666 2632 3958 
Q 2384 4250 1959 4250 
Q 1534 4250 1286 3958 
Q 1038 3666 1038 3163 
Q 1038 2656 1286 2365 
Q 1534 2075 1959 2075 
z
" transform="scale(0.015625)"/>
       </defs>
       <use xlink:href="#DejaVuSans-30"/>
       <use xlink:href="#DejaVuSans-2e" x="63.623047"/>
       <use xlink:href="#DejaVuSans-39" x="95.410156"/>
       <use xlink:href="#DejaVuSans-30" x="159.033203"/>
      </g>
     </g>
    </g>
   </g>
   <g id="line2d_57">
    <path d="M 415.536699 159.905386 
L 426.178785 106.056666 
L 436.82087 95.94547 
L 447.462955 89.18178 
L 458.10504 85.88909 
L 468.747125 82.020226 
L 479.389211 77.190992 
L 490.031296 75.03703 
L 500.673381 72.924264 
L 511.315466 69.151413 
L 521.957551 67.518808 
L 532.599636 66.270352 
L 543.241722 64.198686 
L 553.883807 61.482266 
L 564.525892 60.823748 
L 575.167977 58.916723 
L 585.810062 56.817674 
L 596.452148 54.416773 
L 607.094233 53.113403 
L 617.736318 52.482317 
L 628.378403 50.890861 
L 639.020488 50.300922 
L 649.662574 47.968602 
L 660.304659 47.063145 
L 670.946744 45.787256 
L 681.588829 44.442738 
L 692.230914 42.096702 
" clip-path="url(#p45dce829f3)" style="fill: none; stroke: #1f77b4; stroke-width: 1.5; stroke-linecap: square"/>
   </g>
   <g id="line2d_58">
    <path d="M 415.536699 199.678034 
L 426.178785 108.484999 
L 436.82087 94.861607 
L 447.462955 87.80983 
L 458.10504 81.649794 
L 468.747125 77.492844 
L 479.389211 72.581265 
L 490.031296 71.319092 
L 500.673381 65.817574 
L 511.315466 64.404476 
L 521.957551 61.441118 
L 532.599636 56.694181 
L 543.241722 54.84207 
L 553.883807 52.180466 
L 564.525892 51.014354 
" clip-path="url(#p45dce829f3)" style="fill: none; stroke: #ff7f0e; stroke-width: 1.5; stroke-linecap: square"/>
   </g>
   <g id="line2d_59">
    <path d="M 415.536699 187.316814 
L 426.178785 111.215184 
L 436.82087 98.030803 
L 447.462955 88.701571 
L 458.10504 84.215337 
L 468.747125 77.945572 
L 479.389211 73.980647 
L 490.031296 69.549277 
L 500.673381 68.588907 
L 511.315466 64.239883 
L 521.957551 62.42892 
L 532.599636 59.040217 
L 543.241722 57.983786 
L 553.883807 53.236897 
L 564.525892 53.387774 
L 575.167977 50.643922 
L 585.810062 48.339034 
L 596.452148 46.157639 
L 607.094233 43.372639 
L 617.736318 42.521998 
L 628.378403 39.160776 
L 639.020488 38.104344 
L 649.662574 35.442789 
L 660.304659 34.317777 
L 670.946744 33.54953 
" clip-path="url(#p45dce829f3)" style="fill: none; stroke: #2ca02c; stroke-width: 1.5; stroke-linecap: square"/>
   </g>
   <g id="line2d_60">
    <path d="M 415.536699 155.789584 
L 426.178785 106.45453 
L 436.82087 96.672569 
L 447.462955 92.30978 
L 458.10504 85.998867 
L 468.747125 82.322078 
L 479.389211 79.194029 
L 490.031296 78.151362 
L 500.673381 74.570585 
L 511.315466 72.087388 
L 521.957551 68.451746 
L 532.599636 65.748994 
L 543.241722 65.104192 
L 553.883807 62.813019 
L 564.525892 61.098118 
L 575.167977 60.247526 
L 585.810062 57.544773 
L 596.452148 57.201773 
L 607.094233 54.97923 
L 617.736318 54.29328 
L 628.378403 52.839033 
L 639.020488 51.563095 
" clip-path="url(#p45dce829f3)" style="fill: none; stroke: #d62728; stroke-width: 1.5; stroke-linecap: square"/>
   </g>
   <g id="line2d_61">
    <path d="M 415.536699 258.177629 
L 426.178785 132.343082 
L 436.82087 114.013949 
L 447.462955 106.084099 
L 458.10504 98.373803 
L 468.747125 94.011014 
L 479.389211 89.977508 
L 490.031296 86.753447 
L 500.673381 86.328151 
L 511.315466 83.735176 
L 521.957551 79.989757 
L 532.599636 78.32972 
L 543.241722 76.107177 
" clip-path="url(#p45dce829f3)" style="fill: none; stroke: #9467bd; stroke-width: 1.5; stroke-linecap: square"/>
   </g>
   <g id="patch_9">
    <path d="M 401.701989 269.409034 
L 401.701989 22.318125 
" style="fill: none; stroke: #000000; stroke-width: 0.8; stroke-linejoin: miter; stroke-linecap: square"/>
   </g>
   <g id="patch_10">
    <path d="M 706.065625 269.409034 
L 706.065625 22.318125 
" style="fill: none; stroke: #000000; stroke-width: 0.8; stroke-linejoin: miter; stroke-linecap: square"/>
   </g>
   <g id="patch_11">
    <path d="M 401.701989 269.409034 
L 706.065625 269.409034 
" style="fill: none; stroke: #000000; stroke-width: 0.8; stroke-linejoin: miter; stroke-linecap: square"/>
   </g>
   <g id="patch_12">
    <path d="M 401.701989 22.318125 
L 706.065625 22.318125 
" style="fill: none; stroke: #000000; stroke-width: 0.8; stroke-linejoin: miter; stroke-linecap: square"/>
   </g>
   <g id="text_30">
    <!-- Train accuracy -->
    <g transform="translate(510.513182 16.318125)scale(0.12 -0.12)">
     <defs>
      <path id="DejaVuSans-63" d="M 3122 3366 
L 3122 2828 
Q 2878 2963 2633 3030 
Q 2388 3097 2138 3097 
Q 1578 3097 1268 2742 
Q 959 2388 959 1747 
Q 959 1106 1268 751 
Q 1578 397 2138 397 
Q 2388 397 2633 464 
Q 2878 531 3122 666 
L 3122 134 
Q 2881 22 2623 -34 
Q 2366 -91 2075 -91 
Q 1284 -91 818 406 
Q 353 903 353 1747 
Q 353 2603 823 3093 
Q 1294 3584 2113 3584 
Q 2378 3584 2631 3529 
Q 2884 3475 3122 3366 
z
" transform="scale(0.015625)"/>
     </defs>
     <use xlink:href="#DejaVuSans-54"/>
     <use xlink:href="#DejaVuSans-72" x="46.333984"/>
     <use xlink:href="#DejaVuSans-61" x="87.447266"/>
     <use xlink:href="#DejaVuSans-69" x="148.726562"/>
     <use xlink:href="#DejaVuSans-6e" x="176.509766"/>
     <use xlink:href="#DejaVuSans-20" x="239.888672"/>
     <use xlink:href="#DejaVuSans-61" x="271.675781"/>
     <use xlink:href="#DejaVuSans-63" x="332.955078"/>
     <use xlink:href="#DejaVuSans-63" x="387.935547"/>
     <use xlink:href="#DejaVuSans-75" x="442.916016"/>
     <use xlink:href="#DejaVuSans-72" x="506.294922"/>
     <use xlink:href="#DejaVuSans-61" x="547.408203"/>
     <use xlink:href="#DejaVuSans-63" x="608.6875"/>
     <use xlink:href="#DejaVuSans-79" x="663.667969"/>
    </g>
   </g>
   <g id="legend_2">
    <g id="patch_13">
     <path d="M 621.504687 264.409034 
L 699.065625 264.409034 
Q 701.065625 264.409034 701.065625 262.409034 
L 701.065625 190.018409 
Q 701.065625 188.018409 699.065625 188.018409 
L 621.504687 188.018409 
Q 619.504687 188.018409 619.504687 190.018409 
L 619.504687 262.409034 
Q 619.504687 264.409034 621.504687 264.409034 
z
" style="fill: #ffffff; opacity: 0.8; stroke: #cccccc; stroke-linejoin: miter"/>
    </g>
    <g id="line2d_62">
     <path d="M 623.504687 196.116847 
L 633.504687 196.116847 
L 643.504687 196.116847 
" style="fill: none; stroke: #1f77b4; stroke-width: 1.5; stroke-linecap: square"/>
    </g>
    <g id="text_31">
     <!-- tanh -->
     <g transform="translate(651.504687 199.616847)scale(0.1 -0.1)">
      <use xlink:href="#DejaVuSans-74"/>
      <use xlink:href="#DejaVuSans-61" x="39.208984"/>
      <use xlink:href="#DejaVuSans-6e" x="100.488281"/>
      <use xlink:href="#DejaVuSans-68" x="163.867188"/>
     </g>
    </g>
    <g id="line2d_63">
     <path d="M 623.504687 210.794972 
L 633.504687 210.794972 
L 643.504687 210.794972 
" style="fill: none; stroke: #ff7f0e; stroke-width: 1.5; stroke-linecap: square"/>
    </g>
    <g id="text_32">
     <!-- relu -->
     <g transform="translate(651.504687 214.294972)scale(0.1 -0.1)">
      <use xlink:href="#DejaVuSans-72"/>
      <use xlink:href="#DejaVuSans-65" x="38.863281"/>
      <use xlink:href="#DejaVuSans-6c" x="100.386719"/>
      <use xlink:href="#DejaVuSans-75" x="128.169922"/>
     </g>
    </g>
    <g id="line2d_64">
     <path d="M 623.504687 225.473097 
L 633.504687 225.473097 
L 643.504687 225.473097 
" style="fill: none; stroke: #2ca02c; stroke-width: 1.5; stroke-linecap: square"/>
    </g>
    <g id="text_33">
     <!-- leakyrelu -->
     <g transform="translate(651.504687 228.973097)scale(0.1 -0.1)">
      <use xlink:href="#DejaVuSans-6c"/>
      <use xlink:href="#DejaVuSans-65" x="27.783203"/>
      <use xlink:href="#DejaVuSans-61" x="89.306641"/>
      <use xlink:href="#DejaVuSans-6b" x="150.585938"/>
      <use xlink:href="#DejaVuSans-79" x="204.871094"/>
      <use xlink:href="#DejaVuSans-72" x="264.050781"/>
      <use xlink:href="#DejaVuSans-65" x="302.914062"/>
      <use xlink:href="#DejaVuSans-6c" x="364.4375"/>
      <use xlink:href="#DejaVuSans-75" x="392.220703"/>
     </g>
    </g>
    <g id="line2d_65">
     <path d="M 623.504687 240.151222 
L 633.504687 240.151222 
L 643.504687 240.151222 
" style="fill: none; stroke: #d62728; stroke-width: 1.5; stroke-linecap: square"/>
    </g>
    <g id="text_34">
     <!-- elu -->
     <g transform="translate(651.504687 243.651222)scale(0.1 -0.1)">
      <use xlink:href="#DejaVuSans-65"/>
      <use xlink:href="#DejaVuSans-6c" x="61.523438"/>
      <use xlink:href="#DejaVuSans-75" x="89.306641"/>
     </g>
    </g>
    <g id="line2d_66">
     <path d="M 623.504687 254.829347 
L 633.504687 254.829347 
L 643.504687 254.829347 
" style="fill: none; stroke: #9467bd; stroke-width: 1.5; stroke-linecap: square"/>
    </g>
    <g id="text_35">
     <!-- swish -->
     <g transform="translate(651.504687 258.329347)scale(0.1 -0.1)">
      <use xlink:href="#DejaVuSans-73"/>
      <use xlink:href="#DejaVuSans-77" x="52.099609"/>
      <use xlink:href="#DejaVuSans-69" x="133.886719"/>
      <use xlink:href="#DejaVuSans-73" x="161.669922"/>
      <use xlink:href="#DejaVuSans-68" x="213.769531"/>
     </g>
    </g>
   </g>
  </g>
  <g id="axes_3">
   <g id="patch_14">
    <path d="M 36.465625 565.918125 
L 340.829261 565.918125 
L 340.829261 318.827216 
L 36.465625 318.827216 
z
" style="fill: #ffffff"/>
   </g>
   <g id="matplotlib.axis_5">
    <g id="xtick_13">
     <g id="line2d_67">
      <path d="M 50.300336 565.918125 
L 50.300336 318.827216 
" clip-path="url(#pb8c2f5fe42)" style="fill: none; stroke: #b0b0b0; stroke-width: 0.8; stroke-linecap: square"/>
     </g>
     <g id="line2d_68">
      <g>
       <use xlink:href="#mdf15727279" x="50.300336" y="565.918125" style="stroke: #000000; stroke-width: 0.8"/>
      </g>
     </g>
     <g id="text_36">
      <!-- 0 -->
      <g transform="translate(47.119086 580.516562)scale(0.1 -0.1)">
       <use xlink:href="#DejaVuSans-30"/>
      </g>
     </g>
    </g>
    <g id="xtick_14">
     <g id="line2d_69">
      <path d="M 103.510762 565.918125 
L 103.510762 318.827216 
" clip-path="url(#pb8c2f5fe42)" style="fill: none; stroke: #b0b0b0; stroke-width: 0.8; stroke-linecap: square"/>
     </g>
     <g id="line2d_70">
      <g>
       <use xlink:href="#mdf15727279" x="103.510762" y="565.918125" style="stroke: #000000; stroke-width: 0.8"/>
      </g>
     </g>
     <g id="text_37">
      <!-- 5 -->
      <g transform="translate(100.329512 580.516562)scale(0.1 -0.1)">
       <use xlink:href="#DejaVuSans-35"/>
      </g>
     </g>
    </g>
    <g id="xtick_15">
     <g id="line2d_71">
      <path d="M 156.721188 565.918125 
L 156.721188 318.827216 
" clip-path="url(#pb8c2f5fe42)" style="fill: none; stroke: #b0b0b0; stroke-width: 0.8; stroke-linecap: square"/>
     </g>
     <g id="line2d_72">
      <g>
       <use xlink:href="#mdf15727279" x="156.721188" y="565.918125" style="stroke: #000000; stroke-width: 0.8"/>
      </g>
     </g>
     <g id="text_38">
      <!-- 10 -->
      <g transform="translate(150.358688 580.516562)scale(0.1 -0.1)">
       <use xlink:href="#DejaVuSans-31"/>
       <use xlink:href="#DejaVuSans-30" x="63.623047"/>
      </g>
     </g>
    </g>
    <g id="xtick_16">
     <g id="line2d_73">
      <path d="M 209.931614 565.918125 
L 209.931614 318.827216 
" clip-path="url(#pb8c2f5fe42)" style="fill: none; stroke: #b0b0b0; stroke-width: 0.8; stroke-linecap: square"/>
     </g>
     <g id="line2d_74">
      <g>
       <use xlink:href="#mdf15727279" x="209.931614" y="565.918125" style="stroke: #000000; stroke-width: 0.8"/>
      </g>
     </g>
     <g id="text_39">
      <!-- 15 -->
      <g transform="translate(203.569114 580.516562)scale(0.1 -0.1)">
       <use xlink:href="#DejaVuSans-31"/>
       <use xlink:href="#DejaVuSans-35" x="63.623047"/>
      </g>
     </g>
    </g>
    <g id="xtick_17">
     <g id="line2d_75">
      <path d="M 263.142039 565.918125 
L 263.142039 318.827216 
" clip-path="url(#pb8c2f5fe42)" style="fill: none; stroke: #b0b0b0; stroke-width: 0.8; stroke-linecap: square"/>
     </g>
     <g id="line2d_76">
      <g>
       <use xlink:href="#mdf15727279" x="263.142039" y="565.918125" style="stroke: #000000; stroke-width: 0.8"/>
      </g>
     </g>
     <g id="text_40">
      <!-- 20 -->
      <g transform="translate(256.779539 580.516562)scale(0.1 -0.1)">
       <use xlink:href="#DejaVuSans-32"/>
       <use xlink:href="#DejaVuSans-30" x="63.623047"/>
      </g>
     </g>
    </g>
    <g id="xtick_18">
     <g id="line2d_77">
      <path d="M 316.352465 565.918125 
L 316.352465 318.827216 
" clip-path="url(#pb8c2f5fe42)" style="fill: none; stroke: #b0b0b0; stroke-width: 0.8; stroke-linecap: square"/>
     </g>
     <g id="line2d_78">
      <g>
       <use xlink:href="#mdf15727279" x="316.352465" y="565.918125" style="stroke: #000000; stroke-width: 0.8"/>
      </g>
     </g>
     <g id="text_41">
      <!-- 25 -->
      <g transform="translate(309.989965 580.516562)scale(0.1 -0.1)">
       <use xlink:href="#DejaVuSans-32"/>
       <use xlink:href="#DejaVuSans-35" x="63.623047"/>
      </g>
     </g>
    </g>
   </g>
   <g id="matplotlib.axis_6">
    <g id="ytick_12">
     <g id="line2d_79">
      <path d="M 36.465625 544.495822 
L 340.829261 544.495822 
" clip-path="url(#pb8c2f5fe42)" style="fill: none; stroke: #b0b0b0; stroke-width: 0.8; stroke-linecap: square"/>
     </g>
     <g id="line2d_80">
      <g>
       <use xlink:href="#m5aa858c4e3" x="36.465625" y="544.495822" style="stroke: #000000; stroke-width: 0.8"/>
      </g>
     </g>
     <g id="text_42">
      <!-- 0.30 -->
      <g transform="translate(7.2 548.295041)scale(0.1 -0.1)">
       <defs>
        <path id="DejaVuSans-33" d="M 2597 2516 
Q 3050 2419 3304 2112 
Q 3559 1806 3559 1356 
Q 3559 666 3084 287 
Q 2609 -91 1734 -91 
Q 1441 -91 1130 -33 
Q 819 25 488 141 
L 488 750 
Q 750 597 1062 519 
Q 1375 441 1716 441 
Q 2309 441 2620 675 
Q 2931 909 2931 1356 
Q 2931 1769 2642 2001 
Q 2353 2234 1838 2234 
L 1294 2234 
L 1294 2753 
L 1863 2753 
Q 2328 2753 2575 2939 
Q 2822 3125 2822 3475 
Q 2822 3834 2567 4026 
Q 2313 4219 1838 4219 
Q 1578 4219 1281 4162 
Q 984 4106 628 3988 
L 628 4550 
Q 988 4650 1302 4700 
Q 1616 4750 1894 4750 
Q 2613 4750 3031 4423 
Q 3450 4097 3450 3541 
Q 3450 3153 3228 2886 
Q 3006 2619 2597 2516 
z
" transform="scale(0.015625)"/>
       </defs>
       <use xlink:href="#DejaVuSans-30"/>
       <use xlink:href="#DejaVuSans-2e" x="63.623047"/>
       <use xlink:href="#DejaVuSans-33" x="95.410156"/>
       <use xlink:href="#DejaVuSans-30" x="159.033203"/>
      </g>
     </g>
    </g>
    <g id="ytick_13">
     <g id="line2d_81">
      <path d="M 36.465625 503.014943 
L 340.829261 503.014943 
" clip-path="url(#pb8c2f5fe42)" style="fill: none; stroke: #b0b0b0; stroke-width: 0.8; stroke-linecap: square"/>
     </g>
     <g id="line2d_82">
      <g>
       <use xlink:href="#m5aa858c4e3" x="36.465625" y="503.014943" style="stroke: #000000; stroke-width: 0.8"/>
      </g>
     </g>
     <g id="text_43">
      <!-- 0.35 -->
      <g transform="translate(7.2 506.814161)scale(0.1 -0.1)">
       <use xlink:href="#DejaVuSans-30"/>
       <use xlink:href="#DejaVuSans-2e" x="63.623047"/>
       <use xlink:href="#DejaVuSans-33" x="95.410156"/>
       <use xlink:href="#DejaVuSans-35" x="159.033203"/>
      </g>
     </g>
    </g>
    <g id="ytick_14">
     <g id="line2d_83">
      <path d="M 36.465625 461.534063 
L 340.829261 461.534063 
" clip-path="url(#pb8c2f5fe42)" style="fill: none; stroke: #b0b0b0; stroke-width: 0.8; stroke-linecap: square"/>
     </g>
     <g id="line2d_84">
      <g>
       <use xlink:href="#m5aa858c4e3" x="36.465625" y="461.534063" style="stroke: #000000; stroke-width: 0.8"/>
      </g>
     </g>
     <g id="text_44">
      <!-- 0.40 -->
      <g transform="translate(7.2 465.333282)scale(0.1 -0.1)">
       <use xlink:href="#DejaVuSans-30"/>
       <use xlink:href="#DejaVuSans-2e" x="63.623047"/>
       <use xlink:href="#DejaVuSans-34" x="95.410156"/>
       <use xlink:href="#DejaVuSans-30" x="159.033203"/>
      </g>
     </g>
    </g>
    <g id="ytick_15">
     <g id="line2d_85">
      <path d="M 36.465625 420.053184 
L 340.829261 420.053184 
" clip-path="url(#pb8c2f5fe42)" style="fill: none; stroke: #b0b0b0; stroke-width: 0.8; stroke-linecap: square"/>
     </g>
     <g id="line2d_86">
      <g>
       <use xlink:href="#m5aa858c4e3" x="36.465625" y="420.053184" style="stroke: #000000; stroke-width: 0.8"/>
      </g>
     </g>
     <g id="text_45">
      <!-- 0.45 -->
      <g transform="translate(7.2 423.852402)scale(0.1 -0.1)">
       <use xlink:href="#DejaVuSans-30"/>
       <use xlink:href="#DejaVuSans-2e" x="63.623047"/>
       <use xlink:href="#DejaVuSans-34" x="95.410156"/>
       <use xlink:href="#DejaVuSans-35" x="159.033203"/>
      </g>
     </g>
    </g>
    <g id="ytick_16">
     <g id="line2d_87">
      <path d="M 36.465625 378.572304 
L 340.829261 378.572304 
" clip-path="url(#pb8c2f5fe42)" style="fill: none; stroke: #b0b0b0; stroke-width: 0.8; stroke-linecap: square"/>
     </g>
     <g id="line2d_88">
      <g>
       <use xlink:href="#m5aa858c4e3" x="36.465625" y="378.572304" style="stroke: #000000; stroke-width: 0.8"/>
      </g>
     </g>
     <g id="text_46">
      <!-- 0.50 -->
      <g transform="translate(7.2 382.371523)scale(0.1 -0.1)">
       <use xlink:href="#DejaVuSans-30"/>
       <use xlink:href="#DejaVuSans-2e" x="63.623047"/>
       <use xlink:href="#DejaVuSans-35" x="95.410156"/>
       <use xlink:href="#DejaVuSans-30" x="159.033203"/>
      </g>
     </g>
    </g>
    <g id="ytick_17">
     <g id="line2d_89">
      <path d="M 36.465625 337.091425 
L 340.829261 337.091425 
" clip-path="url(#pb8c2f5fe42)" style="fill: none; stroke: #b0b0b0; stroke-width: 0.8; stroke-linecap: square"/>
     </g>
     <g id="line2d_90">
      <g>
       <use xlink:href="#m5aa858c4e3" x="36.465625" y="337.091425" style="stroke: #000000; stroke-width: 0.8"/>
      </g>
     </g>
     <g id="text_47">
      <!-- 0.55 -->
      <g transform="translate(7.2 340.890643)scale(0.1 -0.1)">
       <use xlink:href="#DejaVuSans-30"/>
       <use xlink:href="#DejaVuSans-2e" x="63.623047"/>
       <use xlink:href="#DejaVuSans-35" x="95.410156"/>
       <use xlink:href="#DejaVuSans-35" x="159.033203"/>
      </g>
     </g>
    </g>
   </g>
   <g id="line2d_91">
    <path d="M 50.300336 410.200122 
L 60.942421 438.341014 
L 71.584506 438.104771 
L 82.226591 494.432989 
L 92.868676 490.485371 
L 103.510762 492.265439 
L 114.152847 485.619485 
L 124.794932 480.621248 
L 135.437017 518.312089 
L 146.079102 437.794726 
L 156.721188 510.505269 
L 167.363273 494.652098 
L 178.005358 520.043993 
L 188.647443 501.133757 
L 199.289528 498.074492 
L 209.931614 527.821119 
L 220.573699 533.339486 
L 231.215784 511.380171 
L 241.857869 546.873472 
L 252.499954 554.68672 
L 263.142039 506.522642 
L 273.784125 526.002753 
L 284.42621 540.441039 
L 295.068295 539.935026 
L 305.71038 519.531256 
L 316.352465 535.082837 
L 326.994551 525.301615 
" clip-path="url(#pb8c2f5fe42)" style="fill: none; stroke: #1f77b4; stroke-width: 1.5; stroke-linecap: square"/>
   </g>
   <g id="line2d_92">
    <path d="M 50.300336 381.654266 
L 60.942421 429.591522 
L 71.584506 475.422322 
L 82.226591 480.662958 
L 92.868676 488.979697 
L 103.510762 485.40856 
L 114.152847 484.362959 
L 124.794932 532.277221 
L 135.437017 497.737719 
L 146.079102 506.115676 
L 156.721188 532.014078 
L 167.363273 527.539507 
L 178.005358 508.181559 
L 188.647443 519.881948 
L 199.289528 526.637679 
" clip-path="url(#pb8c2f5fe42)" style="fill: none; stroke: #ff7f0e; stroke-width: 1.5; stroke-linecap: square"/>
   </g>
   <g id="line2d_93">
    <path d="M 50.300336 372.474147 
L 60.942421 419.465393 
L 71.584506 448.296347 
L 82.226591 497.566279 
L 92.868676 496.06822 
L 103.510762 479.43044 
L 114.152847 497.063679 
L 124.794932 500.70674 
L 135.437017 518.201966 
L 146.079102 500.763878 
L 156.721188 518.164484 
L 167.363273 515.826408 
L 178.005358 506.77634 
L 188.647443 519.234957 
L 199.289528 514.119699 
L 209.931614 517.48854 
L 220.573699 529.90112 
L 231.215784 538.692891 
L 241.857869 499.963471 
L 252.499954 511.861261 
L 263.142039 527.056661 
L 273.784125 514.371098 
L 284.42621 508.180372 
L 295.068295 507.460146 
L 305.71038 512.623321 
" clip-path="url(#pb8c2f5fe42)" style="fill: none; stroke: #2ca02c; stroke-width: 1.5; stroke-linecap: square"/>
   </g>
   <g id="line2d_94">
    <path d="M 50.300336 391.803043 
L 60.942421 418.301658 
L 71.584506 447.161219 
L 82.226591 475.451027 
L 92.868676 466.955085 
L 103.510762 466.627979 
L 114.152847 498.920986 
L 124.794932 486.439968 
L 135.437017 494.000779 
L 146.079102 504.178311 
L 156.721188 517.669202 
L 167.363273 482.249976 
L 178.005358 525.817122 
L 188.647443 507.481953 
L 199.289528 541.079896 
L 209.931614 503.651926 
L 220.573699 520.660474 
L 231.215784 513.608766 
L 241.857869 530.357238 
L 252.499954 509.066994 
L 263.142039 525.613095 
L 273.784125 488.244093 
" clip-path="url(#pb8c2f5fe42)" style="fill: none; stroke: #d62728; stroke-width: 1.5; stroke-linecap: square"/>
   </g>
   <g id="line2d_95">
    <path d="M 50.300336 330.058621 
L 60.942421 365.770239 
L 71.584506 395.545027 
L 82.226591 449.472171 
L 92.868676 430.479207 
L 103.510762 492.035748 
L 114.152847 466.563053 
L 124.794932 452.152162 
L 135.437017 486.984229 
L 146.079102 472.701387 
L 156.721188 489.172672 
L 167.363273 483.295478 
L 178.005358 457.367456 
" clip-path="url(#pb8c2f5fe42)" style="fill: none; stroke: #9467bd; stroke-width: 1.5; stroke-linecap: square"/>
   </g>
   <g id="patch_15">
    <path d="M 36.465625 565.918125 
L 36.465625 318.827216 
" style="fill: none; stroke: #000000; stroke-width: 0.8; stroke-linejoin: miter; stroke-linecap: square"/>
   </g>
   <g id="patch_16">
    <path d="M 340.829261 565.918125 
L 340.829261 318.827216 
" style="fill: none; stroke: #000000; stroke-width: 0.8; stroke-linejoin: miter; stroke-linecap: square"/>
   </g>
   <g id="patch_17">
    <path d="M 36.465625 565.918125 
L 340.829261 565.918125 
" style="fill: none; stroke: #000000; stroke-width: 0.8; stroke-linejoin: miter; stroke-linecap: square"/>
   </g>
   <g id="patch_18">
    <path d="M 36.465625 318.827216 
L 340.829261 318.827216 
" style="fill: none; stroke: #000000; stroke-width: 0.8; stroke-linejoin: miter; stroke-linecap: square"/>
   </g>
   <g id="text_48">
    <!-- Valid loss -->
    <g transform="translate(160.692131 312.827216)scale(0.12 -0.12)">
     <defs>
      <path id="DejaVuSans-56" d="M 1831 0 
L 50 4666 
L 709 4666 
L 2188 738 
L 3669 4666 
L 4325 4666 
L 2547 0 
L 1831 0 
z
" transform="scale(0.015625)"/>
      <path id="DejaVuSans-64" d="M 2906 2969 
L 2906 4863 
L 3481 4863 
L 3481 0 
L 2906 0 
L 2906 525 
Q 2725 213 2448 61 
Q 2172 -91 1784 -91 
Q 1150 -91 751 415 
Q 353 922 353 1747 
Q 353 2572 751 3078 
Q 1150 3584 1784 3584 
Q 2172 3584 2448 3432 
Q 2725 3281 2906 2969 
z
M 947 1747 
Q 947 1113 1208 752 
Q 1469 391 1925 391 
Q 2381 391 2643 752 
Q 2906 1113 2906 1747 
Q 2906 2381 2643 2742 
Q 2381 3103 1925 3103 
Q 1469 3103 1208 2742 
Q 947 2381 947 1747 
z
" transform="scale(0.015625)"/>
     </defs>
     <use xlink:href="#DejaVuSans-56"/>
     <use xlink:href="#DejaVuSans-61" x="60.658203"/>
     <use xlink:href="#DejaVuSans-6c" x="121.9375"/>
     <use xlink:href="#DejaVuSans-69" x="149.720703"/>
     <use xlink:href="#DejaVuSans-64" x="177.503906"/>
     <use xlink:href="#DejaVuSans-20" x="240.980469"/>
     <use xlink:href="#DejaVuSans-6c" x="272.767578"/>
     <use xlink:href="#DejaVuSans-6f" x="300.550781"/>
     <use xlink:href="#DejaVuSans-73" x="361.732422"/>
     <use xlink:href="#DejaVuSans-73" x="413.832031"/>
    </g>
   </g>
   <g id="legend_3">
    <g id="patch_19">
     <path d="M 256.268324 400.217841 
L 333.829261 400.217841 
Q 335.829261 400.217841 335.829261 398.217841 
L 335.829261 325.827216 
Q 335.829261 323.827216 333.829261 323.827216 
L 256.268324 323.827216 
Q 254.268324 323.827216 254.268324 325.827216 
L 254.268324 398.217841 
Q 254.268324 400.217841 256.268324 400.217841 
z
" style="fill: #ffffff; opacity: 0.8; stroke: #cccccc; stroke-linejoin: miter"/>
    </g>
    <g id="line2d_96">
     <path d="M 258.268324 331.925653 
L 268.268324 331.925653 
L 278.268324 331.925653 
" style="fill: none; stroke: #1f77b4; stroke-width: 1.5; stroke-linecap: square"/>
    </g>
    <g id="text_49">
     <!-- tanh -->
     <g transform="translate(286.268324 335.425653)scale(0.1 -0.1)">
      <use xlink:href="#DejaVuSans-74"/>
      <use xlink:href="#DejaVuSans-61" x="39.208984"/>
      <use xlink:href="#DejaVuSans-6e" x="100.488281"/>
      <use xlink:href="#DejaVuSans-68" x="163.867188"/>
     </g>
    </g>
    <g id="line2d_97">
     <path d="M 258.268324 346.603778 
L 268.268324 346.603778 
L 278.268324 346.603778 
" style="fill: none; stroke: #ff7f0e; stroke-width: 1.5; stroke-linecap: square"/>
    </g>
    <g id="text_50">
     <!-- relu -->
     <g transform="translate(286.268324 350.103778)scale(0.1 -0.1)">
      <use xlink:href="#DejaVuSans-72"/>
      <use xlink:href="#DejaVuSans-65" x="38.863281"/>
      <use xlink:href="#DejaVuSans-6c" x="100.386719"/>
      <use xlink:href="#DejaVuSans-75" x="128.169922"/>
     </g>
    </g>
    <g id="line2d_98">
     <path d="M 258.268324 361.281903 
L 268.268324 361.281903 
L 278.268324 361.281903 
" style="fill: none; stroke: #2ca02c; stroke-width: 1.5; stroke-linecap: square"/>
    </g>
    <g id="text_51">
     <!-- leakyrelu -->
     <g transform="translate(286.268324 364.781903)scale(0.1 -0.1)">
      <use xlink:href="#DejaVuSans-6c"/>
      <use xlink:href="#DejaVuSans-65" x="27.783203"/>
      <use xlink:href="#DejaVuSans-61" x="89.306641"/>
      <use xlink:href="#DejaVuSans-6b" x="150.585938"/>
      <use xlink:href="#DejaVuSans-79" x="204.871094"/>
      <use xlink:href="#DejaVuSans-72" x="264.050781"/>
      <use xlink:href="#DejaVuSans-65" x="302.914062"/>
      <use xlink:href="#DejaVuSans-6c" x="364.4375"/>
      <use xlink:href="#DejaVuSans-75" x="392.220703"/>
     </g>
    </g>
    <g id="line2d_99">
     <path d="M 258.268324 375.960028 
L 268.268324 375.960028 
L 278.268324 375.960028 
" style="fill: none; stroke: #d62728; stroke-width: 1.5; stroke-linecap: square"/>
    </g>
    <g id="text_52">
     <!-- elu -->
     <g transform="translate(286.268324 379.460028)scale(0.1 -0.1)">
      <use xlink:href="#DejaVuSans-65"/>
      <use xlink:href="#DejaVuSans-6c" x="61.523438"/>
      <use xlink:href="#DejaVuSans-75" x="89.306641"/>
     </g>
    </g>
    <g id="line2d_100">
     <path d="M 258.268324 390.638153 
L 268.268324 390.638153 
L 278.268324 390.638153 
" style="fill: none; stroke: #9467bd; stroke-width: 1.5; stroke-linecap: square"/>
    </g>
    <g id="text_53">
     <!-- swish -->
     <g transform="translate(286.268324 394.138153)scale(0.1 -0.1)">
      <use xlink:href="#DejaVuSans-73"/>
      <use xlink:href="#DejaVuSans-77" x="52.099609"/>
      <use xlink:href="#DejaVuSans-69" x="133.886719"/>
      <use xlink:href="#DejaVuSans-73" x="161.669922"/>
      <use xlink:href="#DejaVuSans-68" x="213.769531"/>
     </g>
    </g>
   </g>
  </g>
  <g id="axes_4">
   <g id="patch_20">
    <path d="M 401.701989 565.918125 
L 706.065625 565.918125 
L 706.065625 318.827216 
L 401.701989 318.827216 
z
" style="fill: #ffffff"/>
   </g>
   <g id="matplotlib.axis_7">
    <g id="xtick_19">
     <g id="line2d_101">
      <path d="M 415.536699 565.918125 
L 415.536699 318.827216 
" clip-path="url(#p46542bf366)" style="fill: none; stroke: #b0b0b0; stroke-width: 0.8; stroke-linecap: square"/>
     </g>
     <g id="line2d_102">
      <g>
       <use xlink:href="#mdf15727279" x="415.536699" y="565.918125" style="stroke: #000000; stroke-width: 0.8"/>
      </g>
     </g>
     <g id="text_54">
      <!-- 0 -->
      <g transform="translate(412.355449 580.516562)scale(0.1 -0.1)">
       <use xlink:href="#DejaVuSans-30"/>
      </g>
     </g>
    </g>
    <g id="xtick_20">
     <g id="line2d_103">
      <path d="M 468.747125 565.918125 
L 468.747125 318.827216 
" clip-path="url(#p46542bf366)" style="fill: none; stroke: #b0b0b0; stroke-width: 0.8; stroke-linecap: square"/>
     </g>
     <g id="line2d_104">
      <g>
       <use xlink:href="#mdf15727279" x="468.747125" y="565.918125" style="stroke: #000000; stroke-width: 0.8"/>
      </g>
     </g>
     <g id="text_55">
      <!-- 5 -->
      <g transform="translate(465.565875 580.516562)scale(0.1 -0.1)">
       <use xlink:href="#DejaVuSans-35"/>
      </g>
     </g>
    </g>
    <g id="xtick_21">
     <g id="line2d_105">
      <path d="M 521.957551 565.918125 
L 521.957551 318.827216 
" clip-path="url(#p46542bf366)" style="fill: none; stroke: #b0b0b0; stroke-width: 0.8; stroke-linecap: square"/>
     </g>
     <g id="line2d_106">
      <g>
       <use xlink:href="#mdf15727279" x="521.957551" y="565.918125" style="stroke: #000000; stroke-width: 0.8"/>
      </g>
     </g>
     <g id="text_56">
      <!-- 10 -->
      <g transform="translate(515.595051 580.516562)scale(0.1 -0.1)">
       <use xlink:href="#DejaVuSans-31"/>
       <use xlink:href="#DejaVuSans-30" x="63.623047"/>
      </g>
     </g>
    </g>
    <g id="xtick_22">
     <g id="line2d_107">
      <path d="M 575.167977 565.918125 
L 575.167977 318.827216 
" clip-path="url(#p46542bf366)" style="fill: none; stroke: #b0b0b0; stroke-width: 0.8; stroke-linecap: square"/>
     </g>
     <g id="line2d_108">
      <g>
       <use xlink:href="#mdf15727279" x="575.167977" y="565.918125" style="stroke: #000000; stroke-width: 0.8"/>
      </g>
     </g>
     <g id="text_57">
      <!-- 15 -->
      <g transform="translate(568.805477 580.516562)scale(0.1 -0.1)">
       <use xlink:href="#DejaVuSans-31"/>
       <use xlink:href="#DejaVuSans-35" x="63.623047"/>
      </g>
     </g>
    </g>
    <g id="xtick_23">
     <g id="line2d_109">
      <path d="M 628.378403 565.918125 
L 628.378403 318.827216 
" clip-path="url(#p46542bf366)" style="fill: none; stroke: #b0b0b0; stroke-width: 0.8; stroke-linecap: square"/>
     </g>
     <g id="line2d_110">
      <g>
       <use xlink:href="#mdf15727279" x="628.378403" y="565.918125" style="stroke: #000000; stroke-width: 0.8"/>
      </g>
     </g>
     <g id="text_58">
      <!-- 20 -->
      <g transform="translate(622.015903 580.516562)scale(0.1 -0.1)">
       <use xlink:href="#DejaVuSans-32"/>
       <use xlink:href="#DejaVuSans-30" x="63.623047"/>
      </g>
     </g>
    </g>
    <g id="xtick_24">
     <g id="line2d_111">
      <path d="M 681.588829 565.918125 
L 681.588829 318.827216 
" clip-path="url(#p46542bf366)" style="fill: none; stroke: #b0b0b0; stroke-width: 0.8; stroke-linecap: square"/>
     </g>
     <g id="line2d_112">
      <g>
       <use xlink:href="#mdf15727279" x="681.588829" y="565.918125" style="stroke: #000000; stroke-width: 0.8"/>
      </g>
     </g>
     <g id="text_59">
      <!-- 25 -->
      <g transform="translate(675.226329 580.516562)scale(0.1 -0.1)">
       <use xlink:href="#DejaVuSans-32"/>
       <use xlink:href="#DejaVuSans-35" x="63.623047"/>
      </g>
     </g>
    </g>
   </g>
   <g id="matplotlib.axis_8">
    <g id="ytick_18">
     <g id="line2d_113">
      <path d="M 401.701989 534.494876 
L 706.065625 534.494876 
" clip-path="url(#p46542bf366)" style="fill: none; stroke: #b0b0b0; stroke-width: 0.8; stroke-linecap: square"/>
     </g>
     <g id="line2d_114">
      <g>
       <use xlink:href="#m5aa858c4e3" x="401.701989" y="534.494876" style="stroke: #000000; stroke-width: 0.8"/>
      </g>
     </g>
     <g id="text_60">
      <!-- 0.82 -->
      <g transform="translate(372.436364 538.294094)scale(0.1 -0.1)">
       <use xlink:href="#DejaVuSans-30"/>
       <use xlink:href="#DejaVuSans-2e" x="63.623047"/>
       <use xlink:href="#DejaVuSans-38" x="95.410156"/>
       <use xlink:href="#DejaVuSans-32" x="159.033203"/>
      </g>
     </g>
    </g>
    <g id="ytick_19">
     <g id="line2d_115">
      <path d="M 401.701989 483.941211 
L 706.065625 483.941211 
" clip-path="url(#p46542bf366)" style="fill: none; stroke: #b0b0b0; stroke-width: 0.8; stroke-linecap: square"/>
     </g>
     <g id="line2d_116">
      <g>
       <use xlink:href="#m5aa858c4e3" x="401.701989" y="483.941211" style="stroke: #000000; stroke-width: 0.8"/>
      </g>
     </g>
     <g id="text_61">
      <!-- 0.84 -->
      <g transform="translate(372.436364 487.74043)scale(0.1 -0.1)">
       <use xlink:href="#DejaVuSans-30"/>
       <use xlink:href="#DejaVuSans-2e" x="63.623047"/>
       <use xlink:href="#DejaVuSans-38" x="95.410156"/>
       <use xlink:href="#DejaVuSans-34" x="159.033203"/>
      </g>
     </g>
    </g>
    <g id="ytick_20">
     <g id="line2d_117">
      <path d="M 401.701989 433.387546 
L 706.065625 433.387546 
" clip-path="url(#p46542bf366)" style="fill: none; stroke: #b0b0b0; stroke-width: 0.8; stroke-linecap: square"/>
     </g>
     <g id="line2d_118">
      <g>
       <use xlink:href="#m5aa858c4e3" x="401.701989" y="433.387546" style="stroke: #000000; stroke-width: 0.8"/>
      </g>
     </g>
     <g id="text_62">
      <!-- 0.86 -->
      <g transform="translate(372.436364 437.186765)scale(0.1 -0.1)">
       <use xlink:href="#DejaVuSans-30"/>
       <use xlink:href="#DejaVuSans-2e" x="63.623047"/>
       <use xlink:href="#DejaVuSans-38" x="95.410156"/>
       <use xlink:href="#DejaVuSans-36" x="159.033203"/>
      </g>
     </g>
    </g>
    <g id="ytick_21">
     <g id="line2d_119">
      <path d="M 401.701989 382.833882 
L 706.065625 382.833882 
" clip-path="url(#p46542bf366)" style="fill: none; stroke: #b0b0b0; stroke-width: 0.8; stroke-linecap: square"/>
     </g>
     <g id="line2d_120">
      <g>
       <use xlink:href="#m5aa858c4e3" x="401.701989" y="382.833882" style="stroke: #000000; stroke-width: 0.8"/>
      </g>
     </g>
     <g id="text_63">
      <!-- 0.88 -->
      <g transform="translate(372.436364 386.633101)scale(0.1 -0.1)">
       <use xlink:href="#DejaVuSans-30"/>
       <use xlink:href="#DejaVuSans-2e" x="63.623047"/>
       <use xlink:href="#DejaVuSans-38" x="95.410156"/>
       <use xlink:href="#DejaVuSans-38" x="159.033203"/>
      </g>
     </g>
    </g>
    <g id="ytick_22">
     <g id="line2d_121">
      <path d="M 401.701989 332.280217 
L 706.065625 332.280217 
" clip-path="url(#p46542bf366)" style="fill: none; stroke: #b0b0b0; stroke-width: 0.8; stroke-linecap: square"/>
     </g>
     <g id="line2d_122">
      <g>
       <use xlink:href="#m5aa858c4e3" x="401.701989" y="332.280217" style="stroke: #000000; stroke-width: 0.8"/>
      </g>
     </g>
     <g id="text_64">
      <!-- 0.90 -->
      <g transform="translate(372.436364 336.079436)scale(0.1 -0.1)">
       <use xlink:href="#DejaVuSans-30"/>
       <use xlink:href="#DejaVuSans-2e" x="63.623047"/>
       <use xlink:href="#DejaVuSans-39" x="95.410156"/>
       <use xlink:href="#DejaVuSans-30" x="159.033203"/>
      </g>
     </g>
    </g>
   </g>
   <g id="line2d_123">
    <path d="M 415.536699 506.552127 
L 426.178785 471.993958 
L 436.82087 471.993958 
L 447.462955 418.922484 
L 458.10504 418.922484 
L 468.747125 427.562027 
L 479.389211 418.922484 
L 490.031296 401.6434 
L 500.673381 381.895875 
L 511.315466 480.633501 
L 521.957551 399.174959 
L 532.599636 406.580281 
L 543.241722 370.787892 
L 553.883807 375.724773 
L 564.525892 395.472298 
L 575.167977 347.337705 
L 585.810062 358.445688 
L 596.452148 379.427434 
L 607.094233 330.058621 
L 617.736318 336.229722 
L 628.378403 369.553671 
L 639.020488 347.337705 
L 649.662574 331.292841 
L 660.304659 362.148349 
L 670.946744 360.914129 
L 681.588829 353.508807 
L 692.230914 341.166604 
" clip-path="url(#p46542bf366)" style="fill: none; stroke: #1f77b4; stroke-width: 1.5; stroke-linecap: square"/>
   </g>
   <g id="line2d_124">
    <path d="M 415.536699 539.876076 
L 426.178785 459.651755 
L 436.82087 432.498908 
L 447.462955 417.688264 
L 458.10504 426.327806 
L 468.747125 420.156705 
L 479.389211 426.327806 
L 490.031296 360.914129 
L 500.673381 407.814501 
L 511.315466 396.706518 
L 521.957551 378.193214 
L 532.599636 359.679909 
L 543.241722 404.11184 
L 553.883807 394.238078 
L 564.525892 374.490553 
" clip-path="url(#p46542bf366)" style="fill: none; stroke: #ff7f0e; stroke-width: 1.5; stroke-linecap: square"/>
   </g>
   <g id="line2d_125">
    <path d="M 415.536699 546.047178 
L 426.178785 497.912585 
L 436.82087 465.822857 
L 447.462955 413.985603 
L 458.10504 407.814501 
L 468.747125 432.498908 
L 479.389211 386.832756 
L 490.031296 406.580281 
L 500.673381 383.130095 
L 511.315466 411.517162 
L 521.957551 399.174959 
L 532.599636 388.066976 
L 543.241722 395.472298 
L 553.883807 370.787892 
L 564.525892 397.940739 
L 575.167977 364.61679 
L 585.810062 369.553671 
L 596.452148 365.85101 
L 607.094233 376.958993 
L 617.736318 384.364315 
L 628.378403 359.679909 
L 639.020488 369.553671 
L 649.662574 393.003857 
L 660.304659 385.598535 
L 670.946744 357.211468 
" clip-path="url(#p46542bf366)" style="fill: none; stroke: #2ca02c; stroke-width: 1.5; stroke-linecap: square"/>
   </g>
   <g id="line2d_126">
    <path d="M 415.536699 523.831212 
L 426.178785 507.786348 
L 436.82087 458.417535 
L 447.462955 453.480653 
L 458.10504 434.967349 
L 468.747125 423.859366 
L 479.389211 405.346061 
L 490.031296 436.201569 
L 500.673381 396.706518 
L 511.315466 396.706518 
L 521.957551 368.319451 
L 532.599636 421.390925 
L 543.241722 379.427434 
L 553.883807 401.6434 
L 564.525892 375.724773 
L 575.167977 395.472298 
L 585.810062 378.193214 
L 596.452148 375.724773 
L 607.094233 370.787892 
L 617.736318 370.787892 
L 628.378403 370.787892 
L 639.020488 402.87762 
" clip-path="url(#p46542bf366)" style="fill: none; stroke: #d62728; stroke-width: 1.5; stroke-linecap: square"/>
   </g>
   <g id="line2d_127">
    <path d="M 415.536699 554.68672 
L 426.178785 554.68672 
L 436.82087 507.786348 
L 447.462955 454.714874 
L 458.10504 469.525518 
L 468.747125 415.219823 
L 479.389211 437.435789 
L 490.031296 443.606891 
L 500.673381 407.814501 
L 511.315466 444.841111 
L 521.957551 401.6434 
L 532.599636 417.688264 
L 543.241722 451.012213 
" clip-path="url(#p46542bf366)" style="fill: none; stroke: #9467bd; stroke-width: 1.5; stroke-linecap: square"/>
   </g>
   <g id="patch_21">
    <path d="M 401.701989 565.918125 
L 401.701989 318.827216 
" style="fill: none; stroke: #000000; stroke-width: 0.8; stroke-linejoin: miter; stroke-linecap: square"/>
   </g>
   <g id="patch_22">
    <path d="M 706.065625 565.918125 
L 706.065625 318.827216 
" style="fill: none; stroke: #000000; stroke-width: 0.8; stroke-linejoin: miter; stroke-linecap: square"/>
   </g>
   <g id="patch_23">
    <path d="M 401.701989 565.918125 
L 706.065625 565.918125 
" style="fill: none; stroke: #000000; stroke-width: 0.8; stroke-linejoin: miter; stroke-linecap: square"/>
   </g>
   <g id="patch_24">
    <path d="M 401.701989 318.827216 
L 706.065625 318.827216 
" style="fill: none; stroke: #000000; stroke-width: 0.8; stroke-linejoin: miter; stroke-linecap: square"/>
   </g>
   <g id="text_65">
    <!-- Valid accuracy -->
    <g transform="translate(510.446619 312.827216)scale(0.12 -0.12)">
     <use xlink:href="#DejaVuSans-56"/>
     <use xlink:href="#DejaVuSans-61" x="60.658203"/>
     <use xlink:href="#DejaVuSans-6c" x="121.9375"/>
     <use xlink:href="#DejaVuSans-69" x="149.720703"/>
     <use xlink:href="#DejaVuSans-64" x="177.503906"/>
     <use xlink:href="#DejaVuSans-20" x="240.980469"/>
     <use xlink:href="#DejaVuSans-61" x="272.767578"/>
     <use xlink:href="#DejaVuSans-63" x="334.046875"/>
     <use xlink:href="#DejaVuSans-63" x="389.027344"/>
     <use xlink:href="#DejaVuSans-75" x="444.007812"/>
     <use xlink:href="#DejaVuSans-72" x="507.386719"/>
     <use xlink:href="#DejaVuSans-61" x="548.5"/>
     <use xlink:href="#DejaVuSans-63" x="609.779297"/>
     <use xlink:href="#DejaVuSans-79" x="664.759766"/>
    </g>
   </g>
   <g id="legend_4">
    <g id="patch_25">
     <path d="M 621.504687 560.918125 
L 699.065625 560.918125 
Q 701.065625 560.918125 701.065625 558.918125 
L 701.065625 486.5275 
Q 701.065625 484.5275 699.065625 484.5275 
L 621.504687 484.5275 
Q 619.504687 484.5275 619.504687 486.5275 
L 619.504687 558.918125 
Q 619.504687 560.918125 621.504687 560.918125 
z
" style="fill: #ffffff; opacity: 0.8; stroke: #cccccc; stroke-linejoin: miter"/>
    </g>
    <g id="line2d_128">
     <path d="M 623.504687 492.625937 
L 633.504687 492.625937 
L 643.504687 492.625937 
" style="fill: none; stroke: #1f77b4; stroke-width: 1.5; stroke-linecap: square"/>
    </g>
    <g id="text_66">
     <!-- tanh -->
     <g transform="translate(651.504687 496.125937)scale(0.1 -0.1)">
      <use xlink:href="#DejaVuSans-74"/>
      <use xlink:href="#DejaVuSans-61" x="39.208984"/>
      <use xlink:href="#DejaVuSans-6e" x="100.488281"/>
      <use xlink:href="#DejaVuSans-68" x="163.867188"/>
     </g>
    </g>
    <g id="line2d_129">
     <path d="M 623.504687 507.304062 
L 633.504687 507.304062 
L 643.504687 507.304062 
" style="fill: none; stroke: #ff7f0e; stroke-width: 1.5; stroke-linecap: square"/>
    </g>
    <g id="text_67">
     <!-- relu -->
     <g transform="translate(651.504687 510.804062)scale(0.1 -0.1)">
      <use xlink:href="#DejaVuSans-72"/>
      <use xlink:href="#DejaVuSans-65" x="38.863281"/>
      <use xlink:href="#DejaVuSans-6c" x="100.386719"/>
      <use xlink:href="#DejaVuSans-75" x="128.169922"/>
     </g>
    </g>
    <g id="line2d_130">
     <path d="M 623.504687 521.982187 
L 633.504687 521.982187 
L 643.504687 521.982187 
" style="fill: none; stroke: #2ca02c; stroke-width: 1.5; stroke-linecap: square"/>
    </g>
    <g id="text_68">
     <!-- leakyrelu -->
     <g transform="translate(651.504687 525.482187)scale(0.1 -0.1)">
      <use xlink:href="#DejaVuSans-6c"/>
      <use xlink:href="#DejaVuSans-65" x="27.783203"/>
      <use xlink:href="#DejaVuSans-61" x="89.306641"/>
      <use xlink:href="#DejaVuSans-6b" x="150.585938"/>
      <use xlink:href="#DejaVuSans-79" x="204.871094"/>
      <use xlink:href="#DejaVuSans-72" x="264.050781"/>
      <use xlink:href="#DejaVuSans-65" x="302.914062"/>
      <use xlink:href="#DejaVuSans-6c" x="364.4375"/>
      <use xlink:href="#DejaVuSans-75" x="392.220703"/>
     </g>
    </g>
    <g id="line2d_131">
     <path d="M 623.504687 536.660312 
L 633.504687 536.660312 
L 643.504687 536.660312 
" style="fill: none; stroke: #d62728; stroke-width: 1.5; stroke-linecap: square"/>
    </g>
    <g id="text_69">
     <!-- elu -->
     <g transform="translate(651.504687 540.160312)scale(0.1 -0.1)">
      <use xlink:href="#DejaVuSans-65"/>
      <use xlink:href="#DejaVuSans-6c" x="61.523438"/>
      <use xlink:href="#DejaVuSans-75" x="89.306641"/>
     </g>
    </g>
    <g id="line2d_132">
     <path d="M 623.504687 551.338437 
L 633.504687 551.338437 
L 643.504687 551.338437 
" style="fill: none; stroke: #9467bd; stroke-width: 1.5; stroke-linecap: square"/>
    </g>
    <g id="text_70">
     <!-- swish -->
     <g transform="translate(651.504687 554.838437)scale(0.1 -0.1)">
      <use xlink:href="#DejaVuSans-73"/>
      <use xlink:href="#DejaVuSans-77" x="52.099609"/>
      <use xlink:href="#DejaVuSans-69" x="133.886719"/>
      <use xlink:href="#DejaVuSans-73" x="161.669922"/>
      <use xlink:href="#DejaVuSans-68" x="213.769531"/>
     </g>
    </g>
   </g>
  </g>
 </g>
 <defs>
  <clipPath id="p67f7b82f71">
   <rect x="36.465625" y="22.318125" width="304.363636" height="247.090909"/>
  </clipPath>
  <clipPath id="p45dce829f3">
   <rect x="401.701989" y="22.318125" width="304.363636" height="247.090909"/>
  </clipPath>
  <clipPath id="pb8c2f5fe42">
   <rect x="36.465625" y="318.827216" width="304.363636" height="247.090909"/>
  </clipPath>
  <clipPath id="p46542bf366">
   <rect x="401.701989" y="318.827216" width="304.363636" height="247.090909"/>
  </clipPath>
 </defs>
</svg>
