<?xml version="1.0" encoding="utf-8" standalone="no"?>
<!DOCTYPE svg PUBLIC "-//W3C//DTD SVG 1.1//EN"
  "http://www.w3.org/Graphics/SVG/1.1/DTD/svg11.dtd">
<svg xmlns:xlink="http://www.w3.org/1999/xlink" width="713.265625pt" height="589.79625pt" viewBox="0 0 713.265625 589.79625" xmlns="http://www.w3.org/2000/svg" version="1.1">
 <metadata>
  <rdf:RDF xmlns:dc="http://purl.org/dc/elements/1.1/" xmlns:cc="http://creativecommons.org/ns#" xmlns:rdf="http://www.w3.org/1999/02/22-rdf-syntax-ns#">
   <cc:Work>
    <dc:type rdf:resource="http://purl.org/dc/dcmitype/StillImage"/>
    <dc:date>2022-04-13T05:10:50.607958</dc:date>
    <dc:format>image/svg+xml</dc:format>
    <dc:creator>
     <cc:Agent>
      <dc:title>Matplotlib v3.5.1, https://matplotlib.org/</dc:title>
     </cc:Agent>
    </dc:creator>
   </cc:Work>
  </rdf:RDF>
 </metadata>
 <defs>
  <style type="text/css">*{stroke-linejoin: round; stroke-linecap: butt}</style>
 </defs>
 <g id="figure_1">
  <g id="patch_1">
   <path d="M 0 589.79625 
L 713.265625 589.79625 
L 713.265625 0 
L 0 0 
L 0 589.79625 
z
" style="fill: none"/>
  </g>
  <g id="axes_1">
   <g id="patch_2">
    <path d="M 36.465625 269.409034 
L 340.829261 269.409034 
L 340.829261 22.318125 
L 36.465625 22.318125 
z
" style="fill: #ffffff"/>
   </g>
   <g id="matplotlib.axis_1">
    <g id="xtick_1">
     <g id="line2d_1">
      <path d="M 50.300336 269.409034 
L 50.300336 22.318125 
" clip-path="url(#p9161eb37a5)" style="fill: none; stroke: #b0b0b0; stroke-width: 0.8; stroke-linecap: square"/>
     </g>
     <g id="line2d_2">
      <defs>
       <path id="mbc29fa5698" d="M 0 0 
L 0 3.5 
" style="stroke: #000000; stroke-width: 0.8"/>
      </defs>
      <g>
       <use xlink:href="#mbc29fa5698" x="50.300336" y="269.409034" style="stroke: #000000; stroke-width: 0.8"/>
      </g>
     </g>
     <g id="text_1">
      <!-- 0 -->
      <g transform="translate(47.119086 284.007472)scale(0.1 -0.1)">
       <defs>
        <path id="DejaVuSans-30" d="M 2034 4250 
Q 1547 4250 1301 3770 
Q 1056 3291 1056 2328 
Q 1056 1369 1301 889 
Q 1547 409 2034 409 
Q 2525 409 2770 889 
Q 3016 1369 3016 2328 
Q 3016 3291 2770 3770 
Q 2525 4250 2034 4250 
z
M 2034 4750 
Q 2819 4750 3233 4129 
Q 3647 3509 3647 2328 
Q 3647 1150 3233 529 
Q 2819 -91 2034 -91 
Q 1250 -91 836 529 
Q 422 1150 422 2328 
Q 422 3509 836 4129 
Q 1250 4750 2034 4750 
z
" transform="scale(0.015625)"/>
       </defs>
       <use xlink:href="#DejaVuSans-30"/>
      </g>
     </g>
    </g>
    <g id="xtick_2">
     <g id="line2d_3">
      <path d="M 85.773953 269.409034 
L 85.773953 22.318125 
" clip-path="url(#p9161eb37a5)" style="fill: none; stroke: #b0b0b0; stroke-width: 0.8; stroke-linecap: square"/>
     </g>
     <g id="line2d_4">
      <g>
       <use xlink:href="#mbc29fa5698" x="85.773953" y="269.409034" style="stroke: #000000; stroke-width: 0.8"/>
      </g>
     </g>
     <g id="text_2">
      <!-- 5 -->
      <g transform="translate(82.592703 284.007472)scale(0.1 -0.1)">
       <defs>
        <path id="DejaVuSans-35" d="M 691 4666 
L 3169 4666 
L 3169 4134 
L 1269 4134 
L 1269 2991 
Q 1406 3038 1543 3061 
Q 1681 3084 1819 3084 
Q 2600 3084 3056 2656 
Q 3513 2228 3513 1497 
Q 3513 744 3044 326 
Q 2575 -91 1722 -91 
Q 1428 -91 1123 -41 
Q 819 9 494 109 
L 494 744 
Q 775 591 1075 516 
Q 1375 441 1709 441 
Q 2250 441 2565 725 
Q 2881 1009 2881 1497 
Q 2881 1984 2565 2268 
Q 2250 2553 1709 2553 
Q 1456 2553 1204 2497 
Q 953 2441 691 2322 
L 691 4666 
z
" transform="scale(0.015625)"/>
       </defs>
       <use xlink:href="#DejaVuSans-35"/>
      </g>
     </g>
    </g>
    <g id="xtick_3">
     <g id="line2d_5">
      <path d="M 121.24757 269.409034 
L 121.24757 22.318125 
" clip-path="url(#p9161eb37a5)" style="fill: none; stroke: #b0b0b0; stroke-width: 0.8; stroke-linecap: square"/>
     </g>
     <g id="line2d_6">
      <g>
       <use xlink:href="#mbc29fa5698" x="121.24757" y="269.409034" style="stroke: #000000; stroke-width: 0.8"/>
      </g>
     </g>
     <g id="text_3">
      <!-- 10 -->
      <g transform="translate(114.88507 284.007472)scale(0.1 -0.1)">
       <defs>
        <path id="DejaVuSans-31" d="M 794 531 
L 1825 531 
L 1825 4091 
L 703 3866 
L 703 4441 
L 1819 4666 
L 2450 4666 
L 2450 531 
L 3481 531 
L 3481 0 
L 794 0 
L 794 531 
z
" transform="scale(0.015625)"/>
       </defs>
       <use xlink:href="#DejaVuSans-31"/>
       <use xlink:href="#DejaVuSans-30" x="63.623047"/>
      </g>
     </g>
    </g>
    <g id="xtick_4">
     <g id="line2d_7">
      <path d="M 156.721188 269.409034 
L 156.721188 22.318125 
" clip-path="url(#p9161eb37a5)" style="fill: none; stroke: #b0b0b0; stroke-width: 0.8; stroke-linecap: square"/>
     </g>
     <g id="line2d_8">
      <g>
       <use xlink:href="#mbc29fa5698" x="156.721188" y="269.409034" style="stroke: #000000; stroke-width: 0.8"/>
      </g>
     </g>
     <g id="text_4">
      <!-- 15 -->
      <g transform="translate(150.358688 284.007472)scale(0.1 -0.1)">
       <use xlink:href="#DejaVuSans-31"/>
       <use xlink:href="#DejaVuSans-35" x="63.623047"/>
      </g>
     </g>
    </g>
    <g id="xtick_5">
     <g id="line2d_9">
      <path d="M 192.194805 269.409034 
L 192.194805 22.318125 
" clip-path="url(#p9161eb37a5)" style="fill: none; stroke: #b0b0b0; stroke-width: 0.8; stroke-linecap: square"/>
     </g>
     <g id="line2d_10">
      <g>
       <use xlink:href="#mbc29fa5698" x="192.194805" y="269.409034" style="stroke: #000000; stroke-width: 0.8"/>
      </g>
     </g>
     <g id="text_5">
      <!-- 20 -->
      <g transform="translate(185.832305 284.007472)scale(0.1 -0.1)">
       <defs>
        <path id="DejaVuSans-32" d="M 1228 531 
L 3431 531 
L 3431 0 
L 469 0 
L 469 531 
Q 828 903 1448 1529 
Q 2069 2156 2228 2338 
Q 2531 2678 2651 2914 
Q 2772 3150 2772 3378 
Q 2772 3750 2511 3984 
Q 2250 4219 1831 4219 
Q 1534 4219 1204 4116 
Q 875 4013 500 3803 
L 500 4441 
Q 881 4594 1212 4672 
Q 1544 4750 1819 4750 
Q 2544 4750 2975 4387 
Q 3406 4025 3406 3419 
Q 3406 3131 3298 2873 
Q 3191 2616 2906 2266 
Q 2828 2175 2409 1742 
Q 1991 1309 1228 531 
z
" transform="scale(0.015625)"/>
       </defs>
       <use xlink:href="#DejaVuSans-32"/>
       <use xlink:href="#DejaVuSans-30" x="63.623047"/>
      </g>
     </g>
    </g>
    <g id="xtick_6">
     <g id="line2d_11">
      <path d="M 227.668422 269.409034 
L 227.668422 22.318125 
" clip-path="url(#p9161eb37a5)" style="fill: none; stroke: #b0b0b0; stroke-width: 0.8; stroke-linecap: square"/>
     </g>
     <g id="line2d_12">
      <g>
       <use xlink:href="#mbc29fa5698" x="227.668422" y="269.409034" style="stroke: #000000; stroke-width: 0.8"/>
      </g>
     </g>
     <g id="text_6">
      <!-- 25 -->
      <g transform="translate(221.305922 284.007472)scale(0.1 -0.1)">
       <use xlink:href="#DejaVuSans-32"/>
       <use xlink:href="#DejaVuSans-35" x="63.623047"/>
      </g>
     </g>
    </g>
    <g id="xtick_7">
     <g id="line2d_13">
      <path d="M 263.142039 269.409034 
L 263.142039 22.318125 
" clip-path="url(#p9161eb37a5)" style="fill: none; stroke: #b0b0b0; stroke-width: 0.8; stroke-linecap: square"/>
     </g>
     <g id="line2d_14">
      <g>
       <use xlink:href="#mbc29fa5698" x="263.142039" y="269.409034" style="stroke: #000000; stroke-width: 0.8"/>
      </g>
     </g>
     <g id="text_7">
      <!-- 30 -->
      <g transform="translate(256.779539 284.007472)scale(0.1 -0.1)">
       <defs>
        <path id="DejaVuSans-33" d="M 2597 2516 
Q 3050 2419 3304 2112 
Q 3559 1806 3559 1356 
Q 3559 666 3084 287 
Q 2609 -91 1734 -91 
Q 1441 -91 1130 -33 
Q 819 25 488 141 
L 488 750 
Q 750 597 1062 519 
Q 1375 441 1716 441 
Q 2309 441 2620 675 
Q 2931 909 2931 1356 
Q 2931 1769 2642 2001 
Q 2353 2234 1838 2234 
L 1294 2234 
L 1294 2753 
L 1863 2753 
Q 2328 2753 2575 2939 
Q 2822 3125 2822 3475 
Q 2822 3834 2567 4026 
Q 2313 4219 1838 4219 
Q 1578 4219 1281 4162 
Q 984 4106 628 3988 
L 628 4550 
Q 988 4650 1302 4700 
Q 1616 4750 1894 4750 
Q 2613 4750 3031 4423 
Q 3450 4097 3450 3541 
Q 3450 3153 3228 2886 
Q 3006 2619 2597 2516 
z
" transform="scale(0.015625)"/>
       </defs>
       <use xlink:href="#DejaVuSans-33"/>
       <use xlink:href="#DejaVuSans-30" x="63.623047"/>
      </g>
     </g>
    </g>
    <g id="xtick_8">
     <g id="line2d_15">
      <path d="M 298.615657 269.409034 
L 298.615657 22.318125 
" clip-path="url(#p9161eb37a5)" style="fill: none; stroke: #b0b0b0; stroke-width: 0.8; stroke-linecap: square"/>
     </g>
     <g id="line2d_16">
      <g>
       <use xlink:href="#mbc29fa5698" x="298.615657" y="269.409034" style="stroke: #000000; stroke-width: 0.8"/>
      </g>
     </g>
     <g id="text_8">
      <!-- 35 -->
      <g transform="translate(292.253157 284.007472)scale(0.1 -0.1)">
       <use xlink:href="#DejaVuSans-33"/>
       <use xlink:href="#DejaVuSans-35" x="63.623047"/>
      </g>
     </g>
    </g>
    <g id="xtick_9">
     <g id="line2d_17">
      <path d="M 334.089274 269.409034 
L 334.089274 22.318125 
" clip-path="url(#p9161eb37a5)" style="fill: none; stroke: #b0b0b0; stroke-width: 0.8; stroke-linecap: square"/>
     </g>
     <g id="line2d_18">
      <g>
       <use xlink:href="#mbc29fa5698" x="334.089274" y="269.409034" style="stroke: #000000; stroke-width: 0.8"/>
      </g>
     </g>
     <g id="text_9">
      <!-- 40 -->
      <g transform="translate(327.726774 284.007472)scale(0.1 -0.1)">
       <defs>
        <path id="DejaVuSans-34" d="M 2419 4116 
L 825 1625 
L 2419 1625 
L 2419 4116 
z
M 2253 4666 
L 3047 4666 
L 3047 1625 
L 3713 1625 
L 3713 1100 
L 3047 1100 
L 3047 0 
L 2419 0 
L 2419 1100 
L 313 1100 
L 313 1709 
L 2253 4666 
z
" transform="scale(0.015625)"/>
       </defs>
       <use xlink:href="#DejaVuSans-34"/>
       <use xlink:href="#DejaVuSans-30" x="63.623047"/>
      </g>
     </g>
    </g>
   </g>
   <g id="matplotlib.axis_2">
    <g id="ytick_1">
     <g id="line2d_19">
      <path d="M 36.465625 223.973126 
L 340.829261 223.973126 
" clip-path="url(#p9161eb37a5)" style="fill: none; stroke: #b0b0b0; stroke-width: 0.8; stroke-linecap: square"/>
     </g>
     <g id="line2d_20">
      <defs>
       <path id="mdc73ed29c9" d="M 0 0 
L -3.5 0 
" style="stroke: #000000; stroke-width: 0.8"/>
      </defs>
      <g>
       <use xlink:href="#mdc73ed29c9" x="36.465625" y="223.973126" style="stroke: #000000; stroke-width: 0.8"/>
      </g>
     </g>
     <g id="text_10">
      <!-- 0.5 -->
      <g transform="translate(13.5625 227.772344)scale(0.1 -0.1)">
       <defs>
        <path id="DejaVuSans-2e" d="M 684 794 
L 1344 794 
L 1344 0 
L 684 0 
L 684 794 
z
" transform="scale(0.015625)"/>
       </defs>
       <use xlink:href="#DejaVuSans-30"/>
       <use xlink:href="#DejaVuSans-2e" x="63.623047"/>
       <use xlink:href="#DejaVuSans-35" x="95.410156"/>
      </g>
     </g>
    </g>
    <g id="ytick_2">
     <g id="line2d_21">
      <path d="M 36.465625 171.442202 
L 340.829261 171.442202 
" clip-path="url(#p9161eb37a5)" style="fill: none; stroke: #b0b0b0; stroke-width: 0.8; stroke-linecap: square"/>
     </g>
     <g id="line2d_22">
      <g>
       <use xlink:href="#mdc73ed29c9" x="36.465625" y="171.442202" style="stroke: #000000; stroke-width: 0.8"/>
      </g>
     </g>
     <g id="text_11">
      <!-- 1.0 -->
      <g transform="translate(13.5625 175.241421)scale(0.1 -0.1)">
       <use xlink:href="#DejaVuSans-31"/>
       <use xlink:href="#DejaVuSans-2e" x="63.623047"/>
       <use xlink:href="#DejaVuSans-30" x="95.410156"/>
      </g>
     </g>
    </g>
    <g id="ytick_3">
     <g id="line2d_23">
      <path d="M 36.465625 118.911279 
L 340.829261 118.911279 
" clip-path="url(#p9161eb37a5)" style="fill: none; stroke: #b0b0b0; stroke-width: 0.8; stroke-linecap: square"/>
     </g>
     <g id="line2d_24">
      <g>
       <use xlink:href="#mdc73ed29c9" x="36.465625" y="118.911279" style="stroke: #000000; stroke-width: 0.8"/>
      </g>
     </g>
     <g id="text_12">
      <!-- 1.5 -->
      <g transform="translate(13.5625 122.710497)scale(0.1 -0.1)">
       <use xlink:href="#DejaVuSans-31"/>
       <use xlink:href="#DejaVuSans-2e" x="63.623047"/>
       <use xlink:href="#DejaVuSans-35" x="95.410156"/>
      </g>
     </g>
    </g>
    <g id="ytick_4">
     <g id="line2d_25">
      <path d="M 36.465625 66.380355 
L 340.829261 66.380355 
" clip-path="url(#p9161eb37a5)" style="fill: none; stroke: #b0b0b0; stroke-width: 0.8; stroke-linecap: square"/>
     </g>
     <g id="line2d_26">
      <g>
       <use xlink:href="#mdc73ed29c9" x="36.465625" y="66.380355" style="stroke: #000000; stroke-width: 0.8"/>
      </g>
     </g>
     <g id="text_13">
      <!-- 2.0 -->
      <g transform="translate(13.5625 70.179574)scale(0.1 -0.1)">
       <use xlink:href="#DejaVuSans-32"/>
       <use xlink:href="#DejaVuSans-2e" x="63.623047"/>
       <use xlink:href="#DejaVuSans-30" x="95.410156"/>
      </g>
     </g>
    </g>
   </g>
   <g id="line2d_27">
    <path d="M 50.300336 33.54953 
L 57.395059 35.030935 
L 64.489783 36.294116 
L 71.584506 42.833904 
L 78.67923 86.039349 
L 85.773953 114.415939 
L 92.868676 139.276182 
L 99.9634 158.557754 
L 107.058123 170.869789 
L 114.152847 178.435986 
L 121.24757 184.035797 
L 128.342294 188.490883 
L 135.437017 192.306207 
L 142.531741 195.468279 
L 149.626464 198.076982 
L 156.721188 200.188988 
L 163.815911 202.05546 
L 170.910635 203.871478 
L 178.005358 205.537617 
L 185.100081 207.009303 
L 192.194805 208.543736 
L 199.289528 210.055243 
L 206.384252 211.424831 
L 213.478975 212.952419 
L 220.573699 214.436154 
L 227.668422 215.7939 
L 234.763146 217.175166 
L 241.857869 218.306553 
L 248.952593 219.237457 
L 256.047316 220.446382 
L 263.142039 221.555012 
L 270.236763 222.400856 
L 277.331486 222.9568 
L 284.42621 224.142646 
L 291.520933 224.771587 
L 298.615657 225.599112 
L 305.71038 225.933831 
L 312.805104 226.752322 
L 319.899827 227.553971 
L 326.994551 227.787626 
" clip-path="url(#p9161eb37a5)" style="fill: none; stroke: #1f77b4; stroke-width: 1.5; stroke-linecap: square"/>
   </g>
   <g id="line2d_28">
    <path d="M 50.300336 211.828528 
L 57.395059 232.008581 
L 64.489783 235.657873 
L 71.584506 237.899124 
L 78.67923 239.551987 
L 85.773953 240.848836 
L 92.868676 242.498643 
L 99.9634 243.196635 
L 107.058123 244.279565 
L 114.152847 245.210199 
L 121.24757 246.062713 
L 128.342294 246.691996 
L 135.437017 247.316629 
L 142.531741 248.395016 
L 149.626464 248.685837 
L 156.721188 249.317641 
L 163.815911 249.980871 
L 170.910635 250.809364 
L 178.005358 251.282739 
L 185.100081 251.70561 
L 192.194805 251.976926 
L 199.289528 252.554407 
L 206.384252 252.903639 
L 213.478975 253.332955 
L 220.573699 253.844865 
L 227.668422 254.305016 
L 234.763146 254.889754 
" clip-path="url(#p9161eb37a5)" style="fill: none; stroke: #ff7f0e; stroke-width: 1.5; stroke-linecap: square"/>
   </g>
   <g id="line2d_29">
    <path d="M 50.300336 194.295931 
L 57.395059 230.176999 
L 64.489783 235.027713 
L 71.584506 238.039052 
L 78.67923 240.710981 
L 85.773953 242.660123 
L 92.868676 244.189985 
L 99.9634 244.855303 
L 107.058123 246.570256 
L 114.152847 247.27471 
L 121.24757 248.783825 
L 128.342294 249.779345 
L 135.437017 250.639802 
L 142.531741 251.603334 
L 149.626464 252.122537 
" clip-path="url(#p9161eb37a5)" style="fill: none; stroke: #2ca02c; stroke-width: 1.5; stroke-linecap: square"/>
   </g>
   <g id="line2d_30">
    <path d="M 50.300336 198.253506 
L 57.395059 229.379987 
L 64.489783 234.496192 
L 71.584506 237.964905 
L 78.67923 239.821968 
L 85.773953 242.127798 
L 92.868676 243.660734 
L 99.9634 245.148561 
L 107.058123 245.913247 
L 114.152847 247.367456 
L 121.24757 248.091225 
L 128.342294 249.09503 
L 135.437017 249.716707 
L 142.531741 250.960801 
L 149.626464 251.307111 
L 156.721188 252.507119 
L 163.815911 253.170667 
L 170.910635 253.784874 
L 178.005358 254.814845 
L 185.100081 254.963149 
L 192.194805 255.867515 
L 199.289528 256.373135 
L 206.384252 257.404363 
L 213.478975 257.844023 
L 220.573699 258.177629 
" clip-path="url(#p9161eb37a5)" style="fill: none; stroke: #d62728; stroke-width: 1.5; stroke-linecap: square"/>
   </g>
   <g id="line2d_31">
    <path d="M 50.300336 213.825078 
L 57.395059 231.585484 
L 64.489783 235.51507 
L 71.584506 237.061351 
L 78.67923 239.164562 
L 85.773953 240.861561 
L 92.868676 241.901959 
L 99.9634 242.522891 
L 107.058123 243.805697 
L 114.152847 244.673606 
L 121.24757 245.709038 
L 128.342294 246.742062 
L 135.437017 247.065193 
L 142.531741 247.715636 
L 149.626464 248.420835 
L 156.721188 249.031707 
L 163.815911 249.673864 
L 170.910635 249.936037 
L 178.005358 250.713011 
L 185.100081 251.010214 
L 192.194805 251.531938 
L 199.289528 251.65831 
" clip-path="url(#p9161eb37a5)" style="fill: none; stroke: #9467bd; stroke-width: 1.5; stroke-linecap: square"/>
   </g>
   <g id="line2d_32">
    <path d="M 50.300336 170.88279 
L 57.395059 221.154177 
L 64.489783 227.980025 
L 71.584506 231.867827 
L 78.67923 234.845719 
L 85.773953 236.499925 
L 92.868676 238.208156 
L 99.9634 239.079487 
L 107.058123 239.863687 
L 114.152847 240.6099 
L 121.24757 241.931616 
L 128.342294 242.531523 
L 135.437017 243.188766 
" clip-path="url(#p9161eb37a5)" style="fill: none; stroke: #8c564b; stroke-width: 1.5; stroke-linecap: square"/>
   </g>
   <g id="patch_3">
    <path d="M 36.465625 269.409034 
L 36.465625 22.318125 
" style="fill: none; stroke: #000000; stroke-width: 0.8; stroke-linejoin: miter; stroke-linecap: square"/>
   </g>
   <g id="patch_4">
    <path d="M 340.829261 269.409034 
L 340.829261 22.318125 
" style="fill: none; stroke: #000000; stroke-width: 0.8; stroke-linejoin: miter; stroke-linecap: square"/>
   </g>
   <g id="patch_5">
    <path d="M 36.465625 269.409034 
L 340.829261 269.409034 
" style="fill: none; stroke: #000000; stroke-width: 0.8; stroke-linejoin: miter; stroke-linecap: square"/>
   </g>
   <g id="patch_6">
    <path d="M 36.465625 22.318125 
L 340.829261 22.318125 
" style="fill: none; stroke: #000000; stroke-width: 0.8; stroke-linejoin: miter; stroke-linecap: square"/>
   </g>
   <g id="text_14">
    <!-- Train loss -->
    <g transform="translate(160.758693 16.318125)scale(0.12 -0.12)">
     <defs>
      <path id="DejaVuSans-54" d="M -19 4666 
L 3928 4666 
L 3928 4134 
L 2272 4134 
L 2272 0 
L 1638 0 
L 1638 4134 
L -19 4134 
L -19 4666 
z
" transform="scale(0.015625)"/>
      <path id="DejaVuSans-72" d="M 2631 2963 
Q 2534 3019 2420 3045 
Q 2306 3072 2169 3072 
Q 1681 3072 1420 2755 
Q 1159 2438 1159 1844 
L 1159 0 
L 581 0 
L 581 3500 
L 1159 3500 
L 1159 2956 
Q 1341 3275 1631 3429 
Q 1922 3584 2338 3584 
Q 2397 3584 2469 3576 
Q 2541 3569 2628 3553 
L 2631 2963 
z
" transform="scale(0.015625)"/>
      <path id="DejaVuSans-61" d="M 2194 1759 
Q 1497 1759 1228 1600 
Q 959 1441 959 1056 
Q 959 750 1161 570 
Q 1363 391 1709 391 
Q 2188 391 2477 730 
Q 2766 1069 2766 1631 
L 2766 1759 
L 2194 1759 
z
M 3341 1997 
L 3341 0 
L 2766 0 
L 2766 531 
Q 2569 213 2275 61 
Q 1981 -91 1556 -91 
Q 1019 -91 701 211 
Q 384 513 384 1019 
Q 384 1609 779 1909 
Q 1175 2209 1959 2209 
L 2766 2209 
L 2766 2266 
Q 2766 2663 2505 2880 
Q 2244 3097 1772 3097 
Q 1472 3097 1187 3025 
Q 903 2953 641 2809 
L 641 3341 
Q 956 3463 1253 3523 
Q 1550 3584 1831 3584 
Q 2591 3584 2966 3190 
Q 3341 2797 3341 1997 
z
" transform="scale(0.015625)"/>
      <path id="DejaVuSans-69" d="M 603 3500 
L 1178 3500 
L 1178 0 
L 603 0 
L 603 3500 
z
M 603 4863 
L 1178 4863 
L 1178 4134 
L 603 4134 
L 603 4863 
z
" transform="scale(0.015625)"/>
      <path id="DejaVuSans-6e" d="M 3513 2113 
L 3513 0 
L 2938 0 
L 2938 2094 
Q 2938 2591 2744 2837 
Q 2550 3084 2163 3084 
Q 1697 3084 1428 2787 
Q 1159 2491 1159 1978 
L 1159 0 
L 581 0 
L 581 3500 
L 1159 3500 
L 1159 2956 
Q 1366 3272 1645 3428 
Q 1925 3584 2291 3584 
Q 2894 3584 3203 3211 
Q 3513 2838 3513 2113 
z
" transform="scale(0.015625)"/>
      <path id="DejaVuSans-20" transform="scale(0.015625)"/>
      <path id="DejaVuSans-6c" d="M 603 4863 
L 1178 4863 
L 1178 0 
L 603 0 
L 603 4863 
z
" transform="scale(0.015625)"/>
      <path id="DejaVuSans-6f" d="M 1959 3097 
Q 1497 3097 1228 2736 
Q 959 2375 959 1747 
Q 959 1119 1226 758 
Q 1494 397 1959 397 
Q 2419 397 2687 759 
Q 2956 1122 2956 1747 
Q 2956 2369 2687 2733 
Q 2419 3097 1959 3097 
z
M 1959 3584 
Q 2709 3584 3137 3096 
Q 3566 2609 3566 1747 
Q 3566 888 3137 398 
Q 2709 -91 1959 -91 
Q 1206 -91 779 398 
Q 353 888 353 1747 
Q 353 2609 779 3096 
Q 1206 3584 1959 3584 
z
" transform="scale(0.015625)"/>
      <path id="DejaVuSans-73" d="M 2834 3397 
L 2834 2853 
Q 2591 2978 2328 3040 
Q 2066 3103 1784 3103 
Q 1356 3103 1142 2972 
Q 928 2841 928 2578 
Q 928 2378 1081 2264 
Q 1234 2150 1697 2047 
L 1894 2003 
Q 2506 1872 2764 1633 
Q 3022 1394 3022 966 
Q 3022 478 2636 193 
Q 2250 -91 1575 -91 
Q 1294 -91 989 -36 
Q 684 19 347 128 
L 347 722 
Q 666 556 975 473 
Q 1284 391 1588 391 
Q 1994 391 2212 530 
Q 2431 669 2431 922 
Q 2431 1156 2273 1281 
Q 2116 1406 1581 1522 
L 1381 1569 
Q 847 1681 609 1914 
Q 372 2147 372 2553 
Q 372 3047 722 3315 
Q 1072 3584 1716 3584 
Q 2034 3584 2315 3537 
Q 2597 3491 2834 3397 
z
" transform="scale(0.015625)"/>
     </defs>
     <use xlink:href="#DejaVuSans-54"/>
     <use xlink:href="#DejaVuSans-72" x="46.333984"/>
     <use xlink:href="#DejaVuSans-61" x="87.447266"/>
     <use xlink:href="#DejaVuSans-69" x="148.726562"/>
     <use xlink:href="#DejaVuSans-6e" x="176.509766"/>
     <use xlink:href="#DejaVuSans-20" x="239.888672"/>
     <use xlink:href="#DejaVuSans-6c" x="271.675781"/>
     <use xlink:href="#DejaVuSans-6f" x="299.458984"/>
     <use xlink:href="#DejaVuSans-73" x="360.640625"/>
     <use xlink:href="#DejaVuSans-73" x="412.740234"/>
    </g>
   </g>
   <g id="legend_1">
    <g id="patch_7">
     <path d="M 256.268324 118.386875 
L 333.829261 118.386875 
Q 335.829261 118.386875 335.829261 116.386875 
L 335.829261 29.318125 
Q 335.829261 27.318125 333.829261 27.318125 
L 256.268324 27.318125 
Q 254.268324 27.318125 254.268324 29.318125 
L 254.268324 116.386875 
Q 254.268324 118.386875 256.268324 118.386875 
z
" style="fill: #ffffff; opacity: 0.8; stroke: #cccccc; stroke-linejoin: miter"/>
    </g>
    <g id="line2d_33">
     <path d="M 258.268324 35.416562 
L 268.268324 35.416562 
L 278.268324 35.416562 
" style="fill: none; stroke: #1f77b4; stroke-width: 1.5; stroke-linecap: square"/>
    </g>
    <g id="text_15">
     <!-- sigmoid -->
     <g transform="translate(286.268324 38.916562)scale(0.1 -0.1)">
      <defs>
       <path id="DejaVuSans-67" d="M 2906 1791 
Q 2906 2416 2648 2759 
Q 2391 3103 1925 3103 
Q 1463 3103 1205 2759 
Q 947 2416 947 1791 
Q 947 1169 1205 825 
Q 1463 481 1925 481 
Q 2391 481 2648 825 
Q 2906 1169 2906 1791 
z
M 3481 434 
Q 3481 -459 3084 -895 
Q 2688 -1331 1869 -1331 
Q 1566 -1331 1297 -1286 
Q 1028 -1241 775 -1147 
L 775 -588 
Q 1028 -725 1275 -790 
Q 1522 -856 1778 -856 
Q 2344 -856 2625 -561 
Q 2906 -266 2906 331 
L 2906 616 
Q 2728 306 2450 153 
Q 2172 0 1784 0 
Q 1141 0 747 490 
Q 353 981 353 1791 
Q 353 2603 747 3093 
Q 1141 3584 1784 3584 
Q 2172 3584 2450 3431 
Q 2728 3278 2906 2969 
L 2906 3500 
L 3481 3500 
L 3481 434 
z
" transform="scale(0.015625)"/>
       <path id="DejaVuSans-6d" d="M 3328 2828 
Q 3544 3216 3844 3400 
Q 4144 3584 4550 3584 
Q 5097 3584 5394 3201 
Q 5691 2819 5691 2113 
L 5691 0 
L 5113 0 
L 5113 2094 
Q 5113 2597 4934 2840 
Q 4756 3084 4391 3084 
Q 3944 3084 3684 2787 
Q 3425 2491 3425 1978 
L 3425 0 
L 2847 0 
L 2847 2094 
Q 2847 2600 2669 2842 
Q 2491 3084 2119 3084 
Q 1678 3084 1418 2786 
Q 1159 2488 1159 1978 
L 1159 0 
L 581 0 
L 581 3500 
L 1159 3500 
L 1159 2956 
Q 1356 3278 1631 3431 
Q 1906 3584 2284 3584 
Q 2666 3584 2933 3390 
Q 3200 3197 3328 2828 
z
" transform="scale(0.015625)"/>
       <path id="DejaVuSans-64" d="M 2906 2969 
L 2906 4863 
L 3481 4863 
L 3481 0 
L 2906 0 
L 2906 525 
Q 2725 213 2448 61 
Q 2172 -91 1784 -91 
Q 1150 -91 751 415 
Q 353 922 353 1747 
Q 353 2572 751 3078 
Q 1150 3584 1784 3584 
Q 2172 3584 2448 3432 
Q 2725 3281 2906 2969 
z
M 947 1747 
Q 947 1113 1208 752 
Q 1469 391 1925 391 
Q 2381 391 2643 752 
Q 2906 1113 2906 1747 
Q 2906 2381 2643 2742 
Q 2381 3103 1925 3103 
Q 1469 3103 1208 2742 
Q 947 2381 947 1747 
z
" transform="scale(0.015625)"/>
      </defs>
      <use xlink:href="#DejaVuSans-73"/>
      <use xlink:href="#DejaVuSans-69" x="52.099609"/>
      <use xlink:href="#DejaVuSans-67" x="79.882812"/>
      <use xlink:href="#DejaVuSans-6d" x="143.359375"/>
      <use xlink:href="#DejaVuSans-6f" x="240.771484"/>
      <use xlink:href="#DejaVuSans-69" x="301.953125"/>
      <use xlink:href="#DejaVuSans-64" x="329.736328"/>
     </g>
    </g>
    <g id="line2d_34">
     <path d="M 258.268324 50.094687 
L 268.268324 50.094687 
L 278.268324 50.094687 
" style="fill: none; stroke: #ff7f0e; stroke-width: 1.5; stroke-linecap: square"/>
    </g>
    <g id="text_16">
     <!-- tanh -->
     <g transform="translate(286.268324 53.594687)scale(0.1 -0.1)">
      <defs>
       <path id="DejaVuSans-74" d="M 1172 4494 
L 1172 3500 
L 2356 3500 
L 2356 3053 
L 1172 3053 
L 1172 1153 
Q 1172 725 1289 603 
Q 1406 481 1766 481 
L 2356 481 
L 2356 0 
L 1766 0 
Q 1100 0 847 248 
Q 594 497 594 1153 
L 594 3053 
L 172 3053 
L 172 3500 
L 594 3500 
L 594 4494 
L 1172 4494 
z
" transform="scale(0.015625)"/>
       <path id="DejaVuSans-68" d="M 3513 2113 
L 3513 0 
L 2938 0 
L 2938 2094 
Q 2938 2591 2744 2837 
Q 2550 3084 2163 3084 
Q 1697 3084 1428 2787 
Q 1159 2491 1159 1978 
L 1159 0 
L 581 0 
L 581 4863 
L 1159 4863 
L 1159 2956 
Q 1366 3272 1645 3428 
Q 1925 3584 2291 3584 
Q 2894 3584 3203 3211 
Q 3513 2838 3513 2113 
z
" transform="scale(0.015625)"/>
      </defs>
      <use xlink:href="#DejaVuSans-74"/>
      <use xlink:href="#DejaVuSans-61" x="39.208984"/>
      <use xlink:href="#DejaVuSans-6e" x="100.488281"/>
      <use xlink:href="#DejaVuSans-68" x="163.867188"/>
     </g>
    </g>
    <g id="line2d_35">
     <path d="M 258.268324 64.772812 
L 268.268324 64.772812 
L 278.268324 64.772812 
" style="fill: none; stroke: #2ca02c; stroke-width: 1.5; stroke-linecap: square"/>
    </g>
    <g id="text_17">
     <!-- relu -->
     <g transform="translate(286.268324 68.272812)scale(0.1 -0.1)">
      <defs>
       <path id="DejaVuSans-65" d="M 3597 1894 
L 3597 1613 
L 953 1613 
Q 991 1019 1311 708 
Q 1631 397 2203 397 
Q 2534 397 2845 478 
Q 3156 559 3463 722 
L 3463 178 
Q 3153 47 2828 -22 
Q 2503 -91 2169 -91 
Q 1331 -91 842 396 
Q 353 884 353 1716 
Q 353 2575 817 3079 
Q 1281 3584 2069 3584 
Q 2775 3584 3186 3129 
Q 3597 2675 3597 1894 
z
M 3022 2063 
Q 3016 2534 2758 2815 
Q 2500 3097 2075 3097 
Q 1594 3097 1305 2825 
Q 1016 2553 972 2059 
L 3022 2063 
z
" transform="scale(0.015625)"/>
       <path id="DejaVuSans-75" d="M 544 1381 
L 544 3500 
L 1119 3500 
L 1119 1403 
Q 1119 906 1312 657 
Q 1506 409 1894 409 
Q 2359 409 2629 706 
Q 2900 1003 2900 1516 
L 2900 3500 
L 3475 3500 
L 3475 0 
L 2900 0 
L 2900 538 
Q 2691 219 2414 64 
Q 2138 -91 1772 -91 
Q 1169 -91 856 284 
Q 544 659 544 1381 
z
M 1991 3584 
L 1991 3584 
z
" transform="scale(0.015625)"/>
      </defs>
      <use xlink:href="#DejaVuSans-72"/>
      <use xlink:href="#DejaVuSans-65" x="38.863281"/>
      <use xlink:href="#DejaVuSans-6c" x="100.386719"/>
      <use xlink:href="#DejaVuSans-75" x="128.169922"/>
     </g>
    </g>
    <g id="line2d_36">
     <path d="M 258.268324 79.450937 
L 268.268324 79.450937 
L 278.268324 79.450937 
" style="fill: none; stroke: #d62728; stroke-width: 1.5; stroke-linecap: square"/>
    </g>
    <g id="text_18">
     <!-- leakyrelu -->
     <g transform="translate(286.268324 82.950937)scale(0.1 -0.1)">
      <defs>
       <path id="DejaVuSans-6b" d="M 581 4863 
L 1159 4863 
L 1159 1991 
L 2875 3500 
L 3609 3500 
L 1753 1863 
L 3688 0 
L 2938 0 
L 1159 1709 
L 1159 0 
L 581 0 
L 581 4863 
z
" transform="scale(0.015625)"/>
       <path id="DejaVuSans-79" d="M 2059 -325 
Q 1816 -950 1584 -1140 
Q 1353 -1331 966 -1331 
L 506 -1331 
L 506 -850 
L 844 -850 
Q 1081 -850 1212 -737 
Q 1344 -625 1503 -206 
L 1606 56 
L 191 3500 
L 800 3500 
L 1894 763 
L 2988 3500 
L 3597 3500 
L 2059 -325 
z
" transform="scale(0.015625)"/>
      </defs>
      <use xlink:href="#DejaVuSans-6c"/>
      <use xlink:href="#DejaVuSans-65" x="27.783203"/>
      <use xlink:href="#DejaVuSans-61" x="89.306641"/>
      <use xlink:href="#DejaVuSans-6b" x="150.585938"/>
      <use xlink:href="#DejaVuSans-79" x="204.871094"/>
      <use xlink:href="#DejaVuSans-72" x="264.050781"/>
      <use xlink:href="#DejaVuSans-65" x="302.914062"/>
      <use xlink:href="#DejaVuSans-6c" x="364.4375"/>
      <use xlink:href="#DejaVuSans-75" x="392.220703"/>
     </g>
    </g>
    <g id="line2d_37">
     <path d="M 258.268324 94.129062 
L 268.268324 94.129062 
L 278.268324 94.129062 
" style="fill: none; stroke: #9467bd; stroke-width: 1.5; stroke-linecap: square"/>
    </g>
    <g id="text_19">
     <!-- elu -->
     <g transform="translate(286.268324 97.629062)scale(0.1 -0.1)">
      <use xlink:href="#DejaVuSans-65"/>
      <use xlink:href="#DejaVuSans-6c" x="61.523438"/>
      <use xlink:href="#DejaVuSans-75" x="89.306641"/>
     </g>
    </g>
    <g id="line2d_38">
     <path d="M 258.268324 108.807187 
L 268.268324 108.807187 
L 278.268324 108.807187 
" style="fill: none; stroke: #8c564b; stroke-width: 1.5; stroke-linecap: square"/>
    </g>
    <g id="text_20">
     <!-- swish -->
     <g transform="translate(286.268324 112.307187)scale(0.1 -0.1)">
      <defs>
       <path id="DejaVuSans-77" d="M 269 3500 
L 844 3500 
L 1563 769 
L 2278 3500 
L 2956 3500 
L 3675 769 
L 4391 3500 
L 4966 3500 
L 4050 0 
L 3372 0 
L 2619 2869 
L 1863 0 
L 1184 0 
L 269 3500 
z
" transform="scale(0.015625)"/>
      </defs>
      <use xlink:href="#DejaVuSans-73"/>
      <use xlink:href="#DejaVuSans-77" x="52.099609"/>
      <use xlink:href="#DejaVuSans-69" x="133.886719"/>
      <use xlink:href="#DejaVuSans-73" x="161.669922"/>
      <use xlink:href="#DejaVuSans-68" x="213.769531"/>
     </g>
    </g>
   </g>
  </g>
  <g id="axes_2">
   <g id="patch_8">
    <path d="M 401.701989 269.409034 
L 706.065625 269.409034 
L 706.065625 22.318125 
L 401.701989 22.318125 
z
" style="fill: #ffffff"/>
   </g>
   <g id="matplotlib.axis_3">
    <g id="xtick_10">
     <g id="line2d_39">
      <path d="M 415.536699 269.409034 
L 415.536699 22.318125 
" clip-path="url(#p869d164848)" style="fill: none; stroke: #b0b0b0; stroke-width: 0.8; stroke-linecap: square"/>
     </g>
     <g id="line2d_40">
      <g>
       <use xlink:href="#mbc29fa5698" x="415.536699" y="269.409034" style="stroke: #000000; stroke-width: 0.8"/>
      </g>
     </g>
     <g id="text_21">
      <!-- 0 -->
      <g transform="translate(412.355449 284.007472)scale(0.1 -0.1)">
       <use xlink:href="#DejaVuSans-30"/>
      </g>
     </g>
    </g>
    <g id="xtick_11">
     <g id="line2d_41">
      <path d="M 451.010317 269.409034 
L 451.010317 22.318125 
" clip-path="url(#p869d164848)" style="fill: none; stroke: #b0b0b0; stroke-width: 0.8; stroke-linecap: square"/>
     </g>
     <g id="line2d_42">
      <g>
       <use xlink:href="#mbc29fa5698" x="451.010317" y="269.409034" style="stroke: #000000; stroke-width: 0.8"/>
      </g>
     </g>
     <g id="text_22">
      <!-- 5 -->
      <g transform="translate(447.829067 284.007472)scale(0.1 -0.1)">
       <use xlink:href="#DejaVuSans-35"/>
      </g>
     </g>
    </g>
    <g id="xtick_12">
     <g id="line2d_43">
      <path d="M 486.483934 269.409034 
L 486.483934 22.318125 
" clip-path="url(#p869d164848)" style="fill: none; stroke: #b0b0b0; stroke-width: 0.8; stroke-linecap: square"/>
     </g>
     <g id="line2d_44">
      <g>
       <use xlink:href="#mbc29fa5698" x="486.483934" y="269.409034" style="stroke: #000000; stroke-width: 0.8"/>
      </g>
     </g>
     <g id="text_23">
      <!-- 10 -->
      <g transform="translate(480.121434 284.007472)scale(0.1 -0.1)">
       <use xlink:href="#DejaVuSans-31"/>
       <use xlink:href="#DejaVuSans-30" x="63.623047"/>
      </g>
     </g>
    </g>
    <g id="xtick_13">
     <g id="line2d_45">
      <path d="M 521.957551 269.409034 
L 521.957551 22.318125 
" clip-path="url(#p869d164848)" style="fill: none; stroke: #b0b0b0; stroke-width: 0.8; stroke-linecap: square"/>
     </g>
     <g id="line2d_46">
      <g>
       <use xlink:href="#mbc29fa5698" x="521.957551" y="269.409034" style="stroke: #000000; stroke-width: 0.8"/>
      </g>
     </g>
     <g id="text_24">
      <!-- 15 -->
      <g transform="translate(515.595051 284.007472)scale(0.1 -0.1)">
       <use xlink:href="#DejaVuSans-31"/>
       <use xlink:href="#DejaVuSans-35" x="63.623047"/>
      </g>
     </g>
    </g>
    <g id="xtick_14">
     <g id="line2d_47">
      <path d="M 557.431169 269.409034 
L 557.431169 22.318125 
" clip-path="url(#p869d164848)" style="fill: none; stroke: #b0b0b0; stroke-width: 0.8; stroke-linecap: square"/>
     </g>
     <g id="line2d_48">
      <g>
       <use xlink:href="#mbc29fa5698" x="557.431169" y="269.409034" style="stroke: #000000; stroke-width: 0.8"/>
      </g>
     </g>
     <g id="text_25">
      <!-- 20 -->
      <g transform="translate(551.068669 284.007472)scale(0.1 -0.1)">
       <use xlink:href="#DejaVuSans-32"/>
       <use xlink:href="#DejaVuSans-30" x="63.623047"/>
      </g>
     </g>
    </g>
    <g id="xtick_15">
     <g id="line2d_49">
      <path d="M 592.904786 269.409034 
L 592.904786 22.318125 
" clip-path="url(#p869d164848)" style="fill: none; stroke: #b0b0b0; stroke-width: 0.8; stroke-linecap: square"/>
     </g>
     <g id="line2d_50">
      <g>
       <use xlink:href="#mbc29fa5698" x="592.904786" y="269.409034" style="stroke: #000000; stroke-width: 0.8"/>
      </g>
     </g>
     <g id="text_26">
      <!-- 25 -->
      <g transform="translate(586.542286 284.007472)scale(0.1 -0.1)">
       <use xlink:href="#DejaVuSans-32"/>
       <use xlink:href="#DejaVuSans-35" x="63.623047"/>
      </g>
     </g>
    </g>
    <g id="xtick_16">
     <g id="line2d_51">
      <path d="M 628.378403 269.409034 
L 628.378403 22.318125 
" clip-path="url(#p869d164848)" style="fill: none; stroke: #b0b0b0; stroke-width: 0.8; stroke-linecap: square"/>
     </g>
     <g id="line2d_52">
      <g>
       <use xlink:href="#mbc29fa5698" x="628.378403" y="269.409034" style="stroke: #000000; stroke-width: 0.8"/>
      </g>
     </g>
     <g id="text_27">
      <!-- 30 -->
      <g transform="translate(622.015903 284.007472)scale(0.1 -0.1)">
       <use xlink:href="#DejaVuSans-33"/>
       <use xlink:href="#DejaVuSans-30" x="63.623047"/>
      </g>
     </g>
    </g>
    <g id="xtick_17">
     <g id="line2d_53">
      <path d="M 663.85202 269.409034 
L 663.85202 22.318125 
" clip-path="url(#p869d164848)" style="fill: none; stroke: #b0b0b0; stroke-width: 0.8; stroke-linecap: square"/>
     </g>
     <g id="line2d_54">
      <g>
       <use xlink:href="#mbc29fa5698" x="663.85202" y="269.409034" style="stroke: #000000; stroke-width: 0.8"/>
      </g>
     </g>
     <g id="text_28">
      <!-- 35 -->
      <g transform="translate(657.48952 284.007472)scale(0.1 -0.1)">
       <use xlink:href="#DejaVuSans-33"/>
       <use xlink:href="#DejaVuSans-35" x="63.623047"/>
      </g>
     </g>
    </g>
    <g id="xtick_18">
     <g id="line2d_55">
      <path d="M 699.325638 269.409034 
L 699.325638 22.318125 
" clip-path="url(#p869d164848)" style="fill: none; stroke: #b0b0b0; stroke-width: 0.8; stroke-linecap: square"/>
     </g>
     <g id="line2d_56">
      <g>
       <use xlink:href="#mbc29fa5698" x="699.325638" y="269.409034" style="stroke: #000000; stroke-width: 0.8"/>
      </g>
     </g>
     <g id="text_29">
      <!-- 40 -->
      <g transform="translate(692.963138 284.007472)scale(0.1 -0.1)">
       <use xlink:href="#DejaVuSans-34"/>
       <use xlink:href="#DejaVuSans-30" x="63.623047"/>
      </g>
     </g>
    </g>
   </g>
   <g id="matplotlib.axis_4">
    <g id="ytick_5">
     <g id="line2d_57">
      <path d="M 401.701989 232.289911 
L 706.065625 232.289911 
" clip-path="url(#p869d164848)" style="fill: none; stroke: #b0b0b0; stroke-width: 0.8; stroke-linecap: square"/>
     </g>
     <g id="line2d_58">
      <g>
       <use xlink:href="#mdc73ed29c9" x="401.701989" y="232.289911" style="stroke: #000000; stroke-width: 0.8"/>
      </g>
     </g>
     <g id="text_30">
      <!-- 0.2 -->
      <g transform="translate(378.798864 236.08913)scale(0.1 -0.1)">
       <use xlink:href="#DejaVuSans-30"/>
       <use xlink:href="#DejaVuSans-2e" x="63.623047"/>
       <use xlink:href="#DejaVuSans-32" x="95.410156"/>
      </g>
     </g>
    </g>
    <g id="ytick_6">
     <g id="line2d_59">
      <path d="M 401.701989 178.263366 
L 706.065625 178.263366 
" clip-path="url(#p869d164848)" style="fill: none; stroke: #b0b0b0; stroke-width: 0.8; stroke-linecap: square"/>
     </g>
     <g id="line2d_60">
      <g>
       <use xlink:href="#mdc73ed29c9" x="401.701989" y="178.263366" style="stroke: #000000; stroke-width: 0.8"/>
      </g>
     </g>
     <g id="text_31">
      <!-- 0.4 -->
      <g transform="translate(378.798864 182.062585)scale(0.1 -0.1)">
       <use xlink:href="#DejaVuSans-30"/>
       <use xlink:href="#DejaVuSans-2e" x="63.623047"/>
       <use xlink:href="#DejaVuSans-34" x="95.410156"/>
      </g>
     </g>
    </g>
    <g id="ytick_7">
     <g id="line2d_61">
      <path d="M 401.701989 124.236821 
L 706.065625 124.236821 
" clip-path="url(#p869d164848)" style="fill: none; stroke: #b0b0b0; stroke-width: 0.8; stroke-linecap: square"/>
     </g>
     <g id="line2d_62">
      <g>
       <use xlink:href="#mdc73ed29c9" x="401.701989" y="124.236821" style="stroke: #000000; stroke-width: 0.8"/>
      </g>
     </g>
     <g id="text_32">
      <!-- 0.6 -->
      <g transform="translate(378.798864 128.03604)scale(0.1 -0.1)">
       <defs>
        <path id="DejaVuSans-36" d="M 2113 2584 
Q 1688 2584 1439 2293 
Q 1191 2003 1191 1497 
Q 1191 994 1439 701 
Q 1688 409 2113 409 
Q 2538 409 2786 701 
Q 3034 994 3034 1497 
Q 3034 2003 2786 2293 
Q 2538 2584 2113 2584 
z
M 3366 4563 
L 3366 3988 
Q 3128 4100 2886 4159 
Q 2644 4219 2406 4219 
Q 1781 4219 1451 3797 
Q 1122 3375 1075 2522 
Q 1259 2794 1537 2939 
Q 1816 3084 2150 3084 
Q 2853 3084 3261 2657 
Q 3669 2231 3669 1497 
Q 3669 778 3244 343 
Q 2819 -91 2113 -91 
Q 1303 -91 875 529 
Q 447 1150 447 2328 
Q 447 3434 972 4092 
Q 1497 4750 2381 4750 
Q 2619 4750 2861 4703 
Q 3103 4656 3366 4563 
z
" transform="scale(0.015625)"/>
       </defs>
       <use xlink:href="#DejaVuSans-30"/>
       <use xlink:href="#DejaVuSans-2e" x="63.623047"/>
       <use xlink:href="#DejaVuSans-36" x="95.410156"/>
      </g>
     </g>
    </g>
    <g id="ytick_8">
     <g id="line2d_63">
      <path d="M 401.701989 70.210276 
L 706.065625 70.210276 
" clip-path="url(#p869d164848)" style="fill: none; stroke: #b0b0b0; stroke-width: 0.8; stroke-linecap: square"/>
     </g>
     <g id="line2d_64">
      <g>
       <use xlink:href="#mdc73ed29c9" x="401.701989" y="70.210276" style="stroke: #000000; stroke-width: 0.8"/>
      </g>
     </g>
     <g id="text_33">
      <!-- 0.8 -->
      <g transform="translate(378.798864 74.009495)scale(0.1 -0.1)">
       <defs>
        <path id="DejaVuSans-38" d="M 2034 2216 
Q 1584 2216 1326 1975 
Q 1069 1734 1069 1313 
Q 1069 891 1326 650 
Q 1584 409 2034 409 
Q 2484 409 2743 651 
Q 3003 894 3003 1313 
Q 3003 1734 2745 1975 
Q 2488 2216 2034 2216 
z
M 1403 2484 
Q 997 2584 770 2862 
Q 544 3141 544 3541 
Q 544 4100 942 4425 
Q 1341 4750 2034 4750 
Q 2731 4750 3128 4425 
Q 3525 4100 3525 3541 
Q 3525 3141 3298 2862 
Q 3072 2584 2669 2484 
Q 3125 2378 3379 2068 
Q 3634 1759 3634 1313 
Q 3634 634 3220 271 
Q 2806 -91 2034 -91 
Q 1263 -91 848 271 
Q 434 634 434 1313 
Q 434 1759 690 2068 
Q 947 2378 1403 2484 
z
M 1172 3481 
Q 1172 3119 1398 2916 
Q 1625 2713 2034 2713 
Q 2441 2713 2670 2916 
Q 2900 3119 2900 3481 
Q 2900 3844 2670 4047 
Q 2441 4250 2034 4250 
Q 1625 4250 1398 4047 
Q 1172 3844 1172 3481 
z
" transform="scale(0.015625)"/>
       </defs>
       <use xlink:href="#DejaVuSans-30"/>
       <use xlink:href="#DejaVuSans-2e" x="63.623047"/>
       <use xlink:href="#DejaVuSans-38" x="95.410156"/>
      </g>
     </g>
    </g>
   </g>
   <g id="line2d_65">
    <path d="M 415.536699 258.177629 
L 422.631423 253.862106 
L 429.726146 248.387662 
L 436.82087 225.583489 
L 443.915593 201.092788 
L 451.010317 177.589651 
L 458.10504 145.956014 
L 465.199764 126.92624 
L 472.294487 120.049352 
L 479.389211 114.863521 
L 486.483934 109.646116 
L 493.578657 103.77935 
L 500.673381 98.043359 
L 507.768104 93.646662 
L 514.862828 90.521635 
L 521.957551 88.068494 
L 529.052275 85.949065 
L 536.146998 84.190399 
L 543.241722 82.327994 
L 550.336445 80.934583 
L 557.431169 79.08121 
L 564.525892 77.561533 
L 571.620615 76.686709 
L 578.715339 75.099392 
L 585.810062 73.818705 
L 592.904786 72.470393 
L 599.999509 71.487337 
L 607.094233 70.06686 
L 614.188956 69.476124 
L 621.28368 67.965464 
L 628.378403 66.459329 
L 635.473127 65.593521 
L 642.56785 65.214725 
L 649.662574 63.970121 
L 656.757297 63.054706 
L 663.85202 62.013025 
L 670.946744 61.940875 
L 678.041467 61.088592 
L 685.136191 60.105536 
L 692.230914 60.308459 
" clip-path="url(#p869d164848)" style="fill: none; stroke: #1f77b4; stroke-width: 1.5; stroke-linecap: square"/>
   </g>
   <g id="line2d_66">
    <path d="M 415.536699 75.081342 
L 422.631423 57.381847 
L 429.726146 54.058405 
L 436.82087 51.835253 
L 443.915593 50.752981 
L 451.010317 49.481327 
L 458.10504 47.89401 
L 465.199764 47.186025 
L 472.294487 46.491582 
L 479.389211 45.251486 
L 486.483934 44.714867 
L 493.578657 44.304513 
L 500.673381 43.623578 
L 507.768104 42.73072 
L 514.862828 42.514272 
L 521.957551 41.887454 
L 529.052275 41.197519 
L 536.146998 40.408369 
L 543.241722 39.979965 
L 550.336445 39.772534 
L 557.431169 39.249439 
L 564.525892 39.055533 
L 571.620615 38.288924 
L 578.715339 37.99131 
L 585.810062 37.571939 
L 592.904786 37.13001 
L 599.999509 36.358893 
" clip-path="url(#p869d164848)" style="fill: none; stroke: #ff7f0e; stroke-width: 1.5; stroke-linecap: square"/>
   </g>
   <g id="line2d_67">
    <path d="M 415.536699 88.154184 
L 422.631423 58.180014 
L 429.726146 53.702151 
L 436.82087 51.384308 
L 443.915593 49.35957 
L 451.010317 47.993225 
L 458.10504 46.378842 
L 465.199764 45.963979 
L 472.294487 44.155689 
L 479.389211 43.691219 
L 486.483934 42.717195 
L 493.578657 41.156928 
L 500.673381 40.548159 
L 507.768104 39.673318 
L 514.862828 39.29003 
" clip-path="url(#p869d164848)" style="fill: none; stroke: #2ca02c; stroke-width: 1.5; stroke-linecap: square"/>
   </g>
   <g id="line2d_68">
    <path d="M 415.536699 84.091184 
L 422.631423 59.077396 
L 429.726146 54.743832 
L 436.82087 51.677413 
L 443.915593 50.202836 
L 451.010317 48.142032 
L 458.10504 46.838804 
L 465.199764 45.38226 
L 472.294487 45.066597 
L 479.389211 43.637119 
L 486.483934 43.041875 
L 493.578657 41.928045 
L 500.673381 41.580807 
L 507.768104 40.020556 
L 514.862828 40.070148 
L 521.957551 39.168273 
L 529.052275 38.410681 
L 536.146998 37.69368 
L 543.241722 36.77828 
L 550.336445 36.498684 
L 557.431169 35.393886 
L 564.525892 35.046648 
L 571.620615 34.171824 
L 578.715339 33.802045 
L 585.810062 33.54953 
" clip-path="url(#p869d164848)" style="fill: none; stroke: #d62728; stroke-width: 1.5; stroke-linecap: square"/>
   </g>
   <g id="line2d_69">
    <path d="M 415.536699 73.728522 
L 422.631423 57.51262 
L 429.726146 54.297395 
L 436.82087 52.863393 
L 443.915593 50.789064 
L 451.010317 49.580542 
L 458.10504 48.552386 
L 465.199764 48.209673 
L 472.294487 47.03271 
L 479.389211 46.21651 
L 486.483934 45.021513 
L 493.578657 44.133148 
L 500.673381 43.921208 
L 507.768104 43.168124 
L 514.862828 42.604455 
L 521.957551 42.324874 
L 529.052275 41.436509 
L 536.146998 41.323768 
L 543.241722 40.593242 
L 550.336445 40.367778 
L 557.431169 39.889782 
L 564.525892 39.470395 
" clip-path="url(#p869d164848)" style="fill: none; stroke: #9467bd; stroke-width: 1.5; stroke-linecap: square"/>
   </g>
   <g id="line2d_70">
    <path d="M 415.536699 107.382373 
L 422.631423 66.021909 
L 429.726146 59.99732 
L 436.82087 57.390863 
L 443.915593 54.856572 
L 451.010317 53.42257 
L 458.10504 52.0968 
L 465.199764 51.037086 
L 472.294487 50.897296 
L 479.389211 50.045013 
L 486.483934 48.813934 
L 493.578657 48.268297 
L 500.673381 47.537771 
" clip-path="url(#p869d164848)" style="fill: none; stroke: #8c564b; stroke-width: 1.5; stroke-linecap: square"/>
   </g>
   <g id="patch_9">
    <path d="M 401.701989 269.409034 
L 401.701989 22.318125 
" style="fill: none; stroke: #000000; stroke-width: 0.8; stroke-linejoin: miter; stroke-linecap: square"/>
   </g>
   <g id="patch_10">
    <path d="M 706.065625 269.409034 
L 706.065625 22.318125 
" style="fill: none; stroke: #000000; stroke-width: 0.8; stroke-linejoin: miter; stroke-linecap: square"/>
   </g>
   <g id="patch_11">
    <path d="M 401.701989 269.409034 
L 706.065625 269.409034 
" style="fill: none; stroke: #000000; stroke-width: 0.8; stroke-linejoin: miter; stroke-linecap: square"/>
   </g>
   <g id="patch_12">
    <path d="M 401.701989 22.318125 
L 706.065625 22.318125 
" style="fill: none; stroke: #000000; stroke-width: 0.8; stroke-linejoin: miter; stroke-linecap: square"/>
   </g>
   <g id="text_34">
    <!-- Train accuracy -->
    <g transform="translate(510.513182 16.318125)scale(0.12 -0.12)">
     <defs>
      <path id="DejaVuSans-63" d="M 3122 3366 
L 3122 2828 
Q 2878 2963 2633 3030 
Q 2388 3097 2138 3097 
Q 1578 3097 1268 2742 
Q 959 2388 959 1747 
Q 959 1106 1268 751 
Q 1578 397 2138 397 
Q 2388 397 2633 464 
Q 2878 531 3122 666 
L 3122 134 
Q 2881 22 2623 -34 
Q 2366 -91 2075 -91 
Q 1284 -91 818 406 
Q 353 903 353 1747 
Q 353 2603 823 3093 
Q 1294 3584 2113 3584 
Q 2378 3584 2631 3529 
Q 2884 3475 3122 3366 
z
" transform="scale(0.015625)"/>
     </defs>
     <use xlink:href="#DejaVuSans-54"/>
     <use xlink:href="#DejaVuSans-72" x="46.333984"/>
     <use xlink:href="#DejaVuSans-61" x="87.447266"/>
     <use xlink:href="#DejaVuSans-69" x="148.726562"/>
     <use xlink:href="#DejaVuSans-6e" x="176.509766"/>
     <use xlink:href="#DejaVuSans-20" x="239.888672"/>
     <use xlink:href="#DejaVuSans-61" x="271.675781"/>
     <use xlink:href="#DejaVuSans-63" x="332.955078"/>
     <use xlink:href="#DejaVuSans-63" x="387.935547"/>
     <use xlink:href="#DejaVuSans-75" x="442.916016"/>
     <use xlink:href="#DejaVuSans-72" x="506.294922"/>
     <use xlink:href="#DejaVuSans-61" x="547.408203"/>
     <use xlink:href="#DejaVuSans-63" x="608.6875"/>
     <use xlink:href="#DejaVuSans-79" x="663.667969"/>
    </g>
   </g>
   <g id="legend_2">
    <g id="patch_13">
     <path d="M 621.504687 264.409034 
L 699.065625 264.409034 
Q 701.065625 264.409034 701.065625 262.409034 
L 701.065625 175.340284 
Q 701.065625 173.340284 699.065625 173.340284 
L 621.504687 173.340284 
Q 619.504687 173.340284 619.504687 175.340284 
L 619.504687 262.409034 
Q 619.504687 264.409034 621.504687 264.409034 
z
" style="fill: #ffffff; opacity: 0.8; stroke: #cccccc; stroke-linejoin: miter"/>
    </g>
    <g id="line2d_71">
     <path d="M 623.504687 181.438722 
L 633.504687 181.438722 
L 643.504687 181.438722 
" style="fill: none; stroke: #1f77b4; stroke-width: 1.5; stroke-linecap: square"/>
    </g>
    <g id="text_35">
     <!-- sigmoid -->
     <g transform="translate(651.504687 184.938722)scale(0.1 -0.1)">
      <use xlink:href="#DejaVuSans-73"/>
      <use xlink:href="#DejaVuSans-69" x="52.099609"/>
      <use xlink:href="#DejaVuSans-67" x="79.882812"/>
      <use xlink:href="#DejaVuSans-6d" x="143.359375"/>
      <use xlink:href="#DejaVuSans-6f" x="240.771484"/>
      <use xlink:href="#DejaVuSans-69" x="301.953125"/>
      <use xlink:href="#DejaVuSans-64" x="329.736328"/>
     </g>
    </g>
    <g id="line2d_72">
     <path d="M 623.504687 196.116847 
L 633.504687 196.116847 
L 643.504687 196.116847 
" style="fill: none; stroke: #ff7f0e; stroke-width: 1.5; stroke-linecap: square"/>
    </g>
    <g id="text_36">
     <!-- tanh -->
     <g transform="translate(651.504687 199.616847)scale(0.1 -0.1)">
      <use xlink:href="#DejaVuSans-74"/>
      <use xlink:href="#DejaVuSans-61" x="39.208984"/>
      <use xlink:href="#DejaVuSans-6e" x="100.488281"/>
      <use xlink:href="#DejaVuSans-68" x="163.867188"/>
     </g>
    </g>
    <g id="line2d_73">
     <path d="M 623.504687 210.794972 
L 633.504687 210.794972 
L 643.504687 210.794972 
" style="fill: none; stroke: #2ca02c; stroke-width: 1.5; stroke-linecap: square"/>
    </g>
    <g id="text_37">
     <!-- relu -->
     <g transform="translate(651.504687 214.294972)scale(0.1 -0.1)">
      <use xlink:href="#DejaVuSans-72"/>
      <use xlink:href="#DejaVuSans-65" x="38.863281"/>
      <use xlink:href="#DejaVuSans-6c" x="100.386719"/>
      <use xlink:href="#DejaVuSans-75" x="128.169922"/>
     </g>
    </g>
    <g id="line2d_74">
     <path d="M 623.504687 225.473097 
L 633.504687 225.473097 
L 643.504687 225.473097 
" style="fill: none; stroke: #d62728; stroke-width: 1.5; stroke-linecap: square"/>
    </g>
    <g id="text_38">
     <!-- leakyrelu -->
     <g transform="translate(651.504687 228.973097)scale(0.1 -0.1)">
      <use xlink:href="#DejaVuSans-6c"/>
      <use xlink:href="#DejaVuSans-65" x="27.783203"/>
      <use xlink:href="#DejaVuSans-61" x="89.306641"/>
      <use xlink:href="#DejaVuSans-6b" x="150.585938"/>
      <use xlink:href="#DejaVuSans-79" x="204.871094"/>
      <use xlink:href="#DejaVuSans-72" x="264.050781"/>
      <use xlink:href="#DejaVuSans-65" x="302.914062"/>
      <use xlink:href="#DejaVuSans-6c" x="364.4375"/>
      <use xlink:href="#DejaVuSans-75" x="392.220703"/>
     </g>
    </g>
    <g id="line2d_75">
     <path d="M 623.504687 240.151222 
L 633.504687 240.151222 
L 643.504687 240.151222 
" style="fill: none; stroke: #9467bd; stroke-width: 1.5; stroke-linecap: square"/>
    </g>
    <g id="text_39">
     <!-- elu -->
     <g transform="translate(651.504687 243.651222)scale(0.1 -0.1)">
      <use xlink:href="#DejaVuSans-65"/>
      <use xlink:href="#DejaVuSans-6c" x="61.523438"/>
      <use xlink:href="#DejaVuSans-75" x="89.306641"/>
     </g>
    </g>
    <g id="line2d_76">
     <path d="M 623.504687 254.829347 
L 633.504687 254.829347 
L 643.504687 254.829347 
" style="fill: none; stroke: #8c564b; stroke-width: 1.5; stroke-linecap: square"/>
    </g>
    <g id="text_40">
     <!-- swish -->
     <g transform="translate(651.504687 258.329347)scale(0.1 -0.1)">
      <use xlink:href="#DejaVuSans-73"/>
      <use xlink:href="#DejaVuSans-77" x="52.099609"/>
      <use xlink:href="#DejaVuSans-69" x="133.886719"/>
      <use xlink:href="#DejaVuSans-73" x="161.669922"/>
      <use xlink:href="#DejaVuSans-68" x="213.769531"/>
     </g>
    </g>
   </g>
  </g>
  <g id="axes_3">
   <g id="patch_14">
    <path d="M 36.465625 565.918125 
L 340.829261 565.918125 
L 340.829261 318.827216 
L 36.465625 318.827216 
z
" style="fill: #ffffff"/>
   </g>
   <g id="matplotlib.axis_5">
    <g id="xtick_19">
     <g id="line2d_77">
      <path d="M 50.300336 565.918125 
L 50.300336 318.827216 
" clip-path="url(#pc7aaed104f)" style="fill: none; stroke: #b0b0b0; stroke-width: 0.8; stroke-linecap: square"/>
     </g>
     <g id="line2d_78">
      <g>
       <use xlink:href="#mbc29fa5698" x="50.300336" y="565.918125" style="stroke: #000000; stroke-width: 0.8"/>
      </g>
     </g>
     <g id="text_41">
      <!-- 0 -->
      <g transform="translate(47.119086 580.516562)scale(0.1 -0.1)">
       <use xlink:href="#DejaVuSans-30"/>
      </g>
     </g>
    </g>
    <g id="xtick_20">
     <g id="line2d_79">
      <path d="M 85.773953 565.918125 
L 85.773953 318.827216 
" clip-path="url(#pc7aaed104f)" style="fill: none; stroke: #b0b0b0; stroke-width: 0.8; stroke-linecap: square"/>
     </g>
     <g id="line2d_80">
      <g>
       <use xlink:href="#mbc29fa5698" x="85.773953" y="565.918125" style="stroke: #000000; stroke-width: 0.8"/>
      </g>
     </g>
     <g id="text_42">
      <!-- 5 -->
      <g transform="translate(82.592703 580.516562)scale(0.1 -0.1)">
       <use xlink:href="#DejaVuSans-35"/>
      </g>
     </g>
    </g>
    <g id="xtick_21">
     <g id="line2d_81">
      <path d="M 121.24757 565.918125 
L 121.24757 318.827216 
" clip-path="url(#pc7aaed104f)" style="fill: none; stroke: #b0b0b0; stroke-width: 0.8; stroke-linecap: square"/>
     </g>
     <g id="line2d_82">
      <g>
       <use xlink:href="#mbc29fa5698" x="121.24757" y="565.918125" style="stroke: #000000; stroke-width: 0.8"/>
      </g>
     </g>
     <g id="text_43">
      <!-- 10 -->
      <g transform="translate(114.88507 580.516562)scale(0.1 -0.1)">
       <use xlink:href="#DejaVuSans-31"/>
       <use xlink:href="#DejaVuSans-30" x="63.623047"/>
      </g>
     </g>
    </g>
    <g id="xtick_22">
     <g id="line2d_83">
      <path d="M 156.721188 565.918125 
L 156.721188 318.827216 
" clip-path="url(#pc7aaed104f)" style="fill: none; stroke: #b0b0b0; stroke-width: 0.8; stroke-linecap: square"/>
     </g>
     <g id="line2d_84">
      <g>
       <use xlink:href="#mbc29fa5698" x="156.721188" y="565.918125" style="stroke: #000000; stroke-width: 0.8"/>
      </g>
     </g>
     <g id="text_44">
      <!-- 15 -->
      <g transform="translate(150.358688 580.516562)scale(0.1 -0.1)">
       <use xlink:href="#DejaVuSans-31"/>
       <use xlink:href="#DejaVuSans-35" x="63.623047"/>
      </g>
     </g>
    </g>
    <g id="xtick_23">
     <g id="line2d_85">
      <path d="M 192.194805 565.918125 
L 192.194805 318.827216 
" clip-path="url(#pc7aaed104f)" style="fill: none; stroke: #b0b0b0; stroke-width: 0.8; stroke-linecap: square"/>
     </g>
     <g id="line2d_86">
      <g>
       <use xlink:href="#mbc29fa5698" x="192.194805" y="565.918125" style="stroke: #000000; stroke-width: 0.8"/>
      </g>
     </g>
     <g id="text_45">
      <!-- 20 -->
      <g transform="translate(185.832305 580.516562)scale(0.1 -0.1)">
       <use xlink:href="#DejaVuSans-32"/>
       <use xlink:href="#DejaVuSans-30" x="63.623047"/>
      </g>
     </g>
    </g>
    <g id="xtick_24">
     <g id="line2d_87">
      <path d="M 227.668422 565.918125 
L 227.668422 318.827216 
" clip-path="url(#pc7aaed104f)" style="fill: none; stroke: #b0b0b0; stroke-width: 0.8; stroke-linecap: square"/>
     </g>
     <g id="line2d_88">
      <g>
       <use xlink:href="#mbc29fa5698" x="227.668422" y="565.918125" style="stroke: #000000; stroke-width: 0.8"/>
      </g>
     </g>
     <g id="text_46">
      <!-- 25 -->
      <g transform="translate(221.305922 580.516562)scale(0.1 -0.1)">
       <use xlink:href="#DejaVuSans-32"/>
       <use xlink:href="#DejaVuSans-35" x="63.623047"/>
      </g>
     </g>
    </g>
    <g id="xtick_25">
     <g id="line2d_89">
      <path d="M 263.142039 565.918125 
L 263.142039 318.827216 
" clip-path="url(#pc7aaed104f)" style="fill: none; stroke: #b0b0b0; stroke-width: 0.8; stroke-linecap: square"/>
     </g>
     <g id="line2d_90">
      <g>
       <use xlink:href="#mbc29fa5698" x="263.142039" y="565.918125" style="stroke: #000000; stroke-width: 0.8"/>
      </g>
     </g>
     <g id="text_47">
      <!-- 30 -->
      <g transform="translate(256.779539 580.516562)scale(0.1 -0.1)">
       <use xlink:href="#DejaVuSans-33"/>
       <use xlink:href="#DejaVuSans-30" x="63.623047"/>
      </g>
     </g>
    </g>
    <g id="xtick_26">
     <g id="line2d_91">
      <path d="M 298.615657 565.918125 
L 298.615657 318.827216 
" clip-path="url(#pc7aaed104f)" style="fill: none; stroke: #b0b0b0; stroke-width: 0.8; stroke-linecap: square"/>
     </g>
     <g id="line2d_92">
      <g>
       <use xlink:href="#mbc29fa5698" x="298.615657" y="565.918125" style="stroke: #000000; stroke-width: 0.8"/>
      </g>
     </g>
     <g id="text_48">
      <!-- 35 -->
      <g transform="translate(292.253157 580.516562)scale(0.1 -0.1)">
       <use xlink:href="#DejaVuSans-33"/>
       <use xlink:href="#DejaVuSans-35" x="63.623047"/>
      </g>
     </g>
    </g>
    <g id="xtick_27">
     <g id="line2d_93">
      <path d="M 334.089274 565.918125 
L 334.089274 318.827216 
" clip-path="url(#pc7aaed104f)" style="fill: none; stroke: #b0b0b0; stroke-width: 0.8; stroke-linecap: square"/>
     </g>
     <g id="line2d_94">
      <g>
       <use xlink:href="#mbc29fa5698" x="334.089274" y="565.918125" style="stroke: #000000; stroke-width: 0.8"/>
      </g>
     </g>
     <g id="text_49">
      <!-- 40 -->
      <g transform="translate(327.726774 580.516562)scale(0.1 -0.1)">
       <use xlink:href="#DejaVuSans-34"/>
       <use xlink:href="#DejaVuSans-30" x="63.623047"/>
      </g>
     </g>
    </g>
   </g>
   <g id="matplotlib.axis_6">
    <g id="ytick_9">
     <g id="line2d_95">
      <path d="M 36.465625 558.890383 
L 340.829261 558.890383 
" clip-path="url(#pc7aaed104f)" style="fill: none; stroke: #b0b0b0; stroke-width: 0.8; stroke-linecap: square"/>
     </g>
     <g id="line2d_96">
      <g>
       <use xlink:href="#mdc73ed29c9" x="36.465625" y="558.890383" style="stroke: #000000; stroke-width: 0.8"/>
      </g>
     </g>
     <g id="text_50">
      <!-- 0.25 -->
      <g transform="translate(7.2 562.689602)scale(0.1 -0.1)">
       <use xlink:href="#DejaVuSans-30"/>
       <use xlink:href="#DejaVuSans-2e" x="63.623047"/>
       <use xlink:href="#DejaVuSans-32" x="95.410156"/>
       <use xlink:href="#DejaVuSans-35" x="159.033203"/>
      </g>
     </g>
    </g>
    <g id="ytick_10">
     <g id="line2d_97">
      <path d="M 36.465625 531.026568 
L 340.829261 531.026568 
" clip-path="url(#pc7aaed104f)" style="fill: none; stroke: #b0b0b0; stroke-width: 0.8; stroke-linecap: square"/>
     </g>
     <g id="line2d_98">
      <g>
       <use xlink:href="#mdc73ed29c9" x="36.465625" y="531.026568" style="stroke: #000000; stroke-width: 0.8"/>
      </g>
     </g>
     <g id="text_51">
      <!-- 0.50 -->
      <g transform="translate(7.2 534.825786)scale(0.1 -0.1)">
       <use xlink:href="#DejaVuSans-30"/>
       <use xlink:href="#DejaVuSans-2e" x="63.623047"/>
       <use xlink:href="#DejaVuSans-35" x="95.410156"/>
       <use xlink:href="#DejaVuSans-30" x="159.033203"/>
      </g>
     </g>
    </g>
    <g id="ytick_11">
     <g id="line2d_99">
      <path d="M 36.465625 503.162752 
L 340.829261 503.162752 
" clip-path="url(#pc7aaed104f)" style="fill: none; stroke: #b0b0b0; stroke-width: 0.8; stroke-linecap: square"/>
     </g>
     <g id="line2d_100">
      <g>
       <use xlink:href="#mdc73ed29c9" x="36.465625" y="503.162752" style="stroke: #000000; stroke-width: 0.8"/>
      </g>
     </g>
     <g id="text_52">
      <!-- 0.75 -->
      <g transform="translate(7.2 506.961971)scale(0.1 -0.1)">
       <defs>
        <path id="DejaVuSans-37" d="M 525 4666 
L 3525 4666 
L 3525 4397 
L 1831 0 
L 1172 0 
L 2766 4134 
L 525 4134 
L 525 4666 
z
" transform="scale(0.015625)"/>
       </defs>
       <use xlink:href="#DejaVuSans-30"/>
       <use xlink:href="#DejaVuSans-2e" x="63.623047"/>
       <use xlink:href="#DejaVuSans-37" x="95.410156"/>
       <use xlink:href="#DejaVuSans-35" x="159.033203"/>
      </g>
     </g>
    </g>
    <g id="ytick_12">
     <g id="line2d_101">
      <path d="M 36.465625 475.298936 
L 340.829261 475.298936 
" clip-path="url(#pc7aaed104f)" style="fill: none; stroke: #b0b0b0; stroke-width: 0.8; stroke-linecap: square"/>
     </g>
     <g id="line2d_102">
      <g>
       <use xlink:href="#mdc73ed29c9" x="36.465625" y="475.298936" style="stroke: #000000; stroke-width: 0.8"/>
      </g>
     </g>
     <g id="text_53">
      <!-- 1.00 -->
      <g transform="translate(7.2 479.098155)scale(0.1 -0.1)">
       <use xlink:href="#DejaVuSans-31"/>
       <use xlink:href="#DejaVuSans-2e" x="63.623047"/>
       <use xlink:href="#DejaVuSans-30" x="95.410156"/>
       <use xlink:href="#DejaVuSans-30" x="159.033203"/>
      </g>
     </g>
    </g>
    <g id="ytick_13">
     <g id="line2d_103">
      <path d="M 36.465625 447.43512 
L 340.829261 447.43512 
" clip-path="url(#pc7aaed104f)" style="fill: none; stroke: #b0b0b0; stroke-width: 0.8; stroke-linecap: square"/>
     </g>
     <g id="line2d_104">
      <g>
       <use xlink:href="#mdc73ed29c9" x="36.465625" y="447.43512" style="stroke: #000000; stroke-width: 0.8"/>
      </g>
     </g>
     <g id="text_54">
      <!-- 1.25 -->
      <g transform="translate(7.2 451.234339)scale(0.1 -0.1)">
       <use xlink:href="#DejaVuSans-31"/>
       <use xlink:href="#DejaVuSans-2e" x="63.623047"/>
       <use xlink:href="#DejaVuSans-32" x="95.410156"/>
       <use xlink:href="#DejaVuSans-35" x="159.033203"/>
      </g>
     </g>
    </g>
    <g id="ytick_14">
     <g id="line2d_105">
      <path d="M 36.465625 419.571305 
L 340.829261 419.571305 
" clip-path="url(#pc7aaed104f)" style="fill: none; stroke: #b0b0b0; stroke-width: 0.8; stroke-linecap: square"/>
     </g>
     <g id="line2d_106">
      <g>
       <use xlink:href="#mdc73ed29c9" x="36.465625" y="419.571305" style="stroke: #000000; stroke-width: 0.8"/>
      </g>
     </g>
     <g id="text_55">
      <!-- 1.50 -->
      <g transform="translate(7.2 423.370523)scale(0.1 -0.1)">
       <use xlink:href="#DejaVuSans-31"/>
       <use xlink:href="#DejaVuSans-2e" x="63.623047"/>
       <use xlink:href="#DejaVuSans-35" x="95.410156"/>
       <use xlink:href="#DejaVuSans-30" x="159.033203"/>
      </g>
     </g>
    </g>
    <g id="ytick_15">
     <g id="line2d_107">
      <path d="M 36.465625 391.707489 
L 340.829261 391.707489 
" clip-path="url(#pc7aaed104f)" style="fill: none; stroke: #b0b0b0; stroke-width: 0.8; stroke-linecap: square"/>
     </g>
     <g id="line2d_108">
      <g>
       <use xlink:href="#mdc73ed29c9" x="36.465625" y="391.707489" style="stroke: #000000; stroke-width: 0.8"/>
      </g>
     </g>
     <g id="text_56">
      <!-- 1.75 -->
      <g transform="translate(7.2 395.506707)scale(0.1 -0.1)">
       <use xlink:href="#DejaVuSans-31"/>
       <use xlink:href="#DejaVuSans-2e" x="63.623047"/>
       <use xlink:href="#DejaVuSans-37" x="95.410156"/>
       <use xlink:href="#DejaVuSans-35" x="159.033203"/>
      </g>
     </g>
    </g>
    <g id="ytick_16">
     <g id="line2d_109">
      <path d="M 36.465625 363.843673 
L 340.829261 363.843673 
" clip-path="url(#pc7aaed104f)" style="fill: none; stroke: #b0b0b0; stroke-width: 0.8; stroke-linecap: square"/>
     </g>
     <g id="line2d_110">
      <g>
       <use xlink:href="#mdc73ed29c9" x="36.465625" y="363.843673" style="stroke: #000000; stroke-width: 0.8"/>
      </g>
     </g>
     <g id="text_57">
      <!-- 2.00 -->
      <g transform="translate(7.2 367.642892)scale(0.1 -0.1)">
       <use xlink:href="#DejaVuSans-32"/>
       <use xlink:href="#DejaVuSans-2e" x="63.623047"/>
       <use xlink:href="#DejaVuSans-30" x="95.410156"/>
       <use xlink:href="#DejaVuSans-30" x="159.033203"/>
      </g>
     </g>
    </g>
    <g id="ytick_17">
     <g id="line2d_111">
      <path d="M 36.465625 335.979857 
L 340.829261 335.979857 
" clip-path="url(#pc7aaed104f)" style="fill: none; stroke: #b0b0b0; stroke-width: 0.8; stroke-linecap: square"/>
     </g>
     <g id="line2d_112">
      <g>
       <use xlink:href="#mdc73ed29c9" x="36.465625" y="335.979857" style="stroke: #000000; stroke-width: 0.8"/>
      </g>
     </g>
     <g id="text_58">
      <!-- 2.25 -->
      <g transform="translate(7.2 339.779076)scale(0.1 -0.1)">
       <use xlink:href="#DejaVuSans-32"/>
       <use xlink:href="#DejaVuSans-2e" x="63.623047"/>
       <use xlink:href="#DejaVuSans-32" x="95.410156"/>
       <use xlink:href="#DejaVuSans-35" x="159.033203"/>
      </g>
     </g>
    </g>
   </g>
   <g id="line2d_113">
    <path d="M 50.300336 330.058621 
L 57.395059 331.358865 
L 64.489783 333.468203 
L 71.584506 353.317547 
L 78.67923 404.178891 
L 85.773953 427.894089 
L 92.868676 452.735452 
L 99.9634 467.580873 
L 107.058123 478.728156 
L 114.152847 485.448263 
L 121.24757 493.077898 
L 128.342294 495.45581 
L 135.437017 497.416778 
L 142.531741 500.028745 
L 149.626464 505.452601 
L 156.721188 507.447463 
L 163.815911 510.237815 
L 170.910635 511.349211 
L 178.005358 511.864455 
L 185.100081 511.904221 
L 192.194805 515.178759 
L 199.289528 514.176924 
L 206.384252 513.844761 
L 213.478975 518.766155 
L 220.573699 523.693747 
L 227.668422 521.718987 
L 234.763146 520.894892 
L 241.857869 523.736742 
L 248.952593 525.396983 
L 256.047316 525.444921 
L 263.142039 528.048219 
L 270.236763 526.687747 
L 277.331486 526.218448 
L 284.42621 530.209062 
L 291.520933 530.705858 
L 298.615657 529.625672 
L 305.71038 530.067694 
L 312.805104 531.607812 
L 319.899827 534.202454 
L 326.994551 533.337117 
" clip-path="url(#pc7aaed104f)" style="fill: none; stroke: #1f77b4; stroke-width: 1.5; stroke-linecap: square"/>
   </g>
   <g id="line2d_114">
    <path d="M 50.300336 535.275618 
L 57.395059 539.056216 
L 64.489783 539.024478 
L 71.584506 546.591912 
L 78.67923 546.061568 
L 85.773953 546.300711 
L 92.868676 545.407858 
L 99.9634 544.736368 
L 107.058123 549.799958 
L 114.152847 538.982824 
L 121.24757 548.751148 
L 128.342294 546.621348 
L 135.437017 550.032631 
L 142.531741 547.492129 
L 149.626464 547.081131 
L 156.721188 551.077452 
L 163.815911 551.818818 
L 170.910635 548.868687 
L 178.005358 553.637046 
L 185.100081 554.68672 
L 192.194805 548.2161 
L 199.289528 550.833163 
L 206.384252 552.772879 
L 213.478975 552.704899 
L 220.573699 549.963747 
L 227.668422 552.05303 
L 234.763146 550.738968 
" clip-path="url(#pc7aaed104f)" style="fill: none; stroke: #ff7f0e; stroke-width: 1.5; stroke-linecap: square"/>
   </g>
   <g id="line2d_115">
    <path d="M 50.300336 531.440615 
L 57.395059 537.880762 
L 64.489783 544.037917 
L 71.584506 544.741972 
L 78.67923 545.859287 
L 85.773953 545.379522 
L 92.868676 545.23905 
L 99.9634 551.676108 
L 107.058123 547.035887 
L 114.152847 548.161426 
L 121.24757 551.640756 
L 128.342294 551.039618 
L 135.437017 548.438968 
L 142.531741 550.010861 
L 149.626464 550.918462 
" clip-path="url(#pc7aaed104f)" style="fill: none; stroke: #2ca02c; stroke-width: 1.5; stroke-linecap: square"/>
   </g>
   <g id="line2d_116">
    <path d="M 50.300336 530.207309 
L 57.395059 536.520364 
L 64.489783 540.393668 
L 71.584506 547.012855 
L 78.67923 546.811597 
L 85.773953 544.576389 
L 92.868676 546.945333 
L 99.9634 547.434761 
L 107.058123 549.785163 
L 114.152847 547.442437 
L 121.24757 549.780128 
L 128.342294 549.466018 
L 135.437017 548.250183 
L 142.531741 549.923941 
L 149.626464 549.236729 
L 156.721188 549.689318 
L 163.815911 551.35689 
L 170.910635 552.538023 
L 178.005358 547.334906 
L 185.100081 548.933319 
L 192.194805 550.97475 
L 199.289528 549.270504 
L 206.384252 548.438809 
L 213.478975 548.34205 
L 220.573699 549.035698 
" clip-path="url(#pc7aaed104f)" style="fill: none; stroke: #d62728; stroke-width: 1.5; stroke-linecap: square"/>
   </g>
   <g id="line2d_117">
    <path d="M 50.300336 532.804056 
L 57.395059 536.364022 
L 64.489783 540.241169 
L 71.584506 544.041773 
L 78.67923 542.900383 
L 85.773953 542.856438 
L 92.868676 547.194853 
L 99.9634 545.518086 
L 107.058123 546.533846 
L 114.152847 547.90115 
L 121.24757 549.713589 
L 128.342294 544.955181 
L 135.437017 550.808224 
L 142.531741 548.344979 
L 149.626464 552.858707 
L 156.721188 547.830433 
L 163.815911 550.115452 
L 170.910635 549.168088 
L 178.005358 551.418167 
L 185.100081 548.557922 
L 192.194805 550.780814 
L 199.289528 545.760462 
" clip-path="url(#pc7aaed104f)" style="fill: none; stroke: #9467bd; stroke-width: 1.5; stroke-linecap: square"/>
   </g>
   <g id="line2d_118">
    <path d="M 50.300336 524.50898 
L 57.395059 529.30667 
L 64.489783 533.306774 
L 71.584506 540.551635 
L 78.67923 538.000019 
L 85.773953 546.269853 
L 92.868676 542.847715 
L 99.9634 540.911679 
L 107.058123 545.591205 
L 114.152847 543.672372 
L 121.24757 545.885212 
L 128.342294 545.095639 
L 135.437017 541.61233 
" clip-path="url(#pc7aaed104f)" style="fill: none; stroke: #8c564b; stroke-width: 1.5; stroke-linecap: square"/>
   </g>
   <g id="patch_15">
    <path d="M 36.465625 565.918125 
L 36.465625 318.827216 
" style="fill: none; stroke: #000000; stroke-width: 0.8; stroke-linejoin: miter; stroke-linecap: square"/>
   </g>
   <g id="patch_16">
    <path d="M 340.829261 565.918125 
L 340.829261 318.827216 
" style="fill: none; stroke: #000000; stroke-width: 0.8; stroke-linejoin: miter; stroke-linecap: square"/>
   </g>
   <g id="patch_17">
    <path d="M 36.465625 565.918125 
L 340.829261 565.918125 
" style="fill: none; stroke: #000000; stroke-width: 0.8; stroke-linejoin: miter; stroke-linecap: square"/>
   </g>
   <g id="patch_18">
    <path d="M 36.465625 318.827216 
L 340.829261 318.827216 
" style="fill: none; stroke: #000000; stroke-width: 0.8; stroke-linejoin: miter; stroke-linecap: square"/>
   </g>
   <g id="text_59">
    <!-- Valid loss -->
    <g transform="translate(160.692131 312.827216)scale(0.12 -0.12)">
     <defs>
      <path id="DejaVuSans-56" d="M 1831 0 
L 50 4666 
L 709 4666 
L 2188 738 
L 3669 4666 
L 4325 4666 
L 2547 0 
L 1831 0 
z
" transform="scale(0.015625)"/>
     </defs>
     <use xlink:href="#DejaVuSans-56"/>
     <use xlink:href="#DejaVuSans-61" x="60.658203"/>
     <use xlink:href="#DejaVuSans-6c" x="121.9375"/>
     <use xlink:href="#DejaVuSans-69" x="149.720703"/>
     <use xlink:href="#DejaVuSans-64" x="177.503906"/>
     <use xlink:href="#DejaVuSans-20" x="240.980469"/>
     <use xlink:href="#DejaVuSans-6c" x="272.767578"/>
     <use xlink:href="#DejaVuSans-6f" x="300.550781"/>
     <use xlink:href="#DejaVuSans-73" x="361.732422"/>
     <use xlink:href="#DejaVuSans-73" x="413.832031"/>
    </g>
   </g>
   <g id="legend_3">
    <g id="patch_19">
     <path d="M 256.268324 414.895966 
L 333.829261 414.895966 
Q 335.829261 414.895966 335.829261 412.895966 
L 335.829261 325.827216 
Q 335.829261 323.827216 333.829261 323.827216 
L 256.268324 323.827216 
Q 254.268324 323.827216 254.268324 325.827216 
L 254.268324 412.895966 
Q 254.268324 414.895966 256.268324 414.895966 
z
" style="fill: #ffffff; opacity: 0.8; stroke: #cccccc; stroke-linejoin: miter"/>
    </g>
    <g id="line2d_119">
     <path d="M 258.268324 331.925653 
L 268.268324 331.925653 
L 278.268324 331.925653 
" style="fill: none; stroke: #1f77b4; stroke-width: 1.5; stroke-linecap: square"/>
    </g>
    <g id="text_60">
     <!-- sigmoid -->
     <g transform="translate(286.268324 335.425653)scale(0.1 -0.1)">
      <use xlink:href="#DejaVuSans-73"/>
      <use xlink:href="#DejaVuSans-69" x="52.099609"/>
      <use xlink:href="#DejaVuSans-67" x="79.882812"/>
      <use xlink:href="#DejaVuSans-6d" x="143.359375"/>
      <use xlink:href="#DejaVuSans-6f" x="240.771484"/>
      <use xlink:href="#DejaVuSans-69" x="301.953125"/>
      <use xlink:href="#DejaVuSans-64" x="329.736328"/>
     </g>
    </g>
    <g id="line2d_120">
     <path d="M 258.268324 346.603778 
L 268.268324 346.603778 
L 278.268324 346.603778 
" style="fill: none; stroke: #ff7f0e; stroke-width: 1.5; stroke-linecap: square"/>
    </g>
    <g id="text_61">
     <!-- tanh -->
     <g transform="translate(286.268324 350.103778)scale(0.1 -0.1)">
      <use xlink:href="#DejaVuSans-74"/>
      <use xlink:href="#DejaVuSans-61" x="39.208984"/>
      <use xlink:href="#DejaVuSans-6e" x="100.488281"/>
      <use xlink:href="#DejaVuSans-68" x="163.867188"/>
     </g>
    </g>
    <g id="line2d_121">
     <path d="M 258.268324 361.281903 
L 268.268324 361.281903 
L 278.268324 361.281903 
" style="fill: none; stroke: #2ca02c; stroke-width: 1.5; stroke-linecap: square"/>
    </g>
    <g id="text_62">
     <!-- relu -->
     <g transform="translate(286.268324 364.781903)scale(0.1 -0.1)">
      <use xlink:href="#DejaVuSans-72"/>
      <use xlink:href="#DejaVuSans-65" x="38.863281"/>
      <use xlink:href="#DejaVuSans-6c" x="100.386719"/>
      <use xlink:href="#DejaVuSans-75" x="128.169922"/>
     </g>
    </g>
    <g id="line2d_122">
     <path d="M 258.268324 375.960028 
L 268.268324 375.960028 
L 278.268324 375.960028 
" style="fill: none; stroke: #d62728; stroke-width: 1.5; stroke-linecap: square"/>
    </g>
    <g id="text_63">
     <!-- leakyrelu -->
     <g transform="translate(286.268324 379.460028)scale(0.1 -0.1)">
      <use xlink:href="#DejaVuSans-6c"/>
      <use xlink:href="#DejaVuSans-65" x="27.783203"/>
      <use xlink:href="#DejaVuSans-61" x="89.306641"/>
      <use xlink:href="#DejaVuSans-6b" x="150.585938"/>
      <use xlink:href="#DejaVuSans-79" x="204.871094"/>
      <use xlink:href="#DejaVuSans-72" x="264.050781"/>
      <use xlink:href="#DejaVuSans-65" x="302.914062"/>
      <use xlink:href="#DejaVuSans-6c" x="364.4375"/>
      <use xlink:href="#DejaVuSans-75" x="392.220703"/>
     </g>
    </g>
    <g id="line2d_123">
     <path d="M 258.268324 390.638153 
L 268.268324 390.638153 
L 278.268324 390.638153 
" style="fill: none; stroke: #9467bd; stroke-width: 1.5; stroke-linecap: square"/>
    </g>
    <g id="text_64">
     <!-- elu -->
     <g transform="translate(286.268324 394.138153)scale(0.1 -0.1)">
      <use xlink:href="#DejaVuSans-65"/>
      <use xlink:href="#DejaVuSans-6c" x="61.523438"/>
      <use xlink:href="#DejaVuSans-75" x="89.306641"/>
     </g>
    </g>
    <g id="line2d_124">
     <path d="M 258.268324 405.316278 
L 268.268324 405.316278 
L 278.268324 405.316278 
" style="fill: none; stroke: #8c564b; stroke-width: 1.5; stroke-linecap: square"/>
    </g>
    <g id="text_65">
     <!-- swish -->
     <g transform="translate(286.268324 408.816278)scale(0.1 -0.1)">
      <use xlink:href="#DejaVuSans-73"/>
      <use xlink:href="#DejaVuSans-77" x="52.099609"/>
      <use xlink:href="#DejaVuSans-69" x="133.886719"/>
      <use xlink:href="#DejaVuSans-73" x="161.669922"/>
      <use xlink:href="#DejaVuSans-68" x="213.769531"/>
     </g>
    </g>
   </g>
  </g>
  <g id="axes_4">
   <g id="patch_20">
    <path d="M 401.701989 565.918125 
L 706.065625 565.918125 
L 706.065625 318.827216 
L 401.701989 318.827216 
z
" style="fill: #ffffff"/>
   </g>
   <g id="matplotlib.axis_7">
    <g id="xtick_28">
     <g id="line2d_125">
      <path d="M 415.536699 565.918125 
L 415.536699 318.827216 
" clip-path="url(#pa8473e791d)" style="fill: none; stroke: #b0b0b0; stroke-width: 0.8; stroke-linecap: square"/>
     </g>
     <g id="line2d_126">
      <g>
       <use xlink:href="#mbc29fa5698" x="415.536699" y="565.918125" style="stroke: #000000; stroke-width: 0.8"/>
      </g>
     </g>
     <g id="text_66">
      <!-- 0 -->
      <g transform="translate(412.355449 580.516562)scale(0.1 -0.1)">
       <use xlink:href="#DejaVuSans-30"/>
      </g>
     </g>
    </g>
    <g id="xtick_29">
     <g id="line2d_127">
      <path d="M 451.010317 565.918125 
L 451.010317 318.827216 
" clip-path="url(#pa8473e791d)" style="fill: none; stroke: #b0b0b0; stroke-width: 0.8; stroke-linecap: square"/>
     </g>
     <g id="line2d_128">
      <g>
       <use xlink:href="#mbc29fa5698" x="451.010317" y="565.918125" style="stroke: #000000; stroke-width: 0.8"/>
      </g>
     </g>
     <g id="text_67">
      <!-- 5 -->
      <g transform="translate(447.829067 580.516562)scale(0.1 -0.1)">
       <use xlink:href="#DejaVuSans-35"/>
      </g>
     </g>
    </g>
    <g id="xtick_30">
     <g id="line2d_129">
      <path d="M 486.483934 565.918125 
L 486.483934 318.827216 
" clip-path="url(#pa8473e791d)" style="fill: none; stroke: #b0b0b0; stroke-width: 0.8; stroke-linecap: square"/>
     </g>
     <g id="line2d_130">
      <g>
       <use xlink:href="#mbc29fa5698" x="486.483934" y="565.918125" style="stroke: #000000; stroke-width: 0.8"/>
      </g>
     </g>
     <g id="text_68">
      <!-- 10 -->
      <g transform="translate(480.121434 580.516562)scale(0.1 -0.1)">
       <use xlink:href="#DejaVuSans-31"/>
       <use xlink:href="#DejaVuSans-30" x="63.623047"/>
      </g>
     </g>
    </g>
    <g id="xtick_31">
     <g id="line2d_131">
      <path d="M 521.957551 565.918125 
L 521.957551 318.827216 
" clip-path="url(#pa8473e791d)" style="fill: none; stroke: #b0b0b0; stroke-width: 0.8; stroke-linecap: square"/>
     </g>
     <g id="line2d_132">
      <g>
       <use xlink:href="#mbc29fa5698" x="521.957551" y="565.918125" style="stroke: #000000; stroke-width: 0.8"/>
      </g>
     </g>
     <g id="text_69">
      <!-- 15 -->
      <g transform="translate(515.595051 580.516562)scale(0.1 -0.1)">
       <use xlink:href="#DejaVuSans-31"/>
       <use xlink:href="#DejaVuSans-35" x="63.623047"/>
      </g>
     </g>
    </g>
    <g id="xtick_32">
     <g id="line2d_133">
      <path d="M 557.431169 565.918125 
L 557.431169 318.827216 
" clip-path="url(#pa8473e791d)" style="fill: none; stroke: #b0b0b0; stroke-width: 0.8; stroke-linecap: square"/>
     </g>
     <g id="line2d_134">
      <g>
       <use xlink:href="#mbc29fa5698" x="557.431169" y="565.918125" style="stroke: #000000; stroke-width: 0.8"/>
      </g>
     </g>
     <g id="text_70">
      <!-- 20 -->
      <g transform="translate(551.068669 580.516562)scale(0.1 -0.1)">
       <use xlink:href="#DejaVuSans-32"/>
       <use xlink:href="#DejaVuSans-30" x="63.623047"/>
      </g>
     </g>
    </g>
    <g id="xtick_33">
     <g id="line2d_135">
      <path d="M 592.904786 565.918125 
L 592.904786 318.827216 
" clip-path="url(#pa8473e791d)" style="fill: none; stroke: #b0b0b0; stroke-width: 0.8; stroke-linecap: square"/>
     </g>
     <g id="line2d_136">
      <g>
       <use xlink:href="#mbc29fa5698" x="592.904786" y="565.918125" style="stroke: #000000; stroke-width: 0.8"/>
      </g>
     </g>
     <g id="text_71">
      <!-- 25 -->
      <g transform="translate(586.542286 580.516562)scale(0.1 -0.1)">
       <use xlink:href="#DejaVuSans-32"/>
       <use xlink:href="#DejaVuSans-35" x="63.623047"/>
      </g>
     </g>
    </g>
    <g id="xtick_34">
     <g id="line2d_137">
      <path d="M 628.378403 565.918125 
L 628.378403 318.827216 
" clip-path="url(#pa8473e791d)" style="fill: none; stroke: #b0b0b0; stroke-width: 0.8; stroke-linecap: square"/>
     </g>
     <g id="line2d_138">
      <g>
       <use xlink:href="#mbc29fa5698" x="628.378403" y="565.918125" style="stroke: #000000; stroke-width: 0.8"/>
      </g>
     </g>
     <g id="text_72">
      <!-- 30 -->
      <g transform="translate(622.015903 580.516562)scale(0.1 -0.1)">
       <use xlink:href="#DejaVuSans-33"/>
       <use xlink:href="#DejaVuSans-30" x="63.623047"/>
      </g>
     </g>
    </g>
    <g id="xtick_35">
     <g id="line2d_139">
      <path d="M 663.85202 565.918125 
L 663.85202 318.827216 
" clip-path="url(#pa8473e791d)" style="fill: none; stroke: #b0b0b0; stroke-width: 0.8; stroke-linecap: square"/>
     </g>
     <g id="line2d_140">
      <g>
       <use xlink:href="#mbc29fa5698" x="663.85202" y="565.918125" style="stroke: #000000; stroke-width: 0.8"/>
      </g>
     </g>
     <g id="text_73">
      <!-- 35 -->
      <g transform="translate(657.48952 580.516562)scale(0.1 -0.1)">
       <use xlink:href="#DejaVuSans-33"/>
       <use xlink:href="#DejaVuSans-35" x="63.623047"/>
      </g>
     </g>
    </g>
    <g id="xtick_36">
     <g id="line2d_141">
      <path d="M 699.325638 565.918125 
L 699.325638 318.827216 
" clip-path="url(#pa8473e791d)" style="fill: none; stroke: #b0b0b0; stroke-width: 0.8; stroke-linecap: square"/>
     </g>
     <g id="line2d_142">
      <g>
       <use xlink:href="#mbc29fa5698" x="699.325638" y="565.918125" style="stroke: #000000; stroke-width: 0.8"/>
      </g>
     </g>
     <g id="text_74">
      <!-- 40 -->
      <g transform="translate(692.963138 580.516562)scale(0.1 -0.1)">
       <use xlink:href="#DejaVuSans-34"/>
       <use xlink:href="#DejaVuSans-30" x="63.623047"/>
      </g>
     </g>
    </g>
   </g>
   <g id="matplotlib.axis_8">
    <g id="ytick_18">
     <g id="line2d_143">
      <path d="M 401.701989 554.988418 
L 706.065625 554.988418 
" clip-path="url(#pa8473e791d)" style="fill: none; stroke: #b0b0b0; stroke-width: 0.8; stroke-linecap: square"/>
     </g>
     <g id="line2d_144">
      <g>
       <use xlink:href="#mdc73ed29c9" x="401.701989" y="554.988418" style="stroke: #000000; stroke-width: 0.8"/>
      </g>
     </g>
     <g id="text_75">
      <!-- 0.1 -->
      <g transform="translate(378.798864 558.787637)scale(0.1 -0.1)">
       <use xlink:href="#DejaVuSans-30"/>
       <use xlink:href="#DejaVuSans-2e" x="63.623047"/>
       <use xlink:href="#DejaVuSans-31" x="95.410156"/>
      </g>
     </g>
    </g>
    <g id="ytick_19">
     <g id="line2d_145">
      <path d="M 401.701989 526.903049 
L 706.065625 526.903049 
" clip-path="url(#pa8473e791d)" style="fill: none; stroke: #b0b0b0; stroke-width: 0.8; stroke-linecap: square"/>
     </g>
     <g id="line2d_146">
      <g>
       <use xlink:href="#mdc73ed29c9" x="401.701989" y="526.903049" style="stroke: #000000; stroke-width: 0.8"/>
      </g>
     </g>
     <g id="text_76">
      <!-- 0.2 -->
      <g transform="translate(378.798864 530.702268)scale(0.1 -0.1)">
       <use xlink:href="#DejaVuSans-30"/>
       <use xlink:href="#DejaVuSans-2e" x="63.623047"/>
       <use xlink:href="#DejaVuSans-32" x="95.410156"/>
      </g>
     </g>
    </g>
    <g id="ytick_20">
     <g id="line2d_147">
      <path d="M 401.701989 498.81768 
L 706.065625 498.81768 
" clip-path="url(#pa8473e791d)" style="fill: none; stroke: #b0b0b0; stroke-width: 0.8; stroke-linecap: square"/>
     </g>
     <g id="line2d_148">
      <g>
       <use xlink:href="#mdc73ed29c9" x="401.701989" y="498.81768" style="stroke: #000000; stroke-width: 0.8"/>
      </g>
     </g>
     <g id="text_77">
      <!-- 0.3 -->
      <g transform="translate(378.798864 502.616899)scale(0.1 -0.1)">
       <use xlink:href="#DejaVuSans-30"/>
       <use xlink:href="#DejaVuSans-2e" x="63.623047"/>
       <use xlink:href="#DejaVuSans-33" x="95.410156"/>
      </g>
     </g>
    </g>
    <g id="ytick_21">
     <g id="line2d_149">
      <path d="M 401.701989 470.732311 
L 706.065625 470.732311 
" clip-path="url(#pa8473e791d)" style="fill: none; stroke: #b0b0b0; stroke-width: 0.8; stroke-linecap: square"/>
     </g>
     <g id="line2d_150">
      <g>
       <use xlink:href="#mdc73ed29c9" x="401.701989" y="470.732311" style="stroke: #000000; stroke-width: 0.8"/>
      </g>
     </g>
     <g id="text_78">
      <!-- 0.4 -->
      <g transform="translate(378.798864 474.53153)scale(0.1 -0.1)">
       <use xlink:href="#DejaVuSans-30"/>
       <use xlink:href="#DejaVuSans-2e" x="63.623047"/>
       <use xlink:href="#DejaVuSans-34" x="95.410156"/>
      </g>
     </g>
    </g>
    <g id="ytick_22">
     <g id="line2d_151">
      <path d="M 401.701989 442.646942 
L 706.065625 442.646942 
" clip-path="url(#pa8473e791d)" style="fill: none; stroke: #b0b0b0; stroke-width: 0.8; stroke-linecap: square"/>
     </g>
     <g id="line2d_152">
      <g>
       <use xlink:href="#mdc73ed29c9" x="401.701989" y="442.646942" style="stroke: #000000; stroke-width: 0.8"/>
      </g>
     </g>
     <g id="text_79">
      <!-- 0.5 -->
      <g transform="translate(378.798864 446.44616)scale(0.1 -0.1)">
       <use xlink:href="#DejaVuSans-30"/>
       <use xlink:href="#DejaVuSans-2e" x="63.623047"/>
       <use xlink:href="#DejaVuSans-35" x="95.410156"/>
      </g>
     </g>
    </g>
    <g id="ytick_23">
     <g id="line2d_153">
      <path d="M 401.701989 414.561572 
L 706.065625 414.561572 
" clip-path="url(#pa8473e791d)" style="fill: none; stroke: #b0b0b0; stroke-width: 0.8; stroke-linecap: square"/>
     </g>
     <g id="line2d_154">
      <g>
       <use xlink:href="#mdc73ed29c9" x="401.701989" y="414.561572" style="stroke: #000000; stroke-width: 0.8"/>
      </g>
     </g>
     <g id="text_80">
      <!-- 0.6 -->
      <g transform="translate(378.798864 418.360791)scale(0.1 -0.1)">
       <use xlink:href="#DejaVuSans-30"/>
       <use xlink:href="#DejaVuSans-2e" x="63.623047"/>
       <use xlink:href="#DejaVuSans-36" x="95.410156"/>
      </g>
     </g>
    </g>
    <g id="ytick_24">
     <g id="line2d_155">
      <path d="M 401.701989 386.476203 
L 706.065625 386.476203 
" clip-path="url(#pa8473e791d)" style="fill: none; stroke: #b0b0b0; stroke-width: 0.8; stroke-linecap: square"/>
     </g>
     <g id="line2d_156">
      <g>
       <use xlink:href="#mdc73ed29c9" x="401.701989" y="386.476203" style="stroke: #000000; stroke-width: 0.8"/>
      </g>
     </g>
     <g id="text_81">
      <!-- 0.7 -->
      <g transform="translate(378.798864 390.275422)scale(0.1 -0.1)">
       <use xlink:href="#DejaVuSans-30"/>
       <use xlink:href="#DejaVuSans-2e" x="63.623047"/>
       <use xlink:href="#DejaVuSans-37" x="95.410156"/>
      </g>
     </g>
    </g>
    <g id="ytick_25">
     <g id="line2d_157">
      <path d="M 401.701989 358.390834 
L 706.065625 358.390834 
" clip-path="url(#pa8473e791d)" style="fill: none; stroke: #b0b0b0; stroke-width: 0.8; stroke-linecap: square"/>
     </g>
     <g id="line2d_158">
      <g>
       <use xlink:href="#mdc73ed29c9" x="401.701989" y="358.390834" style="stroke: #000000; stroke-width: 0.8"/>
      </g>
     </g>
     <g id="text_82">
      <!-- 0.8 -->
      <g transform="translate(378.798864 362.190053)scale(0.1 -0.1)">
       <use xlink:href="#DejaVuSans-30"/>
       <use xlink:href="#DejaVuSans-2e" x="63.623047"/>
       <use xlink:href="#DejaVuSans-38" x="95.410156"/>
      </g>
     </g>
    </g>
    <g id="ytick_26">
     <g id="line2d_159">
      <path d="M 401.701989 330.305465 
L 706.065625 330.305465 
" clip-path="url(#pa8473e791d)" style="fill: none; stroke: #b0b0b0; stroke-width: 0.8; stroke-linecap: square"/>
     </g>
     <g id="line2d_160">
      <g>
       <use xlink:href="#mdc73ed29c9" x="401.701989" y="330.305465" style="stroke: #000000; stroke-width: 0.8"/>
      </g>
     </g>
     <g id="text_83">
      <!-- 0.9 -->
      <g transform="translate(378.798864 334.104684)scale(0.1 -0.1)">
       <defs>
        <path id="DejaVuSans-39" d="M 703 97 
L 703 672 
Q 941 559 1184 500 
Q 1428 441 1663 441 
Q 2288 441 2617 861 
Q 2947 1281 2994 2138 
Q 2813 1869 2534 1725 
Q 2256 1581 1919 1581 
Q 1219 1581 811 2004 
Q 403 2428 403 3163 
Q 403 3881 828 4315 
Q 1253 4750 1959 4750 
Q 2769 4750 3195 4129 
Q 3622 3509 3622 2328 
Q 3622 1225 3098 567 
Q 2575 -91 1691 -91 
Q 1453 -91 1209 -44 
Q 966 3 703 97 
z
M 1959 2075 
Q 2384 2075 2632 2365 
Q 2881 2656 2881 3163 
Q 2881 3666 2632 3958 
Q 2384 4250 1959 4250 
Q 1534 4250 1286 3958 
Q 1038 3666 1038 3163 
Q 1038 2656 1286 2365 
Q 1534 2075 1959 2075 
z
" transform="scale(0.015625)"/>
       </defs>
       <use xlink:href="#DejaVuSans-30"/>
       <use xlink:href="#DejaVuSans-2e" x="63.623047"/>
       <use xlink:href="#DejaVuSans-39" x="95.410156"/>
      </g>
     </g>
    </g>
   </g>
   <g id="line2d_161">
    <path d="M 415.536699 554.68672 
L 422.631423 534.527788 
L 429.726146 494.34706 
L 436.82087 485.981789 
L 443.915593 457.32045 
L 451.010317 449.640857 
L 458.10504 421.802332 
L 465.199764 418.648213 
L 472.294487 405.346061 
L 479.389211 401.231993 
L 486.483934 391.632502 
L 493.578657 383.815773 
L 500.673381 386.421349 
L 507.768104 383.815773 
L 514.862828 376.410451 
L 521.957551 373.667739 
L 529.052275 370.239349 
L 536.146998 371.062163 
L 543.241722 368.593722 
L 550.336445 372.159248 
L 557.431169 367.359502 
L 564.525892 364.068248 
L 571.620615 368.867993 
L 578.715339 362.011214 
L 585.810062 359.817044 
L 592.904786 360.228451 
L 599.999509 360.228451 
L 607.094233 359.542773 
L 614.188956 359.131366 
L 621.28368 355.29157 
L 628.378403 352.000316 
L 635.473127 359.405637 
L 642.56785 356.251519 
L 649.662574 353.645943 
L 656.757297 352.411722 
L 663.85202 351.588909 
L 670.946744 350.62896 
L 678.041467 351.451773 
L 685.136191 347.886248 
L 692.230914 348.983333 
" clip-path="url(#pa8473e791d)" style="fill: none; stroke: #1f77b4; stroke-width: 1.5; stroke-linecap: square"/>
   </g>
   <g id="line2d_162">
    <path d="M 415.536699 349.66901 
L 422.631423 345.829214 
L 429.726146 345.829214 
L 436.82087 339.932383 
L 443.915593 339.932383 
L 451.010317 340.892333 
L 458.10504 339.932383 
L 465.199764 338.012485 
L 472.294487 335.818316 
L 479.389211 346.789163 
L 486.483934 337.738214 
L 493.578657 338.561028 
L 500.673381 334.584095 
L 507.768104 335.132638 
L 514.862828 337.326807 
L 521.957551 331.978519 
L 529.052275 333.212739 
L 536.146998 335.544045 
L 543.241722 330.058621 
L 550.336445 330.744299 
L 557.431169 334.44696 
L 564.525892 331.978519 
L 571.620615 330.195756 
L 578.715339 333.624146 
L 585.810062 333.487011 
L 592.904786 332.664197 
L 599.999509 331.292841 
" clip-path="url(#pa8473e791d)" style="fill: none; stroke: #ff7f0e; stroke-width: 1.5; stroke-linecap: square"/>
   </g>
   <g id="line2d_163">
    <path d="M 415.536699 353.371671 
L 422.631423 344.457858 
L 429.726146 341.440875 
L 436.82087 339.795248 
L 443.915593 340.755197 
L 451.010317 340.069519 
L 458.10504 340.755197 
L 465.199764 333.487011 
L 472.294487 338.698163 
L 479.389211 337.463943 
L 486.483934 335.406909 
L 493.578657 333.349875 
L 500.673381 338.286756 
L 507.768104 337.189672 
L 514.862828 334.995502 
" clip-path="url(#pa8473e791d)" style="fill: none; stroke: #2ca02c; stroke-width: 1.5; stroke-linecap: square"/>
   </g>
   <g id="line2d_164">
    <path d="M 415.536699 354.057349 
L 422.631423 348.709061 
L 429.726146 345.143536 
L 436.82087 339.383841 
L 443.915593 338.698163 
L 451.010317 341.440875 
L 458.10504 336.366858 
L 465.199764 338.561028 
L 472.294487 335.955451 
L 479.389211 339.10957 
L 486.483934 337.738214 
L 493.578657 336.503994 
L 500.673381 337.326807 
L 507.768104 334.584095 
L 514.862828 337.601078 
L 521.957551 333.898417 
L 529.052275 334.44696 
L 536.146998 334.035553 
L 543.241722 335.269773 
L 550.336445 336.092587 
L 557.431169 333.349875 
L 564.525892 334.44696 
L 571.620615 337.052536 
L 578.715339 336.229722 
L 585.810062 333.075604 
" clip-path="url(#pa8473e791d)" style="fill: none; stroke: #d62728; stroke-width: 1.5; stroke-linecap: square"/>
   </g>
   <g id="line2d_165">
    <path d="M 415.536699 351.588909 
L 422.631423 349.806146 
L 429.726146 344.320722 
L 436.82087 343.77218 
L 443.915593 341.715146 
L 451.010317 340.480926 
L 458.10504 338.423892 
L 465.199764 341.852282 
L 472.294487 337.463943 
L 479.389211 337.463943 
L 486.483934 334.309824 
L 493.578657 340.206655 
L 500.673381 335.544045 
L 507.768104 338.012485 
L 514.862828 335.132638 
L 521.957551 337.326807 
L 529.052275 335.406909 
L 536.146998 335.132638 
L 543.241722 334.584095 
L 550.336445 334.584095 
L 557.431169 334.584095 
L 564.525892 338.149621 
" clip-path="url(#pa8473e791d)" style="fill: none; stroke: #9467bd; stroke-width: 1.5; stroke-linecap: square"/>
   </g>
   <g id="line2d_166">
    <path d="M 415.536699 355.017299 
L 422.631423 355.017299 
L 429.726146 349.806146 
L 436.82087 343.909316 
L 443.915593 345.554943 
L 451.010317 339.520977 
L 458.10504 341.989417 
L 465.199764 342.675095 
L 472.294487 338.698163 
L 479.389211 342.812231 
L 486.483934 338.012485 
L 493.578657 339.795248 
L 500.673381 343.497909 
" clip-path="url(#pa8473e791d)" style="fill: none; stroke: #8c564b; stroke-width: 1.5; stroke-linecap: square"/>
   </g>
   <g id="patch_21">
    <path d="M 401.701989 565.918125 
L 401.701989 318.827216 
" style="fill: none; stroke: #000000; stroke-width: 0.8; stroke-linejoin: miter; stroke-linecap: square"/>
   </g>
   <g id="patch_22">
    <path d="M 706.065625 565.918125 
L 706.065625 318.827216 
" style="fill: none; stroke: #000000; stroke-width: 0.8; stroke-linejoin: miter; stroke-linecap: square"/>
   </g>
   <g id="patch_23">
    <path d="M 401.701989 565.918125 
L 706.065625 565.918125 
" style="fill: none; stroke: #000000; stroke-width: 0.8; stroke-linejoin: miter; stroke-linecap: square"/>
   </g>
   <g id="patch_24">
    <path d="M 401.701989 318.827216 
L 706.065625 318.827216 
" style="fill: none; stroke: #000000; stroke-width: 0.8; stroke-linejoin: miter; stroke-linecap: square"/>
   </g>
   <g id="text_84">
    <!-- Valid accuracy -->
    <g transform="translate(510.446619 312.827216)scale(0.12 -0.12)">
     <use xlink:href="#DejaVuSans-56"/>
     <use xlink:href="#DejaVuSans-61" x="60.658203"/>
     <use xlink:href="#DejaVuSans-6c" x="121.9375"/>
     <use xlink:href="#DejaVuSans-69" x="149.720703"/>
     <use xlink:href="#DejaVuSans-64" x="177.503906"/>
     <use xlink:href="#DejaVuSans-20" x="240.980469"/>
     <use xlink:href="#DejaVuSans-61" x="272.767578"/>
     <use xlink:href="#DejaVuSans-63" x="334.046875"/>
     <use xlink:href="#DejaVuSans-63" x="389.027344"/>
     <use xlink:href="#DejaVuSans-75" x="444.007812"/>
     <use xlink:href="#DejaVuSans-72" x="507.386719"/>
     <use xlink:href="#DejaVuSans-61" x="548.5"/>
     <use xlink:href="#DejaVuSans-63" x="609.779297"/>
     <use xlink:href="#DejaVuSans-79" x="664.759766"/>
    </g>
   </g>
   <g id="legend_4">
    <g id="patch_25">
     <path d="M 621.504687 560.918125 
L 699.065625 560.918125 
Q 701.065625 560.918125 701.065625 558.918125 
L 701.065625 471.849375 
Q 701.065625 469.849375 699.065625 469.849375 
L 621.504687 469.849375 
Q 619.504687 469.849375 619.504687 471.849375 
L 619.504687 558.918125 
Q 619.504687 560.918125 621.504687 560.918125 
z
" style="fill: #ffffff; opacity: 0.8; stroke: #cccccc; stroke-linejoin: miter"/>
    </g>
    <g id="line2d_167">
     <path d="M 623.504687 477.947812 
L 633.504687 477.947812 
L 643.504687 477.947812 
" style="fill: none; stroke: #1f77b4; stroke-width: 1.5; stroke-linecap: square"/>
    </g>
    <g id="text_85">
     <!-- sigmoid -->
     <g transform="translate(651.504687 481.447812)scale(0.1 -0.1)">
      <use xlink:href="#DejaVuSans-73"/>
      <use xlink:href="#DejaVuSans-69" x="52.099609"/>
      <use xlink:href="#DejaVuSans-67" x="79.882812"/>
      <use xlink:href="#DejaVuSans-6d" x="143.359375"/>
      <use xlink:href="#DejaVuSans-6f" x="240.771484"/>
      <use xlink:href="#DejaVuSans-69" x="301.953125"/>
      <use xlink:href="#DejaVuSans-64" x="329.736328"/>
     </g>
    </g>
    <g id="line2d_168">
     <path d="M 623.504687 492.625937 
L 633.504687 492.625937 
L 643.504687 492.625937 
" style="fill: none; stroke: #ff7f0e; stroke-width: 1.5; stroke-linecap: square"/>
    </g>
    <g id="text_86">
     <!-- tanh -->
     <g transform="translate(651.504687 496.125937)scale(0.1 -0.1)">
      <use xlink:href="#DejaVuSans-74"/>
      <use xlink:href="#DejaVuSans-61" x="39.208984"/>
      <use xlink:href="#DejaVuSans-6e" x="100.488281"/>
      <use xlink:href="#DejaVuSans-68" x="163.867188"/>
     </g>
    </g>
    <g id="line2d_169">
     <path d="M 623.504687 507.304062 
L 633.504687 507.304062 
L 643.504687 507.304062 
" style="fill: none; stroke: #2ca02c; stroke-width: 1.5; stroke-linecap: square"/>
    </g>
    <g id="text_87">
     <!-- relu -->
     <g transform="translate(651.504687 510.804062)scale(0.1 -0.1)">
      <use xlink:href="#DejaVuSans-72"/>
      <use xlink:href="#DejaVuSans-65" x="38.863281"/>
      <use xlink:href="#DejaVuSans-6c" x="100.386719"/>
      <use xlink:href="#DejaVuSans-75" x="128.169922"/>
     </g>
    </g>
    <g id="line2d_170">
     <path d="M 623.504687 521.982187 
L 633.504687 521.982187 
L 643.504687 521.982187 
" style="fill: none; stroke: #d62728; stroke-width: 1.5; stroke-linecap: square"/>
    </g>
    <g id="text_88">
     <!-- leakyrelu -->
     <g transform="translate(651.504687 525.482187)scale(0.1 -0.1)">
      <use xlink:href="#DejaVuSans-6c"/>
      <use xlink:href="#DejaVuSans-65" x="27.783203"/>
      <use xlink:href="#DejaVuSans-61" x="89.306641"/>
      <use xlink:href="#DejaVuSans-6b" x="150.585938"/>
      <use xlink:href="#DejaVuSans-79" x="204.871094"/>
      <use xlink:href="#DejaVuSans-72" x="264.050781"/>
      <use xlink:href="#DejaVuSans-65" x="302.914062"/>
      <use xlink:href="#DejaVuSans-6c" x="364.4375"/>
      <use xlink:href="#DejaVuSans-75" x="392.220703"/>
     </g>
    </g>
    <g id="line2d_171">
     <path d="M 623.504687 536.660312 
L 633.504687 536.660312 
L 643.504687 536.660312 
" style="fill: none; stroke: #9467bd; stroke-width: 1.5; stroke-linecap: square"/>
    </g>
    <g id="text_89">
     <!-- elu -->
     <g transform="translate(651.504687 540.160312)scale(0.1 -0.1)">
      <use xlink:href="#DejaVuSans-65"/>
      <use xlink:href="#DejaVuSans-6c" x="61.523438"/>
      <use xlink:href="#DejaVuSans-75" x="89.306641"/>
     </g>
    </g>
    <g id="line2d_172">
     <path d="M 623.504687 551.338437 
L 633.504687 551.338437 
L 643.504687 551.338437 
" style="fill: none; stroke: #8c564b; stroke-width: 1.5; stroke-linecap: square"/>
    </g>
    <g id="text_90">
     <!-- swish -->
     <g transform="translate(651.504687 554.838437)scale(0.1 -0.1)">
      <use xlink:href="#DejaVuSans-73"/>
      <use xlink:href="#DejaVuSans-77" x="52.099609"/>
      <use xlink:href="#DejaVuSans-69" x="133.886719"/>
      <use xlink:href="#DejaVuSans-73" x="161.669922"/>
      <use xlink:href="#DejaVuSans-68" x="213.769531"/>
     </g>
    </g>
   </g>
  </g>
 </g>
 <defs>
  <clipPath id="p9161eb37a5">
   <rect x="36.465625" y="22.318125" width="304.363636" height="247.090909"/>
  </clipPath>
  <clipPath id="p869d164848">
   <rect x="401.701989" y="22.318125" width="304.363636" height="247.090909"/>
  </clipPath>
  <clipPath id="pc7aaed104f">
   <rect x="36.465625" y="318.827216" width="304.363636" height="247.090909"/>
  </clipPath>
  <clipPath id="pa8473e791d">
   <rect x="401.701989" y="318.827216" width="304.363636" height="247.090909"/>
  </clipPath>
 </defs>
</svg>
