<?xml version="1.0" encoding="utf-8" standalone="no"?>
<!DOCTYPE svg PUBLIC "-//W3C//DTD SVG 1.1//EN"
  "http://www.w3.org/Graphics/SVG/1.1/DTD/svg11.dtd">
<svg xmlns:xlink="http://www.w3.org/1999/xlink" width="887.98125pt" height="244.55625pt" viewBox="0 0 887.98125 244.55625" xmlns="http://www.w3.org/2000/svg" version="1.1">
 <metadata>
  <rdf:RDF xmlns:dc="http://purl.org/dc/elements/1.1/" xmlns:cc="http://creativecommons.org/ns#" xmlns:rdf="http://www.w3.org/1999/02/22-rdf-syntax-ns#">
   <cc:Work>
    <dc:type rdf:resource="http://purl.org/dc/dcmitype/StillImage"/>
    <dc:date>2022-04-10T19:43:14.128800</dc:date>
    <dc:format>image/svg+xml</dc:format>
    <dc:creator>
     <cc:Agent>
      <dc:title>Matplotlib v3.5.1, https://matplotlib.org/</dc:title>
     </cc:Agent>
    </dc:creator>
   </cc:Work>
  </rdf:RDF>
 </metadata>
 <defs>
  <style type="text/css">*{stroke-linejoin: round; stroke-linecap: butt}</style>
 </defs>
 <g id="figure_1">
  <g id="patch_1">
   <path d="M 0 244.55625 
L 887.98125 244.55625 
L 887.98125 0 
L 0 0 
L 0 244.55625 
z
" style="fill: none"/>
  </g>
  <g id="axes_1">
   <g id="patch_2">
    <path d="M 43.78125 207 
L 170.599432 207 
L 170.599432 43.92 
L 43.78125 43.92 
z
" style="fill: #ffffff"/>
   </g>
   <g id="PolyCollection_1">
    <defs>
     <path id="m9e1fee991a" d="M 57.442052 -38.10701 
L 57.442052 -37.55625 
L 59.534883 -37.55625 
L 61.627714 -37.55625 
L 63.720545 -37.55625 
L 65.813376 -37.55625 
L 67.906207 -37.55625 
L 69.999038 -37.55625 
L 72.091868 -37.55625 
L 74.184699 -37.55625 
L 76.27753 -37.55625 
L 78.370361 -37.55625 
L 80.463192 -37.55625 
L 82.556023 -37.55625 
L 84.648854 -37.55625 
L 86.741685 -37.55625 
L 88.834516 -37.55625 
L 90.927347 -37.55625 
L 93.020178 -37.55625 
L 95.113009 -37.55625 
L 97.205839 -37.55625 
L 99.29867 -37.55625 
L 101.391501 -37.55625 
L 103.484332 -37.55625 
L 105.577163 -37.55625 
L 107.669994 -37.55625 
L 109.762825 -37.55625 
L 111.855656 -37.55625 
L 113.948487 -37.55625 
L 116.041318 -37.55625 
L 118.134149 -37.55625 
L 120.22698 -37.55625 
L 122.319811 -37.55625 
L 124.412641 -37.55625 
L 126.505472 -37.55625 
L 128.598303 -37.55625 
L 130.691134 -37.55625 
L 132.783965 -37.55625 
L 134.876796 -37.55625 
L 136.969627 -37.55625 
L 139.062458 -37.55625 
L 141.155289 -37.55625 
L 143.24812 -37.55625 
L 145.340951 -37.55625 
L 145.340951 -38.65777 
L 145.340951 -38.65777 
L 143.24812 -37.55625 
L 141.155289 -38.10701 
L 139.062458 -37.55625 
L 136.969627 -37.55625 
L 134.876796 -38.10701 
L 132.783965 -39.20853 
L 130.691134 -40.860809 
L 128.598303 -48.020688 
L 126.505472 -53.528286 
L 124.412641 -71.152603 
L 122.319811 -89.878438 
L 120.22698 -116.314913 
L 118.134149 -155.418864 
L 116.041318 -171.94166 
L 113.948487 -186.812177 
L 111.855656 -177.449259 
L 109.762825 -189.015217 
L 107.669994 -192.870536 
L 105.577163 -180.203059 
L 103.484332 -181.304578 
L 101.391501 -167.535581 
L 99.29867 -166.434062 
L 97.205839 -171.3909 
L 95.113009 -154.317344 
L 93.020178 -133.388469 
L 90.927347 -130.08391 
L 88.834516 -99.792116 
L 86.741685 -93.182998 
L 84.648854 -73.355642 
L 82.556023 -63.441964 
L 80.463192 -53.528286 
L 78.370361 -47.469928 
L 76.27753 -44.165369 
L 74.184699 -41.962329 
L 72.091868 -41.962329 
L 69.999038 -38.65777 
L 67.906207 -39.20853 
L 65.813376 -38.10701 
L 63.720545 -38.10701 
L 61.627714 -37.55625 
L 59.534883 -37.55625 
L 57.442052 -38.10701 
z
" style="stroke: #1f77b4"/>
    </defs>
    <g clip-path="url(#p2afa4c57fb)">
     <use xlink:href="#m9e1fee991a" x="0" y="244.55625" style="fill: #1f77b4; fill-opacity: 0.75; stroke: #1f77b4"/>
    </g>
   </g>
   <g id="PolyCollection_2">
    <defs>
     <path id="m55fef60a7a" d="M 49.545713 -38.046146 
L 49.545713 -37.55625 
L 51.898555 -37.55625 
L 54.251397 -37.55625 
L 56.604239 -37.55625 
L 58.957081 -37.55625 
L 61.309923 -37.55625 
L 63.662765 -37.55625 
L 66.015607 -37.55625 
L 68.368449 -37.55625 
L 70.72129 -37.55625 
L 73.074132 -37.55625 
L 75.426974 -37.55625 
L 77.779816 -37.55625 
L 80.132658 -37.55625 
L 82.4855 -37.55625 
L 84.838342 -37.55625 
L 87.191184 -37.55625 
L 89.544026 -37.55625 
L 91.896868 -37.55625 
L 94.24971 -37.55625 
L 96.602552 -37.55625 
L 98.955394 -37.55625 
L 101.308236 -37.55625 
L 103.661078 -37.55625 
L 106.01392 -37.55625 
L 108.366762 -37.55625 
L 110.719604 -37.55625 
L 113.072446 -37.55625 
L 115.425288 -37.55625 
L 117.77813 -37.55625 
L 120.130972 -37.55625 
L 122.483814 -37.55625 
L 124.836656 -37.55625 
L 127.189498 -37.55625 
L 129.54234 -37.55625 
L 131.895182 -37.55625 
L 134.248023 -37.55625 
L 136.600865 -37.55625 
L 138.953707 -37.55625 
L 141.306549 -37.55625 
L 143.659391 -37.55625 
L 146.012233 -37.55625 
L 148.365075 -37.55625 
L 150.717917 -37.55625 
L 153.070759 -37.55625 
L 155.423601 -37.55625 
L 157.776443 -37.55625 
L 160.129285 -37.55625 
L 162.482127 -37.55625 
L 164.834969 -37.55625 
L 164.834969 -38.046146 
L 164.834969 -38.046146 
L 162.482127 -38.046146 
L 160.129285 -38.046146 
L 157.776443 -38.046146 
L 155.423601 -38.536042 
L 153.070759 -38.536042 
L 150.717917 -38.536042 
L 148.365075 -37.55625 
L 146.012233 -40.005729 
L 143.659391 -40.495625 
L 141.306549 -43.924895 
L 138.953707 -45.884478 
L 136.600865 -48.823852 
L 134.248023 -50.783436 
L 131.895182 -59.111663 
L 129.54234 -62.051038 
L 127.189498 -69.399474 
L 124.836656 -91.444784 
L 122.483814 -104.671969 
L 120.130972 -109.570927 
L 117.77813 -114.95978 
L 115.425288 -136.025298 
L 113.072446 -152.191858 
L 110.719604 -137.005089 
L 108.366762 -157.090815 
L 106.01392 -160.03019 
L 103.661078 -161.009982 
L 101.308236 -176.686646 
L 98.955394 -161.009982 
L 96.602552 -179.136125 
L 94.24971 -149.742379 
L 91.896868 -135.045506 
L 89.544026 -114.469884 
L 87.191184 -101.242699 
L 84.838342 -94.384158 
L 82.4855 -76.258015 
L 80.132658 -67.929787 
L 77.779816 -58.621768 
L 75.426974 -49.803644 
L 73.074132 -45.884478 
L 70.72129 -40.005729 
L 68.368449 -40.005729 
L 66.015607 -38.046146 
L 63.662765 -38.536042 
L 61.309923 -38.536042 
L 58.957081 -38.046146 
L 56.604239 -38.046146 
L 54.251397 -37.55625 
L 51.898555 -37.55625 
L 49.545713 -38.046146 
z
" style="stroke: #ff7f0e"/>
    </defs>
    <g clip-path="url(#p2afa4c57fb)">
     <use xlink:href="#m55fef60a7a" x="0" y="244.55625" style="fill: #ff7f0e; fill-opacity: 0.75; stroke: #ff7f0e"/>
    </g>
   </g>
   <g id="matplotlib.axis_1">
    <g id="xtick_1">
     <g id="line2d_1">
      <defs>
       <path id="md86e4c2bf0" d="M 0 0 
L 0 3.5 
" style="stroke: #000000; stroke-width: 0.8"/>
      </defs>
      <g>
       <use xlink:href="#md86e4c2bf0" x="104.709983" y="207" style="stroke: #000000; stroke-width: 0.8"/>
      </g>
     </g>
     <g id="text_1">
      <!-- 0 -->
      <g transform="translate(101.528733 221.598437)scale(0.1 -0.1)">
       <defs>
        <path id="DejaVuSans-30" d="M 2034 4250 
Q 1547 4250 1301 3770 
Q 1056 3291 1056 2328 
Q 1056 1369 1301 889 
Q 1547 409 2034 409 
Q 2525 409 2770 889 
Q 3016 1369 3016 2328 
Q 3016 3291 2770 3770 
Q 2525 4250 2034 4250 
z
M 2034 4750 
Q 2819 4750 3233 4129 
Q 3647 3509 3647 2328 
Q 3647 1150 3233 529 
Q 2819 -91 2034 -91 
Q 1250 -91 836 529 
Q 422 1150 422 2328 
Q 422 3509 836 4129 
Q 1250 4750 2034 4750 
z
" transform="scale(0.015625)"/>
       </defs>
       <use xlink:href="#DejaVuSans-30"/>
      </g>
     </g>
    </g>
    <g id="xtick_2">
     <g id="line2d_2">
      <g>
       <use xlink:href="#md86e4c2bf0" x="167.512111" y="207" style="stroke: #000000; stroke-width: 0.8"/>
      </g>
     </g>
     <g id="text_2">
      <!-- 5 -->
      <g transform="translate(164.330861 221.598437)scale(0.1 -0.1)">
       <defs>
        <path id="DejaVuSans-35" d="M 691 4666 
L 3169 4666 
L 3169 4134 
L 1269 4134 
L 1269 2991 
Q 1406 3038 1543 3061 
Q 1681 3084 1819 3084 
Q 2600 3084 3056 2656 
Q 3513 2228 3513 1497 
Q 3513 744 3044 326 
Q 2575 -91 1722 -91 
Q 1428 -91 1123 -41 
Q 819 9 494 109 
L 494 744 
Q 775 591 1075 516 
Q 1375 441 1709 441 
Q 2250 441 2565 725 
Q 2881 1009 2881 1497 
Q 2881 1984 2565 2268 
Q 2250 2553 1709 2553 
Q 1456 2553 1204 2497 
Q 953 2441 691 2322 
L 691 4666 
z
" transform="scale(0.015625)"/>
       </defs>
       <use xlink:href="#DejaVuSans-35"/>
      </g>
     </g>
    </g>
    <g id="text_3">
     <!-- Activation -->
     <g transform="translate(82.15831 235.276562)scale(0.1 -0.1)">
      <defs>
       <path id="DejaVuSans-41" d="M 2188 4044 
L 1331 1722 
L 3047 1722 
L 2188 4044 
z
M 1831 4666 
L 2547 4666 
L 4325 0 
L 3669 0 
L 3244 1197 
L 1141 1197 
L 716 0 
L 50 0 
L 1831 4666 
z
" transform="scale(0.015625)"/>
       <path id="DejaVuSans-63" d="M 3122 3366 
L 3122 2828 
Q 2878 2963 2633 3030 
Q 2388 3097 2138 3097 
Q 1578 3097 1268 2742 
Q 959 2388 959 1747 
Q 959 1106 1268 751 
Q 1578 397 2138 397 
Q 2388 397 2633 464 
Q 2878 531 3122 666 
L 3122 134 
Q 2881 22 2623 -34 
Q 2366 -91 2075 -91 
Q 1284 -91 818 406 
Q 353 903 353 1747 
Q 353 2603 823 3093 
Q 1294 3584 2113 3584 
Q 2378 3584 2631 3529 
Q 2884 3475 3122 3366 
z
" transform="scale(0.015625)"/>
       <path id="DejaVuSans-74" d="M 1172 4494 
L 1172 3500 
L 2356 3500 
L 2356 3053 
L 1172 3053 
L 1172 1153 
Q 1172 725 1289 603 
Q 1406 481 1766 481 
L 2356 481 
L 2356 0 
L 1766 0 
Q 1100 0 847 248 
Q 594 497 594 1153 
L 594 3053 
L 172 3053 
L 172 3500 
L 594 3500 
L 594 4494 
L 1172 4494 
z
" transform="scale(0.015625)"/>
       <path id="DejaVuSans-69" d="M 603 3500 
L 1178 3500 
L 1178 0 
L 603 0 
L 603 3500 
z
M 603 4863 
L 1178 4863 
L 1178 4134 
L 603 4134 
L 603 4863 
z
" transform="scale(0.015625)"/>
       <path id="DejaVuSans-76" d="M 191 3500 
L 800 3500 
L 1894 563 
L 2988 3500 
L 3597 3500 
L 2284 0 
L 1503 0 
L 191 3500 
z
" transform="scale(0.015625)"/>
       <path id="DejaVuSans-61" d="M 2194 1759 
Q 1497 1759 1228 1600 
Q 959 1441 959 1056 
Q 959 750 1161 570 
Q 1363 391 1709 391 
Q 2188 391 2477 730 
Q 2766 1069 2766 1631 
L 2766 1759 
L 2194 1759 
z
M 3341 1997 
L 3341 0 
L 2766 0 
L 2766 531 
Q 2569 213 2275 61 
Q 1981 -91 1556 -91 
Q 1019 -91 701 211 
Q 384 513 384 1019 
Q 384 1609 779 1909 
Q 1175 2209 1959 2209 
L 2766 2209 
L 2766 2266 
Q 2766 2663 2505 2880 
Q 2244 3097 1772 3097 
Q 1472 3097 1187 3025 
Q 903 2953 641 2809 
L 641 3341 
Q 956 3463 1253 3523 
Q 1550 3584 1831 3584 
Q 2591 3584 2966 3190 
Q 3341 2797 3341 1997 
z
" transform="scale(0.015625)"/>
       <path id="DejaVuSans-6f" d="M 1959 3097 
Q 1497 3097 1228 2736 
Q 959 2375 959 1747 
Q 959 1119 1226 758 
Q 1494 397 1959 397 
Q 2419 397 2687 759 
Q 2956 1122 2956 1747 
Q 2956 2369 2687 2733 
Q 2419 3097 1959 3097 
z
M 1959 3584 
Q 2709 3584 3137 3096 
Q 3566 2609 3566 1747 
Q 3566 888 3137 398 
Q 2709 -91 1959 -91 
Q 1206 -91 779 398 
Q 353 888 353 1747 
Q 353 2609 779 3096 
Q 1206 3584 1959 3584 
z
" transform="scale(0.015625)"/>
       <path id="DejaVuSans-6e" d="M 3513 2113 
L 3513 0 
L 2938 0 
L 2938 2094 
Q 2938 2591 2744 2837 
Q 2550 3084 2163 3084 
Q 1697 3084 1428 2787 
Q 1159 2491 1159 1978 
L 1159 0 
L 581 0 
L 581 3500 
L 1159 3500 
L 1159 2956 
Q 1366 3272 1645 3428 
Q 1925 3584 2291 3584 
Q 2894 3584 3203 3211 
Q 3513 2838 3513 2113 
z
" transform="scale(0.015625)"/>
      </defs>
      <use xlink:href="#DejaVuSans-41"/>
      <use xlink:href="#DejaVuSans-63" x="66.658203"/>
      <use xlink:href="#DejaVuSans-74" x="121.638672"/>
      <use xlink:href="#DejaVuSans-69" x="160.847656"/>
      <use xlink:href="#DejaVuSans-76" x="188.630859"/>
      <use xlink:href="#DejaVuSans-61" x="247.810547"/>
      <use xlink:href="#DejaVuSans-74" x="309.089844"/>
      <use xlink:href="#DejaVuSans-69" x="348.298828"/>
      <use xlink:href="#DejaVuSans-6f" x="376.082031"/>
      <use xlink:href="#DejaVuSans-6e" x="437.263672"/>
     </g>
    </g>
   </g>
   <g id="matplotlib.axis_2">
    <g id="ytick_1">
     <g id="line2d_3">
      <defs>
       <path id="mcdb55a83e5" d="M 0 0 
L -3.5 0 
" style="stroke: #000000; stroke-width: 0.8"/>
      </defs>
      <g>
       <use xlink:href="#mcdb55a83e5" x="43.78125" y="207" style="stroke: #000000; stroke-width: 0.8"/>
      </g>
     </g>
     <g id="text_4">
      <!-- 0.0 -->
      <g transform="translate(20.878125 210.799219)scale(0.1 -0.1)">
       <defs>
        <path id="DejaVuSans-2e" d="M 684 794 
L 1344 794 
L 1344 0 
L 684 0 
L 684 794 
z
" transform="scale(0.015625)"/>
       </defs>
       <use xlink:href="#DejaVuSans-30"/>
       <use xlink:href="#DejaVuSans-2e" x="63.623047"/>
       <use xlink:href="#DejaVuSans-30" x="95.410156"/>
      </g>
     </g>
    </g>
    <g id="ytick_2">
     <g id="line2d_4">
      <g>
       <use xlink:href="#mcdb55a83e5" x="43.78125" y="169.411757" style="stroke: #000000; stroke-width: 0.8"/>
      </g>
     </g>
     <g id="text_5">
      <!-- 0.1 -->
      <g transform="translate(20.878125 173.210975)scale(0.1 -0.1)">
       <defs>
        <path id="DejaVuSans-31" d="M 794 531 
L 1825 531 
L 1825 4091 
L 703 3866 
L 703 4441 
L 1819 4666 
L 2450 4666 
L 2450 531 
L 3481 531 
L 3481 0 
L 794 0 
L 794 531 
z
" transform="scale(0.015625)"/>
       </defs>
       <use xlink:href="#DejaVuSans-30"/>
       <use xlink:href="#DejaVuSans-2e" x="63.623047"/>
       <use xlink:href="#DejaVuSans-31" x="95.410156"/>
      </g>
     </g>
    </g>
    <g id="ytick_3">
     <g id="line2d_5">
      <g>
       <use xlink:href="#mcdb55a83e5" x="43.78125" y="131.823513" style="stroke: #000000; stroke-width: 0.8"/>
      </g>
     </g>
     <g id="text_6">
      <!-- 0.2 -->
      <g transform="translate(20.878125 135.622732)scale(0.1 -0.1)">
       <defs>
        <path id="DejaVuSans-32" d="M 1228 531 
L 3431 531 
L 3431 0 
L 469 0 
L 469 531 
Q 828 903 1448 1529 
Q 2069 2156 2228 2338 
Q 2531 2678 2651 2914 
Q 2772 3150 2772 3378 
Q 2772 3750 2511 3984 
Q 2250 4219 1831 4219 
Q 1534 4219 1204 4116 
Q 875 4013 500 3803 
L 500 4441 
Q 881 4594 1212 4672 
Q 1544 4750 1819 4750 
Q 2544 4750 2975 4387 
Q 3406 4025 3406 3419 
Q 3406 3131 3298 2873 
Q 3191 2616 2906 2266 
Q 2828 2175 2409 1742 
Q 1991 1309 1228 531 
z
" transform="scale(0.015625)"/>
       </defs>
       <use xlink:href="#DejaVuSans-30"/>
       <use xlink:href="#DejaVuSans-2e" x="63.623047"/>
       <use xlink:href="#DejaVuSans-32" x="95.410156"/>
      </g>
     </g>
    </g>
    <g id="ytick_4">
     <g id="line2d_6">
      <g>
       <use xlink:href="#mcdb55a83e5" x="43.78125" y="94.23527" style="stroke: #000000; stroke-width: 0.8"/>
      </g>
     </g>
     <g id="text_7">
      <!-- 0.3 -->
      <g transform="translate(20.878125 98.034488)scale(0.1 -0.1)">
       <defs>
        <path id="DejaVuSans-33" d="M 2597 2516 
Q 3050 2419 3304 2112 
Q 3559 1806 3559 1356 
Q 3559 666 3084 287 
Q 2609 -91 1734 -91 
Q 1441 -91 1130 -33 
Q 819 25 488 141 
L 488 750 
Q 750 597 1062 519 
Q 1375 441 1716 441 
Q 2309 441 2620 675 
Q 2931 909 2931 1356 
Q 2931 1769 2642 2001 
Q 2353 2234 1838 2234 
L 1294 2234 
L 1294 2753 
L 1863 2753 
Q 2328 2753 2575 2939 
Q 2822 3125 2822 3475 
Q 2822 3834 2567 4026 
Q 2313 4219 1838 4219 
Q 1578 4219 1281 4162 
Q 984 4106 628 3988 
L 628 4550 
Q 988 4650 1302 4700 
Q 1616 4750 1894 4750 
Q 2613 4750 3031 4423 
Q 3450 4097 3450 3541 
Q 3450 3153 3228 2886 
Q 3006 2619 2597 2516 
z
" transform="scale(0.015625)"/>
       </defs>
       <use xlink:href="#DejaVuSans-30"/>
       <use xlink:href="#DejaVuSans-2e" x="63.623047"/>
       <use xlink:href="#DejaVuSans-33" x="95.410156"/>
      </g>
     </g>
    </g>
    <g id="ytick_5">
     <g id="line2d_7">
      <g>
       <use xlink:href="#mcdb55a83e5" x="43.78125" y="56.647026" style="stroke: #000000; stroke-width: 0.8"/>
      </g>
     </g>
     <g id="text_8">
      <!-- 0.4 -->
      <g transform="translate(20.878125 60.446245)scale(0.1 -0.1)">
       <defs>
        <path id="DejaVuSans-34" d="M 2419 4116 
L 825 1625 
L 2419 1625 
L 2419 4116 
z
M 2253 4666 
L 3047 4666 
L 3047 1625 
L 3713 1625 
L 3713 1100 
L 3047 1100 
L 3047 0 
L 2419 0 
L 2419 1100 
L 313 1100 
L 313 1709 
L 2253 4666 
z
" transform="scale(0.015625)"/>
       </defs>
       <use xlink:href="#DejaVuSans-30"/>
       <use xlink:href="#DejaVuSans-2e" x="63.623047"/>
       <use xlink:href="#DejaVuSans-34" x="95.410156"/>
      </g>
     </g>
    </g>
    <g id="text_9">
     <!-- Density -->
     <g transform="translate(14.798438 144.468594)rotate(-90)scale(0.1 -0.1)">
      <defs>
       <path id="DejaVuSans-44" d="M 1259 4147 
L 1259 519 
L 2022 519 
Q 2988 519 3436 956 
Q 3884 1394 3884 2338 
Q 3884 3275 3436 3711 
Q 2988 4147 2022 4147 
L 1259 4147 
z
M 628 4666 
L 1925 4666 
Q 3281 4666 3915 4102 
Q 4550 3538 4550 2338 
Q 4550 1131 3912 565 
Q 3275 0 1925 0 
L 628 0 
L 628 4666 
z
" transform="scale(0.015625)"/>
       <path id="DejaVuSans-65" d="M 3597 1894 
L 3597 1613 
L 953 1613 
Q 991 1019 1311 708 
Q 1631 397 2203 397 
Q 2534 397 2845 478 
Q 3156 559 3463 722 
L 3463 178 
Q 3153 47 2828 -22 
Q 2503 -91 2169 -91 
Q 1331 -91 842 396 
Q 353 884 353 1716 
Q 353 2575 817 3079 
Q 1281 3584 2069 3584 
Q 2775 3584 3186 3129 
Q 3597 2675 3597 1894 
z
M 3022 2063 
Q 3016 2534 2758 2815 
Q 2500 3097 2075 3097 
Q 1594 3097 1305 2825 
Q 1016 2553 972 2059 
L 3022 2063 
z
" transform="scale(0.015625)"/>
       <path id="DejaVuSans-73" d="M 2834 3397 
L 2834 2853 
Q 2591 2978 2328 3040 
Q 2066 3103 1784 3103 
Q 1356 3103 1142 2972 
Q 928 2841 928 2578 
Q 928 2378 1081 2264 
Q 1234 2150 1697 2047 
L 1894 2003 
Q 2506 1872 2764 1633 
Q 3022 1394 3022 966 
Q 3022 478 2636 193 
Q 2250 -91 1575 -91 
Q 1294 -91 989 -36 
Q 684 19 347 128 
L 347 722 
Q 666 556 975 473 
Q 1284 391 1588 391 
Q 1994 391 2212 530 
Q 2431 669 2431 922 
Q 2431 1156 2273 1281 
Q 2116 1406 1581 1522 
L 1381 1569 
Q 847 1681 609 1914 
Q 372 2147 372 2553 
Q 372 3047 722 3315 
Q 1072 3584 1716 3584 
Q 2034 3584 2315 3537 
Q 2597 3491 2834 3397 
z
" transform="scale(0.015625)"/>
       <path id="DejaVuSans-79" d="M 2059 -325 
Q 1816 -950 1584 -1140 
Q 1353 -1331 966 -1331 
L 506 -1331 
L 506 -850 
L 844 -850 
Q 1081 -850 1212 -737 
Q 1344 -625 1503 -206 
L 1606 56 
L 191 3500 
L 800 3500 
L 1894 763 
L 2988 3500 
L 3597 3500 
L 2059 -325 
z
" transform="scale(0.015625)"/>
      </defs>
      <use xlink:href="#DejaVuSans-44"/>
      <use xlink:href="#DejaVuSans-65" x="77.001953"/>
      <use xlink:href="#DejaVuSans-6e" x="138.525391"/>
      <use xlink:href="#DejaVuSans-73" x="201.904297"/>
      <use xlink:href="#DejaVuSans-69" x="254.003906"/>
      <use xlink:href="#DejaVuSans-74" x="281.787109"/>
      <use xlink:href="#DejaVuSans-79" x="320.996094"/>
     </g>
    </g>
   </g>
   <g id="patch_3">
    <path d="M 43.78125 207 
L 43.78125 43.92 
" style="fill: none; stroke: #000000; stroke-width: 0.8; stroke-linejoin: miter; stroke-linecap: square"/>
   </g>
   <g id="patch_4">
    <path d="M 170.599432 207 
L 170.599432 43.92 
" style="fill: none; stroke: #000000; stroke-width: 0.8; stroke-linejoin: miter; stroke-linecap: square"/>
   </g>
   <g id="patch_5">
    <path d="M 43.78125 207 
L 170.599432 207 
" style="fill: none; stroke: #000000; stroke-width: 0.8; stroke-linejoin: miter; stroke-linecap: square"/>
   </g>
   <g id="patch_6">
    <path d="M 43.78125 43.92 
L 170.599432 43.92 
" style="fill: none; stroke: #000000; stroke-width: 0.8; stroke-linejoin: miter; stroke-linecap: square"/>
   </g>
   <g id="text_10">
    <!-- layer 1 -->
    <g transform="translate(86.412528 37.92)scale(0.12 -0.12)">
     <defs>
      <path id="DejaVuSans-6c" d="M 603 4863 
L 1178 4863 
L 1178 0 
L 603 0 
L 603 4863 
z
" transform="scale(0.015625)"/>
      <path id="DejaVuSans-72" d="M 2631 2963 
Q 2534 3019 2420 3045 
Q 2306 3072 2169 3072 
Q 1681 3072 1420 2755 
Q 1159 2438 1159 1844 
L 1159 0 
L 581 0 
L 581 3500 
L 1159 3500 
L 1159 2956 
Q 1341 3275 1631 3429 
Q 1922 3584 2338 3584 
Q 2397 3584 2469 3576 
Q 2541 3569 2628 3553 
L 2631 2963 
z
" transform="scale(0.015625)"/>
      <path id="DejaVuSans-20" transform="scale(0.015625)"/>
     </defs>
     <use xlink:href="#DejaVuSans-6c"/>
     <use xlink:href="#DejaVuSans-61" x="27.783203"/>
     <use xlink:href="#DejaVuSans-79" x="89.0625"/>
     <use xlink:href="#DejaVuSans-65" x="148.242188"/>
     <use xlink:href="#DejaVuSans-72" x="209.765625"/>
     <use xlink:href="#DejaVuSans-20" x="250.878906"/>
     <use xlink:href="#DejaVuSans-31" x="282.666016"/>
    </g>
   </g>
  </g>
  <g id="axes_2">
   <g id="patch_7">
    <path d="M 221.326705 207 
L 348.144886 207 
L 348.144886 43.92 
L 221.326705 43.92 
z
" style="fill: #ffffff"/>
   </g>
   <g id="PolyCollection_3">
    <defs>
     <path id="mb1d6db8e23" d="M 240.529945 -38.001777 
L 240.529945 -37.55625 
L 241.944535 -37.55625 
L 243.359125 -37.55625 
L 244.773715 -37.55625 
L 246.188305 -37.55625 
L 247.602895 -37.55625 
L 249.017485 -37.55625 
L 250.432075 -37.55625 
L 251.846665 -37.55625 
L 253.261255 -37.55625 
L 254.675845 -37.55625 
L 256.090435 -37.55625 
L 257.505025 -37.55625 
L 258.919615 -37.55625 
L 260.334205 -37.55625 
L 261.748795 -37.55625 
L 263.163385 -37.55625 
L 264.577975 -37.55625 
L 265.992565 -37.55625 
L 267.407155 -37.55625 
L 268.821745 -37.55625 
L 270.236335 -37.55625 
L 271.650925 -37.55625 
L 273.065515 -37.55625 
L 274.480104 -37.55625 
L 275.894694 -37.55625 
L 277.309284 -37.55625 
L 278.723874 -37.55625 
L 280.138464 -37.55625 
L 281.553054 -37.55625 
L 282.967644 -37.55625 
L 284.382234 -37.55625 
L 285.796824 -37.55625 
L 287.211414 -37.55625 
L 288.626004 -37.55625 
L 290.040594 -37.55625 
L 291.455184 -37.55625 
L 292.869774 -37.55625 
L 294.284364 -37.55625 
L 295.698954 -37.55625 
L 297.113544 -37.55625 
L 298.528134 -37.55625 
L 299.942724 -37.55625 
L 301.357314 -37.55625 
L 302.771904 -37.55625 
L 304.186494 -37.55625 
L 305.601084 -37.55625 
L 307.015674 -37.55625 
L 308.430264 -37.55625 
L 309.844854 -37.55625 
L 311.259444 -37.55625 
L 312.674034 -37.55625 
L 314.088624 -37.55625 
L 315.503214 -37.55625 
L 316.917804 -37.55625 
L 318.332394 -37.55625 
L 319.746984 -37.55625 
L 321.161574 -37.55625 
L 322.576164 -37.55625 
L 323.990754 -37.55625 
L 325.405344 -37.55625 
L 326.819934 -37.55625 
L 328.234524 -37.55625 
L 329.649114 -37.55625 
L 331.063704 -37.55625 
L 332.478294 -37.55625 
L 333.892884 -37.55625 
L 335.307474 -37.55625 
L 336.722064 -37.55625 
L 338.136654 -37.55625 
L 339.551244 -37.55625 
L 340.965834 -37.55625 
L 342.380424 -37.55625 
L 342.380424 -38.001777 
L 342.380424 -38.001777 
L 340.965834 -37.55625 
L 339.551244 -37.55625 
L 338.136654 -37.55625 
L 336.722064 -37.55625 
L 335.307474 -37.55625 
L 333.892884 -37.55625 
L 332.478294 -37.55625 
L 331.063704 -37.55625 
L 329.649114 -37.55625 
L 328.234524 -37.55625 
L 326.819934 -37.55625 
L 325.405344 -37.55625 
L 323.990754 -37.55625 
L 322.576164 -37.55625 
L 321.161574 -37.55625 
L 319.746984 -37.55625 
L 318.332394 -37.55625 
L 316.917804 -37.55625 
L 315.503214 -37.55625 
L 314.088624 -38.001777 
L 312.674034 -37.55625 
L 311.259444 -38.001777 
L 309.844854 -37.55625 
L 308.430264 -37.55625 
L 307.015674 -38.447303 
L 305.601084 -37.55625 
L 304.186494 -38.001777 
L 302.771904 -38.001777 
L 301.357314 -38.447303 
L 299.942724 -41.56599 
L 298.528134 -39.338357 
L 297.113544 -46.021257 
L 295.698954 -46.91231 
L 294.284364 -55.822844 
L 292.869774 -56.713897 
L 291.455184 -83.445498 
L 290.040594 -100.375512 
L 288.626004 -123.097373 
L 287.211414 -147.155814 
L 285.796824 -174.778468 
L 284.382234 -178.342682 
L 282.967644 -173.887415 
L 281.553054 -179.233735 
L 280.138464 -159.185034 
L 278.723874 -136.463174 
L 277.309284 -129.334747 
L 275.894694 -112.404733 
L 274.480104 -112.404733 
L 273.065515 -103.494199 
L 271.650925 -92.356032 
L 270.236335 -91.464979 
L 268.821745 -92.356032 
L 267.407155 -71.861805 
L 265.992565 -73.198385 
L 264.577975 -62.505744 
L 263.163385 -61.614691 
L 261.748795 -53.595211 
L 260.334205 -59.832584 
L 258.919615 -50.476524 
L 257.505025 -46.91231 
L 256.090435 -47.803364 
L 254.675845 -42.457044 
L 253.261255 -41.120463 
L 251.846665 -40.22941 
L 250.432075 -39.783883 
L 249.017485 -38.447303 
L 247.602895 -38.001777 
L 246.188305 -39.338357 
L 244.773715 -38.447303 
L 243.359125 -38.447303 
L 241.944535 -37.55625 
L 240.529945 -38.001777 
z
" style="stroke: #1f77b4"/>
    </defs>
    <g clip-path="url(#pd497bed642)">
     <use xlink:href="#mb1d6db8e23" x="0" y="244.55625" style="fill: #1f77b4; fill-opacity: 0.75; stroke: #1f77b4"/>
    </g>
   </g>
   <g id="PolyCollection_4">
    <defs>
     <path id="m1aa6bc4373" d="M 227.091167 -38.089976 
L 227.091167 -37.55625 
L 228.271993 -37.55625 
L 229.452819 -37.55625 
L 230.633645 -37.55625 
L 231.814471 -37.55625 
L 232.995297 -37.55625 
L 234.176123 -37.55625 
L 235.356949 -37.55625 
L 236.537775 -37.55625 
L 237.718601 -37.55625 
L 238.899427 -37.55625 
L 240.080253 -37.55625 
L 241.261079 -37.55625 
L 242.441904 -37.55625 
L 243.62273 -37.55625 
L 244.803556 -37.55625 
L 245.984382 -37.55625 
L 247.165208 -37.55625 
L 248.346034 -37.55625 
L 249.52686 -37.55625 
L 250.707686 -37.55625 
L 251.888512 -37.55625 
L 253.069338 -37.55625 
L 254.250164 -37.55625 
L 255.43099 -37.55625 
L 256.611816 -37.55625 
L 257.792642 -37.55625 
L 258.973468 -37.55625 
L 260.154293 -37.55625 
L 261.335119 -37.55625 
L 262.515945 -37.55625 
L 263.696771 -37.55625 
L 264.877597 -37.55625 
L 266.058423 -37.55625 
L 267.239249 -37.55625 
L 268.420075 -37.55625 
L 269.600901 -37.55625 
L 270.781727 -37.55625 
L 271.962553 -37.55625 
L 273.143379 -37.55625 
L 274.324205 -37.55625 
L 275.505031 -37.55625 
L 276.685857 -37.55625 
L 277.866682 -37.55625 
L 279.047508 -37.55625 
L 280.228334 -37.55625 
L 281.40916 -37.55625 
L 282.589986 -37.55625 
L 283.770812 -37.55625 
L 284.951638 -37.55625 
L 286.132464 -37.55625 
L 287.31329 -37.55625 
L 288.494116 -37.55625 
L 289.674942 -37.55625 
L 290.855768 -37.55625 
L 292.036594 -37.55625 
L 293.21742 -37.55625 
L 294.398246 -37.55625 
L 295.579071 -37.55625 
L 296.759897 -37.55625 
L 297.940723 -37.55625 
L 299.121549 -37.55625 
L 300.302375 -37.55625 
L 301.483201 -37.55625 
L 302.664027 -37.55625 
L 303.844853 -37.55625 
L 305.025679 -37.55625 
L 306.206505 -37.55625 
L 306.206505 -38.089976 
L 306.206505 -38.089976 
L 305.025679 -37.55625 
L 303.844853 -37.55625 
L 302.664027 -37.55625 
L 301.483201 -38.089976 
L 300.302375 -39.157428 
L 299.121549 -40.22488 
L 297.940723 -39.157428 
L 296.759897 -41.292332 
L 295.579071 -50.365676 
L 294.398246 -57.304115 
L 293.21742 -59.439019 
L 292.036594 -75.984527 
L 290.855768 -80.254335 
L 289.674942 -95.732391 
L 288.494116 -118.682612 
L 287.31329 -121.351243 
L 286.132464 -151.773628 
L 284.951638 -169.920315 
L 283.770812 -183.797193 
L 282.589986 -177.926206 
L 281.40916 -190.735631 
L 280.228334 -192.870536 
L 279.047508 -170.454041 
L 277.866682 -171.521493 
L 276.685857 -144.301464 
L 275.505031 -129.89086 
L 274.324205 -134.694394 
L 273.143379 -93.063761 
L 271.962553 -98.401022 
L 270.781727 -81.321788 
L 269.600901 -75.984527 
L 268.420075 -65.310006 
L 267.239249 -65.310006 
L 266.058423 -61.573923 
L 264.877597 -57.837841 
L 263.696771 -53.568032 
L 262.515945 -54.101758 
L 261.335119 -49.298223 
L 260.154293 -49.298223 
L 258.973468 -47.697045 
L 257.792642 -43.960963 
L 256.611816 -42.359785 
L 255.43099 -43.960963 
L 254.250164 -41.292332 
L 253.069338 -41.826059 
L 251.888512 -39.157428 
L 250.707686 -39.157428 
L 249.52686 -42.359785 
L 248.346034 -38.623702 
L 247.165208 -39.691154 
L 245.984382 -39.157428 
L 244.803556 -39.157428 
L 243.62273 -39.157428 
L 242.441904 -38.623702 
L 241.261079 -37.55625 
L 240.080253 -38.623702 
L 238.899427 -38.089976 
L 237.718601 -38.089976 
L 236.537775 -37.55625 
L 235.356949 -37.55625 
L 234.176123 -37.55625 
L 232.995297 -38.623702 
L 231.814471 -37.55625 
L 230.633645 -37.55625 
L 229.452819 -38.089976 
L 228.271993 -38.089976 
L 227.091167 -38.089976 
z
" style="stroke: #ff7f0e"/>
    </defs>
    <g clip-path="url(#pd497bed642)">
     <use xlink:href="#m1aa6bc4373" x="0" y="244.55625" style="fill: #ff7f0e; fill-opacity: 0.75; stroke: #ff7f0e"/>
    </g>
   </g>
   <g id="matplotlib.axis_3">
    <g id="xtick_3">
     <g id="line2d_8">
      <g>
       <use xlink:href="#md86e4c2bf0" x="240.734783" y="207" style="stroke: #000000; stroke-width: 0.8"/>
      </g>
     </g>
     <g id="text_11">
      <!-- −5 -->
      <g transform="translate(233.36369 221.598437)scale(0.1 -0.1)">
       <defs>
        <path id="DejaVuSans-2212" d="M 678 2272 
L 4684 2272 
L 4684 1741 
L 678 1741 
L 678 2272 
z
" transform="scale(0.015625)"/>
       </defs>
       <use xlink:href="#DejaVuSans-2212"/>
       <use xlink:href="#DejaVuSans-35" x="83.789062"/>
      </g>
     </g>
    </g>
    <g id="xtick_4">
     <g id="line2d_9">
      <g>
       <use xlink:href="#md86e4c2bf0" x="279.397154" y="207" style="stroke: #000000; stroke-width: 0.8"/>
      </g>
     </g>
     <g id="text_12">
      <!-- 0 -->
      <g transform="translate(276.215904 221.598437)scale(0.1 -0.1)">
       <use xlink:href="#DejaVuSans-30"/>
      </g>
     </g>
    </g>
    <g id="xtick_5">
     <g id="line2d_10">
      <g>
       <use xlink:href="#md86e4c2bf0" x="318.059525" y="207" style="stroke: #000000; stroke-width: 0.8"/>
      </g>
     </g>
     <g id="text_13">
      <!-- 5 -->
      <g transform="translate(314.878275 221.598437)scale(0.1 -0.1)">
       <use xlink:href="#DejaVuSans-35"/>
      </g>
     </g>
    </g>
    <g id="text_14">
     <!-- Activation -->
     <g transform="translate(259.703764 235.276562)scale(0.1 -0.1)">
      <use xlink:href="#DejaVuSans-41"/>
      <use xlink:href="#DejaVuSans-63" x="66.658203"/>
      <use xlink:href="#DejaVuSans-74" x="121.638672"/>
      <use xlink:href="#DejaVuSans-69" x="160.847656"/>
      <use xlink:href="#DejaVuSans-76" x="188.630859"/>
      <use xlink:href="#DejaVuSans-61" x="247.810547"/>
      <use xlink:href="#DejaVuSans-74" x="309.089844"/>
      <use xlink:href="#DejaVuSans-69" x="348.298828"/>
      <use xlink:href="#DejaVuSans-6f" x="376.082031"/>
      <use xlink:href="#DejaVuSans-6e" x="437.263672"/>
     </g>
    </g>
   </g>
   <g id="matplotlib.axis_4">
    <g id="ytick_6">
     <g id="line2d_11">
      <g>
       <use xlink:href="#mcdb55a83e5" x="221.326705" y="207" style="stroke: #000000; stroke-width: 0.8"/>
      </g>
     </g>
     <g id="text_15">
      <!-- 0.0 -->
      <g transform="translate(198.42358 210.799219)scale(0.1 -0.1)">
       <use xlink:href="#DejaVuSans-30"/>
       <use xlink:href="#DejaVuSans-2e" x="63.623047"/>
       <use xlink:href="#DejaVuSans-30" x="95.410156"/>
      </g>
     </g>
    </g>
    <g id="ytick_7">
     <g id="line2d_12">
      <g>
       <use xlink:href="#mcdb55a83e5" x="221.326705" y="173.615431" style="stroke: #000000; stroke-width: 0.8"/>
      </g>
     </g>
     <g id="text_16">
      <!-- 0.1 -->
      <g transform="translate(198.42358 177.41465)scale(0.1 -0.1)">
       <use xlink:href="#DejaVuSans-30"/>
       <use xlink:href="#DejaVuSans-2e" x="63.623047"/>
       <use xlink:href="#DejaVuSans-31" x="95.410156"/>
      </g>
     </g>
    </g>
    <g id="ytick_8">
     <g id="line2d_13">
      <g>
       <use xlink:href="#mcdb55a83e5" x="221.326705" y="140.230863" style="stroke: #000000; stroke-width: 0.8"/>
      </g>
     </g>
     <g id="text_17">
      <!-- 0.2 -->
      <g transform="translate(198.42358 144.030082)scale(0.1 -0.1)">
       <use xlink:href="#DejaVuSans-30"/>
       <use xlink:href="#DejaVuSans-2e" x="63.623047"/>
       <use xlink:href="#DejaVuSans-32" x="95.410156"/>
      </g>
     </g>
    </g>
    <g id="ytick_9">
     <g id="line2d_14">
      <g>
       <use xlink:href="#mcdb55a83e5" x="221.326705" y="106.846294" style="stroke: #000000; stroke-width: 0.8"/>
      </g>
     </g>
     <g id="text_18">
      <!-- 0.3 -->
      <g transform="translate(198.42358 110.645513)scale(0.1 -0.1)">
       <use xlink:href="#DejaVuSans-30"/>
       <use xlink:href="#DejaVuSans-2e" x="63.623047"/>
       <use xlink:href="#DejaVuSans-33" x="95.410156"/>
      </g>
     </g>
    </g>
    <g id="ytick_10">
     <g id="line2d_15">
      <g>
       <use xlink:href="#mcdb55a83e5" x="221.326705" y="73.461726" style="stroke: #000000; stroke-width: 0.8"/>
      </g>
     </g>
     <g id="text_19">
      <!-- 0.4 -->
      <g transform="translate(198.42358 77.260944)scale(0.1 -0.1)">
       <use xlink:href="#DejaVuSans-30"/>
       <use xlink:href="#DejaVuSans-2e" x="63.623047"/>
       <use xlink:href="#DejaVuSans-34" x="95.410156"/>
      </g>
     </g>
    </g>
    <g id="text_20">
     <!-- Density -->
     <g transform="translate(192.343892 144.468594)rotate(-90)scale(0.1 -0.1)">
      <use xlink:href="#DejaVuSans-44"/>
      <use xlink:href="#DejaVuSans-65" x="77.001953"/>
      <use xlink:href="#DejaVuSans-6e" x="138.525391"/>
      <use xlink:href="#DejaVuSans-73" x="201.904297"/>
      <use xlink:href="#DejaVuSans-69" x="254.003906"/>
      <use xlink:href="#DejaVuSans-74" x="281.787109"/>
      <use xlink:href="#DejaVuSans-79" x="320.996094"/>
     </g>
    </g>
   </g>
   <g id="patch_8">
    <path d="M 221.326705 207 
L 221.326705 43.92 
" style="fill: none; stroke: #000000; stroke-width: 0.8; stroke-linejoin: miter; stroke-linecap: square"/>
   </g>
   <g id="patch_9">
    <path d="M 348.144886 207 
L 348.144886 43.92 
" style="fill: none; stroke: #000000; stroke-width: 0.8; stroke-linejoin: miter; stroke-linecap: square"/>
   </g>
   <g id="patch_10">
    <path d="M 221.326705 207 
L 348.144886 207 
" style="fill: none; stroke: #000000; stroke-width: 0.8; stroke-linejoin: miter; stroke-linecap: square"/>
   </g>
   <g id="patch_11">
    <path d="M 221.326705 43.92 
L 348.144886 43.92 
" style="fill: none; stroke: #000000; stroke-width: 0.8; stroke-linejoin: miter; stroke-linecap: square"/>
   </g>
   <g id="text_21">
    <!-- layer 2 -->
    <g transform="translate(263.957983 37.92)scale(0.12 -0.12)">
     <use xlink:href="#DejaVuSans-6c"/>
     <use xlink:href="#DejaVuSans-61" x="27.783203"/>
     <use xlink:href="#DejaVuSans-79" x="89.0625"/>
     <use xlink:href="#DejaVuSans-65" x="148.242188"/>
     <use xlink:href="#DejaVuSans-72" x="209.765625"/>
     <use xlink:href="#DejaVuSans-20" x="250.878906"/>
     <use xlink:href="#DejaVuSans-32" x="282.666016"/>
    </g>
   </g>
  </g>
  <g id="axes_3">
   <g id="patch_12">
    <path d="M 398.872159 207 
L 525.690341 207 
L 525.690341 43.92 
L 398.872159 43.92 
z
" style="fill: #ffffff"/>
   </g>
   <g id="PolyCollection_5">
    <defs>
     <path id="m71f636272e" d="M 414.452948 -38.110944 
L 414.452948 -37.55625 
L 415.855336 -37.55625 
L 417.257725 -37.55625 
L 418.660113 -37.55625 
L 420.062502 -37.55625 
L 421.46489 -37.55625 
L 422.867279 -37.55625 
L 424.269667 -37.55625 
L 425.672056 -37.55625 
L 427.074444 -37.55625 
L 428.476833 -37.55625 
L 429.879221 -37.55625 
L 431.28161 -37.55625 
L 432.683998 -37.55625 
L 434.086387 -37.55625 
L 435.488775 -37.55625 
L 436.891164 -37.55625 
L 438.293552 -37.55625 
L 439.695941 -37.55625 
L 441.098329 -37.55625 
L 442.500718 -37.55625 
L 443.903106 -37.55625 
L 445.305495 -37.55625 
L 446.707883 -37.55625 
L 448.110272 -37.55625 
L 449.51266 -37.55625 
L 450.915049 -37.55625 
L 452.317437 -37.55625 
L 453.719826 -37.55625 
L 455.122214 -37.55625 
L 456.524603 -37.55625 
L 457.926991 -37.55625 
L 459.32938 -37.55625 
L 460.731768 -37.55625 
L 462.134157 -37.55625 
L 463.536545 -37.55625 
L 464.938934 -37.55625 
L 466.341322 -37.55625 
L 467.743711 -37.55625 
L 469.146099 -37.55625 
L 470.548488 -37.55625 
L 471.950876 -37.55625 
L 473.353265 -37.55625 
L 474.755653 -37.55625 
L 476.158042 -37.55625 
L 477.56043 -37.55625 
L 478.962819 -37.55625 
L 480.365207 -37.55625 
L 481.767596 -37.55625 
L 483.169984 -37.55625 
L 484.572373 -37.55625 
L 485.974761 -37.55625 
L 487.37715 -37.55625 
L 488.779538 -37.55625 
L 490.181927 -37.55625 
L 491.584315 -37.55625 
L 492.986704 -37.55625 
L 494.389092 -37.55625 
L 495.791481 -37.55625 
L 497.193869 -37.55625 
L 498.596258 -37.55625 
L 499.998646 -37.55625 
L 501.401035 -37.55625 
L 502.803423 -37.55625 
L 504.205812 -37.55625 
L 505.6082 -37.55625 
L 507.010589 -37.55625 
L 508.412977 -37.55625 
L 509.815366 -37.55625 
L 511.217754 -37.55625 
L 512.620143 -37.55625 
L 514.022531 -37.55625 
L 515.42492 -37.55625 
L 515.42492 -38.110944 
L 515.42492 -38.110944 
L 514.022531 -37.55625 
L 512.620143 -37.55625 
L 511.217754 -37.55625 
L 509.815366 -37.55625 
L 508.412977 -37.55625 
L 507.010589 -37.55625 
L 505.6082 -38.110944 
L 504.205812 -38.110944 
L 502.803423 -37.55625 
L 501.401035 -37.55625 
L 499.998646 -38.110944 
L 498.596258 -37.55625 
L 497.193869 -38.110944 
L 495.791481 -37.55625 
L 494.389092 -37.55625 
L 492.986704 -37.55625 
L 491.584315 -38.110944 
L 490.181927 -37.55625 
L 488.779538 -38.110944 
L 487.37715 -38.110944 
L 485.974761 -38.665638 
L 484.572373 -39.220332 
L 483.169984 -39.775026 
L 481.767596 -39.220332 
L 480.365207 -38.665638 
L 478.962819 -38.110944 
L 477.56043 -39.775026 
L 476.158042 -38.665638 
L 474.755653 -41.993801 
L 473.353265 -40.329719 
L 471.950876 -41.439107 
L 470.548488 -41.439107 
L 469.146099 -43.657883 
L 467.743711 -47.54074 
L 466.341322 -52.532985 
L 464.938934 -51.423597 
L 463.536545 -60.298699 
L 462.134157 -60.853393 
L 460.731768 -65.290944 
L 459.32938 -78.603597 
L 457.926991 -89.697474 
L 456.524603 -106.338291 
L 455.122214 -121.315026 
L 453.719826 -149.604413 
L 452.317437 -159.588903 
L 450.915049 -175.675026 
L 449.51266 -190.65176 
L 448.110272 -192.870536 
L 446.707883 -181.776658 
L 445.305495 -191.761148 
L 443.903106 -163.47176 
L 442.500718 -172.901556 
L 441.098329 -161.252985 
L 439.695941 -138.510536 
L 438.293552 -110.221148 
L 436.891164 -106.892985 
L 435.488775 -91.361556 
L 434.086387 -90.252168 
L 432.683998 -80.267679 
L 431.28161 -73.056658 
L 429.879221 -62.517474 
L 428.476833 -57.52523 
L 427.074444 -54.75176 
L 425.672056 -47.54074 
L 424.269667 -43.103189 
L 422.867279 -39.775026 
L 421.46489 -40.329719 
L 420.062502 -38.110944 
L 418.660113 -38.110944 
L 417.257725 -38.110944 
L 415.855336 -37.55625 
L 414.452948 -38.110944 
z
" style="stroke: #1f77b4"/>
    </defs>
    <g clip-path="url(#p0ad8424cc3)">
     <use xlink:href="#m71f636272e" x="0" y="244.55625" style="fill: #1f77b4; fill-opacity: 0.75; stroke: #1f77b4"/>
    </g>
   </g>
   <g id="PolyCollection_6">
    <defs>
     <path id="m518540ae90" d="M 404.636622 -38.028564 
L 404.636622 -37.55625 
L 406.283611 -37.55625 
L 407.930601 -37.55625 
L 409.57759 -37.55625 
L 411.224579 -37.55625 
L 412.871569 -37.55625 
L 414.518558 -37.55625 
L 416.165548 -37.55625 
L 417.812537 -37.55625 
L 419.459526 -37.55625 
L 421.106516 -37.55625 
L 422.753505 -37.55625 
L 424.400494 -37.55625 
L 426.047484 -37.55625 
L 427.694473 -37.55625 
L 429.341463 -37.55625 
L 430.988452 -37.55625 
L 432.635441 -37.55625 
L 434.282431 -37.55625 
L 435.92942 -37.55625 
L 437.576409 -37.55625 
L 439.223399 -37.55625 
L 440.870388 -37.55625 
L 442.517378 -37.55625 
L 444.164367 -37.55625 
L 445.811356 -37.55625 
L 447.458346 -37.55625 
L 449.105335 -37.55625 
L 450.752324 -37.55625 
L 452.399314 -37.55625 
L 454.046303 -37.55625 
L 455.693293 -37.55625 
L 457.340282 -37.55625 
L 458.987271 -37.55625 
L 460.634261 -37.55625 
L 462.28125 -37.55625 
L 463.928239 -37.55625 
L 465.575229 -37.55625 
L 467.222218 -37.55625 
L 468.869207 -37.55625 
L 470.516197 -37.55625 
L 472.163186 -37.55625 
L 473.810176 -37.55625 
L 475.457165 -37.55625 
L 477.104154 -37.55625 
L 478.751144 -37.55625 
L 480.398133 -37.55625 
L 482.045122 -37.55625 
L 483.692112 -37.55625 
L 485.339101 -37.55625 
L 486.986091 -37.55625 
L 488.63308 -37.55625 
L 490.280069 -37.55625 
L 491.927059 -37.55625 
L 493.574048 -37.55625 
L 495.221037 -37.55625 
L 496.868027 -37.55625 
L 498.515016 -37.55625 
L 500.162006 -37.55625 
L 501.808995 -37.55625 
L 503.455984 -37.55625 
L 505.102974 -37.55625 
L 506.749963 -37.55625 
L 508.396952 -37.55625 
L 510.043942 -37.55625 
L 511.690931 -37.55625 
L 513.337921 -37.55625 
L 514.98491 -37.55625 
L 516.631899 -37.55625 
L 518.278889 -37.55625 
L 519.925878 -37.55625 
L 519.925878 -38.028564 
L 519.925878 -38.028564 
L 518.278889 -37.55625 
L 516.631899 -37.55625 
L 514.98491 -37.55625 
L 513.337921 -37.55625 
L 511.690931 -37.55625 
L 510.043942 -37.55625 
L 508.396952 -37.55625 
L 506.749963 -38.028564 
L 505.102974 -37.55625 
L 503.455984 -37.55625 
L 501.808995 -37.55625 
L 500.162006 -37.55625 
L 498.515016 -37.55625 
L 496.868027 -37.55625 
L 495.221037 -37.55625 
L 493.574048 -38.028564 
L 491.927059 -37.55625 
L 490.280069 -37.55625 
L 488.63308 -38.028564 
L 486.986091 -37.55625 
L 485.339101 -38.028564 
L 483.692112 -38.500878 
L 482.045122 -38.500878 
L 480.398133 -38.028564 
L 478.751144 -38.973192 
L 477.104154 -40.390135 
L 475.457165 -41.334763 
L 473.810176 -44.640962 
L 472.163186 -48.419474 
L 470.516197 -49.836417 
L 468.869207 -53.61493 
L 467.222218 -60.699641 
L 465.575229 -57.393442 
L 463.928239 -81.009148 
L 462.28125 -83.843032 
L 460.634261 -84.787661 
L 458.987271 -89.510802 
L 457.340282 -90.927744 
L 455.693293 -109.820308 
L 454.046303 -113.126507 
L 452.399314 -122.100475 
L 450.752324 -133.436013 
L 449.105335 -142.409981 
L 447.458346 -162.719488 
L 445.811356 -177.361225 
L 444.164367 -168.859571 
L 442.517378 -173.110398 
L 440.870388 -177.361225 
L 439.223399 -154.217834 
L 437.576409 -137.214526 
L 435.92942 -111.709565 
L 434.282431 -97.540141 
L 432.635441 -78.647577 
L 430.988452 -69.673609 
L 429.341463 -63.061212 
L 427.694473 -48.419474 
L 426.047484 -47.94716 
L 424.400494 -42.751705 
L 422.753505 -38.500878 
L 421.106516 -41.334763 
L 419.459526 -39.445506 
L 417.812537 -37.55625 
L 416.165548 -39.445506 
L 414.518558 -38.028564 
L 412.871569 -37.55625 
L 411.224579 -38.028564 
L 409.57759 -37.55625 
L 407.930601 -37.55625 
L 406.283611 -37.55625 
L 404.636622 -38.028564 
z
" style="stroke: #ff7f0e"/>
    </defs>
    <g clip-path="url(#p0ad8424cc3)">
     <use xlink:href="#m518540ae90" x="0" y="244.55625" style="fill: #ff7f0e; fill-opacity: 0.75; stroke: #ff7f0e"/>
    </g>
   </g>
   <g id="matplotlib.axis_5">
    <g id="xtick_6">
     <g id="line2d_16">
      <g>
       <use xlink:href="#md86e4c2bf0" x="406.267191" y="207" style="stroke: #000000; stroke-width: 0.8"/>
      </g>
     </g>
     <g id="text_22">
      <!-- −5 -->
      <g transform="translate(398.896097 221.598437)scale(0.1 -0.1)">
       <use xlink:href="#DejaVuSans-2212"/>
       <use xlink:href="#DejaVuSans-35" x="83.789062"/>
      </g>
     </g>
    </g>
    <g id="xtick_7">
     <g id="line2d_17">
      <g>
       <use xlink:href="#md86e4c2bf0" x="446.919717" y="207" style="stroke: #000000; stroke-width: 0.8"/>
      </g>
     </g>
     <g id="text_23">
      <!-- 0 -->
      <g transform="translate(443.738467 221.598437)scale(0.1 -0.1)">
       <use xlink:href="#DejaVuSans-30"/>
      </g>
     </g>
    </g>
    <g id="xtick_8">
     <g id="line2d_18">
      <g>
       <use xlink:href="#md86e4c2bf0" x="487.572244" y="207" style="stroke: #000000; stroke-width: 0.8"/>
      </g>
     </g>
     <g id="text_24">
      <!-- 5 -->
      <g transform="translate(484.390994 221.598437)scale(0.1 -0.1)">
       <use xlink:href="#DejaVuSans-35"/>
      </g>
     </g>
    </g>
    <g id="text_25">
     <!-- Activation -->
     <g transform="translate(437.249219 235.276562)scale(0.1 -0.1)">
      <use xlink:href="#DejaVuSans-41"/>
      <use xlink:href="#DejaVuSans-63" x="66.658203"/>
      <use xlink:href="#DejaVuSans-74" x="121.638672"/>
      <use xlink:href="#DejaVuSans-69" x="160.847656"/>
      <use xlink:href="#DejaVuSans-76" x="188.630859"/>
      <use xlink:href="#DejaVuSans-61" x="247.810547"/>
      <use xlink:href="#DejaVuSans-74" x="309.089844"/>
      <use xlink:href="#DejaVuSans-69" x="348.298828"/>
      <use xlink:href="#DejaVuSans-6f" x="376.082031"/>
      <use xlink:href="#DejaVuSans-6e" x="437.263672"/>
     </g>
    </g>
   </g>
   <g id="matplotlib.axis_6">
    <g id="ytick_11">
     <g id="line2d_19">
      <g>
       <use xlink:href="#mcdb55a83e5" x="398.872159" y="207" style="stroke: #000000; stroke-width: 0.8"/>
      </g>
     </g>
     <g id="text_26">
      <!-- 0.0 -->
      <g transform="translate(375.969034 210.799219)scale(0.1 -0.1)">
       <use xlink:href="#DejaVuSans-30"/>
       <use xlink:href="#DejaVuSans-2e" x="63.623047"/>
       <use xlink:href="#DejaVuSans-30" x="95.410156"/>
      </g>
     </g>
    </g>
    <g id="ytick_12">
     <g id="line2d_20">
      <g>
       <use xlink:href="#mcdb55a83e5" x="398.872159" y="167.811005" style="stroke: #000000; stroke-width: 0.8"/>
      </g>
     </g>
     <g id="text_27">
      <!-- 0.1 -->
      <g transform="translate(375.969034 171.610224)scale(0.1 -0.1)">
       <use xlink:href="#DejaVuSans-30"/>
       <use xlink:href="#DejaVuSans-2e" x="63.623047"/>
       <use xlink:href="#DejaVuSans-31" x="95.410156"/>
      </g>
     </g>
    </g>
    <g id="ytick_13">
     <g id="line2d_21">
      <g>
       <use xlink:href="#mcdb55a83e5" x="398.872159" y="128.62201" style="stroke: #000000; stroke-width: 0.8"/>
      </g>
     </g>
     <g id="text_28">
      <!-- 0.2 -->
      <g transform="translate(375.969034 132.421229)scale(0.1 -0.1)">
       <use xlink:href="#DejaVuSans-30"/>
       <use xlink:href="#DejaVuSans-2e" x="63.623047"/>
       <use xlink:href="#DejaVuSans-32" x="95.410156"/>
      </g>
     </g>
    </g>
    <g id="ytick_14">
     <g id="line2d_22">
      <g>
       <use xlink:href="#mcdb55a83e5" x="398.872159" y="89.433016" style="stroke: #000000; stroke-width: 0.8"/>
      </g>
     </g>
     <g id="text_29">
      <!-- 0.3 -->
      <g transform="translate(375.969034 93.232234)scale(0.1 -0.1)">
       <use xlink:href="#DejaVuSans-30"/>
       <use xlink:href="#DejaVuSans-2e" x="63.623047"/>
       <use xlink:href="#DejaVuSans-33" x="95.410156"/>
      </g>
     </g>
    </g>
    <g id="ytick_15">
     <g id="line2d_23">
      <g>
       <use xlink:href="#mcdb55a83e5" x="398.872159" y="50.244021" style="stroke: #000000; stroke-width: 0.8"/>
      </g>
     </g>
     <g id="text_30">
      <!-- 0.4 -->
      <g transform="translate(375.969034 54.043239)scale(0.1 -0.1)">
       <use xlink:href="#DejaVuSans-30"/>
       <use xlink:href="#DejaVuSans-2e" x="63.623047"/>
       <use xlink:href="#DejaVuSans-34" x="95.410156"/>
      </g>
     </g>
    </g>
    <g id="text_31">
     <!-- Density -->
     <g transform="translate(369.889347 144.468594)rotate(-90)scale(0.1 -0.1)">
      <use xlink:href="#DejaVuSans-44"/>
      <use xlink:href="#DejaVuSans-65" x="77.001953"/>
      <use xlink:href="#DejaVuSans-6e" x="138.525391"/>
      <use xlink:href="#DejaVuSans-73" x="201.904297"/>
      <use xlink:href="#DejaVuSans-69" x="254.003906"/>
      <use xlink:href="#DejaVuSans-74" x="281.787109"/>
      <use xlink:href="#DejaVuSans-79" x="320.996094"/>
     </g>
    </g>
   </g>
   <g id="patch_13">
    <path d="M 398.872159 207 
L 398.872159 43.92 
" style="fill: none; stroke: #000000; stroke-width: 0.8; stroke-linejoin: miter; stroke-linecap: square"/>
   </g>
   <g id="patch_14">
    <path d="M 525.690341 207 
L 525.690341 43.92 
" style="fill: none; stroke: #000000; stroke-width: 0.8; stroke-linejoin: miter; stroke-linecap: square"/>
   </g>
   <g id="patch_15">
    <path d="M 398.872159 207 
L 525.690341 207 
" style="fill: none; stroke: #000000; stroke-width: 0.8; stroke-linejoin: miter; stroke-linecap: square"/>
   </g>
   <g id="patch_16">
    <path d="M 398.872159 43.92 
L 525.690341 43.92 
" style="fill: none; stroke: #000000; stroke-width: 0.8; stroke-linejoin: miter; stroke-linecap: square"/>
   </g>
   <g id="text_32">
    <!-- layer 3 -->
    <g transform="translate(441.503438 37.92)scale(0.12 -0.12)">
     <use xlink:href="#DejaVuSans-6c"/>
     <use xlink:href="#DejaVuSans-61" x="27.783203"/>
     <use xlink:href="#DejaVuSans-79" x="89.0625"/>
     <use xlink:href="#DejaVuSans-65" x="148.242188"/>
     <use xlink:href="#DejaVuSans-72" x="209.765625"/>
     <use xlink:href="#DejaVuSans-20" x="250.878906"/>
     <use xlink:href="#DejaVuSans-33" x="282.666016"/>
    </g>
   </g>
  </g>
  <g id="axes_4">
   <g id="patch_17">
    <path d="M 576.417614 207 
L 703.235795 207 
L 703.235795 43.92 
L 576.417614 43.92 
z
" style="fill: #ffffff"/>
   </g>
   <g id="PolyCollection_7">
    <defs>
     <path id="m62b906074b" d="M 582.182076 -37.8578 
L 582.182076 -37.55625 
L 584.74406 -37.55625 
L 587.306043 -37.55625 
L 589.868027 -37.55625 
L 592.43001 -37.55625 
L 594.991994 -37.55625 
L 597.553977 -37.55625 
L 600.115961 -37.55625 
L 602.677944 -37.55625 
L 605.239928 -37.55625 
L 607.801911 -37.55625 
L 610.363895 -37.55625 
L 612.925878 -37.55625 
L 615.487862 -37.55625 
L 618.049845 -37.55625 
L 620.611829 -37.55625 
L 623.173812 -37.55625 
L 625.735795 -37.55625 
L 628.297779 -37.55625 
L 630.859762 -37.55625 
L 633.421746 -37.55625 
L 635.983729 -37.55625 
L 638.545713 -37.55625 
L 641.107696 -37.55625 
L 643.66968 -37.55625 
L 646.231663 -37.55625 
L 648.793647 -37.55625 
L 651.35563 -37.55625 
L 653.917614 -37.55625 
L 656.479597 -37.55625 
L 659.041581 -37.55625 
L 661.603564 -37.55625 
L 664.165548 -37.55625 
L 666.727531 -37.55625 
L 669.289514 -37.55625 
L 671.851498 -37.55625 
L 674.413481 -37.55625 
L 676.975465 -37.55625 
L 679.537448 -37.55625 
L 682.099432 -37.55625 
L 684.661415 -37.55625 
L 687.223399 -37.55625 
L 689.785382 -37.55625 
L 692.347366 -37.55625 
L 694.909349 -37.55625 
L 697.471333 -37.55625 
L 697.471333 -37.8578 
L 697.471333 -37.8578 
L 694.909349 -37.55625 
L 692.347366 -37.55625 
L 689.785382 -37.55625 
L 687.223399 -37.8578 
L 684.661415 -37.55625 
L 682.099432 -37.55625 
L 679.537448 -37.55625 
L 676.975465 -37.8578 
L 674.413481 -37.55625 
L 671.851498 -37.8578 
L 669.289514 -38.460899 
L 666.727531 -38.159349 
L 664.165548 -39.365547 
L 661.603564 -40.270196 
L 659.041581 -45.094989 
L 656.479597 -55.649223 
L 653.917614 -66.806557 
L 651.35563 -82.185584 
L 648.793647 -93.644467 
L 646.231663 -118.06998 
L 643.66968 -121.688575 
L 641.107696 -133.750557 
L 638.545713 -129.227314 
L 635.983729 -124.402521 
L 633.421746 -105.706449 
L 630.859762 -107.214196 
L 628.297779 -99.373908 
L 625.735795 -106.611097 
L 623.173812 -95.152214 
L 620.611829 -94.850665 
L 618.049845 -91.835169 
L 615.487862 -79.471638 
L 612.925878 -79.773187 
L 610.363895 -70.123602 
L 607.801911 -65.298809 
L 605.239928 -60.172466 
L 602.677944 -50.221331 
L 600.115961 -45.999637 
L 597.553977 -40.873295 
L 594.991994 -39.365547 
L 592.43001 -38.460899 
L 589.868027 -37.8578 
L 587.306043 -37.55625 
L 584.74406 -37.8578 
L 582.182076 -37.8578 
z
" style="stroke: #1f77b4"/>
    </defs>
    <g clip-path="url(#pe233add2f7)">
     <use xlink:href="#m62b906074b" x="0" y="244.55625" style="fill: #1f77b4; fill-opacity: 0.75; stroke: #1f77b4"/>
    </g>
   </g>
   <g id="PolyCollection_8">
    <defs>
     <path id="m987f802259" d="M 595.0562 -38.105064 
L 595.0562 -37.55625 
L 596.4639 -37.55625 
L 597.8716 -37.55625 
L 599.279299 -37.55625 
L 600.686999 -37.55625 
L 602.094699 -37.55625 
L 603.502399 -37.55625 
L 604.910099 -37.55625 
L 606.317798 -37.55625 
L 607.725498 -37.55625 
L 609.133198 -37.55625 
L 610.540898 -37.55625 
L 611.948597 -37.55625 
L 613.356297 -37.55625 
L 614.763997 -37.55625 
L 616.171697 -37.55625 
L 617.579397 -37.55625 
L 618.987096 -37.55625 
L 620.394796 -37.55625 
L 621.802496 -37.55625 
L 623.210196 -37.55625 
L 624.617895 -37.55625 
L 626.025595 -37.55625 
L 627.433295 -37.55625 
L 628.840995 -37.55625 
L 630.248695 -37.55625 
L 631.656394 -37.55625 
L 633.064094 -37.55625 
L 634.471794 -37.55625 
L 635.879494 -37.55625 
L 637.287194 -37.55625 
L 638.694893 -37.55625 
L 640.102593 -37.55625 
L 641.510293 -37.55625 
L 642.917993 -37.55625 
L 644.325692 -37.55625 
L 645.733392 -37.55625 
L 647.141092 -37.55625 
L 648.548792 -37.55625 
L 649.956492 -37.55625 
L 651.364191 -37.55625 
L 652.771891 -37.55625 
L 654.179591 -37.55625 
L 655.587291 -37.55625 
L 656.99499 -37.55625 
L 658.40269 -37.55625 
L 659.81039 -37.55625 
L 661.21809 -37.55625 
L 662.62579 -37.55625 
L 664.033489 -37.55625 
L 665.441189 -37.55625 
L 666.848889 -37.55625 
L 668.256589 -37.55625 
L 669.664288 -37.55625 
L 671.071988 -37.55625 
L 672.479688 -37.55625 
L 673.887388 -37.55625 
L 675.295088 -37.55625 
L 676.702787 -37.55625 
L 678.110487 -37.55625 
L 679.518187 -37.55625 
L 680.925887 -37.55625 
L 682.333586 -37.55625 
L 683.741286 -37.55625 
L 685.148986 -37.55625 
L 686.556686 -37.55625 
L 687.964386 -37.55625 
L 689.372085 -37.55625 
L 690.779785 -37.55625 
L 692.187485 -37.55625 
L 693.595185 -37.55625 
L 695.002884 -37.55625 
L 696.410584 -37.55625 
L 696.410584 -38.105064 
L 696.410584 -38.105064 
L 695.002884 -37.55625 
L 693.595185 -37.55625 
L 692.187485 -37.55625 
L 690.779785 -37.55625 
L 689.372085 -38.105064 
L 687.964386 -38.105064 
L 686.556686 -38.105064 
L 685.148986 -39.202691 
L 683.741286 -39.202691 
L 682.333586 -38.105064 
L 680.925887 -37.55625 
L 679.518187 -38.105064 
L 678.110487 -38.105064 
L 676.702787 -40.300319 
L 675.295088 -39.202691 
L 673.887388 -39.751505 
L 672.479688 -38.653877 
L 671.071988 -39.202691 
L 669.664288 -40.300319 
L 668.256589 -38.653877 
L 666.848889 -40.849132 
L 665.441189 -45.239642 
L 664.033489 -40.849132 
L 662.62579 -43.044387 
L 661.21809 -45.788456 
L 659.81039 -47.434897 
L 658.40269 -43.044387 
L 656.99499 -48.532525 
L 655.587291 -51.276593 
L 654.179591 -49.081338 
L 652.771891 -47.983711 
L 651.364191 -49.630152 
L 649.956492 -57.862358 
L 648.548792 -57.862358 
L 647.141092 -58.959985 
L 645.733392 -66.094564 
L 644.325692 -68.289819 
L 642.917993 -80.363721 
L 641.510293 -86.949486 
L 640.102593 -94.084064 
L 638.694893 -124.817633 
L 637.287194 -134.147467 
L 635.879494 -150.063065 
L 634.471794 -165.429849 
L 633.064094 -192.321722 
L 631.656394 -187.931212 
L 630.248695 -192.870536 
L 628.840995 -187.931212 
L 627.433295 -174.210869 
L 626.025595 -178.052565 
L 624.617895 -152.25832 
L 623.210196 -134.69628 
L 621.802496 -103.413898 
L 620.394796 -107.804407 
L 618.987096 -79.814907 
L 617.579397 -71.582701 
L 616.171697 -61.704054 
L 614.763997 -62.252868 
L 613.356297 -63.350495 
L 611.948597 -54.020662 
L 610.540898 -47.434897 
L 609.133198 -44.690828 
L 607.725498 -42.495574 
L 606.317798 -40.849132 
L 604.910099 -38.105064 
L 603.502399 -38.105064 
L 602.094699 -37.55625 
L 600.686999 -38.105064 
L 599.279299 -38.105064 
L 597.8716 -37.55625 
L 596.4639 -37.55625 
L 595.0562 -38.105064 
z
" style="stroke: #ff7f0e"/>
    </defs>
    <g clip-path="url(#pe233add2f7)">
     <use xlink:href="#m987f802259" x="0" y="244.55625" style="fill: #ff7f0e; fill-opacity: 0.75; stroke: #ff7f0e"/>
    </g>
   </g>
   <g id="matplotlib.axis_7">
    <g id="xtick_9">
     <g id="line2d_24">
      <g>
       <use xlink:href="#md86e4c2bf0" x="591.248066" y="207" style="stroke: #000000; stroke-width: 0.8"/>
      </g>
     </g>
     <g id="text_33">
      <!-- −5 -->
      <g transform="translate(583.876972 221.598437)scale(0.1 -0.1)">
       <use xlink:href="#DejaVuSans-2212"/>
       <use xlink:href="#DejaVuSans-35" x="83.789062"/>
      </g>
     </g>
    </g>
    <g id="xtick_10">
     <g id="line2d_25">
      <g>
       <use xlink:href="#md86e4c2bf0" x="632.077864" y="207" style="stroke: #000000; stroke-width: 0.8"/>
      </g>
     </g>
     <g id="text_34">
      <!-- 0 -->
      <g transform="translate(628.896614 221.598437)scale(0.1 -0.1)">
       <use xlink:href="#DejaVuSans-30"/>
      </g>
     </g>
    </g>
    <g id="xtick_11">
     <g id="line2d_26">
      <g>
       <use xlink:href="#md86e4c2bf0" x="672.907662" y="207" style="stroke: #000000; stroke-width: 0.8"/>
      </g>
     </g>
     <g id="text_35">
      <!-- 5 -->
      <g transform="translate(669.726412 221.598437)scale(0.1 -0.1)">
       <use xlink:href="#DejaVuSans-35"/>
      </g>
     </g>
    </g>
    <g id="text_36">
     <!-- Activation -->
     <g transform="translate(614.794673 235.276562)scale(0.1 -0.1)">
      <use xlink:href="#DejaVuSans-41"/>
      <use xlink:href="#DejaVuSans-63" x="66.658203"/>
      <use xlink:href="#DejaVuSans-74" x="121.638672"/>
      <use xlink:href="#DejaVuSans-69" x="160.847656"/>
      <use xlink:href="#DejaVuSans-76" x="188.630859"/>
      <use xlink:href="#DejaVuSans-61" x="247.810547"/>
      <use xlink:href="#DejaVuSans-74" x="309.089844"/>
      <use xlink:href="#DejaVuSans-69" x="348.298828"/>
      <use xlink:href="#DejaVuSans-6f" x="376.082031"/>
      <use xlink:href="#DejaVuSans-6e" x="437.263672"/>
     </g>
    </g>
   </g>
   <g id="matplotlib.axis_8">
    <g id="ytick_16">
     <g id="line2d_27">
      <g>
       <use xlink:href="#mcdb55a83e5" x="576.417614" y="207" style="stroke: #000000; stroke-width: 0.8"/>
      </g>
     </g>
     <g id="text_37">
      <!-- 0.0 -->
      <g transform="translate(553.514489 210.799219)scale(0.1 -0.1)">
       <use xlink:href="#DejaVuSans-30"/>
       <use xlink:href="#DejaVuSans-2e" x="63.623047"/>
       <use xlink:href="#DejaVuSans-30" x="95.410156"/>
      </g>
     </g>
    </g>
    <g id="ytick_17">
     <g id="line2d_28">
      <g>
       <use xlink:href="#mcdb55a83e5" x="576.417614" y="168.24857" style="stroke: #000000; stroke-width: 0.8"/>
      </g>
     </g>
     <g id="text_38">
      <!-- 0.1 -->
      <g transform="translate(553.514489 172.047789)scale(0.1 -0.1)">
       <use xlink:href="#DejaVuSans-30"/>
       <use xlink:href="#DejaVuSans-2e" x="63.623047"/>
       <use xlink:href="#DejaVuSans-31" x="95.410156"/>
      </g>
     </g>
    </g>
    <g id="ytick_18">
     <g id="line2d_29">
      <g>
       <use xlink:href="#mcdb55a83e5" x="576.417614" y="129.497141" style="stroke: #000000; stroke-width: 0.8"/>
      </g>
     </g>
     <g id="text_39">
      <!-- 0.2 -->
      <g transform="translate(553.514489 133.296359)scale(0.1 -0.1)">
       <use xlink:href="#DejaVuSans-30"/>
       <use xlink:href="#DejaVuSans-2e" x="63.623047"/>
       <use xlink:href="#DejaVuSans-32" x="95.410156"/>
      </g>
     </g>
    </g>
    <g id="ytick_19">
     <g id="line2d_30">
      <g>
       <use xlink:href="#mcdb55a83e5" x="576.417614" y="90.745711" style="stroke: #000000; stroke-width: 0.8"/>
      </g>
     </g>
     <g id="text_40">
      <!-- 0.3 -->
      <g transform="translate(553.514489 94.54493)scale(0.1 -0.1)">
       <use xlink:href="#DejaVuSans-30"/>
       <use xlink:href="#DejaVuSans-2e" x="63.623047"/>
       <use xlink:href="#DejaVuSans-33" x="95.410156"/>
      </g>
     </g>
    </g>
    <g id="ytick_20">
     <g id="line2d_31">
      <g>
       <use xlink:href="#mcdb55a83e5" x="576.417614" y="51.994281" style="stroke: #000000; stroke-width: 0.8"/>
      </g>
     </g>
     <g id="text_41">
      <!-- 0.4 -->
      <g transform="translate(553.514489 55.7935)scale(0.1 -0.1)">
       <use xlink:href="#DejaVuSans-30"/>
       <use xlink:href="#DejaVuSans-2e" x="63.623047"/>
       <use xlink:href="#DejaVuSans-34" x="95.410156"/>
      </g>
     </g>
    </g>
    <g id="text_42">
     <!-- Density -->
     <g transform="translate(547.434801 144.468594)rotate(-90)scale(0.1 -0.1)">
      <use xlink:href="#DejaVuSans-44"/>
      <use xlink:href="#DejaVuSans-65" x="77.001953"/>
      <use xlink:href="#DejaVuSans-6e" x="138.525391"/>
      <use xlink:href="#DejaVuSans-73" x="201.904297"/>
      <use xlink:href="#DejaVuSans-69" x="254.003906"/>
      <use xlink:href="#DejaVuSans-74" x="281.787109"/>
      <use xlink:href="#DejaVuSans-79" x="320.996094"/>
     </g>
    </g>
   </g>
   <g id="patch_18">
    <path d="M 576.417614 207 
L 576.417614 43.92 
" style="fill: none; stroke: #000000; stroke-width: 0.8; stroke-linejoin: miter; stroke-linecap: square"/>
   </g>
   <g id="patch_19">
    <path d="M 703.235795 207 
L 703.235795 43.92 
" style="fill: none; stroke: #000000; stroke-width: 0.8; stroke-linejoin: miter; stroke-linecap: square"/>
   </g>
   <g id="patch_20">
    <path d="M 576.417614 207 
L 703.235795 207 
" style="fill: none; stroke: #000000; stroke-width: 0.8; stroke-linejoin: miter; stroke-linecap: square"/>
   </g>
   <g id="patch_21">
    <path d="M 576.417614 43.92 
L 703.235795 43.92 
" style="fill: none; stroke: #000000; stroke-width: 0.8; stroke-linejoin: miter; stroke-linecap: square"/>
   </g>
   <g id="text_43">
    <!-- layer 4 -->
    <g transform="translate(619.048892 37.92)scale(0.12 -0.12)">
     <use xlink:href="#DejaVuSans-6c"/>
     <use xlink:href="#DejaVuSans-61" x="27.783203"/>
     <use xlink:href="#DejaVuSans-79" x="89.0625"/>
     <use xlink:href="#DejaVuSans-65" x="148.242188"/>
     <use xlink:href="#DejaVuSans-72" x="209.765625"/>
     <use xlink:href="#DejaVuSans-20" x="250.878906"/>
     <use xlink:href="#DejaVuSans-34" x="282.666016"/>
    </g>
   </g>
  </g>
  <g id="axes_5">
   <g id="patch_22">
    <path d="M 753.963068 207 
L 880.78125 207 
L 880.78125 43.92 
L 753.963068 43.92 
z
" style="fill: #ffffff"/>
   </g>
   <g id="PolyCollection_9">
    <defs>
     <path id="mfaaa57b27e" d="M 764.619719 -38.121029 
L 764.619719 -37.55625 
L 766.200694 -37.55625 
L 767.781669 -37.55625 
L 769.362643 -37.55625 
L 770.943618 -37.55625 
L 772.524593 -37.55625 
L 774.105568 -37.55625 
L 775.686543 -37.55625 
L 777.267518 -37.55625 
L 778.848492 -37.55625 
L 780.429467 -37.55625 
L 782.010442 -37.55625 
L 783.591417 -37.55625 
L 785.172392 -37.55625 
L 786.753366 -37.55625 
L 788.334341 -37.55625 
L 789.915316 -37.55625 
L 791.496291 -37.55625 
L 793.077266 -37.55625 
L 794.65824 -37.55625 
L 796.239215 -37.55625 
L 797.82019 -37.55625 
L 799.401165 -37.55625 
L 800.98214 -37.55625 
L 802.563114 -37.55625 
L 804.144089 -37.55625 
L 805.725064 -37.55625 
L 807.306039 -37.55625 
L 808.887014 -37.55625 
L 810.467989 -37.55625 
L 812.048963 -37.55625 
L 813.629938 -37.55625 
L 815.210913 -37.55625 
L 816.791888 -37.55625 
L 818.372863 -37.55625 
L 819.953837 -37.55625 
L 821.534812 -37.55625 
L 823.115787 -37.55625 
L 824.696762 -37.55625 
L 826.277737 -37.55625 
L 827.858711 -37.55625 
L 829.439686 -37.55625 
L 831.020661 -37.55625 
L 832.601636 -37.55625 
L 834.182611 -37.55625 
L 835.763585 -37.55625 
L 837.34456 -37.55625 
L 838.925535 -37.55625 
L 840.50651 -37.55625 
L 842.087485 -37.55625 
L 843.66846 -37.55625 
L 845.249434 -37.55625 
L 846.830409 -37.55625 
L 848.411384 -37.55625 
L 849.992359 -37.55625 
L 849.992359 -38.121029 
L 849.992359 -38.121029 
L 848.411384 -39.250588 
L 846.830409 -38.685808 
L 845.249434 -38.685808 
L 843.66846 -38.121029 
L 842.087485 -37.55625 
L 840.50651 -38.121029 
L 838.925535 -40.944925 
L 837.34456 -40.944925 
L 835.763585 -39.815367 
L 834.182611 -41.509705 
L 832.601636 -49.416614 
L 831.020661 -46.027938 
L 829.439686 -56.193964 
L 827.858711 -51.675731 
L 826.277737 -57.888302 
L 824.696762 -67.489549 
L 823.115787 -79.349912 
L 821.534812 -97.987627 
L 819.953837 -102.50586 
L 818.372863 -126.791367 
L 816.791888 -129.615263 
L 815.210913 -152.771211 
L 813.629938 -169.149808 
L 812.048963 -169.149808 
L 810.467989 -192.870536 
L 808.887014 -180.445393 
L 807.306039 -187.787523 
L 805.725064 -187.222744 
L 804.144089 -190.611419 
L 802.563114 -162.937237 
L 800.98214 -160.113341 
L 799.401165 -158.983782 
L 797.82019 -148.252977 
L 796.239215 -109.283211 
L 794.65824 -96.858068 
L 793.077266 -74.831679 
L 791.496291 -65.230432 
L 789.915316 -49.416614 
L 788.334341 -47.157497 
L 786.753366 -42.074484 
L 785.172392 -38.685808 
L 783.591417 -39.815367 
L 782.010442 -39.815367 
L 780.429467 -39.815367 
L 778.848492 -38.121029 
L 777.267518 -38.121029 
L 775.686543 -38.121029 
L 774.105568 -37.55625 
L 772.524593 -38.121029 
L 770.943618 -37.55625 
L 769.362643 -38.121029 
L 767.781669 -37.55625 
L 766.200694 -37.55625 
L 764.619719 -38.121029 
z
" style="stroke: #1f77b4"/>
    </defs>
    <g clip-path="url(#p19b6cf2321)">
     <use xlink:href="#mfaaa57b27e" x="0" y="244.55625" style="fill: #1f77b4; fill-opacity: 0.75; stroke: #1f77b4"/>
    </g>
   </g>
   <g id="PolyCollection_10">
    <defs>
     <path id="m552ca9aad9" d="M 759.727531 -38.2378 
L 759.727531 -37.55625 
L 762.347741 -37.55625 
L 764.967952 -37.55625 
L 767.588162 -37.55625 
L 770.208372 -37.55625 
L 772.828583 -37.55625 
L 775.448793 -37.55625 
L 778.069004 -37.55625 
L 780.689214 -37.55625 
L 783.309424 -37.55625 
L 785.929635 -37.55625 
L 788.549845 -37.55625 
L 791.170055 -37.55625 
L 793.790266 -37.55625 
L 796.410476 -37.55625 
L 799.030687 -37.55625 
L 801.650897 -37.55625 
L 804.271107 -37.55625 
L 806.891318 -37.55625 
L 809.511528 -37.55625 
L 812.131738 -37.55625 
L 814.751949 -37.55625 
L 817.372159 -37.55625 
L 819.992369 -37.55625 
L 822.61258 -37.55625 
L 825.23279 -37.55625 
L 827.853001 -37.55625 
L 830.473211 -37.55625 
L 833.093421 -37.55625 
L 835.713632 -37.55625 
L 838.333842 -37.55625 
L 840.954052 -37.55625 
L 843.574263 -37.55625 
L 846.194473 -37.55625 
L 848.814684 -37.55625 
L 851.434894 -37.55625 
L 854.055104 -37.55625 
L 856.675315 -37.55625 
L 859.295525 -37.55625 
L 861.915735 -37.55625 
L 864.535946 -37.55625 
L 867.156156 -37.55625 
L 869.776366 -37.55625 
L 872.396577 -37.55625 
L 875.016787 -37.55625 
L 875.016787 -37.897025 
L 875.016787 -37.897025 
L 872.396577 -38.2378 
L 869.776366 -39.260124 
L 867.156156 -38.2378 
L 864.535946 -38.919349 
L 861.915735 -40.623223 
L 859.295525 -41.986323 
L 856.675315 -44.371746 
L 854.055104 -45.053296 
L 851.434894 -49.824144 
L 848.814684 -49.142594 
L 846.194473 -49.483369 
L 843.574263 -53.231892 
L 840.954052 -55.276541 
L 838.333842 -57.32119 
L 835.713632 -61.751262 
L 833.093421 -58.343514 
L 830.473211 -64.136686 
L 827.853001 -62.432812 
L 825.23279 -68.907534 
L 822.61258 -75.04148 
L 819.992369 -79.812328 
L 817.372159 -96.169519 
L 814.751949 -97.532619 
L 812.131738 -111.845161 
L 809.511528 -103.325791 
L 806.891318 -130.928551 
L 804.271107 -135.017849 
L 801.650897 -141.492571 
L 799.030687 -145.581868 
L 796.410476 -139.788696 
L 793.790266 -119.001432 
L 791.170055 -107.074314 
L 788.549845 -86.627824 
L 785.929635 -69.248308 
L 783.309424 -60.728938 
L 780.689214 -56.980415 
L 778.069004 -47.43872 
L 775.448793 -47.779495 
L 772.828583 -43.008647 
L 770.208372 -42.667872 
L 767.588162 -39.600899 
L 764.967952 -38.578574 
L 762.347741 -37.897025 
L 759.727531 -38.2378 
z
" style="stroke: #ff7f0e"/>
    </defs>
    <g clip-path="url(#p19b6cf2321)">
     <use xlink:href="#m552ca9aad9" x="0" y="244.55625" style="fill: #ff7f0e; fill-opacity: 0.75; stroke: #ff7f0e"/>
    </g>
   </g>
   <g id="matplotlib.axis_9">
    <g id="xtick_12">
     <g id="line2d_32">
      <g>
       <use xlink:href="#md86e4c2bf0" x="808.498958" y="207" style="stroke: #000000; stroke-width: 0.8"/>
      </g>
     </g>
     <g id="text_44">
      <!-- 0 -->
      <g transform="translate(805.317708 221.598437)scale(0.1 -0.1)">
       <use xlink:href="#DejaVuSans-30"/>
      </g>
     </g>
    </g>
    <g id="xtick_13">
     <g id="line2d_33">
      <g>
       <use xlink:href="#md86e4c2bf0" x="871.490524" y="207" style="stroke: #000000; stroke-width: 0.8"/>
      </g>
     </g>
     <g id="text_45">
      <!-- 10 -->
      <g transform="translate(865.128024 221.598437)scale(0.1 -0.1)">
       <use xlink:href="#DejaVuSans-31"/>
       <use xlink:href="#DejaVuSans-30" x="63.623047"/>
      </g>
     </g>
    </g>
    <g id="text_46">
     <!-- Activation -->
     <g transform="translate(792.340128 235.276562)scale(0.1 -0.1)">
      <use xlink:href="#DejaVuSans-41"/>
      <use xlink:href="#DejaVuSans-63" x="66.658203"/>
      <use xlink:href="#DejaVuSans-74" x="121.638672"/>
      <use xlink:href="#DejaVuSans-69" x="160.847656"/>
      <use xlink:href="#DejaVuSans-76" x="188.630859"/>
      <use xlink:href="#DejaVuSans-61" x="247.810547"/>
      <use xlink:href="#DejaVuSans-74" x="309.089844"/>
      <use xlink:href="#DejaVuSans-69" x="348.298828"/>
      <use xlink:href="#DejaVuSans-6f" x="376.082031"/>
      <use xlink:href="#DejaVuSans-6e" x="437.263672"/>
     </g>
    </g>
   </g>
   <g id="matplotlib.axis_10">
    <g id="ytick_21">
     <g id="line2d_34">
      <g>
       <use xlink:href="#mcdb55a83e5" x="753.963068" y="207" style="stroke: #000000; stroke-width: 0.8"/>
      </g>
     </g>
     <g id="text_47">
      <!-- 0.00 -->
      <g transform="translate(724.697443 210.799219)scale(0.1 -0.1)">
       <use xlink:href="#DejaVuSans-30"/>
       <use xlink:href="#DejaVuSans-2e" x="63.623047"/>
       <use xlink:href="#DejaVuSans-30" x="95.410156"/>
       <use xlink:href="#DejaVuSans-30" x="159.033203"/>
      </g>
     </g>
    </g>
    <g id="ytick_22">
     <g id="line2d_35">
      <g>
       <use xlink:href="#mcdb55a83e5" x="753.963068" y="177.969721" style="stroke: #000000; stroke-width: 0.8"/>
      </g>
     </g>
     <g id="text_48">
      <!-- 0.05 -->
      <g transform="translate(724.697443 181.76894)scale(0.1 -0.1)">
       <use xlink:href="#DejaVuSans-30"/>
       <use xlink:href="#DejaVuSans-2e" x="63.623047"/>
       <use xlink:href="#DejaVuSans-30" x="95.410156"/>
       <use xlink:href="#DejaVuSans-35" x="159.033203"/>
      </g>
     </g>
    </g>
    <g id="ytick_23">
     <g id="line2d_36">
      <g>
       <use xlink:href="#mcdb55a83e5" x="753.963068" y="148.939443" style="stroke: #000000; stroke-width: 0.8"/>
      </g>
     </g>
     <g id="text_49">
      <!-- 0.10 -->
      <g transform="translate(724.697443 152.738661)scale(0.1 -0.1)">
       <use xlink:href="#DejaVuSans-30"/>
       <use xlink:href="#DejaVuSans-2e" x="63.623047"/>
       <use xlink:href="#DejaVuSans-31" x="95.410156"/>
       <use xlink:href="#DejaVuSans-30" x="159.033203"/>
      </g>
     </g>
    </g>
    <g id="ytick_24">
     <g id="line2d_37">
      <g>
       <use xlink:href="#mcdb55a83e5" x="753.963068" y="119.909164" style="stroke: #000000; stroke-width: 0.8"/>
      </g>
     </g>
     <g id="text_50">
      <!-- 0.15 -->
      <g transform="translate(724.697443 123.708383)scale(0.1 -0.1)">
       <use xlink:href="#DejaVuSans-30"/>
       <use xlink:href="#DejaVuSans-2e" x="63.623047"/>
       <use xlink:href="#DejaVuSans-31" x="95.410156"/>
       <use xlink:href="#DejaVuSans-35" x="159.033203"/>
      </g>
     </g>
    </g>
    <g id="ytick_25">
     <g id="line2d_38">
      <g>
       <use xlink:href="#mcdb55a83e5" x="753.963068" y="90.878885" style="stroke: #000000; stroke-width: 0.8"/>
      </g>
     </g>
     <g id="text_51">
      <!-- 0.20 -->
      <g transform="translate(724.697443 94.678104)scale(0.1 -0.1)">
       <use xlink:href="#DejaVuSans-30"/>
       <use xlink:href="#DejaVuSans-2e" x="63.623047"/>
       <use xlink:href="#DejaVuSans-32" x="95.410156"/>
       <use xlink:href="#DejaVuSans-30" x="159.033203"/>
      </g>
     </g>
    </g>
    <g id="ytick_26">
     <g id="line2d_39">
      <g>
       <use xlink:href="#mcdb55a83e5" x="753.963068" y="61.848606" style="stroke: #000000; stroke-width: 0.8"/>
      </g>
     </g>
     <g id="text_52">
      <!-- 0.25 -->
      <g transform="translate(724.697443 65.647825)scale(0.1 -0.1)">
       <use xlink:href="#DejaVuSans-30"/>
       <use xlink:href="#DejaVuSans-2e" x="63.623047"/>
       <use xlink:href="#DejaVuSans-32" x="95.410156"/>
       <use xlink:href="#DejaVuSans-35" x="159.033203"/>
      </g>
     </g>
    </g>
    <g id="text_53">
     <!-- Density -->
     <g transform="translate(718.617756 144.468594)rotate(-90)scale(0.1 -0.1)">
      <use xlink:href="#DejaVuSans-44"/>
      <use xlink:href="#DejaVuSans-65" x="77.001953"/>
      <use xlink:href="#DejaVuSans-6e" x="138.525391"/>
      <use xlink:href="#DejaVuSans-73" x="201.904297"/>
      <use xlink:href="#DejaVuSans-69" x="254.003906"/>
      <use xlink:href="#DejaVuSans-74" x="281.787109"/>
      <use xlink:href="#DejaVuSans-79" x="320.996094"/>
     </g>
    </g>
   </g>
   <g id="patch_23">
    <path d="M 753.963068 207 
L 753.963068 43.92 
" style="fill: none; stroke: #000000; stroke-width: 0.8; stroke-linejoin: miter; stroke-linecap: square"/>
   </g>
   <g id="patch_24">
    <path d="M 880.78125 207 
L 880.78125 43.92 
" style="fill: none; stroke: #000000; stroke-width: 0.8; stroke-linejoin: miter; stroke-linecap: square"/>
   </g>
   <g id="patch_25">
    <path d="M 753.963068 207 
L 880.78125 207 
" style="fill: none; stroke: #000000; stroke-width: 0.8; stroke-linejoin: miter; stroke-linecap: square"/>
   </g>
   <g id="patch_26">
    <path d="M 753.963068 43.92 
L 880.78125 43.92 
" style="fill: none; stroke: #000000; stroke-width: 0.8; stroke-linejoin: miter; stroke-linecap: square"/>
   </g>
   <g id="text_54">
    <!-- layer 5 -->
    <g transform="translate(796.594347 37.92)scale(0.12 -0.12)">
     <use xlink:href="#DejaVuSans-6c"/>
     <use xlink:href="#DejaVuSans-61" x="27.783203"/>
     <use xlink:href="#DejaVuSans-79" x="89.0625"/>
     <use xlink:href="#DejaVuSans-65" x="148.242188"/>
     <use xlink:href="#DejaVuSans-72" x="209.765625"/>
     <use xlink:href="#DejaVuSans-20" x="250.878906"/>
     <use xlink:href="#DejaVuSans-35" x="282.666016"/>
    </g>
   </g>
  </g>
  <g id="text_55">
   <!-- Activation distribution of two pixels in hidden layers. -->
   <g transform="translate(264.735937 17.837812)scale(0.14 -0.14)">
    <defs>
     <path id="DejaVuSans-64" d="M 2906 2969 
L 2906 4863 
L 3481 4863 
L 3481 0 
L 2906 0 
L 2906 525 
Q 2725 213 2448 61 
Q 2172 -91 1784 -91 
Q 1150 -91 751 415 
Q 353 922 353 1747 
Q 353 2572 751 3078 
Q 1150 3584 1784 3584 
Q 2172 3584 2448 3432 
Q 2725 3281 2906 2969 
z
M 947 1747 
Q 947 1113 1208 752 
Q 1469 391 1925 391 
Q 2381 391 2643 752 
Q 2906 1113 2906 1747 
Q 2906 2381 2643 2742 
Q 2381 3103 1925 3103 
Q 1469 3103 1208 2742 
Q 947 2381 947 1747 
z
" transform="scale(0.015625)"/>
     <path id="DejaVuSans-62" d="M 3116 1747 
Q 3116 2381 2855 2742 
Q 2594 3103 2138 3103 
Q 1681 3103 1420 2742 
Q 1159 2381 1159 1747 
Q 1159 1113 1420 752 
Q 1681 391 2138 391 
Q 2594 391 2855 752 
Q 3116 1113 3116 1747 
z
M 1159 2969 
Q 1341 3281 1617 3432 
Q 1894 3584 2278 3584 
Q 2916 3584 3314 3078 
Q 3713 2572 3713 1747 
Q 3713 922 3314 415 
Q 2916 -91 2278 -91 
Q 1894 -91 1617 61 
Q 1341 213 1159 525 
L 1159 0 
L 581 0 
L 581 4863 
L 1159 4863 
L 1159 2969 
z
" transform="scale(0.015625)"/>
     <path id="DejaVuSans-75" d="M 544 1381 
L 544 3500 
L 1119 3500 
L 1119 1403 
Q 1119 906 1312 657 
Q 1506 409 1894 409 
Q 2359 409 2629 706 
Q 2900 1003 2900 1516 
L 2900 3500 
L 3475 3500 
L 3475 0 
L 2900 0 
L 2900 538 
Q 2691 219 2414 64 
Q 2138 -91 1772 -91 
Q 1169 -91 856 284 
Q 544 659 544 1381 
z
M 1991 3584 
L 1991 3584 
z
" transform="scale(0.015625)"/>
     <path id="DejaVuSans-66" d="M 2375 4863 
L 2375 4384 
L 1825 4384 
Q 1516 4384 1395 4259 
Q 1275 4134 1275 3809 
L 1275 3500 
L 2222 3500 
L 2222 3053 
L 1275 3053 
L 1275 0 
L 697 0 
L 697 3053 
L 147 3053 
L 147 3500 
L 697 3500 
L 697 3744 
Q 697 4328 969 4595 
Q 1241 4863 1831 4863 
L 2375 4863 
z
" transform="scale(0.015625)"/>
     <path id="DejaVuSans-77" d="M 269 3500 
L 844 3500 
L 1563 769 
L 2278 3500 
L 2956 3500 
L 3675 769 
L 4391 3500 
L 4966 3500 
L 4050 0 
L 3372 0 
L 2619 2869 
L 1863 0 
L 1184 0 
L 269 3500 
z
" transform="scale(0.015625)"/>
     <path id="DejaVuSans-70" d="M 1159 525 
L 1159 -1331 
L 581 -1331 
L 581 3500 
L 1159 3500 
L 1159 2969 
Q 1341 3281 1617 3432 
Q 1894 3584 2278 3584 
Q 2916 3584 3314 3078 
Q 3713 2572 3713 1747 
Q 3713 922 3314 415 
Q 2916 -91 2278 -91 
Q 1894 -91 1617 61 
Q 1341 213 1159 525 
z
M 3116 1747 
Q 3116 2381 2855 2742 
Q 2594 3103 2138 3103 
Q 1681 3103 1420 2742 
Q 1159 2381 1159 1747 
Q 1159 1113 1420 752 
Q 1681 391 2138 391 
Q 2594 391 2855 752 
Q 3116 1113 3116 1747 
z
" transform="scale(0.015625)"/>
     <path id="DejaVuSans-78" d="M 3513 3500 
L 2247 1797 
L 3578 0 
L 2900 0 
L 1881 1375 
L 863 0 
L 184 0 
L 1544 1831 
L 300 3500 
L 978 3500 
L 1906 2253 
L 2834 3500 
L 3513 3500 
z
" transform="scale(0.015625)"/>
     <path id="DejaVuSans-68" d="M 3513 2113 
L 3513 0 
L 2938 0 
L 2938 2094 
Q 2938 2591 2744 2837 
Q 2550 3084 2163 3084 
Q 1697 3084 1428 2787 
Q 1159 2491 1159 1978 
L 1159 0 
L 581 0 
L 581 4863 
L 1159 4863 
L 1159 2956 
Q 1366 3272 1645 3428 
Q 1925 3584 2291 3584 
Q 2894 3584 3203 3211 
Q 3513 2838 3513 2113 
z
" transform="scale(0.015625)"/>
    </defs>
    <use xlink:href="#DejaVuSans-41"/>
    <use xlink:href="#DejaVuSans-63" x="66.658203"/>
    <use xlink:href="#DejaVuSans-74" x="121.638672"/>
    <use xlink:href="#DejaVuSans-69" x="160.847656"/>
    <use xlink:href="#DejaVuSans-76" x="188.630859"/>
    <use xlink:href="#DejaVuSans-61" x="247.810547"/>
    <use xlink:href="#DejaVuSans-74" x="309.089844"/>
    <use xlink:href="#DejaVuSans-69" x="348.298828"/>
    <use xlink:href="#DejaVuSans-6f" x="376.082031"/>
    <use xlink:href="#DejaVuSans-6e" x="437.263672"/>
    <use xlink:href="#DejaVuSans-20" x="500.642578"/>
    <use xlink:href="#DejaVuSans-64" x="532.429688"/>
    <use xlink:href="#DejaVuSans-69" x="595.90625"/>
    <use xlink:href="#DejaVuSans-73" x="623.689453"/>
    <use xlink:href="#DejaVuSans-74" x="675.789062"/>
    <use xlink:href="#DejaVuSans-72" x="714.998047"/>
    <use xlink:href="#DejaVuSans-69" x="756.111328"/>
    <use xlink:href="#DejaVuSans-62" x="783.894531"/>
    <use xlink:href="#DejaVuSans-75" x="847.371094"/>
    <use xlink:href="#DejaVuSans-74" x="910.75"/>
    <use xlink:href="#DejaVuSans-69" x="949.958984"/>
    <use xlink:href="#DejaVuSans-6f" x="977.742188"/>
    <use xlink:href="#DejaVuSans-6e" x="1038.923828"/>
    <use xlink:href="#DejaVuSans-20" x="1102.302734"/>
    <use xlink:href="#DejaVuSans-6f" x="1134.089844"/>
    <use xlink:href="#DejaVuSans-66" x="1195.271484"/>
    <use xlink:href="#DejaVuSans-20" x="1230.476562"/>
    <use xlink:href="#DejaVuSans-74" x="1262.263672"/>
    <use xlink:href="#DejaVuSans-77" x="1301.472656"/>
    <use xlink:href="#DejaVuSans-6f" x="1383.259766"/>
    <use xlink:href="#DejaVuSans-20" x="1444.441406"/>
    <use xlink:href="#DejaVuSans-70" x="1476.228516"/>
    <use xlink:href="#DejaVuSans-69" x="1539.705078"/>
    <use xlink:href="#DejaVuSans-78" x="1567.488281"/>
    <use xlink:href="#DejaVuSans-65" x="1623.542969"/>
    <use xlink:href="#DejaVuSans-6c" x="1685.066406"/>
    <use xlink:href="#DejaVuSans-73" x="1712.849609"/>
    <use xlink:href="#DejaVuSans-20" x="1764.949219"/>
    <use xlink:href="#DejaVuSans-69" x="1796.736328"/>
    <use xlink:href="#DejaVuSans-6e" x="1824.519531"/>
    <use xlink:href="#DejaVuSans-20" x="1887.898438"/>
    <use xlink:href="#DejaVuSans-68" x="1919.685547"/>
    <use xlink:href="#DejaVuSans-69" x="1983.064453"/>
    <use xlink:href="#DejaVuSans-64" x="2010.847656"/>
    <use xlink:href="#DejaVuSans-64" x="2074.324219"/>
    <use xlink:href="#DejaVuSans-65" x="2137.800781"/>
    <use xlink:href="#DejaVuSans-6e" x="2199.324219"/>
    <use xlink:href="#DejaVuSans-20" x="2262.703125"/>
    <use xlink:href="#DejaVuSans-6c" x="2294.490234"/>
    <use xlink:href="#DejaVuSans-61" x="2322.273438"/>
    <use xlink:href="#DejaVuSans-79" x="2383.552734"/>
    <use xlink:href="#DejaVuSans-65" x="2442.732422"/>
    <use xlink:href="#DejaVuSans-72" x="2504.255859"/>
    <use xlink:href="#DejaVuSans-73" x="2545.369141"/>
    <use xlink:href="#DejaVuSans-2e" x="2597.46875"/>
   </g>
  </g>
 </g>
 <defs>
  <clipPath id="p2afa4c57fb">
   <rect x="43.78125" y="43.92" width="126.818182" height="163.08"/>
  </clipPath>
  <clipPath id="pd497bed642">
   <rect x="221.326705" y="43.92" width="126.818182" height="163.08"/>
  </clipPath>
  <clipPath id="p0ad8424cc3">
   <rect x="398.872159" y="43.92" width="126.818182" height="163.08"/>
  </clipPath>
  <clipPath id="pe233add2f7">
   <rect x="576.417614" y="43.92" width="126.818182" height="163.08"/>
  </clipPath>
  <clipPath id="p19b6cf2321">
   <rect x="753.963068" y="43.92" width="126.818182" height="163.08"/>
  </clipPath>
 </defs>
</svg>
