<?xml version="1.0" encoding="utf-8" standalone="no"?>
<!DOCTYPE svg PUBLIC "-//W3C//DTD SVG 1.1//EN"
  "http://www.w3.org/Graphics/SVG/1.1/DTD/svg11.dtd">
<svg xmlns:xlink="http://www.w3.org/1999/xlink" width="1055.38125pt" height="244.55625pt" viewBox="0 0 1055.38125 244.55625" xmlns="http://www.w3.org/2000/svg" version="1.1">
 <metadata>
  <rdf:RDF xmlns:dc="http://purl.org/dc/elements/1.1/" xmlns:cc="http://creativecommons.org/ns#" xmlns:rdf="http://www.w3.org/1999/02/22-rdf-syntax-ns#">
   <cc:Work>
    <dc:type rdf:resource="http://purl.org/dc/dcmitype/StillImage"/>
    <dc:date>2022-04-13T02:11:35.957952</dc:date>
    <dc:format>image/svg+xml</dc:format>
    <dc:creator>
     <cc:Agent>
      <dc:title>Matplotlib v3.5.1, https://matplotlib.org/</dc:title>
     </cc:Agent>
    </dc:creator>
   </cc:Work>
  </rdf:RDF>
 </metadata>
 <defs>
  <style type="text/css">*{stroke-linejoin: round; stroke-linecap: butt}</style>
 </defs>
 <g id="figure_1">
  <g id="patch_1">
   <path d="M 0 244.55625 
L 1055.38125 244.55625 
L 1055.38125 0 
L 0 0 
L 0 244.55625 
z
" style="fill: none"/>
  </g>
  <g id="axes_1">
   <g id="patch_2">
    <path d="M 43.78125 207 
L 169.33125 207 
L 169.33125 43.92 
L 43.78125 43.92 
z
" style="fill: #ffffff"/>
   </g>
   <g id="PolyCollection_1">
    <defs>
     <path id="m06dce1eb9c" d="M 49.488068 -153.085153 
L 49.488068 -37.55625 
L 57.520166 -37.55625 
L 65.552263 -37.55625 
L 73.58436 -37.55625 
L 81.616457 -37.55625 
L 89.648555 -37.55625 
L 97.680652 -37.55625 
L 105.712749 -37.55625 
L 113.744847 -37.55625 
L 121.776944 -37.55625 
L 129.809041 -37.55625 
L 137.841139 -37.55625 
L 145.873236 -37.55625 
L 145.873236 -48.974343 
L 145.873236 -48.974343 
L 137.841139 -79.3433 
L 129.809041 -71.255484 
L 121.776944 -60.551021 
L 113.744847 -56.427821 
L 105.712749 -55.952067 
L 97.680652 -50.956651 
L 89.648555 -50.56019 
L 81.616457 -49.450097 
L 73.58436 -47.864251 
L 65.552263 -44.771851 
L 57.520166 -43.820343 
L 49.488068 -153.085153 
z
" style="stroke: #1f77b4"/>
    </defs>
    <g clip-path="url(#peb978f196b)">
     <use xlink:href="#m06dce1eb9c" x="0" y="244.55625" style="fill: #1f77b4; fill-opacity: 0.75; stroke: #1f77b4"/>
    </g>
   </g>
   <g id="PolyCollection_2">
    <defs>
     <path id="mc5870a9846" d="M 61.86365 -192.870536 
L 61.86365 -37.55625 
L 70.343715 -37.55625 
L 78.82378 -37.55625 
L 87.303845 -37.55625 
L 95.783911 -37.55625 
L 104.263976 -37.55625 
L 112.744041 -37.55625 
L 121.224106 -37.55625 
L 129.704171 -37.55625 
L 138.184236 -37.55625 
L 146.664301 -37.55625 
L 155.144367 -37.55625 
L 163.624432 -37.55625 
L 163.624432 -46.568684 
L 163.624432 -46.568684 
L 155.144367 -57.083191 
L 146.664301 -59.261196 
L 138.184236 -54.98029 
L 129.704171 -52.652078 
L 121.224106 -49.122207 
L 112.744041 -48.14586 
L 104.263976 -46.343374 
L 95.783911 -48.220964 
L 87.303845 -47.845446 
L 78.82378 -46.493581 
L 70.343715 -46.26827 
L 61.86365 -192.870536 
z
" style="stroke: #ff7f0e"/>
    </defs>
    <g clip-path="url(#peb978f196b)">
     <use xlink:href="#mc5870a9846" x="0" y="244.55625" style="fill: #ff7f0e; fill-opacity: 0.75; stroke: #ff7f0e"/>
    </g>
   </g>
   <g id="matplotlib.axis_1">
    <g id="xtick_1">
     <g id="line2d_1">
      <defs>
       <path id="mdc7cab3d6c" d="M 0 0 
L 0 3.5 
" style="stroke: #000000; stroke-width: 0.8"/>
      </defs>
      <g>
       <use xlink:href="#mdc7cab3d6c" x="51.224457" y="207" style="stroke: #000000; stroke-width: 0.8"/>
      </g>
     </g>
     <g id="text_1">
      <!-- −1 -->
      <g transform="translate(43.853364 221.598437)scale(0.1 -0.1)">
       <defs>
        <path id="DejaVuSans-2212" d="M 678 2272 
L 4684 2272 
L 4684 1741 
L 678 1741 
L 678 2272 
z
" transform="scale(0.015625)"/>
        <path id="DejaVuSans-31" d="M 794 531 
L 1825 531 
L 1825 4091 
L 703 3866 
L 703 4441 
L 1819 4666 
L 2450 4666 
L 2450 531 
L 3481 531 
L 3481 0 
L 794 0 
L 794 531 
z
" transform="scale(0.015625)"/>
       </defs>
       <use xlink:href="#DejaVuSans-2212"/>
       <use xlink:href="#DejaVuSans-31" x="83.789062"/>
      </g>
     </g>
    </g>
    <g id="xtick_2">
     <g id="line2d_2">
      <g>
       <use xlink:href="#mdc7cab3d6c" x="89.078035" y="207" style="stroke: #000000; stroke-width: 0.8"/>
      </g>
     </g>
     <g id="text_2">
      <!-- 0 -->
      <g transform="translate(85.896785 221.598437)scale(0.1 -0.1)">
       <defs>
        <path id="DejaVuSans-30" d="M 2034 4250 
Q 1547 4250 1301 3770 
Q 1056 3291 1056 2328 
Q 1056 1369 1301 889 
Q 1547 409 2034 409 
Q 2525 409 2770 889 
Q 3016 1369 3016 2328 
Q 3016 3291 2770 3770 
Q 2525 4250 2034 4250 
z
M 2034 4750 
Q 2819 4750 3233 4129 
Q 3647 3509 3647 2328 
Q 3647 1150 3233 529 
Q 2819 -91 2034 -91 
Q 1250 -91 836 529 
Q 422 1150 422 2328 
Q 422 3509 836 4129 
Q 1250 4750 2034 4750 
z
" transform="scale(0.015625)"/>
       </defs>
       <use xlink:href="#DejaVuSans-30"/>
      </g>
     </g>
    </g>
    <g id="xtick_3">
     <g id="line2d_3">
      <g>
       <use xlink:href="#mdc7cab3d6c" x="126.931612" y="207" style="stroke: #000000; stroke-width: 0.8"/>
      </g>
     </g>
     <g id="text_3">
      <!-- 1 -->
      <g transform="translate(123.750362 221.598437)scale(0.1 -0.1)">
       <use xlink:href="#DejaVuSans-31"/>
      </g>
     </g>
    </g>
    <g id="xtick_4">
     <g id="line2d_4">
      <g>
       <use xlink:href="#mdc7cab3d6c" x="164.78519" y="207" style="stroke: #000000; stroke-width: 0.8"/>
      </g>
     </g>
     <g id="text_4">
      <!-- 2 -->
      <g transform="translate(161.60394 221.598437)scale(0.1 -0.1)">
       <defs>
        <path id="DejaVuSans-32" d="M 1228 531 
L 3431 531 
L 3431 0 
L 469 0 
L 469 531 
Q 828 903 1448 1529 
Q 2069 2156 2228 2338 
Q 2531 2678 2651 2914 
Q 2772 3150 2772 3378 
Q 2772 3750 2511 3984 
Q 2250 4219 1831 4219 
Q 1534 4219 1204 4116 
Q 875 4013 500 3803 
L 500 4441 
Q 881 4594 1212 4672 
Q 1544 4750 1819 4750 
Q 2544 4750 2975 4387 
Q 3406 4025 3406 3419 
Q 3406 3131 3298 2873 
Q 3191 2616 2906 2266 
Q 2828 2175 2409 1742 
Q 1991 1309 1228 531 
z
" transform="scale(0.015625)"/>
       </defs>
       <use xlink:href="#DejaVuSans-32"/>
      </g>
     </g>
    </g>
    <g id="text_5">
     <!-- Activation -->
     <g transform="translate(81.524219 235.276562)scale(0.1 -0.1)">
      <defs>
       <path id="DejaVuSans-41" d="M 2188 4044 
L 1331 1722 
L 3047 1722 
L 2188 4044 
z
M 1831 4666 
L 2547 4666 
L 4325 0 
L 3669 0 
L 3244 1197 
L 1141 1197 
L 716 0 
L 50 0 
L 1831 4666 
z
" transform="scale(0.015625)"/>
       <path id="DejaVuSans-63" d="M 3122 3366 
L 3122 2828 
Q 2878 2963 2633 3030 
Q 2388 3097 2138 3097 
Q 1578 3097 1268 2742 
Q 959 2388 959 1747 
Q 959 1106 1268 751 
Q 1578 397 2138 397 
Q 2388 397 2633 464 
Q 2878 531 3122 666 
L 3122 134 
Q 2881 22 2623 -34 
Q 2366 -91 2075 -91 
Q 1284 -91 818 406 
Q 353 903 353 1747 
Q 353 2603 823 3093 
Q 1294 3584 2113 3584 
Q 2378 3584 2631 3529 
Q 2884 3475 3122 3366 
z
" transform="scale(0.015625)"/>
       <path id="DejaVuSans-74" d="M 1172 4494 
L 1172 3500 
L 2356 3500 
L 2356 3053 
L 1172 3053 
L 1172 1153 
Q 1172 725 1289 603 
Q 1406 481 1766 481 
L 2356 481 
L 2356 0 
L 1766 0 
Q 1100 0 847 248 
Q 594 497 594 1153 
L 594 3053 
L 172 3053 
L 172 3500 
L 594 3500 
L 594 4494 
L 1172 4494 
z
" transform="scale(0.015625)"/>
       <path id="DejaVuSans-69" d="M 603 3500 
L 1178 3500 
L 1178 0 
L 603 0 
L 603 3500 
z
M 603 4863 
L 1178 4863 
L 1178 4134 
L 603 4134 
L 603 4863 
z
" transform="scale(0.015625)"/>
       <path id="DejaVuSans-76" d="M 191 3500 
L 800 3500 
L 1894 563 
L 2988 3500 
L 3597 3500 
L 2284 0 
L 1503 0 
L 191 3500 
z
" transform="scale(0.015625)"/>
       <path id="DejaVuSans-61" d="M 2194 1759 
Q 1497 1759 1228 1600 
Q 959 1441 959 1056 
Q 959 750 1161 570 
Q 1363 391 1709 391 
Q 2188 391 2477 730 
Q 2766 1069 2766 1631 
L 2766 1759 
L 2194 1759 
z
M 3341 1997 
L 3341 0 
L 2766 0 
L 2766 531 
Q 2569 213 2275 61 
Q 1981 -91 1556 -91 
Q 1019 -91 701 211 
Q 384 513 384 1019 
Q 384 1609 779 1909 
Q 1175 2209 1959 2209 
L 2766 2209 
L 2766 2266 
Q 2766 2663 2505 2880 
Q 2244 3097 1772 3097 
Q 1472 3097 1187 3025 
Q 903 2953 641 2809 
L 641 3341 
Q 956 3463 1253 3523 
Q 1550 3584 1831 3584 
Q 2591 3584 2966 3190 
Q 3341 2797 3341 1997 
z
" transform="scale(0.015625)"/>
       <path id="DejaVuSans-6f" d="M 1959 3097 
Q 1497 3097 1228 2736 
Q 959 2375 959 1747 
Q 959 1119 1226 758 
Q 1494 397 1959 397 
Q 2419 397 2687 759 
Q 2956 1122 2956 1747 
Q 2956 2369 2687 2733 
Q 2419 3097 1959 3097 
z
M 1959 3584 
Q 2709 3584 3137 3096 
Q 3566 2609 3566 1747 
Q 3566 888 3137 398 
Q 2709 -91 1959 -91 
Q 1206 -91 779 398 
Q 353 888 353 1747 
Q 353 2609 779 3096 
Q 1206 3584 1959 3584 
z
" transform="scale(0.015625)"/>
       <path id="DejaVuSans-6e" d="M 3513 2113 
L 3513 0 
L 2938 0 
L 2938 2094 
Q 2938 2591 2744 2837 
Q 2550 3084 2163 3084 
Q 1697 3084 1428 2787 
Q 1159 2491 1159 1978 
L 1159 0 
L 581 0 
L 581 3500 
L 1159 3500 
L 1159 2956 
Q 1366 3272 1645 3428 
Q 1925 3584 2291 3584 
Q 2894 3584 3203 3211 
Q 3513 2838 3513 2113 
z
" transform="scale(0.015625)"/>
      </defs>
      <use xlink:href="#DejaVuSans-41"/>
      <use xlink:href="#DejaVuSans-63" x="66.658203"/>
      <use xlink:href="#DejaVuSans-74" x="121.638672"/>
      <use xlink:href="#DejaVuSans-69" x="160.847656"/>
      <use xlink:href="#DejaVuSans-76" x="188.630859"/>
      <use xlink:href="#DejaVuSans-61" x="247.810547"/>
      <use xlink:href="#DejaVuSans-74" x="309.089844"/>
      <use xlink:href="#DejaVuSans-69" x="348.298828"/>
      <use xlink:href="#DejaVuSans-6f" x="376.082031"/>
      <use xlink:href="#DejaVuSans-6e" x="437.263672"/>
     </g>
    </g>
   </g>
   <g id="matplotlib.axis_2">
    <g id="ytick_1">
     <g id="line2d_5">
      <defs>
       <path id="mfc30e5ef17" d="M 0 0 
L -3.5 0 
" style="stroke: #000000; stroke-width: 0.8"/>
      </defs>
      <g>
       <use xlink:href="#mfc30e5ef17" x="43.78125" y="207" style="stroke: #000000; stroke-width: 0.8"/>
      </g>
     </g>
     <g id="text_6">
      <!-- 0.0 -->
      <g transform="translate(20.878125 210.799219)scale(0.1 -0.1)">
       <defs>
        <path id="DejaVuSans-2e" d="M 684 794 
L 1344 794 
L 1344 0 
L 684 0 
L 684 794 
z
" transform="scale(0.015625)"/>
       </defs>
       <use xlink:href="#DejaVuSans-30"/>
       <use xlink:href="#DejaVuSans-2e" x="63.623047"/>
       <use xlink:href="#DejaVuSans-30" x="95.410156"/>
      </g>
     </g>
    </g>
    <g id="ytick_2">
     <g id="line2d_6">
      <g>
       <use xlink:href="#mfc30e5ef17" x="43.78125" y="172.542554" style="stroke: #000000; stroke-width: 0.8"/>
      </g>
     </g>
     <g id="text_7">
      <!-- 0.5 -->
      <g transform="translate(20.878125 176.341773)scale(0.1 -0.1)">
       <defs>
        <path id="DejaVuSans-35" d="M 691 4666 
L 3169 4666 
L 3169 4134 
L 1269 4134 
L 1269 2991 
Q 1406 3038 1543 3061 
Q 1681 3084 1819 3084 
Q 2600 3084 3056 2656 
Q 3513 2228 3513 1497 
Q 3513 744 3044 326 
Q 2575 -91 1722 -91 
Q 1428 -91 1123 -41 
Q 819 9 494 109 
L 494 744 
Q 775 591 1075 516 
Q 1375 441 1709 441 
Q 2250 441 2565 725 
Q 2881 1009 2881 1497 
Q 2881 1984 2565 2268 
Q 2250 2553 1709 2553 
Q 1456 2553 1204 2497 
Q 953 2441 691 2322 
L 691 4666 
z
" transform="scale(0.015625)"/>
       </defs>
       <use xlink:href="#DejaVuSans-30"/>
       <use xlink:href="#DejaVuSans-2e" x="63.623047"/>
       <use xlink:href="#DejaVuSans-35" x="95.410156"/>
      </g>
     </g>
    </g>
    <g id="ytick_3">
     <g id="line2d_7">
      <g>
       <use xlink:href="#mfc30e5ef17" x="43.78125" y="138.085109" style="stroke: #000000; stroke-width: 0.8"/>
      </g>
     </g>
     <g id="text_8">
      <!-- 1.0 -->
      <g transform="translate(20.878125 141.884327)scale(0.1 -0.1)">
       <use xlink:href="#DejaVuSans-31"/>
       <use xlink:href="#DejaVuSans-2e" x="63.623047"/>
       <use xlink:href="#DejaVuSans-30" x="95.410156"/>
      </g>
     </g>
    </g>
    <g id="ytick_4">
     <g id="line2d_8">
      <g>
       <use xlink:href="#mfc30e5ef17" x="43.78125" y="103.627663" style="stroke: #000000; stroke-width: 0.8"/>
      </g>
     </g>
     <g id="text_9">
      <!-- 1.5 -->
      <g transform="translate(20.878125 107.426882)scale(0.1 -0.1)">
       <use xlink:href="#DejaVuSans-31"/>
       <use xlink:href="#DejaVuSans-2e" x="63.623047"/>
       <use xlink:href="#DejaVuSans-35" x="95.410156"/>
      </g>
     </g>
    </g>
    <g id="ytick_5">
     <g id="line2d_9">
      <g>
       <use xlink:href="#mfc30e5ef17" x="43.78125" y="69.170217" style="stroke: #000000; stroke-width: 0.8"/>
      </g>
     </g>
     <g id="text_10">
      <!-- 2.0 -->
      <g transform="translate(20.878125 72.969436)scale(0.1 -0.1)">
       <use xlink:href="#DejaVuSans-32"/>
       <use xlink:href="#DejaVuSans-2e" x="63.623047"/>
       <use xlink:href="#DejaVuSans-30" x="95.410156"/>
      </g>
     </g>
    </g>
    <g id="text_11">
     <!-- Density -->
     <g transform="translate(14.798437 144.468594)rotate(-90)scale(0.1 -0.1)">
      <defs>
       <path id="DejaVuSans-44" d="M 1259 4147 
L 1259 519 
L 2022 519 
Q 2988 519 3436 956 
Q 3884 1394 3884 2338 
Q 3884 3275 3436 3711 
Q 2988 4147 2022 4147 
L 1259 4147 
z
M 628 4666 
L 1925 4666 
Q 3281 4666 3915 4102 
Q 4550 3538 4550 2338 
Q 4550 1131 3912 565 
Q 3275 0 1925 0 
L 628 0 
L 628 4666 
z
" transform="scale(0.015625)"/>
       <path id="DejaVuSans-65" d="M 3597 1894 
L 3597 1613 
L 953 1613 
Q 991 1019 1311 708 
Q 1631 397 2203 397 
Q 2534 397 2845 478 
Q 3156 559 3463 722 
L 3463 178 
Q 3153 47 2828 -22 
Q 2503 -91 2169 -91 
Q 1331 -91 842 396 
Q 353 884 353 1716 
Q 353 2575 817 3079 
Q 1281 3584 2069 3584 
Q 2775 3584 3186 3129 
Q 3597 2675 3597 1894 
z
M 3022 2063 
Q 3016 2534 2758 2815 
Q 2500 3097 2075 3097 
Q 1594 3097 1305 2825 
Q 1016 2553 972 2059 
L 3022 2063 
z
" transform="scale(0.015625)"/>
       <path id="DejaVuSans-73" d="M 2834 3397 
L 2834 2853 
Q 2591 2978 2328 3040 
Q 2066 3103 1784 3103 
Q 1356 3103 1142 2972 
Q 928 2841 928 2578 
Q 928 2378 1081 2264 
Q 1234 2150 1697 2047 
L 1894 2003 
Q 2506 1872 2764 1633 
Q 3022 1394 3022 966 
Q 3022 478 2636 193 
Q 2250 -91 1575 -91 
Q 1294 -91 989 -36 
Q 684 19 347 128 
L 347 722 
Q 666 556 975 473 
Q 1284 391 1588 391 
Q 1994 391 2212 530 
Q 2431 669 2431 922 
Q 2431 1156 2273 1281 
Q 2116 1406 1581 1522 
L 1381 1569 
Q 847 1681 609 1914 
Q 372 2147 372 2553 
Q 372 3047 722 3315 
Q 1072 3584 1716 3584 
Q 2034 3584 2315 3537 
Q 2597 3491 2834 3397 
z
" transform="scale(0.015625)"/>
       <path id="DejaVuSans-79" d="M 2059 -325 
Q 1816 -950 1584 -1140 
Q 1353 -1331 966 -1331 
L 506 -1331 
L 506 -850 
L 844 -850 
Q 1081 -850 1212 -737 
Q 1344 -625 1503 -206 
L 1606 56 
L 191 3500 
L 800 3500 
L 1894 763 
L 2988 3500 
L 3597 3500 
L 2059 -325 
z
" transform="scale(0.015625)"/>
      </defs>
      <use xlink:href="#DejaVuSans-44"/>
      <use xlink:href="#DejaVuSans-65" x="77.001953"/>
      <use xlink:href="#DejaVuSans-6e" x="138.525391"/>
      <use xlink:href="#DejaVuSans-73" x="201.904297"/>
      <use xlink:href="#DejaVuSans-69" x="254.003906"/>
      <use xlink:href="#DejaVuSans-74" x="281.787109"/>
      <use xlink:href="#DejaVuSans-79" x="320.996094"/>
     </g>
    </g>
   </g>
   <g id="patch_3">
    <path d="M 43.78125 207 
L 43.78125 43.92 
" style="fill: none; stroke: #000000; stroke-width: 0.8; stroke-linejoin: miter; stroke-linecap: square"/>
   </g>
   <g id="patch_4">
    <path d="M 169.33125 207 
L 169.33125 43.92 
" style="fill: none; stroke: #000000; stroke-width: 0.8; stroke-linejoin: miter; stroke-linecap: square"/>
   </g>
   <g id="patch_5">
    <path d="M 43.78125 207 
L 169.33125 207 
" style="fill: none; stroke: #000000; stroke-width: 0.8; stroke-linejoin: miter; stroke-linecap: square"/>
   </g>
   <g id="patch_6">
    <path d="M 43.78125 43.92 
L 169.33125 43.92 
" style="fill: none; stroke: #000000; stroke-width: 0.8; stroke-linejoin: miter; stroke-linecap: square"/>
   </g>
   <g id="text_12">
    <!-- layer 0 -->
    <g transform="translate(85.778438 37.92)scale(0.12 -0.12)">
     <defs>
      <path id="DejaVuSans-6c" d="M 603 4863 
L 1178 4863 
L 1178 0 
L 603 0 
L 603 4863 
z
" transform="scale(0.015625)"/>
      <path id="DejaVuSans-72" d="M 2631 2963 
Q 2534 3019 2420 3045 
Q 2306 3072 2169 3072 
Q 1681 3072 1420 2755 
Q 1159 2438 1159 1844 
L 1159 0 
L 581 0 
L 581 3500 
L 1159 3500 
L 1159 2956 
Q 1341 3275 1631 3429 
Q 1922 3584 2338 3584 
Q 2397 3584 2469 3576 
Q 2541 3569 2628 3553 
L 2631 2963 
z
" transform="scale(0.015625)"/>
      <path id="DejaVuSans-20" transform="scale(0.015625)"/>
     </defs>
     <use xlink:href="#DejaVuSans-6c"/>
     <use xlink:href="#DejaVuSans-61" x="27.783203"/>
     <use xlink:href="#DejaVuSans-79" x="89.0625"/>
     <use xlink:href="#DejaVuSans-65" x="148.242188"/>
     <use xlink:href="#DejaVuSans-72" x="209.765625"/>
     <use xlink:href="#DejaVuSans-20" x="250.878906"/>
     <use xlink:href="#DejaVuSans-30" x="282.666016"/>
    </g>
   </g>
  </g>
  <g id="axes_2">
   <g id="patch_7">
    <path d="M 219.55125 207 
L 345.10125 207 
L 345.10125 43.92 
L 219.55125 43.92 
z
" style="fill: #ffffff"/>
   </g>
   <g id="PolyCollection_3">
    <defs>
     <path id="m375e7702f8" d="M 233.075444 -38.10701 
L 233.075444 -37.55625 
L 235.147347 -37.55625 
L 237.219249 -37.55625 
L 239.291152 -37.55625 
L 241.363054 -37.55625 
L 243.434957 -37.55625 
L 245.50686 -37.55625 
L 247.578762 -37.55625 
L 249.650665 -37.55625 
L 251.722568 -37.55625 
L 253.79447 -37.55625 
L 255.866373 -37.55625 
L 257.938275 -37.55625 
L 260.010178 -37.55625 
L 262.082081 -37.55625 
L 264.153983 -37.55625 
L 266.225886 -37.55625 
L 268.297788 -37.55625 
L 270.369691 -37.55625 
L 272.441594 -37.55625 
L 274.513496 -37.55625 
L 276.585399 -37.55625 
L 278.657301 -37.55625 
L 280.729204 -37.55625 
L 282.801107 -37.55625 
L 284.873009 -37.55625 
L 286.944912 -37.55625 
L 289.016814 -37.55625 
L 291.088717 -37.55625 
L 293.16062 -37.55625 
L 295.232522 -37.55625 
L 297.304425 -37.55625 
L 299.376328 -37.55625 
L 301.44823 -37.55625 
L 303.520133 -37.55625 
L 305.592035 -37.55625 
L 307.663938 -37.55625 
L 309.735841 -37.55625 
L 311.807743 -37.55625 
L 313.879646 -37.55625 
L 315.951548 -37.55625 
L 318.023451 -37.55625 
L 320.095354 -37.55625 
L 320.095354 -38.65777 
L 320.095354 -38.65777 
L 318.023451 -37.55625 
L 315.951548 -38.10701 
L 313.879646 -37.55625 
L 311.807743 -37.55625 
L 309.735841 -38.10701 
L 307.663938 -39.20853 
L 305.592035 -40.860809 
L 303.520133 -48.020688 
L 301.44823 -53.528286 
L 299.376328 -71.152603 
L 297.304425 -89.878438 
L 295.232522 -116.314913 
L 293.16062 -155.418864 
L 291.088717 -171.94166 
L 289.016814 -186.812177 
L 286.944912 -177.449259 
L 284.873009 -189.015217 
L 282.801107 -192.870536 
L 280.729204 -180.203059 
L 278.657301 -181.304578 
L 276.585399 -167.535581 
L 274.513496 -166.434062 
L 272.441594 -171.3909 
L 270.369691 -154.317344 
L 268.297788 -133.388469 
L 266.225886 -130.08391 
L 264.153983 -99.792116 
L 262.082081 -93.182998 
L 260.010178 -73.355642 
L 257.938275 -63.441964 
L 255.866373 -53.528286 
L 253.79447 -47.469928 
L 251.722568 -44.165369 
L 249.650665 -41.962329 
L 247.578762 -41.962329 
L 245.50686 -38.65777 
L 243.434957 -39.20853 
L 241.363054 -38.10701 
L 239.291152 -38.10701 
L 237.219249 -37.55625 
L 235.147347 -37.55625 
L 233.075444 -38.10701 
z
" style="stroke: #1f77b4"/>
    </defs>
    <g clip-path="url(#p30475e051c)">
     <use xlink:href="#m375e7702f8" x="0" y="244.55625" style="fill: #1f77b4; fill-opacity: 0.75; stroke: #1f77b4"/>
    </g>
   </g>
   <g id="PolyCollection_4">
    <defs>
     <path id="m1742dc77a8" d="M 225.258068 -38.046146 
L 225.258068 -37.55625 
L 227.587382 -37.55625 
L 229.916695 -37.55625 
L 232.246009 -37.55625 
L 234.575322 -37.55625 
L 236.904636 -37.55625 
L 239.233949 -37.55625 
L 241.563263 -37.55625 
L 243.892577 -37.55625 
L 246.22189 -37.55625 
L 248.551204 -37.55625 
L 250.880517 -37.55625 
L 253.209831 -37.55625 
L 255.539144 -37.55625 
L 257.868458 -37.55625 
L 260.197771 -37.55625 
L 262.527085 -37.55625 
L 264.856398 -37.55625 
L 267.185712 -37.55625 
L 269.515026 -37.55625 
L 271.844339 -37.55625 
L 274.173653 -37.55625 
L 276.502966 -37.55625 
L 278.83228 -37.55625 
L 281.161593 -37.55625 
L 283.490907 -37.55625 
L 285.82022 -37.55625 
L 288.149534 -37.55625 
L 290.478847 -37.55625 
L 292.808161 -37.55625 
L 295.137474 -37.55625 
L 297.466788 -37.55625 
L 299.796102 -37.55625 
L 302.125415 -37.55625 
L 304.454729 -37.55625 
L 306.784042 -37.55625 
L 309.113356 -37.55625 
L 311.442669 -37.55625 
L 313.771983 -37.55625 
L 316.101296 -37.55625 
L 318.43061 -37.55625 
L 320.759923 -37.55625 
L 323.089237 -37.55625 
L 325.418551 -37.55625 
L 327.747864 -37.55625 
L 330.077178 -37.55625 
L 332.406491 -37.55625 
L 334.735805 -37.55625 
L 337.065118 -37.55625 
L 339.394432 -37.55625 
L 339.394432 -38.046146 
L 339.394432 -38.046146 
L 337.065118 -38.046146 
L 334.735805 -38.046146 
L 332.406491 -38.046146 
L 330.077178 -38.536042 
L 327.747864 -38.536042 
L 325.418551 -38.536042 
L 323.089237 -37.55625 
L 320.759923 -40.005729 
L 318.43061 -40.495625 
L 316.101296 -43.924895 
L 313.771983 -45.884478 
L 311.442669 -48.823852 
L 309.113356 -50.783436 
L 306.784042 -59.111663 
L 304.454729 -62.051038 
L 302.125415 -69.399474 
L 299.796102 -91.444784 
L 297.466788 -104.671969 
L 295.137474 -109.570927 
L 292.808161 -114.95978 
L 290.478847 -136.025298 
L 288.149534 -152.191858 
L 285.82022 -137.005089 
L 283.490907 -157.090815 
L 281.161593 -160.03019 
L 278.83228 -161.009982 
L 276.502966 -176.686646 
L 274.173653 -161.009982 
L 271.844339 -179.136125 
L 269.515026 -149.742379 
L 267.185712 -135.045506 
L 264.856398 -114.469884 
L 262.527085 -101.242699 
L 260.197771 -94.384158 
L 257.868458 -76.258015 
L 255.539144 -67.929787 
L 253.209831 -58.621768 
L 250.880517 -49.803644 
L 248.551204 -45.884478 
L 246.22189 -40.005729 
L 243.892577 -40.005729 
L 241.563263 -38.046146 
L 239.233949 -38.536042 
L 236.904636 -38.536042 
L 234.575322 -38.046146 
L 232.246009 -38.046146 
L 229.916695 -37.55625 
L 227.587382 -37.55625 
L 225.258068 -38.046146 
z
" style="stroke: #ff7f0e"/>
    </defs>
    <g clip-path="url(#p30475e051c)">
     <use xlink:href="#m1742dc77a8" x="0" y="244.55625" style="fill: #ff7f0e; fill-opacity: 0.75; stroke: #ff7f0e"/>
    </g>
   </g>
   <g id="matplotlib.axis_3">
    <g id="xtick_5">
     <g id="line2d_10">
      <g>
       <use xlink:href="#mdc7cab3d6c" x="279.870696" y="207" style="stroke: #000000; stroke-width: 0.8"/>
      </g>
     </g>
     <g id="text_13">
      <!-- 0 -->
      <g transform="translate(276.689446 221.598437)scale(0.1 -0.1)">
       <use xlink:href="#DejaVuSans-30"/>
      </g>
     </g>
    </g>
    <g id="xtick_6">
     <g id="line2d_11">
      <g>
       <use xlink:href="#mdc7cab3d6c" x="342.044803" y="207" style="stroke: #000000; stroke-width: 0.8"/>
      </g>
     </g>
     <g id="text_14">
      <!-- 5 -->
      <g transform="translate(338.863553 221.598437)scale(0.1 -0.1)">
       <use xlink:href="#DejaVuSans-35"/>
      </g>
     </g>
    </g>
    <g id="text_15">
     <!-- Activation -->
     <g transform="translate(257.294219 235.276562)scale(0.1 -0.1)">
      <use xlink:href="#DejaVuSans-41"/>
      <use xlink:href="#DejaVuSans-63" x="66.658203"/>
      <use xlink:href="#DejaVuSans-74" x="121.638672"/>
      <use xlink:href="#DejaVuSans-69" x="160.847656"/>
      <use xlink:href="#DejaVuSans-76" x="188.630859"/>
      <use xlink:href="#DejaVuSans-61" x="247.810547"/>
      <use xlink:href="#DejaVuSans-74" x="309.089844"/>
      <use xlink:href="#DejaVuSans-69" x="348.298828"/>
      <use xlink:href="#DejaVuSans-6f" x="376.082031"/>
      <use xlink:href="#DejaVuSans-6e" x="437.263672"/>
     </g>
    </g>
   </g>
   <g id="matplotlib.axis_4">
    <g id="ytick_6">
     <g id="line2d_12">
      <g>
       <use xlink:href="#mfc30e5ef17" x="219.55125" y="207" style="stroke: #000000; stroke-width: 0.8"/>
      </g>
     </g>
     <g id="text_16">
      <!-- 0.0 -->
      <g transform="translate(196.648125 210.799219)scale(0.1 -0.1)">
       <use xlink:href="#DejaVuSans-30"/>
       <use xlink:href="#DejaVuSans-2e" x="63.623047"/>
       <use xlink:href="#DejaVuSans-30" x="95.410156"/>
      </g>
     </g>
    </g>
    <g id="ytick_7">
     <g id="line2d_13">
      <g>
       <use xlink:href="#mfc30e5ef17" x="219.55125" y="169.411757" style="stroke: #000000; stroke-width: 0.8"/>
      </g>
     </g>
     <g id="text_17">
      <!-- 0.1 -->
      <g transform="translate(196.648125 173.210975)scale(0.1 -0.1)">
       <use xlink:href="#DejaVuSans-30"/>
       <use xlink:href="#DejaVuSans-2e" x="63.623047"/>
       <use xlink:href="#DejaVuSans-31" x="95.410156"/>
      </g>
     </g>
    </g>
    <g id="ytick_8">
     <g id="line2d_14">
      <g>
       <use xlink:href="#mfc30e5ef17" x="219.55125" y="131.823513" style="stroke: #000000; stroke-width: 0.8"/>
      </g>
     </g>
     <g id="text_18">
      <!-- 0.2 -->
      <g transform="translate(196.648125 135.622732)scale(0.1 -0.1)">
       <use xlink:href="#DejaVuSans-30"/>
       <use xlink:href="#DejaVuSans-2e" x="63.623047"/>
       <use xlink:href="#DejaVuSans-32" x="95.410156"/>
      </g>
     </g>
    </g>
    <g id="ytick_9">
     <g id="line2d_15">
      <g>
       <use xlink:href="#mfc30e5ef17" x="219.55125" y="94.23527" style="stroke: #000000; stroke-width: 0.8"/>
      </g>
     </g>
     <g id="text_19">
      <!-- 0.3 -->
      <g transform="translate(196.648125 98.034488)scale(0.1 -0.1)">
       <defs>
        <path id="DejaVuSans-33" d="M 2597 2516 
Q 3050 2419 3304 2112 
Q 3559 1806 3559 1356 
Q 3559 666 3084 287 
Q 2609 -91 1734 -91 
Q 1441 -91 1130 -33 
Q 819 25 488 141 
L 488 750 
Q 750 597 1062 519 
Q 1375 441 1716 441 
Q 2309 441 2620 675 
Q 2931 909 2931 1356 
Q 2931 1769 2642 2001 
Q 2353 2234 1838 2234 
L 1294 2234 
L 1294 2753 
L 1863 2753 
Q 2328 2753 2575 2939 
Q 2822 3125 2822 3475 
Q 2822 3834 2567 4026 
Q 2313 4219 1838 4219 
Q 1578 4219 1281 4162 
Q 984 4106 628 3988 
L 628 4550 
Q 988 4650 1302 4700 
Q 1616 4750 1894 4750 
Q 2613 4750 3031 4423 
Q 3450 4097 3450 3541 
Q 3450 3153 3228 2886 
Q 3006 2619 2597 2516 
z
" transform="scale(0.015625)"/>
       </defs>
       <use xlink:href="#DejaVuSans-30"/>
       <use xlink:href="#DejaVuSans-2e" x="63.623047"/>
       <use xlink:href="#DejaVuSans-33" x="95.410156"/>
      </g>
     </g>
    </g>
    <g id="ytick_10">
     <g id="line2d_16">
      <g>
       <use xlink:href="#mfc30e5ef17" x="219.55125" y="56.647026" style="stroke: #000000; stroke-width: 0.8"/>
      </g>
     </g>
     <g id="text_20">
      <!-- 0.4 -->
      <g transform="translate(196.648125 60.446245)scale(0.1 -0.1)">
       <defs>
        <path id="DejaVuSans-34" d="M 2419 4116 
L 825 1625 
L 2419 1625 
L 2419 4116 
z
M 2253 4666 
L 3047 4666 
L 3047 1625 
L 3713 1625 
L 3713 1100 
L 3047 1100 
L 3047 0 
L 2419 0 
L 2419 1100 
L 313 1100 
L 313 1709 
L 2253 4666 
z
" transform="scale(0.015625)"/>
       </defs>
       <use xlink:href="#DejaVuSans-30"/>
       <use xlink:href="#DejaVuSans-2e" x="63.623047"/>
       <use xlink:href="#DejaVuSans-34" x="95.410156"/>
      </g>
     </g>
    </g>
    <g id="text_21">
     <!-- Density -->
     <g transform="translate(190.568437 144.468594)rotate(-90)scale(0.1 -0.1)">
      <use xlink:href="#DejaVuSans-44"/>
      <use xlink:href="#DejaVuSans-65" x="77.001953"/>
      <use xlink:href="#DejaVuSans-6e" x="138.525391"/>
      <use xlink:href="#DejaVuSans-73" x="201.904297"/>
      <use xlink:href="#DejaVuSans-69" x="254.003906"/>
      <use xlink:href="#DejaVuSans-74" x="281.787109"/>
      <use xlink:href="#DejaVuSans-79" x="320.996094"/>
     </g>
    </g>
   </g>
   <g id="patch_8">
    <path d="M 219.55125 207 
L 219.55125 43.92 
" style="fill: none; stroke: #000000; stroke-width: 0.8; stroke-linejoin: miter; stroke-linecap: square"/>
   </g>
   <g id="patch_9">
    <path d="M 345.10125 207 
L 345.10125 43.92 
" style="fill: none; stroke: #000000; stroke-width: 0.8; stroke-linejoin: miter; stroke-linecap: square"/>
   </g>
   <g id="patch_10">
    <path d="M 219.55125 207 
L 345.10125 207 
" style="fill: none; stroke: #000000; stroke-width: 0.8; stroke-linejoin: miter; stroke-linecap: square"/>
   </g>
   <g id="patch_11">
    <path d="M 219.55125 43.92 
L 345.10125 43.92 
" style="fill: none; stroke: #000000; stroke-width: 0.8; stroke-linejoin: miter; stroke-linecap: square"/>
   </g>
   <g id="text_22">
    <!-- layer 1 -->
    <g transform="translate(261.548437 37.92)scale(0.12 -0.12)">
     <use xlink:href="#DejaVuSans-6c"/>
     <use xlink:href="#DejaVuSans-61" x="27.783203"/>
     <use xlink:href="#DejaVuSans-79" x="89.0625"/>
     <use xlink:href="#DejaVuSans-65" x="148.242188"/>
     <use xlink:href="#DejaVuSans-72" x="209.765625"/>
     <use xlink:href="#DejaVuSans-20" x="250.878906"/>
     <use xlink:href="#DejaVuSans-31" x="282.666016"/>
    </g>
   </g>
  </g>
  <g id="axes_3">
   <g id="patch_12">
    <path d="M 395.32125 207 
L 520.87125 207 
L 520.87125 43.92 
L 395.32125 43.92 
z
" style="fill: #ffffff"/>
   </g>
   <g id="PolyCollection_5">
    <defs>
     <path id="ma664acf5c3" d="M 414.332458 -38.001777 
L 414.332458 -37.55625 
L 415.732902 -37.55625 
L 417.133346 -37.55625 
L 418.53379 -37.55625 
L 419.934234 -37.55625 
L 421.334678 -37.55625 
L 422.735122 -37.55625 
L 424.135567 -37.55625 
L 425.536011 -37.55625 
L 426.936455 -37.55625 
L 428.336899 -37.55625 
L 429.737343 -37.55625 
L 431.137787 -37.55625 
L 432.538231 -37.55625 
L 433.938675 -37.55625 
L 435.339119 -37.55625 
L 436.739563 -37.55625 
L 438.140007 -37.55625 
L 439.540451 -37.55625 
L 440.940896 -37.55625 
L 442.34134 -37.55625 
L 443.741784 -37.55625 
L 445.142228 -37.55625 
L 446.542672 -37.55625 
L 447.943116 -37.55625 
L 449.34356 -37.55625 
L 450.744004 -37.55625 
L 452.144448 -37.55625 
L 453.544892 -37.55625 
L 454.945336 -37.55625 
L 456.34578 -37.55625 
L 457.746225 -37.55625 
L 459.146669 -37.55625 
L 460.547113 -37.55625 
L 461.947557 -37.55625 
L 463.348001 -37.55625 
L 464.748445 -37.55625 
L 466.148889 -37.55625 
L 467.549333 -37.55625 
L 468.949777 -37.55625 
L 470.350221 -37.55625 
L 471.750665 -37.55625 
L 473.151109 -37.55625 
L 474.551553 -37.55625 
L 475.951998 -37.55625 
L 477.352442 -37.55625 
L 478.752886 -37.55625 
L 480.15333 -37.55625 
L 481.553774 -37.55625 
L 482.954218 -37.55625 
L 484.354662 -37.55625 
L 485.755106 -37.55625 
L 487.15555 -37.55625 
L 488.555994 -37.55625 
L 489.956438 -37.55625 
L 491.356882 -37.55625 
L 492.757327 -37.55625 
L 494.157771 -37.55625 
L 495.558215 -37.55625 
L 496.958659 -37.55625 
L 498.359103 -37.55625 
L 499.759547 -37.55625 
L 501.159991 -37.55625 
L 502.560435 -37.55625 
L 503.960879 -37.55625 
L 505.361323 -37.55625 
L 506.761767 -37.55625 
L 508.162211 -37.55625 
L 509.562655 -37.55625 
L 510.9631 -37.55625 
L 512.363544 -37.55625 
L 513.763988 -37.55625 
L 515.164432 -37.55625 
L 515.164432 -38.001777 
L 515.164432 -38.001777 
L 513.763988 -37.55625 
L 512.363544 -37.55625 
L 510.9631 -37.55625 
L 509.562655 -37.55625 
L 508.162211 -37.55625 
L 506.761767 -37.55625 
L 505.361323 -37.55625 
L 503.960879 -37.55625 
L 502.560435 -37.55625 
L 501.159991 -37.55625 
L 499.759547 -37.55625 
L 498.359103 -37.55625 
L 496.958659 -37.55625 
L 495.558215 -37.55625 
L 494.157771 -37.55625 
L 492.757327 -37.55625 
L 491.356882 -37.55625 
L 489.956438 -37.55625 
L 488.555994 -37.55625 
L 487.15555 -38.001777 
L 485.755106 -37.55625 
L 484.354662 -38.001777 
L 482.954218 -37.55625 
L 481.553774 -37.55625 
L 480.15333 -38.447303 
L 478.752886 -37.55625 
L 477.352442 -38.001777 
L 475.951998 -38.001777 
L 474.551553 -38.447303 
L 473.151109 -41.56599 
L 471.750665 -39.338357 
L 470.350221 -46.021257 
L 468.949777 -46.91231 
L 467.549333 -55.822844 
L 466.148889 -56.713897 
L 464.748445 -83.445498 
L 463.348001 -100.375512 
L 461.947557 -123.097373 
L 460.547113 -147.155814 
L 459.146669 -174.778468 
L 457.746225 -178.342682 
L 456.34578 -173.887415 
L 454.945336 -179.233735 
L 453.544892 -159.185034 
L 452.144448 -136.463174 
L 450.744004 -129.334747 
L 449.34356 -112.404733 
L 447.943116 -112.404733 
L 446.542672 -103.494199 
L 445.142228 -92.356032 
L 443.741784 -91.464979 
L 442.34134 -92.356032 
L 440.940896 -71.861805 
L 439.540451 -73.198385 
L 438.140007 -62.505744 
L 436.739563 -61.614691 
L 435.339119 -53.595211 
L 433.938675 -59.832584 
L 432.538231 -50.476524 
L 431.137787 -46.91231 
L 429.737343 -47.803364 
L 428.336899 -42.457044 
L 426.936455 -41.120463 
L 425.536011 -40.22941 
L 424.135567 -39.783883 
L 422.735122 -38.447303 
L 421.334678 -38.001777 
L 419.934234 -39.338357 
L 418.53379 -38.447303 
L 417.133346 -38.447303 
L 415.732902 -37.55625 
L 414.332458 -38.001777 
z
" style="stroke: #1f77b4"/>
    </defs>
    <g clip-path="url(#p644cab3719)">
     <use xlink:href="#ma664acf5c3" x="0" y="244.55625" style="fill: #1f77b4; fill-opacity: 0.75; stroke: #1f77b4"/>
    </g>
   </g>
   <g id="PolyCollection_6">
    <defs>
     <path id="m8c08a3c07a" d="M 401.028068 -38.089976 
L 401.028068 -37.55625 
L 402.197086 -37.55625 
L 403.366104 -37.55625 
L 404.535121 -37.55625 
L 405.704139 -37.55625 
L 406.873157 -37.55625 
L 408.042174 -37.55625 
L 409.211192 -37.55625 
L 410.38021 -37.55625 
L 411.549227 -37.55625 
L 412.718245 -37.55625 
L 413.887263 -37.55625 
L 415.05628 -37.55625 
L 416.225298 -37.55625 
L 417.394316 -37.55625 
L 418.563333 -37.55625 
L 419.732351 -37.55625 
L 420.901369 -37.55625 
L 422.070386 -37.55625 
L 423.239404 -37.55625 
L 424.408422 -37.55625 
L 425.577439 -37.55625 
L 426.746457 -37.55625 
L 427.915475 -37.55625 
L 429.084492 -37.55625 
L 430.25351 -37.55625 
L 431.422528 -37.55625 
L 432.591545 -37.55625 
L 433.760563 -37.55625 
L 434.929581 -37.55625 
L 436.098598 -37.55625 
L 437.267616 -37.55625 
L 438.436634 -37.55625 
L 439.605651 -37.55625 
L 440.774669 -37.55625 
L 441.943687 -37.55625 
L 443.112704 -37.55625 
L 444.281722 -37.55625 
L 445.45074 -37.55625 
L 446.619757 -37.55625 
L 447.788775 -37.55625 
L 448.957793 -37.55625 
L 450.12681 -37.55625 
L 451.295828 -37.55625 
L 452.464846 -37.55625 
L 453.633864 -37.55625 
L 454.802881 -37.55625 
L 455.971899 -37.55625 
L 457.140917 -37.55625 
L 458.309934 -37.55625 
L 459.478952 -37.55625 
L 460.64797 -37.55625 
L 461.816987 -37.55625 
L 462.986005 -37.55625 
L 464.155023 -37.55625 
L 465.32404 -37.55625 
L 466.493058 -37.55625 
L 467.662076 -37.55625 
L 468.831093 -37.55625 
L 470.000111 -37.55625 
L 471.169129 -37.55625 
L 472.338146 -37.55625 
L 473.507164 -37.55625 
L 474.676182 -37.55625 
L 475.845199 -37.55625 
L 477.014217 -37.55625 
L 478.183235 -37.55625 
L 479.352252 -37.55625 
L 479.352252 -38.089976 
L 479.352252 -38.089976 
L 478.183235 -37.55625 
L 477.014217 -37.55625 
L 475.845199 -37.55625 
L 474.676182 -38.089976 
L 473.507164 -39.157428 
L 472.338146 -40.22488 
L 471.169129 -39.157428 
L 470.000111 -41.292332 
L 468.831093 -50.365676 
L 467.662076 -57.304115 
L 466.493058 -59.439019 
L 465.32404 -75.984527 
L 464.155023 -80.254335 
L 462.986005 -95.732391 
L 461.816987 -118.682612 
L 460.64797 -121.351243 
L 459.478952 -151.773628 
L 458.309934 -169.920315 
L 457.140917 -183.797193 
L 455.971899 -177.926206 
L 454.802881 -190.735631 
L 453.633864 -192.870536 
L 452.464846 -170.454041 
L 451.295828 -171.521493 
L 450.12681 -144.301464 
L 448.957793 -129.89086 
L 447.788775 -134.694394 
L 446.619757 -93.063761 
L 445.45074 -98.401022 
L 444.281722 -81.321788 
L 443.112704 -75.984527 
L 441.943687 -65.310006 
L 440.774669 -65.310006 
L 439.605651 -61.573923 
L 438.436634 -57.837841 
L 437.267616 -53.568032 
L 436.098598 -54.101758 
L 434.929581 -49.298223 
L 433.760563 -49.298223 
L 432.591545 -47.697045 
L 431.422528 -43.960963 
L 430.25351 -42.359785 
L 429.084492 -43.960963 
L 427.915475 -41.292332 
L 426.746457 -41.826059 
L 425.577439 -39.157428 
L 424.408422 -39.157428 
L 423.239404 -42.359785 
L 422.070386 -38.623702 
L 420.901369 -39.691154 
L 419.732351 -39.157428 
L 418.563333 -39.157428 
L 417.394316 -39.157428 
L 416.225298 -38.623702 
L 415.05628 -37.55625 
L 413.887263 -38.623702 
L 412.718245 -38.089976 
L 411.549227 -38.089976 
L 410.38021 -37.55625 
L 409.211192 -37.55625 
L 408.042174 -37.55625 
L 406.873157 -38.623702 
L 405.704139 -37.55625 
L 404.535121 -37.55625 
L 403.366104 -38.089976 
L 402.197086 -38.089976 
L 401.028068 -38.089976 
z
" style="stroke: #ff7f0e"/>
    </defs>
    <g clip-path="url(#p644cab3719)">
     <use xlink:href="#m8c08a3c07a" x="0" y="244.55625" style="fill: #ff7f0e; fill-opacity: 0.75; stroke: #ff7f0e"/>
    </g>
   </g>
   <g id="matplotlib.axis_5">
    <g id="xtick_7">
     <g id="line2d_17">
      <g>
       <use xlink:href="#mdc7cab3d6c" x="414.535248" y="207" style="stroke: #000000; stroke-width: 0.8"/>
      </g>
     </g>
     <g id="text_23">
      <!-- −5 -->
      <g transform="translate(407.164154 221.598437)scale(0.1 -0.1)">
       <use xlink:href="#DejaVuSans-2212"/>
       <use xlink:href="#DejaVuSans-35" x="83.789062"/>
      </g>
     </g>
    </g>
    <g id="xtick_8">
     <g id="line2d_18">
      <g>
       <use xlink:href="#mdc7cab3d6c" x="452.810995" y="207" style="stroke: #000000; stroke-width: 0.8"/>
      </g>
     </g>
     <g id="text_24">
      <!-- 0 -->
      <g transform="translate(449.629745 221.598437)scale(0.1 -0.1)">
       <use xlink:href="#DejaVuSans-30"/>
      </g>
     </g>
    </g>
    <g id="xtick_9">
     <g id="line2d_19">
      <g>
       <use xlink:href="#mdc7cab3d6c" x="491.086742" y="207" style="stroke: #000000; stroke-width: 0.8"/>
      </g>
     </g>
     <g id="text_25">
      <!-- 5 -->
      <g transform="translate(487.905492 221.598437)scale(0.1 -0.1)">
       <use xlink:href="#DejaVuSans-35"/>
      </g>
     </g>
    </g>
    <g id="text_26">
     <!-- Activation -->
     <g transform="translate(433.064219 235.276562)scale(0.1 -0.1)">
      <use xlink:href="#DejaVuSans-41"/>
      <use xlink:href="#DejaVuSans-63" x="66.658203"/>
      <use xlink:href="#DejaVuSans-74" x="121.638672"/>
      <use xlink:href="#DejaVuSans-69" x="160.847656"/>
      <use xlink:href="#DejaVuSans-76" x="188.630859"/>
      <use xlink:href="#DejaVuSans-61" x="247.810547"/>
      <use xlink:href="#DejaVuSans-74" x="309.089844"/>
      <use xlink:href="#DejaVuSans-69" x="348.298828"/>
      <use xlink:href="#DejaVuSans-6f" x="376.082031"/>
      <use xlink:href="#DejaVuSans-6e" x="437.263672"/>
     </g>
    </g>
   </g>
   <g id="matplotlib.axis_6">
    <g id="ytick_11">
     <g id="line2d_20">
      <g>
       <use xlink:href="#mfc30e5ef17" x="395.32125" y="207" style="stroke: #000000; stroke-width: 0.8"/>
      </g>
     </g>
     <g id="text_27">
      <!-- 0.0 -->
      <g transform="translate(372.418125 210.799219)scale(0.1 -0.1)">
       <use xlink:href="#DejaVuSans-30"/>
       <use xlink:href="#DejaVuSans-2e" x="63.623047"/>
       <use xlink:href="#DejaVuSans-30" x="95.410156"/>
      </g>
     </g>
    </g>
    <g id="ytick_12">
     <g id="line2d_21">
      <g>
       <use xlink:href="#mfc30e5ef17" x="395.32125" y="173.615431" style="stroke: #000000; stroke-width: 0.8"/>
      </g>
     </g>
     <g id="text_28">
      <!-- 0.1 -->
      <g transform="translate(372.418125 177.41465)scale(0.1 -0.1)">
       <use xlink:href="#DejaVuSans-30"/>
       <use xlink:href="#DejaVuSans-2e" x="63.623047"/>
       <use xlink:href="#DejaVuSans-31" x="95.410156"/>
      </g>
     </g>
    </g>
    <g id="ytick_13">
     <g id="line2d_22">
      <g>
       <use xlink:href="#mfc30e5ef17" x="395.32125" y="140.230863" style="stroke: #000000; stroke-width: 0.8"/>
      </g>
     </g>
     <g id="text_29">
      <!-- 0.2 -->
      <g transform="translate(372.418125 144.030082)scale(0.1 -0.1)">
       <use xlink:href="#DejaVuSans-30"/>
       <use xlink:href="#DejaVuSans-2e" x="63.623047"/>
       <use xlink:href="#DejaVuSans-32" x="95.410156"/>
      </g>
     </g>
    </g>
    <g id="ytick_14">
     <g id="line2d_23">
      <g>
       <use xlink:href="#mfc30e5ef17" x="395.32125" y="106.846294" style="stroke: #000000; stroke-width: 0.8"/>
      </g>
     </g>
     <g id="text_30">
      <!-- 0.3 -->
      <g transform="translate(372.418125 110.645513)scale(0.1 -0.1)">
       <use xlink:href="#DejaVuSans-30"/>
       <use xlink:href="#DejaVuSans-2e" x="63.623047"/>
       <use xlink:href="#DejaVuSans-33" x="95.410156"/>
      </g>
     </g>
    </g>
    <g id="ytick_15">
     <g id="line2d_24">
      <g>
       <use xlink:href="#mfc30e5ef17" x="395.32125" y="73.461726" style="stroke: #000000; stroke-width: 0.8"/>
      </g>
     </g>
     <g id="text_31">
      <!-- 0.4 -->
      <g transform="translate(372.418125 77.260944)scale(0.1 -0.1)">
       <use xlink:href="#DejaVuSans-30"/>
       <use xlink:href="#DejaVuSans-2e" x="63.623047"/>
       <use xlink:href="#DejaVuSans-34" x="95.410156"/>
      </g>
     </g>
    </g>
    <g id="text_32">
     <!-- Density -->
     <g transform="translate(366.338437 144.468594)rotate(-90)scale(0.1 -0.1)">
      <use xlink:href="#DejaVuSans-44"/>
      <use xlink:href="#DejaVuSans-65" x="77.001953"/>
      <use xlink:href="#DejaVuSans-6e" x="138.525391"/>
      <use xlink:href="#DejaVuSans-73" x="201.904297"/>
      <use xlink:href="#DejaVuSans-69" x="254.003906"/>
      <use xlink:href="#DejaVuSans-74" x="281.787109"/>
      <use xlink:href="#DejaVuSans-79" x="320.996094"/>
     </g>
    </g>
   </g>
   <g id="patch_13">
    <path d="M 395.32125 207 
L 395.32125 43.92 
" style="fill: none; stroke: #000000; stroke-width: 0.8; stroke-linejoin: miter; stroke-linecap: square"/>
   </g>
   <g id="patch_14">
    <path d="M 520.87125 207 
L 520.87125 43.92 
" style="fill: none; stroke: #000000; stroke-width: 0.8; stroke-linejoin: miter; stroke-linecap: square"/>
   </g>
   <g id="patch_15">
    <path d="M 395.32125 207 
L 520.87125 207 
" style="fill: none; stroke: #000000; stroke-width: 0.8; stroke-linejoin: miter; stroke-linecap: square"/>
   </g>
   <g id="patch_16">
    <path d="M 395.32125 43.92 
L 520.87125 43.92 
" style="fill: none; stroke: #000000; stroke-width: 0.8; stroke-linejoin: miter; stroke-linecap: square"/>
   </g>
   <g id="text_33">
    <!-- layer 2 -->
    <g transform="translate(437.318437 37.92)scale(0.12 -0.12)">
     <use xlink:href="#DejaVuSans-6c"/>
     <use xlink:href="#DejaVuSans-61" x="27.783203"/>
     <use xlink:href="#DejaVuSans-79" x="89.0625"/>
     <use xlink:href="#DejaVuSans-65" x="148.242188"/>
     <use xlink:href="#DejaVuSans-72" x="209.765625"/>
     <use xlink:href="#DejaVuSans-20" x="250.878906"/>
     <use xlink:href="#DejaVuSans-32" x="282.666016"/>
    </g>
   </g>
  </g>
  <g id="axes_4">
   <g id="patch_17">
    <path d="M 571.09125 207 
L 696.64125 207 
L 696.64125 43.92 
L 571.09125 43.92 
z
" style="fill: #ffffff"/>
   </g>
   <g id="PolyCollection_7">
    <defs>
     <path id="md4044d20df" d="M 586.516231 -38.110944 
L 586.516231 -37.55625 
L 587.904596 -37.55625 
L 589.29296 -37.55625 
L 590.681325 -37.55625 
L 592.069689 -37.55625 
L 593.458054 -37.55625 
L 594.846419 -37.55625 
L 596.234783 -37.55625 
L 597.623148 -37.55625 
L 599.011513 -37.55625 
L 600.399877 -37.55625 
L 601.788242 -37.55625 
L 603.176606 -37.55625 
L 604.564971 -37.55625 
L 605.953336 -37.55625 
L 607.3417 -37.55625 
L 608.730065 -37.55625 
L 610.118429 -37.55625 
L 611.506794 -37.55625 
L 612.895159 -37.55625 
L 614.283523 -37.55625 
L 615.671888 -37.55625 
L 617.060252 -37.55625 
L 618.448617 -37.55625 
L 619.836982 -37.55625 
L 621.225346 -37.55625 
L 622.613711 -37.55625 
L 624.002076 -37.55625 
L 625.39044 -37.55625 
L 626.778805 -37.55625 
L 628.167169 -37.55625 
L 629.555534 -37.55625 
L 630.943899 -37.55625 
L 632.332263 -37.55625 
L 633.720628 -37.55625 
L 635.108992 -37.55625 
L 636.497357 -37.55625 
L 637.885722 -37.55625 
L 639.274086 -37.55625 
L 640.662451 -37.55625 
L 642.050815 -37.55625 
L 643.43918 -37.55625 
L 644.827545 -37.55625 
L 646.215909 -37.55625 
L 647.604274 -37.55625 
L 648.992639 -37.55625 
L 650.381003 -37.55625 
L 651.769368 -37.55625 
L 653.157732 -37.55625 
L 654.546097 -37.55625 
L 655.934462 -37.55625 
L 657.322826 -37.55625 
L 658.711191 -37.55625 
L 660.099555 -37.55625 
L 661.48792 -37.55625 
L 662.876285 -37.55625 
L 664.264649 -37.55625 
L 665.653014 -37.55625 
L 667.041379 -37.55625 
L 668.429743 -37.55625 
L 669.818108 -37.55625 
L 671.206472 -37.55625 
L 672.594837 -37.55625 
L 673.983202 -37.55625 
L 675.371566 -37.55625 
L 676.759931 -37.55625 
L 678.148295 -37.55625 
L 679.53666 -37.55625 
L 680.925025 -37.55625 
L 682.313389 -37.55625 
L 683.701754 -37.55625 
L 685.090118 -37.55625 
L 686.478483 -37.55625 
L 686.478483 -38.110944 
L 686.478483 -38.110944 
L 685.090118 -37.55625 
L 683.701754 -37.55625 
L 682.313389 -37.55625 
L 680.925025 -37.55625 
L 679.53666 -37.55625 
L 678.148295 -37.55625 
L 676.759931 -38.110944 
L 675.371566 -38.110944 
L 673.983202 -37.55625 
L 672.594837 -37.55625 
L 671.206472 -38.110944 
L 669.818108 -37.55625 
L 668.429743 -38.110944 
L 667.041379 -37.55625 
L 665.653014 -37.55625 
L 664.264649 -37.55625 
L 662.876285 -38.110944 
L 661.48792 -37.55625 
L 660.099555 -38.110944 
L 658.711191 -38.110944 
L 657.322826 -38.665638 
L 655.934462 -39.220332 
L 654.546097 -39.775026 
L 653.157732 -39.220332 
L 651.769368 -38.665638 
L 650.381003 -38.110944 
L 648.992639 -39.775026 
L 647.604274 -38.665638 
L 646.215909 -41.993801 
L 644.827545 -40.329719 
L 643.43918 -41.439107 
L 642.050815 -41.439107 
L 640.662451 -43.657883 
L 639.274086 -47.54074 
L 637.885722 -52.532985 
L 636.497357 -51.423597 
L 635.108992 -60.298699 
L 633.720628 -60.853393 
L 632.332263 -65.290944 
L 630.943899 -78.603597 
L 629.555534 -89.697474 
L 628.167169 -106.338291 
L 626.778805 -121.315026 
L 625.39044 -149.604413 
L 624.002076 -159.588903 
L 622.613711 -175.675026 
L 621.225346 -190.65176 
L 619.836982 -192.870536 
L 618.448617 -181.776658 
L 617.060252 -191.761148 
L 615.671888 -163.47176 
L 614.283523 -172.901556 
L 612.895159 -161.252985 
L 611.506794 -138.510536 
L 610.118429 -110.221148 
L 608.730065 -106.892985 
L 607.3417 -91.361556 
L 605.953336 -90.252168 
L 604.564971 -80.267679 
L 603.176606 -73.056658 
L 601.788242 -62.517474 
L 600.399877 -57.52523 
L 599.011513 -54.75176 
L 597.623148 -47.54074 
L 596.234783 -43.103189 
L 594.846419 -39.775026 
L 593.458054 -40.329719 
L 592.069689 -38.110944 
L 590.681325 -38.110944 
L 589.29296 -38.110944 
L 587.904596 -37.55625 
L 586.516231 -38.110944 
z
" style="stroke: #1f77b4"/>
    </defs>
    <g clip-path="url(#p144a6e3361)">
     <use xlink:href="#md4044d20df" x="0" y="244.55625" style="fill: #1f77b4; fill-opacity: 0.75; stroke: #1f77b4"/>
    </g>
   </g>
   <g id="PolyCollection_8">
    <defs>
     <path id="m0bac6d0eec" d="M 576.798068 -38.028564 
L 576.798068 -37.55625 
L 578.428588 -37.55625 
L 580.059107 -37.55625 
L 581.689627 -37.55625 
L 583.320146 -37.55625 
L 584.950666 -37.55625 
L 586.581185 -37.55625 
L 588.211705 -37.55625 
L 589.842224 -37.55625 
L 591.472744 -37.55625 
L 593.103263 -37.55625 
L 594.733782 -37.55625 
L 596.364302 -37.55625 
L 597.994821 -37.55625 
L 599.625341 -37.55625 
L 601.25586 -37.55625 
L 602.88638 -37.55625 
L 604.516899 -37.55625 
L 606.147419 -37.55625 
L 607.777938 -37.55625 
L 609.408458 -37.55625 
L 611.038977 -37.55625 
L 612.669497 -37.55625 
L 614.300016 -37.55625 
L 615.930536 -37.55625 
L 617.561055 -37.55625 
L 619.191575 -37.55625 
L 620.822094 -37.55625 
L 622.452614 -37.55625 
L 624.083133 -37.55625 
L 625.713653 -37.55625 
L 627.344172 -37.55625 
L 628.974692 -37.55625 
L 630.605211 -37.55625 
L 632.235731 -37.55625 
L 633.86625 -37.55625 
L 635.496769 -37.55625 
L 637.127289 -37.55625 
L 638.757808 -37.55625 
L 640.388328 -37.55625 
L 642.018847 -37.55625 
L 643.649367 -37.55625 
L 645.279886 -37.55625 
L 646.910406 -37.55625 
L 648.540925 -37.55625 
L 650.171445 -37.55625 
L 651.801964 -37.55625 
L 653.432484 -37.55625 
L 655.063003 -37.55625 
L 656.693523 -37.55625 
L 658.324042 -37.55625 
L 659.954562 -37.55625 
L 661.585081 -37.55625 
L 663.215601 -37.55625 
L 664.84612 -37.55625 
L 666.47664 -37.55625 
L 668.107159 -37.55625 
L 669.737679 -37.55625 
L 671.368198 -37.55625 
L 672.998718 -37.55625 
L 674.629237 -37.55625 
L 676.259756 -37.55625 
L 677.890276 -37.55625 
L 679.520795 -37.55625 
L 681.151315 -37.55625 
L 682.781834 -37.55625 
L 684.412354 -37.55625 
L 686.042873 -37.55625 
L 687.673393 -37.55625 
L 689.303912 -37.55625 
L 690.934432 -37.55625 
L 690.934432 -38.028564 
L 690.934432 -38.028564 
L 689.303912 -37.55625 
L 687.673393 -37.55625 
L 686.042873 -37.55625 
L 684.412354 -37.55625 
L 682.781834 -37.55625 
L 681.151315 -37.55625 
L 679.520795 -37.55625 
L 677.890276 -38.028564 
L 676.259756 -37.55625 
L 674.629237 -37.55625 
L 672.998718 -37.55625 
L 671.368198 -37.55625 
L 669.737679 -37.55625 
L 668.107159 -37.55625 
L 666.47664 -37.55625 
L 664.84612 -38.028564 
L 663.215601 -37.55625 
L 661.585081 -37.55625 
L 659.954562 -38.028564 
L 658.324042 -37.55625 
L 656.693523 -38.028564 
L 655.063003 -38.500878 
L 653.432484 -38.500878 
L 651.801964 -38.028564 
L 650.171445 -38.973192 
L 648.540925 -40.390135 
L 646.910406 -41.334763 
L 645.279886 -44.640962 
L 643.649367 -48.419474 
L 642.018847 -49.836417 
L 640.388328 -53.61493 
L 638.757808 -60.699641 
L 637.127289 -57.393442 
L 635.496769 -81.009148 
L 633.86625 -83.843032 
L 632.235731 -84.787661 
L 630.605211 -89.510802 
L 628.974692 -90.927744 
L 627.344172 -109.820308 
L 625.713653 -113.126507 
L 624.083133 -122.100475 
L 622.452614 -133.436013 
L 620.822094 -142.409981 
L 619.191575 -162.719488 
L 617.561055 -177.361225 
L 615.930536 -168.859571 
L 614.300016 -173.110398 
L 612.669497 -177.361225 
L 611.038977 -154.217834 
L 609.408458 -137.214526 
L 607.777938 -111.709565 
L 606.147419 -97.540141 
L 604.516899 -78.647577 
L 602.88638 -69.673609 
L 601.25586 -63.061212 
L 599.625341 -48.419474 
L 597.994821 -47.94716 
L 596.364302 -42.751705 
L 594.733782 -38.500878 
L 593.103263 -41.334763 
L 591.472744 -39.445506 
L 589.842224 -37.55625 
L 588.211705 -39.445506 
L 586.581185 -38.028564 
L 584.950666 -37.55625 
L 583.320146 -38.028564 
L 581.689627 -37.55625 
L 580.059107 -37.55625 
L 578.428588 -37.55625 
L 576.798068 -38.028564 
z
" style="stroke: #ff7f0e"/>
    </defs>
    <g clip-path="url(#p144a6e3361)">
     <use xlink:href="#m0bac6d0eec" x="0" y="244.55625" style="fill: #ff7f0e; fill-opacity: 0.75; stroke: #ff7f0e"/>
    </g>
   </g>
   <g id="matplotlib.axis_7">
    <g id="xtick_10">
     <g id="line2d_25">
      <g>
       <use xlink:href="#mdc7cab3d6c" x="578.412332" y="207" style="stroke: #000000; stroke-width: 0.8"/>
      </g>
     </g>
     <g id="text_34">
      <!-- −5 -->
      <g transform="translate(571.041238 221.598437)scale(0.1 -0.1)">
       <use xlink:href="#DejaVuSans-2212"/>
       <use xlink:href="#DejaVuSans-35" x="83.789062"/>
      </g>
     </g>
    </g>
    <g id="xtick_11">
     <g id="line2d_26">
      <g>
       <use xlink:href="#mdc7cab3d6c" x="618.658333" y="207" style="stroke: #000000; stroke-width: 0.8"/>
      </g>
     </g>
     <g id="text_35">
      <!-- 0 -->
      <g transform="translate(615.477083 221.598437)scale(0.1 -0.1)">
       <use xlink:href="#DejaVuSans-30"/>
      </g>
     </g>
    </g>
    <g id="xtick_12">
     <g id="line2d_27">
      <g>
       <use xlink:href="#mdc7cab3d6c" x="658.904334" y="207" style="stroke: #000000; stroke-width: 0.8"/>
      </g>
     </g>
     <g id="text_36">
      <!-- 5 -->
      <g transform="translate(655.723084 221.598437)scale(0.1 -0.1)">
       <use xlink:href="#DejaVuSans-35"/>
      </g>
     </g>
    </g>
    <g id="text_37">
     <!-- Activation -->
     <g transform="translate(608.834219 235.276562)scale(0.1 -0.1)">
      <use xlink:href="#DejaVuSans-41"/>
      <use xlink:href="#DejaVuSans-63" x="66.658203"/>
      <use xlink:href="#DejaVuSans-74" x="121.638672"/>
      <use xlink:href="#DejaVuSans-69" x="160.847656"/>
      <use xlink:href="#DejaVuSans-76" x="188.630859"/>
      <use xlink:href="#DejaVuSans-61" x="247.810547"/>
      <use xlink:href="#DejaVuSans-74" x="309.089844"/>
      <use xlink:href="#DejaVuSans-69" x="348.298828"/>
      <use xlink:href="#DejaVuSans-6f" x="376.082031"/>
      <use xlink:href="#DejaVuSans-6e" x="437.263672"/>
     </g>
    </g>
   </g>
   <g id="matplotlib.axis_8">
    <g id="ytick_16">
     <g id="line2d_28">
      <g>
       <use xlink:href="#mfc30e5ef17" x="571.09125" y="207" style="stroke: #000000; stroke-width: 0.8"/>
      </g>
     </g>
     <g id="text_38">
      <!-- 0.0 -->
      <g transform="translate(548.188125 210.799219)scale(0.1 -0.1)">
       <use xlink:href="#DejaVuSans-30"/>
       <use xlink:href="#DejaVuSans-2e" x="63.623047"/>
       <use xlink:href="#DejaVuSans-30" x="95.410156"/>
      </g>
     </g>
    </g>
    <g id="ytick_17">
     <g id="line2d_29">
      <g>
       <use xlink:href="#mfc30e5ef17" x="571.09125" y="167.811005" style="stroke: #000000; stroke-width: 0.8"/>
      </g>
     </g>
     <g id="text_39">
      <!-- 0.1 -->
      <g transform="translate(548.188125 171.610224)scale(0.1 -0.1)">
       <use xlink:href="#DejaVuSans-30"/>
       <use xlink:href="#DejaVuSans-2e" x="63.623047"/>
       <use xlink:href="#DejaVuSans-31" x="95.410156"/>
      </g>
     </g>
    </g>
    <g id="ytick_18">
     <g id="line2d_30">
      <g>
       <use xlink:href="#mfc30e5ef17" x="571.09125" y="128.62201" style="stroke: #000000; stroke-width: 0.8"/>
      </g>
     </g>
     <g id="text_40">
      <!-- 0.2 -->
      <g transform="translate(548.188125 132.421229)scale(0.1 -0.1)">
       <use xlink:href="#DejaVuSans-30"/>
       <use xlink:href="#DejaVuSans-2e" x="63.623047"/>
       <use xlink:href="#DejaVuSans-32" x="95.410156"/>
      </g>
     </g>
    </g>
    <g id="ytick_19">
     <g id="line2d_31">
      <g>
       <use xlink:href="#mfc30e5ef17" x="571.09125" y="89.433016" style="stroke: #000000; stroke-width: 0.8"/>
      </g>
     </g>
     <g id="text_41">
      <!-- 0.3 -->
      <g transform="translate(548.188125 93.232234)scale(0.1 -0.1)">
       <use xlink:href="#DejaVuSans-30"/>
       <use xlink:href="#DejaVuSans-2e" x="63.623047"/>
       <use xlink:href="#DejaVuSans-33" x="95.410156"/>
      </g>
     </g>
    </g>
    <g id="ytick_20">
     <g id="line2d_32">
      <g>
       <use xlink:href="#mfc30e5ef17" x="571.09125" y="50.244021" style="stroke: #000000; stroke-width: 0.8"/>
      </g>
     </g>
     <g id="text_42">
      <!-- 0.4 -->
      <g transform="translate(548.188125 54.043239)scale(0.1 -0.1)">
       <use xlink:href="#DejaVuSans-30"/>
       <use xlink:href="#DejaVuSans-2e" x="63.623047"/>
       <use xlink:href="#DejaVuSans-34" x="95.410156"/>
      </g>
     </g>
    </g>
    <g id="text_43">
     <!-- Density -->
     <g transform="translate(542.108437 144.468594)rotate(-90)scale(0.1 -0.1)">
      <use xlink:href="#DejaVuSans-44"/>
      <use xlink:href="#DejaVuSans-65" x="77.001953"/>
      <use xlink:href="#DejaVuSans-6e" x="138.525391"/>
      <use xlink:href="#DejaVuSans-73" x="201.904297"/>
      <use xlink:href="#DejaVuSans-69" x="254.003906"/>
      <use xlink:href="#DejaVuSans-74" x="281.787109"/>
      <use xlink:href="#DejaVuSans-79" x="320.996094"/>
     </g>
    </g>
   </g>
   <g id="patch_18">
    <path d="M 571.09125 207 
L 571.09125 43.92 
" style="fill: none; stroke: #000000; stroke-width: 0.8; stroke-linejoin: miter; stroke-linecap: square"/>
   </g>
   <g id="patch_19">
    <path d="M 696.64125 207 
L 696.64125 43.92 
" style="fill: none; stroke: #000000; stroke-width: 0.8; stroke-linejoin: miter; stroke-linecap: square"/>
   </g>
   <g id="patch_20">
    <path d="M 571.09125 207 
L 696.64125 207 
" style="fill: none; stroke: #000000; stroke-width: 0.8; stroke-linejoin: miter; stroke-linecap: square"/>
   </g>
   <g id="patch_21">
    <path d="M 571.09125 43.92 
L 696.64125 43.92 
" style="fill: none; stroke: #000000; stroke-width: 0.8; stroke-linejoin: miter; stroke-linecap: square"/>
   </g>
   <g id="text_44">
    <!-- layer 3 -->
    <g transform="translate(613.088438 37.92)scale(0.12 -0.12)">
     <use xlink:href="#DejaVuSans-6c"/>
     <use xlink:href="#DejaVuSans-61" x="27.783203"/>
     <use xlink:href="#DejaVuSans-79" x="89.0625"/>
     <use xlink:href="#DejaVuSans-65" x="148.242188"/>
     <use xlink:href="#DejaVuSans-72" x="209.765625"/>
     <use xlink:href="#DejaVuSans-20" x="250.878906"/>
     <use xlink:href="#DejaVuSans-33" x="282.666016"/>
    </g>
   </g>
  </g>
  <g id="axes_5">
   <g id="patch_22">
    <path d="M 746.86125 207 
L 872.41125 207 
L 872.41125 43.92 
L 746.86125 43.92 
z
" style="fill: #ffffff"/>
   </g>
   <g id="PolyCollection_9">
    <defs>
     <path id="m9ddd53efc6" d="M 752.568068 -37.8578 
L 752.568068 -37.55625 
L 755.104432 -37.55625 
L 757.640795 -37.55625 
L 760.177159 -37.55625 
L 762.713523 -37.55625 
L 765.249886 -37.55625 
L 767.78625 -37.55625 
L 770.322614 -37.55625 
L 772.858977 -37.55625 
L 775.395341 -37.55625 
L 777.931705 -37.55625 
L 780.468068 -37.55625 
L 783.004432 -37.55625 
L 785.540795 -37.55625 
L 788.077159 -37.55625 
L 790.613523 -37.55625 
L 793.149886 -37.55625 
L 795.68625 -37.55625 
L 798.222614 -37.55625 
L 800.758977 -37.55625 
L 803.295341 -37.55625 
L 805.831705 -37.55625 
L 808.368068 -37.55625 
L 810.904432 -37.55625 
L 813.440795 -37.55625 
L 815.977159 -37.55625 
L 818.513523 -37.55625 
L 821.049886 -37.55625 
L 823.58625 -37.55625 
L 826.122614 -37.55625 
L 828.658977 -37.55625 
L 831.195341 -37.55625 
L 833.731705 -37.55625 
L 836.268068 -37.55625 
L 838.804432 -37.55625 
L 841.340795 -37.55625 
L 843.877159 -37.55625 
L 846.413523 -37.55625 
L 848.949886 -37.55625 
L 851.48625 -37.55625 
L 854.022614 -37.55625 
L 856.558977 -37.55625 
L 859.095341 -37.55625 
L 861.631705 -37.55625 
L 864.168068 -37.55625 
L 866.704432 -37.55625 
L 866.704432 -37.8578 
L 866.704432 -37.8578 
L 864.168068 -37.55625 
L 861.631705 -37.55625 
L 859.095341 -37.55625 
L 856.558977 -37.8578 
L 854.022614 -37.55625 
L 851.48625 -37.55625 
L 848.949886 -37.55625 
L 846.413523 -37.8578 
L 843.877159 -37.55625 
L 841.340795 -37.8578 
L 838.804432 -38.460899 
L 836.268068 -38.159349 
L 833.731705 -39.365547 
L 831.195341 -40.270196 
L 828.658977 -45.094989 
L 826.122614 -55.649223 
L 823.58625 -66.806557 
L 821.049886 -82.185584 
L 818.513523 -93.644467 
L 815.977159 -118.06998 
L 813.440795 -121.688575 
L 810.904432 -133.750557 
L 808.368068 -129.227314 
L 805.831705 -124.402521 
L 803.295341 -105.706449 
L 800.758977 -107.214196 
L 798.222614 -99.373908 
L 795.68625 -106.611097 
L 793.149886 -95.152214 
L 790.613523 -94.850665 
L 788.077159 -91.835169 
L 785.540795 -79.471638 
L 783.004432 -79.773187 
L 780.468068 -70.123602 
L 777.931705 -65.298809 
L 775.395341 -60.172466 
L 772.858977 -50.221331 
L 770.322614 -45.999637 
L 767.78625 -40.873295 
L 765.249886 -39.365547 
L 762.713523 -38.460899 
L 760.177159 -37.8578 
L 757.640795 -37.55625 
L 755.104432 -37.8578 
L 752.568068 -37.8578 
z
" style="stroke: #1f77b4"/>
    </defs>
    <g clip-path="url(#p0b3ae297f9)">
     <use xlink:href="#m9ddd53efc6" x="0" y="244.55625" style="fill: #1f77b4; fill-opacity: 0.75; stroke: #1f77b4"/>
    </g>
   </g>
   <g id="PolyCollection_10">
    <defs>
     <path id="mfdc95461cf" d="M 765.313451 -38.105064 
L 765.313451 -37.55625 
L 766.707073 -37.55625 
L 768.100696 -37.55625 
L 769.494319 -37.55625 
L 770.887942 -37.55625 
L 772.281565 -37.55625 
L 773.675187 -37.55625 
L 775.06881 -37.55625 
L 776.462433 -37.55625 
L 777.856056 -37.55625 
L 779.249678 -37.55625 
L 780.643301 -37.55625 
L 782.036924 -37.55625 
L 783.430547 -37.55625 
L 784.82417 -37.55625 
L 786.217792 -37.55625 
L 787.611415 -37.55625 
L 789.005038 -37.55625 
L 790.398661 -37.55625 
L 791.792283 -37.55625 
L 793.185906 -37.55625 
L 794.579529 -37.55625 
L 795.973152 -37.55625 
L 797.366775 -37.55625 
L 798.760397 -37.55625 
L 800.15402 -37.55625 
L 801.547643 -37.55625 
L 802.941266 -37.55625 
L 804.334889 -37.55625 
L 805.728511 -37.55625 
L 807.122134 -37.55625 
L 808.515757 -37.55625 
L 809.90938 -37.55625 
L 811.303002 -37.55625 
L 812.696625 -37.55625 
L 814.090248 -37.55625 
L 815.483871 -37.55625 
L 816.877494 -37.55625 
L 818.271116 -37.55625 
L 819.664739 -37.55625 
L 821.058362 -37.55625 
L 822.451985 -37.55625 
L 823.845607 -37.55625 
L 825.23923 -37.55625 
L 826.632853 -37.55625 
L 828.026476 -37.55625 
L 829.420099 -37.55625 
L 830.813721 -37.55625 
L 832.207344 -37.55625 
L 833.600967 -37.55625 
L 834.99459 -37.55625 
L 836.388212 -37.55625 
L 837.781835 -37.55625 
L 839.175458 -37.55625 
L 840.569081 -37.55625 
L 841.962704 -37.55625 
L 843.356326 -37.55625 
L 844.749949 -37.55625 
L 846.143572 -37.55625 
L 847.537195 -37.55625 
L 848.930818 -37.55625 
L 850.32444 -37.55625 
L 851.718063 -37.55625 
L 853.111686 -37.55625 
L 854.505309 -37.55625 
L 855.898931 -37.55625 
L 857.292554 -37.55625 
L 858.686177 -37.55625 
L 860.0798 -37.55625 
L 861.473423 -37.55625 
L 862.867045 -37.55625 
L 864.260668 -37.55625 
L 865.654291 -37.55625 
L 865.654291 -38.105064 
L 865.654291 -38.105064 
L 864.260668 -37.55625 
L 862.867045 -37.55625 
L 861.473423 -37.55625 
L 860.0798 -37.55625 
L 858.686177 -38.105064 
L 857.292554 -38.105064 
L 855.898931 -38.105064 
L 854.505309 -39.202691 
L 853.111686 -39.202691 
L 851.718063 -38.105064 
L 850.32444 -37.55625 
L 848.930818 -38.105064 
L 847.537195 -38.105064 
L 846.143572 -40.300319 
L 844.749949 -39.202691 
L 843.356326 -39.751505 
L 841.962704 -38.653877 
L 840.569081 -39.202691 
L 839.175458 -40.300319 
L 837.781835 -38.653877 
L 836.388212 -40.849132 
L 834.99459 -45.239642 
L 833.600967 -40.849132 
L 832.207344 -43.044387 
L 830.813721 -45.788456 
L 829.420099 -47.434897 
L 828.026476 -43.044387 
L 826.632853 -48.532525 
L 825.23923 -51.276593 
L 823.845607 -49.081338 
L 822.451985 -47.983711 
L 821.058362 -49.630152 
L 819.664739 -57.862358 
L 818.271116 -57.862358 
L 816.877494 -58.959985 
L 815.483871 -66.094564 
L 814.090248 -68.289819 
L 812.696625 -80.363721 
L 811.303002 -86.949486 
L 809.90938 -94.084064 
L 808.515757 -124.817633 
L 807.122134 -134.147467 
L 805.728511 -150.063065 
L 804.334889 -165.429849 
L 802.941266 -192.321722 
L 801.547643 -187.931212 
L 800.15402 -192.870536 
L 798.760397 -187.931212 
L 797.366775 -174.210869 
L 795.973152 -178.052565 
L 794.579529 -152.25832 
L 793.185906 -134.69628 
L 791.792283 -103.413898 
L 790.398661 -107.804407 
L 789.005038 -79.814907 
L 787.611415 -71.582701 
L 786.217792 -61.704054 
L 784.82417 -62.252868 
L 783.430547 -63.350495 
L 782.036924 -54.020662 
L 780.643301 -47.434897 
L 779.249678 -44.690828 
L 777.856056 -42.495574 
L 776.462433 -40.849132 
L 775.06881 -38.105064 
L 773.675187 -38.105064 
L 772.281565 -37.55625 
L 770.887942 -38.105064 
L 769.494319 -38.105064 
L 768.100696 -37.55625 
L 766.707073 -37.55625 
L 765.313451 -38.105064 
z
" style="stroke: #ff7f0e"/>
    </defs>
    <g clip-path="url(#p0b3ae297f9)">
     <use xlink:href="#mfdc95461cf" x="0" y="244.55625" style="fill: #ff7f0e; fill-opacity: 0.75; stroke: #ff7f0e"/>
    </g>
   </g>
   <g id="matplotlib.axis_9">
    <g id="xtick_13">
     <g id="line2d_33">
      <g>
       <use xlink:href="#mdc7cab3d6c" x="761.543398" y="207" style="stroke: #000000; stroke-width: 0.8"/>
      </g>
     </g>
     <g id="text_45">
      <!-- −5 -->
      <g transform="translate(754.172304 221.598437)scale(0.1 -0.1)">
       <use xlink:href="#DejaVuSans-2212"/>
       <use xlink:href="#DejaVuSans-35" x="83.789062"/>
      </g>
     </g>
    </g>
    <g id="xtick_14">
     <g id="line2d_34">
      <g>
       <use xlink:href="#mdc7cab3d6c" x="801.964898" y="207" style="stroke: #000000; stroke-width: 0.8"/>
      </g>
     </g>
     <g id="text_46">
      <!-- 0 -->
      <g transform="translate(798.783648 221.598437)scale(0.1 -0.1)">
       <use xlink:href="#DejaVuSans-30"/>
      </g>
     </g>
    </g>
    <g id="xtick_15">
     <g id="line2d_35">
      <g>
       <use xlink:href="#mdc7cab3d6c" x="842.386398" y="207" style="stroke: #000000; stroke-width: 0.8"/>
      </g>
     </g>
     <g id="text_47">
      <!-- 5 -->
      <g transform="translate(839.205148 221.598437)scale(0.1 -0.1)">
       <use xlink:href="#DejaVuSans-35"/>
      </g>
     </g>
    </g>
    <g id="text_48">
     <!-- Activation -->
     <g transform="translate(784.604219 235.276562)scale(0.1 -0.1)">
      <use xlink:href="#DejaVuSans-41"/>
      <use xlink:href="#DejaVuSans-63" x="66.658203"/>
      <use xlink:href="#DejaVuSans-74" x="121.638672"/>
      <use xlink:href="#DejaVuSans-69" x="160.847656"/>
      <use xlink:href="#DejaVuSans-76" x="188.630859"/>
      <use xlink:href="#DejaVuSans-61" x="247.810547"/>
      <use xlink:href="#DejaVuSans-74" x="309.089844"/>
      <use xlink:href="#DejaVuSans-69" x="348.298828"/>
      <use xlink:href="#DejaVuSans-6f" x="376.082031"/>
      <use xlink:href="#DejaVuSans-6e" x="437.263672"/>
     </g>
    </g>
   </g>
   <g id="matplotlib.axis_10">
    <g id="ytick_21">
     <g id="line2d_36">
      <g>
       <use xlink:href="#mfc30e5ef17" x="746.86125" y="207" style="stroke: #000000; stroke-width: 0.8"/>
      </g>
     </g>
     <g id="text_49">
      <!-- 0.0 -->
      <g transform="translate(723.958125 210.799219)scale(0.1 -0.1)">
       <use xlink:href="#DejaVuSans-30"/>
       <use xlink:href="#DejaVuSans-2e" x="63.623047"/>
       <use xlink:href="#DejaVuSans-30" x="95.410156"/>
      </g>
     </g>
    </g>
    <g id="ytick_22">
     <g id="line2d_37">
      <g>
       <use xlink:href="#mfc30e5ef17" x="746.86125" y="168.24857" style="stroke: #000000; stroke-width: 0.8"/>
      </g>
     </g>
     <g id="text_50">
      <!-- 0.1 -->
      <g transform="translate(723.958125 172.047789)scale(0.1 -0.1)">
       <use xlink:href="#DejaVuSans-30"/>
       <use xlink:href="#DejaVuSans-2e" x="63.623047"/>
       <use xlink:href="#DejaVuSans-31" x="95.410156"/>
      </g>
     </g>
    </g>
    <g id="ytick_23">
     <g id="line2d_38">
      <g>
       <use xlink:href="#mfc30e5ef17" x="746.86125" y="129.497141" style="stroke: #000000; stroke-width: 0.8"/>
      </g>
     </g>
     <g id="text_51">
      <!-- 0.2 -->
      <g transform="translate(723.958125 133.296359)scale(0.1 -0.1)">
       <use xlink:href="#DejaVuSans-30"/>
       <use xlink:href="#DejaVuSans-2e" x="63.623047"/>
       <use xlink:href="#DejaVuSans-32" x="95.410156"/>
      </g>
     </g>
    </g>
    <g id="ytick_24">
     <g id="line2d_39">
      <g>
       <use xlink:href="#mfc30e5ef17" x="746.86125" y="90.745711" style="stroke: #000000; stroke-width: 0.8"/>
      </g>
     </g>
     <g id="text_52">
      <!-- 0.3 -->
      <g transform="translate(723.958125 94.54493)scale(0.1 -0.1)">
       <use xlink:href="#DejaVuSans-30"/>
       <use xlink:href="#DejaVuSans-2e" x="63.623047"/>
       <use xlink:href="#DejaVuSans-33" x="95.410156"/>
      </g>
     </g>
    </g>
    <g id="ytick_25">
     <g id="line2d_40">
      <g>
       <use xlink:href="#mfc30e5ef17" x="746.86125" y="51.994281" style="stroke: #000000; stroke-width: 0.8"/>
      </g>
     </g>
     <g id="text_53">
      <!-- 0.4 -->
      <g transform="translate(723.958125 55.7935)scale(0.1 -0.1)">
       <use xlink:href="#DejaVuSans-30"/>
       <use xlink:href="#DejaVuSans-2e" x="63.623047"/>
       <use xlink:href="#DejaVuSans-34" x="95.410156"/>
      </g>
     </g>
    </g>
    <g id="text_54">
     <!-- Density -->
     <g transform="translate(717.878437 144.468594)rotate(-90)scale(0.1 -0.1)">
      <use xlink:href="#DejaVuSans-44"/>
      <use xlink:href="#DejaVuSans-65" x="77.001953"/>
      <use xlink:href="#DejaVuSans-6e" x="138.525391"/>
      <use xlink:href="#DejaVuSans-73" x="201.904297"/>
      <use xlink:href="#DejaVuSans-69" x="254.003906"/>
      <use xlink:href="#DejaVuSans-74" x="281.787109"/>
      <use xlink:href="#DejaVuSans-79" x="320.996094"/>
     </g>
    </g>
   </g>
   <g id="patch_23">
    <path d="M 746.86125 207 
L 746.86125 43.92 
" style="fill: none; stroke: #000000; stroke-width: 0.8; stroke-linejoin: miter; stroke-linecap: square"/>
   </g>
   <g id="patch_24">
    <path d="M 872.41125 207 
L 872.41125 43.92 
" style="fill: none; stroke: #000000; stroke-width: 0.8; stroke-linejoin: miter; stroke-linecap: square"/>
   </g>
   <g id="patch_25">
    <path d="M 746.86125 207 
L 872.41125 207 
" style="fill: none; stroke: #000000; stroke-width: 0.8; stroke-linejoin: miter; stroke-linecap: square"/>
   </g>
   <g id="patch_26">
    <path d="M 746.86125 43.92 
L 872.41125 43.92 
" style="fill: none; stroke: #000000; stroke-width: 0.8; stroke-linejoin: miter; stroke-linecap: square"/>
   </g>
   <g id="text_55">
    <!-- layer 4 -->
    <g transform="translate(788.858438 37.92)scale(0.12 -0.12)">
     <use xlink:href="#DejaVuSans-6c"/>
     <use xlink:href="#DejaVuSans-61" x="27.783203"/>
     <use xlink:href="#DejaVuSans-79" x="89.0625"/>
     <use xlink:href="#DejaVuSans-65" x="148.242188"/>
     <use xlink:href="#DejaVuSans-72" x="209.765625"/>
     <use xlink:href="#DejaVuSans-20" x="250.878906"/>
     <use xlink:href="#DejaVuSans-34" x="282.666016"/>
    </g>
   </g>
  </g>
  <g id="axes_6">
   <g id="patch_27">
    <path d="M 922.63125 207 
L 1048.18125 207 
L 1048.18125 43.92 
L 922.63125 43.92 
z
" style="fill: #ffffff"/>
   </g>
   <g id="PolyCollection_11">
    <defs>
     <path id="m88545643a0" d="M 933.181334 -38.121029 
L 933.181334 -37.55625 
L 934.746499 -37.55625 
L 936.311664 -37.55625 
L 937.87683 -37.55625 
L 939.441995 -37.55625 
L 941.00716 -37.55625 
L 942.572325 -37.55625 
L 944.13749 -37.55625 
L 945.702655 -37.55625 
L 947.26782 -37.55625 
L 948.832985 -37.55625 
L 950.39815 -37.55625 
L 951.963315 -37.55625 
L 953.52848 -37.55625 
L 955.093645 -37.55625 
L 956.65881 -37.55625 
L 958.223975 -37.55625 
L 959.78914 -37.55625 
L 961.354305 -37.55625 
L 962.919471 -37.55625 
L 964.484636 -37.55625 
L 966.049801 -37.55625 
L 967.614966 -37.55625 
L 969.180131 -37.55625 
L 970.745296 -37.55625 
L 972.310461 -37.55625 
L 973.875626 -37.55625 
L 975.440791 -37.55625 
L 977.005956 -37.55625 
L 978.571121 -37.55625 
L 980.136286 -37.55625 
L 981.701451 -37.55625 
L 983.266616 -37.55625 
L 984.831781 -37.55625 
L 986.396946 -37.55625 
L 987.962112 -37.55625 
L 989.527277 -37.55625 
L 991.092442 -37.55625 
L 992.657607 -37.55625 
L 994.222772 -37.55625 
L 995.787937 -37.55625 
L 997.353102 -37.55625 
L 998.918267 -37.55625 
L 1000.483432 -37.55625 
L 1002.048597 -37.55625 
L 1003.613762 -37.55625 
L 1005.178927 -37.55625 
L 1006.744092 -37.55625 
L 1008.309257 -37.55625 
L 1009.874422 -37.55625 
L 1011.439587 -37.55625 
L 1013.004752 -37.55625 
L 1014.569918 -37.55625 
L 1016.135083 -37.55625 
L 1017.700248 -37.55625 
L 1017.700248 -38.121029 
L 1017.700248 -38.121029 
L 1016.135083 -39.250588 
L 1014.569918 -38.685808 
L 1013.004752 -38.685808 
L 1011.439587 -38.121029 
L 1009.874422 -37.55625 
L 1008.309257 -38.121029 
L 1006.744092 -40.944925 
L 1005.178927 -40.944925 
L 1003.613762 -39.815367 
L 1002.048597 -41.509705 
L 1000.483432 -49.416614 
L 998.918267 -46.027938 
L 997.353102 -56.193964 
L 995.787937 -51.675731 
L 994.222772 -57.888302 
L 992.657607 -67.489549 
L 991.092442 -79.349912 
L 989.527277 -97.987627 
L 987.962112 -102.50586 
L 986.396946 -126.791367 
L 984.831781 -129.615263 
L 983.266616 -152.771211 
L 981.701451 -169.149808 
L 980.136286 -169.149808 
L 978.571121 -192.870536 
L 977.005956 -180.445393 
L 975.440791 -187.787523 
L 973.875626 -187.222744 
L 972.310461 -190.611419 
L 970.745296 -162.937237 
L 969.180131 -160.113341 
L 967.614966 -158.983782 
L 966.049801 -148.252977 
L 964.484636 -109.283211 
L 962.919471 -96.858068 
L 961.354305 -74.831679 
L 959.78914 -65.230432 
L 958.223975 -49.416614 
L 956.65881 -47.157497 
L 955.093645 -42.074484 
L 953.52848 -38.685808 
L 951.963315 -39.815367 
L 950.39815 -39.815367 
L 948.832985 -39.815367 
L 947.26782 -38.121029 
L 945.702655 -38.121029 
L 944.13749 -38.121029 
L 942.572325 -37.55625 
L 941.00716 -38.121029 
L 939.441995 -37.55625 
L 937.87683 -38.121029 
L 936.311664 -37.55625 
L 934.746499 -37.55625 
L 933.181334 -38.121029 
z
" style="stroke: #1f77b4"/>
    </defs>
    <g clip-path="url(#pa3feb01547)">
     <use xlink:href="#m88545643a0" x="0" y="244.55625" style="fill: #1f77b4; fill-opacity: 0.75; stroke: #1f77b4"/>
    </g>
   </g>
   <g id="PolyCollection_12">
    <defs>
     <path id="m5745799e1f" d="M 928.338068 -38.2378 
L 928.338068 -37.55625 
L 930.932076 -37.55625 
L 933.526085 -37.55625 
L 936.120093 -37.55625 
L 938.714101 -37.55625 
L 941.30811 -37.55625 
L 943.902118 -37.55625 
L 946.496126 -37.55625 
L 949.090134 -37.55625 
L 951.684143 -37.55625 
L 954.278151 -37.55625 
L 956.872159 -37.55625 
L 959.466167 -37.55625 
L 962.060176 -37.55625 
L 964.654184 -37.55625 
L 967.248192 -37.55625 
L 969.8422 -37.55625 
L 972.436209 -37.55625 
L 975.030217 -37.55625 
L 977.624225 -37.55625 
L 980.218233 -37.55625 
L 982.812242 -37.55625 
L 985.40625 -37.55625 
L 988.000258 -37.55625 
L 990.594267 -37.55625 
L 993.188275 -37.55625 
L 995.782283 -37.55625 
L 998.376291 -37.55625 
L 1000.9703 -37.55625 
L 1003.564308 -37.55625 
L 1006.158316 -37.55625 
L 1008.752324 -37.55625 
L 1011.346333 -37.55625 
L 1013.940341 -37.55625 
L 1016.534349 -37.55625 
L 1019.128357 -37.55625 
L 1021.722366 -37.55625 
L 1024.316374 -37.55625 
L 1026.910382 -37.55625 
L 1029.50439 -37.55625 
L 1032.098399 -37.55625 
L 1034.692407 -37.55625 
L 1037.286415 -37.55625 
L 1039.880424 -37.55625 
L 1042.474432 -37.55625 
L 1042.474432 -37.897025 
L 1042.474432 -37.897025 
L 1039.880424 -38.2378 
L 1037.286415 -39.260124 
L 1034.692407 -38.2378 
L 1032.098399 -38.919349 
L 1029.50439 -40.623223 
L 1026.910382 -41.986323 
L 1024.316374 -44.371746 
L 1021.722366 -45.053296 
L 1019.128357 -49.824144 
L 1016.534349 -49.142594 
L 1013.940341 -49.483369 
L 1011.346333 -53.231892 
L 1008.752324 -55.276541 
L 1006.158316 -57.32119 
L 1003.564308 -61.751262 
L 1000.9703 -58.343514 
L 998.376291 -64.136686 
L 995.782283 -62.432812 
L 993.188275 -68.907534 
L 990.594267 -75.04148 
L 988.000258 -79.812328 
L 985.40625 -96.169519 
L 982.812242 -97.532619 
L 980.218233 -111.845161 
L 977.624225 -103.325791 
L 975.030217 -130.928551 
L 972.436209 -135.017849 
L 969.8422 -141.492571 
L 967.248192 -145.581868 
L 964.654184 -139.788696 
L 962.060176 -119.001432 
L 959.466167 -107.074314 
L 956.872159 -86.627824 
L 954.278151 -69.248308 
L 951.684143 -60.728938 
L 949.090134 -56.980415 
L 946.496126 -47.43872 
L 943.902118 -47.779495 
L 941.30811 -43.008647 
L 938.714101 -42.667872 
L 936.120093 -39.600899 
L 933.526085 -38.578574 
L 930.932076 -37.897025 
L 928.338068 -38.2378 
z
" style="stroke: #ff7f0e"/>
    </defs>
    <g clip-path="url(#pa3feb01547)">
     <use xlink:href="#m5745799e1f" x="0" y="244.55625" style="fill: #ff7f0e; fill-opacity: 0.75; stroke: #ff7f0e"/>
    </g>
   </g>
   <g id="matplotlib.axis_11">
    <g id="xtick_16">
     <g id="line2d_41">
      <g>
       <use xlink:href="#mdc7cab3d6c" x="976.621781" y="207" style="stroke: #000000; stroke-width: 0.8"/>
      </g>
     </g>
     <g id="text_56">
      <!-- 0 -->
      <g transform="translate(973.440531 221.598437)scale(0.1 -0.1)">
       <use xlink:href="#DejaVuSans-30"/>
      </g>
     </g>
    </g>
    <g id="xtick_17">
     <g id="line2d_42">
      <g>
       <use xlink:href="#mdc7cab3d6c" x="1038.983431" y="207" style="stroke: #000000; stroke-width: 0.8"/>
      </g>
     </g>
     <g id="text_57">
      <!-- 10 -->
      <g transform="translate(1032.620931 221.598437)scale(0.1 -0.1)">
       <use xlink:href="#DejaVuSans-31"/>
       <use xlink:href="#DejaVuSans-30" x="63.623047"/>
      </g>
     </g>
    </g>
    <g id="text_58">
     <!-- Activation -->
     <g transform="translate(960.374219 235.276562)scale(0.1 -0.1)">
      <use xlink:href="#DejaVuSans-41"/>
      <use xlink:href="#DejaVuSans-63" x="66.658203"/>
      <use xlink:href="#DejaVuSans-74" x="121.638672"/>
      <use xlink:href="#DejaVuSans-69" x="160.847656"/>
      <use xlink:href="#DejaVuSans-76" x="188.630859"/>
      <use xlink:href="#DejaVuSans-61" x="247.810547"/>
      <use xlink:href="#DejaVuSans-74" x="309.089844"/>
      <use xlink:href="#DejaVuSans-69" x="348.298828"/>
      <use xlink:href="#DejaVuSans-6f" x="376.082031"/>
      <use xlink:href="#DejaVuSans-6e" x="437.263672"/>
     </g>
    </g>
   </g>
   <g id="matplotlib.axis_12">
    <g id="ytick_26">
     <g id="line2d_43">
      <g>
       <use xlink:href="#mfc30e5ef17" x="922.63125" y="207" style="stroke: #000000; stroke-width: 0.8"/>
      </g>
     </g>
     <g id="text_59">
      <!-- 0.00 -->
      <g transform="translate(893.365625 210.799219)scale(0.1 -0.1)">
       <use xlink:href="#DejaVuSans-30"/>
       <use xlink:href="#DejaVuSans-2e" x="63.623047"/>
       <use xlink:href="#DejaVuSans-30" x="95.410156"/>
       <use xlink:href="#DejaVuSans-30" x="159.033203"/>
      </g>
     </g>
    </g>
    <g id="ytick_27">
     <g id="line2d_44">
      <g>
       <use xlink:href="#mfc30e5ef17" x="922.63125" y="177.969721" style="stroke: #000000; stroke-width: 0.8"/>
      </g>
     </g>
     <g id="text_60">
      <!-- 0.05 -->
      <g transform="translate(893.365625 181.76894)scale(0.1 -0.1)">
       <use xlink:href="#DejaVuSans-30"/>
       <use xlink:href="#DejaVuSans-2e" x="63.623047"/>
       <use xlink:href="#DejaVuSans-30" x="95.410156"/>
       <use xlink:href="#DejaVuSans-35" x="159.033203"/>
      </g>
     </g>
    </g>
    <g id="ytick_28">
     <g id="line2d_45">
      <g>
       <use xlink:href="#mfc30e5ef17" x="922.63125" y="148.939443" style="stroke: #000000; stroke-width: 0.8"/>
      </g>
     </g>
     <g id="text_61">
      <!-- 0.10 -->
      <g transform="translate(893.365625 152.738661)scale(0.1 -0.1)">
       <use xlink:href="#DejaVuSans-30"/>
       <use xlink:href="#DejaVuSans-2e" x="63.623047"/>
       <use xlink:href="#DejaVuSans-31" x="95.410156"/>
       <use xlink:href="#DejaVuSans-30" x="159.033203"/>
      </g>
     </g>
    </g>
    <g id="ytick_29">
     <g id="line2d_46">
      <g>
       <use xlink:href="#mfc30e5ef17" x="922.63125" y="119.909164" style="stroke: #000000; stroke-width: 0.8"/>
      </g>
     </g>
     <g id="text_62">
      <!-- 0.15 -->
      <g transform="translate(893.365625 123.708383)scale(0.1 -0.1)">
       <use xlink:href="#DejaVuSans-30"/>
       <use xlink:href="#DejaVuSans-2e" x="63.623047"/>
       <use xlink:href="#DejaVuSans-31" x="95.410156"/>
       <use xlink:href="#DejaVuSans-35" x="159.033203"/>
      </g>
     </g>
    </g>
    <g id="ytick_30">
     <g id="line2d_47">
      <g>
       <use xlink:href="#mfc30e5ef17" x="922.63125" y="90.878885" style="stroke: #000000; stroke-width: 0.8"/>
      </g>
     </g>
     <g id="text_63">
      <!-- 0.20 -->
      <g transform="translate(893.365625 94.678104)scale(0.1 -0.1)">
       <use xlink:href="#DejaVuSans-30"/>
       <use xlink:href="#DejaVuSans-2e" x="63.623047"/>
       <use xlink:href="#DejaVuSans-32" x="95.410156"/>
       <use xlink:href="#DejaVuSans-30" x="159.033203"/>
      </g>
     </g>
    </g>
    <g id="ytick_31">
     <g id="line2d_48">
      <g>
       <use xlink:href="#mfc30e5ef17" x="922.63125" y="61.848606" style="stroke: #000000; stroke-width: 0.8"/>
      </g>
     </g>
     <g id="text_64">
      <!-- 0.25 -->
      <g transform="translate(893.365625 65.647825)scale(0.1 -0.1)">
       <use xlink:href="#DejaVuSans-30"/>
       <use xlink:href="#DejaVuSans-2e" x="63.623047"/>
       <use xlink:href="#DejaVuSans-32" x="95.410156"/>
       <use xlink:href="#DejaVuSans-35" x="159.033203"/>
      </g>
     </g>
    </g>
    <g id="text_65">
     <!-- Density -->
     <g transform="translate(887.285938 144.468594)rotate(-90)scale(0.1 -0.1)">
      <use xlink:href="#DejaVuSans-44"/>
      <use xlink:href="#DejaVuSans-65" x="77.001953"/>
      <use xlink:href="#DejaVuSans-6e" x="138.525391"/>
      <use xlink:href="#DejaVuSans-73" x="201.904297"/>
      <use xlink:href="#DejaVuSans-69" x="254.003906"/>
      <use xlink:href="#DejaVuSans-74" x="281.787109"/>
      <use xlink:href="#DejaVuSans-79" x="320.996094"/>
     </g>
    </g>
   </g>
   <g id="patch_28">
    <path d="M 922.63125 207 
L 922.63125 43.92 
" style="fill: none; stroke: #000000; stroke-width: 0.8; stroke-linejoin: miter; stroke-linecap: square"/>
   </g>
   <g id="patch_29">
    <path d="M 1048.18125 207 
L 1048.18125 43.92 
" style="fill: none; stroke: #000000; stroke-width: 0.8; stroke-linejoin: miter; stroke-linecap: square"/>
   </g>
   <g id="patch_30">
    <path d="M 922.63125 207 
L 1048.18125 207 
" style="fill: none; stroke: #000000; stroke-width: 0.8; stroke-linejoin: miter; stroke-linecap: square"/>
   </g>
   <g id="patch_31">
    <path d="M 922.63125 43.92 
L 1048.18125 43.92 
" style="fill: none; stroke: #000000; stroke-width: 0.8; stroke-linejoin: miter; stroke-linecap: square"/>
   </g>
   <g id="text_66">
    <!-- layer 5 -->
    <g transform="translate(964.628438 37.92)scale(0.12 -0.12)">
     <use xlink:href="#DejaVuSans-6c"/>
     <use xlink:href="#DejaVuSans-61" x="27.783203"/>
     <use xlink:href="#DejaVuSans-79" x="89.0625"/>
     <use xlink:href="#DejaVuSans-65" x="148.242188"/>
     <use xlink:href="#DejaVuSans-72" x="209.765625"/>
     <use xlink:href="#DejaVuSans-20" x="250.878906"/>
     <use xlink:href="#DejaVuSans-35" x="282.666016"/>
    </g>
   </g>
  </g>
  <g id="text_67">
   <!-- Activation distribution of two neurons in network layers. -->
   <g transform="translate(333.267187 17.837812)scale(0.14 -0.14)">
    <defs>
     <path id="DejaVuSans-64" d="M 2906 2969 
L 2906 4863 
L 3481 4863 
L 3481 0 
L 2906 0 
L 2906 525 
Q 2725 213 2448 61 
Q 2172 -91 1784 -91 
Q 1150 -91 751 415 
Q 353 922 353 1747 
Q 353 2572 751 3078 
Q 1150 3584 1784 3584 
Q 2172 3584 2448 3432 
Q 2725 3281 2906 2969 
z
M 947 1747 
Q 947 1113 1208 752 
Q 1469 391 1925 391 
Q 2381 391 2643 752 
Q 2906 1113 2906 1747 
Q 2906 2381 2643 2742 
Q 2381 3103 1925 3103 
Q 1469 3103 1208 2742 
Q 947 2381 947 1747 
z
" transform="scale(0.015625)"/>
     <path id="DejaVuSans-62" d="M 3116 1747 
Q 3116 2381 2855 2742 
Q 2594 3103 2138 3103 
Q 1681 3103 1420 2742 
Q 1159 2381 1159 1747 
Q 1159 1113 1420 752 
Q 1681 391 2138 391 
Q 2594 391 2855 752 
Q 3116 1113 3116 1747 
z
M 1159 2969 
Q 1341 3281 1617 3432 
Q 1894 3584 2278 3584 
Q 2916 3584 3314 3078 
Q 3713 2572 3713 1747 
Q 3713 922 3314 415 
Q 2916 -91 2278 -91 
Q 1894 -91 1617 61 
Q 1341 213 1159 525 
L 1159 0 
L 581 0 
L 581 4863 
L 1159 4863 
L 1159 2969 
z
" transform="scale(0.015625)"/>
     <path id="DejaVuSans-75" d="M 544 1381 
L 544 3500 
L 1119 3500 
L 1119 1403 
Q 1119 906 1312 657 
Q 1506 409 1894 409 
Q 2359 409 2629 706 
Q 2900 1003 2900 1516 
L 2900 3500 
L 3475 3500 
L 3475 0 
L 2900 0 
L 2900 538 
Q 2691 219 2414 64 
Q 2138 -91 1772 -91 
Q 1169 -91 856 284 
Q 544 659 544 1381 
z
M 1991 3584 
L 1991 3584 
z
" transform="scale(0.015625)"/>
     <path id="DejaVuSans-66" d="M 2375 4863 
L 2375 4384 
L 1825 4384 
Q 1516 4384 1395 4259 
Q 1275 4134 1275 3809 
L 1275 3500 
L 2222 3500 
L 2222 3053 
L 1275 3053 
L 1275 0 
L 697 0 
L 697 3053 
L 147 3053 
L 147 3500 
L 697 3500 
L 697 3744 
Q 697 4328 969 4595 
Q 1241 4863 1831 4863 
L 2375 4863 
z
" transform="scale(0.015625)"/>
     <path id="DejaVuSans-77" d="M 269 3500 
L 844 3500 
L 1563 769 
L 2278 3500 
L 2956 3500 
L 3675 769 
L 4391 3500 
L 4966 3500 
L 4050 0 
L 3372 0 
L 2619 2869 
L 1863 0 
L 1184 0 
L 269 3500 
z
" transform="scale(0.015625)"/>
     <path id="DejaVuSans-6b" d="M 581 4863 
L 1159 4863 
L 1159 1991 
L 2875 3500 
L 3609 3500 
L 1753 1863 
L 3688 0 
L 2938 0 
L 1159 1709 
L 1159 0 
L 581 0 
L 581 4863 
z
" transform="scale(0.015625)"/>
    </defs>
    <use xlink:href="#DejaVuSans-41"/>
    <use xlink:href="#DejaVuSans-63" x="66.658203"/>
    <use xlink:href="#DejaVuSans-74" x="121.638672"/>
    <use xlink:href="#DejaVuSans-69" x="160.847656"/>
    <use xlink:href="#DejaVuSans-76" x="188.630859"/>
    <use xlink:href="#DejaVuSans-61" x="247.810547"/>
    <use xlink:href="#DejaVuSans-74" x="309.089844"/>
    <use xlink:href="#DejaVuSans-69" x="348.298828"/>
    <use xlink:href="#DejaVuSans-6f" x="376.082031"/>
    <use xlink:href="#DejaVuSans-6e" x="437.263672"/>
    <use xlink:href="#DejaVuSans-20" x="500.642578"/>
    <use xlink:href="#DejaVuSans-64" x="532.429688"/>
    <use xlink:href="#DejaVuSans-69" x="595.90625"/>
    <use xlink:href="#DejaVuSans-73" x="623.689453"/>
    <use xlink:href="#DejaVuSans-74" x="675.789062"/>
    <use xlink:href="#DejaVuSans-72" x="714.998047"/>
    <use xlink:href="#DejaVuSans-69" x="756.111328"/>
    <use xlink:href="#DejaVuSans-62" x="783.894531"/>
    <use xlink:href="#DejaVuSans-75" x="847.371094"/>
    <use xlink:href="#DejaVuSans-74" x="910.75"/>
    <use xlink:href="#DejaVuSans-69" x="949.958984"/>
    <use xlink:href="#DejaVuSans-6f" x="977.742188"/>
    <use xlink:href="#DejaVuSans-6e" x="1038.923828"/>
    <use xlink:href="#DejaVuSans-20" x="1102.302734"/>
    <use xlink:href="#DejaVuSans-6f" x="1134.089844"/>
    <use xlink:href="#DejaVuSans-66" x="1195.271484"/>
    <use xlink:href="#DejaVuSans-20" x="1230.476562"/>
    <use xlink:href="#DejaVuSans-74" x="1262.263672"/>
    <use xlink:href="#DejaVuSans-77" x="1301.472656"/>
    <use xlink:href="#DejaVuSans-6f" x="1383.259766"/>
    <use xlink:href="#DejaVuSans-20" x="1444.441406"/>
    <use xlink:href="#DejaVuSans-6e" x="1476.228516"/>
    <use xlink:href="#DejaVuSans-65" x="1539.607422"/>
    <use xlink:href="#DejaVuSans-75" x="1601.130859"/>
    <use xlink:href="#DejaVuSans-72" x="1664.509766"/>
    <use xlink:href="#DejaVuSans-6f" x="1703.373047"/>
    <use xlink:href="#DejaVuSans-6e" x="1764.554688"/>
    <use xlink:href="#DejaVuSans-73" x="1827.933594"/>
    <use xlink:href="#DejaVuSans-20" x="1880.033203"/>
    <use xlink:href="#DejaVuSans-69" x="1911.820312"/>
    <use xlink:href="#DejaVuSans-6e" x="1939.603516"/>
    <use xlink:href="#DejaVuSans-20" x="2002.982422"/>
    <use xlink:href="#DejaVuSans-6e" x="2034.769531"/>
    <use xlink:href="#DejaVuSans-65" x="2098.148438"/>
    <use xlink:href="#DejaVuSans-74" x="2159.671875"/>
    <use xlink:href="#DejaVuSans-77" x="2198.880859"/>
    <use xlink:href="#DejaVuSans-6f" x="2280.667969"/>
    <use xlink:href="#DejaVuSans-72" x="2341.849609"/>
    <use xlink:href="#DejaVuSans-6b" x="2382.962891"/>
    <use xlink:href="#DejaVuSans-20" x="2440.873047"/>
    <use xlink:href="#DejaVuSans-6c" x="2472.660156"/>
    <use xlink:href="#DejaVuSans-61" x="2500.443359"/>
    <use xlink:href="#DejaVuSans-79" x="2561.722656"/>
    <use xlink:href="#DejaVuSans-65" x="2620.902344"/>
    <use xlink:href="#DejaVuSans-72" x="2682.425781"/>
    <use xlink:href="#DejaVuSans-73" x="2723.539062"/>
    <use xlink:href="#DejaVuSans-2e" x="2775.638672"/>
   </g>
  </g>
 </g>
 <defs>
  <clipPath id="peb978f196b">
   <rect x="43.78125" y="43.92" width="125.55" height="163.08"/>
  </clipPath>
  <clipPath id="p30475e051c">
   <rect x="219.55125" y="43.92" width="125.55" height="163.08"/>
  </clipPath>
  <clipPath id="p644cab3719">
   <rect x="395.32125" y="43.92" width="125.55" height="163.08"/>
  </clipPath>
  <clipPath id="p144a6e3361">
   <rect x="571.09125" y="43.92" width="125.55" height="163.08"/>
  </clipPath>
  <clipPath id="p0b3ae297f9">
   <rect x="746.86125" y="43.92" width="125.55" height="163.08"/>
  </clipPath>
  <clipPath id="pa3feb01547">
   <rect x="922.63125" y="43.92" width="125.55" height="163.08"/>
  </clipPath>
 </defs>
</svg>
