<svg class="main-svg" xmlns="http://www.w3.org/2000/svg" xmlns:xlink="http://www.w3.org/1999/xlink" width="900" height="400" style="" viewBox="0 0 900 400"><rect x="0" y="0" width="900" height="400" style="fill: rgb(255, 255, 255); fill-opacity: 1;"/><defs id="defs-a79c7e"><g class="clips"><clipPath id="clipa79c7exyplot" class="plotclip"><rect width="305.55" height="220"/></clipPath><clipPath id="clipa79c7ex2y2plot" class="plotclip"><rect width="305.54999999999995" height="220"/></clipPath><clipPath class="axesclip" id="clipa79c7ex"><rect x="80" y="0" width="305.55" height="400"/></clipPath><clipPath class="axesclip" id="clipa79c7ey"><rect x="0" y="100" width="900" height="220"/></clipPath><clipPath class="axesclip" id="clipa79c7exy"><rect x="80" y="100" width="305.55" height="220"/></clipPath><clipPath class="axesclip" id="clipa79c7ey2"><rect x="0" y="100" width="900" height="220"/></clipPath><clipPath class="axesclip" id="clipa79c7exy2"><rect x="80" y="100" width="305.55" height="220"/></clipPath><clipPath class="axesclip" id="clipa79c7ex2"><rect x="453.45000000000005" y="0" width="305.54999999999995" height="400"/></clipPath><clipPath class="axesclip" id="clipa79c7ex2y"><rect x="453.45000000000005" y="100" width="305.54999999999995" height="220"/></clipPath><clipPath class="axesclip" id="clipa79c7ex2y2"><rect x="453.45000000000005" y="100" width="305.54999999999995" height="220"/></clipPath></g><g class="gradients"><linearGradient x1="0" x2="0" y1="1" y2="0" id="ga79c7e-cb26bf4f"><stop offset="0%" stop-color="rgb(247, 251, 255)" stop-opacity="1"/><stop offset="12.5%" stop-color="rgb(222, 235, 247)" stop-opacity="1"/><stop offset="25%" stop-color="rgb(198, 219, 239)" stop-opacity="1"/><stop offset="37.5%" stop-color="rgb(158, 202, 225)" stop-opacity="1"/><stop offset="50%" stop-color="rgb(107, 174, 214)" stop-opacity="1"/><stop offset="62.5%" stop-color="rgb(66, 146, 198)" stop-opacity="1"/><stop offset="75%" stop-color="rgb(33, 113, 181)" stop-opacity="1"/><stop offset="87.5%" stop-color="rgb(8, 81, 156)" stop-opacity="1"/><stop offset="100%" stop-color="rgb(8, 48, 107)" stop-opacity="1"/></linearGradient></g><g class="patterns"/></defs><g class="bglayer"><rect class="bg" x="80" y="100" width="305.55" height="220" style="fill: rgb(229, 236, 246); fill-opacity: 1; stroke-width: 0;"/><rect class="bg" x="453.45000000000005" y="100" width="305.54999999999995" height="220" style="fill: rgb(229, 236, 246); fill-opacity: 1; stroke-width: 0;"/></g><g class="layer-below"><g class="imagelayer"/><g class="shapelayer"/></g><g class="cartesianlayer"><g class="subplot xy"><g class="layer-subplot"><g class="shapelayer"/><g class="imagelayer"/></g><g class="gridlayer"><g class="x"><path class="xgrid crisp" transform="translate(143.61,0)" d="M0,100v220" style="stroke: rgb(255, 255, 255); stroke-opacity: 1; stroke-width: 1px;"/><path class="xgrid crisp" transform="translate(232.78,0)" d="M0,100v220" style="stroke: rgb(255, 255, 255); stroke-opacity: 1; stroke-width: 1px;"/><path class="xgrid crisp" transform="translate(321.94,0)" d="M0,100v220" style="stroke: rgb(255, 255, 255); stroke-opacity: 1; stroke-width: 1px;"/></g><g class="y"><path class="ygrid crisp" transform="translate(0,280.36)" d="M80,0h305.55" style="stroke: rgb(255, 255, 255); stroke-opacity: 1; stroke-width: 1px;"/><path class="ygrid crisp" transform="translate(0,232.08)" d="M80,0h305.55" style="stroke: rgb(255, 255, 255); stroke-opacity: 1; stroke-width: 1px;"/><path class="ygrid crisp" transform="translate(0,183.8)" d="M80,0h305.55" style="stroke: rgb(255, 255, 255); stroke-opacity: 1; stroke-width: 1px;"/><path class="ygrid crisp" transform="translate(0,135.51)" d="M80,0h305.55" style="stroke: rgb(255, 255, 255); stroke-opacity: 1; stroke-width: 1px;"/></g></g><g class="zerolinelayer"/><path class="xlines-below"/><path class="ylines-below"/><g class="overlines-below"/><g class="xaxislayer-below"/><g class="yaxislayer-below"/><g class="overaxes-below"/><g class="plot" transform="translate(80,100)" clip-path="url(#clipa79c7exyplot)"><g class="scatterlayer mlayer"><g class="trace scatter trace26bf4f" style="stroke-miterlimit: 2; opacity: 1;"><g class="fills"/><g class="errorbars"/><g class="lines"/><g class="points"><path class="point" transform="translate(72.53,162.1)" d="M3,0A3,3 0 1,1 0,-3A3,3 0 0,1 3,0Z" style="opacity: 1; stroke-width: 0.5px; fill: rgb(247, 251, 255); fill-opacity: 1; stroke: rgb(128, 128, 128); stroke-opacity: 1;"/><path class="point" transform="translate(233.02,205.25)" d="M3,0A3,3 0 1,1 0,-3A3,3 0 0,1 3,0Z" style="opacity: 1; stroke-width: 0.5px; fill: rgb(240, 247, 253); fill-opacity: 1; stroke: rgb(128, 128, 128); stroke-opacity: 1;"/><path class="point" transform="translate(36.86,183.27)" d="M3,0A3,3 0 1,1 0,-3A3,3 0 0,1 3,0Z" style="opacity: 1; stroke-width: 0.5px; fill: rgb(233, 242, 251); fill-opacity: 1; stroke: rgb(128, 128, 128); stroke-opacity: 1;"/><path class="point" transform="translate(286.52,190.52)" d="M3,0A3,3 0 1,1 0,-3A3,3 0 0,1 3,0Z" style="opacity: 1; stroke-width: 0.5px; fill: rgb(226, 238, 248); fill-opacity: 1; stroke: rgb(128, 128, 128); stroke-opacity: 1;"/><path class="point" transform="translate(134.94,172.69)" d="M3,0A3,3 0 1,1 0,-3A3,3 0 0,1 3,0Z" style="opacity: 1; stroke-width: 0.5px; fill: rgb(220, 233, 246); fill-opacity: 1; stroke: rgb(128, 128, 128); stroke-opacity: 1;"/><path class="point" transform="translate(170.61,194.63)" d="M3,0A3,3 0 1,1 0,-3A3,3 0 0,1 3,0Z" style="opacity: 1; stroke-width: 0.5px; fill: rgb(213, 229, 244); fill-opacity: 1; stroke: rgb(128, 128, 128); stroke-opacity: 1;"/><path class="point" transform="translate(19.03,14.75)" d="M3,0A3,3 0 1,1 0,-3A3,3 0 0,1 3,0Z" style="opacity: 1; stroke-width: 0.5px; fill: rgb(206, 225, 242); fill-opacity: 1; stroke: rgb(128, 128, 128); stroke-opacity: 1;"/><path class="point" transform="translate(215.19,168.46)" d="M3,0A3,3 0 1,1 0,-3A3,3 0 0,1 3,0Z" style="opacity: 1; stroke-width: 0.5px; fill: rgb(200, 220, 240); fill-opacity: 1; stroke: rgb(128, 128, 128); stroke-opacity: 1;"/><path class="point" transform="translate(45.78,142.85)" d="M3,0A3,3 0 1,1 0,-3A3,3 0 0,1 3,0Z" style="opacity: 1; stroke-width: 0.5px; fill: rgb(190, 215, 236); fill-opacity: 1; stroke: rgb(128, 128, 128); stroke-opacity: 1;"/><path class="point" transform="translate(286.52,168.21)" d="M3,0A3,3 0 1,1 0,-3A3,3 0 0,1 3,0Z" style="opacity: 1; stroke-width: 0.5px; fill: rgb(179, 211, 232); fill-opacity: 1; stroke: rgb(128, 128, 128); stroke-opacity: 1;"/><path class="point" transform="translate(277.61,182.57)" d="M3,0A3,3 0 1,1 0,-3A3,3 0 0,1 3,0Z" style="opacity: 1; stroke-width: 0.5px; fill: rgb(168, 206, 228); fill-opacity: 1; stroke: rgb(128, 128, 128); stroke-opacity: 1;"/><path class="point" transform="translate(143.86,154.98)" d="M3,0A3,3 0 1,1 0,-3A3,3 0 0,1 3,0Z" style="opacity: 1; stroke-width: 0.5px; fill: rgb(156, 201, 225); fill-opacity: 1; stroke: rgb(128, 128, 128); stroke-opacity: 1;"/><path class="point" transform="translate(233.02,178.12)" d="M3,0A3,3 0 1,1 0,-3A3,3 0 0,1 3,0Z" style="opacity: 1; stroke-width: 0.5px; fill: rgb(142, 193, 222); fill-opacity: 1; stroke: rgb(128, 128, 128); stroke-opacity: 1;"/><path class="point" transform="translate(134.94,170.05)" d="M3,0A3,3 0 1,1 0,-3A3,3 0 0,1 3,0Z" style="opacity: 1; stroke-width: 0.5px; fill: rgb(128, 186, 219); fill-opacity: 1; stroke: rgb(128, 128, 128); stroke-opacity: 1;"/><path class="point" transform="translate(19.03,21.68)" d="M3,0A3,3 0 1,1 0,-3A3,3 0 0,1 3,0Z" style="opacity: 1; stroke-width: 0.5px; fill: rgb(114, 178, 216); fill-opacity: 1; stroke: rgb(128, 128, 128); stroke-opacity: 1;"/><path class="point" transform="translate(134.94,167.47)" d="M3,0A3,3 0 1,1 0,-3A3,3 0 0,1 3,0Z" style="opacity: 1; stroke-width: 0.5px; fill: rgb(101, 170, 212); fill-opacity: 1; stroke: rgb(128, 128, 128); stroke-opacity: 1;"/><path class="point" transform="translate(36.86,187.27)" d="M3,0A3,3 0 1,1 0,-3A3,3 0 0,1 3,0Z" style="opacity: 1; stroke-width: 0.5px; fill: rgb(90, 162, 207); fill-opacity: 1; stroke: rgb(128, 128, 128); stroke-opacity: 1;"/><path class="point" transform="translate(277.61,166.36)" d="M3,0A3,3 0 1,1 0,-3A3,3 0 0,1 3,0Z" style="opacity: 1; stroke-width: 0.5px; fill: rgb(79, 155, 203); fill-opacity: 1; stroke: rgb(128, 128, 128); stroke-opacity: 1;"/><path class="point" transform="translate(206.27,182.36)" d="M3,0A3,3 0 1,1 0,-3A3,3 0 0,1 3,0Z" style="opacity: 1; stroke-width: 0.5px; fill: rgb(67, 147, 199); fill-opacity: 1; stroke: rgb(128, 128, 128); stroke-opacity: 1;"/><path class="point" transform="translate(215.19,165.72)" d="M3,0A3,3 0 1,1 0,-3A3,3 0 0,1 3,0Z" style="opacity: 1; stroke-width: 0.5px; fill: rgb(58, 138, 194); fill-opacity: 1; stroke: rgb(128, 128, 128); stroke-opacity: 1;"/><path class="point" transform="translate(206.27,177.38)" d="M3,0A3,3 0 1,1 0,-3A3,3 0 0,1 3,0Z" style="opacity: 1; stroke-width: 0.5px; fill: rgb(49, 129, 189); fill-opacity: 1; stroke: rgb(128, 128, 128); stroke-opacity: 1;"/><path class="point" transform="translate(206.27,193.56)" d="M3,0A3,3 0 1,1 0,-3A3,3 0 0,1 3,0Z" style="opacity: 1; stroke-width: 0.5px; fill: rgb(40, 120, 185); fill-opacity: 1; stroke: rgb(128, 128, 128); stroke-opacity: 1;"/><path class="point" transform="translate(170.61,171.92)" d="M3,0A3,3 0 1,1 0,-3A3,3 0 0,1 3,0Z" style="opacity: 1; stroke-width: 0.5px; fill: rgb(31, 111, 179); fill-opacity: 1; stroke: rgb(128, 128, 128); stroke-opacity: 1;"/><path class="point" transform="translate(108.19,178.93)" d="M3,0A3,3 0 1,1 0,-3A3,3 0 0,1 3,0Z" style="opacity: 1; stroke-width: 0.5px; fill: rgb(24, 102, 172); fill-opacity: 1; stroke: rgb(128, 128, 128); stroke-opacity: 1;"/><path class="point" transform="translate(179.52,168.86)" d="M3,0A3,3 0 1,1 0,-3A3,3 0 0,1 3,0Z" style="opacity: 1; stroke-width: 0.5px; fill: rgb(17, 93, 165); fill-opacity: 1; stroke: rgb(128, 128, 128); stroke-opacity: 1;"/><path class="point" transform="translate(170.61,173.33)" d="M3,0A3,3 0 1,1 0,-3A3,3 0 0,1 3,0Z" style="opacity: 1; stroke-width: 0.5px; fill: rgb(11, 84, 159); fill-opacity: 1; stroke: rgb(128, 128, 128); stroke-opacity: 1;"/><path class="point" transform="translate(179.52,201.85)" d="M3,0A3,3 0 1,1 0,-3A3,3 0 0,1 3,0Z" style="opacity: 1; stroke-width: 0.5px; fill: rgb(8, 75, 148); fill-opacity: 1; stroke: rgb(128, 128, 128); stroke-opacity: 1;"/><path class="point" transform="translate(170.61,178.27)" d="M3,0A3,3 0 1,1 0,-3A3,3 0 0,1 3,0Z" style="opacity: 1; stroke-width: 0.5px; fill: rgb(8, 66, 134); fill-opacity: 1; stroke: rgb(128, 128, 128); stroke-opacity: 1;"/><path class="point" transform="translate(250.86,188.36)" d="M3,0A3,3 0 1,1 0,-3A3,3 0 0,1 3,0Z" style="opacity: 1; stroke-width: 0.5px; fill: rgb(8, 57, 121); fill-opacity: 1; stroke: rgb(128, 128, 128); stroke-opacity: 1;"/><path class="point" transform="translate(250.86,193.89)" d="M3,0A3,3 0 1,1 0,-3A3,3 0 0,1 3,0Z" style="opacity: 1; stroke-width: 0.5px; fill: rgb(8, 48, 107); fill-opacity: 1; stroke: rgb(128, 128, 128); stroke-opacity: 1;"/></g><g class="text"/></g></g></g><g class="overplot"/><path class="xlines-above crisp" d="M0,0" style="fill: none;"/><path class="ylines-above crisp" d="M0,0" style="fill: none;"/><g class="overlines-above"/><g class="xaxislayer-above"><g class="xtick"><text text-anchor="middle" x="0" y="333" transform="translate(143.61,0)" style="font-family: 'Open Sans', verdana, arial, sans-serif; font-size: 12px; fill: rgb(42, 63, 95); fill-opacity: 1; white-space: pre; opacity: 1;">10</text></g><g class="xtick"><text text-anchor="middle" x="0" y="333" style="font-family: 'Open Sans', verdana, arial, sans-serif; font-size: 12px; fill: rgb(42, 63, 95); fill-opacity: 1; white-space: pre; opacity: 1;" transform="translate(232.78,0)">20</text></g><g class="xtick"><text text-anchor="middle" x="0" y="333" style="font-family: 'Open Sans', verdana, arial, sans-serif; font-size: 12px; fill: rgb(42, 63, 95); fill-opacity: 1; white-space: pre; opacity: 1;" transform="translate(321.94,0)">30</text></g></g><g class="yaxislayer-above"><g class="ytick"><text text-anchor="end" x="79" y="4.199999999999999" transform="translate(0,280.36)" style="font-family: 'Open Sans', verdana, arial, sans-serif; font-size: 12px; fill: rgb(42, 63, 95); fill-opacity: 1; white-space: pre; opacity: 1;">69k</text></g><g class="ytick"><text text-anchor="end" x="79" y="4.199999999999999" style="font-family: 'Open Sans', verdana, arial, sans-serif; font-size: 12px; fill: rgb(42, 63, 95); fill-opacity: 1; white-space: pre; opacity: 1;" transform="translate(0,232.08)">69.5k</text></g><g class="ytick"><text text-anchor="end" x="79" y="4.199999999999999" style="font-family: 'Open Sans', verdana, arial, sans-serif; font-size: 12px; fill: rgb(42, 63, 95); fill-opacity: 1; white-space: pre; opacity: 1;" transform="translate(0,183.8)">70k</text></g><g class="ytick"><text text-anchor="end" x="79" y="4.199999999999999" style="font-family: 'Open Sans', verdana, arial, sans-serif; font-size: 12px; fill: rgb(42, 63, 95); fill-opacity: 1; white-space: pre; opacity: 1;" transform="translate(0,135.51)">70.5k</text></g></g><g class="overaxes-above"/></g><g class="subplot x2y2"><g class="layer-subplot"><g class="shapelayer"/><g class="imagelayer"/></g><g class="gridlayer"><g class="x2"><path class="x2grid crisp" transform="translate(468.50000000000006,0)" d="M0,100v220" style="stroke: rgb(255, 255, 255); stroke-opacity: 1; stroke-width: 1px;"/><path class="x2grid crisp" transform="translate(540.8900000000001,0)" d="M0,100v220" style="stroke: rgb(255, 255, 255); stroke-opacity: 1; stroke-width: 1px;"/><path class="x2grid crisp" transform="translate(613.2800000000001,0)" d="M0,100v220" style="stroke: rgb(255, 255, 255); stroke-opacity: 1; stroke-width: 1px;"/><path class="x2grid crisp" transform="translate(685.6800000000001,0)" d="M0,100v220" style="stroke: rgb(255, 255, 255); stroke-opacity: 1; stroke-width: 1px;"/></g><g class="y2"><path class="y2grid crisp" transform="translate(0,280.36)" d="M453.45000000000005,0h305.54999999999995" style="stroke: rgb(255, 255, 255); stroke-opacity: 1; stroke-width: 1px;"/><path class="y2grid crisp" transform="translate(0,232.08)" d="M453.45000000000005,0h305.54999999999995" style="stroke: rgb(255, 255, 255); stroke-opacity: 1; stroke-width: 1px;"/><path class="y2grid crisp" transform="translate(0,183.8)" d="M453.45000000000005,0h305.54999999999995" style="stroke: rgb(255, 255, 255); stroke-opacity: 1; stroke-width: 1px;"/><path class="y2grid crisp" transform="translate(0,135.51)" d="M453.45000000000005,0h305.54999999999995" style="stroke: rgb(255, 255, 255); stroke-opacity: 1; stroke-width: 1px;"/></g></g><g class="zerolinelayer"/><path class="xlines-below"/><path class="ylines-below"/><g class="overlines-below"/><g class="xaxislayer-below"/><g class="yaxislayer-below"/><g class="overaxes-below"/><g class="plot" transform="translate(453.45000000000005,100)" clip-path="url(#clipa79c7ex2y2plot)"><g class="scatterlayer mlayer"><g class="trace scatter trace021c03" style="stroke-miterlimit: 2; opacity: 1;"><g class="fills"/><g class="errorbars"/><g class="lines"/><g class="points"><path class="point" transform="translate(201.46,162.1)" d="M3,0A3,3 0 1,1 0,-3A3,3 0 0,1 3,0Z" style="opacity: 1; stroke-width: 0.5px; fill: rgb(247, 251, 255); fill-opacity: 1; stroke: rgb(128, 128, 128); stroke-opacity: 1;"/><path class="point" transform="translate(41.47,205.25)" d="M3,0A3,3 0 1,1 0,-3A3,3 0 0,1 3,0Z" style="opacity: 1; stroke-width: 0.5px; fill: rgb(240, 247, 253); fill-opacity: 1; stroke: rgb(128, 128, 128); stroke-opacity: 1;"/><path class="point" transform="translate(185.53,183.27)" d="M3,0A3,3 0 1,1 0,-3A3,3 0 0,1 3,0Z" style="opacity: 1; stroke-width: 0.5px; fill: rgb(233, 242, 251); fill-opacity: 1; stroke: rgb(128, 128, 128); stroke-opacity: 1;"/><path class="point" transform="translate(79.48,190.52)" d="M3,0A3,3 0 1,1 0,-3A3,3 0 0,1 3,0Z" style="opacity: 1; stroke-width: 0.5px; fill: rgb(226, 238, 248); fill-opacity: 1; stroke: rgb(128, 128, 128); stroke-opacity: 1;"/><path class="point" transform="translate(66.45,172.69)" d="M3,0A3,3 0 1,1 0,-3A3,3 0 0,1 3,0Z" style="opacity: 1; stroke-width: 0.5px; fill: rgb(220, 233, 246); fill-opacity: 1; stroke: rgb(128, 128, 128); stroke-opacity: 1;"/><path class="point" transform="translate(210.87,194.63)" d="M3,0A3,3 0 1,1 0,-3A3,3 0 0,1 3,0Z" style="opacity: 1; stroke-width: 0.5px; fill: rgb(213, 229, 244); fill-opacity: 1; stroke: rgb(128, 128, 128); stroke-opacity: 1;"/><path class="point" transform="translate(100.83,14.75)" d="M3,0A3,3 0 1,1 0,-3A3,3 0 0,1 3,0Z" style="opacity: 1; stroke-width: 0.5px; fill: rgb(206, 225, 242); fill-opacity: 1; stroke: rgb(128, 128, 128); stroke-opacity: 1;"/><path class="point" transform="translate(259.37,168.46)" d="M3,0A3,3 0 1,1 0,-3A3,3 0 0,1 3,0Z" style="opacity: 1; stroke-width: 0.5px; fill: rgb(200, 220, 240); fill-opacity: 1; stroke: rgb(128, 128, 128); stroke-opacity: 1;"/><path class="point" transform="translate(147.53,142.85)" d="M3,0A3,3 0 1,1 0,-3A3,3 0 0,1 3,0Z" style="opacity: 1; stroke-width: 0.5px; fill: rgb(190, 215, 236); fill-opacity: 1; stroke: rgb(128, 128, 128); stroke-opacity: 1;"/><path class="point" transform="translate(154.77,168.21)" d="M3,0A3,3 0 1,1 0,-3A3,3 0 0,1 3,0Z" style="opacity: 1; stroke-width: 0.5px; fill: rgb(179, 211, 232); fill-opacity: 1; stroke: rgb(128, 128, 128); stroke-opacity: 1;"/><path class="point" transform="translate(283.99,182.57)" d="M3,0A3,3 0 1,1 0,-3A3,3 0 0,1 3,0Z" style="opacity: 1; stroke-width: 0.5px; fill: rgb(168, 206, 228); fill-opacity: 1; stroke: rgb(128, 128, 128); stroke-opacity: 1;"/><path class="point" transform="translate(151.51,154.98)" d="M3,0A3,3 0 1,1 0,-3A3,3 0 0,1 3,0Z" style="opacity: 1; stroke-width: 0.5px; fill: rgb(156, 201, 225); fill-opacity: 1; stroke: rgb(128, 128, 128); stroke-opacity: 1;"/><path class="point" transform="translate(210.51,178.12)" d="M3,0A3,3 0 1,1 0,-3A3,3 0 0,1 3,0Z" style="opacity: 1; stroke-width: 0.5px; fill: rgb(142, 193, 222); fill-opacity: 1; stroke: rgb(128, 128, 128); stroke-opacity: 1;"/><path class="point" transform="translate(236.21,170.05)" d="M3,0A3,3 0 1,1 0,-3A3,3 0 0,1 3,0Z" style="opacity: 1; stroke-width: 0.5px; fill: rgb(128, 186, 219); fill-opacity: 1; stroke: rgb(128, 128, 128); stroke-opacity: 1;"/><path class="point" transform="translate(286.52,21.68)" d="M3,0A3,3 0 1,1 0,-3A3,3 0 0,1 3,0Z" style="opacity: 1; stroke-width: 0.5px; fill: rgb(114, 178, 216); fill-opacity: 1; stroke: rgb(128, 128, 128); stroke-opacity: 1;"/><path class="point" transform="translate(221.01,167.47)" d="M3,0A3,3 0 1,1 0,-3A3,3 0 0,1 3,0Z" style="opacity: 1; stroke-width: 0.5px; fill: rgb(101, 170, 212); fill-opacity: 1; stroke: rgb(128, 128, 128); stroke-opacity: 1;"/><path class="point" transform="translate(234.04,187.27)" d="M3,0A3,3 0 1,1 0,-3A3,3 0 0,1 3,0Z" style="opacity: 1; stroke-width: 0.5px; fill: rgb(90, 162, 207); fill-opacity: 1; stroke: rgb(128, 128, 128); stroke-opacity: 1;"/><path class="point" transform="translate(19.03,166.36)" d="M3,0A3,3 0 1,1 0,-3A3,3 0 0,1 3,0Z" style="opacity: 1; stroke-width: 0.5px; fill: rgb(79, 155, 203); fill-opacity: 1; stroke: rgb(128, 128, 128); stroke-opacity: 1;"/><path class="point" transform="translate(21.92,182.36)" d="M3,0A3,3 0 1,1 0,-3A3,3 0 0,1 3,0Z" style="opacity: 1; stroke-width: 0.5px; fill: rgb(67, 147, 199); fill-opacity: 1; stroke: rgb(128, 128, 128); stroke-opacity: 1;"/><path class="point" transform="translate(36.04,165.72)" d="M3,0A3,3 0 1,1 0,-3A3,3 0 0,1 3,0Z" style="opacity: 1; stroke-width: 0.5px; fill: rgb(58, 138, 194); fill-opacity: 1; stroke: rgb(128, 128, 128); stroke-opacity: 1;"/><path class="point" transform="translate(225.35,177.38)" d="M3,0A3,3 0 1,1 0,-3A3,3 0 0,1 3,0Z" style="opacity: 1; stroke-width: 0.5px; fill: rgb(49, 129, 189); fill-opacity: 1; stroke: rgb(128, 128, 128); stroke-opacity: 1;"/><path class="point" transform="translate(212.68,193.56)" d="M3,0A3,3 0 1,1 0,-3A3,3 0 0,1 3,0Z" style="opacity: 1; stroke-width: 0.5px; fill: rgb(40, 120, 185); fill-opacity: 1; stroke: rgb(128, 128, 128); stroke-opacity: 1;"/><path class="point" transform="translate(251.41,171.92)" d="M3,0A3,3 0 1,1 0,-3A3,3 0 0,1 3,0Z" style="opacity: 1; stroke-width: 0.5px; fill: rgb(31, 111, 179); fill-opacity: 1; stroke: rgb(128, 128, 128); stroke-opacity: 1;"/><path class="point" transform="translate(238.38,178.93)" d="M3,0A3,3 0 1,1 0,-3A3,3 0 0,1 3,0Z" style="opacity: 1; stroke-width: 0.5px; fill: rgb(24, 102, 172); fill-opacity: 1; stroke: rgb(128, 128, 128); stroke-opacity: 1;"/><path class="point" transform="translate(114.23,168.86)" d="M3,0A3,3 0 1,1 0,-3A3,3 0 0,1 3,0Z" style="opacity: 1; stroke-width: 0.5px; fill: rgb(17, 93, 165); fill-opacity: 1; stroke: rgb(128, 128, 128); stroke-opacity: 1;"/><path class="point" transform="translate(121.46,173.33)" d="M3,0A3,3 0 1,1 0,-3A3,3 0 0,1 3,0Z" style="opacity: 1; stroke-width: 0.5px; fill: rgb(11, 84, 159); fill-opacity: 1; stroke: rgb(128, 128, 128); stroke-opacity: 1;"/><path class="point" transform="translate(126.89,201.85)" d="M3,0A3,3 0 1,1 0,-3A3,3 0 0,1 3,0Z" style="opacity: 1; stroke-width: 0.5px; fill: rgb(8, 75, 148); fill-opacity: 1; stroke: rgb(128, 128, 128); stroke-opacity: 1;"/><path class="point" transform="translate(114.95,178.27)" d="M3,0A3,3 0 1,1 0,-3A3,3 0 0,1 3,0Z" style="opacity: 1; stroke-width: 0.5px; fill: rgb(8, 66, 134); fill-opacity: 1; stroke: rgb(128, 128, 128); stroke-opacity: 1;"/><path class="point" transform="translate(63.55,188.36)" d="M3,0A3,3 0 1,1 0,-3A3,3 0 0,1 3,0Z" style="opacity: 1; stroke-width: 0.5px; fill: rgb(8, 57, 121); fill-opacity: 1; stroke: rgb(128, 128, 128); stroke-opacity: 1;"/><path class="point" transform="translate(63.55,193.89)" d="M3,0A3,3 0 1,1 0,-3A3,3 0 0,1 3,0Z" style="opacity: 1; stroke-width: 0.5px; fill: rgb(8, 48, 107); fill-opacity: 1; stroke: rgb(128, 128, 128); stroke-opacity: 1;"/></g><g class="text"/></g></g></g><g class="overplot"/><path class="xlines-above crisp" d="M0,0" style="fill: none;"/><path class="ylines-above crisp" d="M0,0" style="fill: none;"/><g class="overlines-above"/><g class="xaxislayer-above"><g class="x2tick"><text text-anchor="middle" x="0" y="333" transform="translate(468.50000000000006,0)" style="font-family: 'Open Sans', verdana, arial, sans-serif; font-size: 12px; fill: rgb(42, 63, 95); fill-opacity: 1; white-space: pre; opacity: 1;">200</text></g><g class="x2tick"><text text-anchor="middle" x="0" y="333" style="font-family: 'Open Sans', verdana, arial, sans-serif; font-size: 12px; fill: rgb(42, 63, 95); fill-opacity: 1; white-space: pre; opacity: 1;" transform="translate(540.8900000000001,0)">400</text></g><g class="x2tick"><text text-anchor="middle" x="0" y="333" style="font-family: 'Open Sans', verdana, arial, sans-serif; font-size: 12px; fill: rgb(42, 63, 95); fill-opacity: 1; white-space: pre; opacity: 1;" transform="translate(613.2800000000001,0)">600</text></g><g class="x2tick"><text text-anchor="middle" x="0" y="333" style="font-family: 'Open Sans', verdana, arial, sans-serif; font-size: 12px; fill: rgb(42, 63, 95); fill-opacity: 1; white-space: pre; opacity: 1;" transform="translate(685.6800000000001,0)">800</text></g><g class="x2tick"><text text-anchor="middle" x="0" y="333" style="font-family: 'Open Sans', verdana, arial, sans-serif; font-size: 12px; fill: rgb(42, 63, 95); fill-opacity: 1; white-space: pre; opacity: 1;" transform="translate(758.07,0)">1000</text></g></g><g class="yaxislayer-above"/><g class="overaxes-above"/></g></g><g class="polarlayer"/><g class="smithlayer"/><g class="ternarylayer"/><g class="geolayer"/><g class="funnelarealayer"/><g class="pielayer"/><g class="iciclelayer"/><g class="treemaplayer"/><g class="sunburstlayer"/><g class="glimages"/><defs id="topdefs-a79c7e"><g class="clips"/></defs><g class="layer-above"><g class="imagelayer"/><g class="shapelayer"/></g><g class="infolayer"><g class="cb26bf4f colorbar" transform="translate(80,100)"><rect class="cbbg" x="679" y="0" width="129.453125" height="220" style="fill: rgb(0, 0, 0); fill-opacity: 0; stroke: rgb(68, 68, 68); stroke-opacity: 1; stroke-width: 0;"/><g class="cbfills" transform="translate(0,32)"><rect class="cbfill" x="719" y="0" width="30" height="178" style="fill: url('#ga79c7e-cb26bf4f');"/></g><g class="cblines" transform="translate(0,32)"/><g class="cbaxis crisp" transform="translate(0,-100)"><g class="ycb26bf4ftick"><text text-anchor="start" x="751.9" y="4.199999999999999" transform="translate(0,310)" style="font-family: 'Open Sans', verdana, arial, sans-serif; font-size: 12px; fill: rgb(42, 63, 95); fill-opacity: 1; white-space: pre; opacity: 1;">0</text></g><g class="ycb26bf4ftick"><text text-anchor="start" x="751.9" y="4.199999999999999" style="font-family: 'Open Sans', verdana, arial, sans-serif; font-size: 12px; fill: rgb(42, 63, 95); fill-opacity: 1; white-space: pre; opacity: 1;" transform="translate(0,248.62)">10</text></g><g class="ycb26bf4ftick"><text text-anchor="start" x="751.9" y="4.199999999999999" style="font-family: 'Open Sans', verdana, arial, sans-serif; font-size: 12px; fill: rgb(42, 63, 95); fill-opacity: 1; white-space: pre; opacity: 1;" transform="translate(0,187.24)">20</text></g></g><g class="cbtitleunshift" transform="translate(-80,-100)"><g class="cbtitle" transform=""><text class="ycb26bf4ftitle" x="799" y="123.5" text-anchor="start" style="font-family: 'Open Sans', verdana, arial, sans-serif; font-size: 14px; fill: rgb(42, 63, 95); opacity: 1; font-weight: normal; white-space: pre;">#Trials</text></g></g><rect class="cboutline" x="719" y="32" width="30" height="178" style="stroke: rgb(68, 68, 68); stroke-opacity: 1; fill: none; stroke-width: 0;"/></g><g class="g-gtitle"><text class="gtitle" x="45" y="50" text-anchor="start" dy="0em" style="font-family: 'Open Sans', verdana, arial, sans-serif; font-size: 17px; fill: rgb(42, 63, 95); opacity: 1; font-weight: normal; white-space: pre;">Slice Plot</text></g><g class="g-xtitle"><text class="xtitle" x="232.775" y="360.3" text-anchor="middle" style="font-family: 'Open Sans', verdana, arial, sans-serif; font-size: 14px; fill: rgb(42, 63, 95); opacity: 1; font-weight: normal; white-space: pre;">max_depth</text></g><g class="g-x2title"><text class="x2title" x="606.225" y="360.3" text-anchor="middle" style="font-family: 'Open Sans', verdana, arial, sans-serif; font-size: 14px; fill: rgb(42, 63, 95); opacity: 1; font-weight: normal; white-space: pre;">n_estimators</text></g><g class="g-ytitle"><text class="ytitle" transform="rotate(-90,19.840625000000003,210)" x="19.840625000000003" y="210" text-anchor="middle" style="font-family: 'Open Sans', verdana, arial, sans-serif; font-size: 14px; fill: rgb(42, 63, 95); opacity: 1; font-weight: normal; white-space: pre;">Objective Value</text></g><g class="g-y2title"/></g></svg>