<?xml version="1.0" encoding="utf-8" standalone="no"?>
<!DOCTYPE svg PUBLIC "-//W3C//DTD SVG 1.1//EN"
  "http://www.w3.org/Graphics/SVG/1.1/DTD/svg11.dtd">
<svg xmlns:xlink="http://www.w3.org/1999/xlink" width="380.482812pt" height="359.840871pt" viewBox="0 0 380.482812 359.840871" xmlns="http://www.w3.org/2000/svg" version="1.1">
 <metadata>
  <rdf:RDF xmlns:dc="http://purl.org/dc/elements/1.1/" xmlns:cc="http://creativecommons.org/ns#" xmlns:rdf="http://www.w3.org/1999/02/22-rdf-syntax-ns#">
   <cc:Work>
    <dc:type rdf:resource="http://purl.org/dc/dcmitype/StillImage"/>
    <dc:date>2022-04-12T04:26:08.789602</dc:date>
    <dc:format>image/svg+xml</dc:format>
    <dc:creator>
     <cc:Agent>
      <dc:title>Matplotlib v3.5.1, https://matplotlib.org/</dc:title>
     </cc:Agent>
    </dc:creator>
   </cc:Work>
  </rdf:RDF>
 </metadata>
 <defs>
  <style type="text/css">*{stroke-linejoin: round; stroke-linecap: butt}</style>
 </defs>
 <g id="figure_1">
  <g id="patch_1">
   <path d="M -0 359.840871 
L 380.482812 359.840871 
L 380.482812 0 
L -0 0 
L -0 359.840871 
z
" style="fill: none"/>
  </g>
  <g id="axes_1">
   <g id="patch_2">
    <path d="M 38.482813 335.962746 
L 373.282813 335.962746 
L 373.282813 9.802746 
L 38.482813 9.802746 
z
" style="fill: #ffffff"/>
   </g>
   <g id="PathCollection_1">
    <defs>
     <path id="m228bc996cd" d="M 0 3.162278 
C 0.838646 3.162278 1.643056 2.82908 2.236068 2.236068 
C 2.82908 1.643056 3.162278 0.838646 3.162278 0 
C 3.162278 -0.838646 2.82908 -1.643056 2.236068 -2.236068 
C 1.643056 -2.82908 0.838646 -3.162278 0 -3.162278 
C -0.838646 -3.162278 -1.643056 -2.82908 -2.236068 -2.236068 
C -2.82908 -1.643056 -3.162278 -0.838646 -3.162278 0 
C -3.162278 0.838646 -2.82908 1.643056 -2.236068 2.236068 
C -1.643056 2.82908 -0.838646 3.162278 0 3.162278 
z
" style="stroke: #000000"/>
    </defs>
    <g clip-path="url(#p9f1e53858d)">
     <use xlink:href="#m228bc996cd" x="302.36228" y="271.776597" style="fill: #1f77b4; stroke: #000000"/>
     <use xlink:href="#m228bc996cd" x="137.742402" y="121.12137" style="fill: #1f77b4; stroke: #000000"/>
     <use xlink:href="#m228bc996cd" x="238.201575" y="240.496706" style="fill: #1f77b4; stroke: #000000"/>
     <use xlink:href="#m228bc996cd" x="80.606581" y="65.294657" style="fill: #1f77b4; stroke: #000000"/>
     <use xlink:href="#m228bc996cd" x="134.014516" y="119.892559" style="fill: #1f77b4; stroke: #000000"/>
     <use xlink:href="#m228bc996cd" x="297.253338" y="256.785257" style="fill: #1f77b4; stroke: #000000"/>
     <use xlink:href="#m228bc996cd" x="116.439608" y="89.189265" style="fill: #1f77b4; stroke: #000000"/>
     <use xlink:href="#m228bc996cd" x="79.338125" y="74.822126" style="fill: #1f77b4; stroke: #000000"/>
     <use xlink:href="#m228bc996cd" x="106.613979" y="50.596895" style="fill: #1f77b4; stroke: #000000"/>
     <use xlink:href="#m228bc996cd" x="87.31645" y="64.364185" style="fill: #1f77b4; stroke: #000000"/>
     <use xlink:href="#m228bc996cd" x="92.038961" y="102.633592" style="fill: #1f77b4; stroke: #000000"/>
     <use xlink:href="#m228bc996cd" x="318.343072" y="272.809072" style="fill: #1f77b4; stroke: #000000"/>
     <use xlink:href="#m228bc996cd" x="284.806546" y="212.047019" style="fill: #1f77b4; stroke: #000000"/>
     <use xlink:href="#m228bc996cd" x="288.090106" y="284.884971" style="fill: #1f77b4; stroke: #000000"/>
     <use xlink:href="#m228bc996cd" x="102.812949" y="85.945666" style="fill: #1f77b4; stroke: #000000"/>
     <use xlink:href="#m228bc996cd" x="302.040919" y="261.69355" style="fill: #1f77b4; stroke: #000000"/>
     <use xlink:href="#m228bc996cd" x="285.811576" y="252.98327" style="fill: #1f77b4; stroke: #000000"/>
     <use xlink:href="#m228bc996cd" x="78.837889" y="56.853354" style="fill: #1f77b4; stroke: #000000"/>
     <use xlink:href="#m228bc996cd" x="274.963673" y="266.100162" style="fill: #1f77b4; stroke: #000000"/>
     <use xlink:href="#m228bc996cd" x="274.642584" y="253.006756" style="fill: #1f77b4; stroke: #000000"/>
     <use xlink:href="#m228bc996cd" x="320.853532" y="273.992703" style="fill: #1f77b4; stroke: #000000"/>
     <use xlink:href="#m228bc996cd" x="113.320905" y="79.406503" style="fill: #1f77b4; stroke: #000000"/>
     <use xlink:href="#m228bc996cd" x="143.936332" y="54.226944" style="fill: #1f77b4; stroke: #000000"/>
     <use xlink:href="#m228bc996cd" x="117.992416" y="83.578882" style="fill: #1f77b4; stroke: #000000"/>
     <use xlink:href="#m228bc996cd" x="283.825397" y="321.137291" style="fill: #1f77b4; stroke: #000000"/>
     <use xlink:href="#m228bc996cd" x="286.532671" y="287.608141" style="fill: #1f77b4; stroke: #000000"/>
     <use xlink:href="#m228bc996cd" x="269.78781" y="247.064453" style="fill: #1f77b4; stroke: #000000"/>
     <use xlink:href="#m228bc996cd" x="184.64338" y="96.000511" style="fill: #1f77b4; stroke: #000000"/>
     <use xlink:href="#m228bc996cd" x="313.41829" y="287.379491" style="fill: #1f77b4; stroke: #000000"/>
     <use xlink:href="#m228bc996cd" x="278.611813" y="317.551402" style="fill: #1f77b4; stroke: #000000"/>
     <use xlink:href="#m228bc996cd" x="134.86815" y="62.144793" style="fill: #1f77b4; stroke: #000000"/>
     <use xlink:href="#m228bc996cd" x="115.14814" y="47.50165" style="fill: #1f77b4; stroke: #000000"/>
     <use xlink:href="#m228bc996cd" x="313.584045" y="248.911585" style="fill: #1f77b4; stroke: #000000"/>
     <use xlink:href="#m228bc996cd" x="101.081138" y="77.931429" style="fill: #1f77b4; stroke: #000000"/>
     <use xlink:href="#m228bc996cd" x="267.914316" y="284.352384" style="fill: #1f77b4; stroke: #000000"/>
     <use xlink:href="#m228bc996cd" x="128.900539" y="94.970588" style="fill: #1f77b4; stroke: #000000"/>
     <use xlink:href="#m228bc996cd" x="147.860137" y="142.24749" style="fill: #1f77b4; stroke: #000000"/>
     <use xlink:href="#m228bc996cd" x="106.493741" y="108.602067" style="fill: #1f77b4; stroke: #000000"/>
     <use xlink:href="#m228bc996cd" x="169.093798" y="92.028019" style="fill: #1f77b4; stroke: #000000"/>
     <use xlink:href="#m228bc996cd" x="106.157656" y="66.463755" style="fill: #1f77b4; stroke: #000000"/>
     <use xlink:href="#m228bc996cd" x="113.111107" y="104.840812" style="fill: #1f77b4; stroke: #000000"/>
     <use xlink:href="#m228bc996cd" x="135.2353" y="94.61326" style="fill: #1f77b4; stroke: #000000"/>
     <use xlink:href="#m228bc996cd" x="53.700994" y="24.6282" style="fill: #1f77b4; stroke: #000000"/>
     <use xlink:href="#m228bc996cd" x="358.064631" y="258.126613" style="fill: #1f77b4; stroke: #000000"/>
     <use xlink:href="#m228bc996cd" x="106.012703" y="104.660033" style="fill: #1f77b4; stroke: #000000"/>
     <use xlink:href="#m228bc996cd" x="139.63627" y="140.849582" style="fill: #1f77b4; stroke: #000000"/>
     <use xlink:href="#m228bc996cd" x="266.06477" y="269.099792" style="fill: #1f77b4; stroke: #000000"/>
     <use xlink:href="#m228bc996cd" x="124.807171" y="137.273559" style="fill: #1f77b4; stroke: #000000"/>
     <use xlink:href="#m228bc996cd" x="322.215272" y="241.034236" style="fill: #1f77b4; stroke: #000000"/>
     <use xlink:href="#m228bc996cd" x="162.031152" y="111.083855" style="fill: #1f77b4; stroke: #000000"/>
    </g>
   </g>
   <g id="PathCollection_2">
    <defs>
     <path id="m504e64ba08" d="M 0 3.162278 
C 0.838646 3.162278 1.643056 2.82908 2.236068 2.236068 
C 2.82908 1.643056 3.162278 0.838646 3.162278 0 
C 3.162278 -0.838646 2.82908 -1.643056 2.236068 -2.236068 
C 1.643056 -2.82908 0.838646 -3.162278 0 -3.162278 
C -0.838646 -3.162278 -1.643056 -2.82908 -2.236068 -2.236068 
C -2.82908 -1.643056 -3.162278 -0.838646 -3.162278 0 
C -3.162278 0.838646 -2.82908 1.643056 -2.236068 2.236068 
C -1.643056 2.82908 -0.838646 3.162278 0 3.162278 
z
" style="stroke: #000000"/>
    </defs>
    <g clip-path="url(#p9f1e53858d)">
     <use xlink:href="#m504e64ba08" x="341.836404" y="71.309913" style="fill: #ff7f0e; stroke: #000000"/>
     <use xlink:href="#m504e64ba08" x="113.74769" y="266.370345" style="fill: #ff7f0e; stroke: #000000"/>
     <use xlink:href="#m504e64ba08" x="291.134672" y="124.2715" style="fill: #ff7f0e; stroke: #000000"/>
     <use xlink:href="#m504e64ba08" x="112.401325" y="268.75574" style="fill: #ff7f0e; stroke: #000000"/>
     <use xlink:href="#m504e64ba08" x="93.809565" y="288.42965" style="fill: #ff7f0e; stroke: #000000"/>
     <use xlink:href="#m504e64ba08" x="288.259492" y="81.656144" style="fill: #ff7f0e; stroke: #000000"/>
     <use xlink:href="#m504e64ba08" x="300.33593" y="86.631282" style="fill: #ff7f0e; stroke: #000000"/>
     <use xlink:href="#m504e64ba08" x="107.790944" y="247.702337" style="fill: #ff7f0e; stroke: #000000"/>
     <use xlink:href="#m504e64ba08" x="122.34169" y="217.17096" style="fill: #ff7f0e; stroke: #000000"/>
     <use xlink:href="#m504e64ba08" x="99.420375" y="268.637854" style="fill: #ff7f0e; stroke: #000000"/>
     <use xlink:href="#m504e64ba08" x="261.07923" y="92.766179" style="fill: #ff7f0e; stroke: #000000"/>
     <use xlink:href="#m504e64ba08" x="258.077847" y="107.295375" style="fill: #ff7f0e; stroke: #000000"/>
     <use xlink:href="#m504e64ba08" x="270.969977" y="55.546082" style="fill: #ff7f0e; stroke: #000000"/>
     <use xlink:href="#m504e64ba08" x="323.2188" y="95.484133" style="fill: #ff7f0e; stroke: #000000"/>
     <use xlink:href="#m504e64ba08" x="119.576306" y="239.165958" style="fill: #ff7f0e; stroke: #000000"/>
     <use xlink:href="#m504e64ba08" x="256.508011" y="85.370661" style="fill: #ff7f0e; stroke: #000000"/>
     <use xlink:href="#m504e64ba08" x="298.108329" y="85.838086" style="fill: #ff7f0e; stroke: #000000"/>
     <use xlink:href="#m504e64ba08" x="262.094934" y="87.119576" style="fill: #ff7f0e; stroke: #000000"/>
     <use xlink:href="#m504e64ba08" x="113.061678" y="296.28865" style="fill: #ff7f0e; stroke: #000000"/>
     <use xlink:href="#m504e64ba08" x="130.499719" y="247.490711" style="fill: #ff7f0e; stroke: #000000"/>
     <use xlink:href="#m504e64ba08" x="109.507334" y="244.168296" style="fill: #ff7f0e; stroke: #000000"/>
     <use xlink:href="#m504e64ba08" x="147.927159" y="309.542536" style="fill: #ff7f0e; stroke: #000000"/>
     <use xlink:href="#m504e64ba08" x="131.704984" y="268.590822" style="fill: #ff7f0e; stroke: #000000"/>
     <use xlink:href="#m504e64ba08" x="331.435247" y="121.874127" style="fill: #ff7f0e; stroke: #000000"/>
     <use xlink:href="#m504e64ba08" x="104.161848" y="259.138507" style="fill: #ff7f0e; stroke: #000000"/>
     <use xlink:href="#m504e64ba08" x="303.199528" y="96.317743" style="fill: #ff7f0e; stroke: #000000"/>
     <use xlink:href="#m504e64ba08" x="291.097239" y="44.496268" style="fill: #ff7f0e; stroke: #000000"/>
     <use xlink:href="#m504e64ba08" x="127.777" y="263.528599" style="fill: #ff7f0e; stroke: #000000"/>
     <use xlink:href="#m504e64ba08" x="153.131671" y="265.538872" style="fill: #ff7f0e; stroke: #000000"/>
     <use xlink:href="#m504e64ba08" x="257.85531" y="73.230201" style="fill: #ff7f0e; stroke: #000000"/>
     <use xlink:href="#m504e64ba08" x="72.272879" y="277.713647" style="fill: #ff7f0e; stroke: #000000"/>
     <use xlink:href="#m504e64ba08" x="320.37596" y="110.274098" style="fill: #ff7f0e; stroke: #000000"/>
     <use xlink:href="#m504e64ba08" x="114.632835" y="255.076375" style="fill: #ff7f0e; stroke: #000000"/>
     <use xlink:href="#m504e64ba08" x="138.212554" y="265.574262" style="fill: #ff7f0e; stroke: #000000"/>
     <use xlink:href="#m504e64ba08" x="251.494477" y="94.357001" style="fill: #ff7f0e; stroke: #000000"/>
     <use xlink:href="#m504e64ba08" x="104.978365" y="292.344016" style="fill: #ff7f0e; stroke: #000000"/>
     <use xlink:href="#m504e64ba08" x="248.652359" y="80.253822" style="fill: #ff7f0e; stroke: #000000"/>
     <use xlink:href="#m504e64ba08" x="103.955422" y="282.590857" style="fill: #ff7f0e; stroke: #000000"/>
     <use xlink:href="#m504e64ba08" x="329.946519" y="128.062406" style="fill: #ff7f0e; stroke: #000000"/>
     <use xlink:href="#m504e64ba08" x="294.74401" y="118.107712" style="fill: #ff7f0e; stroke: #000000"/>
     <use xlink:href="#m504e64ba08" x="258.651976" y="43.690243" style="fill: #ff7f0e; stroke: #000000"/>
     <use xlink:href="#m504e64ba08" x="273.89085" y="98.399452" style="fill: #ff7f0e; stroke: #000000"/>
     <use xlink:href="#m504e64ba08" x="260.739533" y="76.827104" style="fill: #ff7f0e; stroke: #000000"/>
     <use xlink:href="#m504e64ba08" x="272.074804" y="132.600085" style="fill: #ff7f0e; stroke: #000000"/>
     <use xlink:href="#m504e64ba08" x="154.140641" y="258.677275" style="fill: #ff7f0e; stroke: #000000"/>
     <use xlink:href="#m504e64ba08" x="287.917246" y="93.227636" style="fill: #ff7f0e; stroke: #000000"/>
     <use xlink:href="#m504e64ba08" x="108.470357" y="286.427411" style="fill: #ff7f0e; stroke: #000000"/>
     <use xlink:href="#m504e64ba08" x="269.803967" y="80.596309" style="fill: #ff7f0e; stroke: #000000"/>
     <use xlink:href="#m504e64ba08" x="117.455375" y="234.098359" style="fill: #ff7f0e; stroke: #000000"/>
     <use xlink:href="#m504e64ba08" x="263.118723" y="83.393776" style="fill: #ff7f0e; stroke: #000000"/>
    </g>
   </g>
   <g id="matplotlib.axis_1">
    <g id="xtick_1">
     <g id="line2d_1">
      <defs>
       <path id="m761e251d1f" d="M 0 0 
L 0 3.5 
" style="stroke: #000000; stroke-width: 0.8"/>
      </defs>
      <g>
       <use xlink:href="#m761e251d1f" x="67.780824" y="335.962746" style="stroke: #000000; stroke-width: 0.8"/>
      </g>
     </g>
     <g id="text_1">
      <!-- −1.5 -->
      <g transform="translate(55.639418 350.561183)scale(0.1 -0.1)">
       <defs>
        <path id="DejaVuSans-2212" d="M 678 2272 
L 4684 2272 
L 4684 1741 
L 678 1741 
L 678 2272 
z
" transform="scale(0.015625)"/>
        <path id="DejaVuSans-31" d="M 794 531 
L 1825 531 
L 1825 4091 
L 703 3866 
L 703 4441 
L 1819 4666 
L 2450 4666 
L 2450 531 
L 3481 531 
L 3481 0 
L 794 0 
L 794 531 
z
" transform="scale(0.015625)"/>
        <path id="DejaVuSans-2e" d="M 684 794 
L 1344 794 
L 1344 0 
L 684 0 
L 684 794 
z
" transform="scale(0.015625)"/>
        <path id="DejaVuSans-35" d="M 691 4666 
L 3169 4666 
L 3169 4134 
L 1269 4134 
L 1269 2991 
Q 1406 3038 1543 3061 
Q 1681 3084 1819 3084 
Q 2600 3084 3056 2656 
Q 3513 2228 3513 1497 
Q 3513 744 3044 326 
Q 2575 -91 1722 -91 
Q 1428 -91 1123 -41 
Q 819 9 494 109 
L 494 744 
Q 775 591 1075 516 
Q 1375 441 1709 441 
Q 2250 441 2565 725 
Q 2881 1009 2881 1497 
Q 2881 1984 2565 2268 
Q 2250 2553 1709 2553 
Q 1456 2553 1204 2497 
Q 953 2441 691 2322 
L 691 4666 
z
" transform="scale(0.015625)"/>
       </defs>
       <use xlink:href="#DejaVuSans-2212"/>
       <use xlink:href="#DejaVuSans-31" x="83.789062"/>
       <use xlink:href="#DejaVuSans-2e" x="147.412109"/>
       <use xlink:href="#DejaVuSans-35" x="179.199219"/>
      </g>
     </g>
    </g>
    <g id="xtick_2">
     <g id="line2d_2">
      <g>
       <use xlink:href="#m761e251d1f" x="111.610625" y="335.962746" style="stroke: #000000; stroke-width: 0.8"/>
      </g>
     </g>
     <g id="text_2">
      <!-- −1.0 -->
      <g transform="translate(99.469219 350.561183)scale(0.1 -0.1)">
       <defs>
        <path id="DejaVuSans-30" d="M 2034 4250 
Q 1547 4250 1301 3770 
Q 1056 3291 1056 2328 
Q 1056 1369 1301 889 
Q 1547 409 2034 409 
Q 2525 409 2770 889 
Q 3016 1369 3016 2328 
Q 3016 3291 2770 3770 
Q 2525 4250 2034 4250 
z
M 2034 4750 
Q 2819 4750 3233 4129 
Q 3647 3509 3647 2328 
Q 3647 1150 3233 529 
Q 2819 -91 2034 -91 
Q 1250 -91 836 529 
Q 422 1150 422 2328 
Q 422 3509 836 4129 
Q 1250 4750 2034 4750 
z
" transform="scale(0.015625)"/>
       </defs>
       <use xlink:href="#DejaVuSans-2212"/>
       <use xlink:href="#DejaVuSans-31" x="83.789062"/>
       <use xlink:href="#DejaVuSans-2e" x="147.412109"/>
       <use xlink:href="#DejaVuSans-30" x="179.199219"/>
      </g>
     </g>
    </g>
    <g id="xtick_3">
     <g id="line2d_3">
      <g>
       <use xlink:href="#m761e251d1f" x="155.440425" y="335.962746" style="stroke: #000000; stroke-width: 0.8"/>
      </g>
     </g>
     <g id="text_3">
      <!-- −0.5 -->
      <g transform="translate(143.299019 350.561183)scale(0.1 -0.1)">
       <use xlink:href="#DejaVuSans-2212"/>
       <use xlink:href="#DejaVuSans-30" x="83.789062"/>
       <use xlink:href="#DejaVuSans-2e" x="147.412109"/>
       <use xlink:href="#DejaVuSans-35" x="179.199219"/>
      </g>
     </g>
    </g>
    <g id="xtick_4">
     <g id="line2d_4">
      <g>
       <use xlink:href="#m761e251d1f" x="199.270226" y="335.962746" style="stroke: #000000; stroke-width: 0.8"/>
      </g>
     </g>
     <g id="text_4">
      <!-- 0.0 -->
      <g transform="translate(191.318663 350.561183)scale(0.1 -0.1)">
       <use xlink:href="#DejaVuSans-30"/>
       <use xlink:href="#DejaVuSans-2e" x="63.623047"/>
       <use xlink:href="#DejaVuSans-30" x="95.410156"/>
      </g>
     </g>
    </g>
    <g id="xtick_5">
     <g id="line2d_5">
      <g>
       <use xlink:href="#m761e251d1f" x="243.100026" y="335.962746" style="stroke: #000000; stroke-width: 0.8"/>
      </g>
     </g>
     <g id="text_5">
      <!-- 0.5 -->
      <g transform="translate(235.148464 350.561183)scale(0.1 -0.1)">
       <use xlink:href="#DejaVuSans-30"/>
       <use xlink:href="#DejaVuSans-2e" x="63.623047"/>
       <use xlink:href="#DejaVuSans-35" x="95.410156"/>
      </g>
     </g>
    </g>
    <g id="xtick_6">
     <g id="line2d_6">
      <g>
       <use xlink:href="#m761e251d1f" x="286.929826" y="335.962746" style="stroke: #000000; stroke-width: 0.8"/>
      </g>
     </g>
     <g id="text_6">
      <!-- 1.0 -->
      <g transform="translate(278.978264 350.561183)scale(0.1 -0.1)">
       <use xlink:href="#DejaVuSans-31"/>
       <use xlink:href="#DejaVuSans-2e" x="63.623047"/>
       <use xlink:href="#DejaVuSans-30" x="95.410156"/>
      </g>
     </g>
    </g>
    <g id="xtick_7">
     <g id="line2d_7">
      <g>
       <use xlink:href="#m761e251d1f" x="330.759627" y="335.962746" style="stroke: #000000; stroke-width: 0.8"/>
      </g>
     </g>
     <g id="text_7">
      <!-- 1.5 -->
      <g transform="translate(322.808064 350.561183)scale(0.1 -0.1)">
       <use xlink:href="#DejaVuSans-31"/>
       <use xlink:href="#DejaVuSans-2e" x="63.623047"/>
       <use xlink:href="#DejaVuSans-35" x="95.410156"/>
      </g>
     </g>
    </g>
   </g>
   <g id="matplotlib.axis_2">
    <g id="ytick_1">
     <g id="line2d_8">
      <defs>
       <path id="mabfedbcaf7" d="M 0 0 
L -3.5 0 
" style="stroke: #000000; stroke-width: 0.8"/>
      </defs>
      <g>
       <use xlink:href="#mabfedbcaf7" x="38.482813" y="301.934502" style="stroke: #000000; stroke-width: 0.8"/>
      </g>
     </g>
     <g id="text_8">
      <!-- −1.5 -->
      <g transform="translate(7.2 305.733721)scale(0.1 -0.1)">
       <use xlink:href="#DejaVuSans-2212"/>
       <use xlink:href="#DejaVuSans-31" x="83.789062"/>
       <use xlink:href="#DejaVuSans-2e" x="147.412109"/>
       <use xlink:href="#DejaVuSans-35" x="179.199219"/>
      </g>
     </g>
    </g>
    <g id="ytick_2">
     <g id="line2d_9">
      <g>
       <use xlink:href="#mabfedbcaf7" x="38.482813" y="260.372319" style="stroke: #000000; stroke-width: 0.8"/>
      </g>
     </g>
     <g id="text_9">
      <!-- −1.0 -->
      <g transform="translate(7.2 264.171538)scale(0.1 -0.1)">
       <use xlink:href="#DejaVuSans-2212"/>
       <use xlink:href="#DejaVuSans-31" x="83.789062"/>
       <use xlink:href="#DejaVuSans-2e" x="147.412109"/>
       <use xlink:href="#DejaVuSans-30" x="179.199219"/>
      </g>
     </g>
    </g>
    <g id="ytick_3">
     <g id="line2d_10">
      <g>
       <use xlink:href="#mabfedbcaf7" x="38.482813" y="218.810135" style="stroke: #000000; stroke-width: 0.8"/>
      </g>
     </g>
     <g id="text_10">
      <!-- −0.5 -->
      <g transform="translate(7.2 222.609354)scale(0.1 -0.1)">
       <use xlink:href="#DejaVuSans-2212"/>
       <use xlink:href="#DejaVuSans-30" x="83.789062"/>
       <use xlink:href="#DejaVuSans-2e" x="147.412109"/>
       <use xlink:href="#DejaVuSans-35" x="179.199219"/>
      </g>
     </g>
    </g>
    <g id="ytick_4">
     <g id="line2d_11">
      <g>
       <use xlink:href="#mabfedbcaf7" x="38.482813" y="177.247952" style="stroke: #000000; stroke-width: 0.8"/>
      </g>
     </g>
     <g id="text_11">
      <!-- 0.0 -->
      <g transform="translate(15.579688 181.047171)scale(0.1 -0.1)">
       <use xlink:href="#DejaVuSans-30"/>
       <use xlink:href="#DejaVuSans-2e" x="63.623047"/>
       <use xlink:href="#DejaVuSans-30" x="95.410156"/>
      </g>
     </g>
    </g>
    <g id="ytick_5">
     <g id="line2d_12">
      <g>
       <use xlink:href="#mabfedbcaf7" x="38.482813" y="135.685769" style="stroke: #000000; stroke-width: 0.8"/>
      </g>
     </g>
     <g id="text_12">
      <!-- 0.5 -->
      <g transform="translate(15.579688 139.484988)scale(0.1 -0.1)">
       <use xlink:href="#DejaVuSans-30"/>
       <use xlink:href="#DejaVuSans-2e" x="63.623047"/>
       <use xlink:href="#DejaVuSans-35" x="95.410156"/>
      </g>
     </g>
    </g>
    <g id="ytick_6">
     <g id="line2d_13">
      <g>
       <use xlink:href="#mabfedbcaf7" x="38.482813" y="94.123585" style="stroke: #000000; stroke-width: 0.8"/>
      </g>
     </g>
     <g id="text_13">
      <!-- 1.0 -->
      <g transform="translate(15.579688 97.922804)scale(0.1 -0.1)">
       <use xlink:href="#DejaVuSans-31"/>
       <use xlink:href="#DejaVuSans-2e" x="63.623047"/>
       <use xlink:href="#DejaVuSans-30" x="95.410156"/>
      </g>
     </g>
    </g>
    <g id="ytick_7">
     <g id="line2d_14">
      <g>
       <use xlink:href="#mabfedbcaf7" x="38.482813" y="52.561402" style="stroke: #000000; stroke-width: 0.8"/>
      </g>
     </g>
     <g id="text_14">
      <!-- 1.5 -->
      <g transform="translate(15.579688 56.360621)scale(0.1 -0.1)">
       <use xlink:href="#DejaVuSans-31"/>
       <use xlink:href="#DejaVuSans-2e" x="63.623047"/>
       <use xlink:href="#DejaVuSans-35" x="95.410156"/>
      </g>
     </g>
    </g>
    <g id="ytick_8">
     <g id="line2d_15">
      <g>
       <use xlink:href="#mabfedbcaf7" x="38.482813" y="10.999219" style="stroke: #000000; stroke-width: 0.8"/>
      </g>
     </g>
     <g id="text_15">
      <!-- 2.0 -->
      <g transform="translate(15.579688 14.798437)scale(0.1 -0.1)">
       <defs>
        <path id="DejaVuSans-32" d="M 1228 531 
L 3431 531 
L 3431 0 
L 469 0 
L 469 531 
Q 828 903 1448 1529 
Q 2069 2156 2228 2338 
Q 2531 2678 2651 2914 
Q 2772 3150 2772 3378 
Q 2772 3750 2511 3984 
Q 2250 4219 1831 4219 
Q 1534 4219 1204 4116 
Q 875 4013 500 3803 
L 500 4441 
Q 881 4594 1212 4672 
Q 1544 4750 1819 4750 
Q 2544 4750 2975 4387 
Q 3406 4025 3406 3419 
Q 3406 3131 3298 2873 
Q 3191 2616 2906 2266 
Q 2828 2175 2409 1742 
Q 1991 1309 1228 531 
z
" transform="scale(0.015625)"/>
       </defs>
       <use xlink:href="#DejaVuSans-32"/>
       <use xlink:href="#DejaVuSans-2e" x="63.623047"/>
       <use xlink:href="#DejaVuSans-30" x="95.410156"/>
      </g>
     </g>
    </g>
   </g>
   <g id="patch_3">
    <path d="M 38.482813 335.962746 
L 38.482813 9.802746 
" style="fill: none; stroke: #000000; stroke-width: 0.8; stroke-linejoin: miter; stroke-linecap: square"/>
   </g>
   <g id="patch_4">
    <path d="M 373.282813 335.962746 
L 373.282813 9.802746 
" style="fill: none; stroke: #000000; stroke-width: 0.8; stroke-linejoin: miter; stroke-linecap: square"/>
   </g>
   <g id="patch_5">
    <path d="M 38.482812 335.962746 
L 373.282812 335.962746 
" style="fill: none; stroke: #000000; stroke-width: 0.8; stroke-linejoin: miter; stroke-linecap: square"/>
   </g>
   <g id="patch_6">
    <path d="M 38.482812 9.802746 
L 373.282812 9.802746 
" style="fill: none; stroke: #000000; stroke-width: 0.8; stroke-linejoin: miter; stroke-linecap: square"/>
   </g>
   <g id="legend_1">
    <g id="patch_7">
     <path d="M 327.920313 47.158996 
L 366.282813 47.158996 
Q 368.282813 47.158996 368.282813 45.158996 
L 368.282813 16.802746 
Q 368.282813 14.802746 366.282813 14.802746 
L 327.920313 14.802746 
Q 325.920313 14.802746 325.920313 16.802746 
L 325.920313 45.158996 
Q 325.920313 47.158996 327.920313 47.158996 
z
" style="fill: #ffffff; opacity: 0.8; stroke: #cccccc; stroke-linejoin: miter"/>
    </g>
    <g id="PathCollection_3">
     <g>
      <use xlink:href="#m228bc996cd" x="339.920313" y="23.776183" style="fill: #1f77b4; stroke: #000000"/>
     </g>
    </g>
    <g id="text_16">
     <!-- 0 -->
     <g transform="translate(357.920313 26.401183)scale(0.1 -0.1)">
      <use xlink:href="#DejaVuSans-30"/>
     </g>
    </g>
    <g id="PathCollection_4">
     <g>
      <use xlink:href="#m504e64ba08" x="339.920313" y="38.454308" style="fill: #ff7f0e; stroke: #000000"/>
     </g>
    </g>
    <g id="text_17">
     <!-- 1 -->
     <g transform="translate(357.920313 41.079308)scale(0.1 -0.1)">
      <use xlink:href="#DejaVuSans-31"/>
     </g>
    </g>
   </g>
  </g>
 </g>
 <defs>
  <clipPath id="p9f1e53858d">
   <rect x="38.482813" y="9.802746" width="334.8" height="326.16"/>
  </clipPath>
 </defs>
</svg>
