<?xml version="1.0" encoding="utf-8" standalone="no"?>
<!DOCTYPE svg PUBLIC "-//W3C//DTD SVG 1.1//EN"
  "http://www.w3.org/Graphics/SVG/1.1/DTD/svg11.dtd">
<svg xmlns:xlink="http://www.w3.org/1999/xlink" width="388.965625pt" height="248.518125pt" viewBox="0 0 388.965625 248.518125" xmlns="http://www.w3.org/2000/svg" version="1.1">
 <metadata>
  <rdf:RDF xmlns:dc="http://purl.org/dc/elements/1.1/" xmlns:cc="http://creativecommons.org/ns#" xmlns:rdf="http://www.w3.org/1999/02/22-rdf-syntax-ns#">
   <cc:Work>
    <dc:type rdf:resource="http://purl.org/dc/dcmitype/StillImage"/>
    <dc:date>2022-04-12T04:27:01.393118</dc:date>
    <dc:format>image/svg+xml</dc:format>
    <dc:creator>
     <cc:Agent>
      <dc:title>Matplotlib v3.5.1, https://matplotlib.org/</dc:title>
     </cc:Agent>
    </dc:creator>
   </cc:Work>
  </rdf:RDF>
 </metadata>
 <defs>
  <style type="text/css">*{stroke-linejoin: round; stroke-linecap: butt}</style>
 </defs>
 <g id="figure_1">
  <g id="patch_1">
   <path d="M 0 248.518125 
L 388.965625 248.518125 
L 388.965625 0 
L 0 0 
L 0 248.518125 
z
" style="fill: none"/>
  </g>
  <g id="axes_1">
   <g id="patch_2">
    <path d="M 46.965625 224.64 
L 381.765625 224.64 
L 381.765625 7.2 
L 46.965625 7.2 
z
" style="fill: #ffffff"/>
   </g>
   <g id="patch_3">
    <path d="M 62.183807 224.64 
L 67.256534 224.64 
L 67.256534 27.574562 
L 62.183807 27.574562 
z
" clip-path="url(#pdb20c3f48e)" style="fill: #1f77b4; fill-opacity: 0.5; stroke: #000000; stroke-width: 0.507273; stroke-linejoin: miter"/>
   </g>
   <g id="patch_4">
    <path d="M 67.256534 224.64 
L 72.329261 224.64 
L 72.329261 32.5847 
L 67.256534 32.5847 
z
" clip-path="url(#pdb20c3f48e)" style="fill: #1f77b4; fill-opacity: 0.5; stroke: #000000; stroke-width: 0.507273; stroke-linejoin: miter"/>
   </g>
   <g id="patch_5">
    <path d="M 72.329261 224.64 
L 77.401989 224.64 
L 77.401989 42.604977 
L 72.329261 42.604977 
z
" clip-path="url(#pdb20c3f48e)" style="fill: #1f77b4; fill-opacity: 0.5; stroke: #000000; stroke-width: 0.507273; stroke-linejoin: miter"/>
   </g>
   <g id="patch_6">
    <path d="M 77.401989 224.64 
L 82.474716 224.64 
L 82.474716 17.554286 
L 77.401989 17.554286 
z
" clip-path="url(#pdb20c3f48e)" style="fill: #1f77b4; fill-opacity: 0.5; stroke: #000000; stroke-width: 0.507273; stroke-linejoin: miter"/>
   </g>
   <g id="patch_7">
    <path d="M 82.474716 224.64 
L 87.547443 224.64 
L 87.547443 53.460276 
L 82.474716 53.460276 
z
" clip-path="url(#pdb20c3f48e)" style="fill: #1f77b4; fill-opacity: 0.5; stroke: #000000; stroke-width: 0.507273; stroke-linejoin: miter"/>
   </g>
   <g id="patch_8">
    <path d="M 87.547443 224.64 
L 92.62017 224.64 
L 92.62017 44.275023 
L 87.547443 44.275023 
z
" clip-path="url(#pdb20c3f48e)" style="fill: #1f77b4; fill-opacity: 0.5; stroke: #000000; stroke-width: 0.507273; stroke-linejoin: miter"/>
   </g>
   <g id="patch_9">
    <path d="M 92.62017 224.64 
L 97.692898 224.64 
L 97.692898 45.110046 
L 92.62017 45.110046 
z
" clip-path="url(#pdb20c3f48e)" style="fill: #1f77b4; fill-opacity: 0.5; stroke: #000000; stroke-width: 0.507273; stroke-linejoin: miter"/>
   </g>
   <g id="patch_10">
    <path d="M 97.692898 224.64 
L 102.765625 224.64 
L 102.765625 58.470415 
L 97.692898 58.470415 
z
" clip-path="url(#pdb20c3f48e)" style="fill: #1f77b4; fill-opacity: 0.5; stroke: #000000; stroke-width: 0.507273; stroke-linejoin: miter"/>
   </g>
   <g id="patch_11">
    <path d="M 102.765625 224.64 
L 107.838352 224.64 
L 107.838352 60.975484 
L 102.765625 60.975484 
z
" clip-path="url(#pdb20c3f48e)" style="fill: #1f77b4; fill-opacity: 0.5; stroke: #000000; stroke-width: 0.507273; stroke-linejoin: miter"/>
   </g>
   <g id="patch_12">
    <path d="M 107.838352 224.64 
L 112.91108 224.64 
L 112.91108 65.985622 
L 107.838352 65.985622 
z
" clip-path="url(#pdb20c3f48e)" style="fill: #1f77b4; fill-opacity: 0.5; stroke: #000000; stroke-width: 0.507273; stroke-linejoin: miter"/>
   </g>
   <g id="patch_13">
    <path d="M 112.91108 224.64 
L 117.983807 224.64 
L 117.983807 57.635392 
L 112.91108 57.635392 
z
" clip-path="url(#pdb20c3f48e)" style="fill: #1f77b4; fill-opacity: 0.5; stroke: #000000; stroke-width: 0.507273; stroke-linejoin: miter"/>
   </g>
   <g id="patch_14">
    <path d="M 117.983807 224.64 
L 123.056534 224.64 
L 123.056534 57.635392 
L 117.983807 57.635392 
z
" clip-path="url(#pdb20c3f48e)" style="fill: #1f77b4; fill-opacity: 0.5; stroke: #000000; stroke-width: 0.507273; stroke-linejoin: miter"/>
   </g>
   <g id="patch_15">
    <path d="M 123.056534 224.64 
L 128.129261 224.64 
L 128.129261 82.686083 
L 123.056534 82.686083 
z
" clip-path="url(#pdb20c3f48e)" style="fill: #1f77b4; fill-opacity: 0.5; stroke: #000000; stroke-width: 0.507273; stroke-linejoin: miter"/>
   </g>
   <g id="patch_16">
    <path d="M 128.129261 224.64 
L 133.201989 224.64 
L 133.201989 89.366267 
L 128.129261 89.366267 
z
" clip-path="url(#pdb20c3f48e)" style="fill: #1f77b4; fill-opacity: 0.5; stroke: #000000; stroke-width: 0.507273; stroke-linejoin: miter"/>
   </g>
   <g id="patch_17">
    <path d="M 133.201989 224.64 
L 138.274716 224.64 
L 138.274716 96.881475 
L 133.201989 96.881475 
z
" clip-path="url(#pdb20c3f48e)" style="fill: #1f77b4; fill-opacity: 0.5; stroke: #000000; stroke-width: 0.507273; stroke-linejoin: miter"/>
   </g>
   <g id="patch_18">
    <path d="M 138.274716 224.64 
L 143.347443 224.64 
L 143.347443 74.335853 
L 138.274716 74.335853 
z
" clip-path="url(#pdb20c3f48e)" style="fill: #1f77b4; fill-opacity: 0.5; stroke: #000000; stroke-width: 0.507273; stroke-linejoin: miter"/>
   </g>
   <g id="patch_19">
    <path d="M 143.347443 224.64 
L 148.42017 224.64 
L 148.42017 120.26212 
L 143.347443 120.26212 
z
" clip-path="url(#pdb20c3f48e)" style="fill: #1f77b4; fill-opacity: 0.5; stroke: #000000; stroke-width: 0.507273; stroke-linejoin: miter"/>
   </g>
   <g id="patch_20">
    <path d="M 148.42017 224.64 
L 153.492898 224.64 
L 153.492898 88.531244 
L 148.42017 88.531244 
z
" clip-path="url(#pdb20c3f48e)" style="fill: #1f77b4; fill-opacity: 0.5; stroke: #000000; stroke-width: 0.507273; stroke-linejoin: miter"/>
   </g>
   <g id="patch_21">
    <path d="M 153.492898 224.64 
L 158.565625 224.64 
L 158.565625 116.087005 
L 153.492898 116.087005 
z
" clip-path="url(#pdb20c3f48e)" style="fill: #1f77b4; fill-opacity: 0.5; stroke: #000000; stroke-width: 0.507273; stroke-linejoin: miter"/>
   </g>
   <g id="patch_22">
    <path d="M 158.565625 224.64 
L 163.638352 224.64 
L 163.638352 120.26212 
L 158.565625 120.26212 
z
" clip-path="url(#pdb20c3f48e)" style="fill: #1f77b4; fill-opacity: 0.5; stroke: #000000; stroke-width: 0.507273; stroke-linejoin: miter"/>
   </g>
   <g id="patch_23">
    <path d="M 163.638352 224.64 
L 168.71108 224.64 
L 168.71108 115.251982 
L 163.638352 115.251982 
z
" clip-path="url(#pdb20c3f48e)" style="fill: #1f77b4; fill-opacity: 0.5; stroke: #000000; stroke-width: 0.507273; stroke-linejoin: miter"/>
   </g>
   <g id="patch_24">
    <path d="M 168.71108 224.64 
L 173.783807 224.64 
L 173.783807 136.962581 
L 168.71108 136.962581 
z
" clip-path="url(#pdb20c3f48e)" style="fill: #1f77b4; fill-opacity: 0.5; stroke: #000000; stroke-width: 0.507273; stroke-linejoin: miter"/>
   </g>
   <g id="patch_25">
    <path d="M 173.783807 224.64 
L 178.856534 224.64 
L 178.856534 153.663041 
L 173.783807 153.663041 
z
" clip-path="url(#pdb20c3f48e)" style="fill: #1f77b4; fill-opacity: 0.5; stroke: #000000; stroke-width: 0.507273; stroke-linejoin: miter"/>
   </g>
   <g id="patch_26">
    <path d="M 178.856534 224.64 
L 183.929261 224.64 
L 183.929261 139.46765 
L 178.856534 139.46765 
z
" clip-path="url(#pdb20c3f48e)" style="fill: #1f77b4; fill-opacity: 0.5; stroke: #000000; stroke-width: 0.507273; stroke-linejoin: miter"/>
   </g>
   <g id="patch_27">
    <path d="M 183.929261 224.64 
L 189.001989 224.64 
L 189.001989 159.508203 
L 183.929261 159.508203 
z
" clip-path="url(#pdb20c3f48e)" style="fill: #1f77b4; fill-opacity: 0.5; stroke: #000000; stroke-width: 0.507273; stroke-linejoin: miter"/>
   </g>
   <g id="patch_28">
    <path d="M 189.001989 224.64 
L 194.074716 224.64 
L 194.074716 167.02341 
L 189.001989 167.02341 
z
" clip-path="url(#pdb20c3f48e)" style="fill: #1f77b4; fill-opacity: 0.5; stroke: #000000; stroke-width: 0.507273; stroke-linejoin: miter"/>
   </g>
   <g id="patch_29">
    <path d="M 194.074716 224.64 
L 199.147443 224.64 
L 199.147443 171.198525 
L 194.074716 171.198525 
z
" clip-path="url(#pdb20c3f48e)" style="fill: #1f77b4; fill-opacity: 0.5; stroke: #000000; stroke-width: 0.507273; stroke-linejoin: miter"/>
   </g>
   <g id="patch_30">
    <path d="M 199.147443 224.64 
L 204.22017 224.64 
L 204.22017 175.373641 
L 199.147443 175.373641 
z
" clip-path="url(#pdb20c3f48e)" style="fill: #1f77b4; fill-opacity: 0.5; stroke: #000000; stroke-width: 0.507273; stroke-linejoin: miter"/>
   </g>
   <g id="patch_31">
    <path d="M 204.22017 224.64 
L 209.292898 224.64 
L 209.292898 178.713733 
L 204.22017 178.713733 
z
" clip-path="url(#pdb20c3f48e)" style="fill: #1f77b4; fill-opacity: 0.5; stroke: #000000; stroke-width: 0.507273; stroke-linejoin: miter"/>
   </g>
   <g id="patch_32">
    <path d="M 209.292898 224.64 
L 214.365625 224.64 
L 214.365625 182.888848 
L 209.292898 182.888848 
z
" clip-path="url(#pdb20c3f48e)" style="fill: #1f77b4; fill-opacity: 0.5; stroke: #000000; stroke-width: 0.507273; stroke-linejoin: miter"/>
   </g>
   <g id="patch_33">
    <path d="M 214.365625 224.64 
L 219.438352 224.64 
L 219.438352 177.87871 
L 214.365625 177.87871 
z
" clip-path="url(#pdb20c3f48e)" style="fill: #1f77b4; fill-opacity: 0.5; stroke: #000000; stroke-width: 0.507273; stroke-linejoin: miter"/>
   </g>
   <g id="patch_34">
    <path d="M 219.438352 224.64 
L 224.51108 224.64 
L 224.51108 188.734009 
L 219.438352 188.734009 
z
" clip-path="url(#pdb20c3f48e)" style="fill: #1f77b4; fill-opacity: 0.5; stroke: #000000; stroke-width: 0.507273; stroke-linejoin: miter"/>
   </g>
   <g id="patch_35">
    <path d="M 224.51108 224.64 
L 229.583807 224.64 
L 229.583807 191.239078 
L 224.51108 191.239078 
z
" clip-path="url(#pdb20c3f48e)" style="fill: #1f77b4; fill-opacity: 0.5; stroke: #000000; stroke-width: 0.507273; stroke-linejoin: miter"/>
   </g>
   <g id="patch_36">
    <path d="M 229.583807 224.64 
L 234.656534 224.64 
L 234.656534 197.919263 
L 229.583807 197.919263 
z
" clip-path="url(#pdb20c3f48e)" style="fill: #1f77b4; fill-opacity: 0.5; stroke: #000000; stroke-width: 0.507273; stroke-linejoin: miter"/>
   </g>
   <g id="patch_37">
    <path d="M 234.656534 224.64 
L 239.729261 224.64 
L 239.729261 201.259355 
L 234.656534 201.259355 
z
" clip-path="url(#pdb20c3f48e)" style="fill: #1f77b4; fill-opacity: 0.5; stroke: #000000; stroke-width: 0.507273; stroke-linejoin: miter"/>
   </g>
   <g id="patch_38">
    <path d="M 239.729261 224.64 
L 244.801989 224.64 
L 244.801989 200.424332 
L 239.729261 200.424332 
z
" clip-path="url(#pdb20c3f48e)" style="fill: #1f77b4; fill-opacity: 0.5; stroke: #000000; stroke-width: 0.507273; stroke-linejoin: miter"/>
   </g>
   <g id="patch_39">
    <path d="M 244.801989 224.64 
L 249.874716 224.64 
L 249.874716 203.764424 
L 244.801989 203.764424 
z
" clip-path="url(#pdb20c3f48e)" style="fill: #1f77b4; fill-opacity: 0.5; stroke: #000000; stroke-width: 0.507273; stroke-linejoin: miter"/>
   </g>
   <g id="patch_40">
    <path d="M 249.874716 224.64 
L 254.947443 224.64 
L 254.947443 211.279631 
L 249.874716 211.279631 
z
" clip-path="url(#pdb20c3f48e)" style="fill: #1f77b4; fill-opacity: 0.5; stroke: #000000; stroke-width: 0.507273; stroke-linejoin: miter"/>
   </g>
   <g id="patch_41">
    <path d="M 254.947443 224.64 
L 260.02017 224.64 
L 260.02017 204.599447 
L 254.947443 204.599447 
z
" clip-path="url(#pdb20c3f48e)" style="fill: #1f77b4; fill-opacity: 0.5; stroke: #000000; stroke-width: 0.507273; stroke-linejoin: miter"/>
   </g>
   <g id="patch_42">
    <path d="M 260.02017 224.64 
L 265.092898 224.64 
L 265.092898 215.454747 
L 260.02017 215.454747 
z
" clip-path="url(#pdb20c3f48e)" style="fill: #1f77b4; fill-opacity: 0.5; stroke: #000000; stroke-width: 0.507273; stroke-linejoin: miter"/>
   </g>
   <g id="patch_43">
    <path d="M 265.092898 224.64 
L 270.165625 224.64 
L 270.165625 212.114654 
L 265.092898 212.114654 
z
" clip-path="url(#pdb20c3f48e)" style="fill: #1f77b4; fill-opacity: 0.5; stroke: #000000; stroke-width: 0.507273; stroke-linejoin: miter"/>
   </g>
   <g id="patch_44">
    <path d="M 270.165625 224.64 
L 275.238352 224.64 
L 275.238352 215.454747 
L 270.165625 215.454747 
z
" clip-path="url(#pdb20c3f48e)" style="fill: #1f77b4; fill-opacity: 0.5; stroke: #000000; stroke-width: 0.507273; stroke-linejoin: miter"/>
   </g>
   <g id="patch_45">
    <path d="M 275.238352 224.64 
L 280.31108 224.64 
L 280.31108 214.619724 
L 275.238352 214.619724 
z
" clip-path="url(#pdb20c3f48e)" style="fill: #1f77b4; fill-opacity: 0.5; stroke: #000000; stroke-width: 0.507273; stroke-linejoin: miter"/>
   </g>
   <g id="patch_46">
    <path d="M 280.31108 224.64 
L 285.383807 224.64 
L 285.383807 218.794839 
L 280.31108 218.794839 
z
" clip-path="url(#pdb20c3f48e)" style="fill: #1f77b4; fill-opacity: 0.5; stroke: #000000; stroke-width: 0.507273; stroke-linejoin: miter"/>
   </g>
   <g id="patch_47">
    <path d="M 285.383807 224.64 
L 290.456534 224.64 
L 290.456534 215.454747 
L 285.383807 215.454747 
z
" clip-path="url(#pdb20c3f48e)" style="fill: #1f77b4; fill-opacity: 0.5; stroke: #000000; stroke-width: 0.507273; stroke-linejoin: miter"/>
   </g>
   <g id="patch_48">
    <path d="M 290.456534 224.64 
L 295.529261 224.64 
L 295.529261 218.794839 
L 290.456534 218.794839 
z
" clip-path="url(#pdb20c3f48e)" style="fill: #1f77b4; fill-opacity: 0.5; stroke: #000000; stroke-width: 0.507273; stroke-linejoin: miter"/>
   </g>
   <g id="patch_49">
    <path d="M 295.529261 224.64 
L 300.601989 224.64 
L 300.601989 216.28977 
L 295.529261 216.28977 
z
" clip-path="url(#pdb20c3f48e)" style="fill: #1f77b4; fill-opacity: 0.5; stroke: #000000; stroke-width: 0.507273; stroke-linejoin: miter"/>
   </g>
   <g id="patch_50">
    <path d="M 300.601989 224.64 
L 305.674716 224.64 
L 305.674716 218.794839 
L 300.601989 218.794839 
z
" clip-path="url(#pdb20c3f48e)" style="fill: #1f77b4; fill-opacity: 0.5; stroke: #000000; stroke-width: 0.507273; stroke-linejoin: miter"/>
   </g>
   <g id="patch_51">
    <path d="M 305.674716 224.64 
L 310.747443 224.64 
L 310.747443 221.299908 
L 305.674716 221.299908 
z
" clip-path="url(#pdb20c3f48e)" style="fill: #1f77b4; fill-opacity: 0.5; stroke: #000000; stroke-width: 0.507273; stroke-linejoin: miter"/>
   </g>
   <g id="patch_52">
    <path d="M 310.747443 224.64 
L 315.82017 224.64 
L 315.82017 221.299908 
L 310.747443 221.299908 
z
" clip-path="url(#pdb20c3f48e)" style="fill: #1f77b4; fill-opacity: 0.5; stroke: #000000; stroke-width: 0.507273; stroke-linejoin: miter"/>
   </g>
   <g id="patch_53">
    <path d="M 315.82017 224.64 
L 320.892898 224.64 
L 320.892898 221.299908 
L 315.82017 221.299908 
z
" clip-path="url(#pdb20c3f48e)" style="fill: #1f77b4; fill-opacity: 0.5; stroke: #000000; stroke-width: 0.507273; stroke-linejoin: miter"/>
   </g>
   <g id="patch_54">
    <path d="M 320.892898 224.64 
L 325.965625 224.64 
L 325.965625 222.969954 
L 320.892898 222.969954 
z
" clip-path="url(#pdb20c3f48e)" style="fill: #1f77b4; fill-opacity: 0.5; stroke: #000000; stroke-width: 0.507273; stroke-linejoin: miter"/>
   </g>
   <g id="patch_55">
    <path d="M 325.965625 224.64 
L 331.038352 224.64 
L 331.038352 222.969954 
L 325.965625 222.969954 
z
" clip-path="url(#pdb20c3f48e)" style="fill: #1f77b4; fill-opacity: 0.5; stroke: #000000; stroke-width: 0.507273; stroke-linejoin: miter"/>
   </g>
   <g id="patch_56">
    <path d="M 331.038352 224.64 
L 336.11108 224.64 
L 336.11108 222.134931 
L 331.038352 222.134931 
z
" clip-path="url(#pdb20c3f48e)" style="fill: #1f77b4; fill-opacity: 0.5; stroke: #000000; stroke-width: 0.507273; stroke-linejoin: miter"/>
   </g>
   <g id="patch_57">
    <path d="M 336.11108 224.64 
L 341.183807 224.64 
L 341.183807 224.64 
L 336.11108 224.64 
z
" clip-path="url(#pdb20c3f48e)" style="fill: #1f77b4; fill-opacity: 0.5; stroke: #000000; stroke-width: 0.507273; stroke-linejoin: miter"/>
   </g>
   <g id="patch_58">
    <path d="M 341.183807 224.64 
L 346.256534 224.64 
L 346.256534 222.134931 
L 341.183807 222.134931 
z
" clip-path="url(#pdb20c3f48e)" style="fill: #1f77b4; fill-opacity: 0.5; stroke: #000000; stroke-width: 0.507273; stroke-linejoin: miter"/>
   </g>
   <g id="patch_59">
    <path d="M 346.256534 224.64 
L 351.329261 224.64 
L 351.329261 224.64 
L 346.256534 224.64 
z
" clip-path="url(#pdb20c3f48e)" style="fill: #1f77b4; fill-opacity: 0.5; stroke: #000000; stroke-width: 0.507273; stroke-linejoin: miter"/>
   </g>
   <g id="patch_60">
    <path d="M 351.329261 224.64 
L 356.401989 224.64 
L 356.401989 222.969954 
L 351.329261 222.969954 
z
" clip-path="url(#pdb20c3f48e)" style="fill: #1f77b4; fill-opacity: 0.5; stroke: #000000; stroke-width: 0.507273; stroke-linejoin: miter"/>
   </g>
   <g id="patch_61">
    <path d="M 356.401989 224.64 
L 361.474716 224.64 
L 361.474716 223.804977 
L 356.401989 223.804977 
z
" clip-path="url(#pdb20c3f48e)" style="fill: #1f77b4; fill-opacity: 0.5; stroke: #000000; stroke-width: 0.507273; stroke-linejoin: miter"/>
   </g>
   <g id="patch_62">
    <path d="M 361.474716 224.64 
L 366.547443 224.64 
L 366.547443 222.969954 
L 361.474716 222.969954 
z
" clip-path="url(#pdb20c3f48e)" style="fill: #1f77b4; fill-opacity: 0.5; stroke: #000000; stroke-width: 0.507273; stroke-linejoin: miter"/>
   </g>
   <g id="matplotlib.axis_1">
    <g id="xtick_1">
     <g id="line2d_1">
      <defs>
       <path id="me3c67e18c2" d="M 0 0 
L 0 3.5 
" style="stroke: #000000; stroke-width: 0.8"/>
      </defs>
      <g>
       <use xlink:href="#me3c67e18c2" x="62.130344" y="224.64" style="stroke: #000000; stroke-width: 0.8"/>
      </g>
     </g>
     <g id="text_1">
      <!-- 0.000 -->
      <g transform="translate(47.816281 239.238437)scale(0.1 -0.1)">
       <defs>
        <path id="DejaVuSans-30" d="M 2034 4250 
Q 1547 4250 1301 3770 
Q 1056 3291 1056 2328 
Q 1056 1369 1301 889 
Q 1547 409 2034 409 
Q 2525 409 2770 889 
Q 3016 1369 3016 2328 
Q 3016 3291 2770 3770 
Q 2525 4250 2034 4250 
z
M 2034 4750 
Q 2819 4750 3233 4129 
Q 3647 3509 3647 2328 
Q 3647 1150 3233 529 
Q 2819 -91 2034 -91 
Q 1250 -91 836 529 
Q 422 1150 422 2328 
Q 422 3509 836 4129 
Q 1250 4750 2034 4750 
z
" transform="scale(0.015625)"/>
        <path id="DejaVuSans-2e" d="M 684 794 
L 1344 794 
L 1344 0 
L 684 0 
L 684 794 
z
" transform="scale(0.015625)"/>
       </defs>
       <use xlink:href="#DejaVuSans-30"/>
       <use xlink:href="#DejaVuSans-2e" x="63.623047"/>
       <use xlink:href="#DejaVuSans-30" x="95.410156"/>
       <use xlink:href="#DejaVuSans-30" x="159.033203"/>
       <use xlink:href="#DejaVuSans-30" x="222.65625"/>
      </g>
     </g>
    </g>
    <g id="xtick_2">
     <g id="line2d_2">
      <g>
       <use xlink:href="#me3c67e18c2" x="136.111043" y="224.64" style="stroke: #000000; stroke-width: 0.8"/>
      </g>
     </g>
     <g id="text_2">
      <!-- 0.005 -->
      <g transform="translate(121.79698 239.238437)scale(0.1 -0.1)">
       <defs>
        <path id="DejaVuSans-35" d="M 691 4666 
L 3169 4666 
L 3169 4134 
L 1269 4134 
L 1269 2991 
Q 1406 3038 1543 3061 
Q 1681 3084 1819 3084 
Q 2600 3084 3056 2656 
Q 3513 2228 3513 1497 
Q 3513 744 3044 326 
Q 2575 -91 1722 -91 
Q 1428 -91 1123 -41 
Q 819 9 494 109 
L 494 744 
Q 775 591 1075 516 
Q 1375 441 1709 441 
Q 2250 441 2565 725 
Q 2881 1009 2881 1497 
Q 2881 1984 2565 2268 
Q 2250 2553 1709 2553 
Q 1456 2553 1204 2497 
Q 953 2441 691 2322 
L 691 4666 
z
" transform="scale(0.015625)"/>
       </defs>
       <use xlink:href="#DejaVuSans-30"/>
       <use xlink:href="#DejaVuSans-2e" x="63.623047"/>
       <use xlink:href="#DejaVuSans-30" x="95.410156"/>
       <use xlink:href="#DejaVuSans-30" x="159.033203"/>
       <use xlink:href="#DejaVuSans-35" x="222.65625"/>
      </g>
     </g>
    </g>
    <g id="xtick_3">
     <g id="line2d_3">
      <g>
       <use xlink:href="#me3c67e18c2" x="210.091742" y="224.64" style="stroke: #000000; stroke-width: 0.8"/>
      </g>
     </g>
     <g id="text_3">
      <!-- 0.010 -->
      <g transform="translate(195.777679 239.238437)scale(0.1 -0.1)">
       <defs>
        <path id="DejaVuSans-31" d="M 794 531 
L 1825 531 
L 1825 4091 
L 703 3866 
L 703 4441 
L 1819 4666 
L 2450 4666 
L 2450 531 
L 3481 531 
L 3481 0 
L 794 0 
L 794 531 
z
" transform="scale(0.015625)"/>
       </defs>
       <use xlink:href="#DejaVuSans-30"/>
       <use xlink:href="#DejaVuSans-2e" x="63.623047"/>
       <use xlink:href="#DejaVuSans-30" x="95.410156"/>
       <use xlink:href="#DejaVuSans-31" x="159.033203"/>
       <use xlink:href="#DejaVuSans-30" x="222.65625"/>
      </g>
     </g>
    </g>
    <g id="xtick_4">
     <g id="line2d_4">
      <g>
       <use xlink:href="#me3c67e18c2" x="284.072441" y="224.64" style="stroke: #000000; stroke-width: 0.8"/>
      </g>
     </g>
     <g id="text_4">
      <!-- 0.015 -->
      <g transform="translate(269.758378 239.238437)scale(0.1 -0.1)">
       <use xlink:href="#DejaVuSans-30"/>
       <use xlink:href="#DejaVuSans-2e" x="63.623047"/>
       <use xlink:href="#DejaVuSans-30" x="95.410156"/>
       <use xlink:href="#DejaVuSans-31" x="159.033203"/>
       <use xlink:href="#DejaVuSans-35" x="222.65625"/>
      </g>
     </g>
    </g>
    <g id="xtick_5">
     <g id="line2d_5">
      <g>
       <use xlink:href="#me3c67e18c2" x="358.05314" y="224.64" style="stroke: #000000; stroke-width: 0.8"/>
      </g>
     </g>
     <g id="text_5">
      <!-- 0.020 -->
      <g transform="translate(343.739078 239.238437)scale(0.1 -0.1)">
       <defs>
        <path id="DejaVuSans-32" d="M 1228 531 
L 3431 531 
L 3431 0 
L 469 0 
L 469 531 
Q 828 903 1448 1529 
Q 2069 2156 2228 2338 
Q 2531 2678 2651 2914 
Q 2772 3150 2772 3378 
Q 2772 3750 2511 3984 
Q 2250 4219 1831 4219 
Q 1534 4219 1204 4116 
Q 875 4013 500 3803 
L 500 4441 
Q 881 4594 1212 4672 
Q 1544 4750 1819 4750 
Q 2544 4750 2975 4387 
Q 3406 4025 3406 3419 
Q 3406 3131 3298 2873 
Q 3191 2616 2906 2266 
Q 2828 2175 2409 1742 
Q 1991 1309 1228 531 
z
" transform="scale(0.015625)"/>
       </defs>
       <use xlink:href="#DejaVuSans-30"/>
       <use xlink:href="#DejaVuSans-2e" x="63.623047"/>
       <use xlink:href="#DejaVuSans-30" x="95.410156"/>
       <use xlink:href="#DejaVuSans-32" x="159.033203"/>
       <use xlink:href="#DejaVuSans-30" x="222.65625"/>
      </g>
     </g>
    </g>
   </g>
   <g id="matplotlib.axis_2">
    <g id="ytick_1">
     <g id="line2d_6">
      <defs>
       <path id="mecc277d323" d="M 0 0 
L -3.5 0 
" style="stroke: #000000; stroke-width: 0.8"/>
      </defs>
      <g>
       <use xlink:href="#mecc277d323" x="46.965625" y="224.64" style="stroke: #000000; stroke-width: 0.8"/>
      </g>
     </g>
     <g id="text_6">
      <!-- 0 -->
      <g transform="translate(33.603125 228.439219)scale(0.1 -0.1)">
       <use xlink:href="#DejaVuSans-30"/>
      </g>
     </g>
    </g>
    <g id="ytick_2">
     <g id="line2d_7">
      <g>
       <use xlink:href="#mecc277d323" x="46.965625" y="182.888848" style="stroke: #000000; stroke-width: 0.8"/>
      </g>
     </g>
     <g id="text_7">
      <!-- 50 -->
      <g transform="translate(27.240625 186.688067)scale(0.1 -0.1)">
       <use xlink:href="#DejaVuSans-35"/>
       <use xlink:href="#DejaVuSans-30" x="63.623047"/>
      </g>
     </g>
    </g>
    <g id="ytick_3">
     <g id="line2d_8">
      <g>
       <use xlink:href="#mecc277d323" x="46.965625" y="141.137696" style="stroke: #000000; stroke-width: 0.8"/>
      </g>
     </g>
     <g id="text_8">
      <!-- 100 -->
      <g transform="translate(20.878125 144.936915)scale(0.1 -0.1)">
       <use xlink:href="#DejaVuSans-31"/>
       <use xlink:href="#DejaVuSans-30" x="63.623047"/>
       <use xlink:href="#DejaVuSans-30" x="127.246094"/>
      </g>
     </g>
    </g>
    <g id="ytick_4">
     <g id="line2d_9">
      <g>
       <use xlink:href="#mecc277d323" x="46.965625" y="99.386544" style="stroke: #000000; stroke-width: 0.8"/>
      </g>
     </g>
     <g id="text_9">
      <!-- 150 -->
      <g transform="translate(20.878125 103.185763)scale(0.1 -0.1)">
       <use xlink:href="#DejaVuSans-31"/>
       <use xlink:href="#DejaVuSans-35" x="63.623047"/>
       <use xlink:href="#DejaVuSans-30" x="127.246094"/>
      </g>
     </g>
    </g>
    <g id="ytick_5">
     <g id="line2d_10">
      <g>
       <use xlink:href="#mecc277d323" x="46.965625" y="57.635392" style="stroke: #000000; stroke-width: 0.8"/>
      </g>
     </g>
     <g id="text_10">
      <!-- 200 -->
      <g transform="translate(20.878125 61.43461)scale(0.1 -0.1)">
       <use xlink:href="#DejaVuSans-32"/>
       <use xlink:href="#DejaVuSans-30" x="63.623047"/>
       <use xlink:href="#DejaVuSans-30" x="127.246094"/>
      </g>
     </g>
    </g>
    <g id="ytick_6">
     <g id="line2d_11">
      <g>
       <use xlink:href="#mecc277d323" x="46.965625" y="15.88424" style="stroke: #000000; stroke-width: 0.8"/>
      </g>
     </g>
     <g id="text_11">
      <!-- 250 -->
      <g transform="translate(20.878125 19.683458)scale(0.1 -0.1)">
       <use xlink:href="#DejaVuSans-32"/>
       <use xlink:href="#DejaVuSans-35" x="63.623047"/>
       <use xlink:href="#DejaVuSans-30" x="127.246094"/>
      </g>
     </g>
    </g>
    <g id="text_12">
     <!-- Count -->
     <g transform="translate(14.798438 130.768437)rotate(-90)scale(0.1 -0.1)">
      <defs>
       <path id="DejaVuSans-43" d="M 4122 4306 
L 4122 3641 
Q 3803 3938 3442 4084 
Q 3081 4231 2675 4231 
Q 1875 4231 1450 3742 
Q 1025 3253 1025 2328 
Q 1025 1406 1450 917 
Q 1875 428 2675 428 
Q 3081 428 3442 575 
Q 3803 722 4122 1019 
L 4122 359 
Q 3791 134 3420 21 
Q 3050 -91 2638 -91 
Q 1578 -91 968 557 
Q 359 1206 359 2328 
Q 359 3453 968 4101 
Q 1578 4750 2638 4750 
Q 3056 4750 3426 4639 
Q 3797 4528 4122 4306 
z
" transform="scale(0.015625)"/>
       <path id="DejaVuSans-6f" d="M 1959 3097 
Q 1497 3097 1228 2736 
Q 959 2375 959 1747 
Q 959 1119 1226 758 
Q 1494 397 1959 397 
Q 2419 397 2687 759 
Q 2956 1122 2956 1747 
Q 2956 2369 2687 2733 
Q 2419 3097 1959 3097 
z
M 1959 3584 
Q 2709 3584 3137 3096 
Q 3566 2609 3566 1747 
Q 3566 888 3137 398 
Q 2709 -91 1959 -91 
Q 1206 -91 779 398 
Q 353 888 353 1747 
Q 353 2609 779 3096 
Q 1206 3584 1959 3584 
z
" transform="scale(0.015625)"/>
       <path id="DejaVuSans-75" d="M 544 1381 
L 544 3500 
L 1119 3500 
L 1119 1403 
Q 1119 906 1312 657 
Q 1506 409 1894 409 
Q 2359 409 2629 706 
Q 2900 1003 2900 1516 
L 2900 3500 
L 3475 3500 
L 3475 0 
L 2900 0 
L 2900 538 
Q 2691 219 2414 64 
Q 2138 -91 1772 -91 
Q 1169 -91 856 284 
Q 544 659 544 1381 
z
M 1991 3584 
L 1991 3584 
z
" transform="scale(0.015625)"/>
       <path id="DejaVuSans-6e" d="M 3513 2113 
L 3513 0 
L 2938 0 
L 2938 2094 
Q 2938 2591 2744 2837 
Q 2550 3084 2163 3084 
Q 1697 3084 1428 2787 
Q 1159 2491 1159 1978 
L 1159 0 
L 581 0 
L 581 3500 
L 1159 3500 
L 1159 2956 
Q 1366 3272 1645 3428 
Q 1925 3584 2291 3584 
Q 2894 3584 3203 3211 
Q 3513 2838 3513 2113 
z
" transform="scale(0.015625)"/>
       <path id="DejaVuSans-74" d="M 1172 4494 
L 1172 3500 
L 2356 3500 
L 2356 3053 
L 1172 3053 
L 1172 1153 
Q 1172 725 1289 603 
Q 1406 481 1766 481 
L 2356 481 
L 2356 0 
L 1766 0 
Q 1100 0 847 248 
Q 594 497 594 1153 
L 594 3053 
L 172 3053 
L 172 3500 
L 594 3500 
L 594 4494 
L 1172 4494 
z
" transform="scale(0.015625)"/>
      </defs>
      <use xlink:href="#DejaVuSans-43"/>
      <use xlink:href="#DejaVuSans-6f" x="69.824219"/>
      <use xlink:href="#DejaVuSans-75" x="131.005859"/>
      <use xlink:href="#DejaVuSans-6e" x="194.384766"/>
      <use xlink:href="#DejaVuSans-74" x="257.763672"/>
     </g>
    </g>
   </g>
   <g id="line2d_12">
    <path d="M 62.183807 128.2067 
L 65.242738 104.465104 
L 66.772203 93.408486 
L 68.301669 83.236615 
L 69.831134 74.139327 
L 71.3606 66.24182 
L 72.890065 59.602797 
L 74.419531 54.218592 
L 75.948996 50.032007 
L 77.478462 46.944222 
L 79.007927 44.828042 
L 80.537393 43.540979 
L 82.066858 42.936992 
L 83.596324 42.87612 
L 85.125789 43.231618 
L 86.655255 43.894504 
L 88.18472 44.775658 
L 91.243651 46.933429 
L 95.832048 50.590014 
L 101.94991 55.494777 
L 106.538307 58.852876 
L 112.656169 63.096942 
L 115.7151 65.540361 
L 118.774031 68.481654 
L 121.832962 71.985687 
L 124.891893 75.928842 
L 131.009755 84.034044 
L 134.068686 87.694354 
L 137.127617 90.976325 
L 141.716013 95.422855 
L 146.30441 99.822986 
L 149.363341 102.978441 
L 152.422272 106.409987 
L 155.481203 110.155745 
L 158.540134 114.232295 
L 161.599065 118.639117 
L 166.187461 125.788031 
L 176.89372 143.090562 
L 181.482117 149.973622 
L 186.070513 156.474751 
L 190.65891 162.544153 
L 193.717841 166.238616 
L 196.776772 169.568841 
L 199.835703 172.504606 
L 202.894634 175.063053 
L 205.953565 177.302305 
L 210.541961 180.266152 
L 218.189289 185.077159 
L 222.777685 188.295207 
L 233.483944 196.1323 
L 238.07234 199.123199 
L 242.660737 201.828982 
L 248.778599 205.137982 
L 254.896461 208.153096 
L 259.484858 210.14154 
L 264.073254 211.837721 
L 268.661651 213.249412 
L 273.250047 214.423733 
L 277.838444 215.401142 
L 283.956306 216.435036 
L 303.839357 219.373822 
L 314.545616 221.070134 
L 322.192943 222.048114 
L 328.310805 222.618591 
L 335.958133 223.072096 
L 345.134926 223.361689 
L 361.959047 223.80418 
L 366.547443 224.009739 
L 366.547443 224.009739 
" clip-path="url(#pdb20c3f48e)" style="fill: none; stroke: #1f77b4; stroke-width: 1.5; stroke-linecap: square"/>
   </g>
   <g id="patch_63">
    <path d="M 46.965625 224.64 
L 46.965625 7.2 
" style="fill: none; stroke: #000000; stroke-width: 0.8; stroke-linejoin: miter; stroke-linecap: square"/>
   </g>
   <g id="patch_64">
    <path d="M 381.765625 224.64 
L 381.765625 7.2 
" style="fill: none; stroke: #000000; stroke-width: 0.8; stroke-linejoin: miter; stroke-linecap: square"/>
   </g>
   <g id="patch_65">
    <path d="M 46.965625 224.64 
L 381.765625 224.64 
" style="fill: none; stroke: #000000; stroke-width: 0.8; stroke-linejoin: miter; stroke-linecap: square"/>
   </g>
   <g id="patch_66">
    <path d="M 46.965625 7.2 
L 381.765625 7.2 
" style="fill: none; stroke: #000000; stroke-width: 0.8; stroke-linejoin: miter; stroke-linecap: square"/>
   </g>
  </g>
 </g>
 <defs>
  <clipPath id="pdb20c3f48e">
   <rect x="46.965625" y="7.2" width="334.8" height="217.44"/>
  </clipPath>
 </defs>
</svg>
