<?xml version="1.0" encoding="utf-8" standalone="no"?>
<!DOCTYPE svg PUBLIC "-//W3C//DTD SVG 1.1//EN"
  "http://www.w3.org/Graphics/SVG/1.1/DTD/svg11.dtd">
<svg xmlns:xlink="http://www.w3.org/1999/xlink" width="333.1625pt" height="155.222387pt" viewBox="0 0 333.1625 155.222387" xmlns="http://www.w3.org/2000/svg" version="1.1">
 <metadata>
  <rdf:RDF xmlns:dc="http://purl.org/dc/elements/1.1/" xmlns:cc="http://creativecommons.org/ns#" xmlns:rdf="http://www.w3.org/1999/02/22-rdf-syntax-ns#">
   <cc:Work>
    <dc:type rdf:resource="http://purl.org/dc/dcmitype/StillImage"/>
    <dc:date>2022-04-13T02:11:12.453312</dc:date>
    <dc:format>image/svg+xml</dc:format>
    <dc:creator>
     <cc:Agent>
      <dc:title>Matplotlib v3.5.1, https://matplotlib.org/</dc:title>
     </cc:Agent>
    </dc:creator>
   </cc:Work>
  </rdf:RDF>
 </metadata>
 <defs>
  <style type="text/css">*{stroke-linejoin: round; stroke-linecap: butt}</style>
 </defs>
 <g id="figure_1">
  <g id="patch_1">
   <path d="M 0 155.222387 
L 333.1625 155.222387 
L 333.1625 0 
L 0 0 
L 0 155.222387 
z
" style="fill: none"/>
  </g>
  <g id="axes_1">
   <g id="patch_2">
    <path d="M 43.78125 117.666137 
L 322.78125 117.666137 
L 322.78125 8.946137 
L 43.78125 8.946137 
z
" style="fill: #ffffff"/>
   </g>
   <g id="PolyCollection_1">
    <path d="M 66.098969 117.356393 
L 66.098969 117.666137 
L 69.586469 117.666137 
L 73.073969 117.666137 
L 76.561469 117.666137 
L 80.048969 117.666137 
L 83.536469 117.666137 
L 87.023969 117.666137 
L 90.511469 117.666137 
L 93.998969 117.666137 
L 97.486469 117.666137 
L 100.973969 117.666137 
L 104.461469 117.666137 
L 107.948969 117.666137 
L 111.436469 117.666137 
L 114.923969 117.666137 
L 118.411469 117.666137 
L 121.898969 117.666137 
L 125.386469 117.666137 
L 128.873969 117.666137 
L 132.361469 117.666137 
L 135.848969 117.666137 
L 139.336469 117.666137 
L 142.823969 117.666137 
L 146.311469 117.666137 
L 149.798969 117.666137 
L 153.286469 117.666137 
L 156.773969 117.666137 
L 160.261469 117.666137 
L 163.748969 117.666137 
L 167.236469 117.666137 
L 170.723969 117.666137 
L 174.211469 117.666137 
L 177.698969 117.666137 
L 181.186469 117.666137 
L 184.673969 117.666137 
L 188.161469 117.666137 
L 191.648969 117.666137 
L 195.136469 117.666137 
L 198.623969 117.666137 
L 202.111469 117.666137 
L 205.598969 117.666137 
L 209.086469 117.666137 
L 212.573969 117.666137 
L 216.061469 117.666137 
L 219.548969 117.666137 
L 223.036469 117.666137 
L 226.523969 117.666137 
L 230.011469 117.666137 
L 233.498969 117.666137 
L 236.986469 117.666137 
L 240.473969 117.666137 
L 243.961469 117.666137 
L 247.448969 117.666137 
L 250.936469 117.666137 
L 254.423969 117.666137 
L 257.911469 117.666137 
L 261.398969 117.666137 
L 264.886469 117.666137 
L 268.373969 117.666137 
L 271.861469 117.666137 
L 275.348969 117.666137 
L 278.836469 117.666137 
L 282.323969 117.666137 
L 285.811469 117.666137 
L 289.298969 117.666137 
L 292.786469 117.666137 
L 296.273969 117.666137 
L 299.761469 117.666137 
L 303.248969 117.666137 
L 306.736469 117.666137 
L 310.223969 117.666137 
L 313.711469 117.666137 
L 317.198969 117.666137 
L 320.686469 117.666137 
L 324.173969 117.666137 
L 327.661469 117.666137 
L 331.148969 117.666137 
L 334.636469 117.666137 
L 338.123969 117.666137 
L 341.611469 117.666137 
L 345.098969 117.666137 
L 348.586469 117.666137 
L 352.073969 117.666137 
L 355.561469 117.666137 
L 359.048969 117.666137 
L 362.536469 117.666137 
L 366.023969 117.666137 
L 369.511469 117.666137 
L 372.998969 117.666137 
L 376.486469 117.666137 
L 379.973969 117.666137 
L 383.461469 117.666137 
L 386.948969 117.666137 
L 390.436469 117.666137 
L 393.923969 117.666137 
L 397.411469 117.666137 
L 400.898969 117.666137 
L 404.386469 117.666137 
L 407.873969 117.666137 
L 411.361469 117.666137 
L 414.848969 117.666137 
L 418.336469 117.666137 
L 421.823969 117.666137 
L 425.311469 117.666137 
L 428.798969 117.666137 
L 432.286469 117.666137 
L 435.773969 117.666137 
L 439.261469 117.666137 
L 442.748969 117.666137 
L 446.236469 117.666137 
L 449.723969 117.666137 
L 453.211469 117.666137 
L 456.698969 117.666137 
L 460.186469 117.666137 
L 463.673969 117.666137 
L 467.161469 117.666137 
L 470.648969 117.666137 
L 474.136469 117.666137 
L 477.623969 117.666137 
L 481.111469 117.666137 
L 484.598969 117.666137 
L 488.086469 117.666137 
L 491.573969 117.666137 
L 495.061469 117.666137 
L 498.548969 117.666137 
L 502.036469 117.666137 
L 505.523969 117.666137 
L 509.011469 117.666137 
L 512.498969 117.666137 
L 515.986469 117.666137 
L 519.473969 117.666137 
L 522.961469 117.666137 
L 526.448969 117.666137 
L 529.936469 117.666137 
L 533.423969 117.666137 
L 536.911469 117.666137 
L 540.398969 117.666137 
L 543.886469 117.666137 
L 547.373969 117.666137 
L 550.861469 117.666137 
L 554.348969 117.666137 
L 557.836469 117.666137 
L 561.323969 117.666137 
L 564.811469 117.666137 
L 568.298969 117.666137 
L 571.786469 117.666137 
L 575.273969 117.666137 
L 578.761469 117.666137 
L 582.248969 117.666137 
L 585.736469 117.666137 
L 589.223969 117.666137 
L 592.711469 117.666137 
L 596.198969 117.666137 
L 599.686469 117.666137 
L 603.173969 117.666137 
L 606.661469 117.666137 
L 610.148969 117.666137 
L 613.636469 117.666137 
L 617.123969 117.666137 
L 620.611469 117.666137 
L 624.098969 117.666137 
L 627.586469 117.666137 
L 631.073969 117.666137 
L 634.561469 117.666137 
L 638.048969 117.666137 
L 641.536469 117.666137 
L 645.023969 117.666137 
L 648.511469 117.666137 
L 651.998969 117.666137 
L 655.486469 117.666137 
L 658.973969 117.666137 
L 662.461469 117.666137 
L 665.948969 117.666137 
L 669.436469 117.666137 
L 672.923969 117.666137 
L 676.411469 117.666137 
L 679.898969 117.666137 
L 683.386469 117.666137 
L 686.873969 117.666137 
L 690.361469 117.666137 
L 693.848969 117.666137 
L 697.336469 117.666137 
L 700.823969 117.666137 
L 704.311469 117.666137 
L 707.798969 117.666137 
L 711.286469 117.666137 
L 714.773969 117.666137 
L 718.261469 117.666137 
L 721.748969 117.666137 
L 725.236469 117.666137 
L 728.723969 117.666137 
L 732.211469 117.666137 
L 735.698969 117.666137 
L 739.186469 117.666137 
L 742.673969 117.666137 
L 746.161469 117.666137 
L 749.648969 117.666137 
L 753.136469 117.666137 
L 756.623969 117.666137 
L 760.111469 117.666137 
L 763.598969 117.666137 
L 767.086469 117.666137 
L 770.573969 117.666137 
L 774.061469 117.666137 
L 777.548969 117.666137 
L 781.036469 117.666137 
L 784.523969 117.666137 
L 788.011469 117.666137 
L 791.498969 117.666137 
L 794.986469 117.666137 
L 798.473969 117.666137 
L 801.961469 117.666137 
L 805.448969 117.666137 
L 808.936469 117.666137 
L 812.423969 117.666137 
L 815.911469 117.666137 
L 819.398969 117.666137 
L 822.886469 117.666137 
L 826.373969 117.666137 
L 829.861469 117.666137 
L 833.348969 117.666137 
L 836.836469 117.666137 
L 840.323969 117.666137 
L 843.811469 117.666137 
L 847.298969 117.666137 
L 850.786469 117.666137 
L 854.273969 117.666137 
L 857.761469 117.666137 
L 861.248969 117.666137 
L 864.736469 117.666137 
L 868.223969 117.666137 
L 871.711469 117.666137 
L 875.198969 117.666137 
L 878.686469 117.666137 
L 882.173969 117.666137 
L 885.661469 117.666137 
L 889.148969 117.666137 
L 892.636469 117.666137 
L 896.123969 117.666137 
L 899.611469 117.666137 
L 903.098969 117.666137 
L 906.586469 117.666137 
L 910.073969 117.666137 
L 913.561469 117.666137 
L 917.048969 117.666137 
L 920.536469 117.666137 
L 924.023969 117.666137 
L 927.511469 117.666137 
L 930.998969 117.666137 
L 934.486469 117.666137 
L 937.973969 117.666137 
L 941.461469 117.666137 
L 944.948969 117.666137 
L 948.436469 117.666137 
L 951.923969 117.666137 
L 955.411469 117.666137 
L 958.898969 117.666137 
L 962.386469 117.666137 
L 965.873969 117.666137 
L 969.361469 117.666137 
L 972.848969 117.666137 
L 976.336469 117.666137 
L 979.823969 117.666137 
L 983.311469 117.666137 
L 986.798969 117.666137 
L 990.286469 117.666137 
L 993.773969 117.666137 
L 997.261469 117.666137 
L 1000.748969 117.666137 
L 1004.236469 117.666137 
L 1007.723969 117.666137 
L 1011.211469 117.666137 
L 1014.698969 117.666137 
L 1018.186469 117.666137 
L 1021.673969 117.666137 
L 1025.161469 117.666137 
L 1028.648969 117.666137 
L 1032.136469 117.666137 
L 1035.623969 117.666137 
L 1039.111469 117.666137 
L 1042.598969 117.666137 
L 1046.086469 117.666137 
L 1049.573969 117.666137 
L 1053.061469 117.666137 
L 1056.548969 117.666137 
L 1060.036469 117.666137 
L 1063.523969 117.666137 
L 1067.011469 117.666137 
L 1070.498969 117.666137 
L 1073.986469 117.666137 
L 1077.473969 117.666137 
L 1080.961469 117.666137 
L 1084.448969 117.666137 
L 1087.936469 117.666137 
L 1091.423969 117.666137 
L 1094.911469 117.666137 
L 1098.398969 117.666137 
L 1101.886469 117.666137 
L 1105.373969 117.666137 
L 1108.861469 117.666137 
L 1112.348969 117.666137 
L 1115.836469 117.666137 
L 1119.323969 117.666137 
L 1122.811469 117.666137 
L 1126.298969 117.666137 
L 1129.786469 117.666137 
L 1133.273969 117.666137 
L 1136.761469 117.666137 
L 1140.248969 117.666137 
L 1143.736469 117.666137 
L 1147.223969 117.666137 
L 1150.711469 117.666137 
L 1154.198969 117.666137 
L 1157.686469 117.666137 
L 1161.173969 117.666137 
L 1164.661469 117.666137 
L 1168.148969 117.666137 
L 1171.636469 117.666137 
L 1175.123969 117.666137 
L 1178.611469 117.666137 
L 1182.098969 117.666137 
L 1185.586469 117.666137 
L 1189.073969 117.666137 
L 1192.561469 117.666137 
L 1196.048969 117.666137 
L 1199.536469 117.666137 
L 1203.023969 117.666137 
L 1206.511469 117.666137 
L 1209.998969 117.666137 
L 1213.486469 117.666137 
L 1216.973969 117.666137 
L 1220.461469 117.666137 
L 1223.948969 117.666137 
L 1227.436469 117.666137 
L 1230.923969 117.666137 
L 1234.411469 117.666137 
L 1237.898969 117.666137 
L 1241.386469 117.666137 
L 1244.873969 117.666137 
L 1248.361469 117.666137 
L 1251.848969 117.666137 
L 1255.336469 117.666137 
L 1258.823969 117.666137 
L 1262.311469 117.666137 
L 1265.798969 117.666137 
L 1269.286469 117.666137 
L 1272.773969 117.666137 
L 1276.261469 117.666137 
L 1279.748969 117.666137 
L 1283.236469 117.666137 
L 1286.723969 117.666137 
L 1290.211469 117.666137 
L 1293.698969 117.666137 
L 1297.186469 117.666137 
L 1300.673969 117.666137 
L 1304.161469 117.666137 
L 1307.648969 117.666137 
L 1311.136469 117.666137 
L 1314.623969 117.666137 
L 1318.111469 117.666137 
L 1321.598969 117.666137 
L 1325.086469 117.666137 
L 1328.573969 117.666137 
L 1332.061469 117.666137 
L 1335.548969 117.666137 
L 1339.036469 117.666137 
L 1342.523969 117.666137 
L 1346.011469 117.666137 
L 1349.498969 117.666137 
L 1352.986469 117.666137 
L 1356.473969 117.666137 
L 1359.961469 117.666137 
L 1363.448969 117.666137 
L 1366.936469 117.666137 
L 1370.423969 117.666137 
L 1373.911469 117.666137 
L 1377.398969 117.666137 
L 1380.886469 117.666137 
L 1384.373969 117.666137 
L 1387.861469 117.666137 
L 1391.348969 117.666137 
L 1394.836469 117.666137 
L 1398.323969 117.666137 
L 1401.811469 117.666137 
L 1405.298969 117.666137 
L 1408.786469 117.666137 
L 1412.273969 117.666137 
L 1415.761469 117.666137 
L 1419.248969 117.666137 
L 1422.736469 117.666137 
L 1426.223969 117.666137 
L 1429.711469 117.666137 
L 1433.198969 117.666137 
L 1436.686469 117.666137 
L 1440.173969 117.666137 
L 1443.661469 117.666137 
L 1447.148969 117.666137 
L 1450.636469 117.666137 
L 1454.123969 117.666137 
L 1457.611469 117.666137 
L 1461.098969 117.666137 
L 1464.586469 117.666137 
L 1468.073969 117.666137 
L 1471.561469 117.666137 
L 1475.048969 117.666137 
L 1478.536469 117.666137 
L 1482.023969 117.666137 
L 1485.511469 117.666137 
L 1488.998969 117.666137 
L 1492.486469 117.666137 
L 1495.973969 117.666137 
L 1499.461469 117.666137 
L 1502.948969 117.666137 
L 1506.436469 117.666137 
L 1509.923969 117.666137 
L 1513.411469 117.666137 
L 1516.898969 117.666137 
L 1520.386469 117.666137 
L 1523.873969 117.666137 
L 1527.361469 117.666137 
L 1530.848969 117.666137 
L 1534.336469 117.666137 
L 1537.823969 117.666137 
L 1541.311469 117.666137 
L 1544.798969 117.666137 
L 1548.286469 117.666137 
L 1551.773969 117.666137 
L 1555.261469 117.666137 
L 1558.748969 117.666137 
L 1562.236469 117.666137 
L 1565.723969 117.666137 
L 1569.211469 117.666137 
L 1572.698969 117.666137 
L 1576.186469 117.666137 
L 1579.673969 117.666137 
L 1583.161469 117.666137 
L 1586.648969 117.666137 
L 1590.136469 117.666137 
L 1593.623969 117.666137 
L 1597.111469 117.666137 
L 1600.598969 117.666137 
L 1604.086469 117.666137 
L 1607.573969 117.666137 
L 1611.061469 117.666137 
L 1614.548969 117.666137 
L 1618.036469 117.666137 
L 1621.523969 117.666137 
L 1625.011469 117.666137 
L 1628.498969 117.666137 
L 1631.986469 117.666137 
L 1635.473969 117.666137 
L 1638.961469 117.666137 
L 1642.448969 117.666137 
L 1645.936469 117.666137 
L 1649.423969 117.666137 
L 1652.911469 117.666137 
L 1656.398969 117.666137 
L 1659.886469 117.666137 
L 1663.373969 117.666137 
L 1666.861469 117.666137 
L 1670.348969 117.666137 
L 1673.836469 117.666137 
L 1677.323969 117.666137 
L 1680.811469 117.666137 
L 1684.298969 117.666137 
L 1687.786469 117.666137 
L 1691.273969 117.666137 
L 1694.761469 117.666137 
L 1698.248969 117.666137 
L 1701.736469 117.666137 
L 1705.223969 117.666137 
L 1708.711469 117.666137 
L 1712.198969 117.666137 
L 1715.686469 117.666137 
L 1719.173969 117.666137 
L 1722.661469 117.666137 
L 1726.148969 117.666137 
L 1729.636469 117.666137 
L 1733.123969 117.666137 
L 1736.611469 117.666137 
L 1740.098969 117.666137 
L 1743.586469 117.666137 
L 1747.073969 117.666137 
L 1750.561469 117.666137 
L 1754.048969 117.666137 
L 1757.536469 117.666137 
L 1761.023969 117.666137 
L 1764.511469 117.666137 
L 1767.998969 117.666137 
L 1771.486469 117.666137 
L 1774.973969 117.666137 
L 1778.461469 117.666137 
L 1781.948969 117.666137 
L 1785.436469 117.666137 
L 1788.923969 117.666137 
L 1792.411469 117.666137 
L 1795.898969 117.666137 
L 1799.386469 117.666137 
L 1802.873969 117.666137 
L 1806.361469 117.666137 
L 1809.848969 117.666137 
L 1813.336469 117.666137 
L 1816.823969 117.666137 
L 1820.311469 117.666137 
L 1823.798969 117.666137 
L 1827.286469 117.666137 
L 1830.773969 117.666137 
L 1834.261469 117.666137 
L 1837.748969 117.666137 
L 1841.236469 117.666137 
L 1844.723969 117.666137 
L 1848.211469 117.666137 
L 1851.698969 117.666137 
L 1855.186469 117.666137 
L 1858.673969 117.666137 
L 1862.161469 117.666137 
L 1865.648969 117.666137 
L 1869.136469 117.666137 
L 1872.623969 117.666137 
L 1876.111469 117.666137 
L 1879.598969 117.666137 
L 1883.086469 117.666137 
L 1886.573969 117.666137 
L 1890.061469 117.666137 
L 1893.548969 117.666137 
L 1897.036469 117.666137 
L 1900.523969 117.666137 
L 1904.011469 117.666137 
L 1907.498969 117.666137 
L 1910.986469 117.666137 
L 1914.473969 117.666137 
L 1917.961469 117.666137 
L 1921.448969 117.666137 
L 1924.936469 117.666137 
L 1928.423969 117.666137 
L 1931.911469 117.666137 
L 1935.398969 117.666137 
L 1938.886469 117.666137 
L 1942.373969 117.666137 
L 1945.861469 117.666137 
L 1949.348969 117.666137 
L 1952.836469 117.666137 
L 1956.323969 117.666137 
L 1959.811469 117.666137 
L 1963.298969 117.666137 
L 1966.786469 117.666137 
L 1970.273969 117.666137 
L 1973.761469 117.666137 
L 1977.248969 117.666137 
L 1980.736469 117.666137 
L 1984.223969 117.666137 
L 1987.711469 117.666137 
L 1991.198969 117.666137 
L 1994.686469 117.666137 
L 1998.173969 117.666137 
L 2001.661469 117.666137 
L 2005.148969 117.666137 
L 2008.636469 117.666137 
L 2012.123969 117.666137 
L 2015.611469 117.666137 
L 2019.098969 117.666137 
L 2022.586469 117.666137 
L 2026.073969 117.666137 
L 2029.561469 117.666137 
L 2033.048969 117.666137 
L 2036.536469 117.666137 
L 2040.023969 117.666137 
L 2043.511469 117.666137 
L 2046.998969 117.666137 
L 2050.486469 117.666137 
L 2053.973969 117.666137 
L 2057.461469 117.666137 
L 2060.948969 117.666137 
L 2064.436469 117.666137 
L 2067.923969 117.666137 
L 2071.411469 117.666137 
L 2074.898969 117.666137 
L 2078.386469 117.666137 
L 2081.873969 117.666137 
L 2085.361469 117.666137 
L 2088.848969 117.666137 
L 2092.336469 117.666137 
L 2095.823969 117.666137 
L 2099.311469 117.666137 
L 2102.798969 117.666137 
L 2106.286469 117.666137 
L 2109.773969 117.666137 
L 2109.773969 117.665721 
L 2109.773969 117.665721 
L 2106.286469 117.666137 
L 2102.798969 117.666137 
L 2099.311469 117.666137 
L 2095.823969 117.666137 
L 2092.336469 117.666137 
L 2088.848969 117.666137 
L 2085.361469 117.666137 
L 2081.873969 117.666137 
L 2078.386469 117.666137 
L 2074.898969 117.666137 
L 2071.411469 117.666137 
L 2067.923969 117.666137 
L 2064.436469 117.666137 
L 2060.948969 117.666137 
L 2057.461469 117.666137 
L 2053.973969 117.666137 
L 2050.486469 117.666137 
L 2046.998969 117.666137 
L 2043.511469 117.666137 
L 2040.023969 117.666137 
L 2036.536469 117.666137 
L 2033.048969 117.666137 
L 2029.561469 117.666137 
L 2026.073969 117.666137 
L 2022.586469 117.666137 
L 2019.098969 117.666137 
L 2015.611469 117.666137 
L 2012.123969 117.666137 
L 2008.636469 117.666137 
L 2005.148969 117.666137 
L 2001.661469 117.666137 
L 1998.173969 117.666137 
L 1994.686469 117.666137 
L 1991.198969 117.666137 
L 1987.711469 117.666137 
L 1984.223969 117.666137 
L 1980.736469 117.666137 
L 1977.248969 117.666137 
L 1973.761469 117.666137 
L 1970.273969 117.666137 
L 1966.786469 117.665721 
L 1963.298969 117.666137 
L 1959.811469 117.666137 
L 1956.323969 117.666137 
L 1952.836469 117.666137 
L 1949.348969 117.666137 
L 1945.861469 117.666137 
L 1942.373969 117.666137 
L 1938.886469 117.665721 
L 1935.398969 117.666137 
L 1931.911469 117.666137 
L 1928.423969 117.666137 
L 1924.936469 117.666137 
L 1921.448969 117.666137 
L 1917.961469 117.666137 
L 1914.473969 117.666137 
L 1910.986469 117.666137 
L 1907.498969 117.666137 
L 1904.011469 117.666137 
L 1900.523969 117.666137 
L 1897.036469 117.666137 
L 1893.548969 117.666137 
L 1890.061469 117.666137 
L 1886.573969 117.666137 
L 1883.086469 117.666137 
L 1879.598969 117.666137 
L 1876.111469 117.666137 
L 1872.623969 117.666137 
L 1869.136469 117.666137 
L 1865.648969 117.666137 
L 1862.161469 117.666137 
L 1858.673969 117.665721 
L 1855.186469 117.666137 
L 1851.698969 117.666137 
L 1848.211469 117.666137 
L 1844.723969 117.665721 
L 1841.236469 117.666137 
L 1837.748969 117.666137 
L 1834.261469 117.666137 
L 1830.773969 117.666137 
L 1827.286469 117.666137 
L 1823.798969 117.666137 
L 1820.311469 117.666137 
L 1816.823969 117.666137 
L 1813.336469 117.666137 
L 1809.848969 117.666137 
L 1806.361469 117.666137 
L 1802.873969 117.666137 
L 1799.386469 117.666137 
L 1795.898969 117.666137 
L 1792.411469 117.666137 
L 1788.923969 117.666137 
L 1785.436469 117.666137 
L 1781.948969 117.666137 
L 1778.461469 117.666137 
L 1774.973969 117.666137 
L 1771.486469 117.666137 
L 1767.998969 117.666137 
L 1764.511469 117.666137 
L 1761.023969 117.666137 
L 1757.536469 117.666137 
L 1754.048969 117.666137 
L 1750.561469 117.666137 
L 1747.073969 117.666137 
L 1743.586469 117.666137 
L 1740.098969 117.666137 
L 1736.611469 117.666137 
L 1733.123969 117.666137 
L 1729.636469 117.666137 
L 1726.148969 117.666137 
L 1722.661469 117.666137 
L 1719.173969 117.666137 
L 1715.686469 117.666137 
L 1712.198969 117.666137 
L 1708.711469 117.665721 
L 1705.223969 117.666137 
L 1701.736469 117.666137 
L 1698.248969 117.666137 
L 1694.761469 117.666137 
L 1691.273969 117.665721 
L 1687.786469 117.666137 
L 1684.298969 117.666137 
L 1680.811469 117.666137 
L 1677.323969 117.665721 
L 1673.836469 117.666137 
L 1670.348969 117.666137 
L 1666.861469 117.666137 
L 1663.373969 117.666137 
L 1659.886469 117.666137 
L 1656.398969 117.666137 
L 1652.911469 117.666137 
L 1649.423969 117.666137 
L 1645.936469 117.666137 
L 1642.448969 117.666137 
L 1638.961469 117.666137 
L 1635.473969 117.666137 
L 1631.986469 117.666137 
L 1628.498969 117.666137 
L 1625.011469 117.666137 
L 1621.523969 117.666137 
L 1618.036469 117.666137 
L 1614.548969 117.666137 
L 1611.061469 117.666137 
L 1607.573969 117.666137 
L 1604.086469 117.666137 
L 1600.598969 117.666137 
L 1597.111469 117.666137 
L 1593.623969 117.666137 
L 1590.136469 117.666137 
L 1586.648969 117.666137 
L 1583.161469 117.666137 
L 1579.673969 117.666137 
L 1576.186469 117.666137 
L 1572.698969 117.666137 
L 1569.211469 117.666137 
L 1565.723969 117.666137 
L 1562.236469 117.666137 
L 1558.748969 117.666137 
L 1555.261469 117.665721 
L 1551.773969 117.666137 
L 1548.286469 117.666137 
L 1544.798969 117.666137 
L 1541.311469 117.666137 
L 1537.823969 117.666137 
L 1534.336469 117.666137 
L 1530.848969 117.666137 
L 1527.361469 117.666137 
L 1523.873969 117.666137 
L 1520.386469 117.666137 
L 1516.898969 117.666137 
L 1513.411469 117.666137 
L 1509.923969 117.666137 
L 1506.436469 117.666137 
L 1502.948969 117.666137 
L 1499.461469 117.666137 
L 1495.973969 117.666137 
L 1492.486469 117.666137 
L 1488.998969 117.666137 
L 1485.511469 117.666137 
L 1482.023969 117.666137 
L 1478.536469 117.665721 
L 1475.048969 117.666137 
L 1471.561469 117.666137 
L 1468.073969 117.666137 
L 1464.586469 117.666137 
L 1461.098969 117.666137 
L 1457.611469 117.666137 
L 1454.123969 117.666137 
L 1450.636469 117.666137 
L 1447.148969 117.666137 
L 1443.661469 117.666137 
L 1440.173969 117.666137 
L 1436.686469 117.666137 
L 1433.198969 117.666137 
L 1429.711469 117.666137 
L 1426.223969 117.666137 
L 1422.736469 117.666137 
L 1419.248969 117.666137 
L 1415.761469 117.666137 
L 1412.273969 117.666137 
L 1408.786469 117.666137 
L 1405.298969 117.666137 
L 1401.811469 117.666137 
L 1398.323969 117.666137 
L 1394.836469 117.666137 
L 1391.348969 117.666137 
L 1387.861469 117.666137 
L 1384.373969 117.666137 
L 1380.886469 117.666137 
L 1377.398969 117.666137 
L 1373.911469 117.665721 
L 1370.423969 117.666137 
L 1366.936469 117.666137 
L 1363.448969 117.666137 
L 1359.961469 117.666137 
L 1356.473969 117.666137 
L 1352.986469 117.665721 
L 1349.498969 117.666137 
L 1346.011469 117.665721 
L 1342.523969 117.666137 
L 1339.036469 117.666137 
L 1335.548969 117.666137 
L 1332.061469 117.666137 
L 1328.573969 117.666137 
L 1325.086469 117.666137 
L 1321.598969 117.666137 
L 1318.111469 117.666137 
L 1314.623969 117.666137 
L 1311.136469 117.666137 
L 1307.648969 117.665721 
L 1304.161469 117.665721 
L 1300.673969 117.666137 
L 1297.186469 117.666137 
L 1293.698969 117.666137 
L 1290.211469 117.666137 
L 1286.723969 117.666137 
L 1283.236469 117.666137 
L 1279.748969 117.666137 
L 1276.261469 117.666137 
L 1272.773969 117.666137 
L 1269.286469 117.666137 
L 1265.798969 117.666137 
L 1262.311469 117.666137 
L 1258.823969 117.666137 
L 1255.336469 117.666137 
L 1251.848969 117.666137 
L 1248.361469 117.666137 
L 1244.873969 117.666137 
L 1241.386469 117.666137 
L 1237.898969 117.666137 
L 1234.411469 117.666137 
L 1230.923969 117.666137 
L 1227.436469 117.666137 
L 1223.948969 117.666137 
L 1220.461469 117.666137 
L 1216.973969 117.666137 
L 1213.486469 117.666137 
L 1209.998969 117.666137 
L 1206.511469 117.665721 
L 1203.023969 117.665721 
L 1199.536469 117.666137 
L 1196.048969 117.666137 
L 1192.561469 117.666137 
L 1189.073969 117.666137 
L 1185.586469 117.666137 
L 1182.098969 117.665721 
L 1178.611469 117.666137 
L 1175.123969 117.665721 
L 1171.636469 117.666137 
L 1168.148969 117.666137 
L 1164.661469 117.665721 
L 1161.173969 117.666137 
L 1157.686469 117.665721 
L 1154.198969 117.665721 
L 1150.711469 117.666137 
L 1147.223969 117.666137 
L 1143.736469 117.665721 
L 1140.248969 117.666137 
L 1136.761469 117.665721 
L 1133.273969 117.666137 
L 1129.786469 117.665721 
L 1126.298969 117.665306 
L 1122.811469 117.666137 
L 1119.323969 117.666137 
L 1115.836469 117.665721 
L 1112.348969 117.666137 
L 1108.861469 117.665721 
L 1105.373969 117.666137 
L 1101.886469 117.666137 
L 1098.398969 117.666137 
L 1094.911469 117.665721 
L 1091.423969 117.666137 
L 1087.936469 117.665721 
L 1084.448969 117.666137 
L 1080.961469 117.665721 
L 1077.473969 117.665721 
L 1073.986469 117.665306 
L 1070.498969 117.666137 
L 1067.011469 117.666137 
L 1063.523969 117.666137 
L 1060.036469 117.666137 
L 1056.548969 117.666137 
L 1053.061469 117.666137 
L 1049.573969 117.666137 
L 1046.086469 117.665721 
L 1042.598969 117.666137 
L 1039.111469 117.666137 
L 1035.623969 117.666137 
L 1032.136469 117.666137 
L 1028.648969 117.666137 
L 1025.161469 117.666137 
L 1021.673969 117.665721 
L 1018.186469 117.666137 
L 1014.698969 117.666137 
L 1011.211469 117.666137 
L 1007.723969 117.666137 
L 1004.236469 117.666137 
L 1000.748969 117.664891 
L 997.261469 117.666137 
L 993.773969 117.666137 
L 990.286469 117.665721 
L 986.798969 117.665721 
L 983.311469 117.666137 
L 979.823969 117.666137 
L 976.336469 117.665721 
L 972.848969 117.666137 
L 969.361469 117.665721 
L 965.873969 117.665306 
L 962.386469 117.665721 
L 958.898969 117.666137 
L 955.411469 117.665721 
L 951.923969 117.665721 
L 948.436469 117.666137 
L 944.948969 117.666137 
L 941.461469 117.666137 
L 937.973969 117.665306 
L 934.486469 117.665306 
L 930.998969 117.665306 
L 927.511469 117.665721 
L 924.023969 117.666137 
L 920.536469 117.665721 
L 917.048969 117.666137 
L 913.561469 117.665721 
L 910.073969 117.666137 
L 906.586469 117.665721 
L 903.098969 117.664891 
L 899.611469 117.665306 
L 896.123969 117.666137 
L 892.636469 117.665721 
L 889.148969 117.665721 
L 885.661469 117.665306 
L 882.173969 117.665306 
L 878.686469 117.665721 
L 875.198969 117.665306 
L 871.711469 117.666137 
L 868.223969 117.664476 
L 864.736469 117.666137 
L 861.248969 117.665721 
L 857.761469 117.663645 
L 854.273969 117.665721 
L 850.786469 117.665306 
L 847.298969 117.666137 
L 843.811469 117.664476 
L 840.323969 117.664891 
L 836.836469 117.665721 
L 833.348969 117.664061 
L 829.861469 117.665306 
L 826.373969 117.665306 
L 822.886469 117.666137 
L 819.398969 117.665306 
L 815.911469 117.665721 
L 812.423969 117.665721 
L 808.936469 117.665306 
L 805.448969 117.664891 
L 801.961469 117.665721 
L 798.473969 117.665721 
L 794.986469 117.665721 
L 791.498969 117.666137 
L 788.011469 117.664891 
L 784.523969 117.664476 
L 781.036469 117.665721 
L 777.548969 117.665306 
L 774.061469 117.664891 
L 770.573969 117.665306 
L 767.086469 117.665721 
L 763.598969 117.665721 
L 760.111469 117.665306 
L 756.623969 117.665306 
L 753.136469 117.665306 
L 749.648969 117.664891 
L 746.161469 117.664891 
L 742.673969 117.663645 
L 739.186469 117.664061 
L 735.698969 117.664476 
L 732.211469 117.665306 
L 728.723969 117.66323 
L 725.236469 117.664891 
L 721.748969 117.665721 
L 718.261469 117.665721 
L 714.773969 117.665306 
L 711.286469 117.665721 
L 707.798969 117.664061 
L 704.311469 117.664891 
L 700.823969 117.664891 
L 697.336469 117.664891 
L 693.848969 117.662815 
L 690.361469 117.664061 
L 686.873969 117.665721 
L 683.386469 117.664891 
L 679.898969 117.664476 
L 676.411469 117.664476 
L 672.923969 117.664476 
L 669.436469 117.664891 
L 665.948969 117.66323 
L 662.461469 117.663645 
L 658.973969 117.663645 
L 655.486469 117.664476 
L 651.998969 117.664476 
L 648.511469 117.664061 
L 645.023969 117.664891 
L 641.536469 117.664061 
L 638.048969 117.66323 
L 634.561469 117.663645 
L 631.073969 117.66323 
L 627.586469 117.66323 
L 624.098969 117.664061 
L 620.611469 117.663645 
L 617.123969 117.6624 
L 613.636469 117.665306 
L 610.148969 117.664061 
L 606.661469 117.662815 
L 603.173969 117.6624 
L 599.686469 117.662815 
L 596.198969 117.661154 
L 592.711469 117.660739 
L 589.223969 117.662815 
L 585.736469 117.662815 
L 582.248969 117.661569 
L 578.761469 117.6624 
L 575.273969 117.661569 
L 571.786469 117.661569 
L 568.298969 117.661985 
L 564.811469 117.661985 
L 561.323969 117.662815 
L 557.836469 117.661569 
L 554.348969 117.659493 
L 550.861469 117.661985 
L 547.373969 117.659908 
L 543.886469 117.660324 
L 540.398969 117.660324 
L 536.911469 117.661569 
L 533.423969 117.662815 
L 529.936469 117.661569 
L 526.448969 117.661154 
L 522.961469 117.660739 
L 519.473969 117.661154 
L 515.986469 117.657002 
L 512.498969 117.658248 
L 509.011469 117.656172 
L 505.523969 117.654511 
L 502.036469 117.658663 
L 498.548969 117.656587 
L 495.061469 117.65368 
L 491.573969 117.657417 
L 488.086469 117.659493 
L 484.598969 117.656587 
L 481.111469 117.656587 
L 477.623969 117.657417 
L 474.136469 117.65202 
L 470.648969 117.65368 
L 467.161469 117.655341 
L 463.673969 117.65202 
L 460.186469 117.654096 
L 456.698969 117.65202 
L 453.211469 117.649944 
L 449.723969 117.653265 
L 446.236469 117.651189 
L 442.748969 117.650359 
L 439.261469 117.639148 
L 435.773969 117.651189 
L 432.286469 117.650774 
L 428.798969 117.645376 
L 425.311469 117.643715 
L 421.823969 117.647037 
L 418.336469 117.639979 
L 414.848969 117.64247 
L 411.361469 117.636657 
L 407.873969 117.634996 
L 404.386469 117.63209 
L 400.898969 117.627938 
L 397.411469 117.634581 
L 393.923969 117.637903 
L 390.436469 117.632505 
L 386.948969 117.618388 
L 383.461469 117.618388 
L 379.973969 117.624201 
L 376.486469 117.613821 
L 372.998969 117.617557 
L 369.511469 117.607177 
L 366.023969 117.604686 
L 362.536469 117.607593 
L 359.048969 117.60344 
L 355.561469 117.598043 
L 352.073969 117.593476 
L 348.586469 117.58268 
L 345.098969 117.579774 
L 341.611469 117.568978 
L 338.123969 117.56192 
L 334.636469 117.572715 
L 331.148969 117.566072 
L 327.661469 117.548218 
L 324.173969 117.549464 
L 320.686469 117.521645 
L 317.198969 117.52289 
L 313.711469 117.505037 
L 310.223969 117.465592 
L 306.736469 117.455212 
L 303.248969 117.48137 
L 299.761469 117.436112 
L 296.273969 117.399989 
L 292.786469 117.356808 
L 289.298969 117.344767 
L 285.811469 117.319855 
L 282.323969 117.30117 
L 278.836469 117.254667 
L 275.348969 117.244287 
L 271.861469 117.14879 
L 268.373969 117.106854 
L 264.886469 117.032117 
L 261.398969 117.010111 
L 257.911469 116.814549 
L 254.423969 116.784654 
L 250.936469 116.591998 
L 247.448969 116.543834 
L 243.961469 116.197553 
L 240.473969 116.1224 
L 236.986469 115.825528 
L 233.498969 115.322298 
L 230.011469 115.08397 
L 226.523969 114.470295 
L 223.036469 113.969141 
L 219.548969 113.055688 
L 216.061469 112.134761 
L 212.573969 110.484316 
L 209.086469 108.397075 
L 205.598969 105.35569 
L 202.111469 102.025322 
L 198.623969 95.486656 
L 195.136469 91.258612 
L 191.648969 86.332191 
L 188.161469 82.748132 
L 184.673969 81.85793 
L 181.186469 84.061429 
L 177.698969 86.803866 
L 174.211469 89.460769 
L 170.723969 91.915053 
L 167.236469 93.536848 
L 163.748969 95.206392 
L 160.261469 96.735596 
L 156.773969 97.923916 
L 153.286469 98.511017 
L 149.798969 97.413628 
L 146.311469 14.123279 
L 142.823969 29.67441 
L 139.336469 34.060647 
L 135.848969 30.937467 
L 132.361469 47.114727 
L 128.873969 60.43537 
L 125.386469 49.402098 
L 121.898969 61.867831 
L 118.411469 70.460522 
L 114.923969 75.79343 
L 111.436469 76.309116 
L 107.948969 80.481937 
L 104.461469 95.036573 
L 100.973969 103.626357 
L 97.486469 110.13845 
L 93.998969 110.586457 
L 90.511469 111.310161 
L 87.023969 112.719371 
L 83.536469 114.408429 
L 80.048969 115.919364 
L 76.561469 115.816393 
L 73.073969 115.636194 
L 69.586469 116.717806 
L 66.098969 117.356393 
z
" clip-path="url(#p36369cc939)" style="fill: #1f77b4; fill-opacity: 0.75; stroke: #1f77b4"/>
   </g>
   <g id="matplotlib.axis_1">
    <g id="xtick_1">
     <g id="line2d_1">
      <defs>
       <path id="m0c6333e9cb" d="M 0 0 
L 0 3.5 
" style="stroke: #000000; stroke-width: 0.8"/>
      </defs>
      <g>
       <use xlink:href="#m0c6333e9cb" x="43.78125" y="117.666137" style="stroke: #000000; stroke-width: 0.8"/>
      </g>
     </g>
     <g id="text_1">
      <!-- −3 -->
      <g transform="translate(36.410156 132.264574)scale(0.1 -0.1)">
       <defs>
        <path id="DejaVuSans-2212" d="M 678 2272 
L 4684 2272 
L 4684 1741 
L 678 1741 
L 678 2272 
z
" transform="scale(0.015625)"/>
        <path id="DejaVuSans-33" d="M 2597 2516 
Q 3050 2419 3304 2112 
Q 3559 1806 3559 1356 
Q 3559 666 3084 287 
Q 2609 -91 1734 -91 
Q 1441 -91 1130 -33 
Q 819 25 488 141 
L 488 750 
Q 750 597 1062 519 
Q 1375 441 1716 441 
Q 2309 441 2620 675 
Q 2931 909 2931 1356 
Q 2931 1769 2642 2001 
Q 2353 2234 1838 2234 
L 1294 2234 
L 1294 2753 
L 1863 2753 
Q 2328 2753 2575 2939 
Q 2822 3125 2822 3475 
Q 2822 3834 2567 4026 
Q 2313 4219 1838 4219 
Q 1578 4219 1281 4162 
Q 984 4106 628 3988 
L 628 4550 
Q 988 4650 1302 4700 
Q 1616 4750 1894 4750 
Q 2613 4750 3031 4423 
Q 3450 4097 3450 3541 
Q 3450 3153 3228 2886 
Q 3006 2619 2597 2516 
z
" transform="scale(0.015625)"/>
       </defs>
       <use xlink:href="#DejaVuSans-2212"/>
       <use xlink:href="#DejaVuSans-33" x="83.789062"/>
      </g>
     </g>
    </g>
    <g id="xtick_2">
     <g id="line2d_2">
      <g>
       <use xlink:href="#m0c6333e9cb" x="78.65625" y="117.666137" style="stroke: #000000; stroke-width: 0.8"/>
      </g>
     </g>
     <g id="text_2">
      <!-- −2 -->
      <g transform="translate(71.285156 132.264574)scale(0.1 -0.1)">
       <defs>
        <path id="DejaVuSans-32" d="M 1228 531 
L 3431 531 
L 3431 0 
L 469 0 
L 469 531 
Q 828 903 1448 1529 
Q 2069 2156 2228 2338 
Q 2531 2678 2651 2914 
Q 2772 3150 2772 3378 
Q 2772 3750 2511 3984 
Q 2250 4219 1831 4219 
Q 1534 4219 1204 4116 
Q 875 4013 500 3803 
L 500 4441 
Q 881 4594 1212 4672 
Q 1544 4750 1819 4750 
Q 2544 4750 2975 4387 
Q 3406 4025 3406 3419 
Q 3406 3131 3298 2873 
Q 3191 2616 2906 2266 
Q 2828 2175 2409 1742 
Q 1991 1309 1228 531 
z
" transform="scale(0.015625)"/>
       </defs>
       <use xlink:href="#DejaVuSans-2212"/>
       <use xlink:href="#DejaVuSans-32" x="83.789062"/>
      </g>
     </g>
    </g>
    <g id="xtick_3">
     <g id="line2d_3">
      <g>
       <use xlink:href="#m0c6333e9cb" x="113.53125" y="117.666137" style="stroke: #000000; stroke-width: 0.8"/>
      </g>
     </g>
     <g id="text_3">
      <!-- −1 -->
      <g transform="translate(106.160156 132.264574)scale(0.1 -0.1)">
       <defs>
        <path id="DejaVuSans-31" d="M 794 531 
L 1825 531 
L 1825 4091 
L 703 3866 
L 703 4441 
L 1819 4666 
L 2450 4666 
L 2450 531 
L 3481 531 
L 3481 0 
L 794 0 
L 794 531 
z
" transform="scale(0.015625)"/>
       </defs>
       <use xlink:href="#DejaVuSans-2212"/>
       <use xlink:href="#DejaVuSans-31" x="83.789062"/>
      </g>
     </g>
    </g>
    <g id="xtick_4">
     <g id="line2d_4">
      <g>
       <use xlink:href="#m0c6333e9cb" x="148.40625" y="117.666137" style="stroke: #000000; stroke-width: 0.8"/>
      </g>
     </g>
     <g id="text_4">
      <!-- 0 -->
      <g transform="translate(145.225 132.264574)scale(0.1 -0.1)">
       <defs>
        <path id="DejaVuSans-30" d="M 2034 4250 
Q 1547 4250 1301 3770 
Q 1056 3291 1056 2328 
Q 1056 1369 1301 889 
Q 1547 409 2034 409 
Q 2525 409 2770 889 
Q 3016 1369 3016 2328 
Q 3016 3291 2770 3770 
Q 2525 4250 2034 4250 
z
M 2034 4750 
Q 2819 4750 3233 4129 
Q 3647 3509 3647 2328 
Q 3647 1150 3233 529 
Q 2819 -91 2034 -91 
Q 1250 -91 836 529 
Q 422 1150 422 2328 
Q 422 3509 836 4129 
Q 1250 4750 2034 4750 
z
" transform="scale(0.015625)"/>
       </defs>
       <use xlink:href="#DejaVuSans-30"/>
      </g>
     </g>
    </g>
    <g id="xtick_5">
     <g id="line2d_5">
      <g>
       <use xlink:href="#m0c6333e9cb" x="183.28125" y="117.666137" style="stroke: #000000; stroke-width: 0.8"/>
      </g>
     </g>
     <g id="text_5">
      <!-- 1 -->
      <g transform="translate(180.1 132.264574)scale(0.1 -0.1)">
       <use xlink:href="#DejaVuSans-31"/>
      </g>
     </g>
    </g>
    <g id="xtick_6">
     <g id="line2d_6">
      <g>
       <use xlink:href="#m0c6333e9cb" x="218.15625" y="117.666137" style="stroke: #000000; stroke-width: 0.8"/>
      </g>
     </g>
     <g id="text_6">
      <!-- 2 -->
      <g transform="translate(214.975 132.264574)scale(0.1 -0.1)">
       <use xlink:href="#DejaVuSans-32"/>
      </g>
     </g>
    </g>
    <g id="xtick_7">
     <g id="line2d_7">
      <g>
       <use xlink:href="#m0c6333e9cb" x="253.03125" y="117.666137" style="stroke: #000000; stroke-width: 0.8"/>
      </g>
     </g>
     <g id="text_7">
      <!-- 3 -->
      <g transform="translate(249.85 132.264574)scale(0.1 -0.1)">
       <use xlink:href="#DejaVuSans-33"/>
      </g>
     </g>
    </g>
    <g id="xtick_8">
     <g id="line2d_8">
      <g>
       <use xlink:href="#m0c6333e9cb" x="287.90625" y="117.666137" style="stroke: #000000; stroke-width: 0.8"/>
      </g>
     </g>
     <g id="text_8">
      <!-- 4 -->
      <g transform="translate(284.725 132.264574)scale(0.1 -0.1)">
       <defs>
        <path id="DejaVuSans-34" d="M 2419 4116 
L 825 1625 
L 2419 1625 
L 2419 4116 
z
M 2253 4666 
L 3047 4666 
L 3047 1625 
L 3713 1625 
L 3713 1100 
L 3047 1100 
L 3047 0 
L 2419 0 
L 2419 1100 
L 313 1100 
L 313 1709 
L 2253 4666 
z
" transform="scale(0.015625)"/>
       </defs>
       <use xlink:href="#DejaVuSans-34"/>
      </g>
     </g>
    </g>
    <g id="xtick_9">
     <g id="line2d_9">
      <g>
       <use xlink:href="#m0c6333e9cb" x="322.78125" y="117.666137" style="stroke: #000000; stroke-width: 0.8"/>
      </g>
     </g>
     <g id="text_9">
      <!-- 5 -->
      <g transform="translate(319.6 132.264574)scale(0.1 -0.1)">
       <defs>
        <path id="DejaVuSans-35" d="M 691 4666 
L 3169 4666 
L 3169 4134 
L 1269 4134 
L 1269 2991 
Q 1406 3038 1543 3061 
Q 1681 3084 1819 3084 
Q 2600 3084 3056 2656 
Q 3513 2228 3513 1497 
Q 3513 744 3044 326 
Q 2575 -91 1722 -91 
Q 1428 -91 1123 -41 
Q 819 9 494 109 
L 494 744 
Q 775 591 1075 516 
Q 1375 441 1709 441 
Q 2250 441 2565 725 
Q 2881 1009 2881 1497 
Q 2881 1984 2565 2268 
Q 2250 2553 1709 2553 
Q 1456 2553 1204 2497 
Q 953 2441 691 2322 
L 691 4666 
z
" transform="scale(0.015625)"/>
       </defs>
       <use xlink:href="#DejaVuSans-35"/>
      </g>
     </g>
    </g>
    <g id="text_10">
     <!-- Pixel intensity -->
     <g transform="translate(148.455469 145.942699)scale(0.1 -0.1)">
      <defs>
       <path id="DejaVuSans-50" d="M 1259 4147 
L 1259 2394 
L 2053 2394 
Q 2494 2394 2734 2622 
Q 2975 2850 2975 3272 
Q 2975 3691 2734 3919 
Q 2494 4147 2053 4147 
L 1259 4147 
z
M 628 4666 
L 2053 4666 
Q 2838 4666 3239 4311 
Q 3641 3956 3641 3272 
Q 3641 2581 3239 2228 
Q 2838 1875 2053 1875 
L 1259 1875 
L 1259 0 
L 628 0 
L 628 4666 
z
" transform="scale(0.015625)"/>
       <path id="DejaVuSans-69" d="M 603 3500 
L 1178 3500 
L 1178 0 
L 603 0 
L 603 3500 
z
M 603 4863 
L 1178 4863 
L 1178 4134 
L 603 4134 
L 603 4863 
z
" transform="scale(0.015625)"/>
       <path id="DejaVuSans-78" d="M 3513 3500 
L 2247 1797 
L 3578 0 
L 2900 0 
L 1881 1375 
L 863 0 
L 184 0 
L 1544 1831 
L 300 3500 
L 978 3500 
L 1906 2253 
L 2834 3500 
L 3513 3500 
z
" transform="scale(0.015625)"/>
       <path id="DejaVuSans-65" d="M 3597 1894 
L 3597 1613 
L 953 1613 
Q 991 1019 1311 708 
Q 1631 397 2203 397 
Q 2534 397 2845 478 
Q 3156 559 3463 722 
L 3463 178 
Q 3153 47 2828 -22 
Q 2503 -91 2169 -91 
Q 1331 -91 842 396 
Q 353 884 353 1716 
Q 353 2575 817 3079 
Q 1281 3584 2069 3584 
Q 2775 3584 3186 3129 
Q 3597 2675 3597 1894 
z
M 3022 2063 
Q 3016 2534 2758 2815 
Q 2500 3097 2075 3097 
Q 1594 3097 1305 2825 
Q 1016 2553 972 2059 
L 3022 2063 
z
" transform="scale(0.015625)"/>
       <path id="DejaVuSans-6c" d="M 603 4863 
L 1178 4863 
L 1178 0 
L 603 0 
L 603 4863 
z
" transform="scale(0.015625)"/>
       <path id="DejaVuSans-20" transform="scale(0.015625)"/>
       <path id="DejaVuSans-6e" d="M 3513 2113 
L 3513 0 
L 2938 0 
L 2938 2094 
Q 2938 2591 2744 2837 
Q 2550 3084 2163 3084 
Q 1697 3084 1428 2787 
Q 1159 2491 1159 1978 
L 1159 0 
L 581 0 
L 581 3500 
L 1159 3500 
L 1159 2956 
Q 1366 3272 1645 3428 
Q 1925 3584 2291 3584 
Q 2894 3584 3203 3211 
Q 3513 2838 3513 2113 
z
" transform="scale(0.015625)"/>
       <path id="DejaVuSans-74" d="M 1172 4494 
L 1172 3500 
L 2356 3500 
L 2356 3053 
L 1172 3053 
L 1172 1153 
Q 1172 725 1289 603 
Q 1406 481 1766 481 
L 2356 481 
L 2356 0 
L 1766 0 
Q 1100 0 847 248 
Q 594 497 594 1153 
L 594 3053 
L 172 3053 
L 172 3500 
L 594 3500 
L 594 4494 
L 1172 4494 
z
" transform="scale(0.015625)"/>
       <path id="DejaVuSans-73" d="M 2834 3397 
L 2834 2853 
Q 2591 2978 2328 3040 
Q 2066 3103 1784 3103 
Q 1356 3103 1142 2972 
Q 928 2841 928 2578 
Q 928 2378 1081 2264 
Q 1234 2150 1697 2047 
L 1894 2003 
Q 2506 1872 2764 1633 
Q 3022 1394 3022 966 
Q 3022 478 2636 193 
Q 2250 -91 1575 -91 
Q 1294 -91 989 -36 
Q 684 19 347 128 
L 347 722 
Q 666 556 975 473 
Q 1284 391 1588 391 
Q 1994 391 2212 530 
Q 2431 669 2431 922 
Q 2431 1156 2273 1281 
Q 2116 1406 1581 1522 
L 1381 1569 
Q 847 1681 609 1914 
Q 372 2147 372 2553 
Q 372 3047 722 3315 
Q 1072 3584 1716 3584 
Q 2034 3584 2315 3537 
Q 2597 3491 2834 3397 
z
" transform="scale(0.015625)"/>
       <path id="DejaVuSans-79" d="M 2059 -325 
Q 1816 -950 1584 -1140 
Q 1353 -1331 966 -1331 
L 506 -1331 
L 506 -850 
L 844 -850 
Q 1081 -850 1212 -737 
Q 1344 -625 1503 -206 
L 1606 56 
L 191 3500 
L 800 3500 
L 1894 763 
L 2988 3500 
L 3597 3500 
L 2059 -325 
z
" transform="scale(0.015625)"/>
      </defs>
      <use xlink:href="#DejaVuSans-50"/>
      <use xlink:href="#DejaVuSans-69" x="58.052734"/>
      <use xlink:href="#DejaVuSans-78" x="85.835938"/>
      <use xlink:href="#DejaVuSans-65" x="141.890625"/>
      <use xlink:href="#DejaVuSans-6c" x="203.414062"/>
      <use xlink:href="#DejaVuSans-20" x="231.197266"/>
      <use xlink:href="#DejaVuSans-69" x="262.984375"/>
      <use xlink:href="#DejaVuSans-6e" x="290.767578"/>
      <use xlink:href="#DejaVuSans-74" x="354.146484"/>
      <use xlink:href="#DejaVuSans-65" x="393.355469"/>
      <use xlink:href="#DejaVuSans-6e" x="454.878906"/>
      <use xlink:href="#DejaVuSans-73" x="518.257812"/>
      <use xlink:href="#DejaVuSans-69" x="570.357422"/>
      <use xlink:href="#DejaVuSans-74" x="598.140625"/>
      <use xlink:href="#DejaVuSans-79" x="637.349609"/>
     </g>
    </g>
   </g>
   <g id="matplotlib.axis_2">
    <g id="ytick_1">
     <g id="line2d_10">
      <defs>
       <path id="m03f2c61186" d="M 0 0 
L -3.5 0 
" style="stroke: #000000; stroke-width: 0.8"/>
      </defs>
      <g>
       <use xlink:href="#m03f2c61186" x="43.78125" y="117.666137" style="stroke: #000000; stroke-width: 0.8"/>
      </g>
     </g>
     <g id="text_11">
      <!-- 0.0 -->
      <g transform="translate(20.878125 121.465355)scale(0.1 -0.1)">
       <defs>
        <path id="DejaVuSans-2e" d="M 684 794 
L 1344 794 
L 1344 0 
L 684 0 
L 684 794 
z
" transform="scale(0.015625)"/>
       </defs>
       <use xlink:href="#DejaVuSans-30"/>
       <use xlink:href="#DejaVuSans-2e" x="63.623047"/>
       <use xlink:href="#DejaVuSans-30" x="95.410156"/>
      </g>
     </g>
    </g>
    <g id="ytick_2">
     <g id="line2d_11">
      <g>
       <use xlink:href="#m03f2c61186" x="43.78125" y="90.999407" style="stroke: #000000; stroke-width: 0.8"/>
      </g>
     </g>
     <g id="text_12">
      <!-- 0.2 -->
      <g transform="translate(20.878125 94.798626)scale(0.1 -0.1)">
       <use xlink:href="#DejaVuSans-30"/>
       <use xlink:href="#DejaVuSans-2e" x="63.623047"/>
       <use xlink:href="#DejaVuSans-32" x="95.410156"/>
      </g>
     </g>
    </g>
    <g id="ytick_3">
     <g id="line2d_12">
      <g>
       <use xlink:href="#m03f2c61186" x="43.78125" y="64.332678" style="stroke: #000000; stroke-width: 0.8"/>
      </g>
     </g>
     <g id="text_13">
      <!-- 0.4 -->
      <g transform="translate(20.878125 68.131896)scale(0.1 -0.1)">
       <use xlink:href="#DejaVuSans-30"/>
       <use xlink:href="#DejaVuSans-2e" x="63.623047"/>
       <use xlink:href="#DejaVuSans-34" x="95.410156"/>
      </g>
     </g>
    </g>
    <g id="ytick_4">
     <g id="line2d_13">
      <g>
       <use xlink:href="#m03f2c61186" x="43.78125" y="37.665948" style="stroke: #000000; stroke-width: 0.8"/>
      </g>
     </g>
     <g id="text_14">
      <!-- 0.6 -->
      <g transform="translate(20.878125 41.465167)scale(0.1 -0.1)">
       <defs>
        <path id="DejaVuSans-36" d="M 2113 2584 
Q 1688 2584 1439 2293 
Q 1191 2003 1191 1497 
Q 1191 994 1439 701 
Q 1688 409 2113 409 
Q 2538 409 2786 701 
Q 3034 994 3034 1497 
Q 3034 2003 2786 2293 
Q 2538 2584 2113 2584 
z
M 3366 4563 
L 3366 3988 
Q 3128 4100 2886 4159 
Q 2644 4219 2406 4219 
Q 1781 4219 1451 3797 
Q 1122 3375 1075 2522 
Q 1259 2794 1537 2939 
Q 1816 3084 2150 3084 
Q 2853 3084 3261 2657 
Q 3669 2231 3669 1497 
Q 3669 778 3244 343 
Q 2819 -91 2113 -91 
Q 1303 -91 875 529 
Q 447 1150 447 2328 
Q 447 3434 972 4092 
Q 1497 4750 2381 4750 
Q 2619 4750 2861 4703 
Q 3103 4656 3366 4563 
z
" transform="scale(0.015625)"/>
       </defs>
       <use xlink:href="#DejaVuSans-30"/>
       <use xlink:href="#DejaVuSans-2e" x="63.623047"/>
       <use xlink:href="#DejaVuSans-36" x="95.410156"/>
      </g>
     </g>
    </g>
    <g id="ytick_5">
     <g id="line2d_14">
      <g>
       <use xlink:href="#m03f2c61186" x="43.78125" y="10.999219" style="stroke: #000000; stroke-width: 0.8"/>
      </g>
     </g>
     <g id="text_15">
      <!-- 0.8 -->
      <g transform="translate(20.878125 14.798438)scale(0.1 -0.1)">
       <defs>
        <path id="DejaVuSans-38" d="M 2034 2216 
Q 1584 2216 1326 1975 
Q 1069 1734 1069 1313 
Q 1069 891 1326 650 
Q 1584 409 2034 409 
Q 2484 409 2743 651 
Q 3003 894 3003 1313 
Q 3003 1734 2745 1975 
Q 2488 2216 2034 2216 
z
M 1403 2484 
Q 997 2584 770 2862 
Q 544 3141 544 3541 
Q 544 4100 942 4425 
Q 1341 4750 2034 4750 
Q 2731 4750 3128 4425 
Q 3525 4100 3525 3541 
Q 3525 3141 3298 2862 
Q 3072 2584 2669 2484 
Q 3125 2378 3379 2068 
Q 3634 1759 3634 1313 
Q 3634 634 3220 271 
Q 2806 -91 2034 -91 
Q 1263 -91 848 271 
Q 434 634 434 1313 
Q 434 1759 690 2068 
Q 947 2378 1403 2484 
z
M 1172 3481 
Q 1172 3119 1398 2916 
Q 1625 2713 2034 2713 
Q 2441 2713 2670 2916 
Q 2900 3119 2900 3481 
Q 2900 3844 2670 4047 
Q 2441 4250 2034 4250 
Q 1625 4250 1398 4047 
Q 1172 3844 1172 3481 
z
" transform="scale(0.015625)"/>
       </defs>
       <use xlink:href="#DejaVuSans-30"/>
       <use xlink:href="#DejaVuSans-2e" x="63.623047"/>
       <use xlink:href="#DejaVuSans-38" x="95.410156"/>
      </g>
     </g>
    </g>
    <g id="text_16">
     <!-- Density -->
     <g transform="translate(14.798438 82.31473)rotate(-90)scale(0.1 -0.1)">
      <defs>
       <path id="DejaVuSans-44" d="M 1259 4147 
L 1259 519 
L 2022 519 
Q 2988 519 3436 956 
Q 3884 1394 3884 2338 
Q 3884 3275 3436 3711 
Q 2988 4147 2022 4147 
L 1259 4147 
z
M 628 4666 
L 1925 4666 
Q 3281 4666 3915 4102 
Q 4550 3538 4550 2338 
Q 4550 1131 3912 565 
Q 3275 0 1925 0 
L 628 0 
L 628 4666 
z
" transform="scale(0.015625)"/>
      </defs>
      <use xlink:href="#DejaVuSans-44"/>
      <use xlink:href="#DejaVuSans-65" x="77.001953"/>
      <use xlink:href="#DejaVuSans-6e" x="138.525391"/>
      <use xlink:href="#DejaVuSans-73" x="201.904297"/>
      <use xlink:href="#DejaVuSans-69" x="254.003906"/>
      <use xlink:href="#DejaVuSans-74" x="281.787109"/>
      <use xlink:href="#DejaVuSans-79" x="320.996094"/>
     </g>
    </g>
   </g>
   <g id="patch_3">
    <path d="M 43.78125 117.666137 
L 43.78125 8.946137 
" style="fill: none; stroke: #000000; stroke-width: 0.8; stroke-linejoin: miter; stroke-linecap: square"/>
   </g>
   <g id="patch_4">
    <path d="M 322.78125 117.666137 
L 322.78125 8.946137 
" style="fill: none; stroke: #000000; stroke-width: 0.8; stroke-linejoin: miter; stroke-linecap: square"/>
   </g>
   <g id="patch_5">
    <path d="M 43.78125 117.666137 
L 322.78125 117.666137 
" style="fill: none; stroke: #000000; stroke-width: 0.8; stroke-linejoin: miter; stroke-linecap: square"/>
   </g>
   <g id="patch_6">
    <path d="M 43.78125 8.946137 
L 322.78125 8.946137 
" style="fill: none; stroke: #000000; stroke-width: 0.8; stroke-linejoin: miter; stroke-linecap: square"/>
   </g>
  </g>
 </g>
 <defs>
  <clipPath id="p36369cc939">
   <rect x="43.78125" y="8.946137" width="279" height="108.72"/>
  </clipPath>
 </defs>
</svg>
