<?xml version="1.0" encoding="utf-8" standalone="no"?>
<!DOCTYPE svg PUBLIC "-//W3C//DTD SVG 1.1//EN"
  "http://www.w3.org/Graphics/SVG/1.1/DTD/svg11.dtd">
<svg xmlns:xlink="http://www.w3.org/1999/xlink" width="1308.77425pt" height="614.649375pt" viewBox="0 0 1308.77425 614.649375" xmlns="http://www.w3.org/2000/svg" version="1.1">
 <metadata>
  <rdf:RDF xmlns:dc="http://purl.org/dc/elements/1.1/" xmlns:cc="http://creativecommons.org/ns#" xmlns:rdf="http://www.w3.org/1999/02/22-rdf-syntax-ns#">
   <cc:Work>
    <dc:type rdf:resource="http://purl.org/dc/dcmitype/StillImage"/>
    <dc:date>2022-02-26T16:50:48.748216</dc:date>
    <dc:format>image/svg+xml</dc:format>
    <dc:creator>
     <cc:Agent>
      <dc:title>Matplotlib v3.5.1, https://matplotlib.org/</dc:title>
     </cc:Agent>
    </dc:creator>
   </cc:Work>
  </rdf:RDF>
 </metadata>
 <defs>
  <style type="text/css">*{stroke-linejoin: round; stroke-linecap: butt}</style>
 </defs>
 <g id="figure_1">
  <g id="patch_1">
   <path d="M 0 614.649375 
L 1308.77425 614.649375 
L 1308.77425 0 
L 0 0 
z
" style="fill: #f0f0f0"/>
  </g>
  <g id="axes_1">
   <g id="patch_2">
    <path d="M 48.77425 590.4 
L 1301.57425 590.4 
L 1301.57425 7.2 
L 48.77425 7.2 
z
" style="fill: #f0f0f0"/>
   </g>
   <g id="matplotlib.axis_1">
    <g id="xtick_1">
     <g id="line2d_1">
      <path d="M 96.92504 590.4 
L 96.92504 7.2 
" clip-path="url(#p6cae9837e1)" style="fill: none; stroke: #cbcbcb"/>
     </g>
     <g id="line2d_2"/>
     <g id="text_1">
      <!-- 100 -->
      <g transform="translate(83.56379 604.537812)scale(0.14 -0.14)">
       <defs>
        <path id="DejaVuSans-31" d="M 794 531 
L 1825 531 
L 1825 4091 
L 703 3866 
L 703 4441 
L 1819 4666 
L 2450 4666 
L 2450 531 
L 3481 531 
L 3481 0 
L 794 0 
L 794 531 
z
" transform="scale(0.015625)"/>
        <path id="DejaVuSans-30" d="M 2034 4250 
Q 1547 4250 1301 3770 
Q 1056 3291 1056 2328 
Q 1056 1369 1301 889 
Q 1547 409 2034 409 
Q 2525 409 2770 889 
Q 3016 1369 3016 2328 
Q 3016 3291 2770 3770 
Q 2525 4250 2034 4250 
z
M 2034 4750 
Q 2819 4750 3233 4129 
Q 3647 3509 3647 2328 
Q 3647 1150 3233 529 
Q 2819 -91 2034 -91 
Q 1250 -91 836 529 
Q 422 1150 422 2328 
Q 422 3509 836 4129 
Q 1250 4750 2034 4750 
z
" transform="scale(0.015625)"/>
       </defs>
       <use xlink:href="#DejaVuSans-31"/>
       <use xlink:href="#DejaVuSans-30" x="63.623047"/>
       <use xlink:href="#DejaVuSans-30" x="127.246094"/>
      </g>
     </g>
    </g>
    <g id="xtick_2">
     <g id="line2d_3">
      <path d="M 316.79166 590.4 
L 316.79166 7.2 
" clip-path="url(#p6cae9837e1)" style="fill: none; stroke: #cbcbcb"/>
     </g>
     <g id="line2d_4"/>
     <g id="text_2">
      <!-- 200 -->
      <g transform="translate(303.43041 604.537812)scale(0.14 -0.14)">
       <defs>
        <path id="DejaVuSans-32" d="M 1228 531 
L 3431 531 
L 3431 0 
L 469 0 
L 469 531 
Q 828 903 1448 1529 
Q 2069 2156 2228 2338 
Q 2531 2678 2651 2914 
Q 2772 3150 2772 3378 
Q 2772 3750 2511 3984 
Q 2250 4219 1831 4219 
Q 1534 4219 1204 4116 
Q 875 4013 500 3803 
L 500 4441 
Q 881 4594 1212 4672 
Q 1544 4750 1819 4750 
Q 2544 4750 2975 4387 
Q 3406 4025 3406 3419 
Q 3406 3131 3298 2873 
Q 3191 2616 2906 2266 
Q 2828 2175 2409 1742 
Q 1991 1309 1228 531 
z
" transform="scale(0.015625)"/>
       </defs>
       <use xlink:href="#DejaVuSans-32"/>
       <use xlink:href="#DejaVuSans-30" x="63.623047"/>
       <use xlink:href="#DejaVuSans-30" x="127.246094"/>
      </g>
     </g>
    </g>
    <g id="xtick_3">
     <g id="line2d_5">
      <path d="M 536.658279 590.4 
L 536.658279 7.2 
" clip-path="url(#p6cae9837e1)" style="fill: none; stroke: #cbcbcb"/>
     </g>
     <g id="line2d_6"/>
     <g id="text_3">
      <!-- 300 -->
      <g transform="translate(523.297029 604.537812)scale(0.14 -0.14)">
       <defs>
        <path id="DejaVuSans-33" d="M 2597 2516 
Q 3050 2419 3304 2112 
Q 3559 1806 3559 1356 
Q 3559 666 3084 287 
Q 2609 -91 1734 -91 
Q 1441 -91 1130 -33 
Q 819 25 488 141 
L 488 750 
Q 750 597 1062 519 
Q 1375 441 1716 441 
Q 2309 441 2620 675 
Q 2931 909 2931 1356 
Q 2931 1769 2642 2001 
Q 2353 2234 1838 2234 
L 1294 2234 
L 1294 2753 
L 1863 2753 
Q 2328 2753 2575 2939 
Q 2822 3125 2822 3475 
Q 2822 3834 2567 4026 
Q 2313 4219 1838 4219 
Q 1578 4219 1281 4162 
Q 984 4106 628 3988 
L 628 4550 
Q 988 4650 1302 4700 
Q 1616 4750 1894 4750 
Q 2613 4750 3031 4423 
Q 3450 4097 3450 3541 
Q 3450 3153 3228 2886 
Q 3006 2619 2597 2516 
z
" transform="scale(0.015625)"/>
       </defs>
       <use xlink:href="#DejaVuSans-33"/>
       <use xlink:href="#DejaVuSans-30" x="63.623047"/>
       <use xlink:href="#DejaVuSans-30" x="127.246094"/>
      </g>
     </g>
    </g>
    <g id="xtick_4">
     <g id="line2d_7">
      <path d="M 756.524899 590.4 
L 756.524899 7.2 
" clip-path="url(#p6cae9837e1)" style="fill: none; stroke: #cbcbcb"/>
     </g>
     <g id="line2d_8"/>
     <g id="text_4">
      <!-- 400 -->
      <g transform="translate(743.163649 604.537812)scale(0.14 -0.14)">
       <defs>
        <path id="DejaVuSans-34" d="M 2419 4116 
L 825 1625 
L 2419 1625 
L 2419 4116 
z
M 2253 4666 
L 3047 4666 
L 3047 1625 
L 3713 1625 
L 3713 1100 
L 3047 1100 
L 3047 0 
L 2419 0 
L 2419 1100 
L 313 1100 
L 313 1709 
L 2253 4666 
z
" transform="scale(0.015625)"/>
       </defs>
       <use xlink:href="#DejaVuSans-34"/>
       <use xlink:href="#DejaVuSans-30" x="63.623047"/>
       <use xlink:href="#DejaVuSans-30" x="127.246094"/>
      </g>
     </g>
    </g>
    <g id="xtick_5">
     <g id="line2d_9">
      <path d="M 976.391519 590.4 
L 976.391519 7.2 
" clip-path="url(#p6cae9837e1)" style="fill: none; stroke: #cbcbcb"/>
     </g>
     <g id="line2d_10"/>
     <g id="text_5">
      <!-- 500 -->
      <g transform="translate(963.030269 604.537812)scale(0.14 -0.14)">
       <defs>
        <path id="DejaVuSans-35" d="M 691 4666 
L 3169 4666 
L 3169 4134 
L 1269 4134 
L 1269 2991 
Q 1406 3038 1543 3061 
Q 1681 3084 1819 3084 
Q 2600 3084 3056 2656 
Q 3513 2228 3513 1497 
Q 3513 744 3044 326 
Q 2575 -91 1722 -91 
Q 1428 -91 1123 -41 
Q 819 9 494 109 
L 494 744 
Q 775 591 1075 516 
Q 1375 441 1709 441 
Q 2250 441 2565 725 
Q 2881 1009 2881 1497 
Q 2881 1984 2565 2268 
Q 2250 2553 1709 2553 
Q 1456 2553 1204 2497 
Q 953 2441 691 2322 
L 691 4666 
z
" transform="scale(0.015625)"/>
       </defs>
       <use xlink:href="#DejaVuSans-35"/>
       <use xlink:href="#DejaVuSans-30" x="63.623047"/>
       <use xlink:href="#DejaVuSans-30" x="127.246094"/>
      </g>
     </g>
    </g>
    <g id="xtick_6">
     <g id="line2d_11">
      <path d="M 1196.258139 590.4 
L 1196.258139 7.2 
" clip-path="url(#p6cae9837e1)" style="fill: none; stroke: #cbcbcb"/>
     </g>
     <g id="line2d_12"/>
     <g id="text_6">
      <!-- 600 -->
      <g transform="translate(1182.896889 604.537812)scale(0.14 -0.14)">
       <defs>
        <path id="DejaVuSans-36" d="M 2113 2584 
Q 1688 2584 1439 2293 
Q 1191 2003 1191 1497 
Q 1191 994 1439 701 
Q 1688 409 2113 409 
Q 2538 409 2786 701 
Q 3034 994 3034 1497 
Q 3034 2003 2786 2293 
Q 2538 2584 2113 2584 
z
M 3366 4563 
L 3366 3988 
Q 3128 4100 2886 4159 
Q 2644 4219 2406 4219 
Q 1781 4219 1451 3797 
Q 1122 3375 1075 2522 
Q 1259 2794 1537 2939 
Q 1816 3084 2150 3084 
Q 2853 3084 3261 2657 
Q 3669 2231 3669 1497 
Q 3669 778 3244 343 
Q 2819 -91 2113 -91 
Q 1303 -91 875 529 
Q 447 1150 447 2328 
Q 447 3434 972 4092 
Q 1497 4750 2381 4750 
Q 2619 4750 2861 4703 
Q 3103 4656 3366 4563 
z
" transform="scale(0.015625)"/>
       </defs>
       <use xlink:href="#DejaVuSans-36"/>
       <use xlink:href="#DejaVuSans-30" x="63.623047"/>
       <use xlink:href="#DejaVuSans-30" x="127.246094"/>
      </g>
     </g>
    </g>
   </g>
   <g id="matplotlib.axis_2">
    <g id="ytick_1">
     <g id="line2d_13">
      <path d="M 48.77425 590.4 
L 1301.57425 590.4 
" clip-path="url(#p6cae9837e1)" style="fill: none; stroke: #cbcbcb"/>
     </g>
     <g id="line2d_14"/>
     <g id="text_7">
      <!-- 0 -->
      <g transform="translate(36.36675 595.718906)scale(0.14 -0.14)">
       <use xlink:href="#DejaVuSans-30"/>
      </g>
     </g>
    </g>
    <g id="ytick_2">
     <g id="line2d_15">
      <path d="M 48.77425 511.053061 
L 1301.57425 511.053061 
" clip-path="url(#p6cae9837e1)" style="fill: none; stroke: #cbcbcb"/>
     </g>
     <g id="line2d_16"/>
     <g id="text_8">
      <!-- 2 -->
      <g transform="translate(36.36675 516.371967)scale(0.14 -0.14)">
       <use xlink:href="#DejaVuSans-32"/>
      </g>
     </g>
    </g>
    <g id="ytick_3">
     <g id="line2d_17">
      <path d="M 48.77425 431.706122 
L 1301.57425 431.706122 
" clip-path="url(#p6cae9837e1)" style="fill: none; stroke: #cbcbcb"/>
     </g>
     <g id="line2d_18"/>
     <g id="text_9">
      <!-- 4 -->
      <g transform="translate(36.36675 437.025029)scale(0.14 -0.14)">
       <use xlink:href="#DejaVuSans-34"/>
      </g>
     </g>
    </g>
    <g id="ytick_4">
     <g id="line2d_19">
      <path d="M 48.77425 352.359184 
L 1301.57425 352.359184 
" clip-path="url(#p6cae9837e1)" style="fill: none; stroke: #cbcbcb"/>
     </g>
     <g id="line2d_20"/>
     <g id="text_10">
      <!-- 6 -->
      <g transform="translate(36.36675 357.67809)scale(0.14 -0.14)">
       <use xlink:href="#DejaVuSans-36"/>
      </g>
     </g>
    </g>
    <g id="ytick_5">
     <g id="line2d_21">
      <path d="M 48.77425 273.012245 
L 1301.57425 273.012245 
" clip-path="url(#p6cae9837e1)" style="fill: none; stroke: #cbcbcb"/>
     </g>
     <g id="line2d_22"/>
     <g id="text_11">
      <!-- 8 -->
      <g transform="translate(36.36675 278.331151)scale(0.14 -0.14)">
       <defs>
        <path id="DejaVuSans-38" d="M 2034 2216 
Q 1584 2216 1326 1975 
Q 1069 1734 1069 1313 
Q 1069 891 1326 650 
Q 1584 409 2034 409 
Q 2484 409 2743 651 
Q 3003 894 3003 1313 
Q 3003 1734 2745 1975 
Q 2488 2216 2034 2216 
z
M 1403 2484 
Q 997 2584 770 2862 
Q 544 3141 544 3541 
Q 544 4100 942 4425 
Q 1341 4750 2034 4750 
Q 2731 4750 3128 4425 
Q 3525 4100 3525 3541 
Q 3525 3141 3298 2862 
Q 3072 2584 2669 2484 
Q 3125 2378 3379 2068 
Q 3634 1759 3634 1313 
Q 3634 634 3220 271 
Q 2806 -91 2034 -91 
Q 1263 -91 848 271 
Q 434 634 434 1313 
Q 434 1759 690 2068 
Q 947 2378 1403 2484 
z
M 1172 3481 
Q 1172 3119 1398 2916 
Q 1625 2713 2034 2713 
Q 2441 2713 2670 2916 
Q 2900 3119 2900 3481 
Q 2900 3844 2670 4047 
Q 2441 4250 2034 4250 
Q 1625 4250 1398 4047 
Q 1172 3844 1172 3481 
z
" transform="scale(0.015625)"/>
       </defs>
       <use xlink:href="#DejaVuSans-38"/>
      </g>
     </g>
    </g>
    <g id="ytick_6">
     <g id="line2d_23">
      <path d="M 48.77425 193.665306 
L 1301.57425 193.665306 
" clip-path="url(#p6cae9837e1)" style="fill: none; stroke: #cbcbcb"/>
     </g>
     <g id="line2d_24"/>
     <g id="text_12">
      <!-- 10 -->
      <g transform="translate(27.45925 198.984212)scale(0.14 -0.14)">
       <use xlink:href="#DejaVuSans-31"/>
       <use xlink:href="#DejaVuSans-30" x="63.623047"/>
      </g>
     </g>
    </g>
    <g id="ytick_7">
     <g id="line2d_25">
      <path d="M 48.77425 114.318367 
L 1301.57425 114.318367 
" clip-path="url(#p6cae9837e1)" style="fill: none; stroke: #cbcbcb"/>
     </g>
     <g id="line2d_26"/>
     <g id="text_13">
      <!-- 12 -->
      <g transform="translate(27.45925 119.637274)scale(0.14 -0.14)">
       <use xlink:href="#DejaVuSans-31"/>
       <use xlink:href="#DejaVuSans-32" x="63.623047"/>
      </g>
     </g>
    </g>
    <g id="ytick_8">
     <g id="line2d_27">
      <path d="M 48.77425 34.971429 
L 1301.57425 34.971429 
" clip-path="url(#p6cae9837e1)" style="fill: none; stroke: #cbcbcb"/>
     </g>
     <g id="line2d_28"/>
     <g id="text_14">
      <!-- 14 -->
      <g transform="translate(27.45925 40.290335)scale(0.14 -0.14)">
       <use xlink:href="#DejaVuSans-31"/>
       <use xlink:href="#DejaVuSans-34" x="63.623047"/>
      </g>
     </g>
    </g>
    <g id="text_15">
     <!-- Frequency -->
     <g transform="translate(19.965375 342.193875)rotate(-90)scale(0.168 -0.168)">
      <defs>
       <path id="DejaVuSans-46" d="M 628 4666 
L 3309 4666 
L 3309 4134 
L 1259 4134 
L 1259 2759 
L 3109 2759 
L 3109 2228 
L 1259 2228 
L 1259 0 
L 628 0 
L 628 4666 
z
" transform="scale(0.015625)"/>
       <path id="DejaVuSans-72" d="M 2631 2963 
Q 2534 3019 2420 3045 
Q 2306 3072 2169 3072 
Q 1681 3072 1420 2755 
Q 1159 2438 1159 1844 
L 1159 0 
L 581 0 
L 581 3500 
L 1159 3500 
L 1159 2956 
Q 1341 3275 1631 3429 
Q 1922 3584 2338 3584 
Q 2397 3584 2469 3576 
Q 2541 3569 2628 3553 
L 2631 2963 
z
" transform="scale(0.015625)"/>
       <path id="DejaVuSans-65" d="M 3597 1894 
L 3597 1613 
L 953 1613 
Q 991 1019 1311 708 
Q 1631 397 2203 397 
Q 2534 397 2845 478 
Q 3156 559 3463 722 
L 3463 178 
Q 3153 47 2828 -22 
Q 2503 -91 2169 -91 
Q 1331 -91 842 396 
Q 353 884 353 1716 
Q 353 2575 817 3079 
Q 1281 3584 2069 3584 
Q 2775 3584 3186 3129 
Q 3597 2675 3597 1894 
z
M 3022 2063 
Q 3016 2534 2758 2815 
Q 2500 3097 2075 3097 
Q 1594 3097 1305 2825 
Q 1016 2553 972 2059 
L 3022 2063 
z
" transform="scale(0.015625)"/>
       <path id="DejaVuSans-71" d="M 947 1747 
Q 947 1113 1208 752 
Q 1469 391 1925 391 
Q 2381 391 2643 752 
Q 2906 1113 2906 1747 
Q 2906 2381 2643 2742 
Q 2381 3103 1925 3103 
Q 1469 3103 1208 2742 
Q 947 2381 947 1747 
z
M 2906 525 
Q 2725 213 2448 61 
Q 2172 -91 1784 -91 
Q 1150 -91 751 415 
Q 353 922 353 1747 
Q 353 2572 751 3078 
Q 1150 3584 1784 3584 
Q 2172 3584 2448 3432 
Q 2725 3281 2906 2969 
L 2906 3500 
L 3481 3500 
L 3481 -1331 
L 2906 -1331 
L 2906 525 
z
" transform="scale(0.015625)"/>
       <path id="DejaVuSans-75" d="M 544 1381 
L 544 3500 
L 1119 3500 
L 1119 1403 
Q 1119 906 1312 657 
Q 1506 409 1894 409 
Q 2359 409 2629 706 
Q 2900 1003 2900 1516 
L 2900 3500 
L 3475 3500 
L 3475 0 
L 2900 0 
L 2900 538 
Q 2691 219 2414 64 
Q 2138 -91 1772 -91 
Q 1169 -91 856 284 
Q 544 659 544 1381 
z
M 1991 3584 
L 1991 3584 
z
" transform="scale(0.015625)"/>
       <path id="DejaVuSans-6e" d="M 3513 2113 
L 3513 0 
L 2938 0 
L 2938 2094 
Q 2938 2591 2744 2837 
Q 2550 3084 2163 3084 
Q 1697 3084 1428 2787 
Q 1159 2491 1159 1978 
L 1159 0 
L 581 0 
L 581 3500 
L 1159 3500 
L 1159 2956 
Q 1366 3272 1645 3428 
Q 1925 3584 2291 3584 
Q 2894 3584 3203 3211 
Q 3513 2838 3513 2113 
z
" transform="scale(0.015625)"/>
       <path id="DejaVuSans-63" d="M 3122 3366 
L 3122 2828 
Q 2878 2963 2633 3030 
Q 2388 3097 2138 3097 
Q 1578 3097 1268 2742 
Q 959 2388 959 1747 
Q 959 1106 1268 751 
Q 1578 397 2138 397 
Q 2388 397 2633 464 
Q 2878 531 3122 666 
L 3122 134 
Q 2881 22 2623 -34 
Q 2366 -91 2075 -91 
Q 1284 -91 818 406 
Q 353 903 353 1747 
Q 353 2603 823 3093 
Q 1294 3584 2113 3584 
Q 2378 3584 2631 3529 
Q 2884 3475 3122 3366 
z
" transform="scale(0.015625)"/>
       <path id="DejaVuSans-79" d="M 2059 -325 
Q 1816 -950 1584 -1140 
Q 1353 -1331 966 -1331 
L 506 -1331 
L 506 -850 
L 844 -850 
Q 1081 -850 1212 -737 
Q 1344 -625 1503 -206 
L 1606 56 
L 191 3500 
L 800 3500 
L 1894 763 
L 2988 3500 
L 3597 3500 
L 2059 -325 
z
" transform="scale(0.015625)"/>
      </defs>
      <use xlink:href="#DejaVuSans-46"/>
      <use xlink:href="#DejaVuSans-72" x="50.269531"/>
      <use xlink:href="#DejaVuSans-65" x="89.132812"/>
      <use xlink:href="#DejaVuSans-71" x="150.65625"/>
      <use xlink:href="#DejaVuSans-75" x="214.132812"/>
      <use xlink:href="#DejaVuSans-65" x="277.511719"/>
      <use xlink:href="#DejaVuSans-6e" x="339.035156"/>
      <use xlink:href="#DejaVuSans-63" x="402.414062"/>
      <use xlink:href="#DejaVuSans-79" x="457.394531"/>
     </g>
    </g>
   </g>
   <g id="patch_3">
    <path d="M 105.719705 590.4 
L 151.276068 590.4 
L 151.276068 273.012245 
L 105.719705 273.012245 
z
" clip-path="url(#p6cae9837e1)" style="fill: #008fd5; opacity: 0.5"/>
   </g>
   <g id="patch_4">
    <path d="M 151.276068 590.4 
L 196.832432 590.4 
L 196.832432 153.991837 
L 151.276068 153.991837 
z
" clip-path="url(#p6cae9837e1)" style="fill: #008fd5; opacity: 0.5"/>
   </g>
   <g id="patch_5">
    <path d="M 196.832432 590.4 
L 242.388795 590.4 
L 242.388795 233.338776 
L 196.832432 233.338776 
z
" clip-path="url(#p6cae9837e1)" style="fill: #008fd5; opacity: 0.5"/>
   </g>
   <g id="patch_6">
    <path d="M 242.388795 590.4 
L 287.945159 590.4 
L 287.945159 114.318367 
L 242.388795 114.318367 
z
" clip-path="url(#p6cae9837e1)" style="fill: #008fd5; opacity: 0.5"/>
   </g>
   <g id="patch_7">
    <path d="M 287.945159 590.4 
L 333.501523 590.4 
L 333.501523 153.991837 
L 287.945159 153.991837 
z
" clip-path="url(#p6cae9837e1)" style="fill: #008fd5; opacity: 0.5"/>
   </g>
   <g id="patch_8">
    <path d="M 333.501523 590.4 
L 379.057886 590.4 
L 379.057886 431.706122 
L 333.501523 431.706122 
z
" clip-path="url(#p6cae9837e1)" style="fill: #008fd5; opacity: 0.5"/>
   </g>
   <g id="patch_9">
    <path d="M 379.057886 590.4 
L 424.61425 590.4 
L 424.61425 34.971429 
L 379.057886 34.971429 
z
" clip-path="url(#p6cae9837e1)" style="fill: #008fd5; opacity: 0.5"/>
   </g>
   <g id="patch_10">
    <path d="M 424.61425 590.4 
L 470.170614 590.4 
L 470.170614 392.032653 
L 424.61425 392.032653 
z
" clip-path="url(#p6cae9837e1)" style="fill: #008fd5; opacity: 0.5"/>
   </g>
   <g id="patch_11">
    <path d="M 470.170614 590.4 
L 515.726977 590.4 
L 515.726977 312.685714 
L 470.170614 312.685714 
z
" clip-path="url(#p6cae9837e1)" style="fill: #008fd5; opacity: 0.5"/>
   </g>
   <g id="patch_12">
    <path d="M 515.726977 590.4 
L 561.283341 590.4 
L 561.283341 312.685714 
L 515.726977 312.685714 
z
" clip-path="url(#p6cae9837e1)" style="fill: #008fd5; opacity: 0.5"/>
   </g>
   <g id="patch_13">
    <path d="M 561.283341 590.4 
L 606.839705 590.4 
L 606.839705 312.685714 
L 561.283341 312.685714 
z
" clip-path="url(#p6cae9837e1)" style="fill: #008fd5; opacity: 0.5"/>
   </g>
   <g id="patch_14">
    <path d="M 606.839705 590.4 
L 652.396068 590.4 
L 652.396068 273.012245 
L 606.839705 273.012245 
z
" clip-path="url(#p6cae9837e1)" style="fill: #008fd5; opacity: 0.5"/>
   </g>
   <g id="patch_15">
    <path d="M 652.396068 590.4 
L 697.952432 590.4 
L 697.952432 233.338776 
L 652.396068 233.338776 
z
" clip-path="url(#p6cae9837e1)" style="fill: #008fd5; opacity: 0.5"/>
   </g>
   <g id="patch_16">
    <path d="M 697.952432 590.4 
L 743.508795 590.4 
L 743.508795 471.379592 
L 697.952432 471.379592 
z
" clip-path="url(#p6cae9837e1)" style="fill: #008fd5; opacity: 0.5"/>
   </g>
   <g id="patch_17">
    <path d="M 743.508795 590.4 
L 789.065159 590.4 
L 789.065159 273.012245 
L 743.508795 273.012245 
z
" clip-path="url(#p6cae9837e1)" style="fill: #008fd5; opacity: 0.5"/>
   </g>
   <g id="patch_18">
    <path d="M 789.065159 590.4 
L 834.621523 590.4 
L 834.621523 352.359184 
L 789.065159 352.359184 
z
" clip-path="url(#p6cae9837e1)" style="fill: #008fd5; opacity: 0.5"/>
   </g>
   <g id="patch_19">
    <path d="M 834.621523 590.4 
L 880.177886 590.4 
L 880.177886 590.4 
L 834.621523 590.4 
z
" clip-path="url(#p6cae9837e1)" style="fill: #008fd5; opacity: 0.5"/>
   </g>
   <g id="patch_20">
    <path d="M 880.177886 590.4 
L 925.73425 590.4 
L 925.73425 312.685714 
L 880.177886 312.685714 
z
" clip-path="url(#p6cae9837e1)" style="fill: #008fd5; opacity: 0.5"/>
   </g>
   <g id="patch_21">
    <path d="M 925.73425 590.4 
L 971.290614 590.4 
L 971.290614 550.726531 
L 925.73425 550.726531 
z
" clip-path="url(#p6cae9837e1)" style="fill: #008fd5; opacity: 0.5"/>
   </g>
   <g id="patch_22">
    <path d="M 971.290614 590.4 
L 1016.846977 590.4 
L 1016.846977 511.053061 
L 971.290614 511.053061 
z
" clip-path="url(#p6cae9837e1)" style="fill: #008fd5; opacity: 0.5"/>
   </g>
   <g id="patch_23">
    <path d="M 1016.846977 590.4 
L 1062.403341 590.4 
L 1062.403341 550.726531 
L 1016.846977 550.726531 
z
" clip-path="url(#p6cae9837e1)" style="fill: #008fd5; opacity: 0.5"/>
   </g>
   <g id="patch_24">
    <path d="M 1062.403341 590.4 
L 1107.959705 590.4 
L 1107.959705 511.053061 
L 1062.403341 511.053061 
z
" clip-path="url(#p6cae9837e1)" style="fill: #008fd5; opacity: 0.5"/>
   </g>
   <g id="patch_25">
    <path d="M 1107.959705 590.4 
L 1153.516068 590.4 
L 1153.516068 590.4 
L 1107.959705 590.4 
z
" clip-path="url(#p6cae9837e1)" style="fill: #008fd5; opacity: 0.5"/>
   </g>
   <g id="patch_26">
    <path d="M 1153.516068 590.4 
L 1199.072432 590.4 
L 1199.072432 590.4 
L 1153.516068 590.4 
z
" clip-path="url(#p6cae9837e1)" style="fill: #008fd5; opacity: 0.5"/>
   </g>
   <g id="patch_27">
    <path d="M 1199.072432 590.4 
L 1244.628795 590.4 
L 1244.628795 511.053061 
L 1199.072432 511.053061 
z
" clip-path="url(#p6cae9837e1)" style="fill: #008fd5; opacity: 0.5"/>
   </g>
   <g id="patch_28">
    <path d="M 48.77425 590.4 
L 48.77425 7.2 
" style="fill: none; stroke: #f0f0f0; stroke-width: 3; stroke-linejoin: miter; stroke-linecap: square"/>
   </g>
   <g id="patch_29">
    <path d="M 1301.57425 590.4 
L 1301.57425 7.2 
" style="fill: none; stroke: #f0f0f0; stroke-width: 3; stroke-linejoin: miter; stroke-linecap: square"/>
   </g>
   <g id="patch_30">
    <path d="M 48.77425 590.4 
L 1301.57425 590.4 
" style="fill: none; stroke: #f0f0f0; stroke-width: 3; stroke-linejoin: miter; stroke-linecap: square"/>
   </g>
   <g id="patch_31">
    <path d="M 48.77425 7.2 
L 1301.57425 7.2 
" style="fill: none; stroke: #f0f0f0; stroke-width: 3; stroke-linejoin: miter; stroke-linecap: square"/>
   </g>
  </g>
 </g>
 <defs>
  <clipPath id="p6cae9837e1">
   <rect x="48.77425" y="7.2" width="1252.8" height="583.2"/>
  </clipPath>
 </defs>
</svg>
