<?xml version="1.0" encoding="utf-8" standalone="no"?>
<!DOCTYPE svg PUBLIC "-//W3C//DTD SVG 1.1//EN"
  "http://www.w3.org/Graphics/SVG/1.1/DTD/svg11.dtd">
<svg xmlns:xlink="http://www.w3.org/1999/xlink" width="1313.603437pt" height="635.967825pt" viewBox="0 0 1313.603437 635.967825" xmlns="http://www.w3.org/2000/svg" version="1.1">
 <metadata>
  <rdf:RDF xmlns:dc="http://purl.org/dc/elements/1.1/" xmlns:cc="http://creativecommons.org/ns#" xmlns:rdf="http://www.w3.org/1999/02/22-rdf-syntax-ns#">
   <cc:Work>
    <dc:type rdf:resource="http://purl.org/dc/dcmitype/StillImage"/>
    <dc:date>2022-02-26T16:47:58.286035</dc:date>
    <dc:format>image/svg+xml</dc:format>
    <dc:creator>
     <cc:Agent>
      <dc:title>Matplotlib v3.5.1, https://matplotlib.org/</dc:title>
     </cc:Agent>
    </dc:creator>
   </cc:Work>
  </rdf:RDF>
 </metadata>
 <defs>
  <style type="text/css">*{stroke-linejoin: round; stroke-linecap: butt}</style>
 </defs>
 <g id="figure_1">
  <g id="patch_1">
   <path d="M 0 635.967825 
L 1313.603437 635.967825 
L 1313.603437 0 
L 0 0 
z
" style="fill: #f0f0f0"/>
  </g>
  <g id="axes_1">
   <g id="patch_2">
    <path d="M 53.603438 611.71845 
L 1306.403438 611.71845 
L 1306.403438 28.51845 
L 53.603438 28.51845 
z
" style="fill: #f0f0f0"/>
   </g>
   <g id="matplotlib.axis_1">
    <g id="xtick_1">
     <g id="line2d_1">
      <path d="M 110.548892 611.71845 
L 110.548892 28.51845 
" clip-path="url(#pcb1a93358a)" style="fill: none; stroke: #cbcbcb"/>
     </g>
     <g id="line2d_2"/>
     <g id="text_1">
      <!-- 0 -->
      <g transform="translate(106.095142 625.856262)scale(0.14 -0.14)">
       <defs>
        <path id="DejaVuSans-30" d="M 2034 4250 
Q 1547 4250 1301 3770 
Q 1056 3291 1056 2328 
Q 1056 1369 1301 889 
Q 1547 409 2034 409 
Q 2525 409 2770 889 
Q 3016 1369 3016 2328 
Q 3016 3291 2770 3770 
Q 2525 4250 2034 4250 
z
M 2034 4750 
Q 2819 4750 3233 4129 
Q 3647 3509 3647 2328 
Q 3647 1150 3233 529 
Q 2819 -91 2034 -91 
Q 1250 -91 836 529 
Q 422 1150 422 2328 
Q 422 3509 836 4129 
Q 1250 4750 2034 4750 
z
" transform="scale(0.015625)"/>
       </defs>
       <use xlink:href="#DejaVuSans-30"/>
      </g>
     </g>
    </g>
    <g id="xtick_2">
     <g id="line2d_3">
      <path d="M 333.8644 611.71845 
L 333.8644 28.51845 
" clip-path="url(#pcb1a93358a)" style="fill: none; stroke: #cbcbcb"/>
     </g>
     <g id="line2d_4"/>
     <g id="text_2">
      <!-- 5 -->
      <g transform="translate(329.41065 625.856262)scale(0.14 -0.14)">
       <defs>
        <path id="DejaVuSans-35" d="M 691 4666 
L 3169 4666 
L 3169 4134 
L 1269 4134 
L 1269 2991 
Q 1406 3038 1543 3061 
Q 1681 3084 1819 3084 
Q 2600 3084 3056 2656 
Q 3513 2228 3513 1497 
Q 3513 744 3044 326 
Q 2575 -91 1722 -91 
Q 1428 -91 1123 -41 
Q 819 9 494 109 
L 494 744 
Q 775 591 1075 516 
Q 1375 441 1709 441 
Q 2250 441 2565 725 
Q 2881 1009 2881 1497 
Q 2881 1984 2565 2268 
Q 2250 2553 1709 2553 
Q 1456 2553 1204 2497 
Q 953 2441 691 2322 
L 691 4666 
z
" transform="scale(0.015625)"/>
       </defs>
       <use xlink:href="#DejaVuSans-35"/>
      </g>
     </g>
    </g>
    <g id="xtick_3">
     <g id="line2d_5">
      <path d="M 557.179908 611.71845 
L 557.179908 28.51845 
" clip-path="url(#pcb1a93358a)" style="fill: none; stroke: #cbcbcb"/>
     </g>
     <g id="line2d_6"/>
     <g id="text_3">
      <!-- 10 -->
      <g transform="translate(548.272408 625.856262)scale(0.14 -0.14)">
       <defs>
        <path id="DejaVuSans-31" d="M 794 531 
L 1825 531 
L 1825 4091 
L 703 3866 
L 703 4441 
L 1819 4666 
L 2450 4666 
L 2450 531 
L 3481 531 
L 3481 0 
L 794 0 
L 794 531 
z
" transform="scale(0.015625)"/>
       </defs>
       <use xlink:href="#DejaVuSans-31"/>
       <use xlink:href="#DejaVuSans-30" x="63.623047"/>
      </g>
     </g>
    </g>
    <g id="xtick_4">
     <g id="line2d_7">
      <path d="M 780.495416 611.71845 
L 780.495416 28.51845 
" clip-path="url(#pcb1a93358a)" style="fill: none; stroke: #cbcbcb"/>
     </g>
     <g id="line2d_8"/>
     <g id="text_4">
      <!-- 15 -->
      <g transform="translate(771.587916 625.856262)scale(0.14 -0.14)">
       <use xlink:href="#DejaVuSans-31"/>
       <use xlink:href="#DejaVuSans-35" x="63.623047"/>
      </g>
     </g>
    </g>
    <g id="xtick_5">
     <g id="line2d_9">
      <path d="M 1003.810924 611.71845 
L 1003.810924 28.51845 
" clip-path="url(#pcb1a93358a)" style="fill: none; stroke: #cbcbcb"/>
     </g>
     <g id="line2d_10"/>
     <g id="text_5">
      <!-- 20 -->
      <g transform="translate(994.903424 625.856262)scale(0.14 -0.14)">
       <defs>
        <path id="DejaVuSans-32" d="M 1228 531 
L 3431 531 
L 3431 0 
L 469 0 
L 469 531 
Q 828 903 1448 1529 
Q 2069 2156 2228 2338 
Q 2531 2678 2651 2914 
Q 2772 3150 2772 3378 
Q 2772 3750 2511 3984 
Q 2250 4219 1831 4219 
Q 1534 4219 1204 4116 
Q 875 4013 500 3803 
L 500 4441 
Q 881 4594 1212 4672 
Q 1544 4750 1819 4750 
Q 2544 4750 2975 4387 
Q 3406 4025 3406 3419 
Q 3406 3131 3298 2873 
Q 3191 2616 2906 2266 
Q 2828 2175 2409 1742 
Q 1991 1309 1228 531 
z
" transform="scale(0.015625)"/>
       </defs>
       <use xlink:href="#DejaVuSans-32"/>
       <use xlink:href="#DejaVuSans-30" x="63.623047"/>
      </g>
     </g>
    </g>
    <g id="xtick_6">
     <g id="line2d_11">
      <path d="M 1227.126432 611.71845 
L 1227.126432 28.51845 
" clip-path="url(#pcb1a93358a)" style="fill: none; stroke: #cbcbcb"/>
     </g>
     <g id="line2d_12"/>
     <g id="text_6">
      <!-- 25 -->
      <g transform="translate(1218.218932 625.856262)scale(0.14 -0.14)">
       <use xlink:href="#DejaVuSans-32"/>
       <use xlink:href="#DejaVuSans-35" x="63.623047"/>
      </g>
     </g>
    </g>
   </g>
   <g id="matplotlib.axis_2">
    <g id="ytick_1">
     <g id="line2d_13">
      <path d="M 53.603438 611.71845 
L 1306.403438 611.71845 
" clip-path="url(#pcb1a93358a)" style="fill: none; stroke: #cbcbcb"/>
     </g>
     <g id="line2d_14"/>
     <g id="text_7">
      <!-- −1.00 -->
      <g transform="translate(7.2 617.037356)scale(0.14 -0.14)">
       <defs>
        <path id="DejaVuSans-2212" d="M 678 2272 
L 4684 2272 
L 4684 1741 
L 678 1741 
L 678 2272 
z
" transform="scale(0.015625)"/>
        <path id="DejaVuSans-2e" d="M 684 794 
L 1344 794 
L 1344 0 
L 684 0 
L 684 794 
z
" transform="scale(0.015625)"/>
       </defs>
       <use xlink:href="#DejaVuSans-2212"/>
       <use xlink:href="#DejaVuSans-31" x="83.789062"/>
       <use xlink:href="#DejaVuSans-2e" x="147.412109"/>
       <use xlink:href="#DejaVuSans-30" x="179.199219"/>
       <use xlink:href="#DejaVuSans-30" x="242.822266"/>
      </g>
     </g>
    </g>
    <g id="ytick_2">
     <g id="line2d_15">
      <path d="M 53.603438 538.81845 
L 1306.403438 538.81845 
" clip-path="url(#pcb1a93358a)" style="fill: none; stroke: #cbcbcb"/>
     </g>
     <g id="line2d_16"/>
     <g id="text_8">
      <!-- −0.75 -->
      <g transform="translate(7.2 544.137356)scale(0.14 -0.14)">
       <defs>
        <path id="DejaVuSans-37" d="M 525 4666 
L 3525 4666 
L 3525 4397 
L 1831 0 
L 1172 0 
L 2766 4134 
L 525 4134 
L 525 4666 
z
" transform="scale(0.015625)"/>
       </defs>
       <use xlink:href="#DejaVuSans-2212"/>
       <use xlink:href="#DejaVuSans-30" x="83.789062"/>
       <use xlink:href="#DejaVuSans-2e" x="147.412109"/>
       <use xlink:href="#DejaVuSans-37" x="179.199219"/>
       <use xlink:href="#DejaVuSans-35" x="242.822266"/>
      </g>
     </g>
    </g>
    <g id="ytick_3">
     <g id="line2d_17">
      <path d="M 53.603438 465.91845 
L 1306.403438 465.91845 
" clip-path="url(#pcb1a93358a)" style="fill: none; stroke: #cbcbcb"/>
     </g>
     <g id="line2d_18"/>
     <g id="text_9">
      <!-- −0.50 -->
      <g transform="translate(7.2 471.237356)scale(0.14 -0.14)">
       <use xlink:href="#DejaVuSans-2212"/>
       <use xlink:href="#DejaVuSans-30" x="83.789062"/>
       <use xlink:href="#DejaVuSans-2e" x="147.412109"/>
       <use xlink:href="#DejaVuSans-35" x="179.199219"/>
       <use xlink:href="#DejaVuSans-30" x="242.822266"/>
      </g>
     </g>
    </g>
    <g id="ytick_4">
     <g id="line2d_19">
      <path d="M 53.603438 393.01845 
L 1306.403438 393.01845 
" clip-path="url(#pcb1a93358a)" style="fill: none; stroke: #cbcbcb"/>
     </g>
     <g id="line2d_20"/>
     <g id="text_10">
      <!-- −0.25 -->
      <g transform="translate(7.2 398.337356)scale(0.14 -0.14)">
       <use xlink:href="#DejaVuSans-2212"/>
       <use xlink:href="#DejaVuSans-30" x="83.789062"/>
       <use xlink:href="#DejaVuSans-2e" x="147.412109"/>
       <use xlink:href="#DejaVuSans-32" x="179.199219"/>
       <use xlink:href="#DejaVuSans-35" x="242.822266"/>
      </g>
     </g>
    </g>
    <g id="ytick_5">
     <g id="line2d_21">
      <path d="M 53.603438 320.11845 
L 1306.403438 320.11845 
" clip-path="url(#pcb1a93358a)" style="fill: none; stroke: #cbcbcb"/>
     </g>
     <g id="line2d_22"/>
     <g id="text_11">
      <!-- 0.00 -->
      <g transform="translate(18.931563 325.437356)scale(0.14 -0.14)">
       <use xlink:href="#DejaVuSans-30"/>
       <use xlink:href="#DejaVuSans-2e" x="63.623047"/>
       <use xlink:href="#DejaVuSans-30" x="95.410156"/>
       <use xlink:href="#DejaVuSans-30" x="159.033203"/>
      </g>
     </g>
    </g>
    <g id="ytick_6">
     <g id="line2d_23">
      <path d="M 53.603438 247.21845 
L 1306.403438 247.21845 
" clip-path="url(#pcb1a93358a)" style="fill: none; stroke: #cbcbcb"/>
     </g>
     <g id="line2d_24"/>
     <g id="text_12">
      <!-- 0.25 -->
      <g transform="translate(18.931563 252.537356)scale(0.14 -0.14)">
       <use xlink:href="#DejaVuSans-30"/>
       <use xlink:href="#DejaVuSans-2e" x="63.623047"/>
       <use xlink:href="#DejaVuSans-32" x="95.410156"/>
       <use xlink:href="#DejaVuSans-35" x="159.033203"/>
      </g>
     </g>
    </g>
    <g id="ytick_7">
     <g id="line2d_25">
      <path d="M 53.603438 174.31845 
L 1306.403438 174.31845 
" clip-path="url(#pcb1a93358a)" style="fill: none; stroke: #cbcbcb"/>
     </g>
     <g id="line2d_26"/>
     <g id="text_13">
      <!-- 0.50 -->
      <g transform="translate(18.931563 179.637356)scale(0.14 -0.14)">
       <use xlink:href="#DejaVuSans-30"/>
       <use xlink:href="#DejaVuSans-2e" x="63.623047"/>
       <use xlink:href="#DejaVuSans-35" x="95.410156"/>
       <use xlink:href="#DejaVuSans-30" x="159.033203"/>
      </g>
     </g>
    </g>
    <g id="ytick_8">
     <g id="line2d_27">
      <path d="M 53.603438 101.41845 
L 1306.403438 101.41845 
" clip-path="url(#pcb1a93358a)" style="fill: none; stroke: #cbcbcb"/>
     </g>
     <g id="line2d_28"/>
     <g id="text_14">
      <!-- 0.75 -->
      <g transform="translate(18.931563 106.737356)scale(0.14 -0.14)">
       <use xlink:href="#DejaVuSans-30"/>
       <use xlink:href="#DejaVuSans-2e" x="63.623047"/>
       <use xlink:href="#DejaVuSans-37" x="95.410156"/>
       <use xlink:href="#DejaVuSans-35" x="159.033203"/>
      </g>
     </g>
    </g>
    <g id="ytick_9">
     <g id="line2d_29">
      <path d="M 53.603438 28.51845 
L 1306.403438 28.51845 
" clip-path="url(#pcb1a93358a)" style="fill: none; stroke: #cbcbcb"/>
     </g>
     <g id="line2d_30"/>
     <g id="text_15">
      <!-- 1.00 -->
      <g transform="translate(18.931563 33.837356)scale(0.14 -0.14)">
       <use xlink:href="#DejaVuSans-31"/>
       <use xlink:href="#DejaVuSans-2e" x="63.623047"/>
       <use xlink:href="#DejaVuSans-30" x="95.410156"/>
       <use xlink:href="#DejaVuSans-30" x="159.033203"/>
      </g>
     </g>
    </g>
   </g>
   <g id="PolyCollection_1">
    <path d="M 132.880443 314.403195 
L 132.880443 325.833705 
L 199.875095 325.835304 
L 244.538197 325.835305 
L 289.201298 325.836738 
L 333.8644 325.837473 
L 378.527502 325.837588 
L 423.190603 325.838163 
L 467.853705 325.838231 
L 512.516806 325.838376 
L 557.179908 325.838754 
L 601.84301 325.838772 
L 646.506111 325.838777 
L 691.169213 325.839606 
L 735.832315 325.841265 
L 780.495416 325.841281 
L 825.158518 325.841525 
L 869.821619 325.841526 
L 914.484721 325.841663 
L 959.147823 325.843298 
L 1003.810924 325.843751 
L 1048.474026 325.84523 
L 1093.137127 325.846 
L 1137.800229 325.846327 
L 1182.463331 325.846351 
L 1249.457983 325.847719 
L 1249.457983 314.389181 
L 1249.457983 314.389181 
L 1182.463331 314.390549 
L 1137.800229 314.390573 
L 1093.137127 314.3909 
L 1048.474026 314.39167 
L 1003.810924 314.393149 
L 959.147823 314.393602 
L 914.484721 314.395237 
L 869.821619 314.395374 
L 825.158518 314.395375 
L 780.495416 314.395619 
L 735.832315 314.395635 
L 691.169213 314.397294 
L 646.506111 314.398123 
L 601.84301 314.398128 
L 557.179908 314.398146 
L 512.516806 314.398524 
L 467.853705 314.398669 
L 423.190603 314.398737 
L 378.527502 314.399312 
L 333.8644 314.399427 
L 289.201298 314.400162 
L 244.538197 314.401595 
L 199.875095 314.401596 
L 132.880443 314.403195 
z
" clip-path="url(#pcb1a93358a)" style="fill: #008fd5; fill-opacity: 0.25"/>
   </g>
   <g id="LineCollection_1">
    <path d="M 110.548892 320.11845 
L 110.548892 28.51845 
" clip-path="url(#pcb1a93358a)" style="fill: none; stroke: #008fd5; stroke-width: 4"/>
    <path d="M 155.211994 320.11845 
L 155.211994 315.240133 
" clip-path="url(#pcb1a93358a)" style="fill: none; stroke: #008fd5; stroke-width: 4"/>
    <path d="M 199.875095 320.11845 
L 199.875095 320.024636 
" clip-path="url(#pcb1a93358a)" style="fill: none; stroke: #008fd5; stroke-width: 4"/>
    <path d="M 244.538197 320.11845 
L 244.538197 315.499583 
" clip-path="url(#pcb1a93358a)" style="fill: none; stroke: #008fd5; stroke-width: 4"/>
    <path d="M 289.201298 320.11845 
L 289.201298 323.424844 
" clip-path="url(#pcb1a93358a)" style="fill: none; stroke: #008fd5; stroke-width: 4"/>
    <path d="M 333.8644 320.11845 
L 333.8644 321.431313 
" clip-path="url(#pcb1a93358a)" style="fill: none; stroke: #008fd5; stroke-width: 4"/>
    <path d="M 378.527502 320.11845 
L 378.527502 317.194704 
" clip-path="url(#pcb1a93358a)" style="fill: none; stroke: #008fd5; stroke-width: 4"/>
    <path d="M 423.190603 320.11845 
L 423.190603 321.1258 
" clip-path="url(#pcb1a93358a)" style="fill: none; stroke: #008fd5; stroke-width: 4"/>
    <path d="M 467.853705 320.11845 
L 467.853705 321.586838 
" clip-path="url(#pcb1a93358a)" style="fill: none; stroke: #008fd5; stroke-width: 4"/>
    <path d="M 512.516806 320.11845 
L 512.516806 322.493593 
" clip-path="url(#pcb1a93358a)" style="fill: none; stroke: #008fd5; stroke-width: 4"/>
    <path d="M 557.179908 320.11845 
L 557.179908 320.634148 
" clip-path="url(#pcb1a93358a)" style="fill: none; stroke: #008fd5; stroke-width: 4"/>
    <path d="M 601.84301 320.11845 
L 601.84301 319.840099 
" clip-path="url(#pcb1a93358a)" style="fill: none; stroke: #008fd5; stroke-width: 4"/>
    <path d="M 646.506111 320.11845 
L 646.506111 323.630964 
" clip-path="url(#pcb1a93358a)" style="fill: none; stroke: #008fd5; stroke-width: 4"/>
    <path d="M 691.169213 320.11845 
L 691.169213 325.089462 
" clip-path="url(#pcb1a93358a)" style="fill: none; stroke: #008fd5; stroke-width: 4"/>
    <path d="M 735.832315 320.11845 
L 735.832315 320.602024 
" clip-path="url(#pcb1a93358a)" style="fill: none; stroke: #008fd5; stroke-width: 4"/>
    <path d="M 780.495416 320.11845 
L 780.495416 318.211223 
" clip-path="url(#pcb1a93358a)" style="fill: none; stroke: #008fd5; stroke-width: 4"/>
    <path d="M 825.158518 320.11845 
L 825.158518 320.004319 
" clip-path="url(#pcb1a93358a)" style="fill: none; stroke: #008fd5; stroke-width: 4"/>
    <path d="M 869.821619 320.11845 
L 869.821619 318.686486 
" clip-path="url(#pcb1a93358a)" style="fill: none; stroke: #008fd5; stroke-width: 4"/>
    <path d="M 914.484721 320.11845 
L 914.484721 325.054604 
" clip-path="url(#pcb1a93358a)" style="fill: none; stroke: #008fd5; stroke-width: 4"/>
    <path d="M 959.147823 320.11845 
L 959.147823 322.715667 
" clip-path="url(#pcb1a93358a)" style="fill: none; stroke: #008fd5; stroke-width: 4"/>
    <path d="M 1003.810924 320.11845 
L 1003.810924 324.813657 
" clip-path="url(#pcb1a93358a)" style="fill: none; stroke: #008fd5; stroke-width: 4"/>
    <path d="M 1048.474026 320.11845 
L 1048.474026 316.731365 
" clip-path="url(#pcb1a93358a)" style="fill: none; stroke: #008fd5; stroke-width: 4"/>
    <path d="M 1093.137127 320.11845 
L 1093.137127 317.907224 
" clip-path="url(#pcb1a93358a)" style="fill: none; stroke: #008fd5; stroke-width: 4"/>
    <path d="M 1137.800229 320.11845 
L 1137.800229 320.709602 
" clip-path="url(#pcb1a93358a)" style="fill: none; stroke: #008fd5; stroke-width: 4"/>
    <path d="M 1182.463331 320.11845 
L 1182.463331 315.601451 
" clip-path="url(#pcb1a93358a)" style="fill: none; stroke: #008fd5; stroke-width: 4"/>
    <path d="M 1227.126432 320.11845 
L 1227.126432 318.399238 
" clip-path="url(#pcb1a93358a)" style="fill: none; stroke: #008fd5; stroke-width: 4"/>
   </g>
   <g id="line2d_31">
    <path d="M 53.603438 320.11845 
L 1306.403438 320.11845 
" clip-path="url(#pcb1a93358a)" style="fill: none; stroke: #008fd5; stroke-width: 4"/>
   </g>
   <g id="line2d_32">
    <defs>
     <path id="m1033b0d6a1" d="M 0 2.5 
C 0.663008 2.5 1.29895 2.236584 1.767767 1.767767 
C 2.236584 1.29895 2.5 0.663008 2.5 0 
C 2.5 -0.663008 2.236584 -1.29895 1.767767 -1.767767 
C 1.29895 -2.236584 0.663008 -2.5 0 -2.5 
C -0.663008 -2.5 -1.29895 -2.236584 -1.767767 -1.767767 
C -2.236584 -1.29895 -2.5 -0.663008 -2.5 0 
C -2.5 0.663008 -2.236584 1.29895 -1.767767 1.767767 
C -1.29895 2.236584 -0.663008 2.5 0 2.5 
z
" style="stroke: #008fd5"/>
    </defs>
    <g clip-path="url(#pcb1a93358a)">
     <use xlink:href="#m1033b0d6a1" x="110.548892" y="28.51845" style="fill: #008fd5; stroke: #008fd5"/>
     <use xlink:href="#m1033b0d6a1" x="155.211994" y="315.240133" style="fill: #008fd5; stroke: #008fd5"/>
     <use xlink:href="#m1033b0d6a1" x="199.875095" y="320.024636" style="fill: #008fd5; stroke: #008fd5"/>
     <use xlink:href="#m1033b0d6a1" x="244.538197" y="315.499583" style="fill: #008fd5; stroke: #008fd5"/>
     <use xlink:href="#m1033b0d6a1" x="289.201298" y="323.424844" style="fill: #008fd5; stroke: #008fd5"/>
     <use xlink:href="#m1033b0d6a1" x="333.8644" y="321.431313" style="fill: #008fd5; stroke: #008fd5"/>
     <use xlink:href="#m1033b0d6a1" x="378.527502" y="317.194704" style="fill: #008fd5; stroke: #008fd5"/>
     <use xlink:href="#m1033b0d6a1" x="423.190603" y="321.1258" style="fill: #008fd5; stroke: #008fd5"/>
     <use xlink:href="#m1033b0d6a1" x="467.853705" y="321.586838" style="fill: #008fd5; stroke: #008fd5"/>
     <use xlink:href="#m1033b0d6a1" x="512.516806" y="322.493593" style="fill: #008fd5; stroke: #008fd5"/>
     <use xlink:href="#m1033b0d6a1" x="557.179908" y="320.634148" style="fill: #008fd5; stroke: #008fd5"/>
     <use xlink:href="#m1033b0d6a1" x="601.84301" y="319.840099" style="fill: #008fd5; stroke: #008fd5"/>
     <use xlink:href="#m1033b0d6a1" x="646.506111" y="323.630964" style="fill: #008fd5; stroke: #008fd5"/>
     <use xlink:href="#m1033b0d6a1" x="691.169213" y="325.089462" style="fill: #008fd5; stroke: #008fd5"/>
     <use xlink:href="#m1033b0d6a1" x="735.832315" y="320.602024" style="fill: #008fd5; stroke: #008fd5"/>
     <use xlink:href="#m1033b0d6a1" x="780.495416" y="318.211223" style="fill: #008fd5; stroke: #008fd5"/>
     <use xlink:href="#m1033b0d6a1" x="825.158518" y="320.004319" style="fill: #008fd5; stroke: #008fd5"/>
     <use xlink:href="#m1033b0d6a1" x="869.821619" y="318.686486" style="fill: #008fd5; stroke: #008fd5"/>
     <use xlink:href="#m1033b0d6a1" x="914.484721" y="325.054604" style="fill: #008fd5; stroke: #008fd5"/>
     <use xlink:href="#m1033b0d6a1" x="959.147823" y="322.715667" style="fill: #008fd5; stroke: #008fd5"/>
     <use xlink:href="#m1033b0d6a1" x="1003.810924" y="324.813657" style="fill: #008fd5; stroke: #008fd5"/>
     <use xlink:href="#m1033b0d6a1" x="1048.474026" y="316.731365" style="fill: #008fd5; stroke: #008fd5"/>
     <use xlink:href="#m1033b0d6a1" x="1093.137127" y="317.907224" style="fill: #008fd5; stroke: #008fd5"/>
     <use xlink:href="#m1033b0d6a1" x="1137.800229" y="320.709602" style="fill: #008fd5; stroke: #008fd5"/>
     <use xlink:href="#m1033b0d6a1" x="1182.463331" y="315.601451" style="fill: #008fd5; stroke: #008fd5"/>
     <use xlink:href="#m1033b0d6a1" x="1227.126432" y="318.399238" style="fill: #008fd5; stroke: #008fd5"/>
    </g>
   </g>
   <g id="patch_3">
    <path d="M 53.603438 611.71845 
L 53.603438 28.51845 
" style="fill: none; stroke: #f0f0f0; stroke-width: 3; stroke-linejoin: miter; stroke-linecap: square"/>
   </g>
   <g id="patch_4">
    <path d="M 1306.403438 611.71845 
L 1306.403438 28.51845 
" style="fill: none; stroke: #f0f0f0; stroke-width: 3; stroke-linejoin: miter; stroke-linecap: square"/>
   </g>
   <g id="patch_5">
    <path d="M 53.603438 611.71845 
L 1306.403438 611.71845 
" style="fill: none; stroke: #f0f0f0; stroke-width: 3; stroke-linejoin: miter; stroke-linecap: square"/>
   </g>
   <g id="patch_6">
    <path d="M 53.603438 28.51845 
L 1306.403438 28.51845 
" style="fill: none; stroke: #f0f0f0; stroke-width: 3; stroke-linejoin: miter; stroke-linecap: square"/>
   </g>
   <g id="text_16">
    <!-- Autocorrelation -->
    <g transform="translate(602.518163 22.51845)scale(0.2016 -0.2016)">
     <defs>
      <path id="DejaVuSans-41" d="M 2188 4044 
L 1331 1722 
L 3047 1722 
L 2188 4044 
z
M 1831 4666 
L 2547 4666 
L 4325 0 
L 3669 0 
L 3244 1197 
L 1141 1197 
L 716 0 
L 50 0 
L 1831 4666 
z
" transform="scale(0.015625)"/>
      <path id="DejaVuSans-75" d="M 544 1381 
L 544 3500 
L 1119 3500 
L 1119 1403 
Q 1119 906 1312 657 
Q 1506 409 1894 409 
Q 2359 409 2629 706 
Q 2900 1003 2900 1516 
L 2900 3500 
L 3475 3500 
L 3475 0 
L 2900 0 
L 2900 538 
Q 2691 219 2414 64 
Q 2138 -91 1772 -91 
Q 1169 -91 856 284 
Q 544 659 544 1381 
z
M 1991 3584 
L 1991 3584 
z
" transform="scale(0.015625)"/>
      <path id="DejaVuSans-74" d="M 1172 4494 
L 1172 3500 
L 2356 3500 
L 2356 3053 
L 1172 3053 
L 1172 1153 
Q 1172 725 1289 603 
Q 1406 481 1766 481 
L 2356 481 
L 2356 0 
L 1766 0 
Q 1100 0 847 248 
Q 594 497 594 1153 
L 594 3053 
L 172 3053 
L 172 3500 
L 594 3500 
L 594 4494 
L 1172 4494 
z
" transform="scale(0.015625)"/>
      <path id="DejaVuSans-6f" d="M 1959 3097 
Q 1497 3097 1228 2736 
Q 959 2375 959 1747 
Q 959 1119 1226 758 
Q 1494 397 1959 397 
Q 2419 397 2687 759 
Q 2956 1122 2956 1747 
Q 2956 2369 2687 2733 
Q 2419 3097 1959 3097 
z
M 1959 3584 
Q 2709 3584 3137 3096 
Q 3566 2609 3566 1747 
Q 3566 888 3137 398 
Q 2709 -91 1959 -91 
Q 1206 -91 779 398 
Q 353 888 353 1747 
Q 353 2609 779 3096 
Q 1206 3584 1959 3584 
z
" transform="scale(0.015625)"/>
      <path id="DejaVuSans-63" d="M 3122 3366 
L 3122 2828 
Q 2878 2963 2633 3030 
Q 2388 3097 2138 3097 
Q 1578 3097 1268 2742 
Q 959 2388 959 1747 
Q 959 1106 1268 751 
Q 1578 397 2138 397 
Q 2388 397 2633 464 
Q 2878 531 3122 666 
L 3122 134 
Q 2881 22 2623 -34 
Q 2366 -91 2075 -91 
Q 1284 -91 818 406 
Q 353 903 353 1747 
Q 353 2603 823 3093 
Q 1294 3584 2113 3584 
Q 2378 3584 2631 3529 
Q 2884 3475 3122 3366 
z
" transform="scale(0.015625)"/>
      <path id="DejaVuSans-72" d="M 2631 2963 
Q 2534 3019 2420 3045 
Q 2306 3072 2169 3072 
Q 1681 3072 1420 2755 
Q 1159 2438 1159 1844 
L 1159 0 
L 581 0 
L 581 3500 
L 1159 3500 
L 1159 2956 
Q 1341 3275 1631 3429 
Q 1922 3584 2338 3584 
Q 2397 3584 2469 3576 
Q 2541 3569 2628 3553 
L 2631 2963 
z
" transform="scale(0.015625)"/>
      <path id="DejaVuSans-65" d="M 3597 1894 
L 3597 1613 
L 953 1613 
Q 991 1019 1311 708 
Q 1631 397 2203 397 
Q 2534 397 2845 478 
Q 3156 559 3463 722 
L 3463 178 
Q 3153 47 2828 -22 
Q 2503 -91 2169 -91 
Q 1331 -91 842 396 
Q 353 884 353 1716 
Q 353 2575 817 3079 
Q 1281 3584 2069 3584 
Q 2775 3584 3186 3129 
Q 3597 2675 3597 1894 
z
M 3022 2063 
Q 3016 2534 2758 2815 
Q 2500 3097 2075 3097 
Q 1594 3097 1305 2825 
Q 1016 2553 972 2059 
L 3022 2063 
z
" transform="scale(0.015625)"/>
      <path id="DejaVuSans-6c" d="M 603 4863 
L 1178 4863 
L 1178 0 
L 603 0 
L 603 4863 
z
" transform="scale(0.015625)"/>
      <path id="DejaVuSans-61" d="M 2194 1759 
Q 1497 1759 1228 1600 
Q 959 1441 959 1056 
Q 959 750 1161 570 
Q 1363 391 1709 391 
Q 2188 391 2477 730 
Q 2766 1069 2766 1631 
L 2766 1759 
L 2194 1759 
z
M 3341 1997 
L 3341 0 
L 2766 0 
L 2766 531 
Q 2569 213 2275 61 
Q 1981 -91 1556 -91 
Q 1019 -91 701 211 
Q 384 513 384 1019 
Q 384 1609 779 1909 
Q 1175 2209 1959 2209 
L 2766 2209 
L 2766 2266 
Q 2766 2663 2505 2880 
Q 2244 3097 1772 3097 
Q 1472 3097 1187 3025 
Q 903 2953 641 2809 
L 641 3341 
Q 956 3463 1253 3523 
Q 1550 3584 1831 3584 
Q 2591 3584 2966 3190 
Q 3341 2797 3341 1997 
z
" transform="scale(0.015625)"/>
      <path id="DejaVuSans-69" d="M 603 3500 
L 1178 3500 
L 1178 0 
L 603 0 
L 603 3500 
z
M 603 4863 
L 1178 4863 
L 1178 4134 
L 603 4134 
L 603 4863 
z
" transform="scale(0.015625)"/>
      <path id="DejaVuSans-6e" d="M 3513 2113 
L 3513 0 
L 2938 0 
L 2938 2094 
Q 2938 2591 2744 2837 
Q 2550 3084 2163 3084 
Q 1697 3084 1428 2787 
Q 1159 2491 1159 1978 
L 1159 0 
L 581 0 
L 581 3500 
L 1159 3500 
L 1159 2956 
Q 1366 3272 1645 3428 
Q 1925 3584 2291 3584 
Q 2894 3584 3203 3211 
Q 3513 2838 3513 2113 
z
" transform="scale(0.015625)"/>
     </defs>
     <use xlink:href="#DejaVuSans-41"/>
     <use xlink:href="#DejaVuSans-75" x="68.408203"/>
     <use xlink:href="#DejaVuSans-74" x="131.787109"/>
     <use xlink:href="#DejaVuSans-6f" x="170.996094"/>
     <use xlink:href="#DejaVuSans-63" x="232.177734"/>
     <use xlink:href="#DejaVuSans-6f" x="287.158203"/>
     <use xlink:href="#DejaVuSans-72" x="348.339844"/>
     <use xlink:href="#DejaVuSans-72" x="387.703125"/>
     <use xlink:href="#DejaVuSans-65" x="426.566406"/>
     <use xlink:href="#DejaVuSans-6c" x="488.089844"/>
     <use xlink:href="#DejaVuSans-61" x="515.873047"/>
     <use xlink:href="#DejaVuSans-74" x="577.152344"/>
     <use xlink:href="#DejaVuSans-69" x="616.361328"/>
     <use xlink:href="#DejaVuSans-6f" x="644.144531"/>
     <use xlink:href="#DejaVuSans-6e" x="705.326172"/>
    </g>
   </g>
  </g>
 </g>
 <defs>
  <clipPath id="pcb1a93358a">
   <rect x="53.603438" y="28.51845" width="1252.8" height="583.2"/>
  </clipPath>
 </defs>
</svg>
