<?xml version="1.0" encoding="utf-8" standalone="no"?>
<!DOCTYPE svg PUBLIC "-//W3C//DTD SVG 1.1//EN"
  "http://www.w3.org/Graphics/SVG/1.1/DTD/svg11.dtd">
<svg xmlns:xlink="http://www.w3.org/1999/xlink" width="1422.590812pt" height="704.027825pt" viewBox="0 0 1422.590812 704.027825" xmlns="http://www.w3.org/2000/svg" version="1.1">
 <metadata>
  <rdf:RDF xmlns:dc="http://purl.org/dc/elements/1.1/" xmlns:cc="http://creativecommons.org/ns#" xmlns:rdf="http://www.w3.org/1999/02/22-rdf-syntax-ns#">
   <cc:Work>
    <dc:type rdf:resource="http://purl.org/dc/dcmitype/StillImage"/>
    <dc:date>2022-02-25T23:27:29.834896</dc:date>
    <dc:format>image/svg+xml</dc:format>
    <dc:creator>
     <cc:Agent>
      <dc:title>Matplotlib v3.5.1, https://matplotlib.org/</dc:title>
     </cc:Agent>
    </dc:creator>
   </cc:Work>
  </rdf:RDF>
 </metadata>
 <defs>
  <style type="text/css">*{stroke-linejoin: round; stroke-linecap: butt}</style>
 </defs>
 <g id="figure_1">
  <g id="patch_1">
   <path d="M 0 704.027825 
L 1422.590812 704.027825 
L 1422.590812 0 
L 0 0 
z
" style="fill: #f0f0f0"/>
  </g>
  <g id="axes_1">
   <g id="patch_2">
    <path d="M 60.505813 166.86845 
L 1415.390812 166.86845 
L 1415.390812 28.51845 
L 60.505813 28.51845 
z
" style="fill: #f0f0f0"/>
   </g>
   <g id="matplotlib.axis_1">
    <g id="xtick_1">
     <g id="line2d_1">
      <path d="M 60.505813 166.86845 
L 60.505813 28.51845 
" clip-path="url(#p03a80a27fc)" style="fill: none; stroke: #cbcbcb"/>
     </g>
     <g id="line2d_2"/>
     <g id="text_1">
      <!-- 0 -->
      <g transform="translate(56.052063 181.006262)scale(0.14 -0.14)">
       <defs>
        <path id="DejaVuSans-30" d="M 2034 4250 
Q 1547 4250 1301 3770 
Q 1056 3291 1056 2328 
Q 1056 1369 1301 889 
Q 1547 409 2034 409 
Q 2525 409 2770 889 
Q 3016 1369 3016 2328 
Q 3016 3291 2770 3770 
Q 2525 4250 2034 4250 
z
M 2034 4750 
Q 2819 4750 3233 4129 
Q 3647 3509 3647 2328 
Q 3647 1150 3233 529 
Q 2819 -91 2034 -91 
Q 1250 -91 836 529 
Q 422 1150 422 2328 
Q 422 3509 836 4129 
Q 1250 4750 2034 4750 
z
" transform="scale(0.015625)"/>
       </defs>
       <use xlink:href="#DejaVuSans-30"/>
      </g>
     </g>
    </g>
    <g id="xtick_2">
     <g id="line2d_3">
      <path d="M 242.614011 166.86845 
L 242.614011 28.51845 
" clip-path="url(#p03a80a27fc)" style="fill: none; stroke: #cbcbcb"/>
     </g>
     <g id="line2d_4"/>
     <g id="text_2">
      <!-- 25 -->
      <g transform="translate(233.706511 181.006262)scale(0.14 -0.14)">
       <defs>
        <path id="DejaVuSans-32" d="M 1228 531 
L 3431 531 
L 3431 0 
L 469 0 
L 469 531 
Q 828 903 1448 1529 
Q 2069 2156 2228 2338 
Q 2531 2678 2651 2914 
Q 2772 3150 2772 3378 
Q 2772 3750 2511 3984 
Q 2250 4219 1831 4219 
Q 1534 4219 1204 4116 
Q 875 4013 500 3803 
L 500 4441 
Q 881 4594 1212 4672 
Q 1544 4750 1819 4750 
Q 2544 4750 2975 4387 
Q 3406 4025 3406 3419 
Q 3406 3131 3298 2873 
Q 3191 2616 2906 2266 
Q 2828 2175 2409 1742 
Q 1991 1309 1228 531 
z
" transform="scale(0.015625)"/>
        <path id="DejaVuSans-35" d="M 691 4666 
L 3169 4666 
L 3169 4134 
L 1269 4134 
L 1269 2991 
Q 1406 3038 1543 3061 
Q 1681 3084 1819 3084 
Q 2600 3084 3056 2656 
Q 3513 2228 3513 1497 
Q 3513 744 3044 326 
Q 2575 -91 1722 -91 
Q 1428 -91 1123 -41 
Q 819 9 494 109 
L 494 744 
Q 775 591 1075 516 
Q 1375 441 1709 441 
Q 2250 441 2565 725 
Q 2881 1009 2881 1497 
Q 2881 1984 2565 2268 
Q 2250 2553 1709 2553 
Q 1456 2553 1204 2497 
Q 953 2441 691 2322 
L 691 4666 
z
" transform="scale(0.015625)"/>
       </defs>
       <use xlink:href="#DejaVuSans-32"/>
       <use xlink:href="#DejaVuSans-35" x="63.623047"/>
      </g>
     </g>
    </g>
    <g id="xtick_3">
     <g id="line2d_5">
      <path d="M 424.72221 166.86845 
L 424.72221 28.51845 
" clip-path="url(#p03a80a27fc)" style="fill: none; stroke: #cbcbcb"/>
     </g>
     <g id="line2d_6"/>
     <g id="text_3">
      <!-- 50 -->
      <g transform="translate(415.81471 181.006262)scale(0.14 -0.14)">
       <use xlink:href="#DejaVuSans-35"/>
       <use xlink:href="#DejaVuSans-30" x="63.623047"/>
      </g>
     </g>
    </g>
    <g id="xtick_4">
     <g id="line2d_7">
      <path d="M 606.830409 166.86845 
L 606.830409 28.51845 
" clip-path="url(#p03a80a27fc)" style="fill: none; stroke: #cbcbcb"/>
     </g>
     <g id="line2d_8"/>
     <g id="text_4">
      <!-- 75 -->
      <g transform="translate(597.922909 181.006262)scale(0.14 -0.14)">
       <defs>
        <path id="DejaVuSans-37" d="M 525 4666 
L 3525 4666 
L 3525 4397 
L 1831 0 
L 1172 0 
L 2766 4134 
L 525 4134 
L 525 4666 
z
" transform="scale(0.015625)"/>
       </defs>
       <use xlink:href="#DejaVuSans-37"/>
       <use xlink:href="#DejaVuSans-35" x="63.623047"/>
      </g>
     </g>
    </g>
    <g id="xtick_5">
     <g id="line2d_9">
      <path d="M 788.938608 166.86845 
L 788.938608 28.51845 
" clip-path="url(#p03a80a27fc)" style="fill: none; stroke: #cbcbcb"/>
     </g>
     <g id="line2d_10"/>
     <g id="text_5">
      <!-- 100 -->
      <g transform="translate(775.577358 181.006262)scale(0.14 -0.14)">
       <defs>
        <path id="DejaVuSans-31" d="M 794 531 
L 1825 531 
L 1825 4091 
L 703 3866 
L 703 4441 
L 1819 4666 
L 2450 4666 
L 2450 531 
L 3481 531 
L 3481 0 
L 794 0 
L 794 531 
z
" transform="scale(0.015625)"/>
       </defs>
       <use xlink:href="#DejaVuSans-31"/>
       <use xlink:href="#DejaVuSans-30" x="63.623047"/>
       <use xlink:href="#DejaVuSans-30" x="127.246094"/>
      </g>
     </g>
    </g>
    <g id="xtick_6">
     <g id="line2d_11">
      <path d="M 971.046807 166.86845 
L 971.046807 28.51845 
" clip-path="url(#p03a80a27fc)" style="fill: none; stroke: #cbcbcb"/>
     </g>
     <g id="line2d_12"/>
     <g id="text_6">
      <!-- 125 -->
      <g transform="translate(957.685557 181.006262)scale(0.14 -0.14)">
       <use xlink:href="#DejaVuSans-31"/>
       <use xlink:href="#DejaVuSans-32" x="63.623047"/>
       <use xlink:href="#DejaVuSans-35" x="127.246094"/>
      </g>
     </g>
    </g>
    <g id="xtick_7">
     <g id="line2d_13">
      <path d="M 1153.155006 166.86845 
L 1153.155006 28.51845 
" clip-path="url(#p03a80a27fc)" style="fill: none; stroke: #cbcbcb"/>
     </g>
     <g id="line2d_14"/>
     <g id="text_7">
      <!-- 150 -->
      <g transform="translate(1139.793756 181.006262)scale(0.14 -0.14)">
       <use xlink:href="#DejaVuSans-31"/>
       <use xlink:href="#DejaVuSans-35" x="63.623047"/>
       <use xlink:href="#DejaVuSans-30" x="127.246094"/>
      </g>
     </g>
    </g>
    <g id="xtick_8">
     <g id="line2d_15">
      <path d="M 1335.263205 166.86845 
L 1335.263205 28.51845 
" clip-path="url(#p03a80a27fc)" style="fill: none; stroke: #cbcbcb"/>
     </g>
     <g id="line2d_16"/>
     <g id="text_8">
      <!-- 175 -->
      <g transform="translate(1321.901955 181.006262)scale(0.14 -0.14)">
       <use xlink:href="#DejaVuSans-31"/>
       <use xlink:href="#DejaVuSans-37" x="63.623047"/>
       <use xlink:href="#DejaVuSans-35" x="127.246094"/>
      </g>
     </g>
    </g>
   </g>
   <g id="matplotlib.axis_2">
    <g id="ytick_1">
     <g id="line2d_17">
      <path d="M 60.505813 140.81297 
L 1415.390812 140.81297 
" clip-path="url(#p03a80a27fc)" style="fill: none; stroke: #cbcbcb"/>
     </g>
     <g id="line2d_18"/>
     <g id="text_9">
      <!-- −50 -->
      <g transform="translate(27.45925 146.131877)scale(0.14 -0.14)">
       <defs>
        <path id="DejaVuSans-2212" d="M 678 2272 
L 4684 2272 
L 4684 1741 
L 678 1741 
L 678 2272 
z
" transform="scale(0.015625)"/>
       </defs>
       <use xlink:href="#DejaVuSans-2212"/>
       <use xlink:href="#DejaVuSans-35" x="83.789062"/>
       <use xlink:href="#DejaVuSans-30" x="147.412109"/>
      </g>
     </g>
    </g>
    <g id="ytick_2">
     <g id="line2d_19">
      <path d="M 60.505813 88.208748 
L 1415.390812 88.208748 
" clip-path="url(#p03a80a27fc)" style="fill: none; stroke: #cbcbcb"/>
     </g>
     <g id="line2d_20"/>
     <g id="text_10">
      <!-- 0 -->
      <g transform="translate(48.098313 93.527655)scale(0.14 -0.14)">
       <use xlink:href="#DejaVuSans-30"/>
      </g>
     </g>
    </g>
    <g id="ytick_3">
     <g id="line2d_21">
      <path d="M 60.505813 35.604526 
L 1415.390812 35.604526 
" clip-path="url(#p03a80a27fc)" style="fill: none; stroke: #cbcbcb"/>
     </g>
     <g id="line2d_22"/>
     <g id="text_11">
      <!-- 50 -->
      <g transform="translate(39.190813 40.923433)scale(0.14 -0.14)">
       <use xlink:href="#DejaVuSans-35"/>
       <use xlink:href="#DejaVuSans-30" x="63.623047"/>
      </g>
     </g>
    </g>
   </g>
   <g id="line2d_23">
    <path d="M 60.505813 83.147895 
L 67.79014 80.541165 
L 75.074468 80.540091 
L 82.358796 87.172204 
L 89.643124 84.360465 
L 96.927452 81.842226 
L 104.21178 88.677802 
L 111.496108 89.819355 
L 118.780436 92.794358 
L 126.064764 93.526536 
L 133.349092 82.096181 
L 140.63342 71.328351 
L 147.917748 93.83621 
L 155.202076 79.343849 
L 162.486404 85.306262 
L 169.770732 76.481763 
L 177.05506 90.87422 
L 184.339388 95.144767 
L 191.623716 87.664633 
L 198.908044 76.274539 
L 206.192372 93.970163 
L 213.4767 62.632991 
L 220.761028 106.784521 
L 228.045356 87.526903 
L 235.329683 91.312467 
L 249.898339 88.279811 
L 257.182667 91.971762 
L 264.466995 97.846427 
L 271.751323 78.644771 
L 286.319979 81.1637 
L 293.604307 85.133544 
L 300.888635 95.374646 
L 308.172963 83.167084 
L 315.457291 85.714063 
L 322.741619 80.029651 
L 330.025947 93.770434 
L 337.310275 90.150366 
L 344.594603 83.948229 
L 351.878931 82.041757 
L 359.163259 79.536175 
L 366.447587 82.203713 
L 373.731915 78.581136 
L 381.016243 94.18605 
L 388.300571 87.280978 
L 395.584899 71.385542 
L 402.869226 79.996696 
L 410.153554 91.725277 
L 417.437882 85.900473 
L 424.72221 88.17193 
L 432.006538 98.28405 
L 439.290866 87.844775 
L 446.575194 98.908497 
L 453.859522 87.985518 
L 461.14385 79.564822 
L 468.428178 73.617198 
L 475.712506 83.591147 
L 482.996834 81.35246 
L 490.281162 91.233964 
L 497.56549 107.893336 
L 504.849818 75.763937 
L 512.134146 113.010518 
L 519.418474 76.250459 
L 526.702802 82.042199 
L 533.98713 84.762628 
L 541.271458 98.824749 
L 548.555786 93.289476 
L 555.840114 75.095311 
L 563.124442 119.2754 
L 570.408769 75.238542 
L 577.693097 70.711784 
L 584.977425 89.228181 
L 592.261753 82.235256 
L 599.546081 84.372324 
L 606.830409 88.416328 
L 614.114737 77.672527 
L 621.399065 96.789302 
L 628.683393 90.824468 
L 635.967721 82.478243 
L 643.252049 85.183533 
L 650.536377 82.833106 
L 657.820705 91.551928 
L 665.105033 88.397633 
L 672.389361 81.377404 
L 679.673689 88.534059 
L 686.958017 88.35695 
L 694.242345 76.27608 
L 701.526673 80.599388 
L 708.811001 82.456912 
L 716.095329 94.454407 
L 723.379657 94.401516 
L 730.663985 85.436877 
L 737.948312 95.485645 
L 745.23264 100.826795 
L 752.516968 90.141521 
L 759.801296 93.664865 
L 767.085624 82.784098 
L 774.369952 90.757064 
L 781.65428 81.555872 
L 788.938608 77.566763 
L 796.222936 99.366537 
L 803.507264 88.330482 
L 810.791592 91.267439 
L 818.07592 85.516107 
L 825.360248 89.006251 
L 832.644576 84.696428 
L 839.928904 91.721069 
L 847.213232 87.564143 
L 854.49756 81.711787 
L 861.781888 95.813177 
L 869.066216 82.491126 
L 876.350544 67.847388 
L 883.634872 93.276739 
L 890.9192 91.501604 
L 898.203528 97.834515 
L 905.487856 86.223089 
L 912.772183 112.929081 
L 920.056511 98.585087 
L 927.340839 85.727668 
L 934.625167 75.281954 
L 941.909495 86.862062 
L 949.193823 85.500786 
L 956.478151 102.057296 
L 963.762479 74.295016 
L 971.046807 95.458072 
L 978.331135 44.370216 
L 985.615463 147.916746 
L 992.899791 34.807086 
L 1000.184119 87.284368 
L 1007.468447 103.678571 
L 1014.752775 86.538738 
L 1022.037103 87.685391 
L 1029.321431 80.834777 
L 1036.605759 81.70252 
L 1043.890087 95.460501 
L 1051.174415 91.324518 
L 1058.458743 79.46713 
L 1065.743071 97.670336 
L 1073.027399 81.648107 
L 1080.311726 132.69289 
L 1087.596054 107.436569 
L 1094.880382 96.495652 
L 1102.16471 66.775305 
L 1109.449038 48.853915 
L 1116.733366 101.199998 
L 1124.017694 99.311144 
L 1131.302022 81.863626 
L 1138.58635 81.259553 
L 1145.870678 95.822141 
L 1153.155006 97.684605 
L 1160.439334 85.758578 
L 1167.723662 56.817404 
L 1175.00799 39.350062 
L 1182.292318 122.435712 
L 1189.576646 50.005032 
L 1196.860974 87.237611 
L 1204.145302 71.280085 
L 1211.42963 113.976716 
L 1218.713958 87.316273 
L 1225.998286 94.041495 
L 1233.282614 75.945517 
L 1240.566942 88.579173 
L 1247.851269 91.652599 
L 1255.135597 73.123328 
L 1262.419925 92.498151 
L 1269.704253 85.344444 
L 1276.988581 91.84315 
L 1284.272909 69.665439 
L 1291.557237 78.77208 
L 1298.841565 91.416787 
L 1306.125893 57.649164 
L 1313.410221 160.579814 
L 1320.694549 79.985154 
L 1327.978877 84.532758 
L 1335.263205 100.072699 
L 1342.547533 73.984354 
L 1349.831861 79.535314 
L 1357.116189 85.618566 
L 1364.400517 89.800605 
L 1371.684845 89.006649 
L 1378.969173 82.923163 
L 1386.253501 84.862142 
L 1393.537829 84.544563 
L 1400.822157 85.855726 
L 1408.106485 91.071997 
L 1415.390812 88.811443 
L 1415.390812 88.811443 
" clip-path="url(#p03a80a27fc)" style="fill: none; stroke: #008fd5; stroke-width: 4"/>
   </g>
   <g id="patch_3">
    <path d="M 60.505813 166.86845 
L 60.505813 28.51845 
" style="fill: none; stroke: #f0f0f0; stroke-width: 3; stroke-linejoin: miter; stroke-linecap: square"/>
   </g>
   <g id="patch_4">
    <path d="M 1415.390812 166.86845 
L 1415.390812 28.51845 
" style="fill: none; stroke: #f0f0f0; stroke-width: 3; stroke-linejoin: miter; stroke-linecap: square"/>
   </g>
   <g id="patch_5">
    <path d="M 60.505813 166.86845 
L 1415.390812 166.86845 
" style="fill: none; stroke: #f0f0f0; stroke-width: 3; stroke-linejoin: miter; stroke-linecap: square"/>
   </g>
   <g id="patch_6">
    <path d="M 60.505813 28.51845 
L 1415.390812 28.51845 
" style="fill: none; stroke: #f0f0f0; stroke-width: 3; stroke-linejoin: miter; stroke-linecap: square"/>
   </g>
   <g id="text_12">
    <!-- delta_val -->
    <g transform="translate(692.433962 22.51845)scale(0.2016 -0.2016)">
     <defs>
      <path id="DejaVuSans-64" d="M 2906 2969 
L 2906 4863 
L 3481 4863 
L 3481 0 
L 2906 0 
L 2906 525 
Q 2725 213 2448 61 
Q 2172 -91 1784 -91 
Q 1150 -91 751 415 
Q 353 922 353 1747 
Q 353 2572 751 3078 
Q 1150 3584 1784 3584 
Q 2172 3584 2448 3432 
Q 2725 3281 2906 2969 
z
M 947 1747 
Q 947 1113 1208 752 
Q 1469 391 1925 391 
Q 2381 391 2643 752 
Q 2906 1113 2906 1747 
Q 2906 2381 2643 2742 
Q 2381 3103 1925 3103 
Q 1469 3103 1208 2742 
Q 947 2381 947 1747 
z
" transform="scale(0.015625)"/>
      <path id="DejaVuSans-65" d="M 3597 1894 
L 3597 1613 
L 953 1613 
Q 991 1019 1311 708 
Q 1631 397 2203 397 
Q 2534 397 2845 478 
Q 3156 559 3463 722 
L 3463 178 
Q 3153 47 2828 -22 
Q 2503 -91 2169 -91 
Q 1331 -91 842 396 
Q 353 884 353 1716 
Q 353 2575 817 3079 
Q 1281 3584 2069 3584 
Q 2775 3584 3186 3129 
Q 3597 2675 3597 1894 
z
M 3022 2063 
Q 3016 2534 2758 2815 
Q 2500 3097 2075 3097 
Q 1594 3097 1305 2825 
Q 1016 2553 972 2059 
L 3022 2063 
z
" transform="scale(0.015625)"/>
      <path id="DejaVuSans-6c" d="M 603 4863 
L 1178 4863 
L 1178 0 
L 603 0 
L 603 4863 
z
" transform="scale(0.015625)"/>
      <path id="DejaVuSans-74" d="M 1172 4494 
L 1172 3500 
L 2356 3500 
L 2356 3053 
L 1172 3053 
L 1172 1153 
Q 1172 725 1289 603 
Q 1406 481 1766 481 
L 2356 481 
L 2356 0 
L 1766 0 
Q 1100 0 847 248 
Q 594 497 594 1153 
L 594 3053 
L 172 3053 
L 172 3500 
L 594 3500 
L 594 4494 
L 1172 4494 
z
" transform="scale(0.015625)"/>
      <path id="DejaVuSans-61" d="M 2194 1759 
Q 1497 1759 1228 1600 
Q 959 1441 959 1056 
Q 959 750 1161 570 
Q 1363 391 1709 391 
Q 2188 391 2477 730 
Q 2766 1069 2766 1631 
L 2766 1759 
L 2194 1759 
z
M 3341 1997 
L 3341 0 
L 2766 0 
L 2766 531 
Q 2569 213 2275 61 
Q 1981 -91 1556 -91 
Q 1019 -91 701 211 
Q 384 513 384 1019 
Q 384 1609 779 1909 
Q 1175 2209 1959 2209 
L 2766 2209 
L 2766 2266 
Q 2766 2663 2505 2880 
Q 2244 3097 1772 3097 
Q 1472 3097 1187 3025 
Q 903 2953 641 2809 
L 641 3341 
Q 956 3463 1253 3523 
Q 1550 3584 1831 3584 
Q 2591 3584 2966 3190 
Q 3341 2797 3341 1997 
z
" transform="scale(0.015625)"/>
      <path id="DejaVuSans-5f" d="M 3263 -1063 
L 3263 -1509 
L -63 -1509 
L -63 -1063 
L 3263 -1063 
z
" transform="scale(0.015625)"/>
      <path id="DejaVuSans-76" d="M 191 3500 
L 800 3500 
L 1894 563 
L 2988 3500 
L 3597 3500 
L 2284 0 
L 1503 0 
L 191 3500 
z
" transform="scale(0.015625)"/>
     </defs>
     <use xlink:href="#DejaVuSans-64"/>
     <use xlink:href="#DejaVuSans-65" x="63.476562"/>
     <use xlink:href="#DejaVuSans-6c" x="125"/>
     <use xlink:href="#DejaVuSans-74" x="152.783203"/>
     <use xlink:href="#DejaVuSans-61" x="191.992188"/>
     <use xlink:href="#DejaVuSans-5f" x="253.271484"/>
     <use xlink:href="#DejaVuSans-76" x="303.271484"/>
     <use xlink:href="#DejaVuSans-61" x="362.451172"/>
     <use xlink:href="#DejaVuSans-6c" x="423.730469"/>
    </g>
   </g>
  </g>
  <g id="axes_2">
   <g id="patch_7">
    <path d="M 60.505813 337.83845 
L 1415.390812 337.83845 
L 1415.390812 199.48845 
L 60.505813 199.48845 
z
" style="fill: #f0f0f0"/>
   </g>
   <g id="matplotlib.axis_3">
    <g id="xtick_9">
     <g id="line2d_24">
      <path d="M 60.505813 337.83845 
L 60.505813 199.48845 
" clip-path="url(#p08ad1064d8)" style="fill: none; stroke: #cbcbcb"/>
     </g>
     <g id="line2d_25"/>
     <g id="text_13">
      <!-- 0 -->
      <g transform="translate(56.052063 351.976262)scale(0.14 -0.14)">
       <use xlink:href="#DejaVuSans-30"/>
      </g>
     </g>
    </g>
    <g id="xtick_10">
     <g id="line2d_26">
      <path d="M 242.614011 337.83845 
L 242.614011 199.48845 
" clip-path="url(#p08ad1064d8)" style="fill: none; stroke: #cbcbcb"/>
     </g>
     <g id="line2d_27"/>
     <g id="text_14">
      <!-- 25 -->
      <g transform="translate(233.706511 351.976262)scale(0.14 -0.14)">
       <use xlink:href="#DejaVuSans-32"/>
       <use xlink:href="#DejaVuSans-35" x="63.623047"/>
      </g>
     </g>
    </g>
    <g id="xtick_11">
     <g id="line2d_28">
      <path d="M 424.72221 337.83845 
L 424.72221 199.48845 
" clip-path="url(#p08ad1064d8)" style="fill: none; stroke: #cbcbcb"/>
     </g>
     <g id="line2d_29"/>
     <g id="text_15">
      <!-- 50 -->
      <g transform="translate(415.81471 351.976262)scale(0.14 -0.14)">
       <use xlink:href="#DejaVuSans-35"/>
       <use xlink:href="#DejaVuSans-30" x="63.623047"/>
      </g>
     </g>
    </g>
    <g id="xtick_12">
     <g id="line2d_30">
      <path d="M 606.830409 337.83845 
L 606.830409 199.48845 
" clip-path="url(#p08ad1064d8)" style="fill: none; stroke: #cbcbcb"/>
     </g>
     <g id="line2d_31"/>
     <g id="text_16">
      <!-- 75 -->
      <g transform="translate(597.922909 351.976262)scale(0.14 -0.14)">
       <use xlink:href="#DejaVuSans-37"/>
       <use xlink:href="#DejaVuSans-35" x="63.623047"/>
      </g>
     </g>
    </g>
    <g id="xtick_13">
     <g id="line2d_32">
      <path d="M 788.938608 337.83845 
L 788.938608 199.48845 
" clip-path="url(#p08ad1064d8)" style="fill: none; stroke: #cbcbcb"/>
     </g>
     <g id="line2d_33"/>
     <g id="text_17">
      <!-- 100 -->
      <g transform="translate(775.577358 351.976262)scale(0.14 -0.14)">
       <use xlink:href="#DejaVuSans-31"/>
       <use xlink:href="#DejaVuSans-30" x="63.623047"/>
       <use xlink:href="#DejaVuSans-30" x="127.246094"/>
      </g>
     </g>
    </g>
    <g id="xtick_14">
     <g id="line2d_34">
      <path d="M 971.046807 337.83845 
L 971.046807 199.48845 
" clip-path="url(#p08ad1064d8)" style="fill: none; stroke: #cbcbcb"/>
     </g>
     <g id="line2d_35"/>
     <g id="text_18">
      <!-- 125 -->
      <g transform="translate(957.685557 351.976262)scale(0.14 -0.14)">
       <use xlink:href="#DejaVuSans-31"/>
       <use xlink:href="#DejaVuSans-32" x="63.623047"/>
       <use xlink:href="#DejaVuSans-35" x="127.246094"/>
      </g>
     </g>
    </g>
    <g id="xtick_15">
     <g id="line2d_36">
      <path d="M 1153.155006 337.83845 
L 1153.155006 199.48845 
" clip-path="url(#p08ad1064d8)" style="fill: none; stroke: #cbcbcb"/>
     </g>
     <g id="line2d_37"/>
     <g id="text_19">
      <!-- 150 -->
      <g transform="translate(1139.793756 351.976262)scale(0.14 -0.14)">
       <use xlink:href="#DejaVuSans-31"/>
       <use xlink:href="#DejaVuSans-35" x="63.623047"/>
       <use xlink:href="#DejaVuSans-30" x="127.246094"/>
      </g>
     </g>
    </g>
    <g id="xtick_16">
     <g id="line2d_38">
      <path d="M 1335.263205 337.83845 
L 1335.263205 199.48845 
" clip-path="url(#p08ad1064d8)" style="fill: none; stroke: #cbcbcb"/>
     </g>
     <g id="line2d_39"/>
     <g id="text_20">
      <!-- 175 -->
      <g transform="translate(1321.901955 351.976262)scale(0.14 -0.14)">
       <use xlink:href="#DejaVuSans-31"/>
       <use xlink:href="#DejaVuSans-37" x="63.623047"/>
       <use xlink:href="#DejaVuSans-35" x="127.246094"/>
      </g>
     </g>
    </g>
   </g>
   <g id="matplotlib.axis_4">
    <g id="ytick_4">
     <g id="line2d_40">
      <path d="M 60.505813 330.820412 
L 1415.390812 330.820412 
" clip-path="url(#p08ad1064d8)" style="fill: none; stroke: #cbcbcb"/>
     </g>
     <g id="line2d_41"/>
     <g id="text_21">
      <!-- −5 -->
      <g transform="translate(36.36675 336.139318)scale(0.14 -0.14)">
       <use xlink:href="#DejaVuSans-2212"/>
       <use xlink:href="#DejaVuSans-35" x="83.789062"/>
      </g>
     </g>
    </g>
    <g id="ytick_5">
     <g id="line2d_42">
      <path d="M 60.505813 280.693615 
L 1415.390812 280.693615 
" clip-path="url(#p08ad1064d8)" style="fill: none; stroke: #cbcbcb"/>
     </g>
     <g id="line2d_43"/>
     <g id="text_22">
      <!-- 0 -->
      <g transform="translate(48.098313 286.012521)scale(0.14 -0.14)">
       <use xlink:href="#DejaVuSans-30"/>
      </g>
     </g>
    </g>
    <g id="ytick_6">
     <g id="line2d_44">
      <path d="M 60.505813 230.566817 
L 1415.390812 230.566817 
" clip-path="url(#p08ad1064d8)" style="fill: none; stroke: #cbcbcb"/>
     </g>
     <g id="line2d_45"/>
     <g id="text_23">
      <!-- 5 -->
      <g transform="translate(48.098313 235.885723)scale(0.14 -0.14)">
       <use xlink:href="#DejaVuSans-35"/>
      </g>
     </g>
    </g>
    <g id="text_24">
     <!-- Trend -->
     <g transform="translate(28.872875 291.644012)rotate(-90)scale(0.168 -0.168)">
      <defs>
       <path id="DejaVuSans-54" d="M -19 4666 
L 3928 4666 
L 3928 4134 
L 2272 4134 
L 2272 0 
L 1638 0 
L 1638 4134 
L -19 4134 
L -19 4666 
z
" transform="scale(0.015625)"/>
       <path id="DejaVuSans-72" d="M 2631 2963 
Q 2534 3019 2420 3045 
Q 2306 3072 2169 3072 
Q 1681 3072 1420 2755 
Q 1159 2438 1159 1844 
L 1159 0 
L 581 0 
L 581 3500 
L 1159 3500 
L 1159 2956 
Q 1341 3275 1631 3429 
Q 1922 3584 2338 3584 
Q 2397 3584 2469 3576 
Q 2541 3569 2628 3553 
L 2631 2963 
z
" transform="scale(0.015625)"/>
       <path id="DejaVuSans-6e" d="M 3513 2113 
L 3513 0 
L 2938 0 
L 2938 2094 
Q 2938 2591 2744 2837 
Q 2550 3084 2163 3084 
Q 1697 3084 1428 2787 
Q 1159 2491 1159 1978 
L 1159 0 
L 581 0 
L 581 3500 
L 1159 3500 
L 1159 2956 
Q 1366 3272 1645 3428 
Q 1925 3584 2291 3584 
Q 2894 3584 3203 3211 
Q 3513 2838 3513 2113 
z
" transform="scale(0.015625)"/>
      </defs>
      <use xlink:href="#DejaVuSans-54"/>
      <use xlink:href="#DejaVuSans-72" x="46.333984"/>
      <use xlink:href="#DejaVuSans-65" x="85.197266"/>
      <use xlink:href="#DejaVuSans-6e" x="146.720703"/>
      <use xlink:href="#DejaVuSans-64" x="210.099609"/>
     </g>
    </g>
   </g>
   <g id="line2d_46">
    <path d="M 104.21178 251.062895 
L 111.496108 254.831235 
L 118.780436 256.248226 
L 126.064764 253.896033 
L 133.349092 252.237707 
L 140.63342 260.105639 
L 147.917748 264.985055 
L 155.202076 259.204901 
L 162.486404 254.293865 
L 169.770732 242.494629 
L 177.05506 240.030893 
L 184.339388 256.264768 
L 191.623716 261.694262 
L 198.908044 264.827935 
L 206.192372 270.144271 
L 213.4767 277.475103 
L 220.761028 286.393577 
L 228.045356 282.61063 
L 235.329683 272.956657 
L 242.614011 271.795111 
L 249.898339 270.227798 
L 257.182667 279.719137 
L 264.466995 283.341849 
L 271.751323 273.244923 
L 279.035651 268.045377 
L 286.319979 265.157882 
L 293.604307 267.492848 
L 300.888635 265.049848 
L 308.172963 255.589014 
L 315.457291 249.667799 
L 322.741619 250.956259 
L 330.025947 250.865402 
L 337.310275 253.434251 
L 344.594603 253.814952 
L 351.878931 245.923629 
L 359.163259 238.975801 
L 366.447587 241.34943 
L 373.731915 242.868386 
L 381.016243 238.958144 
L 388.300571 243.864563 
L 395.584899 251.860559 
L 410.153554 271.843547 
L 417.437882 274.529741 
L 424.72221 266.753578 
L 432.006538 257.121825 
L 439.290866 259.614102 
L 446.575194 268.033086 
L 453.859522 278.914194 
L 461.14385 281.308971 
L 468.428178 287.146325 
L 475.712506 288.260031 
L 482.996834 277.207861 
L 490.281162 269.28746 
L 497.56549 267.974581 
L 504.849818 277.727512 
L 512.134146 283.763672 
L 519.418474 298.518748 
L 526.702802 310.259457 
L 533.98713 299.683767 
L 541.271458 284.124689 
L 548.555786 279.283206 
L 555.840114 270.481992 
L 563.124442 263.941762 
L 577.693097 270.077355 
L 584.977425 271.676009 
L 592.261753 264.207019 
L 599.546081 263.919952 
L 606.830409 253.456239 
L 614.114737 245.464186 
L 621.399065 258.963363 
L 628.683393 262.868314 
L 635.967721 262.252112 
L 643.252049 266.335081 
L 650.536377 263.096945 
L 657.820705 259.438829 
L 665.105033 254.910337 
L 672.389361 250.660998 
L 679.673689 256.8363 
L 686.958017 261.670947 
L 694.242345 266.795144 
L 701.526673 275.501279 
L 708.811001 279.876204 
L 716.095329 285.447261 
L 723.379657 288.042933 
L 730.663985 286.712898 
L 737.948312 289.762155 
L 745.23264 290.654378 
L 752.516968 296.164151 
L 759.801296 300.446544 
L 767.085624 296.770714 
L 774.369952 295.557807 
L 781.65428 293.016663 
L 788.938608 284.039604 
L 796.222936 278.262295 
L 803.507264 276.467192 
L 810.791592 273.619186 
L 818.07592 275.200929 
L 825.360248 277.579762 
L 832.644576 274.092084 
L 839.928904 267.815154 
L 847.213232 266.656312 
L 854.49756 270.522801 
L 861.781888 273.410919 
L 869.066216 283.190026 
L 876.350544 298.202833 
L 883.634872 301.337595 
L 890.9192 294.08139 
L 898.203528 291.24971 
L 905.487856 289.200125 
L 912.772183 292.874278 
L 920.056511 303.202887 
L 927.340839 306.628961 
L 934.625167 288.781833 
L 941.909495 289.953445 
L 949.193823 289.42388 
L 956.478151 258.827422 
L 963.762479 250.667689 
L 971.046807 253.012054 
L 978.331135 258.258788 
L 985.615463 260.790398 
L 992.899791 256.889226 
L 1000.184119 252.761935 
L 1007.468447 256.904174 
L 1014.752775 257.316527 
L 1022.037103 272.129895 
L 1029.321431 266.980828 
L 1036.605759 279.534219 
L 1043.890087 326.400444 
L 1051.174415 331.549814 
L 1058.458743 320.850939 
L 1065.743071 297.58621 
L 1073.027399 290.254303 
L 1080.311726 305.331572 
L 1087.596054 306.924412 
L 1094.880382 297.529631 
L 1102.16471 300.027053 
L 1109.449038 306.52637 
L 1116.733366 308.164071 
L 1124.017694 279.670237 
L 1131.302022 222.51106 
L 1138.58635 205.777086 
L 1145.870678 209.417891 
L 1153.155006 217.999361 
L 1160.439334 221.359851 
L 1167.723662 215.303214 
L 1175.00799 223.291022 
L 1182.292318 230.530947 
L 1189.576646 227.71405 
L 1196.860974 216.206912 
L 1204.145302 214.931842 
L 1211.42963 223.746186 
L 1218.713958 251.322452 
L 1225.998286 257.697709 
L 1233.282614 259.582415 
L 1240.566942 269.217051 
L 1247.851269 265.214783 
L 1255.135597 259.232157 
L 1262.419925 238.49575 
L 1269.704253 253.135225 
L 1276.988581 281.157745 
L 1284.272909 281.155055 
L 1291.557237 282.891598 
L 1298.841565 286.576609 
L 1306.125893 281.771663 
L 1313.410221 276.733691 
L 1320.694549 276.03155 
L 1327.978877 282.899873 
L 1335.263205 292.227336 
L 1342.547533 291.273017 
L 1349.831861 299.349182 
L 1357.116189 280.359111 
L 1364.400517 255.092355 
L 1371.684845 261.193138 
L 1371.684845 261.193138 
" clip-path="url(#p08ad1064d8)" style="fill: none; stroke: #008fd5; stroke-width: 4"/>
   </g>
   <g id="patch_8">
    <path d="M 60.505813 337.83845 
L 60.505813 199.48845 
" style="fill: none; stroke: #f0f0f0; stroke-width: 3; stroke-linejoin: miter; stroke-linecap: square"/>
   </g>
   <g id="patch_9">
    <path d="M 1415.390812 337.83845 
L 1415.390812 199.48845 
" style="fill: none; stroke: #f0f0f0; stroke-width: 3; stroke-linejoin: miter; stroke-linecap: square"/>
   </g>
   <g id="patch_10">
    <path d="M 60.505813 337.83845 
L 1415.390812 337.83845 
" style="fill: none; stroke: #f0f0f0; stroke-width: 3; stroke-linejoin: miter; stroke-linecap: square"/>
   </g>
   <g id="patch_11">
    <path d="M 60.505813 199.48845 
L 1415.390812 199.48845 
" style="fill: none; stroke: #f0f0f0; stroke-width: 3; stroke-linejoin: miter; stroke-linecap: square"/>
   </g>
  </g>
  <g id="axes_3">
   <g id="patch_12">
    <path d="M 60.505813 508.80845 
L 1415.390812 508.80845 
L 1415.390812 370.45845 
L 60.505813 370.45845 
z
" style="fill: #f0f0f0"/>
   </g>
   <g id="matplotlib.axis_5">
    <g id="xtick_17">
     <g id="line2d_47">
      <path d="M 60.505813 508.80845 
L 60.505813 370.45845 
" clip-path="url(#pea834f6f23)" style="fill: none; stroke: #cbcbcb"/>
     </g>
     <g id="line2d_48"/>
     <g id="text_25">
      <!-- 0 -->
      <g transform="translate(56.052063 522.946262)scale(0.14 -0.14)">
       <use xlink:href="#DejaVuSans-30"/>
      </g>
     </g>
    </g>
    <g id="xtick_18">
     <g id="line2d_49">
      <path d="M 242.614011 508.80845 
L 242.614011 370.45845 
" clip-path="url(#pea834f6f23)" style="fill: none; stroke: #cbcbcb"/>
     </g>
     <g id="line2d_50"/>
     <g id="text_26">
      <!-- 25 -->
      <g transform="translate(233.706511 522.946262)scale(0.14 -0.14)">
       <use xlink:href="#DejaVuSans-32"/>
       <use xlink:href="#DejaVuSans-35" x="63.623047"/>
      </g>
     </g>
    </g>
    <g id="xtick_19">
     <g id="line2d_51">
      <path d="M 424.72221 508.80845 
L 424.72221 370.45845 
" clip-path="url(#pea834f6f23)" style="fill: none; stroke: #cbcbcb"/>
     </g>
     <g id="line2d_52"/>
     <g id="text_27">
      <!-- 50 -->
      <g transform="translate(415.81471 522.946262)scale(0.14 -0.14)">
       <use xlink:href="#DejaVuSans-35"/>
       <use xlink:href="#DejaVuSans-30" x="63.623047"/>
      </g>
     </g>
    </g>
    <g id="xtick_20">
     <g id="line2d_53">
      <path d="M 606.830409 508.80845 
L 606.830409 370.45845 
" clip-path="url(#pea834f6f23)" style="fill: none; stroke: #cbcbcb"/>
     </g>
     <g id="line2d_54"/>
     <g id="text_28">
      <!-- 75 -->
      <g transform="translate(597.922909 522.946262)scale(0.14 -0.14)">
       <use xlink:href="#DejaVuSans-37"/>
       <use xlink:href="#DejaVuSans-35" x="63.623047"/>
      </g>
     </g>
    </g>
    <g id="xtick_21">
     <g id="line2d_55">
      <path d="M 788.938608 508.80845 
L 788.938608 370.45845 
" clip-path="url(#pea834f6f23)" style="fill: none; stroke: #cbcbcb"/>
     </g>
     <g id="line2d_56"/>
     <g id="text_29">
      <!-- 100 -->
      <g transform="translate(775.577358 522.946262)scale(0.14 -0.14)">
       <use xlink:href="#DejaVuSans-31"/>
       <use xlink:href="#DejaVuSans-30" x="63.623047"/>
       <use xlink:href="#DejaVuSans-30" x="127.246094"/>
      </g>
     </g>
    </g>
    <g id="xtick_22">
     <g id="line2d_57">
      <path d="M 971.046807 508.80845 
L 971.046807 370.45845 
" clip-path="url(#pea834f6f23)" style="fill: none; stroke: #cbcbcb"/>
     </g>
     <g id="line2d_58"/>
     <g id="text_30">
      <!-- 125 -->
      <g transform="translate(957.685557 522.946262)scale(0.14 -0.14)">
       <use xlink:href="#DejaVuSans-31"/>
       <use xlink:href="#DejaVuSans-32" x="63.623047"/>
       <use xlink:href="#DejaVuSans-35" x="127.246094"/>
      </g>
     </g>
    </g>
    <g id="xtick_23">
     <g id="line2d_59">
      <path d="M 1153.155006 508.80845 
L 1153.155006 370.45845 
" clip-path="url(#pea834f6f23)" style="fill: none; stroke: #cbcbcb"/>
     </g>
     <g id="line2d_60"/>
     <g id="text_31">
      <!-- 150 -->
      <g transform="translate(1139.793756 522.946262)scale(0.14 -0.14)">
       <use xlink:href="#DejaVuSans-31"/>
       <use xlink:href="#DejaVuSans-35" x="63.623047"/>
       <use xlink:href="#DejaVuSans-30" x="127.246094"/>
      </g>
     </g>
    </g>
    <g id="xtick_24">
     <g id="line2d_61">
      <path d="M 1335.263205 508.80845 
L 1335.263205 370.45845 
" clip-path="url(#pea834f6f23)" style="fill: none; stroke: #cbcbcb"/>
     </g>
     <g id="line2d_62"/>
     <g id="text_32">
      <!-- 175 -->
      <g transform="translate(1321.901955 522.946262)scale(0.14 -0.14)">
       <use xlink:href="#DejaVuSans-31"/>
       <use xlink:href="#DejaVuSans-37" x="63.623047"/>
       <use xlink:href="#DejaVuSans-35" x="127.246094"/>
      </g>
     </g>
    </g>
   </g>
   <g id="matplotlib.axis_6">
    <g id="ytick_7">
     <g id="line2d_63">
      <path d="M 60.505813 500.876378 
L 1415.390812 500.876378 
" clip-path="url(#pea834f6f23)" style="fill: none; stroke: #cbcbcb"/>
     </g>
     <g id="line2d_64"/>
     <g id="text_33">
      <!-- −5 -->
      <g transform="translate(36.36675 506.195284)scale(0.14 -0.14)">
       <use xlink:href="#DejaVuSans-2212"/>
       <use xlink:href="#DejaVuSans-35" x="83.789062"/>
      </g>
     </g>
    </g>
    <g id="ytick_8">
     <g id="line2d_65">
      <path d="M 60.505813 438.85636 
L 1415.390812 438.85636 
" clip-path="url(#pea834f6f23)" style="fill: none; stroke: #cbcbcb"/>
     </g>
     <g id="line2d_66"/>
     <g id="text_34">
      <!-- 0 -->
      <g transform="translate(48.098313 444.175266)scale(0.14 -0.14)">
       <use xlink:href="#DejaVuSans-30"/>
      </g>
     </g>
    </g>
    <g id="ytick_9">
     <g id="line2d_67">
      <path d="M 60.505813 376.836341 
L 1415.390812 376.836341 
" clip-path="url(#pea834f6f23)" style="fill: none; stroke: #cbcbcb"/>
     </g>
     <g id="line2d_68"/>
     <g id="text_35">
      <!-- 5 -->
      <g transform="translate(48.098313 382.155248)scale(0.14 -0.14)">
       <use xlink:href="#DejaVuSans-35"/>
      </g>
     </g>
    </g>
    <g id="text_36">
     <!-- Seasonal -->
     <g transform="translate(28.872875 477.602762)rotate(-90)scale(0.168 -0.168)">
      <defs>
       <path id="DejaVuSans-53" d="M 3425 4513 
L 3425 3897 
Q 3066 4069 2747 4153 
Q 2428 4238 2131 4238 
Q 1616 4238 1336 4038 
Q 1056 3838 1056 3469 
Q 1056 3159 1242 3001 
Q 1428 2844 1947 2747 
L 2328 2669 
Q 3034 2534 3370 2195 
Q 3706 1856 3706 1288 
Q 3706 609 3251 259 
Q 2797 -91 1919 -91 
Q 1588 -91 1214 -16 
Q 841 59 441 206 
L 441 856 
Q 825 641 1194 531 
Q 1563 422 1919 422 
Q 2459 422 2753 634 
Q 3047 847 3047 1241 
Q 3047 1584 2836 1778 
Q 2625 1972 2144 2069 
L 1759 2144 
Q 1053 2284 737 2584 
Q 422 2884 422 3419 
Q 422 4038 858 4394 
Q 1294 4750 2059 4750 
Q 2388 4750 2728 4690 
Q 3069 4631 3425 4513 
z
" transform="scale(0.015625)"/>
       <path id="DejaVuSans-73" d="M 2834 3397 
L 2834 2853 
Q 2591 2978 2328 3040 
Q 2066 3103 1784 3103 
Q 1356 3103 1142 2972 
Q 928 2841 928 2578 
Q 928 2378 1081 2264 
Q 1234 2150 1697 2047 
L 1894 2003 
Q 2506 1872 2764 1633 
Q 3022 1394 3022 966 
Q 3022 478 2636 193 
Q 2250 -91 1575 -91 
Q 1294 -91 989 -36 
Q 684 19 347 128 
L 347 722 
Q 666 556 975 473 
Q 1284 391 1588 391 
Q 1994 391 2212 530 
Q 2431 669 2431 922 
Q 2431 1156 2273 1281 
Q 2116 1406 1581 1522 
L 1381 1569 
Q 847 1681 609 1914 
Q 372 2147 372 2553 
Q 372 3047 722 3315 
Q 1072 3584 1716 3584 
Q 2034 3584 2315 3537 
Q 2597 3491 2834 3397 
z
" transform="scale(0.015625)"/>
       <path id="DejaVuSans-6f" d="M 1959 3097 
Q 1497 3097 1228 2736 
Q 959 2375 959 1747 
Q 959 1119 1226 758 
Q 1494 397 1959 397 
Q 2419 397 2687 759 
Q 2956 1122 2956 1747 
Q 2956 2369 2687 2733 
Q 2419 3097 1959 3097 
z
M 1959 3584 
Q 2709 3584 3137 3096 
Q 3566 2609 3566 1747 
Q 3566 888 3137 398 
Q 2709 -91 1959 -91 
Q 1206 -91 779 398 
Q 353 888 353 1747 
Q 353 2609 779 3096 
Q 1206 3584 1959 3584 
z
" transform="scale(0.015625)"/>
      </defs>
      <use xlink:href="#DejaVuSans-53"/>
      <use xlink:href="#DejaVuSans-65" x="63.476562"/>
      <use xlink:href="#DejaVuSans-61" x="125"/>
      <use xlink:href="#DejaVuSans-73" x="186.279297"/>
      <use xlink:href="#DejaVuSans-6f" x="238.378906"/>
      <use xlink:href="#DejaVuSans-6e" x="299.560547"/>
      <use xlink:href="#DejaVuSans-61" x="362.939453"/>
      <use xlink:href="#DejaVuSans-6c" x="424.21875"/>
     </g>
    </g>
   </g>
   <g id="line2d_69">
    <path d="M 60.505813 413.303634 
L 67.79014 403.375009 
L 75.074468 502.519814 
L 82.358796 405.895338 
L 89.643124 461.686565 
L 96.927452 452.264775 
L 104.21178 437.099714 
L 111.496108 490.724773 
L 118.780436 377.996118 
L 126.064764 456.114908 
L 133.349092 488.54858 
L 140.63342 376.747086 
L 147.917748 413.303634 
L 155.202076 403.375009 
L 162.486404 502.519814 
L 169.770732 405.895338 
L 177.05506 461.686565 
L 184.339388 452.264775 
L 191.623716 437.099714 
L 198.908044 490.724773 
L 206.192372 377.996118 
L 213.4767 456.114908 
L 220.761028 488.54858 
L 228.045356 376.747086 
L 235.329683 413.303634 
L 242.614011 403.375009 
L 249.898339 502.519814 
L 257.182667 405.895338 
L 264.466995 461.686565 
L 271.751323 452.264775 
L 279.035651 437.099714 
L 286.319979 490.724773 
L 293.604307 377.996118 
L 300.888635 456.114908 
L 308.172963 488.54858 
L 315.457291 376.747086 
L 322.741619 413.303634 
L 330.025947 403.375009 
L 337.310275 502.519814 
L 344.594603 405.895338 
L 351.878931 461.686565 
L 359.163259 452.264775 
L 366.447587 437.099714 
L 373.731915 490.724773 
L 381.016243 377.996118 
L 388.300571 456.114908 
L 395.584899 488.54858 
L 402.869226 376.747086 
L 410.153554 413.303634 
L 417.437882 403.375009 
L 424.72221 502.519814 
L 432.006538 405.895338 
L 439.290866 461.686565 
L 446.575194 452.264775 
L 453.859522 437.099714 
L 461.14385 490.724773 
L 468.428178 377.996118 
L 475.712506 456.114908 
L 482.996834 488.54858 
L 490.281162 376.747086 
L 497.56549 413.303634 
L 504.849818 403.375009 
L 512.134146 502.519814 
L 519.418474 405.895338 
L 526.702802 461.686565 
L 533.98713 452.264775 
L 541.271458 437.099714 
L 548.555786 490.724773 
L 555.840114 377.996118 
L 563.124442 456.114908 
L 570.408769 488.54858 
L 577.693097 376.747086 
L 584.977425 413.303634 
L 592.261753 403.375009 
L 599.546081 502.519814 
L 606.830409 405.895338 
L 614.114737 461.686565 
L 621.399065 452.264775 
L 628.683393 437.099714 
L 635.967721 490.724773 
L 643.252049 377.996118 
L 650.536377 456.114908 
L 657.820705 488.54858 
L 665.105033 376.747086 
L 672.389361 413.303634 
L 679.673689 403.375009 
L 686.958017 502.519814 
L 694.242345 405.895338 
L 701.526673 461.686565 
L 708.811001 452.264775 
L 716.095329 437.099714 
L 723.379657 490.724773 
L 730.663985 377.996118 
L 737.948312 456.114908 
L 745.23264 488.54858 
L 752.516968 376.747086 
L 759.801296 413.303634 
L 767.085624 403.375009 
L 774.369952 502.519814 
L 781.65428 405.895338 
L 788.938608 461.686565 
L 796.222936 452.264775 
L 803.507264 437.099714 
L 810.791592 490.724773 
L 818.07592 377.996118 
L 825.360248 456.114908 
L 832.644576 488.54858 
L 839.928904 376.747086 
L 847.213232 413.303634 
L 854.49756 403.375009 
L 861.781888 502.519814 
L 869.066216 405.895338 
L 876.350544 461.686565 
L 883.634872 452.264775 
L 890.9192 437.099714 
L 898.203528 490.724773 
L 905.487856 377.996118 
L 912.772183 456.114908 
L 920.056511 488.54858 
L 927.340839 376.747086 
L 934.625167 413.303634 
L 941.909495 403.375009 
L 949.193823 502.519814 
L 956.478151 405.895338 
L 963.762479 461.686565 
L 971.046807 452.264775 
L 978.331135 437.099714 
L 985.615463 490.724773 
L 992.899791 377.996118 
L 1000.184119 456.114908 
L 1007.468447 488.54858 
L 1014.752775 376.747086 
L 1022.037103 413.303634 
L 1029.321431 403.375009 
L 1036.605759 502.519814 
L 1043.890087 405.895338 
L 1051.174415 461.686565 
L 1058.458743 452.264775 
L 1065.743071 437.099714 
L 1073.027399 490.724773 
L 1080.311726 377.996118 
L 1087.596054 456.114908 
L 1094.880382 488.54858 
L 1102.16471 376.747086 
L 1109.449038 413.303634 
L 1116.733366 403.375009 
L 1124.017694 502.519814 
L 1131.302022 405.895338 
L 1138.58635 461.686565 
L 1145.870678 452.264775 
L 1153.155006 437.099714 
L 1160.439334 490.724773 
L 1167.723662 377.996118 
L 1175.00799 456.114908 
L 1182.292318 488.54858 
L 1189.576646 376.747086 
L 1196.860974 413.303634 
L 1204.145302 403.375009 
L 1211.42963 502.519814 
L 1218.713958 405.895338 
L 1225.998286 461.686565 
L 1233.282614 452.264775 
L 1240.566942 437.099714 
L 1247.851269 490.724773 
L 1255.135597 377.996118 
L 1262.419925 456.114908 
L 1269.704253 488.54858 
L 1276.988581 376.747086 
L 1284.272909 413.303634 
L 1291.557237 403.375009 
L 1298.841565 502.519814 
L 1306.125893 405.895338 
L 1313.410221 461.686565 
L 1320.694549 452.264775 
L 1327.978877 437.099714 
L 1335.263205 490.724773 
L 1342.547533 377.996118 
L 1349.831861 456.114908 
L 1357.116189 488.54858 
L 1364.400517 376.747086 
L 1371.684845 413.303634 
L 1378.969173 403.375009 
L 1386.253501 502.519814 
L 1393.537829 405.895338 
L 1400.822157 461.686565 
L 1408.106485 452.264775 
L 1415.390812 437.099714 
L 1415.390812 437.099714 
" clip-path="url(#pea834f6f23)" style="fill: none; stroke: #008fd5; stroke-width: 4"/>
   </g>
   <g id="patch_13">
    <path d="M 60.505813 508.80845 
L 60.505813 370.45845 
" style="fill: none; stroke: #f0f0f0; stroke-width: 3; stroke-linejoin: miter; stroke-linecap: square"/>
   </g>
   <g id="patch_14">
    <path d="M 1415.390812 508.80845 
L 1415.390812 370.45845 
" style="fill: none; stroke: #f0f0f0; stroke-width: 3; stroke-linejoin: miter; stroke-linecap: square"/>
   </g>
   <g id="patch_15">
    <path d="M 60.505813 508.80845 
L 1415.390812 508.80845 
" style="fill: none; stroke: #f0f0f0; stroke-width: 3; stroke-linejoin: miter; stroke-linecap: square"/>
   </g>
   <g id="patch_16">
    <path d="M 60.505813 370.45845 
L 1415.390812 370.45845 
" style="fill: none; stroke: #f0f0f0; stroke-width: 3; stroke-linejoin: miter; stroke-linecap: square"/>
   </g>
  </g>
  <g id="axes_4">
   <g id="patch_17">
    <path d="M 60.505813 679.77845 
L 1415.390812 679.77845 
L 1415.390812 541.42845 
L 60.505813 541.42845 
z
" style="fill: #f0f0f0"/>
   </g>
   <g id="line2d_70">
    <path d="M 60.505813 597.060515 
L 1415.390812 597.060515 
" clip-path="url(#p260ad07625)" style="fill: none; stroke: #000000; stroke-width: 4"/>
   </g>
   <g id="matplotlib.axis_7">
    <g id="xtick_25">
     <g id="line2d_71">
      <path d="M 60.505813 679.77845 
L 60.505813 541.42845 
" clip-path="url(#p260ad07625)" style="fill: none; stroke: #cbcbcb"/>
     </g>
     <g id="line2d_72"/>
     <g id="text_37">
      <!-- 0 -->
      <g transform="translate(56.052063 693.916262)scale(0.14 -0.14)">
       <use xlink:href="#DejaVuSans-30"/>
      </g>
     </g>
    </g>
    <g id="xtick_26">
     <g id="line2d_73">
      <path d="M 242.614011 679.77845 
L 242.614011 541.42845 
" clip-path="url(#p260ad07625)" style="fill: none; stroke: #cbcbcb"/>
     </g>
     <g id="line2d_74"/>
     <g id="text_38">
      <!-- 25 -->
      <g transform="translate(233.706511 693.916262)scale(0.14 -0.14)">
       <use xlink:href="#DejaVuSans-32"/>
       <use xlink:href="#DejaVuSans-35" x="63.623047"/>
      </g>
     </g>
    </g>
    <g id="xtick_27">
     <g id="line2d_75">
      <path d="M 424.72221 679.77845 
L 424.72221 541.42845 
" clip-path="url(#p260ad07625)" style="fill: none; stroke: #cbcbcb"/>
     </g>
     <g id="line2d_76"/>
     <g id="text_39">
      <!-- 50 -->
      <g transform="translate(415.81471 693.916262)scale(0.14 -0.14)">
       <use xlink:href="#DejaVuSans-35"/>
       <use xlink:href="#DejaVuSans-30" x="63.623047"/>
      </g>
     </g>
    </g>
    <g id="xtick_28">
     <g id="line2d_77">
      <path d="M 606.830409 679.77845 
L 606.830409 541.42845 
" clip-path="url(#p260ad07625)" style="fill: none; stroke: #cbcbcb"/>
     </g>
     <g id="line2d_78"/>
     <g id="text_40">
      <!-- 75 -->
      <g transform="translate(597.922909 693.916262)scale(0.14 -0.14)">
       <use xlink:href="#DejaVuSans-37"/>
       <use xlink:href="#DejaVuSans-35" x="63.623047"/>
      </g>
     </g>
    </g>
    <g id="xtick_29">
     <g id="line2d_79">
      <path d="M 788.938608 679.77845 
L 788.938608 541.42845 
" clip-path="url(#p260ad07625)" style="fill: none; stroke: #cbcbcb"/>
     </g>
     <g id="line2d_80"/>
     <g id="text_41">
      <!-- 100 -->
      <g transform="translate(775.577358 693.916262)scale(0.14 -0.14)">
       <use xlink:href="#DejaVuSans-31"/>
       <use xlink:href="#DejaVuSans-30" x="63.623047"/>
       <use xlink:href="#DejaVuSans-30" x="127.246094"/>
      </g>
     </g>
    </g>
    <g id="xtick_30">
     <g id="line2d_81">
      <path d="M 971.046807 679.77845 
L 971.046807 541.42845 
" clip-path="url(#p260ad07625)" style="fill: none; stroke: #cbcbcb"/>
     </g>
     <g id="line2d_82"/>
     <g id="text_42">
      <!-- 125 -->
      <g transform="translate(957.685557 693.916262)scale(0.14 -0.14)">
       <use xlink:href="#DejaVuSans-31"/>
       <use xlink:href="#DejaVuSans-32" x="63.623047"/>
       <use xlink:href="#DejaVuSans-35" x="127.246094"/>
      </g>
     </g>
    </g>
    <g id="xtick_31">
     <g id="line2d_83">
      <path d="M 1153.155006 679.77845 
L 1153.155006 541.42845 
" clip-path="url(#p260ad07625)" style="fill: none; stroke: #cbcbcb"/>
     </g>
     <g id="line2d_84"/>
     <g id="text_43">
      <!-- 150 -->
      <g transform="translate(1139.793756 693.916262)scale(0.14 -0.14)">
       <use xlink:href="#DejaVuSans-31"/>
       <use xlink:href="#DejaVuSans-35" x="63.623047"/>
       <use xlink:href="#DejaVuSans-30" x="127.246094"/>
      </g>
     </g>
    </g>
    <g id="xtick_32">
     <g id="line2d_85">
      <path d="M 1335.263205 679.77845 
L 1335.263205 541.42845 
" clip-path="url(#p260ad07625)" style="fill: none; stroke: #cbcbcb"/>
     </g>
     <g id="line2d_86"/>
     <g id="text_44">
      <!-- 175 -->
      <g transform="translate(1321.901955 693.916262)scale(0.14 -0.14)">
       <use xlink:href="#DejaVuSans-31"/>
       <use xlink:href="#DejaVuSans-37" x="63.623047"/>
       <use xlink:href="#DejaVuSans-35" x="127.246094"/>
      </g>
     </g>
    </g>
   </g>
   <g id="matplotlib.axis_8">
    <g id="ytick_10">
     <g id="line2d_87">
      <path d="M 60.505813 653.807045 
L 1415.390812 653.807045 
" clip-path="url(#p260ad07625)" style="fill: none; stroke: #cbcbcb"/>
     </g>
     <g id="line2d_88"/>
     <g id="text_45">
      <!-- −50 -->
      <g transform="translate(27.45925 659.125952)scale(0.14 -0.14)">
       <use xlink:href="#DejaVuSans-2212"/>
       <use xlink:href="#DejaVuSans-35" x="83.789062"/>
       <use xlink:href="#DejaVuSans-30" x="147.412109"/>
      </g>
     </g>
    </g>
    <g id="ytick_11">
     <g id="line2d_89">
      <path d="M 60.505813 597.060515 
L 1415.390812 597.060515 
" clip-path="url(#p260ad07625)" style="fill: none; stroke: #cbcbcb"/>
     </g>
     <g id="line2d_90"/>
     <g id="text_46">
      <!-- 0 -->
      <g transform="translate(48.098313 602.379421)scale(0.14 -0.14)">
       <use xlink:href="#DejaVuSans-30"/>
      </g>
     </g>
    </g>
    <g id="text_47">
     <!-- Resid -->
     <g transform="translate(19.965375 633.27295)rotate(-90)scale(0.168 -0.168)">
      <defs>
       <path id="DejaVuSans-52" d="M 2841 2188 
Q 3044 2119 3236 1894 
Q 3428 1669 3622 1275 
L 4263 0 
L 3584 0 
L 2988 1197 
Q 2756 1666 2539 1819 
Q 2322 1972 1947 1972 
L 1259 1972 
L 1259 0 
L 628 0 
L 628 4666 
L 2053 4666 
Q 2853 4666 3247 4331 
Q 3641 3997 3641 3322 
Q 3641 2881 3436 2590 
Q 3231 2300 2841 2188 
z
M 1259 4147 
L 1259 2491 
L 2053 2491 
Q 2509 2491 2742 2702 
Q 2975 2913 2975 3322 
Q 2975 3731 2742 3939 
Q 2509 4147 2053 4147 
L 1259 4147 
z
" transform="scale(0.015625)"/>
       <path id="DejaVuSans-69" d="M 603 3500 
L 1178 3500 
L 1178 0 
L 603 0 
L 603 3500 
z
M 603 4863 
L 1178 4863 
L 1178 4134 
L 603 4134 
L 603 4863 
z
" transform="scale(0.015625)"/>
      </defs>
      <use xlink:href="#DejaVuSans-52"/>
      <use xlink:href="#DejaVuSans-65" x="64.982422"/>
      <use xlink:href="#DejaVuSans-73" x="126.505859"/>
      <use xlink:href="#DejaVuSans-69" x="178.605469"/>
      <use xlink:href="#DejaVuSans-64" x="206.388672"/>
     </g>
    </g>
   </g>
   <g id="line2d_91">
    <defs>
     <path id="mf63be7ee74" d="M 0 3 
C 0.795609 3 1.55874 2.683901 2.12132 2.12132 
C 2.683901 1.55874 3 0.795609 3 0 
C 3 -0.795609 2.683901 -1.55874 2.12132 -2.12132 
C 1.55874 -2.683901 0.795609 -3 0 -3 
C -0.795609 -3 -1.55874 -2.683901 -2.12132 -2.12132 
C -2.683901 -1.55874 -3 -0.795609 -3 0 
C -3 0.795609 -2.683901 1.55874 -2.12132 2.12132 
C -1.55874 2.683901 -0.795609 3 0 3 
z
" style="stroke: #008fd5"/>
    </defs>
    <g clip-path="url(#p260ad07625)">
     <use xlink:href="#mf63be7ee74" x="104.21178" y="601.081606" style="fill: #008fd5; stroke: #008fd5"/>
     <use xlink:href="#mf63be7ee74" x="111.496108" y="596.979914" style="fill: #008fd5; stroke: #008fd5"/>
     <use xlink:href="#mf63be7ee74" x="118.780436" y="610.343118" style="fill: #008fd5; stroke: #008fd5"/>
     <use xlink:href="#mf63be7ee74" x="126.064764" y="604.25159" style="fill: #008fd5; stroke: #008fd5"/>
     <use xlink:href="#mf63be7ee74" x="133.349092" y="589.141299" style="fill: #008fd5; stroke: #008fd5"/>
     <use xlink:href="#mf63be7ee74" x="140.63342" y="586.864376" style="fill: #008fd5; stroke: #008fd5"/>
     <use xlink:href="#mf63be7ee74" x="147.917748" y="607.247413" style="fill: #008fd5; stroke: #008fd5"/>
     <use xlink:href="#mf63be7ee74" x="155.202076" y="593.176643" style="fill: #008fd5; stroke: #008fd5"/>
     <use xlink:href="#mf63be7ee74" x="162.486404" y="591.09306" style="fill: #008fd5; stroke: #008fd5"/>
     <use xlink:href="#mf63be7ee74" x="169.770732" y="591.750283" style="fill: #008fd5; stroke: #008fd5"/>
     <use xlink:href="#mf63be7ee74" x="177.05506" y="602.450243" style="fill: #008fd5; stroke: #008fd5"/>
     <use xlink:href="#mf63be7ee74" x="184.339388" y="606.081369" style="fill: #008fd5; stroke: #008fd5"/>
     <use xlink:href="#mf63be7ee74" x="191.623716" y="598.785121" style="fill: #008fd5; stroke: #008fd5"/>
     <use xlink:href="#mf63be7ee74" x="198.908044" y="581.236828" style="fill: #008fd5; stroke: #008fd5"/>
     <use xlink:href="#mf63be7ee74" x="206.192372" y="610.038397" style="fill: #008fd5; stroke: #008fd5"/>
     <use xlink:href="#mf63be7ee74" x="213.4767" y="568.256047" style="fill: #008fd5; stroke: #008fd5"/>
     <use xlink:href="#mf63be7ee74" x="220.761028" y="611.907068" style="fill: #008fd5; stroke: #008fd5"/>
     <use xlink:href="#mf63be7ee74" x="228.045356" y="601.79078" style="fill: #008fd5; stroke: #008fd5"/>
     <use xlink:href="#mf63be7ee74" x="235.329683" y="603.622506" style="fill: #008fd5; stroke: #008fd5"/>
     <use xlink:href="#mf63be7ee74" x="242.614011" y="602.987841" style="fill: #008fd5; stroke: #008fd5"/>
     <use xlink:href="#mf63be7ee74" x="249.898339" y="592.496944" style="fill: #008fd5; stroke: #008fd5"/>
     <use xlink:href="#mf63be7ee74" x="257.182667" y="604.246002" style="fill: #008fd5; stroke: #008fd5"/>
     <use xlink:href="#mf63be7ee74" x="264.466995" y="605.068417" style="fill: #008fd5; stroke: #008fd5"/>
     <use xlink:href="#mf63be7ee74" x="271.751323" y="586.359829" style="fill: #008fd5; stroke: #008fd5"/>
     <use xlink:href="#mf63be7ee74" x="279.035651" y="589.636124" style="fill: #008fd5; stroke: #008fd5"/>
     <use xlink:href="#mf63be7ee74" x="286.319979" y="586.473633" style="fill: #008fd5; stroke: #008fd5"/>
     <use xlink:href="#mf63be7ee74" x="293.604307" y="600.806097" style="fill: #008fd5; stroke: #008fd5"/>
     <use xlink:href="#mf63be7ee74" x="300.888635" y="604.98255" style="fill: #008fd5; stroke: #008fd5"/>
     <use xlink:href="#mf63be7ee74" x="308.172963" y="589.917142" style="fill: #008fd5; stroke: #008fd5"/>
     <use xlink:href="#mf63be7ee74" x="315.457291" y="603.564513" style="fill: #008fd5; stroke: #008fd5"/>
     <use xlink:href="#mf63be7ee74" x="322.741619" y="593.941804" style="fill: #008fd5; stroke: #008fd5"/>
     <use xlink:href="#mf63be7ee74" x="330.025947" y="609.683328" style="fill: #008fd5; stroke: #008fd5"/>
     <use xlink:href="#mf63be7ee74" x="337.310275" y="596.415926" style="fill: #008fd5; stroke: #008fd5"/>
     <use xlink:href="#mf63be7ee74" x="344.594603" y="598.523166" style="fill: #008fd5; stroke: #008fd5"/>
     <use xlink:href="#mf63be7ee74" x="351.878931" y="592.255177" style="fill: #008fd5; stroke: #008fd5"/>
     <use xlink:href="#mf63be7ee74" x="359.163259" y="591.200896" style="fill: #008fd5; stroke: #008fd5"/>
     <use xlink:href="#mf63be7ee74" x="366.447587" y="595.197339" style="fill: #008fd5; stroke: #008fd5"/>
     <use xlink:href="#mf63be7ee74" x="373.731915" y="586.21101" style="fill: #008fd5; stroke: #008fd5"/>
     <use xlink:href="#mf63be7ee74" x="381.016243" y="613.80174" style="fill: #008fd5; stroke: #008fd5"/>
     <use xlink:href="#mf63be7ee74" x="388.300571" y="598.649849" style="fill: #008fd5; stroke: #008fd5"/>
     <use xlink:href="#mf63be7ee74" x="395.584899" y="577.629949" style="fill: #008fd5; stroke: #008fd5"/>
     <use xlink:href="#mf63be7ee74" x="402.869226" y="596.017127" style="fill: #008fd5; stroke: #008fd5"/>
     <use xlink:href="#mf63be7ee74" x="410.153554" y="604.193833" style="fill: #008fd5; stroke: #008fd5"/>
     <use xlink:href="#mf63be7ee74" x="417.437882" y="598.514704" style="fill: #008fd5; stroke: #008fd5"/>
     <use xlink:href="#mf63be7ee74" x="424.72221" y="592.77387" style="fill: #008fd5; stroke: #008fd5"/>
     <use xlink:href="#mf63be7ee74" x="432.006538" y="613.613501" style="fill: #008fd5; stroke: #008fd5"/>
     <use xlink:href="#mf63be7ee74" x="439.290866" y="596.965309" style="fill: #008fd5; stroke: #008fd5"/>
     <use xlink:href="#mf63be7ee74" x="446.575194" y="608.809229" style="fill: #008fd5; stroke: #008fd5"/>
     <use xlink:href="#mf63be7ee74" x="453.859522" y="597.181876" style="fill: #008fd5; stroke: #008fd5"/>
     <use xlink:href="#mf63be7ee74" x="461.14385" y="582.920452" style="fill: #008fd5; stroke: #008fd5"/>
     <use xlink:href="#mf63be7ee74" x="468.428178" y="586.158008" style="fill: #008fd5; stroke: #008fd5"/>
     <use xlink:href="#mf63be7ee74" x="475.712506" y="589.643631" style="fill: #008fd5; stroke: #008fd5"/>
     <use xlink:href="#mf63be7ee74" x="482.996834" y="585.512243" style="fill: #008fd5; stroke: #008fd5"/>
     <use xlink:href="#mf63be7ee74" x="490.281162" y="607.298015" style="fill: #008fd5; stroke: #008fd5"/>
     <use xlink:href="#mf63be7ee74" x="497.56549" y="622.073033" style="fill: #008fd5; stroke: #008fd5"/>
     <use xlink:href="#mf63be7ee74" x="504.849818" y="587.217961" style="fill: #008fd5; stroke: #008fd5"/>
     <use xlink:href="#mf63be7ee74" x="512.134146" y="617.642724" style="fill: #008fd5; stroke: #008fd5"/>
     <use xlink:href="#mf63be7ee74" x="519.418474" y="585.158499" style="fill: #008fd5; stroke: #008fd5"/>
     <use xlink:href="#mf63be7ee74" x="526.702802" y="584.972454" style="fill: #008fd5; stroke: #008fd5"/>
     <use xlink:href="#mf63be7ee74" x="533.98713" y="589.9664" style="fill: #008fd5; stroke: #008fd5"/>
     <use xlink:href="#mf63be7ee74" x="541.271458" y="608.28478" style="fill: #008fd5; stroke: #008fd5"/>
     <use xlink:href="#mf63be7ee74" x="548.555786" y="597.95518" style="fill: #008fd5; stroke: #008fd5"/>
     <use xlink:href="#mf63be7ee74" x="555.840114" y="589.639016" style="fill: #008fd5; stroke: #008fd5"/>
     <use xlink:href="#mf63be7ee74" x="563.124442" y="630.890806" style="fill: #008fd5; stroke: #008fd5"/>
     <use xlink:href="#mf63be7ee74" x="570.408769" y="580.068266" style="fill: #008fd5; stroke: #008fd5"/>
     <use xlink:href="#mf63be7ee74" x="577.693097" y="585.070399" style="fill: #008fd5; stroke: #008fd5"/>
     <use xlink:href="#mf63be7ee74" x="584.977425" y="601.519071" style="fill: #008fd5; stroke: #008fd5"/>
     <use xlink:href="#mf63be7ee74" x="592.261753" y="595.729464" style="fill: #008fd5; stroke: #008fd5"/>
     <use xlink:href="#mf63be7ee74" x="599.546081" y="588.995848" style="fill: #008fd5; stroke: #008fd5"/>
     <use xlink:href="#mf63be7ee74" x="606.830409" y="603.383713" style="fill: #008fd5; stroke: #008fd5"/>
     <use xlink:href="#mf63be7ee74" x="614.114737" y="587.593905" style="fill: #008fd5; stroke: #008fd5"/>
     <use xlink:href="#mf63be7ee74" x="621.399065" y="607.549906" style="fill: #008fd5; stroke: #008fd5"/>
     <use xlink:href="#mf63be7ee74" x="628.683393" y="602.060867" style="fill: #008fd5; stroke: #008fd5"/>
     <use xlink:href="#mf63be7ee74" x="635.967721" y="588.22064" style="fill: #008fd5; stroke: #008fd5"/>
     <use xlink:href="#mf63be7ee74" x="643.252049" y="600.991088" style="fill: #008fd5; stroke: #008fd5"/>
     <use xlink:href="#mf63be7ee74" x="650.536377" y="591.674509" style="fill: #008fd5; stroke: #008fd5"/>
     <use xlink:href="#mf63be7ee74" x="657.820705" y="598.526427" style="fill: #008fd5; stroke: #008fd5"/>
     <use xlink:href="#mf63be7ee74" x="665.105033" y="605.865914" style="fill: #008fd5; stroke: #008fd5"/>
     <use xlink:href="#mf63be7ee74" x="672.389361" y="595.42911" style="fill: #008fd5; stroke: #008fd5"/>
     <use xlink:href="#mf63be7ee74" x="679.673689" y="603.358675" style="fill: #008fd5; stroke: #008fd5"/>
     <use xlink:href="#mf63be7ee74" x="686.958017" y="593.548844" style="fill: #008fd5; stroke: #008fd5"/>
     <use xlink:href="#mf63be7ee74" x="694.242345" y="588.77744" style="fill: #008fd5; stroke: #008fd5"/>
     <use xlink:href="#mf63be7ee74" x="701.526673" y="587.350863" style="fill: #008fd5; stroke: #008fd5"/>
     <use xlink:href="#mf63be7ee74" x="708.811001" y="589.721456" style="fill: #008fd5; stroke: #008fd5"/>
     <use xlink:href="#mf63be7ee74" x="716.095329" y="603.420573" style="fill: #008fd5; stroke: #008fd5"/>
     <use xlink:href="#mf63be7ee74" x="723.379657" y="598.163134" style="fill: #008fd5; stroke: #008fd5"/>
     <use xlink:href="#mf63be7ee74" x="730.663985" y="598.957492" style="fill: #008fd5; stroke: #008fd5"/>
     <use xlink:href="#mf63be7ee74" x="737.948312" y="602.304709" style="fill: #008fd5; stroke: #008fd5"/>
     <use xlink:href="#mf63be7ee74" x="745.23264" y="604.997854" style="fill: #008fd5; stroke: #008fd5"/>
     <use xlink:href="#mf63be7ee74" x="752.516968" y="603.076946" style="fill: #008fd5; stroke: #008fd5"/>
     <use xlink:href="#mf63be7ee74" x="759.801296" y="603.048124" style="fill: #008fd5; stroke: #008fd5"/>
     <use xlink:href="#mf63be7ee74" x="767.085624" y="592.63512" style="fill: #008fd5; stroke: #008fd5"/>
     <use xlink:href="#mf63be7ee74" x="774.369952" y="592.301759" style="fill: #008fd5; stroke: #008fd5"/>
     <use xlink:href="#mf63be7ee74" x="781.65428" y="591.504556" style="fill: #008fd5; stroke: #008fd5"/>
     <use xlink:href="#mf63be7ee74" x="788.938608" y="583.112845" style="fill: #008fd5; stroke: #008fd5"/>
     <use xlink:href="#mf63be7ee74" x="796.222936" y="608.14533" style="fill: #008fd5; stroke: #008fd5"/>
     <use xlink:href="#mf63be7ee74" x="803.507264" y="597.831019" style="fill: #008fd5; stroke: #008fd5"/>
     <use xlink:href="#mf63be7ee74" x="810.791592" y="596.415118" style="fill: #008fd5; stroke: #008fd5"/>
     <use xlink:href="#mf63be7ee74" x="818.07592" y="600.346184" style="fill: #008fd5; stroke: #008fd5"/>
     <use xlink:href="#mf63be7ee74" x="825.360248" y="596.694216" style="fill: #008fd5; stroke: #008fd5"/>
     <use xlink:href="#mf63be7ee74" x="832.644576" y="589.472256" style="fill: #008fd5; stroke: #008fd5"/>
     <use xlink:href="#mf63be7ee74" x="839.928904" y="607.990151" style="fill: #008fd5; stroke: #008fd5"/>
     <use xlink:href="#mf63be7ee74" x="847.213232" y="600.292258" style="fill: #008fd5; stroke: #008fd5"/>
     <use xlink:href="#mf63be7ee74" x="854.49756" y="594.44979" style="fill: #008fd5; stroke: #008fd5"/>
     <use xlink:href="#mf63be7ee74" x="861.781888" y="600.263175" style="fill: #008fd5; stroke: #008fd5"/>
     <use xlink:href="#mf63be7ee74" x="869.066216" y="593.62589" style="fill: #008fd5; stroke: #008fd5"/>
     <use xlink:href="#mf63be7ee74" x="876.350544" y="571.024757" style="fill: #008fd5; stroke: #008fd5"/>
     <use xlink:href="#mf63be7ee74" x="883.634872" y="598.96373" style="fill: #008fd5; stroke: #008fd5"/>
     <use xlink:href="#mf63be7ee74" x="890.9192" y="599.257818" style="fill: #008fd5; stroke: #008fd5"/>
     <use xlink:href="#mf63be7ee74" x="898.203528" y="601.503437" style="fill: #008fd5; stroke: #008fd5"/>
     <use xlink:href="#mf63be7ee74" x="905.487856" y="599.524045" style="fill: #008fd5; stroke: #008fd5"/>
     <use xlink:href="#mf63be7ee74" x="912.772183" y="620.769414" style="fill: #008fd5; stroke: #008fd5"/>
     <use xlink:href="#mf63be7ee74" x="920.056511" y="601.159057" style="fill: #008fd5; stroke: #008fd5"/>
     <use xlink:href="#mf63be7ee74" x="927.340839" y="597.130846" style="fill: #008fd5; stroke: #008fd5"/>
     <use xlink:href="#mf63be7ee74" x="934.625167" y="584.53817" style="fill: #008fd5; stroke: #008fd5"/>
     <use xlink:href="#mf63be7ee74" x="941.909495" y="597.805957" style="fill: #008fd5; stroke: #008fd5"/>
     <use xlink:href="#mf63be7ee74" x="949.193823" y="587.325974" style="fill: #008fd5; stroke: #008fd5"/>
     <use xlink:href="#mf63be7ee74" x="956.478151" y="617.490786" style="fill: #008fd5; stroke: #008fd5"/>
     <use xlink:href="#mf63be7ee74" x="963.762479" y="583.361365" style="fill: #008fd5; stroke: #008fd5"/>
     <use xlink:href="#mf63be7ee74" x="971.046807" y="606.787572" style="fill: #008fd5; stroke: #008fd5"/>
     <use xlink:href="#mf63be7ee74" x="978.331135" y="552.470411" style="fill: #008fd5; stroke: #008fd5"/>
     <use xlink:href="#mf63be7ee74" x="985.615463" y="658.977559" style="fill: #008fd5; stroke: #008fd5"/>
     <use xlink:href="#mf63be7ee74" x="992.899791" y="547.717086" style="fill: #008fd5; stroke: #008fd5"/>
     <use xlink:href="#mf63be7ee74" x="1000.184119" y="597.64627" style="fill: #008fd5; stroke: #008fd5"/>
     <use xlink:href="#mf63be7ee74" x="1007.468447" y="611.894917" style="fill: #008fd5; stroke: #008fd5"/>
     <use xlink:href="#mf63be7ee74" x="1014.752775" y="603.588246" style="fill: #008fd5; stroke: #008fd5"/>
     <use xlink:href="#mf63be7ee74" x="1022.037103" y="599.803411" style="fill: #008fd5; stroke: #008fd5"/>
     <use xlink:href="#mf63be7ee74" x="1029.321431" y="593.904692" style="fill: #008fd5; stroke: #008fd5"/>
     <use xlink:href="#mf63be7ee74" x="1036.605759" y="584.348183" style="fill: #008fd5; stroke: #008fd5"/>
     <use xlink:href="#mf63be7ee74" x="1043.890087" y="602.724858" style="fill: #008fd5; stroke: #008fd5"/>
     <use xlink:href="#mf63be7ee74" x="1051.174415" y="592.575512" style="fill: #008fd5; stroke: #008fd5"/>
     <use xlink:href="#mf63be7ee74" x="1058.458743" y="581.857659" style="fill: #008fd5; stroke: #008fd5"/>
     <use xlink:href="#mf63be7ee74" x="1065.743071" y="605.515539" style="fill: #008fd5; stroke: #008fd5"/>
     <use xlink:href="#mf63be7ee74" x="1073.027399" y="584.15512" style="fill: #008fd5; stroke: #008fd5"/>
     <use xlink:href="#mf63be7ee74" x="1080.311726" y="647.826924" style="fill: #008fd5; stroke: #008fd5"/>
     <use xlink:href="#mf63be7ee74" x="1087.596054" y="613.253836" style="fill: #008fd5; stroke: #008fd5"/>
     <use xlink:href="#mf63be7ee74" x="1094.880382" y="599.547336" style="fill: #008fd5; stroke: #008fd5"/>
     <use xlink:href="#mf63be7ee74" x="1102.16471" y="577.433458" style="fill: #008fd5; stroke: #008fd5"/>
     <use xlink:href="#mf63be7ee74" x="1109.449038" y="554.020272" style="fill: #008fd5; stroke: #008fd5"/>
     <use xlink:href="#mf63be7ee74" x="1116.733366" y="611.21138" style="fill: #008fd5; stroke: #008fd5"/>
     <use xlink:href="#mf63be7ee74" x="1124.017694" y="603.327997" style="fill: #008fd5; stroke: #008fd5"/>
     <use xlink:href="#mf63be7ee74" x="1131.302022" y="599.818199" style="fill: #008fd5; stroke: #008fd5"/>
     <use xlink:href="#mf63be7ee74" x="1138.58635" y="595.956207" style="fill: #008fd5; stroke: #008fd5"/>
     <use xlink:href="#mf63be7ee74" x="1145.870678" y="612.115429" style="fill: #008fd5; stroke: #008fd5"/>
     <use xlink:href="#mf63be7ee74" x="1153.155006" y="614.540638" style="fill: #008fd5; stroke: #008fd5"/>
     <use xlink:href="#mf63be7ee74" x="1160.439334" y="596.388533" style="fill: #008fd5; stroke: #008fd5"/>
     <use xlink:href="#mf63be7ee74" x="1167.723662" y="576.168387" style="fill: #008fd5; stroke: #008fd5"/>
     <use xlink:href="#mf63be7ee74" x="1175.00799" y="549.273671" style="fill: #008fd5; stroke: #008fd5"/>
     <use xlink:href="#mf63be7ee74" x="1182.292318" y="635.114692" style="fill: #008fd5; stroke: #008fd5"/>
     <use xlink:href="#mf63be7ee74" x="1189.576646" y="567.528878" style="fill: #008fd5; stroke: #008fd5"/>
     <use xlink:href="#mf63be7ee74" x="1196.860974" y="605.651187" style="fill: #008fd5; stroke: #008fd5"/>
     <use xlink:href="#mf63be7ee74" x="1204.145302" y="589.489875" style="fill: #008fd5; stroke: #008fd5"/>
     <use xlink:href="#mf63be7ee74" x="1211.42963" y="625.479342" style="fill: #008fd5; stroke: #008fd5"/>
     <use xlink:href="#mf63be7ee74" x="1218.713958" y="602.438592" style="fill: #008fd5; stroke: #008fd5"/>
     <use xlink:href="#mf63be7ee74" x="1225.998286" y="603.866936" style="fill: #008fd5; stroke: #008fd5"/>
     <use xlink:href="#mf63be7ee74" x="1233.282614" y="584.9947" style="fill: #008fd5; stroke: #008fd5"/>
     <use xlink:href="#mf63be7ee74" x="1240.566942" y="598.920052" style="fill: #008fd5; stroke: #008fd5"/>
     <use xlink:href="#mf63be7ee74" x="1247.851269" y="597.782037" style="fill: #008fd5; stroke: #008fd5"/>
     <use xlink:href="#mf63be7ee74" x="1255.135597" y="588.785299" style="fill: #008fd5; stroke: #008fd5"/>
     <use xlink:href="#mf63be7ee74" x="1262.419925" y="604.885628" style="fill: #008fd5; stroke: #008fd5"/>
     <use xlink:href="#mf63be7ee74" x="1269.704253" y="592.543741" style="fill: #008fd5; stroke: #008fd5"/>
     <use xlink:href="#mf63be7ee74" x="1276.988581" y="606.611384" style="fill: #008fd5; stroke: #008fd5"/>
     <use xlink:href="#mf63be7ee74" x="1284.272909" y="579.34278" style="fill: #008fd5; stroke: #008fd5"/>
     <use xlink:href="#mf63be7ee74" x="1291.557237" y="589.878375" style="fill: #008fd5; stroke: #008fd5"/>
     <use xlink:href="#mf63be7ee74" x="1298.841565" y="594.030157" style="fill: #008fd5; stroke: #008fd5"/>
     <use xlink:href="#mf63be7ee74" x="1306.125893" y="566.988319" style="fill: #008fd5; stroke: #008fd5"/>
     <use xlink:href="#mf63be7ee74" x="1313.410221" y="673.489814" style="fill: #008fd5; stroke: #008fd5"/>
     <use xlink:href="#mf63be7ee74" x="1320.694549" y="587.490298" style="fill: #008fd5; stroke: #008fd5"/>
     <use xlink:href="#mf63be7ee74" x="1327.978877" y="593.006026" style="fill: #008fd5; stroke: #008fd5"/>
     <use xlink:href="#mf63be7ee74" x="1335.263205" y="603.807193" style="fill: #008fd5; stroke: #008fd5"/>
     <use xlink:href="#mf63be7ee74" x="1342.547533" y="586.086909" style="fill: #008fd5; stroke: #008fd5"/>
     <use xlink:href="#mf63be7ee74" x="1349.831861" y="584.013064" style="fill: #008fd5; stroke: #008fd5"/>
     <use xlink:href="#mf63be7ee74" x="1357.116189" y="589.757543" style="fill: #008fd5; stroke: #008fd5"/>
     <use xlink:href="#mf63be7ee74" x="1364.400517" y="607.358757" style="fill: #008fd5; stroke: #008fd5"/>
     <use xlink:href="#mf63be7ee74" x="1371.684845" y="602.466818" style="fill: #008fd5; stroke: #008fd5"/>
    </g>
   </g>
   <g id="patch_18">
    <path d="M 60.505813 679.77845 
L 60.505813 541.42845 
" style="fill: none; stroke: #f0f0f0; stroke-width: 3; stroke-linejoin: miter; stroke-linecap: square"/>
   </g>
   <g id="patch_19">
    <path d="M 1415.390812 679.77845 
L 1415.390812 541.42845 
" style="fill: none; stroke: #f0f0f0; stroke-width: 3; stroke-linejoin: miter; stroke-linecap: square"/>
   </g>
   <g id="patch_20">
    <path d="M 60.505813 679.77845 
L 1415.390812 679.77845 
" style="fill: none; stroke: #f0f0f0; stroke-width: 3; stroke-linejoin: miter; stroke-linecap: square"/>
   </g>
   <g id="patch_21">
    <path d="M 60.505813 541.42845 
L 1415.390812 541.42845 
" style="fill: none; stroke: #f0f0f0; stroke-width: 3; stroke-linejoin: miter; stroke-linecap: square"/>
   </g>
  </g>
 </g>
 <defs>
  <clipPath id="p03a80a27fc">
   <rect x="60.505813" y="28.51845" width="1354.885" height="138.35"/>
  </clipPath>
  <clipPath id="p08ad1064d8">
   <rect x="60.505813" y="199.48845" width="1354.885" height="138.35"/>
  </clipPath>
  <clipPath id="pea834f6f23">
   <rect x="60.505813" y="370.45845" width="1354.885" height="138.35"/>
  </clipPath>
  <clipPath id="p260ad07625">
   <rect x="60.505813" y="541.42845" width="1354.885" height="138.35"/>
  </clipPath>
 </defs>
</svg>
