<?xml version="1.0" encoding="utf-8" standalone="no"?>
<!DOCTYPE svg PUBLIC "-//W3C//DTD SVG 1.1//EN"
  "http://www.w3.org/Graphics/SVG/1.1/DTD/svg11.dtd">
<svg xmlns:xlink="http://www.w3.org/1999/xlink" width="1423.017062pt" height="704.467125pt" viewBox="0 0 1423.017062 704.467125" xmlns="http://www.w3.org/2000/svg" version="1.1">
 <metadata>
  <rdf:RDF xmlns:dc="http://purl.org/dc/elements/1.1/" xmlns:cc="http://creativecommons.org/ns#" xmlns:rdf="http://www.w3.org/1999/02/22-rdf-syntax-ns#">
   <cc:Work>
    <dc:type rdf:resource="http://purl.org/dc/dcmitype/StillImage"/>
    <dc:date>2022-02-25T23:30:35.947094</dc:date>
    <dc:format>image/svg+xml</dc:format>
    <dc:creator>
     <cc:Agent>
      <dc:title>Matplotlib v3.5.1, https://matplotlib.org/</dc:title>
     </cc:Agent>
    </dc:creator>
   </cc:Work>
  </rdf:RDF>
 </metadata>
 <defs>
  <style type="text/css">*{stroke-linejoin: round; stroke-linecap: butt}</style>
 </defs>
 <g id="figure_1">
  <g id="patch_1">
   <path d="M 0 704.467125 
L 1423.017062 704.467125 
L 1423.017062 0 
L 0 0 
z
" style="fill: #f0f0f0"/>
  </g>
  <g id="axes_1">
   <g id="patch_2">
    <path d="M 78.320813 166.55775 
L 1402.455812 166.55775 
L 1402.455812 27.95775 
L 78.320813 27.95775 
z
" style="fill: #f0f0f0"/>
   </g>
   <g id="matplotlib.axis_1">
    <g id="xtick_1">
     <g id="line2d_1">
      <path d="M 78.320813 166.55775 
L 78.320813 27.95775 
" clip-path="url(#pb90007edeb)" style="fill: none; stroke: #cbcbcb"/>
     </g>
     <g id="line2d_2"/>
     <g id="text_1">
      <!-- 0 -->
      <g transform="translate(73.867063 180.695562)scale(0.14 -0.14)">
       <defs>
        <path id="DejaVuSans-30" d="M 2034 4250 
Q 1547 4250 1301 3770 
Q 1056 3291 1056 2328 
Q 1056 1369 1301 889 
Q 1547 409 2034 409 
Q 2525 409 2770 889 
Q 3016 1369 3016 2328 
Q 3016 3291 2770 3770 
Q 2525 4250 2034 4250 
z
M 2034 4750 
Q 2819 4750 3233 4129 
Q 3647 3509 3647 2328 
Q 3647 1150 3233 529 
Q 2819 -91 2034 -91 
Q 1250 -91 836 529 
Q 422 1150 422 2328 
Q 422 3509 836 4129 
Q 1250 4750 2034 4750 
z
" transform="scale(0.015625)"/>
       </defs>
       <use xlink:href="#DejaVuSans-30"/>
      </g>
     </g>
    </g>
    <g id="xtick_2">
     <g id="line2d_3">
      <path d="M 267.482955 166.55775 
L 267.482955 27.95775 
" clip-path="url(#pb90007edeb)" style="fill: none; stroke: #cbcbcb"/>
     </g>
     <g id="line2d_4"/>
     <g id="text_2">
      <!-- 20 -->
      <g transform="translate(258.575455 180.695562)scale(0.14 -0.14)">
       <defs>
        <path id="DejaVuSans-32" d="M 1228 531 
L 3431 531 
L 3431 0 
L 469 0 
L 469 531 
Q 828 903 1448 1529 
Q 2069 2156 2228 2338 
Q 2531 2678 2651 2914 
Q 2772 3150 2772 3378 
Q 2772 3750 2511 3984 
Q 2250 4219 1831 4219 
Q 1534 4219 1204 4116 
Q 875 4013 500 3803 
L 500 4441 
Q 881 4594 1212 4672 
Q 1544 4750 1819 4750 
Q 2544 4750 2975 4387 
Q 3406 4025 3406 3419 
Q 3406 3131 3298 2873 
Q 3191 2616 2906 2266 
Q 2828 2175 2409 1742 
Q 1991 1309 1228 531 
z
" transform="scale(0.015625)"/>
       </defs>
       <use xlink:href="#DejaVuSans-32"/>
       <use xlink:href="#DejaVuSans-30" x="63.623047"/>
      </g>
     </g>
    </g>
    <g id="xtick_3">
     <g id="line2d_5">
      <path d="M 456.645098 166.55775 
L 456.645098 27.95775 
" clip-path="url(#pb90007edeb)" style="fill: none; stroke: #cbcbcb"/>
     </g>
     <g id="line2d_6"/>
     <g id="text_3">
      <!-- 40 -->
      <g transform="translate(447.737598 180.695562)scale(0.14 -0.14)">
       <defs>
        <path id="DejaVuSans-34" d="M 2419 4116 
L 825 1625 
L 2419 1625 
L 2419 4116 
z
M 2253 4666 
L 3047 4666 
L 3047 1625 
L 3713 1625 
L 3713 1100 
L 3047 1100 
L 3047 0 
L 2419 0 
L 2419 1100 
L 313 1100 
L 313 1709 
L 2253 4666 
z
" transform="scale(0.015625)"/>
       </defs>
       <use xlink:href="#DejaVuSans-34"/>
       <use xlink:href="#DejaVuSans-30" x="63.623047"/>
      </g>
     </g>
    </g>
    <g id="xtick_4">
     <g id="line2d_7">
      <path d="M 645.807241 166.55775 
L 645.807241 27.95775 
" clip-path="url(#pb90007edeb)" style="fill: none; stroke: #cbcbcb"/>
     </g>
     <g id="line2d_8"/>
     <g id="text_4">
      <!-- 60 -->
      <g transform="translate(636.899741 180.695562)scale(0.14 -0.14)">
       <defs>
        <path id="DejaVuSans-36" d="M 2113 2584 
Q 1688 2584 1439 2293 
Q 1191 2003 1191 1497 
Q 1191 994 1439 701 
Q 1688 409 2113 409 
Q 2538 409 2786 701 
Q 3034 994 3034 1497 
Q 3034 2003 2786 2293 
Q 2538 2584 2113 2584 
z
M 3366 4563 
L 3366 3988 
Q 3128 4100 2886 4159 
Q 2644 4219 2406 4219 
Q 1781 4219 1451 3797 
Q 1122 3375 1075 2522 
Q 1259 2794 1537 2939 
Q 1816 3084 2150 3084 
Q 2853 3084 3261 2657 
Q 3669 2231 3669 1497 
Q 3669 778 3244 343 
Q 2819 -91 2113 -91 
Q 1303 -91 875 529 
Q 447 1150 447 2328 
Q 447 3434 972 4092 
Q 1497 4750 2381 4750 
Q 2619 4750 2861 4703 
Q 3103 4656 3366 4563 
z
" transform="scale(0.015625)"/>
       </defs>
       <use xlink:href="#DejaVuSans-36"/>
       <use xlink:href="#DejaVuSans-30" x="63.623047"/>
      </g>
     </g>
    </g>
    <g id="xtick_5">
     <g id="line2d_9">
      <path d="M 834.969384 166.55775 
L 834.969384 27.95775 
" clip-path="url(#pb90007edeb)" style="fill: none; stroke: #cbcbcb"/>
     </g>
     <g id="line2d_10"/>
     <g id="text_5">
      <!-- 80 -->
      <g transform="translate(826.061884 180.695562)scale(0.14 -0.14)">
       <defs>
        <path id="DejaVuSans-38" d="M 2034 2216 
Q 1584 2216 1326 1975 
Q 1069 1734 1069 1313 
Q 1069 891 1326 650 
Q 1584 409 2034 409 
Q 2484 409 2743 651 
Q 3003 894 3003 1313 
Q 3003 1734 2745 1975 
Q 2488 2216 2034 2216 
z
M 1403 2484 
Q 997 2584 770 2862 
Q 544 3141 544 3541 
Q 544 4100 942 4425 
Q 1341 4750 2034 4750 
Q 2731 4750 3128 4425 
Q 3525 4100 3525 3541 
Q 3525 3141 3298 2862 
Q 3072 2584 2669 2484 
Q 3125 2378 3379 2068 
Q 3634 1759 3634 1313 
Q 3634 634 3220 271 
Q 2806 -91 2034 -91 
Q 1263 -91 848 271 
Q 434 634 434 1313 
Q 434 1759 690 2068 
Q 947 2378 1403 2484 
z
M 1172 3481 
Q 1172 3119 1398 2916 
Q 1625 2713 2034 2713 
Q 2441 2713 2670 2916 
Q 2900 3119 2900 3481 
Q 2900 3844 2670 4047 
Q 2441 4250 2034 4250 
Q 1625 4250 1398 4047 
Q 1172 3844 1172 3481 
z
" transform="scale(0.015625)"/>
       </defs>
       <use xlink:href="#DejaVuSans-38"/>
       <use xlink:href="#DejaVuSans-30" x="63.623047"/>
      </g>
     </g>
    </g>
    <g id="xtick_6">
     <g id="line2d_11">
      <path d="M 1024.131527 166.55775 
L 1024.131527 27.95775 
" clip-path="url(#pb90007edeb)" style="fill: none; stroke: #cbcbcb"/>
     </g>
     <g id="line2d_12"/>
     <g id="text_6">
      <!-- 100 -->
      <g transform="translate(1010.770277 180.695562)scale(0.14 -0.14)">
       <defs>
        <path id="DejaVuSans-31" d="M 794 531 
L 1825 531 
L 1825 4091 
L 703 3866 
L 703 4441 
L 1819 4666 
L 2450 4666 
L 2450 531 
L 3481 531 
L 3481 0 
L 794 0 
L 794 531 
z
" transform="scale(0.015625)"/>
       </defs>
       <use xlink:href="#DejaVuSans-31"/>
       <use xlink:href="#DejaVuSans-30" x="63.623047"/>
       <use xlink:href="#DejaVuSans-30" x="127.246094"/>
      </g>
     </g>
    </g>
    <g id="xtick_7">
     <g id="line2d_13">
      <path d="M 1213.29367 166.55775 
L 1213.29367 27.95775 
" clip-path="url(#pb90007edeb)" style="fill: none; stroke: #cbcbcb"/>
     </g>
     <g id="line2d_14"/>
     <g id="text_7">
      <!-- 120 -->
      <g transform="translate(1199.93242 180.695562)scale(0.14 -0.14)">
       <use xlink:href="#DejaVuSans-31"/>
       <use xlink:href="#DejaVuSans-32" x="63.623047"/>
       <use xlink:href="#DejaVuSans-30" x="127.246094"/>
      </g>
     </g>
    </g>
    <g id="xtick_8">
     <g id="line2d_15">
      <path d="M 1402.455812 166.55775 
L 1402.455812 27.95775 
" clip-path="url(#pb90007edeb)" style="fill: none; stroke: #cbcbcb"/>
     </g>
     <g id="line2d_16"/>
     <g id="text_8">
      <!-- 140 -->
      <g transform="translate(1389.094562 180.695562)scale(0.14 -0.14)">
       <use xlink:href="#DejaVuSans-31"/>
       <use xlink:href="#DejaVuSans-34" x="63.623047"/>
       <use xlink:href="#DejaVuSans-30" x="127.246094"/>
      </g>
     </g>
    </g>
   </g>
   <g id="matplotlib.axis_2">
    <g id="ytick_1">
     <g id="line2d_17">
      <path d="M 78.320813 160.569544 
L 1402.455812 160.569544 
" clip-path="url(#pb90007edeb)" style="fill: none; stroke: #cbcbcb"/>
     </g>
     <g id="line2d_18"/>
     <g id="text_9">
      <!-- 0 -->
      <g transform="translate(65.913313 165.88845)scale(0.14 -0.14)">
       <use xlink:href="#DejaVuSans-30"/>
      </g>
     </g>
    </g>
    <g id="ytick_2">
     <g id="line2d_19">
      <path d="M 78.320813 119.135124 
L 1402.455812 119.135124 
" clip-path="url(#pb90007edeb)" style="fill: none; stroke: #cbcbcb"/>
     </g>
     <g id="line2d_20"/>
     <g id="text_10">
      <!-- 1000 -->
      <g transform="translate(39.190812 124.45403)scale(0.14 -0.14)">
       <use xlink:href="#DejaVuSans-31"/>
       <use xlink:href="#DejaVuSans-30" x="63.623047"/>
       <use xlink:href="#DejaVuSans-30" x="127.246094"/>
       <use xlink:href="#DejaVuSans-30" x="190.869141"/>
      </g>
     </g>
    </g>
    <g id="ytick_3">
     <g id="line2d_21">
      <path d="M 78.320813 77.700704 
L 1402.455812 77.700704 
" clip-path="url(#pb90007edeb)" style="fill: none; stroke: #cbcbcb"/>
     </g>
     <g id="line2d_22"/>
     <g id="text_11">
      <!-- 2000 -->
      <g transform="translate(39.190812 83.01961)scale(0.14 -0.14)">
       <use xlink:href="#DejaVuSans-32"/>
       <use xlink:href="#DejaVuSans-30" x="63.623047"/>
       <use xlink:href="#DejaVuSans-30" x="127.246094"/>
       <use xlink:href="#DejaVuSans-30" x="190.869141"/>
      </g>
     </g>
    </g>
    <g id="ytick_4">
     <g id="line2d_23">
      <path d="M 78.320813 36.266284 
L 1402.455812 36.266284 
" clip-path="url(#pb90007edeb)" style="fill: none; stroke: #cbcbcb"/>
     </g>
     <g id="line2d_24"/>
     <g id="text_12">
      <!-- 3000 -->
      <g transform="translate(39.190812 41.58519)scale(0.14 -0.14)">
       <defs>
        <path id="DejaVuSans-33" d="M 2597 2516 
Q 3050 2419 3304 2112 
Q 3559 1806 3559 1356 
Q 3559 666 3084 287 
Q 2609 -91 1734 -91 
Q 1441 -91 1130 -33 
Q 819 25 488 141 
L 488 750 
Q 750 597 1062 519 
Q 1375 441 1716 441 
Q 2309 441 2620 675 
Q 2931 909 2931 1356 
Q 2931 1769 2642 2001 
Q 2353 2234 1838 2234 
L 1294 2234 
L 1294 2753 
L 1863 2753 
Q 2328 2753 2575 2939 
Q 2822 3125 2822 3475 
Q 2822 3834 2567 4026 
Q 2313 4219 1838 4219 
Q 1578 4219 1281 4162 
Q 984 4106 628 3988 
L 628 4550 
Q 988 4650 1302 4700 
Q 1616 4750 1894 4750 
Q 2613 4750 3031 4423 
Q 3450 4097 3450 3541 
Q 3450 3153 3228 2886 
Q 3006 2619 2597 2516 
z
" transform="scale(0.015625)"/>
       </defs>
       <use xlink:href="#DejaVuSans-33"/>
       <use xlink:href="#DejaVuSans-30" x="63.623047"/>
       <use xlink:href="#DejaVuSans-30" x="127.246094"/>
       <use xlink:href="#DejaVuSans-30" x="190.869141"/>
      </g>
     </g>
    </g>
   </g>
   <g id="line2d_25">
    <path d="M 78.320813 151.738488 
L 87.77892 156.041452 
L 97.237027 156.722013 
L 106.695134 159.649009 
L 116.153241 159.064093 
L 125.611348 142.058717 
L 135.069455 132.415201 
L 144.527562 120.459989 
L 153.98567 112.965193 
L 163.443777 117.721174 
L 172.901884 126.999032 
L 182.359991 144.84898 
L 191.818098 153.224948 
L 201.276205 156.926423 
L 210.734312 157.391869 
L 220.19242 156.477204 
L 229.650527 137.099362 
L 239.108634 110.381067 
L 248.566741 100.049394 
L 258.024848 107.469608 
L 267.482955 120.235898 
L 276.941062 137.888688 
L 286.39917 139.369623 
L 295.857277 145.045793 
L 305.315384 156.012448 
L 314.773491 157.490621 
L 324.231598 159.41525 
L 333.689705 158.105232 
L 343.147812 146.539849 
L 352.60592 140.342296 
L 362.064027 111.018812 
L 371.522134 128.458559 
L 380.980241 115.318668 
L 390.438348 131.669727 
L 399.896455 131.916607 
L 409.354562 149.547643 
L 418.81267 157.900822 
L 428.270777 159.022659 
L 437.728884 160.25775 
L 447.186991 154.255629 
L 456.645098 131.657987 
L 466.103205 130.510599 
L 475.561312 97.012251 
L 485.01942 114.470989 
L 494.477527 116.869352 
L 503.935634 134.993803 
L 513.393741 143.182971 
L 522.851848 150.129797 
L 532.309955 158.304808 
L 541.768062 149.05043 
L 551.22617 126.38304 
L 560.684277 108.231656 
L 570.142384 116.615911 
L 579.600491 103.020587 
L 589.058598 109.23575 
L 598.516705 139.164177 
L 607.974812 149.006578 
L 617.43292 153.809518 
L 626.891027 156.788653 
L 636.349134 155.67096 
L 645.807241 134.794227 
L 655.265348 113.299431 
L 664.723455 74.685314 
L 674.181562 77.069519 
L 683.63967 95.234369 
L 693.097777 117.595145 
L 702.555884 133.300516 
L 712.013991 142.863235 
L 721.472098 148.273189 
L 730.930205 155.404744 
L 740.388312 142.897764 
L 749.84642 84.997305 
L 759.304527 51.42921 
L 768.762634 78.753138 
L 778.220741 71.90023 
L 787.678848 109.715354 
L 797.136955 113.530773 
L 806.595062 143.877688 
L 816.05317 154.55741 
L 825.511277 159.134187 
L 834.969384 137.683242 
L 844.427491 61.346883 
L 853.885598 34.25775 
L 863.343705 35.799456 
L 872.801812 41.530872 
L 882.25992 92.566683 
L 891.718027 135.149527 
L 901.176134 141.364 
L 910.634241 148.643337 
L 920.092348 158.335883 
L 929.550455 155.874679 
L 939.008562 136.017233 
L 948.46667 97.62479 
L 957.924777 95.527518 
L 967.382884 100.48411 
L 976.840991 94.222333 
L 986.299098 119.541181 
L 995.757205 122.586611 
L 1005.215312 141.611225 
L 1014.67342 144.04308 
L 1024.131527 153.674511 
L 1033.589634 153.535015 
L 1043.047741 146.190074 
L 1052.505848 103.865849 
L 1061.963955 69.640673 
L 1071.422062 71.041502 
L 1080.88017 66.503397 
L 1090.338277 65.962332 
L 1099.796384 121.455451 
L 1109.254491 126.953108 
L 1118.712598 153.105133 
L 1128.170705 155.402672 
L 1137.628812 148.271118 
L 1147.08692 104.8292 
L 1156.545027 53.700852 
L 1166.003134 75.683538 
L 1175.461241 58.21893 
L 1184.919348 104.665879 
L 1194.377455 131.722901 
L 1203.835562 146.465613 
L 1213.29367 153.955229 
L 1222.751777 157.176065 
L 1232.209884 151.858302 
L 1241.667991 128.951974 
L 1251.126098 112.422402 
L 1260.584205 93.685412 
L 1270.042312 89.961494 
L 1279.50042 84.797039 
L 1288.958527 115.023103 
L 1298.416634 132.237723 
L 1307.874741 138.088263 
L 1317.332848 150.413622 
L 1336.249062 159.624494 
L 1345.70717 159.469115 
L 1355.165277 151.690493 
L 1364.623384 129.511684 
L 1374.081491 127.551145 
L 1383.539598 124.903831 
L 1392.997705 108.687435 
L 1402.455812 134.92958 
L 1402.455812 134.92958 
" clip-path="url(#pb90007edeb)" style="fill: none; stroke: #008fd5; stroke-width: 4"/>
   </g>
   <g id="patch_3">
    <path d="M 78.320813 166.55775 
L 78.320813 27.95775 
" style="fill: none; stroke: #f0f0f0; stroke-width: 3; stroke-linejoin: miter; stroke-linecap: square"/>
   </g>
   <g id="patch_4">
    <path d="M 1402.455812 166.55775 
L 1402.455812 27.95775 
" style="fill: none; stroke: #f0f0f0; stroke-width: 3; stroke-linejoin: miter; stroke-linecap: square"/>
   </g>
   <g id="patch_5">
    <path d="M 78.320813 166.55775 
L 1402.455812 166.55775 
" style="fill: none; stroke: #f0f0f0; stroke-width: 3; stroke-linejoin: miter; stroke-linecap: square"/>
   </g>
   <g id="patch_6">
    <path d="M 78.320813 27.95775 
L 1402.455812 27.95775 
" style="fill: none; stroke: #f0f0f0; stroke-width: 3; stroke-linejoin: miter; stroke-linecap: square"/>
   </g>
   <g id="text_13">
    <!-- avg_sunspot_area -->
    <g transform="translate(649.495062 21.95775)scale(0.2016 -0.2016)">
     <defs>
      <path id="DejaVuSans-61" d="M 2194 1759 
Q 1497 1759 1228 1600 
Q 959 1441 959 1056 
Q 959 750 1161 570 
Q 1363 391 1709 391 
Q 2188 391 2477 730 
Q 2766 1069 2766 1631 
L 2766 1759 
L 2194 1759 
z
M 3341 1997 
L 3341 0 
L 2766 0 
L 2766 531 
Q 2569 213 2275 61 
Q 1981 -91 1556 -91 
Q 1019 -91 701 211 
Q 384 513 384 1019 
Q 384 1609 779 1909 
Q 1175 2209 1959 2209 
L 2766 2209 
L 2766 2266 
Q 2766 2663 2505 2880 
Q 2244 3097 1772 3097 
Q 1472 3097 1187 3025 
Q 903 2953 641 2809 
L 641 3341 
Q 956 3463 1253 3523 
Q 1550 3584 1831 3584 
Q 2591 3584 2966 3190 
Q 3341 2797 3341 1997 
z
" transform="scale(0.015625)"/>
      <path id="DejaVuSans-76" d="M 191 3500 
L 800 3500 
L 1894 563 
L 2988 3500 
L 3597 3500 
L 2284 0 
L 1503 0 
L 191 3500 
z
" transform="scale(0.015625)"/>
      <path id="DejaVuSans-67" d="M 2906 1791 
Q 2906 2416 2648 2759 
Q 2391 3103 1925 3103 
Q 1463 3103 1205 2759 
Q 947 2416 947 1791 
Q 947 1169 1205 825 
Q 1463 481 1925 481 
Q 2391 481 2648 825 
Q 2906 1169 2906 1791 
z
M 3481 434 
Q 3481 -459 3084 -895 
Q 2688 -1331 1869 -1331 
Q 1566 -1331 1297 -1286 
Q 1028 -1241 775 -1147 
L 775 -588 
Q 1028 -725 1275 -790 
Q 1522 -856 1778 -856 
Q 2344 -856 2625 -561 
Q 2906 -266 2906 331 
L 2906 616 
Q 2728 306 2450 153 
Q 2172 0 1784 0 
Q 1141 0 747 490 
Q 353 981 353 1791 
Q 353 2603 747 3093 
Q 1141 3584 1784 3584 
Q 2172 3584 2450 3431 
Q 2728 3278 2906 2969 
L 2906 3500 
L 3481 3500 
L 3481 434 
z
" transform="scale(0.015625)"/>
      <path id="DejaVuSans-5f" d="M 3263 -1063 
L 3263 -1509 
L -63 -1509 
L -63 -1063 
L 3263 -1063 
z
" transform="scale(0.015625)"/>
      <path id="DejaVuSans-73" d="M 2834 3397 
L 2834 2853 
Q 2591 2978 2328 3040 
Q 2066 3103 1784 3103 
Q 1356 3103 1142 2972 
Q 928 2841 928 2578 
Q 928 2378 1081 2264 
Q 1234 2150 1697 2047 
L 1894 2003 
Q 2506 1872 2764 1633 
Q 3022 1394 3022 966 
Q 3022 478 2636 193 
Q 2250 -91 1575 -91 
Q 1294 -91 989 -36 
Q 684 19 347 128 
L 347 722 
Q 666 556 975 473 
Q 1284 391 1588 391 
Q 1994 391 2212 530 
Q 2431 669 2431 922 
Q 2431 1156 2273 1281 
Q 2116 1406 1581 1522 
L 1381 1569 
Q 847 1681 609 1914 
Q 372 2147 372 2553 
Q 372 3047 722 3315 
Q 1072 3584 1716 3584 
Q 2034 3584 2315 3537 
Q 2597 3491 2834 3397 
z
" transform="scale(0.015625)"/>
      <path id="DejaVuSans-75" d="M 544 1381 
L 544 3500 
L 1119 3500 
L 1119 1403 
Q 1119 906 1312 657 
Q 1506 409 1894 409 
Q 2359 409 2629 706 
Q 2900 1003 2900 1516 
L 2900 3500 
L 3475 3500 
L 3475 0 
L 2900 0 
L 2900 538 
Q 2691 219 2414 64 
Q 2138 -91 1772 -91 
Q 1169 -91 856 284 
Q 544 659 544 1381 
z
M 1991 3584 
L 1991 3584 
z
" transform="scale(0.015625)"/>
      <path id="DejaVuSans-6e" d="M 3513 2113 
L 3513 0 
L 2938 0 
L 2938 2094 
Q 2938 2591 2744 2837 
Q 2550 3084 2163 3084 
Q 1697 3084 1428 2787 
Q 1159 2491 1159 1978 
L 1159 0 
L 581 0 
L 581 3500 
L 1159 3500 
L 1159 2956 
Q 1366 3272 1645 3428 
Q 1925 3584 2291 3584 
Q 2894 3584 3203 3211 
Q 3513 2838 3513 2113 
z
" transform="scale(0.015625)"/>
      <path id="DejaVuSans-70" d="M 1159 525 
L 1159 -1331 
L 581 -1331 
L 581 3500 
L 1159 3500 
L 1159 2969 
Q 1341 3281 1617 3432 
Q 1894 3584 2278 3584 
Q 2916 3584 3314 3078 
Q 3713 2572 3713 1747 
Q 3713 922 3314 415 
Q 2916 -91 2278 -91 
Q 1894 -91 1617 61 
Q 1341 213 1159 525 
z
M 3116 1747 
Q 3116 2381 2855 2742 
Q 2594 3103 2138 3103 
Q 1681 3103 1420 2742 
Q 1159 2381 1159 1747 
Q 1159 1113 1420 752 
Q 1681 391 2138 391 
Q 2594 391 2855 752 
Q 3116 1113 3116 1747 
z
" transform="scale(0.015625)"/>
      <path id="DejaVuSans-6f" d="M 1959 3097 
Q 1497 3097 1228 2736 
Q 959 2375 959 1747 
Q 959 1119 1226 758 
Q 1494 397 1959 397 
Q 2419 397 2687 759 
Q 2956 1122 2956 1747 
Q 2956 2369 2687 2733 
Q 2419 3097 1959 3097 
z
M 1959 3584 
Q 2709 3584 3137 3096 
Q 3566 2609 3566 1747 
Q 3566 888 3137 398 
Q 2709 -91 1959 -91 
Q 1206 -91 779 398 
Q 353 888 353 1747 
Q 353 2609 779 3096 
Q 1206 3584 1959 3584 
z
" transform="scale(0.015625)"/>
      <path id="DejaVuSans-74" d="M 1172 4494 
L 1172 3500 
L 2356 3500 
L 2356 3053 
L 1172 3053 
L 1172 1153 
Q 1172 725 1289 603 
Q 1406 481 1766 481 
L 2356 481 
L 2356 0 
L 1766 0 
Q 1100 0 847 248 
Q 594 497 594 1153 
L 594 3053 
L 172 3053 
L 172 3500 
L 594 3500 
L 594 4494 
L 1172 4494 
z
" transform="scale(0.015625)"/>
      <path id="DejaVuSans-72" d="M 2631 2963 
Q 2534 3019 2420 3045 
Q 2306 3072 2169 3072 
Q 1681 3072 1420 2755 
Q 1159 2438 1159 1844 
L 1159 0 
L 581 0 
L 581 3500 
L 1159 3500 
L 1159 2956 
Q 1341 3275 1631 3429 
Q 1922 3584 2338 3584 
Q 2397 3584 2469 3576 
Q 2541 3569 2628 3553 
L 2631 2963 
z
" transform="scale(0.015625)"/>
      <path id="DejaVuSans-65" d="M 3597 1894 
L 3597 1613 
L 953 1613 
Q 991 1019 1311 708 
Q 1631 397 2203 397 
Q 2534 397 2845 478 
Q 3156 559 3463 722 
L 3463 178 
Q 3153 47 2828 -22 
Q 2503 -91 2169 -91 
Q 1331 -91 842 396 
Q 353 884 353 1716 
Q 353 2575 817 3079 
Q 1281 3584 2069 3584 
Q 2775 3584 3186 3129 
Q 3597 2675 3597 1894 
z
M 3022 2063 
Q 3016 2534 2758 2815 
Q 2500 3097 2075 3097 
Q 1594 3097 1305 2825 
Q 1016 2553 972 2059 
L 3022 2063 
z
" transform="scale(0.015625)"/>
     </defs>
     <use xlink:href="#DejaVuSans-61"/>
     <use xlink:href="#DejaVuSans-76" x="61.279297"/>
     <use xlink:href="#DejaVuSans-67" x="120.458984"/>
     <use xlink:href="#DejaVuSans-5f" x="183.935547"/>
     <use xlink:href="#DejaVuSans-73" x="233.935547"/>
     <use xlink:href="#DejaVuSans-75" x="286.035156"/>
     <use xlink:href="#DejaVuSans-6e" x="349.414062"/>
     <use xlink:href="#DejaVuSans-73" x="412.792969"/>
     <use xlink:href="#DejaVuSans-70" x="464.892578"/>
     <use xlink:href="#DejaVuSans-6f" x="528.369141"/>
     <use xlink:href="#DejaVuSans-74" x="589.550781"/>
     <use xlink:href="#DejaVuSans-5f" x="628.759766"/>
     <use xlink:href="#DejaVuSans-61" x="678.759766"/>
     <use xlink:href="#DejaVuSans-72" x="740.039062"/>
     <use xlink:href="#DejaVuSans-65" x="778.902344"/>
     <use xlink:href="#DejaVuSans-61" x="840.425781"/>
    </g>
   </g>
  </g>
  <g id="axes_2">
   <g id="patch_7">
    <path d="M 78.320813 337.77775 
L 1402.455812 337.77775 
L 1402.455812 199.17775 
L 78.320813 199.17775 
z
" style="fill: #f0f0f0"/>
   </g>
   <g id="matplotlib.axis_3">
    <g id="xtick_9">
     <g id="line2d_26">
      <path d="M 78.320813 337.77775 
L 78.320813 199.17775 
" clip-path="url(#p45c0690326)" style="fill: none; stroke: #cbcbcb"/>
     </g>
     <g id="line2d_27"/>
     <g id="text_14">
      <!-- 0 -->
      <g transform="translate(73.867063 351.915562)scale(0.14 -0.14)">
       <use xlink:href="#DejaVuSans-30"/>
      </g>
     </g>
    </g>
    <g id="xtick_10">
     <g id="line2d_28">
      <path d="M 267.482955 337.77775 
L 267.482955 199.17775 
" clip-path="url(#p45c0690326)" style="fill: none; stroke: #cbcbcb"/>
     </g>
     <g id="line2d_29"/>
     <g id="text_15">
      <!-- 20 -->
      <g transform="translate(258.575455 351.915562)scale(0.14 -0.14)">
       <use xlink:href="#DejaVuSans-32"/>
       <use xlink:href="#DejaVuSans-30" x="63.623047"/>
      </g>
     </g>
    </g>
    <g id="xtick_11">
     <g id="line2d_30">
      <path d="M 456.645098 337.77775 
L 456.645098 199.17775 
" clip-path="url(#p45c0690326)" style="fill: none; stroke: #cbcbcb"/>
     </g>
     <g id="line2d_31"/>
     <g id="text_16">
      <!-- 40 -->
      <g transform="translate(447.737598 351.915562)scale(0.14 -0.14)">
       <use xlink:href="#DejaVuSans-34"/>
       <use xlink:href="#DejaVuSans-30" x="63.623047"/>
      </g>
     </g>
    </g>
    <g id="xtick_12">
     <g id="line2d_32">
      <path d="M 645.807241 337.77775 
L 645.807241 199.17775 
" clip-path="url(#p45c0690326)" style="fill: none; stroke: #cbcbcb"/>
     </g>
     <g id="line2d_33"/>
     <g id="text_17">
      <!-- 60 -->
      <g transform="translate(636.899741 351.915562)scale(0.14 -0.14)">
       <use xlink:href="#DejaVuSans-36"/>
       <use xlink:href="#DejaVuSans-30" x="63.623047"/>
      </g>
     </g>
    </g>
    <g id="xtick_13">
     <g id="line2d_34">
      <path d="M 834.969384 337.77775 
L 834.969384 199.17775 
" clip-path="url(#p45c0690326)" style="fill: none; stroke: #cbcbcb"/>
     </g>
     <g id="line2d_35"/>
     <g id="text_18">
      <!-- 80 -->
      <g transform="translate(826.061884 351.915562)scale(0.14 -0.14)">
       <use xlink:href="#DejaVuSans-38"/>
       <use xlink:href="#DejaVuSans-30" x="63.623047"/>
      </g>
     </g>
    </g>
    <g id="xtick_14">
     <g id="line2d_36">
      <path d="M 1024.131527 337.77775 
L 1024.131527 199.17775 
" clip-path="url(#p45c0690326)" style="fill: none; stroke: #cbcbcb"/>
     </g>
     <g id="line2d_37"/>
     <g id="text_19">
      <!-- 100 -->
      <g transform="translate(1010.770277 351.915562)scale(0.14 -0.14)">
       <use xlink:href="#DejaVuSans-31"/>
       <use xlink:href="#DejaVuSans-30" x="63.623047"/>
       <use xlink:href="#DejaVuSans-30" x="127.246094"/>
      </g>
     </g>
    </g>
    <g id="xtick_15">
     <g id="line2d_38">
      <path d="M 1213.29367 337.77775 
L 1213.29367 199.17775 
" clip-path="url(#p45c0690326)" style="fill: none; stroke: #cbcbcb"/>
     </g>
     <g id="line2d_39"/>
     <g id="text_20">
      <!-- 120 -->
      <g transform="translate(1199.93242 351.915562)scale(0.14 -0.14)">
       <use xlink:href="#DejaVuSans-31"/>
       <use xlink:href="#DejaVuSans-32" x="63.623047"/>
       <use xlink:href="#DejaVuSans-30" x="127.246094"/>
      </g>
     </g>
    </g>
    <g id="xtick_16">
     <g id="line2d_40">
      <path d="M 1402.455812 337.77775 
L 1402.455812 199.17775 
" clip-path="url(#p45c0690326)" style="fill: none; stroke: #cbcbcb"/>
     </g>
     <g id="line2d_41"/>
     <g id="text_21">
      <!-- 140 -->
      <g transform="translate(1389.094562 351.915562)scale(0.14 -0.14)">
       <use xlink:href="#DejaVuSans-31"/>
       <use xlink:href="#DejaVuSans-34" x="63.623047"/>
       <use xlink:href="#DejaVuSans-30" x="127.246094"/>
      </g>
     </g>
    </g>
   </g>
   <g id="matplotlib.axis_4">
    <g id="ytick_5">
     <g id="line2d_42">
      <path d="M 78.320813 327.074284 
L 1402.455812 327.074284 
" clip-path="url(#p45c0690326)" style="fill: none; stroke: #cbcbcb"/>
     </g>
     <g id="line2d_43"/>
     <g id="text_22">
      <!-- 500 -->
      <g transform="translate(48.098312 332.39319)scale(0.14 -0.14)">
       <defs>
        <path id="DejaVuSans-35" d="M 691 4666 
L 3169 4666 
L 3169 4134 
L 1269 4134 
L 1269 2991 
Q 1406 3038 1543 3061 
Q 1681 3084 1819 3084 
Q 2600 3084 3056 2656 
Q 3513 2228 3513 1497 
Q 3513 744 3044 326 
Q 2575 -91 1722 -91 
Q 1428 -91 1123 -41 
Q 819 9 494 109 
L 494 744 
Q 775 591 1075 516 
Q 1375 441 1709 441 
Q 2250 441 2565 725 
Q 2881 1009 2881 1497 
Q 2881 1984 2565 2268 
Q 2250 2553 1709 2553 
Q 1456 2553 1204 2497 
Q 953 2441 691 2322 
L 691 4666 
z
" transform="scale(0.015625)"/>
       </defs>
       <use xlink:href="#DejaVuSans-35"/>
       <use xlink:href="#DejaVuSans-30" x="63.623047"/>
       <use xlink:href="#DejaVuSans-30" x="127.246094"/>
      </g>
     </g>
    </g>
    <g id="ytick_6">
     <g id="line2d_44">
      <path d="M 78.320813 270.165107 
L 1402.455812 270.165107 
" clip-path="url(#p45c0690326)" style="fill: none; stroke: #cbcbcb"/>
     </g>
     <g id="line2d_45"/>
     <g id="text_23">
      <!-- 1000 -->
      <g transform="translate(39.190812 275.484013)scale(0.14 -0.14)">
       <use xlink:href="#DejaVuSans-31"/>
       <use xlink:href="#DejaVuSans-30" x="63.623047"/>
       <use xlink:href="#DejaVuSans-30" x="127.246094"/>
       <use xlink:href="#DejaVuSans-30" x="190.869141"/>
      </g>
     </g>
    </g>
    <g id="ytick_7">
     <g id="line2d_46">
      <path d="M 78.320813 213.25593 
L 1402.455812 213.25593 
" clip-path="url(#p45c0690326)" style="fill: none; stroke: #cbcbcb"/>
     </g>
     <g id="line2d_47"/>
     <g id="text_24">
      <!-- 1500 -->
      <g transform="translate(39.190812 218.574837)scale(0.14 -0.14)">
       <use xlink:href="#DejaVuSans-31"/>
       <use xlink:href="#DejaVuSans-35" x="63.623047"/>
       <use xlink:href="#DejaVuSans-30" x="127.246094"/>
       <use xlink:href="#DejaVuSans-30" x="190.869141"/>
      </g>
     </g>
    </g>
    <g id="text_25">
     <!-- Trend -->
     <g transform="translate(31.696938 291.458313)rotate(-90)scale(0.168 -0.168)">
      <defs>
       <path id="DejaVuSans-54" d="M -19 4666 
L 3928 4666 
L 3928 4134 
L 2272 4134 
L 2272 0 
L 1638 0 
L 1638 4134 
L -19 4134 
L -19 4666 
z
" transform="scale(0.015625)"/>
       <path id="DejaVuSans-64" d="M 2906 2969 
L 2906 4863 
L 3481 4863 
L 3481 0 
L 2906 0 
L 2906 525 
Q 2725 213 2448 61 
Q 2172 -91 1784 -91 
Q 1150 -91 751 415 
Q 353 922 353 1747 
Q 353 2572 751 3078 
Q 1150 3584 1784 3584 
Q 2172 3584 2448 3432 
Q 2725 3281 2906 2969 
z
M 947 1747 
Q 947 1113 1208 752 
Q 1469 391 1925 391 
Q 2381 391 2643 752 
Q 2906 1113 2906 1747 
Q 2906 2381 2643 2742 
Q 2381 3103 1925 3103 
Q 1469 3103 1208 2742 
Q 947 2381 947 1747 
z
" transform="scale(0.015625)"/>
      </defs>
      <use xlink:href="#DejaVuSans-54"/>
      <use xlink:href="#DejaVuSans-72" x="46.333984"/>
      <use xlink:href="#DejaVuSans-65" x="85.197266"/>
      <use xlink:href="#DejaVuSans-6e" x="146.720703"/>
      <use xlink:href="#DejaVuSans-64" x="210.099609"/>
     </g>
    </g>
   </g>
   <g id="line2d_48">
    <path d="M 135.069455 327.806476 
L 153.98567 328.255861 
L 163.443777 327.969497 
L 172.901884 325.092461 
L 182.359991 318.952752 
L 191.818098 311.622573 
L 201.276205 306.43127 
L 210.734312 305.776617 
L 220.19242 308.917095 
L 229.650527 312.641287 
L 239.108634 314.079706 
L 276.941062 315.518994 
L 286.39917 316.785856 
L 295.857277 321.295631 
L 305.315384 325.980403 
L 314.773491 329.63824 
L 324.231598 331.47775 
L 333.689705 330.203143 
L 343.147812 328.638298 
L 352.60592 328.300519 
L 362.064027 329.03192 
L 371.522134 329.423408 
L 380.980241 329.695189 
L 390.438348 329.351007 
L 399.896455 327.207072 
L 418.81267 321.650009 
L 428.270777 318.445904 
L 437.728884 317.022424 
L 447.186991 317.580371 
L 456.645098 319.250339 
L 466.103205 320.606477 
L 475.561312 320.719347 
L 485.01942 319.624201 
L 494.477527 314.605641 
L 503.935634 305.460732 
L 513.393741 298.471336 
L 522.851848 293.60327 
L 532.309955 291.855921 
L 541.768062 296.08127 
L 551.22617 302.58587 
L 560.684277 308.417756 
L 570.142384 312.12859 
L 579.600491 314.320068 
L 589.058598 312.263354 
L 598.516705 305.480492 
L 607.974812 295.471432 
L 617.43292 285.987597 
L 626.891027 279.973641 
L 636.349134 279.194538 
L 645.807241 283.617053 
L 655.265348 286.794798 
L 664.723455 287.134238 
L 674.181562 287.232881 
L 683.63967 285.825564 
L 693.097777 276.146617 
L 702.555884 258.515917 
L 712.013991 245.020222 
L 721.472098 240.74741 
L 730.930205 244.165162 
L 740.388312 249.995823 
L 749.84642 255.098165 
L 759.304527 260.539355 
L 768.762634 264.834654 
L 778.220741 265.484881 
L 787.678848 253.507277 
L 797.136955 230.307224 
L 806.595062 212.241682 
L 816.05317 205.47775 
L 825.511277 205.92587 
L 834.969384 214.7462 
L 844.427491 225.60787 
L 853.885598 233.249112 
L 863.343705 238.922799 
L 872.801812 240.728401 
L 882.25992 238.233289 
L 891.718027 231.002464 
L 901.176134 230.329711 
L 910.634241 241.821926 
L 920.092348 256.08882 
L 929.550455 271.704461 
L 939.008562 284.069205 
L 948.46667 288.244757 
L 957.924777 289.290977 
L 967.382884 290.173465 
L 976.840991 290.199825 
L 986.299098 288.541871 
L 995.757205 283.753477 
L 1005.215312 276.870589 
L 1014.67342 270.86505 
L 1024.131527 264.173164 
L 1033.589634 257.04932 
L 1043.047741 254.033885 
L 1052.505848 254.752758 
L 1061.963955 256.568082 
L 1071.422062 259.18381 
L 1080.88017 259.865534 
L 1090.338277 253.672393 
L 1099.796384 237.511728 
L 1109.254491 223.700108 
L 1118.712598 219.167173 
L 1128.170705 221.708405 
L 1137.628812 233.021713 
L 1147.08692 249.700607 
L 1156.545027 262.634521 
L 1166.003134 269.813535 
L 1175.461241 273.130036 
L 1184.919348 269.959878 
L 1194.377455 262.829317 
L 1203.835562 257.450728 
L 1213.29367 260.32551 
L 1222.751777 265.518868 
L 1232.209884 273.063563 
L 1241.667991 282.720931 
L 1251.126098 286.605259 
L 1260.584205 287.78569 
L 1270.042312 288.362251 
L 1279.50042 288.767176 
L 1288.958527 289.918519 
L 1298.416634 293.392192 
L 1307.874741 297.950736 
L 1317.332848 303.78286 
L 1326.790955 311.658378 
L 1336.249062 318.392157 
L 1345.70717 323.404986 
L 1345.70717 323.404986 
" clip-path="url(#p45c0690326)" style="fill: none; stroke: #008fd5; stroke-width: 4"/>
   </g>
   <g id="patch_8">
    <path d="M 78.320813 337.77775 
L 78.320813 199.17775 
" style="fill: none; stroke: #f0f0f0; stroke-width: 3; stroke-linejoin: miter; stroke-linecap: square"/>
   </g>
   <g id="patch_9">
    <path d="M 1402.455812 337.77775 
L 1402.455812 199.17775 
" style="fill: none; stroke: #f0f0f0; stroke-width: 3; stroke-linejoin: miter; stroke-linecap: square"/>
   </g>
   <g id="patch_10">
    <path d="M 78.320813 337.77775 
L 1402.455812 337.77775 
" style="fill: none; stroke: #f0f0f0; stroke-width: 3; stroke-linejoin: miter; stroke-linecap: square"/>
   </g>
   <g id="patch_11">
    <path d="M 78.320813 199.17775 
L 1402.455812 199.17775 
" style="fill: none; stroke: #f0f0f0; stroke-width: 3; stroke-linejoin: miter; stroke-linecap: square"/>
   </g>
  </g>
  <g id="axes_3">
   <g id="patch_12">
    <path d="M 78.320813 508.99775 
L 1402.455812 508.99775 
L 1402.455812 370.39775 
L 78.320813 370.39775 
z
" style="fill: #f0f0f0"/>
   </g>
   <g id="matplotlib.axis_5">
    <g id="xtick_17">
     <g id="line2d_49">
      <path d="M 78.320813 508.99775 
L 78.320813 370.39775 
" clip-path="url(#pbfc8a76770)" style="fill: none; stroke: #cbcbcb"/>
     </g>
     <g id="line2d_50"/>
     <g id="text_26">
      <!-- 0 -->
      <g transform="translate(73.867063 523.135562)scale(0.14 -0.14)">
       <use xlink:href="#DejaVuSans-30"/>
      </g>
     </g>
    </g>
    <g id="xtick_18">
     <g id="line2d_51">
      <path d="M 267.482955 508.99775 
L 267.482955 370.39775 
" clip-path="url(#pbfc8a76770)" style="fill: none; stroke: #cbcbcb"/>
     </g>
     <g id="line2d_52"/>
     <g id="text_27">
      <!-- 20 -->
      <g transform="translate(258.575455 523.135562)scale(0.14 -0.14)">
       <use xlink:href="#DejaVuSans-32"/>
       <use xlink:href="#DejaVuSans-30" x="63.623047"/>
      </g>
     </g>
    </g>
    <g id="xtick_19">
     <g id="line2d_53">
      <path d="M 456.645098 508.99775 
L 456.645098 370.39775 
" clip-path="url(#pbfc8a76770)" style="fill: none; stroke: #cbcbcb"/>
     </g>
     <g id="line2d_54"/>
     <g id="text_28">
      <!-- 40 -->
      <g transform="translate(447.737598 523.135562)scale(0.14 -0.14)">
       <use xlink:href="#DejaVuSans-34"/>
       <use xlink:href="#DejaVuSans-30" x="63.623047"/>
      </g>
     </g>
    </g>
    <g id="xtick_20">
     <g id="line2d_55">
      <path d="M 645.807241 508.99775 
L 645.807241 370.39775 
" clip-path="url(#pbfc8a76770)" style="fill: none; stroke: #cbcbcb"/>
     </g>
     <g id="line2d_56"/>
     <g id="text_29">
      <!-- 60 -->
      <g transform="translate(636.899741 523.135562)scale(0.14 -0.14)">
       <use xlink:href="#DejaVuSans-36"/>
       <use xlink:href="#DejaVuSans-30" x="63.623047"/>
      </g>
     </g>
    </g>
    <g id="xtick_21">
     <g id="line2d_57">
      <path d="M 834.969384 508.99775 
L 834.969384 370.39775 
" clip-path="url(#pbfc8a76770)" style="fill: none; stroke: #cbcbcb"/>
     </g>
     <g id="line2d_58"/>
     <g id="text_30">
      <!-- 80 -->
      <g transform="translate(826.061884 523.135562)scale(0.14 -0.14)">
       <use xlink:href="#DejaVuSans-38"/>
       <use xlink:href="#DejaVuSans-30" x="63.623047"/>
      </g>
     </g>
    </g>
    <g id="xtick_22">
     <g id="line2d_59">
      <path d="M 1024.131527 508.99775 
L 1024.131527 370.39775 
" clip-path="url(#pbfc8a76770)" style="fill: none; stroke: #cbcbcb"/>
     </g>
     <g id="line2d_60"/>
     <g id="text_31">
      <!-- 100 -->
      <g transform="translate(1010.770277 523.135562)scale(0.14 -0.14)">
       <use xlink:href="#DejaVuSans-31"/>
       <use xlink:href="#DejaVuSans-30" x="63.623047"/>
       <use xlink:href="#DejaVuSans-30" x="127.246094"/>
      </g>
     </g>
    </g>
    <g id="xtick_23">
     <g id="line2d_61">
      <path d="M 1213.29367 508.99775 
L 1213.29367 370.39775 
" clip-path="url(#pbfc8a76770)" style="fill: none; stroke: #cbcbcb"/>
     </g>
     <g id="line2d_62"/>
     <g id="text_32">
      <!-- 120 -->
      <g transform="translate(1199.93242 523.135562)scale(0.14 -0.14)">
       <use xlink:href="#DejaVuSans-31"/>
       <use xlink:href="#DejaVuSans-32" x="63.623047"/>
       <use xlink:href="#DejaVuSans-30" x="127.246094"/>
      </g>
     </g>
    </g>
    <g id="xtick_24">
     <g id="line2d_63">
      <path d="M 1402.455812 508.99775 
L 1402.455812 370.39775 
" clip-path="url(#pbfc8a76770)" style="fill: none; stroke: #cbcbcb"/>
     </g>
     <g id="line2d_64"/>
     <g id="text_33">
      <!-- 140 -->
      <g transform="translate(1389.094562 523.135562)scale(0.14 -0.14)">
       <use xlink:href="#DejaVuSans-31"/>
       <use xlink:href="#DejaVuSans-34" x="63.623047"/>
       <use xlink:href="#DejaVuSans-30" x="127.246094"/>
      </g>
     </g>
    </g>
   </g>
   <g id="matplotlib.axis_6">
    <g id="ytick_8">
     <g id="line2d_65">
      <path d="M 78.320813 487.722971 
L 1402.455812 487.722971 
" clip-path="url(#pbfc8a76770)" style="fill: none; stroke: #cbcbcb"/>
     </g>
     <g id="line2d_66"/>
     <g id="text_34">
      <!-- −200 -->
      <g transform="translate(36.36675 493.041877)scale(0.14 -0.14)">
       <defs>
        <path id="DejaVuSans-2212" d="M 678 2272 
L 4684 2272 
L 4684 1741 
L 678 1741 
L 678 2272 
z
" transform="scale(0.015625)"/>
       </defs>
       <use xlink:href="#DejaVuSans-2212"/>
       <use xlink:href="#DejaVuSans-32" x="83.789062"/>
       <use xlink:href="#DejaVuSans-30" x="147.412109"/>
       <use xlink:href="#DejaVuSans-30" x="211.035156"/>
      </g>
     </g>
    </g>
    <g id="ytick_9">
     <g id="line2d_67">
      <path d="M 78.320813 442.73061 
L 1402.455812 442.73061 
" clip-path="url(#pbfc8a76770)" style="fill: none; stroke: #cbcbcb"/>
     </g>
     <g id="line2d_68"/>
     <g id="text_35">
      <!-- 0 -->
      <g transform="translate(65.913313 448.049516)scale(0.14 -0.14)">
       <use xlink:href="#DejaVuSans-30"/>
      </g>
     </g>
    </g>
    <g id="ytick_10">
     <g id="line2d_69">
      <path d="M 78.320813 397.738249 
L 1402.455812 397.738249 
" clip-path="url(#pbfc8a76770)" style="fill: none; stroke: #cbcbcb"/>
     </g>
     <g id="line2d_70"/>
     <g id="text_36">
      <!-- 200 -->
      <g transform="translate(48.098312 403.057155)scale(0.14 -0.14)">
       <use xlink:href="#DejaVuSans-32"/>
       <use xlink:href="#DejaVuSans-30" x="63.623047"/>
       <use xlink:href="#DejaVuSans-30" x="127.246094"/>
      </g>
     </g>
    </g>
    <g id="text_37">
     <!-- Seasonal -->
     <g transform="translate(28.872875 477.667062)rotate(-90)scale(0.168 -0.168)">
      <defs>
       <path id="DejaVuSans-53" d="M 3425 4513 
L 3425 3897 
Q 3066 4069 2747 4153 
Q 2428 4238 2131 4238 
Q 1616 4238 1336 4038 
Q 1056 3838 1056 3469 
Q 1056 3159 1242 3001 
Q 1428 2844 1947 2747 
L 2328 2669 
Q 3034 2534 3370 2195 
Q 3706 1856 3706 1288 
Q 3706 609 3251 259 
Q 2797 -91 1919 -91 
Q 1588 -91 1214 -16 
Q 841 59 441 206 
L 441 856 
Q 825 641 1194 531 
Q 1563 422 1919 422 
Q 2459 422 2753 634 
Q 3047 847 3047 1241 
Q 3047 1584 2836 1778 
Q 2625 1972 2144 2069 
L 1759 2144 
Q 1053 2284 737 2584 
Q 422 2884 422 3419 
Q 422 4038 858 4394 
Q 1294 4750 2059 4750 
Q 2388 4750 2728 4690 
Q 3069 4631 3425 4513 
z
" transform="scale(0.015625)"/>
       <path id="DejaVuSans-6c" d="M 603 4863 
L 1178 4863 
L 1178 0 
L 603 0 
L 603 4863 
z
" transform="scale(0.015625)"/>
      </defs>
      <use xlink:href="#DejaVuSans-53"/>
      <use xlink:href="#DejaVuSans-65" x="63.476562"/>
      <use xlink:href="#DejaVuSans-61" x="125"/>
      <use xlink:href="#DejaVuSans-73" x="186.279297"/>
      <use xlink:href="#DejaVuSans-6f" x="238.378906"/>
      <use xlink:href="#DejaVuSans-6e" x="299.560547"/>
      <use xlink:href="#DejaVuSans-61" x="362.939453"/>
      <use xlink:href="#DejaVuSans-6c" x="424.21875"/>
     </g>
    </g>
   </g>
   <g id="line2d_71">
    <path d="M 78.320813 459.059733 
L 87.77892 494.13299 
L 97.237027 502.69775 
L 106.695134 497.980994 
L 116.153241 481.153492 
L 125.611348 454.945691 
L 135.069455 397.925318 
L 144.527562 412.130917 
L 153.98567 376.69775 
L 163.443777 404.172553 
L 172.901884 412.793795 
L 182.359991 419.076336 
L 191.818098 459.059733 
L 201.276205 494.13299 
L 210.734312 502.69775 
L 220.19242 497.980994 
L 229.650527 481.153492 
L 239.108634 454.945691 
L 248.566741 397.925318 
L 258.024848 412.130917 
L 267.482955 376.69775 
L 276.941062 404.172553 
L 286.39917 412.793795 
L 295.857277 419.076336 
L 305.315384 459.059733 
L 314.773491 494.13299 
L 324.231598 502.69775 
L 333.689705 497.980994 
L 343.147812 481.153492 
L 352.60592 454.945691 
L 362.064027 397.925318 
L 371.522134 412.130917 
L 380.980241 376.69775 
L 390.438348 404.172553 
L 399.896455 412.793795 
L 409.354562 419.076336 
L 418.81267 459.059733 
L 428.270777 494.13299 
L 437.728884 502.69775 
L 447.186991 497.980994 
L 456.645098 481.153492 
L 466.103205 454.945691 
L 475.561312 397.925318 
L 485.01942 412.130917 
L 494.477527 376.69775 
L 503.935634 404.172553 
L 513.393741 412.793795 
L 522.851848 419.076336 
L 532.309955 459.059733 
L 541.768062 494.13299 
L 551.22617 502.69775 
L 560.684277 497.980994 
L 570.142384 481.153492 
L 579.600491 454.945691 
L 589.058598 397.925318 
L 598.516705 412.130917 
L 607.974812 376.69775 
L 617.43292 404.172553 
L 626.891027 412.793795 
L 636.349134 419.076336 
L 645.807241 459.059733 
L 655.265348 494.13299 
L 664.723455 502.69775 
L 674.181562 497.980994 
L 683.63967 481.153492 
L 693.097777 454.945691 
L 702.555884 397.925318 
L 712.013991 412.130917 
L 721.472098 376.69775 
L 730.930205 404.172553 
L 740.388312 412.793795 
L 749.84642 419.076336 
L 759.304527 459.059733 
L 768.762634 494.13299 
L 778.220741 502.69775 
L 787.678848 497.980994 
L 797.136955 481.153492 
L 806.595062 454.945691 
L 816.05317 397.925318 
L 825.511277 412.130917 
L 834.969384 376.69775 
L 844.427491 404.172553 
L 853.885598 412.793795 
L 863.343705 419.076336 
L 872.801812 459.059733 
L 882.25992 494.13299 
L 891.718027 502.69775 
L 901.176134 497.980994 
L 910.634241 481.153492 
L 920.092348 454.945691 
L 929.550455 397.925318 
L 939.008562 412.130917 
L 948.46667 376.69775 
L 957.924777 404.172553 
L 967.382884 412.793795 
L 976.840991 419.076336 
L 986.299098 459.059733 
L 995.757205 494.13299 
L 1005.215312 502.69775 
L 1014.67342 497.980994 
L 1024.131527 481.153492 
L 1033.589634 454.945691 
L 1043.047741 397.925318 
L 1052.505848 412.130917 
L 1061.963955 376.69775 
L 1071.422062 404.172553 
L 1080.88017 412.793795 
L 1090.338277 419.076336 
L 1099.796384 459.059733 
L 1109.254491 494.13299 
L 1118.712598 502.69775 
L 1128.170705 497.980994 
L 1137.628812 481.153492 
L 1147.08692 454.945691 
L 1156.545027 397.925318 
L 1166.003134 412.130917 
L 1175.461241 376.69775 
L 1184.919348 404.172553 
L 1194.377455 412.793795 
L 1203.835562 419.076336 
L 1213.29367 459.059733 
L 1222.751777 494.13299 
L 1232.209884 502.69775 
L 1241.667991 497.980994 
L 1251.126098 481.153492 
L 1260.584205 454.945691 
L 1270.042312 397.925318 
L 1279.50042 412.130917 
L 1288.958527 376.69775 
L 1298.416634 404.172553 
L 1307.874741 412.793795 
L 1317.332848 419.076336 
L 1326.790955 459.059733 
L 1336.249062 494.13299 
L 1345.70717 502.69775 
L 1355.165277 497.980994 
L 1364.623384 481.153492 
L 1374.081491 454.945691 
L 1383.539598 397.925318 
L 1392.997705 412.130917 
L 1402.455812 376.69775 
L 1402.455812 376.69775 
" clip-path="url(#pbfc8a76770)" style="fill: none; stroke: #008fd5; stroke-width: 4"/>
   </g>
   <g id="patch_13">
    <path d="M 78.320813 508.99775 
L 78.320813 370.39775 
" style="fill: none; stroke: #f0f0f0; stroke-width: 3; stroke-linejoin: miter; stroke-linecap: square"/>
   </g>
   <g id="patch_14">
    <path d="M 1402.455812 508.99775 
L 1402.455812 370.39775 
" style="fill: none; stroke: #f0f0f0; stroke-width: 3; stroke-linejoin: miter; stroke-linecap: square"/>
   </g>
   <g id="patch_15">
    <path d="M 78.320813 508.99775 
L 1402.455812 508.99775 
" style="fill: none; stroke: #f0f0f0; stroke-width: 3; stroke-linejoin: miter; stroke-linecap: square"/>
   </g>
   <g id="patch_16">
    <path d="M 78.320813 370.39775 
L 1402.455812 370.39775 
" style="fill: none; stroke: #f0f0f0; stroke-width: 3; stroke-linejoin: miter; stroke-linecap: square"/>
   </g>
  </g>
  <g id="axes_4">
   <g id="patch_17">
    <path d="M 78.320813 680.21775 
L 1402.455812 680.21775 
L 1402.455812 541.61775 
L 78.320813 541.61775 
z
" style="fill: #f0f0f0"/>
   </g>
   <g id="line2d_72">
    <path d="M 78.320813 611.314569 
L 1402.455812 611.314569 
" clip-path="url(#p7b62b1b724)" style="fill: none; stroke: #000000; stroke-width: 4"/>
   </g>
   <g id="matplotlib.axis_7">
    <g id="xtick_25">
     <g id="line2d_73">
      <path d="M 78.320813 680.21775 
L 78.320813 541.61775 
" clip-path="url(#p7b62b1b724)" style="fill: none; stroke: #cbcbcb"/>
     </g>
     <g id="line2d_74"/>
     <g id="text_38">
      <!-- 0 -->
      <g transform="translate(73.867063 694.355563)scale(0.14 -0.14)">
       <use xlink:href="#DejaVuSans-30"/>
      </g>
     </g>
    </g>
    <g id="xtick_26">
     <g id="line2d_75">
      <path d="M 267.482955 680.21775 
L 267.482955 541.61775 
" clip-path="url(#p7b62b1b724)" style="fill: none; stroke: #cbcbcb"/>
     </g>
     <g id="line2d_76"/>
     <g id="text_39">
      <!-- 20 -->
      <g transform="translate(258.575455 694.355563)scale(0.14 -0.14)">
       <use xlink:href="#DejaVuSans-32"/>
       <use xlink:href="#DejaVuSans-30" x="63.623047"/>
      </g>
     </g>
    </g>
    <g id="xtick_27">
     <g id="line2d_77">
      <path d="M 456.645098 680.21775 
L 456.645098 541.61775 
" clip-path="url(#p7b62b1b724)" style="fill: none; stroke: #cbcbcb"/>
     </g>
     <g id="line2d_78"/>
     <g id="text_40">
      <!-- 40 -->
      <g transform="translate(447.737598 694.355563)scale(0.14 -0.14)">
       <use xlink:href="#DejaVuSans-34"/>
       <use xlink:href="#DejaVuSans-30" x="63.623047"/>
      </g>
     </g>
    </g>
    <g id="xtick_28">
     <g id="line2d_79">
      <path d="M 645.807241 680.21775 
L 645.807241 541.61775 
" clip-path="url(#p7b62b1b724)" style="fill: none; stroke: #cbcbcb"/>
     </g>
     <g id="line2d_80"/>
     <g id="text_41">
      <!-- 60 -->
      <g transform="translate(636.899741 694.355563)scale(0.14 -0.14)">
       <use xlink:href="#DejaVuSans-36"/>
       <use xlink:href="#DejaVuSans-30" x="63.623047"/>
      </g>
     </g>
    </g>
    <g id="xtick_29">
     <g id="line2d_81">
      <path d="M 834.969384 680.21775 
L 834.969384 541.61775 
" clip-path="url(#p7b62b1b724)" style="fill: none; stroke: #cbcbcb"/>
     </g>
     <g id="line2d_82"/>
     <g id="text_42">
      <!-- 80 -->
      <g transform="translate(826.061884 694.355563)scale(0.14 -0.14)">
       <use xlink:href="#DejaVuSans-38"/>
       <use xlink:href="#DejaVuSans-30" x="63.623047"/>
      </g>
     </g>
    </g>
    <g id="xtick_30">
     <g id="line2d_83">
      <path d="M 1024.131527 680.21775 
L 1024.131527 541.61775 
" clip-path="url(#p7b62b1b724)" style="fill: none; stroke: #cbcbcb"/>
     </g>
     <g id="line2d_84"/>
     <g id="text_43">
      <!-- 100 -->
      <g transform="translate(1010.770277 694.355563)scale(0.14 -0.14)">
       <use xlink:href="#DejaVuSans-31"/>
       <use xlink:href="#DejaVuSans-30" x="63.623047"/>
       <use xlink:href="#DejaVuSans-30" x="127.246094"/>
      </g>
     </g>
    </g>
    <g id="xtick_31">
     <g id="line2d_85">
      <path d="M 1213.29367 680.21775 
L 1213.29367 541.61775 
" clip-path="url(#p7b62b1b724)" style="fill: none; stroke: #cbcbcb"/>
     </g>
     <g id="line2d_86"/>
     <g id="text_44">
      <!-- 120 -->
      <g transform="translate(1199.93242 694.355563)scale(0.14 -0.14)">
       <use xlink:href="#DejaVuSans-31"/>
       <use xlink:href="#DejaVuSans-32" x="63.623047"/>
       <use xlink:href="#DejaVuSans-30" x="127.246094"/>
      </g>
     </g>
    </g>
    <g id="xtick_32">
     <g id="line2d_87">
      <path d="M 1402.455812 680.21775 
L 1402.455812 541.61775 
" clip-path="url(#p7b62b1b724)" style="fill: none; stroke: #cbcbcb"/>
     </g>
     <g id="line2d_88"/>
     <g id="text_45">
      <!-- 140 -->
      <g transform="translate(1389.094562 694.355563)scale(0.14 -0.14)">
       <use xlink:href="#DejaVuSans-31"/>
       <use xlink:href="#DejaVuSans-34" x="63.623047"/>
       <use xlink:href="#DejaVuSans-30" x="127.246094"/>
      </g>
     </g>
    </g>
   </g>
   <g id="matplotlib.axis_8">
    <g id="ytick_11">
     <g id="line2d_89">
      <path d="M 78.320813 648.896439 
L 1402.455812 648.896439 
" clip-path="url(#p7b62b1b724)" style="fill: none; stroke: #cbcbcb"/>
     </g>
     <g id="line2d_90"/>
     <g id="text_46">
      <!-- −1000 -->
      <g transform="translate(27.45925 654.215345)scale(0.14 -0.14)">
       <use xlink:href="#DejaVuSans-2212"/>
       <use xlink:href="#DejaVuSans-31" x="83.789062"/>
       <use xlink:href="#DejaVuSans-30" x="147.412109"/>
       <use xlink:href="#DejaVuSans-30" x="211.035156"/>
       <use xlink:href="#DejaVuSans-30" x="274.658203"/>
      </g>
     </g>
    </g>
    <g id="ytick_12">
     <g id="line2d_91">
      <path d="M 78.320813 611.314569 
L 1402.455812 611.314569 
" clip-path="url(#p7b62b1b724)" style="fill: none; stroke: #cbcbcb"/>
     </g>
     <g id="line2d_92"/>
     <g id="text_47">
      <!-- 0 -->
      <g transform="translate(65.913313 616.633476)scale(0.14 -0.14)">
       <use xlink:href="#DejaVuSans-30"/>
      </g>
     </g>
    </g>
    <g id="ytick_13">
     <g id="line2d_93">
      <path d="M 78.320813 573.7327 
L 1402.455812 573.7327 
" clip-path="url(#p7b62b1b724)" style="fill: none; stroke: #cbcbcb"/>
     </g>
     <g id="line2d_94"/>
     <g id="text_48">
      <!-- 1000 -->
      <g transform="translate(39.190812 579.051606)scale(0.14 -0.14)">
       <use xlink:href="#DejaVuSans-31"/>
       <use xlink:href="#DejaVuSans-30" x="63.623047"/>
       <use xlink:href="#DejaVuSans-30" x="127.246094"/>
       <use xlink:href="#DejaVuSans-30" x="190.869141"/>
      </g>
     </g>
    </g>
    <g id="text_49">
     <!-- Resid -->
     <g transform="translate(19.965375 633.58725)rotate(-90)scale(0.168 -0.168)">
      <defs>
       <path id="DejaVuSans-52" d="M 2841 2188 
Q 3044 2119 3236 1894 
Q 3428 1669 3622 1275 
L 4263 0 
L 3584 0 
L 2988 1197 
Q 2756 1666 2539 1819 
Q 2322 1972 1947 1972 
L 1259 1972 
L 1259 0 
L 628 0 
L 628 4666 
L 2053 4666 
Q 2853 4666 3247 4331 
Q 3641 3997 3641 3322 
Q 3641 2881 3436 2590 
Q 3231 2300 2841 2188 
z
M 1259 4147 
L 1259 2491 
L 2053 2491 
Q 2509 2491 2742 2702 
Q 2975 2913 2975 3322 
Q 2975 3731 2742 3939 
Q 2509 4147 2053 4147 
L 1259 4147 
z
" transform="scale(0.015625)"/>
       <path id="DejaVuSans-69" d="M 603 3500 
L 1178 3500 
L 1178 0 
L 603 0 
L 603 3500 
z
M 603 4863 
L 1178 4863 
L 1178 4134 
L 603 4134 
L 603 4863 
z
" transform="scale(0.015625)"/>
      </defs>
      <use xlink:href="#DejaVuSans-52"/>
      <use xlink:href="#DejaVuSans-65" x="64.982422"/>
      <use xlink:href="#DejaVuSans-73" x="126.505859"/>
      <use xlink:href="#DejaVuSans-69" x="178.605469"/>
      <use xlink:href="#DejaVuSans-64" x="206.388672"/>
     </g>
    </g>
   </g>
   <g id="line2d_95">
    <defs>
     <path id="me2bd38a86d" d="M 0 3 
C 0.795609 3 1.55874 2.683901 2.12132 2.12132 
C 2.683901 1.55874 3 0.795609 3 0 
C 3 -0.795609 2.683901 -1.55874 2.12132 -2.12132 
C 1.55874 -2.683901 0.795609 -3 0 -3 
C -0.795609 -3 -1.55874 -2.683901 -2.12132 -2.12132 
C -2.683901 -1.55874 -3 -0.795609 -3 0 
C -3 0.795609 -2.683901 1.55874 -2.12132 2.12132 
C -1.55874 2.683901 -0.795609 3 0 3 
z
" style="stroke: #008fd5"/>
    </defs>
    <g clip-path="url(#p7b62b1b724)">
     <use xlink:href="#me2bd38a86d" x="135.069455" y="611.812296" style="fill: #008fd5; stroke: #008fd5"/>
     <use xlink:href="#me2bd38a86d" x="144.527562" y="598.50588" style="fill: #008fd5; stroke: #008fd5"/>
     <use xlink:href="#me2bd38a86d" x="153.98567" y="597.568611" style="fill: #008fd5; stroke: #008fd5"/>
     <use xlink:href="#me2bd38a86d" x="163.443777" y="597.387028" style="fill: #008fd5; stroke: #008fd5"/>
     <use xlink:href="#me2bd38a86d" x="172.901884" y="605.311953" style="fill: #008fd5; stroke: #008fd5"/>
     <use xlink:href="#me2bd38a86d" x="182.359991" y="622.479949" style="fill: #008fd5; stroke: #008fd5"/>
     <use xlink:href="#me2bd38a86d" x="191.818098" y="625.817905" style="fill: #008fd5; stroke: #008fd5"/>
     <use xlink:href="#me2bd38a86d" x="201.276205" y="625.030044" style="fill: #008fd5; stroke: #008fd5"/>
     <use xlink:href="#me2bd38a86d" x="210.734312" y="624.237556" style="fill: #008fd5; stroke: #008fd5"/>
     <use xlink:href="#me2bd38a86d" x="220.19242" y="623.158953" style="fill: #008fd5; stroke: #008fd5"/>
     <use xlink:href="#me2bd38a86d" x="229.650527" y="607.164339" style="fill: #008fd5; stroke: #008fd5"/>
     <use xlink:href="#me2bd38a86d" x="239.108634" y="586.833589" style="fill: #008fd5; stroke: #008fd5"/>
     <use xlink:href="#me2bd38a86d" x="248.566741" y="586.875525" style="fill: #008fd5; stroke: #008fd5"/>
     <use xlink:href="#me2bd38a86d" x="258.024848" y="591.105971" style="fill: #008fd5; stroke: #008fd5"/>
     <use xlink:href="#me2bd38a86d" x="267.482955" y="608.506892" style="fill: #008fd5; stroke: #008fd5"/>
     <use xlink:href="#me2bd38a86d" x="276.941062" y="619.790428" style="fill: #008fd5; stroke: #008fd5"/>
     <use xlink:href="#me2bd38a86d" x="286.39917" y="619.275105" style="fill: #008fd5; stroke: #008fd5"/>
     <use xlink:href="#me2bd38a86d" x="295.857277" y="621.884863" style="fill: #008fd5; stroke: #008fd5"/>
     <use xlink:href="#me2bd38a86d" x="305.315384" y="623.60539" style="fill: #008fd5; stroke: #008fd5"/>
     <use xlink:href="#me2bd38a86d" x="314.773491" y="617.879037" style="fill: #008fd5; stroke: #008fd5"/>
     <use xlink:href="#me2bd38a86d" x="324.231598" y="617.586504" style="fill: #008fd5; stroke: #008fd5"/>
     <use xlink:href="#me2bd38a86d" x="333.689705" y="617.607132" style="fill: #008fd5; stroke: #008fd5"/>
     <use xlink:href="#me2bd38a86d" x="343.147812" y="610.444975" style="fill: #008fd5; stroke: #008fd5"/>
     <use xlink:href="#me2bd38a86d" x="352.60592" y="609.313445" style="fill: #008fd5; stroke: #008fd5"/>
     <use xlink:href="#me2bd38a86d" x="362.064027" y="592.0007" style="fill: #008fd5; stroke: #008fd5"/>
     <use xlink:href="#me2bd38a86d" x="371.522134" y="605.316471" style="fill: #008fd5; stroke: #008fd5"/>
     <use xlink:href="#me2bd38a86d" x="380.980241" y="599.228007" style="fill: #008fd5; stroke: #008fd5"/>
     <use xlink:href="#me2bd38a86d" x="390.438348" y="609.582488" style="fill: #008fd5; stroke: #008fd5"/>
     <use xlink:href="#me2bd38a86d" x="399.896455" y="609.074067" style="fill: #008fd5; stroke: #008fd5"/>
     <use xlink:href="#me2bd38a86d" x="409.354562" y="624.950213" style="fill: #008fd5; stroke: #008fd5"/>
     <use xlink:href="#me2bd38a86d" x="418.81267" y="626.748044" style="fill: #008fd5; stroke: #008fd5"/>
     <use xlink:href="#me2bd38a86d" x="428.270777" y="622.964242" style="fill: #008fd5; stroke: #008fd5"/>
     <use xlink:href="#me2bd38a86d" x="437.728884" y="623.123697" style="fill: #008fd5; stroke: #008fd5"/>
     <use xlink:href="#me2bd38a86d" x="447.186991" y="618.283397" style="fill: #008fd5; stroke: #008fd5"/>
     <use xlink:href="#me2bd38a86d" x="456.645098" y="600.046646" style="fill: #008fd5; stroke: #008fd5"/>
     <use xlink:href="#me2bd38a86d" x="466.103205" y="602.936402" style="fill: #008fd5; stroke: #008fd5"/>
     <use xlink:href="#me2bd38a86d" x="475.561312" y="582.041205" style="fill: #008fd5; stroke: #008fd5"/>
     <use xlink:href="#me2bd38a86d" x="485.01942" y="595.865075" style="fill: #008fd5; stroke: #008fd5"/>
     <use xlink:href="#me2bd38a86d" x="494.477527" y="605.616951" style="fill: #008fd5; stroke: #008fd5"/>
     <use xlink:href="#me2bd38a86d" x="503.935634" y="620.485863" style="fill: #008fd5; stroke: #008fd5"/>
     <use xlink:href="#me2bd38a86d" x="513.393741" y="628.781191" style="fill: #008fd5; stroke: #008fd5"/>
     <use xlink:href="#me2bd38a86d" x="522.851848" y="635.639945" style="fill: #008fd5; stroke: #008fd5"/>
     <use xlink:href="#me2bd38a86d" x="532.309955" y="636.952226" style="fill: #008fd5; stroke: #008fd5"/>
     <use xlink:href="#me2bd38a86d" x="541.768062" y="621.303841" style="fill: #008fd5; stroke: #008fd5"/>
     <use xlink:href="#me2bd38a86d" x="551.22617" y="597.165469" style="fill: #008fd5; stroke: #008fd5"/>
     <use xlink:href="#me2bd38a86d" x="560.684277" y="579.564128" style="fill: #008fd5; stroke: #008fd5"/>
     <use xlink:href="#me2bd38a86d" x="570.142384" y="588.754716" style="fill: #008fd5; stroke: #008fd5"/>
     <use xlink:href="#me2bd38a86d" x="579.600491" y="580.078117" style="fill: #008fd5; stroke: #008fd5"/>
     <use xlink:href="#me2bd38a86d" x="589.058598" y="595.920267" style="fill: #008fd5; stroke: #008fd5"/>
     <use xlink:href="#me2bd38a86d" x="598.516705" y="622.932438" style="fill: #008fd5; stroke: #008fd5"/>
     <use xlink:href="#me2bd38a86d" x="607.974812" y="641.084031" style="fill: #008fd5; stroke: #008fd5"/>
     <use xlink:href="#me2bd38a86d" x="617.43292" y="643.981969" style="fill: #008fd5; stroke: #008fd5"/>
     <use xlink:href="#me2bd38a86d" x="626.891027" y="647.229608" style="fill: #008fd5; stroke: #008fd5"/>
     <use xlink:href="#me2bd38a86d" x="636.349134" y="645.423536" style="fill: #008fd5; stroke: #008fd5"/>
     <use xlink:href="#me2bd38a86d" x="645.807241" y="618.348052" style="fill: #008fd5; stroke: #008fd5"/>
     <use xlink:href="#me2bd38a86d" x="655.265348" y="591.943267" style="fill: #008fd5; stroke: #008fd5"/>
     <use xlink:href="#me2bd38a86d" x="664.723455" y="555.376571" style="fill: #008fd5; stroke: #008fd5"/>
     <use xlink:href="#me2bd38a86d" x="674.181562" y="558.294499" style="fill: #008fd5; stroke: #008fd5"/>
     <use xlink:href="#me2bd38a86d" x="683.63967" y="578.046259" style="fill: #008fd5; stroke: #008fd5"/>
     <use xlink:href="#me2bd38a86d" x="693.097777" y="605.902094" style="fill: #008fd5; stroke: #008fd5"/>
     <use xlink:href="#me2bd38a86d" x="702.555884" y="635.494458" style="fill: #008fd5; stroke: #008fd5"/>
     <use xlink:href="#me2bd38a86d" x="712.013991" y="646.251035" style="fill: #008fd5; stroke: #008fd5"/>
     <use xlink:href="#me2bd38a86d" x="721.472098" y="658.488247" style="fill: #008fd5; stroke: #008fd5"/>
     <use xlink:href="#me2bd38a86d" x="730.930205" y="659.23829" style="fill: #008fd5; stroke: #008fd5"/>
     <use xlink:href="#me2bd38a86d" x="740.388312" y="644.528712" style="fill: #008fd5; stroke: #008fd5"/>
     <use xlink:href="#me2bd38a86d" x="749.84642" y="589.277502" style="fill: #008fd5; stroke: #008fd5"/>
     <use xlink:href="#me2bd38a86d" x="759.304527" y="550.354334" style="fill: #008fd5; stroke: #008fd5"/>
     <use xlink:href="#me2bd38a86d" x="768.762634" y="567.860126" style="fill: #008fd5; stroke: #008fd5"/>
     <use xlink:href="#me2bd38a86d" x="778.220741" y="559.99888" style="fill: #008fd5; stroke: #008fd5"/>
     <use xlink:href="#me2bd38a86d" x="787.678848" y="599.040853" style="fill: #008fd5; stroke: #008fd5"/>
     <use xlink:href="#me2bd38a86d" x="797.136955" y="612.973165" style="fill: #008fd5; stroke: #008fd5"/>
     <use xlink:href="#me2bd38a86d" x="806.595062" y="650.841776" style="fill: #008fd5; stroke: #008fd5"/>
     <use xlink:href="#me2bd38a86d" x="816.05317" y="672.287657" style="fill: #008fd5; stroke: #008fd5"/>
     <use xlink:href="#me2bd38a86d" x="825.511277" y="673.91775" style="fill: #008fd5; stroke: #008fd5"/>
     <use xlink:href="#me2bd38a86d" x="834.969384" y="657.46833" style="fill: #008fd5; stroke: #008fd5"/>
     <use xlink:href="#me2bd38a86d" x="844.427491" y="580.053343" style="fill: #008fd5; stroke: #008fd5"/>
     <use xlink:href="#me2bd38a86d" x="853.885598" y="551.519614" style="fill: #008fd5; stroke: #008fd5"/>
     <use xlink:href="#me2bd38a86d" x="863.343705" y="549.995014" style="fill: #008fd5; stroke: #008fd5"/>
     <use xlink:href="#me2bd38a86d" x="872.801812" y="547.91775" style="fill: #008fd5; stroke: #008fd5"/>
     <use xlink:href="#me2bd38a86d" x="882.25992" y="589.172844" style="fill: #008fd5; stroke: #008fd5"/>
     <use xlink:href="#me2bd38a86d" x="891.718027" y="628.753096" style="fill: #008fd5; stroke: #008fd5"/>
     <use xlink:href="#me2bd38a86d" x="901.176134" y="635.399863" style="fill: #008fd5; stroke: #008fd5"/>
     <use xlink:href="#me2bd38a86d" x="910.634241" y="641.018922" style="fill: #008fd5; stroke: #008fd5"/>
     <use xlink:href="#me2bd38a86d" x="920.092348" y="649.477697" style="fill: #008fd5; stroke: #008fd5"/>
     <use xlink:href="#me2bd38a86d" x="929.550455" y="651.61494" style="fill: #008fd5; stroke: #008fd5"/>
     <use xlink:href="#me2bd38a86d" x="939.008562" y="627.147923" style="fill: #008fd5; stroke: #008fd5"/>
     <use xlink:href="#me2bd38a86d" x="948.46667" y="596.865882" style="fill: #008fd5; stroke: #008fd5"/>
     <use xlink:href="#me2bd38a86d" x="957.924777" y="590.02825" style="fill: #008fd5; stroke: #008fd5"/>
     <use xlink:href="#me2bd38a86d" x="967.382884" y="592.792336" style="fill: #008fd5; stroke: #008fd5"/>
     <use xlink:href="#me2bd38a86d" x="976.840991" y="586.054518" style="fill: #008fd5; stroke: #008fd5"/>
     <use xlink:href="#me2bd38a86d" x="986.299098" y="602.887093" style="fill: #008fd5; stroke: #008fd5"/>
     <use xlink:href="#me2bd38a86d" x="995.757205" y="601.371149" style="fill: #008fd5; stroke: #008fd5"/>
     <use xlink:href="#me2bd38a86d" x="1005.215312" y="619.468717" style="fill: #008fd5; stroke: #008fd5"/>
     <use xlink:href="#me2bd38a86d" x="1014.67342" y="624.445414" style="fill: #008fd5; stroke: #008fd5"/>
     <use xlink:href="#me2bd38a86d" x="1024.131527" y="638.202108" style="fill: #008fd5; stroke: #008fd5"/>
     <use xlink:href="#me2bd38a86d" x="1033.589634" y="644.806062" style="fill: #008fd5; stroke: #008fd5"/>
     <use xlink:href="#me2bd38a86d" x="1043.047741" y="648.665481" style="fill: #008fd5; stroke: #008fd5"/>
     <use xlink:href="#me2bd38a86d" x="1052.505848" y="607.666004" style="fill: #008fd5; stroke: #008fd5"/>
     <use xlink:href="#me2bd38a86d" x="1061.963955" y="581.943087" style="fill: #008fd5; stroke: #008fd5"/>
     <use xlink:href="#me2bd38a86d" x="1071.422062" y="577.760066" style="fill: #008fd5; stroke: #008fd5"/>
     <use xlink:href="#me2bd38a86d" x="1080.88017" y="571.978557" style="fill: #008fd5; stroke: #008fd5"/>
     <use xlink:href="#me2bd38a86d" x="1090.338277" y="572.48317" style="fill: #008fd5; stroke: #008fd5"/>
     <use xlink:href="#me2bd38a86d" x="1099.796384" y="621.473102" style="fill: #008fd5; stroke: #008fd5"/>
     <use xlink:href="#me2bd38a86d" x="1109.254491" y="625.160772" style="fill: #008fd5; stroke: #008fd5"/>
     <use xlink:href="#me2bd38a86d" x="1118.712598" y="648.947113" style="fill: #008fd5; stroke: #008fd5"/>
     <use xlink:href="#me2bd38a86d" x="1128.170705" y="650.97991" style="fill: #008fd5; stroke: #008fd5"/>
     <use xlink:href="#me2bd38a86d" x="1137.628812" y="643.587068" style="fill: #008fd5; stroke: #008fd5"/>
     <use xlink:href="#me2bd38a86d" x="1147.08692" y="603.055372" style="fill: #008fd5; stroke: #008fd5"/>
     <use xlink:href="#me2bd38a86d" x="1156.545027" y="561.936001" style="fill: #008fd5; stroke: #008fd5"/>
     <use xlink:href="#me2bd38a86d" x="1166.003134" y="577.131126" style="fill: #008fd5; stroke: #008fd5"/>
     <use xlink:href="#me2bd38a86d" x="1175.461241" y="566.114713" style="fill: #008fd5; stroke: #008fd5"/>
     <use xlink:href="#me2bd38a86d" x="1184.919348" y="604.699899" style="fill: #008fd5; stroke: #008fd5"/>
     <use xlink:href="#me2bd38a86d" x="1194.377455" y="630.155369" style="fill: #008fd5; stroke: #008fd5"/>
     <use xlink:href="#me2bd38a86d" x="1203.835562" y="644.253722" style="fill: #008fd5; stroke: #008fd5"/>
     <use xlink:href="#me2bd38a86d" x="1213.29367" y="643.418147" style="fill: #008fd5; stroke: #008fd5"/>
     <use xlink:href="#me2bd38a86d" x="1222.751777" y="638.765409" style="fill: #008fd5; stroke: #008fd5"/>
     <use xlink:href="#me2bd38a86d" x="1232.209884" y="630.020074" style="fill: #008fd5; stroke: #008fd5"/>
     <use xlink:href="#me2bd38a86d" x="1241.667991" y="606.842758" style="fill: #008fd5; stroke: #008fd5"/>
     <use xlink:href="#me2bd38a86d" x="1251.126098" y="593.378709" style="fill: #008fd5; stroke: #008fd5"/>
     <use xlink:href="#me2bd38a86d" x="1260.584205" y="580.372352" style="fill: #008fd5; stroke: #008fd5"/>
     <use xlink:href="#me2bd38a86d" x="1270.042312" y="586.330066" style="fill: #008fd5; stroke: #008fd5"/>
     <use xlink:href="#me2bd38a86d" x="1279.50042" y="579.138925" style="fill: #008fd5; stroke: #008fd5"/>
     <use xlink:href="#me2bd38a86d" x="1288.958527" y="612.093847" style="fill: #008fd5; stroke: #008fd5"/>
     <use xlink:href="#me2bd38a86d" x="1298.416634" y="621.970973" style="fill: #008fd5; stroke: #008fd5"/>
     <use xlink:href="#me2bd38a86d" x="1307.874741" y="624.332085" style="fill: #008fd5; stroke: #008fd5"/>
     <use xlink:href="#me2bd38a86d" x="1317.332848" y="632.536165" style="fill: #008fd5; stroke: #008fd5"/>
     <use xlink:href="#me2bd38a86d" x="1326.790955" y="627.456553" style="fill: #008fd5; stroke: #008fd5"/>
     <use xlink:href="#me2bd38a86d" x="1336.249062" y="623.527866" style="fill: #008fd5; stroke: #008fd5"/>
     <use xlink:href="#me2bd38a86d" x="1345.70717" y="620.30092" style="fill: #008fd5; stroke: #008fd5"/>
    </g>
   </g>
   <g id="patch_18">
    <path d="M 78.320813 680.21775 
L 78.320813 541.61775 
" style="fill: none; stroke: #f0f0f0; stroke-width: 3; stroke-linejoin: miter; stroke-linecap: square"/>
   </g>
   <g id="patch_19">
    <path d="M 1402.455812 680.21775 
L 1402.455812 541.61775 
" style="fill: none; stroke: #f0f0f0; stroke-width: 3; stroke-linejoin: miter; stroke-linecap: square"/>
   </g>
   <g id="patch_20">
    <path d="M 78.320813 680.21775 
L 1402.455812 680.21775 
" style="fill: none; stroke: #f0f0f0; stroke-width: 3; stroke-linejoin: miter; stroke-linecap: square"/>
   </g>
   <g id="patch_21">
    <path d="M 78.320813 541.61775 
L 1402.455812 541.61775 
" style="fill: none; stroke: #f0f0f0; stroke-width: 3; stroke-linejoin: miter; stroke-linecap: square"/>
   </g>
  </g>
 </g>
 <defs>
  <clipPath id="pb90007edeb">
   <rect x="78.320813" y="27.95775" width="1324.135" height="138.6"/>
  </clipPath>
  <clipPath id="p45c0690326">
   <rect x="78.320813" y="199.17775" width="1324.135" height="138.6"/>
  </clipPath>
  <clipPath id="pbfc8a76770">
   <rect x="78.320813" y="370.39775" width="1324.135" height="138.6"/>
  </clipPath>
  <clipPath id="p7b62b1b724">
   <rect x="78.320813" y="541.61775" width="1324.135" height="138.6"/>
  </clipPath>
 </defs>
</svg>
