<?xml version="1.0" encoding="utf-8" standalone="no"?>
<!DOCTYPE svg PUBLIC "-//W3C//DTD SVG 1.1//EN"
  "http://www.w3.org/Graphics/SVG/1.1/DTD/svg11.dtd">
<svg xmlns:xlink="http://www.w3.org/1999/xlink" width="1300.246563pt" height="634.908625pt" viewBox="0 0 1300.246563 634.908625" xmlns="http://www.w3.org/2000/svg" version="1.1">
 <metadata>
  <rdf:RDF xmlns:dc="http://purl.org/dc/elements/1.1/" xmlns:cc="http://creativecommons.org/ns#" xmlns:rdf="http://www.w3.org/1999/02/22-rdf-syntax-ns#">
   <cc:Work>
    <dc:type rdf:resource="http://purl.org/dc/dcmitype/StillImage"/>
    <dc:date>2022-02-25T23:26:33.625906</dc:date>
    <dc:format>image/svg+xml</dc:format>
    <dc:creator>
     <cc:Agent>
      <dc:title>Matplotlib v3.5.1, https://matplotlib.org/</dc:title>
     </cc:Agent>
    </dc:creator>
   </cc:Work>
  </rdf:RDF>
 </metadata>
 <defs>
  <style type="text/css">*{stroke-linejoin: round; stroke-linecap: butt}</style>
 </defs>
 <g id="figure_1">
  <g id="patch_1">
   <path d="M 0 634.908625 
L 1300.246563 634.908625 
L 1300.246563 0 
L 0 0 
z
" style="fill: #f0f0f0"/>
  </g>
  <g id="axes_1">
   <g id="patch_2">
    <path d="M 40.246563 590.4 
L 1293.046562 590.4 
L 1293.046562 7.2 
L 40.246563 7.2 
z
" style="fill: #f0f0f0"/>
   </g>
   <g id="matplotlib.axis_1">
    <g id="xtick_1">
     <g id="line2d_1">
      <path d="M 148.014304 590.4 
L 148.014304 7.2 
" clip-path="url(#pd02ca18534)" style="fill: none; stroke: #cbcbcb"/>
     </g>
     <g id="line2d_2"/>
     <g id="text_1">
      <!-- 1974 -->
      <g transform="translate(130.199304 604.537812)scale(0.14 -0.14)">
       <defs>
        <path id="DejaVuSans-31" d="M 794 531 
L 1825 531 
L 1825 4091 
L 703 3866 
L 703 4441 
L 1819 4666 
L 2450 4666 
L 2450 531 
L 3481 531 
L 3481 0 
L 794 0 
L 794 531 
z
" transform="scale(0.015625)"/>
        <path id="DejaVuSans-39" d="M 703 97 
L 703 672 
Q 941 559 1184 500 
Q 1428 441 1663 441 
Q 2288 441 2617 861 
Q 2947 1281 2994 2138 
Q 2813 1869 2534 1725 
Q 2256 1581 1919 1581 
Q 1219 1581 811 2004 
Q 403 2428 403 3163 
Q 403 3881 828 4315 
Q 1253 4750 1959 4750 
Q 2769 4750 3195 4129 
Q 3622 3509 3622 2328 
Q 3622 1225 3098 567 
Q 2575 -91 1691 -91 
Q 1453 -91 1209 -44 
Q 966 3 703 97 
z
M 1959 2075 
Q 2384 2075 2632 2365 
Q 2881 2656 2881 3163 
Q 2881 3666 2632 3958 
Q 2384 4250 1959 4250 
Q 1534 4250 1286 3958 
Q 1038 3666 1038 3163 
Q 1038 2656 1286 2365 
Q 1534 2075 1959 2075 
z
" transform="scale(0.015625)"/>
        <path id="DejaVuSans-37" d="M 525 4666 
L 3525 4666 
L 3525 4397 
L 1831 0 
L 1172 0 
L 2766 4134 
L 525 4134 
L 525 4666 
z
" transform="scale(0.015625)"/>
        <path id="DejaVuSans-34" d="M 2419 4116 
L 825 1625 
L 2419 1625 
L 2419 4116 
z
M 2253 4666 
L 3047 4666 
L 3047 1625 
L 3713 1625 
L 3713 1100 
L 3047 1100 
L 3047 0 
L 2419 0 
L 2419 1100 
L 313 1100 
L 313 1709 
L 2253 4666 
z
" transform="scale(0.015625)"/>
       </defs>
       <use xlink:href="#DejaVuSans-31"/>
       <use xlink:href="#DejaVuSans-39" x="63.623047"/>
       <use xlink:href="#DejaVuSans-37" x="127.246094"/>
       <use xlink:href="#DejaVuSans-34" x="190.869141"/>
      </g>
     </g>
    </g>
    <g id="xtick_2">
     <g id="line2d_3">
      <path d="M 282.723982 590.4 
L 282.723982 7.2 
" clip-path="url(#pd02ca18534)" style="fill: none; stroke: #cbcbcb"/>
     </g>
     <g id="line2d_4"/>
     <g id="text_2">
      <!-- 1979 -->
      <g transform="translate(264.908982 604.537812)scale(0.14 -0.14)">
       <use xlink:href="#DejaVuSans-31"/>
       <use xlink:href="#DejaVuSans-39" x="63.623047"/>
       <use xlink:href="#DejaVuSans-37" x="127.246094"/>
       <use xlink:href="#DejaVuSans-39" x="190.869141"/>
      </g>
     </g>
    </g>
    <g id="xtick_3">
     <g id="line2d_5">
      <path d="M 417.433659 590.4 
L 417.433659 7.2 
" clip-path="url(#pd02ca18534)" style="fill: none; stroke: #cbcbcb"/>
     </g>
     <g id="line2d_6"/>
     <g id="text_3">
      <!-- 1984 -->
      <g transform="translate(399.618659 604.537812)scale(0.14 -0.14)">
       <defs>
        <path id="DejaVuSans-38" d="M 2034 2216 
Q 1584 2216 1326 1975 
Q 1069 1734 1069 1313 
Q 1069 891 1326 650 
Q 1584 409 2034 409 
Q 2484 409 2743 651 
Q 3003 894 3003 1313 
Q 3003 1734 2745 1975 
Q 2488 2216 2034 2216 
z
M 1403 2484 
Q 997 2584 770 2862 
Q 544 3141 544 3541 
Q 544 4100 942 4425 
Q 1341 4750 2034 4750 
Q 2731 4750 3128 4425 
Q 3525 4100 3525 3541 
Q 3525 3141 3298 2862 
Q 3072 2584 2669 2484 
Q 3125 2378 3379 2068 
Q 3634 1759 3634 1313 
Q 3634 634 3220 271 
Q 2806 -91 2034 -91 
Q 1263 -91 848 271 
Q 434 634 434 1313 
Q 434 1759 690 2068 
Q 947 2378 1403 2484 
z
M 1172 3481 
Q 1172 3119 1398 2916 
Q 1625 2713 2034 2713 
Q 2441 2713 2670 2916 
Q 2900 3119 2900 3481 
Q 2900 3844 2670 4047 
Q 2441 4250 2034 4250 
Q 1625 4250 1398 4047 
Q 1172 3844 1172 3481 
z
" transform="scale(0.015625)"/>
       </defs>
       <use xlink:href="#DejaVuSans-31"/>
       <use xlink:href="#DejaVuSans-39" x="63.623047"/>
       <use xlink:href="#DejaVuSans-38" x="127.246094"/>
       <use xlink:href="#DejaVuSans-34" x="190.869141"/>
      </g>
     </g>
    </g>
    <g id="xtick_4">
     <g id="line2d_7">
      <path d="M 552.143337 590.4 
L 552.143337 7.2 
" clip-path="url(#pd02ca18534)" style="fill: none; stroke: #cbcbcb"/>
     </g>
     <g id="line2d_8"/>
     <g id="text_4">
      <!-- 1989 -->
      <g transform="translate(534.328337 604.537812)scale(0.14 -0.14)">
       <use xlink:href="#DejaVuSans-31"/>
       <use xlink:href="#DejaVuSans-39" x="63.623047"/>
       <use xlink:href="#DejaVuSans-38" x="127.246094"/>
       <use xlink:href="#DejaVuSans-39" x="190.869141"/>
      </g>
     </g>
    </g>
    <g id="xtick_5">
     <g id="line2d_9">
      <path d="M 686.853014 590.4 
L 686.853014 7.2 
" clip-path="url(#pd02ca18534)" style="fill: none; stroke: #cbcbcb"/>
     </g>
     <g id="line2d_10"/>
     <g id="text_5">
      <!-- 1994 -->
      <g transform="translate(669.038014 604.537812)scale(0.14 -0.14)">
       <use xlink:href="#DejaVuSans-31"/>
       <use xlink:href="#DejaVuSans-39" x="63.623047"/>
       <use xlink:href="#DejaVuSans-39" x="127.246094"/>
       <use xlink:href="#DejaVuSans-34" x="190.869141"/>
      </g>
     </g>
    </g>
    <g id="xtick_6">
     <g id="line2d_11">
      <path d="M 821.562692 590.4 
L 821.562692 7.2 
" clip-path="url(#pd02ca18534)" style="fill: none; stroke: #cbcbcb"/>
     </g>
     <g id="line2d_12"/>
     <g id="text_6">
      <!-- 1999 -->
      <g transform="translate(803.747692 604.537812)scale(0.14 -0.14)">
       <use xlink:href="#DejaVuSans-31"/>
       <use xlink:href="#DejaVuSans-39" x="63.623047"/>
       <use xlink:href="#DejaVuSans-39" x="127.246094"/>
       <use xlink:href="#DejaVuSans-39" x="190.869141"/>
      </g>
     </g>
    </g>
    <g id="xtick_7">
     <g id="line2d_13">
      <path d="M 956.272369 590.4 
L 956.272369 7.2 
" clip-path="url(#pd02ca18534)" style="fill: none; stroke: #cbcbcb"/>
     </g>
     <g id="line2d_14"/>
     <g id="text_7">
      <!-- 2004 -->
      <g transform="translate(938.457369 604.537812)scale(0.14 -0.14)">
       <defs>
        <path id="DejaVuSans-32" d="M 1228 531 
L 3431 531 
L 3431 0 
L 469 0 
L 469 531 
Q 828 903 1448 1529 
Q 2069 2156 2228 2338 
Q 2531 2678 2651 2914 
Q 2772 3150 2772 3378 
Q 2772 3750 2511 3984 
Q 2250 4219 1831 4219 
Q 1534 4219 1204 4116 
Q 875 4013 500 3803 
L 500 4441 
Q 881 4594 1212 4672 
Q 1544 4750 1819 4750 
Q 2544 4750 2975 4387 
Q 3406 4025 3406 3419 
Q 3406 3131 3298 2873 
Q 3191 2616 2906 2266 
Q 2828 2175 2409 1742 
Q 1991 1309 1228 531 
z
" transform="scale(0.015625)"/>
        <path id="DejaVuSans-30" d="M 2034 4250 
Q 1547 4250 1301 3770 
Q 1056 3291 1056 2328 
Q 1056 1369 1301 889 
Q 1547 409 2034 409 
Q 2525 409 2770 889 
Q 3016 1369 3016 2328 
Q 3016 3291 2770 3770 
Q 2525 4250 2034 4250 
z
M 2034 4750 
Q 2819 4750 3233 4129 
Q 3647 3509 3647 2328 
Q 3647 1150 3233 529 
Q 2819 -91 2034 -91 
Q 1250 -91 836 529 
Q 422 1150 422 2328 
Q 422 3509 836 4129 
Q 1250 4750 2034 4750 
z
" transform="scale(0.015625)"/>
       </defs>
       <use xlink:href="#DejaVuSans-32"/>
       <use xlink:href="#DejaVuSans-30" x="63.623047"/>
       <use xlink:href="#DejaVuSans-30" x="127.246094"/>
       <use xlink:href="#DejaVuSans-34" x="190.869141"/>
      </g>
     </g>
    </g>
    <g id="xtick_8">
     <g id="line2d_15">
      <path d="M 1090.982046 590.4 
L 1090.982046 7.2 
" clip-path="url(#pd02ca18534)" style="fill: none; stroke: #cbcbcb"/>
     </g>
     <g id="line2d_16"/>
     <g id="text_8">
      <!-- 2009 -->
      <g transform="translate(1073.167046 604.537812)scale(0.14 -0.14)">
       <use xlink:href="#DejaVuSans-32"/>
       <use xlink:href="#DejaVuSans-30" x="63.623047"/>
       <use xlink:href="#DejaVuSans-30" x="127.246094"/>
       <use xlink:href="#DejaVuSans-39" x="190.869141"/>
      </g>
     </g>
    </g>
    <g id="xtick_9">
     <g id="line2d_17">
      <path d="M 1225.691724 590.4 
L 1225.691724 7.2 
" clip-path="url(#pd02ca18534)" style="fill: none; stroke: #cbcbcb"/>
     </g>
     <g id="line2d_18"/>
     <g id="text_9">
      <!-- 2014 -->
      <g transform="translate(1207.876724 604.537812)scale(0.14 -0.14)">
       <use xlink:href="#DejaVuSans-32"/>
       <use xlink:href="#DejaVuSans-30" x="63.623047"/>
       <use xlink:href="#DejaVuSans-31" x="127.246094"/>
       <use xlink:href="#DejaVuSans-34" x="190.869141"/>
      </g>
     </g>
    </g>
    <g id="xtick_10">
     <g id="line2d_19"/>
    </g>
    <g id="xtick_11">
     <g id="line2d_20"/>
    </g>
    <g id="xtick_12">
     <g id="line2d_21"/>
    </g>
    <g id="xtick_13">
     <g id="line2d_22"/>
    </g>
    <g id="xtick_14">
     <g id="line2d_23"/>
    </g>
    <g id="xtick_15">
     <g id="line2d_24"/>
    </g>
    <g id="xtick_16">
     <g id="line2d_25"/>
    </g>
    <g id="xtick_17">
     <g id="line2d_26"/>
    </g>
    <g id="xtick_18">
     <g id="line2d_27"/>
    </g>
    <g id="xtick_19">
     <g id="line2d_28"/>
    </g>
    <g id="xtick_20">
     <g id="line2d_29"/>
    </g>
    <g id="xtick_21">
     <g id="line2d_30"/>
    </g>
    <g id="xtick_22">
     <g id="line2d_31"/>
    </g>
    <g id="xtick_23">
     <g id="line2d_32"/>
    </g>
    <g id="xtick_24">
     <g id="line2d_33"/>
    </g>
    <g id="xtick_25">
     <g id="line2d_34"/>
    </g>
    <g id="xtick_26">
     <g id="line2d_35"/>
    </g>
    <g id="xtick_27">
     <g id="line2d_36"/>
    </g>
    <g id="xtick_28">
     <g id="line2d_37"/>
    </g>
    <g id="xtick_29">
     <g id="line2d_38"/>
    </g>
    <g id="xtick_30">
     <g id="line2d_39"/>
    </g>
    <g id="xtick_31">
     <g id="line2d_40"/>
    </g>
    <g id="xtick_32">
     <g id="line2d_41"/>
    </g>
    <g id="xtick_33">
     <g id="line2d_42"/>
    </g>
    <g id="xtick_34">
     <g id="line2d_43"/>
    </g>
    <g id="xtick_35">
     <g id="line2d_44"/>
    </g>
    <g id="xtick_36">
     <g id="line2d_45"/>
    </g>
    <g id="xtick_37">
     <g id="line2d_46"/>
    </g>
    <g id="xtick_38">
     <g id="line2d_47"/>
    </g>
    <g id="xtick_39">
     <g id="line2d_48"/>
    </g>
    <g id="xtick_40">
     <g id="line2d_49"/>
    </g>
    <g id="xtick_41">
     <g id="line2d_50"/>
    </g>
    <g id="xtick_42">
     <g id="line2d_51"/>
    </g>
    <g id="xtick_43">
     <g id="line2d_52"/>
    </g>
    <g id="xtick_44">
     <g id="line2d_53"/>
    </g>
    <g id="xtick_45">
     <g id="line2d_54"/>
    </g>
    <g id="xtick_46">
     <g id="line2d_55"/>
    </g>
    <g id="xtick_47">
     <g id="line2d_56"/>
    </g>
    <g id="text_10">
     <!-- date -->
     <g transform="translate(647.704562 624.21475)scale(0.168 -0.168)">
      <defs>
       <path id="DejaVuSans-64" d="M 2906 2969 
L 2906 4863 
L 3481 4863 
L 3481 0 
L 2906 0 
L 2906 525 
Q 2725 213 2448 61 
Q 2172 -91 1784 -91 
Q 1150 -91 751 415 
Q 353 922 353 1747 
Q 353 2572 751 3078 
Q 1150 3584 1784 3584 
Q 2172 3584 2448 3432 
Q 2725 3281 2906 2969 
z
M 947 1747 
Q 947 1113 1208 752 
Q 1469 391 1925 391 
Q 2381 391 2643 752 
Q 2906 1113 2906 1747 
Q 2906 2381 2643 2742 
Q 2381 3103 1925 3103 
Q 1469 3103 1208 2742 
Q 947 2381 947 1747 
z
" transform="scale(0.015625)"/>
       <path id="DejaVuSans-61" d="M 2194 1759 
Q 1497 1759 1228 1600 
Q 959 1441 959 1056 
Q 959 750 1161 570 
Q 1363 391 1709 391 
Q 2188 391 2477 730 
Q 2766 1069 2766 1631 
L 2766 1759 
L 2194 1759 
z
M 3341 1997 
L 3341 0 
L 2766 0 
L 2766 531 
Q 2569 213 2275 61 
Q 1981 -91 1556 -91 
Q 1019 -91 701 211 
Q 384 513 384 1019 
Q 384 1609 779 1909 
Q 1175 2209 1959 2209 
L 2766 2209 
L 2766 2266 
Q 2766 2663 2505 2880 
Q 2244 3097 1772 3097 
Q 1472 3097 1187 3025 
Q 903 2953 641 2809 
L 641 3341 
Q 956 3463 1253 3523 
Q 1550 3584 1831 3584 
Q 2591 3584 2966 3190 
Q 3341 2797 3341 1997 
z
" transform="scale(0.015625)"/>
       <path id="DejaVuSans-74" d="M 1172 4494 
L 1172 3500 
L 2356 3500 
L 2356 3053 
L 1172 3053 
L 1172 1153 
Q 1172 725 1289 603 
Q 1406 481 1766 481 
L 2356 481 
L 2356 0 
L 1766 0 
Q 1100 0 847 248 
Q 594 497 594 1153 
L 594 3053 
L 172 3053 
L 172 3500 
L 594 3500 
L 594 4494 
L 1172 4494 
z
" transform="scale(0.015625)"/>
       <path id="DejaVuSans-65" d="M 3597 1894 
L 3597 1613 
L 953 1613 
Q 991 1019 1311 708 
Q 1631 397 2203 397 
Q 2534 397 2845 478 
Q 3156 559 3463 722 
L 3463 178 
Q 3153 47 2828 -22 
Q 2503 -91 2169 -91 
Q 1331 -91 842 396 
Q 353 884 353 1716 
Q 353 2575 817 3079 
Q 1281 3584 2069 3584 
Q 2775 3584 3186 3129 
Q 3597 2675 3597 1894 
z
M 3022 2063 
Q 3016 2534 2758 2815 
Q 2500 3097 2075 3097 
Q 1594 3097 1305 2825 
Q 1016 2553 972 2059 
L 3022 2063 
z
" transform="scale(0.015625)"/>
      </defs>
      <use xlink:href="#DejaVuSans-64"/>
      <use xlink:href="#DejaVuSans-61" x="63.476562"/>
      <use xlink:href="#DejaVuSans-74" x="124.755859"/>
      <use xlink:href="#DejaVuSans-65" x="163.964844"/>
     </g>
    </g>
   </g>
   <g id="matplotlib.axis_2">
    <g id="ytick_1">
     <g id="line2d_57">
      <path d="M 40.246563 524.915365 
L 1293.046562 524.915365 
" clip-path="url(#pd02ca18534)" style="fill: none; stroke: #cbcbcb"/>
     </g>
     <g id="line2d_58"/>
     <g id="text_11">
      <!-- −60 -->
      <g transform="translate(7.2 530.234271)scale(0.14 -0.14)">
       <defs>
        <path id="DejaVuSans-2212" d="M 678 2272 
L 4684 2272 
L 4684 1741 
L 678 1741 
L 678 2272 
z
" transform="scale(0.015625)"/>
        <path id="DejaVuSans-36" d="M 2113 2584 
Q 1688 2584 1439 2293 
Q 1191 2003 1191 1497 
Q 1191 994 1439 701 
Q 1688 409 2113 409 
Q 2538 409 2786 701 
Q 3034 994 3034 1497 
Q 3034 2003 2786 2293 
Q 2538 2584 2113 2584 
z
M 3366 4563 
L 3366 3988 
Q 3128 4100 2886 4159 
Q 2644 4219 2406 4219 
Q 1781 4219 1451 3797 
Q 1122 3375 1075 2522 
Q 1259 2794 1537 2939 
Q 1816 3084 2150 3084 
Q 2853 3084 3261 2657 
Q 3669 2231 3669 1497 
Q 3669 778 3244 343 
Q 2819 -91 2113 -91 
Q 1303 -91 875 529 
Q 447 1150 447 2328 
Q 447 3434 972 4092 
Q 1497 4750 2381 4750 
Q 2619 4750 2861 4703 
Q 3103 4656 3366 4563 
z
" transform="scale(0.015625)"/>
       </defs>
       <use xlink:href="#DejaVuSans-2212"/>
       <use xlink:href="#DejaVuSans-36" x="83.789062"/>
       <use xlink:href="#DejaVuSans-30" x="147.412109"/>
      </g>
     </g>
    </g>
    <g id="ytick_2">
     <g id="line2d_59">
      <path d="M 40.246563 436.216319 
L 1293.046562 436.216319 
" clip-path="url(#pd02ca18534)" style="fill: none; stroke: #cbcbcb"/>
     </g>
     <g id="line2d_60"/>
     <g id="text_12">
      <!-- −40 -->
      <g transform="translate(7.2 441.535226)scale(0.14 -0.14)">
       <use xlink:href="#DejaVuSans-2212"/>
       <use xlink:href="#DejaVuSans-34" x="83.789062"/>
       <use xlink:href="#DejaVuSans-30" x="147.412109"/>
      </g>
     </g>
    </g>
    <g id="ytick_3">
     <g id="line2d_61">
      <path d="M 40.246563 347.517274 
L 1293.046562 347.517274 
" clip-path="url(#pd02ca18534)" style="fill: none; stroke: #cbcbcb"/>
     </g>
     <g id="line2d_62"/>
     <g id="text_13">
      <!-- −20 -->
      <g transform="translate(7.2 352.836181)scale(0.14 -0.14)">
       <use xlink:href="#DejaVuSans-2212"/>
       <use xlink:href="#DejaVuSans-32" x="83.789062"/>
       <use xlink:href="#DejaVuSans-30" x="147.412109"/>
      </g>
     </g>
    </g>
    <g id="ytick_4">
     <g id="line2d_63">
      <path d="M 40.246563 258.818229 
L 1293.046562 258.818229 
" clip-path="url(#pd02ca18534)" style="fill: none; stroke: #cbcbcb"/>
     </g>
     <g id="line2d_64"/>
     <g id="text_14">
      <!-- 0 -->
      <g transform="translate(27.839063 264.137135)scale(0.14 -0.14)">
       <use xlink:href="#DejaVuSans-30"/>
      </g>
     </g>
    </g>
    <g id="ytick_5">
     <g id="line2d_65">
      <path d="M 40.246563 170.119184 
L 1293.046562 170.119184 
" clip-path="url(#pd02ca18534)" style="fill: none; stroke: #cbcbcb"/>
     </g>
     <g id="line2d_66"/>
     <g id="text_15">
      <!-- 20 -->
      <g transform="translate(18.931563 175.43809)scale(0.14 -0.14)">
       <use xlink:href="#DejaVuSans-32"/>
       <use xlink:href="#DejaVuSans-30" x="63.623047"/>
      </g>
     </g>
    </g>
    <g id="ytick_6">
     <g id="line2d_67">
      <path d="M 40.246563 81.420139 
L 1293.046562 81.420139 
" clip-path="url(#pd02ca18534)" style="fill: none; stroke: #cbcbcb"/>
     </g>
     <g id="line2d_68"/>
     <g id="text_16">
      <!-- 40 -->
      <g transform="translate(18.931563 86.739045)scale(0.14 -0.14)">
       <use xlink:href="#DejaVuSans-34"/>
       <use xlink:href="#DejaVuSans-30" x="63.623047"/>
      </g>
     </g>
    </g>
   </g>
   <g id="line2d_69">
    <path d="M 40.246563 237.484727 
L 46.982046 226.496331 
L 53.71753 226.491804 
L 60.453014 254.448783 
L 67.188498 242.596191 
L 73.923982 231.980817 
L 80.659466 260.795474 
L 87.39495 265.607573 
L 94.130433 278.148387 
L 100.865917 281.23481 
L 107.601401 233.051338 
L 114.336885 187.660675 
L 121.072369 282.540206 
L 127.807853 221.449169 
L 134.543337 246.583102 
L 141.278821 209.384345 
L 148.014304 270.054245 
L 154.749788 288.056293 
L 161.485272 256.524566 
L 168.220756 208.510812 
L 174.95624 283.104874 
L 181.691724 151.00629 
L 188.427208 337.12246 
L 195.162692 255.943979 
L 201.898175 271.901633 
L 208.633659 265.357822 
L 215.369143 259.117787 
L 222.104627 274.680822 
L 228.840111 299.44486 
L 235.575595 218.502278 
L 242.311079 223.582723 
L 249.046562 229.120563 
L 255.782046 245.855024 
L 262.51753 289.025321 
L 269.253014 237.56562 
L 275.988498 248.302141 
L 282.723982 224.340097 
L 289.459466 282.262934 
L 296.19495 267.002918 
L 302.930433 240.858455 
L 309.665917 232.82192 
L 316.401401 222.259901 
L 323.136885 233.504629 
L 329.872369 218.234035 
L 336.607853 284.014923 
L 343.343337 254.907311 
L 350.078821 187.901758 
L 356.814304 224.201181 
L 363.549788 273.641789 
L 370.285272 249.087937 
L 377.020756 258.663025 
L 383.75624 301.289615 
L 390.491724 257.283937 
L 397.227208 303.921902 
L 403.962692 257.877225 
L 410.698175 222.380658 
L 417.433659 197.309071 
L 424.169143 239.353214 
L 430.904627 229.916262 
L 437.640111 271.57071 
L 444.375595 341.796558 
L 451.111079 206.358423 
L 457.846563 363.367504 
L 464.582046 208.409305 
L 471.31753 232.823784 
L 478.053014 244.291466 
L 484.788498 303.568873 
L 491.523982 280.235506 
L 498.259466 203.5399 
L 504.99495 389.776458 
L 511.730433 204.143676 
L 518.465917 185.061598 
L 525.201401 263.115543 
L 531.936885 233.637596 
L 538.672369 242.646182 
L 545.407853 259.693261 
L 552.143337 214.403888 
L 558.878821 294.988659 
L 565.614304 269.844521 
L 572.349788 234.661882 
L 579.085272 246.065749 
L 585.820756 236.157768 
L 592.55624 272.911055 
L 599.291724 259.614451 
L 606.027208 230.021408 
L 612.762692 260.189544 
L 619.498175 259.442958 
L 626.233659 208.517311 
L 632.969143 226.741765 
L 639.704627 234.571961 
L 646.440111 285.14615 
L 653.175595 284.923194 
L 659.911079 247.133695 
L 666.646562 289.493227 
L 673.382046 312.00829 
L 680.11753 266.96563 
L 686.853014 281.81792 
L 693.588498 235.951183 
L 700.323982 269.560389 
L 707.059466 230.773724 
L 713.79495 213.958049 
L 720.530433 305.852724 
L 727.265917 259.331385 
L 734.001401 271.711819 
L 740.736885 247.46768 
L 747.472369 262.180017 
L 754.207853 244.012409 
L 760.943337 273.624049 
L 767.678821 256.100963 
L 774.414304 231.430966 
L 781.149788 290.873907 
L 787.885272 234.71619 
L 794.620756 172.987036 
L 801.35624 280.181815 
L 808.091724 272.698919 
L 814.827208 299.394645 
L 821.562692 250.44789 
L 828.298175 363.024214 
L 835.033659 302.558604 
L 841.769143 248.359493 
L 848.504627 204.326677 
L 855.240111 253.141413 
L 861.975595 247.403095 
L 868.711079 317.195338 
L 875.446562 200.166341 
L 882.182046 289.376998 
L 888.91753 74.021465 
L 895.653014 510.511069 
L 902.388498 33.709091 
L 909.123982 254.921599 
L 915.859466 324.029653 
L 922.59495 251.778475 
L 929.330433 256.61207 
L 936.065917 227.73402 
L 942.801401 231.391901 
L 949.536885 289.387237 
L 956.272369 271.952431 
L 963.007853 221.968848 
L 969.743337 298.702566 
L 976.478821 231.162531 
L 983.214304 446.336492 
L 989.949788 339.871101 
L 996.685272 293.750806 
L 1003.420756 168.467782 
L 1010.15624 92.922031 
L 1016.891724 313.581488 
L 1023.627208 305.619222 
L 1030.362692 232.071029 
L 1037.098175 229.524619 
L 1043.833659 290.911693 
L 1050.569143 298.762716 
L 1057.304627 248.489791 
L 1064.040111 126.49129 
L 1070.775595 52.859532 
L 1077.511079 403.098424 
L 1084.246562 97.774447 
L 1090.982046 254.724501 
L 1097.71753 187.457213 
L 1104.453014 367.440409 
L 1111.188498 255.056094 
L 1117.923982 283.405562 
L 1124.659466 207.123854 
L 1131.39495 260.379714 
L 1138.130433 273.335423 
L 1144.865917 195.227214 
L 1151.601401 276.899757 
L 1158.336885 246.744054 
L 1165.072369 274.13867 
L 1171.807853 180.650843 
L 1178.543337 219.038938 
L 1185.278821 272.341382 
L 1192.014304 129.997486 
L 1198.749788 563.890909 
L 1205.485272 224.152526 
L 1212.220756 243.322476 
L 1218.95624 308.829476 
L 1225.691724 198.856777 
L 1232.427208 222.256271 
L 1239.162692 247.899587 
L 1245.898175 265.528535 
L 1252.633659 262.181698 
L 1259.369143 236.537394 
L 1266.104627 244.710958 
L 1272.840111 243.37224 
L 1279.575595 248.899307 
L 1286.311079 270.887956 
L 1293.046562 261.358827 
L 1293.046562 261.358827 
" clip-path="url(#pd02ca18534)" style="fill: none; stroke: #008fd5; stroke-width: 4"/>
   </g>
   <g id="patch_3">
    <path d="M 40.246563 590.4 
L 40.246563 7.2 
" style="fill: none; stroke: #f0f0f0; stroke-width: 3; stroke-linejoin: miter; stroke-linecap: square"/>
   </g>
   <g id="patch_4">
    <path d="M 1293.046562 590.4 
L 1293.046562 7.2 
" style="fill: none; stroke: #f0f0f0; stroke-width: 3; stroke-linejoin: miter; stroke-linecap: square"/>
   </g>
   <g id="patch_5">
    <path d="M 40.246563 590.4 
L 1293.046562 590.4 
" style="fill: none; stroke: #f0f0f0; stroke-width: 3; stroke-linejoin: miter; stroke-linecap: square"/>
   </g>
   <g id="patch_6">
    <path d="M 40.246563 7.2 
L 1293.046562 7.2 
" style="fill: none; stroke: #f0f0f0; stroke-width: 3; stroke-linejoin: miter; stroke-linecap: square"/>
   </g>
   <g id="legend_1">
    <g id="patch_7">
     <path d="M 1175.232187 39.33875 
L 1283.246562 39.33875 
Q 1286.046562 39.33875 1286.046562 36.53875 
L 1286.046562 17 
Q 1286.046562 14.2 1283.246562 14.2 
L 1175.232187 14.2 
Q 1172.432187 14.2 1172.432187 17 
L 1172.432187 36.53875 
Q 1172.432187 39.33875 1175.232187 39.33875 
z
" style="fill: #f0f0f0; opacity: 0.8; stroke: #cccccc; stroke-width: 0.5; stroke-linejoin: miter"/>
    </g>
    <g id="line2d_70">
     <path d="M 1178.032187 25.537812 
L 1192.032187 25.537812 
L 1206.032187 25.537812 
" style="fill: none; stroke: #008fd5; stroke-width: 4"/>
    </g>
    <g id="text_17">
     <!-- delta_val -->
     <g transform="translate(1217.232187 30.437812)scale(0.14 -0.14)">
      <defs>
       <path id="DejaVuSans-6c" d="M 603 4863 
L 1178 4863 
L 1178 0 
L 603 0 
L 603 4863 
z
" transform="scale(0.015625)"/>
       <path id="DejaVuSans-5f" d="M 3263 -1063 
L 3263 -1509 
L -63 -1509 
L -63 -1063 
L 3263 -1063 
z
" transform="scale(0.015625)"/>
       <path id="DejaVuSans-76" d="M 191 3500 
L 800 3500 
L 1894 563 
L 2988 3500 
L 3597 3500 
L 2284 0 
L 1503 0 
L 191 3500 
z
" transform="scale(0.015625)"/>
      </defs>
      <use xlink:href="#DejaVuSans-64"/>
      <use xlink:href="#DejaVuSans-65" x="63.476562"/>
      <use xlink:href="#DejaVuSans-6c" x="125"/>
      <use xlink:href="#DejaVuSans-74" x="152.783203"/>
      <use xlink:href="#DejaVuSans-61" x="191.992188"/>
      <use xlink:href="#DejaVuSans-5f" x="253.271484"/>
      <use xlink:href="#DejaVuSans-76" x="303.271484"/>
      <use xlink:href="#DejaVuSans-61" x="362.451172"/>
      <use xlink:href="#DejaVuSans-6c" x="423.730469"/>
     </g>
    </g>
   </g>
  </g>
 </g>
 <defs>
  <clipPath id="pd02ca18534">
   <rect x="40.246563" y="7.2" width="1252.8" height="583.2"/>
  </clipPath>
 </defs>
</svg>
