<?xml version="1.0" encoding="utf-8" standalone="no"?>
<!DOCTYPE svg PUBLIC "-//W3C//DTD SVG 1.1//EN"
  "http://www.w3.org/Graphics/SVG/1.1/DTD/svg11.dtd">
<svg xmlns:xlink="http://www.w3.org/1999/xlink" width="1422.9105pt" height="704.467125pt" viewBox="0 0 1422.9105 704.467125" xmlns="http://www.w3.org/2000/svg" version="1.1">
 <metadata>
  <rdf:RDF xmlns:dc="http://purl.org/dc/elements/1.1/" xmlns:cc="http://creativecommons.org/ns#" xmlns:rdf="http://www.w3.org/1999/02/22-rdf-syntax-ns#">
   <cc:Work>
    <dc:type rdf:resource="http://purl.org/dc/dcmitype/StillImage"/>
    <dc:date>2022-02-25T23:31:23.003602</dc:date>
    <dc:format>image/svg+xml</dc:format>
    <dc:creator>
     <cc:Agent>
      <dc:title>Matplotlib v3.5.1, https://matplotlib.org/</dc:title>
     </cc:Agent>
    </dc:creator>
   </cc:Work>
  </rdf:RDF>
 </metadata>
 <defs>
  <style type="text/css">*{stroke-linejoin: round; stroke-linecap: butt}</style>
 </defs>
 <g id="figure_1">
  <g id="patch_1">
   <path d="M 0 704.467125 
L 1422.9105 704.467125 
L 1422.9105 0 
L 0 0 
z
" style="fill: #f0f0f0"/>
  </g>
  <g id="axes_1">
   <g id="patch_2">
    <path d="M 66.58925 164.649668 
L 1402.34925 164.649668 
L 1402.34925 27.95775 
L 66.58925 27.95775 
z
" style="fill: #f0f0f0"/>
   </g>
   <g id="matplotlib.axis_1">
    <g id="xtick_1">
     <g id="line2d_1">
      <path d="M 66.58925 164.649668 
L 66.58925 27.95775 
" clip-path="url(#p78fb753f12)" style="fill: none; stroke: #cbcbcb"/>
     </g>
     <g id="line2d_2"/>
     <g id="text_1">
      <!-- 0 -->
      <g transform="translate(62.1355 178.787481)scale(0.14 -0.14)">
       <defs>
        <path id="DejaVuSans-30" d="M 2034 4250 
Q 1547 4250 1301 3770 
Q 1056 3291 1056 2328 
Q 1056 1369 1301 889 
Q 1547 409 2034 409 
Q 2525 409 2770 889 
Q 3016 1369 3016 2328 
Q 3016 3291 2770 3770 
Q 2525 4250 2034 4250 
z
M 2034 4750 
Q 2819 4750 3233 4129 
Q 3647 3509 3647 2328 
Q 3647 1150 3233 529 
Q 2819 -91 2034 -91 
Q 1250 -91 836 529 
Q 422 1150 422 2328 
Q 422 3509 836 4129 
Q 1250 4750 2034 4750 
z
" transform="scale(0.015625)"/>
       </defs>
       <use xlink:href="#DejaVuSans-30"/>
      </g>
     </g>
    </g>
    <g id="xtick_2">
     <g id="line2d_3">
      <path d="M 257.412107 164.649668 
L 257.412107 27.95775 
" clip-path="url(#p78fb753f12)" style="fill: none; stroke: #cbcbcb"/>
     </g>
     <g id="line2d_4"/>
     <g id="text_2">
      <!-- 20 -->
      <g transform="translate(248.504607 178.787481)scale(0.14 -0.14)">
       <defs>
        <path id="DejaVuSans-32" d="M 1228 531 
L 3431 531 
L 3431 0 
L 469 0 
L 469 531 
Q 828 903 1448 1529 
Q 2069 2156 2228 2338 
Q 2531 2678 2651 2914 
Q 2772 3150 2772 3378 
Q 2772 3750 2511 3984 
Q 2250 4219 1831 4219 
Q 1534 4219 1204 4116 
Q 875 4013 500 3803 
L 500 4441 
Q 881 4594 1212 4672 
Q 1544 4750 1819 4750 
Q 2544 4750 2975 4387 
Q 3406 4025 3406 3419 
Q 3406 3131 3298 2873 
Q 3191 2616 2906 2266 
Q 2828 2175 2409 1742 
Q 1991 1309 1228 531 
z
" transform="scale(0.015625)"/>
       </defs>
       <use xlink:href="#DejaVuSans-32"/>
       <use xlink:href="#DejaVuSans-30" x="63.623047"/>
      </g>
     </g>
    </g>
    <g id="xtick_3">
     <g id="line2d_5">
      <path d="M 448.234964 164.649668 
L 448.234964 27.95775 
" clip-path="url(#p78fb753f12)" style="fill: none; stroke: #cbcbcb"/>
     </g>
     <g id="line2d_6"/>
     <g id="text_3">
      <!-- 40 -->
      <g transform="translate(439.327464 178.787481)scale(0.14 -0.14)">
       <defs>
        <path id="DejaVuSans-34" d="M 2419 4116 
L 825 1625 
L 2419 1625 
L 2419 4116 
z
M 2253 4666 
L 3047 4666 
L 3047 1625 
L 3713 1625 
L 3713 1100 
L 3047 1100 
L 3047 0 
L 2419 0 
L 2419 1100 
L 313 1100 
L 313 1709 
L 2253 4666 
z
" transform="scale(0.015625)"/>
       </defs>
       <use xlink:href="#DejaVuSans-34"/>
       <use xlink:href="#DejaVuSans-30" x="63.623047"/>
      </g>
     </g>
    </g>
    <g id="xtick_4">
     <g id="line2d_7">
      <path d="M 639.057821 164.649668 
L 639.057821 27.95775 
" clip-path="url(#p78fb753f12)" style="fill: none; stroke: #cbcbcb"/>
     </g>
     <g id="line2d_8"/>
     <g id="text_4">
      <!-- 60 -->
      <g transform="translate(630.150321 178.787481)scale(0.14 -0.14)">
       <defs>
        <path id="DejaVuSans-36" d="M 2113 2584 
Q 1688 2584 1439 2293 
Q 1191 2003 1191 1497 
Q 1191 994 1439 701 
Q 1688 409 2113 409 
Q 2538 409 2786 701 
Q 3034 994 3034 1497 
Q 3034 2003 2786 2293 
Q 2538 2584 2113 2584 
z
M 3366 4563 
L 3366 3988 
Q 3128 4100 2886 4159 
Q 2644 4219 2406 4219 
Q 1781 4219 1451 3797 
Q 1122 3375 1075 2522 
Q 1259 2794 1537 2939 
Q 1816 3084 2150 3084 
Q 2853 3084 3261 2657 
Q 3669 2231 3669 1497 
Q 3669 778 3244 343 
Q 2819 -91 2113 -91 
Q 1303 -91 875 529 
Q 447 1150 447 2328 
Q 447 3434 972 4092 
Q 1497 4750 2381 4750 
Q 2619 4750 2861 4703 
Q 3103 4656 3366 4563 
z
" transform="scale(0.015625)"/>
       </defs>
       <use xlink:href="#DejaVuSans-36"/>
       <use xlink:href="#DejaVuSans-30" x="63.623047"/>
      </g>
     </g>
    </g>
    <g id="xtick_5">
     <g id="line2d_9">
      <path d="M 829.880679 164.649668 
L 829.880679 27.95775 
" clip-path="url(#p78fb753f12)" style="fill: none; stroke: #cbcbcb"/>
     </g>
     <g id="line2d_10"/>
     <g id="text_5">
      <!-- 80 -->
      <g transform="translate(820.973179 178.787481)scale(0.14 -0.14)">
       <defs>
        <path id="DejaVuSans-38" d="M 2034 2216 
Q 1584 2216 1326 1975 
Q 1069 1734 1069 1313 
Q 1069 891 1326 650 
Q 1584 409 2034 409 
Q 2484 409 2743 651 
Q 3003 894 3003 1313 
Q 3003 1734 2745 1975 
Q 2488 2216 2034 2216 
z
M 1403 2484 
Q 997 2584 770 2862 
Q 544 3141 544 3541 
Q 544 4100 942 4425 
Q 1341 4750 2034 4750 
Q 2731 4750 3128 4425 
Q 3525 4100 3525 3541 
Q 3525 3141 3298 2862 
Q 3072 2584 2669 2484 
Q 3125 2378 3379 2068 
Q 3634 1759 3634 1313 
Q 3634 634 3220 271 
Q 2806 -91 2034 -91 
Q 1263 -91 848 271 
Q 434 634 434 1313 
Q 434 1759 690 2068 
Q 947 2378 1403 2484 
z
M 1172 3481 
Q 1172 3119 1398 2916 
Q 1625 2713 2034 2713 
Q 2441 2713 2670 2916 
Q 2900 3119 2900 3481 
Q 2900 3844 2670 4047 
Q 2441 4250 2034 4250 
Q 1625 4250 1398 4047 
Q 1172 3844 1172 3481 
z
" transform="scale(0.015625)"/>
       </defs>
       <use xlink:href="#DejaVuSans-38"/>
       <use xlink:href="#DejaVuSans-30" x="63.623047"/>
      </g>
     </g>
    </g>
    <g id="xtick_6">
     <g id="line2d_11">
      <path d="M 1020.703536 164.649668 
L 1020.703536 27.95775 
" clip-path="url(#p78fb753f12)" style="fill: none; stroke: #cbcbcb"/>
     </g>
     <g id="line2d_12"/>
     <g id="text_6">
      <!-- 100 -->
      <g transform="translate(1007.342286 178.787481)scale(0.14 -0.14)">
       <defs>
        <path id="DejaVuSans-31" d="M 794 531 
L 1825 531 
L 1825 4091 
L 703 3866 
L 703 4441 
L 1819 4666 
L 2450 4666 
L 2450 531 
L 3481 531 
L 3481 0 
L 794 0 
L 794 531 
z
" transform="scale(0.015625)"/>
       </defs>
       <use xlink:href="#DejaVuSans-31"/>
       <use xlink:href="#DejaVuSans-30" x="63.623047"/>
       <use xlink:href="#DejaVuSans-30" x="127.246094"/>
      </g>
     </g>
    </g>
    <g id="xtick_7">
     <g id="line2d_13">
      <path d="M 1211.526393 164.649668 
L 1211.526393 27.95775 
" clip-path="url(#p78fb753f12)" style="fill: none; stroke: #cbcbcb"/>
     </g>
     <g id="line2d_14"/>
     <g id="text_7">
      <!-- 120 -->
      <g transform="translate(1198.165143 178.787481)scale(0.14 -0.14)">
       <use xlink:href="#DejaVuSans-31"/>
       <use xlink:href="#DejaVuSans-32" x="63.623047"/>
       <use xlink:href="#DejaVuSans-30" x="127.246094"/>
      </g>
     </g>
    </g>
    <g id="xtick_8">
     <g id="line2d_15">
      <path d="M 1402.34925 164.649668 
L 1402.34925 27.95775 
" clip-path="url(#p78fb753f12)" style="fill: none; stroke: #cbcbcb"/>
     </g>
     <g id="line2d_16"/>
     <g id="text_8">
      <!-- 140 -->
      <g transform="translate(1388.988 178.787481)scale(0.14 -0.14)">
       <use xlink:href="#DejaVuSans-31"/>
       <use xlink:href="#DejaVuSans-34" x="63.623047"/>
       <use xlink:href="#DejaVuSans-30" x="127.246094"/>
      </g>
     </g>
    </g>
   </g>
   <g id="matplotlib.axis_2">
    <g id="ytick_1">
     <g id="line2d_17">
      <path d="M 66.58925 158.743901 
L 1402.34925 158.743901 
" clip-path="url(#p78fb753f12)" style="fill: none; stroke: #cbcbcb"/>
     </g>
     <g id="line2d_18"/>
     <g id="text_9">
      <!-- 0 -->
      <g transform="translate(54.18175 164.062807)scale(0.14 -0.14)">
       <use xlink:href="#DejaVuSans-30"/>
      </g>
     </g>
    </g>
    <g id="ytick_2">
     <g id="line2d_19">
      <path d="M 66.58925 117.879901 
L 1402.34925 117.879901 
" clip-path="url(#p78fb753f12)" style="fill: none; stroke: #cbcbcb"/>
     </g>
     <g id="line2d_20"/>
     <g id="text_10">
      <!-- 1000 -->
      <g transform="translate(27.45925 123.198807)scale(0.14 -0.14)">
       <use xlink:href="#DejaVuSans-31"/>
       <use xlink:href="#DejaVuSans-30" x="63.623047"/>
       <use xlink:href="#DejaVuSans-30" x="127.246094"/>
       <use xlink:href="#DejaVuSans-30" x="190.869141"/>
      </g>
     </g>
    </g>
    <g id="ytick_3">
     <g id="line2d_21">
      <path d="M 66.58925 77.015901 
L 1402.34925 77.015901 
" clip-path="url(#p78fb753f12)" style="fill: none; stroke: #cbcbcb"/>
     </g>
     <g id="line2d_22"/>
     <g id="text_11">
      <!-- 2000 -->
      <g transform="translate(27.45925 82.334808)scale(0.14 -0.14)">
       <use xlink:href="#DejaVuSans-32"/>
       <use xlink:href="#DejaVuSans-30" x="63.623047"/>
       <use xlink:href="#DejaVuSans-30" x="127.246094"/>
       <use xlink:href="#DejaVuSans-30" x="190.869141"/>
      </g>
     </g>
    </g>
    <g id="ytick_4">
     <g id="line2d_23">
      <path d="M 66.58925 36.151901 
L 1402.34925 36.151901 
" clip-path="url(#p78fb753f12)" style="fill: none; stroke: #cbcbcb"/>
     </g>
     <g id="line2d_24"/>
     <g id="text_12">
      <!-- 3000 -->
      <g transform="translate(27.45925 41.470808)scale(0.14 -0.14)">
       <defs>
        <path id="DejaVuSans-33" d="M 2597 2516 
Q 3050 2419 3304 2112 
Q 3559 1806 3559 1356 
Q 3559 666 3084 287 
Q 2609 -91 1734 -91 
Q 1441 -91 1130 -33 
Q 819 25 488 141 
L 488 750 
Q 750 597 1062 519 
Q 1375 441 1716 441 
Q 2309 441 2620 675 
Q 2931 909 2931 1356 
Q 2931 1769 2642 2001 
Q 2353 2234 1838 2234 
L 1294 2234 
L 1294 2753 
L 1863 2753 
Q 2328 2753 2575 2939 
Q 2822 3125 2822 3475 
Q 2822 3834 2567 4026 
Q 2313 4219 1838 4219 
Q 1578 4219 1281 4162 
Q 984 4106 628 3988 
L 628 4550 
Q 988 4650 1302 4700 
Q 1616 4750 1894 4750 
Q 2613 4750 3031 4423 
Q 3450 4097 3450 3541 
Q 3450 3153 3228 2886 
Q 3006 2619 2597 2516 
z
" transform="scale(0.015625)"/>
       </defs>
       <use xlink:href="#DejaVuSans-33"/>
       <use xlink:href="#DejaVuSans-30" x="63.623047"/>
       <use xlink:href="#DejaVuSans-30" x="127.246094"/>
       <use xlink:href="#DejaVuSans-30" x="190.869141"/>
      </g>
     </g>
    </g>
   </g>
   <g id="line2d_25">
    <path d="M 66.58925 150.034421 
L 76.130393 154.278147 
L 85.671536 154.949338 
L 95.212679 157.836039 
L 104.753821 157.259176 
L 114.294964 140.487909 
L 123.836107 130.977154 
L 133.37725 119.186528 
L 142.918393 111.794911 
L 152.459536 116.485417 
L 162.000679 125.635548 
L 171.541821 143.239759 
L 181.082964 151.500417 
L 190.624107 155.150934 
L 200.16525 155.609973 
L 209.706393 154.7079 
L 219.247536 135.596829 
L 228.788679 109.24636 
L 238.329821 99.056921 
L 247.870964 106.374983 
L 257.412107 118.965521 
L 266.95325 136.375288 
L 276.494393 137.835836 
L 286.035536 143.433863 
L 295.576679 154.249542 
L 305.117821 155.707365 
L 314.658964 157.605498 
L 324.200107 156.313515 
L 333.74125 144.907351 
L 343.282393 138.795118 
L 352.823536 109.875325 
L 362.364679 127.074982 
L 371.905821 114.115986 
L 381.446964 130.241942 
L 390.988107 130.485424 
L 400.52925 147.873737 
L 410.070393 156.111919 
L 429.152679 158.436399 
L 438.693821 152.516909 
L 448.234964 130.230364 
L 457.776107 129.098772 
L 467.31725 96.06159 
L 476.858393 113.279977 
L 486.399536 115.645321 
L 495.940679 133.520257 
L 505.481821 141.596686 
L 515.022964 148.447876 
L 524.564107 156.510343 
L 534.10525 147.383369 
L 543.646393 125.028036 
L 553.187536 107.12654 
L 562.728679 115.39537 
L 572.269821 101.987211 
L 581.810964 108.116811 
L 591.352107 137.633218 
L 600.89325 147.340121 
L 610.434393 152.076939 
L 619.975536 155.015061 
L 629.516679 153.912755 
L 639.057821 133.323428 
L 648.598964 112.124547 
L 658.140107 74.042024 
L 667.68125 76.393406 
L 677.222393 94.308184 
L 686.763536 116.361123 
L 696.304679 131.850281 
L 705.845821 141.281352 
L 715.386964 146.616828 
L 724.928107 153.650203 
L 734.46925 141.315405 
L 744.010393 84.212052 
L 753.551536 51.106082 
L 763.092679 78.053847 
L 772.633821 71.295282 
L 782.174964 108.589811 
L 791.716107 112.352705 
L 801.25725 142.281839 
L 810.798393 152.814535 
L 820.339536 157.328304 
L 829.880679 136.172671 
L 839.421821 60.887221 
L 848.962964 34.171019 
L 858.504107 35.6915 
L 868.04525 41.344013 
L 877.586393 91.677223 
L 887.127536 133.673837 
L 896.668679 139.802756 
L 906.209821 146.98188 
L 915.750964 156.540991 
L 925.292107 154.113669 
L 934.83325 134.529597 
L 944.374393 96.665696 
L 953.915536 94.597297 
L 963.456679 99.485653 
L 972.997821 93.310081 
L 982.538964 118.280368 
L 992.080107 121.283872 
L 1001.62125 140.046578 
L 1011.162393 142.444954 
L 1020.703536 151.943791 
L 1030.244679 151.806215 
L 1039.785821 144.56239 
L 1049.326964 102.820836 
L 1058.868107 69.066832 
L 1068.40925 70.448375 
L 1077.950393 65.972746 
L 1087.491536 65.43913 
L 1097.032679 120.168285 
L 1106.573821 125.590257 
L 1116.114964 151.382251 
L 1125.656107 153.64816 
L 1135.19725 146.614785 
L 1144.738393 103.770924 
L 1154.279536 53.346451 
L 1163.820679 75.026506 
L 1173.361821 57.80233 
L 1182.902964 103.609852 
L 1192.444107 130.294384 
L 1201.98525 144.834136 
L 1211.526393 152.220645 
L 1221.067536 155.397139 
L 1230.608679 150.152586 
L 1240.149821 127.561604 
L 1249.690964 111.259593 
L 1259.232107 92.780551 
L 1268.77325 89.107899 
L 1278.314393 84.014542 
L 1287.855536 113.82449 
L 1297.396679 130.80212 
L 1306.937821 136.572116 
L 1316.478964 148.727794 
L 1335.56125 157.811861 
L 1345.102393 157.658621 
L 1354.643536 149.987086 
L 1364.184679 128.113609 
L 1373.725821 126.180061 
L 1383.266964 123.569192 
L 1392.808107 107.576044 
L 1402.34925 133.456917 
L 1402.34925 133.456917 
" clip-path="url(#p78fb753f12)" style="fill: none; stroke: #008fd5; stroke-width: 4"/>
   </g>
   <g id="patch_3">
    <path d="M 66.58925 164.649668 
L 66.58925 27.95775 
" style="fill: none; stroke: #f0f0f0; stroke-width: 3; stroke-linejoin: miter; stroke-linecap: square"/>
   </g>
   <g id="patch_4">
    <path d="M 1402.34925 164.649668 
L 1402.34925 27.95775 
" style="fill: none; stroke: #f0f0f0; stroke-width: 3; stroke-linejoin: miter; stroke-linecap: square"/>
   </g>
   <g id="patch_5">
    <path d="M 66.58925 164.649668 
L 1402.34925 164.649668 
" style="fill: none; stroke: #f0f0f0; stroke-width: 3; stroke-linejoin: miter; stroke-linecap: square"/>
   </g>
   <g id="patch_6">
    <path d="M 66.58925 27.95775 
L 1402.34925 27.95775 
" style="fill: none; stroke: #f0f0f0; stroke-width: 3; stroke-linejoin: miter; stroke-linecap: square"/>
   </g>
   <g id="text_13">
    <!-- avg_sunspot_area -->
    <g transform="translate(643.576 21.95775)scale(0.2016 -0.2016)">
     <defs>
      <path id="DejaVuSans-61" d="M 2194 1759 
Q 1497 1759 1228 1600 
Q 959 1441 959 1056 
Q 959 750 1161 570 
Q 1363 391 1709 391 
Q 2188 391 2477 730 
Q 2766 1069 2766 1631 
L 2766 1759 
L 2194 1759 
z
M 3341 1997 
L 3341 0 
L 2766 0 
L 2766 531 
Q 2569 213 2275 61 
Q 1981 -91 1556 -91 
Q 1019 -91 701 211 
Q 384 513 384 1019 
Q 384 1609 779 1909 
Q 1175 2209 1959 2209 
L 2766 2209 
L 2766 2266 
Q 2766 2663 2505 2880 
Q 2244 3097 1772 3097 
Q 1472 3097 1187 3025 
Q 903 2953 641 2809 
L 641 3341 
Q 956 3463 1253 3523 
Q 1550 3584 1831 3584 
Q 2591 3584 2966 3190 
Q 3341 2797 3341 1997 
z
" transform="scale(0.015625)"/>
      <path id="DejaVuSans-76" d="M 191 3500 
L 800 3500 
L 1894 563 
L 2988 3500 
L 3597 3500 
L 2284 0 
L 1503 0 
L 191 3500 
z
" transform="scale(0.015625)"/>
      <path id="DejaVuSans-67" d="M 2906 1791 
Q 2906 2416 2648 2759 
Q 2391 3103 1925 3103 
Q 1463 3103 1205 2759 
Q 947 2416 947 1791 
Q 947 1169 1205 825 
Q 1463 481 1925 481 
Q 2391 481 2648 825 
Q 2906 1169 2906 1791 
z
M 3481 434 
Q 3481 -459 3084 -895 
Q 2688 -1331 1869 -1331 
Q 1566 -1331 1297 -1286 
Q 1028 -1241 775 -1147 
L 775 -588 
Q 1028 -725 1275 -790 
Q 1522 -856 1778 -856 
Q 2344 -856 2625 -561 
Q 2906 -266 2906 331 
L 2906 616 
Q 2728 306 2450 153 
Q 2172 0 1784 0 
Q 1141 0 747 490 
Q 353 981 353 1791 
Q 353 2603 747 3093 
Q 1141 3584 1784 3584 
Q 2172 3584 2450 3431 
Q 2728 3278 2906 2969 
L 2906 3500 
L 3481 3500 
L 3481 434 
z
" transform="scale(0.015625)"/>
      <path id="DejaVuSans-5f" d="M 3263 -1063 
L 3263 -1509 
L -63 -1509 
L -63 -1063 
L 3263 -1063 
z
" transform="scale(0.015625)"/>
      <path id="DejaVuSans-73" d="M 2834 3397 
L 2834 2853 
Q 2591 2978 2328 3040 
Q 2066 3103 1784 3103 
Q 1356 3103 1142 2972 
Q 928 2841 928 2578 
Q 928 2378 1081 2264 
Q 1234 2150 1697 2047 
L 1894 2003 
Q 2506 1872 2764 1633 
Q 3022 1394 3022 966 
Q 3022 478 2636 193 
Q 2250 -91 1575 -91 
Q 1294 -91 989 -36 
Q 684 19 347 128 
L 347 722 
Q 666 556 975 473 
Q 1284 391 1588 391 
Q 1994 391 2212 530 
Q 2431 669 2431 922 
Q 2431 1156 2273 1281 
Q 2116 1406 1581 1522 
L 1381 1569 
Q 847 1681 609 1914 
Q 372 2147 372 2553 
Q 372 3047 722 3315 
Q 1072 3584 1716 3584 
Q 2034 3584 2315 3537 
Q 2597 3491 2834 3397 
z
" transform="scale(0.015625)"/>
      <path id="DejaVuSans-75" d="M 544 1381 
L 544 3500 
L 1119 3500 
L 1119 1403 
Q 1119 906 1312 657 
Q 1506 409 1894 409 
Q 2359 409 2629 706 
Q 2900 1003 2900 1516 
L 2900 3500 
L 3475 3500 
L 3475 0 
L 2900 0 
L 2900 538 
Q 2691 219 2414 64 
Q 2138 -91 1772 -91 
Q 1169 -91 856 284 
Q 544 659 544 1381 
z
M 1991 3584 
L 1991 3584 
z
" transform="scale(0.015625)"/>
      <path id="DejaVuSans-6e" d="M 3513 2113 
L 3513 0 
L 2938 0 
L 2938 2094 
Q 2938 2591 2744 2837 
Q 2550 3084 2163 3084 
Q 1697 3084 1428 2787 
Q 1159 2491 1159 1978 
L 1159 0 
L 581 0 
L 581 3500 
L 1159 3500 
L 1159 2956 
Q 1366 3272 1645 3428 
Q 1925 3584 2291 3584 
Q 2894 3584 3203 3211 
Q 3513 2838 3513 2113 
z
" transform="scale(0.015625)"/>
      <path id="DejaVuSans-70" d="M 1159 525 
L 1159 -1331 
L 581 -1331 
L 581 3500 
L 1159 3500 
L 1159 2969 
Q 1341 3281 1617 3432 
Q 1894 3584 2278 3584 
Q 2916 3584 3314 3078 
Q 3713 2572 3713 1747 
Q 3713 922 3314 415 
Q 2916 -91 2278 -91 
Q 1894 -91 1617 61 
Q 1341 213 1159 525 
z
M 3116 1747 
Q 3116 2381 2855 2742 
Q 2594 3103 2138 3103 
Q 1681 3103 1420 2742 
Q 1159 2381 1159 1747 
Q 1159 1113 1420 752 
Q 1681 391 2138 391 
Q 2594 391 2855 752 
Q 3116 1113 3116 1747 
z
" transform="scale(0.015625)"/>
      <path id="DejaVuSans-6f" d="M 1959 3097 
Q 1497 3097 1228 2736 
Q 959 2375 959 1747 
Q 959 1119 1226 758 
Q 1494 397 1959 397 
Q 2419 397 2687 759 
Q 2956 1122 2956 1747 
Q 2956 2369 2687 2733 
Q 2419 3097 1959 3097 
z
M 1959 3584 
Q 2709 3584 3137 3096 
Q 3566 2609 3566 1747 
Q 3566 888 3137 398 
Q 2709 -91 1959 -91 
Q 1206 -91 779 398 
Q 353 888 353 1747 
Q 353 2609 779 3096 
Q 1206 3584 1959 3584 
z
" transform="scale(0.015625)"/>
      <path id="DejaVuSans-74" d="M 1172 4494 
L 1172 3500 
L 2356 3500 
L 2356 3053 
L 1172 3053 
L 1172 1153 
Q 1172 725 1289 603 
Q 1406 481 1766 481 
L 2356 481 
L 2356 0 
L 1766 0 
Q 1100 0 847 248 
Q 594 497 594 1153 
L 594 3053 
L 172 3053 
L 172 3500 
L 594 3500 
L 594 4494 
L 1172 4494 
z
" transform="scale(0.015625)"/>
      <path id="DejaVuSans-72" d="M 2631 2963 
Q 2534 3019 2420 3045 
Q 2306 3072 2169 3072 
Q 1681 3072 1420 2755 
Q 1159 2438 1159 1844 
L 1159 0 
L 581 0 
L 581 3500 
L 1159 3500 
L 1159 2956 
Q 1341 3275 1631 3429 
Q 1922 3584 2338 3584 
Q 2397 3584 2469 3576 
Q 2541 3569 2628 3553 
L 2631 2963 
z
" transform="scale(0.015625)"/>
      <path id="DejaVuSans-65" d="M 3597 1894 
L 3597 1613 
L 953 1613 
Q 991 1019 1311 708 
Q 1631 397 2203 397 
Q 2534 397 2845 478 
Q 3156 559 3463 722 
L 3463 178 
Q 3153 47 2828 -22 
Q 2503 -91 2169 -91 
Q 1331 -91 842 396 
Q 353 884 353 1716 
Q 353 2575 817 3079 
Q 1281 3584 2069 3584 
Q 2775 3584 3186 3129 
Q 3597 2675 3597 1894 
z
M 3022 2063 
Q 3016 2534 2758 2815 
Q 2500 3097 2075 3097 
Q 1594 3097 1305 2825 
Q 1016 2553 972 2059 
L 3022 2063 
z
" transform="scale(0.015625)"/>
     </defs>
     <use xlink:href="#DejaVuSans-61"/>
     <use xlink:href="#DejaVuSans-76" x="61.279297"/>
     <use xlink:href="#DejaVuSans-67" x="120.458984"/>
     <use xlink:href="#DejaVuSans-5f" x="183.935547"/>
     <use xlink:href="#DejaVuSans-73" x="233.935547"/>
     <use xlink:href="#DejaVuSans-75" x="286.035156"/>
     <use xlink:href="#DejaVuSans-6e" x="349.414062"/>
     <use xlink:href="#DejaVuSans-73" x="412.792969"/>
     <use xlink:href="#DejaVuSans-70" x="464.892578"/>
     <use xlink:href="#DejaVuSans-6f" x="528.369141"/>
     <use xlink:href="#DejaVuSans-74" x="589.550781"/>
     <use xlink:href="#DejaVuSans-5f" x="628.759766"/>
     <use xlink:href="#DejaVuSans-61" x="678.759766"/>
     <use xlink:href="#DejaVuSans-72" x="740.039062"/>
     <use xlink:href="#DejaVuSans-65" x="778.902344"/>
     <use xlink:href="#DejaVuSans-61" x="840.425781"/>
    </g>
   </g>
  </g>
  <g id="axes_2">
   <g id="patch_7">
    <path d="M 66.58925 336.505696 
L 1402.34925 336.505696 
L 1402.34925 199.813777 
L 66.58925 199.813777 
z
" style="fill: #f0f0f0"/>
   </g>
   <g id="matplotlib.axis_3">
    <g id="xtick_9">
     <g id="line2d_26">
      <path d="M 66.58925 336.505696 
L 66.58925 199.813777 
" clip-path="url(#pa647f5d5d7)" style="fill: none; stroke: #cbcbcb"/>
     </g>
     <g id="line2d_27"/>
     <g id="text_14">
      <!-- 0 -->
      <g transform="translate(62.1355 350.643508)scale(0.14 -0.14)">
       <use xlink:href="#DejaVuSans-30"/>
      </g>
     </g>
    </g>
    <g id="xtick_10">
     <g id="line2d_28">
      <path d="M 257.412107 336.505696 
L 257.412107 199.813777 
" clip-path="url(#pa647f5d5d7)" style="fill: none; stroke: #cbcbcb"/>
     </g>
     <g id="line2d_29"/>
     <g id="text_15">
      <!-- 20 -->
      <g transform="translate(248.504607 350.643508)scale(0.14 -0.14)">
       <use xlink:href="#DejaVuSans-32"/>
       <use xlink:href="#DejaVuSans-30" x="63.623047"/>
      </g>
     </g>
    </g>
    <g id="xtick_11">
     <g id="line2d_30">
      <path d="M 448.234964 336.505696 
L 448.234964 199.813777 
" clip-path="url(#pa647f5d5d7)" style="fill: none; stroke: #cbcbcb"/>
     </g>
     <g id="line2d_31"/>
     <g id="text_16">
      <!-- 40 -->
      <g transform="translate(439.327464 350.643508)scale(0.14 -0.14)">
       <use xlink:href="#DejaVuSans-34"/>
       <use xlink:href="#DejaVuSans-30" x="63.623047"/>
      </g>
     </g>
    </g>
    <g id="xtick_12">
     <g id="line2d_32">
      <path d="M 639.057821 336.505696 
L 639.057821 199.813777 
" clip-path="url(#pa647f5d5d7)" style="fill: none; stroke: #cbcbcb"/>
     </g>
     <g id="line2d_33"/>
     <g id="text_17">
      <!-- 60 -->
      <g transform="translate(630.150321 350.643508)scale(0.14 -0.14)">
       <use xlink:href="#DejaVuSans-36"/>
       <use xlink:href="#DejaVuSans-30" x="63.623047"/>
      </g>
     </g>
    </g>
    <g id="xtick_13">
     <g id="line2d_34">
      <path d="M 829.880679 336.505696 
L 829.880679 199.813777 
" clip-path="url(#pa647f5d5d7)" style="fill: none; stroke: #cbcbcb"/>
     </g>
     <g id="line2d_35"/>
     <g id="text_18">
      <!-- 80 -->
      <g transform="translate(820.973179 350.643508)scale(0.14 -0.14)">
       <use xlink:href="#DejaVuSans-38"/>
       <use xlink:href="#DejaVuSans-30" x="63.623047"/>
      </g>
     </g>
    </g>
    <g id="xtick_14">
     <g id="line2d_36">
      <path d="M 1020.703536 336.505696 
L 1020.703536 199.813777 
" clip-path="url(#pa647f5d5d7)" style="fill: none; stroke: #cbcbcb"/>
     </g>
     <g id="line2d_37"/>
     <g id="text_19">
      <!-- 100 -->
      <g transform="translate(1007.342286 350.643508)scale(0.14 -0.14)">
       <use xlink:href="#DejaVuSans-31"/>
       <use xlink:href="#DejaVuSans-30" x="63.623047"/>
       <use xlink:href="#DejaVuSans-30" x="127.246094"/>
      </g>
     </g>
    </g>
    <g id="xtick_15">
     <g id="line2d_38">
      <path d="M 1211.526393 336.505696 
L 1211.526393 199.813777 
" clip-path="url(#pa647f5d5d7)" style="fill: none; stroke: #cbcbcb"/>
     </g>
     <g id="line2d_39"/>
     <g id="text_20">
      <!-- 120 -->
      <g transform="translate(1198.165143 350.643508)scale(0.14 -0.14)">
       <use xlink:href="#DejaVuSans-31"/>
       <use xlink:href="#DejaVuSans-32" x="63.623047"/>
       <use xlink:href="#DejaVuSans-30" x="127.246094"/>
      </g>
     </g>
    </g>
    <g id="xtick_16">
     <g id="line2d_40">
      <path d="M 1402.34925 336.505696 
L 1402.34925 199.813777 
" clip-path="url(#pa647f5d5d7)" style="fill: none; stroke: #cbcbcb"/>
     </g>
     <g id="line2d_41"/>
     <g id="text_21">
      <!-- 140 -->
      <g transform="translate(1388.988 350.643508)scale(0.14 -0.14)">
       <use xlink:href="#DejaVuSans-31"/>
       <use xlink:href="#DejaVuSans-34" x="63.623047"/>
       <use xlink:href="#DejaVuSans-30" x="127.246094"/>
      </g>
     </g>
    </g>
   </g>
   <g id="matplotlib.axis_4">
    <g id="ytick_5">
     <g id="line2d_42">
      <path d="M 66.58925 325.949582 
L 1402.34925 325.949582 
" clip-path="url(#pa647f5d5d7)" style="fill: none; stroke: #cbcbcb"/>
     </g>
     <g id="line2d_43"/>
     <g id="text_22">
      <!-- 500 -->
      <g transform="translate(36.36675 331.268489)scale(0.14 -0.14)">
       <defs>
        <path id="DejaVuSans-35" d="M 691 4666 
L 3169 4666 
L 3169 4134 
L 1269 4134 
L 1269 2991 
Q 1406 3038 1543 3061 
Q 1681 3084 1819 3084 
Q 2600 3084 3056 2656 
Q 3513 2228 3513 1497 
Q 3513 744 3044 326 
Q 2575 -91 1722 -91 
Q 1428 -91 1123 -41 
Q 819 9 494 109 
L 494 744 
Q 775 591 1075 516 
Q 1375 441 1709 441 
Q 2250 441 2565 725 
Q 2881 1009 2881 1497 
Q 2881 1984 2565 2268 
Q 2250 2553 1709 2553 
Q 1456 2553 1204 2497 
Q 953 2441 691 2322 
L 691 4666 
z
" transform="scale(0.015625)"/>
       </defs>
       <use xlink:href="#DejaVuSans-35"/>
       <use xlink:href="#DejaVuSans-30" x="63.623047"/>
       <use xlink:href="#DejaVuSans-30" x="127.246094"/>
      </g>
     </g>
    </g>
    <g id="ytick_6">
     <g id="line2d_44">
      <path d="M 66.58925 269.823864 
L 1402.34925 269.823864 
" clip-path="url(#pa647f5d5d7)" style="fill: none; stroke: #cbcbcb"/>
     </g>
     <g id="line2d_45"/>
     <g id="text_23">
      <!-- 1000 -->
      <g transform="translate(27.45925 275.14277)scale(0.14 -0.14)">
       <use xlink:href="#DejaVuSans-31"/>
       <use xlink:href="#DejaVuSans-30" x="63.623047"/>
       <use xlink:href="#DejaVuSans-30" x="127.246094"/>
       <use xlink:href="#DejaVuSans-30" x="190.869141"/>
      </g>
     </g>
    </g>
    <g id="ytick_7">
     <g id="line2d_46">
      <path d="M 66.58925 213.698146 
L 1402.34925 213.698146 
" clip-path="url(#pa647f5d5d7)" style="fill: none; stroke: #cbcbcb"/>
     </g>
     <g id="line2d_47"/>
     <g id="text_24">
      <!-- 1500 -->
      <g transform="translate(27.45925 219.017052)scale(0.14 -0.14)">
       <use xlink:href="#DejaVuSans-31"/>
       <use xlink:href="#DejaVuSans-35" x="63.623047"/>
       <use xlink:href="#DejaVuSans-30" x="127.246094"/>
       <use xlink:href="#DejaVuSans-30" x="190.869141"/>
      </g>
     </g>
    </g>
    <g id="text_25">
     <!-- Trend -->
     <g transform="translate(19.965375 291.140299)rotate(-90)scale(0.168 -0.168)">
      <defs>
       <path id="DejaVuSans-54" d="M -19 4666 
L 3928 4666 
L 3928 4134 
L 2272 4134 
L 2272 0 
L 1638 0 
L 1638 4134 
L -19 4134 
L -19 4666 
z
" transform="scale(0.015625)"/>
       <path id="DejaVuSans-64" d="M 2906 2969 
L 2906 4863 
L 3481 4863 
L 3481 0 
L 2906 0 
L 2906 525 
Q 2725 213 2448 61 
Q 2172 -91 1784 -91 
Q 1150 -91 751 415 
Q 353 922 353 1747 
Q 353 2572 751 3078 
Q 1150 3584 1784 3584 
Q 2172 3584 2448 3432 
Q 2725 3281 2906 2969 
z
M 947 1747 
Q 947 1113 1208 752 
Q 1469 391 1925 391 
Q 2381 391 2643 752 
Q 2906 1113 2906 1747 
Q 2906 2381 2643 2742 
Q 2381 3103 1925 3103 
Q 1469 3103 1208 2742 
Q 947 2381 947 1747 
z
" transform="scale(0.015625)"/>
      </defs>
      <use xlink:href="#DejaVuSans-54"/>
      <use xlink:href="#DejaVuSans-72" x="46.333984"/>
      <use xlink:href="#DejaVuSans-65" x="85.197266"/>
      <use xlink:href="#DejaVuSans-6e" x="146.720703"/>
      <use xlink:href="#DejaVuSans-64" x="210.099609"/>
     </g>
    </g>
   </g>
   <g id="line2d_48">
    <path d="M 123.836107 326.671694 
L 142.918393 327.114892 
L 152.459536 326.832471 
L 162.000679 323.995043 
L 171.541821 317.939858 
L 181.082964 310.710592 
L 190.624107 305.590757 
L 200.16525 304.945117 
L 209.706393 308.04236 
L 219.247536 311.715282 
L 228.788679 313.133898 
L 266.95325 314.553372 
L 276.494393 315.802793 
L 286.035536 320.250483 
L 295.576679 324.87076 
L 305.117821 328.478241 
L 314.658964 330.292427 
L 324.200107 329.035366 
L 333.74125 327.492065 
L 343.282393 327.158936 
L 352.823536 327.880268 
L 362.364679 328.266366 
L 371.905821 328.534405 
L 381.446964 328.194962 
L 390.988107 326.080542 
L 410.070393 320.599983 
L 419.611536 317.439988 
L 429.152679 316.036104 
L 438.693821 316.58637 
L 448.234964 318.233348 
L 457.776107 319.570816 
L 467.31725 319.682132 
L 476.858393 318.602063 
L 486.399536 313.652593 
L 495.940679 304.63358 
L 505.481821 297.740406 
L 515.022964 292.939358 
L 524.564107 291.216065 
L 534.10525 295.383243 
L 543.646393 301.798296 
L 553.187536 307.549896 
L 562.728679 311.209643 
L 572.269821 313.370951 
L 581.810964 311.342552 
L 591.352107 304.653068 
L 600.89325 294.781802 
L 610.434393 285.428529 
L 619.975536 279.497365 
L 629.516679 278.728989 
L 639.057821 283.09062 
L 648.598964 286.224617 
L 658.140107 286.559384 
L 667.68125 286.656668 
L 677.222393 285.268726 
L 686.763536 275.723028 
L 696.304679 258.335046 
L 705.845821 245.025144 
L 715.386964 240.811155 
L 724.928107 244.181855 
L 734.46925 249.932247 
L 744.010393 254.964346 
L 753.551536 260.330627 
L 763.092679 264.566794 
L 772.633821 265.208069 
L 782.174964 253.39536 
L 791.716107 230.514697 
L 801.25725 212.697861 
L 810.798393 206.027046 
L 820.339536 206.468997 
L 829.880679 215.167899 
L 839.421821 225.880038 
L 848.962964 233.416085 
L 858.504107 239.011663 
L 868.04525 240.792407 
L 877.586393 238.331645 
L 887.127536 231.200366 
L 896.668679 230.536875 
L 906.209821 241.870879 
L 915.750964 255.941362 
L 925.292107 271.342026 
L 934.83325 283.536546 
L 944.374393 287.654615 
L 953.915536 288.686432 
L 963.456679 289.55677 
L 972.997821 289.582767 
L 982.538964 287.947638 
L 992.080107 283.225165 
L 1001.62125 276.437033 
L 1011.162393 270.514171 
L 1020.703536 263.91441 
L 1030.244679 256.88864 
L 1039.785821 253.914717 
L 1049.326964 254.623694 
L 1058.868107 256.414027 
L 1068.40925 258.993744 
L 1077.950393 259.666083 
L 1087.491536 253.558202 
L 1097.032679 237.620018 
L 1106.573821 223.99854 
L 1116.114964 219.52801 
L 1125.656107 222.034257 
L 1135.19725 233.191816 
L 1144.738393 249.641095 
L 1154.279536 262.39695 
L 1163.820679 269.477132 
L 1173.361821 272.747975 
L 1182.902964 269.621461 
L 1192.444107 262.589064 
L 1201.98525 257.284521 
L 1211.526393 260.119727 
L 1221.067536 265.241589 
L 1230.608679 272.682417 
L 1240.149821 282.206834 
L 1249.690964 286.037688 
L 1259.232107 287.201867 
L 1268.77325 287.770491 
L 1278.314393 288.169841 
L 1287.855536 289.305335 
L 1297.396679 292.731186 
L 1306.937821 297.226973 
L 1316.478964 302.978807 
L 1326.020107 310.745905 
L 1335.56125 317.38698 
L 1345.102393 322.330799 
L 1345.102393 322.330799 
" clip-path="url(#pa647f5d5d7)" style="fill: none; stroke: #008fd5; stroke-width: 4"/>
   </g>
   <g id="patch_8">
    <path d="M 66.58925 336.505696 
L 66.58925 199.813777 
" style="fill: none; stroke: #f0f0f0; stroke-width: 3; stroke-linejoin: miter; stroke-linecap: square"/>
   </g>
   <g id="patch_9">
    <path d="M 1402.34925 336.505696 
L 1402.34925 199.813777 
" style="fill: none; stroke: #f0f0f0; stroke-width: 3; stroke-linejoin: miter; stroke-linecap: square"/>
   </g>
   <g id="patch_10">
    <path d="M 66.58925 336.505696 
L 1402.34925 336.505696 
" style="fill: none; stroke: #f0f0f0; stroke-width: 3; stroke-linejoin: miter; stroke-linecap: square"/>
   </g>
   <g id="patch_11">
    <path d="M 66.58925 199.813777 
L 1402.34925 199.813777 
" style="fill: none; stroke: #f0f0f0; stroke-width: 3; stroke-linejoin: miter; stroke-linecap: square"/>
   </g>
  </g>
  <g id="axes_3">
   <g id="patch_12">
    <path d="M 66.58925 508.361723 
L 1402.34925 508.361723 
L 1402.34925 371.669804 
L 66.58925 371.669804 
z
" style="fill: #f0f0f0"/>
   </g>
   <g id="matplotlib.axis_5">
    <g id="xtick_17">
     <g id="line2d_49">
      <path d="M 66.58925 508.361723 
L 66.58925 371.669804 
" clip-path="url(#p7b880c12cc)" style="fill: none; stroke: #cbcbcb"/>
     </g>
     <g id="line2d_50"/>
     <g id="text_26">
      <!-- 0 -->
      <g transform="translate(62.1355 522.499535)scale(0.14 -0.14)">
       <use xlink:href="#DejaVuSans-30"/>
      </g>
     </g>
    </g>
    <g id="xtick_18">
     <g id="line2d_51">
      <path d="M 257.412107 508.361723 
L 257.412107 371.669804 
" clip-path="url(#p7b880c12cc)" style="fill: none; stroke: #cbcbcb"/>
     </g>
     <g id="line2d_52"/>
     <g id="text_27">
      <!-- 20 -->
      <g transform="translate(248.504607 522.499535)scale(0.14 -0.14)">
       <use xlink:href="#DejaVuSans-32"/>
       <use xlink:href="#DejaVuSans-30" x="63.623047"/>
      </g>
     </g>
    </g>
    <g id="xtick_19">
     <g id="line2d_53">
      <path d="M 448.234964 508.361723 
L 448.234964 371.669804 
" clip-path="url(#p7b880c12cc)" style="fill: none; stroke: #cbcbcb"/>
     </g>
     <g id="line2d_54"/>
     <g id="text_28">
      <!-- 40 -->
      <g transform="translate(439.327464 522.499535)scale(0.14 -0.14)">
       <use xlink:href="#DejaVuSans-34"/>
       <use xlink:href="#DejaVuSans-30" x="63.623047"/>
      </g>
     </g>
    </g>
    <g id="xtick_20">
     <g id="line2d_55">
      <path d="M 639.057821 508.361723 
L 639.057821 371.669804 
" clip-path="url(#p7b880c12cc)" style="fill: none; stroke: #cbcbcb"/>
     </g>
     <g id="line2d_56"/>
     <g id="text_29">
      <!-- 60 -->
      <g transform="translate(630.150321 522.499535)scale(0.14 -0.14)">
       <use xlink:href="#DejaVuSans-36"/>
       <use xlink:href="#DejaVuSans-30" x="63.623047"/>
      </g>
     </g>
    </g>
    <g id="xtick_21">
     <g id="line2d_57">
      <path d="M 829.880679 508.361723 
L 829.880679 371.669804 
" clip-path="url(#p7b880c12cc)" style="fill: none; stroke: #cbcbcb"/>
     </g>
     <g id="line2d_58"/>
     <g id="text_30">
      <!-- 80 -->
      <g transform="translate(820.973179 522.499535)scale(0.14 -0.14)">
       <use xlink:href="#DejaVuSans-38"/>
       <use xlink:href="#DejaVuSans-30" x="63.623047"/>
      </g>
     </g>
    </g>
    <g id="xtick_22">
     <g id="line2d_59">
      <path d="M 1020.703536 508.361723 
L 1020.703536 371.669804 
" clip-path="url(#p7b880c12cc)" style="fill: none; stroke: #cbcbcb"/>
     </g>
     <g id="line2d_60"/>
     <g id="text_31">
      <!-- 100 -->
      <g transform="translate(1007.342286 522.499535)scale(0.14 -0.14)">
       <use xlink:href="#DejaVuSans-31"/>
       <use xlink:href="#DejaVuSans-30" x="63.623047"/>
       <use xlink:href="#DejaVuSans-30" x="127.246094"/>
      </g>
     </g>
    </g>
    <g id="xtick_23">
     <g id="line2d_61">
      <path d="M 1211.526393 508.361723 
L 1211.526393 371.669804 
" clip-path="url(#p7b880c12cc)" style="fill: none; stroke: #cbcbcb"/>
     </g>
     <g id="line2d_62"/>
     <g id="text_32">
      <!-- 120 -->
      <g transform="translate(1198.165143 522.499535)scale(0.14 -0.14)">
       <use xlink:href="#DejaVuSans-31"/>
       <use xlink:href="#DejaVuSans-32" x="63.623047"/>
       <use xlink:href="#DejaVuSans-30" x="127.246094"/>
      </g>
     </g>
    </g>
    <g id="xtick_24">
     <g id="line2d_63">
      <path d="M 1402.34925 508.361723 
L 1402.34925 371.669804 
" clip-path="url(#p7b880c12cc)" style="fill: none; stroke: #cbcbcb"/>
     </g>
     <g id="line2d_64"/>
     <g id="text_33">
      <!-- 140 -->
      <g transform="translate(1388.988 522.499535)scale(0.14 -0.14)">
       <use xlink:href="#DejaVuSans-31"/>
       <use xlink:href="#DejaVuSans-34" x="63.623047"/>
       <use xlink:href="#DejaVuSans-30" x="127.246094"/>
      </g>
     </g>
    </g>
   </g>
   <g id="matplotlib.axis_6">
    <g id="ytick_8">
     <g id="line2d_65">
      <path d="M 66.58925 480.683184 
L 1402.34925 480.683184 
" clip-path="url(#p7b880c12cc)" style="fill: none; stroke: #cbcbcb"/>
     </g>
     <g id="line2d_66"/>
     <g id="text_34">
      <!-- 0.75 -->
      <g transform="translate(31.917375 486.00209)scale(0.14 -0.14)">
       <defs>
        <path id="DejaVuSans-2e" d="M 684 794 
L 1344 794 
L 1344 0 
L 684 0 
L 684 794 
z
" transform="scale(0.015625)"/>
        <path id="DejaVuSans-37" d="M 525 4666 
L 3525 4666 
L 3525 4397 
L 1831 0 
L 1172 0 
L 2766 4134 
L 525 4134 
L 525 4666 
z
" transform="scale(0.015625)"/>
       </defs>
       <use xlink:href="#DejaVuSans-30"/>
       <use xlink:href="#DejaVuSans-2e" x="63.623047"/>
       <use xlink:href="#DejaVuSans-37" x="95.410156"/>
       <use xlink:href="#DejaVuSans-35" x="159.033203"/>
      </g>
     </g>
    </g>
    <g id="ytick_9">
     <g id="line2d_67">
      <path d="M 66.58925 443.623368 
L 1402.34925 443.623368 
" clip-path="url(#p7b880c12cc)" style="fill: none; stroke: #cbcbcb"/>
     </g>
     <g id="line2d_68"/>
     <g id="text_35">
      <!-- 1.00 -->
      <g transform="translate(31.917375 448.942274)scale(0.14 -0.14)">
       <use xlink:href="#DejaVuSans-31"/>
       <use xlink:href="#DejaVuSans-2e" x="63.623047"/>
       <use xlink:href="#DejaVuSans-30" x="95.410156"/>
       <use xlink:href="#DejaVuSans-30" x="159.033203"/>
      </g>
     </g>
    </g>
    <g id="ytick_10">
     <g id="line2d_69">
      <path d="M 66.58925 406.563552 
L 1402.34925 406.563552 
" clip-path="url(#p7b880c12cc)" style="fill: none; stroke: #cbcbcb"/>
     </g>
     <g id="line2d_70"/>
     <g id="text_36">
      <!-- 1.25 -->
      <g transform="translate(31.917375 411.882458)scale(0.14 -0.14)">
       <use xlink:href="#DejaVuSans-31"/>
       <use xlink:href="#DejaVuSans-2e" x="63.623047"/>
       <use xlink:href="#DejaVuSans-32" x="95.410156"/>
       <use xlink:href="#DejaVuSans-35" x="159.033203"/>
      </g>
     </g>
    </g>
    <g id="text_37">
     <!-- Seasonal -->
     <g transform="translate(24.4235 477.985076)rotate(-90)scale(0.168 -0.168)">
      <defs>
       <path id="DejaVuSans-53" d="M 3425 4513 
L 3425 3897 
Q 3066 4069 2747 4153 
Q 2428 4238 2131 4238 
Q 1616 4238 1336 4038 
Q 1056 3838 1056 3469 
Q 1056 3159 1242 3001 
Q 1428 2844 1947 2747 
L 2328 2669 
Q 3034 2534 3370 2195 
Q 3706 1856 3706 1288 
Q 3706 609 3251 259 
Q 2797 -91 1919 -91 
Q 1588 -91 1214 -16 
Q 841 59 441 206 
L 441 856 
Q 825 641 1194 531 
Q 1563 422 1919 422 
Q 2459 422 2753 634 
Q 3047 847 3047 1241 
Q 3047 1584 2836 1778 
Q 2625 1972 2144 2069 
L 1759 2144 
Q 1053 2284 737 2584 
Q 422 2884 422 3419 
Q 422 4038 858 4394 
Q 1294 4750 2059 4750 
Q 2388 4750 2728 4690 
Q 3069 4631 3425 4513 
z
" transform="scale(0.015625)"/>
       <path id="DejaVuSans-6c" d="M 603 4863 
L 1178 4863 
L 1178 0 
L 603 0 
L 603 4863 
z
" transform="scale(0.015625)"/>
      </defs>
      <use xlink:href="#DejaVuSans-53"/>
      <use xlink:href="#DejaVuSans-65" x="63.476562"/>
      <use xlink:href="#DejaVuSans-61" x="125"/>
      <use xlink:href="#DejaVuSans-73" x="186.279297"/>
      <use xlink:href="#DejaVuSans-6f" x="238.378906"/>
      <use xlink:href="#DejaVuSans-6e" x="299.560547"/>
      <use xlink:href="#DejaVuSans-61" x="362.939453"/>
      <use xlink:href="#DejaVuSans-6c" x="424.21875"/>
     </g>
    </g>
   </g>
   <g id="line2d_71">
    <path d="M 66.58925 483.830114 
L 76.130393 502.148454 
L 85.671536 499.388214 
L 95.212679 484.346249 
L 104.753821 461.959641 
L 114.294964 433.452821 
L 123.836107 378.508971 
L 133.37725 399.577486 
L 142.918393 377.883073 
L 152.459536 418.415432 
L 162.000679 432.357205 
L 171.541821 451.612749 
L 181.082964 483.830114 
L 190.624107 502.148454 
L 200.16525 499.388214 
L 209.706393 484.346249 
L 219.247536 461.959641 
L 228.788679 433.452821 
L 238.329821 378.508971 
L 247.870964 399.577486 
L 257.412107 377.883073 
L 266.95325 418.415432 
L 276.494393 432.357205 
L 286.035536 451.612749 
L 295.576679 483.830114 
L 305.117821 502.148454 
L 314.658964 499.388214 
L 324.200107 484.346249 
L 333.74125 461.959641 
L 343.282393 433.452821 
L 352.823536 378.508971 
L 362.364679 399.577486 
L 371.905821 377.883073 
L 381.446964 418.415432 
L 390.988107 432.357205 
L 400.52925 451.612749 
L 410.070393 483.830114 
L 419.611536 502.148454 
L 429.152679 499.388214 
L 438.693821 484.346249 
L 448.234964 461.959641 
L 457.776107 433.452821 
L 467.31725 378.508971 
L 476.858393 399.577486 
L 486.399536 377.883073 
L 495.940679 418.415432 
L 505.481821 432.357205 
L 515.022964 451.612749 
L 524.564107 483.830114 
L 534.10525 502.148454 
L 543.646393 499.388214 
L 553.187536 484.346249 
L 562.728679 461.959641 
L 572.269821 433.452821 
L 581.810964 378.508971 
L 591.352107 399.577486 
L 600.89325 377.883073 
L 610.434393 418.415432 
L 619.975536 432.357205 
L 629.516679 451.612749 
L 639.057821 483.830114 
L 648.598964 502.148454 
L 658.140107 499.388214 
L 667.68125 484.346249 
L 677.222393 461.959641 
L 686.763536 433.452821 
L 696.304679 378.508971 
L 705.845821 399.577486 
L 715.386964 377.883073 
L 724.928107 418.415432 
L 734.46925 432.357205 
L 744.010393 451.612749 
L 753.551536 483.830114 
L 763.092679 502.148454 
L 772.633821 499.388214 
L 782.174964 484.346249 
L 791.716107 461.959641 
L 801.25725 433.452821 
L 810.798393 378.508971 
L 820.339536 399.577486 
L 829.880679 377.883073 
L 839.421821 418.415432 
L 848.962964 432.357205 
L 858.504107 451.612749 
L 868.04525 483.830114 
L 877.586393 502.148454 
L 887.127536 499.388214 
L 896.668679 484.346249 
L 906.209821 461.959641 
L 915.750964 433.452821 
L 925.292107 378.508971 
L 934.83325 399.577486 
L 944.374393 377.883073 
L 953.915536 418.415432 
L 963.456679 432.357205 
L 972.997821 451.612749 
L 982.538964 483.830114 
L 992.080107 502.148454 
L 1001.62125 499.388214 
L 1011.162393 484.346249 
L 1020.703536 461.959641 
L 1030.244679 433.452821 
L 1039.785821 378.508971 
L 1049.326964 399.577486 
L 1058.868107 377.883073 
L 1068.40925 418.415432 
L 1077.950393 432.357205 
L 1087.491536 451.612749 
L 1097.032679 483.830114 
L 1106.573821 502.148454 
L 1116.114964 499.388214 
L 1125.656107 484.346249 
L 1135.19725 461.959641 
L 1144.738393 433.452821 
L 1154.279536 378.508971 
L 1163.820679 399.577486 
L 1173.361821 377.883073 
L 1182.902964 418.415432 
L 1192.444107 432.357205 
L 1201.98525 451.612749 
L 1211.526393 483.830114 
L 1221.067536 502.148454 
L 1230.608679 499.388214 
L 1240.149821 484.346249 
L 1249.690964 461.959641 
L 1259.232107 433.452821 
L 1268.77325 378.508971 
L 1278.314393 399.577486 
L 1287.855536 377.883073 
L 1297.396679 418.415432 
L 1306.937821 432.357205 
L 1316.478964 451.612749 
L 1326.020107 483.830114 
L 1335.56125 502.148454 
L 1345.102393 499.388214 
L 1354.643536 484.346249 
L 1364.184679 461.959641 
L 1373.725821 433.452821 
L 1383.266964 378.508971 
L 1392.808107 399.577486 
L 1402.34925 377.883073 
L 1402.34925 377.883073 
" clip-path="url(#p7b880c12cc)" style="fill: none; stroke: #008fd5; stroke-width: 4"/>
   </g>
   <g id="patch_13">
    <path d="M 66.58925 508.361723 
L 66.58925 371.669804 
" style="fill: none; stroke: #f0f0f0; stroke-width: 3; stroke-linejoin: miter; stroke-linecap: square"/>
   </g>
   <g id="patch_14">
    <path d="M 1402.34925 508.361723 
L 1402.34925 371.669804 
" style="fill: none; stroke: #f0f0f0; stroke-width: 3; stroke-linejoin: miter; stroke-linecap: square"/>
   </g>
   <g id="patch_15">
    <path d="M 66.58925 508.361723 
L 1402.34925 508.361723 
" style="fill: none; stroke: #f0f0f0; stroke-width: 3; stroke-linejoin: miter; stroke-linecap: square"/>
   </g>
   <g id="patch_16">
    <path d="M 66.58925 371.669804 
L 1402.34925 371.669804 
" style="fill: none; stroke: #f0f0f0; stroke-width: 3; stroke-linejoin: miter; stroke-linecap: square"/>
   </g>
  </g>
  <g id="axes_4">
   <g id="patch_17">
    <path d="M 66.58925 680.21775 
L 1402.34925 680.21775 
L 1402.34925 543.525832 
L 66.58925 543.525832 
z
" style="fill: #f0f0f0"/>
   </g>
   <g id="line2d_72">
    <path d="M 66.58925 674.004481 
L 1402.34925 674.004481 
" clip-path="url(#pfbfb6032ed)" style="fill: none; stroke: #000000; stroke-width: 4"/>
   </g>
   <g id="matplotlib.axis_7">
    <g id="xtick_25">
     <g id="line2d_73">
      <path d="M 66.58925 680.21775 
L 66.58925 543.525832 
" clip-path="url(#pfbfb6032ed)" style="fill: none; stroke: #cbcbcb"/>
     </g>
     <g id="line2d_74"/>
     <g id="text_38">
      <!-- 0 -->
      <g transform="translate(62.1355 694.355563)scale(0.14 -0.14)">
       <use xlink:href="#DejaVuSans-30"/>
      </g>
     </g>
    </g>
    <g id="xtick_26">
     <g id="line2d_75">
      <path d="M 257.412107 680.21775 
L 257.412107 543.525832 
" clip-path="url(#pfbfb6032ed)" style="fill: none; stroke: #cbcbcb"/>
     </g>
     <g id="line2d_76"/>
     <g id="text_39">
      <!-- 20 -->
      <g transform="translate(248.504607 694.355563)scale(0.14 -0.14)">
       <use xlink:href="#DejaVuSans-32"/>
       <use xlink:href="#DejaVuSans-30" x="63.623047"/>
      </g>
     </g>
    </g>
    <g id="xtick_27">
     <g id="line2d_77">
      <path d="M 448.234964 680.21775 
L 448.234964 543.525832 
" clip-path="url(#pfbfb6032ed)" style="fill: none; stroke: #cbcbcb"/>
     </g>
     <g id="line2d_78"/>
     <g id="text_40">
      <!-- 40 -->
      <g transform="translate(439.327464 694.355563)scale(0.14 -0.14)">
       <use xlink:href="#DejaVuSans-34"/>
       <use xlink:href="#DejaVuSans-30" x="63.623047"/>
      </g>
     </g>
    </g>
    <g id="xtick_28">
     <g id="line2d_79">
      <path d="M 639.057821 680.21775 
L 639.057821 543.525832 
" clip-path="url(#pfbfb6032ed)" style="fill: none; stroke: #cbcbcb"/>
     </g>
     <g id="line2d_80"/>
     <g id="text_41">
      <!-- 60 -->
      <g transform="translate(630.150321 694.355563)scale(0.14 -0.14)">
       <use xlink:href="#DejaVuSans-36"/>
       <use xlink:href="#DejaVuSans-30" x="63.623047"/>
      </g>
     </g>
    </g>
    <g id="xtick_29">
     <g id="line2d_81">
      <path d="M 829.880679 680.21775 
L 829.880679 543.525832 
" clip-path="url(#pfbfb6032ed)" style="fill: none; stroke: #cbcbcb"/>
     </g>
     <g id="line2d_82"/>
     <g id="text_42">
      <!-- 80 -->
      <g transform="translate(820.973179 694.355563)scale(0.14 -0.14)">
       <use xlink:href="#DejaVuSans-38"/>
       <use xlink:href="#DejaVuSans-30" x="63.623047"/>
      </g>
     </g>
    </g>
    <g id="xtick_30">
     <g id="line2d_83">
      <path d="M 1020.703536 680.21775 
L 1020.703536 543.525832 
" clip-path="url(#pfbfb6032ed)" style="fill: none; stroke: #cbcbcb"/>
     </g>
     <g id="line2d_84"/>
     <g id="text_43">
      <!-- 100 -->
      <g transform="translate(1007.342286 694.355563)scale(0.14 -0.14)">
       <use xlink:href="#DejaVuSans-31"/>
       <use xlink:href="#DejaVuSans-30" x="63.623047"/>
       <use xlink:href="#DejaVuSans-30" x="127.246094"/>
      </g>
     </g>
    </g>
    <g id="xtick_31">
     <g id="line2d_85">
      <path d="M 1211.526393 680.21775 
L 1211.526393 543.525832 
" clip-path="url(#pfbfb6032ed)" style="fill: none; stroke: #cbcbcb"/>
     </g>
     <g id="line2d_86"/>
     <g id="text_44">
      <!-- 120 -->
      <g transform="translate(1198.165143 694.355563)scale(0.14 -0.14)">
       <use xlink:href="#DejaVuSans-31"/>
       <use xlink:href="#DejaVuSans-32" x="63.623047"/>
       <use xlink:href="#DejaVuSans-30" x="127.246094"/>
      </g>
     </g>
    </g>
    <g id="xtick_32">
     <g id="line2d_87">
      <path d="M 1402.34925 680.21775 
L 1402.34925 543.525832 
" clip-path="url(#pfbfb6032ed)" style="fill: none; stroke: #cbcbcb"/>
     </g>
     <g id="line2d_88"/>
     <g id="text_45">
      <!-- 140 -->
      <g transform="translate(1388.988 694.355563)scale(0.14 -0.14)">
       <use xlink:href="#DejaVuSans-31"/>
       <use xlink:href="#DejaVuSans-34" x="63.623047"/>
       <use xlink:href="#DejaVuSans-30" x="127.246094"/>
      </g>
     </g>
    </g>
   </g>
   <g id="matplotlib.axis_8">
    <g id="ytick_11">
     <g id="line2d_89">
      <path d="M 66.58925 674.004481 
L 1402.34925 674.004481 
" clip-path="url(#pfbfb6032ed)" style="fill: none; stroke: #cbcbcb"/>
     </g>
     <g id="line2d_90"/>
     <g id="text_46">
      <!-- 0 -->
      <g transform="translate(54.18175 679.323387)scale(0.14 -0.14)">
       <use xlink:href="#DejaVuSans-30"/>
      </g>
     </g>
    </g>
    <g id="ytick_12">
     <g id="line2d_91">
      <path d="M 66.58925 610.358618 
L 1402.34925 610.358618 
" clip-path="url(#pfbfb6032ed)" style="fill: none; stroke: #cbcbcb"/>
     </g>
     <g id="line2d_92"/>
     <g id="text_47">
      <!-- 2 -->
      <g transform="translate(54.18175 615.677524)scale(0.14 -0.14)">
       <use xlink:href="#DejaVuSans-32"/>
      </g>
     </g>
    </g>
    <g id="ytick_13">
     <g id="line2d_93">
      <path d="M 66.58925 546.712755 
L 1402.34925 546.712755 
" clip-path="url(#pfbfb6032ed)" style="fill: none; stroke: #cbcbcb"/>
     </g>
     <g id="line2d_94"/>
     <g id="text_48">
      <!-- 4 -->
      <g transform="translate(54.18175 552.031661)scale(0.14 -0.14)">
       <use xlink:href="#DejaVuSans-34"/>
      </g>
     </g>
    </g>
    <g id="text_49">
     <!-- Resid -->
     <g transform="translate(46.687875 634.541291)rotate(-90)scale(0.168 -0.168)">
      <defs>
       <path id="DejaVuSans-52" d="M 2841 2188 
Q 3044 2119 3236 1894 
Q 3428 1669 3622 1275 
L 4263 0 
L 3584 0 
L 2988 1197 
Q 2756 1666 2539 1819 
Q 2322 1972 1947 1972 
L 1259 1972 
L 1259 0 
L 628 0 
L 628 4666 
L 2053 4666 
Q 2853 4666 3247 4331 
Q 3641 3997 3641 3322 
Q 3641 2881 3436 2590 
Q 3231 2300 2841 2188 
z
M 1259 4147 
L 1259 2491 
L 2053 2491 
Q 2509 2491 2742 2702 
Q 2975 2913 2975 3322 
Q 2975 3731 2742 3939 
Q 2509 4147 2053 4147 
L 1259 4147 
z
" transform="scale(0.015625)"/>
       <path id="DejaVuSans-69" d="M 603 3500 
L 1178 3500 
L 1178 0 
L 603 0 
L 603 3500 
z
M 603 4863 
L 1178 4863 
L 1178 4134 
L 603 4134 
L 603 4863 
z
" transform="scale(0.015625)"/>
      </defs>
      <use xlink:href="#DejaVuSans-52"/>
      <use xlink:href="#DejaVuSans-65" x="64.982422"/>
      <use xlink:href="#DejaVuSans-73" x="126.505859"/>
      <use xlink:href="#DejaVuSans-69" x="178.605469"/>
      <use xlink:href="#DejaVuSans-64" x="206.388672"/>
     </g>
    </g>
   </g>
   <g id="line2d_95">
    <defs>
     <path id="m2a87dad62f" d="M 0 3 
C 0.795609 3 1.55874 2.683901 2.12132 2.12132 
C 2.683901 1.55874 3 0.795609 3 0 
C 3 -0.795609 2.683901 -1.55874 2.12132 -2.12132 
C 1.55874 -2.683901 0.795609 -3 0 -3 
C -0.795609 -3 -1.55874 -2.683901 -2.12132 -2.12132 
C -2.683901 -1.55874 -3 -0.795609 -3 0 
C -3 0.795609 -2.683901 1.55874 -2.12132 2.12132 
C -1.55874 2.683901 -0.795609 3 0 3 
z
" style="stroke: #008fd5"/>
    </defs>
    <g clip-path="url(#pfbfb6032ed)">
     <use xlink:href="#m2a87dad62f" x="123.836107" y="643.564713" style="fill: #008fd5; stroke: #008fd5"/>
     <use xlink:href="#m2a87dad62f" x="133.37725" y="625.653914" style="fill: #008fd5; stroke: #008fd5"/>
     <use xlink:href="#m2a87dad62f" x="142.918393" y="622.272574" style="fill: #008fd5; stroke: #008fd5"/>
     <use xlink:href="#m2a87dad62f" x="152.459536" y="616.853305" style="fill: #008fd5; stroke: #008fd5"/>
     <use xlink:href="#m2a87dad62f" x="162.000679" y="627.693066" style="fill: #008fd5; stroke: #008fd5"/>
     <use xlink:href="#m2a87dad62f" x="171.541821" y="651.668676" style="fill: #008fd5; stroke: #008fd5"/>
     <use xlink:href="#m2a87dad62f" x="181.082964" y="661.82962" style="fill: #008fd5; stroke: #008fd5"/>
     <use xlink:href="#m2a87dad62f" x="190.624107" y="667.21912" style="fill: #008fd5; stroke: #008fd5"/>
     <use xlink:href="#m2a87dad62f" x="200.16525" y="668.310742" style="fill: #008fd5; stroke: #008fd5"/>
     <use xlink:href="#m2a87dad62f" x="209.706393" y="667.433865" style="fill: #008fd5; stroke: #008fd5"/>
     <use xlink:href="#m2a87dad62f" x="219.247536" y="641.186985" style="fill: #008fd5; stroke: #008fd5"/>
     <use xlink:href="#m2a87dad62f" x="228.788679" y="615.27233" style="fill: #008fd5; stroke: #008fd5"/>
     <use xlink:href="#m2a87dad62f" x="238.329821" y="621.162247" style="fill: #008fd5; stroke: #008fd5"/>
     <use xlink:href="#m2a87dad62f" x="247.870964" y="622.275822" style="fill: #008fd5; stroke: #008fd5"/>
     <use xlink:href="#m2a87dad62f" x="257.412107" y="638.54426" style="fill: #008fd5; stroke: #008fd5"/>
     <use xlink:href="#m2a87dad62f" x="266.95325" y="649.254128" style="fill: #008fd5; stroke: #008fd5"/>
     <use xlink:href="#m2a87dad62f" x="276.494393" y="648.373841" style="fill: #008fd5; stroke: #008fd5"/>
     <use xlink:href="#m2a87dad62f" x="286.035536" y="651.123987" style="fill: #008fd5; stroke: #008fd5"/>
     <use xlink:href="#m2a87dad62f" x="295.576679" y="664.580439" style="fill: #008fd5; stroke: #008fd5"/>
     <use xlink:href="#m2a87dad62f" x="305.117821" y="665.821137" style="fill: #008fd5; stroke: #008fd5"/>
     <use xlink:href="#m2a87dad62f" x="314.658964" y="670.923828" style="fill: #008fd5; stroke: #008fd5"/>
     <use xlink:href="#m2a87dad62f" x="324.200107" y="668.481772" style="fill: #008fd5; stroke: #008fd5"/>
     <use xlink:href="#m2a87dad62f" x="333.74125" y="648.717099" style="fill: #008fd5; stroke: #008fd5"/>
     <use xlink:href="#m2a87dad62f" x="343.282393" y="644.288709" style="fill: #008fd5; stroke: #008fd5"/>
     <use xlink:href="#m2a87dad62f" x="352.823536" y="619.236772" style="fill: #008fd5; stroke: #008fd5"/>
     <use xlink:href="#m2a87dad62f" x="362.364679" y="634.341297" style="fill: #008fd5; stroke: #008fd5"/>
     <use xlink:href="#m2a87dad62f" x="371.905821" y="623.526364" style="fill: #008fd5; stroke: #008fd5"/>
     <use xlink:href="#m2a87dad62f" x="381.446964" y="634.48315" style="fill: #008fd5; stroke: #008fd5"/>
     <use xlink:href="#m2a87dad62f" x="390.988107" y="633.004808" style="fill: #008fd5; stroke: #008fd5"/>
     <use xlink:href="#m2a87dad62f" x="400.52925" y="656.91906" style="fill: #008fd5; stroke: #008fd5"/>
     <use xlink:href="#m2a87dad62f" x="410.070393" y="668.868988" style="fill: #008fd5; stroke: #008fd5"/>
     <use xlink:href="#m2a87dad62f" x="419.611536" y="670.595213" style="fill: #008fd5; stroke: #008fd5"/>
     <use xlink:href="#m2a87dad62f" x="429.152679" y="673.351984" style="fill: #008fd5; stroke: #008fd5"/>
     <use xlink:href="#m2a87dad62f" x="438.693821" y="662.544332" style="fill: #008fd5; stroke: #008fd5"/>
     <use xlink:href="#m2a87dad62f" x="448.234964" y="629.451142" style="fill: #008fd5; stroke: #008fd5"/>
     <use xlink:href="#m2a87dad62f" x="457.776107" y="635.206014" style="fill: #008fd5; stroke: #008fd5"/>
     <use xlink:href="#m2a87dad62f" x="467.31725" y="612.985868" style="fill: #008fd5; stroke: #008fd5"/>
     <use xlink:href="#m2a87dad62f" x="476.858393" y="625.733625" style="fill: #008fd5; stroke: #008fd5"/>
     <use xlink:href="#m2a87dad62f" x="486.399536" y="635.858843" style="fill: #008fd5; stroke: #008fd5"/>
     <use xlink:href="#m2a87dad62f" x="495.940679" y="649.670116" style="fill: #008fd5; stroke: #008fd5"/>
     <use xlink:href="#m2a87dad62f" x="505.481821" y="657.486183" style="fill: #008fd5; stroke: #008fd5"/>
     <use xlink:href="#m2a87dad62f" x="515.022964" y="663.331919" style="fill: #008fd5; stroke: #008fd5"/>
     <use xlink:href="#m2a87dad62f" x="524.564107" y="671.055798" style="fill: #008fd5; stroke: #008fd5"/>
     <use xlink:href="#m2a87dad62f" x="534.10525" y="655.076131" style="fill: #008fd5; stroke: #008fd5"/>
     <use xlink:href="#m2a87dad62f" x="543.646393" y="615.150478" style="fill: #008fd5; stroke: #008fd5"/>
     <use xlink:href="#m2a87dad62f" x="553.187536" y="590.526626" style="fill: #008fd5; stroke: #008fd5"/>
     <use xlink:href="#m2a87dad62f" x="562.728679" y="612.984244" style="fill: #008fd5; stroke: #008fd5"/>
     <use xlink:href="#m2a87dad62f" x="572.269821" y="606.426498" style="fill: #008fd5; stroke: #008fd5"/>
     <use xlink:href="#m2a87dad62f" x="581.810964" y="630.531762" style="fill: #008fd5; stroke: #008fd5"/>
     <use xlink:href="#m2a87dad62f" x="591.352107" y="655.62872" style="fill: #008fd5; stroke: #008fd5"/>
     <use xlink:href="#m2a87dad62f" x="600.89325" y="666.093158" style="fill: #008fd5; stroke: #008fd5"/>
     <use xlink:href="#m2a87dad62f" x="610.434393" y="668.850678" style="fill: #008fd5; stroke: #008fd5"/>
     <use xlink:href="#m2a87dad62f" x="619.975536" y="671.051241" style="fill: #008fd5; stroke: #008fd5"/>
     <use xlink:href="#m2a87dad62f" x="629.516679" y="669.685243" style="fill: #008fd5; stroke: #008fd5"/>
     <use xlink:href="#m2a87dad62f" x="639.057821" y="643.199879" style="fill: #008fd5; stroke: #008fd5"/>
     <use xlink:href="#m2a87dad62f" x="648.598964" y="603.751554" style="fill: #008fd5; stroke: #008fd5"/>
     <use xlink:href="#m2a87dad62f" x="658.140107" y="549.739101" style="fill: #008fd5; stroke: #008fd5"/>
     <use xlink:href="#m2a87dad62f" x="667.68125" y="569.985439" style="fill: #008fd5; stroke: #008fd5"/>
     <use xlink:href="#m2a87dad62f" x="677.222393" y="607.606154" style="fill: #008fd5; stroke: #008fd5"/>
     <use xlink:href="#m2a87dad62f" x="686.763536" y="641.404673" style="fill: #008fd5; stroke: #008fd5"/>
     <use xlink:href="#m2a87dad62f" x="696.304679" y="660.803913" style="fill: #008fd5; stroke: #008fd5"/>
     <use xlink:href="#m2a87dad62f" x="705.845821" y="665.417572" style="fill: #008fd5; stroke: #008fd5"/>
     <use xlink:href="#m2a87dad62f" x="715.386964" y="668.805644" style="fill: #008fd5; stroke: #008fd5"/>
     <use xlink:href="#m2a87dad62f" x="724.928107" y="671.244687" style="fill: #008fd5; stroke: #008fd5"/>
     <use xlink:href="#m2a87dad62f" x="734.46925" y="663.289422" style="fill: #008fd5; stroke: #008fd5"/>
     <use xlink:href="#m2a87dad62f" x="744.010393" y="619.827989" style="fill: #008fd5; stroke: #008fd5"/>
     <use xlink:href="#m2a87dad62f" x="753.551536" y="567.953451" style="fill: #008fd5; stroke: #008fd5"/>
     <use xlink:href="#m2a87dad62f" x="763.092679" y="574.819917" style="fill: #008fd5; stroke: #008fd5"/>
     <use xlink:href="#m2a87dad62f" x="772.633821" y="569.148534" style="fill: #008fd5; stroke: #008fd5"/>
     <use xlink:href="#m2a87dad62f" x="782.174964" y="627.028558" style="fill: #008fd5; stroke: #008fd5"/>
     <use xlink:href="#m2a87dad62f" x="791.716107" y="643.47042" style="fill: #008fd5; stroke: #008fd5"/>
     <use xlink:href="#m2a87dad62f" x="801.25725" y="666.05386" style="fill: #008fd5; stroke: #008fd5"/>
     <use xlink:href="#m2a87dad62f" x="810.798393" y="671.958833" style="fill: #008fd5; stroke: #008fd5"/>
     <use xlink:href="#m2a87dad62f" x="820.339536" y="673.46122" style="fill: #008fd5; stroke: #008fd5"/>
     <use xlink:href="#m2a87dad62f" x="829.880679" y="665.814897" style="fill: #008fd5; stroke: #008fd5"/>
     <use xlink:href="#m2a87dad62f" x="839.421821" y="627.19759" style="fill: #008fd5; stroke: #008fd5"/>
     <use xlink:href="#m2a87dad62f" x="848.962964" y="605.925871" style="fill: #008fd5; stroke: #008fd5"/>
     <use xlink:href="#m2a87dad62f" x="858.504107" y="594.532729" style="fill: #008fd5; stroke: #008fd5"/>
     <use xlink:href="#m2a87dad62f" x="868.04525" y="574.331356" style="fill: #008fd5; stroke: #008fd5"/>
     <use xlink:href="#m2a87dad62f" x="877.586393" y="606.611992" style="fill: #008fd5; stroke: #008fd5"/>
     <use xlink:href="#m2a87dad62f" x="887.127536" y="650.719751" style="fill: #008fd5; stroke: #008fd5"/>
     <use xlink:href="#m2a87dad62f" x="896.668679" y="658.939684" style="fill: #008fd5; stroke: #008fd5"/>
     <use xlink:href="#m2a87dad62f" x="906.209821" y="665.635828" style="fill: #008fd5; stroke: #008fd5"/>
     <use xlink:href="#m2a87dad62f" x="915.750964" y="672.575794" style="fill: #008fd5; stroke: #008fd5"/>
     <use xlink:href="#m2a87dad62f" x="925.292107" y="671.464801" style="fill: #008fd5; stroke: #008fd5"/>
     <use xlink:href="#m2a87dad62f" x="934.83325" y="657.443973" style="fill: #008fd5; stroke: #008fd5"/>
     <use xlink:href="#m2a87dad62f" x="944.374393" y="634.188797" style="fill: #008fd5; stroke: #008fd5"/>
     <use xlink:href="#m2a87dad62f" x="953.915536" y="622.686952" style="fill: #008fd5; stroke: #008fd5"/>
     <use xlink:href="#m2a87dad62f" x="963.456679" y="621.969058" style="fill: #008fd5; stroke: #008fd5"/>
     <use xlink:href="#m2a87dad62f" x="972.997821" y="608.639135" style="fill: #008fd5; stroke: #008fd5"/>
     <use xlink:href="#m2a87dad62f" x="982.538964" y="622.440494" style="fill: #008fd5; stroke: #008fd5"/>
     <use xlink:href="#m2a87dad62f" x="992.080107" y="619.267073" style="fill: #008fd5; stroke: #008fd5"/>
     <use xlink:href="#m2a87dad62f" x="1001.62125" y="649.202234" style="fill: #008fd5; stroke: #008fd5"/>
     <use xlink:href="#m2a87dad62f" x="1011.162393" y="656.395815" style="fill: #008fd5; stroke: #008fd5"/>
     <use xlink:href="#m2a87dad62f" x="1020.703536" y="668.263614" style="fill: #008fd5; stroke: #008fd5"/>
     <use xlink:href="#m2a87dad62f" x="1030.244679" y="669.47103" style="fill: #008fd5; stroke: #008fd5"/>
     <use xlink:href="#m2a87dad62f" x="1039.785821" y="667.283659" style="fill: #008fd5; stroke: #008fd5"/>
     <use xlink:href="#m2a87dad62f" x="1049.326964" y="644.434273" style="fill: #008fd5; stroke: #008fd5"/>
     <use xlink:href="#m2a87dad62f" x="1058.868107" y="630.786733" style="fill: #008fd5; stroke: #008fd5"/>
     <use xlink:href="#m2a87dad62f" x="1068.40925" y="620.408418" style="fill: #008fd5; stroke: #008fd5"/>
     <use xlink:href="#m2a87dad62f" x="1077.950393" y="612.433248" style="fill: #008fd5; stroke: #008fd5"/>
     <use xlink:href="#m2a87dad62f" x="1087.491536" y="606.924196" style="fill: #008fd5; stroke: #008fd5"/>
     <use xlink:href="#m2a87dad62f" x="1097.032679" y="641.972823" style="fill: #008fd5; stroke: #008fd5"/>
     <use xlink:href="#m2a87dad62f" x="1106.573821" y="643.71048" style="fill: #008fd5; stroke: #008fd5"/>
     <use xlink:href="#m2a87dad62f" x="1116.114964" y="667.658069" style="fill: #008fd5; stroke: #008fd5"/>
     <use xlink:href="#m2a87dad62f" x="1125.656107" y="670.166916" style="fill: #008fd5; stroke: #008fd5"/>
     <use xlink:href="#m2a87dad62f" x="1135.19725" y="665.877711" style="fill: #008fd5; stroke: #008fd5"/>
     <use xlink:href="#m2a87dad62f" x="1144.738393" y="640.048094" style="fill: #008fd5; stroke: #008fd5"/>
     <use xlink:href="#m2a87dad62f" x="1154.279536" y="620.514939" style="fill: #008fd5; stroke: #008fd5"/>
     <use xlink:href="#m2a87dad62f" x="1163.820679" y="623.898091" style="fill: #008fd5; stroke: #008fd5"/>
     <use xlink:href="#m2a87dad62f" x="1173.361821" y="618.0901" style="fill: #008fd5; stroke: #008fd5"/>
     <use xlink:href="#m2a87dad62f" x="1182.902964" y="637.37483" style="fill: #008fd5; stroke: #008fd5"/>
     <use xlink:href="#m2a87dad62f" x="1192.444107" y="654.660938" style="fill: #008fd5; stroke: #008fd5"/>
     <use xlink:href="#m2a87dad62f" x="1201.98525" y="663.705619" style="fill: #008fd5; stroke: #008fd5"/>
     <use xlink:href="#m2a87dad62f" x="1211.526393" y="667.588504" style="fill: #008fd5; stroke: #008fd5"/>
     <use xlink:href="#m2a87dad62f" x="1221.067536" y="669.866867" style="fill: #008fd5; stroke: #008fd5"/>
     <use xlink:href="#m2a87dad62f" x="1230.608679" y="662.999141" style="fill: #008fd5; stroke: #008fd5"/>
     <use xlink:href="#m2a87dad62f" x="1240.149821" y="636.372287" style="fill: #008fd5; stroke: #008fd5"/>
     <use xlink:href="#m2a87dad62f" x="1249.690964" y="624.682095" style="fill: #008fd5; stroke: #008fd5"/>
     <use xlink:href="#m2a87dad62f" x="1259.232107" y="617.128293" style="fill: #008fd5; stroke: #008fd5"/>
     <use xlink:href="#m2a87dad62f" x="1268.77325" y="629.155317" style="fill: #008fd5; stroke: #008fd5"/>
     <use xlink:href="#m2a87dad62f" x="1278.314393" y="620.374314" style="fill: #008fd5; stroke: #008fd5"/>
     <use xlink:href="#m2a87dad62f" x="1287.855536" y="644.681451" style="fill: #008fd5; stroke: #008fd5"/>
     <use xlink:href="#m2a87dad62f" x="1297.396679" y="650.638968" style="fill: #008fd5; stroke: #008fd5"/>
     <use xlink:href="#m2a87dad62f" x="1306.937821" y="652.775147" style="fill: #008fd5; stroke: #008fd5"/>
     <use xlink:href="#m2a87dad62f" x="1316.478964" y="662.30427" style="fill: #008fd5; stroke: #008fd5"/>
     <use xlink:href="#m2a87dad62f" x="1326.020107" y="664.841471" style="fill: #008fd5; stroke: #008fd5"/>
     <use xlink:href="#m2a87dad62f" x="1335.56125" y="671.923338" style="fill: #008fd5; stroke: #008fd5"/>
     <use xlink:href="#m2a87dad62f" x="1345.102393" y="671.45896" style="fill: #008fd5; stroke: #008fd5"/>
    </g>
   </g>
   <g id="patch_18">
    <path d="M 66.58925 680.21775 
L 66.58925 543.525832 
" style="fill: none; stroke: #f0f0f0; stroke-width: 3; stroke-linejoin: miter; stroke-linecap: square"/>
   </g>
   <g id="patch_19">
    <path d="M 1402.34925 680.21775 
L 1402.34925 543.525832 
" style="fill: none; stroke: #f0f0f0; stroke-width: 3; stroke-linejoin: miter; stroke-linecap: square"/>
   </g>
   <g id="patch_20">
    <path d="M 66.58925 680.21775 
L 1402.34925 680.21775 
" style="fill: none; stroke: #f0f0f0; stroke-width: 3; stroke-linejoin: miter; stroke-linecap: square"/>
   </g>
   <g id="patch_21">
    <path d="M 66.58925 543.525832 
L 1402.34925 543.525832 
" style="fill: none; stroke: #f0f0f0; stroke-width: 3; stroke-linejoin: miter; stroke-linecap: square"/>
   </g>
  </g>
 </g>
 <defs>
  <clipPath id="p78fb753f12">
   <rect x="66.58925" y="27.95775" width="1335.76" height="136.691918"/>
  </clipPath>
  <clipPath id="pa647f5d5d7">
   <rect x="66.58925" y="199.813777" width="1335.76" height="136.691918"/>
  </clipPath>
  <clipPath id="p7b880c12cc">
   <rect x="66.58925" y="371.669804" width="1335.76" height="136.691918"/>
  </clipPath>
  <clipPath id="pfbfb6032ed">
   <rect x="66.58925" y="543.525832" width="1335.76" height="136.691918"/>
  </clipPath>
 </defs>
</svg>
