<?xml version="1.0" encoding="utf-8" standalone="no"?>
<!DOCTYPE svg PUBLIC "-//W3C//DTD SVG 1.1//EN"
  "http://www.w3.org/Graphics/SVG/1.1/DTD/svg11.dtd">
<svg xmlns:xlink="http://www.w3.org/1999/xlink" width="1422.590812pt" height="704.027825pt" viewBox="0 0 1422.590812 704.027825" xmlns="http://www.w3.org/2000/svg" version="1.1">
 <metadata>
  <rdf:RDF xmlns:dc="http://purl.org/dc/elements/1.1/" xmlns:cc="http://creativecommons.org/ns#" xmlns:rdf="http://www.w3.org/1999/02/22-rdf-syntax-ns#">
   <cc:Work>
    <dc:type rdf:resource="http://purl.org/dc/dcmitype/StillImage"/>
    <dc:date>2022-02-25T20:49:23.960436</dc:date>
    <dc:format>image/svg+xml</dc:format>
    <dc:creator>
     <cc:Agent>
      <dc:title>Matplotlib v3.5.1, https://matplotlib.org/</dc:title>
     </cc:Agent>
    </dc:creator>
   </cc:Work>
  </rdf:RDF>
 </metadata>
 <defs>
  <style type="text/css">*{stroke-linejoin: round; stroke-linecap: butt}</style>
 </defs>
 <g id="figure_1">
  <g id="patch_1">
   <path d="M 0 704.027825 
L 1422.590812 704.027825 
L 1422.590812 0 
L 0 0 
z
" style="fill: #f0f0f0"/>
  </g>
  <g id="axes_1">
   <g id="patch_2">
    <path d="M 60.505813 166.86845 
L 1415.390812 166.86845 
L 1415.390812 28.51845 
L 60.505813 28.51845 
z
" style="fill: #f0f0f0"/>
   </g>
   <g id="matplotlib.axis_1">
    <g id="xtick_1">
     <g id="line2d_1">
      <path d="M 60.505813 166.86845 
L 60.505813 28.51845 
" clip-path="url(#p737044d6f9)" style="fill: none; stroke: #cbcbcb"/>
     </g>
     <g id="line2d_2"/>
     <g id="text_1">
      <!-- 0 -->
      <g transform="translate(56.052063 181.006262)scale(0.14 -0.14)">
       <defs>
        <path id="DejaVuSans-30" d="M 2034 4250 
Q 1547 4250 1301 3770 
Q 1056 3291 1056 2328 
Q 1056 1369 1301 889 
Q 1547 409 2034 409 
Q 2525 409 2770 889 
Q 3016 1369 3016 2328 
Q 3016 3291 2770 3770 
Q 2525 4250 2034 4250 
z
M 2034 4750 
Q 2819 4750 3233 4129 
Q 3647 3509 3647 2328 
Q 3647 1150 3233 529 
Q 2819 -91 2034 -91 
Q 1250 -91 836 529 
Q 422 1150 422 2328 
Q 422 3509 836 4129 
Q 1250 4750 2034 4750 
z
" transform="scale(0.015625)"/>
       </defs>
       <use xlink:href="#DejaVuSans-30"/>
      </g>
     </g>
    </g>
    <g id="xtick_2">
     <g id="line2d_3">
      <path d="M 250.000218 166.86845 
L 250.000218 28.51845 
" clip-path="url(#p737044d6f9)" style="fill: none; stroke: #cbcbcb"/>
     </g>
     <g id="line2d_4"/>
     <g id="text_2">
      <!-- 20 -->
      <g transform="translate(241.092718 181.006262)scale(0.14 -0.14)">
       <defs>
        <path id="DejaVuSans-32" d="M 1228 531 
L 3431 531 
L 3431 0 
L 469 0 
L 469 531 
Q 828 903 1448 1529 
Q 2069 2156 2228 2338 
Q 2531 2678 2651 2914 
Q 2772 3150 2772 3378 
Q 2772 3750 2511 3984 
Q 2250 4219 1831 4219 
Q 1534 4219 1204 4116 
Q 875 4013 500 3803 
L 500 4441 
Q 881 4594 1212 4672 
Q 1544 4750 1819 4750 
Q 2544 4750 2975 4387 
Q 3406 4025 3406 3419 
Q 3406 3131 3298 2873 
Q 3191 2616 2906 2266 
Q 2828 2175 2409 1742 
Q 1991 1309 1228 531 
z
" transform="scale(0.015625)"/>
       </defs>
       <use xlink:href="#DejaVuSans-32"/>
       <use xlink:href="#DejaVuSans-30" x="63.623047"/>
      </g>
     </g>
    </g>
    <g id="xtick_3">
     <g id="line2d_5">
      <path d="M 439.494624 166.86845 
L 439.494624 28.51845 
" clip-path="url(#p737044d6f9)" style="fill: none; stroke: #cbcbcb"/>
     </g>
     <g id="line2d_6"/>
     <g id="text_3">
      <!-- 40 -->
      <g transform="translate(430.587124 181.006262)scale(0.14 -0.14)">
       <defs>
        <path id="DejaVuSans-34" d="M 2419 4116 
L 825 1625 
L 2419 1625 
L 2419 4116 
z
M 2253 4666 
L 3047 4666 
L 3047 1625 
L 3713 1625 
L 3713 1100 
L 3047 1100 
L 3047 0 
L 2419 0 
L 2419 1100 
L 313 1100 
L 313 1709 
L 2253 4666 
z
" transform="scale(0.015625)"/>
       </defs>
       <use xlink:href="#DejaVuSans-34"/>
       <use xlink:href="#DejaVuSans-30" x="63.623047"/>
      </g>
     </g>
    </g>
    <g id="xtick_4">
     <g id="line2d_7">
      <path d="M 628.989029 166.86845 
L 628.989029 28.51845 
" clip-path="url(#p737044d6f9)" style="fill: none; stroke: #cbcbcb"/>
     </g>
     <g id="line2d_8"/>
     <g id="text_4">
      <!-- 60 -->
      <g transform="translate(620.081529 181.006262)scale(0.14 -0.14)">
       <defs>
        <path id="DejaVuSans-36" d="M 2113 2584 
Q 1688 2584 1439 2293 
Q 1191 2003 1191 1497 
Q 1191 994 1439 701 
Q 1688 409 2113 409 
Q 2538 409 2786 701 
Q 3034 994 3034 1497 
Q 3034 2003 2786 2293 
Q 2538 2584 2113 2584 
z
M 3366 4563 
L 3366 3988 
Q 3128 4100 2886 4159 
Q 2644 4219 2406 4219 
Q 1781 4219 1451 3797 
Q 1122 3375 1075 2522 
Q 1259 2794 1537 2939 
Q 1816 3084 2150 3084 
Q 2853 3084 3261 2657 
Q 3669 2231 3669 1497 
Q 3669 778 3244 343 
Q 2819 -91 2113 -91 
Q 1303 -91 875 529 
Q 447 1150 447 2328 
Q 447 3434 972 4092 
Q 1497 4750 2381 4750 
Q 2619 4750 2861 4703 
Q 3103 4656 3366 4563 
z
" transform="scale(0.015625)"/>
       </defs>
       <use xlink:href="#DejaVuSans-36"/>
       <use xlink:href="#DejaVuSans-30" x="63.623047"/>
      </g>
     </g>
    </g>
    <g id="xtick_5">
     <g id="line2d_9">
      <path d="M 818.483435 166.86845 
L 818.483435 28.51845 
" clip-path="url(#p737044d6f9)" style="fill: none; stroke: #cbcbcb"/>
     </g>
     <g id="line2d_10"/>
     <g id="text_5">
      <!-- 80 -->
      <g transform="translate(809.575935 181.006262)scale(0.14 -0.14)">
       <defs>
        <path id="DejaVuSans-38" d="M 2034 2216 
Q 1584 2216 1326 1975 
Q 1069 1734 1069 1313 
Q 1069 891 1326 650 
Q 1584 409 2034 409 
Q 2484 409 2743 651 
Q 3003 894 3003 1313 
Q 3003 1734 2745 1975 
Q 2488 2216 2034 2216 
z
M 1403 2484 
Q 997 2584 770 2862 
Q 544 3141 544 3541 
Q 544 4100 942 4425 
Q 1341 4750 2034 4750 
Q 2731 4750 3128 4425 
Q 3525 4100 3525 3541 
Q 3525 3141 3298 2862 
Q 3072 2584 2669 2484 
Q 3125 2378 3379 2068 
Q 3634 1759 3634 1313 
Q 3634 634 3220 271 
Q 2806 -91 2034 -91 
Q 1263 -91 848 271 
Q 434 634 434 1313 
Q 434 1759 690 2068 
Q 947 2378 1403 2484 
z
M 1172 3481 
Q 1172 3119 1398 2916 
Q 1625 2713 2034 2713 
Q 2441 2713 2670 2916 
Q 2900 3119 2900 3481 
Q 2900 3844 2670 4047 
Q 2441 4250 2034 4250 
Q 1625 4250 1398 4047 
Q 1172 3844 1172 3481 
z
" transform="scale(0.015625)"/>
       </defs>
       <use xlink:href="#DejaVuSans-38"/>
       <use xlink:href="#DejaVuSans-30" x="63.623047"/>
      </g>
     </g>
    </g>
    <g id="xtick_6">
     <g id="line2d_11">
      <path d="M 1007.97784 166.86845 
L 1007.97784 28.51845 
" clip-path="url(#p737044d6f9)" style="fill: none; stroke: #cbcbcb"/>
     </g>
     <g id="line2d_12"/>
     <g id="text_6">
      <!-- 100 -->
      <g transform="translate(994.61659 181.006262)scale(0.14 -0.14)">
       <defs>
        <path id="DejaVuSans-31" d="M 794 531 
L 1825 531 
L 1825 4091 
L 703 3866 
L 703 4441 
L 1819 4666 
L 2450 4666 
L 2450 531 
L 3481 531 
L 3481 0 
L 794 0 
L 794 531 
z
" transform="scale(0.015625)"/>
       </defs>
       <use xlink:href="#DejaVuSans-31"/>
       <use xlink:href="#DejaVuSans-30" x="63.623047"/>
       <use xlink:href="#DejaVuSans-30" x="127.246094"/>
      </g>
     </g>
    </g>
    <g id="xtick_7">
     <g id="line2d_13">
      <path d="M 1197.472246 166.86845 
L 1197.472246 28.51845 
" clip-path="url(#p737044d6f9)" style="fill: none; stroke: #cbcbcb"/>
     </g>
     <g id="line2d_14"/>
     <g id="text_7">
      <!-- 120 -->
      <g transform="translate(1184.110996 181.006262)scale(0.14 -0.14)">
       <use xlink:href="#DejaVuSans-31"/>
       <use xlink:href="#DejaVuSans-32" x="63.623047"/>
       <use xlink:href="#DejaVuSans-30" x="127.246094"/>
      </g>
     </g>
    </g>
    <g id="xtick_8">
     <g id="line2d_15">
      <path d="M 1386.966652 166.86845 
L 1386.966652 28.51845 
" clip-path="url(#p737044d6f9)" style="fill: none; stroke: #cbcbcb"/>
     </g>
     <g id="line2d_16"/>
     <g id="text_8">
      <!-- 140 -->
      <g transform="translate(1373.605402 181.006262)scale(0.14 -0.14)">
       <use xlink:href="#DejaVuSans-31"/>
       <use xlink:href="#DejaVuSans-34" x="63.623047"/>
       <use xlink:href="#DejaVuSans-30" x="127.246094"/>
      </g>
     </g>
    </g>
   </g>
   <g id="matplotlib.axis_2">
    <g id="ytick_1">
     <g id="line2d_17">
      <path d="M 60.505813 137.270582 
L 1415.390812 137.270582 
" clip-path="url(#p737044d6f9)" style="fill: none; stroke: #cbcbcb"/>
     </g>
     <g id="line2d_18"/>
     <g id="text_9">
      <!-- 200 -->
      <g transform="translate(30.283313 142.589489)scale(0.14 -0.14)">
       <use xlink:href="#DejaVuSans-32"/>
       <use xlink:href="#DejaVuSans-30" x="63.623047"/>
       <use xlink:href="#DejaVuSans-30" x="127.246094"/>
      </g>
     </g>
    </g>
    <g id="ytick_2">
     <g id="line2d_19">
      <path d="M 60.505813 88.709684 
L 1415.390812 88.709684 
" clip-path="url(#p737044d6f9)" style="fill: none; stroke: #cbcbcb"/>
     </g>
     <g id="line2d_20"/>
     <g id="text_10">
      <!-- 400 -->
      <g transform="translate(30.283313 94.02859)scale(0.14 -0.14)">
       <use xlink:href="#DejaVuSans-34"/>
       <use xlink:href="#DejaVuSans-30" x="63.623047"/>
       <use xlink:href="#DejaVuSans-30" x="127.246094"/>
      </g>
     </g>
    </g>
    <g id="ytick_3">
     <g id="line2d_21">
      <path d="M 60.505813 40.148785 
L 1415.390812 40.148785 
" clip-path="url(#p737044d6f9)" style="fill: none; stroke: #cbcbcb"/>
     </g>
     <g id="line2d_22"/>
     <g id="text_11">
      <!-- 600 -->
      <g transform="translate(30.283313 45.467691)scale(0.14 -0.14)">
       <use xlink:href="#DejaVuSans-36"/>
       <use xlink:href="#DejaVuSans-30" x="63.623047"/>
       <use xlink:href="#DejaVuSans-30" x="127.246094"/>
      </g>
     </g>
    </g>
   </g>
   <g id="line2d_23">
    <path d="M 60.505813 158.637378 
L 69.980533 157.180551 
L 79.455253 153.781288 
L 88.929973 154.509701 
L 98.404694 156.452137 
L 107.879414 153.052874 
L 117.354134 149.896416 
L 126.828854 149.896416 
L 136.303575 152.81007 
L 145.778295 156.937746 
L 155.253015 160.579814 
L 164.727736 157.180551 
L 174.202456 157.908964 
L 183.677176 155.238115 
L 193.151896 151.596047 
L 202.626617 153.052874 
L 212.101337 155.480919 
L 221.576057 149.653611 
L 231.050778 144.554717 
L 240.525498 144.554717 
L 250.000218 147.468371 
L 259.474938 153.538483 
L 268.949659 158.151769 
L 278.424379 151.838852 
L 297.373819 149.410807 
L 306.84854 142.612281 
L 316.32326 146.254349 
L 325.79798 144.069108 
L 335.272701 142.612281 
L 344.747421 137.513387 
L 354.222141 137.513387 
L 363.696861 141.155454 
L 373.171582 146.497153 
L 382.646302 150.382025 
L 392.121022 145.525935 
L 401.595743 144.311913 
L 411.070463 142.126672 
L 420.545183 138.970214 
L 430.019903 141.883868 
L 439.494624 141.398259 
L 448.969344 132.900101 
L 467.918785 127.072794 
L 477.393505 135.085342 
L 486.868225 139.455823 
L 496.342945 144.069108 
L 505.817666 138.727409 
L 515.292386 138.2418 
L 524.767106 138.2418 
L 534.241826 128.529621 
L 543.716547 128.772425 
L 553.191267 130.229252 
L 562.665987 126.829989 
L 572.140708 121.731095 
L 581.615428 119.788659 
L 591.090148 128.286816 
L 600.564868 134.599733 
L 610.039589 142.126672 
L 619.514309 137.027778 
L 628.989029 136.299364 
L 638.46375 140.184236 
L 647.93847 128.772425 
L 657.41319 130.714861 
L 666.88791 129.01523 
L 676.362631 121.731095 
L 685.837351 112.504524 
L 695.312071 114.689764 
L 704.786792 122.945117 
L 714.261512 130.229252 
L 723.736232 136.542169 
L 733.210952 130.229252 
L 742.685673 127.072794 
L 752.160393 129.258034 
L 761.635113 121.002681 
L 771.109833 120.517072 
L 780.584554 120.274268 
L 790.059274 109.348066 
L 799.533994 97.450646 
L 809.008715 101.578322 
L 818.483435 110.076479 
L 827.958155 119.30305 
L 837.432875 128.286816 
L 846.907596 118.331832 
L 856.382316 116.875005 
L 865.857036 118.574636 
L 875.331757 108.862457 
L 884.806477 109.833675 
L 894.281197 108.619652 
L 903.755917 95.022601 
L 913.230638 85.553225 
L 922.705358 87.495661 
L 932.180078 99.635886 
L 941.654799 111.533306 
L 951.129519 120.031463 
L 960.604239 111.533306 
L 970.078959 109.348066 
L 979.55368 112.747329 
L 989.0284 99.393081 
L 998.50312 101.335517 
L 1007.97784 99.635886 
L 1017.452561 83.367985 
L 1026.927281 72.927392 
L 1036.402001 72.441783 
L 1045.876722 87.738466 
L 1055.351442 101.578322 
L 1064.826162 111.776111 
L 1074.300882 104.249171 
L 1083.775603 103.277953 
L 1093.250323 108.619652 
L 1102.725043 97.936254 
L 1112.199764 101.335517 
L 1121.674484 97.69345 
L 1131.149204 80.211527 
L 1140.623924 66.614475 
L 1150.098645 63.215212 
L 1159.573365 87.738466 
L 1169.048085 98.664668 
L 1178.522806 110.562088 
L 1187.997526 104.006367 
L 1197.472246 98.421863 
L 1206.946966 102.792344 
L 1216.421687 87.252857 
L 1225.896407 89.680902 
L 1235.371127 83.853594 
L 1244.845847 71.22776 
L 1254.320568 52.774619 
L 1263.795288 50.103769 
L 1273.270008 73.413001 
L 1282.744729 87.010052 
L 1292.219449 97.936254 
L 1301.694169 87.495661 
L 1311.168889 84.582007 
L 1320.64361 90.894924 
L 1330.11833 84.096398 
L 1339.59305 73.89861 
L 1349.067771 71.22776 
L 1358.542491 55.931077 
L 1368.017211 34.807086 
L 1377.491931 38.691958 
L 1386.966652 62.486799 
L 1396.441372 73.89861 
L 1405.916092 91.137729 
L 1415.390812 80.93994 
L 1415.390812 80.93994 
" clip-path="url(#p737044d6f9)" style="fill: none; stroke: #008fd5; stroke-width: 4"/>
   </g>
   <g id="patch_3">
    <path d="M 60.505813 166.86845 
L 60.505813 28.51845 
" style="fill: none; stroke: #f0f0f0; stroke-width: 3; stroke-linejoin: miter; stroke-linecap: square"/>
   </g>
   <g id="patch_4">
    <path d="M 1415.390812 166.86845 
L 1415.390812 28.51845 
" style="fill: none; stroke: #f0f0f0; stroke-width: 3; stroke-linejoin: miter; stroke-linecap: square"/>
   </g>
   <g id="patch_5">
    <path d="M 60.505813 166.86845 
L 1415.390812 166.86845 
" style="fill: none; stroke: #f0f0f0; stroke-width: 3; stroke-linejoin: miter; stroke-linecap: square"/>
   </g>
   <g id="patch_6">
    <path d="M 60.505813 28.51845 
L 1415.390812 28.51845 
" style="fill: none; stroke: #f0f0f0; stroke-width: 3; stroke-linejoin: miter; stroke-linecap: square"/>
   </g>
   <g id="text_12">
    <!-- passengers -->
    <g transform="translate(680.282837 22.51845)scale(0.2016 -0.2016)">
     <defs>
      <path id="DejaVuSans-70" d="M 1159 525 
L 1159 -1331 
L 581 -1331 
L 581 3500 
L 1159 3500 
L 1159 2969 
Q 1341 3281 1617 3432 
Q 1894 3584 2278 3584 
Q 2916 3584 3314 3078 
Q 3713 2572 3713 1747 
Q 3713 922 3314 415 
Q 2916 -91 2278 -91 
Q 1894 -91 1617 61 
Q 1341 213 1159 525 
z
M 3116 1747 
Q 3116 2381 2855 2742 
Q 2594 3103 2138 3103 
Q 1681 3103 1420 2742 
Q 1159 2381 1159 1747 
Q 1159 1113 1420 752 
Q 1681 391 2138 391 
Q 2594 391 2855 752 
Q 3116 1113 3116 1747 
z
" transform="scale(0.015625)"/>
      <path id="DejaVuSans-61" d="M 2194 1759 
Q 1497 1759 1228 1600 
Q 959 1441 959 1056 
Q 959 750 1161 570 
Q 1363 391 1709 391 
Q 2188 391 2477 730 
Q 2766 1069 2766 1631 
L 2766 1759 
L 2194 1759 
z
M 3341 1997 
L 3341 0 
L 2766 0 
L 2766 531 
Q 2569 213 2275 61 
Q 1981 -91 1556 -91 
Q 1019 -91 701 211 
Q 384 513 384 1019 
Q 384 1609 779 1909 
Q 1175 2209 1959 2209 
L 2766 2209 
L 2766 2266 
Q 2766 2663 2505 2880 
Q 2244 3097 1772 3097 
Q 1472 3097 1187 3025 
Q 903 2953 641 2809 
L 641 3341 
Q 956 3463 1253 3523 
Q 1550 3584 1831 3584 
Q 2591 3584 2966 3190 
Q 3341 2797 3341 1997 
z
" transform="scale(0.015625)"/>
      <path id="DejaVuSans-73" d="M 2834 3397 
L 2834 2853 
Q 2591 2978 2328 3040 
Q 2066 3103 1784 3103 
Q 1356 3103 1142 2972 
Q 928 2841 928 2578 
Q 928 2378 1081 2264 
Q 1234 2150 1697 2047 
L 1894 2003 
Q 2506 1872 2764 1633 
Q 3022 1394 3022 966 
Q 3022 478 2636 193 
Q 2250 -91 1575 -91 
Q 1294 -91 989 -36 
Q 684 19 347 128 
L 347 722 
Q 666 556 975 473 
Q 1284 391 1588 391 
Q 1994 391 2212 530 
Q 2431 669 2431 922 
Q 2431 1156 2273 1281 
Q 2116 1406 1581 1522 
L 1381 1569 
Q 847 1681 609 1914 
Q 372 2147 372 2553 
Q 372 3047 722 3315 
Q 1072 3584 1716 3584 
Q 2034 3584 2315 3537 
Q 2597 3491 2834 3397 
z
" transform="scale(0.015625)"/>
      <path id="DejaVuSans-65" d="M 3597 1894 
L 3597 1613 
L 953 1613 
Q 991 1019 1311 708 
Q 1631 397 2203 397 
Q 2534 397 2845 478 
Q 3156 559 3463 722 
L 3463 178 
Q 3153 47 2828 -22 
Q 2503 -91 2169 -91 
Q 1331 -91 842 396 
Q 353 884 353 1716 
Q 353 2575 817 3079 
Q 1281 3584 2069 3584 
Q 2775 3584 3186 3129 
Q 3597 2675 3597 1894 
z
M 3022 2063 
Q 3016 2534 2758 2815 
Q 2500 3097 2075 3097 
Q 1594 3097 1305 2825 
Q 1016 2553 972 2059 
L 3022 2063 
z
" transform="scale(0.015625)"/>
      <path id="DejaVuSans-6e" d="M 3513 2113 
L 3513 0 
L 2938 0 
L 2938 2094 
Q 2938 2591 2744 2837 
Q 2550 3084 2163 3084 
Q 1697 3084 1428 2787 
Q 1159 2491 1159 1978 
L 1159 0 
L 581 0 
L 581 3500 
L 1159 3500 
L 1159 2956 
Q 1366 3272 1645 3428 
Q 1925 3584 2291 3584 
Q 2894 3584 3203 3211 
Q 3513 2838 3513 2113 
z
" transform="scale(0.015625)"/>
      <path id="DejaVuSans-67" d="M 2906 1791 
Q 2906 2416 2648 2759 
Q 2391 3103 1925 3103 
Q 1463 3103 1205 2759 
Q 947 2416 947 1791 
Q 947 1169 1205 825 
Q 1463 481 1925 481 
Q 2391 481 2648 825 
Q 2906 1169 2906 1791 
z
M 3481 434 
Q 3481 -459 3084 -895 
Q 2688 -1331 1869 -1331 
Q 1566 -1331 1297 -1286 
Q 1028 -1241 775 -1147 
L 775 -588 
Q 1028 -725 1275 -790 
Q 1522 -856 1778 -856 
Q 2344 -856 2625 -561 
Q 2906 -266 2906 331 
L 2906 616 
Q 2728 306 2450 153 
Q 2172 0 1784 0 
Q 1141 0 747 490 
Q 353 981 353 1791 
Q 353 2603 747 3093 
Q 1141 3584 1784 3584 
Q 2172 3584 2450 3431 
Q 2728 3278 2906 2969 
L 2906 3500 
L 3481 3500 
L 3481 434 
z
" transform="scale(0.015625)"/>
      <path id="DejaVuSans-72" d="M 2631 2963 
Q 2534 3019 2420 3045 
Q 2306 3072 2169 3072 
Q 1681 3072 1420 2755 
Q 1159 2438 1159 1844 
L 1159 0 
L 581 0 
L 581 3500 
L 1159 3500 
L 1159 2956 
Q 1341 3275 1631 3429 
Q 1922 3584 2338 3584 
Q 2397 3584 2469 3576 
Q 2541 3569 2628 3553 
L 2631 2963 
z
" transform="scale(0.015625)"/>
     </defs>
     <use xlink:href="#DejaVuSans-70"/>
     <use xlink:href="#DejaVuSans-61" x="63.476562"/>
     <use xlink:href="#DejaVuSans-73" x="124.755859"/>
     <use xlink:href="#DejaVuSans-73" x="176.855469"/>
     <use xlink:href="#DejaVuSans-65" x="228.955078"/>
     <use xlink:href="#DejaVuSans-6e" x="290.478516"/>
     <use xlink:href="#DejaVuSans-67" x="353.857422"/>
     <use xlink:href="#DejaVuSans-65" x="417.333984"/>
     <use xlink:href="#DejaVuSans-72" x="478.857422"/>
     <use xlink:href="#DejaVuSans-73" x="519.970703"/>
    </g>
   </g>
  </g>
  <g id="axes_2">
   <g id="patch_7">
    <path d="M 60.505813 337.83845 
L 1415.390812 337.83845 
L 1415.390812 199.48845 
L 60.505813 199.48845 
z
" style="fill: #f0f0f0"/>
   </g>
   <g id="matplotlib.axis_3">
    <g id="xtick_9">
     <g id="line2d_24">
      <path d="M 60.505813 337.83845 
L 60.505813 199.48845 
" clip-path="url(#p912af86582)" style="fill: none; stroke: #cbcbcb"/>
     </g>
     <g id="line2d_25"/>
     <g id="text_13">
      <!-- 0 -->
      <g transform="translate(56.052063 351.976262)scale(0.14 -0.14)">
       <use xlink:href="#DejaVuSans-30"/>
      </g>
     </g>
    </g>
    <g id="xtick_10">
     <g id="line2d_26">
      <path d="M 250.000218 337.83845 
L 250.000218 199.48845 
" clip-path="url(#p912af86582)" style="fill: none; stroke: #cbcbcb"/>
     </g>
     <g id="line2d_27"/>
     <g id="text_14">
      <!-- 20 -->
      <g transform="translate(241.092718 351.976262)scale(0.14 -0.14)">
       <use xlink:href="#DejaVuSans-32"/>
       <use xlink:href="#DejaVuSans-30" x="63.623047"/>
      </g>
     </g>
    </g>
    <g id="xtick_11">
     <g id="line2d_28">
      <path d="M 439.494624 337.83845 
L 439.494624 199.48845 
" clip-path="url(#p912af86582)" style="fill: none; stroke: #cbcbcb"/>
     </g>
     <g id="line2d_29"/>
     <g id="text_15">
      <!-- 40 -->
      <g transform="translate(430.587124 351.976262)scale(0.14 -0.14)">
       <use xlink:href="#DejaVuSans-34"/>
       <use xlink:href="#DejaVuSans-30" x="63.623047"/>
      </g>
     </g>
    </g>
    <g id="xtick_12">
     <g id="line2d_30">
      <path d="M 628.989029 337.83845 
L 628.989029 199.48845 
" clip-path="url(#p912af86582)" style="fill: none; stroke: #cbcbcb"/>
     </g>
     <g id="line2d_31"/>
     <g id="text_16">
      <!-- 60 -->
      <g transform="translate(620.081529 351.976262)scale(0.14 -0.14)">
       <use xlink:href="#DejaVuSans-36"/>
       <use xlink:href="#DejaVuSans-30" x="63.623047"/>
      </g>
     </g>
    </g>
    <g id="xtick_13">
     <g id="line2d_32">
      <path d="M 818.483435 337.83845 
L 818.483435 199.48845 
" clip-path="url(#p912af86582)" style="fill: none; stroke: #cbcbcb"/>
     </g>
     <g id="line2d_33"/>
     <g id="text_17">
      <!-- 80 -->
      <g transform="translate(809.575935 351.976262)scale(0.14 -0.14)">
       <use xlink:href="#DejaVuSans-38"/>
       <use xlink:href="#DejaVuSans-30" x="63.623047"/>
      </g>
     </g>
    </g>
    <g id="xtick_14">
     <g id="line2d_34">
      <path d="M 1007.97784 337.83845 
L 1007.97784 199.48845 
" clip-path="url(#p912af86582)" style="fill: none; stroke: #cbcbcb"/>
     </g>
     <g id="line2d_35"/>
     <g id="text_18">
      <!-- 100 -->
      <g transform="translate(994.61659 351.976262)scale(0.14 -0.14)">
       <use xlink:href="#DejaVuSans-31"/>
       <use xlink:href="#DejaVuSans-30" x="63.623047"/>
       <use xlink:href="#DejaVuSans-30" x="127.246094"/>
      </g>
     </g>
    </g>
    <g id="xtick_15">
     <g id="line2d_36">
      <path d="M 1197.472246 337.83845 
L 1197.472246 199.48845 
" clip-path="url(#p912af86582)" style="fill: none; stroke: #cbcbcb"/>
     </g>
     <g id="line2d_37"/>
     <g id="text_19">
      <!-- 120 -->
      <g transform="translate(1184.110996 351.976262)scale(0.14 -0.14)">
       <use xlink:href="#DejaVuSans-31"/>
       <use xlink:href="#DejaVuSans-32" x="63.623047"/>
       <use xlink:href="#DejaVuSans-30" x="127.246094"/>
      </g>
     </g>
    </g>
    <g id="xtick_16">
     <g id="line2d_38">
      <path d="M 1386.966652 337.83845 
L 1386.966652 199.48845 
" clip-path="url(#p912af86582)" style="fill: none; stroke: #cbcbcb"/>
     </g>
     <g id="line2d_39"/>
     <g id="text_20">
      <!-- 140 -->
      <g transform="translate(1373.605402 351.976262)scale(0.14 -0.14)">
       <use xlink:href="#DejaVuSans-31"/>
       <use xlink:href="#DejaVuSans-34" x="63.623047"/>
       <use xlink:href="#DejaVuSans-30" x="127.246094"/>
      </g>
     </g>
    </g>
   </g>
   <g id="matplotlib.axis_4">
    <g id="ytick_4">
     <g id="line2d_40">
      <path d="M 60.505813 305.110153 
L 1415.390812 305.110153 
" clip-path="url(#p912af86582)" style="fill: none; stroke: #cbcbcb"/>
     </g>
     <g id="line2d_41"/>
     <g id="text_21">
      <!-- 200 -->
      <g transform="translate(30.283313 310.429059)scale(0.14 -0.14)">
       <use xlink:href="#DejaVuSans-32"/>
       <use xlink:href="#DejaVuSans-30" x="63.623047"/>
       <use xlink:href="#DejaVuSans-30" x="127.246094"/>
      </g>
     </g>
    </g>
    <g id="ytick_5">
     <g id="line2d_42">
      <path d="M 60.505813 268.99451 
L 1415.390812 268.99451 
" clip-path="url(#p912af86582)" style="fill: none; stroke: #cbcbcb"/>
     </g>
     <g id="line2d_43"/>
     <g id="text_22">
      <!-- 300 -->
      <g transform="translate(30.283313 274.313416)scale(0.14 -0.14)">
       <defs>
        <path id="DejaVuSans-33" d="M 2597 2516 
Q 3050 2419 3304 2112 
Q 3559 1806 3559 1356 
Q 3559 666 3084 287 
Q 2609 -91 1734 -91 
Q 1441 -91 1130 -33 
Q 819 25 488 141 
L 488 750 
Q 750 597 1062 519 
Q 1375 441 1716 441 
Q 2309 441 2620 675 
Q 2931 909 2931 1356 
Q 2931 1769 2642 2001 
Q 2353 2234 1838 2234 
L 1294 2234 
L 1294 2753 
L 1863 2753 
Q 2328 2753 2575 2939 
Q 2822 3125 2822 3475 
Q 2822 3834 2567 4026 
Q 2313 4219 1838 4219 
Q 1578 4219 1281 4162 
Q 984 4106 628 3988 
L 628 4550 
Q 988 4650 1302 4700 
Q 1616 4750 1894 4750 
Q 2613 4750 3031 4423 
Q 3450 4097 3450 3541 
Q 3450 3153 3228 2886 
Q 3006 2619 2597 2516 
z
" transform="scale(0.015625)"/>
       </defs>
       <use xlink:href="#DejaVuSans-33"/>
       <use xlink:href="#DejaVuSans-30" x="63.623047"/>
       <use xlink:href="#DejaVuSans-30" x="127.246094"/>
      </g>
     </g>
    </g>
    <g id="ytick_6">
     <g id="line2d_44">
      <path d="M 60.505813 232.878867 
L 1415.390812 232.878867 
" clip-path="url(#p912af86582)" style="fill: none; stroke: #cbcbcb"/>
     </g>
     <g id="line2d_45"/>
     <g id="text_23">
      <!-- 400 -->
      <g transform="translate(30.283313 238.197773)scale(0.14 -0.14)">
       <use xlink:href="#DejaVuSans-34"/>
       <use xlink:href="#DejaVuSans-30" x="63.623047"/>
       <use xlink:href="#DejaVuSans-30" x="127.246094"/>
      </g>
     </g>
    </g>
    <g id="text_24">
     <!-- Trend -->
     <g transform="translate(22.789438 291.644012)rotate(-90)scale(0.168 -0.168)">
      <defs>
       <path id="DejaVuSans-54" d="M -19 4666 
L 3928 4666 
L 3928 4134 
L 2272 4134 
L 2272 0 
L 1638 0 
L 1638 4134 
L -19 4134 
L -19 4666 
z
" transform="scale(0.015625)"/>
       <path id="DejaVuSans-64" d="M 2906 2969 
L 2906 4863 
L 3481 4863 
L 3481 0 
L 2906 0 
L 2906 525 
Q 2725 213 2448 61 
Q 2172 -91 1784 -91 
Q 1150 -91 751 415 
Q 353 922 353 1747 
Q 353 2572 751 3078 
Q 1150 3584 1784 3584 
Q 2172 3584 2448 3432 
Q 2725 3281 2906 2969 
z
M 947 1747 
Q 947 1113 1208 752 
Q 1469 391 1925 391 
Q 2381 391 2643 752 
Q 2906 1113 2906 1747 
Q 2906 2381 2643 2742 
Q 2381 3103 1925 3103 
Q 1469 3103 1208 2742 
Q 947 2381 947 1747 
z
" transform="scale(0.015625)"/>
      </defs>
      <use xlink:href="#DejaVuSans-54"/>
      <use xlink:href="#DejaVuSans-72" x="46.333984"/>
      <use xlink:href="#DejaVuSans-65" x="85.197266"/>
      <use xlink:href="#DejaVuSans-6e" x="146.720703"/>
      <use xlink:href="#DejaVuSans-64" x="210.099609"/>
     </g>
    </g>
   </g>
   <g id="line2d_46">
    <path d="M 117.354134 331.549814 
L 136.303575 331.128464 
L 164.727736 330.481393 
L 174.202456 329.939658 
L 193.151896 328.615418 
L 202.626617 328.073683 
L 212.101337 327.712527 
L 221.576057 327.230985 
L 240.525498 325.635877 
L 259.474938 323.739806 
L 278.424379 321.46753 
L 335.272701 316.275906 
L 363.696861 313.973534 
L 382.646302 313.040547 
L 392.121022 312.273089 
L 420.545183 309.067826 
L 458.444064 305.817418 
L 467.918785 305.200442 
L 477.393505 304.312599 
L 496.342945 301.348107 
L 505.817666 300.279686 
L 543.716547 296.833652 
L 553.191267 296.412302 
L 572.140708 295.960857 
L 581.615428 295.960857 
L 610.039589 296.276869 
L 619.514309 295.885616 
L 638.46375 294.10993 
L 676.362631 291.476498 
L 685.837351 290.483318 
L 704.786792 288.075608 
L 723.736232 285.788284 
L 733.210952 284.479092 
L 761.635113 279.422902 
L 771.109833 277.94818 
L 790.059274 275.510374 
L 837.432875 268.633354 
L 875.331757 262.267972 
L 884.806477 261.139358 
L 903.755917 259.21319 
L 932.180078 256.549661 
L 951.129519 254.352626 
L 960.604239 253.073531 
L 970.078959 251.568712 
L 989.0284 248.182871 
L 998.50312 246.828534 
L 1007.97784 245.69992 
L 1017.452561 244.736836 
L 1026.927281 243.909186 
L 1036.402001 243.277163 
L 1045.876722 242.931054 
L 1064.826162 242.72038 
L 1074.300882 242.404368 
L 1083.775603 241.817489 
L 1093.250323 240.854405 
L 1102.725043 240.282574 
L 1131.149204 239.755887 
L 1140.623924 239.439875 
L 1150.098645 238.777755 
L 1159.573365 237.754479 
L 1169.048085 236.370046 
L 1178.522806 234.789986 
L 1197.472246 231.960928 
L 1225.896407 226.979979 
L 1235.371127 225.47516 
L 1254.320568 221.788355 
L 1263.795288 220.193247 
L 1273.270008 219.26026 
L 1282.744729 218.086501 
L 1301.694169 214.595323 
L 1311.168889 212.533721 
L 1320.64361 210.712891 
L 1349.067771 206.604737 
L 1358.542491 205.777086 
L 1358.542491 205.777086 
" clip-path="url(#p912af86582)" style="fill: none; stroke: #008fd5; stroke-width: 4"/>
   </g>
   <g id="patch_8">
    <path d="M 60.505813 337.83845 
L 60.505813 199.48845 
" style="fill: none; stroke: #f0f0f0; stroke-width: 3; stroke-linejoin: miter; stroke-linecap: square"/>
   </g>
   <g id="patch_9">
    <path d="M 1415.390812 337.83845 
L 1415.390812 199.48845 
" style="fill: none; stroke: #f0f0f0; stroke-width: 3; stroke-linejoin: miter; stroke-linecap: square"/>
   </g>
   <g id="patch_10">
    <path d="M 60.505813 337.83845 
L 1415.390812 337.83845 
" style="fill: none; stroke: #f0f0f0; stroke-width: 3; stroke-linejoin: miter; stroke-linecap: square"/>
   </g>
   <g id="patch_11">
    <path d="M 60.505813 199.48845 
L 1415.390812 199.48845 
" style="fill: none; stroke: #f0f0f0; stroke-width: 3; stroke-linejoin: miter; stroke-linecap: square"/>
   </g>
  </g>
  <g id="axes_3">
   <g id="patch_12">
    <path d="M 60.505813 508.80845 
L 1415.390812 508.80845 
L 1415.390812 370.45845 
L 60.505813 370.45845 
z
" style="fill: #f0f0f0"/>
   </g>
   <g id="matplotlib.axis_5">
    <g id="xtick_17">
     <g id="line2d_47">
      <path d="M 60.505813 508.80845 
L 60.505813 370.45845 
" clip-path="url(#p3c6bc5a09d)" style="fill: none; stroke: #cbcbcb"/>
     </g>
     <g id="line2d_48"/>
     <g id="text_25">
      <!-- 0 -->
      <g transform="translate(56.052063 522.946262)scale(0.14 -0.14)">
       <use xlink:href="#DejaVuSans-30"/>
      </g>
     </g>
    </g>
    <g id="xtick_18">
     <g id="line2d_49">
      <path d="M 250.000218 508.80845 
L 250.000218 370.45845 
" clip-path="url(#p3c6bc5a09d)" style="fill: none; stroke: #cbcbcb"/>
     </g>
     <g id="line2d_50"/>
     <g id="text_26">
      <!-- 20 -->
      <g transform="translate(241.092718 522.946262)scale(0.14 -0.14)">
       <use xlink:href="#DejaVuSans-32"/>
       <use xlink:href="#DejaVuSans-30" x="63.623047"/>
      </g>
     </g>
    </g>
    <g id="xtick_19">
     <g id="line2d_51">
      <path d="M 439.494624 508.80845 
L 439.494624 370.45845 
" clip-path="url(#p3c6bc5a09d)" style="fill: none; stroke: #cbcbcb"/>
     </g>
     <g id="line2d_52"/>
     <g id="text_27">
      <!-- 40 -->
      <g transform="translate(430.587124 522.946262)scale(0.14 -0.14)">
       <use xlink:href="#DejaVuSans-34"/>
       <use xlink:href="#DejaVuSans-30" x="63.623047"/>
      </g>
     </g>
    </g>
    <g id="xtick_20">
     <g id="line2d_53">
      <path d="M 628.989029 508.80845 
L 628.989029 370.45845 
" clip-path="url(#p3c6bc5a09d)" style="fill: none; stroke: #cbcbcb"/>
     </g>
     <g id="line2d_54"/>
     <g id="text_28">
      <!-- 60 -->
      <g transform="translate(620.081529 522.946262)scale(0.14 -0.14)">
       <use xlink:href="#DejaVuSans-36"/>
       <use xlink:href="#DejaVuSans-30" x="63.623047"/>
      </g>
     </g>
    </g>
    <g id="xtick_21">
     <g id="line2d_55">
      <path d="M 818.483435 508.80845 
L 818.483435 370.45845 
" clip-path="url(#p3c6bc5a09d)" style="fill: none; stroke: #cbcbcb"/>
     </g>
     <g id="line2d_56"/>
     <g id="text_29">
      <!-- 80 -->
      <g transform="translate(809.575935 522.946262)scale(0.14 -0.14)">
       <use xlink:href="#DejaVuSans-38"/>
       <use xlink:href="#DejaVuSans-30" x="63.623047"/>
      </g>
     </g>
    </g>
    <g id="xtick_22">
     <g id="line2d_57">
      <path d="M 1007.97784 508.80845 
L 1007.97784 370.45845 
" clip-path="url(#p3c6bc5a09d)" style="fill: none; stroke: #cbcbcb"/>
     </g>
     <g id="line2d_58"/>
     <g id="text_30">
      <!-- 100 -->
      <g transform="translate(994.61659 522.946262)scale(0.14 -0.14)">
       <use xlink:href="#DejaVuSans-31"/>
       <use xlink:href="#DejaVuSans-30" x="63.623047"/>
       <use xlink:href="#DejaVuSans-30" x="127.246094"/>
      </g>
     </g>
    </g>
    <g id="xtick_23">
     <g id="line2d_59">
      <path d="M 1197.472246 508.80845 
L 1197.472246 370.45845 
" clip-path="url(#p3c6bc5a09d)" style="fill: none; stroke: #cbcbcb"/>
     </g>
     <g id="line2d_60"/>
     <g id="text_31">
      <!-- 120 -->
      <g transform="translate(1184.110996 522.946262)scale(0.14 -0.14)">
       <use xlink:href="#DejaVuSans-31"/>
       <use xlink:href="#DejaVuSans-32" x="63.623047"/>
       <use xlink:href="#DejaVuSans-30" x="127.246094"/>
      </g>
     </g>
    </g>
    <g id="xtick_24">
     <g id="line2d_61">
      <path d="M 1386.966652 508.80845 
L 1386.966652 370.45845 
" clip-path="url(#p3c6bc5a09d)" style="fill: none; stroke: #cbcbcb"/>
     </g>
     <g id="line2d_62"/>
     <g id="text_32">
      <!-- 140 -->
      <g transform="translate(1373.605402 522.946262)scale(0.14 -0.14)">
       <use xlink:href="#DejaVuSans-31"/>
       <use xlink:href="#DejaVuSans-34" x="63.623047"/>
       <use xlink:href="#DejaVuSans-30" x="127.246094"/>
      </g>
     </g>
    </g>
   </g>
   <g id="matplotlib.axis_6">
    <g id="ytick_7">
     <g id="line2d_63">
      <path d="M 60.505813 498.670898 
L 1415.390812 498.670898 
" clip-path="url(#p3c6bc5a09d)" style="fill: none; stroke: #cbcbcb"/>
     </g>
     <g id="line2d_64"/>
     <g id="text_33">
      <!-- −50 -->
      <g transform="translate(27.45925 503.989804)scale(0.14 -0.14)">
       <defs>
        <path id="DejaVuSans-2212" d="M 678 2272 
L 4684 2272 
L 4684 1741 
L 678 1741 
L 678 2272 
z
" transform="scale(0.015625)"/>
        <path id="DejaVuSans-35" d="M 691 4666 
L 3169 4666 
L 3169 4134 
L 1269 4134 
L 1269 2991 
Q 1406 3038 1543 3061 
Q 1681 3084 1819 3084 
Q 2600 3084 3056 2656 
Q 3513 2228 3513 1497 
Q 3513 744 3044 326 
Q 2575 -91 1722 -91 
Q 1428 -91 1123 -41 
Q 819 9 494 109 
L 494 744 
Q 775 591 1075 516 
Q 1375 441 1709 441 
Q 2250 441 2565 725 
Q 2881 1009 2881 1497 
Q 2881 1984 2565 2268 
Q 2250 2553 1709 2553 
Q 1456 2553 1204 2497 
Q 953 2441 691 2322 
L 691 4666 
z
" transform="scale(0.015625)"/>
       </defs>
       <use xlink:href="#DejaVuSans-2212"/>
       <use xlink:href="#DejaVuSans-35" x="83.789062"/>
       <use xlink:href="#DejaVuSans-30" x="147.412109"/>
      </g>
     </g>
    </g>
    <g id="ytick_8">
     <g id="line2d_65">
      <path d="M 60.505813 445.116059 
L 1415.390812 445.116059 
" clip-path="url(#p3c6bc5a09d)" style="fill: none; stroke: #cbcbcb"/>
     </g>
     <g id="line2d_66"/>
     <g id="text_34">
      <!-- 0 -->
      <g transform="translate(48.098313 450.434965)scale(0.14 -0.14)">
       <use xlink:href="#DejaVuSans-30"/>
      </g>
     </g>
    </g>
    <g id="ytick_9">
     <g id="line2d_67">
      <path d="M 60.505813 391.56122 
L 1415.390812 391.56122 
" clip-path="url(#p3c6bc5a09d)" style="fill: none; stroke: #cbcbcb"/>
     </g>
     <g id="line2d_68"/>
     <g id="text_35">
      <!-- 50 -->
      <g transform="translate(39.190813 396.880127)scale(0.14 -0.14)">
       <use xlink:href="#DejaVuSans-35"/>
       <use xlink:href="#DejaVuSans-30" x="63.623047"/>
      </g>
     </g>
    </g>
    <g id="text_36">
     <!-- Seasonal -->
     <g transform="translate(19.965375 477.602762)rotate(-90)scale(0.168 -0.168)">
      <defs>
       <path id="DejaVuSans-53" d="M 3425 4513 
L 3425 3897 
Q 3066 4069 2747 4153 
Q 2428 4238 2131 4238 
Q 1616 4238 1336 4038 
Q 1056 3838 1056 3469 
Q 1056 3159 1242 3001 
Q 1428 2844 1947 2747 
L 2328 2669 
Q 3034 2534 3370 2195 
Q 3706 1856 3706 1288 
Q 3706 609 3251 259 
Q 2797 -91 1919 -91 
Q 1588 -91 1214 -16 
Q 841 59 441 206 
L 441 856 
Q 825 641 1194 531 
Q 1563 422 1919 422 
Q 2459 422 2753 634 
Q 3047 847 3047 1241 
Q 3047 1584 2836 1778 
Q 2625 1972 2144 2069 
L 1759 2144 
Q 1053 2284 737 2584 
Q 422 2884 422 3419 
Q 422 4038 858 4394 
Q 1294 4750 2059 4750 
Q 2388 4750 2728 4690 
Q 3069 4631 3425 4513 
z
" transform="scale(0.015625)"/>
       <path id="DejaVuSans-6f" d="M 1959 3097 
Q 1497 3097 1228 2736 
Q 959 2375 959 1747 
Q 959 1119 1226 758 
Q 1494 397 1959 397 
Q 2419 397 2687 759 
Q 2956 1122 2956 1747 
Q 2956 2369 2687 2733 
Q 2419 3097 1959 3097 
z
M 1959 3584 
Q 2709 3584 3137 3096 
Q 3566 2609 3566 1747 
Q 3566 888 3137 398 
Q 2709 -91 1959 -91 
Q 1206 -91 779 398 
Q 353 888 353 1747 
Q 353 2609 779 3096 
Q 1206 3584 1959 3584 
z
" transform="scale(0.015625)"/>
       <path id="DejaVuSans-6c" d="M 603 4863 
L 1178 4863 
L 1178 0 
L 603 0 
L 603 4863 
z
" transform="scale(0.015625)"/>
      </defs>
      <use xlink:href="#DejaVuSans-53"/>
      <use xlink:href="#DejaVuSans-65" x="63.476562"/>
      <use xlink:href="#DejaVuSans-61" x="125"/>
      <use xlink:href="#DejaVuSans-73" x="186.279297"/>
      <use xlink:href="#DejaVuSans-6f" x="238.378906"/>
      <use xlink:href="#DejaVuSans-6e" x="299.560547"/>
      <use xlink:href="#DejaVuSans-61" x="362.939453"/>
      <use xlink:href="#DejaVuSans-6c" x="424.21875"/>
     </g>
    </g>
   </g>
   <g id="line2d_69">
    <path d="M 60.505813 471.624352 
L 69.980533 483.87705 
L 79.455253 447.51656 
L 88.929973 453.724053 
L 98.404694 449.942756 
L 107.879414 407.196258 
L 117.354134 376.747086 
L 126.828854 377.826298 
L 136.303575 427.421324 
L 145.778295 467.226363 
L 155.253015 502.519814 
L 164.727736 475.770795 
L 174.202456 471.624352 
L 183.677176 483.87705 
L 193.151896 447.51656 
L 202.626617 453.724053 
L 212.101337 449.942756 
L 221.576057 407.196258 
L 231.050778 376.747086 
L 240.525498 377.826298 
L 250.000218 427.421324 
L 259.474938 467.226363 
L 268.949659 502.519814 
L 278.424379 475.770795 
L 287.899099 471.624352 
L 297.373819 483.87705 
L 306.84854 447.51656 
L 316.32326 453.724053 
L 325.79798 449.942756 
L 335.272701 407.196258 
L 344.747421 376.747086 
L 354.222141 377.826298 
L 363.696861 427.421324 
L 373.171582 467.226363 
L 382.646302 502.519814 
L 392.121022 475.770795 
L 401.595743 471.624352 
L 411.070463 483.87705 
L 420.545183 447.51656 
L 430.019903 453.724053 
L 439.494624 449.942756 
L 448.969344 407.196258 
L 458.444064 376.747086 
L 467.918785 377.826298 
L 477.393505 427.421324 
L 486.868225 467.226363 
L 496.342945 502.519814 
L 505.817666 475.770795 
L 515.292386 471.624352 
L 524.767106 483.87705 
L 534.241826 447.51656 
L 543.716547 453.724053 
L 553.191267 449.942756 
L 562.665987 407.196258 
L 572.140708 376.747086 
L 581.615428 377.826298 
L 591.090148 427.421324 
L 600.564868 467.226363 
L 610.039589 502.519814 
L 619.514309 475.770795 
L 628.989029 471.624352 
L 638.46375 483.87705 
L 647.93847 447.51656 
L 657.41319 453.724053 
L 666.88791 449.942756 
L 676.362631 407.196258 
L 685.837351 376.747086 
L 695.312071 377.826298 
L 704.786792 427.421324 
L 714.261512 467.226363 
L 723.736232 502.519814 
L 733.210952 475.770795 
L 742.685673 471.624352 
L 752.160393 483.87705 
L 761.635113 447.51656 
L 771.109833 453.724053 
L 780.584554 449.942756 
L 790.059274 407.196258 
L 799.533994 376.747086 
L 809.008715 377.826298 
L 818.483435 427.421324 
L 827.958155 467.226363 
L 837.432875 502.519814 
L 846.907596 475.770795 
L 856.382316 471.624352 
L 865.857036 483.87705 
L 875.331757 447.51656 
L 884.806477 453.724053 
L 894.281197 449.942756 
L 903.755917 407.196258 
L 913.230638 376.747086 
L 922.705358 377.826298 
L 932.180078 427.421324 
L 941.654799 467.226363 
L 951.129519 502.519814 
L 960.604239 475.770795 
L 970.078959 471.624352 
L 979.55368 483.87705 
L 989.0284 447.51656 
L 998.50312 453.724053 
L 1007.97784 449.942756 
L 1017.452561 407.196258 
L 1026.927281 376.747086 
L 1036.402001 377.826298 
L 1045.876722 427.421324 
L 1055.351442 467.226363 
L 1064.826162 502.519814 
L 1074.300882 475.770795 
L 1083.775603 471.624352 
L 1093.250323 483.87705 
L 1102.725043 447.51656 
L 1112.199764 453.724053 
L 1121.674484 449.942756 
L 1131.149204 407.196258 
L 1140.623924 376.747086 
L 1150.098645 377.826298 
L 1159.573365 427.421324 
L 1169.048085 467.226363 
L 1178.522806 502.519814 
L 1187.997526 475.770795 
L 1197.472246 471.624352 
L 1206.946966 483.87705 
L 1216.421687 447.51656 
L 1225.896407 453.724053 
L 1235.371127 449.942756 
L 1244.845847 407.196258 
L 1254.320568 376.747086 
L 1263.795288 377.826298 
L 1273.270008 427.421324 
L 1282.744729 467.226363 
L 1292.219449 502.519814 
L 1301.694169 475.770795 
L 1311.168889 471.624352 
L 1320.64361 483.87705 
L 1330.11833 447.51656 
L 1339.59305 453.724053 
L 1349.067771 449.942756 
L 1358.542491 407.196258 
L 1368.017211 376.747086 
L 1377.491931 377.826298 
L 1386.966652 427.421324 
L 1396.441372 467.226363 
L 1405.916092 502.519814 
L 1415.390812 475.770795 
L 1415.390812 475.770795 
" clip-path="url(#p3c6bc5a09d)" style="fill: none; stroke: #008fd5; stroke-width: 4"/>
   </g>
   <g id="patch_13">
    <path d="M 60.505813 508.80845 
L 60.505813 370.45845 
" style="fill: none; stroke: #f0f0f0; stroke-width: 3; stroke-linejoin: miter; stroke-linecap: square"/>
   </g>
   <g id="patch_14">
    <path d="M 1415.390812 508.80845 
L 1415.390812 370.45845 
" style="fill: none; stroke: #f0f0f0; stroke-width: 3; stroke-linejoin: miter; stroke-linecap: square"/>
   </g>
   <g id="patch_15">
    <path d="M 60.505813 508.80845 
L 1415.390812 508.80845 
" style="fill: none; stroke: #f0f0f0; stroke-width: 3; stroke-linejoin: miter; stroke-linecap: square"/>
   </g>
   <g id="patch_16">
    <path d="M 60.505813 370.45845 
L 1415.390812 370.45845 
" style="fill: none; stroke: #f0f0f0; stroke-width: 3; stroke-linejoin: miter; stroke-linecap: square"/>
   </g>
  </g>
  <g id="axes_4">
   <g id="patch_17">
    <path d="M 60.505813 679.77845 
L 1415.390812 679.77845 
L 1415.390812 541.42845 
L 60.505813 541.42845 
z
" style="fill: #f0f0f0"/>
   </g>
   <g id="line2d_70">
    <path d="M 60.505813 620.833872 
L 1415.390812 620.833872 
" clip-path="url(#p4a8c154bb4)" style="fill: none; stroke: #000000; stroke-width: 4"/>
   </g>
   <g id="matplotlib.axis_7">
    <g id="xtick_25">
     <g id="line2d_71">
      <path d="M 60.505813 679.77845 
L 60.505813 541.42845 
" clip-path="url(#p4a8c154bb4)" style="fill: none; stroke: #cbcbcb"/>
     </g>
     <g id="line2d_72"/>
     <g id="text_37">
      <!-- 0 -->
      <g transform="translate(56.052063 693.916262)scale(0.14 -0.14)">
       <use xlink:href="#DejaVuSans-30"/>
      </g>
     </g>
    </g>
    <g id="xtick_26">
     <g id="line2d_73">
      <path d="M 250.000218 679.77845 
L 250.000218 541.42845 
" clip-path="url(#p4a8c154bb4)" style="fill: none; stroke: #cbcbcb"/>
     </g>
     <g id="line2d_74"/>
     <g id="text_38">
      <!-- 20 -->
      <g transform="translate(241.092718 693.916262)scale(0.14 -0.14)">
       <use xlink:href="#DejaVuSans-32"/>
       <use xlink:href="#DejaVuSans-30" x="63.623047"/>
      </g>
     </g>
    </g>
    <g id="xtick_27">
     <g id="line2d_75">
      <path d="M 439.494624 679.77845 
L 439.494624 541.42845 
" clip-path="url(#p4a8c154bb4)" style="fill: none; stroke: #cbcbcb"/>
     </g>
     <g id="line2d_76"/>
     <g id="text_39">
      <!-- 40 -->
      <g transform="translate(430.587124 693.916262)scale(0.14 -0.14)">
       <use xlink:href="#DejaVuSans-34"/>
       <use xlink:href="#DejaVuSans-30" x="63.623047"/>
      </g>
     </g>
    </g>
    <g id="xtick_28">
     <g id="line2d_77">
      <path d="M 628.989029 679.77845 
L 628.989029 541.42845 
" clip-path="url(#p4a8c154bb4)" style="fill: none; stroke: #cbcbcb"/>
     </g>
     <g id="line2d_78"/>
     <g id="text_40">
      <!-- 60 -->
      <g transform="translate(620.081529 693.916262)scale(0.14 -0.14)">
       <use xlink:href="#DejaVuSans-36"/>
       <use xlink:href="#DejaVuSans-30" x="63.623047"/>
      </g>
     </g>
    </g>
    <g id="xtick_29">
     <g id="line2d_79">
      <path d="M 818.483435 679.77845 
L 818.483435 541.42845 
" clip-path="url(#p4a8c154bb4)" style="fill: none; stroke: #cbcbcb"/>
     </g>
     <g id="line2d_80"/>
     <g id="text_41">
      <!-- 80 -->
      <g transform="translate(809.575935 693.916262)scale(0.14 -0.14)">
       <use xlink:href="#DejaVuSans-38"/>
       <use xlink:href="#DejaVuSans-30" x="63.623047"/>
      </g>
     </g>
    </g>
    <g id="xtick_30">
     <g id="line2d_81">
      <path d="M 1007.97784 679.77845 
L 1007.97784 541.42845 
" clip-path="url(#p4a8c154bb4)" style="fill: none; stroke: #cbcbcb"/>
     </g>
     <g id="line2d_82"/>
     <g id="text_42">
      <!-- 100 -->
      <g transform="translate(994.61659 693.916262)scale(0.14 -0.14)">
       <use xlink:href="#DejaVuSans-31"/>
       <use xlink:href="#DejaVuSans-30" x="63.623047"/>
       <use xlink:href="#DejaVuSans-30" x="127.246094"/>
      </g>
     </g>
    </g>
    <g id="xtick_31">
     <g id="line2d_83">
      <path d="M 1197.472246 679.77845 
L 1197.472246 541.42845 
" clip-path="url(#p4a8c154bb4)" style="fill: none; stroke: #cbcbcb"/>
     </g>
     <g id="line2d_84"/>
     <g id="text_43">
      <!-- 120 -->
      <g transform="translate(1184.110996 693.916262)scale(0.14 -0.14)">
       <use xlink:href="#DejaVuSans-31"/>
       <use xlink:href="#DejaVuSans-32" x="63.623047"/>
       <use xlink:href="#DejaVuSans-30" x="127.246094"/>
      </g>
     </g>
    </g>
    <g id="xtick_32">
     <g id="line2d_85">
      <path d="M 1386.966652 679.77845 
L 1386.966652 541.42845 
" clip-path="url(#p4a8c154bb4)" style="fill: none; stroke: #cbcbcb"/>
     </g>
     <g id="line2d_86"/>
     <g id="text_44">
      <!-- 140 -->
      <g transform="translate(1373.605402 693.916262)scale(0.14 -0.14)">
       <use xlink:href="#DejaVuSans-31"/>
       <use xlink:href="#DejaVuSans-34" x="63.623047"/>
       <use xlink:href="#DejaVuSans-30" x="127.246094"/>
      </g>
     </g>
    </g>
   </g>
   <g id="matplotlib.axis_8">
    <g id="ytick_10">
     <g id="line2d_87">
      <path d="M 60.505813 620.833872 
L 1415.390812 620.833872 
" clip-path="url(#p4a8c154bb4)" style="fill: none; stroke: #cbcbcb"/>
     </g>
     <g id="line2d_88"/>
     <g id="text_45">
      <!-- 0 -->
      <g transform="translate(48.098313 626.152779)scale(0.14 -0.14)">
       <use xlink:href="#DejaVuSans-30"/>
      </g>
     </g>
    </g>
    <g id="ytick_11">
     <g id="line2d_89">
      <path d="M 60.505813 560.952899 
L 1415.390812 560.952899 
" clip-path="url(#p4a8c154bb4)" style="fill: none; stroke: #cbcbcb"/>
     </g>
     <g id="line2d_90"/>
     <g id="text_46">
      <!-- 50 -->
      <g transform="translate(39.190813 566.271805)scale(0.14 -0.14)">
       <use xlink:href="#DejaVuSans-35"/>
       <use xlink:href="#DejaVuSans-30" x="63.623047"/>
      </g>
     </g>
    </g>
    <g id="text_47">
     <!-- Resid -->
     <g transform="translate(31.696938 633.27295)rotate(-90)scale(0.168 -0.168)">
      <defs>
       <path id="DejaVuSans-52" d="M 2841 2188 
Q 3044 2119 3236 1894 
Q 3428 1669 3622 1275 
L 4263 0 
L 3584 0 
L 2988 1197 
Q 2756 1666 2539 1819 
Q 2322 1972 1947 1972 
L 1259 1972 
L 1259 0 
L 628 0 
L 628 4666 
L 2053 4666 
Q 2853 4666 3247 4331 
Q 3641 3997 3641 3322 
Q 3641 2881 3436 2590 
Q 3231 2300 2841 2188 
z
M 1259 4147 
L 1259 2491 
L 2053 2491 
Q 2509 2491 2742 2702 
Q 2975 2913 2975 3322 
Q 2975 3731 2742 3939 
Q 2509 4147 2053 4147 
L 1259 4147 
z
" transform="scale(0.015625)"/>
       <path id="DejaVuSans-69" d="M 603 3500 
L 1178 3500 
L 1178 0 
L 603 0 
L 603 3500 
z
M 603 4863 
L 1178 4863 
L 1178 4134 
L 603 4134 
L 603 4863 
z
" transform="scale(0.015625)"/>
      </defs>
      <use xlink:href="#DejaVuSans-52"/>
      <use xlink:href="#DejaVuSans-65" x="64.982422"/>
      <use xlink:href="#DejaVuSans-73" x="126.505859"/>
      <use xlink:href="#DejaVuSans-69" x="178.605469"/>
      <use xlink:href="#DejaVuSans-64" x="206.388672"/>
     </g>
    </g>
   </g>
   <g id="line2d_91">
    <defs>
     <path id="m419dd1375c" d="M 0 3 
C 0.795609 3 1.55874 2.683901 2.12132 2.12132 
C 2.683901 1.55874 3 0.795609 3 0 
C 3 -0.795609 2.683901 -1.55874 2.12132 -2.12132 
C 1.55874 -2.683901 0.795609 -3 0 -3 
C -0.795609 -3 -1.55874 -2.683901 -2.12132 -2.12132 
C -2.683901 -1.55874 -3 -0.795609 -3 0 
C -3 0.795609 -2.683901 1.55874 -2.12132 2.12132 
C -1.55874 2.683901 -0.795609 3 0 3 
z
" style="stroke: #008fd5"/>
    </defs>
    <g clip-path="url(#p4a8c154bb4)">
     <use xlink:href="#m419dd1375c" x="117.354134" y="671.879378" style="fill: #008fd5; stroke: #008fd5"/>
     <use xlink:href="#m419dd1375c" x="126.828854" y="671.221595" style="fill: #008fd5; stroke: #008fd5"/>
     <use xlink:href="#m419dd1375c" x="136.303575" y="630.987932" style="fill: #008fd5; stroke: #008fd5"/>
     <use xlink:href="#m419dd1375c" x="145.778295" y="607.588987" style="fill: #008fd5; stroke: #008fd5"/>
     <use xlink:href="#m419dd1375c" x="155.253015" y="586.589819" style="fill: #008fd5; stroke: #008fd5"/>
     <use xlink:href="#m419dd1375c" x="164.727736" y="600.630092" style="fill: #008fd5; stroke: #008fd5"/>
     <use xlink:href="#m419dd1375c" x="174.202456" y="610.655619" style="fill: #008fd5; stroke: #008fd5"/>
     <use xlink:href="#m419dd1375c" x="183.677176" y="585.9774" style="fill: #008fd5; stroke: #008fd5"/>
     <use xlink:href="#m419dd1375c" x="193.151896" y="610.864295" style="fill: #008fd5; stroke: #008fd5"/>
     <use xlink:href="#m419dd1375c" x="202.626617" y="612.905692" style="fill: #008fd5; stroke: #008fd5"/>
     <use xlink:href="#m419dd1375c" x="212.101337" y="630.307466" style="fill: #008fd5; stroke: #008fd5"/>
     <use xlink:href="#m419dd1375c" x="221.576057" y="650.957329" style="fill: #008fd5; stroke: #008fd5"/>
     <use xlink:href="#m419dd1375c" x="231.050778" y="662.448125" style="fill: #008fd5; stroke: #008fd5"/>
     <use xlink:href="#m419dd1375c" x="240.525498" y="663.936076" style="fill: #008fd5; stroke: #008fd5"/>
     <use xlink:href="#m419dd1375c" x="250.000218" y="625.898049" style="fill: #008fd5; stroke: #008fd5"/>
     <use xlink:href="#m419dd1375c" x="259.474938" y="614.575101" style="fill: #008fd5; stroke: #008fd5"/>
     <use xlink:href="#m419dd1375c" x="268.949659" y="601.609963" style="fill: #008fd5; stroke: #008fd5"/>
     <use xlink:href="#m419dd1375c" x="278.424379" y="604.17305" style="fill: #008fd5; stroke: #008fd5"/>
     <use xlink:href="#m419dd1375c" x="287.899099" y="605.715439" style="fill: #008fd5; stroke: #008fd5"/>
     <use xlink:href="#m419dd1375c" x="297.373819" y="588.921547" style="fill: #008fd5; stroke: #008fd5"/>
     <use xlink:href="#m419dd1375c" x="306.84854" y="598.788299" style="fill: #008fd5; stroke: #008fd5"/>
     <use xlink:href="#m419dd1375c" x="316.32326" y="612.556386" style="fill: #008fd5; stroke: #008fd5"/>
     <use xlink:href="#m419dd1375c" x="325.79798" y="609.04972" style="fill: #008fd5; stroke: #008fd5"/>
     <use xlink:href="#m419dd1375c" x="335.272701" y="652.554155" style="fill: #008fd5; stroke: #008fd5"/>
     <use xlink:href="#m419dd1375c" x="344.747421" y="664.044951" style="fill: #008fd5; stroke: #008fd5"/>
     <use xlink:href="#m419dd1375c" x="354.222141" y="665.632704" style="fill: #008fd5; stroke: #008fd5"/>
     <use xlink:href="#m419dd1375c" x="363.696861" y="630.389122" style="fill: #008fd5; stroke: #008fd5"/>
     <use xlink:href="#m419dd1375c" x="373.171582" y="613.87649" style="fill: #008fd5; stroke: #008fd5"/>
     <use xlink:href="#m419dd1375c" x="382.646302" y="595.023056" style="fill: #008fd5; stroke: #008fd5"/>
     <use xlink:href="#m419dd1375c" x="392.121022" y="603.524339" style="fill: #008fd5; stroke: #008fd5"/>
     <use xlink:href="#m419dd1375c" x="401.595743" y="605.715439" style="fill: #008fd5; stroke: #008fd5"/>
     <use xlink:href="#m419dd1375c" x="411.070463" y="584.929482" style="fill: #008fd5; stroke: #008fd5"/>
     <use xlink:href="#m419dd1375c" x="420.545183" y="613.409237" style="fill: #008fd5; stroke: #008fd5"/>
     <use xlink:href="#m419dd1375c" x="430.019903" y="623.534565" style="fill: #008fd5; stroke: #008fd5"/>
     <use xlink:href="#m419dd1375c" x="439.494624" y="628.11183" style="fill: #008fd5; stroke: #008fd5"/>
     <use xlink:href="#m419dd1375c" x="448.969344" y="636.685697" style="fill: #008fd5; stroke: #008fd5"/>
     <use xlink:href="#m419dd1375c" x="458.444064" y="659.004969" style="fill: #008fd5; stroke: #008fd5"/>
     <use xlink:href="#m419dd1375c" x="467.918785" y="645.472776" style="fill: #008fd5; stroke: #008fd5"/>
     <use xlink:href="#m419dd1375c" x="477.393505" y="632.484956" style="fill: #008fd5; stroke: #008fd5"/>
     <use xlink:href="#m419dd1375c" x="486.868225" y="614.375498" style="fill: #008fd5; stroke: #008fd5"/>
     <use xlink:href="#m419dd1375c" x="496.342945" y="602.65788" style="fill: #008fd5; stroke: #008fd5"/>
     <use xlink:href="#m419dd1375c" x="505.817666" y="609.761941" style="fill: #008fd5; stroke: #008fd5"/>
     <use xlink:href="#m419dd1375c" x="515.292386" y="614.947089" style="fill: #008fd5; stroke: #008fd5"/>
     <use xlink:href="#m419dd1375c" x="524.767106" y="604.4407" style="fill: #008fd5; stroke: #008fd5"/>
     <use xlink:href="#m419dd1375c" x="534.241826" y="600.08572" style="fill: #008fd5; stroke: #008fd5"/>
     <use xlink:href="#m419dd1375c" x="543.716547" y="596.737829" style="fill: #008fd5; stroke: #008fd5"/>
     <use xlink:href="#m419dd1375c" x="553.191267" y="609.548728" style="fill: #008fd5; stroke: #008fd5"/>
     <use xlink:href="#m419dd1375c" x="562.665987" y="641.326472" style="fill: #008fd5; stroke: #008fd5"/>
     <use xlink:href="#m419dd1375c" x="572.140708" y="650.970938" style="fill: #008fd5; stroke: #008fd5"/>
     <use xlink:href="#m419dd1375c" x="581.615428" y="640.18329" style="fill: #008fd5; stroke: #008fd5"/>
     <use xlink:href="#m419dd1375c" x="591.090148" y="626.197454" style="fill: #008fd5; stroke: #008fd5"/>
     <use xlink:href="#m419dd1375c" x="600.564868" y="612.379465" style="fill: #008fd5; stroke: #008fd5"/>
     <use xlink:href="#m419dd1375c" x="610.039589" y="609.893498" style="fill: #008fd5; stroke: #008fd5"/>
     <use xlink:href="#m419dd1375c" x="619.514309" y="615.949641" style="fill: #008fd5; stroke: #008fd5"/>
     <use xlink:href="#m419dd1375c" x="628.989029" y="619.93717" style="fill: #008fd5; stroke: #008fd5"/>
     <use xlink:href="#m419dd1375c" x="638.46375" y="628.343189" style="fill: #008fd5; stroke: #008fd5"/>
     <use xlink:href="#m419dd1375c" x="647.93847" y="614.85636" style="fill: #008fd5; stroke: #008fd5"/>
     <use xlink:href="#m419dd1375c" x="657.41319" y="619.492599" style="fill: #008fd5; stroke: #008fd5"/>
     <use xlink:href="#m419dd1375c" x="666.88791" y="617.383156" style="fill: #008fd5; stroke: #008fd5"/>
     <use xlink:href="#m419dd1375c" x="676.362631" y="631.795417" style="fill: #008fd5; stroke: #008fd5"/>
     <use xlink:href="#m419dd1375c" x="685.837351" y="623.625294" style="fill: #008fd5; stroke: #008fd5"/>
     <use xlink:href="#m419dd1375c" x="695.312071" y="637.338944" style="fill: #008fd5; stroke: #008fd5"/>
     <use xlink:href="#m419dd1375c" x="704.786792" y="626.446958" style="fill: #008fd5; stroke: #008fd5"/>
     <use xlink:href="#m419dd1375c" x="714.261512" y="621.561215" style="fill: #008fd5; stroke: #008fd5"/>
     <use xlink:href="#m419dd1375c" x="723.736232" y="617.129115" style="fill: #008fd5; stroke: #008fd5"/>
     <use xlink:href="#m419dd1375c" x="733.210952" y="620.241111" style="fill: #008fd5; stroke: #008fd5"/>
     <use xlink:href="#m419dd1375c" x="742.685673" y="614.947089" style="fill: #008fd5; stroke: #008fd5"/>
     <use xlink:href="#m419dd1375c" x="752.160393" y="617.814117" style="fill: #008fd5; stroke: #008fd5"/>
     <use xlink:href="#m419dd1375c" x="761.635113" y="623.089994" style="fill: #008fd5; stroke: #008fd5"/>
     <use xlink:href="#m419dd1375c" x="771.109833" y="618.644285" style="fill: #008fd5; stroke: #008fd5"/>
     <use xlink:href="#m419dd1375c" x="780.584554" y="625.61679" style="fill: #008fd5; stroke: #008fd5"/>
     <use xlink:href="#m419dd1375c" x="790.059274" y="623.661585" style="fill: #008fd5; stroke: #008fd5"/>
     <use xlink:href="#m419dd1375c" x="799.533994" y="603.565167" style="fill: #008fd5; stroke: #008fd5"/>
     <use xlink:href="#m419dd1375c" x="809.008715" y="627.009476" style="fill: #008fd5; stroke: #008fd5"/>
     <use xlink:href="#m419dd1375c" x="818.483435" y="618.163423" style="fill: #008fd5; stroke: #008fd5"/>
     <use xlink:href="#m419dd1375c" x="827.958155" y="623.856652" style="fill: #008fd5; stroke: #008fd5"/>
     <use xlink:href="#m419dd1375c" x="837.432875" y="633.296978" style="fill: #008fd5; stroke: #008fd5"/>
     <use xlink:href="#m419dd1375c" x="846.907596" y="619.442698" style="fill: #008fd5; stroke: #008fd5"/>
     <use xlink:href="#m419dd1375c" x="856.382316" y="622.282508" style="fill: #008fd5; stroke: #008fd5"/>
     <use xlink:href="#m419dd1375c" x="865.857036" y="622.30519" style="fill: #008fd5; stroke: #008fd5"/>
     <use xlink:href="#m419dd1375c" x="875.331757" y="620.095945" style="fill: #008fd5; stroke: #008fd5"/>
     <use xlink:href="#m419dd1375c" x="884.806477" y="621.688235" style="fill: #008fd5; stroke: #008fd5"/>
     <use xlink:href="#m419dd1375c" x="894.281197" y="623.221551" style="fill: #008fd5; stroke: #008fd5"/>
     <use xlink:href="#m419dd1375c" x="903.755917" y="607.044615" style="fill: #008fd5; stroke: #008fd5"/>
     <use xlink:href="#m419dd1375c" x="913.230638" y="597.327566" style="fill: #008fd5; stroke: #008fd5"/>
     <use xlink:href="#m419dd1375c" x="922.705358" y="608.446374" style="fill: #008fd5; stroke: #008fd5"/>
     <use xlink:href="#m419dd1375c" x="932.180078" y="616.017688" style="fill: #008fd5; stroke: #008fd5"/>
     <use xlink:href="#m419dd1375c" x="941.654799" y="633.886715" style="fill: #008fd5; stroke: #008fd5"/>
     <use xlink:href="#m419dd1375c" x="951.129519" y="639.933786" style="fill: #008fd5; stroke: #008fd5"/>
     <use xlink:href="#m419dd1375c" x="960.604239" y="632.167405" style="fill: #008fd5; stroke: #008fd5"/>
     <use xlink:href="#m419dd1375c" x="970.078959" y="631.01515" style="fill: #008fd5; stroke: #008fd5"/>
     <use xlink:href="#m419dd1375c" x="979.55368" y="639.770474" style="fill: #008fd5; stroke: #008fd5"/>
     <use xlink:href="#m419dd1375c" x="989.0284" y="620.095945" style="fill: #008fd5; stroke: #008fd5"/>
     <use xlink:href="#m419dd1375c" x="998.50312" y="627.227225" style="fill: #008fd5; stroke: #008fd5"/>
     <use xlink:href="#m419dd1375c" x="1007.97784" y="626.814409" style="fill: #008fd5; stroke: #008fd5"/>
     <use xlink:href="#m419dd1375c" x="1017.452561" y="597.563461" style="fill: #008fd5; stroke: #008fd5"/>
     <use xlink:href="#m419dd1375c" x="1026.927281" y="582.856331" style="fill: #008fd5; stroke: #008fd5"/>
     <use xlink:href="#m419dd1375c" x="1036.402001" y="581.350233" style="fill: #008fd5; stroke: #008fd5"/>
     <use xlink:href="#m419dd1375c" x="1045.876722" y="602.494568" style="fill: #008fd5; stroke: #008fd5"/>
     <use xlink:href="#m419dd1375c" x="1055.351442" y="626.551296" style="fill: #008fd5; stroke: #008fd5"/>
     <use xlink:href="#m419dd1375c" x="1064.826162" y="637.788051" style="fill: #008fd5; stroke: #008fd5"/>
     <use xlink:href="#m419dd1375c" x="1074.300882" y="631.618496" style="fill: #008fd5; stroke: #008fd5"/>
     <use xlink:href="#m419dd1375c" x="1083.775603" y="633.410389" style="fill: #008fd5; stroke: #008fd5"/>
     <use xlink:href="#m419dd1375c" x="1093.250323" y="649.251629" style="fill: #008fd5; stroke: #008fd5"/>
     <use xlink:href="#m419dd1375c" x="1102.725043" y="639.108154" style="fill: #008fd5; stroke: #008fd5"/>
     <use xlink:href="#m419dd1375c" x="1112.199764" y="649.532888" style="fill: #008fd5; stroke: #008fd5"/>
     <use xlink:href="#m419dd1375c" x="1121.674484" y="636.644869" style="fill: #008fd5; stroke: #008fd5"/>
     <use xlink:href="#m419dd1375c" x="1131.149204" y="598.511576" style="fill: #008fd5; stroke: #008fd5"/>
     <use xlink:href="#m419dd1375c" x="1140.623924" y="566.538765" style="fill: #008fd5; stroke: #008fd5"/>
     <use xlink:href="#m419dd1375c" x="1150.098645" y="550.761036" style="fill: #008fd5; stroke: #008fd5"/>
     <use xlink:href="#m419dd1375c" x="1159.573365" y="619.660447" style="fill: #008fd5; stroke: #008fd5"/>
     <use xlink:href="#m419dd1375c" x="1169.048085" y="633.637211" style="fill: #008fd5; stroke: #008fd5"/>
     <use xlink:href="#m419dd1375c" x="1178.522806" y="658.097681" style="fill: #008fd5; stroke: #008fd5"/>
     <use xlink:href="#m419dd1375c" x="1187.997526" y="660.361364" style="fill: #008fd5; stroke: #008fd5"/>
     <use xlink:href="#m419dd1375c" x="1197.472246" y="642.143031" style="fill: #008fd5; stroke: #008fd5"/>
     <use xlink:href="#m419dd1375c" x="1206.946966" y="655.539131" style="fill: #008fd5; stroke: #008fd5"/>
     <use xlink:href="#m419dd1375c" x="1216.421687" y="625.185828" style="fill: #008fd5; stroke: #008fd5"/>
     <use xlink:href="#m419dd1375c" x="1225.896407" y="635.56066" style="fill: #008fd5; stroke: #008fd5"/>
     <use xlink:href="#m419dd1375c" x="1235.371127" y="616.035834" style="fill: #008fd5; stroke: #008fd5"/>
     <use xlink:href="#m419dd1375c" x="1244.845847" y="607.543623" style="fill: #008fd5; stroke: #008fd5"/>
     <use xlink:href="#m419dd1375c" x="1254.320568" y="556.808107" style="fill: #008fd5; stroke: #008fd5"/>
     <use xlink:href="#m419dd1375c" x="1263.795288" y="547.717086" style="fill: #008fd5; stroke: #008fd5"/>
     <use xlink:href="#m419dd1375c" x="1273.270008" y="610.328996" style="fill: #008fd5; stroke: #008fd5"/>
     <use xlink:href="#m419dd1375c" x="1282.744729" y="636.780962" style="fill: #008fd5; stroke: #008fd5"/>
     <use xlink:href="#m419dd1375c" x="1292.219449" y="657.049764" style="fill: #008fd5; stroke: #008fd5"/>
     <use xlink:href="#m419dd1375c" x="1301.694169" y="641.199452" style="fill: #008fd5; stroke: #008fd5"/>
     <use xlink:href="#m419dd1375c" x="1311.168889" y="638.300669" style="fill: #008fd5; stroke: #008fd5"/>
     <use xlink:href="#m419dd1375c" x="1320.64361" y="661.776732" style="fill: #008fd5; stroke: #008fd5"/>
     <use xlink:href="#m419dd1375c" x="1330.11833" y="673.489814" style="fill: #008fd5; stroke: #008fd5"/>
     <use xlink:href="#m419dd1375c" x="1339.59305" y="621.189227" style="fill: #008fd5; stroke: #008fd5"/>
     <use xlink:href="#m419dd1375c" x="1349.067771" y="616.335239" style="fill: #008fd5; stroke: #008fd5"/>
     <use xlink:href="#m419dd1375c" x="1358.542491" y="591.425661" style="fill: #008fd5; stroke: #008fd5"/>
    </g>
   </g>
   <g id="patch_18">
    <path d="M 60.505813 679.77845 
L 60.505813 541.42845 
" style="fill: none; stroke: #f0f0f0; stroke-width: 3; stroke-linejoin: miter; stroke-linecap: square"/>
   </g>
   <g id="patch_19">
    <path d="M 1415.390812 679.77845 
L 1415.390812 541.42845 
" style="fill: none; stroke: #f0f0f0; stroke-width: 3; stroke-linejoin: miter; stroke-linecap: square"/>
   </g>
   <g id="patch_20">
    <path d="M 60.505813 679.77845 
L 1415.390812 679.77845 
" style="fill: none; stroke: #f0f0f0; stroke-width: 3; stroke-linejoin: miter; stroke-linecap: square"/>
   </g>
   <g id="patch_21">
    <path d="M 60.505813 541.42845 
L 1415.390812 541.42845 
" style="fill: none; stroke: #f0f0f0; stroke-width: 3; stroke-linejoin: miter; stroke-linecap: square"/>
   </g>
  </g>
 </g>
 <defs>
  <clipPath id="p737044d6f9">
   <rect x="60.505813" y="28.51845" width="1354.885" height="138.35"/>
  </clipPath>
  <clipPath id="p912af86582">
   <rect x="60.505813" y="199.48845" width="1354.885" height="138.35"/>
  </clipPath>
  <clipPath id="p3c6bc5a09d">
   <rect x="60.505813" y="370.45845" width="1354.885" height="138.35"/>
  </clipPath>
  <clipPath id="p4a8c154bb4">
   <rect x="60.505813" y="541.42845" width="1354.885" height="138.35"/>
  </clipPath>
 </defs>
</svg>
