<?xml version="1.0" encoding="utf-8" standalone="no"?>
<!DOCTYPE svg PUBLIC "-//W3C//DTD SVG 1.1//EN"
  "http://www.w3.org/Graphics/SVG/1.1/DTD/svg11.dtd">
<svg xmlns:xlink="http://www.w3.org/1999/xlink" width="1422.76675pt" height="704.027825pt" viewBox="0 0 1422.76675 704.027825" xmlns="http://www.w3.org/2000/svg" version="1.1">
 <metadata>
  <rdf:RDF xmlns:dc="http://purl.org/dc/elements/1.1/" xmlns:cc="http://creativecommons.org/ns#" xmlns:rdf="http://www.w3.org/1999/02/22-rdf-syntax-ns#">
   <cc:Work>
    <dc:type rdf:resource="http://purl.org/dc/dcmitype/StillImage"/>
    <dc:date>2022-02-25T20:51:20.205477</dc:date>
    <dc:format>image/svg+xml</dc:format>
    <dc:creator>
     <cc:Agent>
      <dc:title>Matplotlib v3.5.1, https://matplotlib.org/</dc:title>
     </cc:Agent>
    </dc:creator>
   </cc:Work>
  </rdf:RDF>
 </metadata>
 <defs>
  <style type="text/css">*{stroke-linejoin: round; stroke-linecap: butt}</style>
 </defs>
 <g id="figure_1">
  <g id="patch_1">
   <path d="M 0 704.027825 
L 1422.76675 704.027825 
L 1422.76675 0 
L 0 0 
z
" style="fill: #f0f0f0"/>
  </g>
  <g id="axes_1">
   <g id="patch_2">
    <path d="M 57.68175 166.86845 
L 1415.56675 166.86845 
L 1415.56675 28.51845 
L 57.68175 28.51845 
z
" style="fill: #f0f0f0"/>
   </g>
   <g id="matplotlib.axis_1">
    <g id="xtick_1">
     <g id="line2d_1">
      <path d="M 57.68175 166.86845 
L 57.68175 28.51845 
" clip-path="url(#p5e6639da83)" style="fill: none; stroke: #cbcbcb"/>
     </g>
     <g id="line2d_2"/>
     <g id="text_1">
      <!-- 0 -->
      <g transform="translate(53.228 181.006262)scale(0.14 -0.14)">
       <defs>
        <path id="DejaVuSans-30" d="M 2034 4250 
Q 1547 4250 1301 3770 
Q 1056 3291 1056 2328 
Q 1056 1369 1301 889 
Q 1547 409 2034 409 
Q 2525 409 2770 889 
Q 3016 1369 3016 2328 
Q 3016 3291 2770 3770 
Q 2525 4250 2034 4250 
z
M 2034 4750 
Q 2819 4750 3233 4129 
Q 3647 3509 3647 2328 
Q 3647 1150 3233 529 
Q 2819 -91 2034 -91 
Q 1250 -91 836 529 
Q 422 1150 422 2328 
Q 422 3509 836 4129 
Q 1250 4750 2034 4750 
z
" transform="scale(0.015625)"/>
       </defs>
       <use xlink:href="#DejaVuSans-30"/>
      </g>
     </g>
    </g>
    <g id="xtick_2">
     <g id="line2d_3">
      <path d="M 247.595736 166.86845 
L 247.595736 28.51845 
" clip-path="url(#p5e6639da83)" style="fill: none; stroke: #cbcbcb"/>
     </g>
     <g id="line2d_4"/>
     <g id="text_2">
      <!-- 20 -->
      <g transform="translate(238.688236 181.006262)scale(0.14 -0.14)">
       <defs>
        <path id="DejaVuSans-32" d="M 1228 531 
L 3431 531 
L 3431 0 
L 469 0 
L 469 531 
Q 828 903 1448 1529 
Q 2069 2156 2228 2338 
Q 2531 2678 2651 2914 
Q 2772 3150 2772 3378 
Q 2772 3750 2511 3984 
Q 2250 4219 1831 4219 
Q 1534 4219 1204 4116 
Q 875 4013 500 3803 
L 500 4441 
Q 881 4594 1212 4672 
Q 1544 4750 1819 4750 
Q 2544 4750 2975 4387 
Q 3406 4025 3406 3419 
Q 3406 3131 3298 2873 
Q 3191 2616 2906 2266 
Q 2828 2175 2409 1742 
Q 1991 1309 1228 531 
z
" transform="scale(0.015625)"/>
       </defs>
       <use xlink:href="#DejaVuSans-32"/>
       <use xlink:href="#DejaVuSans-30" x="63.623047"/>
      </g>
     </g>
    </g>
    <g id="xtick_3">
     <g id="line2d_5">
      <path d="M 437.509722 166.86845 
L 437.509722 28.51845 
" clip-path="url(#p5e6639da83)" style="fill: none; stroke: #cbcbcb"/>
     </g>
     <g id="line2d_6"/>
     <g id="text_3">
      <!-- 40 -->
      <g transform="translate(428.602222 181.006262)scale(0.14 -0.14)">
       <defs>
        <path id="DejaVuSans-34" d="M 2419 4116 
L 825 1625 
L 2419 1625 
L 2419 4116 
z
M 2253 4666 
L 3047 4666 
L 3047 1625 
L 3713 1625 
L 3713 1100 
L 3047 1100 
L 3047 0 
L 2419 0 
L 2419 1100 
L 313 1100 
L 313 1709 
L 2253 4666 
z
" transform="scale(0.015625)"/>
       </defs>
       <use xlink:href="#DejaVuSans-34"/>
       <use xlink:href="#DejaVuSans-30" x="63.623047"/>
      </g>
     </g>
    </g>
    <g id="xtick_4">
     <g id="line2d_7">
      <path d="M 627.423708 166.86845 
L 627.423708 28.51845 
" clip-path="url(#p5e6639da83)" style="fill: none; stroke: #cbcbcb"/>
     </g>
     <g id="line2d_8"/>
     <g id="text_4">
      <!-- 60 -->
      <g transform="translate(618.516208 181.006262)scale(0.14 -0.14)">
       <defs>
        <path id="DejaVuSans-36" d="M 2113 2584 
Q 1688 2584 1439 2293 
Q 1191 2003 1191 1497 
Q 1191 994 1439 701 
Q 1688 409 2113 409 
Q 2538 409 2786 701 
Q 3034 994 3034 1497 
Q 3034 2003 2786 2293 
Q 2538 2584 2113 2584 
z
M 3366 4563 
L 3366 3988 
Q 3128 4100 2886 4159 
Q 2644 4219 2406 4219 
Q 1781 4219 1451 3797 
Q 1122 3375 1075 2522 
Q 1259 2794 1537 2939 
Q 1816 3084 2150 3084 
Q 2853 3084 3261 2657 
Q 3669 2231 3669 1497 
Q 3669 778 3244 343 
Q 2819 -91 2113 -91 
Q 1303 -91 875 529 
Q 447 1150 447 2328 
Q 447 3434 972 4092 
Q 1497 4750 2381 4750 
Q 2619 4750 2861 4703 
Q 3103 4656 3366 4563 
z
" transform="scale(0.015625)"/>
       </defs>
       <use xlink:href="#DejaVuSans-36"/>
       <use xlink:href="#DejaVuSans-30" x="63.623047"/>
      </g>
     </g>
    </g>
    <g id="xtick_5">
     <g id="line2d_9">
      <path d="M 817.337694 166.86845 
L 817.337694 28.51845 
" clip-path="url(#p5e6639da83)" style="fill: none; stroke: #cbcbcb"/>
     </g>
     <g id="line2d_10"/>
     <g id="text_5">
      <!-- 80 -->
      <g transform="translate(808.430194 181.006262)scale(0.14 -0.14)">
       <defs>
        <path id="DejaVuSans-38" d="M 2034 2216 
Q 1584 2216 1326 1975 
Q 1069 1734 1069 1313 
Q 1069 891 1326 650 
Q 1584 409 2034 409 
Q 2484 409 2743 651 
Q 3003 894 3003 1313 
Q 3003 1734 2745 1975 
Q 2488 2216 2034 2216 
z
M 1403 2484 
Q 997 2584 770 2862 
Q 544 3141 544 3541 
Q 544 4100 942 4425 
Q 1341 4750 2034 4750 
Q 2731 4750 3128 4425 
Q 3525 4100 3525 3541 
Q 3525 3141 3298 2862 
Q 3072 2584 2669 2484 
Q 3125 2378 3379 2068 
Q 3634 1759 3634 1313 
Q 3634 634 3220 271 
Q 2806 -91 2034 -91 
Q 1263 -91 848 271 
Q 434 634 434 1313 
Q 434 1759 690 2068 
Q 947 2378 1403 2484 
z
M 1172 3481 
Q 1172 3119 1398 2916 
Q 1625 2713 2034 2713 
Q 2441 2713 2670 2916 
Q 2900 3119 2900 3481 
Q 2900 3844 2670 4047 
Q 2441 4250 2034 4250 
Q 1625 4250 1398 4047 
Q 1172 3844 1172 3481 
z
" transform="scale(0.015625)"/>
       </defs>
       <use xlink:href="#DejaVuSans-38"/>
       <use xlink:href="#DejaVuSans-30" x="63.623047"/>
      </g>
     </g>
    </g>
    <g id="xtick_6">
     <g id="line2d_11">
      <path d="M 1007.25168 166.86845 
L 1007.25168 28.51845 
" clip-path="url(#p5e6639da83)" style="fill: none; stroke: #cbcbcb"/>
     </g>
     <g id="line2d_12"/>
     <g id="text_6">
      <!-- 100 -->
      <g transform="translate(993.89043 181.006262)scale(0.14 -0.14)">
       <defs>
        <path id="DejaVuSans-31" d="M 794 531 
L 1825 531 
L 1825 4091 
L 703 3866 
L 703 4441 
L 1819 4666 
L 2450 4666 
L 2450 531 
L 3481 531 
L 3481 0 
L 794 0 
L 794 531 
z
" transform="scale(0.015625)"/>
       </defs>
       <use xlink:href="#DejaVuSans-31"/>
       <use xlink:href="#DejaVuSans-30" x="63.623047"/>
       <use xlink:href="#DejaVuSans-30" x="127.246094"/>
      </g>
     </g>
    </g>
    <g id="xtick_7">
     <g id="line2d_13">
      <path d="M 1197.165666 166.86845 
L 1197.165666 28.51845 
" clip-path="url(#p5e6639da83)" style="fill: none; stroke: #cbcbcb"/>
     </g>
     <g id="line2d_14"/>
     <g id="text_7">
      <!-- 120 -->
      <g transform="translate(1183.804416 181.006262)scale(0.14 -0.14)">
       <use xlink:href="#DejaVuSans-31"/>
       <use xlink:href="#DejaVuSans-32" x="63.623047"/>
       <use xlink:href="#DejaVuSans-30" x="127.246094"/>
      </g>
     </g>
    </g>
    <g id="xtick_8">
     <g id="line2d_15">
      <path d="M 1387.079652 166.86845 
L 1387.079652 28.51845 
" clip-path="url(#p5e6639da83)" style="fill: none; stroke: #cbcbcb"/>
     </g>
     <g id="line2d_16"/>
     <g id="text_8">
      <!-- 140 -->
      <g transform="translate(1373.718402 181.006262)scale(0.14 -0.14)">
       <use xlink:href="#DejaVuSans-31"/>
       <use xlink:href="#DejaVuSans-34" x="63.623047"/>
       <use xlink:href="#DejaVuSans-30" x="127.246094"/>
      </g>
     </g>
    </g>
   </g>
   <g id="matplotlib.axis_2">
    <g id="ytick_1">
     <g id="line2d_17">
      <path d="M 57.68175 137.270582 
L 1415.56675 137.270582 
" clip-path="url(#p5e6639da83)" style="fill: none; stroke: #cbcbcb"/>
     </g>
     <g id="line2d_18"/>
     <g id="text_9">
      <!-- 200 -->
      <g transform="translate(27.45925 142.589489)scale(0.14 -0.14)">
       <use xlink:href="#DejaVuSans-32"/>
       <use xlink:href="#DejaVuSans-30" x="63.623047"/>
       <use xlink:href="#DejaVuSans-30" x="127.246094"/>
      </g>
     </g>
    </g>
    <g id="ytick_2">
     <g id="line2d_19">
      <path d="M 57.68175 88.709684 
L 1415.56675 88.709684 
" clip-path="url(#p5e6639da83)" style="fill: none; stroke: #cbcbcb"/>
     </g>
     <g id="line2d_20"/>
     <g id="text_10">
      <!-- 400 -->
      <g transform="translate(27.45925 94.02859)scale(0.14 -0.14)">
       <use xlink:href="#DejaVuSans-34"/>
       <use xlink:href="#DejaVuSans-30" x="63.623047"/>
       <use xlink:href="#DejaVuSans-30" x="127.246094"/>
      </g>
     </g>
    </g>
    <g id="ytick_3">
     <g id="line2d_21">
      <path d="M 57.68175 40.148785 
L 1415.56675 40.148785 
" clip-path="url(#p5e6639da83)" style="fill: none; stroke: #cbcbcb"/>
     </g>
     <g id="line2d_22"/>
     <g id="text_11">
      <!-- 600 -->
      <g transform="translate(27.45925 45.467691)scale(0.14 -0.14)">
       <use xlink:href="#DejaVuSans-36"/>
       <use xlink:href="#DejaVuSans-30" x="63.623047"/>
       <use xlink:href="#DejaVuSans-30" x="127.246094"/>
      </g>
     </g>
    </g>
   </g>
   <g id="line2d_23">
    <path d="M 57.68175 158.637378 
L 67.177449 157.180551 
L 76.673149 153.781288 
L 86.168848 154.509701 
L 95.664547 156.452137 
L 105.160247 153.052874 
L 114.655946 149.896416 
L 124.151645 149.896416 
L 133.647344 152.81007 
L 143.143044 156.937746 
L 152.638743 160.579814 
L 162.134442 157.180551 
L 171.630142 157.908964 
L 181.125841 155.238115 
L 190.62154 151.596047 
L 200.11724 153.052874 
L 209.612939 155.480919 
L 219.108638 149.653611 
L 228.604337 144.554717 
L 238.100037 144.554717 
L 247.595736 147.468371 
L 257.091435 153.538483 
L 266.587135 158.151769 
L 276.082834 151.838852 
L 295.074233 149.410807 
L 304.569932 142.612281 
L 314.065631 146.254349 
L 323.56133 144.069108 
L 333.05703 142.612281 
L 342.552729 137.513387 
L 352.048428 137.513387 
L 361.544128 141.155454 
L 371.039827 146.497153 
L 380.535526 150.382025 
L 390.031226 145.525935 
L 399.526925 144.311913 
L 409.022624 142.126672 
L 418.518323 138.970214 
L 428.014023 141.883868 
L 437.509722 141.398259 
L 447.005421 132.900101 
L 465.99682 127.072794 
L 475.492519 135.085342 
L 484.988219 139.455823 
L 494.483918 144.069108 
L 503.979617 138.727409 
L 513.475316 138.2418 
L 522.971016 138.2418 
L 532.466715 128.529621 
L 541.962414 128.772425 
L 551.458114 130.229252 
L 560.953813 126.829989 
L 570.449512 121.731095 
L 579.945212 119.788659 
L 589.440911 128.286816 
L 598.93661 134.599733 
L 608.432309 142.126672 
L 617.928009 137.027778 
L 627.423708 136.299364 
L 636.919407 140.184236 
L 646.415107 128.772425 
L 655.910806 130.714861 
L 665.406505 129.01523 
L 674.902205 121.731095 
L 684.397904 112.504524 
L 693.893603 114.689764 
L 703.389302 122.945117 
L 712.885002 130.229252 
L 722.380701 136.542169 
L 731.8764 130.229252 
L 741.3721 127.072794 
L 750.867799 129.258034 
L 760.363498 121.002681 
L 769.859198 120.517072 
L 779.354897 120.274268 
L 788.850596 109.348066 
L 798.346295 97.450646 
L 807.841995 101.578322 
L 817.337694 110.076479 
L 826.833393 119.30305 
L 836.329093 128.286816 
L 845.824792 118.331832 
L 855.320491 116.875005 
L 864.816191 118.574636 
L 874.31189 108.862457 
L 883.807589 109.833675 
L 893.303288 108.619652 
L 902.798988 95.022601 
L 912.294687 85.553225 
L 921.790386 87.495661 
L 931.286086 99.635886 
L 940.781785 111.533306 
L 950.277484 120.031463 
L 959.773184 111.533306 
L 969.268883 109.348066 
L 978.764582 112.747329 
L 988.260281 99.393081 
L 997.755981 101.335517 
L 1007.25168 99.635886 
L 1016.747379 83.367985 
L 1026.243079 72.927392 
L 1035.738778 72.441783 
L 1045.234477 87.738466 
L 1054.730177 101.578322 
L 1064.225876 111.776111 
L 1073.721575 104.249171 
L 1083.217274 103.277953 
L 1092.712974 108.619652 
L 1102.208673 97.936254 
L 1111.704372 101.335517 
L 1121.200072 97.69345 
L 1130.695771 80.211527 
L 1140.19147 66.614475 
L 1149.68717 63.215212 
L 1159.182869 87.738466 
L 1168.678568 98.664668 
L 1178.174267 110.562088 
L 1187.669967 104.006367 
L 1197.165666 98.421863 
L 1206.661365 102.792344 
L 1216.157065 87.252857 
L 1225.652764 89.680902 
L 1235.148463 83.853594 
L 1244.644163 71.22776 
L 1254.139862 52.774619 
L 1263.635561 50.103769 
L 1273.13126 73.413001 
L 1282.62696 87.010052 
L 1292.122659 97.936254 
L 1301.618358 87.495661 
L 1311.114058 84.582007 
L 1320.609757 90.894924 
L 1330.105456 84.096398 
L 1339.601156 73.89861 
L 1349.096855 71.22776 
L 1358.592554 55.931077 
L 1368.088253 34.807086 
L 1377.583953 38.691958 
L 1387.079652 62.486799 
L 1396.575351 73.89861 
L 1406.071051 91.137729 
L 1415.56675 80.93994 
L 1415.56675 80.93994 
" clip-path="url(#p5e6639da83)" style="fill: none; stroke: #008fd5; stroke-width: 4"/>
   </g>
   <g id="patch_3">
    <path d="M 57.68175 166.86845 
L 57.68175 28.51845 
" style="fill: none; stroke: #f0f0f0; stroke-width: 3; stroke-linejoin: miter; stroke-linecap: square"/>
   </g>
   <g id="patch_4">
    <path d="M 1415.56675 166.86845 
L 1415.56675 28.51845 
" style="fill: none; stroke: #f0f0f0; stroke-width: 3; stroke-linejoin: miter; stroke-linecap: square"/>
   </g>
   <g id="patch_5">
    <path d="M 57.68175 166.86845 
L 1415.56675 166.86845 
" style="fill: none; stroke: #f0f0f0; stroke-width: 3; stroke-linejoin: miter; stroke-linecap: square"/>
   </g>
   <g id="patch_6">
    <path d="M 57.68175 28.51845 
L 1415.56675 28.51845 
" style="fill: none; stroke: #f0f0f0; stroke-width: 3; stroke-linejoin: miter; stroke-linecap: square"/>
   </g>
   <g id="text_12">
    <!-- passengers -->
    <g transform="translate(678.958775 22.51845)scale(0.2016 -0.2016)">
     <defs>
      <path id="DejaVuSans-70" d="M 1159 525 
L 1159 -1331 
L 581 -1331 
L 581 3500 
L 1159 3500 
L 1159 2969 
Q 1341 3281 1617 3432 
Q 1894 3584 2278 3584 
Q 2916 3584 3314 3078 
Q 3713 2572 3713 1747 
Q 3713 922 3314 415 
Q 2916 -91 2278 -91 
Q 1894 -91 1617 61 
Q 1341 213 1159 525 
z
M 3116 1747 
Q 3116 2381 2855 2742 
Q 2594 3103 2138 3103 
Q 1681 3103 1420 2742 
Q 1159 2381 1159 1747 
Q 1159 1113 1420 752 
Q 1681 391 2138 391 
Q 2594 391 2855 752 
Q 3116 1113 3116 1747 
z
" transform="scale(0.015625)"/>
      <path id="DejaVuSans-61" d="M 2194 1759 
Q 1497 1759 1228 1600 
Q 959 1441 959 1056 
Q 959 750 1161 570 
Q 1363 391 1709 391 
Q 2188 391 2477 730 
Q 2766 1069 2766 1631 
L 2766 1759 
L 2194 1759 
z
M 3341 1997 
L 3341 0 
L 2766 0 
L 2766 531 
Q 2569 213 2275 61 
Q 1981 -91 1556 -91 
Q 1019 -91 701 211 
Q 384 513 384 1019 
Q 384 1609 779 1909 
Q 1175 2209 1959 2209 
L 2766 2209 
L 2766 2266 
Q 2766 2663 2505 2880 
Q 2244 3097 1772 3097 
Q 1472 3097 1187 3025 
Q 903 2953 641 2809 
L 641 3341 
Q 956 3463 1253 3523 
Q 1550 3584 1831 3584 
Q 2591 3584 2966 3190 
Q 3341 2797 3341 1997 
z
" transform="scale(0.015625)"/>
      <path id="DejaVuSans-73" d="M 2834 3397 
L 2834 2853 
Q 2591 2978 2328 3040 
Q 2066 3103 1784 3103 
Q 1356 3103 1142 2972 
Q 928 2841 928 2578 
Q 928 2378 1081 2264 
Q 1234 2150 1697 2047 
L 1894 2003 
Q 2506 1872 2764 1633 
Q 3022 1394 3022 966 
Q 3022 478 2636 193 
Q 2250 -91 1575 -91 
Q 1294 -91 989 -36 
Q 684 19 347 128 
L 347 722 
Q 666 556 975 473 
Q 1284 391 1588 391 
Q 1994 391 2212 530 
Q 2431 669 2431 922 
Q 2431 1156 2273 1281 
Q 2116 1406 1581 1522 
L 1381 1569 
Q 847 1681 609 1914 
Q 372 2147 372 2553 
Q 372 3047 722 3315 
Q 1072 3584 1716 3584 
Q 2034 3584 2315 3537 
Q 2597 3491 2834 3397 
z
" transform="scale(0.015625)"/>
      <path id="DejaVuSans-65" d="M 3597 1894 
L 3597 1613 
L 953 1613 
Q 991 1019 1311 708 
Q 1631 397 2203 397 
Q 2534 397 2845 478 
Q 3156 559 3463 722 
L 3463 178 
Q 3153 47 2828 -22 
Q 2503 -91 2169 -91 
Q 1331 -91 842 396 
Q 353 884 353 1716 
Q 353 2575 817 3079 
Q 1281 3584 2069 3584 
Q 2775 3584 3186 3129 
Q 3597 2675 3597 1894 
z
M 3022 2063 
Q 3016 2534 2758 2815 
Q 2500 3097 2075 3097 
Q 1594 3097 1305 2825 
Q 1016 2553 972 2059 
L 3022 2063 
z
" transform="scale(0.015625)"/>
      <path id="DejaVuSans-6e" d="M 3513 2113 
L 3513 0 
L 2938 0 
L 2938 2094 
Q 2938 2591 2744 2837 
Q 2550 3084 2163 3084 
Q 1697 3084 1428 2787 
Q 1159 2491 1159 1978 
L 1159 0 
L 581 0 
L 581 3500 
L 1159 3500 
L 1159 2956 
Q 1366 3272 1645 3428 
Q 1925 3584 2291 3584 
Q 2894 3584 3203 3211 
Q 3513 2838 3513 2113 
z
" transform="scale(0.015625)"/>
      <path id="DejaVuSans-67" d="M 2906 1791 
Q 2906 2416 2648 2759 
Q 2391 3103 1925 3103 
Q 1463 3103 1205 2759 
Q 947 2416 947 1791 
Q 947 1169 1205 825 
Q 1463 481 1925 481 
Q 2391 481 2648 825 
Q 2906 1169 2906 1791 
z
M 3481 434 
Q 3481 -459 3084 -895 
Q 2688 -1331 1869 -1331 
Q 1566 -1331 1297 -1286 
Q 1028 -1241 775 -1147 
L 775 -588 
Q 1028 -725 1275 -790 
Q 1522 -856 1778 -856 
Q 2344 -856 2625 -561 
Q 2906 -266 2906 331 
L 2906 616 
Q 2728 306 2450 153 
Q 2172 0 1784 0 
Q 1141 0 747 490 
Q 353 981 353 1791 
Q 353 2603 747 3093 
Q 1141 3584 1784 3584 
Q 2172 3584 2450 3431 
Q 2728 3278 2906 2969 
L 2906 3500 
L 3481 3500 
L 3481 434 
z
" transform="scale(0.015625)"/>
      <path id="DejaVuSans-72" d="M 2631 2963 
Q 2534 3019 2420 3045 
Q 2306 3072 2169 3072 
Q 1681 3072 1420 2755 
Q 1159 2438 1159 1844 
L 1159 0 
L 581 0 
L 581 3500 
L 1159 3500 
L 1159 2956 
Q 1341 3275 1631 3429 
Q 1922 3584 2338 3584 
Q 2397 3584 2469 3576 
Q 2541 3569 2628 3553 
L 2631 2963 
z
" transform="scale(0.015625)"/>
     </defs>
     <use xlink:href="#DejaVuSans-70"/>
     <use xlink:href="#DejaVuSans-61" x="63.476562"/>
     <use xlink:href="#DejaVuSans-73" x="124.755859"/>
     <use xlink:href="#DejaVuSans-73" x="176.855469"/>
     <use xlink:href="#DejaVuSans-65" x="228.955078"/>
     <use xlink:href="#DejaVuSans-6e" x="290.478516"/>
     <use xlink:href="#DejaVuSans-67" x="353.857422"/>
     <use xlink:href="#DejaVuSans-65" x="417.333984"/>
     <use xlink:href="#DejaVuSans-72" x="478.857422"/>
     <use xlink:href="#DejaVuSans-73" x="519.970703"/>
    </g>
   </g>
  </g>
  <g id="axes_2">
   <g id="patch_7">
    <path d="M 57.68175 337.83845 
L 1415.56675 337.83845 
L 1415.56675 199.48845 
L 57.68175 199.48845 
z
" style="fill: #f0f0f0"/>
   </g>
   <g id="matplotlib.axis_3">
    <g id="xtick_9">
     <g id="line2d_24">
      <path d="M 57.68175 337.83845 
L 57.68175 199.48845 
" clip-path="url(#p18d4d63d33)" style="fill: none; stroke: #cbcbcb"/>
     </g>
     <g id="line2d_25"/>
     <g id="text_13">
      <!-- 0 -->
      <g transform="translate(53.228 351.976262)scale(0.14 -0.14)">
       <use xlink:href="#DejaVuSans-30"/>
      </g>
     </g>
    </g>
    <g id="xtick_10">
     <g id="line2d_26">
      <path d="M 247.595736 337.83845 
L 247.595736 199.48845 
" clip-path="url(#p18d4d63d33)" style="fill: none; stroke: #cbcbcb"/>
     </g>
     <g id="line2d_27"/>
     <g id="text_14">
      <!-- 20 -->
      <g transform="translate(238.688236 351.976262)scale(0.14 -0.14)">
       <use xlink:href="#DejaVuSans-32"/>
       <use xlink:href="#DejaVuSans-30" x="63.623047"/>
      </g>
     </g>
    </g>
    <g id="xtick_11">
     <g id="line2d_28">
      <path d="M 437.509722 337.83845 
L 437.509722 199.48845 
" clip-path="url(#p18d4d63d33)" style="fill: none; stroke: #cbcbcb"/>
     </g>
     <g id="line2d_29"/>
     <g id="text_15">
      <!-- 40 -->
      <g transform="translate(428.602222 351.976262)scale(0.14 -0.14)">
       <use xlink:href="#DejaVuSans-34"/>
       <use xlink:href="#DejaVuSans-30" x="63.623047"/>
      </g>
     </g>
    </g>
    <g id="xtick_12">
     <g id="line2d_30">
      <path d="M 627.423708 337.83845 
L 627.423708 199.48845 
" clip-path="url(#p18d4d63d33)" style="fill: none; stroke: #cbcbcb"/>
     </g>
     <g id="line2d_31"/>
     <g id="text_16">
      <!-- 60 -->
      <g transform="translate(618.516208 351.976262)scale(0.14 -0.14)">
       <use xlink:href="#DejaVuSans-36"/>
       <use xlink:href="#DejaVuSans-30" x="63.623047"/>
      </g>
     </g>
    </g>
    <g id="xtick_13">
     <g id="line2d_32">
      <path d="M 817.337694 337.83845 
L 817.337694 199.48845 
" clip-path="url(#p18d4d63d33)" style="fill: none; stroke: #cbcbcb"/>
     </g>
     <g id="line2d_33"/>
     <g id="text_17">
      <!-- 80 -->
      <g transform="translate(808.430194 351.976262)scale(0.14 -0.14)">
       <use xlink:href="#DejaVuSans-38"/>
       <use xlink:href="#DejaVuSans-30" x="63.623047"/>
      </g>
     </g>
    </g>
    <g id="xtick_14">
     <g id="line2d_34">
      <path d="M 1007.25168 337.83845 
L 1007.25168 199.48845 
" clip-path="url(#p18d4d63d33)" style="fill: none; stroke: #cbcbcb"/>
     </g>
     <g id="line2d_35"/>
     <g id="text_18">
      <!-- 100 -->
      <g transform="translate(993.89043 351.976262)scale(0.14 -0.14)">
       <use xlink:href="#DejaVuSans-31"/>
       <use xlink:href="#DejaVuSans-30" x="63.623047"/>
       <use xlink:href="#DejaVuSans-30" x="127.246094"/>
      </g>
     </g>
    </g>
    <g id="xtick_15">
     <g id="line2d_36">
      <path d="M 1197.165666 337.83845 
L 1197.165666 199.48845 
" clip-path="url(#p18d4d63d33)" style="fill: none; stroke: #cbcbcb"/>
     </g>
     <g id="line2d_37"/>
     <g id="text_19">
      <!-- 120 -->
      <g transform="translate(1183.804416 351.976262)scale(0.14 -0.14)">
       <use xlink:href="#DejaVuSans-31"/>
       <use xlink:href="#DejaVuSans-32" x="63.623047"/>
       <use xlink:href="#DejaVuSans-30" x="127.246094"/>
      </g>
     </g>
    </g>
    <g id="xtick_16">
     <g id="line2d_38">
      <path d="M 1387.079652 337.83845 
L 1387.079652 199.48845 
" clip-path="url(#p18d4d63d33)" style="fill: none; stroke: #cbcbcb"/>
     </g>
     <g id="line2d_39"/>
     <g id="text_20">
      <!-- 140 -->
      <g transform="translate(1373.718402 351.976262)scale(0.14 -0.14)">
       <use xlink:href="#DejaVuSans-31"/>
       <use xlink:href="#DejaVuSans-34" x="63.623047"/>
       <use xlink:href="#DejaVuSans-30" x="127.246094"/>
      </g>
     </g>
    </g>
   </g>
   <g id="matplotlib.axis_4">
    <g id="ytick_4">
     <g id="line2d_40">
      <path d="M 57.68175 305.110153 
L 1415.56675 305.110153 
" clip-path="url(#p18d4d63d33)" style="fill: none; stroke: #cbcbcb"/>
     </g>
     <g id="line2d_41"/>
     <g id="text_21">
      <!-- 200 -->
      <g transform="translate(27.45925 310.429059)scale(0.14 -0.14)">
       <use xlink:href="#DejaVuSans-32"/>
       <use xlink:href="#DejaVuSans-30" x="63.623047"/>
       <use xlink:href="#DejaVuSans-30" x="127.246094"/>
      </g>
     </g>
    </g>
    <g id="ytick_5">
     <g id="line2d_42">
      <path d="M 57.68175 268.99451 
L 1415.56675 268.99451 
" clip-path="url(#p18d4d63d33)" style="fill: none; stroke: #cbcbcb"/>
     </g>
     <g id="line2d_43"/>
     <g id="text_22">
      <!-- 300 -->
      <g transform="translate(27.45925 274.313416)scale(0.14 -0.14)">
       <defs>
        <path id="DejaVuSans-33" d="M 2597 2516 
Q 3050 2419 3304 2112 
Q 3559 1806 3559 1356 
Q 3559 666 3084 287 
Q 2609 -91 1734 -91 
Q 1441 -91 1130 -33 
Q 819 25 488 141 
L 488 750 
Q 750 597 1062 519 
Q 1375 441 1716 441 
Q 2309 441 2620 675 
Q 2931 909 2931 1356 
Q 2931 1769 2642 2001 
Q 2353 2234 1838 2234 
L 1294 2234 
L 1294 2753 
L 1863 2753 
Q 2328 2753 2575 2939 
Q 2822 3125 2822 3475 
Q 2822 3834 2567 4026 
Q 2313 4219 1838 4219 
Q 1578 4219 1281 4162 
Q 984 4106 628 3988 
L 628 4550 
Q 988 4650 1302 4700 
Q 1616 4750 1894 4750 
Q 2613 4750 3031 4423 
Q 3450 4097 3450 3541 
Q 3450 3153 3228 2886 
Q 3006 2619 2597 2516 
z
" transform="scale(0.015625)"/>
       </defs>
       <use xlink:href="#DejaVuSans-33"/>
       <use xlink:href="#DejaVuSans-30" x="63.623047"/>
       <use xlink:href="#DejaVuSans-30" x="127.246094"/>
      </g>
     </g>
    </g>
    <g id="ytick_6">
     <g id="line2d_44">
      <path d="M 57.68175 232.878867 
L 1415.56675 232.878867 
" clip-path="url(#p18d4d63d33)" style="fill: none; stroke: #cbcbcb"/>
     </g>
     <g id="line2d_45"/>
     <g id="text_23">
      <!-- 400 -->
      <g transform="translate(27.45925 238.197773)scale(0.14 -0.14)">
       <use xlink:href="#DejaVuSans-34"/>
       <use xlink:href="#DejaVuSans-30" x="63.623047"/>
       <use xlink:href="#DejaVuSans-30" x="127.246094"/>
      </g>
     </g>
    </g>
    <g id="text_24">
     <!-- Trend -->
     <g transform="translate(19.965375 291.644012)rotate(-90)scale(0.168 -0.168)">
      <defs>
       <path id="DejaVuSans-54" d="M -19 4666 
L 3928 4666 
L 3928 4134 
L 2272 4134 
L 2272 0 
L 1638 0 
L 1638 4134 
L -19 4134 
L -19 4666 
z
" transform="scale(0.015625)"/>
       <path id="DejaVuSans-64" d="M 2906 2969 
L 2906 4863 
L 3481 4863 
L 3481 0 
L 2906 0 
L 2906 525 
Q 2725 213 2448 61 
Q 2172 -91 1784 -91 
Q 1150 -91 751 415 
Q 353 922 353 1747 
Q 353 2572 751 3078 
Q 1150 3584 1784 3584 
Q 2172 3584 2448 3432 
Q 2725 3281 2906 2969 
z
M 947 1747 
Q 947 1113 1208 752 
Q 1469 391 1925 391 
Q 2381 391 2643 752 
Q 2906 1113 2906 1747 
Q 2906 2381 2643 2742 
Q 2381 3103 1925 3103 
Q 1469 3103 1208 2742 
Q 947 2381 947 1747 
z
" transform="scale(0.015625)"/>
      </defs>
      <use xlink:href="#DejaVuSans-54"/>
      <use xlink:href="#DejaVuSans-72" x="46.333984"/>
      <use xlink:href="#DejaVuSans-65" x="85.197266"/>
      <use xlink:href="#DejaVuSans-6e" x="146.720703"/>
      <use xlink:href="#DejaVuSans-64" x="210.099609"/>
     </g>
    </g>
   </g>
   <g id="line2d_46">
    <path d="M 114.655946 331.549814 
L 133.647344 331.128464 
L 162.134442 330.481393 
L 171.630142 329.939658 
L 190.62154 328.615418 
L 200.11724 328.073683 
L 209.612939 327.712527 
L 219.108638 327.230985 
L 238.100037 325.635877 
L 257.091435 323.739806 
L 276.082834 321.46753 
L 333.05703 316.275906 
L 361.544128 313.973534 
L 380.535526 313.040547 
L 390.031226 312.273089 
L 418.518323 309.067826 
L 456.501121 305.817418 
L 465.99682 305.200442 
L 475.492519 304.312599 
L 494.483918 301.348107 
L 503.979617 300.279686 
L 541.962414 296.833652 
L 551.458114 296.412302 
L 570.449512 295.960857 
L 579.945212 295.960857 
L 608.432309 296.276869 
L 617.928009 295.885616 
L 636.919407 294.10993 
L 674.902205 291.476498 
L 684.397904 290.483318 
L 703.389302 288.075608 
L 722.380701 285.788284 
L 731.8764 284.479092 
L 760.363498 279.422902 
L 769.859198 277.94818 
L 788.850596 275.510374 
L 836.329093 268.633354 
L 874.31189 262.267972 
L 883.807589 261.139358 
L 902.798988 259.21319 
L 931.286086 256.549661 
L 950.277484 254.352626 
L 959.773184 253.073531 
L 969.268883 251.568712 
L 988.260281 248.182871 
L 997.755981 246.828534 
L 1007.25168 245.69992 
L 1016.747379 244.736836 
L 1026.243079 243.909186 
L 1035.738778 243.277163 
L 1045.234477 242.931054 
L 1064.225876 242.72038 
L 1073.721575 242.404368 
L 1083.217274 241.817489 
L 1092.712974 240.854405 
L 1102.208673 240.282574 
L 1130.695771 239.755887 
L 1140.19147 239.439875 
L 1149.68717 238.777755 
L 1159.182869 237.754479 
L 1168.678568 236.370046 
L 1178.174267 234.789986 
L 1197.165666 231.960928 
L 1225.652764 226.979979 
L 1235.148463 225.47516 
L 1254.139862 221.788355 
L 1263.635561 220.193247 
L 1273.13126 219.26026 
L 1282.62696 218.086501 
L 1301.618358 214.595323 
L 1311.114058 212.533721 
L 1320.609757 210.712891 
L 1349.096855 206.604737 
L 1358.592554 205.777086 
L 1358.592554 205.777086 
" clip-path="url(#p18d4d63d33)" style="fill: none; stroke: #008fd5; stroke-width: 4"/>
   </g>
   <g id="patch_8">
    <path d="M 57.68175 337.83845 
L 57.68175 199.48845 
" style="fill: none; stroke: #f0f0f0; stroke-width: 3; stroke-linejoin: miter; stroke-linecap: square"/>
   </g>
   <g id="patch_9">
    <path d="M 1415.56675 337.83845 
L 1415.56675 199.48845 
" style="fill: none; stroke: #f0f0f0; stroke-width: 3; stroke-linejoin: miter; stroke-linecap: square"/>
   </g>
   <g id="patch_10">
    <path d="M 57.68175 337.83845 
L 1415.56675 337.83845 
" style="fill: none; stroke: #f0f0f0; stroke-width: 3; stroke-linejoin: miter; stroke-linecap: square"/>
   </g>
   <g id="patch_11">
    <path d="M 57.68175 199.48845 
L 1415.56675 199.48845 
" style="fill: none; stroke: #f0f0f0; stroke-width: 3; stroke-linejoin: miter; stroke-linecap: square"/>
   </g>
  </g>
  <g id="axes_3">
   <g id="patch_12">
    <path d="M 57.68175 508.80845 
L 1415.56675 508.80845 
L 1415.56675 370.45845 
L 57.68175 370.45845 
z
" style="fill: #f0f0f0"/>
   </g>
   <g id="matplotlib.axis_5">
    <g id="xtick_17">
     <g id="line2d_47">
      <path d="M 57.68175 508.80845 
L 57.68175 370.45845 
" clip-path="url(#p9c5af142f4)" style="fill: none; stroke: #cbcbcb"/>
     </g>
     <g id="line2d_48"/>
     <g id="text_25">
      <!-- 0 -->
      <g transform="translate(53.228 522.946262)scale(0.14 -0.14)">
       <use xlink:href="#DejaVuSans-30"/>
      </g>
     </g>
    </g>
    <g id="xtick_18">
     <g id="line2d_49">
      <path d="M 247.595736 508.80845 
L 247.595736 370.45845 
" clip-path="url(#p9c5af142f4)" style="fill: none; stroke: #cbcbcb"/>
     </g>
     <g id="line2d_50"/>
     <g id="text_26">
      <!-- 20 -->
      <g transform="translate(238.688236 522.946262)scale(0.14 -0.14)">
       <use xlink:href="#DejaVuSans-32"/>
       <use xlink:href="#DejaVuSans-30" x="63.623047"/>
      </g>
     </g>
    </g>
    <g id="xtick_19">
     <g id="line2d_51">
      <path d="M 437.509722 508.80845 
L 437.509722 370.45845 
" clip-path="url(#p9c5af142f4)" style="fill: none; stroke: #cbcbcb"/>
     </g>
     <g id="line2d_52"/>
     <g id="text_27">
      <!-- 40 -->
      <g transform="translate(428.602222 522.946262)scale(0.14 -0.14)">
       <use xlink:href="#DejaVuSans-34"/>
       <use xlink:href="#DejaVuSans-30" x="63.623047"/>
      </g>
     </g>
    </g>
    <g id="xtick_20">
     <g id="line2d_53">
      <path d="M 627.423708 508.80845 
L 627.423708 370.45845 
" clip-path="url(#p9c5af142f4)" style="fill: none; stroke: #cbcbcb"/>
     </g>
     <g id="line2d_54"/>
     <g id="text_28">
      <!-- 60 -->
      <g transform="translate(618.516208 522.946262)scale(0.14 -0.14)">
       <use xlink:href="#DejaVuSans-36"/>
       <use xlink:href="#DejaVuSans-30" x="63.623047"/>
      </g>
     </g>
    </g>
    <g id="xtick_21">
     <g id="line2d_55">
      <path d="M 817.337694 508.80845 
L 817.337694 370.45845 
" clip-path="url(#p9c5af142f4)" style="fill: none; stroke: #cbcbcb"/>
     </g>
     <g id="line2d_56"/>
     <g id="text_29">
      <!-- 80 -->
      <g transform="translate(808.430194 522.946262)scale(0.14 -0.14)">
       <use xlink:href="#DejaVuSans-38"/>
       <use xlink:href="#DejaVuSans-30" x="63.623047"/>
      </g>
     </g>
    </g>
    <g id="xtick_22">
     <g id="line2d_57">
      <path d="M 1007.25168 508.80845 
L 1007.25168 370.45845 
" clip-path="url(#p9c5af142f4)" style="fill: none; stroke: #cbcbcb"/>
     </g>
     <g id="line2d_58"/>
     <g id="text_30">
      <!-- 100 -->
      <g transform="translate(993.89043 522.946262)scale(0.14 -0.14)">
       <use xlink:href="#DejaVuSans-31"/>
       <use xlink:href="#DejaVuSans-30" x="63.623047"/>
       <use xlink:href="#DejaVuSans-30" x="127.246094"/>
      </g>
     </g>
    </g>
    <g id="xtick_23">
     <g id="line2d_59">
      <path d="M 1197.165666 508.80845 
L 1197.165666 370.45845 
" clip-path="url(#p9c5af142f4)" style="fill: none; stroke: #cbcbcb"/>
     </g>
     <g id="line2d_60"/>
     <g id="text_31">
      <!-- 120 -->
      <g transform="translate(1183.804416 522.946262)scale(0.14 -0.14)">
       <use xlink:href="#DejaVuSans-31"/>
       <use xlink:href="#DejaVuSans-32" x="63.623047"/>
       <use xlink:href="#DejaVuSans-30" x="127.246094"/>
      </g>
     </g>
    </g>
    <g id="xtick_24">
     <g id="line2d_61">
      <path d="M 1387.079652 508.80845 
L 1387.079652 370.45845 
" clip-path="url(#p9c5af142f4)" style="fill: none; stroke: #cbcbcb"/>
     </g>
     <g id="line2d_62"/>
     <g id="text_32">
      <!-- 140 -->
      <g transform="translate(1373.718402 522.946262)scale(0.14 -0.14)">
       <use xlink:href="#DejaVuSans-31"/>
       <use xlink:href="#DejaVuSans-34" x="63.623047"/>
       <use xlink:href="#DejaVuSans-30" x="127.246094"/>
      </g>
     </g>
    </g>
   </g>
   <g id="matplotlib.axis_6">
    <g id="ytick_7">
     <g id="line2d_63">
      <path d="M 57.68175 502.868141 
L 1415.56675 502.868141 
" clip-path="url(#p9c5af142f4)" style="fill: none; stroke: #cbcbcb"/>
     </g>
     <g id="line2d_64"/>
     <g id="text_33">
      <!-- 0.8 -->
      <g transform="translate(31.917375 508.187047)scale(0.14 -0.14)">
       <defs>
        <path id="DejaVuSans-2e" d="M 684 794 
L 1344 794 
L 1344 0 
L 684 0 
L 684 794 
z
" transform="scale(0.015625)"/>
       </defs>
       <use xlink:href="#DejaVuSans-30"/>
       <use xlink:href="#DejaVuSans-2e" x="63.623047"/>
       <use xlink:href="#DejaVuSans-38" x="95.410156"/>
      </g>
     </g>
    </g>
    <g id="ytick_8">
     <g id="line2d_65">
      <path d="M 57.68175 443.733495 
L 1415.56675 443.733495 
" clip-path="url(#p9c5af142f4)" style="fill: none; stroke: #cbcbcb"/>
     </g>
     <g id="line2d_66"/>
     <g id="text_34">
      <!-- 1.0 -->
      <g transform="translate(31.917375 449.052402)scale(0.14 -0.14)">
       <use xlink:href="#DejaVuSans-31"/>
       <use xlink:href="#DejaVuSans-2e" x="63.623047"/>
       <use xlink:href="#DejaVuSans-30" x="95.410156"/>
      </g>
     </g>
    </g>
    <g id="ytick_9">
     <g id="line2d_67">
      <path d="M 57.68175 384.598849 
L 1415.56675 384.598849 
" clip-path="url(#p9c5af142f4)" style="fill: none; stroke: #cbcbcb"/>
     </g>
     <g id="line2d_68"/>
     <g id="text_35">
      <!-- 1.2 -->
      <g transform="translate(31.917375 389.917756)scale(0.14 -0.14)">
       <use xlink:href="#DejaVuSans-31"/>
       <use xlink:href="#DejaVuSans-2e" x="63.623047"/>
       <use xlink:href="#DejaVuSans-32" x="95.410156"/>
      </g>
     </g>
    </g>
    <g id="text_36">
     <!-- Seasonal -->
     <g transform="translate(24.4235 477.602762)rotate(-90)scale(0.168 -0.168)">
      <defs>
       <path id="DejaVuSans-53" d="M 3425 4513 
L 3425 3897 
Q 3066 4069 2747 4153 
Q 2428 4238 2131 4238 
Q 1616 4238 1336 4038 
Q 1056 3838 1056 3469 
Q 1056 3159 1242 3001 
Q 1428 2844 1947 2747 
L 2328 2669 
Q 3034 2534 3370 2195 
Q 3706 1856 3706 1288 
Q 3706 609 3251 259 
Q 2797 -91 1919 -91 
Q 1588 -91 1214 -16 
Q 841 59 441 206 
L 441 856 
Q 825 641 1194 531 
Q 1563 422 1919 422 
Q 2459 422 2753 634 
Q 3047 847 3047 1241 
Q 3047 1584 2836 1778 
Q 2625 1972 2144 2069 
L 1759 2144 
Q 1053 2284 737 2584 
Q 422 2884 422 3419 
Q 422 4038 858 4394 
Q 1294 4750 2059 4750 
Q 2388 4750 2728 4690 
Q 3069 4631 3425 4513 
z
" transform="scale(0.015625)"/>
       <path id="DejaVuSans-6f" d="M 1959 3097 
Q 1497 3097 1228 2736 
Q 959 2375 959 1747 
Q 959 1119 1226 758 
Q 1494 397 1959 397 
Q 2419 397 2687 759 
Q 2956 1122 2956 1747 
Q 2956 2369 2687 2733 
Q 2419 3097 1959 3097 
z
M 1959 3584 
Q 2709 3584 3137 3096 
Q 3566 2609 3566 1747 
Q 3566 888 3137 398 
Q 2709 -91 1959 -91 
Q 1206 -91 779 398 
Q 353 888 353 1747 
Q 353 2609 779 3096 
Q 1206 3584 1959 3584 
z
" transform="scale(0.015625)"/>
       <path id="DejaVuSans-6c" d="M 603 4863 
L 1178 4863 
L 1178 0 
L 603 0 
L 603 4863 
z
" transform="scale(0.015625)"/>
      </defs>
      <use xlink:href="#DejaVuSans-53"/>
      <use xlink:href="#DejaVuSans-65" x="63.476562"/>
      <use xlink:href="#DejaVuSans-61" x="125"/>
      <use xlink:href="#DejaVuSans-73" x="186.279297"/>
      <use xlink:href="#DejaVuSans-6f" x="238.378906"/>
      <use xlink:href="#DejaVuSans-6e" x="299.560547"/>
      <use xlink:href="#DejaVuSans-61" x="362.939453"/>
      <use xlink:href="#DejaVuSans-6c" x="424.21875"/>
     </g>
    </g>
   </g>
   <g id="line2d_69">
    <path d="M 57.68175 470.275972 
L 67.177449 478.142372 
L 76.673149 441.555481 
L 86.168848 450.857442 
L 95.664547 449.239514 
L 105.160247 410.388702 
L 114.655946 376.747086 
L 124.151645 378.711709 
L 133.647344 425.84765 
L 143.143044 466.867785 
L 152.638743 502.519814 
L 162.134442 473.648415 
L 171.630142 470.275972 
L 181.125841 478.142372 
L 190.62154 441.555481 
L 200.11724 450.857442 
L 209.612939 449.239514 
L 219.108638 410.388702 
L 228.604337 376.747086 
L 238.100037 378.711709 
L 247.595736 425.84765 
L 257.091435 466.867785 
L 266.587135 502.519814 
L 276.082834 473.648415 
L 285.578533 470.275972 
L 295.074233 478.142372 
L 304.569932 441.555481 
L 314.065631 450.857442 
L 323.56133 449.239514 
L 333.05703 410.388702 
L 342.552729 376.747086 
L 352.048428 378.711709 
L 361.544128 425.84765 
L 371.039827 466.867785 
L 380.535526 502.519814 
L 390.031226 473.648415 
L 399.526925 470.275972 
L 409.022624 478.142372 
L 418.518323 441.555481 
L 428.014023 450.857442 
L 437.509722 449.239514 
L 447.005421 410.388702 
L 456.501121 376.747086 
L 465.99682 378.711709 
L 475.492519 425.84765 
L 484.988219 466.867785 
L 494.483918 502.519814 
L 503.979617 473.648415 
L 513.475316 470.275972 
L 522.971016 478.142372 
L 532.466715 441.555481 
L 541.962414 450.857442 
L 551.458114 449.239514 
L 560.953813 410.388702 
L 570.449512 376.747086 
L 579.945212 378.711709 
L 589.440911 425.84765 
L 598.93661 466.867785 
L 608.432309 502.519814 
L 617.928009 473.648415 
L 627.423708 470.275972 
L 636.919407 478.142372 
L 646.415107 441.555481 
L 655.910806 450.857442 
L 665.406505 449.239514 
L 674.902205 410.388702 
L 684.397904 376.747086 
L 693.893603 378.711709 
L 703.389302 425.84765 
L 712.885002 466.867785 
L 722.380701 502.519814 
L 731.8764 473.648415 
L 741.3721 470.275972 
L 750.867799 478.142372 
L 760.363498 441.555481 
L 769.859198 450.857442 
L 779.354897 449.239514 
L 788.850596 410.388702 
L 798.346295 376.747086 
L 807.841995 378.711709 
L 817.337694 425.84765 
L 826.833393 466.867785 
L 836.329093 502.519814 
L 845.824792 473.648415 
L 855.320491 470.275972 
L 864.816191 478.142372 
L 874.31189 441.555481 
L 883.807589 450.857442 
L 893.303288 449.239514 
L 902.798988 410.388702 
L 912.294687 376.747086 
L 921.790386 378.711709 
L 931.286086 425.84765 
L 940.781785 466.867785 
L 950.277484 502.519814 
L 959.773184 473.648415 
L 969.268883 470.275972 
L 978.764582 478.142372 
L 988.260281 441.555481 
L 997.755981 450.857442 
L 1007.25168 449.239514 
L 1016.747379 410.388702 
L 1026.243079 376.747086 
L 1035.738778 378.711709 
L 1045.234477 425.84765 
L 1054.730177 466.867785 
L 1064.225876 502.519814 
L 1073.721575 473.648415 
L 1083.217274 470.275972 
L 1092.712974 478.142372 
L 1102.208673 441.555481 
L 1111.704372 450.857442 
L 1121.200072 449.239514 
L 1130.695771 410.388702 
L 1140.19147 376.747086 
L 1149.68717 378.711709 
L 1159.182869 425.84765 
L 1168.678568 466.867785 
L 1178.174267 502.519814 
L 1187.669967 473.648415 
L 1197.165666 470.275972 
L 1206.661365 478.142372 
L 1216.157065 441.555481 
L 1225.652764 450.857442 
L 1235.148463 449.239514 
L 1244.644163 410.388702 
L 1254.139862 376.747086 
L 1263.635561 378.711709 
L 1273.13126 425.84765 
L 1282.62696 466.867785 
L 1292.122659 502.519814 
L 1301.618358 473.648415 
L 1311.114058 470.275972 
L 1320.609757 478.142372 
L 1330.105456 441.555481 
L 1339.601156 450.857442 
L 1349.096855 449.239514 
L 1358.592554 410.388702 
L 1368.088253 376.747086 
L 1377.583953 378.711709 
L 1387.079652 425.84765 
L 1396.575351 466.867785 
L 1406.071051 502.519814 
L 1415.56675 473.648415 
L 1415.56675 473.648415 
" clip-path="url(#p9c5af142f4)" style="fill: none; stroke: #008fd5; stroke-width: 4"/>
   </g>
   <g id="patch_13">
    <path d="M 57.68175 508.80845 
L 57.68175 370.45845 
" style="fill: none; stroke: #f0f0f0; stroke-width: 3; stroke-linejoin: miter; stroke-linecap: square"/>
   </g>
   <g id="patch_14">
    <path d="M 1415.56675 508.80845 
L 1415.56675 370.45845 
" style="fill: none; stroke: #f0f0f0; stroke-width: 3; stroke-linejoin: miter; stroke-linecap: square"/>
   </g>
   <g id="patch_15">
    <path d="M 57.68175 508.80845 
L 1415.56675 508.80845 
" style="fill: none; stroke: #f0f0f0; stroke-width: 3; stroke-linejoin: miter; stroke-linecap: square"/>
   </g>
   <g id="patch_16">
    <path d="M 57.68175 370.45845 
L 1415.56675 370.45845 
" style="fill: none; stroke: #f0f0f0; stroke-width: 3; stroke-linejoin: miter; stroke-linecap: square"/>
   </g>
  </g>
  <g id="axes_4">
   <g id="patch_17">
    <path d="M 57.68175 679.77845 
L 1415.56675 679.77845 
L 1415.56675 541.42845 
L 57.68175 541.42845 
z
" style="fill: #f0f0f0"/>
   </g>
   <g id="line2d_70">
    <path d="M 57.68175 673.489814 
L 1415.56675 673.489814 
" clip-path="url(#pfceff0fbda)" style="fill: none; stroke: #000000; stroke-width: 4"/>
   </g>
   <g id="matplotlib.axis_7">
    <g id="xtick_25">
     <g id="line2d_71">
      <path d="M 57.68175 679.77845 
L 57.68175 541.42845 
" clip-path="url(#pfceff0fbda)" style="fill: none; stroke: #cbcbcb"/>
     </g>
     <g id="line2d_72"/>
     <g id="text_37">
      <!-- 0 -->
      <g transform="translate(53.228 693.916262)scale(0.14 -0.14)">
       <use xlink:href="#DejaVuSans-30"/>
      </g>
     </g>
    </g>
    <g id="xtick_26">
     <g id="line2d_73">
      <path d="M 247.595736 679.77845 
L 247.595736 541.42845 
" clip-path="url(#pfceff0fbda)" style="fill: none; stroke: #cbcbcb"/>
     </g>
     <g id="line2d_74"/>
     <g id="text_38">
      <!-- 20 -->
      <g transform="translate(238.688236 693.916262)scale(0.14 -0.14)">
       <use xlink:href="#DejaVuSans-32"/>
       <use xlink:href="#DejaVuSans-30" x="63.623047"/>
      </g>
     </g>
    </g>
    <g id="xtick_27">
     <g id="line2d_75">
      <path d="M 437.509722 679.77845 
L 437.509722 541.42845 
" clip-path="url(#pfceff0fbda)" style="fill: none; stroke: #cbcbcb"/>
     </g>
     <g id="line2d_76"/>
     <g id="text_39">
      <!-- 40 -->
      <g transform="translate(428.602222 693.916262)scale(0.14 -0.14)">
       <use xlink:href="#DejaVuSans-34"/>
       <use xlink:href="#DejaVuSans-30" x="63.623047"/>
      </g>
     </g>
    </g>
    <g id="xtick_28">
     <g id="line2d_77">
      <path d="M 627.423708 679.77845 
L 627.423708 541.42845 
" clip-path="url(#pfceff0fbda)" style="fill: none; stroke: #cbcbcb"/>
     </g>
     <g id="line2d_78"/>
     <g id="text_40">
      <!-- 60 -->
      <g transform="translate(618.516208 693.916262)scale(0.14 -0.14)">
       <use xlink:href="#DejaVuSans-36"/>
       <use xlink:href="#DejaVuSans-30" x="63.623047"/>
      </g>
     </g>
    </g>
    <g id="xtick_29">
     <g id="line2d_79">
      <path d="M 817.337694 679.77845 
L 817.337694 541.42845 
" clip-path="url(#pfceff0fbda)" style="fill: none; stroke: #cbcbcb"/>
     </g>
     <g id="line2d_80"/>
     <g id="text_41">
      <!-- 80 -->
      <g transform="translate(808.430194 693.916262)scale(0.14 -0.14)">
       <use xlink:href="#DejaVuSans-38"/>
       <use xlink:href="#DejaVuSans-30" x="63.623047"/>
      </g>
     </g>
    </g>
    <g id="xtick_30">
     <g id="line2d_81">
      <path d="M 1007.25168 679.77845 
L 1007.25168 541.42845 
" clip-path="url(#pfceff0fbda)" style="fill: none; stroke: #cbcbcb"/>
     </g>
     <g id="line2d_82"/>
     <g id="text_42">
      <!-- 100 -->
      <g transform="translate(993.89043 693.916262)scale(0.14 -0.14)">
       <use xlink:href="#DejaVuSans-31"/>
       <use xlink:href="#DejaVuSans-30" x="63.623047"/>
       <use xlink:href="#DejaVuSans-30" x="127.246094"/>
      </g>
     </g>
    </g>
    <g id="xtick_31">
     <g id="line2d_83">
      <path d="M 1197.165666 679.77845 
L 1197.165666 541.42845 
" clip-path="url(#pfceff0fbda)" style="fill: none; stroke: #cbcbcb"/>
     </g>
     <g id="line2d_84"/>
     <g id="text_43">
      <!-- 120 -->
      <g transform="translate(1183.804416 693.916262)scale(0.14 -0.14)">
       <use xlink:href="#DejaVuSans-31"/>
       <use xlink:href="#DejaVuSans-32" x="63.623047"/>
       <use xlink:href="#DejaVuSans-30" x="127.246094"/>
      </g>
     </g>
    </g>
    <g id="xtick_32">
     <g id="line2d_85">
      <path d="M 1387.079652 679.77845 
L 1387.079652 541.42845 
" clip-path="url(#pfceff0fbda)" style="fill: none; stroke: #cbcbcb"/>
     </g>
     <g id="line2d_86"/>
     <g id="text_44">
      <!-- 140 -->
      <g transform="translate(1373.718402 693.916262)scale(0.14 -0.14)">
       <use xlink:href="#DejaVuSans-31"/>
       <use xlink:href="#DejaVuSans-34" x="63.623047"/>
       <use xlink:href="#DejaVuSans-30" x="127.246094"/>
      </g>
     </g>
    </g>
   </g>
   <g id="matplotlib.axis_8">
    <g id="ytick_10">
     <g id="line2d_87">
      <path d="M 57.68175 673.489814 
L 1415.56675 673.489814 
" clip-path="url(#pfceff0fbda)" style="fill: none; stroke: #cbcbcb"/>
     </g>
     <g id="line2d_88"/>
     <g id="text_45">
      <!-- 0.0 -->
      <g transform="translate(31.917375 678.80872)scale(0.14 -0.14)">
       <use xlink:href="#DejaVuSans-30"/>
       <use xlink:href="#DejaVuSans-2e" x="63.623047"/>
       <use xlink:href="#DejaVuSans-30" x="95.410156"/>
      </g>
     </g>
    </g>
    <g id="ytick_11">
     <g id="line2d_89">
      <path d="M 57.68175 616.005249 
L 1415.56675 616.005249 
" clip-path="url(#pfceff0fbda)" style="fill: none; stroke: #cbcbcb"/>
     </g>
     <g id="line2d_90"/>
     <g id="text_46">
      <!-- 0.5 -->
      <g transform="translate(31.917375 621.324156)scale(0.14 -0.14)">
       <defs>
        <path id="DejaVuSans-35" d="M 691 4666 
L 3169 4666 
L 3169 4134 
L 1269 4134 
L 1269 2991 
Q 1406 3038 1543 3061 
Q 1681 3084 1819 3084 
Q 2600 3084 3056 2656 
Q 3513 2228 3513 1497 
Q 3513 744 3044 326 
Q 2575 -91 1722 -91 
Q 1428 -91 1123 -41 
Q 819 9 494 109 
L 494 744 
Q 775 591 1075 516 
Q 1375 441 1709 441 
Q 2250 441 2565 725 
Q 2881 1009 2881 1497 
Q 2881 1984 2565 2268 
Q 2250 2553 1709 2553 
Q 1456 2553 1204 2497 
Q 953 2441 691 2322 
L 691 4666 
z
" transform="scale(0.015625)"/>
       </defs>
       <use xlink:href="#DejaVuSans-30"/>
       <use xlink:href="#DejaVuSans-2e" x="63.623047"/>
       <use xlink:href="#DejaVuSans-35" x="95.410156"/>
      </g>
     </g>
    </g>
    <g id="ytick_12">
     <g id="line2d_91">
      <path d="M 57.68175 558.520685 
L 1415.56675 558.520685 
" clip-path="url(#pfceff0fbda)" style="fill: none; stroke: #cbcbcb"/>
     </g>
     <g id="line2d_92"/>
     <g id="text_47">
      <!-- 1.0 -->
      <g transform="translate(31.917375 563.839592)scale(0.14 -0.14)">
       <use xlink:href="#DejaVuSans-31"/>
       <use xlink:href="#DejaVuSans-2e" x="63.623047"/>
       <use xlink:href="#DejaVuSans-30" x="95.410156"/>
      </g>
     </g>
    </g>
    <g id="text_48">
     <!-- Resid -->
     <g transform="translate(24.4235 633.27295)rotate(-90)scale(0.168 -0.168)">
      <defs>
       <path id="DejaVuSans-52" d="M 2841 2188 
Q 3044 2119 3236 1894 
Q 3428 1669 3622 1275 
L 4263 0 
L 3584 0 
L 2988 1197 
Q 2756 1666 2539 1819 
Q 2322 1972 1947 1972 
L 1259 1972 
L 1259 0 
L 628 0 
L 628 4666 
L 2053 4666 
Q 2853 4666 3247 4331 
Q 3641 3997 3641 3322 
Q 3641 2881 3436 2590 
Q 3231 2300 2841 2188 
z
M 1259 4147 
L 1259 2491 
L 2053 2491 
Q 2509 2491 2742 2702 
Q 2975 2913 2975 3322 
Q 2975 3731 2742 3939 
Q 2509 4147 2053 4147 
L 1259 4147 
z
" transform="scale(0.015625)"/>
       <path id="DejaVuSans-69" d="M 603 3500 
L 1178 3500 
L 1178 0 
L 603 0 
L 603 3500 
z
M 603 4863 
L 1178 4863 
L 1178 4134 
L 603 4134 
L 603 4863 
z
" transform="scale(0.015625)"/>
      </defs>
      <use xlink:href="#DejaVuSans-52"/>
      <use xlink:href="#DejaVuSans-65" x="64.982422"/>
      <use xlink:href="#DejaVuSans-73" x="126.505859"/>
      <use xlink:href="#DejaVuSans-69" x="178.605469"/>
      <use xlink:href="#DejaVuSans-64" x="206.388672"/>
     </g>
    </g>
   </g>
   <g id="line2d_93">
    <defs>
     <path id="m831482bd5c" d="M 0 3 
C 0.795609 3 1.55874 2.683901 2.12132 2.12132 
C 2.683901 1.55874 3 0.795609 3 0 
C 3 -0.795609 2.683901 -1.55874 2.12132 -2.12132 
C 1.55874 -2.683901 0.795609 -3 0 -3 
C -0.795609 -3 -1.55874 -2.683901 -2.12132 -2.12132 
C -2.683901 -1.55874 -3 -0.795609 -3 0 
C -3 0.795609 -2.683901 1.55874 -2.12132 2.12132 
C -1.55874 2.683901 -0.795609 3 0 3 
z
" style="stroke: #008fd5"/>
    </defs>
    <g clip-path="url(#pfceff0fbda)">
     <use xlink:href="#m831482bd5c" x="114.655946" y="564.077797" style="fill: #008fd5; stroke: #008fd5"/>
     <use xlink:href="#m831482bd5c" x="124.151645" y="563.878085" style="fill: #008fd5; stroke: #008fd5"/>
     <use xlink:href="#m831482bd5c" x="133.647344" y="558.265481" style="fill: #008fd5; stroke: #008fd5"/>
     <use xlink:href="#m831482bd5c" x="143.143044" y="558.057616" style="fill: #008fd5; stroke: #008fd5"/>
     <use xlink:href="#m831482bd5c" x="152.638743" y="557.799817" style="fill: #008fd5; stroke: #008fd5"/>
     <use xlink:href="#m831482bd5c" x="162.134442" y="557.162679" style="fill: #008fd5; stroke: #008fd5"/>
     <use xlink:href="#m831482bd5c" x="171.630142" y="562.820187" style="fill: #008fd5; stroke: #008fd5"/>
     <use xlink:href="#m831482bd5c" x="181.125841" y="550.304209" style="fill: #008fd5; stroke: #008fd5"/>
     <use xlink:href="#m831482bd5c" x="190.62154" y="554.215388" style="fill: #008fd5; stroke: #008fd5"/>
     <use xlink:href="#m831482bd5c" x="200.11724" y="556.905645" style="fill: #008fd5; stroke: #008fd5"/>
     <use xlink:href="#m831482bd5c" x="209.612939" y="566.924587" style="fill: #008fd5; stroke: #008fd5"/>
     <use xlink:href="#m831482bd5c" x="219.108638" y="562.539935" style="fill: #008fd5; stroke: #008fd5"/>
     <use xlink:href="#m831482bd5c" x="228.604337" y="560.411173" style="fill: #008fd5; stroke: #008fd5"/>
     <use xlink:href="#m831482bd5c" x="238.100037" y="561.582078" style="fill: #008fd5; stroke: #008fd5"/>
     <use xlink:href="#m831482bd5c" x="247.595736" y="555.933336" style="fill: #008fd5; stroke: #008fd5"/>
     <use xlink:href="#m831482bd5c" x="257.091435" y="561.717652" style="fill: #008fd5; stroke: #008fd5"/>
     <use xlink:href="#m831482bd5c" x="266.587135" y="565.539236" style="fill: #008fd5; stroke: #008fd5"/>
     <use xlink:href="#m831482bd5c" x="276.082834" y="557.739889" style="fill: #008fd5; stroke: #008fd5"/>
     <use xlink:href="#m831482bd5c" x="285.578533" y="556.928984" style="fill: #008fd5; stroke: #008fd5"/>
     <use xlink:href="#m831482bd5c" x="295.074233" y="551.16059" style="fill: #008fd5; stroke: #008fd5"/>
     <use xlink:href="#m831482bd5c" x="304.569932" y="547.960299" style="fill: #008fd5; stroke: #008fd5"/>
     <use xlink:href="#m831482bd5c" x="314.065631" y="556.489747" style="fill: #008fd5; stroke: #008fd5"/>
     <use xlink:href="#m831482bd5c" x="323.56133" y="552.590286" style="fill: #008fd5; stroke: #008fd5"/>
     <use xlink:href="#m831482bd5c" x="333.05703" y="564.723914" style="fill: #008fd5; stroke: #008fd5"/>
     <use xlink:href="#m831482bd5c" x="342.552729" y="564.567586" style="fill: #008fd5; stroke: #008fd5"/>
     <use xlink:href="#m831482bd5c" x="352.048428" y="565.446436" style="fill: #008fd5; stroke: #008fd5"/>
     <use xlink:href="#m831482bd5c" x="361.544128" y="559.801011" style="fill: #008fd5; stroke: #008fd5"/>
     <use xlink:href="#m831482bd5c" x="371.039827" y="559.224199" style="fill: #008fd5; stroke: #008fd5"/>
     <use xlink:href="#m831482bd5c" x="380.535526" y="555.815037" style="fill: #008fd5; stroke: #008fd5"/>
     <use xlink:href="#m831482bd5c" x="390.031226" y="555.636979" style="fill: #008fd5; stroke: #008fd5"/>
     <use xlink:href="#m831482bd5c" x="399.526925" y="555.545124" style="fill: #008fd5; stroke: #008fd5"/>
     <use xlink:href="#m831482bd5c" x="409.022624" y="547.717086" style="fill: #008fd5; stroke: #008fd5"/>
     <use xlink:href="#m831482bd5c" x="418.518323" y="556.971659" style="fill: #008fd5; stroke: #008fd5"/>
     <use xlink:href="#m831482bd5c" x="428.014023" y="562.020387" style="fill: #008fd5; stroke: #008fd5"/>
     <use xlink:href="#m831482bd5c" x="437.509722" y="562.743817" style="fill: #008fd5; stroke: #008fd5"/>
     <use xlink:href="#m831482bd5c" x="447.005421" y="558.47774" style="fill: #008fd5; stroke: #008fd5"/>
     <use xlink:href="#m831482bd5c" x="456.501121" y="564.630578" style="fill: #008fd5; stroke: #008fd5"/>
     <use xlink:href="#m831482bd5c" x="465.99682" y="559.312011" style="fill: #008fd5; stroke: #008fd5"/>
     <use xlink:href="#m831482bd5c" x="475.492519" y="561.437428" style="fill: #008fd5; stroke: #008fd5"/>
     <use xlink:href="#m831482bd5c" x="484.988219" y="557.983934" style="fill: #008fd5; stroke: #008fd5"/>
     <use xlink:href="#m831482bd5c" x="494.483918" y="556.189145" style="fill: #008fd5; stroke: #008fd5"/>
     <use xlink:href="#m831482bd5c" x="503.979617" y="557.193865" style="fill: #008fd5; stroke: #008fd5"/>
     <use xlink:href="#m831482bd5c" x="513.475316" y="558.788743" style="fill: #008fd5; stroke: #008fd5"/>
     <use xlink:href="#m831482bd5c" x="522.971016" y="556.777221" style="fill: #008fd5; stroke: #008fd5"/>
     <use xlink:href="#m831482bd5c" x="532.466715" y="551.569142" style="fill: #008fd5; stroke: #008fd5"/>
     <use xlink:href="#m831482bd5c" x="541.962414" y="549.296399" style="fill: #008fd5; stroke: #008fd5"/>
     <use xlink:href="#m831482bd5c" x="551.458114" y="553.768676" style="fill: #008fd5; stroke: #008fd5"/>
     <use xlink:href="#m831482bd5c" x="560.953813" y="561.762167" style="fill: #008fd5; stroke: #008fd5"/>
     <use xlink:href="#m831482bd5c" x="570.449512" y="563.672073" style="fill: #008fd5; stroke: #008fd5"/>
     <use xlink:href="#m831482bd5c" x="579.945212" y="559.727985" style="fill: #008fd5; stroke: #008fd5"/>
     <use xlink:href="#m831482bd5c" x="589.440911" y="559.275606" style="fill: #008fd5; stroke: #008fd5"/>
     <use xlink:href="#m831482bd5c" x="598.93661" y="556.305464" style="fill: #008fd5; stroke: #008fd5"/>
     <use xlink:href="#m831482bd5c" x="608.432309" y="558.412703" style="fill: #008fd5; stroke: #008fd5"/>
     <use xlink:href="#m831482bd5c" x="617.928009" y="559.497475" style="fill: #008fd5; stroke: #008fd5"/>
     <use xlink:href="#m831482bd5c" x="627.423708" y="560.477637" style="fill: #008fd5; stroke: #008fd5"/>
     <use xlink:href="#m831482bd5c" x="636.919407" y="567.349952" style="fill: #008fd5; stroke: #008fd5"/>
     <use xlink:href="#m831482bd5c" x="646.415107" y="558.010029" style="fill: #008fd5; stroke: #008fd5"/>
     <use xlink:href="#m831482bd5c" x="655.910806" y="559.165676" style="fill: #008fd5; stroke: #008fd5"/>
     <use xlink:href="#m831482bd5c" x="665.406505" y="557.147044" style="fill: #008fd5; stroke: #008fd5"/>
     <use xlink:href="#m831482bd5c" x="674.902205" y="558.765107" style="fill: #008fd5; stroke: #008fd5"/>
     <use xlink:href="#m831482bd5c" x="684.397904" y="555.787261" style="fill: #008fd5; stroke: #008fd5"/>
     <use xlink:href="#m831482bd5c" x="693.893603" y="560.300594" style="fill: #008fd5; stroke: #008fd5"/>
     <use xlink:href="#m831482bd5c" x="703.389302" y="559.888401" style="fill: #008fd5; stroke: #008fd5"/>
     <use xlink:href="#m831482bd5c" x="712.885002" y="559.352913" style="fill: #008fd5; stroke: #008fd5"/>
     <use xlink:href="#m831482bd5c" x="722.380701" y="558.576525" style="fill: #008fd5; stroke: #008fd5"/>
     <use xlink:href="#m831482bd5c" x="731.8764" y="559.570446" style="fill: #008fd5; stroke: #008fd5"/>
     <use xlink:href="#m831482bd5c" x="741.3721" y="556.749636" style="fill: #008fd5; stroke: #008fd5"/>
     <use xlink:href="#m831482bd5c" x="750.867799" y="559.80557" style="fill: #008fd5; stroke: #008fd5"/>
     <use xlink:href="#m831482bd5c" x="760.363498" y="561.097782" style="fill: #008fd5; stroke: #008fd5"/>
     <use xlink:href="#m831482bd5c" x="769.859198" y="558.339813" style="fill: #008fd5; stroke: #008fd5"/>
     <use xlink:href="#m831482bd5c" x="779.354897" y="559.914623" style="fill: #008fd5; stroke: #008fd5"/>
     <use xlink:href="#m831482bd5c" x="788.850596" y="558.065002" style="fill: #008fd5; stroke: #008fd5"/>
     <use xlink:href="#m831482bd5c" x="798.346295" y="554.088484" style="fill: #008fd5; stroke: #008fd5"/>
     <use xlink:href="#m831482bd5c" x="807.841995" y="560.462318" style="fill: #008fd5; stroke: #008fd5"/>
     <use xlink:href="#m831482bd5c" x="817.337694" y="558.147026" style="fill: #008fd5; stroke: #008fd5"/>
     <use xlink:href="#m831482bd5c" x="826.833393" y="558.48523" style="fill: #008fd5; stroke: #008fd5"/>
     <use xlink:href="#m831482bd5c" x="836.329093" y="560.501369" style="fill: #008fd5; stroke: #008fd5"/>
     <use xlink:href="#m831482bd5c" x="845.824792" y="557.077423" style="fill: #008fd5; stroke: #008fd5"/>
     <use xlink:href="#m831482bd5c" x="855.320491" y="557.760083" style="fill: #008fd5; stroke: #008fd5"/>
     <use xlink:href="#m831482bd5c" x="864.816191" y="558.862716" style="fill: #008fd5; stroke: #008fd5"/>
     <use xlink:href="#m831482bd5c" x="874.31189" y="559.943448" style="fill: #008fd5; stroke: #008fd5"/>
     <use xlink:href="#m831482bd5c" x="883.807589" y="558.886011" style="fill: #008fd5; stroke: #008fd5"/>
     <use xlink:href="#m831482bd5c" x="893.303288" y="558.685732" style="fill: #008fd5; stroke: #008fd5"/>
     <use xlink:href="#m831482bd5c" x="902.798988" y="555.352595" style="fill: #008fd5; stroke: #008fd5"/>
     <use xlink:href="#m831482bd5c" x="912.294687" y="556.017983" style="fill: #008fd5; stroke: #008fd5"/>
     <use xlink:href="#m831482bd5c" x="921.790386" y="558.465907" style="fill: #008fd5; stroke: #008fd5"/>
     <use xlink:href="#m831482bd5c" x="931.286086" y="558.42032" style="fill: #008fd5; stroke: #008fd5"/>
     <use xlink:href="#m831482bd5c" x="940.781785" y="560.416865" style="fill: #008fd5; stroke: #008fd5"/>
     <use xlink:href="#m831482bd5c" x="950.277484" y="559.293729" style="fill: #008fd5; stroke: #008fd5"/>
     <use xlink:href="#m831482bd5c" x="959.773184" y="559.736468" style="fill: #008fd5; stroke: #008fd5"/>
     <use xlink:href="#m831482bd5c" x="969.268883" y="559.241619" style="fill: #008fd5; stroke: #008fd5"/>
     <use xlink:href="#m831482bd5c" x="978.764582" y="562.545544" style="fill: #008fd5; stroke: #008fd5"/>
     <use xlink:href="#m831482bd5c" x="988.260281" y="559.879972" style="fill: #008fd5; stroke: #008fd5"/>
     <use xlink:href="#m831482bd5c" x="997.755981" y="560.042456" style="fill: #008fd5; stroke: #008fd5"/>
     <use xlink:href="#m831482bd5c" x="1007.25168" y="559.392419" style="fill: #008fd5; stroke: #008fd5"/>
     <use xlink:href="#m831482bd5c" x="1016.747379" y="554.742783" style="fill: #008fd5; stroke: #008fd5"/>
     <use xlink:href="#m831482bd5c" x="1026.243079" y="555.517117" style="fill: #008fd5; stroke: #008fd5"/>
     <use xlink:href="#m831482bd5c" x="1035.738778" y="554.925971" style="fill: #008fd5; stroke: #008fd5"/>
     <use xlink:href="#m831482bd5c" x="1045.234477" y="555.805721" style="fill: #008fd5; stroke: #008fd5"/>
     <use xlink:href="#m831482bd5c" x="1054.730177" y="557.274048" style="fill: #008fd5; stroke: #008fd5"/>
     <use xlink:href="#m831482bd5c" x="1064.225876" y="556.071898" style="fill: #008fd5; stroke: #008fd5"/>
     <use xlink:href="#m831482bd5c" x="1073.721575" y="558.460179" style="fill: #008fd5; stroke: #008fd5"/>
     <use xlink:href="#m831482bd5c" x="1083.217274" y="559.047103" style="fill: #008fd5; stroke: #008fd5"/>
     <use xlink:href="#m831482bd5c" x="1092.712974" y="564.007451" style="fill: #008fd5; stroke: #008fd5"/>
     <use xlink:href="#m831482bd5c" x="1102.208673" y="564.624227" style="fill: #008fd5; stroke: #008fd5"/>
     <use xlink:href="#m831482bd5c" x="1111.704372" y="565.602869" style="fill: #008fd5; stroke: #008fd5"/>
     <use xlink:href="#m831482bd5c" x="1121.200072" y="561.788276" style="fill: #008fd5; stroke: #008fd5"/>
     <use xlink:href="#m831482bd5c" x="1130.695771" y="555.516077" style="fill: #008fd5; stroke: #008fd5"/>
     <use xlink:href="#m831482bd5c" x="1140.19147" y="552.958005" style="fill: #008fd5; stroke: #008fd5"/>
     <use xlink:href="#m831482bd5c" x="1149.68717" y="549.44163" style="fill: #008fd5; stroke: #008fd5"/>
     <use xlink:href="#m831482bd5c" x="1159.182869" y="560.17003" style="fill: #008fd5; stroke: #008fd5"/>
     <use xlink:href="#m831482bd5c" x="1168.678568" y="558.773947" style="fill: #008fd5; stroke: #008fd5"/>
     <use xlink:href="#m831482bd5c" x="1178.174267" y="560.786269" style="fill: #008fd5; stroke: #008fd5"/>
     <use xlink:href="#m831482bd5c" x="1187.669967" y="565.353451" style="fill: #008fd5; stroke: #008fd5"/>
     <use xlink:href="#m831482bd5c" x="1197.165666" y="560.530621" style="fill: #008fd5; stroke: #008fd5"/>
     <use xlink:href="#m831482bd5c" x="1206.661365" y="564.203198" style="fill: #008fd5; stroke: #008fd5"/>
     <use xlink:href="#m831482bd5c" x="1216.157065" y="560.98932" style="fill: #008fd5; stroke: #008fd5"/>
     <use xlink:href="#m831482bd5c" x="1225.652764" y="561.435844" style="fill: #008fd5; stroke: #008fd5"/>
     <use xlink:href="#m831482bd5c" x="1235.148463" y="556.478407" style="fill: #008fd5; stroke: #008fd5"/>
     <use xlink:href="#m831482bd5c" x="1244.644163" y="558.881535" style="fill: #008fd5; stroke: #008fd5"/>
     <use xlink:href="#m831482bd5c" x="1254.139862" y="554.230775" style="fill: #008fd5; stroke: #008fd5"/>
     <use xlink:href="#m831482bd5c" x="1263.635561" y="552.415818" style="fill: #008fd5; stroke: #008fd5"/>
     <use xlink:href="#m831482bd5c" x="1273.13126" y="558.814471" style="fill: #008fd5; stroke: #008fd5"/>
     <use xlink:href="#m831482bd5c" x="1282.62696" y="558.366963" style="fill: #008fd5; stroke: #008fd5"/>
     <use xlink:href="#m831482bd5c" x="1292.122659" y="556.973104" style="fill: #008fd5; stroke: #008fd5"/>
     <use xlink:href="#m831482bd5c" x="1301.618358" y="558.529979" style="fill: #008fd5; stroke: #008fd5"/>
     <use xlink:href="#m831482bd5c" x="1311.114058" y="558.069094" style="fill: #008fd5; stroke: #008fd5"/>
     <use xlink:href="#m831482bd5c" x="1320.609757" y="563.225295" style="fill: #008fd5; stroke: #008fd5"/>
     <use xlink:href="#m831482bd5c" x="1330.105456" y="570.697566" style="fill: #008fd5; stroke: #008fd5"/>
     <use xlink:href="#m831482bd5c" x="1339.601156" y="557.773985" style="fill: #008fd5; stroke: #008fd5"/>
     <use xlink:href="#m831482bd5c" x="1349.096855" y="556.524963" style="fill: #008fd5; stroke: #008fd5"/>
     <use xlink:href="#m831482bd5c" x="1358.592554" y="557.131978" style="fill: #008fd5; stroke: #008fd5"/>
    </g>
   </g>
   <g id="patch_18">
    <path d="M 57.68175 679.77845 
L 57.68175 541.42845 
" style="fill: none; stroke: #f0f0f0; stroke-width: 3; stroke-linejoin: miter; stroke-linecap: square"/>
   </g>
   <g id="patch_19">
    <path d="M 1415.56675 679.77845 
L 1415.56675 541.42845 
" style="fill: none; stroke: #f0f0f0; stroke-width: 3; stroke-linejoin: miter; stroke-linecap: square"/>
   </g>
   <g id="patch_20">
    <path d="M 57.68175 679.77845 
L 1415.56675 679.77845 
" style="fill: none; stroke: #f0f0f0; stroke-width: 3; stroke-linejoin: miter; stroke-linecap: square"/>
   </g>
   <g id="patch_21">
    <path d="M 57.68175 541.42845 
L 1415.56675 541.42845 
" style="fill: none; stroke: #f0f0f0; stroke-width: 3; stroke-linejoin: miter; stroke-linecap: square"/>
   </g>
  </g>
 </g>
 <defs>
  <clipPath id="p5e6639da83">
   <rect x="57.68175" y="28.51845" width="1357.885" height="138.35"/>
  </clipPath>
  <clipPath id="p18d4d63d33">
   <rect x="57.68175" y="199.48845" width="1357.885" height="138.35"/>
  </clipPath>
  <clipPath id="p9c5af142f4">
   <rect x="57.68175" y="370.45845" width="1357.885" height="138.35"/>
  </clipPath>
  <clipPath id="pfceff0fbda">
   <rect x="57.68175" y="541.42845" width="1357.885" height="138.35"/>
  </clipPath>
 </defs>
</svg>
