<?xml version="1.0" encoding="UTF-8"?>
<svg xmlns="http://www.w3.org/2000/svg" xmlns:xlink="http://www.w3.org/1999/xlink" width="266.666667" height="301.333333" viewBox="0 0 266.666667 301.333333" version="1.1">
<g id="surface1">
<path style="fill:none;stroke-width:1;stroke-linecap:round;stroke-linejoin:round;stroke:rgb(0%,0%,0%);stroke-opacity:1;stroke-miterlimit:10;" d="M 229.606445 646.291992 L 253.606445 646.291992 L 253.606445 670.291992 L 229.606445 670.291992 Z M 229.606445 646.291992 " transform="matrix(1.333333,0,0,1.333333,-73.333333,-712)"/>
<path style=" stroke:none;fill-rule:nonzero;fill:rgb(0%,0%,0%);fill-opacity:1;" d="M 248.574219 171.054688 L 248.574219 170.761719 C 247.722656 170.636719 247.511719 170.511719 247.511719 169.886719 L 247.511719 164.136719 C 247.511719 163.492188 247.761719 163.304688 248.574219 163.242188 L 248.574219 162.949219 L 244.511719 162.949219 L 244.511719 163.242188 C 245.347656 163.304688 245.574219 163.449219 245.574219 164.136719 L 245.574219 166.574219 L 242.679688 166.574219 L 242.679688 164.136719 C 242.679688 163.449219 242.910156 163.304688 243.761719 163.242188 L 243.761719 162.949219 L 239.722656 162.949219 L 239.722656 163.242188 C 240.535156 163.304688 240.742188 163.472656 240.742188 164.136719 L 240.742188 169.886719 C 240.742188 170.511719 240.554688 170.636719 239.722656 170.761719 L 239.722656 171.054688 L 243.761719 171.054688 L 243.761719 170.761719 C 242.886719 170.660156 242.679688 170.511719 242.679688 169.886719 L 242.679688 167.136719 L 245.574219 167.136719 L 245.574219 169.886719 C 245.574219 170.492188 245.386719 170.660156 244.511719 170.761719 L 244.511719 171.054688 Z M 248.574219 171.054688 "/>
<path style=" stroke:none;fill-rule:nonzero;fill:rgb(0%,0%,0%);fill-opacity:1;" d="M 253.871094 169.824219 L 249.621094 169.824219 L 249.285156 171.074219 L 249.433594 171.097656 C 249.808594 170.242188 250.058594 170.117188 251.328125 170.117188 L 250.183594 174.324219 C 250.058594 174.761719 249.871094 174.886719 249.328125 174.929688 L 249.328125 175.054688 L 251.640625 175.054688 L 251.640625 174.929688 L 251.347656 174.910156 C 251.015625 174.867188 250.933594 174.804688 250.933594 174.554688 C 250.933594 174.386719 250.996094 174.199219 251.035156 174.035156 L 252.140625 170.117188 L 252.597656 170.117188 C 253.121094 170.117188 253.410156 170.324219 253.410156 170.761719 C 253.410156 170.867188 253.390625 170.992188 253.390625 171.117188 L 253.515625 171.136719 Z M 253.871094 169.824219 "/>
<path style=" stroke:none;fill-rule:nonzero;fill:rgb(0%,0%,0%);fill-opacity:1;" d="M 252.875 163.808594 C 251.75 162.871094 251.5 161.976562 251.5 160.476562 C 251.5 158.933594 251.75 158.183594 252.875 157.246094 L 252.792969 157.101562 C 251.523438 157.871094 250.8125 159.015625 250.8125 160.496094 C 250.8125 161.871094 251.5 163.203125 252.773438 163.933594 Z M 252.875 163.808594 "/>
<path style=" stroke:none;fill-rule:nonzero;fill:rgb(0%,0%,0%);fill-opacity:1;" d="M 256.894531 161.414062 L 256.789062 161.371094 C 256.519531 161.828125 256.351562 161.914062 256.019531 161.914062 L 254.144531 161.914062 L 255.457031 160.496094 C 256.164062 159.746094 256.476562 159.140625 256.476562 158.515625 C 256.476562 157.726562 255.914062 157.101562 255 157.101562 C 254.019531 157.101562 253.519531 157.765625 253.351562 158.703125 L 253.519531 158.746094 C 253.832031 157.953125 254.101562 157.703125 254.6875 157.703125 C 255.375 157.703125 255.789062 158.101562 255.789062 158.828125 C 255.789062 159.515625 255.519531 160.121094 254.75 160.914062 L 253.332031 162.414062 L 253.332031 162.515625 L 256.457031 162.515625 Z M 256.894531 161.414062 "/>
<path style=" stroke:none;fill-rule:nonzero;fill:rgb(0%,0%,0%);fill-opacity:1;" d="M 257.332031 157.246094 C 258.5 158.140625 258.6875 159.058594 258.6875 160.558594 C 258.6875 162.121094 258.476562 162.871094 257.332031 163.808594 L 257.414062 163.933594 C 258.6875 163.164062 259.375 162.015625 259.375 160.539062 C 259.375 159.183594 258.644531 157.851562 257.4375 157.101562 Z M 257.332031 157.246094 "/>
<path style="fill-rule:nonzero;fill:rgb(69.803923%,85.09804%,100%);fill-opacity:1;stroke-width:1;stroke-linecap:round;stroke-linejoin:round;stroke:rgb(0%,0%,0%);stroke-opacity:1;stroke-miterlimit:10;" d="M 229.606445 734.859375 L 253.606445 734.859375 L 253.606445 758.859375 L 229.606445 758.859375 Z M 229.606445 734.859375 " transform="matrix(1.333333,0,0,1.333333,-73.333333,-712)"/>
<path style=" stroke:none;fill-rule:nonzero;fill:rgb(0%,0%,0%);fill-opacity:1;" d="M 250.644531 285.8125 L 250.644531 285.523438 C 250.226562 285.5 250.039062 285.355469 249.476562 284.480469 L 247.289062 281.085938 L 248.25 279.75 C 249.289062 278.292969 249.601562 278.085938 250.5 278 L 250.5 277.710938 L 247.5 277.710938 L 247.5 278 L 247.75 278.023438 C 248.207031 278.0625 248.375 278.167969 248.375 278.4375 C 248.375 278.710938 248.226562 278.9375 247.664062 279.710938 L 247 280.648438 L 245.832031 278.835938 C 245.6875 278.605469 245.664062 278.542969 245.664062 278.398438 C 245.664062 278.148438 245.789062 278.042969 246.226562 278.023438 L 246.601562 278 L 246.601562 277.710938 L 242.457031 277.710938 L 242.457031 278 C 242.894531 278.042969 243.039062 278.167969 243.414062 278.6875 L 245.789062 282.1875 L 243.6875 284.835938 C 243.332031 285.292969 243.039062 285.4375 242.4375 285.523438 L 242.4375 285.8125 L 245.4375 285.8125 L 245.4375 285.523438 C 244.707031 285.4375 244.476562 285.3125 244.476562 285 C 244.476562 284.75 244.707031 284.375 245.601562 283.167969 L 246.0625 282.5625 L 247.269531 284.5 C 247.414062 284.730469 247.519531 285 247.519531 285.148438 C 247.519531 285.355469 247.3125 285.460938 246.894531 285.480469 L 246.5625 285.523438 L 246.5625 285.8125 Z M 250.644531 285.8125 "/>
<path style=" stroke:none;fill-rule:nonzero;fill:rgb(0%,0%,0%);fill-opacity:1;" d="M 255.976562 284.585938 L 251.726562 284.585938 L 251.390625 285.835938 L 251.539062 285.855469 C 251.914062 285 252.164062 284.875 253.433594 284.875 L 252.289062 289.085938 C 252.164062 289.523438 251.976562 289.648438 251.433594 289.6875 L 251.433594 289.8125 L 253.746094 289.8125 L 253.746094 289.6875 L 253.453125 289.667969 C 253.121094 289.625 253.039062 289.5625 253.039062 289.3125 C 253.039062 289.148438 253.101562 288.960938 253.140625 288.792969 L 254.246094 284.875 L 254.703125 284.875 C 255.226562 284.875 255.515625 285.085938 255.515625 285.523438 C 255.515625 285.625 255.496094 285.75 255.496094 285.875 L 255.621094 285.898438 Z M 255.976562 284.585938 "/>
<path style="fill-rule:nonzero;fill:rgb(69.803923%,85.09804%,100%);fill-opacity:1;stroke-width:1;stroke-linecap:round;stroke-linejoin:round;stroke:rgb(0%,0%,0%);stroke-opacity:1;stroke-miterlimit:10;" d="M 100.805664 734.859375 L 124.805664 734.859375 L 124.805664 758.859375 L 100.805664 758.859375 Z M 100.805664 734.859375 " transform="matrix(1.333333,0,0,1.333333,-73.333333,-712)"/>
<path style=" stroke:none;fill-rule:nonzero;fill:rgb(0%,0%,0%);fill-opacity:1;" d="M 79.136719 285.8125 L 79.136719 285.523438 C 78.71875 285.5 78.53125 285.355469 77.96875 284.480469 L 75.78125 281.085938 L 76.738281 279.75 C 77.78125 278.292969 78.09375 278.085938 78.988281 278 L 78.988281 277.710938 L 75.988281 277.710938 L 75.988281 278 L 76.238281 278.023438 C 76.699219 278.0625 76.863281 278.167969 76.863281 278.4375 C 76.863281 278.710938 76.71875 278.9375 76.15625 279.710938 L 75.488281 280.648438 L 74.324219 278.835938 C 74.175781 278.605469 74.15625 278.542969 74.15625 278.398438 C 74.15625 278.148438 74.28125 278.042969 74.71875 278.023438 L 75.09375 278 L 75.09375 277.710938 L 70.949219 277.710938 L 70.949219 278 C 71.386719 278.042969 71.53125 278.167969 71.90625 278.6875 L 74.28125 282.1875 L 72.175781 284.835938 C 71.824219 285.292969 71.53125 285.4375 70.925781 285.523438 L 70.925781 285.8125 L 73.925781 285.8125 L 73.925781 285.523438 C 73.199219 285.4375 72.96875 285.3125 72.96875 285 C 72.96875 284.75 73.199219 284.375 74.09375 283.167969 L 74.550781 282.5625 L 75.761719 284.5 C 75.90625 284.730469 76.011719 285 76.011719 285.148438 C 76.011719 285.355469 75.800781 285.460938 75.386719 285.480469 L 75.050781 285.523438 L 75.050781 285.8125 Z M 79.136719 285.8125 "/>
<path style=" stroke:none;fill-rule:nonzero;fill:rgb(0%,0%,0%);fill-opacity:1;" d="M 83.195312 288.710938 L 83.089844 288.667969 C 82.820312 289.125 82.652344 289.210938 82.320312 289.210938 L 80.445312 289.210938 L 81.757812 287.792969 C 82.464844 287.042969 82.777344 286.4375 82.777344 285.8125 C 82.777344 285.023438 82.214844 284.398438 81.300781 284.398438 C 80.320312 284.398438 79.820312 285.0625 79.652344 286 L 79.820312 286.042969 C 80.132812 285.25 80.402344 285 80.988281 285 C 81.675781 285 82.089844 285.398438 82.089844 286.125 C 82.089844 286.8125 81.820312 287.417969 81.050781 288.210938 L 79.632812 289.710938 L 79.632812 289.8125 L 82.757812 289.8125 Z M 83.195312 288.710938 "/>
<path style="fill-rule:nonzero;fill:rgb(69.803923%,85.09804%,100%);fill-opacity:1;stroke-width:1;stroke-linecap:round;stroke-linejoin:round;stroke:rgb(0%,0%,0%);stroke-opacity:1;stroke-miterlimit:10;" d="M 55.805664 734.859375 L 79.805664 734.859375 L 79.805664 758.859375 L 55.805664 758.859375 Z M 55.805664 734.859375 " transform="matrix(1.333333,0,0,1.333333,-73.333333,-712)"/>
<path style=" stroke:none;fill-rule:nonzero;fill:rgb(0%,0%,0%);fill-opacity:1;" d="M 19.136719 285.8125 L 19.136719 285.523438 C 18.71875 285.5 18.53125 285.355469 17.96875 284.480469 L 15.78125 281.085938 L 16.738281 279.75 C 17.78125 278.292969 18.09375 278.085938 18.988281 278 L 18.988281 277.710938 L 15.988281 277.710938 L 15.988281 278 L 16.238281 278.023438 C 16.699219 278.0625 16.863281 278.167969 16.863281 278.4375 C 16.863281 278.710938 16.71875 278.9375 16.15625 279.710938 L 15.488281 280.648438 L 14.324219 278.835938 C 14.175781 278.605469 14.15625 278.542969 14.15625 278.398438 C 14.15625 278.148438 14.28125 278.042969 14.71875 278.023438 L 15.09375 278 L 15.09375 277.710938 L 10.949219 277.710938 L 10.949219 278 C 11.386719 278.042969 11.53125 278.167969 11.90625 278.6875 L 14.28125 282.1875 L 12.175781 284.835938 C 11.824219 285.292969 11.53125 285.4375 10.925781 285.523438 L 10.925781 285.8125 L 13.925781 285.8125 L 13.925781 285.523438 C 13.199219 285.4375 12.96875 285.3125 12.96875 285 C 12.96875 284.75 13.199219 284.375 14.09375 283.167969 L 14.550781 282.5625 L 15.761719 284.5 C 15.90625 284.730469 16.011719 285 16.011719 285.148438 C 16.011719 285.355469 15.800781 285.460938 15.386719 285.480469 L 15.050781 285.523438 L 15.050781 285.8125 Z M 19.136719 285.8125 "/>
<path style=" stroke:none;fill-rule:nonzero;fill:rgb(0%,0%,0%);fill-opacity:1;" d="M 22.550781 289.8125 L 22.550781 289.6875 C 21.945312 289.6875 21.800781 289.542969 21.800781 289.210938 L 21.800781 284.4375 L 21.714844 284.398438 L 20.300781 285.125 L 20.300781 285.25 L 20.507812 285.167969 C 20.652344 285.105469 20.777344 285.0625 20.863281 285.0625 C 21.027344 285.0625 21.113281 285.1875 21.113281 285.460938 L 21.113281 289.0625 C 21.113281 289.5 20.945312 289.667969 20.339844 289.6875 L 20.339844 289.8125 Z M 22.550781 289.8125 "/>
<path style="fill:none;stroke-width:1;stroke-linecap:round;stroke-linejoin:round;stroke:rgb(0%,0%,0%);stroke-opacity:1;stroke-miterlimit:10;" d="M 55.805664 646.291992 L 79.805664 646.291992 L 79.805664 670.291992 L 55.805664 670.291992 Z M 55.805664 646.291992 " transform="matrix(1.333333,0,0,1.333333,-73.333333,-712)"/>
<path style=" stroke:none;fill-rule:nonzero;fill:rgb(0%,0%,0%);fill-opacity:1;" d="M 16.84375 171.054688 L 16.84375 170.761719 C 15.988281 170.636719 15.78125 170.511719 15.78125 169.886719 L 15.78125 164.136719 C 15.78125 163.492188 16.03125 163.304688 16.84375 163.242188 L 16.84375 162.949219 L 12.78125 162.949219 L 12.78125 163.242188 C 13.613281 163.304688 13.84375 163.449219 13.84375 164.136719 L 13.84375 166.574219 L 10.945312 166.574219 L 10.945312 164.136719 C 10.945312 163.449219 11.175781 163.304688 12.03125 163.242188 L 12.03125 162.949219 L 7.988281 162.949219 L 7.988281 163.242188 C 8.800781 163.304688 9.007812 163.472656 9.007812 164.136719 L 9.007812 169.886719 C 9.007812 170.511719 8.820312 170.636719 7.988281 170.761719 L 7.988281 171.054688 L 12.03125 171.054688 L 12.03125 170.761719 C 11.15625 170.660156 10.945312 170.511719 10.945312 169.886719 L 10.945312 167.136719 L 13.84375 167.136719 L 13.84375 169.886719 C 13.84375 170.492188 13.65625 170.660156 12.78125 170.761719 L 12.78125 171.054688 Z M 16.84375 171.054688 "/>
<path style=" stroke:none;fill-rule:nonzero;fill:rgb(0%,0%,0%);fill-opacity:1;" d="M 20.21875 175.054688 L 20.21875 174.929688 C 19.617188 174.929688 19.46875 174.785156 19.46875 174.449219 L 19.46875 169.679688 L 19.386719 169.636719 L 17.96875 170.367188 L 17.96875 170.492188 L 18.179688 170.410156 C 18.324219 170.347656 18.449219 170.304688 18.53125 170.304688 C 18.699219 170.304688 18.78125 170.429688 18.78125 170.699219 L 18.78125 174.304688 C 18.78125 174.742188 18.617188 174.910156 18.011719 174.929688 L 18.011719 175.054688 Z M 20.21875 175.054688 "/>
<path style=" stroke:none;fill-rule:nonzero;fill:rgb(0%,0%,0%);fill-opacity:1;" d="M 21.140625 163.808594 C 20.015625 162.871094 19.765625 161.976562 19.765625 160.476562 C 19.765625 158.933594 20.015625 158.183594 21.140625 157.246094 L 21.058594 157.101562 C 19.789062 157.871094 19.078125 159.015625 19.078125 160.496094 C 19.078125 161.871094 19.765625 163.203125 21.039062 163.933594 Z M 21.140625 163.808594 "/>
<path style=" stroke:none;fill-rule:nonzero;fill:rgb(0%,0%,0%);fill-opacity:1;" d="M 25.160156 161.414062 L 25.054688 161.371094 C 24.785156 161.828125 24.617188 161.914062 24.285156 161.914062 L 22.410156 161.914062 L 23.722656 160.496094 C 24.429688 159.746094 24.742188 159.140625 24.742188 158.515625 C 24.742188 157.726562 24.179688 157.101562 23.265625 157.101562 C 22.285156 157.101562 21.785156 157.765625 21.617188 158.703125 L 21.785156 158.746094 C 22.097656 157.953125 22.367188 157.703125 22.953125 157.703125 C 23.640625 157.703125 24.054688 158.101562 24.054688 158.828125 C 24.054688 159.515625 23.785156 160.121094 23.015625 160.914062 L 21.597656 162.414062 L 21.597656 162.515625 L 24.722656 162.515625 Z M 25.160156 161.414062 "/>
<path style=" stroke:none;fill-rule:nonzero;fill:rgb(0%,0%,0%);fill-opacity:1;" d="M 25.597656 157.246094 C 26.765625 158.140625 26.953125 159.058594 26.953125 160.558594 C 26.953125 162.121094 26.742188 162.871094 25.597656 163.808594 L 25.679688 163.933594 C 26.953125 163.164062 27.640625 162.015625 27.640625 160.539062 C 27.640625 159.183594 26.910156 157.851562 25.703125 157.101562 Z M 25.597656 157.246094 "/>
<path style=" stroke:none;fill-rule:nonzero;fill:rgb(0%,0%,0%);fill-opacity:1;" d="M 200.304688 228.183594 C 200.304688 227.789062 199.949219 227.433594 199.554688 227.433594 C 199.160156 227.433594 198.824219 227.765625 198.824219 228.183594 C 198.824219 228.578125 199.160156 228.914062 199.535156 228.914062 C 199.949219 228.914062 200.304688 228.601562 200.304688 228.183594 Z M 196.347656 228.183594 C 196.347656 227.789062 195.992188 227.433594 195.597656 227.433594 C 195.199219 227.433594 194.867188 227.765625 194.867188 228.183594 C 194.867188 228.578125 195.199219 228.914062 195.554688 228.914062 C 195.992188 228.914062 196.347656 228.601562 196.347656 228.183594 Z M 192.386719 228.183594 C 192.386719 227.789062 192.035156 227.433594 191.636719 227.433594 C 191.222656 227.433594 190.886719 227.765625 190.886719 228.183594 C 190.886719 228.578125 191.222656 228.914062 191.597656 228.914062 C 192.035156 228.914062 192.386719 228.601562 192.386719 228.183594 Z M 192.386719 228.183594 "/>
<path style=" stroke:none;fill-rule:nonzero;fill:rgb(0%,0%,0%);fill-opacity:1;" d="M 203.710938 169.136719 C 203.710938 168.742188 203.355469 168.386719 202.960938 168.386719 C 202.566406 168.386719 202.230469 168.722656 202.230469 169.136719 C 202.230469 169.535156 202.566406 169.867188 202.941406 169.867188 C 203.355469 169.867188 203.710938 169.554688 203.710938 169.136719 Z M 199.753906 169.136719 C 199.753906 168.742188 199.398438 168.386719 199.003906 168.386719 C 198.605469 168.386719 198.273438 168.722656 198.273438 169.136719 C 198.273438 169.535156 198.605469 169.867188 198.960938 169.867188 C 199.398438 169.867188 199.753906 169.554688 199.753906 169.136719 Z M 195.792969 169.136719 C 195.792969 168.742188 195.441406 168.386719 195.042969 168.386719 C 194.628906 168.386719 194.292969 168.722656 194.292969 169.136719 C 194.292969 169.535156 194.628906 169.867188 195.003906 169.867188 C 195.441406 169.867188 195.792969 169.554688 195.792969 169.136719 Z M 195.792969 169.136719 "/>
<path style=" stroke:none;fill-rule:nonzero;fill:rgb(0%,0%,0%);fill-opacity:1;" d="M 203.710938 80.171875 C 203.710938 79.773438 203.355469 79.421875 202.960938 79.421875 C 202.566406 79.421875 202.230469 79.753906 202.230469 80.171875 C 202.230469 80.566406 202.566406 80.898438 202.941406 80.898438 C 203.355469 80.898438 203.710938 80.585938 203.710938 80.171875 Z M 199.753906 80.171875 C 199.753906 79.773438 199.398438 79.421875 199.003906 79.421875 C 198.605469 79.421875 198.273438 79.753906 198.273438 80.171875 C 198.273438 80.566406 198.605469 80.898438 198.960938 80.898438 C 199.398438 80.898438 199.753906 80.585938 199.753906 80.171875 Z M 195.792969 80.171875 C 195.792969 79.773438 195.441406 79.421875 195.042969 79.421875 C 194.628906 79.421875 194.292969 79.753906 194.292969 80.171875 C 194.292969 80.566406 194.628906 80.898438 195.003906 80.898438 C 195.441406 80.898438 195.792969 80.585938 195.792969 80.171875 Z M 195.792969 80.171875 "/>
<path style="fill-rule:nonzero;fill:rgb(69.803923%,85.09804%,100%);fill-opacity:1;stroke-width:1;stroke-linecap:round;stroke-linejoin:round;stroke:rgb(0%,0%,0%);stroke-opacity:1;stroke-miterlimit:10;" d="M 229.606445 534.999023 L 253.606445 534.999023 L 253.606445 558.999023 L 229.606445 558.999023 Z M 229.606445 534.999023 " transform="matrix(1.333333,0,0,1.333333,-73.333333,-712)"/>
<path style=" stroke:none;fill-rule:nonzero;fill:rgb(0%,0%,0%);fill-opacity:1;" d="M 250.828125 15.3125 C 250.828125 12.832031 249.058594 11.042969 246.640625 11.042969 C 244.140625 11.042969 242.328125 12.769531 242.328125 15.332031 C 242.328125 17.8125 244.078125 19.5625 246.558594 19.5625 C 249.058594 19.5625 250.828125 17.8125 250.828125 15.3125 Z M 248.703125 15.394531 C 248.703125 17.875 247.976562 19.167969 246.601562 19.167969 C 245.226562 19.167969 244.453125 17.894531 244.453125 15.375 C 244.453125 12.855469 245.203125 11.4375 246.539062 11.4375 C 247.933594 11.4375 248.703125 12.832031 248.703125 15.394531 Z M 248.703125 15.394531 "/>
<path style=" stroke:none;fill-rule:nonzero;fill:rgb(0%,0%,0%);fill-opacity:1;" d="M 256.3125 18.105469 L 252.0625 18.105469 L 251.726562 19.355469 L 251.875 19.375 C 252.25 18.519531 252.5 18.394531 253.769531 18.394531 L 252.625 22.605469 C 252.5 23.042969 252.3125 23.167969 251.769531 23.207031 L 251.769531 23.332031 L 254.082031 23.332031 L 254.082031 23.207031 L 253.789062 23.1875 C 253.457031 23.144531 253.375 23.082031 253.375 22.832031 C 253.375 22.667969 253.4375 22.480469 253.476562 22.3125 L 254.582031 18.394531 L 255.039062 18.394531 C 255.5625 18.394531 255.851562 18.605469 255.851562 19.042969 C 255.851562 19.144531 255.832031 19.269531 255.832031 19.394531 L 255.957031 19.417969 Z M 256.3125 18.105469 "/>
<path style="fill-rule:nonzero;fill:rgb(69.803923%,85.09804%,100%);fill-opacity:1;stroke-width:1;stroke-linecap:round;stroke-linejoin:round;stroke:rgb(0%,0%,0%);stroke-opacity:1;stroke-miterlimit:10;" d="M 100.805664 534.999023 L 124.805664 534.999023 L 124.805664 558.999023 L 100.805664 558.999023 Z M 100.805664 534.999023 " transform="matrix(1.333333,0,0,1.333333,-73.333333,-712)"/>
<path style=" stroke:none;fill-rule:nonzero;fill:rgb(0%,0%,0%);fill-opacity:1;" d="M 79.320312 15.3125 C 79.320312 12.832031 77.550781 11.042969 75.132812 11.042969 C 72.632812 11.042969 70.820312 12.769531 70.820312 15.332031 C 70.820312 17.8125 72.570312 19.5625 75.050781 19.5625 C 77.550781 19.5625 79.320312 17.8125 79.320312 15.3125 Z M 77.195312 15.394531 C 77.195312 17.875 76.464844 19.167969 75.089844 19.167969 C 73.714844 19.167969 72.945312 17.894531 72.945312 15.375 C 72.945312 12.855469 73.695312 11.4375 75.027344 11.4375 C 76.425781 11.4375 77.195312 12.832031 77.195312 15.394531 Z M 77.195312 15.394531 "/>
<path style=" stroke:none;fill-rule:nonzero;fill:rgb(0%,0%,0%);fill-opacity:1;" d="M 83.53125 22.230469 L 83.425781 22.1875 C 83.15625 22.644531 82.988281 22.730469 82.65625 22.730469 L 80.78125 22.730469 L 82.09375 21.3125 C 82.800781 20.5625 83.113281 19.957031 83.113281 19.332031 C 83.113281 18.542969 82.550781 17.917969 81.636719 17.917969 C 80.65625 17.917969 80.15625 18.582031 79.988281 19.519531 L 80.15625 19.5625 C 80.46875 18.769531 80.738281 18.519531 81.324219 18.519531 C 82.011719 18.519531 82.425781 18.917969 82.425781 19.644531 C 82.425781 20.332031 82.15625 20.9375 81.386719 21.730469 L 79.96875 23.230469 L 79.96875 23.332031 L 83.09375 23.332031 Z M 83.53125 22.230469 "/>
<path style="fill-rule:nonzero;fill:rgb(69.803923%,85.09804%,100%);fill-opacity:1;stroke-width:1;stroke-linecap:round;stroke-linejoin:round;stroke:rgb(0%,0%,0%);stroke-opacity:1;stroke-miterlimit:10;" d="M 55.805664 534.999023 L 79.805664 534.999023 L 79.805664 558.999023 L 55.805664 558.999023 Z M 55.805664 534.999023 " transform="matrix(1.333333,0,0,1.333333,-73.333333,-712)"/>
<path style=" stroke:none;fill-rule:nonzero;fill:rgb(0%,0%,0%);fill-opacity:1;" d="M 19.320312 15.3125 C 19.320312 12.832031 17.550781 11.042969 15.132812 11.042969 C 12.632812 11.042969 10.820312 12.769531 10.820312 15.332031 C 10.820312 17.8125 12.570312 19.5625 15.050781 19.5625 C 17.550781 19.5625 19.320312 17.8125 19.320312 15.3125 Z M 17.195312 15.394531 C 17.195312 17.875 16.464844 19.167969 15.089844 19.167969 C 13.714844 19.167969 12.945312 17.894531 12.945312 15.375 C 12.945312 12.855469 13.695312 11.4375 15.027344 11.4375 C 16.425781 11.4375 17.195312 12.832031 17.195312 15.394531 Z M 17.195312 15.394531 "/>
<path style=" stroke:none;fill-rule:nonzero;fill:rgb(0%,0%,0%);fill-opacity:1;" d="M 22.886719 23.332031 L 22.886719 23.207031 C 22.28125 23.207031 22.136719 23.0625 22.136719 22.730469 L 22.136719 17.957031 L 22.050781 17.917969 L 20.636719 18.644531 L 20.636719 18.769531 L 20.84375 18.6875 C 20.988281 18.625 21.113281 18.582031 21.199219 18.582031 C 21.363281 18.582031 21.449219 18.707031 21.449219 18.980469 L 21.449219 22.582031 C 21.449219 23.019531 21.28125 23.1875 20.675781 23.207031 L 20.675781 23.332031 Z M 22.886719 23.332031 "/>
<path style=" stroke:none;fill-rule:nonzero;fill:rgb(0%,0%,0%);fill-opacity:1;" d="M 21.3125 123.722656 C 21.3125 123.328125 20.957031 122.972656 20.5625 122.972656 C 20.164062 122.972656 19.832031 123.304688 19.832031 123.722656 C 19.832031 124.117188 20.164062 124.453125 20.539062 124.453125 C 20.957031 124.453125 21.3125 124.140625 21.3125 123.722656 Z M 17.351562 123.722656 C 17.351562 123.328125 17 122.972656 16.601562 122.972656 C 16.207031 122.972656 15.875 123.304688 15.875 123.722656 C 15.875 124.117188 16.207031 124.453125 16.5625 124.453125 C 17 124.453125 17.351562 124.140625 17.351562 123.722656 Z M 13.394531 123.722656 C 13.394531 123.328125 13.039062 122.972656 12.644531 122.972656 C 12.226562 122.972656 11.894531 123.304688 11.894531 123.722656 C 11.894531 124.117188 12.226562 124.453125 12.601562 124.453125 C 13.039062 124.453125 13.394531 124.140625 13.394531 123.722656 Z M 13.394531 123.722656 "/>
<path style="fill:none;stroke-width:1;stroke-linecap:round;stroke-linejoin:round;stroke:rgb(0%,0%,0%);stroke-opacity:1;stroke-miterlimit:10;" d="M 112.805664 734.859375 L 112.805664 720.477539 " transform="matrix(1.333333,0,0,1.333333,-73.333333,-712)"/>
<path style="fill:none;stroke-width:1;stroke-linecap:butt;stroke-linejoin:miter;stroke:rgb(0%,0%,0%);stroke-opacity:1;stroke-miterlimit:10;" d="M 112.805664 716.475586 L 112.805664 720.477539 M 111.305664 720.477539 L 112.805664 716.475586 L 114.305664 720.477539 " transform="matrix(1.333333,0,0,1.333333,-73.333333,-712)"/>
<path style="fill:none;stroke-width:1;stroke-linecap:round;stroke-linejoin:round;stroke:rgb(0%,0%,0%);stroke-opacity:1;stroke-miterlimit:10;" d="M 55.805664 690.574219 L 79.805664 690.574219 L 79.805664 714.574219 L 55.805664 714.574219 Z M 55.805664 690.574219 " transform="matrix(1.333333,0,0,1.333333,-73.333333,-712)"/>
<path style=" stroke:none;fill-rule:nonzero;fill:rgb(0%,0%,0%);fill-opacity:1;" d="M 16.84375 230.101562 L 16.84375 229.808594 C 15.988281 229.683594 15.78125 229.558594 15.78125 228.933594 L 15.78125 223.183594 C 15.78125 222.539062 16.03125 222.351562 16.84375 222.289062 L 16.84375 221.996094 L 12.78125 221.996094 L 12.78125 222.289062 C 13.613281 222.351562 13.84375 222.496094 13.84375 223.183594 L 13.84375 225.621094 L 10.945312 225.621094 L 10.945312 223.183594 C 10.945312 222.496094 11.175781 222.351562 12.03125 222.289062 L 12.03125 221.996094 L 7.988281 221.996094 L 7.988281 222.289062 C 8.800781 222.351562 9.007812 222.515625 9.007812 223.183594 L 9.007812 228.933594 C 9.007812 229.558594 8.820312 229.683594 7.988281 229.808594 L 7.988281 230.101562 L 12.03125 230.101562 L 12.03125 229.808594 C 11.15625 229.703125 10.945312 229.558594 10.945312 228.933594 L 10.945312 226.183594 L 13.84375 226.183594 L 13.84375 228.933594 C 13.84375 229.539062 13.65625 229.703125 12.78125 229.808594 L 12.78125 230.101562 Z M 16.84375 230.101562 "/>
<path style=" stroke:none;fill-rule:nonzero;fill:rgb(0%,0%,0%);fill-opacity:1;" d="M 20.21875 234.101562 L 20.21875 233.976562 C 19.617188 233.976562 19.46875 233.828125 19.46875 233.496094 L 19.46875 228.726562 L 19.386719 228.683594 L 17.96875 229.414062 L 17.96875 229.539062 L 18.179688 229.453125 C 18.324219 229.390625 18.449219 229.351562 18.53125 229.351562 C 18.699219 229.351562 18.78125 229.476562 18.78125 229.746094 L 18.78125 233.351562 C 18.78125 233.789062 18.617188 233.953125 18.011719 233.976562 L 18.011719 234.101562 Z M 20.21875 234.101562 "/>
<path style=" stroke:none;fill-rule:nonzero;fill:rgb(0%,0%,0%);fill-opacity:1;" d="M 21.140625 222.855469 C 20.015625 221.917969 19.765625 221.019531 19.765625 219.519531 C 19.765625 217.980469 20.015625 217.230469 21.140625 216.292969 L 21.058594 216.144531 C 19.789062 216.917969 19.078125 218.0625 19.078125 219.542969 C 19.078125 220.917969 19.765625 222.25 21.039062 222.980469 Z M 21.140625 222.855469 "/>
<path style=" stroke:none;fill-rule:nonzero;fill:rgb(0%,0%,0%);fill-opacity:1;" d="M 24.515625 221.5625 L 24.515625 221.4375 C 23.910156 221.4375 23.765625 221.292969 23.765625 220.957031 L 23.765625 216.1875 L 23.679688 216.144531 L 22.265625 216.875 L 22.265625 217 L 22.472656 216.917969 C 22.617188 216.855469 22.742188 216.8125 22.828125 216.8125 C 22.992188 216.8125 23.078125 216.9375 23.078125 217.207031 L 23.078125 220.8125 C 23.078125 221.25 22.910156 221.417969 22.304688 221.4375 L 22.304688 221.5625 Z M 24.515625 221.5625 "/>
<path style=" stroke:none;fill-rule:nonzero;fill:rgb(0%,0%,0%);fill-opacity:1;" d="M 25.597656 216.292969 C 26.765625 217.1875 26.953125 218.105469 26.953125 219.605469 C 26.953125 221.167969 26.742188 221.917969 25.597656 222.855469 L 25.679688 222.980469 C 26.953125 222.207031 27.640625 221.0625 27.640625 219.582031 C 27.640625 218.230469 26.910156 216.894531 25.703125 216.144531 Z M 25.597656 216.292969 "/>
<path style="fill:none;stroke-width:1;stroke-linecap:round;stroke-linejoin:round;stroke:rgb(0%,0%,0%);stroke-opacity:1;stroke-miterlimit:10;" d="M 55.805664 579.56543 L 79.805664 579.56543 L 79.805664 603.56543 L 55.805664 603.56543 Z M 55.805664 579.56543 " transform="matrix(1.333333,0,0,1.333333,-73.333333,-712)"/>
<path style=" stroke:none;fill-rule:nonzero;fill:rgb(0%,0%,0%);fill-opacity:1;" d="M 16.84375 82.085938 L 16.84375 81.796875 C 15.988281 81.671875 15.78125 81.546875 15.78125 80.921875 L 15.78125 75.171875 C 15.78125 74.523438 16.03125 74.335938 16.84375 74.273438 L 16.84375 73.984375 L 12.78125 73.984375 L 12.78125 74.273438 C 13.613281 74.335938 13.84375 74.484375 13.84375 75.171875 L 13.84375 77.609375 L 10.945312 77.609375 L 10.945312 75.171875 C 10.945312 74.484375 11.175781 74.335938 12.03125 74.273438 L 12.03125 73.984375 L 7.988281 73.984375 L 7.988281 74.273438 C 8.800781 74.335938 9.007812 74.503906 9.007812 75.171875 L 9.007812 80.921875 C 9.007812 81.546875 8.820312 81.671875 7.988281 81.796875 L 7.988281 82.085938 L 12.03125 82.085938 L 12.03125 81.796875 C 11.15625 81.691406 10.945312 81.546875 10.945312 80.921875 L 10.945312 78.171875 L 13.84375 78.171875 L 13.84375 80.921875 C 13.84375 81.523438 13.65625 81.691406 12.78125 81.796875 L 12.78125 82.085938 Z M 16.84375 82.085938 "/>
<path style=" stroke:none;fill-rule:nonzero;fill:rgb(0%,0%,0%);fill-opacity:1;" d="M 20.21875 86.085938 L 20.21875 85.960938 C 19.617188 85.960938 19.46875 85.816406 19.46875 85.484375 L 19.46875 80.710938 L 19.386719 80.671875 L 17.96875 81.398438 L 17.96875 81.523438 L 18.179688 81.441406 C 18.324219 81.378906 18.449219 81.335938 18.53125 81.335938 C 18.699219 81.335938 18.78125 81.460938 18.78125 81.734375 L 18.78125 85.335938 C 18.78125 85.773438 18.617188 85.941406 18.011719 85.960938 L 18.011719 86.085938 Z M 20.21875 86.085938 "/>
<path style=" stroke:none;fill-rule:nonzero;fill:rgb(0%,0%,0%);fill-opacity:1;" d="M 20.917969 74.839844 C 19.792969 73.902344 19.542969 73.007812 19.542969 71.507812 C 19.542969 69.964844 19.792969 69.214844 20.917969 68.277344 L 20.835938 68.132812 C 19.5625 68.902344 18.855469 70.046875 18.855469 71.527344 C 18.855469 72.902344 19.542969 74.234375 20.8125 74.964844 Z M 20.917969 74.839844 "/>
<path style=" stroke:none;fill-rule:nonzero;fill:rgb(0%,0%,0%);fill-opacity:1;" d="M 25.625 72.109375 L 25.457031 72.070312 C 25.226562 72.527344 25.0625 72.796875 24.789062 72.964844 C 24.414062 73.214844 24.164062 73.257812 23.351562 73.257812 C 22.707031 73.257812 22.519531 73.171875 22.519531 72.921875 C 22.519531 72.820312 22.5625 72.695312 22.601562 72.507812 L 23.5625 69.070312 C 23.6875 68.609375 23.894531 68.484375 24.375 68.445312 L 24.375 68.320312 L 22.1875 68.320312 L 22.1875 68.445312 C 22.6875 68.484375 22.789062 68.570312 22.789062 68.796875 C 22.789062 68.921875 22.769531 69.070312 22.707031 69.296875 L 21.726562 72.796875 C 21.601562 73.296875 21.519531 73.382812 21.082031 73.421875 L 21.082031 73.546875 L 25.144531 73.546875 Z M 25.625 72.109375 "/>
<path style=" stroke:none;fill-rule:nonzero;fill:rgb(0%,0%,0%);fill-opacity:1;" d="M 25.820312 68.277344 C 26.988281 69.171875 27.175781 70.089844 27.175781 71.589844 C 27.175781 73.152344 26.96875 73.902344 25.820312 74.839844 L 25.90625 74.964844 C 27.175781 74.195312 27.863281 73.046875 27.863281 71.570312 C 27.863281 70.214844 27.132812 68.882812 25.925781 68.132812 Z M 25.820312 68.277344 "/>
<path style="fill:none;stroke-width:1;stroke-linecap:round;stroke-linejoin:round;stroke:rgb(0%,0%,0%);stroke-opacity:1;stroke-miterlimit:10;" d="M 100.805664 690.574219 L 124.805664 690.574219 L 124.805664 714.574219 L 100.805664 714.574219 Z M 100.805664 690.574219 " transform="matrix(1.333333,0,0,1.333333,-73.333333,-712)"/>
<path style=" stroke:none;fill-rule:nonzero;fill:rgb(0%,0%,0%);fill-opacity:1;" d="M 76.84375 230.101562 L 76.84375 229.808594 C 75.988281 229.683594 75.78125 229.558594 75.78125 228.933594 L 75.78125 223.183594 C 75.78125 222.539062 76.03125 222.351562 76.84375 222.289062 L 76.84375 221.996094 L 72.78125 221.996094 L 72.78125 222.289062 C 73.613281 222.351562 73.84375 222.496094 73.84375 223.183594 L 73.84375 225.621094 L 70.945312 225.621094 L 70.945312 223.183594 C 70.945312 222.496094 71.175781 222.351562 72.03125 222.289062 L 72.03125 221.996094 L 67.988281 221.996094 L 67.988281 222.289062 C 68.800781 222.351562 69.007812 222.515625 69.007812 223.183594 L 69.007812 228.933594 C 69.007812 229.558594 68.820312 229.683594 67.988281 229.808594 L 67.988281 230.101562 L 72.03125 230.101562 L 72.03125 229.808594 C 71.15625 229.703125 70.945312 229.558594 70.945312 228.933594 L 70.945312 226.183594 L 73.84375 226.183594 L 73.84375 228.933594 C 73.84375 229.539062 73.65625 229.703125 72.78125 229.808594 L 72.78125 230.101562 Z M 76.84375 230.101562 "/>
<path style=" stroke:none;fill-rule:nonzero;fill:rgb(0%,0%,0%);fill-opacity:1;" d="M 80.867188 232.996094 L 80.761719 232.953125 C 80.492188 233.414062 80.324219 233.496094 79.992188 233.496094 L 78.117188 233.496094 L 79.429688 232.078125 C 80.136719 231.328125 80.449219 230.726562 80.449219 230.101562 C 80.449219 229.308594 79.886719 228.683594 78.96875 228.683594 C 77.992188 228.683594 77.492188 229.351562 77.324219 230.289062 L 77.492188 230.328125 C 77.804688 229.539062 78.074219 229.289062 78.65625 229.289062 C 79.34375 229.289062 79.761719 229.683594 79.761719 230.414062 C 79.761719 231.101562 79.492188 231.703125 78.71875 232.496094 L 77.304688 233.996094 L 77.304688 234.101562 L 80.429688 234.101562 Z M 80.867188 232.996094 "/>
<path style=" stroke:none;fill-rule:nonzero;fill:rgb(0%,0%,0%);fill-opacity:1;" d="M 81.140625 222.855469 C 80.015625 221.917969 79.765625 221.019531 79.765625 219.519531 C 79.765625 217.980469 80.015625 217.230469 81.140625 216.292969 L 81.058594 216.144531 C 79.789062 216.917969 79.078125 218.0625 79.078125 219.542969 C 79.078125 220.917969 79.765625 222.25 81.039062 222.980469 Z M 81.140625 222.855469 "/>
<path style=" stroke:none;fill-rule:nonzero;fill:rgb(0%,0%,0%);fill-opacity:1;" d="M 84.515625 221.5625 L 84.515625 221.4375 C 83.910156 221.4375 83.765625 221.292969 83.765625 220.957031 L 83.765625 216.1875 L 83.679688 216.144531 L 82.265625 216.875 L 82.265625 217 L 82.472656 216.917969 C 82.617188 216.855469 82.742188 216.8125 82.828125 216.8125 C 82.992188 216.8125 83.078125 216.9375 83.078125 217.207031 L 83.078125 220.8125 C 83.078125 221.25 82.910156 221.417969 82.304688 221.4375 L 82.304688 221.5625 Z M 84.515625 221.5625 "/>
<path style=" stroke:none;fill-rule:nonzero;fill:rgb(0%,0%,0%);fill-opacity:1;" d="M 85.597656 216.292969 C 86.765625 217.1875 86.953125 218.105469 86.953125 219.605469 C 86.953125 221.167969 86.742188 221.917969 85.597656 222.855469 L 85.679688 222.980469 C 86.953125 222.207031 87.640625 221.0625 87.640625 219.582031 C 87.640625 218.230469 86.910156 216.894531 85.703125 216.144531 Z M 85.597656 216.292969 "/>
<path style="fill:none;stroke-width:1;stroke-linecap:round;stroke-linejoin:round;stroke:rgb(0%,0%,0%);stroke-opacity:1;stroke-miterlimit:10;" d="M 229.606445 690.574219 L 253.606445 690.574219 L 253.606445 714.574219 L 229.606445 714.574219 Z M 229.606445 690.574219 " transform="matrix(1.333333,0,0,1.333333,-73.333333,-712)"/>
<path style=" stroke:none;fill-rule:nonzero;fill:rgb(0%,0%,0%);fill-opacity:1;" d="M 248.574219 230.101562 L 248.574219 229.808594 C 247.722656 229.683594 247.511719 229.558594 247.511719 228.933594 L 247.511719 223.183594 C 247.511719 222.539062 247.761719 222.351562 248.574219 222.289062 L 248.574219 221.996094 L 244.511719 221.996094 L 244.511719 222.289062 C 245.347656 222.351562 245.574219 222.496094 245.574219 223.183594 L 245.574219 225.621094 L 242.679688 225.621094 L 242.679688 223.183594 C 242.679688 222.496094 242.910156 222.351562 243.761719 222.289062 L 243.761719 221.996094 L 239.722656 221.996094 L 239.722656 222.289062 C 240.535156 222.351562 240.742188 222.515625 240.742188 223.183594 L 240.742188 228.933594 C 240.742188 229.558594 240.554688 229.683594 239.722656 229.808594 L 239.722656 230.101562 L 243.761719 230.101562 L 243.761719 229.808594 C 242.886719 229.703125 242.679688 229.558594 242.679688 228.933594 L 242.679688 226.183594 L 245.574219 226.183594 L 245.574219 228.933594 C 245.574219 229.539062 245.386719 229.703125 244.511719 229.808594 L 244.511719 230.101562 Z M 248.574219 230.101562 "/>
<path style=" stroke:none;fill-rule:nonzero;fill:rgb(0%,0%,0%);fill-opacity:1;" d="M 253.871094 228.871094 L 249.621094 228.871094 L 249.285156 230.121094 L 249.433594 230.140625 C 249.808594 229.289062 250.058594 229.164062 251.328125 229.164062 L 250.183594 233.371094 C 250.058594 233.808594 249.871094 233.933594 249.328125 233.976562 L 249.328125 234.101562 L 251.640625 234.101562 L 251.640625 233.976562 L 251.347656 233.953125 C 251.015625 233.914062 250.933594 233.851562 250.933594 233.601562 C 250.933594 233.433594 250.996094 233.246094 251.035156 233.078125 L 252.140625 229.164062 L 252.597656 229.164062 C 253.121094 229.164062 253.410156 229.371094 253.410156 229.808594 C 253.410156 229.914062 253.390625 230.039062 253.390625 230.164062 L 253.515625 230.183594 Z M 253.871094 228.871094 "/>
<path style=" stroke:none;fill-rule:nonzero;fill:rgb(0%,0%,0%);fill-opacity:1;" d="M 252.875 222.855469 C 251.75 221.917969 251.5 221.019531 251.5 219.519531 C 251.5 217.980469 251.75 217.230469 252.875 216.292969 L 252.792969 216.144531 C 251.523438 216.917969 250.8125 218.0625 250.8125 219.542969 C 250.8125 220.917969 251.5 222.25 252.773438 222.980469 Z M 252.875 222.855469 "/>
<path style=" stroke:none;fill-rule:nonzero;fill:rgb(0%,0%,0%);fill-opacity:1;" d="M 256.25 221.5625 L 256.25 221.4375 C 255.644531 221.4375 255.5 221.292969 255.5 220.957031 L 255.5 216.1875 L 255.414062 216.144531 L 254 216.875 L 254 217 L 254.207031 216.917969 C 254.351562 216.855469 254.476562 216.8125 254.5625 216.8125 C 254.726562 216.8125 254.8125 216.9375 254.8125 217.207031 L 254.8125 220.8125 C 254.8125 221.25 254.644531 221.417969 254.039062 221.4375 L 254.039062 221.5625 Z M 256.25 221.5625 "/>
<path style=" stroke:none;fill-rule:nonzero;fill:rgb(0%,0%,0%);fill-opacity:1;" d="M 257.332031 216.292969 C 258.5 217.1875 258.6875 218.105469 258.6875 219.605469 C 258.6875 221.167969 258.476562 221.917969 257.332031 222.855469 L 257.414062 222.980469 C 258.6875 222.207031 259.375 221.0625 259.375 219.582031 C 259.375 218.230469 258.644531 216.894531 257.4375 216.144531 Z M 257.332031 216.292969 "/>
<path style="fill:none;stroke-width:1;stroke-linecap:round;stroke-linejoin:round;stroke:rgb(0%,0%,0%);stroke-opacity:1;stroke-miterlimit:10;" d="M 100.805664 646.291992 L 124.805664 646.291992 L 124.805664 670.291992 L 100.805664 670.291992 Z M 100.805664 646.291992 " transform="matrix(1.333333,0,0,1.333333,-73.333333,-712)"/>
<path style=" stroke:none;fill-rule:nonzero;fill:rgb(0%,0%,0%);fill-opacity:1;" d="M 76.84375 171.054688 L 76.84375 170.761719 C 75.988281 170.636719 75.78125 170.511719 75.78125 169.886719 L 75.78125 164.136719 C 75.78125 163.492188 76.03125 163.304688 76.84375 163.242188 L 76.84375 162.949219 L 72.78125 162.949219 L 72.78125 163.242188 C 73.613281 163.304688 73.84375 163.449219 73.84375 164.136719 L 73.84375 166.574219 L 70.945312 166.574219 L 70.945312 164.136719 C 70.945312 163.449219 71.175781 163.304688 72.03125 163.242188 L 72.03125 162.949219 L 67.988281 162.949219 L 67.988281 163.242188 C 68.800781 163.304688 69.007812 163.472656 69.007812 164.136719 L 69.007812 169.886719 C 69.007812 170.511719 68.820312 170.636719 67.988281 170.761719 L 67.988281 171.054688 L 72.03125 171.054688 L 72.03125 170.761719 C 71.15625 170.660156 70.945312 170.511719 70.945312 169.886719 L 70.945312 167.136719 L 73.84375 167.136719 L 73.84375 169.886719 C 73.84375 170.492188 73.65625 170.660156 72.78125 170.761719 L 72.78125 171.054688 Z M 76.84375 171.054688 "/>
<path style=" stroke:none;fill-rule:nonzero;fill:rgb(0%,0%,0%);fill-opacity:1;" d="M 80.867188 173.949219 L 80.761719 173.910156 C 80.492188 174.367188 80.324219 174.449219 79.992188 174.449219 L 78.117188 174.449219 L 79.429688 173.035156 C 80.136719 172.285156 80.449219 171.679688 80.449219 171.054688 C 80.449219 170.261719 79.886719 169.636719 78.96875 169.636719 C 77.992188 169.636719 77.492188 170.304688 77.324219 171.242188 L 77.492188 171.285156 C 77.804688 170.492188 78.074219 170.242188 78.65625 170.242188 C 79.34375 170.242188 79.761719 170.636719 79.761719 171.367188 C 79.761719 172.054688 79.492188 172.660156 78.71875 173.449219 L 77.304688 174.949219 L 77.304688 175.054688 L 80.429688 175.054688 Z M 80.867188 173.949219 "/>
<path style=" stroke:none;fill-rule:nonzero;fill:rgb(0%,0%,0%);fill-opacity:1;" d="M 81.140625 163.808594 C 80.015625 162.871094 79.765625 161.976562 79.765625 160.476562 C 79.765625 158.933594 80.015625 158.183594 81.140625 157.246094 L 81.058594 157.101562 C 79.789062 157.871094 79.078125 159.015625 79.078125 160.496094 C 79.078125 161.871094 79.765625 163.203125 81.039062 163.933594 Z M 81.140625 163.808594 "/>
<path style=" stroke:none;fill-rule:nonzero;fill:rgb(0%,0%,0%);fill-opacity:1;" d="M 85.160156 161.414062 L 85.054688 161.371094 C 84.785156 161.828125 84.617188 161.914062 84.285156 161.914062 L 82.410156 161.914062 L 83.722656 160.496094 C 84.429688 159.746094 84.742188 159.140625 84.742188 158.515625 C 84.742188 157.726562 84.179688 157.101562 83.265625 157.101562 C 82.285156 157.101562 81.785156 157.765625 81.617188 158.703125 L 81.785156 158.746094 C 82.097656 157.953125 82.367188 157.703125 82.953125 157.703125 C 83.640625 157.703125 84.054688 158.101562 84.054688 158.828125 C 84.054688 159.515625 83.785156 160.121094 83.015625 160.914062 L 81.597656 162.414062 L 81.597656 162.515625 L 84.722656 162.515625 Z M 85.160156 161.414062 "/>
<path style=" stroke:none;fill-rule:nonzero;fill:rgb(0%,0%,0%);fill-opacity:1;" d="M 85.597656 157.246094 C 86.765625 158.140625 86.953125 159.058594 86.953125 160.558594 C 86.953125 162.121094 86.742188 162.871094 85.597656 163.808594 L 85.679688 163.933594 C 86.953125 163.164062 87.640625 162.015625 87.640625 160.539062 C 87.640625 159.183594 86.910156 157.851562 85.703125 157.101562 Z M 85.597656 157.246094 "/>
<path style="fill:none;stroke-width:1;stroke-linecap:round;stroke-linejoin:round;stroke:rgb(0%,0%,0%);stroke-opacity:1;stroke-miterlimit:10;" d="M 100.805664 579.56543 L 124.805664 579.56543 L 124.805664 603.56543 L 100.805664 603.56543 Z M 100.805664 579.56543 " transform="matrix(1.333333,0,0,1.333333,-73.333333,-712)"/>
<path style=" stroke:none;fill-rule:nonzero;fill:rgb(0%,0%,0%);fill-opacity:1;" d="M 76.84375 82.085938 L 76.84375 81.796875 C 75.988281 81.671875 75.78125 81.546875 75.78125 80.921875 L 75.78125 75.171875 C 75.78125 74.523438 76.03125 74.335938 76.84375 74.273438 L 76.84375 73.984375 L 72.78125 73.984375 L 72.78125 74.273438 C 73.613281 74.335938 73.84375 74.484375 73.84375 75.171875 L 73.84375 77.609375 L 70.945312 77.609375 L 70.945312 75.171875 C 70.945312 74.484375 71.175781 74.335938 72.03125 74.273438 L 72.03125 73.984375 L 67.988281 73.984375 L 67.988281 74.273438 C 68.800781 74.335938 69.007812 74.503906 69.007812 75.171875 L 69.007812 80.921875 C 69.007812 81.546875 68.820312 81.671875 67.988281 81.796875 L 67.988281 82.085938 L 72.03125 82.085938 L 72.03125 81.796875 C 71.15625 81.691406 70.945312 81.546875 70.945312 80.921875 L 70.945312 78.171875 L 73.84375 78.171875 L 73.84375 80.921875 C 73.84375 81.523438 73.65625 81.691406 72.78125 81.796875 L 72.78125 82.085938 Z M 76.84375 82.085938 "/>
<path style=" stroke:none;fill-rule:nonzero;fill:rgb(0%,0%,0%);fill-opacity:1;" d="M 80.867188 84.984375 L 80.761719 84.941406 C 80.492188 85.398438 80.324219 85.484375 79.992188 85.484375 L 78.117188 85.484375 L 79.429688 84.066406 C 80.136719 83.316406 80.449219 82.710938 80.449219 82.085938 C 80.449219 81.296875 79.886719 80.671875 78.96875 80.671875 C 77.992188 80.671875 77.492188 81.335938 77.324219 82.273438 L 77.492188 82.316406 C 77.804688 81.523438 78.074219 81.273438 78.65625 81.273438 C 79.34375 81.273438 79.761719 81.671875 79.761719 82.398438 C 79.761719 83.085938 79.492188 83.691406 78.71875 84.484375 L 77.304688 85.984375 L 77.304688 86.085938 L 80.429688 86.085938 Z M 80.867188 84.984375 "/>
<path style=" stroke:none;fill-rule:nonzero;fill:rgb(0%,0%,0%);fill-opacity:1;" d="M 80.917969 74.839844 C 79.792969 73.902344 79.542969 73.007812 79.542969 71.507812 C 79.542969 69.964844 79.792969 69.214844 80.917969 68.277344 L 80.835938 68.132812 C 79.5625 68.902344 78.855469 70.046875 78.855469 71.527344 C 78.855469 72.902344 79.542969 74.234375 80.8125 74.964844 Z M 80.917969 74.839844 "/>
<path style=" stroke:none;fill-rule:nonzero;fill:rgb(0%,0%,0%);fill-opacity:1;" d="M 85.625 72.109375 L 85.457031 72.070312 C 85.226562 72.527344 85.0625 72.796875 84.789062 72.964844 C 84.414062 73.214844 84.164062 73.257812 83.351562 73.257812 C 82.707031 73.257812 82.519531 73.171875 82.519531 72.921875 C 82.519531 72.820312 82.5625 72.695312 82.601562 72.507812 L 83.5625 69.070312 C 83.6875 68.609375 83.894531 68.484375 84.375 68.445312 L 84.375 68.320312 L 82.1875 68.320312 L 82.1875 68.445312 C 82.6875 68.484375 82.789062 68.570312 82.789062 68.796875 C 82.789062 68.921875 82.769531 69.070312 82.707031 69.296875 L 81.726562 72.796875 C 81.601562 73.296875 81.519531 73.382812 81.082031 73.421875 L 81.082031 73.546875 L 85.144531 73.546875 Z M 85.625 72.109375 "/>
<path style=" stroke:none;fill-rule:nonzero;fill:rgb(0%,0%,0%);fill-opacity:1;" d="M 85.820312 68.277344 C 86.988281 69.171875 87.175781 70.089844 87.175781 71.589844 C 87.175781 73.152344 86.96875 73.902344 85.820312 74.839844 L 85.90625 74.964844 C 87.175781 74.195312 87.863281 73.046875 87.863281 71.570312 C 87.863281 70.214844 87.132812 68.882812 85.925781 68.132812 Z M 85.820312 68.277344 "/>
<path style="fill:none;stroke-width:1;stroke-linecap:round;stroke-linejoin:round;stroke:rgb(0%,0%,0%);stroke-opacity:1;stroke-miterlimit:10;" d="M 229.606445 579.524414 L 253.606445 579.524414 L 253.606445 603.524414 L 229.606445 603.524414 Z M 229.606445 579.524414 " transform="matrix(1.333333,0,0,1.333333,-73.333333,-712)"/>
<path style=" stroke:none;fill-rule:nonzero;fill:rgb(0%,0%,0%);fill-opacity:1;" d="M 248.574219 82.03125 L 248.574219 81.738281 C 247.722656 81.613281 247.511719 81.488281 247.511719 80.863281 L 247.511719 75.113281 C 247.511719 74.46875 247.761719 74.28125 248.574219 74.21875 L 248.574219 73.925781 L 244.511719 73.925781 L 244.511719 74.21875 C 245.347656 74.28125 245.574219 74.425781 245.574219 75.113281 L 245.574219 77.550781 L 242.679688 77.550781 L 242.679688 75.113281 C 242.679688 74.425781 242.910156 74.28125 243.761719 74.21875 L 243.761719 73.925781 L 239.722656 73.925781 L 239.722656 74.21875 C 240.535156 74.28125 240.742188 74.445312 240.742188 75.113281 L 240.742188 80.863281 C 240.742188 81.488281 240.554688 81.613281 239.722656 81.738281 L 239.722656 82.03125 L 243.761719 82.03125 L 243.761719 81.738281 C 242.886719 81.632812 242.679688 81.488281 242.679688 80.863281 L 242.679688 78.113281 L 245.574219 78.113281 L 245.574219 80.863281 C 245.574219 81.46875 245.386719 81.632812 244.511719 81.738281 L 244.511719 82.03125 Z M 248.574219 82.03125 "/>
<path style=" stroke:none;fill-rule:nonzero;fill:rgb(0%,0%,0%);fill-opacity:1;" d="M 253.871094 80.800781 L 249.621094 80.800781 L 249.285156 82.050781 L 249.433594 82.070312 C 249.808594 81.21875 250.058594 81.09375 251.328125 81.09375 L 250.183594 85.300781 C 250.058594 85.738281 249.871094 85.863281 249.328125 85.90625 L 249.328125 86.03125 L 251.640625 86.03125 L 251.640625 85.90625 L 251.347656 85.882812 C 251.015625 85.84375 250.933594 85.78125 250.933594 85.53125 C 250.933594 85.363281 250.996094 85.175781 251.035156 85.007812 L 252.140625 81.09375 L 252.597656 81.09375 C 253.121094 81.09375 253.410156 81.300781 253.410156 81.738281 C 253.410156 81.84375 253.390625 81.96875 253.390625 82.09375 L 253.515625 82.113281 Z M 253.871094 80.800781 "/>
<path style=" stroke:none;fill-rule:nonzero;fill:rgb(0%,0%,0%);fill-opacity:1;" d="M 252.652344 74.78125 C 251.527344 73.84375 251.277344 72.949219 251.277344 71.449219 C 251.277344 69.90625 251.527344 69.15625 252.652344 68.21875 L 252.570312 68.074219 C 251.296875 68.84375 250.589844 69.992188 250.589844 71.46875 C 250.589844 72.84375 251.277344 74.179688 252.546875 74.90625 Z M 252.652344 74.78125 "/>
<path style=" stroke:none;fill-rule:nonzero;fill:rgb(0%,0%,0%);fill-opacity:1;" d="M 257.359375 72.054688 L 257.191406 72.011719 C 256.960938 72.46875 256.796875 72.742188 256.523438 72.90625 C 256.148438 73.15625 255.898438 73.199219 255.085938 73.199219 C 254.441406 73.199219 254.253906 73.117188 254.253906 72.867188 C 254.253906 72.761719 254.296875 72.636719 254.335938 72.449219 L 255.296875 69.011719 C 255.421875 68.554688 255.628906 68.429688 256.109375 68.386719 L 256.109375 68.261719 L 253.921875 68.261719 L 253.921875 68.386719 C 254.421875 68.429688 254.523438 68.511719 254.523438 68.742188 C 254.523438 68.867188 254.503906 69.011719 254.441406 69.242188 L 253.460938 72.742188 C 253.335938 73.242188 253.253906 73.324219 252.816406 73.367188 L 252.816406 73.492188 L 256.878906 73.492188 Z M 257.359375 72.054688 "/>
<path style=" stroke:none;fill-rule:nonzero;fill:rgb(0%,0%,0%);fill-opacity:1;" d="M 257.554688 68.21875 C 258.722656 69.117188 258.910156 70.03125 258.910156 71.53125 C 258.910156 73.09375 258.703125 73.84375 257.554688 74.78125 L 257.640625 74.90625 C 258.910156 74.136719 259.597656 72.992188 259.597656 71.511719 C 259.597656 70.15625 258.867188 68.824219 257.660156 68.074219 Z M 257.554688 68.21875 "/>
<path style="fill:none;stroke-width:1;stroke-linecap:round;stroke-linejoin:round;stroke:rgb(0%,0%,0%);stroke-opacity:1;stroke-miterlimit:10;" d="M 67.805664 734.859375 L 67.805664 720.477539 " transform="matrix(1.333333,0,0,1.333333,-73.333333,-712)"/>
<path style="fill:none;stroke-width:1;stroke-linecap:butt;stroke-linejoin:miter;stroke:rgb(0%,0%,0%);stroke-opacity:1;stroke-miterlimit:10;" d="M 67.805664 716.475586 L 67.805664 720.477539 M 66.305664 720.477539 L 67.805664 716.475586 L 69.305664 720.477539 " transform="matrix(1.333333,0,0,1.333333,-73.333333,-712)"/>
<path style="fill:none;stroke-width:1;stroke-linecap:round;stroke-linejoin:round;stroke:rgb(0%,0%,0%);stroke-opacity:1;stroke-miterlimit:10;" d="M 79.805664 702.574219 L 94.902344 702.574219 " transform="matrix(1.333333,0,0,1.333333,-73.333333,-712)"/>
<path style="fill:none;stroke-width:1;stroke-linecap:butt;stroke-linejoin:miter;stroke:rgb(0%,0%,0%);stroke-opacity:1;stroke-miterlimit:10;" d="M 98.901367 702.574219 L 94.902344 702.574219 M 94.902344 701.074219 L 98.901367 702.574219 L 94.902344 704.074219 " transform="matrix(1.333333,0,0,1.333333,-73.333333,-712)"/>
<path style="fill:none;stroke-width:1;stroke-linecap:round;stroke-linejoin:round;stroke:rgb(0%,0%,0%);stroke-opacity:1;stroke-miterlimit:10;" d="M 171.704102 702.574219 L 188.702148 702.574219 " transform="matrix(1.333333,0,0,1.333333,-73.333333,-712)"/>
<path style="fill:none;stroke-width:1;stroke-linecap:butt;stroke-linejoin:miter;stroke:rgb(0%,0%,0%);stroke-opacity:1;stroke-miterlimit:10;" d="M 192.704102 702.574219 L 188.702148 702.574219 M 188.702148 701.074219 L 192.704102 702.574219 L 188.702148 704.074219 " transform="matrix(1.333333,0,0,1.333333,-73.333333,-712)"/>
<path style="fill:none;stroke-width:1;stroke-linecap:round;stroke-linejoin:round;stroke:rgb(0%,0%,0%);stroke-opacity:1;stroke-miterlimit:10;" d="M 209.491211 702.574219 L 223.703125 702.574219 " transform="matrix(1.333333,0,0,1.333333,-73.333333,-712)"/>
<path style="fill:none;stroke-width:1;stroke-linecap:butt;stroke-linejoin:miter;stroke:rgb(0%,0%,0%);stroke-opacity:1;stroke-miterlimit:10;" d="M 227.702148 702.574219 L 223.703125 702.574219 M 223.703125 701.074219 L 227.702148 702.574219 L 223.703125 704.074219 " transform="matrix(1.333333,0,0,1.333333,-73.333333,-712)"/>
<path style="fill:none;stroke-width:1;stroke-linecap:round;stroke-linejoin:round;stroke:rgb(0%,0%,0%);stroke-opacity:1;stroke-miterlimit:10;" d="M 67.805664 579.56543 L 67.805664 564.899414 " transform="matrix(1.333333,0,0,1.333333,-73.333333,-712)"/>
<path style="fill:none;stroke-width:1;stroke-linecap:butt;stroke-linejoin:miter;stroke:rgb(0%,0%,0%);stroke-opacity:1;stroke-miterlimit:10;" d="M 67.805664 560.897461 L 67.805664 564.899414 M 66.305664 564.899414 L 67.805664 560.897461 L 69.305664 564.899414 " transform="matrix(1.333333,0,0,1.333333,-73.333333,-712)"/>
<path style="fill:none;stroke-width:1;stroke-linecap:round;stroke-linejoin:round;stroke:rgb(0%,0%,0%);stroke-opacity:1;stroke-miterlimit:10;" d="M 241.606445 734.859375 L 241.606445 720.477539 " transform="matrix(1.333333,0,0,1.333333,-73.333333,-712)"/>
<path style="fill:none;stroke-width:1;stroke-linecap:butt;stroke-linejoin:miter;stroke:rgb(0%,0%,0%);stroke-opacity:1;stroke-miterlimit:10;" d="M 241.606445 716.475586 L 241.606445 720.477539 M 240.106445 720.477539 L 241.606445 716.475586 L 243.106445 720.477539 " transform="matrix(1.333333,0,0,1.333333,-73.333333,-712)"/>
<path style="fill:none;stroke-width:1;stroke-linecap:round;stroke-linejoin:round;stroke:rgb(0%,0%,0%);stroke-opacity:1;stroke-miterlimit:10;" d="M 79.805664 591.56543 L 94.902344 591.56543 " transform="matrix(1.333333,0,0,1.333333,-73.333333,-712)"/>
<path style="fill:none;stroke-width:1;stroke-linecap:butt;stroke-linejoin:miter;stroke:rgb(0%,0%,0%);stroke-opacity:1;stroke-miterlimit:10;" d="M 98.901367 591.56543 L 94.902344 591.56543 M 94.902344 590.06543 L 98.901367 591.56543 L 94.902344 593.06543 " transform="matrix(1.333333,0,0,1.333333,-73.333333,-712)"/>
<path style="fill:none;stroke-width:1;stroke-linecap:round;stroke-linejoin:round;stroke:rgb(0%,0%,0%);stroke-opacity:1;stroke-miterlimit:10;" d="M 171.704102 591.56543 L 191.256836 591.56543 " transform="matrix(1.333333,0,0,1.333333,-73.333333,-712)"/>
<path style="fill:none;stroke-width:1;stroke-linecap:butt;stroke-linejoin:miter;stroke:rgb(0%,0%,0%);stroke-opacity:1;stroke-miterlimit:10;" d="M 195.258789 591.56543 L 191.256836 591.56543 M 191.256836 590.06543 L 195.258789 591.56543 L 191.256836 593.06543 " transform="matrix(1.333333,0,0,1.333333,-73.333333,-712)"/>
<path style="fill:none;stroke-width:1;stroke-linecap:round;stroke-linejoin:round;stroke:rgb(0%,0%,0%);stroke-opacity:1;stroke-miterlimit:10;" d="M 212.045898 591.553711 L 223.703125 591.541992 " transform="matrix(1.333333,0,0,1.333333,-73.333333,-712)"/>
<path style="fill:none;stroke-width:1;stroke-linecap:butt;stroke-linejoin:miter;stroke:rgb(0%,0%,0%);stroke-opacity:1;stroke-miterlimit:10;" d="M 227.702148 591.539062 L 223.703125 591.541992 M 223.703125 590.041992 L 227.702148 591.539062 L 223.706055 593.041992 " transform="matrix(1.333333,0,0,1.333333,-73.333333,-712)"/>
<path style="fill:none;stroke-width:1;stroke-linecap:round;stroke-linejoin:round;stroke:rgb(0%,0%,0%);stroke-opacity:1;stroke-miterlimit:10;" d="M 241.606445 579.524414 L 241.606445 564.899414 " transform="matrix(1.333333,0,0,1.333333,-73.333333,-712)"/>
<path style="fill:none;stroke-width:1;stroke-linecap:butt;stroke-linejoin:miter;stroke:rgb(0%,0%,0%);stroke-opacity:1;stroke-miterlimit:10;" d="M 241.606445 560.897461 L 241.606445 564.899414 M 240.106445 564.899414 L 241.606445 560.897461 L 243.106445 564.899414 " transform="matrix(1.333333,0,0,1.333333,-73.333333,-712)"/>
<path style="fill:none;stroke-width:1;stroke-linecap:round;stroke-linejoin:round;stroke:rgb(0%,0%,0%);stroke-opacity:1;stroke-miterlimit:10;" d="M 79.805664 658.291992 L 94.902344 658.291992 " transform="matrix(1.333333,0,0,1.333333,-73.333333,-712)"/>
<path style="fill:none;stroke-width:1;stroke-linecap:butt;stroke-linejoin:miter;stroke:rgb(0%,0%,0%);stroke-opacity:1;stroke-miterlimit:10;" d="M 98.901367 658.291992 L 94.902344 658.291992 M 94.902344 656.791992 L 98.901367 658.291992 L 94.902344 659.791992 " transform="matrix(1.333333,0,0,1.333333,-73.333333,-712)"/>
<path style="fill:none;stroke-width:1;stroke-linecap:round;stroke-linejoin:round;stroke:rgb(0%,0%,0%);stroke-opacity:1;stroke-miterlimit:10;" d="M 171.704102 658.291992 L 191.256836 658.291992 " transform="matrix(1.333333,0,0,1.333333,-73.333333,-712)"/>
<path style="fill:none;stroke-width:1;stroke-linecap:butt;stroke-linejoin:miter;stroke:rgb(0%,0%,0%);stroke-opacity:1;stroke-miterlimit:10;" d="M 195.258789 658.291992 L 191.256836 658.291992 M 191.256836 656.791992 L 195.258789 658.291992 L 191.256836 659.791992 " transform="matrix(1.333333,0,0,1.333333,-73.333333,-712)"/>
<path style="fill:none;stroke-width:1;stroke-linecap:round;stroke-linejoin:round;stroke:rgb(0%,0%,0%);stroke-opacity:1;stroke-miterlimit:10;" d="M 212.045898 658.291992 L 223.703125 658.291992 " transform="matrix(1.333333,0,0,1.333333,-73.333333,-712)"/>
<path style="fill:none;stroke-width:1;stroke-linecap:butt;stroke-linejoin:miter;stroke:rgb(0%,0%,0%);stroke-opacity:1;stroke-miterlimit:10;" d="M 227.702148 658.291992 L 223.703125 658.291992 M 223.703125 656.791992 L 227.702148 658.291992 L 223.703125 659.791992 " transform="matrix(1.333333,0,0,1.333333,-73.333333,-712)"/>
<path style="fill:none;stroke-width:1;stroke-linecap:round;stroke-linejoin:round;stroke:rgb(0%,0%,0%);stroke-opacity:1;stroke-miterlimit:10;" d="M 112.805664 579.56543 L 112.805664 564.899414 " transform="matrix(1.333333,0,0,1.333333,-73.333333,-712)"/>
<path style="fill:none;stroke-width:1;stroke-linecap:butt;stroke-linejoin:miter;stroke:rgb(0%,0%,0%);stroke-opacity:1;stroke-miterlimit:10;" d="M 112.805664 560.897461 L 112.805664 564.899414 M 111.305664 564.899414 L 112.805664 560.897461 L 114.305664 564.899414 " transform="matrix(1.333333,0,0,1.333333,-73.333333,-712)"/>
<path style="fill:none;stroke-width:1;stroke-linecap:round;stroke-linejoin:round;stroke:rgb(0%,0%,0%);stroke-opacity:1;stroke-miterlimit:10;" d="M 67.805664 690.574219 L 67.805664 676.192383 " transform="matrix(1.333333,0,0,1.333333,-73.333333,-712)"/>
<path style="fill:none;stroke-width:1;stroke-linecap:butt;stroke-linejoin:miter;stroke:rgb(0%,0%,0%);stroke-opacity:1;stroke-miterlimit:10;" d="M 67.805664 672.19043 L 67.805664 676.192383 M 66.305664 676.192383 L 67.805664 672.19043 L 69.305664 676.192383 " transform="matrix(1.333333,0,0,1.333333,-73.333333,-712)"/>
<path style="fill:none;stroke-width:1;stroke-linecap:round;stroke-linejoin:round;stroke:rgb(0%,0%,0%);stroke-opacity:1;stroke-miterlimit:10;" d="M 67.805664 646.291992 L 67.805664 639.128906 " transform="matrix(1.333333,0,0,1.333333,-73.333333,-712)"/>
<path style="fill:none;stroke-width:1;stroke-linecap:butt;stroke-linejoin:miter;stroke:rgb(0%,0%,0%);stroke-opacity:1;stroke-miterlimit:10;" d="M 67.805664 635.129883 L 67.805664 639.128906 M 66.305664 639.128906 L 67.805664 635.129883 L 69.305664 639.128906 " transform="matrix(1.333333,0,0,1.333333,-73.333333,-712)"/>
<path style="fill:none;stroke-width:1;stroke-linecap:round;stroke-linejoin:round;stroke:rgb(0%,0%,0%);stroke-opacity:1;stroke-miterlimit:10;" d="M 67.805664 615.231445 L 67.805664 609.46582 " transform="matrix(1.333333,0,0,1.333333,-73.333333,-712)"/>
<path style="fill:none;stroke-width:1;stroke-linecap:butt;stroke-linejoin:miter;stroke:rgb(0%,0%,0%);stroke-opacity:1;stroke-miterlimit:10;" d="M 67.805664 605.463867 L 67.805664 609.46582 M 66.305664 609.46582 L 67.805664 605.463867 L 69.305664 609.46582 " transform="matrix(1.333333,0,0,1.333333,-73.333333,-712)"/>
<path style="fill:none;stroke-width:1;stroke-linecap:round;stroke-linejoin:round;stroke:rgb(0%,0%,0%);stroke-opacity:1;stroke-miterlimit:10;" d="M 112.805664 690.574219 L 112.805664 676.192383 " transform="matrix(1.333333,0,0,1.333333,-73.333333,-712)"/>
<path style="fill:none;stroke-width:1;stroke-linecap:butt;stroke-linejoin:miter;stroke:rgb(0%,0%,0%);stroke-opacity:1;stroke-miterlimit:10;" d="M 112.805664 672.19043 L 112.805664 676.192383 M 111.305664 676.192383 L 112.805664 672.19043 L 114.305664 676.192383 " transform="matrix(1.333333,0,0,1.333333,-73.333333,-712)"/>
<path style="fill:none;stroke-width:1;stroke-linecap:round;stroke-linejoin:round;stroke:rgb(0%,0%,0%);stroke-opacity:1;stroke-miterlimit:10;" d="M 241.606445 690.574219 L 241.606445 676.192383 " transform="matrix(1.333333,0,0,1.333333,-73.333333,-712)"/>
<path style="fill:none;stroke-width:1;stroke-linecap:butt;stroke-linejoin:miter;stroke:rgb(0%,0%,0%);stroke-opacity:1;stroke-miterlimit:10;" d="M 241.606445 672.19043 L 241.606445 676.192383 M 240.106445 676.192383 L 241.606445 672.19043 L 243.106445 676.192383 " transform="matrix(1.333333,0,0,1.333333,-73.333333,-712)"/>
<path style=" stroke:none;fill-rule:nonzero;fill:rgb(0%,0%,0%);fill-opacity:1;" d="M 81.3125 125.589844 C 81.3125 125.191406 80.957031 124.839844 80.5625 124.839844 C 80.164062 124.839844 79.832031 125.171875 79.832031 125.589844 C 79.832031 125.984375 80.164062 126.316406 80.539062 126.316406 C 80.957031 126.316406 81.3125 126.003906 81.3125 125.589844 Z M 77.351562 125.589844 C 77.351562 125.191406 77 124.839844 76.601562 124.839844 C 76.207031 124.839844 75.875 125.171875 75.875 125.589844 C 75.875 125.984375 76.207031 126.316406 76.5625 126.316406 C 77 126.316406 77.351562 126.003906 77.351562 125.589844 Z M 73.394531 125.589844 C 73.394531 125.191406 73.039062 124.839844 72.644531 124.839844 C 72.226562 124.839844 71.894531 125.171875 71.894531 125.589844 C 71.894531 125.984375 72.226562 126.316406 72.601562 126.316406 C 73.039062 126.316406 73.394531 126.003906 73.394531 125.589844 Z M 73.394531 125.589844 "/>
<path style="fill:none;stroke-width:1;stroke-linecap:round;stroke-linejoin:round;stroke:rgb(0%,0%,0%);stroke-opacity:1;stroke-miterlimit:10;" d="M 112.805664 646.291992 L 112.805664 640.532227 " transform="matrix(1.333333,0,0,1.333333,-73.333333,-712)"/>
<path style="fill:none;stroke-width:1;stroke-linecap:butt;stroke-linejoin:miter;stroke:rgb(0%,0%,0%);stroke-opacity:1;stroke-miterlimit:10;" d="M 112.805664 636.530273 L 112.805664 640.532227 M 111.305664 640.532227 L 112.805664 636.530273 L 114.305664 640.532227 " transform="matrix(1.333333,0,0,1.333333,-73.333333,-712)"/>
<path style="fill:none;stroke-width:1;stroke-linecap:round;stroke-linejoin:round;stroke:rgb(0%,0%,0%);stroke-opacity:1;stroke-miterlimit:10;" d="M 112.805664 616.628906 L 112.805664 609.46582 " transform="matrix(1.333333,0,0,1.333333,-73.333333,-712)"/>
<path style="fill:none;stroke-width:1;stroke-linecap:butt;stroke-linejoin:miter;stroke:rgb(0%,0%,0%);stroke-opacity:1;stroke-miterlimit:10;" d="M 112.805664 605.463867 L 112.805664 609.46582 M 111.305664 609.46582 L 112.805664 605.463867 L 114.305664 609.46582 " transform="matrix(1.333333,0,0,1.333333,-73.333333,-712)"/>
<path style=" stroke:none;fill-rule:nonzero;fill:rgb(0%,0%,0%);fill-opacity:1;" d="M 253.042969 124.253906 C 253.042969 123.859375 252.691406 123.503906 252.292969 123.503906 C 251.898438 123.503906 251.566406 123.839844 251.566406 124.253906 C 251.566406 124.652344 251.898438 124.984375 252.273438 124.984375 C 252.691406 124.984375 253.042969 124.671875 253.042969 124.253906 Z M 249.085938 124.253906 C 249.085938 123.859375 248.730469 123.503906 248.335938 123.503906 C 247.941406 123.503906 247.605469 123.839844 247.605469 124.253906 C 247.605469 124.652344 247.941406 124.984375 248.292969 124.984375 C 248.730469 124.984375 249.085938 124.671875 249.085938 124.253906 Z M 245.128906 124.253906 C 245.128906 123.859375 244.773438 123.503906 244.378906 123.503906 C 243.960938 123.503906 243.628906 123.839844 243.628906 124.253906 C 243.628906 124.652344 243.960938 124.984375 244.335938 124.984375 C 244.773438 124.984375 245.128906 124.671875 245.128906 124.253906 Z M 245.128906 124.253906 "/>
<path style="fill:none;stroke-width:1;stroke-linecap:round;stroke-linejoin:round;stroke:rgb(0%,0%,0%);stroke-opacity:1;stroke-miterlimit:10;" d="M 241.606445 646.291992 L 241.606445 639.530273 " transform="matrix(1.333333,0,0,1.333333,-73.333333,-712)"/>
<path style="fill:none;stroke-width:1;stroke-linecap:butt;stroke-linejoin:miter;stroke:rgb(0%,0%,0%);stroke-opacity:1;stroke-miterlimit:10;" d="M 241.606445 635.53125 L 241.606445 639.530273 M 240.106445 639.530273 L 241.606445 635.53125 L 243.106445 639.530273 " transform="matrix(1.333333,0,0,1.333333,-73.333333,-712)"/>
<path style="fill:none;stroke-width:1;stroke-linecap:round;stroke-linejoin:round;stroke:rgb(0%,0%,0%);stroke-opacity:1;stroke-miterlimit:10;" d="M 241.606445 615.629883 L 241.606445 609.421875 " transform="matrix(1.333333,0,0,1.333333,-73.333333,-712)"/>
<path style="fill:none;stroke-width:1;stroke-linecap:butt;stroke-linejoin:miter;stroke:rgb(0%,0%,0%);stroke-opacity:1;stroke-miterlimit:10;" d="M 241.606445 605.422852 L 241.606445 609.421875 M 240.106445 609.421875 L 241.606445 605.422852 L 243.106445 609.421875 " transform="matrix(1.333333,0,0,1.333333,-73.333333,-712)"/>
<path style="fill-rule:nonzero;fill:rgb(69.803923%,85.09804%,100%);fill-opacity:1;stroke-width:1;stroke-linecap:round;stroke-linejoin:round;stroke:rgb(0%,0%,0%);stroke-opacity:1;stroke-miterlimit:10;" d="M 147.704102 734.859375 L 171.704102 734.859375 L 171.704102 758.859375 L 147.704102 758.859375 Z M 147.704102 734.859375 " transform="matrix(1.333333,0,0,1.333333,-73.333333,-712)"/>
<path style=" stroke:none;fill-rule:nonzero;fill:rgb(0%,0%,0%);fill-opacity:1;" d="M 141.667969 285.8125 L 141.667969 285.523438 C 141.253906 285.5 141.066406 285.355469 140.503906 284.480469 L 138.316406 281.085938 L 139.273438 279.75 C 140.316406 278.292969 140.628906 278.085938 141.523438 278 L 141.523438 277.710938 L 138.523438 277.710938 L 138.523438 278 L 138.773438 278.023438 C 139.230469 278.0625 139.398438 278.167969 139.398438 278.4375 C 139.398438 278.710938 139.253906 278.9375 138.691406 279.710938 L 138.023438 280.648438 L 136.855469 278.835938 C 136.710938 278.605469 136.691406 278.542969 136.691406 278.398438 C 136.691406 278.148438 136.816406 278.042969 137.253906 278.023438 L 137.628906 278 L 137.628906 277.710938 L 133.480469 277.710938 L 133.480469 278 C 133.917969 278.042969 134.066406 278.167969 134.441406 278.6875 L 136.816406 282.1875 L 134.710938 284.835938 C 134.355469 285.292969 134.066406 285.4375 133.460938 285.523438 L 133.460938 285.8125 L 136.460938 285.8125 L 136.460938 285.523438 C 135.730469 285.4375 135.503906 285.3125 135.503906 285 C 135.503906 284.75 135.730469 284.375 136.628906 283.167969 L 137.085938 282.5625 L 138.292969 284.5 C 138.441406 284.730469 138.542969 285 138.542969 285.148438 C 138.542969 285.355469 138.335938 285.460938 137.917969 285.480469 L 137.585938 285.523438 L 137.585938 285.8125 Z M 141.667969 285.8125 "/>
<path style=" stroke:none;fill-rule:nonzero;fill:rgb(0%,0%,0%);fill-opacity:1;" d="M 142.414062 285.730469 C 142.75 285.148438 143.125 284.875 143.625 284.875 C 144.144531 284.875 144.476562 285.167969 144.476562 285.710938 C 144.476562 286.1875 144.226562 286.542969 143.832031 286.773438 C 143.664062 286.875 143.457031 286.960938 143.164062 287.0625 L 143.164062 287.167969 C 143.625 287.167969 143.789062 287.1875 143.976562 287.25 C 144.519531 287.417969 144.8125 287.8125 144.8125 288.417969 C 144.8125 289.085938 144.351562 289.648438 143.769531 289.648438 C 143.539062 289.648438 143.375 289.605469 143.082031 289.398438 C 142.851562 289.230469 142.726562 289.1875 142.582031 289.1875 C 142.414062 289.1875 142.269531 289.292969 142.269531 289.460938 C 142.269531 289.75 142.582031 289.917969 143.164062 289.917969 C 143.875 289.917969 144.625 289.6875 145.019531 289.1875 C 145.25 288.875 145.394531 288.480469 145.394531 288.0625 C 145.394531 287.648438 145.25 287.273438 145.039062 287.023438 C 144.875 286.855469 144.726562 286.75 144.375 286.605469 C 144.894531 286.292969 145.101562 285.875 145.101562 285.5 C 145.101562 284.855469 144.601562 284.398438 143.875 284.398438 C 143.039062 284.398438 142.519531 284.9375 142.289062 285.710938 Z M 142.414062 285.730469 "/>
<path style="fill-rule:nonzero;fill:rgb(69.803923%,85.09804%,100%);fill-opacity:1;stroke-width:1;stroke-linecap:round;stroke-linejoin:round;stroke:rgb(0%,0%,0%);stroke-opacity:1;stroke-miterlimit:10;" d="M 147.704102 534.999023 L 171.704102 534.999023 L 171.704102 558.999023 L 147.704102 558.999023 Z M 147.704102 534.999023 " transform="matrix(1.333333,0,0,1.333333,-73.333333,-712)"/>
<path style=" stroke:none;fill-rule:nonzero;fill:rgb(0%,0%,0%);fill-opacity:1;" d="M 141.851562 15.3125 C 141.851562 12.832031 140.082031 11.042969 137.664062 11.042969 C 135.164062 11.042969 133.351562 12.769531 133.351562 15.332031 C 133.351562 17.8125 135.101562 19.5625 137.582031 19.5625 C 140.082031 19.5625 141.851562 17.8125 141.851562 15.3125 Z M 139.726562 15.394531 C 139.726562 17.875 139 19.167969 137.625 19.167969 C 136.25 19.167969 135.476562 17.894531 135.476562 15.375 C 135.476562 12.855469 136.226562 11.4375 137.5625 11.4375 C 138.957031 11.4375 139.726562 12.832031 139.726562 15.394531 Z M 139.726562 15.394531 "/>
<path style=" stroke:none;fill-rule:nonzero;fill:rgb(0%,0%,0%);fill-opacity:1;" d="M 142.753906 19.25 C 143.085938 18.667969 143.460938 18.394531 143.960938 18.394531 C 144.480469 18.394531 144.816406 18.6875 144.816406 19.230469 C 144.816406 19.707031 144.566406 20.0625 144.167969 20.292969 C 144.003906 20.394531 143.792969 20.480469 143.503906 20.582031 L 143.503906 20.6875 C 143.960938 20.6875 144.128906 20.707031 144.316406 20.769531 C 144.855469 20.9375 145.148438 21.332031 145.148438 21.9375 C 145.148438 22.605469 144.691406 23.167969 144.105469 23.167969 C 143.878906 23.167969 143.710938 23.125 143.417969 22.917969 C 143.191406 22.75 143.066406 22.707031 142.917969 22.707031 C 142.753906 22.707031 142.605469 22.8125 142.605469 22.980469 C 142.605469 23.269531 142.917969 23.4375 143.503906 23.4375 C 144.210938 23.4375 144.960938 23.207031 145.355469 22.707031 C 145.585938 22.394531 145.730469 22 145.730469 21.582031 C 145.730469 21.167969 145.585938 20.792969 145.378906 20.542969 C 145.210938 20.375 145.066406 20.269531 144.710938 20.125 C 145.230469 19.8125 145.441406 19.394531 145.441406 19.019531 C 145.441406 18.375 144.941406 17.917969 144.210938 17.917969 C 143.378906 17.917969 142.855469 18.457031 142.628906 19.230469 Z M 142.753906 19.25 "/>
<path style="fill:none;stroke-width:1;stroke-linecap:round;stroke-linejoin:round;stroke:rgb(0%,0%,0%);stroke-opacity:1;stroke-miterlimit:10;" d="M 159.704102 734.859375 L 159.704102 720.477539 " transform="matrix(1.333333,0,0,1.333333,-73.333333,-712)"/>
<path style="fill:none;stroke-width:1;stroke-linecap:butt;stroke-linejoin:miter;stroke:rgb(0%,0%,0%);stroke-opacity:1;stroke-miterlimit:10;" d="M 159.704102 716.475586 L 159.704102 720.477539 M 158.204102 720.477539 L 159.704102 716.475586 L 161.204102 720.477539 " transform="matrix(1.333333,0,0,1.333333,-73.333333,-712)"/>
<path style="fill:none;stroke-width:1;stroke-linecap:round;stroke-linejoin:round;stroke:rgb(0%,0%,0%);stroke-opacity:1;stroke-miterlimit:10;" d="M 147.704102 690.574219 L 171.704102 690.574219 L 171.704102 714.574219 L 147.704102 714.574219 Z M 147.704102 690.574219 " transform="matrix(1.333333,0,0,1.333333,-73.333333,-712)"/>
<path style=" stroke:none;fill-rule:nonzero;fill:rgb(0%,0%,0%);fill-opacity:1;" d="M 139.375 230.101562 L 139.375 229.808594 C 138.519531 229.683594 138.3125 229.558594 138.3125 228.933594 L 138.3125 223.183594 C 138.3125 222.539062 138.5625 222.351562 139.375 222.289062 L 139.375 221.996094 L 135.3125 221.996094 L 135.3125 222.289062 C 136.144531 222.351562 136.375 222.496094 136.375 223.183594 L 136.375 225.621094 L 133.480469 225.621094 L 133.480469 223.183594 C 133.480469 222.496094 133.707031 222.351562 134.5625 222.289062 L 134.5625 221.996094 L 130.519531 221.996094 L 130.519531 222.289062 C 131.332031 222.351562 131.542969 222.515625 131.542969 223.183594 L 131.542969 228.933594 C 131.542969 229.558594 131.355469 229.683594 130.519531 229.808594 L 130.519531 230.101562 L 134.5625 230.101562 L 134.5625 229.808594 C 133.6875 229.703125 133.480469 229.558594 133.480469 228.933594 L 133.480469 226.183594 L 136.375 226.183594 L 136.375 228.933594 C 136.375 229.539062 136.1875 229.703125 135.3125 229.808594 L 135.3125 230.101562 Z M 139.375 230.101562 "/>
<path style=" stroke:none;fill-rule:nonzero;fill:rgb(0%,0%,0%);fill-opacity:1;" d="M 140.085938 230.015625 C 140.421875 229.433594 140.796875 229.164062 141.296875 229.164062 C 141.816406 229.164062 142.148438 229.453125 142.148438 229.996094 C 142.148438 230.476562 141.898438 230.828125 141.503906 231.058594 C 141.335938 231.164062 141.128906 231.246094 140.835938 231.351562 L 140.835938 231.453125 C 141.296875 231.453125 141.460938 231.476562 141.648438 231.539062 C 142.191406 231.703125 142.484375 232.101562 142.484375 232.703125 C 142.484375 233.371094 142.023438 233.933594 141.441406 233.933594 C 141.210938 233.933594 141.046875 233.890625 140.753906 233.683594 C 140.523438 233.515625 140.398438 233.476562 140.253906 233.476562 C 140.085938 233.476562 139.941406 233.578125 139.941406 233.746094 C 139.941406 234.039062 140.253906 234.203125 140.835938 234.203125 C 141.546875 234.203125 142.296875 233.976562 142.691406 233.476562 C 142.921875 233.164062 143.066406 232.765625 143.066406 232.351562 C 143.066406 231.933594 142.921875 231.558594 142.710938 231.308594 C 142.546875 231.140625 142.398438 231.039062 142.046875 230.890625 C 142.566406 230.578125 142.773438 230.164062 142.773438 229.789062 C 142.773438 229.140625 142.273438 228.683594 141.546875 228.683594 C 140.710938 228.683594 140.191406 229.226562 139.960938 229.996094 Z M 140.085938 230.015625 "/>
<path style=" stroke:none;fill-rule:nonzero;fill:rgb(0%,0%,0%);fill-opacity:1;" d="M 143.675781 222.855469 C 142.550781 221.917969 142.300781 221.019531 142.300781 219.519531 C 142.300781 217.980469 142.550781 217.230469 143.675781 216.292969 L 143.59375 216.144531 C 142.320312 216.917969 141.613281 218.0625 141.613281 219.542969 C 141.613281 220.917969 142.300781 222.25 143.570312 222.980469 Z M 143.675781 222.855469 "/>
<path style=" stroke:none;fill-rule:nonzero;fill:rgb(0%,0%,0%);fill-opacity:1;" d="M 147.046875 221.5625 L 147.046875 221.4375 C 146.445312 221.4375 146.296875 221.292969 146.296875 220.957031 L 146.296875 216.1875 L 146.214844 216.144531 L 144.796875 216.875 L 144.796875 217 L 145.007812 216.917969 C 145.152344 216.855469 145.277344 216.8125 145.359375 216.8125 C 145.527344 216.8125 145.609375 216.9375 145.609375 217.207031 L 145.609375 220.8125 C 145.609375 221.25 145.445312 221.417969 144.839844 221.4375 L 144.839844 221.5625 Z M 147.046875 221.5625 "/>
<path style=" stroke:none;fill-rule:nonzero;fill:rgb(0%,0%,0%);fill-opacity:1;" d="M 148.132812 216.292969 C 149.296875 217.1875 149.484375 218.105469 149.484375 219.605469 C 149.484375 221.167969 149.277344 221.917969 148.132812 222.855469 L 148.214844 222.980469 C 149.484375 222.207031 150.171875 221.0625 150.171875 219.582031 C 150.171875 218.230469 149.445312 216.894531 148.234375 216.144531 Z M 148.132812 216.292969 "/>
<path style="fill:none;stroke-width:1;stroke-linecap:round;stroke-linejoin:round;stroke:rgb(0%,0%,0%);stroke-opacity:1;stroke-miterlimit:10;" d="M 147.704102 646.291992 L 171.704102 646.291992 L 171.704102 670.291992 L 147.704102 670.291992 Z M 147.704102 646.291992 " transform="matrix(1.333333,0,0,1.333333,-73.333333,-712)"/>
<path style=" stroke:none;fill-rule:nonzero;fill:rgb(0%,0%,0%);fill-opacity:1;" d="M 139.375 171.054688 L 139.375 170.761719 C 138.519531 170.636719 138.3125 170.511719 138.3125 169.886719 L 138.3125 164.136719 C 138.3125 163.492188 138.5625 163.304688 139.375 163.242188 L 139.375 162.949219 L 135.3125 162.949219 L 135.3125 163.242188 C 136.144531 163.304688 136.375 163.449219 136.375 164.136719 L 136.375 166.574219 L 133.480469 166.574219 L 133.480469 164.136719 C 133.480469 163.449219 133.707031 163.304688 134.5625 163.242188 L 134.5625 162.949219 L 130.519531 162.949219 L 130.519531 163.242188 C 131.332031 163.304688 131.542969 163.472656 131.542969 164.136719 L 131.542969 169.886719 C 131.542969 170.511719 131.355469 170.636719 130.519531 170.761719 L 130.519531 171.054688 L 134.5625 171.054688 L 134.5625 170.761719 C 133.6875 170.660156 133.480469 170.511719 133.480469 169.886719 L 133.480469 167.136719 L 136.375 167.136719 L 136.375 169.886719 C 136.375 170.492188 136.1875 170.660156 135.3125 170.761719 L 135.3125 171.054688 Z M 139.375 171.054688 "/>
<path style=" stroke:none;fill-rule:nonzero;fill:rgb(0%,0%,0%);fill-opacity:1;" d="M 140.085938 170.972656 C 140.421875 170.386719 140.796875 170.117188 141.296875 170.117188 C 141.816406 170.117188 142.148438 170.410156 142.148438 170.949219 C 142.148438 171.429688 141.898438 171.785156 141.503906 172.011719 C 141.335938 172.117188 141.128906 172.199219 140.835938 172.304688 L 140.835938 172.410156 C 141.296875 172.410156 141.460938 172.429688 141.648438 172.492188 C 142.191406 172.660156 142.484375 173.054688 142.484375 173.660156 C 142.484375 174.324219 142.023438 174.886719 141.441406 174.886719 C 141.210938 174.886719 141.046875 174.847656 140.753906 174.636719 C 140.523438 174.472656 140.398438 174.429688 140.253906 174.429688 C 140.085938 174.429688 139.941406 174.535156 139.941406 174.699219 C 139.941406 174.992188 140.253906 175.160156 140.835938 175.160156 C 141.546875 175.160156 142.296875 174.929688 142.691406 174.429688 C 142.921875 174.117188 143.066406 173.722656 143.066406 173.304688 C 143.066406 172.886719 142.921875 172.511719 142.710938 172.261719 C 142.546875 172.097656 142.398438 171.992188 142.046875 171.847656 C 142.566406 171.535156 142.773438 171.117188 142.773438 170.742188 C 142.773438 170.097656 142.273438 169.636719 141.546875 169.636719 C 140.710938 169.636719 140.191406 170.179688 139.960938 170.949219 Z M 140.085938 170.972656 "/>
<path style=" stroke:none;fill-rule:nonzero;fill:rgb(0%,0%,0%);fill-opacity:1;" d="M 143.675781 163.808594 C 142.550781 162.871094 142.300781 161.976562 142.300781 160.476562 C 142.300781 158.933594 142.550781 158.183594 143.675781 157.246094 L 143.59375 157.101562 C 142.320312 157.871094 141.613281 159.015625 141.613281 160.496094 C 141.613281 161.871094 142.300781 163.203125 143.570312 163.933594 Z M 143.675781 163.808594 "/>
<path style=" stroke:none;fill-rule:nonzero;fill:rgb(0%,0%,0%);fill-opacity:1;" d="M 147.695312 161.414062 L 147.589844 161.371094 C 147.320312 161.828125 147.152344 161.914062 146.820312 161.914062 L 144.945312 161.914062 L 146.257812 160.496094 C 146.964844 159.746094 147.277344 159.140625 147.277344 158.515625 C 147.277344 157.726562 146.714844 157.101562 145.796875 157.101562 C 144.820312 157.101562 144.320312 157.765625 144.152344 158.703125 L 144.320312 158.746094 C 144.632812 157.953125 144.902344 157.703125 145.484375 157.703125 C 146.171875 157.703125 146.589844 158.101562 146.589844 158.828125 C 146.589844 159.515625 146.320312 160.121094 145.546875 160.914062 L 144.132812 162.414062 L 144.132812 162.515625 L 147.257812 162.515625 Z M 147.695312 161.414062 "/>
<path style=" stroke:none;fill-rule:nonzero;fill:rgb(0%,0%,0%);fill-opacity:1;" d="M 148.132812 157.246094 C 149.296875 158.140625 149.484375 159.058594 149.484375 160.558594 C 149.484375 162.121094 149.277344 162.871094 148.132812 163.808594 L 148.214844 163.933594 C 149.484375 163.164062 150.171875 162.015625 150.171875 160.539062 C 150.171875 159.183594 149.445312 157.851562 148.234375 157.101562 Z M 148.132812 157.246094 "/>
<path style="fill:none;stroke-width:1;stroke-linecap:round;stroke-linejoin:round;stroke:rgb(0%,0%,0%);stroke-opacity:1;stroke-miterlimit:10;" d="M 147.704102 579.56543 L 171.704102 579.56543 L 171.704102 603.56543 L 147.704102 603.56543 Z M 147.704102 579.56543 " transform="matrix(1.333333,0,0,1.333333,-73.333333,-712)"/>
<path style=" stroke:none;fill-rule:nonzero;fill:rgb(0%,0%,0%);fill-opacity:1;" d="M 139.375 82.085938 L 139.375 81.796875 C 138.519531 81.671875 138.3125 81.546875 138.3125 80.921875 L 138.3125 75.171875 C 138.3125 74.523438 138.5625 74.335938 139.375 74.273438 L 139.375 73.984375 L 135.3125 73.984375 L 135.3125 74.273438 C 136.144531 74.335938 136.375 74.484375 136.375 75.171875 L 136.375 77.609375 L 133.480469 77.609375 L 133.480469 75.171875 C 133.480469 74.484375 133.707031 74.335938 134.5625 74.273438 L 134.5625 73.984375 L 130.519531 73.984375 L 130.519531 74.273438 C 131.332031 74.335938 131.542969 74.503906 131.542969 75.171875 L 131.542969 80.921875 C 131.542969 81.546875 131.355469 81.671875 130.519531 81.796875 L 130.519531 82.085938 L 134.5625 82.085938 L 134.5625 81.796875 C 133.6875 81.691406 133.480469 81.546875 133.480469 80.921875 L 133.480469 78.171875 L 136.375 78.171875 L 136.375 80.921875 C 136.375 81.523438 136.1875 81.691406 135.3125 81.796875 L 135.3125 82.085938 Z M 139.375 82.085938 "/>
<path style=" stroke:none;fill-rule:nonzero;fill:rgb(0%,0%,0%);fill-opacity:1;" d="M 140.085938 82.003906 C 140.421875 81.421875 140.796875 81.148438 141.296875 81.148438 C 141.816406 81.148438 142.148438 81.441406 142.148438 81.984375 C 142.148438 82.460938 141.898438 82.816406 141.503906 83.046875 C 141.335938 83.148438 141.128906 83.234375 140.835938 83.335938 L 140.835938 83.441406 C 141.296875 83.441406 141.460938 83.460938 141.648438 83.523438 C 142.191406 83.691406 142.484375 84.085938 142.484375 84.691406 C 142.484375 85.359375 142.023438 85.921875 141.441406 85.921875 C 141.210938 85.921875 141.046875 85.878906 140.753906 85.671875 C 140.523438 85.503906 140.398438 85.460938 140.253906 85.460938 C 140.085938 85.460938 139.941406 85.566406 139.941406 85.734375 C 139.941406 86.023438 140.253906 86.191406 140.835938 86.191406 C 141.546875 86.191406 142.296875 85.960938 142.691406 85.460938 C 142.921875 85.148438 143.066406 84.753906 143.066406 84.335938 C 143.066406 83.921875 142.921875 83.546875 142.710938 83.296875 C 142.546875 83.128906 142.398438 83.023438 142.046875 82.878906 C 142.566406 82.566406 142.773438 82.148438 142.773438 81.773438 C 142.773438 81.128906 142.273438 80.671875 141.546875 80.671875 C 140.710938 80.671875 140.191406 81.210938 139.960938 81.984375 Z M 140.085938 82.003906 "/>
<path style=" stroke:none;fill-rule:nonzero;fill:rgb(0%,0%,0%);fill-opacity:1;" d="M 143.453125 74.839844 C 142.328125 73.902344 142.078125 73.007812 142.078125 71.507812 C 142.078125 69.964844 142.328125 69.214844 143.453125 68.277344 L 143.367188 68.132812 C 142.097656 68.902344 141.390625 70.046875 141.390625 71.527344 C 141.390625 72.902344 142.078125 74.234375 143.347656 74.964844 Z M 143.453125 74.839844 "/>
<path style=" stroke:none;fill-rule:nonzero;fill:rgb(0%,0%,0%);fill-opacity:1;" d="M 148.15625 72.109375 L 147.992188 72.070312 C 147.761719 72.527344 147.59375 72.796875 147.324219 72.964844 C 146.949219 73.214844 146.699219 73.257812 145.886719 73.257812 C 145.242188 73.257812 145.054688 73.171875 145.054688 72.921875 C 145.054688 72.820312 145.09375 72.695312 145.136719 72.507812 L 146.09375 69.070312 C 146.21875 68.609375 146.429688 68.484375 146.90625 68.445312 L 146.90625 68.320312 L 144.71875 68.320312 L 144.71875 68.445312 C 145.21875 68.484375 145.324219 68.570312 145.324219 68.796875 C 145.324219 68.921875 145.304688 69.070312 145.242188 69.296875 L 144.261719 72.796875 C 144.136719 73.296875 144.054688 73.382812 143.617188 73.421875 L 143.617188 73.546875 L 147.679688 73.546875 Z M 148.15625 72.109375 "/>
<path style=" stroke:none;fill-rule:nonzero;fill:rgb(0%,0%,0%);fill-opacity:1;" d="M 148.355469 68.277344 C 149.523438 69.171875 149.710938 70.089844 149.710938 71.589844 C 149.710938 73.152344 149.5 73.902344 148.355469 74.839844 L 148.4375 74.964844 C 149.710938 74.195312 150.398438 73.046875 150.398438 71.570312 C 150.398438 70.214844 149.667969 68.882812 148.460938 68.132812 Z M 148.355469 68.277344 "/>
<path style="fill:none;stroke-width:1;stroke-linecap:round;stroke-linejoin:round;stroke:rgb(0%,0%,0%);stroke-opacity:1;stroke-miterlimit:10;" d="M 124.805664 702.574219 L 141.803711 702.574219 " transform="matrix(1.333333,0,0,1.333333,-73.333333,-712)"/>
<path style="fill:none;stroke-width:1;stroke-linecap:butt;stroke-linejoin:miter;stroke:rgb(0%,0%,0%);stroke-opacity:1;stroke-miterlimit:10;" d="M 145.805664 702.574219 L 141.803711 702.574219 M 141.803711 701.074219 L 145.805664 702.574219 L 141.803711 704.074219 " transform="matrix(1.333333,0,0,1.333333,-73.333333,-712)"/>
<path style="fill:none;stroke-width:1;stroke-linecap:round;stroke-linejoin:round;stroke:rgb(0%,0%,0%);stroke-opacity:1;stroke-miterlimit:10;" d="M 124.805664 591.56543 L 141.803711 591.56543 " transform="matrix(1.333333,0,0,1.333333,-73.333333,-712)"/>
<path style="fill:none;stroke-width:1;stroke-linecap:butt;stroke-linejoin:miter;stroke:rgb(0%,0%,0%);stroke-opacity:1;stroke-miterlimit:10;" d="M 145.805664 591.56543 L 141.803711 591.56543 M 141.803711 590.06543 L 145.805664 591.56543 L 141.803711 593.06543 " transform="matrix(1.333333,0,0,1.333333,-73.333333,-712)"/>
<path style="fill:none;stroke-width:1;stroke-linecap:round;stroke-linejoin:round;stroke:rgb(0%,0%,0%);stroke-opacity:1;stroke-miterlimit:10;" d="M 124.805664 658.291992 L 141.803711 658.291992 " transform="matrix(1.333333,0,0,1.333333,-73.333333,-712)"/>
<path style="fill:none;stroke-width:1;stroke-linecap:butt;stroke-linejoin:miter;stroke:rgb(0%,0%,0%);stroke-opacity:1;stroke-miterlimit:10;" d="M 145.805664 658.291992 L 141.803711 658.291992 M 141.803711 656.791992 L 145.805664 658.291992 L 141.803711 659.791992 " transform="matrix(1.333333,0,0,1.333333,-73.333333,-712)"/>
<path style="fill:none;stroke-width:1;stroke-linecap:round;stroke-linejoin:round;stroke:rgb(0%,0%,0%);stroke-opacity:1;stroke-miterlimit:10;" d="M 159.704102 579.56543 L 159.704102 564.899414 " transform="matrix(1.333333,0,0,1.333333,-73.333333,-712)"/>
<path style="fill:none;stroke-width:1;stroke-linecap:butt;stroke-linejoin:miter;stroke:rgb(0%,0%,0%);stroke-opacity:1;stroke-miterlimit:10;" d="M 159.704102 560.897461 L 159.704102 564.899414 M 158.204102 564.899414 L 159.704102 560.897461 L 161.204102 564.899414 " transform="matrix(1.333333,0,0,1.333333,-73.333333,-712)"/>
<path style="fill:none;stroke-width:1;stroke-linecap:round;stroke-linejoin:round;stroke:rgb(0%,0%,0%);stroke-opacity:1;stroke-miterlimit:10;" d="M 159.704102 690.574219 L 159.704102 676.192383 " transform="matrix(1.333333,0,0,1.333333,-73.333333,-712)"/>
<path style="fill:none;stroke-width:1;stroke-linecap:butt;stroke-linejoin:miter;stroke:rgb(0%,0%,0%);stroke-opacity:1;stroke-miterlimit:10;" d="M 159.704102 672.19043 L 159.704102 676.192383 M 158.204102 676.192383 L 159.704102 672.19043 L 161.204102 676.192383 " transform="matrix(1.333333,0,0,1.333333,-73.333333,-712)"/>
<path style=" stroke:none;fill-rule:nonzero;fill:rgb(0%,0%,0%);fill-opacity:1;" d="M 143.84375 125.589844 C 143.84375 125.191406 143.492188 124.839844 143.09375 124.839844 C 142.699219 124.839844 142.367188 125.171875 142.367188 125.589844 C 142.367188 125.984375 142.699219 126.316406 143.074219 126.316406 C 143.492188 126.316406 143.84375 126.003906 143.84375 125.589844 Z M 139.886719 125.589844 C 139.886719 125.191406 139.53125 124.839844 139.136719 124.839844 C 138.742188 124.839844 138.40625 125.171875 138.40625 125.589844 C 138.40625 125.984375 138.742188 126.316406 139.09375 126.316406 C 139.53125 126.316406 139.886719 126.003906 139.886719 125.589844 Z M 135.929688 125.589844 C 135.929688 125.191406 135.574219 124.839844 135.179688 124.839844 C 134.761719 124.839844 134.429688 125.171875 134.429688 125.589844 C 134.429688 125.984375 134.761719 126.316406 135.136719 126.316406 C 135.574219 126.316406 135.929688 126.003906 135.929688 125.589844 Z M 135.929688 125.589844 "/>
<path style="fill:none;stroke-width:1;stroke-linecap:round;stroke-linejoin:round;stroke:rgb(0%,0%,0%);stroke-opacity:1;stroke-miterlimit:10;" d="M 159.704102 646.291992 L 159.704102 640.532227 " transform="matrix(1.333333,0,0,1.333333,-73.333333,-712)"/>
<path style="fill:none;stroke-width:1;stroke-linecap:butt;stroke-linejoin:miter;stroke:rgb(0%,0%,0%);stroke-opacity:1;stroke-miterlimit:10;" d="M 159.704102 636.530273 L 159.704102 640.532227 M 158.204102 640.532227 L 159.704102 636.530273 L 161.204102 640.532227 " transform="matrix(1.333333,0,0,1.333333,-73.333333,-712)"/>
<path style="fill:none;stroke-width:1;stroke-linecap:round;stroke-linejoin:round;stroke:rgb(0%,0%,0%);stroke-opacity:1;stroke-miterlimit:10;" d="M 159.704102 616.628906 L 159.704102 609.46582 " transform="matrix(1.333333,0,0,1.333333,-73.333333,-712)"/>
<path style="fill:none;stroke-width:1;stroke-linecap:butt;stroke-linejoin:miter;stroke:rgb(0%,0%,0%);stroke-opacity:1;stroke-miterlimit:10;" d="M 159.704102 605.463867 L 159.704102 609.46582 M 158.204102 609.46582 L 159.704102 605.463867 L 161.204102 609.46582 " transform="matrix(1.333333,0,0,1.333333,-73.333333,-712)"/>
</g>
</svg>
