<?xml version="1.0" encoding="utf-8" standalone="no"?>
<!DOCTYPE svg PUBLIC "-//W3C//DTD SVG 1.1//EN"
  "http://www.w3.org/Graphics/SVG/1.1/DTD/svg11.dtd">
<svg xmlns:xlink="http://www.w3.org/1999/xlink" width="380.482812pt" height="363.718125pt" viewBox="0 0 380.482812 363.718125" xmlns="http://www.w3.org/2000/svg" version="1.1">
 <metadata>
  <rdf:RDF xmlns:dc="http://purl.org/dc/elements/1.1/" xmlns:cc="http://creativecommons.org/ns#" xmlns:rdf="http://www.w3.org/1999/02/22-rdf-syntax-ns#">
   <cc:Work>
    <dc:type rdf:resource="http://purl.org/dc/dcmitype/StillImage"/>
    <dc:date>2023-12-20T00:01:53.317044</dc:date>
    <dc:format>image/svg+xml</dc:format>
    <dc:creator>
     <cc:Agent>
      <dc:title>Matplotlib v3.5.3, https://matplotlib.org/</dc:title>
     </cc:Agent>
    </dc:creator>
   </cc:Work>
  </rdf:RDF>
 </metadata>
 <defs>
  <style type="text/css">*{stroke-linejoin: round; stroke-linecap: butt}</style>
 </defs>
 <g id="figure_1">
  <g id="patch_1">
   <path d="M -0 363.718125 
L 380.482812 363.718125 
L 380.482812 0 
L -0 0 
z
" style="fill: #ffffff"/>
  </g>
  <g id="axes_1">
   <g id="patch_2">
    <path d="M 38.482813 339.84 
L 373.282813 339.84 
L 373.282813 7.2 
L 38.482813 7.2 
z
" style="fill: #ffffff"/>
   </g>
   <g id="PathCollection_1">
    <defs>
     <path id="m7b9b33a2b4" d="M 0 3.162278 
C 0.838646 3.162278 1.643056 2.82908 2.236068 2.236068 
C 2.82908 1.643056 3.162278 0.838646 3.162278 0 
C 3.162278 -0.838646 2.82908 -1.643056 2.236068 -2.236068 
C 1.643056 -2.82908 0.838646 -3.162278 0 -3.162278 
C -0.838646 -3.162278 -1.643056 -2.82908 -2.236068 -2.236068 
C -2.82908 -1.643056 -3.162278 -0.838646 -3.162278 0 
C -3.162278 0.838646 -2.82908 1.643056 -2.236068 2.236068 
C -1.643056 2.82908 -0.838646 3.162278 0 3.162278 
z
" style="stroke: #000000"/>
    </defs>
    <g clip-path="url(#p1aef1dbbd2)">
     <use xlink:href="#m7b9b33a2b4" x="138.1031" y="58.188852" style="fill: #1f77b4; stroke: #000000"/>
     <use xlink:href="#m7b9b33a2b4" x="335.816163" y="278.43228" style="fill: #1f77b4; stroke: #000000"/>
     <use xlink:href="#m7b9b33a2b4" x="324.549604" y="283.885549" style="fill: #1f77b4; stroke: #000000"/>
     <use xlink:href="#m7b9b33a2b4" x="115.803851" y="85.281527" style="fill: #1f77b4; stroke: #000000"/>
     <use xlink:href="#m7b9b33a2b4" x="136.864351" y="110.625492" style="fill: #1f77b4; stroke: #000000"/>
     <use xlink:href="#m7b9b33a2b4" x="148.204778" y="62.659689" style="fill: #1f77b4; stroke: #000000"/>
     <use xlink:href="#m7b9b33a2b4" x="302.506214" y="287.764936" style="fill: #1f77b4; stroke: #000000"/>
     <use xlink:href="#m7b9b33a2b4" x="179.663726" y="65.938848" style="fill: #1f77b4; stroke: #000000"/>
     <use xlink:href="#m7b9b33a2b4" x="266.540025" y="321.483661" style="fill: #1f77b4; stroke: #000000"/>
     <use xlink:href="#m7b9b33a2b4" x="269.756597" y="223.868505" style="fill: #1f77b4; stroke: #000000"/>
     <use xlink:href="#m7b9b33a2b4" x="358.064631" y="303.425917" style="fill: #1f77b4; stroke: #000000"/>
     <use xlink:href="#m7b9b33a2b4" x="115.308337" y="81.602195" style="fill: #1f77b4; stroke: #000000"/>
     <use xlink:href="#m7b9b33a2b4" x="193.481006" y="134.420182" style="fill: #1f77b4; stroke: #000000"/>
     <use xlink:href="#m7b9b33a2b4" x="117.251019" y="57.662427" style="fill: #1f77b4; stroke: #000000"/>
     <use xlink:href="#m7b9b33a2b4" x="282.285964" y="271.721013" style="fill: #1f77b4; stroke: #000000"/>
     <use xlink:href="#m7b9b33a2b4" x="311.127593" y="282.987568" style="fill: #1f77b4; stroke: #000000"/>
     <use xlink:href="#m7b9b33a2b4" x="159.248616" y="58.512519" style="fill: #1f77b4; stroke: #000000"/>
     <use xlink:href="#m7b9b33a2b4" x="103.524915" y="50.481583" style="fill: #1f77b4; stroke: #000000"/>
     <use xlink:href="#m7b9b33a2b4" x="324.918456" y="273.539707" style="fill: #1f77b4; stroke: #000000"/>
     <use xlink:href="#m7b9b33a2b4" x="280.369013" y="264.239759" style="fill: #1f77b4; stroke: #000000"/>
     <use xlink:href="#m7b9b33a2b4" x="310.794019" y="234.600779" style="fill: #1f77b4; stroke: #000000"/>
     <use xlink:href="#m7b9b33a2b4" x="53.700994" y="109.017406" style="fill: #1f77b4; stroke: #000000"/>
     <use xlink:href="#m7b9b33a2b4" x="277.661866" y="315.658704" style="fill: #1f77b4; stroke: #000000"/>
     <use xlink:href="#m7b9b33a2b4" x="281.84565" y="297.129886" style="fill: #1f77b4; stroke: #000000"/>
     <use xlink:href="#m7b9b33a2b4" x="149.610025" y="43.920395" style="fill: #1f77b4; stroke: #000000"/>
     <use xlink:href="#m7b9b33a2b4" x="144.229202" y="99.027269" style="fill: #1f77b4; stroke: #000000"/>
     <use xlink:href="#m7b9b33a2b4" x="120.419482" y="52.538809" style="fill: #1f77b4; stroke: #000000"/>
     <use xlink:href="#m7b9b33a2b4" x="302.663868" y="306.10689" style="fill: #1f77b4; stroke: #000000"/>
     <use xlink:href="#m7b9b33a2b4" x="100.586743" y="106.408569" style="fill: #1f77b4; stroke: #000000"/>
     <use xlink:href="#m7b9b33a2b4" x="175.149309" y="115.449728" style="fill: #1f77b4; stroke: #000000"/>
     <use xlink:href="#m7b9b33a2b4" x="305.429387" y="302.362387" style="fill: #1f77b4; stroke: #000000"/>
     <use xlink:href="#m7b9b33a2b4" x="282.115523" y="295.948121" style="fill: #1f77b4; stroke: #000000"/>
     <use xlink:href="#m7b9b33a2b4" x="152.512579" y="126.748535" style="fill: #1f77b4; stroke: #000000"/>
     <use xlink:href="#m7b9b33a2b4" x="303.588626" y="264.056546" style="fill: #1f77b4; stroke: #000000"/>
     <use xlink:href="#m7b9b33a2b4" x="311.570126" y="222.520966" style="fill: #1f77b4; stroke: #000000"/>
     <use xlink:href="#m7b9b33a2b4" x="105.049221" y="88.225501" style="fill: #1f77b4; stroke: #000000"/>
     <use xlink:href="#m7b9b33a2b4" x="249.537473" y="294.910584" style="fill: #1f77b4; stroke: #000000"/>
     <use xlink:href="#m7b9b33a2b4" x="189.186048" y="59.0391" style="fill: #1f77b4; stroke: #000000"/>
     <use xlink:href="#m7b9b33a2b4" x="282.386592" y="216.004601" style="fill: #1f77b4; stroke: #000000"/>
     <use xlink:href="#m7b9b33a2b4" x="335.116401" y="296.894168" style="fill: #1f77b4; stroke: #000000"/>
     <use xlink:href="#m7b9b33a2b4" x="326.883433" y="296.45211" style="fill: #1f77b4; stroke: #000000"/>
     <use xlink:href="#m7b9b33a2b4" x="123.373944" y="45.325287" style="fill: #1f77b4; stroke: #000000"/>
     <use xlink:href="#m7b9b33a2b4" x="291.121258" y="272.071739" style="fill: #1f77b4; stroke: #000000"/>
     <use xlink:href="#m7b9b33a2b4" x="123.03602" y="75.676715" style="fill: #1f77b4; stroke: #000000"/>
     <use xlink:href="#m7b9b33a2b4" x="142.316545" y="96.911266" style="fill: #1f77b4; stroke: #000000"/>
     <use xlink:href="#m7b9b33a2b4" x="318.67404" y="260.128121" style="fill: #1f77b4; stroke: #000000"/>
     <use xlink:href="#m7b9b33a2b4" x="316.038077" y="232.871371" style="fill: #1f77b4; stroke: #000000"/>
     <use xlink:href="#m7b9b33a2b4" x="162.495336" y="46.384599" style="fill: #1f77b4; stroke: #000000"/>
     <use xlink:href="#m7b9b33a2b4" x="128.892855" y="115.750136" style="fill: #1f77b4; stroke: #000000"/>
     <use xlink:href="#m7b9b33a2b4" x="157.879934" y="68.882809" style="fill: #1f77b4; stroke: #000000"/>
     <use xlink:href="#m7b9b33a2b4" x="167.121017" y="99.472104" style="fill: #1f77b4; stroke: #000000"/>
    </g>
   </g>
   <g id="PathCollection_2">
    <defs>
     <path id="m78d84dc99b" d="M 0 3.162278 
C 0.838646 3.162278 1.643056 2.82908 2.236068 2.236068 
C 2.82908 1.643056 3.162278 0.838646 3.162278 0 
C 3.162278 -0.838646 2.82908 -1.643056 2.236068 -2.236068 
C 1.643056 -2.82908 0.838646 -3.162278 0 -3.162278 
C -0.838646 -3.162278 -1.643056 -2.82908 -2.236068 -2.236068 
C -2.82908 -1.643056 -3.162278 -0.838646 -3.162278 0 
C -3.162278 0.838646 -2.82908 1.643056 -2.236068 2.236068 
C -1.643056 2.82908 -0.838646 3.162278 0 3.162278 
z
" style="stroke: #000000"/>
    </defs>
    <g clip-path="url(#p1aef1dbbd2)">
     <use xlink:href="#m78d84dc99b" x="155.148503" y="306.472558" style="fill: #ff7f0e; stroke: #000000"/>
     <use xlink:href="#m78d84dc99b" x="129.625109" y="257.546638" style="fill: #ff7f0e; stroke: #000000"/>
     <use xlink:href="#m78d84dc99b" x="285.941487" y="59.709455" style="fill: #ff7f0e; stroke: #000000"/>
     <use xlink:href="#m78d84dc99b" x="124.013401" y="253.255015" style="fill: #ff7f0e; stroke: #000000"/>
     <use xlink:href="#m78d84dc99b" x="108.520941" y="264.792094" style="fill: #ff7f0e; stroke: #000000"/>
     <use xlink:href="#m78d84dc99b" x="311.616979" y="131.279031" style="fill: #ff7f0e; stroke: #000000"/>
     <use xlink:href="#m78d84dc99b" x="86.973311" y="279.864376" style="fill: #ff7f0e; stroke: #000000"/>
     <use xlink:href="#m78d84dc99b" x="259.575248" y="95.09056" style="fill: #ff7f0e; stroke: #000000"/>
     <use xlink:href="#m78d84dc99b" x="287.83381" y="22.32" style="fill: #ff7f0e; stroke: #000000"/>
     <use xlink:href="#m78d84dc99b" x="105.275471" y="259.277981" style="fill: #ff7f0e; stroke: #000000"/>
     <use xlink:href="#m78d84dc99b" x="282.631313" y="93.266283" style="fill: #ff7f0e; stroke: #000000"/>
     <use xlink:href="#m78d84dc99b" x="115.541494" y="288.771637" style="fill: #ff7f0e; stroke: #000000"/>
     <use xlink:href="#m78d84dc99b" x="155.929133" y="221.899452" style="fill: #ff7f0e; stroke: #000000"/>
     <use xlink:href="#m78d84dc99b" x="302.632408" y="110.021709" style="fill: #ff7f0e; stroke: #000000"/>
     <use xlink:href="#m78d84dc99b" x="104.127045" y="318.861425" style="fill: #ff7f0e; stroke: #000000"/>
     <use xlink:href="#m78d84dc99b" x="281.858338" y="87.463342" style="fill: #ff7f0e; stroke: #000000"/>
     <use xlink:href="#m78d84dc99b" x="110.7254" y="255.344017" style="fill: #ff7f0e; stroke: #000000"/>
     <use xlink:href="#m78d84dc99b" x="126.624888" y="303.244455" style="fill: #ff7f0e; stroke: #000000"/>
     <use xlink:href="#m78d84dc99b" x="150.988141" y="304.898446" style="fill: #ff7f0e; stroke: #000000"/>
     <use xlink:href="#m78d84dc99b" x="182.187656" y="264.784846" style="fill: #ff7f0e; stroke: #000000"/>
     <use xlink:href="#m78d84dc99b" x="311.306147" y="48.743118" style="fill: #ff7f0e; stroke: #000000"/>
     <use xlink:href="#m78d84dc99b" x="164.395935" y="303.799149" style="fill: #ff7f0e; stroke: #000000"/>
     <use xlink:href="#m78d84dc99b" x="139.604159" y="267.452541" style="fill: #ff7f0e; stroke: #000000"/>
     <use xlink:href="#m78d84dc99b" x="237.062534" y="53.373624" style="fill: #ff7f0e; stroke: #000000"/>
     <use xlink:href="#m78d84dc99b" x="148.378532" y="270.114726" style="fill: #ff7f0e; stroke: #000000"/>
     <use xlink:href="#m78d84dc99b" x="96.234433" y="276.998935" style="fill: #ff7f0e; stroke: #000000"/>
     <use xlink:href="#m78d84dc99b" x="285.30922" y="88.019384" style="fill: #ff7f0e; stroke: #000000"/>
     <use xlink:href="#m78d84dc99b" x="136.762463" y="204.827719" style="fill: #ff7f0e; stroke: #000000"/>
     <use xlink:href="#m78d84dc99b" x="182.70118" y="273.803843" style="fill: #ff7f0e; stroke: #000000"/>
     <use xlink:href="#m78d84dc99b" x="304.670904" y="121.083535" style="fill: #ff7f0e; stroke: #000000"/>
     <use xlink:href="#m78d84dc99b" x="303.100629" y="85.214274" style="fill: #ff7f0e; stroke: #000000"/>
     <use xlink:href="#m78d84dc99b" x="305.161974" y="87.155781" style="fill: #ff7f0e; stroke: #000000"/>
     <use xlink:href="#m78d84dc99b" x="94.804919" y="273.500772" style="fill: #ff7f0e; stroke: #000000"/>
     <use xlink:href="#m78d84dc99b" x="108.304858" y="264.524467" style="fill: #ff7f0e; stroke: #000000"/>
     <use xlink:href="#m78d84dc99b" x="301.160298" y="47.899619" style="fill: #ff7f0e; stroke: #000000"/>
     <use xlink:href="#m78d84dc99b" x="275.138004" y="114.195714" style="fill: #ff7f0e; stroke: #000000"/>
     <use xlink:href="#m78d84dc99b" x="342.702962" y="55.015182" style="fill: #ff7f0e; stroke: #000000"/>
     <use xlink:href="#m78d84dc99b" x="99.638225" y="291.742771" style="fill: #ff7f0e; stroke: #000000"/>
     <use xlink:href="#m78d84dc99b" x="315.468676" y="82.311282" style="fill: #ff7f0e; stroke: #000000"/>
     <use xlink:href="#m78d84dc99b" x="142.620478" y="300.594532" style="fill: #ff7f0e; stroke: #000000"/>
     <use xlink:href="#m78d84dc99b" x="129.073496" y="301.781515" style="fill: #ff7f0e; stroke: #000000"/>
     <use xlink:href="#m78d84dc99b" x="159.484463" y="266.62484" style="fill: #ff7f0e; stroke: #000000"/>
     <use xlink:href="#m78d84dc99b" x="131.189405" y="266.887949" style="fill: #ff7f0e; stroke: #000000"/>
     <use xlink:href="#m78d84dc99b" x="265.774253" y="99.839028" style="fill: #ff7f0e; stroke: #000000"/>
     <use xlink:href="#m78d84dc99b" x="297.080981" y="85.200707" style="fill: #ff7f0e; stroke: #000000"/>
     <use xlink:href="#m78d84dc99b" x="113.942898" y="324.72" style="fill: #ff7f0e; stroke: #000000"/>
     <use xlink:href="#m78d84dc99b" x="291.312983" y="92.180487" style="fill: #ff7f0e; stroke: #000000"/>
     <use xlink:href="#m78d84dc99b" x="141.726787" y="281.308959" style="fill: #ff7f0e; stroke: #000000"/>
     <use xlink:href="#m78d84dc99b" x="113.010422" y="274.432305" style="fill: #ff7f0e; stroke: #000000"/>
    </g>
   </g>
   <g id="matplotlib.axis_1">
    <g id="xtick_1">
     <g id="line2d_1">
      <defs>
       <path id="m2a23e3fed6" d="M 0 0 
L 0 3.5 
" style="stroke: #000000; stroke-width: 0.8"/>
      </defs>
      <g>
       <use xlink:href="#m2a23e3fed6" x="51.384731" y="339.84" style="stroke: #000000; stroke-width: 0.8"/>
      </g>
     </g>
     <g id="text_1">
      <!-- −2.0 -->
      <g transform="translate(39.243325 354.438438)scale(0.1 -0.1)">
       <defs>
        <path id="DejaVuSans-2212" d="M 678 2272 
L 4684 2272 
L 4684 1741 
L 678 1741 
L 678 2272 
z
" transform="scale(0.015625)"/>
        <path id="DejaVuSans-32" d="M 1228 531 
L 3431 531 
L 3431 0 
L 469 0 
L 469 531 
Q 828 903 1448 1529 
Q 2069 2156 2228 2338 
Q 2531 2678 2651 2914 
Q 2772 3150 2772 3378 
Q 2772 3750 2511 3984 
Q 2250 4219 1831 4219 
Q 1534 4219 1204 4116 
Q 875 4013 500 3803 
L 500 4441 
Q 881 4594 1212 4672 
Q 1544 4750 1819 4750 
Q 2544 4750 2975 4387 
Q 3406 4025 3406 3419 
Q 3406 3131 3298 2873 
Q 3191 2616 2906 2266 
Q 2828 2175 2409 1742 
Q 1991 1309 1228 531 
z
" transform="scale(0.015625)"/>
        <path id="DejaVuSans-2e" d="M 684 794 
L 1344 794 
L 1344 0 
L 684 0 
L 684 794 
z
" transform="scale(0.015625)"/>
        <path id="DejaVuSans-30" d="M 2034 4250 
Q 1547 4250 1301 3770 
Q 1056 3291 1056 2328 
Q 1056 1369 1301 889 
Q 1547 409 2034 409 
Q 2525 409 2770 889 
Q 3016 1369 3016 2328 
Q 3016 3291 2770 3770 
Q 2525 4250 2034 4250 
z
M 2034 4750 
Q 2819 4750 3233 4129 
Q 3647 3509 3647 2328 
Q 3647 1150 3233 529 
Q 2819 -91 2034 -91 
Q 1250 -91 836 529 
Q 422 1150 422 2328 
Q 422 3509 836 4129 
Q 1250 4750 2034 4750 
z
" transform="scale(0.015625)"/>
       </defs>
       <use xlink:href="#DejaVuSans-2212"/>
       <use xlink:href="#DejaVuSans-32" x="83.789062"/>
       <use xlink:href="#DejaVuSans-2e" x="147.412109"/>
       <use xlink:href="#DejaVuSans-30" x="179.199219"/>
      </g>
     </g>
    </g>
    <g id="xtick_2">
     <g id="line2d_2">
      <g>
       <use xlink:href="#m2a23e3fed6" x="93.31594" y="339.84" style="stroke: #000000; stroke-width: 0.8"/>
      </g>
     </g>
     <g id="text_2">
      <!-- −1.5 -->
      <g transform="translate(81.174533 354.438438)scale(0.1 -0.1)">
       <defs>
        <path id="DejaVuSans-31" d="M 794 531 
L 1825 531 
L 1825 4091 
L 703 3866 
L 703 4441 
L 1819 4666 
L 2450 4666 
L 2450 531 
L 3481 531 
L 3481 0 
L 794 0 
L 794 531 
z
" transform="scale(0.015625)"/>
        <path id="DejaVuSans-35" d="M 691 4666 
L 3169 4666 
L 3169 4134 
L 1269 4134 
L 1269 2991 
Q 1406 3038 1543 3061 
Q 1681 3084 1819 3084 
Q 2600 3084 3056 2656 
Q 3513 2228 3513 1497 
Q 3513 744 3044 326 
Q 2575 -91 1722 -91 
Q 1428 -91 1123 -41 
Q 819 9 494 109 
L 494 744 
Q 775 591 1075 516 
Q 1375 441 1709 441 
Q 2250 441 2565 725 
Q 2881 1009 2881 1497 
Q 2881 1984 2565 2268 
Q 2250 2553 1709 2553 
Q 1456 2553 1204 2497 
Q 953 2441 691 2322 
L 691 4666 
z
" transform="scale(0.015625)"/>
       </defs>
       <use xlink:href="#DejaVuSans-2212"/>
       <use xlink:href="#DejaVuSans-31" x="83.789062"/>
       <use xlink:href="#DejaVuSans-2e" x="147.412109"/>
       <use xlink:href="#DejaVuSans-35" x="179.199219"/>
      </g>
     </g>
    </g>
    <g id="xtick_3">
     <g id="line2d_3">
      <g>
       <use xlink:href="#m2a23e3fed6" x="135.247148" y="339.84" style="stroke: #000000; stroke-width: 0.8"/>
      </g>
     </g>
     <g id="text_3">
      <!-- −1.0 -->
      <g transform="translate(123.105742 354.438438)scale(0.1 -0.1)">
       <use xlink:href="#DejaVuSans-2212"/>
       <use xlink:href="#DejaVuSans-31" x="83.789062"/>
       <use xlink:href="#DejaVuSans-2e" x="147.412109"/>
       <use xlink:href="#DejaVuSans-30" x="179.199219"/>
      </g>
     </g>
    </g>
    <g id="xtick_4">
     <g id="line2d_4">
      <g>
       <use xlink:href="#m2a23e3fed6" x="177.178356" y="339.84" style="stroke: #000000; stroke-width: 0.8"/>
      </g>
     </g>
     <g id="text_4">
      <!-- −0.5 -->
      <g transform="translate(165.03695 354.438438)scale(0.1 -0.1)">
       <use xlink:href="#DejaVuSans-2212"/>
       <use xlink:href="#DejaVuSans-30" x="83.789062"/>
       <use xlink:href="#DejaVuSans-2e" x="147.412109"/>
       <use xlink:href="#DejaVuSans-35" x="179.199219"/>
      </g>
     </g>
    </g>
    <g id="xtick_5">
     <g id="line2d_5">
      <g>
       <use xlink:href="#m2a23e3fed6" x="219.109564" y="339.84" style="stroke: #000000; stroke-width: 0.8"/>
      </g>
     </g>
     <g id="text_5">
      <!-- 0.0 -->
      <g transform="translate(211.158002 354.438438)scale(0.1 -0.1)">
       <use xlink:href="#DejaVuSans-30"/>
       <use xlink:href="#DejaVuSans-2e" x="63.623047"/>
       <use xlink:href="#DejaVuSans-30" x="95.410156"/>
      </g>
     </g>
    </g>
    <g id="xtick_6">
     <g id="line2d_6">
      <g>
       <use xlink:href="#m2a23e3fed6" x="261.040773" y="339.84" style="stroke: #000000; stroke-width: 0.8"/>
      </g>
     </g>
     <g id="text_6">
      <!-- 0.5 -->
      <g transform="translate(253.08921 354.438438)scale(0.1 -0.1)">
       <use xlink:href="#DejaVuSans-30"/>
       <use xlink:href="#DejaVuSans-2e" x="63.623047"/>
       <use xlink:href="#DejaVuSans-35" x="95.410156"/>
      </g>
     </g>
    </g>
    <g id="xtick_7">
     <g id="line2d_7">
      <g>
       <use xlink:href="#m2a23e3fed6" x="302.971981" y="339.84" style="stroke: #000000; stroke-width: 0.8"/>
      </g>
     </g>
     <g id="text_7">
      <!-- 1.0 -->
      <g transform="translate(295.020418 354.438438)scale(0.1 -0.1)">
       <use xlink:href="#DejaVuSans-31"/>
       <use xlink:href="#DejaVuSans-2e" x="63.623047"/>
       <use xlink:href="#DejaVuSans-30" x="95.410156"/>
      </g>
     </g>
    </g>
    <g id="xtick_8">
     <g id="line2d_8">
      <g>
       <use xlink:href="#m2a23e3fed6" x="344.903189" y="339.84" style="stroke: #000000; stroke-width: 0.8"/>
      </g>
     </g>
     <g id="text_8">
      <!-- 1.5 -->
      <g transform="translate(336.951627 354.438438)scale(0.1 -0.1)">
       <use xlink:href="#DejaVuSans-31"/>
       <use xlink:href="#DejaVuSans-2e" x="63.623047"/>
       <use xlink:href="#DejaVuSans-35" x="95.410156"/>
      </g>
     </g>
    </g>
   </g>
   <g id="matplotlib.axis_2">
    <g id="ytick_1">
     <g id="line2d_9">
      <defs>
       <path id="me1c3079cb0" d="M 0 0 
L -3.5 0 
" style="stroke: #000000; stroke-width: 0.8"/>
      </defs>
      <g>
       <use xlink:href="#me1c3079cb0" x="38.482813" y="329.295558" style="stroke: #000000; stroke-width: 0.8"/>
      </g>
     </g>
     <g id="text_9">
      <!-- −1.5 -->
      <g transform="translate(7.2 333.094777)scale(0.1 -0.1)">
       <use xlink:href="#DejaVuSans-2212"/>
       <use xlink:href="#DejaVuSans-31" x="83.789062"/>
       <use xlink:href="#DejaVuSans-2e" x="147.412109"/>
       <use xlink:href="#DejaVuSans-35" x="179.199219"/>
      </g>
     </g>
    </g>
    <g id="ytick_2">
     <g id="line2d_10">
      <g>
       <use xlink:href="#me1c3079cb0" x="38.482813" y="279.065297" style="stroke: #000000; stroke-width: 0.8"/>
      </g>
     </g>
     <g id="text_10">
      <!-- −1.0 -->
      <g transform="translate(7.2 282.864515)scale(0.1 -0.1)">
       <use xlink:href="#DejaVuSans-2212"/>
       <use xlink:href="#DejaVuSans-31" x="83.789062"/>
       <use xlink:href="#DejaVuSans-2e" x="147.412109"/>
       <use xlink:href="#DejaVuSans-30" x="179.199219"/>
      </g>
     </g>
    </g>
    <g id="ytick_3">
     <g id="line2d_11">
      <g>
       <use xlink:href="#me1c3079cb0" x="38.482813" y="228.835035" style="stroke: #000000; stroke-width: 0.8"/>
      </g>
     </g>
     <g id="text_11">
      <!-- −0.5 -->
      <g transform="translate(7.2 232.634254)scale(0.1 -0.1)">
       <use xlink:href="#DejaVuSans-2212"/>
       <use xlink:href="#DejaVuSans-30" x="83.789062"/>
       <use xlink:href="#DejaVuSans-2e" x="147.412109"/>
       <use xlink:href="#DejaVuSans-35" x="179.199219"/>
      </g>
     </g>
    </g>
    <g id="ytick_4">
     <g id="line2d_12">
      <g>
       <use xlink:href="#me1c3079cb0" x="38.482813" y="178.604774" style="stroke: #000000; stroke-width: 0.8"/>
      </g>
     </g>
     <g id="text_12">
      <!-- 0.0 -->
      <g transform="translate(15.579688 182.403992)scale(0.1 -0.1)">
       <use xlink:href="#DejaVuSans-30"/>
       <use xlink:href="#DejaVuSans-2e" x="63.623047"/>
       <use xlink:href="#DejaVuSans-30" x="95.410156"/>
      </g>
     </g>
    </g>
    <g id="ytick_5">
     <g id="line2d_13">
      <g>
       <use xlink:href="#me1c3079cb0" x="38.482813" y="128.374512" style="stroke: #000000; stroke-width: 0.8"/>
      </g>
     </g>
     <g id="text_13">
      <!-- 0.5 -->
      <g transform="translate(15.579688 132.173731)scale(0.1 -0.1)">
       <use xlink:href="#DejaVuSans-30"/>
       <use xlink:href="#DejaVuSans-2e" x="63.623047"/>
       <use xlink:href="#DejaVuSans-35" x="95.410156"/>
      </g>
     </g>
    </g>
    <g id="ytick_6">
     <g id="line2d_14">
      <g>
       <use xlink:href="#me1c3079cb0" x="38.482813" y="78.144251" style="stroke: #000000; stroke-width: 0.8"/>
      </g>
     </g>
     <g id="text_14">
      <!-- 1.0 -->
      <g transform="translate(15.579688 81.943469)scale(0.1 -0.1)">
       <use xlink:href="#DejaVuSans-31"/>
       <use xlink:href="#DejaVuSans-2e" x="63.623047"/>
       <use xlink:href="#DejaVuSans-30" x="95.410156"/>
      </g>
     </g>
    </g>
    <g id="ytick_7">
     <g id="line2d_15">
      <g>
       <use xlink:href="#me1c3079cb0" x="38.482813" y="27.913989" style="stroke: #000000; stroke-width: 0.8"/>
      </g>
     </g>
     <g id="text_15">
      <!-- 1.5 -->
      <g transform="translate(15.579688 31.713208)scale(0.1 -0.1)">
       <use xlink:href="#DejaVuSans-31"/>
       <use xlink:href="#DejaVuSans-2e" x="63.623047"/>
       <use xlink:href="#DejaVuSans-35" x="95.410156"/>
      </g>
     </g>
    </g>
   </g>
   <g id="patch_3">
    <path d="M 38.482813 339.84 
L 38.482813 7.2 
" style="fill: none; stroke: #000000; stroke-width: 0.8; stroke-linejoin: miter; stroke-linecap: square"/>
   </g>
   <g id="patch_4">
    <path d="M 373.282813 339.84 
L 373.282813 7.2 
" style="fill: none; stroke: #000000; stroke-width: 0.8; stroke-linejoin: miter; stroke-linecap: square"/>
   </g>
   <g id="patch_5">
    <path d="M 38.482813 339.84 
L 373.282812 339.84 
" style="fill: none; stroke: #000000; stroke-width: 0.8; stroke-linejoin: miter; stroke-linecap: square"/>
   </g>
   <g id="patch_6">
    <path d="M 38.482813 7.2 
L 373.282812 7.2 
" style="fill: none; stroke: #000000; stroke-width: 0.8; stroke-linejoin: miter; stroke-linecap: square"/>
   </g>
   <g id="legend_1">
    <g id="patch_7">
     <path d="M 327.920313 44.55625 
L 366.282813 44.55625 
Q 368.282813 44.55625 368.282813 42.55625 
L 368.282813 14.2 
Q 368.282813 12.2 366.282813 12.2 
L 327.920313 12.2 
Q 325.920313 12.2 325.920313 14.2 
L 325.920313 42.55625 
Q 325.920313 44.55625 327.920313 44.55625 
z
" style="fill: #ffffff; opacity: 0.8; stroke: #cccccc; stroke-linejoin: miter"/>
    </g>
    <g id="PathCollection_3">
     <g>
      <use xlink:href="#m7b9b33a2b4" x="339.920313" y="21.173438" style="fill: #1f77b4; stroke: #000000"/>
     </g>
    </g>
    <g id="text_16">
     <!-- 0 -->
     <g transform="translate(357.920313 23.798438)scale(0.1 -0.1)">
      <use xlink:href="#DejaVuSans-30"/>
     </g>
    </g>
    <g id="PathCollection_4">
     <g>
      <use xlink:href="#m78d84dc99b" x="339.920313" y="35.851563" style="fill: #ff7f0e; stroke: #000000"/>
     </g>
    </g>
    <g id="text_17">
     <!-- 1 -->
     <g transform="translate(357.920313 38.476563)scale(0.1 -0.1)">
      <use xlink:href="#DejaVuSans-31"/>
     </g>
    </g>
   </g>
  </g>
 </g>
 <defs>
  <clipPath id="p1aef1dbbd2">
   <rect x="38.482813" y="7.2" width="334.8" height="332.64"/>
  </clipPath>
 </defs>
</svg>