<?xml version="1.0" encoding="utf-8" standalone="no"?>
<!DOCTYPE svg PUBLIC "-//W3C//DTD SVG 1.1//EN"
  "http://www.w3.org/Graphics/SVG/1.1/DTD/svg11.dtd">
<svg xmlns:xlink="http://www.w3.org/1999/xlink" width="537.146875pt" height="266.51625pt" viewBox="0 0 537.146875 266.51625" xmlns="http://www.w3.org/2000/svg" version="1.1">
 <metadata>
  <rdf:RDF xmlns:dc="http://purl.org/dc/elements/1.1/" xmlns:cc="http://creativecommons.org/ns#" xmlns:rdf="http://www.w3.org/1999/02/22-rdf-syntax-ns#">
   <cc:Work>
    <dc:type rdf:resource="http://purl.org/dc/dcmitype/StillImage"/>
    <dc:date>2024-10-01T13:28:23.471782</dc:date>
    <dc:format>image/svg+xml</dc:format>
    <dc:creator>
     <cc:Agent>
      <dc:title>Matplotlib v3.9.2, https://matplotlib.org/</dc:title>
     </cc:Agent>
    </dc:creator>
   </cc:Work>
  </rdf:RDF>
 </metadata>
 <defs>
  <style type="text/css">*{stroke-linejoin: round; stroke-linecap: butt}</style>
 </defs>
 <g id="figure_1">
  <g id="patch_1">
   <path d="M 0 266.51625 
L 537.146875 266.51625 
L 537.146875 0 
L 0 0 
z
" style="fill: #ffffff"/>
  </g>
  <g id="axes_1">
   <g id="patch_2">
    <path d="M 43.78125 228.96 
L 490.18125 228.96 
L 490.18125 7.2 
L 43.78125 7.2 
z
" style="fill: #ffffff"/>
   </g>
   <g id="matplotlib.axis_1">
    <g id="xtick_1">
     <g id="line2d_1">
      <path d="M 64.072159 228.96 
L 64.072159 7.2 
" clip-path="url(#p0abdb75070)" style="fill: none; stroke-dasharray: 0.8,1.32; stroke-dashoffset: 0; stroke: #b0b0b0; stroke-opacity: 0.8; stroke-width: 0.8"/>
     </g>
     <g id="line2d_2">
      <defs>
       <path id="m7dd50b9ad0" d="M 0 0 
L 0 3.5 
" style="stroke: #000000; stroke-width: 0.8"/>
      </defs>
      <g>
       <use xlink:href="#m7dd50b9ad0" x="64.072159" y="228.96" style="stroke: #000000; stroke-width: 0.8"/>
      </g>
     </g>
     <g id="text_1">
      <!-- 0 -->
      <g transform="translate(60.890909 243.558437) scale(0.1 -0.1)">
       <defs>
        <path id="DejaVuSans-30" d="M 2034 4250 
Q 1547 4250 1301 3770 
Q 1056 3291 1056 2328 
Q 1056 1369 1301 889 
Q 1547 409 2034 409 
Q 2525 409 2770 889 
Q 3016 1369 3016 2328 
Q 3016 3291 2770 3770 
Q 2525 4250 2034 4250 
z
M 2034 4750 
Q 2819 4750 3233 4129 
Q 3647 3509 3647 2328 
Q 3647 1150 3233 529 
Q 2819 -91 2034 -91 
Q 1250 -91 836 529 
Q 422 1150 422 2328 
Q 422 3509 836 4129 
Q 1250 4750 2034 4750 
z
" transform="scale(0.015625)"/>
       </defs>
       <use xlink:href="#DejaVuSans-30"/>
      </g>
     </g>
    </g>
    <g id="xtick_2">
     <g id="line2d_3">
      <path d="M 145.239042 228.96 
L 145.239042 7.2 
" clip-path="url(#p0abdb75070)" style="fill: none; stroke-dasharray: 0.8,1.32; stroke-dashoffset: 0; stroke: #b0b0b0; stroke-opacity: 0.8; stroke-width: 0.8"/>
     </g>
     <g id="line2d_4">
      <g>
       <use xlink:href="#m7dd50b9ad0" x="145.239042" y="228.96" style="stroke: #000000; stroke-width: 0.8"/>
      </g>
     </g>
     <g id="text_2">
      <!-- 5 -->
      <g transform="translate(142.057792 243.558437) scale(0.1 -0.1)">
       <defs>
        <path id="DejaVuSans-35" d="M 691 4666 
L 3169 4666 
L 3169 4134 
L 1269 4134 
L 1269 2991 
Q 1406 3038 1543 3061 
Q 1681 3084 1819 3084 
Q 2600 3084 3056 2656 
Q 3513 2228 3513 1497 
Q 3513 744 3044 326 
Q 2575 -91 1722 -91 
Q 1428 -91 1123 -41 
Q 819 9 494 109 
L 494 744 
Q 775 591 1075 516 
Q 1375 441 1709 441 
Q 2250 441 2565 725 
Q 2881 1009 2881 1497 
Q 2881 1984 2565 2268 
Q 2250 2553 1709 2553 
Q 1456 2553 1204 2497 
Q 953 2441 691 2322 
L 691 4666 
z
" transform="scale(0.015625)"/>
       </defs>
       <use xlink:href="#DejaVuSans-35"/>
      </g>
     </g>
    </g>
    <g id="xtick_3">
     <g id="line2d_5">
      <path d="M 226.405925 228.96 
L 226.405925 7.2 
" clip-path="url(#p0abdb75070)" style="fill: none; stroke-dasharray: 0.8,1.32; stroke-dashoffset: 0; stroke: #b0b0b0; stroke-opacity: 0.8; stroke-width: 0.8"/>
     </g>
     <g id="line2d_6">
      <g>
       <use xlink:href="#m7dd50b9ad0" x="226.405925" y="228.96" style="stroke: #000000; stroke-width: 0.8"/>
      </g>
     </g>
     <g id="text_3">
      <!-- 10 -->
      <g transform="translate(220.043425 243.558437) scale(0.1 -0.1)">
       <defs>
        <path id="DejaVuSans-31" d="M 794 531 
L 1825 531 
L 1825 4091 
L 703 3866 
L 703 4441 
L 1819 4666 
L 2450 4666 
L 2450 531 
L 3481 531 
L 3481 0 
L 794 0 
L 794 531 
z
" transform="scale(0.015625)"/>
       </defs>
       <use xlink:href="#DejaVuSans-31"/>
       <use xlink:href="#DejaVuSans-30" x="63.623047"/>
      </g>
     </g>
    </g>
    <g id="xtick_4">
     <g id="line2d_7">
      <path d="M 307.572808 228.96 
L 307.572808 7.2 
" clip-path="url(#p0abdb75070)" style="fill: none; stroke-dasharray: 0.8,1.32; stroke-dashoffset: 0; stroke: #b0b0b0; stroke-opacity: 0.8; stroke-width: 0.8"/>
     </g>
     <g id="line2d_8">
      <g>
       <use xlink:href="#m7dd50b9ad0" x="307.572808" y="228.96" style="stroke: #000000; stroke-width: 0.8"/>
      </g>
     </g>
     <g id="text_4">
      <!-- 15 -->
      <g transform="translate(301.210308 243.558437) scale(0.1 -0.1)">
       <use xlink:href="#DejaVuSans-31"/>
       <use xlink:href="#DejaVuSans-35" x="63.623047"/>
      </g>
     </g>
    </g>
    <g id="xtick_5">
     <g id="line2d_9">
      <path d="M 388.739691 228.96 
L 388.739691 7.2 
" clip-path="url(#p0abdb75070)" style="fill: none; stroke-dasharray: 0.8,1.32; stroke-dashoffset: 0; stroke: #b0b0b0; stroke-opacity: 0.8; stroke-width: 0.8"/>
     </g>
     <g id="line2d_10">
      <g>
       <use xlink:href="#m7dd50b9ad0" x="388.739691" y="228.96" style="stroke: #000000; stroke-width: 0.8"/>
      </g>
     </g>
     <g id="text_5">
      <!-- 20 -->
      <g transform="translate(382.377191 243.558437) scale(0.1 -0.1)">
       <defs>
        <path id="DejaVuSans-32" d="M 1228 531 
L 3431 531 
L 3431 0 
L 469 0 
L 469 531 
Q 828 903 1448 1529 
Q 2069 2156 2228 2338 
Q 2531 2678 2651 2914 
Q 2772 3150 2772 3378 
Q 2772 3750 2511 3984 
Q 2250 4219 1831 4219 
Q 1534 4219 1204 4116 
Q 875 4013 500 3803 
L 500 4441 
Q 881 4594 1212 4672 
Q 1544 4750 1819 4750 
Q 2544 4750 2975 4387 
Q 3406 4025 3406 3419 
Q 3406 3131 3298 2873 
Q 3191 2616 2906 2266 
Q 2828 2175 2409 1742 
Q 1991 1309 1228 531 
z
" transform="scale(0.015625)"/>
       </defs>
       <use xlink:href="#DejaVuSans-32"/>
       <use xlink:href="#DejaVuSans-30" x="63.623047"/>
      </g>
     </g>
    </g>
    <g id="xtick_6">
     <g id="line2d_11">
      <path d="M 469.906574 228.96 
L 469.906574 7.2 
" clip-path="url(#p0abdb75070)" style="fill: none; stroke-dasharray: 0.8,1.32; stroke-dashoffset: 0; stroke: #b0b0b0; stroke-opacity: 0.8; stroke-width: 0.8"/>
     </g>
     <g id="line2d_12">
      <g>
       <use xlink:href="#m7dd50b9ad0" x="469.906574" y="228.96" style="stroke: #000000; stroke-width: 0.8"/>
      </g>
     </g>
     <g id="text_6">
      <!-- 25 -->
      <g transform="translate(463.544074 243.558437) scale(0.1 -0.1)">
       <use xlink:href="#DejaVuSans-32"/>
       <use xlink:href="#DejaVuSans-35" x="63.623047"/>
      </g>
     </g>
    </g>
    <g id="text_7">
     <!-- step -->
     <g transform="translate(256.165625 257.236562) scale(0.1 -0.1)">
      <defs>
       <path id="DejaVuSans-73" d="M 2834 3397 
L 2834 2853 
Q 2591 2978 2328 3040 
Q 2066 3103 1784 3103 
Q 1356 3103 1142 2972 
Q 928 2841 928 2578 
Q 928 2378 1081 2264 
Q 1234 2150 1697 2047 
L 1894 2003 
Q 2506 1872 2764 1633 
Q 3022 1394 3022 966 
Q 3022 478 2636 193 
Q 2250 -91 1575 -91 
Q 1294 -91 989 -36 
Q 684 19 347 128 
L 347 722 
Q 666 556 975 473 
Q 1284 391 1588 391 
Q 1994 391 2212 530 
Q 2431 669 2431 922 
Q 2431 1156 2273 1281 
Q 2116 1406 1581 1522 
L 1381 1569 
Q 847 1681 609 1914 
Q 372 2147 372 2553 
Q 372 3047 722 3315 
Q 1072 3584 1716 3584 
Q 2034 3584 2315 3537 
Q 2597 3491 2834 3397 
z
" transform="scale(0.015625)"/>
       <path id="DejaVuSans-74" d="M 1172 4494 
L 1172 3500 
L 2356 3500 
L 2356 3053 
L 1172 3053 
L 1172 1153 
Q 1172 725 1289 603 
Q 1406 481 1766 481 
L 2356 481 
L 2356 0 
L 1766 0 
Q 1100 0 847 248 
Q 594 497 594 1153 
L 594 3053 
L 172 3053 
L 172 3500 
L 594 3500 
L 594 4494 
L 1172 4494 
z
" transform="scale(0.015625)"/>
       <path id="DejaVuSans-65" d="M 3597 1894 
L 3597 1613 
L 953 1613 
Q 991 1019 1311 708 
Q 1631 397 2203 397 
Q 2534 397 2845 478 
Q 3156 559 3463 722 
L 3463 178 
Q 3153 47 2828 -22 
Q 2503 -91 2169 -91 
Q 1331 -91 842 396 
Q 353 884 353 1716 
Q 353 2575 817 3079 
Q 1281 3584 2069 3584 
Q 2775 3584 3186 3129 
Q 3597 2675 3597 1894 
z
M 3022 2063 
Q 3016 2534 2758 2815 
Q 2500 3097 2075 3097 
Q 1594 3097 1305 2825 
Q 1016 2553 972 2059 
L 3022 2063 
z
" transform="scale(0.015625)"/>
       <path id="DejaVuSans-70" d="M 1159 525 
L 1159 -1331 
L 581 -1331 
L 581 3500 
L 1159 3500 
L 1159 2969 
Q 1341 3281 1617 3432 
Q 1894 3584 2278 3584 
Q 2916 3584 3314 3078 
Q 3713 2572 3713 1747 
Q 3713 922 3314 415 
Q 2916 -91 2278 -91 
Q 1894 -91 1617 61 
Q 1341 213 1159 525 
z
M 3116 1747 
Q 3116 2381 2855 2742 
Q 2594 3103 2138 3103 
Q 1681 3103 1420 2742 
Q 1159 2381 1159 1747 
Q 1159 1113 1420 752 
Q 1681 391 2138 391 
Q 2594 391 2855 752 
Q 3116 1113 3116 1747 
z
" transform="scale(0.015625)"/>
      </defs>
      <use xlink:href="#DejaVuSans-73"/>
      <use xlink:href="#DejaVuSans-74" x="52.099609"/>
      <use xlink:href="#DejaVuSans-65" x="91.308594"/>
      <use xlink:href="#DejaVuSans-70" x="152.832031"/>
     </g>
    </g>
    <g id="text_8">
     <!-- 1e3 -->
     <g transform="translate(471.303125 256.236562) scale(0.1 -0.1)">
      <defs>
       <path id="DejaVuSans-33" d="M 2597 2516 
Q 3050 2419 3304 2112 
Q 3559 1806 3559 1356 
Q 3559 666 3084 287 
Q 2609 -91 1734 -91 
Q 1441 -91 1130 -33 
Q 819 25 488 141 
L 488 750 
Q 750 597 1062 519 
Q 1375 441 1716 441 
Q 2309 441 2620 675 
Q 2931 909 2931 1356 
Q 2931 1769 2642 2001 
Q 2353 2234 1838 2234 
L 1294 2234 
L 1294 2753 
L 1863 2753 
Q 2328 2753 2575 2939 
Q 2822 3125 2822 3475 
Q 2822 3834 2567 4026 
Q 2313 4219 1838 4219 
Q 1578 4219 1281 4162 
Q 984 4106 628 3988 
L 628 4550 
Q 988 4650 1302 4700 
Q 1616 4750 1894 4750 
Q 2613 4750 3031 4423 
Q 3450 4097 3450 3541 
Q 3450 3153 3228 2886 
Q 3006 2619 2597 2516 
z
" transform="scale(0.015625)"/>
      </defs>
      <use xlink:href="#DejaVuSans-31"/>
      <use xlink:href="#DejaVuSans-65" x="63.623047"/>
      <use xlink:href="#DejaVuSans-33" x="125.146484"/>
     </g>
    </g>
   </g>
   <g id="matplotlib.axis_2">
    <g id="ytick_1">
     <g id="line2d_13">
      <path d="M 43.78125 224.888992 
L 490.18125 224.888992 
" clip-path="url(#p0abdb75070)" style="fill: none; stroke-dasharray: 0.8,1.32; stroke-dashoffset: 0; stroke: #b0b0b0; stroke-opacity: 0.8; stroke-width: 0.8"/>
     </g>
     <g id="line2d_14">
      <defs>
       <path id="mbadeeea3a9" d="M 0 0 
L -3.5 0 
" style="stroke: #000000; stroke-width: 0.8"/>
      </defs>
      <g>
       <use xlink:href="#mbadeeea3a9" x="43.78125" y="224.888992" style="stroke: #000000; stroke-width: 0.8"/>
      </g>
     </g>
     <g id="text_9">
      <!-- 0.0 -->
      <g transform="translate(20.878125 228.688211) scale(0.1 -0.1)">
       <defs>
        <path id="DejaVuSans-2e" d="M 684 794 
L 1344 794 
L 1344 0 
L 684 0 
L 684 794 
z
" transform="scale(0.015625)"/>
       </defs>
       <use xlink:href="#DejaVuSans-30"/>
       <use xlink:href="#DejaVuSans-2e" x="63.623047"/>
       <use xlink:href="#DejaVuSans-30" x="95.410156"/>
      </g>
     </g>
    </g>
    <g id="ytick_2">
     <g id="line2d_15">
      <path d="M 43.78125 194.697239 
L 490.18125 194.697239 
" clip-path="url(#p0abdb75070)" style="fill: none; stroke-dasharray: 0.8,1.32; stroke-dashoffset: 0; stroke: #b0b0b0; stroke-opacity: 0.8; stroke-width: 0.8"/>
     </g>
     <g id="line2d_16">
      <g>
       <use xlink:href="#mbadeeea3a9" x="43.78125" y="194.697239" style="stroke: #000000; stroke-width: 0.8"/>
      </g>
     </g>
     <g id="text_10">
      <!-- 0.1 -->
      <g transform="translate(20.878125 198.496458) scale(0.1 -0.1)">
       <use xlink:href="#DejaVuSans-30"/>
       <use xlink:href="#DejaVuSans-2e" x="63.623047"/>
       <use xlink:href="#DejaVuSans-31" x="95.410156"/>
      </g>
     </g>
    </g>
    <g id="ytick_3">
     <g id="line2d_17">
      <path d="M 43.78125 164.505486 
L 490.18125 164.505486 
" clip-path="url(#p0abdb75070)" style="fill: none; stroke-dasharray: 0.8,1.32; stroke-dashoffset: 0; stroke: #b0b0b0; stroke-opacity: 0.8; stroke-width: 0.8"/>
     </g>
     <g id="line2d_18">
      <g>
       <use xlink:href="#mbadeeea3a9" x="43.78125" y="164.505486" style="stroke: #000000; stroke-width: 0.8"/>
      </g>
     </g>
     <g id="text_11">
      <!-- 0.2 -->
      <g transform="translate(20.878125 168.304704) scale(0.1 -0.1)">
       <use xlink:href="#DejaVuSans-30"/>
       <use xlink:href="#DejaVuSans-2e" x="63.623047"/>
       <use xlink:href="#DejaVuSans-32" x="95.410156"/>
      </g>
     </g>
    </g>
    <g id="ytick_4">
     <g id="line2d_19">
      <path d="M 43.78125 134.313732 
L 490.18125 134.313732 
" clip-path="url(#p0abdb75070)" style="fill: none; stroke-dasharray: 0.8,1.32; stroke-dashoffset: 0; stroke: #b0b0b0; stroke-opacity: 0.8; stroke-width: 0.8"/>
     </g>
     <g id="line2d_20">
      <g>
       <use xlink:href="#mbadeeea3a9" x="43.78125" y="134.313732" style="stroke: #000000; stroke-width: 0.8"/>
      </g>
     </g>
     <g id="text_12">
      <!-- 0.3 -->
      <g transform="translate(20.878125 138.112951) scale(0.1 -0.1)">
       <use xlink:href="#DejaVuSans-30"/>
       <use xlink:href="#DejaVuSans-2e" x="63.623047"/>
       <use xlink:href="#DejaVuSans-33" x="95.410156"/>
      </g>
     </g>
    </g>
    <g id="ytick_5">
     <g id="line2d_21">
      <path d="M 43.78125 104.121979 
L 490.18125 104.121979 
" clip-path="url(#p0abdb75070)" style="fill: none; stroke-dasharray: 0.8,1.32; stroke-dashoffset: 0; stroke: #b0b0b0; stroke-opacity: 0.8; stroke-width: 0.8"/>
     </g>
     <g id="line2d_22">
      <g>
       <use xlink:href="#mbadeeea3a9" x="43.78125" y="104.121979" style="stroke: #000000; stroke-width: 0.8"/>
      </g>
     </g>
     <g id="text_13">
      <!-- 0.4 -->
      <g transform="translate(20.878125 107.921198) scale(0.1 -0.1)">
       <defs>
        <path id="DejaVuSans-34" d="M 2419 4116 
L 825 1625 
L 2419 1625 
L 2419 4116 
z
M 2253 4666 
L 3047 4666 
L 3047 1625 
L 3713 1625 
L 3713 1100 
L 3047 1100 
L 3047 0 
L 2419 0 
L 2419 1100 
L 313 1100 
L 313 1709 
L 2253 4666 
z
" transform="scale(0.015625)"/>
       </defs>
       <use xlink:href="#DejaVuSans-30"/>
       <use xlink:href="#DejaVuSans-2e" x="63.623047"/>
       <use xlink:href="#DejaVuSans-34" x="95.410156"/>
      </g>
     </g>
    </g>
    <g id="ytick_6">
     <g id="line2d_23">
      <path d="M 43.78125 73.930226 
L 490.18125 73.930226 
" clip-path="url(#p0abdb75070)" style="fill: none; stroke-dasharray: 0.8,1.32; stroke-dashoffset: 0; stroke: #b0b0b0; stroke-opacity: 0.8; stroke-width: 0.8"/>
     </g>
     <g id="line2d_24">
      <g>
       <use xlink:href="#mbadeeea3a9" x="43.78125" y="73.930226" style="stroke: #000000; stroke-width: 0.8"/>
      </g>
     </g>
     <g id="text_14">
      <!-- 0.5 -->
      <g transform="translate(20.878125 77.729444) scale(0.1 -0.1)">
       <use xlink:href="#DejaVuSans-30"/>
       <use xlink:href="#DejaVuSans-2e" x="63.623047"/>
       <use xlink:href="#DejaVuSans-35" x="95.410156"/>
      </g>
     </g>
    </g>
    <g id="ytick_7">
     <g id="line2d_25">
      <path d="M 43.78125 43.738472 
L 490.18125 43.738472 
" clip-path="url(#p0abdb75070)" style="fill: none; stroke-dasharray: 0.8,1.32; stroke-dashoffset: 0; stroke: #b0b0b0; stroke-opacity: 0.8; stroke-width: 0.8"/>
     </g>
     <g id="line2d_26">
      <g>
       <use xlink:href="#mbadeeea3a9" x="43.78125" y="43.738472" style="stroke: #000000; stroke-width: 0.8"/>
      </g>
     </g>
     <g id="text_15">
      <!-- 0.6 -->
      <g transform="translate(20.878125 47.537691) scale(0.1 -0.1)">
       <defs>
        <path id="DejaVuSans-36" d="M 2113 2584 
Q 1688 2584 1439 2293 
Q 1191 2003 1191 1497 
Q 1191 994 1439 701 
Q 1688 409 2113 409 
Q 2538 409 2786 701 
Q 3034 994 3034 1497 
Q 3034 2003 2786 2293 
Q 2538 2584 2113 2584 
z
M 3366 4563 
L 3366 3988 
Q 3128 4100 2886 4159 
Q 2644 4219 2406 4219 
Q 1781 4219 1451 3797 
Q 1122 3375 1075 2522 
Q 1259 2794 1537 2939 
Q 1816 3084 2150 3084 
Q 2853 3084 3261 2657 
Q 3669 2231 3669 1497 
Q 3669 778 3244 343 
Q 2819 -91 2113 -91 
Q 1303 -91 875 529 
Q 447 1150 447 2328 
Q 447 3434 972 4092 
Q 1497 4750 2381 4750 
Q 2619 4750 2861 4703 
Q 3103 4656 3366 4563 
z
" transform="scale(0.015625)"/>
       </defs>
       <use xlink:href="#DejaVuSans-30"/>
       <use xlink:href="#DejaVuSans-2e" x="63.623047"/>
       <use xlink:href="#DejaVuSans-36" x="95.410156"/>
      </g>
     </g>
    </g>
    <g id="ytick_8">
     <g id="line2d_27">
      <path d="M 43.78125 13.546719 
L 490.18125 13.546719 
" clip-path="url(#p0abdb75070)" style="fill: none; stroke-dasharray: 0.8,1.32; stroke-dashoffset: 0; stroke: #b0b0b0; stroke-opacity: 0.8; stroke-width: 0.8"/>
     </g>
     <g id="line2d_28">
      <g>
       <use xlink:href="#mbadeeea3a9" x="43.78125" y="13.546719" style="stroke: #000000; stroke-width: 0.8"/>
      </g>
     </g>
     <g id="text_16">
      <!-- 0.7 -->
      <g transform="translate(20.878125 17.345938) scale(0.1 -0.1)">
       <defs>
        <path id="DejaVuSans-37" d="M 525 4666 
L 3525 4666 
L 3525 4397 
L 1831 0 
L 1172 0 
L 2766 4134 
L 525 4134 
L 525 4666 
z
" transform="scale(0.015625)"/>
       </defs>
       <use xlink:href="#DejaVuSans-30"/>
       <use xlink:href="#DejaVuSans-2e" x="63.623047"/>
       <use xlink:href="#DejaVuSans-37" x="95.410156"/>
      </g>
     </g>
    </g>
    <g id="text_17">
     <!-- Batch train loss -->
     <g style="fill: #0000ff" transform="translate(14.798438 156.926094) rotate(-90) scale(0.1 -0.1)">
      <defs>
       <path id="DejaVuSans-42" d="M 1259 2228 
L 1259 519 
L 2272 519 
Q 2781 519 3026 730 
Q 3272 941 3272 1375 
Q 3272 1813 3026 2020 
Q 2781 2228 2272 2228 
L 1259 2228 
z
M 1259 4147 
L 1259 2741 
L 2194 2741 
Q 2656 2741 2882 2914 
Q 3109 3088 3109 3444 
Q 3109 3797 2882 3972 
Q 2656 4147 2194 4147 
L 1259 4147 
z
M 628 4666 
L 2241 4666 
Q 2963 4666 3353 4366 
Q 3744 4066 3744 3513 
Q 3744 3084 3544 2831 
Q 3344 2578 2956 2516 
Q 3422 2416 3680 2098 
Q 3938 1781 3938 1306 
Q 3938 681 3513 340 
Q 3088 0 2303 0 
L 628 0 
L 628 4666 
z
" transform="scale(0.015625)"/>
       <path id="DejaVuSans-61" d="M 2194 1759 
Q 1497 1759 1228 1600 
Q 959 1441 959 1056 
Q 959 750 1161 570 
Q 1363 391 1709 391 
Q 2188 391 2477 730 
Q 2766 1069 2766 1631 
L 2766 1759 
L 2194 1759 
z
M 3341 1997 
L 3341 0 
L 2766 0 
L 2766 531 
Q 2569 213 2275 61 
Q 1981 -91 1556 -91 
Q 1019 -91 701 211 
Q 384 513 384 1019 
Q 384 1609 779 1909 
Q 1175 2209 1959 2209 
L 2766 2209 
L 2766 2266 
Q 2766 2663 2505 2880 
Q 2244 3097 1772 3097 
Q 1472 3097 1187 3025 
Q 903 2953 641 2809 
L 641 3341 
Q 956 3463 1253 3523 
Q 1550 3584 1831 3584 
Q 2591 3584 2966 3190 
Q 3341 2797 3341 1997 
z
" transform="scale(0.015625)"/>
       <path id="DejaVuSans-63" d="M 3122 3366 
L 3122 2828 
Q 2878 2963 2633 3030 
Q 2388 3097 2138 3097 
Q 1578 3097 1268 2742 
Q 959 2388 959 1747 
Q 959 1106 1268 751 
Q 1578 397 2138 397 
Q 2388 397 2633 464 
Q 2878 531 3122 666 
L 3122 134 
Q 2881 22 2623 -34 
Q 2366 -91 2075 -91 
Q 1284 -91 818 406 
Q 353 903 353 1747 
Q 353 2603 823 3093 
Q 1294 3584 2113 3584 
Q 2378 3584 2631 3529 
Q 2884 3475 3122 3366 
z
" transform="scale(0.015625)"/>
       <path id="DejaVuSans-68" d="M 3513 2113 
L 3513 0 
L 2938 0 
L 2938 2094 
Q 2938 2591 2744 2837 
Q 2550 3084 2163 3084 
Q 1697 3084 1428 2787 
Q 1159 2491 1159 1978 
L 1159 0 
L 581 0 
L 581 4863 
L 1159 4863 
L 1159 2956 
Q 1366 3272 1645 3428 
Q 1925 3584 2291 3584 
Q 2894 3584 3203 3211 
Q 3513 2838 3513 2113 
z
" transform="scale(0.015625)"/>
       <path id="DejaVuSans-20" transform="scale(0.015625)"/>
       <path id="DejaVuSans-72" d="M 2631 2963 
Q 2534 3019 2420 3045 
Q 2306 3072 2169 3072 
Q 1681 3072 1420 2755 
Q 1159 2438 1159 1844 
L 1159 0 
L 581 0 
L 581 3500 
L 1159 3500 
L 1159 2956 
Q 1341 3275 1631 3429 
Q 1922 3584 2338 3584 
Q 2397 3584 2469 3576 
Q 2541 3569 2628 3553 
L 2631 2963 
z
" transform="scale(0.015625)"/>
       <path id="DejaVuSans-69" d="M 603 3500 
L 1178 3500 
L 1178 0 
L 603 0 
L 603 3500 
z
M 603 4863 
L 1178 4863 
L 1178 4134 
L 603 4134 
L 603 4863 
z
" transform="scale(0.015625)"/>
       <path id="DejaVuSans-6e" d="M 3513 2113 
L 3513 0 
L 2938 0 
L 2938 2094 
Q 2938 2591 2744 2837 
Q 2550 3084 2163 3084 
Q 1697 3084 1428 2787 
Q 1159 2491 1159 1978 
L 1159 0 
L 581 0 
L 581 3500 
L 1159 3500 
L 1159 2956 
Q 1366 3272 1645 3428 
Q 1925 3584 2291 3584 
Q 2894 3584 3203 3211 
Q 3513 2838 3513 2113 
z
" transform="scale(0.015625)"/>
       <path id="DejaVuSans-6c" d="M 603 4863 
L 1178 4863 
L 1178 0 
L 603 0 
L 603 4863 
z
" transform="scale(0.015625)"/>
       <path id="DejaVuSans-6f" d="M 1959 3097 
Q 1497 3097 1228 2736 
Q 959 2375 959 1747 
Q 959 1119 1226 758 
Q 1494 397 1959 397 
Q 2419 397 2687 759 
Q 2956 1122 2956 1747 
Q 2956 2369 2687 2733 
Q 2419 3097 1959 3097 
z
M 1959 3584 
Q 2709 3584 3137 3096 
Q 3566 2609 3566 1747 
Q 3566 888 3137 398 
Q 2709 -91 1959 -91 
Q 1206 -91 779 398 
Q 353 888 353 1747 
Q 353 2609 779 3096 
Q 1206 3584 1959 3584 
z
" transform="scale(0.015625)"/>
      </defs>
      <use xlink:href="#DejaVuSans-42"/>
      <use xlink:href="#DejaVuSans-61" x="68.603516"/>
      <use xlink:href="#DejaVuSans-74" x="129.882812"/>
      <use xlink:href="#DejaVuSans-63" x="169.091797"/>
      <use xlink:href="#DejaVuSans-68" x="224.072266"/>
      <use xlink:href="#DejaVuSans-20" x="287.451172"/>
      <use xlink:href="#DejaVuSans-74" x="319.238281"/>
      <use xlink:href="#DejaVuSans-72" x="358.447266"/>
      <use xlink:href="#DejaVuSans-61" x="399.560547"/>
      <use xlink:href="#DejaVuSans-69" x="460.839844"/>
      <use xlink:href="#DejaVuSans-6e" x="488.623047"/>
      <use xlink:href="#DejaVuSans-20" x="552.001953"/>
      <use xlink:href="#DejaVuSans-6c" x="583.789062"/>
      <use xlink:href="#DejaVuSans-6f" x="611.572266"/>
      <use xlink:href="#DejaVuSans-73" x="672.753906"/>
      <use xlink:href="#DejaVuSans-73" x="724.853516"/>
     </g>
    </g>
   </g>
   <g id="line2d_29">
    <path d="M 64.072159 17.28 
L 76.425759 19.487639 
L 80.273069 20.50929 
L 83.763245 21.657577 
L 87.074854 22.986414 
L 90.029328 24.406742 
L 92.837702 25.997543 
L 95.532443 27.779026 
L 98.06485 29.713868 
L 100.581023 31.920769 
L 102.999796 34.343205 
L 105.321169 36.976874 
L 107.658775 39.964122 
L 110.012615 43.337773 
L 112.398921 47.151419 
L 114.866394 51.518901 
L 117.496202 56.63754 
L 120.385743 62.771946 
L 123.664885 70.286135 
L 127.625829 79.953175 
L 133.421144 94.749103 
L 141.894967 116.321398 
L 146.034478 126.229976 
L 149.589587 134.17967 
L 152.836262 140.909706 
L 155.920604 146.805228 
L 158.940012 152.10373 
L 161.926953 156.898289 
L 164.897661 161.249228 
L 167.884602 165.233505 
L 170.936477 168.933513 
L 174.053286 172.361255 
L 177.235027 175.531537 
L 180.530403 178.50244 
L 183.955645 181.291475 
L 187.526988 183.913465 
L 191.309365 186.411437 
L 195.270309 188.759296 
L 199.474753 190.991501 
L 203.955165 193.116191 
L 208.727778 195.132293 
L 213.873758 197.062628 
L 219.441807 198.910252 
L 225.448156 200.666943 
L 232.022673 202.354781 
L 239.214059 203.967618 
L 247.184647 205.520839 
L 255.999371 207.004612 
L 265.70693 208.408881 
L 276.599526 209.754985 
L 288.823258 211.036358 
L 302.540461 212.247913 
L 318.221903 213.405654 
L 336.273418 214.508836 
L 357.068373 215.55031 
L 381.077537 216.526203 
L 409.469713 217.451749 
L 443.040336 218.317506 
L 469.890341 218.88 
L 469.890341 218.88 
" clip-path="url(#p0abdb75070)" style="fill: none; stroke: #0000ff; stroke-width: 2; stroke-linecap: square"/>
   </g>
   <g id="patch_3">
    <path d="M 43.78125 228.96 
L 43.78125 7.2 
" style="fill: none; stroke: #000000; stroke-width: 0.8; stroke-linejoin: miter; stroke-linecap: square"/>
   </g>
   <g id="patch_4">
    <path d="M 490.18125 228.96 
L 490.18125 7.2 
" style="fill: none; stroke: #000000; stroke-width: 0.8; stroke-linejoin: miter; stroke-linecap: square"/>
   </g>
   <g id="patch_5">
    <path d="M 43.78125 228.96 
L 490.18125 228.96 
" style="fill: none; stroke: #000000; stroke-width: 0.8; stroke-linejoin: miter; stroke-linecap: square"/>
   </g>
   <g id="patch_6">
    <path d="M 43.78125 7.2 
L 490.18125 7.2 
" style="fill: none; stroke: #000000; stroke-width: 0.8; stroke-linejoin: miter; stroke-linecap: square"/>
   </g>
  </g>
  <g id="axes_2">
   <g id="matplotlib.axis_3">
    <g id="ytick_9">
     <g id="line2d_30">
      <defs>
       <path id="m8d53b4f17a" d="M 0 0 
L 3.5 0 
" style="stroke: #000000; stroke-width: 0.8"/>
      </defs>
      <g>
       <use xlink:href="#m8d53b4f17a" x="490.18125" y="225.401124" style="stroke: #000000; stroke-width: 0.8"/>
      </g>
     </g>
     <g id="text_18">
      <!-- 50 -->
      <g transform="translate(497.18125 229.200343) scale(0.1 -0.1)">
       <use xlink:href="#DejaVuSans-35"/>
       <use xlink:href="#DejaVuSans-30" x="63.623047"/>
      </g>
     </g>
    </g>
    <g id="ytick_10">
     <g id="line2d_31">
      <g>
       <use xlink:href="#m8d53b4f17a" x="490.18125" y="183.776899" style="stroke: #000000; stroke-width: 0.8"/>
      </g>
     </g>
     <g id="text_19">
      <!-- 60 -->
      <g transform="translate(497.18125 187.576118) scale(0.1 -0.1)">
       <use xlink:href="#DejaVuSans-36"/>
       <use xlink:href="#DejaVuSans-30" x="63.623047"/>
      </g>
     </g>
    </g>
    <g id="ytick_11">
     <g id="line2d_32">
      <g>
       <use xlink:href="#m8d53b4f17a" x="490.18125" y="142.152675" style="stroke: #000000; stroke-width: 0.8"/>
      </g>
     </g>
     <g id="text_20">
      <!-- 70 -->
      <g transform="translate(497.18125 145.951893) scale(0.1 -0.1)">
       <use xlink:href="#DejaVuSans-37"/>
       <use xlink:href="#DejaVuSans-30" x="63.623047"/>
      </g>
     </g>
    </g>
    <g id="ytick_12">
     <g id="line2d_33">
      <g>
       <use xlink:href="#m8d53b4f17a" x="490.18125" y="100.52845" style="stroke: #000000; stroke-width: 0.8"/>
      </g>
     </g>
     <g id="text_21">
      <!-- 80 -->
      <g transform="translate(497.18125 104.327668) scale(0.1 -0.1)">
       <defs>
        <path id="DejaVuSans-38" d="M 2034 2216 
Q 1584 2216 1326 1975 
Q 1069 1734 1069 1313 
Q 1069 891 1326 650 
Q 1584 409 2034 409 
Q 2484 409 2743 651 
Q 3003 894 3003 1313 
Q 3003 1734 2745 1975 
Q 2488 2216 2034 2216 
z
M 1403 2484 
Q 997 2584 770 2862 
Q 544 3141 544 3541 
Q 544 4100 942 4425 
Q 1341 4750 2034 4750 
Q 2731 4750 3128 4425 
Q 3525 4100 3525 3541 
Q 3525 3141 3298 2862 
Q 3072 2584 2669 2484 
Q 3125 2378 3379 2068 
Q 3634 1759 3634 1313 
Q 3634 634 3220 271 
Q 2806 -91 2034 -91 
Q 1263 -91 848 271 
Q 434 634 434 1313 
Q 434 1759 690 2068 
Q 947 2378 1403 2484 
z
M 1172 3481 
Q 1172 3119 1398 2916 
Q 1625 2713 2034 2713 
Q 2441 2713 2670 2916 
Q 2900 3119 2900 3481 
Q 2900 3844 2670 4047 
Q 2441 4250 2034 4250 
Q 1625 4250 1398 4047 
Q 1172 3844 1172 3481 
z
" transform="scale(0.015625)"/>
       </defs>
       <use xlink:href="#DejaVuSans-38"/>
       <use xlink:href="#DejaVuSans-30" x="63.623047"/>
      </g>
     </g>
    </g>
    <g id="ytick_13">
     <g id="line2d_34">
      <g>
       <use xlink:href="#m8d53b4f17a" x="490.18125" y="58.904225" style="stroke: #000000; stroke-width: 0.8"/>
      </g>
     </g>
     <g id="text_22">
      <!-- 90 -->
      <g transform="translate(497.18125 62.703444) scale(0.1 -0.1)">
       <defs>
        <path id="DejaVuSans-39" d="M 703 97 
L 703 672 
Q 941 559 1184 500 
Q 1428 441 1663 441 
Q 2288 441 2617 861 
Q 2947 1281 2994 2138 
Q 2813 1869 2534 1725 
Q 2256 1581 1919 1581 
Q 1219 1581 811 2004 
Q 403 2428 403 3163 
Q 403 3881 828 4315 
Q 1253 4750 1959 4750 
Q 2769 4750 3195 4129 
Q 3622 3509 3622 2328 
Q 3622 1225 3098 567 
Q 2575 -91 1691 -91 
Q 1453 -91 1209 -44 
Q 966 3 703 97 
z
M 1959 2075 
Q 2384 2075 2632 2365 
Q 2881 2656 2881 3163 
Q 2881 3666 2632 3958 
Q 2384 4250 1959 4250 
Q 1534 4250 1286 3958 
Q 1038 3666 1038 3163 
Q 1038 2656 1286 2365 
Q 1534 2075 1959 2075 
z
" transform="scale(0.015625)"/>
       </defs>
       <use xlink:href="#DejaVuSans-39"/>
       <use xlink:href="#DejaVuSans-30" x="63.623047"/>
      </g>
     </g>
    </g>
    <g id="ytick_14">
     <g id="line2d_35">
      <g>
       <use xlink:href="#m8d53b4f17a" x="490.18125" y="17.28" style="stroke: #000000; stroke-width: 0.8"/>
      </g>
     </g>
     <g id="text_23">
      <!-- 100 -->
      <g transform="translate(497.18125 21.079219) scale(0.1 -0.1)">
       <use xlink:href="#DejaVuSans-31"/>
       <use xlink:href="#DejaVuSans-30" x="63.623047"/>
       <use xlink:href="#DejaVuSans-30" x="127.246094"/>
      </g>
     </g>
    </g>
    <g id="text_24">
     <!-- Batch train acc (%) -->
     <g style="fill: #ff0000" transform="translate(527.867188 166.072187) rotate(-90) scale(0.1 -0.1)">
      <defs>
       <path id="DejaVuSans-28" d="M 1984 4856 
Q 1566 4138 1362 3434 
Q 1159 2731 1159 2009 
Q 1159 1288 1364 580 
Q 1569 -128 1984 -844 
L 1484 -844 
Q 1016 -109 783 600 
Q 550 1309 550 2009 
Q 550 2706 781 3412 
Q 1013 4119 1484 4856 
L 1984 4856 
z
" transform="scale(0.015625)"/>
       <path id="DejaVuSans-25" d="M 4653 2053 
Q 4381 2053 4226 1822 
Q 4072 1591 4072 1178 
Q 4072 772 4226 539 
Q 4381 306 4653 306 
Q 4919 306 5073 539 
Q 5228 772 5228 1178 
Q 5228 1588 5073 1820 
Q 4919 2053 4653 2053 
z
M 4653 2450 
Q 5147 2450 5437 2106 
Q 5728 1763 5728 1178 
Q 5728 594 5436 251 
Q 5144 -91 4653 -91 
Q 4153 -91 3862 251 
Q 3572 594 3572 1178 
Q 3572 1766 3864 2108 
Q 4156 2450 4653 2450 
z
M 1428 4353 
Q 1159 4353 1004 4120 
Q 850 3888 850 3481 
Q 850 3069 1003 2837 
Q 1156 2606 1428 2606 
Q 1700 2606 1854 2837 
Q 2009 3069 2009 3481 
Q 2009 3884 1853 4118 
Q 1697 4353 1428 4353 
z
M 4250 4750 
L 4750 4750 
L 1831 -91 
L 1331 -91 
L 4250 4750 
z
M 1428 4750 
Q 1922 4750 2215 4408 
Q 2509 4066 2509 3481 
Q 2509 2891 2217 2550 
Q 1925 2209 1428 2209 
Q 931 2209 642 2551 
Q 353 2894 353 3481 
Q 353 4063 643 4406 
Q 934 4750 1428 4750 
z
" transform="scale(0.015625)"/>
       <path id="DejaVuSans-29" d="M 513 4856 
L 1013 4856 
Q 1481 4119 1714 3412 
Q 1947 2706 1947 2009 
Q 1947 1309 1714 600 
Q 1481 -109 1013 -844 
L 513 -844 
Q 928 -128 1133 580 
Q 1338 1288 1338 2009 
Q 1338 2731 1133 3434 
Q 928 4138 513 4856 
z
" transform="scale(0.015625)"/>
      </defs>
      <use xlink:href="#DejaVuSans-42"/>
      <use xlink:href="#DejaVuSans-61" x="68.603516"/>
      <use xlink:href="#DejaVuSans-74" x="129.882812"/>
      <use xlink:href="#DejaVuSans-63" x="169.091797"/>
      <use xlink:href="#DejaVuSans-68" x="224.072266"/>
      <use xlink:href="#DejaVuSans-20" x="287.451172"/>
      <use xlink:href="#DejaVuSans-74" x="319.238281"/>
      <use xlink:href="#DejaVuSans-72" x="358.447266"/>
      <use xlink:href="#DejaVuSans-61" x="399.560547"/>
      <use xlink:href="#DejaVuSans-69" x="460.839844"/>
      <use xlink:href="#DejaVuSans-6e" x="488.623047"/>
      <use xlink:href="#DejaVuSans-20" x="552.001953"/>
      <use xlink:href="#DejaVuSans-61" x="583.789062"/>
      <use xlink:href="#DejaVuSans-63" x="645.068359"/>
      <use xlink:href="#DejaVuSans-63" x="700.048828"/>
      <use xlink:href="#DejaVuSans-20" x="755.029297"/>
      <use xlink:href="#DejaVuSans-28" x="786.816406"/>
      <use xlink:href="#DejaVuSans-25" x="825.830078"/>
      <use xlink:href="#DejaVuSans-29" x="920.849609"/>
     </g>
    </g>
   </g>
   <g id="line2d_36">
    <path d="M 64.072159 218.88 
L 64.445527 206.670223 
L 64.786428 196.541673 
L 64.802661 196.680403 
L 64.835128 196.264167 
L 64.948761 192.656726 
L 65.273429 185.025623 
L 65.370829 183.360648 
L 65.51693 179.33697 
L 65.744197 174.342076 
L 66.312365 162.826042 
L 66.539632 159.773582 
L 66.9617 155.333669 
L 67.237668 152.28124 
L 67.253901 152.28124 
L 68.195437 145.066358 
L 68.21167 145.066358 
L 68.357771 144.372631 
L 68.374004 144.511376 
L 68.406471 144.511376 
L 68.552571 144.095141 
L 68.585038 144.095141 
L 68.779838 143.262637 
L 68.828538 143.262637 
L 68.877239 142.846401 
L 68.958405 142.985146 
L 68.974639 142.985146 
L 69.104506 142.707656 
L 69.169439 142.707656 
L 69.31554 142.29142 
L 69.348006 142.29142 
L 69.477874 141.736439 
L 69.55904 141.736439 
L 69.705141 140.765222 
L 69.753841 140.765222 
L 69.883708 140.487699 
L 69.932408 140.487699 
L 70.094742 139.932718 
L 70.110975 139.932718 
L 70.273309 139.377737 
L 70.354476 139.377737 
L 70.386943 139.516482 
L 70.451876 139.377737 
L 70.468109 139.377737 
L 70.630443 138.822724 
L 70.646677 138.822724 
L 70.841477 137.990252 
L 70.938877 138.267743 
L 70.987578 137.712762 
L 71.052511 137.851507 
L 71.133678 137.851507 
L 71.247312 137.712762 
L 71.296012 137.712762 
L 71.458345 137.157749 
L 71.490812 137.157749 
L 71.507046 137.019035 
L 71.588212 137.157749 
L 71.636913 137.157749 
L 71.86418 136.047786 
L 71.977813 136.047786 
L 72.026514 135.909041 
L 72.042747 136.186531 
L 72.05898 136.186531 
L 72.091447 136.186531 
L 72.237548 135.770296 
L 72.351181 135.909041 
L 72.448581 135.909041 
L 72.578448 135.492805 
L 72.594682 135.63155 
L 72.627149 135.35406 
L 72.675849 135.076569 
L 72.740782 135.215314 
L 72.903116 135.215314 
L 72.919349 135.35406 
L 73.000516 135.215314 
L 73.032983 135.215314 
L 73.146617 135.076569 
L 73.195317 135.076569 
L 73.325184 134.799047 
L 73.341417 134.799047 
L 73.503751 134.244066 
L 73.568684 134.244066 
L 73.666085 133.966575 
L 73.682318 134.10532 
L 73.714785 134.10532 
L 73.828418 133.966575 
L 73.844652 133.966575 
L 73.877119 133.82783 
L 73.942052 133.966575 
L 74.006986 133.966575 
L 74.120619 133.82783 
L 74.153086 133.82783 
L 74.282953 133.550339 
L 74.380353 133.550339 
L 74.51022 133.82783 
L 74.721254 133.82783 
L 74.834888 133.550339 
L 74.948521 133.689084 
L 74.964755 133.689084 
L 75.078388 133.550339 
L 75.370589 133.550339 
L 75.484223 133.272848 
L 75.743957 133.272848 
L 75.80889 133.411594 
L 75.841357 133.272848 
L 76.149791 133.272848 
L 76.166025 133.134071 
L 76.247192 133.272848 
L 76.328358 133.272848 
L 76.441992 133.134071 
L 76.620559 133.134071 
L 76.717959 133.272848 
L 76.76666 132.995358 
L 76.831593 133.134071 
L 76.928993 133.134071 
L 77.091327 132.579122 
L 77.237428 132.579122 
L 77.367295 132.3016 
L 77.740662 132.3016 
L 77.870529 132.024109 
L 78.06533 132.024109 
L 78.21143 131.607873 
L 78.227663 131.607873 
L 78.357531 131.330382 
L 78.406231 131.330382 
L 78.519864 131.191637 
L 78.649731 131.191637 
L 78.763365 131.05286 
L 78.795832 131.05286 
L 78.909465 130.914147 
L 79.120499 130.914147 
L 79.250366 131.191637 
L 80.094502 131.191637 
L 80.208135 131.05286 
L 80.386703 131.05286 
L 80.500336 131.191637 
L 80.597736 131.191637 
L 80.727603 130.914147 
L 80.857471 130.914147 
L 80.971104 130.775401 
L 81.409405 130.775401 
L 81.523039 130.914147 
L 81.831473 130.914147 
L 81.945107 131.05286 
L 82.01004 131.05286 
L 82.123674 131.191637 
L 82.691842 131.191637 
L 82.854176 130.636624 
L 83.06521 130.636624 
L 83.195077 130.359134 
L 83.357411 130.359134 
L 83.471044 130.220388 
L 83.535978 130.359134 
L 83.568444 130.220388 
L 83.958045 130.220388 
L 84.071679 130.081675 
L 84.087912 130.081675 
L 84.201546 129.942898 
L 84.574914 129.942898 
L 84.60738 129.804152 
L 84.672314 129.942898 
L 84.802181 129.942898 
L 84.915815 129.804152 
L 85.126849 129.804152 
L 85.240482 129.665407 
L 85.354116 129.665407 
L 85.467749 129.804152 
L 85.695017 129.804152 
L 85.80865 129.665407 
L 86.068384 129.665407 
L 86.133318 129.526662 
L 86.165785 129.665407 
L 86.96122 129.665407 
L 87.00992 129.526662 
L 87.05862 129.665407 
L 87.204721 129.665407 
L 87.318354 129.526662 
L 87.837822 129.526662 
L 87.967689 129.804152 
L 89.282593 129.804152 
L 89.396227 129.942898 
L 89.46116 129.942898 
L 89.574794 130.081675 
L 90.743597 130.081675 
L 90.85723 129.942898 
L 94.038972 129.942898 
L 94.152606 129.804152 
L 95.337642 129.804152 
L 95.467509 129.526662 
L 98.227183 129.526662 
L 98.340817 129.387917 
L 100.548556 129.387917 
L 100.678423 129.110426 
L 101.149191 129.110426 
L 101.262825 128.971649 
L 101.684893 128.971649 
L 101.798526 128.832935 
L 102.171894 128.832935 
L 102.285528 128.694158 
L 102.821229 128.694158 
L 102.934863 128.555413 
L 103.227063 128.555413 
L 103.340697 128.416699 
L 103.681598 128.416699 
L 103.795232 128.277922 
L 104.753001 128.277922 
L 104.882868 127.722941 
L 104.947801 127.722941 
L 105.077668 127.445451 
L 105.110135 127.445451 
L 105.240002 127.16796 
L 105.434803 127.16796 
L 105.548436 127.029215 
L 105.938037 127.029215 
L 106.051671 126.890438 
L 106.360105 126.890438 
L 106.489972 126.612947 
L 106.538672 126.612947 
L 106.668539 126.335488 
L 106.81464 126.335488 
L 106.944507 125.780475 
L 107.025674 125.780475 
L 107.204241 125.086749 
L 107.366575 125.086749 
L 107.577608 124.1155 
L 107.593842 124.1155 
L 107.788642 123.283028 
L 107.837342 123.283028 
L 107.967209 122.86676 
L 108.01591 122.86676 
L 108.275644 121.479307 
L 108.291877 121.479307 
L 108.486677 120.646836 
L 108.502911 120.646836 
L 108.811345 118.843115 
L 108.827578 118.843115 
L 108.989912 117.871866 
L 109.119779 117.594376 
L 109.136013 117.594376 
L 109.26588 116.900649 
L 109.736647 113.709475 
L 109.769114 113.709475 
L 109.947681 112.460736 
L 109.996382 112.460736 
L 110.142482 111.350742 
L 110.158715 111.350742 
L 110.824284 106.494593 
L 110.85675 106.494593 
L 111.262585 103.8584 
L 111.278818 103.8584 
L 111.424919 102.609661 
L 111.457385 102.609661 
L 111.717119 101.222176 
L 111.733353 101.222176 
L 111.976853 99.973469 
L 111.993087 99.973469 
L 112.155421 99.00222 
L 112.187887 99.00222 
L 112.674889 95.672301 
L 112.691122 95.672301 
L 113.06449 93.313567 
L 113.096956 93.313567 
L 113.470324 90.954865 
L 113.486557 90.954865 
L 113.730058 89.706158 
L 113.762525 89.706158 
L 114.038492 88.179928 
L 114.054726 88.179928 
L 114.200826 87.763692 
L 114.217059 87.763692 
L 114.379393 87.208679 
L 114.395627 87.208679 
L 114.622894 86.098716 
L 114.655361 86.098716 
L 114.785228 85.68248 
L 114.996262 84.711232 
L 115.044962 84.711232 
L 115.174829 84.15625 
L 115.191062 84.15625 
L 115.402096 83.185033 
L 115.450796 83.185033 
L 115.467029 83.323779 
L 115.531963 83.046288 
L 115.678063 82.63002 
L 115.694297 82.63002 
L 115.872864 81.936294 
L 116.035198 81.936294 
L 116.197531 81.381313 
L 116.229998 81.381313 
L 116.343632 81.242567 
L 116.392332 81.242567 
L 116.522199 80.965077 
L 116.570899 80.965077 
L 116.749466 80.271318 
L 116.781933 80.271318 
L 116.895567 80.132605 
L 116.9118 80.132605 
L 117.139067 79.022579 
L 117.155301 79.022579 
L 117.333868 78.328853 
L 117.463735 78.328853 
L 117.658535 77.496381 
L 117.691002 77.496381 
L 117.804636 77.357635 
L 117.902036 77.357635 
L 118.01567 77.21889 
L 118.031903 77.21889 
L 118.16177 76.802654 
L 118.194237 76.802654 
L 118.324104 76.386418 
L 118.35657 76.386418 
L 118.486437 76.108896 
L 118.583838 76.108896 
L 118.778638 75.276424 
L 118.924739 75.276424 
L 119.135773 74.305207 
L 119.184473 74.305207 
L 119.31434 74.027685 
L 119.36304 74.027685 
L 119.50914 73.611449 
L 119.622774 73.611449 
L 119.768874 73.195213 
L 119.785108 73.195213 
L 119.914975 72.917722 
L 119.996142 72.917722 
L 120.142242 72.501455 
L 120.304576 72.501455 
L 120.418209 72.362741 
L 120.548076 72.362741 
L 120.694177 71.946474 
L 121.018844 71.946474 
L 121.213645 71.114002 
L 121.246112 71.114002 
L 121.375979 70.836479 
L 121.408445 70.836479 
L 121.587012 70.142753 
L 121.619479 70.142753 
L 121.733113 70.004008 
L 121.749346 70.004008 
L 121.895447 69.587772 
L 121.96038 69.587772 
L 122.074014 69.449026 
L 122.122714 69.587772 
L 122.138947 69.310281 
L 122.155181 69.310281 
L 122.171414 69.310281 
L 122.301281 69.03279 
L 122.414915 69.03279 
L 122.593482 68.339032 
L 122.609715 68.339032 
L 122.772049 67.784083 
L 122.869449 67.784083 
L 122.983083 67.645306 
L 123.194117 67.645306 
L 123.30775 67.50656 
L 123.372684 67.50656 
L 123.567484 66.674089 
L 123.583718 66.674089 
L 123.713585 66.396566 
L 123.827218 66.396566 
L 123.973319 65.98033 
L 124.022019 65.98033 
L 124.151886 65.70284 
L 124.26552 65.70284 
L 124.395387 65.425349 
L 124.427853 65.425349 
L 124.55772 65.147859 
L 124.622654 65.147859 
L 124.752521 64.870368 
L 124.768754 64.870368 
L 124.882388 64.731623 
L 125.028488 64.731623 
L 125.142122 64.592877 
L 125.288222 64.592877 
L 125.401856 64.454132 
L 125.56419 64.454132 
L 125.694057 64.037896 
L 126.343392 64.037896 
L 126.489492 63.621629 
L 126.651826 63.621629 
L 126.781693 63.344138 
L 127.236227 63.344138 
L 127.349861 63.205393 
L 127.560895 63.205393 
L 127.706995 62.789157 
L 127.901796 62.789157 
L 128.01543 62.650411 
L 128.275164 62.650411 
L 128.388797 62.511666 
L 128.518664 62.511666 
L 128.632298 62.372921 
L 128.697231 62.372921 
L 128.827098 62.09543 
L 128.989432 62.09543 
L 129.103066 61.817908 
L 129.232933 61.817908 
L 129.346566 61.679194 
L 129.573834 61.679194 
L 129.703701 61.401672 
L 129.719934 61.401672 
L 129.833568 61.262927 
L 129.849801 61.262927 
L 129.963435 61.124181 
L 129.979668 61.124181 
L 130.125769 60.707946 
L 130.174469 60.707946 
L 130.336802 60.152933 
L 130.51537 60.152933 
L 130.645237 59.875442 
L 130.775104 59.875442 
L 130.904971 59.459206 
L 130.986137 59.459206 
L 131.099771 59.320461 
L 131.148471 59.320461 
L 131.327038 58.626734 
L 131.684173 58.626734 
L 131.797806 58.487957 
L 132.00884 58.487957 
L 132.171174 57.933008 
L 132.365974 57.933008 
L 132.495841 57.655485 
L 132.544542 57.655485 
L 132.674409 57.23925 
L 132.690642 57.23925 
L 132.804276 57.100504 
L 133.047776 57.100504 
L 133.16141 56.961759 
L 133.372444 56.961759 
L 133.518544 56.545523 
L 133.826978 56.545523 
L 133.956845 56.268032 
L 134.541247 56.268032 
L 134.671114 55.990542 
L 134.736047 55.990542 
L 134.898381 55.435529 
L 134.914615 55.435529 
L 135.028248 55.296784 
L 135.255516 55.296784 
L 135.385383 55.019293 
L 135.482783 55.019293 
L 135.596416 54.880548 
L 135.742517 54.880548 
L 135.85615 54.741802 
L 135.904851 54.741802 
L 136.099651 53.909331 
L 136.148351 53.909331 
L 136.278218 53.493095 
L 136.310685 53.493095 
L 136.473019 52.938082 
L 136.489252 52.938082 
L 136.602886 52.799336 
L 136.684053 52.799336 
L 136.830153 52.383101 
L 136.846386 52.383101 
L 136.976253 52.10561 
L 137.235987 52.10561 
L 137.382088 51.689374 
L 137.593122 51.689374 
L 137.722989 51.411883 
L 137.771689 51.411883 
L 137.917789 50.995616 
L 137.950256 50.995616 
L 138.06389 50.85687 
L 138.404791 50.85687 
L 138.534658 50.57938 
L 138.550891 50.57938 
L 138.696991 50.163144 
L 138.761925 50.163144 
L 138.891792 49.885622 
L 139.26516 49.885622 
L 139.378793 49.746908 
L 139.443727 49.746908 
L 139.55736 49.608131 
L 139.995661 49.608131 
L 140.125528 49.330672 
L 140.206695 49.330672 
L 140.320329 49.191895 
L 140.51513 49.191895 
L 140.628763 49.05315 
L 140.693697 49.05315 
L 140.80733 48.914405 
L 140.85603 48.914405 
L 140.969664 48.775659 
L 141.002131 48.775659 
L 141.131998 48.359423 
L 141.148231 48.359423 
L 141.278098 48.081933 
L 141.440432 48.081933 
L 141.570299 47.804442 
L 141.797566 47.804442 
L 141.9112 47.665697 
L 142.219634 47.665697 
L 142.349501 47.388206 
L 142.917669 47.388206 
L 143.047536 47.110684 
L 143.193637 47.110684 
L 143.30727 46.833193 
L 143.420904 46.833193 
L 143.550771 46.555703 
L 143.696871 46.555703 
L 143.859205 46.000722 
L 143.940372 46.000722 
L 144.054006 45.861944 
L 144.086472 45.861944 
L 144.200106 45.723231 
L 144.329973 45.723231 
L 144.443607 45.584486 
L 144.589707 45.584486 
L 144.703341 45.445709 
L 144.800741 45.445709 
L 144.914375 45.306995 
L 144.946841 45.306995 
L 145.076708 45.029473 
L 145.109175 45.029473 
L 145.222809 44.890759 
L 145.255276 44.890759 
L 145.417609 44.335746 
L 145.531243 44.335746 
L 145.70981 43.64202 
L 145.726043 43.64202 
L 145.872144 43.225784 
L 146.099411 43.225784 
L 146.261745 42.670771 
L 146.456545 42.670771 
L 146.602646 42.254535 
L 146.86238 42.254535 
L 147.00848 41.838299 
L 147.024714 41.838299 
L 147.170814 41.422063 
L 147.365614 41.422063 
L 147.479248 41.283286 
L 147.511715 41.283286 
L 147.625348 41.144573 
L 147.657815 41.144573 
L 147.820149 40.58956 
L 147.901316 40.58956 
L 148.11235 39.618342 
L 148.16105 39.618342 
L 148.274684 39.479597 
L 148.501951 39.479597 
L 148.615584 39.34082 
L 148.631818 39.34082 
L 148.777918 38.647094 
L 148.907785 38.369603 
L 148.988952 38.369603 
L 149.135053 37.953367 
L 149.151286 37.953367 
L 149.281153 37.675877 
L 149.378553 37.675877 
L 149.492187 37.537131 
L 149.622054 37.537131 
L 149.833088 36.565882 
L 149.881788 36.565882 
L 150.060355 35.872156 
L 150.141522 35.872156 
L 150.287622 35.45592 
L 150.320089 35.45592 
L 150.449956 35.039684 
L 150.482423 35.039684 
L 150.628523 34.345926 
L 150.75839 34.068435 
L 150.823324 34.068435 
L 150.969424 33.652199 
L 151.001891 33.652199 
L 151.164225 33.097186 
L 151.180458 33.097186 
L 151.375258 32.264715 
L 151.391492 32.264715 
L 151.602526 31.293498 
L 151.634993 31.293498 
L 151.76486 30.877262 
L 151.91096 30.461026 
L 151.95966 30.461026 
L 152.154461 29.628522 
L 152.186927 29.628522 
L 152.381728 28.79605 
L 152.414195 28.79605 
L 152.560295 28.379783 
L 152.657695 28.379783 
L 152.771329 28.241037 
L 152.803796 28.241037 
L 152.949896 27.824802 
L 153.01483 27.824802 
L 153.242097 26.714839 
L 153.371964 26.714839 
L 153.534298 26.159826 
L 153.599231 26.159826 
L 153.729098 25.882336 
L 153.826498 25.882336 
L 153.972599 25.4661 
L 154.037532 25.4661 
L 154.167399 25.188609 
L 154.248566 25.188609 
L 154.378433 24.911087 
L 154.443367 24.911087 
L 154.557 24.772373 
L 154.6057 24.772373 
L 154.751801 24.356137 
L 154.768034 24.356137 
L 154.930368 23.801124 
L 155.044002 23.801124 
L 155.173869 23.523634 
L 155.336202 23.523634 
L 155.498536 22.968653 
L 155.51477 22.968653 
L 155.677103 22.41364 
L 155.85567 22.41364 
L 156.066704 21.442422 
L 156.261505 21.442422 
L 156.391372 21.164932 
L 156.407605 21.164932 
L 156.521239 21.026187 
L 156.602406 21.026187 
L 156.797206 20.193715 
L 157.170574 20.193715 
L 157.284208 20.054938 
L 157.511475 20.054938 
L 157.641342 19.777447 
L 157.787442 19.777447 
L 157.917309 19.499957 
L 158.079643 19.499957 
L 158.20951 19.222466 
L 158.25821 19.222466 
L 158.404311 18.806198 
L 158.712745 18.806198 
L 158.842612 18.528739 
L 158.956245 18.528739 
L 159.069879 18.389962 
L 160.206215 18.389962 
L 160.319849 18.251249 
L 160.66075 18.251249 
L 160.774384 18.112472 
L 160.936717 18.112472 
L 161.066584 17.835013 
L 161.212685 17.835013 
L 161.342552 17.557491 
L 161.553586 17.557491 
L 161.667219 17.418745 
L 161.748386 17.418745 
L 161.86202 17.28 
L 469.890341 17.28 
L 469.890341 17.28 
" clip-path="url(#p0abdb75070)" style="fill: none; stroke: #ff0000; stroke-width: 2; stroke-linecap: square"/>
   </g>
   <g id="patch_7">
    <path d="M 43.78125 228.96 
L 43.78125 7.2 
" style="fill: none; stroke: #000000; stroke-width: 0.8; stroke-linejoin: miter; stroke-linecap: square"/>
   </g>
   <g id="patch_8">
    <path d="M 490.18125 228.96 
L 490.18125 7.2 
" style="fill: none; stroke: #000000; stroke-width: 0.8; stroke-linejoin: miter; stroke-linecap: square"/>
   </g>
   <g id="patch_9">
    <path d="M 43.78125 228.96 
L 490.18125 228.96 
" style="fill: none; stroke: #000000; stroke-width: 0.8; stroke-linejoin: miter; stroke-linecap: square"/>
   </g>
   <g id="patch_10">
    <path d="M 43.78125 7.2 
L 490.18125 7.2 
" style="fill: none; stroke: #000000; stroke-width: 0.8; stroke-linejoin: miter; stroke-linecap: square"/>
   </g>
  </g>
 </g>
 <defs>
  <clipPath id="p0abdb75070">
   <rect x="43.78125" y="7.2" width="446.4" height="221.76"/>
  </clipPath>
 </defs>
</svg>