<?xml version="1.0" encoding="utf-8" standalone="no"?>
<!DOCTYPE svg PUBLIC "-//W3C//DTD SVG 1.1//EN"
  "http://www.w3.org/Graphics/SVG/1.1/DTD/svg11.dtd">
<svg xmlns:xlink="http://www.w3.org/1999/xlink" width="300.920313pt" height="277.314375pt" viewBox="0 0 300.920313 277.314375" xmlns="http://www.w3.org/2000/svg" version="1.1">
 <metadata>
  <rdf:RDF xmlns:dc="http://purl.org/dc/elements/1.1/" xmlns:cc="http://creativecommons.org/ns#" xmlns:rdf="http://www.w3.org/1999/02/22-rdf-syntax-ns#">
   <cc:Work>
    <dc:type rdf:resource="http://purl.org/dc/dcmitype/StillImage"/>
    <dc:date>2023-06-08T02:39:56.902569</dc:date>
    <dc:format>image/svg+xml</dc:format>
    <dc:creator>
     <cc:Agent>
      <dc:title>Matplotlib v3.7.1, https://matplotlib.org/</dc:title>
     </cc:Agent>
    </dc:creator>
   </cc:Work>
  </rdf:RDF>
 </metadata>
 <defs>
  <style type="text/css">*{stroke-linejoin: round; stroke-linecap: butt}</style>
 </defs>
 <g id="figure_1">
  <g id="patch_1">
   <path d="M 0 277.314375 
L 300.920313 277.314375 
L 300.920313 0 
L 0 0 
L 0 277.314375 
z
" style="fill: none"/>
  </g>
  <g id="axes_1">
   <g id="patch_2">
    <path d="M 42.620313 239.758125 
L 293.720313 239.758125 
L 293.720313 22.318125 
L 42.620313 22.318125 
z
" style="fill: #ffffff"/>
   </g>
   <g id="PathCollection_1">
    <path d="M 116.174858 133.752617 
L 118.711222 134.330093 
L 121.092447 132.136307 
L 121.09245 129.939943 
L 118.711222 127.746154 
L 116.174858 128.323631 
L 114.994545 129.939943 
L 114.994545 132.136307 
z
" clip-path="url(#pee8d25e1da)" style="fill: #002f6d"/>
   </g>
   <g id="PathCollection_2">
    <path d="M 215.09304 187.510865 
L 217.629403 188.262681 
L 220.165767 188.077308 
L 222.456728 187.045398 
L 222.702131 186.88929 
L 224.45766 184.849034 
L 225.238494 183.078634 
L 225.378932 182.65267 
L 225.476412 180.456307 
L 225.238494 179.47744 
L 224.846807 178.259943 
L 223.252356 176.06358 
L 222.702131 175.573932 
L 220.165767 174.340811 
L 217.629403 174.141815 
L 215.09304 174.94888 
L 213.575855 176.06358 
L 212.556676 177.220264 
L 211.942793 178.259943 
L 211.355799 180.456307 
L 211.461255 182.65267 
L 212.270264 184.849034 
L 212.556676 185.266994 
L 214.394667 187.045398 
z
" clip-path="url(#pee8d25e1da)" style="fill: #39486c"/>
    <path d="M 116.174858 138.736751 
L 118.711222 138.892454 
L 119.400486 138.725398 
L 121.247585 138.176377 
L 123.604776 136.529034 
L 123.783949 136.341832 
L 125.065762 134.33267 
L 125.735014 132.136307 
L 125.735017 129.939943 
L 125.065773 127.74358 
L 123.783949 125.734395 
L 123.604798 125.547216 
L 121.247585 123.89986 
L 119.400513 123.350852 
L 118.711222 123.183791 
L 116.174858 123.339498 
L 116.143339 123.350852 
L 113.638494 124.478023 
L 112.375378 125.547216 
L 111.102131 127.18837 
L 110.7894 127.74358 
L 110.170767 129.939943 
L 110.170767 132.136307 
L 110.7894 134.33267 
L 111.102131 134.88788 
L 112.375378 136.529034 
L 113.638494 137.598227 
L 116.143345 138.725398 
z
M 114.994545 132.136307 
L 114.994545 129.939943 
L 116.174858 128.323631 
L 118.711222 127.746154 
L 121.09245 129.939943 
L 121.092447 132.136307 
L 118.711222 134.330093 
L 116.174858 133.752617 
z
" clip-path="url(#pee8d25e1da)" style="fill: #39486c"/>
    <path d="M 166.902131 86.411684 
L 169.438494 86.411682 
L 170.39844 86.01267 
L 171.974858 85.037002 
L 172.9659 83.816307 
L 173.768782 81.619943 
L 173.624541 79.42358 
L 172.517988 77.227216 
L 171.974858 76.650781 
L 169.438494 75.299811 
L 166.902131 75.299811 
L 164.365767 76.650781 
L 163.822636 77.227216 
L 162.716082 79.42358 
L 162.571838 81.619943 
L 163.374717 83.816307 
L 164.365767 85.037012 
L 165.942174 86.01267 
z
" clip-path="url(#pee8d25e1da)" style="fill: #39486c"/>
   </g>
   <g id="PathCollection_3">
    <path d="M 217.629403 191.836001 
L 220.165767 191.715244 
L 221.137872 191.438125 
L 222.702131 190.939965 
L 225.238494 189.371316 
L 225.384626 189.241761 
L 227.28257 187.045398 
L 227.774858 186.170397 
L 228.39769 184.849034 
L 228.937555 182.65267 
L 229.007927 180.456307 
L 228.616217 178.259943 
L 227.774858 176.188363 
L 227.715004 176.06358 
L 226.056042 173.867216 
L 225.238494 173.08847 
L 223.053871 171.670852 
L 222.702131 171.480713 
L 220.165767 170.725907 
L 217.629403 170.6041 
L 215.09304 171.098112 
L 213.809732 171.670852 
L 212.556676 172.329956 
L 210.728743 173.867216 
L 210.020312 174.683258 
L 209.089499 176.06358 
L 208.169714 178.259943 
L 207.767322 180.456307 
L 207.839614 182.65267 
L 208.394199 184.849034 
L 209.490366 187.045398 
L 210.020312 187.758303 
L 211.455095 189.241761 
L 212.556676 190.104007 
L 215.09304 191.340986 
L 215.554829 191.438125 
z
M 214.394667 187.045398 
L 212.556676 185.266994 
L 212.270264 184.849034 
L 211.461255 182.65267 
L 211.355799 180.456307 
L 211.942793 178.259943 
L 212.556676 177.220264 
L 213.575855 176.06358 
L 215.09304 174.94888 
L 217.629403 174.141815 
L 220.165767 174.340811 
L 222.702131 175.573932 
L 223.252356 176.06358 
L 224.846807 178.259943 
L 225.238494 179.47744 
L 225.476412 180.456307 
L 225.378932 182.65267 
L 225.238494 183.078634 
L 224.45766 184.849034 
L 222.702131 186.88929 
L 222.456728 187.045398 
L 220.165767 188.077308 
L 217.629403 188.262681 
L 215.09304 187.510865 
z
" clip-path="url(#pee8d25e1da)" style="fill: #5d616e"/>
    <path d="M 113.638494 141.341938 
L 116.174858 142.062788 
L 118.711222 142.179115 
L 121.247585 141.707327 
L 123.058963 140.921761 
L 123.783949 140.556081 
L 126.041999 138.725398 
L 126.320312 138.422068 
L 127.66237 136.529034 
L 128.628787 134.33267 
L 128.856676 133.260609 
L 129.079196 132.136307 
L 129.079203 129.939943 
L 128.856676 128.815559 
L 128.628812 127.74358 
L 127.662418 125.547216 
L 126.320312 123.654101 
L 126.042074 123.350852 
L 123.783949 121.520116 
L 123.059058 121.154489 
L 121.247585 120.368895 
L 118.711222 119.897122 
L 116.174858 120.013457 
L 113.638494 120.73431 
L 112.838593 121.154489 
L 111.102131 122.235019 
L 109.886997 123.350852 
L 108.565767 125.012086 
L 108.219452 125.547216 
L 107.278689 127.74358 
L 106.832088 129.939943 
L 106.832088 132.136307 
L 107.278689 134.33267 
L 108.219452 136.529034 
L 108.565767 137.064164 
L 109.886997 138.725398 
L 111.102131 139.841231 
L 112.838595 140.921761 
z
M 116.143345 138.725398 
L 113.638494 137.598227 
L 112.375378 136.529034 
L 111.102131 134.88788 
L 110.7894 134.33267 
L 110.170767 132.136307 
L 110.170767 129.939943 
L 110.7894 127.74358 
L 111.102131 127.18837 
L 112.375378 125.547216 
L 113.638494 124.478023 
L 116.143339 123.350852 
L 116.174858 123.339498 
L 118.711222 123.183791 
L 119.400513 123.350852 
L 121.247585 123.89986 
L 123.604798 125.547216 
L 123.783949 125.734395 
L 125.065773 127.74358 
L 125.735017 129.939943 
L 125.735014 132.136307 
L 125.065762 134.33267 
L 123.783949 136.341832 
L 123.604776 136.529034 
L 121.247585 138.176377 
L 119.400486 138.725398 
L 118.711222 138.892454 
L 116.174858 138.736751 
z
" clip-path="url(#pee8d25e1da)" style="fill: #5d616e"/>
    <path d="M 166.902131 90.540069 
L 169.438494 90.540062 
L 169.971833 90.405398 
L 171.974858 89.830834 
L 174.511222 88.286297 
L 174.597355 88.209034 
L 176.432111 86.01267 
L 177.047585 84.81536 
L 177.471742 83.816307 
L 177.894307 81.619943 
L 177.818392 79.42358 
L 177.236001 77.227216 
L 177.047585 76.844823 
L 175.953853 75.030852 
L 174.511222 73.471078 
L 173.632966 72.834489 
L 171.974858 71.890583 
L 169.438494 71.194437 
L 166.902131 71.194437 
L 164.365767 71.890583 
L 162.707658 72.834489 
L 161.829403 73.471078 
L 160.386771 75.030852 
L 159.29304 76.84482 
L 159.104623 77.227216 
L 158.522229 79.42358 
L 158.446307 81.619943 
L 158.868863 83.816307 
L 159.29304 84.815422 
L 159.908476 86.01267 
L 161.743224 88.209034 
L 161.829403 88.286338 
L 164.365767 89.83086 
L 166.368749 90.405398 
z
M 165.942174 86.01267 
L 164.365767 85.037012 
L 163.374717 83.816307 
L 162.571838 81.619943 
L 162.716082 79.42358 
L 163.822636 77.227216 
L 164.365767 76.650781 
L 166.902131 75.299811 
L 169.438494 75.299811 
L 171.974858 76.650781 
L 172.517988 77.227216 
L 173.624541 79.42358 
L 173.768782 81.619943 
L 172.9659 83.816307 
L 171.974858 85.037002 
L 170.39844 86.01267 
L 169.438494 86.411682 
L 166.902131 86.411684 
z
" clip-path="url(#pee8d25e1da)" style="fill: #5d616e"/>
   </g>
   <g id="PathCollection_4">
    <path d="M 212.556676 193.867693 
L 215.09304 194.760308 
L 217.629403 195.133954 
L 220.165767 195.041825 
L 222.702131 194.470928 
L 224.624559 193.634489 
L 225.238494 193.343983 
L 227.774858 191.510915 
L 227.852903 191.438125 
L 229.772601 189.241761 
L 230.311222 188.378395 
L 231.058164 187.045398 
L 231.859584 184.849034 
L 232.265048 182.65267 
L 232.317901 180.456307 
L 232.023708 178.259943 
L 231.351242 176.06358 
L 230.311222 174.017598 
L 230.227013 173.867216 
L 228.523589 171.670852 
L 227.774858 170.932012 
L 225.840327 169.474489 
L 225.238494 169.08448 
L 222.702131 167.966245 
L 220.165767 167.402264 
L 217.629403 167.311252 
L 215.09304 167.680371 
L 212.556676 168.56217 
L 210.962108 169.474489 
L 210.020312 170.089559 
L 208.264868 171.670852 
L 207.483949 172.579651 
L 206.550136 173.867216 
L 205.438571 176.06358 
L 204.947585 177.658237 
L 204.764258 178.259943 
L 204.457526 180.456307 
L 204.512632 182.65267 
L 204.935377 184.849034 
L 204.947585 184.88356 
L 205.728318 187.045398 
L 207.00001 189.241761 
L 207.483949 189.862813 
L 208.953842 191.438125 
L 210.020312 192.346108 
L 212.129817 193.634489 
z
M 215.554829 191.438125 
L 215.09304 191.340986 
L 212.556676 190.104007 
L 211.455095 189.241761 
L 210.020312 187.758303 
L 209.490366 187.045398 
L 208.394199 184.849034 
L 207.839614 182.65267 
L 207.767322 180.456307 
L 208.169714 178.259943 
L 209.089499 176.06358 
L 210.020312 174.683258 
L 210.728743 173.867216 
L 212.556676 172.329956 
L 213.809732 171.670852 
L 215.09304 171.098112 
L 217.629403 170.6041 
L 220.165767 170.725907 
L 222.702131 171.480713 
L 223.053871 171.670852 
L 225.238494 173.08847 
L 226.056042 173.867216 
L 227.715004 176.06358 
L 227.774858 176.188363 
L 228.616217 178.259943 
L 229.007927 180.456307 
L 228.937555 182.65267 
L 228.39769 184.849034 
L 227.774858 186.170397 
L 227.28257 187.045398 
L 225.384626 189.241761 
L 225.238494 189.371316 
L 222.702131 190.939965 
L 221.137872 191.438125 
L 220.165767 191.715244 
L 217.629403 191.836001 
z
" clip-path="url(#pee8d25e1da)" style="fill: #7d7c78"/>
    <path d="M 118.711222 145.349048 
L 118.948563 145.314489 
L 121.247585 144.990474 
L 123.783949 144.139397 
L 125.611233 143.118125 
L 126.320312 142.670509 
L 128.318128 140.921761 
L 128.856676 140.320761 
L 130.056886 138.725398 
L 131.199302 136.529034 
L 131.39304 135.949762 
L 131.925397 134.33267 
L 132.275121 132.136307 
L 132.27514 129.939943 
L 131.925462 127.74358 
L 131.39304 126.126175 
L 131.19942 125.547216 
L 130.057089 123.350852 
L 128.856676 121.755184 
L 128.318408 121.154489 
L 126.320312 119.405519 
L 125.611562 118.958125 
L 123.783949 117.936717 
L 121.247585 117.085709 
L 118.948802 116.761761 
L 118.711222 116.727171 
L 117.774144 116.761761 
L 116.174858 116.817348 
L 113.638494 117.361686 
L 111.102131 118.440964 
L 110.285182 118.958125 
L 108.565767 120.210295 
L 107.581099 121.154489 
L 106.029403 123.086602 
L 105.844269 123.350852 
L 104.688718 125.547216 
L 103.982161 127.74358 
L 103.646743 129.939943 
L 103.646743 132.136307 
L 103.982161 134.33267 
L 104.688718 136.529034 
L 105.844269 138.725398 
L 106.029403 138.989648 
L 107.5811 140.921761 
L 108.565767 141.865955 
L 110.285183 143.118125 
L 111.102131 143.635285 
L 113.638494 144.71456 
L 116.174858 145.258891 
L 117.774795 145.314489 
z
M 112.838595 140.921761 
L 111.102131 139.841231 
L 109.886997 138.725398 
L 108.565767 137.064164 
L 108.219452 136.529034 
L 107.278689 134.33267 
L 106.832088 132.136307 
L 106.832088 129.939943 
L 107.278689 127.74358 
L 108.219452 125.547216 
L 108.565767 125.012086 
L 109.886997 123.350852 
L 111.102131 122.235019 
L 112.838593 121.154489 
L 113.638494 120.73431 
L 116.174858 120.013457 
L 118.711222 119.897122 
L 121.247585 120.368895 
L 123.059058 121.154489 
L 123.783949 121.520116 
L 126.042074 123.350852 
L 126.320312 123.654101 
L 127.662418 125.547216 
L 128.628812 127.74358 
L 128.856676 128.815559 
L 129.079203 129.939943 
L 129.079196 132.136307 
L 128.856676 133.260609 
L 128.628787 134.33267 
L 127.66237 136.529034 
L 126.320312 138.422068 
L 126.041999 138.725398 
L 123.783949 140.556081 
L 123.058963 140.921761 
L 121.247585 141.707327 
L 118.711222 142.179115 
L 116.174858 142.062788 
L 113.638494 141.341938 
z
" clip-path="url(#pee8d25e1da)" style="fill: #7d7c78"/>
    <path d="M 164.365767 93.572366 
L 166.902131 94.068584 
L 169.438494 94.068565 
L 171.974858 93.572298 
L 174.30727 92.601761 
L 174.511222 92.508383 
L 177.047585 90.711469 
L 177.371817 90.405398 
L 179.209423 88.209034 
L 179.583949 87.575056 
L 180.406278 86.01267 
L 181.118263 83.816307 
L 181.429745 81.619943 
L 181.373786 79.42358 
L 180.944494 77.227216 
L 180.095976 75.030852 
L 179.583949 74.148346 
L 178.719216 72.834489 
L 177.047585 71.014772 
L 176.593957 70.638125 
L 174.511222 69.212946 
L 172.71009 68.441761 
L 171.974858 68.14963 
L 169.438494 67.647285 
L 166.902131 67.647285 
L 164.365767 68.14963 
L 163.630535 68.441761 
L 161.829403 69.212946 
L 159.746667 70.638125 
L 159.29304 71.014772 
L 157.621408 72.834489 
L 156.756676 74.148344 
L 156.244648 75.030852 
L 155.396126 77.227216 
L 154.966826 79.42358 
L 154.910852 81.619943 
L 155.222304 83.816307 
L 155.934243 86.01267 
L 156.756676 87.575314 
L 157.131038 88.209034 
L 158.968593 90.405398 
L 159.29304 90.711669 
L 161.829403 92.508513 
L 162.033079 92.601761 
z
M 166.368749 90.405398 
L 164.365767 89.83086 
L 161.829403 88.286338 
L 161.743224 88.209034 
L 159.908476 86.01267 
L 159.29304 84.815422 
L 158.868863 83.816307 
L 158.446307 81.619943 
L 158.522229 79.42358 
L 159.104623 77.227216 
L 159.29304 76.84482 
L 160.386771 75.030852 
L 161.829403 73.471078 
L 162.707658 72.834489 
L 164.365767 71.890583 
L 166.902131 71.194437 
L 169.438494 71.194437 
L 171.974858 71.890583 
L 173.632966 72.834489 
L 174.511222 73.471078 
L 175.953853 75.030852 
L 177.047585 76.844823 
L 177.236001 77.227216 
L 177.818392 79.42358 
L 177.894307 81.619943 
L 177.471742 83.816307 
L 177.047585 84.81536 
L 176.432111 86.01267 
L 174.597355 88.209034 
L 174.511222 88.286297 
L 171.974858 89.830834 
L 169.971833 90.405398 
L 169.438494 90.540062 
L 166.902131 90.540069 
z
" clip-path="url(#pee8d25e1da)" style="fill: #7d7c78"/>
   </g>
   <g id="PathCollection_5">
    <path d="M 215.09304 198.461565 
L 217.629403 198.769053 
L 220.165767 198.693236 
L 222.702131 198.223423 
L 223.280206 198.027216 
L 225.238494 197.383056 
L 227.774858 196.038792 
L 228.074201 195.830852 
L 230.311222 194.088204 
L 230.78294 193.634489 
L 232.65074 191.438125 
L 232.847585 191.139681 
L 234.028345 189.241761 
L 234.961797 187.045398 
L 235.383949 185.484102 
L 235.570455 184.849034 
L 235.914681 182.65267 
L 235.959552 180.456307 
L 235.709791 178.259943 
L 235.383949 176.972275 
L 235.174477 176.06358 
L 234.358563 173.867216 
L 233.120698 171.670852 
L 232.847585 171.29017 
L 231.433205 169.474489 
L 230.311222 168.34433 
L 229.018094 167.278125 
L 227.774858 166.380276 
L 225.251745 165.081761 
L 225.238494 165.075148 
L 222.702131 164.185662 
L 220.165767 163.737051 
L 217.629403 163.664656 
L 215.09304 163.958267 
L 212.556676 164.659683 
L 211.598848 165.081761 
L 210.020312 165.785957 
L 207.756878 167.278125 
L 207.483949 167.47981 
L 205.35754 169.474489 
L 204.947585 169.955668 
L 203.64367 171.670852 
L 202.458001 173.867216 
L 202.411222 173.987064 
L 201.575252 176.06358 
L 201.04343 178.259943 
L 200.810766 180.456307 
L 200.852565 182.65267 
L 201.173228 184.849034 
L 201.807034 187.045398 
L 202.411222 188.406838 
L 202.774294 189.241761 
L 204.110501 191.438125 
L 204.947585 192.478845 
L 206.000413 193.634489 
L 207.483949 194.963328 
L 208.726509 195.830852 
L 210.020312 196.651273 
L 212.556676 197.764217 
L 213.543039 198.027216 
z
M 212.129817 193.634489 
L 210.020312 192.346108 
L 208.953842 191.438125 
L 207.483949 189.862813 
L 207.00001 189.241761 
L 205.728318 187.045398 
L 204.947585 184.88356 
L 204.935377 184.849034 
L 204.512632 182.65267 
L 204.457526 180.456307 
L 204.764258 178.259943 
L 204.947585 177.658237 
L 205.438571 176.06358 
L 206.550136 173.867216 
L 207.483949 172.579651 
L 208.264868 171.670852 
L 210.020312 170.089559 
L 210.962108 169.474489 
L 212.556676 168.56217 
L 215.09304 167.680371 
L 217.629403 167.311252 
L 220.165767 167.402264 
L 222.702131 167.966245 
L 225.238494 169.08448 
L 225.840327 169.474489 
L 227.774858 170.932012 
L 228.523589 171.670852 
L 230.227013 173.867216 
L 230.311222 174.017598 
L 231.351242 176.06358 
L 232.023708 178.259943 
L 232.317901 180.456307 
L 232.265048 182.65267 
L 231.859584 184.849034 
L 231.058164 187.045398 
L 230.311222 188.378395 
L 229.772601 189.241761 
L 227.852903 191.438125 
L 227.774858 191.510915 
L 225.238494 193.343983 
L 224.624559 193.634489 
L 222.702131 194.470928 
L 220.165767 195.041825 
L 217.629403 195.133954 
L 215.09304 194.760308 
L 212.556676 193.867693 
z
" clip-path="url(#pee8d25e1da)" style="fill: #9f9775"/>
    <path d="M 111.102131 147.530438 
L 113.638494 148.403773 
L 116.174858 148.844239 
L 118.711222 148.915319 
L 121.247585 148.627039 
L 123.783949 147.938359 
L 124.770617 147.510852 
L 126.320312 146.836579 
L 128.675013 145.314489 
L 128.856676 145.184046 
L 131.111205 143.118125 
L 131.39304 142.798377 
L 132.86118 140.921761 
L 133.929403 139.013543 
L 134.089285 138.725398 
L 135.003162 136.529034 
L 135.561957 134.33267 
L 135.827248 132.136307 
L 135.8273 129.939943 
L 135.562136 127.74358 
L 135.003539 125.547216 
L 134.089942 123.350852 
L 133.929403 123.061444 
L 132.86215 121.154489 
L 131.39304 119.276466 
L 131.112461 118.958125 
L 128.856676 116.891138 
L 128.67648 116.761761 
L 126.320312 115.23896 
L 124.771872 114.565398 
L 123.783949 114.13747 
L 121.247585 113.44901 
L 118.711222 113.160845 
L 116.174858 113.231977 
L 113.638494 113.672464 
L 111.102131 114.545808 
L 111.062213 114.565398 
L 108.565767 115.818493 
L 107.233686 116.761761 
L 106.029403 117.726603 
L 104.777826 118.958125 
L 103.49304 120.552341 
L 103.048474 121.154489 
L 101.786521 123.350852 
L 100.956676 125.521932 
L 100.946481 125.547216 
L 100.346637 127.74358 
L 100.061877 129.939943 
L 100.061877 132.136307 
L 100.346637 134.33267 
L 100.946481 136.529034 
L 100.956676 136.554318 
L 101.786521 138.725398 
L 103.048474 140.921761 
L 103.49304 141.523909 
L 104.777826 143.118125 
L 106.029403 144.349647 
L 107.233687 145.314489 
L 108.565767 146.257756 
L 111.062221 147.510852 
z
M 117.774795 145.314489 
L 116.174858 145.258891 
L 113.638494 144.71456 
L 111.102131 143.635285 
L 110.285183 143.118125 
L 108.565767 141.865955 
L 107.5811 140.921761 
L 106.029403 138.989648 
L 105.844269 138.725398 
L 104.688718 136.529034 
L 103.982161 134.33267 
L 103.646743 132.136307 
L 103.646743 129.939943 
L 103.982161 127.74358 
L 104.688718 125.547216 
L 105.844269 123.350852 
L 106.029403 123.086602 
L 107.581099 121.154489 
L 108.565767 120.210295 
L 110.285182 118.958125 
L 111.102131 118.440964 
L 113.638494 117.361686 
L 116.174858 116.817348 
L 117.774144 116.761761 
L 118.711222 116.727171 
L 118.948802 116.761761 
L 121.247585 117.085709 
L 123.783949 117.936717 
L 125.611562 118.958125 
L 126.320312 119.405519 
L 128.318408 121.154489 
L 128.856676 121.755184 
L 130.057089 123.350852 
L 131.19942 125.547216 
L 131.39304 126.126175 
L 131.925462 127.74358 
L 132.27514 129.939943 
L 132.275121 132.136307 
L 131.925397 134.33267 
L 131.39304 135.949762 
L 131.199302 136.529034 
L 130.056886 138.725398 
L 128.856676 140.320761 
L 128.318128 140.921761 
L 126.320312 142.670509 
L 125.611233 143.118125 
L 123.783949 144.139397 
L 121.247585 144.990474 
L 118.948563 145.314489 
L 118.711222 145.349048 
z
" clip-path="url(#pee8d25e1da)" style="fill: #9f9775"/>
    <path d="M 164.365767 97.463101 
L 166.902131 97.857716 
L 169.438494 97.857655 
L 171.974858 97.462887 
L 173.436368 96.994489 
L 174.511222 96.658332 
L 177.047585 95.390673 
L 177.905277 94.798125 
L 179.583949 93.486167 
L 180.493058 92.601761 
L 182.120313 90.602709 
L 182.265949 90.405398 
L 183.556302 88.209034 
L 184.406813 86.01267 
L 184.656676 84.968747 
L 184.955332 83.816307 
L 185.212123 81.619943 
L 185.165989 79.42358 
L 184.812073 77.227216 
L 184.656676 76.710536 
L 184.185114 75.030852 
L 183.212082 72.834489 
L 182.120313 71.128768 
L 181.782145 70.638125 
L 179.804577 68.441761 
L 179.583949 68.236813 
L 177.047585 66.344062 
L 176.865178 66.245398 
L 174.511222 65.045696 
L 171.974858 64.269552 
L 170.458298 64.049034 
L 169.438494 63.887359 
L 166.902131 63.887359 
L 165.882327 64.049034 
L 164.365767 64.269552 
L 161.829403 65.045696 
L 159.475447 66.245398 
L 159.29304 66.344062 
L 156.756676 68.236813 
L 156.536048 68.441761 
L 154.558479 70.638125 
L 154.220313 71.128767 
L 153.128541 72.834489 
L 152.155505 75.030852 
L 151.683949 76.710491 
L 151.528535 77.227216 
L 151.174596 79.42358 
L 151.128413 81.619943 
L 151.385111 83.816307 
L 151.683949 84.969746 
L 151.93351 86.01267 
L 152.783769 88.209034 
L 154.073822 90.405398 
L 154.220313 90.603895 
L 155.846428 92.601761 
L 156.756676 93.487252 
L 158.434105 94.798125 
L 159.29304 95.391429 
L 161.829403 96.658741 
L 162.903203 96.994489 
z
M 162.033079 92.601761 
L 161.829403 92.508513 
L 159.29304 90.711669 
L 158.968593 90.405398 
L 157.131038 88.209034 
L 156.756676 87.575314 
L 155.934243 86.01267 
L 155.222304 83.816307 
L 154.910852 81.619943 
L 154.966826 79.42358 
L 155.396126 77.227216 
L 156.244648 75.030852 
L 156.756676 74.148344 
L 157.621408 72.834489 
L 159.29304 71.014772 
L 159.746667 70.638125 
L 161.829403 69.212946 
L 163.630535 68.441761 
L 164.365767 68.14963 
L 166.902131 67.647285 
L 169.438494 67.647285 
L 171.974858 68.14963 
L 172.71009 68.441761 
L 174.511222 69.212946 
L 176.593957 70.638125 
L 177.047585 71.014772 
L 178.719216 72.834489 
L 179.583949 74.148346 
L 180.095976 75.030852 
L 180.944494 77.227216 
L 181.373786 79.42358 
L 181.429745 81.619943 
L 181.118263 83.816307 
L 180.406278 86.01267 
L 179.583949 87.575056 
L 179.209423 88.209034 
L 177.371817 90.405398 
L 177.047585 90.711469 
L 174.511222 92.508383 
L 174.30727 92.601761 
L 171.974858 93.572298 
L 169.438494 94.068565 
L 166.902131 94.068584 
L 164.365767 93.572366 
z
" clip-path="url(#pee8d25e1da)" style="fill: #9f9775"/>
   </g>
   <g id="PathCollection_6">
    <path d="M 212.556676 202.876052 
L 215.09304 203.429586 
L 217.629403 203.661294 
L 220.165767 203.604163 
L 222.702131 203.250134 
L 225.238494 202.548182 
L 225.55868 202.419943 
L 227.774858 201.601699 
L 230.2313 200.22358 
L 230.311222 200.178248 
L 232.847585 198.342022 
L 233.207288 198.027216 
L 235.367062 195.830852 
L 235.383949 195.810484 
L 237.090908 193.634489 
L 237.920313 192.187885 
L 238.369699 191.438125 
L 239.388692 189.241761 
L 240.070528 187.045398 
L 240.456676 185.062828 
L 240.507975 184.849034 
L 240.79316 182.65267 
L 240.830334 180.456307 
L 240.623412 178.259943 
L 240.456676 177.453471 
L 240.22588 176.06358 
L 239.629898 173.867216 
L 238.725705 171.670852 
L 237.920313 170.249158 
L 237.504949 169.474489 
L 235.966034 167.278125 
L 235.383949 166.603422 
L 233.962991 165.081761 
L 232.847585 164.072415 
L 231.268056 162.885398 
L 230.311222 162.216093 
L 227.774858 160.868417 
L 227.307951 160.689034 
L 225.238494 159.838554 
L 222.702131 159.187345 
L 220.165767 158.858909 
L 217.629403 158.805908 
L 215.09304 159.020866 
L 212.556676 159.534385 
L 210.020312 160.422522 
L 209.466838 160.689034 
L 207.483949 161.606574 
L 205.520812 162.885398 
L 204.947585 163.279268 
L 202.836892 165.081761 
L 202.411222 165.504115 
L 200.804727 167.278125 
L 199.874858 168.599095 
L 199.26167 169.474489 
L 198.059221 171.670852 
L 197.338494 173.565773 
L 197.208399 173.867216 
L 196.507153 176.06358 
L 196.087742 178.259943 
L 195.904256 180.456307 
L 195.93722 182.65267 
L 196.190105 184.849034 
L 196.689943 187.045398 
L 197.338494 188.856706 
L 197.457133 189.241761 
L 198.382526 191.438125 
L 199.731206 193.634489 
L 199.874858 193.830315 
L 201.36537 195.830852 
L 202.411222 196.941728 
L 203.560731 198.027216 
L 204.947585 199.172655 
L 206.545892 200.22358 
L 207.483949 200.817086 
L 210.020312 202.021015 
L 211.266799 202.419943 
z
M 213.543039 198.027216 
L 212.556676 197.764217 
L 210.020312 196.651273 
L 208.726509 195.830852 
L 207.483949 194.963328 
L 206.000413 193.634489 
L 204.947585 192.478845 
L 204.110501 191.438125 
L 202.774294 189.241761 
L 202.411222 188.406838 
L 201.807034 187.045398 
L 201.173228 184.849034 
L 200.852565 182.65267 
L 200.810766 180.456307 
L 201.04343 178.259943 
L 201.575252 176.06358 
L 202.411222 173.987064 
L 202.458001 173.867216 
L 203.64367 171.670852 
L 204.947585 169.955668 
L 205.35754 169.474489 
L 207.483949 167.47981 
L 207.756878 167.278125 
L 210.020312 165.785957 
L 211.598848 165.081761 
L 212.556676 164.659683 
L 215.09304 163.958267 
L 217.629403 163.664656 
L 220.165767 163.737051 
L 222.702131 164.185662 
L 225.238494 165.075148 
L 225.251745 165.081761 
L 227.774858 166.380276 
L 229.018094 167.278125 
L 230.311222 168.34433 
L 231.433205 169.474489 
L 232.847585 171.29017 
L 233.120698 171.670852 
L 234.358563 173.867216 
L 235.174477 176.06358 
L 235.383949 176.972275 
L 235.709791 178.259943 
L 235.959552 180.456307 
L 235.914681 182.65267 
L 235.570455 184.849034 
L 235.383949 185.484102 
L 234.961797 187.045398 
L 234.028345 189.241761 
L 232.847585 191.139681 
L 232.65074 191.438125 
L 230.78294 193.634489 
L 230.311222 194.088204 
L 228.074201 195.830852 
L 227.774858 196.038792 
L 225.238494 197.383056 
L 223.280206 198.027216 
L 222.702131 198.223423 
L 220.165767 198.693236 
L 217.629403 198.769053 
L 215.09304 198.461565 
z
" clip-path="url(#pee8d25e1da)" style="fill: #c5b568"/>
    <path d="M 111.102131 152.681419 
L 113.638494 153.330139 
L 116.174858 153.65732 
L 118.711222 153.710119 
L 121.247585 153.495982 
L 123.783949 152.984426 
L 126.320312 152.099684 
L 126.732898 151.90358 
L 128.856676 150.940335 
L 130.777732 149.707216 
L 131.39304 149.29371 
L 133.516291 147.510852 
L 133.929403 147.111073 
L 135.588668 145.314489 
L 136.465767 144.103759 
L 137.172532 143.118125 
L 138.395142 140.921761 
L 139.002131 139.391427 
L 139.3003 138.725398 
L 140.021029 136.529034 
L 140.461751 134.33267 
L 140.671056 132.136307 
L 140.671286 129.939943 
L 140.462557 127.74358 
L 140.022788 125.547216 
L 139.303649 123.350852 
L 139.002131 122.675918 
L 138.399899 121.154489 
L 137.180629 118.958125 
L 136.465767 117.959786 
L 135.598924 116.761761 
L 133.929403 114.953631 
L 133.528215 114.565398 
L 131.39304 112.773744 
L 130.790191 112.369034 
L 128.856676 111.129786 
L 126.742066 110.17267 
L 126.320312 109.972687 
L 123.783949 109.089928 
L 121.247585 108.579426 
L 118.711222 108.365779 
L 116.174858 108.41879 
L 113.638494 108.746058 
L 111.102131 109.394812 
L 109.184638 110.17267 
L 108.565767 110.405724 
L 106.029403 111.738851 
L 105.115133 112.369034 
L 103.49304 113.561285 
L 102.364522 114.565398 
L 100.956676 116.035822 
L 100.317943 116.761761 
L 98.753161 118.958125 
L 98.420312 119.55816 
L 97.489682 121.154489 
L 96.567894 123.350852 
L 95.955372 125.547216 
L 95.883949 125.943189 
L 95.48176 127.74358 
L 95.245842 129.939943 
L 95.245842 132.136307 
L 95.48176 134.33267 
L 95.883949 136.133061 
L 95.955372 136.529034 
L 96.567894 138.725398 
L 97.489682 140.921761 
L 98.420312 142.51809 
L 98.753161 143.118125 
L 100.317943 145.314489 
L 100.956676 146.040428 
L 102.364522 147.510852 
L 103.49304 148.514964 
L 105.115134 149.707216 
L 106.029403 150.337398 
L 108.565767 151.670521 
L 109.184658 151.90358 
z
M 111.062221 147.510852 
L 108.565767 146.257756 
L 107.233687 145.314489 
L 106.029403 144.349647 
L 104.777826 143.118125 
L 103.49304 141.523909 
L 103.048474 140.921761 
L 101.786521 138.725398 
L 100.956676 136.554318 
L 100.946481 136.529034 
L 100.346637 134.33267 
L 100.061877 132.136307 
L 100.061877 129.939943 
L 100.346637 127.74358 
L 100.946481 125.547216 
L 100.956676 125.521932 
L 101.786521 123.350852 
L 103.048474 121.154489 
L 103.49304 120.552341 
L 104.777826 118.958125 
L 106.029403 117.726603 
L 107.233686 116.761761 
L 108.565767 115.818493 
L 111.062213 114.565398 
L 111.102131 114.545808 
L 113.638494 113.672464 
L 116.174858 113.231977 
L 118.711222 113.160845 
L 121.247585 113.44901 
L 123.783949 114.13747 
L 124.771872 114.565398 
L 126.320312 115.23896 
L 128.67648 116.761761 
L 128.856676 116.891138 
L 131.112461 118.958125 
L 131.39304 119.276466 
L 132.86215 121.154489 
L 133.929403 123.061444 
L 134.089942 123.350852 
L 135.003539 125.547216 
L 135.562136 127.74358 
L 135.8273 129.939943 
L 135.827248 132.136307 
L 135.561957 134.33267 
L 135.003162 136.529034 
L 134.089285 138.725398 
L 133.929403 139.013543 
L 132.86118 140.921761 
L 131.39304 142.798377 
L 131.111205 143.118125 
L 128.856676 145.184046 
L 128.675013 145.314489 
L 126.320312 146.836579 
L 124.770617 147.510852 
L 123.783949 147.938359 
L 121.247585 148.627039 
L 118.711222 148.915319 
L 116.174858 148.844239 
L 113.638494 148.403773 
L 111.102131 147.530438 
z
" clip-path="url(#pee8d25e1da)" style="fill: #c5b568"/>
    <path d="M 161.829403 101.958664 
L 164.365767 102.576806 
L 166.902131 102.865207 
L 169.438494 102.864942 
L 171.974858 102.575834 
L 174.511222 101.956421 
L 175.981957 101.387216 
L 177.047585 101.00519 
L 179.583949 99.686893 
L 180.318205 99.190852 
L 182.120313 97.894851 
L 183.143958 96.994489 
L 184.656676 95.434334 
L 185.218788 94.798125 
L 186.801023 92.601761 
L 187.19304 91.894376 
L 188.053921 90.405398 
L 188.971903 88.209034 
L 189.576973 86.01267 
L 189.729403 85.121456 
L 190.00406 83.816307 
L 190.211661 81.619943 
L 190.174364 79.42358 
L 189.888244 77.227216 
L 189.729403 76.576844 
L 189.419252 75.030852 
L 188.727018 72.834489 
L 187.692485 70.638125 
L 187.19304 69.821661 
L 186.375327 68.441761 
L 184.656676 66.302451 
L 184.607564 66.245398 
L 182.356211 64.049034 
L 182.120313 63.848363 
L 179.583949 62.051542 
L 179.214047 61.85267 
L 177.047585 60.689954 
L 174.511222 59.795572 
L 173.890514 59.656307 
L 171.974858 59.163656 
L 169.438494 58.852138 
L 166.902131 58.852138 
L 164.365767 59.163656 
L 162.450111 59.656307 
L 161.829403 59.795572 
L 159.29304 60.689954 
L 157.126578 61.85267 
L 156.756676 62.051542 
L 154.220313 63.848363 
L 153.984414 64.049034 
L 151.733061 66.245398 
L 151.683949 66.30245 
L 149.965297 68.441761 
L 149.147585 69.821656 
L 148.648136 70.638125 
L 147.613596 72.834489 
L 146.921347 75.030852 
L 146.611222 76.576578 
L 146.4523 77.227216 
L 146.16607 79.42358 
L 146.12854 81.619943 
L 146.335676 83.816307 
L 146.611222 85.127912 
L 146.762293 86.01267 
L 147.36604 88.209034 
L 148.281823 90.405398 
L 149.147585 91.905137 
L 149.533086 92.601761 
L 151.111759 94.798125 
L 151.683949 95.446096 
L 153.184918 96.994489 
L 154.220313 97.904575 
L 156.010877 99.190852 
L 156.756676 99.693818 
L 159.29304 101.008882 
L 160.350131 101.387216 
z
M 162.903203 96.994489 
L 161.829403 96.658741 
L 159.29304 95.391429 
L 158.434105 94.798125 
L 156.756676 93.487252 
L 155.846428 92.601761 
L 154.220313 90.603895 
L 154.073822 90.405398 
L 152.783769 88.209034 
L 151.93351 86.01267 
L 151.683949 84.969746 
L 151.385111 83.816307 
L 151.128413 81.619943 
L 151.174596 79.42358 
L 151.528535 77.227216 
L 151.683949 76.710491 
L 152.155505 75.030852 
L 153.128541 72.834489 
L 154.220313 71.128767 
L 154.558479 70.638125 
L 156.536048 68.441761 
L 156.756676 68.236813 
L 159.29304 66.344062 
L 159.475447 66.245398 
L 161.829403 65.045696 
L 164.365767 64.269552 
L 165.882327 64.049034 
L 166.902131 63.887359 
L 169.438494 63.887359 
L 170.458298 64.049034 
L 171.974858 64.269552 
L 174.511222 65.045696 
L 176.865178 66.245398 
L 177.047585 66.344062 
L 179.583949 68.236813 
L 179.804577 68.441761 
L 181.782145 70.638125 
L 182.120313 71.128768 
L 183.212082 72.834489 
L 184.185114 75.030852 
L 184.656676 76.710536 
L 184.812073 77.227216 
L 185.165989 79.42358 
L 185.212123 81.619943 
L 184.955332 83.816307 
L 184.656676 84.968747 
L 184.406813 86.01267 
L 183.556302 88.209034 
L 182.265949 90.405398 
L 182.120313 90.602709 
L 180.493058 92.601761 
L 179.583949 93.486167 
L 177.905277 94.798125 
L 177.047585 95.390673 
L 174.511222 96.658332 
L 173.436368 96.994489 
L 171.974858 97.462887 
L 169.438494 97.857655 
L 166.902131 97.857716 
L 164.365767 97.463101 
z
" clip-path="url(#pee8d25e1da)" style="fill: #c5b568"/>
   </g>
   <g id="PathCollection_7">
    <path d="M 45.156676 239.758125 
L 47.69304 239.758125 
L 50.229403 239.758125 
L 52.765767 239.758125 
L 55.302131 239.758125 
L 57.838494 239.758125 
L 60.374858 239.758125 
L 62.911222 239.758125 
L 65.447585 239.758125 
L 67.983949 239.758125 
L 70.520312 239.758125 
L 73.056676 239.758125 
L 75.59304 239.758125 
L 78.129403 239.758125 
L 80.665767 239.758125 
L 83.202131 239.758125 
L 85.738494 239.758125 
L 88.274858 239.758125 
L 90.811222 239.758125 
L 93.347585 239.758125 
L 95.883949 239.758125 
L 98.420312 239.758125 
L 100.956676 239.758125 
L 103.49304 239.758125 
L 106.029403 239.758125 
L 108.565767 239.758125 
L 111.102131 239.758125 
L 113.638494 239.758125 
L 116.174858 239.758125 
L 118.711222 239.758125 
L 121.247585 239.758125 
L 123.783949 239.758125 
L 126.320312 239.758125 
L 128.856676 239.758125 
L 131.39304 239.758125 
L 133.929403 239.758125 
L 136.465767 239.758125 
L 139.002131 239.758125 
L 141.538494 239.758125 
L 144.074858 239.758125 
L 146.611222 239.758125 
L 149.147585 239.758125 
L 151.683949 239.758125 
L 154.220313 239.758125 
L 156.756676 239.758125 
L 159.29304 239.758125 
L 161.829403 239.758125 
L 164.365767 239.758125 
L 166.902131 239.758125 
L 169.438494 239.758125 
L 171.974858 239.758125 
L 174.511222 239.758125 
L 177.047585 239.758125 
L 179.583949 239.758125 
L 182.120313 239.758125 
L 184.656676 239.758125 
L 187.19304 239.758125 
L 189.729403 239.758125 
L 192.265767 239.758125 
L 194.802131 239.758125 
L 197.338494 239.758125 
L 199.874858 239.758125 
L 202.411222 239.758125 
L 204.947585 239.758125 
L 207.483949 239.758125 
L 210.020312 239.758125 
L 212.556676 239.758125 
L 215.09304 239.758125 
L 217.629403 239.758125 
L 220.165767 239.758125 
L 222.702131 239.758125 
L 225.238494 239.758125 
L 227.774858 239.758125 
L 230.311222 239.758125 
L 232.847585 239.758125 
L 235.383949 239.758125 
L 237.920313 239.758125 
L 240.456676 239.758125 
L 242.99304 239.758125 
L 245.529403 239.758125 
L 248.065767 239.758125 
L 250.602131 239.758125 
L 253.138494 239.758125 
L 255.674858 239.758125 
L 258.211222 239.758125 
L 260.747585 239.758125 
L 263.283949 239.758125 
L 265.820312 239.758125 
L 268.356676 239.758125 
L 270.89304 239.758125 
L 273.429403 239.758125 
L 275.965767 239.758125 
L 278.502131 239.758125 
L 281.038494 239.758125 
L 283.574858 239.758125 
L 286.111222 239.758125 
L 288.647585 239.758125 
L 291.183949 239.758125 
L 293.720312 239.758125 
L 293.720312 237.561761 
L 293.720312 235.365398 
L 293.720312 233.169034 
L 293.720312 230.97267 
L 293.720312 228.776307 
L 293.720312 226.579943 
L 293.720312 224.38358 
L 293.720312 222.187216 
L 293.720312 219.990852 
L 293.720312 217.794489 
L 293.720312 215.598125 
L 293.720312 213.401761 
L 293.720312 211.205398 
L 293.720312 209.009034 
L 293.720312 206.81267 
L 293.720312 204.616307 
L 293.720312 202.419943 
L 293.720312 200.22358 
L 293.720312 198.027216 
L 293.720312 195.830852 
L 293.720312 193.634489 
L 293.720312 191.438125 
L 293.720312 189.241761 
L 293.720312 187.045398 
L 293.720312 184.849034 
L 293.720312 182.65267 
L 293.720312 180.456307 
L 293.720312 178.259943 
L 293.720312 176.06358 
L 293.720312 173.867216 
L 293.720312 171.670852 
L 293.720312 169.474489 
L 293.720312 167.278125 
L 293.720312 165.081761 
L 293.720312 162.885398 
L 293.720312 160.689034 
L 293.720312 158.49267 
L 293.720312 156.296307 
L 293.720312 154.099943 
L 293.720312 151.90358 
L 293.720312 149.707216 
L 293.720312 147.510852 
L 293.720312 145.314489 
L 293.720312 143.118125 
L 293.720312 140.921761 
L 293.720312 138.725398 
L 293.720312 136.529034 
L 293.720312 134.33267 
L 293.720312 132.136307 
L 293.720312 129.939943 
L 293.720312 127.74358 
L 293.720312 125.547216 
L 293.720312 123.350852 
L 293.720312 121.154489 
L 293.720312 118.958125 
L 293.720312 116.761761 
L 293.720312 114.565398 
L 293.720312 112.369034 
L 293.720312 110.17267 
L 293.720312 107.976307 
L 293.720312 105.779943 
L 293.720312 103.58358 
L 293.720312 101.387216 
L 293.720312 99.190852 
L 293.720312 96.994489 
L 293.720312 94.798125 
L 293.720312 92.601761 
L 293.720312 90.405398 
L 293.720312 88.209034 
L 293.720312 86.01267 
L 293.720312 83.816307 
L 293.720312 81.619943 
L 293.720312 79.42358 
L 293.720312 77.227216 
L 293.720312 75.030852 
L 293.720312 72.834489 
L 293.720312 70.638125 
L 293.720312 68.441761 
L 293.720312 66.245398 
L 293.720312 64.049034 
L 293.720312 61.85267 
L 293.720312 59.656307 
L 293.720312 57.459943 
L 293.720312 55.26358 
L 293.720312 53.067216 
L 293.720312 50.870852 
L 293.720312 48.674489 
L 293.720312 46.478125 
L 293.720312 44.281761 
L 293.720312 42.085398 
L 293.720312 39.889034 
L 293.720312 37.69267 
L 293.720312 35.496307 
L 293.720312 33.299943 
L 293.720312 31.10358 
L 293.720312 28.907216 
L 293.720312 26.710852 
L 293.720312 24.514489 
L 293.720312 22.318125 
L 291.183949 22.318125 
L 288.647585 22.318125 
L 286.111222 22.318125 
L 283.574858 22.318125 
L 281.038494 22.318125 
L 278.502131 22.318125 
L 275.965767 22.318125 
L 273.429403 22.318125 
L 270.89304 22.318125 
L 268.356676 22.318125 
L 265.820312 22.318125 
L 263.283949 22.318125 
L 260.747585 22.318125 
L 258.211222 22.318125 
L 255.674858 22.318125 
L 253.138494 22.318125 
L 250.602131 22.318125 
L 248.065767 22.318125 
L 245.529403 22.318125 
L 242.99304 22.318125 
L 240.456676 22.318125 
L 237.920313 22.318125 
L 235.383949 22.318125 
L 232.847585 22.318125 
L 230.311222 22.318125 
L 227.774858 22.318125 
L 225.238494 22.318125 
L 222.702131 22.318125 
L 220.165767 22.318125 
L 217.629403 22.318125 
L 215.09304 22.318125 
L 212.556676 22.318125 
L 210.020312 22.318125 
L 207.483949 22.318125 
L 204.947585 22.318125 
L 202.411222 22.318125 
L 199.874858 22.318125 
L 197.338494 22.318125 
L 194.802131 22.318125 
L 192.265767 22.318125 
L 189.729403 22.318125 
L 187.19304 22.318125 
L 184.656676 22.318125 
L 182.120313 22.318125 
L 179.583949 22.318125 
L 177.047585 22.318125 
L 174.511222 22.318125 
L 171.974858 22.318125 
L 169.438494 22.318125 
L 166.902131 22.318125 
L 164.365767 22.318125 
L 161.829403 22.318125 
L 159.29304 22.318125 
L 156.756676 22.318125 
L 154.220313 22.318125 
L 151.683949 22.318125 
L 149.147585 22.318125 
L 146.611222 22.318125 
L 144.074858 22.318125 
L 141.538494 22.318125 
L 139.002131 22.318125 
L 136.465767 22.318125 
L 133.929403 22.318125 
L 131.39304 22.318125 
L 128.856676 22.318125 
L 126.320312 22.318125 
L 123.783949 22.318125 
L 121.247585 22.318125 
L 118.711222 22.318125 
L 116.174858 22.318125 
L 113.638494 22.318125 
L 111.102131 22.318125 
L 108.565767 22.318125 
L 106.029403 22.318125 
L 103.49304 22.318125 
L 100.956676 22.318125 
L 98.420312 22.318125 
L 95.883949 22.318125 
L 93.347585 22.318125 
L 90.811222 22.318125 
L 88.274858 22.318125 
L 85.738494 22.318125 
L 83.202131 22.318125 
L 80.665767 22.318125 
L 78.129403 22.318125 
L 75.59304 22.318125 
L 73.056676 22.318125 
L 70.520312 22.318125 
L 67.983949 22.318125 
L 65.447585 22.318125 
L 62.911222 22.318125 
L 60.374858 22.318125 
L 57.838494 22.318125 
L 55.302131 22.318125 
L 52.765767 22.318125 
L 50.229403 22.318125 
L 47.69304 22.318125 
L 45.156676 22.318125 
L 42.620312 22.318125 
L 42.620312 24.514489 
L 42.620312 26.710852 
L 42.620312 28.907216 
L 42.620312 31.10358 
L 42.620312 33.299943 
L 42.620312 35.496307 
L 42.620312 37.69267 
L 42.620312 39.889034 
L 42.620312 42.085398 
L 42.620312 44.281761 
L 42.620312 46.478125 
L 42.620312 48.674489 
L 42.620312 50.870852 
L 42.620312 53.067216 
L 42.620312 55.26358 
L 42.620312 57.459943 
L 42.620312 59.656307 
L 42.620312 61.85267 
L 42.620312 64.049034 
L 42.620312 66.245398 
L 42.620312 68.441761 
L 42.620312 70.638125 
L 42.620312 72.834489 
L 42.620312 75.030852 
L 42.620312 77.227216 
L 42.620312 79.42358 
L 42.620312 81.619943 
L 42.620312 83.816307 
L 42.620312 86.01267 
L 42.620312 88.209034 
L 42.620312 90.405398 
L 42.620312 92.601761 
L 42.620312 94.798125 
L 42.620312 96.994489 
L 42.620312 99.190852 
L 42.620312 101.387216 
L 42.620312 103.58358 
L 42.620312 105.779943 
L 42.620312 107.976307 
L 42.620312 110.17267 
L 42.620312 112.369034 
L 42.620312 114.565398 
L 42.620312 116.761761 
L 42.620312 118.958125 
L 42.620312 121.154489 
L 42.620312 123.350852 
L 42.620312 125.547216 
L 42.620312 127.74358 
L 42.620312 129.939943 
L 42.620312 132.136307 
L 42.620312 134.33267 
L 42.620312 136.529034 
L 42.620312 138.725398 
L 42.620312 140.921761 
L 42.620312 143.118125 
L 42.620312 145.314489 
L 42.620312 147.510852 
L 42.620312 149.707216 
L 42.620312 151.90358 
L 42.620312 154.099943 
L 42.620312 156.296307 
L 42.620312 158.49267 
L 42.620312 160.689034 
L 42.620312 162.885398 
L 42.620312 165.081761 
L 42.620312 167.278125 
L 42.620312 169.474489 
L 42.620312 171.670852 
L 42.620312 173.867216 
L 42.620312 176.06358 
L 42.620312 178.259943 
L 42.620312 180.456307 
L 42.620312 182.65267 
L 42.620312 184.849034 
L 42.620312 187.045398 
L 42.620312 189.241761 
L 42.620312 191.438125 
L 42.620312 193.634489 
L 42.620312 195.830852 
L 42.620312 198.027216 
L 42.620312 200.22358 
L 42.620312 202.419943 
L 42.620312 204.616307 
L 42.620312 206.81267 
L 42.620312 209.009034 
L 42.620312 211.205398 
L 42.620312 213.401761 
L 42.620312 215.598125 
L 42.620312 217.794489 
L 42.620312 219.990852 
L 42.620312 222.187216 
L 42.620312 224.38358 
L 42.620312 226.579943 
L 42.620312 228.776307 
L 42.620312 230.97267 
L 42.620312 233.169034 
L 42.620312 235.365398 
L 42.620312 237.561761 
L 42.620312 239.758125 
z
M 211.266799 202.419943 
L 210.020312 202.021015 
L 207.483949 200.817086 
L 206.545892 200.22358 
L 204.947585 199.172655 
L 203.560731 198.027216 
L 202.411222 196.941728 
L 201.36537 195.830852 
L 199.874858 193.830315 
L 199.731206 193.634489 
L 198.382526 191.438125 
L 197.457133 189.241761 
L 197.338494 188.856706 
L 196.689943 187.045398 
L 196.190105 184.849034 
L 195.93722 182.65267 
L 195.904256 180.456307 
L 196.087742 178.259943 
L 196.507153 176.06358 
L 197.208399 173.867216 
L 197.338494 173.565773 
L 198.059221 171.670852 
L 199.26167 169.474489 
L 199.874858 168.599095 
L 200.804727 167.278125 
L 202.411222 165.504115 
L 202.836892 165.081761 
L 204.947585 163.279268 
L 205.520812 162.885398 
L 207.483949 161.606574 
L 209.466838 160.689034 
L 210.020312 160.422522 
L 212.556676 159.534385 
L 215.09304 159.020866 
L 217.629403 158.805908 
L 220.165767 158.858909 
L 222.702131 159.187345 
L 225.238494 159.838554 
L 227.307951 160.689034 
L 227.774858 160.868417 
L 230.311222 162.216093 
L 231.268056 162.885398 
L 232.847585 164.072415 
L 233.962991 165.081761 
L 235.383949 166.603422 
L 235.966034 167.278125 
L 237.504949 169.474489 
L 237.920313 170.249158 
L 238.725705 171.670852 
L 239.629898 173.867216 
L 240.22588 176.06358 
L 240.456676 177.453471 
L 240.623412 178.259943 
L 240.830334 180.456307 
L 240.79316 182.65267 
L 240.507975 184.849034 
L 240.456676 185.062828 
L 240.070528 187.045398 
L 239.388692 189.241761 
L 238.369699 191.438125 
L 237.920313 192.187885 
L 237.090908 193.634489 
L 235.383949 195.810484 
L 235.367062 195.830852 
L 233.207288 198.027216 
L 232.847585 198.342022 
L 230.311222 200.178248 
L 230.2313 200.22358 
L 227.774858 201.601699 
L 225.55868 202.419943 
L 225.238494 202.548182 
L 222.702131 203.250134 
L 220.165767 203.604163 
L 217.629403 203.661294 
L 215.09304 203.429586 
L 212.556676 202.876052 
z
M 109.184658 151.90358 
L 108.565767 151.670521 
L 106.029403 150.337398 
L 105.115134 149.707216 
L 103.49304 148.514964 
L 102.364522 147.510852 
L 100.956676 146.040428 
L 100.317943 145.314489 
L 98.753161 143.118125 
L 98.420312 142.51809 
L 97.489682 140.921761 
L 96.567894 138.725398 
L 95.955372 136.529034 
L 95.883949 136.133061 
L 95.48176 134.33267 
L 95.245842 132.136307 
L 95.245842 129.939943 
L 95.48176 127.74358 
L 95.883949 125.943189 
L 95.955372 125.547216 
L 96.567894 123.350852 
L 97.489682 121.154489 
L 98.420312 119.55816 
L 98.753161 118.958125 
L 100.317943 116.761761 
L 100.956676 116.035822 
L 102.364522 114.565398 
L 103.49304 113.561285 
L 105.115133 112.369034 
L 106.029403 111.738851 
L 108.565767 110.405724 
L 109.184638 110.17267 
L 111.102131 109.394812 
L 113.638494 108.746058 
L 116.174858 108.41879 
L 118.711222 108.365779 
L 121.247585 108.579426 
L 123.783949 109.089928 
L 126.320312 109.972687 
L 126.742066 110.17267 
L 128.856676 111.129786 
L 130.790191 112.369034 
L 131.39304 112.773744 
L 133.528215 114.565398 
L 133.929403 114.953631 
L 135.598924 116.761761 
L 136.465767 117.959786 
L 137.180629 118.958125 
L 138.399899 121.154489 
L 139.002131 122.675918 
L 139.303649 123.350852 
L 140.022788 125.547216 
L 140.462557 127.74358 
L 140.671286 129.939943 
L 140.671056 132.136307 
L 140.461751 134.33267 
L 140.021029 136.529034 
L 139.3003 138.725398 
L 139.002131 139.391427 
L 138.395142 140.921761 
L 137.172532 143.118125 
L 136.465767 144.103759 
L 135.588668 145.314489 
L 133.929403 147.111073 
L 133.516291 147.510852 
L 131.39304 149.29371 
L 130.777732 149.707216 
L 128.856676 150.940335 
L 126.732898 151.90358 
L 126.320312 152.099684 
L 123.783949 152.984426 
L 121.247585 153.495982 
L 118.711222 153.710119 
L 116.174858 153.65732 
L 113.638494 153.330139 
L 111.102131 152.681419 
z
M 160.350131 101.387216 
L 159.29304 101.008882 
L 156.756676 99.693818 
L 156.010877 99.190852 
L 154.220313 97.904575 
L 153.184918 96.994489 
L 151.683949 95.446096 
L 151.111759 94.798125 
L 149.533086 92.601761 
L 149.147585 91.905137 
L 148.281823 90.405398 
L 147.36604 88.209034 
L 146.762293 86.01267 
L 146.611222 85.127912 
L 146.335676 83.816307 
L 146.12854 81.619943 
L 146.16607 79.42358 
L 146.4523 77.227216 
L 146.611222 76.576578 
L 146.921347 75.030852 
L 147.613596 72.834489 
L 148.648136 70.638125 
L 149.147585 69.821656 
L 149.965297 68.441761 
L 151.683949 66.30245 
L 151.733061 66.245398 
L 153.984414 64.049034 
L 154.220313 63.848363 
L 156.756676 62.051542 
L 157.126578 61.85267 
L 159.29304 60.689954 
L 161.829403 59.795572 
L 162.450111 59.656307 
L 164.365767 59.163656 
L 166.902131 58.852138 
L 169.438494 58.852138 
L 171.974858 59.163656 
L 173.890514 59.656307 
L 174.511222 59.795572 
L 177.047585 60.689954 
L 179.214047 61.85267 
L 179.583949 62.051542 
L 182.120313 63.848363 
L 182.356211 64.049034 
L 184.607564 66.245398 
L 184.656676 66.302451 
L 186.375327 68.441761 
L 187.19304 69.821661 
L 187.692485 70.638125 
L 188.727018 72.834489 
L 189.419252 75.030852 
L 189.729403 76.576844 
L 189.888244 77.227216 
L 190.174364 79.42358 
L 190.211661 81.619943 
L 190.00406 83.816307 
L 189.729403 85.121456 
L 189.576973 86.01267 
L 188.971903 88.209034 
L 188.053921 90.405398 
L 187.19304 91.894376 
L 186.801023 92.601761 
L 185.218788 94.798125 
L 184.656676 95.434334 
L 183.143958 96.994489 
L 182.120313 97.894851 
L 180.318205 99.190852 
L 179.583949 99.686893 
L 177.047585 101.00519 
L 175.981957 101.387216 
L 174.511222 101.956421 
L 171.974858 102.575834 
L 169.438494 102.864942 
L 166.902131 102.865207 
L 164.365767 102.576806 
L 161.829403 101.958664 
z
" clip-path="url(#pee8d25e1da)" style="fill: #edd54a"/>
   </g>
   <g id="PathCollection_8">
    <defs>
     <path id="m2180786db6" d="M 0 2.236068 
C 0.593012 2.236068 1.161816 2.000462 1.581139 1.581139 
C 2.000462 1.161816 2.236068 0.593012 2.236068 0 
C 2.236068 -0.593012 2.000462 -1.161816 1.581139 -1.581139 
C 1.161816 -2.000462 0.593012 -2.236068 0 -2.236068 
C -0.593012 -2.236068 -1.161816 -2.000462 -1.581139 -1.581139 
C -2.000462 -1.161816 -2.236068 -0.593012 -2.236068 0 
C -2.236068 0.593012 -2.000462 1.161816 -1.581139 1.581139 
C -1.161816 2.000462 -0.593012 2.236068 0 2.236068 
z
" style="stroke: #000000"/>
    </defs>
    <g clip-path="url(#pee8d25e1da)">
     <use xlink:href="#m2180786db6" x="210.137581" y="208.912104" style="fill: #d62728; stroke: #000000"/>
     <use xlink:href="#m2180786db6" x="136.920955" y="120.686859" style="fill: #d62728; stroke: #000000"/>
     <use xlink:href="#m2180786db6" x="54.753993" y="140.805748" style="fill: #d62728; stroke: #000000"/>
     <use xlink:href="#m2180786db6" x="120.546416" y="38.86736" style="fill: #d62728; stroke: #000000"/>
     <use xlink:href="#m2180786db6" x="283.689461" y="136.701539" style="fill: #d62728; stroke: #000000"/>
     <use xlink:href="#m2180786db6" x="243.479386" y="32.878924" style="fill: #d62728; stroke: #000000"/>
     <use xlink:href="#m2180786db6" x="55.918532" y="72.201882" style="fill: #d62728; stroke: #000000"/>
     <use xlink:href="#m2180786db6" x="167.548875" y="192.484172" style="fill: #d62728; stroke: #000000"/>
     <use xlink:href="#m2180786db6" x="201.1715" y="56.525016" style="fill: #d62728; stroke: #000000"/>
     <use xlink:href="#m2180786db6" x="134.422917" y="69.118286" style="fill: #d62728; stroke: #000000"/>
     <use xlink:href="#m2180786db6" x="110.311201" y="114.567246" style="fill: #d62728; stroke: #000000"/>
     <use xlink:href="#m2180786db6" x="118.813919" y="101.867507" style="fill: #d62728; stroke: #000000"/>
     <use xlink:href="#m2180786db6" x="90.570795" y="111.078031" style="fill: #d62728; stroke: #000000"/>
     <use xlink:href="#m2180786db6" x="157.685818" y="162.399791" style="fill: #d62728; stroke: #000000"/>
     <use xlink:href="#m2180786db6" x="93.031932" y="106.366092" style="fill: #d62728; stroke: #000000"/>
     <use xlink:href="#m2180786db6" x="144.63824" y="160.098163" style="fill: #d62728; stroke: #000000"/>
     <use xlink:href="#m2180786db6" x="98.157262" y="91.613588" style="fill: #d62728; stroke: #000000"/>
     <use xlink:href="#m2180786db6" x="166.651414" y="117.301552" style="fill: #d62728; stroke: #000000"/>
     <use xlink:href="#m2180786db6" x="138.679144" y="86.058935" style="fill: #d62728; stroke: #000000"/>
     <use xlink:href="#m2180786db6" x="186.515247" y="120.473769" style="fill: #d62728; stroke: #000000"/>
     <use xlink:href="#m2180786db6" x="112.54317" y="137.486027" style="fill: #d62728; stroke: #000000"/>
     <use xlink:href="#m2180786db6" x="120.771354" y="131.810396" style="fill: #d62728; stroke: #000000"/>
     <use xlink:href="#m2180786db6" x="111.790307" y="146.714702" style="fill: #d62728; stroke: #000000"/>
     <use xlink:href="#m2180786db6" x="79.741548" y="157.445703" style="fill: #d62728; stroke: #000000"/>
     <use xlink:href="#m2180786db6" x="113.979084" y="141.701268" style="fill: #d62728; stroke: #000000"/>
     <use xlink:href="#m2180786db6" x="83.468257" y="177.40416" style="fill: #d62728; stroke: #000000"/>
     <use xlink:href="#m2180786db6" x="151.342594" y="131.015683" style="fill: #d62728; stroke: #000000"/>
     <use xlink:href="#m2180786db6" x="126.234514" y="227.566549" style="fill: #d62728; stroke: #000000"/>
     <use xlink:href="#m2180786db6" x="107.176947" y="148.431573" style="fill: #d62728; stroke: #000000"/>
     <use xlink:href="#m2180786db6" x="75.833573" y="128.456861" style="fill: #d62728; stroke: #000000"/>
     <use xlink:href="#m2180786db6" x="126.314524" y="180.202254" style="fill: #d62728; stroke: #000000"/>
     <use xlink:href="#m2180786db6" x="109.133147" y="147.562692" style="fill: #d62728; stroke: #000000"/>
     <use xlink:href="#m2180786db6" x="107.401584" y="133.095703" style="fill: #d62728; stroke: #000000"/>
     <use xlink:href="#m2180786db6" x="135.201246" y="129.179373" style="fill: #d62728; stroke: #000000"/>
     <use xlink:href="#m2180786db6" x="98.876313" y="133.460879" style="fill: #d62728; stroke: #000000"/>
     <use xlink:href="#m2180786db6" x="150.380504" y="141.577369" style="fill: #d62728; stroke: #000000"/>
     <use xlink:href="#m2180786db6" x="124.682387" y="124.306312" style="fill: #d62728; stroke: #000000"/>
     <use xlink:href="#m2180786db6" x="130.315226" y="120.803793" style="fill: #d62728; stroke: #000000"/>
     <use xlink:href="#m2180786db6" x="61.42303" y="98.565433" style="fill: #d62728; stroke: #000000"/>
     <use xlink:href="#m2180786db6" x="122.848963" y="126.718771" style="fill: #d62728; stroke: #000000"/>
     <use xlink:href="#m2180786db6" x="146.414864" y="108.316488" style="fill: #d62728; stroke: #000000"/>
     <use xlink:href="#m2180786db6" x="121.308716" y="128.820967" style="fill: #d62728; stroke: #000000"/>
     <use xlink:href="#m2180786db6" x="124.019962" y="123.124177" style="fill: #d62728; stroke: #000000"/>
     <use xlink:href="#m2180786db6" x="120.637318" y="115.614258" style="fill: #d62728; stroke: #000000"/>
     <use xlink:href="#m2180786db6" x="137.59084" y="137.324005" style="fill: #d62728; stroke: #000000"/>
     <use xlink:href="#m2180786db6" x="158.230508" y="124.87041" style="fill: #d62728; stroke: #000000"/>
     <use xlink:href="#m2180786db6" x="99.949773" y="111.876248" style="fill: #d62728; stroke: #000000"/>
     <use xlink:href="#m2180786db6" x="118.511223" y="99.300208" style="fill: #d62728; stroke: #000000"/>
     <use xlink:href="#m2180786db6" x="130.653955" y="137.977425" style="fill: #d62728; stroke: #000000"/>
     <use xlink:href="#m2180786db6" x="175.980774" y="155.480858" style="fill: #d62728; stroke: #000000"/>
    </g>
   </g>
   <g id="matplotlib.axis_1">
    <g id="xtick_1">
     <g id="line2d_1">
      <defs>
       <path id="m861d572687" d="M 0 0 
L 0 3.5 
" style="stroke: #000000; stroke-width: 0.8"/>
      </defs>
      <g>
       <use xlink:href="#m861d572687" x="50.990312" y="239.758125" style="stroke: #000000; stroke-width: 0.8"/>
      </g>
     </g>
     <g id="text_1">
      <!-- 4 -->
      <g transform="translate(43.619219 254.356562) scale(0.1 -0.1)">
       <defs>
        <path id="DejaVuSans-2212" d="M 678 2272 
L 4684 2272 
L 4684 1741 
L 678 1741 
L 678 2272 
z
" transform="scale(0.015625)"/>
        <path id="DejaVuSans-34" d="M 2419 4116 
L 825 1625 
L 2419 1625 
L 2419 4116 
z
M 2253 4666 
L 3047 4666 
L 3047 1625 
L 3713 1625 
L 3713 1100 
L 3047 1100 
L 3047 0 
L 2419 0 
L 2419 1100 
L 313 1100 
L 313 1709 
L 2253 4666 
z
" transform="scale(0.015625)"/>
       </defs>
       <use xlink:href="#DejaVuSans-2212"/>
       <use xlink:href="#DejaVuSans-34" x="83.789062"/>
      </g>
     </g>
    </g>
    <g id="xtick_2">
     <g id="line2d_2">
      <g>
       <use xlink:href="#m861d572687" x="84.470312" y="239.758125" style="stroke: #000000; stroke-width: 0.8"/>
      </g>
     </g>
     <g id="text_2">
      <!-- 2 -->
      <g transform="translate(77.099219 254.356562) scale(0.1 -0.1)">
       <defs>
        <path id="DejaVuSans-32" d="M 1228 531 
L 3431 531 
L 3431 0 
L 469 0 
L 469 531 
Q 828 903 1448 1529 
Q 2069 2156 2228 2338 
Q 2531 2678 2651 2914 
Q 2772 3150 2772 3378 
Q 2772 3750 2511 3984 
Q 2250 4219 1831 4219 
Q 1534 4219 1204 4116 
Q 875 4013 500 3803 
L 500 4441 
Q 881 4594 1212 4672 
Q 1544 4750 1819 4750 
Q 2544 4750 2975 4387 
Q 3406 4025 3406 3419 
Q 3406 3131 3298 2873 
Q 3191 2616 2906 2266 
Q 2828 2175 2409 1742 
Q 1991 1309 1228 531 
z
" transform="scale(0.015625)"/>
       </defs>
       <use xlink:href="#DejaVuSans-2212"/>
       <use xlink:href="#DejaVuSans-32" x="83.789062"/>
      </g>
     </g>
    </g>
    <g id="xtick_3">
     <g id="line2d_3">
      <g>
       <use xlink:href="#m861d572687" x="117.950312" y="239.758125" style="stroke: #000000; stroke-width: 0.8"/>
      </g>
     </g>
     <g id="text_3">
      <!-- 0 -->
      <g transform="translate(114.769062 254.356562) scale(0.1 -0.1)">
       <defs>
        <path id="DejaVuSans-30" d="M 2034 4250 
Q 1547 4250 1301 3770 
Q 1056 3291 1056 2328 
Q 1056 1369 1301 889 
Q 1547 409 2034 409 
Q 2525 409 2770 889 
Q 3016 1369 3016 2328 
Q 3016 3291 2770 3770 
Q 2525 4250 2034 4250 
z
M 2034 4750 
Q 2819 4750 3233 4129 
Q 3647 3509 3647 2328 
Q 3647 1150 3233 529 
Q 2819 -91 2034 -91 
Q 1250 -91 836 529 
Q 422 1150 422 2328 
Q 422 3509 836 4129 
Q 1250 4750 2034 4750 
z
" transform="scale(0.015625)"/>
       </defs>
       <use xlink:href="#DejaVuSans-30"/>
      </g>
     </g>
    </g>
    <g id="xtick_4">
     <g id="line2d_4">
      <g>
       <use xlink:href="#m861d572687" x="151.430313" y="239.758125" style="stroke: #000000; stroke-width: 0.8"/>
      </g>
     </g>
     <g id="text_4">
      <!-- 2 -->
      <g transform="translate(148.249063 254.356562) scale(0.1 -0.1)">
       <use xlink:href="#DejaVuSans-32"/>
      </g>
     </g>
    </g>
    <g id="xtick_5">
     <g id="line2d_5">
      <g>
       <use xlink:href="#m861d572687" x="184.910313" y="239.758125" style="stroke: #000000; stroke-width: 0.8"/>
      </g>
     </g>
     <g id="text_5">
      <!-- 4 -->
      <g transform="translate(181.729062 254.356562) scale(0.1 -0.1)">
       <use xlink:href="#DejaVuSans-34"/>
      </g>
     </g>
    </g>
    <g id="xtick_6">
     <g id="line2d_6">
      <g>
       <use xlink:href="#m861d572687" x="218.390312" y="239.758125" style="stroke: #000000; stroke-width: 0.8"/>
      </g>
     </g>
     <g id="text_6">
      <!-- 6 -->
      <g transform="translate(215.209062 254.356562) scale(0.1 -0.1)">
       <defs>
        <path id="DejaVuSans-36" d="M 2113 2584 
Q 1688 2584 1439 2293 
Q 1191 2003 1191 1497 
Q 1191 994 1439 701 
Q 1688 409 2113 409 
Q 2538 409 2786 701 
Q 3034 994 3034 1497 
Q 3034 2003 2786 2293 
Q 2538 2584 2113 2584 
z
M 3366 4563 
L 3366 3988 
Q 3128 4100 2886 4159 
Q 2644 4219 2406 4219 
Q 1781 4219 1451 3797 
Q 1122 3375 1075 2522 
Q 1259 2794 1537 2939 
Q 1816 3084 2150 3084 
Q 2853 3084 3261 2657 
Q 3669 2231 3669 1497 
Q 3669 778 3244 343 
Q 2819 -91 2113 -91 
Q 1303 -91 875 529 
Q 447 1150 447 2328 
Q 447 3434 972 4092 
Q 1497 4750 2381 4750 
Q 2619 4750 2861 4703 
Q 3103 4656 3366 4563 
z
" transform="scale(0.015625)"/>
       </defs>
       <use xlink:href="#DejaVuSans-36"/>
      </g>
     </g>
    </g>
    <g id="xtick_7">
     <g id="line2d_7">
      <g>
       <use xlink:href="#m861d572687" x="251.870313" y="239.758125" style="stroke: #000000; stroke-width: 0.8"/>
      </g>
     </g>
     <g id="text_7">
      <!-- 8 -->
      <g transform="translate(248.689063 254.356562) scale(0.1 -0.1)">
       <defs>
        <path id="DejaVuSans-38" d="M 2034 2216 
Q 1584 2216 1326 1975 
Q 1069 1734 1069 1313 
Q 1069 891 1326 650 
Q 1584 409 2034 409 
Q 2484 409 2743 651 
Q 3003 894 3003 1313 
Q 3003 1734 2745 1975 
Q 2488 2216 2034 2216 
z
M 1403 2484 
Q 997 2584 770 2862 
Q 544 3141 544 3541 
Q 544 4100 942 4425 
Q 1341 4750 2034 4750 
Q 2731 4750 3128 4425 
Q 3525 4100 3525 3541 
Q 3525 3141 3298 2862 
Q 3072 2584 2669 2484 
Q 3125 2378 3379 2068 
Q 3634 1759 3634 1313 
Q 3634 634 3220 271 
Q 2806 -91 2034 -91 
Q 1263 -91 848 271 
Q 434 634 434 1313 
Q 434 1759 690 2068 
Q 947 2378 1403 2484 
z
M 1172 3481 
Q 1172 3119 1398 2916 
Q 1625 2713 2034 2713 
Q 2441 2713 2670 2916 
Q 2900 3119 2900 3481 
Q 2900 3844 2670 4047 
Q 2441 4250 2034 4250 
Q 1625 4250 1398 4047 
Q 1172 3844 1172 3481 
z
" transform="scale(0.015625)"/>
       </defs>
       <use xlink:href="#DejaVuSans-38"/>
      </g>
     </g>
    </g>
    <g id="xtick_8">
     <g id="line2d_8">
      <g>
       <use xlink:href="#m861d572687" x="285.350313" y="239.758125" style="stroke: #000000; stroke-width: 0.8"/>
      </g>
     </g>
     <g id="text_8">
      <!-- 10 -->
      <g transform="translate(278.987813 254.356562) scale(0.1 -0.1)">
       <defs>
        <path id="DejaVuSans-31" d="M 794 531 
L 1825 531 
L 1825 4091 
L 703 3866 
L 703 4441 
L 1819 4666 
L 2450 4666 
L 2450 531 
L 3481 531 
L 3481 0 
L 794 0 
L 794 531 
z
" transform="scale(0.015625)"/>
       </defs>
       <use xlink:href="#DejaVuSans-31"/>
       <use xlink:href="#DejaVuSans-30" x="63.623047"/>
      </g>
     </g>
    </g>
    <g id="text_9">
     <!-- x -->
     <g transform="translate(165.210938 268.034687) scale(0.1 -0.1)">
      <defs>
       <path id="DejaVuSans-78" d="M 3513 3500 
L 2247 1797 
L 3578 0 
L 2900 0 
L 1881 1375 
L 863 0 
L 184 0 
L 1544 1831 
L 300 3500 
L 978 3500 
L 1906 2253 
L 2834 3500 
L 3513 3500 
z
" transform="scale(0.015625)"/>
      </defs>
      <use xlink:href="#DejaVuSans-78"/>
     </g>
    </g>
   </g>
   <g id="matplotlib.axis_2">
    <g id="ytick_1">
     <g id="line2d_9">
      <defs>
       <path id="ma3263556e1" d="M 0 0 
L -3.5 0 
" style="stroke: #000000; stroke-width: 0.8"/>
      </defs>
      <g>
       <use xlink:href="#ma3263556e1" x="42.620313" y="231.395048" style="stroke: #000000; stroke-width: 0.8"/>
      </g>
     </g>
     <g id="text_10">
      <!-- 6 -->
      <g transform="translate(20.878125 235.194267) scale(0.1 -0.1)">
       <use xlink:href="#DejaVuSans-2212"/>
       <use xlink:href="#DejaVuSans-36" x="83.789062"/>
      </g>
     </g>
    </g>
    <g id="ytick_2">
     <g id="line2d_10">
      <g>
       <use xlink:href="#ma3263556e1" x="42.620313" y="197.94274" style="stroke: #000000; stroke-width: 0.8"/>
      </g>
     </g>
     <g id="text_11">
      <!-- 4 -->
      <g transform="translate(20.878125 201.741959) scale(0.1 -0.1)">
       <use xlink:href="#DejaVuSans-2212"/>
       <use xlink:href="#DejaVuSans-34" x="83.789062"/>
      </g>
     </g>
    </g>
    <g id="ytick_3">
     <g id="line2d_11">
      <g>
       <use xlink:href="#ma3263556e1" x="42.620313" y="164.490433" style="stroke: #000000; stroke-width: 0.8"/>
      </g>
     </g>
     <g id="text_12">
      <!-- 2 -->
      <g transform="translate(20.878125 168.289651) scale(0.1 -0.1)">
       <use xlink:href="#DejaVuSans-2212"/>
       <use xlink:href="#DejaVuSans-32" x="83.789062"/>
      </g>
     </g>
    </g>
    <g id="ytick_4">
     <g id="line2d_12">
      <g>
       <use xlink:href="#ma3263556e1" x="42.620313" y="131.038125" style="stroke: #000000; stroke-width: 0.8"/>
      </g>
     </g>
     <g id="text_13">
      <!-- 0 -->
      <g transform="translate(29.257813 134.837344) scale(0.1 -0.1)">
       <use xlink:href="#DejaVuSans-30"/>
      </g>
     </g>
    </g>
    <g id="ytick_5">
     <g id="line2d_13">
      <g>
       <use xlink:href="#ma3263556e1" x="42.620313" y="97.585817" style="stroke: #000000; stroke-width: 0.8"/>
      </g>
     </g>
     <g id="text_14">
      <!-- 2 -->
      <g transform="translate(29.257813 101.385036) scale(0.1 -0.1)">
       <use xlink:href="#DejaVuSans-32"/>
      </g>
     </g>
    </g>
    <g id="ytick_6">
     <g id="line2d_14">
      <g>
       <use xlink:href="#ma3263556e1" x="42.620313" y="64.13351" style="stroke: #000000; stroke-width: 0.8"/>
      </g>
     </g>
     <g id="text_15">
      <!-- 4 -->
      <g transform="translate(29.257813 67.932728) scale(0.1 -0.1)">
       <use xlink:href="#DejaVuSans-34"/>
      </g>
     </g>
    </g>
    <g id="ytick_7">
     <g id="line2d_15">
      <g>
       <use xlink:href="#ma3263556e1" x="42.620313" y="30.681202" style="stroke: #000000; stroke-width: 0.8"/>
      </g>
     </g>
     <g id="text_16">
      <!-- 6 -->
      <g transform="translate(29.257813 34.480421) scale(0.1 -0.1)">
       <use xlink:href="#DejaVuSans-36"/>
      </g>
     </g>
    </g>
    <g id="text_17">
     <!-- y -->
     <g transform="translate(14.798438 133.9975) rotate(-90) scale(0.1 -0.1)">
      <defs>
       <path id="DejaVuSans-79" d="M 2059 -325 
Q 1816 -950 1584 -1140 
Q 1353 -1331 966 -1331 
L 506 -1331 
L 506 -850 
L 844 -850 
Q 1081 -850 1212 -737 
Q 1344 -625 1503 -206 
L 1606 56 
L 191 3500 
L 800 3500 
L 1894 763 
L 2988 3500 
L 3597 3500 
L 2059 -325 
z
" transform="scale(0.015625)"/>
      </defs>
      <use xlink:href="#DejaVuSans-79"/>
     </g>
    </g>
   </g>
   <g id="patch_3">
    <path d="M 42.620313 239.758125 
L 42.620313 22.318125 
" style="fill: none; stroke: #000000; stroke-width: 0.8; stroke-linejoin: miter; stroke-linecap: square"/>
   </g>
   <g id="patch_4">
    <path d="M 293.720313 239.758125 
L 293.720313 22.318125 
" style="fill: none; stroke: #000000; stroke-width: 0.8; stroke-linejoin: miter; stroke-linecap: square"/>
   </g>
   <g id="patch_5">
    <path d="M 42.620312 239.758125 
L 293.720312 239.758125 
" style="fill: none; stroke: #000000; stroke-width: 0.8; stroke-linejoin: miter; stroke-linecap: square"/>
   </g>
   <g id="patch_6">
    <path d="M 42.620312 22.318125 
L 293.720312 22.318125 
" style="fill: none; stroke: #000000; stroke-width: 0.8; stroke-linejoin: miter; stroke-linecap: square"/>
   </g>
   <g id="text_18">
    <!-- objective -->
    <g transform="translate(140.77 16.318125) scale(0.12 -0.12)">
     <defs>
      <path id="DejaVuSans-6f" d="M 1959 3097 
Q 1497 3097 1228 2736 
Q 959 2375 959 1747 
Q 959 1119 1226 758 
Q 1494 397 1959 397 
Q 2419 397 2687 759 
Q 2956 1122 2956 1747 
Q 2956 2369 2687 2733 
Q 2419 3097 1959 3097 
z
M 1959 3584 
Q 2709 3584 3137 3096 
Q 3566 2609 3566 1747 
Q 3566 888 3137 398 
Q 2709 -91 1959 -91 
Q 1206 -91 779 398 
Q 353 888 353 1747 
Q 353 2609 779 3096 
Q 1206 3584 1959 3584 
z
" transform="scale(0.015625)"/>
      <path id="DejaVuSans-62" d="M 3116 1747 
Q 3116 2381 2855 2742 
Q 2594 3103 2138 3103 
Q 1681 3103 1420 2742 
Q 1159 2381 1159 1747 
Q 1159 1113 1420 752 
Q 1681 391 2138 391 
Q 2594 391 2855 752 
Q 3116 1113 3116 1747 
z
M 1159 2969 
Q 1341 3281 1617 3432 
Q 1894 3584 2278 3584 
Q 2916 3584 3314 3078 
Q 3713 2572 3713 1747 
Q 3713 922 3314 415 
Q 2916 -91 2278 -91 
Q 1894 -91 1617 61 
Q 1341 213 1159 525 
L 1159 0 
L 581 0 
L 581 4863 
L 1159 4863 
L 1159 2969 
z
" transform="scale(0.015625)"/>
      <path id="DejaVuSans-6a" d="M 603 3500 
L 1178 3500 
L 1178 -63 
Q 1178 -731 923 -1031 
Q 669 -1331 103 -1331 
L -116 -1331 
L -116 -844 
L 38 -844 
Q 366 -844 484 -692 
Q 603 -541 603 -63 
L 603 3500 
z
M 603 4863 
L 1178 4863 
L 1178 4134 
L 603 4134 
L 603 4863 
z
" transform="scale(0.015625)"/>
      <path id="DejaVuSans-65" d="M 3597 1894 
L 3597 1613 
L 953 1613 
Q 991 1019 1311 708 
Q 1631 397 2203 397 
Q 2534 397 2845 478 
Q 3156 559 3463 722 
L 3463 178 
Q 3153 47 2828 -22 
Q 2503 -91 2169 -91 
Q 1331 -91 842 396 
Q 353 884 353 1716 
Q 353 2575 817 3079 
Q 1281 3584 2069 3584 
Q 2775 3584 3186 3129 
Q 3597 2675 3597 1894 
z
M 3022 2063 
Q 3016 2534 2758 2815 
Q 2500 3097 2075 3097 
Q 1594 3097 1305 2825 
Q 1016 2553 972 2059 
L 3022 2063 
z
" transform="scale(0.015625)"/>
      <path id="DejaVuSans-63" d="M 3122 3366 
L 3122 2828 
Q 2878 2963 2633 3030 
Q 2388 3097 2138 3097 
Q 1578 3097 1268 2742 
Q 959 2388 959 1747 
Q 959 1106 1268 751 
Q 1578 397 2138 397 
Q 2388 397 2633 464 
Q 2878 531 3122 666 
L 3122 134 
Q 2881 22 2623 -34 
Q 2366 -91 2075 -91 
Q 1284 -91 818 406 
Q 353 903 353 1747 
Q 353 2603 823 3093 
Q 1294 3584 2113 3584 
Q 2378 3584 2631 3529 
Q 2884 3475 3122 3366 
z
" transform="scale(0.015625)"/>
      <path id="DejaVuSans-74" d="M 1172 4494 
L 1172 3500 
L 2356 3500 
L 2356 3053 
L 1172 3053 
L 1172 1153 
Q 1172 725 1289 603 
Q 1406 481 1766 481 
L 2356 481 
L 2356 0 
L 1766 0 
Q 1100 0 847 248 
Q 594 497 594 1153 
L 594 3053 
L 172 3053 
L 172 3500 
L 594 3500 
L 594 4494 
L 1172 4494 
z
" transform="scale(0.015625)"/>
      <path id="DejaVuSans-69" d="M 603 3500 
L 1178 3500 
L 1178 0 
L 603 0 
L 603 3500 
z
M 603 4863 
L 1178 4863 
L 1178 4134 
L 603 4134 
L 603 4863 
z
" transform="scale(0.015625)"/>
      <path id="DejaVuSans-76" d="M 191 3500 
L 800 3500 
L 1894 563 
L 2988 3500 
L 3597 3500 
L 2284 0 
L 1503 0 
L 191 3500 
z
" transform="scale(0.015625)"/>
     </defs>
     <use xlink:href="#DejaVuSans-6f"/>
     <use xlink:href="#DejaVuSans-62" x="61.181641"/>
     <use xlink:href="#DejaVuSans-6a" x="124.658203"/>
     <use xlink:href="#DejaVuSans-65" x="152.441406"/>
     <use xlink:href="#DejaVuSans-63" x="213.964844"/>
     <use xlink:href="#DejaVuSans-74" x="268.945312"/>
     <use xlink:href="#DejaVuSans-69" x="308.154297"/>
     <use xlink:href="#DejaVuSans-76" x="335.9375"/>
     <use xlink:href="#DejaVuSans-65" x="395.117188"/>
    </g>
   </g>
  </g>
 </g>
 <defs>
  <clipPath id="pee8d25e1da">
   <rect x="42.620313" y="22.318125" width="251.1" height="217.44"/>
  </clipPath>
 </defs>
</svg>