<?xml version="1.0" encoding="utf-8" standalone="no"?>
<!DOCTYPE svg PUBLIC "-//W3C//DTD SVG 1.1//EN"
  "http://www.w3.org/Graphics/SVG/1.1/DTD/svg11.dtd">
<svg xmlns:xlink="http://www.w3.org/1999/xlink" width="329.98125pt" height="197.398125pt" viewBox="0 0 329.98125 197.398125" xmlns="http://www.w3.org/2000/svg" version="1.1">
 <metadata>
  <rdf:RDF xmlns:dc="http://purl.org/dc/elements/1.1/" xmlns:cc="http://creativecommons.org/ns#" xmlns:rdf="http://www.w3.org/1999/02/22-rdf-syntax-ns#">
   <cc:Work>
    <dc:type rdf:resource="http://purl.org/dc/dcmitype/StillImage"/>
    <dc:date>2023-03-29T02:52:49.569964</dc:date>
    <dc:format>image/svg+xml</dc:format>
    <dc:creator>
     <cc:Agent>
      <dc:title>Matplotlib v3.7.0, https://matplotlib.org/</dc:title>
     </cc:Agent>
    </dc:creator>
   </cc:Work>
  </rdf:RDF>
 </metadata>
 <defs>
  <style type="text/css">*{stroke-linejoin: round; stroke-linecap: butt}</style>
 </defs>
 <g id="figure_1">
  <g id="patch_1">
   <path d="M 0 197.398125 
L 329.98125 197.398125 
L 329.98125 0 
L 0 0 
z
" style="fill: #ffffff"/>
  </g>
  <g id="axes_1">
   <g id="patch_2">
    <path d="M 43.78125 173.52 
L 322.78125 173.52 
L 322.78125 7.2 
L 43.78125 7.2 
z
" style="fill: #ffffff"/>
   </g>
   <g id="patch_3">
    <path d="M 64.471459 173.52 
L 69.086819 173.52 
L 69.086819 173.497022 
L 64.471459 173.497022 
z
" clip-path="url(#pe74a4c7d4a)" style="fill: #1f77b4; opacity: 0.4"/>
   </g>
   <g id="patch_4">
    <path d="M 69.086819 173.52 
L 73.702179 173.52 
L 73.702179 173.497022 
L 69.086819 173.497022 
z
" clip-path="url(#pe74a4c7d4a)" style="fill: #1f77b4; opacity: 0.4"/>
   </g>
   <g id="patch_5">
    <path d="M 73.702179 173.52 
L 78.317539 173.52 
L 78.317539 173.497022 
L 73.702179 173.497022 
z
" clip-path="url(#pe74a4c7d4a)" style="fill: #1f77b4; opacity: 0.4"/>
   </g>
   <g id="patch_6">
    <path d="M 78.317539 173.52 
L 82.9329 173.52 
L 82.9329 173.405111 
L 78.317539 173.405111 
z
" clip-path="url(#pe74a4c7d4a)" style="fill: #1f77b4; opacity: 0.4"/>
   </g>
   <g id="patch_7">
    <path d="M 82.9329 173.52 
L 87.54826 173.52 
L 87.54826 173.221289 
L 82.9329 173.221289 
z
" clip-path="url(#pe74a4c7d4a)" style="fill: #1f77b4; opacity: 0.4"/>
   </g>
   <g id="patch_8">
    <path d="M 87.54826 173.52 
L 92.16362 173.52 
L 92.16362 173.244267 
L 87.54826 173.244267 
z
" clip-path="url(#pe74a4c7d4a)" style="fill: #1f77b4; opacity: 0.4"/>
   </g>
   <g id="patch_9">
    <path d="M 92.16362 173.52 
L 96.778981 173.52 
L 96.778981 172.945556 
L 92.16362 172.945556 
z
" clip-path="url(#pe74a4c7d4a)" style="fill: #1f77b4; opacity: 0.4"/>
   </g>
   <g id="patch_10">
    <path d="M 96.778981 173.52 
L 101.394341 173.52 
L 101.394341 172.692801 
L 96.778981 172.692801 
z
" clip-path="url(#pe74a4c7d4a)" style="fill: #1f77b4; opacity: 0.4"/>
   </g>
   <g id="patch_11">
    <path d="M 101.394341 173.52 
L 106.009701 173.52 
L 106.009701 172.049424 
L 101.394341 172.049424 
z
" clip-path="url(#pe74a4c7d4a)" style="fill: #1f77b4; opacity: 0.4"/>
   </g>
   <g id="patch_12">
    <path d="M 106.009701 173.52 
L 110.625061 173.52 
L 110.625061 170.280138 
L 106.009701 170.280138 
z
" clip-path="url(#pe74a4c7d4a)" style="fill: #1f77b4; opacity: 0.4"/>
   </g>
   <g id="patch_13">
    <path d="M 110.625061 173.52 
L 115.240422 173.52 
L 115.240422 168.878495 
L 110.625061 168.878495 
z
" clip-path="url(#pe74a4c7d4a)" style="fill: #1f77b4; opacity: 0.4"/>
   </g>
   <g id="patch_14">
    <path d="M 115.240422 173.52 
L 119.855782 173.52 
L 119.855782 166.58072 
L 115.240422 166.58072 
z
" clip-path="url(#pe74a4c7d4a)" style="fill: #1f77b4; opacity: 0.4"/>
   </g>
   <g id="patch_15">
    <path d="M 119.855782 173.52 
L 124.471142 173.52 
L 124.471142 163.31788 
L 119.855782 163.31788 
z
" clip-path="url(#pe74a4c7d4a)" style="fill: #1f77b4; opacity: 0.4"/>
   </g>
   <g id="patch_16">
    <path d="M 124.471142 173.52 
L 129.086502 173.52 
L 129.086502 158.515531 
L 124.471142 158.515531 
z
" clip-path="url(#pe74a4c7d4a)" style="fill: #1f77b4; opacity: 0.4"/>
   </g>
   <g id="patch_17">
    <path d="M 129.086502 173.52 
L 133.701863 173.52 
L 133.701863 151.047763 
L 129.086502 151.047763 
z
" clip-path="url(#pe74a4c7d4a)" style="fill: #1f77b4; opacity: 0.4"/>
   </g>
   <g id="patch_18">
    <path d="M 133.701863 173.52 
L 138.317223 173.52 
L 138.317223 142.385153 
L 133.701863 142.385153 
z
" clip-path="url(#pe74a4c7d4a)" style="fill: #1f77b4; opacity: 0.4"/>
   </g>
   <g id="patch_19">
    <path d="M 138.317223 173.52 
L 142.932583 173.52 
L 142.932583 133.791475 
L 138.317223 133.791475 
z
" clip-path="url(#pe74a4c7d4a)" style="fill: #1f77b4; opacity: 0.4"/>
   </g>
   <g id="patch_20">
    <path d="M 142.932583 173.52 
L 147.547944 173.52 
L 147.547944 119.752072 
L 142.932583 119.752072 
z
" clip-path="url(#pe74a4c7d4a)" style="fill: #1f77b4; opacity: 0.4"/>
   </g>
   <g id="patch_21">
    <path d="M 147.547944 173.52 
L 152.163304 173.52 
L 152.163304 103.920404 
L 147.547944 103.920404 
z
" clip-path="url(#pe74a4c7d4a)" style="fill: #1f77b4; opacity: 0.4"/>
   </g>
   <g id="patch_22">
    <path d="M 152.163304 173.52 
L 156.778664 173.52 
L 156.778664 88.732113 
L 152.163304 88.732113 
z
" clip-path="url(#pe74a4c7d4a)" style="fill: #1f77b4; opacity: 0.4"/>
   </g>
   <g id="patch_23">
    <path d="M 156.778664 173.52 
L 161.394024 173.52 
L 161.394024 73.681688 
L 156.778664 73.681688 
z
" clip-path="url(#pe74a4c7d4a)" style="fill: #1f77b4; opacity: 0.4"/>
   </g>
   <g id="patch_24">
    <path d="M 161.394024 173.52 
L 166.009385 173.52 
L 166.009385 55.805001 
L 161.394024 55.805001 
z
" clip-path="url(#pe74a4c7d4a)" style="fill: #1f77b4; opacity: 0.4"/>
   </g>
   <g id="patch_25">
    <path d="M 166.009385 173.52 
L 170.624745 173.52 
L 170.624745 42.087286 
L 166.009385 42.087286 
z
" clip-path="url(#pe74a4c7d4a)" style="fill: #1f77b4; opacity: 0.4"/>
   </g>
   <g id="patch_26">
    <path d="M 170.624745 173.52 
L 175.240105 173.52 
L 175.240105 29.242725 
L 170.624745 29.242725 
z
" clip-path="url(#pe74a4c7d4a)" style="fill: #1f77b4; opacity: 0.4"/>
   </g>
   <g id="patch_27">
    <path d="M 175.240105 173.52 
L 179.855466 173.52 
L 179.855466 18.466162 
L 175.240105 18.466162 
z
" clip-path="url(#pe74a4c7d4a)" style="fill: #1f77b4; opacity: 0.4"/>
   </g>
   <g id="patch_28">
    <path d="M 179.855466 173.52 
L 184.470826 173.52 
L 184.470826 15.73181 
L 179.855466 15.73181 
z
" clip-path="url(#pe74a4c7d4a)" style="fill: #1f77b4; opacity: 0.4"/>
   </g>
   <g id="patch_29">
    <path d="M 184.470826 173.52 
L 189.086186 173.52 
L 189.086186 17.179408 
L 184.470826 17.179408 
z
" clip-path="url(#pe74a4c7d4a)" style="fill: #1f77b4; opacity: 0.4"/>
   </g>
   <g id="patch_30">
    <path d="M 189.086186 173.52 
L 193.701546 173.52 
L 193.701546 19.50016 
L 189.086186 19.50016 
z
" clip-path="url(#pe74a4c7d4a)" style="fill: #1f77b4; opacity: 0.4"/>
   </g>
   <g id="patch_31">
    <path d="M 193.701546 173.52 
L 198.316907 173.52 
L 198.316907 29.242725 
L 193.701546 29.242725 
z
" clip-path="url(#pe74a4c7d4a)" style="fill: #1f77b4; opacity: 0.4"/>
   </g>
   <g id="patch_32">
    <path d="M 198.316907 173.52 
L 202.932267 173.52 
L 202.932267 43.580839 
L 198.316907 43.580839 
z
" clip-path="url(#pe74a4c7d4a)" style="fill: #1f77b4; opacity: 0.4"/>
   </g>
   <g id="patch_33">
    <path d="M 202.932267 173.52 
L 207.547627 173.52 
L 207.547627 56.976866 
L 202.932267 56.976866 
z
" clip-path="url(#pe74a4c7d4a)" style="fill: #1f77b4; opacity: 0.4"/>
   </g>
   <g id="patch_34">
    <path d="M 207.547627 173.52 
L 212.162988 173.52 
L 212.162988 72.578756 
L 207.547627 72.578756 
z
" clip-path="url(#pe74a4c7d4a)" style="fill: #1f77b4; opacity: 0.4"/>
   </g>
   <g id="patch_35">
    <path d="M 212.162988 173.52 
L 216.778348 173.52 
L 216.778348 90.018867 
L 212.162988 90.018867 
z
" clip-path="url(#pe74a4c7d4a)" style="fill: #1f77b4; opacity: 0.4"/>
   </g>
   <g id="patch_36">
    <path d="M 216.778348 173.52 
L 221.393708 173.52 
L 221.393708 102.22005 
L 216.778348 102.22005 
z
" clip-path="url(#pe74a4c7d4a)" style="fill: #1f77b4; opacity: 0.4"/>
   </g>
   <g id="patch_37">
    <path d="M 221.393708 173.52 
L 226.009068 173.52 
L 226.009068 121.015848 
L 221.393708 121.015848 
z
" clip-path="url(#pe74a4c7d4a)" style="fill: #1f77b4; opacity: 0.4"/>
   </g>
   <g id="patch_38">
    <path d="M 226.009068 173.52 
L 230.624429 173.52 
L 230.624429 131.539656 
L 226.009068 131.539656 
z
" clip-path="url(#pe74a4c7d4a)" style="fill: #1f77b4; opacity: 0.4"/>
   </g>
   <g id="patch_39">
    <path d="M 230.624429 173.52 
L 235.239789 173.52 
L 235.239789 141.810709 
L 230.624429 141.810709 
z
" clip-path="url(#pe74a4c7d4a)" style="fill: #1f77b4; opacity: 0.4"/>
   </g>
   <g id="patch_40">
    <path d="M 235.239789 173.52 
L 239.855149 173.52 
L 239.855149 152.977894 
L 235.239789 152.977894 
z
" clip-path="url(#pe74a4c7d4a)" style="fill: #1f77b4; opacity: 0.4"/>
   </g>
   <g id="patch_41">
    <path d="M 239.855149 173.52 
L 244.47051 173.52 
L 244.47051 159.227841 
L 239.855149 159.227841 
z
" clip-path="url(#pe74a4c7d4a)" style="fill: #1f77b4; opacity: 0.4"/>
   </g>
   <g id="patch_42">
    <path d="M 244.47051 173.52 
L 249.08587 173.52 
L 249.08587 163.271925 
L 244.47051 163.271925 
z
" clip-path="url(#pe74a4c7d4a)" style="fill: #1f77b4; opacity: 0.4"/>
   </g>
   <g id="patch_43">
    <path d="M 249.08587 173.52 
L 253.70123 173.52 
L 253.70123 166.442854 
L 249.08587 166.442854 
z
" clip-path="url(#pe74a4c7d4a)" style="fill: #1f77b4; opacity: 0.4"/>
   </g>
   <g id="patch_44">
    <path d="M 253.70123 173.52 
L 258.31659 173.52 
L 258.31659 168.464896 
L 253.70123 168.464896 
z
" clip-path="url(#pe74a4c7d4a)" style="fill: #1f77b4; opacity: 0.4"/>
   </g>
   <g id="patch_45">
    <path d="M 258.31659 173.52 
L 262.931951 173.52 
L 262.931951 171.107337 
L 258.31659 171.107337 
z
" clip-path="url(#pe74a4c7d4a)" style="fill: #1f77b4; opacity: 0.4"/>
   </g>
   <g id="patch_46">
    <path d="M 262.931951 173.52 
L 267.547311 173.52 
L 267.547311 171.773691 
L 262.931951 171.773691 
z
" clip-path="url(#pe74a4c7d4a)" style="fill: #1f77b4; opacity: 0.4"/>
   </g>
   <g id="patch_47">
    <path d="M 267.547311 173.52 
L 272.162671 173.52 
L 272.162671 172.623868 
L 267.547311 172.623868 
z
" clip-path="url(#pe74a4c7d4a)" style="fill: #1f77b4; opacity: 0.4"/>
   </g>
   <g id="patch_48">
    <path d="M 272.162671 173.52 
L 276.778032 173.52 
L 276.778032 172.784712 
L 272.162671 172.784712 
z
" clip-path="url(#pe74a4c7d4a)" style="fill: #1f77b4; opacity: 0.4"/>
   </g>
   <g id="patch_49">
    <path d="M 276.778032 173.52 
L 281.393392 173.52 
L 281.393392 173.3132 
L 276.778032 173.3132 
z
" clip-path="url(#pe74a4c7d4a)" style="fill: #1f77b4; opacity: 0.4"/>
   </g>
   <g id="patch_50">
    <path d="M 281.393392 173.52 
L 286.008752 173.52 
L 286.008752 173.451067 
L 281.393392 173.451067 
z
" clip-path="url(#pe74a4c7d4a)" style="fill: #1f77b4; opacity: 0.4"/>
   </g>
   <g id="patch_51">
    <path d="M 286.008752 173.52 
L 290.624112 173.52 
L 290.624112 173.428089 
L 286.008752 173.428089 
z
" clip-path="url(#pe74a4c7d4a)" style="fill: #1f77b4; opacity: 0.4"/>
   </g>
   <g id="patch_52">
    <path d="M 290.624112 173.52 
L 295.239473 173.52 
L 295.239473 173.428089 
L 290.624112 173.428089 
z
" clip-path="url(#pe74a4c7d4a)" style="fill: #1f77b4; opacity: 0.4"/>
   </g>
   <g id="patch_53">
    <path d="M 67.034333 173.52 
L 71.756111 173.52 
L 71.756111 173.47508 
L 67.034333 173.47508 
z
" clip-path="url(#pe74a4c7d4a)" style="fill: #ff7f0e; opacity: 0.4"/>
   </g>
   <g id="patch_54">
    <path d="M 71.756111 173.52 
L 76.477888 173.52 
L 76.477888 173.49754 
L 71.756111 173.49754 
z
" clip-path="url(#pe74a4c7d4a)" style="fill: #ff7f0e; opacity: 0.4"/>
   </g>
   <g id="patch_55">
    <path d="M 76.477888 173.52 
L 81.199666 173.52 
L 81.199666 173.44139 
L 76.477888 173.44139 
z
" clip-path="url(#pe74a4c7d4a)" style="fill: #ff7f0e; opacity: 0.4"/>
   </g>
   <g id="patch_56">
    <path d="M 81.199666 173.52 
L 85.921444 173.52 
L 85.921444 173.295401 
L 81.199666 173.295401 
z
" clip-path="url(#pe74a4c7d4a)" style="fill: #ff7f0e; opacity: 0.4"/>
   </g>
   <g id="patch_57">
    <path d="M 85.921444 173.52 
L 90.643221 173.52 
L 90.643221 173.216792 
L 85.921444 173.216792 
z
" clip-path="url(#pe74a4c7d4a)" style="fill: #ff7f0e; opacity: 0.4"/>
   </g>
   <g id="patch_58">
    <path d="M 90.643221 173.52 
L 95.364999 173.52 
L 95.364999 173.025883 
L 90.643221 173.025883 
z
" clip-path="url(#pe74a4c7d4a)" style="fill: #ff7f0e; opacity: 0.4"/>
   </g>
   <g id="patch_59">
    <path d="M 95.364999 173.52 
L 100.086777 173.52 
L 100.086777 172.464385 
L 95.364999 172.464385 
z
" clip-path="url(#pe74a4c7d4a)" style="fill: #ff7f0e; opacity: 0.4"/>
   </g>
   <g id="patch_60">
    <path d="M 100.086777 173.52 
L 104.808554 173.52 
L 104.808554 171.891658 
L 100.086777 171.891658 
z
" clip-path="url(#pe74a4c7d4a)" style="fill: #ff7f0e; opacity: 0.4"/>
   </g>
   <g id="patch_61">
    <path d="M 104.808554 173.52 
L 109.530332 173.52 
L 109.530332 171.161712 
L 104.808554 171.161712 
z
" clip-path="url(#pe74a4c7d4a)" style="fill: #ff7f0e; opacity: 0.4"/>
   </g>
   <g id="patch_62">
    <path d="M 109.530332 173.52 
L 114.25211 173.52 
L 114.25211 169.241392 
L 109.530332 169.241392 
z
" clip-path="url(#pe74a4c7d4a)" style="fill: #ff7f0e; opacity: 0.4"/>
   </g>
   <g id="patch_63">
    <path d="M 114.25211 173.52 
L 118.973887 173.52 
L 118.973887 166.759575 
L 114.25211 166.759575 
z
" clip-path="url(#pe74a4c7d4a)" style="fill: #ff7f0e; opacity: 0.4"/>
   </g>
   <g id="patch_64">
    <path d="M 118.973887 173.52 
L 123.695665 173.52 
L 123.695665 163.963319 
L 118.973887 163.963319 
z
" clip-path="url(#pe74a4c7d4a)" style="fill: #ff7f0e; opacity: 0.4"/>
   </g>
   <g id="patch_65">
    <path d="M 123.695665 173.52 
L 128.417443 173.52 
L 128.417443 159.067064 
L 123.695665 159.067064 
z
" clip-path="url(#pe74a4c7d4a)" style="fill: #ff7f0e; opacity: 0.4"/>
   </g>
   <g id="patch_66">
    <path d="M 128.417443 173.52 
L 133.13922 173.52 
L 133.13922 152.901826 
L 128.417443 152.901826 
z
" clip-path="url(#pe74a4c7d4a)" style="fill: #ff7f0e; opacity: 0.4"/>
   </g>
   <g id="patch_67">
    <path d="M 133.13922 173.52 
L 137.860998 173.52 
L 137.860998 143.356375 
L 133.13922 143.356375 
z
" clip-path="url(#pe74a4c7d4a)" style="fill: #ff7f0e; opacity: 0.4"/>
   </g>
   <g id="patch_68">
    <path d="M 137.860998 173.52 
L 142.582775 173.52 
L 142.582775 133.474025 
L 137.860998 133.474025 
z
" clip-path="url(#pe74a4c7d4a)" style="fill: #ff7f0e; opacity: 0.4"/>
   </g>
   <g id="patch_69">
    <path d="M 142.582775 173.52 
L 147.304553 173.52 
L 147.304553 122.098094 
L 142.582775 122.098094 
z
" clip-path="url(#pe74a4c7d4a)" style="fill: #ff7f0e; opacity: 0.4"/>
   </g>
   <g id="patch_70">
    <path d="M 147.304553 173.52 
L 152.026331 173.52 
L 152.026331 107.20719 
L 147.304553 107.20719 
z
" clip-path="url(#pe74a4c7d4a)" style="fill: #ff7f0e; opacity: 0.4"/>
   </g>
   <g id="patch_71">
    <path d="M 152.026331 173.52 
L 156.748108 173.52 
L 156.748108 92.293827 
L 152.026331 92.293827 
z
" clip-path="url(#pe74a4c7d4a)" style="fill: #ff7f0e; opacity: 0.4"/>
   </g>
   <g id="patch_72">
    <path d="M 156.748108 173.52 
L 161.469886 173.52 
L 161.469886 74.404528 
L 156.748108 74.404528 
z
" clip-path="url(#pe74a4c7d4a)" style="fill: #ff7f0e; opacity: 0.4"/>
   </g>
   <g id="patch_73">
    <path d="M 161.469886 173.52 
L 166.191664 173.52 
L 166.191664 56.919508 
L 161.469886 56.919508 
z
" clip-path="url(#pe74a4c7d4a)" style="fill: #ff7f0e; opacity: 0.4"/>
   </g>
   <g id="patch_74">
    <path d="M 166.191664 173.52 
L 170.913441 173.52 
L 170.913441 40.523792 
L 166.191664 40.523792 
z
" clip-path="url(#pe74a4c7d4a)" style="fill: #ff7f0e; opacity: 0.4"/>
   </g>
   <g id="patch_75">
    <path d="M 170.913441 173.52 
L 175.635219 173.52 
L 175.635219 27.789038 
L 170.913441 27.789038 
z
" clip-path="url(#pe74a4c7d4a)" style="fill: #ff7f0e; opacity: 0.4"/>
   </g>
   <g id="patch_76">
    <path d="M 175.635219 173.52 
L 180.356997 173.52 
L 180.356997 19.422731 
L 175.635219 19.422731 
z
" clip-path="url(#pe74a4c7d4a)" style="fill: #ff7f0e; opacity: 0.4"/>
   </g>
   <g id="patch_77">
    <path d="M 180.356997 173.52 
L 185.078774 173.52 
L 185.078774 15.60455 
L 180.356997 15.60455 
z
" clip-path="url(#pe74a4c7d4a)" style="fill: #ff7f0e; opacity: 0.4"/>
   </g>
   <g id="patch_78">
    <path d="M 185.078774 173.52 
L 189.800552 173.52 
L 189.800552 15.200272 
L 185.078774 15.200272 
z
" clip-path="url(#pe74a4c7d4a)" style="fill: #ff7f0e; opacity: 0.4"/>
   </g>
   <g id="patch_79">
    <path d="M 189.800552 173.52 
L 194.52233 173.52 
L 194.52233 19.950538 
L 189.800552 19.950538 
z
" clip-path="url(#pe74a4c7d4a)" style="fill: #ff7f0e; opacity: 0.4"/>
   </g>
   <g id="patch_80">
    <path d="M 194.52233 173.52 
L 199.244107 173.52 
L 199.244107 29.024331 
L 194.52233 29.024331 
z
" clip-path="url(#pe74a4c7d4a)" style="fill: #ff7f0e; opacity: 0.4"/>
   </g>
   <g id="patch_81">
    <path d="M 199.244107 173.52 
L 203.965885 173.52 
L 203.965885 43.432347 
L 199.244107 43.432347 
z
" clip-path="url(#pe74a4c7d4a)" style="fill: #ff7f0e; opacity: 0.4"/>
   </g>
   <g id="patch_82">
    <path d="M 203.965885 173.52 
L 208.687663 173.52 
L 208.687663 58.783679 
L 203.965885 58.783679 
z
" clip-path="url(#pe74a4c7d4a)" style="fill: #ff7f0e; opacity: 0.4"/>
   </g>
   <g id="patch_83">
    <path d="M 208.687663 173.52 
L 213.40944 173.52 
L 213.40944 77.155864 
L 208.687663 77.155864 
z
" clip-path="url(#pe74a4c7d4a)" style="fill: #ff7f0e; opacity: 0.4"/>
   </g>
   <g id="patch_84">
    <path d="M 213.40944 173.52 
L 218.131218 173.52 
L 218.131218 94.191687 
L 213.40944 94.191687 
z
" clip-path="url(#pe74a4c7d4a)" style="fill: #ff7f0e; opacity: 0.4"/>
   </g>
   <g id="patch_85">
    <path d="M 218.131218 173.52 
L 222.852995 173.52 
L 222.852995 109.19489 
L 218.131218 109.19489 
z
" clip-path="url(#pe74a4c7d4a)" style="fill: #ff7f0e; opacity: 0.4"/>
   </g>
   <g id="patch_86">
    <path d="M 222.852995 173.52 
L 227.574773 173.52 
L 227.574773 124.80451 
L 222.852995 124.80451 
z
" clip-path="url(#pe74a4c7d4a)" style="fill: #ff7f0e; opacity: 0.4"/>
   </g>
   <g id="patch_87">
    <path d="M 227.574773 173.52 
L 232.296551 173.52 
L 232.296551 136.932848 
L 227.574773 136.932848 
z
" clip-path="url(#pe74a4c7d4a)" style="fill: #ff7f0e; opacity: 0.4"/>
   </g>
   <g id="patch_88">
    <path d="M 232.296551 173.52 
L 237.018328 173.52 
L 237.018328 147.185785 
L 232.296551 147.185785 
z
" clip-path="url(#pe74a4c7d4a)" style="fill: #ff7f0e; opacity: 0.4"/>
   </g>
   <g id="patch_89">
    <path d="M 237.018328 173.52 
L 241.740106 173.52 
L 241.740106 154.642467 
L 237.018328 154.642467 
z
" clip-path="url(#pe74a4c7d4a)" style="fill: #ff7f0e; opacity: 0.4"/>
   </g>
   <g id="patch_90">
    <path d="M 241.740106 173.52 
L 246.461884 173.52 
L 246.461884 160.302358 
L 241.740106 160.302358 
z
" clip-path="url(#pe74a4c7d4a)" style="fill: #ff7f0e; opacity: 0.4"/>
   </g>
   <g id="patch_91">
    <path d="M 246.461884 173.52 
L 251.183661 173.52 
L 251.183661 164.670805 
L 246.461884 164.670805 
z
" clip-path="url(#pe74a4c7d4a)" style="fill: #ff7f0e; opacity: 0.4"/>
   </g>
   <g id="patch_92">
    <path d="M 251.183661 173.52 
L 255.905439 173.52 
L 255.905439 167.882569 
L 251.183661 167.882569 
z
" clip-path="url(#pe74a4c7d4a)" style="fill: #ff7f0e; opacity: 0.4"/>
   </g>
   <g id="patch_93">
    <path d="M 255.905439 173.52 
L 260.627217 173.52 
L 260.627217 169.892729 
L 255.905439 169.892729 
z
" clip-path="url(#pe74a4c7d4a)" style="fill: #ff7f0e; opacity: 0.4"/>
   </g>
   <g id="patch_94">
    <path d="M 260.627217 173.52 
L 265.348994 173.52 
L 265.348994 171.57722 
L 260.627217 171.57722 
z
" clip-path="url(#pe74a4c7d4a)" style="fill: #ff7f0e; opacity: 0.4"/>
   </g>
   <g id="patch_95">
    <path d="M 265.348994 173.52 
L 270.070772 173.52 
L 270.070772 172.194867 
L 265.348994 172.194867 
z
" clip-path="url(#pe74a4c7d4a)" style="fill: #ff7f0e; opacity: 0.4"/>
   </g>
   <g id="patch_96">
    <path d="M 270.070772 173.52 
L 274.79255 173.52 
L 274.79255 172.599145 
L 270.070772 172.599145 
z
" clip-path="url(#pe74a4c7d4a)" style="fill: #ff7f0e; opacity: 0.4"/>
   </g>
   <g id="patch_97">
    <path d="M 274.79255 173.52 
L 279.514327 173.52 
L 279.514327 172.868663 
L 274.79255 172.868663 
z
" clip-path="url(#pe74a4c7d4a)" style="fill: #ff7f0e; opacity: 0.4"/>
   </g>
   <g id="patch_98">
    <path d="M 279.514327 173.52 
L 284.236105 173.52 
L 284.236105 173.160642 
L 279.514327 173.160642 
z
" clip-path="url(#pe74a4c7d4a)" style="fill: #ff7f0e; opacity: 0.4"/>
   </g>
   <g id="patch_99">
    <path d="M 284.236105 173.52 
L 288.957883 173.52 
L 288.957883 173.46385 
L 284.236105 173.46385 
z
" clip-path="url(#pe74a4c7d4a)" style="fill: #ff7f0e; opacity: 0.4"/>
   </g>
   <g id="patch_100">
    <path d="M 288.957883 173.52 
L 293.67966 173.52 
L 293.67966 173.44139 
L 288.957883 173.44139 
z
" clip-path="url(#pe74a4c7d4a)" style="fill: #ff7f0e; opacity: 0.4"/>
   </g>
   <g id="patch_101">
    <path d="M 293.67966 173.52 
L 298.401438 173.52 
L 298.401438 173.48631 
L 293.67966 173.48631 
z
" clip-path="url(#pe74a4c7d4a)" style="fill: #ff7f0e; opacity: 0.4"/>
   </g>
   <g id="patch_102">
    <path d="M 298.401438 173.52 
L 303.123215 173.52 
L 303.123215 173.47508 
L 298.401438 173.47508 
z
" clip-path="url(#pe74a4c7d4a)" style="fill: #ff7f0e; opacity: 0.4"/>
   </g>
   <g id="matplotlib.axis_1">
    <g id="xtick_1">
     <g id="line2d_1">
      <defs>
       <path id="mfe7718454d" d="M 0 0 
L 0 3.5 
" style="stroke: #000000; stroke-width: 0.8"/>
      </defs>
      <g>
       <use xlink:href="#mfe7718454d" x="77.49104" y="173.52" style="stroke: #000000; stroke-width: 0.8"/>
      </g>
     </g>
     <g id="text_1">
      <!-- −4 -->
      <g transform="translate(70.119946 188.118438) scale(0.1 -0.1)">
       <defs>
        <path id="DejaVuSans-2212" d="M 678 2272 
L 4684 2272 
L 4684 1741 
L 678 1741 
L 678 2272 
z
" transform="scale(0.015625)"/>
        <path id="DejaVuSans-34" d="M 2419 4116 
L 825 1625 
L 2419 1625 
L 2419 4116 
z
M 2253 4666 
L 3047 4666 
L 3047 1625 
L 3713 1625 
L 3713 1100 
L 3047 1100 
L 3047 0 
L 2419 0 
L 2419 1100 
L 313 1100 
L 313 1709 
L 2253 4666 
z
" transform="scale(0.015625)"/>
       </defs>
       <use xlink:href="#DejaVuSans-2212"/>
       <use xlink:href="#DejaVuSans-34" x="83.789062"/>
      </g>
     </g>
    </g>
    <g id="xtick_2">
     <g id="line2d_2">
      <g>
       <use xlink:href="#mfe7718454d" x="130.990979" y="173.52" style="stroke: #000000; stroke-width: 0.8"/>
      </g>
     </g>
     <g id="text_2">
      <!-- −2 -->
      <g transform="translate(123.619885 188.118438) scale(0.1 -0.1)">
       <defs>
        <path id="DejaVuSans-32" d="M 1228 531 
L 3431 531 
L 3431 0 
L 469 0 
L 469 531 
Q 828 903 1448 1529 
Q 2069 2156 2228 2338 
Q 2531 2678 2651 2914 
Q 2772 3150 2772 3378 
Q 2772 3750 2511 3984 
Q 2250 4219 1831 4219 
Q 1534 4219 1204 4116 
Q 875 4013 500 3803 
L 500 4441 
Q 881 4594 1212 4672 
Q 1544 4750 1819 4750 
Q 2544 4750 2975 4387 
Q 3406 4025 3406 3419 
Q 3406 3131 3298 2873 
Q 3191 2616 2906 2266 
Q 2828 2175 2409 1742 
Q 1991 1309 1228 531 
z
" transform="scale(0.015625)"/>
       </defs>
       <use xlink:href="#DejaVuSans-2212"/>
       <use xlink:href="#DejaVuSans-32" x="83.789062"/>
      </g>
     </g>
    </g>
    <g id="xtick_3">
     <g id="line2d_3">
      <g>
       <use xlink:href="#mfe7718454d" x="184.490917" y="173.52" style="stroke: #000000; stroke-width: 0.8"/>
      </g>
     </g>
     <g id="text_3">
      <!-- 0 -->
      <g transform="translate(181.309667 188.118438) scale(0.1 -0.1)">
       <defs>
        <path id="DejaVuSans-30" d="M 2034 4250 
Q 1547 4250 1301 3770 
Q 1056 3291 1056 2328 
Q 1056 1369 1301 889 
Q 1547 409 2034 409 
Q 2525 409 2770 889 
Q 3016 1369 3016 2328 
Q 3016 3291 2770 3770 
Q 2525 4250 2034 4250 
z
M 2034 4750 
Q 2819 4750 3233 4129 
Q 3647 3509 3647 2328 
Q 3647 1150 3233 529 
Q 2819 -91 2034 -91 
Q 1250 -91 836 529 
Q 422 1150 422 2328 
Q 422 3509 836 4129 
Q 1250 4750 2034 4750 
z
" transform="scale(0.015625)"/>
       </defs>
       <use xlink:href="#DejaVuSans-30"/>
      </g>
     </g>
    </g>
    <g id="xtick_4">
     <g id="line2d_4">
      <g>
       <use xlink:href="#mfe7718454d" x="237.990856" y="173.52" style="stroke: #000000; stroke-width: 0.8"/>
      </g>
     </g>
     <g id="text_4">
      <!-- 2 -->
      <g transform="translate(234.809606 188.118438) scale(0.1 -0.1)">
       <use xlink:href="#DejaVuSans-32"/>
      </g>
     </g>
    </g>
    <g id="xtick_5">
     <g id="line2d_5">
      <g>
       <use xlink:href="#mfe7718454d" x="291.490794" y="173.52" style="stroke: #000000; stroke-width: 0.8"/>
      </g>
     </g>
     <g id="text_5">
      <!-- 4 -->
      <g transform="translate(288.309544 188.118438) scale(0.1 -0.1)">
       <use xlink:href="#DejaVuSans-34"/>
      </g>
     </g>
    </g>
   </g>
   <g id="matplotlib.axis_2">
    <g id="ytick_1">
     <g id="line2d_6">
      <defs>
       <path id="m8987e600d7" d="M 0 0 
L -3.5 0 
" style="stroke: #000000; stroke-width: 0.8"/>
      </defs>
      <g>
       <use xlink:href="#m8987e600d7" x="43.78125" y="173.52" style="stroke: #000000; stroke-width: 0.8"/>
      </g>
     </g>
     <g id="text_6">
      <!-- 0.0 -->
      <g transform="translate(20.878125 177.319219) scale(0.1 -0.1)">
       <defs>
        <path id="DejaVuSans-2e" d="M 684 794 
L 1344 794 
L 1344 0 
L 684 0 
L 684 794 
z
" transform="scale(0.015625)"/>
       </defs>
       <use xlink:href="#DejaVuSans-30"/>
       <use xlink:href="#DejaVuSans-2e" x="63.623047"/>
       <use xlink:href="#DejaVuSans-30" x="95.410156"/>
      </g>
     </g>
    </g>
    <g id="ytick_2">
     <g id="line2d_7">
      <g>
       <use xlink:href="#m8987e600d7" x="43.78125" y="133.874877" style="stroke: #000000; stroke-width: 0.8"/>
      </g>
     </g>
     <g id="text_7">
      <!-- 0.1 -->
      <g transform="translate(20.878125 137.674096) scale(0.1 -0.1)">
       <defs>
        <path id="DejaVuSans-31" d="M 794 531 
L 1825 531 
L 1825 4091 
L 703 3866 
L 703 4441 
L 1819 4666 
L 2450 4666 
L 2450 531 
L 3481 531 
L 3481 0 
L 794 0 
L 794 531 
z
" transform="scale(0.015625)"/>
       </defs>
       <use xlink:href="#DejaVuSans-30"/>
       <use xlink:href="#DejaVuSans-2e" x="63.623047"/>
       <use xlink:href="#DejaVuSans-31" x="95.410156"/>
      </g>
     </g>
    </g>
    <g id="ytick_3">
     <g id="line2d_8">
      <g>
       <use xlink:href="#m8987e600d7" x="43.78125" y="94.229754" style="stroke: #000000; stroke-width: 0.8"/>
      </g>
     </g>
     <g id="text_8">
      <!-- 0.2 -->
      <g transform="translate(20.878125 98.028973) scale(0.1 -0.1)">
       <use xlink:href="#DejaVuSans-30"/>
       <use xlink:href="#DejaVuSans-2e" x="63.623047"/>
       <use xlink:href="#DejaVuSans-32" x="95.410156"/>
      </g>
     </g>
    </g>
    <g id="ytick_4">
     <g id="line2d_9">
      <g>
       <use xlink:href="#m8987e600d7" x="43.78125" y="54.584631" style="stroke: #000000; stroke-width: 0.8"/>
      </g>
     </g>
     <g id="text_9">
      <!-- 0.3 -->
      <g transform="translate(20.878125 58.38385) scale(0.1 -0.1)">
       <defs>
        <path id="DejaVuSans-33" d="M 2597 2516 
Q 3050 2419 3304 2112 
Q 3559 1806 3559 1356 
Q 3559 666 3084 287 
Q 2609 -91 1734 -91 
Q 1441 -91 1130 -33 
Q 819 25 488 141 
L 488 750 
Q 750 597 1062 519 
Q 1375 441 1716 441 
Q 2309 441 2620 675 
Q 2931 909 2931 1356 
Q 2931 1769 2642 2001 
Q 2353 2234 1838 2234 
L 1294 2234 
L 1294 2753 
L 1863 2753 
Q 2328 2753 2575 2939 
Q 2822 3125 2822 3475 
Q 2822 3834 2567 4026 
Q 2313 4219 1838 4219 
Q 1578 4219 1281 4162 
Q 984 4106 628 3988 
L 628 4550 
Q 988 4650 1302 4700 
Q 1616 4750 1894 4750 
Q 2613 4750 3031 4423 
Q 3450 4097 3450 3541 
Q 3450 3153 3228 2886 
Q 3006 2619 2597 2516 
z
" transform="scale(0.015625)"/>
       </defs>
       <use xlink:href="#DejaVuSans-30"/>
       <use xlink:href="#DejaVuSans-2e" x="63.623047"/>
       <use xlink:href="#DejaVuSans-33" x="95.410156"/>
      </g>
     </g>
    </g>
    <g id="ytick_5">
     <g id="line2d_10">
      <g>
       <use xlink:href="#m8987e600d7" x="43.78125" y="14.939508" style="stroke: #000000; stroke-width: 0.8"/>
      </g>
     </g>
     <g id="text_10">
      <!-- 0.4 -->
      <g transform="translate(20.878125 18.738727) scale(0.1 -0.1)">
       <use xlink:href="#DejaVuSans-30"/>
       <use xlink:href="#DejaVuSans-2e" x="63.623047"/>
       <use xlink:href="#DejaVuSans-34" x="95.410156"/>
      </g>
     </g>
    </g>
    <g id="text_11">
     <!-- Density -->
     <g transform="translate(14.798438 109.368594) rotate(-90) scale(0.1 -0.1)">
      <defs>
       <path id="DejaVuSans-44" d="M 1259 4147 
L 1259 519 
L 2022 519 
Q 2988 519 3436 956 
Q 3884 1394 3884 2338 
Q 3884 3275 3436 3711 
Q 2988 4147 2022 4147 
L 1259 4147 
z
M 628 4666 
L 1925 4666 
Q 3281 4666 3915 4102 
Q 4550 3538 4550 2338 
Q 4550 1131 3912 565 
Q 3275 0 1925 0 
L 628 0 
L 628 4666 
z
" transform="scale(0.015625)"/>
       <path id="DejaVuSans-65" d="M 3597 1894 
L 3597 1613 
L 953 1613 
Q 991 1019 1311 708 
Q 1631 397 2203 397 
Q 2534 397 2845 478 
Q 3156 559 3463 722 
L 3463 178 
Q 3153 47 2828 -22 
Q 2503 -91 2169 -91 
Q 1331 -91 842 396 
Q 353 884 353 1716 
Q 353 2575 817 3079 
Q 1281 3584 2069 3584 
Q 2775 3584 3186 3129 
Q 3597 2675 3597 1894 
z
M 3022 2063 
Q 3016 2534 2758 2815 
Q 2500 3097 2075 3097 
Q 1594 3097 1305 2825 
Q 1016 2553 972 2059 
L 3022 2063 
z
" transform="scale(0.015625)"/>
       <path id="DejaVuSans-6e" d="M 3513 2113 
L 3513 0 
L 2938 0 
L 2938 2094 
Q 2938 2591 2744 2837 
Q 2550 3084 2163 3084 
Q 1697 3084 1428 2787 
Q 1159 2491 1159 1978 
L 1159 0 
L 581 0 
L 581 3500 
L 1159 3500 
L 1159 2956 
Q 1366 3272 1645 3428 
Q 1925 3584 2291 3584 
Q 2894 3584 3203 3211 
Q 3513 2838 3513 2113 
z
" transform="scale(0.015625)"/>
       <path id="DejaVuSans-73" d="M 2834 3397 
L 2834 2853 
Q 2591 2978 2328 3040 
Q 2066 3103 1784 3103 
Q 1356 3103 1142 2972 
Q 928 2841 928 2578 
Q 928 2378 1081 2264 
Q 1234 2150 1697 2047 
L 1894 2003 
Q 2506 1872 2764 1633 
Q 3022 1394 3022 966 
Q 3022 478 2636 193 
Q 2250 -91 1575 -91 
Q 1294 -91 989 -36 
Q 684 19 347 128 
L 347 722 
Q 666 556 975 473 
Q 1284 391 1588 391 
Q 1994 391 2212 530 
Q 2431 669 2431 922 
Q 2431 1156 2273 1281 
Q 2116 1406 1581 1522 
L 1381 1569 
Q 847 1681 609 1914 
Q 372 2147 372 2553 
Q 372 3047 722 3315 
Q 1072 3584 1716 3584 
Q 2034 3584 2315 3537 
Q 2597 3491 2834 3397 
z
" transform="scale(0.015625)"/>
       <path id="DejaVuSans-69" d="M 603 3500 
L 1178 3500 
L 1178 0 
L 603 0 
L 603 3500 
z
M 603 4863 
L 1178 4863 
L 1178 4134 
L 603 4134 
L 603 4863 
z
" transform="scale(0.015625)"/>
       <path id="DejaVuSans-74" d="M 1172 4494 
L 1172 3500 
L 2356 3500 
L 2356 3053 
L 1172 3053 
L 1172 1153 
Q 1172 725 1289 603 
Q 1406 481 1766 481 
L 2356 481 
L 2356 0 
L 1766 0 
Q 1100 0 847 248 
Q 594 497 594 1153 
L 594 3053 
L 172 3053 
L 172 3500 
L 594 3500 
L 594 4494 
L 1172 4494 
z
" transform="scale(0.015625)"/>
       <path id="DejaVuSans-79" d="M 2059 -325 
Q 1816 -950 1584 -1140 
Q 1353 -1331 966 -1331 
L 506 -1331 
L 506 -850 
L 844 -850 
Q 1081 -850 1212 -737 
Q 1344 -625 1503 -206 
L 1606 56 
L 191 3500 
L 800 3500 
L 1894 763 
L 2988 3500 
L 3597 3500 
L 2059 -325 
z
" transform="scale(0.015625)"/>
      </defs>
      <use xlink:href="#DejaVuSans-44"/>
      <use xlink:href="#DejaVuSans-65" x="77.001953"/>
      <use xlink:href="#DejaVuSans-6e" x="138.525391"/>
      <use xlink:href="#DejaVuSans-73" x="201.904297"/>
      <use xlink:href="#DejaVuSans-69" x="254.003906"/>
      <use xlink:href="#DejaVuSans-74" x="281.787109"/>
      <use xlink:href="#DejaVuSans-79" x="320.996094"/>
     </g>
    </g>
   </g>
   <g id="line2d_11">
    <path d="M 56.463068 173.519824 
L 80.025436 173.406006 
L 88.706308 173.198513 
L 93.666806 173.037315 
L 98.627304 172.685012 
L 102.347678 172.195624 
L 104.827927 171.590604 
L 112.268675 168.969393 
L 114.748924 167.945098 
L 117.229173 166.676527 
L 119.709423 165.132553 
L 122.189672 163.244412 
L 123.429796 162.109081 
L 124.669921 160.756641 
L 125.910046 159.136601 
L 129.630419 153.386348 
L 133.350793 147.610224 
L 135.831042 143.120814 
L 138.311292 138.175569 
L 139.551416 135.446698 
L 140.791541 132.438788 
L 143.27179 125.580242 
L 145.752039 117.932372 
L 155.673036 85.045893 
L 158.153285 76.268175 
L 161.873659 62.415426 
L 164.353908 54.646518 
L 168.074282 43.691721 
L 171.794656 32.523193 
L 174.274905 25.595286 
L 175.515029 22.712787 
L 176.755154 20.447166 
L 177.995279 18.785628 
L 179.235403 17.600315 
L 180.475528 16.769774 
L 181.715652 16.259673 
L 182.955777 16.091982 
L 184.195902 16.243445 
L 186.676151 17.057408 
L 187.916275 17.578288 
L 189.1564 18.247927 
L 190.396525 19.200651 
L 191.636649 20.577626 
L 192.876774 22.49003 
L 194.116898 24.975649 
L 195.357023 27.97238 
L 197.837272 34.958696 
L 207.758269 65.152768 
L 210.238518 74.343368 
L 212.718767 83.55992 
L 215.199017 91.41921 
L 217.679266 98.850863 
L 220.159515 107.079705 
L 222.639764 115.699072 
L 225.120013 123.399763 
L 227.600263 130.038236 
L 230.080512 135.982076 
L 236.281135 149.44698 
L 238.761384 154.342943 
L 240.001509 156.33874 
L 241.241633 158.004769 
L 242.481758 159.385979 
L 244.962007 161.638102 
L 248.682381 164.648321 
L 251.16263 166.176627 
L 257.363253 169.360008 
L 259.843502 170.575061 
L 261.083627 171.008682 
L 263.563876 171.545817 
L 271.004623 172.660349 
L 283.405869 173.421962 
L 303.247863 173.519787 
L 303.247863 173.519787 
" clip-path="url(#pe74a4c7d4a)" style="fill: none; stroke: #1f77b4; stroke-width: 1.5; stroke-linecap: square"/>
   </g>
   <g id="line2d_12">
    <path d="M 60.058117 173.519897 
L 78.905452 173.417246 
L 92.726831 172.995484 
L 100.265765 172.185142 
L 104.035232 171.623512 
L 107.8047 170.923258 
L 109.061189 170.552189 
L 110.317678 170.038864 
L 112.830656 168.691864 
L 115.343634 167.328382 
L 119.113101 165.455671 
L 120.36959 164.586232 
L 122.882568 162.307031 
L 125.395546 159.647499 
L 127.908524 156.550898 
L 130.421502 153.089843 
L 131.677991 151.051254 
L 134.190969 146.177229 
L 137.960436 138.569922 
L 140.473414 132.773623 
L 144.242881 123.58979 
L 146.755859 116.111964 
L 153.038304 96.59073 
L 163.090216 60.109233 
L 165.603194 50.680803 
L 168.116173 42.053769 
L 169.372662 38.16759 
L 171.88564 31.459209 
L 174.398618 25.582752 
L 175.655107 23.006107 
L 176.911596 20.872756 
L 178.168085 19.231799 
L 179.424574 17.975155 
L 180.681063 16.993287 
L 181.937552 16.269956 
L 184.45053 15.3324 
L 185.707019 15.12 
L 186.963508 15.390633 
L 188.219997 16.213393 
L 189.476486 17.36964 
L 190.732975 18.724253 
L 191.989464 20.38474 
L 193.245953 22.438938 
L 195.758931 27.329229 
L 197.01542 30.10536 
L 198.271909 33.256071 
L 200.784887 40.641289 
L 204.554354 52.476254 
L 207.067332 61.445413 
L 214.606266 90.409538 
L 219.632222 106.466912 
L 223.401689 118.935913 
L 225.914667 126.45988 
L 228.427645 132.927089 
L 232.197113 142.107302 
L 234.710091 147.081524 
L 237.223069 151.396272 
L 239.736047 155.087543 
L 242.249025 158.133534 
L 244.762003 160.814613 
L 248.53147 164.42054 
L 251.044448 166.36364 
L 253.557426 167.795829 
L 257.326893 169.489271 
L 261.09636 170.949105 
L 263.609338 171.541368 
L 271.148272 172.510154 
L 278.687206 173.008845 
L 286.22614 173.389862 
L 292.508586 173.461539 
L 305.073476 173.5095 
L 310.099432 173.519891 
L 310.099432 173.519891 
" clip-path="url(#pe74a4c7d4a)" style="fill: none; stroke: #ff7f0e; stroke-width: 1.5; stroke-linecap: square"/>
   </g>
   <g id="patch_103">
    <path d="M 43.78125 173.52 
L 43.78125 7.2 
" style="fill: none; stroke: #000000; stroke-width: 0.8; stroke-linejoin: miter; stroke-linecap: square"/>
   </g>
   <g id="patch_104">
    <path d="M 322.78125 173.52 
L 322.78125 7.2 
" style="fill: none; stroke: #000000; stroke-width: 0.8; stroke-linejoin: miter; stroke-linecap: square"/>
   </g>
   <g id="patch_105">
    <path d="M 43.78125 173.52 
L 322.78125 173.52 
" style="fill: none; stroke: #000000; stroke-width: 0.8; stroke-linejoin: miter; stroke-linecap: square"/>
   </g>
   <g id="patch_106">
    <path d="M 43.78125 7.2 
L 322.78125 7.2 
" style="fill: none; stroke: #000000; stroke-width: 0.8; stroke-linejoin: miter; stroke-linecap: square"/>
   </g>
   <g id="legend_1">
    <g id="patch_107">
     <path d="M 234.28125 44.698438 
L 315.78125 44.698438 
Q 317.78125 44.698438 317.78125 42.698438 
L 317.78125 14.2 
Q 317.78125 12.2 315.78125 12.2 
L 234.28125 12.2 
Q 232.28125 12.2 232.28125 14.2 
L 232.28125 42.698438 
Q 232.28125 44.698438 234.28125 44.698438 
z
" style="fill: #ffffff; opacity: 0.8; stroke: #cccccc; stroke-linejoin: miter"/>
    </g>
    <g id="patch_108">
     <path d="M 236.28125 23.8 
L 256.28125 23.8 
L 256.28125 16.8 
L 236.28125 16.8 
z
" style="fill: #1f77b4; opacity: 0.4"/>
    </g>
    <g id="text_12">
     <!-- $\mathbf{x}$ - input -->
     <g transform="translate(264.28125 23.8) scale(0.1 -0.1)">
      <defs>
       <path id="DejaVuSans-Bold-78" d="M 1422 1791 
L 159 3500 
L 1344 3500 
L 2059 2463 
L 2784 3500 
L 3969 3500 
L 2706 1797 
L 4031 0 
L 2847 0 
L 2059 1106 
L 1281 0 
L 97 0 
L 1422 1791 
z
" transform="scale(0.015625)"/>
       <path id="DejaVuSans-20" transform="scale(0.015625)"/>
       <path id="DejaVuSans-2d" d="M 313 2009 
L 1997 2009 
L 1997 1497 
L 313 1497 
L 313 2009 
z
" transform="scale(0.015625)"/>
       <path id="DejaVuSans-70" d="M 1159 525 
L 1159 -1331 
L 581 -1331 
L 581 3500 
L 1159 3500 
L 1159 2969 
Q 1341 3281 1617 3432 
Q 1894 3584 2278 3584 
Q 2916 3584 3314 3078 
Q 3713 2572 3713 1747 
Q 3713 922 3314 415 
Q 2916 -91 2278 -91 
Q 1894 -91 1617 61 
Q 1341 213 1159 525 
z
M 3116 1747 
Q 3116 2381 2855 2742 
Q 2594 3103 2138 3103 
Q 1681 3103 1420 2742 
Q 1159 2381 1159 1747 
Q 1159 1113 1420 752 
Q 1681 391 2138 391 
Q 2594 391 2855 752 
Q 3116 1113 3116 1747 
z
" transform="scale(0.015625)"/>
       <path id="DejaVuSans-75" d="M 544 1381 
L 544 3500 
L 1119 3500 
L 1119 1403 
Q 1119 906 1312 657 
Q 1506 409 1894 409 
Q 2359 409 2629 706 
Q 2900 1003 2900 1516 
L 2900 3500 
L 3475 3500 
L 3475 0 
L 2900 0 
L 2900 538 
Q 2691 219 2414 64 
Q 2138 -91 1772 -91 
Q 1169 -91 856 284 
Q 544 659 544 1381 
z
M 1991 3584 
L 1991 3584 
z
" transform="scale(0.015625)"/>
      </defs>
      <use xlink:href="#DejaVuSans-Bold-78" transform="translate(0 0.015625)"/>
      <use xlink:href="#DejaVuSans-20" transform="translate(64.501953 0.015625)"/>
      <use xlink:href="#DejaVuSans-2d" transform="translate(96.289062 0.015625)"/>
      <use xlink:href="#DejaVuSans-20" transform="translate(132.373047 0.015625)"/>
      <use xlink:href="#DejaVuSans-69" transform="translate(164.160156 0.015625)"/>
      <use xlink:href="#DejaVuSans-6e" transform="translate(191.943359 0.015625)"/>
      <use xlink:href="#DejaVuSans-70" transform="translate(255.322266 0.015625)"/>
      <use xlink:href="#DejaVuSans-75" transform="translate(318.798828 0.015625)"/>
      <use xlink:href="#DejaVuSans-74" transform="translate(382.177734 0.015625)"/>
     </g>
    </g>
    <g id="patch_109">
     <path d="M 236.28125 38.498438 
L 256.28125 38.498438 
L 256.28125 31.498438 
L 236.28125 31.498438 
z
" style="fill: #ff7f0e; opacity: 0.4"/>
    </g>
    <g id="text_13">
     <!-- $\mathbf{y}$ - output -->
     <g transform="translate(264.28125 38.498438) scale(0.1 -0.1)">
      <defs>
       <path id="DejaVuSans-Bold-79" d="M 78 3500 
L 1197 3500 
L 2138 1125 
L 2938 3500 
L 4056 3500 
L 2584 -331 
Q 2363 -916 2067 -1148 
Q 1772 -1381 1288 -1381 
L 641 -1381 
L 641 -647 
L 991 -647 
Q 1275 -647 1404 -556 
Q 1534 -466 1606 -231 
L 1638 -134 
L 78 3500 
z
" transform="scale(0.015625)"/>
       <path id="DejaVuSans-6f" d="M 1959 3097 
Q 1497 3097 1228 2736 
Q 959 2375 959 1747 
Q 959 1119 1226 758 
Q 1494 397 1959 397 
Q 2419 397 2687 759 
Q 2956 1122 2956 1747 
Q 2956 2369 2687 2733 
Q 2419 3097 1959 3097 
z
M 1959 3584 
Q 2709 3584 3137 3096 
Q 3566 2609 3566 1747 
Q 3566 888 3137 398 
Q 2709 -91 1959 -91 
Q 1206 -91 779 398 
Q 353 888 353 1747 
Q 353 2609 779 3096 
Q 1206 3584 1959 3584 
z
" transform="scale(0.015625)"/>
      </defs>
      <use xlink:href="#DejaVuSans-Bold-79" transform="translate(0 0.78125)"/>
      <use xlink:href="#DejaVuSans-20" transform="translate(65.185547 0.78125)"/>
      <use xlink:href="#DejaVuSans-2d" transform="translate(96.972656 0.78125)"/>
      <use xlink:href="#DejaVuSans-20" transform="translate(133.056641 0.78125)"/>
      <use xlink:href="#DejaVuSans-6f" transform="translate(164.84375 0.78125)"/>
      <use xlink:href="#DejaVuSans-75" transform="translate(226.025391 0.78125)"/>
      <use xlink:href="#DejaVuSans-74" transform="translate(289.404297 0.78125)"/>
      <use xlink:href="#DejaVuSans-70" transform="translate(328.613281 0.78125)"/>
      <use xlink:href="#DejaVuSans-75" transform="translate(392.089844 0.78125)"/>
      <use xlink:href="#DejaVuSans-74" transform="translate(455.46875 0.78125)"/>
     </g>
    </g>
   </g>
  </g>
 </g>
 <defs>
  <clipPath id="pe74a4c7d4a">
   <rect x="43.78125" y="7.2" width="279" height="166.32"/>
  </clipPath>
 </defs>
</svg>