<?xml version="1.0" encoding="utf-8" standalone="no"?>
<!DOCTYPE svg PUBLIC "-//W3C//DTD SVG 1.1//EN"
  "http://www.w3.org/Graphics/SVG/1.1/DTD/svg11.dtd">
<svg xmlns:xlink="http://www.w3.org/1999/xlink" width="329.98125pt" height="197.398125pt" viewBox="0 0 329.98125 197.398125" xmlns="http://www.w3.org/2000/svg" version="1.1">
 <metadata>
  <rdf:RDF xmlns:dc="http://purl.org/dc/elements/1.1/" xmlns:cc="http://creativecommons.org/ns#" xmlns:rdf="http://www.w3.org/1999/02/22-rdf-syntax-ns#">
   <cc:Work>
    <dc:type rdf:resource="http://purl.org/dc/dcmitype/StillImage"/>
    <dc:date>2023-03-29T02:52:46.962166</dc:date>
    <dc:format>image/svg+xml</dc:format>
    <dc:creator>
     <cc:Agent>
      <dc:title>Matplotlib v3.7.0, https://matplotlib.org/</dc:title>
     </cc:Agent>
    </dc:creator>
   </cc:Work>
  </rdf:RDF>
 </metadata>
 <defs>
  <style type="text/css">*{stroke-linejoin: round; stroke-linecap: butt}</style>
 </defs>
 <g id="figure_1">
  <g id="patch_1">
   <path d="M 0 197.398125 
L 329.98125 197.398125 
L 329.98125 0 
L 0 0 
z
" style="fill: #ffffff"/>
  </g>
  <g id="axes_1">
   <g id="patch_2">
    <path d="M 43.78125 173.52 
L 322.78125 173.52 
L 322.78125 7.2 
L 43.78125 7.2 
z
" style="fill: #ffffff"/>
   </g>
   <g id="patch_3">
    <path d="M 170.826406 173.52 
L 171.271205 173.52 
L 171.271205 173.428081 
L 170.826406 173.428081 
z
" clip-path="url(#pcd171e7d34)" style="fill: #1f77b4; opacity: 0.4"/>
   </g>
   <g id="patch_4">
    <path d="M 171.271205 173.52 
L 171.716005 173.52 
L 171.716005 173.428081 
L 171.271205 173.428081 
z
" clip-path="url(#pcd171e7d34)" style="fill: #1f77b4; opacity: 0.4"/>
   </g>
   <g id="patch_5">
    <path d="M 171.716005 173.52 
L 172.160805 173.52 
L 172.160805 173.382122 
L 171.716005 173.382122 
z
" clip-path="url(#pcd171e7d34)" style="fill: #1f77b4; opacity: 0.4"/>
   </g>
   <g id="patch_6">
    <path d="M 172.160805 173.52 
L 172.605605 173.52 
L 172.605605 173.152324 
L 172.160805 173.152324 
z
" clip-path="url(#pcd171e7d34)" style="fill: #1f77b4; opacity: 0.4"/>
   </g>
   <g id="patch_7">
    <path d="M 172.605605 173.52 
L 173.050404 173.52 
L 173.050404 172.62379 
L 172.605605 172.62379 
z
" clip-path="url(#pcd171e7d34)" style="fill: #1f77b4; opacity: 0.4"/>
   </g>
   <g id="patch_8">
    <path d="M 173.050404 173.52 
L 173.495204 173.52 
L 173.495204 171.934398 
L 173.050404 171.934398 
z
" clip-path="url(#pcd171e7d34)" style="fill: #1f77b4; opacity: 0.4"/>
   </g>
   <g id="patch_9">
    <path d="M 173.495204 173.52 
L 173.940004 173.52 
L 173.940004 171.451824 
L 173.495204 171.451824 
z
" clip-path="url(#pcd171e7d34)" style="fill: #1f77b4; opacity: 0.4"/>
   </g>
   <g id="patch_10">
    <path d="M 173.940004 173.52 
L 174.384803 173.52 
L 174.384803 170.02708 
L 173.940004 170.02708 
z
" clip-path="url(#pcd171e7d34)" style="fill: #1f77b4; opacity: 0.4"/>
   </g>
   <g id="patch_11">
    <path d="M 174.384803 173.52 
L 174.829603 173.52 
L 174.829603 167.47633 
L 174.384803 167.47633 
z
" clip-path="url(#pcd171e7d34)" style="fill: #1f77b4; opacity: 0.4"/>
   </g>
   <g id="patch_12">
    <path d="M 174.829603 173.52 
L 175.274403 173.52 
L 175.274403 165.270275 
L 174.829603 165.270275 
z
" clip-path="url(#pcd171e7d34)" style="fill: #1f77b4; opacity: 0.4"/>
   </g>
   <g id="patch_13">
    <path d="M 175.274403 173.52 
L 175.719203 173.52 
L 175.719203 160.881146 
L 175.274403 160.881146 
z
" clip-path="url(#pcd171e7d34)" style="fill: #1f77b4; opacity: 0.4"/>
   </g>
   <g id="patch_14">
    <path d="M 175.719203 173.52 
L 176.164002 173.52 
L 176.164002 154.768536 
L 175.719203 154.768536 
z
" clip-path="url(#pcd171e7d34)" style="fill: #1f77b4; opacity: 0.4"/>
   </g>
   <g id="patch_15">
    <path d="M 176.164002 173.52 
L 176.608802 173.52 
L 176.608802 148.42613 
L 176.164002 148.42613 
z
" clip-path="url(#pcd171e7d34)" style="fill: #1f77b4; opacity: 0.4"/>
   </g>
   <g id="patch_16">
    <path d="M 176.608802 173.52 
L 177.053602 173.52 
L 177.053602 137.510755 
L 176.608802 137.510755 
z
" clip-path="url(#pcd171e7d34)" style="fill: #1f77b4; opacity: 0.4"/>
   </g>
   <g id="patch_17">
    <path d="M 177.053602 173.52 
L 177.498401 173.52 
L 177.498401 126.71028 
L 177.053602 126.71028 
z
" clip-path="url(#pcd171e7d34)" style="fill: #1f77b4; opacity: 0.4"/>
   </g>
   <g id="patch_18">
    <path d="M 177.498401 173.52 
L 177.943201 173.52 
L 177.943201 112.991378 
L 177.498401 112.991378 
z
" clip-path="url(#pcd171e7d34)" style="fill: #1f77b4; opacity: 0.4"/>
   </g>
   <g id="patch_19">
    <path d="M 177.943201 173.52 
L 178.388001 173.52 
L 178.388001 95.641679 
L 177.943201 95.641679 
z
" clip-path="url(#pcd171e7d34)" style="fill: #1f77b4; opacity: 0.4"/>
   </g>
   <g id="patch_20">
    <path d="M 178.388001 173.52 
L 178.8328 173.52 
L 178.8328 79.785661 
L 178.388001 79.785661 
z
" clip-path="url(#pcd171e7d34)" style="fill: #1f77b4; opacity: 0.4"/>
   </g>
   <g id="patch_21">
    <path d="M 178.8328 173.52 
L 179.2776 173.52 
L 179.2776 63.745807 
L 178.8328 63.745807 
z
" clip-path="url(#pcd171e7d34)" style="fill: #1f77b4; opacity: 0.4"/>
   </g>
   <g id="patch_22">
    <path d="M 179.2776 173.52 
L 179.7224 173.52 
L 179.7224 46.212269 
L 179.2776 46.212269 
z
" clip-path="url(#pcd171e7d34)" style="fill: #1f77b4; opacity: 0.4"/>
   </g>
   <g id="patch_23">
    <path d="M 179.7224 173.52 
L 180.1672 173.52 
L 180.1672 33.343617 
L 179.7224 33.343617 
z
" clip-path="url(#pcd171e7d34)" style="fill: #1f77b4; opacity: 0.4"/>
   </g>
   <g id="patch_24">
    <path d="M 180.1672 173.52 
L 180.611999 173.52 
L 180.611999 21.486074 
L 180.1672 21.486074 
z
" clip-path="url(#pcd171e7d34)" style="fill: #1f77b4; opacity: 0.4"/>
   </g>
   <g id="patch_25">
    <path d="M 180.611999 173.52 
L 181.056799 173.52 
L 181.056799 15.235586 
L 180.611999 15.235586 
z
" clip-path="url(#pcd171e7d34)" style="fill: #1f77b4; opacity: 0.4"/>
   </g>
   <g id="patch_26">
    <path d="M 181.056799 173.52 
L 181.501599 173.52 
L 181.501599 15.143667 
L 181.056799 15.143667 
z
" clip-path="url(#pcd171e7d34)" style="fill: #1f77b4; opacity: 0.4"/>
   </g>
   <g id="patch_27">
    <path d="M 181.501599 173.52 
L 181.946398 173.52 
L 181.946398 15.856039 
L 181.501599 15.856039 
z
" clip-path="url(#pcd171e7d34)" style="fill: #1f77b4; opacity: 0.4"/>
   </g>
   <g id="patch_28">
    <path d="M 181.946398 173.52 
L 182.391198 173.52 
L 182.391198 22.864858 
L 181.946398 22.864858 
z
" clip-path="url(#pcd171e7d34)" style="fill: #1f77b4; opacity: 0.4"/>
   </g>
   <g id="patch_29">
    <path d="M 182.391198 173.52 
L 182.835998 173.52 
L 182.835998 35.595631 
L 182.391198 35.595631 
z
" clip-path="url(#pcd171e7d34)" style="fill: #1f77b4; opacity: 0.4"/>
   </g>
   <g id="patch_30">
    <path d="M 182.835998 173.52 
L 183.280798 173.52 
L 183.280798 48.004688 
L 182.835998 48.004688 
z
" clip-path="url(#pcd171e7d34)" style="fill: #1f77b4; opacity: 0.4"/>
   </g>
   <g id="patch_31">
    <path d="M 183.280798 173.52 
L 183.725597 173.52 
L 183.725597 63.630908 
L 183.280798 63.630908 
z
" clip-path="url(#pcd171e7d34)" style="fill: #1f77b4; opacity: 0.4"/>
   </g>
   <g id="patch_32">
    <path d="M 183.725597 173.52 
L 184.170397 173.52 
L 184.170397 81.64702 
L 183.725597 81.64702 
z
" clip-path="url(#pcd171e7d34)" style="fill: #1f77b4; opacity: 0.4"/>
   </g>
   <g id="patch_33">
    <path d="M 184.170397 173.52 
L 184.615197 173.52 
L 184.615197 99.82399 
L 184.170397 99.82399 
z
" clip-path="url(#pcd171e7d34)" style="fill: #1f77b4; opacity: 0.4"/>
   </g>
   <g id="patch_34">
    <path d="M 184.615197 173.52 
L 185.059996 173.52 
L 185.059996 115.381271 
L 184.615197 115.381271 
z
" clip-path="url(#pcd171e7d34)" style="fill: #1f77b4; opacity: 0.4"/>
   </g>
   <g id="patch_35">
    <path d="M 185.059996 173.52 
L 185.504796 173.52 
L 185.504796 127.744368 
L 185.059996 127.744368 
z
" clip-path="url(#pcd171e7d34)" style="fill: #1f77b4; opacity: 0.4"/>
   </g>
   <g id="patch_36">
    <path d="M 185.504796 173.52 
L 185.949596 173.52 
L 185.949596 140.222364 
L 185.504796 140.222364 
z
" clip-path="url(#pcd171e7d34)" style="fill: #1f77b4; opacity: 0.4"/>
   </g>
   <g id="patch_37">
    <path d="M 185.949596 173.52 
L 186.394396 173.52 
L 186.394396 148.747846 
L 185.949596 148.747846 
z
" clip-path="url(#pcd171e7d34)" style="fill: #1f77b4; opacity: 0.4"/>
   </g>
   <g id="patch_38">
    <path d="M 186.394396 173.52 
L 186.839195 173.52 
L 186.839195 156.446057 
L 186.394396 156.446057 
z
" clip-path="url(#pcd171e7d34)" style="fill: #1f77b4; opacity: 0.4"/>
   </g>
   <g id="patch_39">
    <path d="M 186.839195 173.52 
L 187.283995 173.52 
L 187.283995 161.915234 
L 186.839195 161.915234 
z
" clip-path="url(#pcd171e7d34)" style="fill: #1f77b4; opacity: 0.4"/>
   </g>
   <g id="patch_40">
    <path d="M 187.283995 173.52 
L 187.728795 173.52 
L 187.728795 166.534161 
L 187.283995 166.534161 
z
" clip-path="url(#pcd171e7d34)" style="fill: #1f77b4; opacity: 0.4"/>
   </g>
   <g id="patch_41">
    <path d="M 187.728795 173.52 
L 188.173594 173.52 
L 188.173594 168.257641 
L 187.728795 168.257641 
z
" clip-path="url(#pcd171e7d34)" style="fill: #1f77b4; opacity: 0.4"/>
   </g>
   <g id="patch_42">
    <path d="M 188.173594 173.52 
L 188.618394 173.52 
L 188.618394 170.07304 
L 188.173594 170.07304 
z
" clip-path="url(#pcd171e7d34)" style="fill: #1f77b4; opacity: 0.4"/>
   </g>
   <g id="patch_43">
    <path d="M 188.618394 173.52 
L 189.063194 173.52 
L 189.063194 171.957378 
L 188.618394 171.957378 
z
" clip-path="url(#pcd171e7d34)" style="fill: #1f77b4; opacity: 0.4"/>
   </g>
   <g id="patch_44">
    <path d="M 189.063194 173.52 
L 189.507993 173.52 
L 189.507993 172.348034 
L 189.063194 172.348034 
z
" clip-path="url(#pcd171e7d34)" style="fill: #1f77b4; opacity: 0.4"/>
   </g>
   <g id="patch_45">
    <path d="M 189.507993 173.52 
L 189.952793 173.52 
L 189.952793 173.014446 
L 189.507993 173.014446 
z
" clip-path="url(#pcd171e7d34)" style="fill: #1f77b4; opacity: 0.4"/>
   </g>
   <g id="patch_46">
    <path d="M 189.952793 173.52 
L 190.397593 173.52 
L 190.397593 173.244243 
L 189.952793 173.244243 
z
" clip-path="url(#pcd171e7d34)" style="fill: #1f77b4; opacity: 0.4"/>
   </g>
   <g id="patch_47">
    <path d="M 190.397593 173.52 
L 190.842393 173.52 
L 190.842393 173.244243 
L 190.397593 173.244243 
z
" clip-path="url(#pcd171e7d34)" style="fill: #1f77b4; opacity: 0.4"/>
   </g>
   <g id="patch_48">
    <path d="M 190.842393 173.52 
L 191.287192 173.52 
L 191.287192 173.428081 
L 190.842393 173.428081 
z
" clip-path="url(#pcd171e7d34)" style="fill: #1f77b4; opacity: 0.4"/>
   </g>
   <g id="patch_49">
    <path d="M 191.287192 173.52 
L 191.731992 173.52 
L 191.731992 173.474041 
L 191.287192 173.474041 
z
" clip-path="url(#pcd171e7d34)" style="fill: #1f77b4; opacity: 0.4"/>
   </g>
   <g id="patch_50">
    <path d="M 191.731992 173.52 
L 192.176792 173.52 
L 192.176792 173.52 
L 191.731992 173.52 
z
" clip-path="url(#pcd171e7d34)" style="fill: #1f77b4; opacity: 0.4"/>
   </g>
   <g id="patch_51">
    <path d="M 192.176792 173.52 
L 192.621591 173.52 
L 192.621591 173.49702 
L 192.176792 173.49702 
z
" clip-path="url(#pcd171e7d34)" style="fill: #1f77b4; opacity: 0.4"/>
   </g>
   <g id="patch_52">
    <path d="M 192.621591 173.52 
L 193.066391 173.52 
L 193.066391 173.49702 
L 192.621591 173.49702 
z
" clip-path="url(#pcd171e7d34)" style="fill: #1f77b4; opacity: 0.4"/>
   </g>
   <g id="patch_53">
    <path d="M 63.098453 173.52 
L 67.905765 173.52 
L 67.905765 173.518937 
L 63.098453 173.518937 
z
" clip-path="url(#pcd171e7d34)" style="fill: #ff7f0e; opacity: 0.4"/>
   </g>
   <g id="patch_54">
    <path d="M 67.905765 173.52 
L 72.713076 173.52 
L 72.713076 173.517874 
L 67.905765 173.517874 
z
" clip-path="url(#pcd171e7d34)" style="fill: #ff7f0e; opacity: 0.4"/>
   </g>
   <g id="patch_55">
    <path d="M 72.713076 173.52 
L 77.520388 173.52 
L 77.520388 173.516811 
L 72.713076 173.516811 
z
" clip-path="url(#pcd171e7d34)" style="fill: #ff7f0e; opacity: 0.4"/>
   </g>
   <g id="patch_56">
    <path d="M 77.520388 173.52 
L 82.3277 173.52 
L 82.3277 173.50618 
L 77.520388 173.50618 
z
" clip-path="url(#pcd171e7d34)" style="fill: #ff7f0e; opacity: 0.4"/>
   </g>
   <g id="patch_57">
    <path d="M 82.3277 173.52 
L 87.135012 173.52 
L 87.135012 173.505116 
L 82.3277 173.505116 
z
" clip-path="url(#pcd171e7d34)" style="fill: #ff7f0e; opacity: 0.4"/>
   </g>
   <g id="patch_58">
    <path d="M 87.135012 173.52 
L 91.942324 173.52 
L 91.942324 173.491296 
L 87.135012 173.491296 
z
" clip-path="url(#pcd171e7d34)" style="fill: #ff7f0e; opacity: 0.4"/>
   </g>
   <g id="patch_59">
    <path d="M 91.942324 173.52 
L 96.749636 173.52 
L 96.749636 173.461529 
L 91.942324 173.461529 
z
" clip-path="url(#pcd171e7d34)" style="fill: #ff7f0e; opacity: 0.4"/>
   </g>
   <g id="patch_60">
    <path d="M 96.749636 173.52 
L 101.556948 173.52 
L 101.556948 173.420068 
L 96.749636 173.420068 
z
" clip-path="url(#pcd171e7d34)" style="fill: #ff7f0e; opacity: 0.4"/>
   </g>
   <g id="patch_61">
    <path d="M 101.556948 173.52 
L 106.36426 173.52 
L 106.36426 173.349903 
L 101.556948 173.349903 
z
" clip-path="url(#pcd171e7d34)" style="fill: #ff7f0e; opacity: 0.4"/>
   </g>
   <g id="patch_62">
    <path d="M 106.36426 173.52 
L 111.171572 173.52 
L 111.171572 173.219141 
L 106.36426 173.219141 
z
" clip-path="url(#pcd171e7d34)" style="fill: #ff7f0e; opacity: 0.4"/>
   </g>
   <g id="patch_63">
    <path d="M 111.171572 173.52 
L 115.978884 173.52 
L 115.978884 173.022466 
L 111.171572 173.022466 
z
" clip-path="url(#pcd171e7d34)" style="fill: #ff7f0e; opacity: 0.4"/>
   </g>
   <g id="patch_64">
    <path d="M 115.978884 173.52 
L 120.786195 173.52 
L 120.786195 172.707786 
L 115.978884 172.707786 
z
" clip-path="url(#pcd171e7d34)" style="fill: #ff7f0e; opacity: 0.4"/>
   </g>
   <g id="patch_65">
    <path d="M 120.786195 173.52 
L 125.593507 173.52 
L 125.593507 172.413305 
L 120.786195 172.413305 
z
" clip-path="url(#pcd171e7d34)" style="fill: #ff7f0e; opacity: 0.4"/>
   </g>
   <g id="patch_66">
    <path d="M 125.593507 173.52 
L 130.400819 173.52 
L 130.400819 171.753115 
L 125.593507 171.753115 
z
" clip-path="url(#pcd171e7d34)" style="fill: #ff7f0e; opacity: 0.4"/>
   </g>
   <g id="patch_67">
    <path d="M 130.400819 173.52 
L 135.208131 173.52 
L 135.208131 171.031265 
L 130.400819 171.031265 
z
" clip-path="url(#pcd171e7d34)" style="fill: #ff7f0e; opacity: 0.4"/>
   </g>
   <g id="patch_68">
    <path d="M 135.208131 173.52 
L 140.015443 173.52 
L 140.015443 169.821449 
L 135.208131 169.821449 
z
" clip-path="url(#pcd171e7d34)" style="fill: #ff7f0e; opacity: 0.4"/>
   </g>
   <g id="patch_69">
    <path d="M 140.015443 173.52 
L 144.822755 173.52 
L 144.822755 168.664788 
L 140.015443 168.664788 
z
" clip-path="url(#pcd171e7d34)" style="fill: #ff7f0e; opacity: 0.4"/>
   </g>
   <g id="patch_70">
    <path d="M 144.822755 173.52 
L 149.630067 173.52 
L 149.630067 167.217898 
L 144.822755 167.217898 
z
" clip-path="url(#pcd171e7d34)" style="fill: #ff7f0e; opacity: 0.4"/>
   </g>
   <g id="patch_71">
    <path d="M 149.630067 173.52 
L 154.437379 173.52 
L 154.437379 165.279853 
L 149.630067 165.279853 
z
" clip-path="url(#pcd171e7d34)" style="fill: #ff7f0e; opacity: 0.4"/>
   </g>
   <g id="patch_72">
    <path d="M 154.437379 173.52 
L 159.244691 173.52 
L 159.244691 163.400279 
L 154.437379 163.400279 
z
" clip-path="url(#pcd171e7d34)" style="fill: #ff7f0e; opacity: 0.4"/>
   </g>
   <g id="patch_73">
    <path d="M 159.244691 173.52 
L 164.052002 173.52 
L 164.052002 161.693991 
L 159.244691 161.693991 
z
" clip-path="url(#pcd171e7d34)" style="fill: #ff7f0e; opacity: 0.4"/>
   </g>
   <g id="patch_74">
    <path d="M 164.052002 173.52 
L 168.859314 173.52 
L 168.859314 160.105709 
L 164.052002 160.105709 
z
" clip-path="url(#pcd171e7d34)" style="fill: #ff7f0e; opacity: 0.4"/>
   </g>
   <g id="patch_75">
    <path d="M 168.859314 173.52 
L 173.666626 173.52 
L 173.666626 158.572707 
L 168.859314 158.572707 
z
" clip-path="url(#pcd171e7d34)" style="fill: #ff7f0e; opacity: 0.4"/>
   </g>
   <g id="patch_76">
    <path d="M 173.666626 173.52 
L 178.473938 173.52 
L 178.473938 157.837037 
L 173.666626 157.837037 
z
" clip-path="url(#pcd171e7d34)" style="fill: #ff7f0e; opacity: 0.4"/>
   </g>
   <g id="patch_77">
    <path d="M 178.473938 173.52 
L 183.28125 173.52 
L 183.28125 157.320367 
L 178.473938 157.320367 
z
" clip-path="url(#pcd171e7d34)" style="fill: #ff7f0e; opacity: 0.4"/>
   </g>
   <g id="patch_78">
    <path d="M 183.28125 173.52 
L 188.088562 173.52 
L 188.088562 157.763683 
L 183.28125 157.763683 
z
" clip-path="url(#pcd171e7d34)" style="fill: #ff7f0e; opacity: 0.4"/>
   </g>
   <g id="patch_79">
    <path d="M 188.088562 173.52 
L 192.895874 173.52 
L 192.895874 158.301615 
L 188.088562 158.301615 
z
" clip-path="url(#pcd171e7d34)" style="fill: #ff7f0e; opacity: 0.4"/>
   </g>
   <g id="patch_80">
    <path d="M 192.895874 173.52 
L 197.703186 173.52 
L 197.703186 159.696412 
L 192.895874 159.696412 
z
" clip-path="url(#pcd171e7d34)" style="fill: #ff7f0e; opacity: 0.4"/>
   </g>
   <g id="patch_81">
    <path d="M 197.703186 173.52 
L 202.510498 173.52 
L 202.510498 161.206025 
L 197.703186 161.206025 
z
" clip-path="url(#pcd171e7d34)" style="fill: #ff7f0e; opacity: 0.4"/>
   </g>
   <g id="patch_82">
    <path d="M 202.510498 173.52 
L 207.317809 173.52 
L 207.317809 163.063274 
L 202.510498 163.063274 
z
" clip-path="url(#pcd171e7d34)" style="fill: #ff7f0e; opacity: 0.4"/>
   </g>
   <g id="patch_83">
    <path d="M 207.317809 173.52 
L 212.125121 173.52 
L 212.125121 164.875872 
L 207.317809 164.875872 
z
" clip-path="url(#pcd171e7d34)" style="fill: #ff7f0e; opacity: 0.4"/>
   </g>
   <g id="patch_84">
    <path d="M 212.125121 173.52 
L 216.932433 173.52 
L 216.932433 166.615116 
L 212.125121 166.615116 
z
" clip-path="url(#pcd171e7d34)" style="fill: #ff7f0e; opacity: 0.4"/>
   </g>
   <g id="patch_85">
    <path d="M 216.932433 173.52 
L 221.739745 173.52 
L 221.739745 168.403263 
L 216.932433 168.403263 
z
" clip-path="url(#pcd171e7d34)" style="fill: #ff7f0e; opacity: 0.4"/>
   </g>
   <g id="patch_86">
    <path d="M 221.739745 173.52 
L 226.547057 173.52 
L 226.547057 169.692813 
L 221.739745 169.692813 
z
" clip-path="url(#pcd171e7d34)" style="fill: #ff7f0e; opacity: 0.4"/>
   </g>
   <g id="patch_87">
    <path d="M 226.547057 173.52 
L 231.354369 173.52 
L 231.354369 170.842032 
L 226.547057 170.842032 
z
" clip-path="url(#pcd171e7d34)" style="fill: #ff7f0e; opacity: 0.4"/>
   </g>
   <g id="patch_88">
    <path d="M 231.354369 173.52 
L 236.161681 173.52 
L 236.161681 171.613848 
L 231.354369 171.613848 
z
" clip-path="url(#pcd171e7d34)" style="fill: #ff7f0e; opacity: 0.4"/>
   </g>
   <g id="patch_89">
    <path d="M 236.161681 173.52 
L 240.968993 173.52 
L 240.968993 172.293174 
L 236.161681 172.293174 
z
" clip-path="url(#pcd171e7d34)" style="fill: #ff7f0e; opacity: 0.4"/>
   </g>
   <g id="patch_90">
    <path d="M 240.968993 173.52 
L 245.776305 173.52 
L 245.776305 172.65463 
L 240.968993 172.65463 
z
" clip-path="url(#pcd171e7d34)" style="fill: #ff7f0e; opacity: 0.4"/>
   </g>
   <g id="patch_91">
    <path d="M 245.776305 173.52 
L 250.583616 173.52 
L 250.583616 173.020339 
L 245.776305 173.020339 
z
" clip-path="url(#pcd171e7d34)" style="fill: #ff7f0e; opacity: 0.4"/>
   </g>
   <g id="patch_92">
    <path d="M 250.583616 173.52 
L 255.390928 173.52 
L 255.390928 173.197878 
L 250.583616 173.197878 
z
" clip-path="url(#pcd171e7d34)" style="fill: #ff7f0e; opacity: 0.4"/>
   </g>
   <g id="patch_93">
    <path d="M 255.390928 173.52 
L 260.19824 173.52 
L 260.19824 173.337145 
L 255.390928 173.337145 
z
" clip-path="url(#pcd171e7d34)" style="fill: #ff7f0e; opacity: 0.4"/>
   </g>
   <g id="patch_94">
    <path d="M 260.19824 173.52 
L 265.005552 173.52 
L 265.005552 173.42432 
L 260.19824 173.42432 
z
" clip-path="url(#pcd171e7d34)" style="fill: #ff7f0e; opacity: 0.4"/>
   </g>
   <g id="patch_95">
    <path d="M 265.005552 173.52 
L 269.812864 173.52 
L 269.812864 173.463655 
L 265.005552 173.463655 
z
" clip-path="url(#pcd171e7d34)" style="fill: #ff7f0e; opacity: 0.4"/>
   </g>
   <g id="patch_96">
    <path d="M 269.812864 173.52 
L 274.620176 173.52 
L 274.620176 173.48917 
L 269.812864 173.48917 
z
" clip-path="url(#pcd171e7d34)" style="fill: #ff7f0e; opacity: 0.4"/>
   </g>
   <g id="patch_97">
    <path d="M 274.620176 173.52 
L 279.427488 173.52 
L 279.427488 173.499801 
L 274.620176 173.499801 
z
" clip-path="url(#pcd171e7d34)" style="fill: #ff7f0e; opacity: 0.4"/>
   </g>
   <g id="patch_98">
    <path d="M 279.427488 173.52 
L 284.2348 173.52 
L 284.2348 173.509369 
L 279.427488 173.509369 
z
" clip-path="url(#pcd171e7d34)" style="fill: #ff7f0e; opacity: 0.4"/>
   </g>
   <g id="patch_99">
    <path d="M 284.2348 173.52 
L 289.042112 173.52 
L 289.042112 173.511495 
L 284.2348 173.511495 
z
" clip-path="url(#pcd171e7d34)" style="fill: #ff7f0e; opacity: 0.4"/>
   </g>
   <g id="patch_100">
    <path d="M 289.042112 173.52 
L 293.849424 173.52 
L 293.849424 173.516811 
L 289.042112 173.516811 
z
" clip-path="url(#pcd171e7d34)" style="fill: #ff7f0e; opacity: 0.4"/>
   </g>
   <g id="patch_101">
    <path d="M 293.849424 173.52 
L 298.656735 173.52 
L 298.656735 173.518937 
L 293.849424 173.518937 
z
" clip-path="url(#pcd171e7d34)" style="fill: #ff7f0e; opacity: 0.4"/>
   </g>
   <g id="patch_102">
    <path d="M 298.656735 173.52 
L 303.464047 173.52 
L 303.464047 173.518937 
L 298.656735 173.518937 
z
" clip-path="url(#pcd171e7d34)" style="fill: #ff7f0e; opacity: 0.4"/>
   </g>
   <g id="matplotlib.axis_1">
    <g id="xtick_1">
     <g id="line2d_1">
      <defs>
       <path id="ma37a329655" d="M 0 0 
L 0 3.5 
" style="stroke: #000000; stroke-width: 0.8"/>
      </defs>
      <g>
       <use xlink:href="#ma37a329655" x="79.509475" y="173.52" style="stroke: #000000; stroke-width: 0.8"/>
      </g>
     </g>
     <g id="text_1">
      <!-- −40 -->
      <g transform="translate(68.957131 188.118438) scale(0.1 -0.1)">
       <defs>
        <path id="DejaVuSans-2212" d="M 678 2272 
L 4684 2272 
L 4684 1741 
L 678 1741 
L 678 2272 
z
" transform="scale(0.015625)"/>
        <path id="DejaVuSans-34" d="M 2419 4116 
L 825 1625 
L 2419 1625 
L 2419 4116 
z
M 2253 4666 
L 3047 4666 
L 3047 1625 
L 3713 1625 
L 3713 1100 
L 3047 1100 
L 3047 0 
L 2419 0 
L 2419 1100 
L 313 1100 
L 313 1709 
L 2253 4666 
z
" transform="scale(0.015625)"/>
        <path id="DejaVuSans-30" d="M 2034 4250 
Q 1547 4250 1301 3770 
Q 1056 3291 1056 2328 
Q 1056 1369 1301 889 
Q 1547 409 2034 409 
Q 2525 409 2770 889 
Q 3016 1369 3016 2328 
Q 3016 3291 2770 3770 
Q 2525 4250 2034 4250 
z
M 2034 4750 
Q 2819 4750 3233 4129 
Q 3647 3509 3647 2328 
Q 3647 1150 3233 529 
Q 2819 -91 2034 -91 
Q 1250 -91 836 529 
Q 422 1150 422 2328 
Q 422 3509 836 4129 
Q 1250 4750 2034 4750 
z
" transform="scale(0.015625)"/>
       </defs>
       <use xlink:href="#DejaVuSans-2212"/>
       <use xlink:href="#DejaVuSans-34" x="83.789062"/>
       <use xlink:href="#DejaVuSans-30" x="147.412109"/>
      </g>
     </g>
    </g>
    <g id="xtick_2">
     <g id="line2d_2">
      <g>
       <use xlink:href="#ma37a329655" x="130.375392" y="173.52" style="stroke: #000000; stroke-width: 0.8"/>
      </g>
     </g>
     <g id="text_2">
      <!-- −20 -->
      <g transform="translate(119.823048 188.118438) scale(0.1 -0.1)">
       <defs>
        <path id="DejaVuSans-32" d="M 1228 531 
L 3431 531 
L 3431 0 
L 469 0 
L 469 531 
Q 828 903 1448 1529 
Q 2069 2156 2228 2338 
Q 2531 2678 2651 2914 
Q 2772 3150 2772 3378 
Q 2772 3750 2511 3984 
Q 2250 4219 1831 4219 
Q 1534 4219 1204 4116 
Q 875 4013 500 3803 
L 500 4441 
Q 881 4594 1212 4672 
Q 1544 4750 1819 4750 
Q 2544 4750 2975 4387 
Q 3406 4025 3406 3419 
Q 3406 3131 3298 2873 
Q 3191 2616 2906 2266 
Q 2828 2175 2409 1742 
Q 1991 1309 1228 531 
z
" transform="scale(0.015625)"/>
       </defs>
       <use xlink:href="#DejaVuSans-2212"/>
       <use xlink:href="#DejaVuSans-32" x="83.789062"/>
       <use xlink:href="#DejaVuSans-30" x="147.412109"/>
      </g>
     </g>
    </g>
    <g id="xtick_3">
     <g id="line2d_3">
      <g>
       <use xlink:href="#ma37a329655" x="181.241308" y="173.52" style="stroke: #000000; stroke-width: 0.8"/>
      </g>
     </g>
     <g id="text_3">
      <!-- 0 -->
      <g transform="translate(178.060058 188.118438) scale(0.1 -0.1)">
       <use xlink:href="#DejaVuSans-30"/>
      </g>
     </g>
    </g>
    <g id="xtick_4">
     <g id="line2d_4">
      <g>
       <use xlink:href="#ma37a329655" x="232.107225" y="173.52" style="stroke: #000000; stroke-width: 0.8"/>
      </g>
     </g>
     <g id="text_4">
      <!-- 20 -->
      <g transform="translate(225.744725 188.118438) scale(0.1 -0.1)">
       <use xlink:href="#DejaVuSans-32"/>
       <use xlink:href="#DejaVuSans-30" x="63.623047"/>
      </g>
     </g>
    </g>
    <g id="xtick_5">
     <g id="line2d_5">
      <g>
       <use xlink:href="#ma37a329655" x="282.973142" y="173.52" style="stroke: #000000; stroke-width: 0.8"/>
      </g>
     </g>
     <g id="text_5">
      <!-- 40 -->
      <g transform="translate(276.610642 188.118438) scale(0.1 -0.1)">
       <use xlink:href="#DejaVuSans-34"/>
       <use xlink:href="#DejaVuSans-30" x="63.623047"/>
      </g>
     </g>
    </g>
   </g>
   <g id="matplotlib.axis_2">
    <g id="ytick_1">
     <g id="line2d_6">
      <defs>
       <path id="md285f89c5e" d="M 0 0 
L -3.5 0 
" style="stroke: #000000; stroke-width: 0.8"/>
      </defs>
      <g>
       <use xlink:href="#md285f89c5e" x="43.78125" y="173.52" style="stroke: #000000; stroke-width: 0.8"/>
      </g>
     </g>
     <g id="text_6">
      <!-- 0.0 -->
      <g transform="translate(20.878125 177.319219) scale(0.1 -0.1)">
       <defs>
        <path id="DejaVuSans-2e" d="M 684 794 
L 1344 794 
L 1344 0 
L 684 0 
L 684 794 
z
" transform="scale(0.015625)"/>
       </defs>
       <use xlink:href="#DejaVuSans-30"/>
       <use xlink:href="#DejaVuSans-2e" x="63.623047"/>
       <use xlink:href="#DejaVuSans-30" x="95.410156"/>
      </g>
     </g>
    </g>
    <g id="ytick_2">
     <g id="line2d_7">
      <g>
       <use xlink:href="#md285f89c5e" x="43.78125" y="133.330498" style="stroke: #000000; stroke-width: 0.8"/>
      </g>
     </g>
     <g id="text_7">
      <!-- 0.1 -->
      <g transform="translate(20.878125 137.129716) scale(0.1 -0.1)">
       <defs>
        <path id="DejaVuSans-31" d="M 794 531 
L 1825 531 
L 1825 4091 
L 703 3866 
L 703 4441 
L 1819 4666 
L 2450 4666 
L 2450 531 
L 3481 531 
L 3481 0 
L 794 0 
L 794 531 
z
" transform="scale(0.015625)"/>
       </defs>
       <use xlink:href="#DejaVuSans-30"/>
       <use xlink:href="#DejaVuSans-2e" x="63.623047"/>
       <use xlink:href="#DejaVuSans-31" x="95.410156"/>
      </g>
     </g>
    </g>
    <g id="ytick_3">
     <g id="line2d_8">
      <g>
       <use xlink:href="#md285f89c5e" x="43.78125" y="93.140995" style="stroke: #000000; stroke-width: 0.8"/>
      </g>
     </g>
     <g id="text_8">
      <!-- 0.2 -->
      <g transform="translate(20.878125 96.940214) scale(0.1 -0.1)">
       <use xlink:href="#DejaVuSans-30"/>
       <use xlink:href="#DejaVuSans-2e" x="63.623047"/>
       <use xlink:href="#DejaVuSans-32" x="95.410156"/>
      </g>
     </g>
    </g>
    <g id="ytick_4">
     <g id="line2d_9">
      <g>
       <use xlink:href="#md285f89c5e" x="43.78125" y="52.951493" style="stroke: #000000; stroke-width: 0.8"/>
      </g>
     </g>
     <g id="text_9">
      <!-- 0.3 -->
      <g transform="translate(20.878125 56.750712) scale(0.1 -0.1)">
       <defs>
        <path id="DejaVuSans-33" d="M 2597 2516 
Q 3050 2419 3304 2112 
Q 3559 1806 3559 1356 
Q 3559 666 3084 287 
Q 2609 -91 1734 -91 
Q 1441 -91 1130 -33 
Q 819 25 488 141 
L 488 750 
Q 750 597 1062 519 
Q 1375 441 1716 441 
Q 2309 441 2620 675 
Q 2931 909 2931 1356 
Q 2931 1769 2642 2001 
Q 2353 2234 1838 2234 
L 1294 2234 
L 1294 2753 
L 1863 2753 
Q 2328 2753 2575 2939 
Q 2822 3125 2822 3475 
Q 2822 3834 2567 4026 
Q 2313 4219 1838 4219 
Q 1578 4219 1281 4162 
Q 984 4106 628 3988 
L 628 4550 
Q 988 4650 1302 4700 
Q 1616 4750 1894 4750 
Q 2613 4750 3031 4423 
Q 3450 4097 3450 3541 
Q 3450 3153 3228 2886 
Q 3006 2619 2597 2516 
z
" transform="scale(0.015625)"/>
       </defs>
       <use xlink:href="#DejaVuSans-30"/>
       <use xlink:href="#DejaVuSans-2e" x="63.623047"/>
       <use xlink:href="#DejaVuSans-33" x="95.410156"/>
      </g>
     </g>
    </g>
    <g id="ytick_5">
     <g id="line2d_10">
      <g>
       <use xlink:href="#md285f89c5e" x="43.78125" y="12.761991" style="stroke: #000000; stroke-width: 0.8"/>
      </g>
     </g>
     <g id="text_10">
      <!-- 0.4 -->
      <g transform="translate(20.878125 16.56121) scale(0.1 -0.1)">
       <use xlink:href="#DejaVuSans-30"/>
       <use xlink:href="#DejaVuSans-2e" x="63.623047"/>
       <use xlink:href="#DejaVuSans-34" x="95.410156"/>
      </g>
     </g>
    </g>
    <g id="text_11">
     <!-- Density -->
     <g transform="translate(14.798438 109.368594) rotate(-90) scale(0.1 -0.1)">
      <defs>
       <path id="DejaVuSans-44" d="M 1259 4147 
L 1259 519 
L 2022 519 
Q 2988 519 3436 956 
Q 3884 1394 3884 2338 
Q 3884 3275 3436 3711 
Q 2988 4147 2022 4147 
L 1259 4147 
z
M 628 4666 
L 1925 4666 
Q 3281 4666 3915 4102 
Q 4550 3538 4550 2338 
Q 4550 1131 3912 565 
Q 3275 0 1925 0 
L 628 0 
L 628 4666 
z
" transform="scale(0.015625)"/>
       <path id="DejaVuSans-65" d="M 3597 1894 
L 3597 1613 
L 953 1613 
Q 991 1019 1311 708 
Q 1631 397 2203 397 
Q 2534 397 2845 478 
Q 3156 559 3463 722 
L 3463 178 
Q 3153 47 2828 -22 
Q 2503 -91 2169 -91 
Q 1331 -91 842 396 
Q 353 884 353 1716 
Q 353 2575 817 3079 
Q 1281 3584 2069 3584 
Q 2775 3584 3186 3129 
Q 3597 2675 3597 1894 
z
M 3022 2063 
Q 3016 2534 2758 2815 
Q 2500 3097 2075 3097 
Q 1594 3097 1305 2825 
Q 1016 2553 972 2059 
L 3022 2063 
z
" transform="scale(0.015625)"/>
       <path id="DejaVuSans-6e" d="M 3513 2113 
L 3513 0 
L 2938 0 
L 2938 2094 
Q 2938 2591 2744 2837 
Q 2550 3084 2163 3084 
Q 1697 3084 1428 2787 
Q 1159 2491 1159 1978 
L 1159 0 
L 581 0 
L 581 3500 
L 1159 3500 
L 1159 2956 
Q 1366 3272 1645 3428 
Q 1925 3584 2291 3584 
Q 2894 3584 3203 3211 
Q 3513 2838 3513 2113 
z
" transform="scale(0.015625)"/>
       <path id="DejaVuSans-73" d="M 2834 3397 
L 2834 2853 
Q 2591 2978 2328 3040 
Q 2066 3103 1784 3103 
Q 1356 3103 1142 2972 
Q 928 2841 928 2578 
Q 928 2378 1081 2264 
Q 1234 2150 1697 2047 
L 1894 2003 
Q 2506 1872 2764 1633 
Q 3022 1394 3022 966 
Q 3022 478 2636 193 
Q 2250 -91 1575 -91 
Q 1294 -91 989 -36 
Q 684 19 347 128 
L 347 722 
Q 666 556 975 473 
Q 1284 391 1588 391 
Q 1994 391 2212 530 
Q 2431 669 2431 922 
Q 2431 1156 2273 1281 
Q 2116 1406 1581 1522 
L 1381 1569 
Q 847 1681 609 1914 
Q 372 2147 372 2553 
Q 372 3047 722 3315 
Q 1072 3584 1716 3584 
Q 2034 3584 2315 3537 
Q 2597 3491 2834 3397 
z
" transform="scale(0.015625)"/>
       <path id="DejaVuSans-69" d="M 603 3500 
L 1178 3500 
L 1178 0 
L 603 0 
L 603 3500 
z
M 603 4863 
L 1178 4863 
L 1178 4134 
L 603 4134 
L 603 4863 
z
" transform="scale(0.015625)"/>
       <path id="DejaVuSans-74" d="M 1172 4494 
L 1172 3500 
L 2356 3500 
L 2356 3053 
L 1172 3053 
L 1172 1153 
Q 1172 725 1289 603 
Q 1406 481 1766 481 
L 2356 481 
L 2356 0 
L 1766 0 
Q 1100 0 847 248 
Q 594 497 594 1153 
L 594 3053 
L 172 3053 
L 172 3500 
L 594 3500 
L 594 4494 
L 1172 4494 
z
" transform="scale(0.015625)"/>
       <path id="DejaVuSans-79" d="M 2059 -325 
Q 1816 -950 1584 -1140 
Q 1353 -1331 966 -1331 
L 506 -1331 
L 506 -850 
L 844 -850 
Q 1081 -850 1212 -737 
Q 1344 -625 1503 -206 
L 1606 56 
L 191 3500 
L 800 3500 
L 1894 763 
L 2988 3500 
L 3597 3500 
L 2059 -325 
z
" transform="scale(0.015625)"/>
      </defs>
      <use xlink:href="#DejaVuSans-44"/>
      <use xlink:href="#DejaVuSans-65" x="77.001953"/>
      <use xlink:href="#DejaVuSans-6e" x="138.525391"/>
      <use xlink:href="#DejaVuSans-73" x="201.904297"/>
      <use xlink:href="#DejaVuSans-69" x="254.003906"/>
      <use xlink:href="#DejaVuSans-74" x="281.787109"/>
      <use xlink:href="#DejaVuSans-79" x="320.996094"/>
     </g>
    </g>
   </g>
   <g id="line2d_11">
    <path d="M 170.063255 173.519808 
L 171.615827 173.413717 
L 172.21297 173.236846 
L 172.571255 172.934985 
L 173.646113 171.4298 
L 174.004398 170.528596 
L 174.362684 169.065079 
L 174.959827 165.525985 
L 175.55697 159.91627 
L 176.034684 153.54488 
L 176.512398 145.158603 
L 177.348398 124.298805 
L 178.06497 99.710023 
L 179.975827 32.782933 
L 180.57297 18.344677 
L 180.811827 16.016323 
L 181.050684 15.517595 
L 181.40897 15.12 
L 181.528398 15.44883 
L 181.767256 17.452938 
L 182.24497 24.823385 
L 182.722684 38.304934 
L 183.439256 62.195249 
L 185.469541 133.365397 
L 186.066684 146.63449 
L 186.783256 158.516912 
L 187.380398 165.108702 
L 187.858113 167.92827 
L 188.813541 171.599822 
L 189.291256 172.376377 
L 189.888399 173.091609 
L 190.246684 173.235376 
L 191.082684 173.41327 
L 191.918684 173.511949 
L 193.829541 173.519822 
L 193.829541 173.519822 
" clip-path="url(#pcd171e7d34)" style="fill: none; stroke: #1f77b4; stroke-width: 1.5; stroke-linecap: square"/>
   </g>
   <g id="line2d_12">
    <path d="M 56.463068 173.51999 
L 99.797924 173.409746 
L 109.994361 173.176744 
L 116.367134 172.845776 
L 124.014462 172.298938 
L 130.387234 171.400753 
L 134.210898 170.645968 
L 143.13278 168.454096 
L 146.956444 167.263317 
L 157.152881 163.315858 
L 160.976545 161.887499 
L 168.623872 159.379468 
L 171.172981 158.696444 
L 174.996645 158.062363 
L 178.820309 157.519855 
L 181.369418 157.379925 
L 185.193082 157.644631 
L 187.742191 157.867879 
L 190.2913 158.34719 
L 199.213182 160.871225 
L 209.409619 164.739726 
L 213.233283 166.207369 
L 220.88061 168.836887 
L 225.978829 170.126641 
L 231.077047 171.192438 
L 236.175266 171.969958 
L 239.998929 172.399795 
L 250.195366 173.100485 
L 259.117248 173.361335 
L 270.588239 173.474571 
L 296.079331 173.518925 
L 310.099432 173.51999 
L 310.099432 173.51999 
" clip-path="url(#pcd171e7d34)" style="fill: none; stroke: #ff7f0e; stroke-width: 1.5; stroke-linecap: square"/>
   </g>
   <g id="patch_103">
    <path d="M 43.78125 173.52 
L 43.78125 7.2 
" style="fill: none; stroke: #000000; stroke-width: 0.8; stroke-linejoin: miter; stroke-linecap: square"/>
   </g>
   <g id="patch_104">
    <path d="M 322.78125 173.52 
L 322.78125 7.2 
" style="fill: none; stroke: #000000; stroke-width: 0.8; stroke-linejoin: miter; stroke-linecap: square"/>
   </g>
   <g id="patch_105">
    <path d="M 43.78125 173.52 
L 322.78125 173.52 
" style="fill: none; stroke: #000000; stroke-width: 0.8; stroke-linejoin: miter; stroke-linecap: square"/>
   </g>
   <g id="patch_106">
    <path d="M 43.78125 7.2 
L 322.78125 7.2 
" style="fill: none; stroke: #000000; stroke-width: 0.8; stroke-linejoin: miter; stroke-linecap: square"/>
   </g>
   <g id="legend_1">
    <g id="patch_107">
     <path d="M 234.28125 44.698438 
L 315.78125 44.698438 
Q 317.78125 44.698438 317.78125 42.698438 
L 317.78125 14.2 
Q 317.78125 12.2 315.78125 12.2 
L 234.28125 12.2 
Q 232.28125 12.2 232.28125 14.2 
L 232.28125 42.698438 
Q 232.28125 44.698438 234.28125 44.698438 
z
" style="fill: #ffffff; opacity: 0.8; stroke: #cccccc; stroke-linejoin: miter"/>
    </g>
    <g id="patch_108">
     <path d="M 236.28125 23.8 
L 256.28125 23.8 
L 256.28125 16.8 
L 236.28125 16.8 
z
" style="fill: #1f77b4; opacity: 0.4"/>
    </g>
    <g id="text_12">
     <!-- $\mathbf{x}$ - input -->
     <g transform="translate(264.28125 23.8) scale(0.1 -0.1)">
      <defs>
       <path id="DejaVuSans-Bold-78" d="M 1422 1791 
L 159 3500 
L 1344 3500 
L 2059 2463 
L 2784 3500 
L 3969 3500 
L 2706 1797 
L 4031 0 
L 2847 0 
L 2059 1106 
L 1281 0 
L 97 0 
L 1422 1791 
z
" transform="scale(0.015625)"/>
       <path id="DejaVuSans-20" transform="scale(0.015625)"/>
       <path id="DejaVuSans-2d" d="M 313 2009 
L 1997 2009 
L 1997 1497 
L 313 1497 
L 313 2009 
z
" transform="scale(0.015625)"/>
       <path id="DejaVuSans-70" d="M 1159 525 
L 1159 -1331 
L 581 -1331 
L 581 3500 
L 1159 3500 
L 1159 2969 
Q 1341 3281 1617 3432 
Q 1894 3584 2278 3584 
Q 2916 3584 3314 3078 
Q 3713 2572 3713 1747 
Q 3713 922 3314 415 
Q 2916 -91 2278 -91 
Q 1894 -91 1617 61 
Q 1341 213 1159 525 
z
M 3116 1747 
Q 3116 2381 2855 2742 
Q 2594 3103 2138 3103 
Q 1681 3103 1420 2742 
Q 1159 2381 1159 1747 
Q 1159 1113 1420 752 
Q 1681 391 2138 391 
Q 2594 391 2855 752 
Q 3116 1113 3116 1747 
z
" transform="scale(0.015625)"/>
       <path id="DejaVuSans-75" d="M 544 1381 
L 544 3500 
L 1119 3500 
L 1119 1403 
Q 1119 906 1312 657 
Q 1506 409 1894 409 
Q 2359 409 2629 706 
Q 2900 1003 2900 1516 
L 2900 3500 
L 3475 3500 
L 3475 0 
L 2900 0 
L 2900 538 
Q 2691 219 2414 64 
Q 2138 -91 1772 -91 
Q 1169 -91 856 284 
Q 544 659 544 1381 
z
M 1991 3584 
L 1991 3584 
z
" transform="scale(0.015625)"/>
      </defs>
      <use xlink:href="#DejaVuSans-Bold-78" transform="translate(0 0.015625)"/>
      <use xlink:href="#DejaVuSans-20" transform="translate(64.501953 0.015625)"/>
      <use xlink:href="#DejaVuSans-2d" transform="translate(96.289062 0.015625)"/>
      <use xlink:href="#DejaVuSans-20" transform="translate(132.373047 0.015625)"/>
      <use xlink:href="#DejaVuSans-69" transform="translate(164.160156 0.015625)"/>
      <use xlink:href="#DejaVuSans-6e" transform="translate(191.943359 0.015625)"/>
      <use xlink:href="#DejaVuSans-70" transform="translate(255.322266 0.015625)"/>
      <use xlink:href="#DejaVuSans-75" transform="translate(318.798828 0.015625)"/>
      <use xlink:href="#DejaVuSans-74" transform="translate(382.177734 0.015625)"/>
     </g>
    </g>
    <g id="patch_109">
     <path d="M 236.28125 38.498438 
L 256.28125 38.498438 
L 256.28125 31.498438 
L 236.28125 31.498438 
z
" style="fill: #ff7f0e; opacity: 0.4"/>
    </g>
    <g id="text_13">
     <!-- $\mathbf{y}$ - output -->
     <g transform="translate(264.28125 38.498438) scale(0.1 -0.1)">
      <defs>
       <path id="DejaVuSans-Bold-79" d="M 78 3500 
L 1197 3500 
L 2138 1125 
L 2938 3500 
L 4056 3500 
L 2584 -331 
Q 2363 -916 2067 -1148 
Q 1772 -1381 1288 -1381 
L 641 -1381 
L 641 -647 
L 991 -647 
Q 1275 -647 1404 -556 
Q 1534 -466 1606 -231 
L 1638 -134 
L 78 3500 
z
" transform="scale(0.015625)"/>
       <path id="DejaVuSans-6f" d="M 1959 3097 
Q 1497 3097 1228 2736 
Q 959 2375 959 1747 
Q 959 1119 1226 758 
Q 1494 397 1959 397 
Q 2419 397 2687 759 
Q 2956 1122 2956 1747 
Q 2956 2369 2687 2733 
Q 2419 3097 1959 3097 
z
M 1959 3584 
Q 2709 3584 3137 3096 
Q 3566 2609 3566 1747 
Q 3566 888 3137 398 
Q 2709 -91 1959 -91 
Q 1206 -91 779 398 
Q 353 888 353 1747 
Q 353 2609 779 3096 
Q 1206 3584 1959 3584 
z
" transform="scale(0.015625)"/>
      </defs>
      <use xlink:href="#DejaVuSans-Bold-79" transform="translate(0 0.78125)"/>
      <use xlink:href="#DejaVuSans-20" transform="translate(65.185547 0.78125)"/>
      <use xlink:href="#DejaVuSans-2d" transform="translate(96.972656 0.78125)"/>
      <use xlink:href="#DejaVuSans-20" transform="translate(133.056641 0.78125)"/>
      <use xlink:href="#DejaVuSans-6f" transform="translate(164.84375 0.78125)"/>
      <use xlink:href="#DejaVuSans-75" transform="translate(226.025391 0.78125)"/>
      <use xlink:href="#DejaVuSans-74" transform="translate(289.404297 0.78125)"/>
      <use xlink:href="#DejaVuSans-70" transform="translate(328.613281 0.78125)"/>
      <use xlink:href="#DejaVuSans-75" transform="translate(392.089844 0.78125)"/>
      <use xlink:href="#DejaVuSans-74" transform="translate(455.46875 0.78125)"/>
     </g>
    </g>
   </g>
  </g>
 </g>
 <defs>
  <clipPath id="pcd171e7d34">
   <rect x="43.78125" y="7.2" width="279" height="166.32"/>
  </clipPath>
 </defs>
</svg>