<?xml version="1.0" encoding="UTF-8" standalone="no"?>
<!DOCTYPE svg PUBLIC "-//W3C//DTD SVG 1.1//EN"
 "http://www.w3.org/Graphics/SVG/1.1/DTD/svg11.dtd">
<!-- Generated by graphviz version 12.1.0 (20240811.2233)
 -->
<!-- Pages: 1 -->
<svg width="941pt" height="194pt"
 viewBox="0.00 0.00 940.75 194.00" xmlns="http://www.w3.org/2000/svg" xmlns:xlink="http://www.w3.org/1999/xlink">
<g id="graph0" class="graph" transform="scale(1 1) rotate(0) translate(4 190)">
<polygon fill="white" stroke="none" points="-4,4 -4,-190 936.75,-190 936.75,4 -4,4"/>
<!-- 4379142672 -->
<g id="node1" class="node">
<title>4379142672</title>
<polygon fill="none" stroke="black" points="423.5,-68.5 423.5,-117.5 509.25,-117.5 509.25,-68.5 423.5,-68.5"/>
<text text-anchor="middle" x="466.38" y="-100.2" font-family="Times,serif" font-size="14.00">data=1.700</text>
<polyline fill="none" stroke="black" points="423.5,-93 509.25,-93"/>
<text text-anchor="middle" x="466.38" y="-75.7" font-family="Times,serif" font-size="14.00">grad=1.0000</text>
</g>
<!-- 4379501920+ -->
<g id="node13" class="node">
<title>4379501920+</title>
<ellipse fill="none" stroke="black" cx="572.25" cy="-127" rx="27" ry="18"/>
<text text-anchor="middle" x="572.25" y="-121.95" font-family="Times,serif" font-size="14.00">+</text>
</g>
<!-- 4379142672&#45;&gt;4379501920+ -->
<g id="edge9" class="edge">
<title>4379142672&#45;&gt;4379501920+</title>
<path fill="none" stroke="black" d="M509.62,-106.83C518.61,-109.77 527.99,-112.84 536.65,-115.67"/>
<polygon fill="black" stroke="black" points="535.49,-118.98 546.08,-118.76 537.66,-112.32 535.49,-118.98"/>
</g>
<!-- 4379142672+ -->
<g id="node2" class="node">
<title>4379142672+</title>
<ellipse fill="none" stroke="black" cx="360.5" cy="-93" rx="27" ry="18"/>
<text text-anchor="middle" x="360.5" y="-87.95" font-family="Times,serif" font-size="14.00">+</text>
</g>
<!-- 4379142672+&#45;&gt;4379142672 -->
<g id="edge1" class="edge">
<title>4379142672+&#45;&gt;4379142672</title>
<path fill="none" stroke="black" d="M387.98,-93C395.34,-93 403.6,-93 411.91,-93"/>
<polygon fill="black" stroke="black" points="411.69,-96.5 421.69,-93 411.69,-89.5 411.69,-96.5"/>
</g>
<!-- 4379506720 -->
<g id="node3" class="node">
<title>4379506720</title>
<polygon fill="none" stroke="black" points="423.5,-136.5 423.5,-185.5 509.25,-185.5 509.25,-136.5 423.5,-136.5"/>
<text text-anchor="middle" x="466.38" y="-168.2" font-family="Times,serif" font-size="14.00">data=4.000</text>
<polyline fill="none" stroke="black" points="423.5,-161 509.25,-161"/>
<text text-anchor="middle" x="466.38" y="-143.7" font-family="Times,serif" font-size="14.00">grad=2.0000</text>
</g>
<!-- 4379506720&#45;&gt;4379501920+ -->
<g id="edge12" class="edge">
<title>4379506720&#45;&gt;4379501920+</title>
<path fill="none" stroke="black" d="M509.62,-147.17C518.61,-144.23 527.99,-141.16 536.65,-138.33"/>
<polygon fill="black" stroke="black" points="537.66,-141.68 546.08,-135.24 535.49,-135.02 537.66,-141.68"/>
</g>
<!-- 4379142192 -->
<g id="node4" class="node">
<title>4379142192</title>
<polygon fill="none" stroke="black" points="0,-68.5 0,-117.5 85.75,-117.5 85.75,-68.5 0,-68.5"/>
<text text-anchor="middle" x="42.88" y="-100.2" font-family="Times,serif" font-size="14.00">data=1.700</text>
<polyline fill="none" stroke="black" points="0,-93 85.75,-93"/>
<text text-anchor="middle" x="42.88" y="-75.7" font-family="Times,serif" font-size="14.00">grad=1.0000</text>
</g>
<!-- 4379141856* -->
<g id="node9" class="node">
<title>4379141856*</title>
<ellipse fill="none" stroke="black" cx="148.75" cy="-127" rx="27" ry="18"/>
<text text-anchor="middle" x="148.75" y="-121.95" font-family="Times,serif" font-size="14.00">*</text>
</g>
<!-- 4379142192&#45;&gt;4379141856* -->
<g id="edge13" class="edge">
<title>4379142192&#45;&gt;4379141856*</title>
<path fill="none" stroke="black" d="M86.12,-106.83C95.11,-109.77 104.49,-112.84 113.15,-115.67"/>
<polygon fill="black" stroke="black" points="111.99,-118.98 122.58,-118.76 114.16,-112.32 111.99,-118.98"/>
</g>
<!-- 4379141472* -->
<g id="node11" class="node">
<title>4379141472*</title>
<ellipse fill="none" stroke="black" cx="148.75" cy="-59" rx="27" ry="18"/>
<text text-anchor="middle" x="148.75" y="-53.95" font-family="Times,serif" font-size="14.00">*</text>
</g>
<!-- 4379142192&#45;&gt;4379141472* -->
<g id="edge8" class="edge">
<title>4379142192&#45;&gt;4379141472*</title>
<path fill="none" stroke="black" d="M86.12,-79.17C95.11,-76.23 104.49,-73.16 113.15,-70.33"/>
<polygon fill="black" stroke="black" points="114.16,-73.68 122.58,-67.24 111.99,-67.02 114.16,-73.68"/>
</g>
<!-- 4379506768 -->
<g id="node5" class="node">
<title>4379506768</title>
<polygon fill="none" stroke="black" points="0,-0.5 0,-49.5 85.75,-49.5 85.75,-0.5 0,-0.5"/>
<text text-anchor="middle" x="42.88" y="-32.2" font-family="Times,serif" font-size="14.00">data=&#45;1.000</text>
<polyline fill="none" stroke="black" points="0,-25 85.75,-25"/>
<text text-anchor="middle" x="42.88" y="-7.7" font-family="Times,serif" font-size="14.00">grad=3.7000</text>
</g>
<!-- 4379506768&#45;&gt;4379141472* -->
<g id="edge10" class="edge">
<title>4379506768&#45;&gt;4379141472*</title>
<path fill="none" stroke="black" d="M86.12,-38.83C95.11,-41.77 104.49,-44.84 113.15,-47.67"/>
<polygon fill="black" stroke="black" points="111.99,-50.98 122.58,-50.76 114.16,-44.32 111.99,-50.98"/>
</g>
<!-- 4379142000 -->
<g id="node6" class="node">
<title>4379142000</title>
<polygon fill="none" stroke="black" points="847,-102.5 847,-151.5 932.75,-151.5 932.75,-102.5 847,-102.5"/>
<text text-anchor="middle" x="889.88" y="-134.2" font-family="Times,serif" font-size="14.00">data=5.700</text>
<polyline fill="none" stroke="black" points="847,-127 932.75,-127"/>
<text text-anchor="middle" x="889.88" y="-109.7" font-family="Times,serif" font-size="14.00">grad=1.0000</text>
</g>
<!-- 4379142000relu -->
<g id="node7" class="node">
<title>4379142000relu</title>
<ellipse fill="none" stroke="black" cx="784" cy="-127" rx="27" ry="18"/>
<text text-anchor="middle" x="784" y="-121.95" font-family="Times,serif" font-size="14.00">relu</text>
</g>
<!-- 4379142000relu&#45;&gt;4379142000 -->
<g id="edge2" class="edge">
<title>4379142000relu&#45;&gt;4379142000</title>
<path fill="none" stroke="black" d="M811.48,-127C818.84,-127 827.1,-127 835.41,-127"/>
<polygon fill="black" stroke="black" points="835.19,-130.5 845.19,-127 835.19,-123.5 835.19,-130.5"/>
</g>
<!-- 4379141856 -->
<g id="node8" class="node">
<title>4379141856</title>
<polygon fill="none" stroke="black" points="211.75,-102.5 211.75,-151.5 297.5,-151.5 297.5,-102.5 211.75,-102.5"/>
<text text-anchor="middle" x="254.62" y="-134.2" font-family="Times,serif" font-size="14.00">data=3.400</text>
<polyline fill="none" stroke="black" points="211.75,-127 297.5,-127"/>
<text text-anchor="middle" x="254.62" y="-109.7" font-family="Times,serif" font-size="14.00">grad=1.0000</text>
</g>
<!-- 4379141856&#45;&gt;4379142672+ -->
<g id="edge14" class="edge">
<title>4379141856&#45;&gt;4379142672+</title>
<path fill="none" stroke="black" d="M297.87,-113.17C306.86,-110.23 316.24,-107.16 324.9,-104.33"/>
<polygon fill="black" stroke="black" points="325.91,-107.68 334.33,-101.24 323.74,-101.02 325.91,-107.68"/>
</g>
<!-- 4379141856*&#45;&gt;4379141856 -->
<g id="edge3" class="edge">
<title>4379141856*&#45;&gt;4379141856</title>
<path fill="none" stroke="black" d="M176.23,-127C183.59,-127 191.85,-127 200.16,-127"/>
<polygon fill="black" stroke="black" points="199.94,-130.5 209.94,-127 199.94,-123.5 199.94,-130.5"/>
</g>
<!-- 4379141472 -->
<g id="node10" class="node">
<title>4379141472</title>
<polygon fill="none" stroke="black" points="211.75,-34.5 211.75,-83.5 297.5,-83.5 297.5,-34.5 211.75,-34.5"/>
<text text-anchor="middle" x="254.62" y="-66.2" font-family="Times,serif" font-size="14.00">data=&#45;1.700</text>
<polyline fill="none" stroke="black" points="211.75,-59 297.5,-59"/>
<text text-anchor="middle" x="254.62" y="-41.7" font-family="Times,serif" font-size="14.00">grad=1.0000</text>
</g>
<!-- 4379141472&#45;&gt;4379142672+ -->
<g id="edge11" class="edge">
<title>4379141472&#45;&gt;4379142672+</title>
<path fill="none" stroke="black" d="M297.87,-72.83C306.86,-75.77 316.24,-78.84 324.9,-81.67"/>
<polygon fill="black" stroke="black" points="323.74,-84.98 334.33,-84.76 325.91,-78.32 323.74,-84.98"/>
</g>
<!-- 4379141472*&#45;&gt;4379141472 -->
<g id="edge4" class="edge">
<title>4379141472*&#45;&gt;4379141472</title>
<path fill="none" stroke="black" d="M176.23,-59C183.59,-59 191.85,-59 200.16,-59"/>
<polygon fill="black" stroke="black" points="199.94,-62.5 209.94,-59 199.94,-55.5 199.94,-62.5"/>
</g>
<!-- 4379501920 -->
<g id="node12" class="node">
<title>4379501920</title>
<polygon fill="none" stroke="black" points="635.25,-102.5 635.25,-151.5 721,-151.5 721,-102.5 635.25,-102.5"/>
<text text-anchor="middle" x="678.12" y="-134.2" font-family="Times,serif" font-size="14.00">data=5.700</text>
<polyline fill="none" stroke="black" points="635.25,-127 721,-127"/>
<text text-anchor="middle" x="678.12" y="-109.7" font-family="Times,serif" font-size="14.00">grad=1.0000</text>
</g>
<!-- 4379501920&#45;&gt;4379142000relu -->
<g id="edge7" class="edge">
<title>4379501920&#45;&gt;4379142000relu</title>
<path fill="none" stroke="black" d="M721.37,-127C729.28,-127 737.5,-127 745.26,-127"/>
<polygon fill="black" stroke="black" points="745.07,-130.5 755.07,-127 745.07,-123.5 745.07,-130.5"/>
</g>
<!-- 4379501920+&#45;&gt;4379501920 -->
<g id="edge5" class="edge">
<title>4379501920+&#45;&gt;4379501920</title>
<path fill="none" stroke="black" d="M599.73,-127C607.09,-127 615.35,-127 623.66,-127"/>
<polygon fill="black" stroke="black" points="623.44,-130.5 633.44,-127 623.44,-123.5 623.44,-130.5"/>
</g>
<!-- 4379506672 -->
<g id="node14" class="node">
<title>4379506672</title>
<polygon fill="none" stroke="black" points="0,-136.5 0,-185.5 85.75,-185.5 85.75,-136.5 0,-136.5"/>
<text text-anchor="middle" x="42.88" y="-168.2" font-family="Times,serif" font-size="14.00">data=2.000</text>
<polyline fill="none" stroke="black" points="0,-161 85.75,-161"/>
<text text-anchor="middle" x="42.88" y="-143.7" font-family="Times,serif" font-size="14.00">grad=3.7000</text>
</g>
<!-- 4379506672&#45;&gt;4379141856* -->
<g id="edge6" class="edge">
<title>4379506672&#45;&gt;4379141856*</title>
<path fill="none" stroke="black" d="M86.12,-147.17C95.11,-144.23 104.49,-141.16 113.15,-138.33"/>
<polygon fill="black" stroke="black" points="114.16,-141.68 122.58,-135.24 111.99,-135.02 114.16,-141.68"/>
</g>
</g>
</svg>