<?xml version="1.0" encoding="utf-8" standalone="no"?>
<!DOCTYPE svg PUBLIC "-//W3C//DTD SVG 1.1//EN"
  "http://www.w3.org/Graphics/SVG/1.1/DTD/svg11.dtd">
<svg xmlns:xlink="http://www.w3.org/1999/xlink" width="617.360937pt" height="266.51625pt" viewBox="0 0 617.360937 266.51625" xmlns="http://www.w3.org/2000/svg" version="1.1">
 <metadata>
  <rdf:RDF xmlns:dc="http://purl.org/dc/elements/1.1/" xmlns:cc="http://creativecommons.org/ns#" xmlns:rdf="http://www.w3.org/1999/02/22-rdf-syntax-ns#">
   <cc:Work>
    <dc:type rdf:resource="http://purl.org/dc/dcmitype/StillImage"/>
    <dc:date>2024-03-14T02:42:00.882193</dc:date>
    <dc:format>image/svg+xml</dc:format>
    <dc:creator>
     <cc:Agent>
      <dc:title>Matplotlib v3.7.1, https://matplotlib.org/</dc:title>
     </cc:Agent>
    </dc:creator>
   </cc:Work>
  </rdf:RDF>
 </metadata>
 <defs>
  <style type="text/css">*{stroke-linejoin: round; stroke-linecap: butt}</style>
 </defs>
 <g id="figure_1">
  <g id="patch_1">
   <path d="M 0 266.51625 
L 617.360937 266.51625 
L 617.360937 0 
L 0 0 
z
" style="fill: #ffffff"/>
  </g>
  <g id="axes_1">
   <g id="patch_2">
    <path d="M 52.160938 228.96 
L 305.797301 228.96 
L 305.797301 7.2 
L 52.160938 7.2 
z
" style="fill: #ffffff"/>
   </g>
   <g id="matplotlib.axis_1">
    <g id="xtick_1">
     <g id="line2d_1">
      <defs>
       <path id="m61201e198a" d="M 0 0 
L 0 3.5 
" style="stroke: #000000; stroke-width: 0.8"/>
      </defs>
      <g>
       <use xlink:href="#m61201e198a" x="68.885992" y="228.96" style="stroke: #000000; stroke-width: 0.8"/>
      </g>
     </g>
     <g id="text_1">
      <!-- −6 -->
      <g transform="translate(61.514899 243.558437) scale(0.1 -0.1)">
       <defs>
        <path id="DejaVuSans-2212" d="M 678 2272 
L 4684 2272 
L 4684 1741 
L 678 1741 
L 678 2272 
z
" transform="scale(0.015625)"/>
        <path id="DejaVuSans-36" d="M 2113 2584 
Q 1688 2584 1439 2293 
Q 1191 2003 1191 1497 
Q 1191 994 1439 701 
Q 1688 409 2113 409 
Q 2538 409 2786 701 
Q 3034 994 3034 1497 
Q 3034 2003 2786 2293 
Q 2538 2584 2113 2584 
z
M 3366 4563 
L 3366 3988 
Q 3128 4100 2886 4159 
Q 2644 4219 2406 4219 
Q 1781 4219 1451 3797 
Q 1122 3375 1075 2522 
Q 1259 2794 1537 2939 
Q 1816 3084 2150 3084 
Q 2853 3084 3261 2657 
Q 3669 2231 3669 1497 
Q 3669 778 3244 343 
Q 2819 -91 2113 -91 
Q 1303 -91 875 529 
Q 447 1150 447 2328 
Q 447 3434 972 4092 
Q 1497 4750 2381 4750 
Q 2619 4750 2861 4703 
Q 3103 4656 3366 4563 
z
" transform="scale(0.015625)"/>
       </defs>
       <use xlink:href="#DejaVuSans-2212"/>
       <use xlink:href="#DejaVuSans-36" x="83.789062"/>
      </g>
     </g>
    </g>
    <g id="xtick_2">
     <g id="line2d_2">
      <g>
       <use xlink:href="#m61201e198a" x="105.583701" y="228.96" style="stroke: #000000; stroke-width: 0.8"/>
      </g>
     </g>
     <g id="text_2">
      <!-- −4 -->
      <g transform="translate(98.212608 243.558437) scale(0.1 -0.1)">
       <defs>
        <path id="DejaVuSans-34" d="M 2419 4116 
L 825 1625 
L 2419 1625 
L 2419 4116 
z
M 2253 4666 
L 3047 4666 
L 3047 1625 
L 3713 1625 
L 3713 1100 
L 3047 1100 
L 3047 0 
L 2419 0 
L 2419 1100 
L 313 1100 
L 313 1709 
L 2253 4666 
z
" transform="scale(0.015625)"/>
       </defs>
       <use xlink:href="#DejaVuSans-2212"/>
       <use xlink:href="#DejaVuSans-34" x="83.789062"/>
      </g>
     </g>
    </g>
    <g id="xtick_3">
     <g id="line2d_3">
      <g>
       <use xlink:href="#m61201e198a" x="142.28141" y="228.96" style="stroke: #000000; stroke-width: 0.8"/>
      </g>
     </g>
     <g id="text_3">
      <!-- −2 -->
      <g transform="translate(134.910317 243.558437) scale(0.1 -0.1)">
       <defs>
        <path id="DejaVuSans-32" d="M 1228 531 
L 3431 531 
L 3431 0 
L 469 0 
L 469 531 
Q 828 903 1448 1529 
Q 2069 2156 2228 2338 
Q 2531 2678 2651 2914 
Q 2772 3150 2772 3378 
Q 2772 3750 2511 3984 
Q 2250 4219 1831 4219 
Q 1534 4219 1204 4116 
Q 875 4013 500 3803 
L 500 4441 
Q 881 4594 1212 4672 
Q 1544 4750 1819 4750 
Q 2544 4750 2975 4387 
Q 3406 4025 3406 3419 
Q 3406 3131 3298 2873 
Q 3191 2616 2906 2266 
Q 2828 2175 2409 1742 
Q 1991 1309 1228 531 
z
" transform="scale(0.015625)"/>
       </defs>
       <use xlink:href="#DejaVuSans-2212"/>
       <use xlink:href="#DejaVuSans-32" x="83.789062"/>
      </g>
     </g>
    </g>
    <g id="xtick_4">
     <g id="line2d_4">
      <g>
       <use xlink:href="#m61201e198a" x="178.979119" y="228.96" style="stroke: #000000; stroke-width: 0.8"/>
      </g>
     </g>
     <g id="text_4">
      <!-- 0 -->
      <g transform="translate(175.797869 243.558437) scale(0.1 -0.1)">
       <defs>
        <path id="DejaVuSans-30" d="M 2034 4250 
Q 1547 4250 1301 3770 
Q 1056 3291 1056 2328 
Q 1056 1369 1301 889 
Q 1547 409 2034 409 
Q 2525 409 2770 889 
Q 3016 1369 3016 2328 
Q 3016 3291 2770 3770 
Q 2525 4250 2034 4250 
z
M 2034 4750 
Q 2819 4750 3233 4129 
Q 3647 3509 3647 2328 
Q 3647 1150 3233 529 
Q 2819 -91 2034 -91 
Q 1250 -91 836 529 
Q 422 1150 422 2328 
Q 422 3509 836 4129 
Q 1250 4750 2034 4750 
z
" transform="scale(0.015625)"/>
       </defs>
       <use xlink:href="#DejaVuSans-30"/>
      </g>
     </g>
    </g>
    <g id="xtick_5">
     <g id="line2d_5">
      <g>
       <use xlink:href="#m61201e198a" x="215.676828" y="228.96" style="stroke: #000000; stroke-width: 0.8"/>
      </g>
     </g>
     <g id="text_5">
      <!-- 2 -->
      <g transform="translate(212.495578 243.558437) scale(0.1 -0.1)">
       <use xlink:href="#DejaVuSans-32"/>
      </g>
     </g>
    </g>
    <g id="xtick_6">
     <g id="line2d_6">
      <g>
       <use xlink:href="#m61201e198a" x="252.374537" y="228.96" style="stroke: #000000; stroke-width: 0.8"/>
      </g>
     </g>
     <g id="text_6">
      <!-- 4 -->
      <g transform="translate(249.193287 243.558437) scale(0.1 -0.1)">
       <use xlink:href="#DejaVuSans-34"/>
      </g>
     </g>
    </g>
    <g id="xtick_7">
     <g id="line2d_7">
      <g>
       <use xlink:href="#m61201e198a" x="289.072246" y="228.96" style="stroke: #000000; stroke-width: 0.8"/>
      </g>
     </g>
     <g id="text_7">
      <!-- 6 -->
      <g transform="translate(285.890996 243.558437) scale(0.1 -0.1)">
       <use xlink:href="#DejaVuSans-36"/>
      </g>
     </g>
    </g>
    <g id="text_8">
     <!-- x -->
     <g transform="translate(176.019744 257.236562) scale(0.1 -0.1)">
      <defs>
       <path id="DejaVuSans-78" d="M 3513 3500 
L 2247 1797 
L 3578 0 
L 2900 0 
L 1881 1375 
L 863 0 
L 184 0 
L 1544 1831 
L 300 3500 
L 978 3500 
L 1906 2253 
L 2834 3500 
L 3513 3500 
z
" transform="scale(0.015625)"/>
      </defs>
      <use xlink:href="#DejaVuSans-78"/>
     </g>
    </g>
   </g>
   <g id="matplotlib.axis_2">
    <g id="ytick_1">
     <g id="line2d_8">
      <defs>
       <path id="m796bb7b208" d="M 0 0 
L -3.5 0 
" style="stroke: #000000; stroke-width: 0.8"/>
      </defs>
      <g>
       <use xlink:href="#m796bb7b208" x="52.160938" y="225.032105" style="stroke: #000000; stroke-width: 0.8"/>
      </g>
     </g>
     <g id="text_9">
      <!-- −2.0 -->
      <g transform="translate(20.878125 228.831324) scale(0.1 -0.1)">
       <defs>
        <path id="DejaVuSans-2e" d="M 684 794 
L 1344 794 
L 1344 0 
L 684 0 
L 684 794 
z
" transform="scale(0.015625)"/>
       </defs>
       <use xlink:href="#DejaVuSans-2212"/>
       <use xlink:href="#DejaVuSans-32" x="83.789062"/>
       <use xlink:href="#DejaVuSans-2e" x="147.412109"/>
       <use xlink:href="#DejaVuSans-30" x="179.199219"/>
      </g>
     </g>
    </g>
    <g id="ytick_2">
     <g id="line2d_9">
      <g>
       <use xlink:href="#m796bb7b208" x="52.160938" y="198.294079" style="stroke: #000000; stroke-width: 0.8"/>
      </g>
     </g>
     <g id="text_10">
      <!-- −1.5 -->
      <g transform="translate(20.878125 202.093298) scale(0.1 -0.1)">
       <defs>
        <path id="DejaVuSans-31" d="M 794 531 
L 1825 531 
L 1825 4091 
L 703 3866 
L 703 4441 
L 1819 4666 
L 2450 4666 
L 2450 531 
L 3481 531 
L 3481 0 
L 794 0 
L 794 531 
z
" transform="scale(0.015625)"/>
        <path id="DejaVuSans-35" d="M 691 4666 
L 3169 4666 
L 3169 4134 
L 1269 4134 
L 1269 2991 
Q 1406 3038 1543 3061 
Q 1681 3084 1819 3084 
Q 2600 3084 3056 2656 
Q 3513 2228 3513 1497 
Q 3513 744 3044 326 
Q 2575 -91 1722 -91 
Q 1428 -91 1123 -41 
Q 819 9 494 109 
L 494 744 
Q 775 591 1075 516 
Q 1375 441 1709 441 
Q 2250 441 2565 725 
Q 2881 1009 2881 1497 
Q 2881 1984 2565 2268 
Q 2250 2553 1709 2553 
Q 1456 2553 1204 2497 
Q 953 2441 691 2322 
L 691 4666 
z
" transform="scale(0.015625)"/>
       </defs>
       <use xlink:href="#DejaVuSans-2212"/>
       <use xlink:href="#DejaVuSans-31" x="83.789062"/>
       <use xlink:href="#DejaVuSans-2e" x="147.412109"/>
       <use xlink:href="#DejaVuSans-35" x="179.199219"/>
      </g>
     </g>
    </g>
    <g id="ytick_3">
     <g id="line2d_10">
      <g>
       <use xlink:href="#m796bb7b208" x="52.160938" y="171.556053" style="stroke: #000000; stroke-width: 0.8"/>
      </g>
     </g>
     <g id="text_11">
      <!-- −1.0 -->
      <g transform="translate(20.878125 175.355271) scale(0.1 -0.1)">
       <use xlink:href="#DejaVuSans-2212"/>
       <use xlink:href="#DejaVuSans-31" x="83.789062"/>
       <use xlink:href="#DejaVuSans-2e" x="147.412109"/>
       <use xlink:href="#DejaVuSans-30" x="179.199219"/>
      </g>
     </g>
    </g>
    <g id="ytick_4">
     <g id="line2d_11">
      <g>
       <use xlink:href="#m796bb7b208" x="52.160938" y="144.818026" style="stroke: #000000; stroke-width: 0.8"/>
      </g>
     </g>
     <g id="text_12">
      <!-- −0.5 -->
      <g transform="translate(20.878125 148.617245) scale(0.1 -0.1)">
       <use xlink:href="#DejaVuSans-2212"/>
       <use xlink:href="#DejaVuSans-30" x="83.789062"/>
       <use xlink:href="#DejaVuSans-2e" x="147.412109"/>
       <use xlink:href="#DejaVuSans-35" x="179.199219"/>
      </g>
     </g>
    </g>
    <g id="ytick_5">
     <g id="line2d_12">
      <g>
       <use xlink:href="#m796bb7b208" x="52.160938" y="118.08" style="stroke: #000000; stroke-width: 0.8"/>
      </g>
     </g>
     <g id="text_13">
      <!-- 0.0 -->
      <g transform="translate(29.257813 121.879219) scale(0.1 -0.1)">
       <use xlink:href="#DejaVuSans-30"/>
       <use xlink:href="#DejaVuSans-2e" x="63.623047"/>
       <use xlink:href="#DejaVuSans-30" x="95.410156"/>
      </g>
     </g>
    </g>
    <g id="ytick_6">
     <g id="line2d_13">
      <g>
       <use xlink:href="#m796bb7b208" x="52.160938" y="91.341974" style="stroke: #000000; stroke-width: 0.8"/>
      </g>
     </g>
     <g id="text_14">
      <!-- 0.5 -->
      <g transform="translate(29.257813 95.141192) scale(0.1 -0.1)">
       <use xlink:href="#DejaVuSans-30"/>
       <use xlink:href="#DejaVuSans-2e" x="63.623047"/>
       <use xlink:href="#DejaVuSans-35" x="95.410156"/>
      </g>
     </g>
    </g>
    <g id="ytick_7">
     <g id="line2d_14">
      <g>
       <use xlink:href="#m796bb7b208" x="52.160938" y="64.603947" style="stroke: #000000; stroke-width: 0.8"/>
      </g>
     </g>
     <g id="text_15">
      <!-- 1.0 -->
      <g transform="translate(29.257813 68.403166) scale(0.1 -0.1)">
       <use xlink:href="#DejaVuSans-31"/>
       <use xlink:href="#DejaVuSans-2e" x="63.623047"/>
       <use xlink:href="#DejaVuSans-30" x="95.410156"/>
      </g>
     </g>
    </g>
    <g id="ytick_8">
     <g id="line2d_15">
      <g>
       <use xlink:href="#m796bb7b208" x="52.160938" y="37.865921" style="stroke: #000000; stroke-width: 0.8"/>
      </g>
     </g>
     <g id="text_16">
      <!-- 1.5 -->
      <g transform="translate(29.257813 41.66514) scale(0.1 -0.1)">
       <use xlink:href="#DejaVuSans-31"/>
       <use xlink:href="#DejaVuSans-2e" x="63.623047"/>
       <use xlink:href="#DejaVuSans-35" x="95.410156"/>
      </g>
     </g>
    </g>
    <g id="ytick_9">
     <g id="line2d_16">
      <g>
       <use xlink:href="#m796bb7b208" x="52.160938" y="11.127895" style="stroke: #000000; stroke-width: 0.8"/>
      </g>
     </g>
     <g id="text_17">
      <!-- 2.0 -->
      <g transform="translate(29.257813 14.927113) scale(0.1 -0.1)">
       <use xlink:href="#DejaVuSans-32"/>
       <use xlink:href="#DejaVuSans-2e" x="63.623047"/>
       <use xlink:href="#DejaVuSans-30" x="95.410156"/>
      </g>
     </g>
    </g>
    <g id="text_18">
     <!-- y -->
     <g transform="translate(14.798438 121.039375) rotate(-90) scale(0.1 -0.1)">
      <defs>
       <path id="DejaVuSans-79" d="M 2059 -325 
Q 1816 -950 1584 -1140 
Q 1353 -1331 966 -1331 
L 506 -1331 
L 506 -850 
L 844 -850 
Q 1081 -850 1212 -737 
Q 1344 -625 1503 -206 
L 1606 56 
L 191 3500 
L 800 3500 
L 1894 763 
L 2988 3500 
L 3597 3500 
L 2059 -325 
z
" transform="scale(0.015625)"/>
      </defs>
      <use xlink:href="#DejaVuSans-79"/>
     </g>
    </g>
   </g>
   <g id="line2d_17">
    <path d="M 63.689863 218.88 
L 70.383332 193.950026 
L 73.845476 181.891266 
L 76.845992 172.236777 
L 79.384897 164.793069 
L 81.692993 158.693263 
L 83.770271 153.802346 
L 85.616747 149.964561 
L 87.463224 146.630098 
L 89.078891 144.139131 
L 90.694558 142.055284 
L 92.079407 140.597192 
L 93.464265 139.44348 
L 94.849122 138.593828 
L 96.00317 138.11662 
L 97.157218 137.847066 
L 98.311266 137.782244 
L 99.465305 137.91841 
L 100.619353 138.251043 
L 102.00421 138.90202 
L 103.389068 139.817626 
L 104.773925 140.985755 
L 106.389588 142.649585 
L 108.236065 144.918656 
L 110.082537 147.541996 
L 112.159823 150.863213 
L 114.698724 155.361263 
L 117.930054 161.591476 
L 129.239711 183.901177 
L 131.778616 188.16972 
L 133.855898 191.257643 
L 135.702375 193.641821 
L 137.318037 195.416156 
L 138.933705 196.873496 
L 140.318562 197.853424 
L 141.703415 198.571614 
L 143.088273 199.017075 
L 144.242318 199.173106 
L 145.396366 199.128559 
L 146.550412 198.879621 
L 147.704458 198.423291 
L 148.858506 197.757375 
L 150.243361 196.679778 
L 151.628216 195.297712 
L 153.013074 193.612159 
L 154.628739 191.265796 
L 156.244404 188.517334 
L 158.090878 184.897284 
L 159.937353 180.785951 
L 162.014637 175.60511 
L 164.32273 169.209674 
L 166.861633 161.478335 
L 169.631344 152.332964 
L 173.093485 140.086449 
L 177.940481 122.013506 
L 185.787991 92.735307 
L 189.250132 80.704816 
L 192.250653 71.083053 
L 194.789555 63.67236 
L 197.097649 57.606232 
L 199.174932 52.748143 
L 201.021406 48.941215 
L 202.867881 45.638843 
L 204.483548 43.176719 
L 206.099213 41.12219 
L 207.484068 39.689426 
L 208.868923 38.561091 
L 210.253781 37.736709 
L 211.407827 37.280379 
L 212.561872 37.031441 
L 213.71592 36.986894 
L 214.869966 37.142925 
L 216.024014 37.494931 
L 217.408871 38.168382 
L 218.793725 39.105516 
L 220.178582 40.294098 
L 221.794245 41.98027 
L 223.640721 44.272676 
L 225.487194 46.916769 
L 227.79529 50.650508 
L 230.334191 55.205626 
L 233.56552 61.482174 
L 243.951943 82.066897 
L 246.490844 86.443676 
L 248.79894 89.97136 
L 250.645412 92.422707 
L 252.491884 94.499663 
L 254.107552 95.980417 
L 255.492409 96.981615 
L 256.877267 97.722053 
L 258.262124 98.190623 
L 259.416163 98.36647 
L 260.570211 98.342169 
L 261.724259 98.113819 
L 262.878307 97.678337 
L 264.032355 97.033455 
L 265.417212 95.981217 
L 266.802061 94.624517 
L 268.186919 92.964173 
L 269.802586 90.646845 
L 271.418253 87.926795 
L 273.26473 84.338174 
L 275.111198 80.256869 
L 277.188484 75.107724 
L 279.49658 68.744449 
L 282.035485 61.044204 
L 284.805191 51.926987 
L 288.267335 39.706198 
L 293.114328 21.650158 
L 294.268376 17.28 
L 294.268376 17.28 
" clip-path="url(#pd4203c89cf)" style="fill: none; stroke: #ff7f0e; stroke-width: 1.5; stroke-linecap: square"/>
   </g>
   <g id="patch_3">
    <path d="M 52.160938 228.96 
L 52.160938 7.2 
" style="fill: none; stroke: #000000; stroke-width: 0.8; stroke-linejoin: miter; stroke-linecap: square"/>
   </g>
   <g id="patch_4">
    <path d="M 305.797301 228.96 
L 305.797301 7.2 
" style="fill: none; stroke: #000000; stroke-width: 0.8; stroke-linejoin: miter; stroke-linecap: square"/>
   </g>
   <g id="patch_5">
    <path d="M 52.160938 228.96 
L 305.797301 228.96 
" style="fill: none; stroke: #000000; stroke-width: 0.8; stroke-linejoin: miter; stroke-linecap: square"/>
   </g>
   <g id="patch_6">
    <path d="M 52.160938 7.2 
L 305.797301 7.2 
" style="fill: none; stroke: #000000; stroke-width: 0.8; stroke-linejoin: miter; stroke-linecap: square"/>
   </g>
   <g id="PathCollection_1">
    <defs>
     <path id="C0_0_87bcae16d6" d="M 0 1.732051 
C 0.459345 1.732051 0.899939 1.549551 1.224745 1.224745 
C 1.549551 0.899939 1.732051 0.459345 1.732051 -0 
C 1.732051 -0.459345 1.549551 -0.899939 1.224745 -1.224745 
C 0.899939 -1.549551 0.459345 -1.732051 0 -1.732051 
C -0.459345 -1.732051 -0.899939 -1.549551 -1.224745 -1.224745 
C -1.549551 -0.899939 -1.732051 -0.459345 -1.732051 0 
C -1.732051 0.459345 -1.549551 0.899939 -1.224745 1.224745 
C -0.899939 1.549551 -0.459345 1.732051 0 1.732051 
z
"/>
    </defs>
    <g clip-path="url(#pd4203c89cf)">
     <use xlink:href="#C0_0_87bcae16d6" x="68.536856" y="200.679762" style="fill: none; stroke: #000000"/>
    </g>
    <g clip-path="url(#pd4203c89cf)">
     <use xlink:href="#C0_0_87bcae16d6" x="90.925368" y="141.791168" style="fill: none; stroke: #000000"/>
    </g>
    <g clip-path="url(#pd4203c89cf)">
     <use xlink:href="#C0_0_87bcae16d6" x="96.464789" y="137.984026" style="fill: none; stroke: #000000"/>
    </g>
    <g clip-path="url(#pd4203c89cf)">
     <use xlink:href="#C0_0_87bcae16d6" x="97.157218" y="137.847066" style="fill: none; stroke: #000000"/>
    </g>
    <g clip-path="url(#pd4203c89cf)">
     <use xlink:href="#C0_0_87bcae16d6" x="100.157734" y="138.094738" style="fill: none; stroke: #000000"/>
    </g>
    <g clip-path="url(#pd4203c89cf)">
     <use xlink:href="#C0_0_87bcae16d6" x="118.391673" y="162.513109" style="fill: none; stroke: #000000"/>
    </g>
    <g clip-path="url(#pd4203c89cf)">
     <use xlink:href="#C0_0_87bcae16d6" x="127.624048" y="180.954374" style="fill: none; stroke: #000000"/>
    </g>
    <g clip-path="url(#pd4203c89cf)">
     <use xlink:href="#C0_0_87bcae16d6" x="138.472085" y="196.490802" style="fill: none; stroke: #000000"/>
    </g>
    <g clip-path="url(#pd4203c89cf)">
     <use xlink:href="#C0_0_87bcae16d6" x="140.549367" y="197.991618" style="fill: none; stroke: #000000"/>
    </g>
    <g clip-path="url(#pd4203c89cf)">
     <use xlink:href="#C0_0_87bcae16d6" x="143.319082" y="199.064109" style="fill: none; stroke: #000000"/>
    </g>
    <g clip-path="url(#pd4203c89cf)">
     <use xlink:href="#C0_0_87bcae16d6" x="152.551455" y="194.207601" style="fill: none; stroke: #000000"/>
    </g>
    <g clip-path="url(#pd4203c89cf)">
     <use xlink:href="#C0_0_87bcae16d6" x="161.091399" y="177.977916" style="fill: none; stroke: #000000"/>
    </g>
    <g clip-path="url(#pd4203c89cf)">
     <use xlink:href="#C0_0_87bcae16d6" x="166.861633" y="161.478335" style="fill: none; stroke: #000000"/>
    </g>
    <g clip-path="url(#pd4203c89cf)">
     <use xlink:href="#C0_0_87bcae16d6" x="168.708107" y="155.455184" style="fill: none; stroke: #000000"/>
    </g>
    <g clip-path="url(#pd4203c89cf)">
     <use xlink:href="#C0_0_87bcae16d6" x="180.248567" y="113.273354" style="fill: none; stroke: #000000"/>
    </g>
    <g clip-path="url(#pd4203c89cf)">
     <use xlink:href="#C0_0_87bcae16d6" x="198.251696" y="54.834081" style="fill: none; stroke: #000000"/>
    </g>
    <g clip-path="url(#pd4203c89cf)">
     <use xlink:href="#C0_0_87bcae16d6" x="204.945165" y="42.547841" style="fill: none; stroke: #000000"/>
    </g>
    <g clip-path="url(#pd4203c89cf)">
     <use xlink:href="#C0_0_87bcae16d6" x="210.253781" y="37.736709" style="fill: none; stroke: #000000"/>
    </g>
    <g clip-path="url(#pd4203c89cf)">
     <use xlink:href="#C0_0_87bcae16d6" x="221.563435" y="41.720457" style="fill: none; stroke: #000000"/>
    </g>
    <g clip-path="url(#pd4203c89cf)">
     <use xlink:href="#C0_0_87bcae16d6" x="229.180147" y="53.084569" style="fill: none; stroke: #000000"/>
    </g>
    <g clip-path="url(#pd4203c89cf)">
     <use xlink:href="#C0_0_87bcae16d6" x="231.949858" y="58.2917" style="fill: none; stroke: #000000"/>
    </g>
    <g clip-path="url(#pd4203c89cf)">
     <use xlink:href="#C0_0_87bcae16d6" x="273.495539" y="83.854486" style="fill: none; stroke: #000000"/>
    </g>
    <g clip-path="url(#pd4203c89cf)">
     <use xlink:href="#C0_0_87bcae16d6" x="276.726865" y="76.301053" style="fill: none; stroke: #000000"/>
    </g>
    <g clip-path="url(#pd4203c89cf)">
     <use xlink:href="#C0_0_87bcae16d6" x="293.575947" y="19.902942" style="fill: none; stroke: #000000"/>
    </g>
   </g>
   <g id="legend_1">
    <g id="patch_7">
     <path d="M 59.160938 44.55625 
L 113.685938 44.55625 
Q 115.685938 44.55625 115.685938 42.55625 
L 115.685938 14.2 
Q 115.685938 12.2 113.685938 12.2 
L 59.160938 12.2 
Q 57.160938 12.2 57.160938 14.2 
L 57.160938 42.55625 
Q 57.160938 44.55625 59.160938 44.55625 
z
" style="fill: #ffffff; opacity: 0.8; stroke: #cccccc; stroke-linejoin: miter"/>
    </g>
    <g id="PathCollection_2">
     <path d="M 71.160938 22.905488 
C 71.620283 22.905488 72.060876 22.722989 72.385682 22.398182 
C 72.710489 22.073376 72.892988 21.632783 72.892988 21.173437 
C 72.892988 20.714092 72.710489 20.273499 72.385682 19.948693 
C 72.060876 19.623886 71.620283 19.441387 71.160938 19.441387 
C 70.701592 19.441387 70.260999 19.623886 69.936193 19.948693 
C 69.611386 20.273499 69.428887 20.714092 69.428887 21.173437 
C 69.428887 21.632783 69.611386 22.073376 69.936193 22.398182 
C 70.260999 22.722989 70.701592 22.905488 71.160938 22.905488 
L 71.160938 22.905488 
z
" style="fill: none; stroke: #000000"/>
    </g>
    <g id="text_19">
     <!-- data -->
     <g transform="translate(89.160938 23.798437) scale(0.1 -0.1)">
      <defs>
       <path id="DejaVuSans-64" d="M 2906 2969 
L 2906 4863 
L 3481 4863 
L 3481 0 
L 2906 0 
L 2906 525 
Q 2725 213 2448 61 
Q 2172 -91 1784 -91 
Q 1150 -91 751 415 
Q 353 922 353 1747 
Q 353 2572 751 3078 
Q 1150 3584 1784 3584 
Q 2172 3584 2448 3432 
Q 2725 3281 2906 2969 
z
M 947 1747 
Q 947 1113 1208 752 
Q 1469 391 1925 391 
Q 2381 391 2643 752 
Q 2906 1113 2906 1747 
Q 2906 2381 2643 2742 
Q 2381 3103 1925 3103 
Q 1469 3103 1208 2742 
Q 947 2381 947 1747 
z
" transform="scale(0.015625)"/>
       <path id="DejaVuSans-61" d="M 2194 1759 
Q 1497 1759 1228 1600 
Q 959 1441 959 1056 
Q 959 750 1161 570 
Q 1363 391 1709 391 
Q 2188 391 2477 730 
Q 2766 1069 2766 1631 
L 2766 1759 
L 2194 1759 
z
M 3341 1997 
L 3341 0 
L 2766 0 
L 2766 531 
Q 2569 213 2275 61 
Q 1981 -91 1556 -91 
Q 1019 -91 701 211 
Q 384 513 384 1019 
Q 384 1609 779 1909 
Q 1175 2209 1959 2209 
L 2766 2209 
L 2766 2266 
Q 2766 2663 2505 2880 
Q 2244 3097 1772 3097 
Q 1472 3097 1187 3025 
Q 903 2953 641 2809 
L 641 3341 
Q 956 3463 1253 3523 
Q 1550 3584 1831 3584 
Q 2591 3584 2966 3190 
Q 3341 2797 3341 1997 
z
" transform="scale(0.015625)"/>
       <path id="DejaVuSans-74" d="M 1172 4494 
L 1172 3500 
L 2356 3500 
L 2356 3053 
L 1172 3053 
L 1172 1153 
Q 1172 725 1289 603 
Q 1406 481 1766 481 
L 2356 481 
L 2356 0 
L 1766 0 
Q 1100 0 847 248 
Q 594 497 594 1153 
L 594 3053 
L 172 3053 
L 172 3500 
L 594 3500 
L 594 4494 
L 1172 4494 
z
" transform="scale(0.015625)"/>
      </defs>
      <use xlink:href="#DejaVuSans-64"/>
      <use xlink:href="#DejaVuSans-61" x="63.476562"/>
      <use xlink:href="#DejaVuSans-74" x="124.755859"/>
      <use xlink:href="#DejaVuSans-61" x="163.964844"/>
     </g>
    </g>
    <g id="line2d_18">
     <path d="M 61.160938 34.976562 
L 71.160938 34.976562 
L 81.160938 34.976562 
" style="fill: none; stroke: #ff7f0e; stroke-width: 1.5; stroke-linecap: square"/>
    </g>
    <g id="text_20">
     <!-- f -->
     <g transform="translate(89.160938 38.476562) scale(0.1 -0.1)">
      <defs>
       <path id="DejaVuSans-66" d="M 2375 4863 
L 2375 4384 
L 1825 4384 
Q 1516 4384 1395 4259 
Q 1275 4134 1275 3809 
L 1275 3500 
L 2222 3500 
L 2222 3053 
L 1275 3053 
L 1275 0 
L 697 0 
L 697 3053 
L 147 3053 
L 147 3500 
L 697 3500 
L 697 3744 
Q 697 4328 969 4595 
Q 1241 4863 1831 4863 
L 2375 4863 
z
" transform="scale(0.015625)"/>
      </defs>
      <use xlink:href="#DejaVuSans-66"/>
     </g>
    </g>
   </g>
  </g>
  <g id="axes_2">
   <g id="patch_8">
    <path d="M 356.524574 228.96 
L 610.160937 228.96 
L 610.160937 7.2 
L 356.524574 7.2 
z
" style="fill: #ffffff"/>
   </g>
   <g id="matplotlib.axis_3">
    <g id="xtick_8">
     <g id="line2d_19">
      <g>
       <use xlink:href="#m61201e198a" x="373.249629" y="228.96" style="stroke: #000000; stroke-width: 0.8"/>
      </g>
     </g>
     <g id="text_21">
      <!-- −6 -->
      <g transform="translate(365.878535 243.558437) scale(0.1 -0.1)">
       <use xlink:href="#DejaVuSans-2212"/>
       <use xlink:href="#DejaVuSans-36" x="83.789062"/>
      </g>
     </g>
    </g>
    <g id="xtick_9">
     <g id="line2d_20">
      <g>
       <use xlink:href="#m61201e198a" x="409.947338" y="228.96" style="stroke: #000000; stroke-width: 0.8"/>
      </g>
     </g>
     <g id="text_22">
      <!-- −4 -->
      <g transform="translate(402.576244 243.558437) scale(0.1 -0.1)">
       <use xlink:href="#DejaVuSans-2212"/>
       <use xlink:href="#DejaVuSans-34" x="83.789062"/>
      </g>
     </g>
    </g>
    <g id="xtick_10">
     <g id="line2d_21">
      <g>
       <use xlink:href="#m61201e198a" x="446.645047" y="228.96" style="stroke: #000000; stroke-width: 0.8"/>
      </g>
     </g>
     <g id="text_23">
      <!-- −2 -->
      <g transform="translate(439.273953 243.558437) scale(0.1 -0.1)">
       <use xlink:href="#DejaVuSans-2212"/>
       <use xlink:href="#DejaVuSans-32" x="83.789062"/>
      </g>
     </g>
    </g>
    <g id="xtick_11">
     <g id="line2d_22">
      <g>
       <use xlink:href="#m61201e198a" x="483.342756" y="228.96" style="stroke: #000000; stroke-width: 0.8"/>
      </g>
     </g>
     <g id="text_24">
      <!-- 0 -->
      <g transform="translate(480.161506 243.558437) scale(0.1 -0.1)">
       <use xlink:href="#DejaVuSans-30"/>
      </g>
     </g>
    </g>
    <g id="xtick_12">
     <g id="line2d_23">
      <g>
       <use xlink:href="#m61201e198a" x="520.040465" y="228.96" style="stroke: #000000; stroke-width: 0.8"/>
      </g>
     </g>
     <g id="text_25">
      <!-- 2 -->
      <g transform="translate(516.859215 243.558437) scale(0.1 -0.1)">
       <use xlink:href="#DejaVuSans-32"/>
      </g>
     </g>
    </g>
    <g id="xtick_13">
     <g id="line2d_24">
      <g>
       <use xlink:href="#m61201e198a" x="556.738174" y="228.96" style="stroke: #000000; stroke-width: 0.8"/>
      </g>
     </g>
     <g id="text_26">
      <!-- 4 -->
      <g transform="translate(553.556924 243.558437) scale(0.1 -0.1)">
       <use xlink:href="#DejaVuSans-34"/>
      </g>
     </g>
    </g>
    <g id="xtick_14">
     <g id="line2d_25">
      <g>
       <use xlink:href="#m61201e198a" x="593.435883" y="228.96" style="stroke: #000000; stroke-width: 0.8"/>
      </g>
     </g>
     <g id="text_27">
      <!-- 6 -->
      <g transform="translate(590.254633 243.558437) scale(0.1 -0.1)">
       <use xlink:href="#DejaVuSans-36"/>
      </g>
     </g>
    </g>
    <g id="text_28">
     <!-- x -->
     <g transform="translate(480.383381 257.236562) scale(0.1 -0.1)">
      <use xlink:href="#DejaVuSans-78"/>
     </g>
    </g>
   </g>
   <g id="matplotlib.axis_4">
    <g id="ytick_10">
     <g id="line2d_26">
      <g>
       <use xlink:href="#m796bb7b208" x="356.524574" y="225.032105" style="stroke: #000000; stroke-width: 0.8"/>
      </g>
     </g>
     <g id="text_29">
      <!-- −2.0 -->
      <g transform="translate(325.241761 228.831324) scale(0.1 -0.1)">
       <use xlink:href="#DejaVuSans-2212"/>
       <use xlink:href="#DejaVuSans-32" x="83.789062"/>
       <use xlink:href="#DejaVuSans-2e" x="147.412109"/>
       <use xlink:href="#DejaVuSans-30" x="179.199219"/>
      </g>
     </g>
    </g>
    <g id="ytick_11">
     <g id="line2d_27">
      <g>
       <use xlink:href="#m796bb7b208" x="356.524574" y="198.294079" style="stroke: #000000; stroke-width: 0.8"/>
      </g>
     </g>
     <g id="text_30">
      <!-- −1.5 -->
      <g transform="translate(325.241761 202.093298) scale(0.1 -0.1)">
       <use xlink:href="#DejaVuSans-2212"/>
       <use xlink:href="#DejaVuSans-31" x="83.789062"/>
       <use xlink:href="#DejaVuSans-2e" x="147.412109"/>
       <use xlink:href="#DejaVuSans-35" x="179.199219"/>
      </g>
     </g>
    </g>
    <g id="ytick_12">
     <g id="line2d_28">
      <g>
       <use xlink:href="#m796bb7b208" x="356.524574" y="171.556053" style="stroke: #000000; stroke-width: 0.8"/>
      </g>
     </g>
     <g id="text_31">
      <!-- −1.0 -->
      <g transform="translate(325.241761 175.355271) scale(0.1 -0.1)">
       <use xlink:href="#DejaVuSans-2212"/>
       <use xlink:href="#DejaVuSans-31" x="83.789062"/>
       <use xlink:href="#DejaVuSans-2e" x="147.412109"/>
       <use xlink:href="#DejaVuSans-30" x="179.199219"/>
      </g>
     </g>
    </g>
    <g id="ytick_13">
     <g id="line2d_29">
      <g>
       <use xlink:href="#m796bb7b208" x="356.524574" y="144.818026" style="stroke: #000000; stroke-width: 0.8"/>
      </g>
     </g>
     <g id="text_32">
      <!-- −0.5 -->
      <g transform="translate(325.241761 148.617245) scale(0.1 -0.1)">
       <use xlink:href="#DejaVuSans-2212"/>
       <use xlink:href="#DejaVuSans-30" x="83.789062"/>
       <use xlink:href="#DejaVuSans-2e" x="147.412109"/>
       <use xlink:href="#DejaVuSans-35" x="179.199219"/>
      </g>
     </g>
    </g>
    <g id="ytick_14">
     <g id="line2d_30">
      <g>
       <use xlink:href="#m796bb7b208" x="356.524574" y="118.08" style="stroke: #000000; stroke-width: 0.8"/>
      </g>
     </g>
     <g id="text_33">
      <!-- 0.0 -->
      <g transform="translate(333.621449 121.879219) scale(0.1 -0.1)">
       <use xlink:href="#DejaVuSans-30"/>
       <use xlink:href="#DejaVuSans-2e" x="63.623047"/>
       <use xlink:href="#DejaVuSans-30" x="95.410156"/>
      </g>
     </g>
    </g>
    <g id="ytick_15">
     <g id="line2d_31">
      <g>
       <use xlink:href="#m796bb7b208" x="356.524574" y="91.341974" style="stroke: #000000; stroke-width: 0.8"/>
      </g>
     </g>
     <g id="text_34">
      <!-- 0.5 -->
      <g transform="translate(333.621449 95.141192) scale(0.1 -0.1)">
       <use xlink:href="#DejaVuSans-30"/>
       <use xlink:href="#DejaVuSans-2e" x="63.623047"/>
       <use xlink:href="#DejaVuSans-35" x="95.410156"/>
      </g>
     </g>
    </g>
    <g id="ytick_16">
     <g id="line2d_32">
      <g>
       <use xlink:href="#m796bb7b208" x="356.524574" y="64.603947" style="stroke: #000000; stroke-width: 0.8"/>
      </g>
     </g>
     <g id="text_35">
      <!-- 1.0 -->
      <g transform="translate(333.621449 68.403166) scale(0.1 -0.1)">
       <use xlink:href="#DejaVuSans-31"/>
       <use xlink:href="#DejaVuSans-2e" x="63.623047"/>
       <use xlink:href="#DejaVuSans-30" x="95.410156"/>
      </g>
     </g>
    </g>
    <g id="ytick_17">
     <g id="line2d_33">
      <g>
       <use xlink:href="#m796bb7b208" x="356.524574" y="37.865921" style="stroke: #000000; stroke-width: 0.8"/>
      </g>
     </g>
     <g id="text_36">
      <!-- 1.5 -->
      <g transform="translate(333.621449 41.66514) scale(0.1 -0.1)">
       <use xlink:href="#DejaVuSans-31"/>
       <use xlink:href="#DejaVuSans-2e" x="63.623047"/>
       <use xlink:href="#DejaVuSans-35" x="95.410156"/>
      </g>
     </g>
    </g>
    <g id="ytick_18">
     <g id="line2d_34">
      <g>
       <use xlink:href="#m796bb7b208" x="356.524574" y="11.127895" style="stroke: #000000; stroke-width: 0.8"/>
      </g>
     </g>
     <g id="text_37">
      <!-- 2.0 -->
      <g transform="translate(333.621449 14.927113) scale(0.1 -0.1)">
       <use xlink:href="#DejaVuSans-32"/>
       <use xlink:href="#DejaVuSans-2e" x="63.623047"/>
       <use xlink:href="#DejaVuSans-30" x="95.410156"/>
      </g>
     </g>
    </g>
    <g id="text_38">
     <!-- y -->
     <g transform="translate(319.162074 121.039375) rotate(-90) scale(0.1 -0.1)">
      <use xlink:href="#DejaVuSans-79"/>
     </g>
    </g>
   </g>
   <g id="line2d_35">
    <path d="M 368.053499 218.88 
L 374.746969 193.950026 
L 378.209112 181.891266 
L 381.209628 172.236777 
L 383.748534 164.793069 
L 386.05663 158.693263 
L 388.133907 153.802346 
L 389.980384 149.964561 
L 391.82686 146.630098 
L 393.442528 144.139131 
L 395.058195 142.055284 
L 396.443043 140.597192 
L 397.827901 139.44348 
L 399.212758 138.593828 
L 400.366806 138.11662 
L 401.520854 137.847066 
L 402.674902 137.782244 
L 403.828941 137.91841 
L 404.982989 138.251043 
L 406.367847 138.90202 
L 407.752704 139.817626 
L 409.137562 140.985755 
L 410.753224 142.649585 
L 412.599701 144.918656 
L 414.446173 147.541996 
L 416.52346 150.863213 
L 419.062361 155.361263 
L 422.293691 161.591476 
L 433.603347 183.901177 
L 436.142253 188.16972 
L 438.219534 191.257643 
L 440.066011 193.641821 
L 441.681674 195.416156 
L 443.297341 196.873496 
L 444.682198 197.853424 
L 446.067052 198.571614 
L 447.451909 199.017075 
L 448.605955 199.173106 
L 449.760003 199.128559 
L 450.914048 198.879621 
L 452.068094 198.423291 
L 453.222142 197.757375 
L 454.606997 196.679778 
L 455.991853 195.297712 
L 457.37671 193.612159 
L 458.992375 191.265796 
L 460.60804 188.517334 
L 462.454515 184.897284 
L 464.300989 180.785951 
L 466.378273 175.60511 
L 468.686367 169.209674 
L 471.225269 161.478335 
L 473.994981 152.332964 
L 477.457121 140.086449 
L 482.304117 122.013506 
L 490.151627 92.735307 
L 493.613768 80.704816 
L 496.614289 71.083053 
L 499.153191 63.67236 
L 501.461285 57.606232 
L 503.538568 52.748143 
L 505.385043 48.941215 
L 507.231517 45.638843 
L 508.847184 43.176719 
L 510.462849 41.12219 
L 511.847704 39.689426 
L 513.23256 38.561091 
L 514.617417 37.736709 
L 515.771463 37.280379 
L 516.925509 37.031441 
L 518.079557 36.986894 
L 519.233602 37.142925 
L 520.38765 37.494931 
L 521.772508 38.168382 
L 523.157361 39.105516 
L 524.542218 40.294098 
L 526.157881 41.98027 
L 528.004358 44.272676 
L 529.85083 46.916769 
L 532.158926 50.650508 
L 534.697827 55.205626 
L 537.929157 61.482174 
L 548.315579 82.066897 
L 550.85448 86.443676 
L 553.162576 89.97136 
L 555.009049 92.422707 
L 556.855521 94.499663 
L 558.471188 95.980417 
L 559.856045 96.981615 
L 561.240903 97.722053 
L 562.62576 98.190623 
L 563.7798 98.36647 
L 564.933848 98.342169 
L 566.087895 98.113819 
L 567.241943 97.678337 
L 568.395991 97.033455 
L 569.780849 95.981217 
L 571.165698 94.624517 
L 572.550555 92.964173 
L 574.166222 90.646845 
L 575.781889 87.926795 
L 577.628366 84.338174 
L 579.474834 80.256869 
L 581.55212 75.107724 
L 583.860216 68.744449 
L 586.399121 61.044204 
L 589.168828 51.926987 
L 592.630971 39.706198 
L 597.477964 21.650158 
L 598.632012 17.28 
L 598.632012 17.28 
" clip-path="url(#paebe58050f)" style="fill: none; stroke: #ff7f0e; stroke-width: 1.5; stroke-linecap: square"/>
   </g>
   <g id="patch_9">
    <path d="M 356.524574 228.96 
L 356.524574 7.2 
" style="fill: none; stroke: #000000; stroke-width: 0.8; stroke-linejoin: miter; stroke-linecap: square"/>
   </g>
   <g id="patch_10">
    <path d="M 610.160937 228.96 
L 610.160937 7.2 
" style="fill: none; stroke: #000000; stroke-width: 0.8; stroke-linejoin: miter; stroke-linecap: square"/>
   </g>
   <g id="patch_11">
    <path d="M 356.524574 228.96 
L 610.160937 228.96 
" style="fill: none; stroke: #000000; stroke-width: 0.8; stroke-linejoin: miter; stroke-linecap: square"/>
   </g>
   <g id="patch_12">
    <path d="M 356.524574 7.2 
L 610.160937 7.2 
" style="fill: none; stroke: #000000; stroke-width: 0.8; stroke-linejoin: miter; stroke-linecap: square"/>
   </g>
   <g id="line2d_36">
    <path d="M 368.053499 200.679762 
L 372.900492 200.679762 
L 395.289004 141.791168 
L 401.059235 137.938373 
L 401.751664 137.866127 
L 404.52137 138.094748 
L 422.986119 162.974151 
L 432.218494 181.284948 
L 443.066531 196.657555 
L 445.143813 198.081006 
L 447.682719 199.064122 
L 456.915091 194.207601 
L 465.685845 177.317928 
L 471.917698 159.219659 
L 473.994981 152.080651 
L 485.535441 110.276473 
L 502.846142 54.410422 
L 509.539611 42.338638 
L 514.617417 37.736703 
L 525.927072 41.720444 
L 534.005398 53.952376 
L 536.313494 58.291642 
L 577.859176 83.854479 
L 581.321311 75.528464 
L 597.939583 19.902954 
L 598.632012 19.902929 
L 598.632012 19.902929 
" clip-path="url(#paebe58050f)" style="fill: none; stroke: #1f77b4; stroke-width: 1.5; stroke-linecap: square"/>
   </g>
   <g id="PathCollection_3">
    <defs>
     <path id="C1_0_27d8385d64" d="M 0 1.732051 
C 0.459345 1.732051 0.899939 1.549551 1.224745 1.224745 
C 1.549551 0.899939 1.732051 0.459345 1.732051 -0 
C 1.732051 -0.459345 1.549551 -0.899939 1.224745 -1.224745 
C 0.899939 -1.549551 0.459345 -1.732051 0 -1.732051 
C -0.459345 -1.732051 -0.899939 -1.549551 -1.224745 -1.224745 
C -1.549551 -0.899939 -1.732051 -0.459345 -1.732051 0 
C -1.732051 0.459345 -1.549551 0.899939 -1.224745 1.224745 
C -0.899939 1.549551 -0.459345 1.732051 0 1.732051 
z
"/>
    </defs>
    <g clip-path="url(#paebe58050f)">
     <use xlink:href="#C1_0_27d8385d64" x="372.900492" y="200.679762" style="fill: none; stroke: #000000"/>
    </g>
    <g clip-path="url(#paebe58050f)">
     <use xlink:href="#C1_0_27d8385d64" x="395.289004" y="141.791168" style="fill: none; stroke: #000000"/>
    </g>
    <g clip-path="url(#paebe58050f)">
     <use xlink:href="#C1_0_27d8385d64" x="400.828425" y="137.984026" style="fill: none; stroke: #000000"/>
    </g>
    <g clip-path="url(#paebe58050f)">
     <use xlink:href="#C1_0_27d8385d64" x="401.520854" y="137.847066" style="fill: none; stroke: #000000"/>
    </g>
    <g clip-path="url(#paebe58050f)">
     <use xlink:href="#C1_0_27d8385d64" x="404.52137" y="138.094738" style="fill: none; stroke: #000000"/>
    </g>
    <g clip-path="url(#paebe58050f)">
     <use xlink:href="#C1_0_27d8385d64" x="422.75531" y="162.513109" style="fill: none; stroke: #000000"/>
    </g>
    <g clip-path="url(#paebe58050f)">
     <use xlink:href="#C1_0_27d8385d64" x="431.987684" y="180.954374" style="fill: none; stroke: #000000"/>
    </g>
    <g clip-path="url(#paebe58050f)">
     <use xlink:href="#C1_0_27d8385d64" x="442.835722" y="196.490802" style="fill: none; stroke: #000000"/>
    </g>
    <g clip-path="url(#paebe58050f)">
     <use xlink:href="#C1_0_27d8385d64" x="444.913004" y="197.991618" style="fill: none; stroke: #000000"/>
    </g>
    <g clip-path="url(#paebe58050f)">
     <use xlink:href="#C1_0_27d8385d64" x="447.682719" y="199.064109" style="fill: none; stroke: #000000"/>
    </g>
    <g clip-path="url(#paebe58050f)">
     <use xlink:href="#C1_0_27d8385d64" x="456.915091" y="194.207601" style="fill: none; stroke: #000000"/>
    </g>
    <g clip-path="url(#paebe58050f)">
     <use xlink:href="#C1_0_27d8385d64" x="465.455036" y="177.977916" style="fill: none; stroke: #000000"/>
    </g>
    <g clip-path="url(#paebe58050f)">
     <use xlink:href="#C1_0_27d8385d64" x="471.225269" y="161.478335" style="fill: none; stroke: #000000"/>
    </g>
    <g clip-path="url(#paebe58050f)">
     <use xlink:href="#C1_0_27d8385d64" x="473.071743" y="155.455184" style="fill: none; stroke: #000000"/>
    </g>
    <g clip-path="url(#paebe58050f)">
     <use xlink:href="#C1_0_27d8385d64" x="484.612204" y="113.273354" style="fill: none; stroke: #000000"/>
    </g>
    <g clip-path="url(#paebe58050f)">
     <use xlink:href="#C1_0_27d8385d64" x="502.615332" y="54.834081" style="fill: none; stroke: #000000"/>
    </g>
    <g clip-path="url(#paebe58050f)">
     <use xlink:href="#C1_0_27d8385d64" x="509.308801" y="42.547841" style="fill: none; stroke: #000000"/>
    </g>
    <g clip-path="url(#paebe58050f)">
     <use xlink:href="#C1_0_27d8385d64" x="514.617417" y="37.736709" style="fill: none; stroke: #000000"/>
    </g>
    <g clip-path="url(#paebe58050f)">
     <use xlink:href="#C1_0_27d8385d64" x="525.927072" y="41.720457" style="fill: none; stroke: #000000"/>
    </g>
    <g clip-path="url(#paebe58050f)">
     <use xlink:href="#C1_0_27d8385d64" x="533.543783" y="53.084569" style="fill: none; stroke: #000000"/>
    </g>
    <g clip-path="url(#paebe58050f)">
     <use xlink:href="#C1_0_27d8385d64" x="536.313494" y="58.2917" style="fill: none; stroke: #000000"/>
    </g>
    <g clip-path="url(#paebe58050f)">
     <use xlink:href="#C1_0_27d8385d64" x="577.859176" y="83.854486" style="fill: none; stroke: #000000"/>
    </g>
    <g clip-path="url(#paebe58050f)">
     <use xlink:href="#C1_0_27d8385d64" x="581.090501" y="76.301053" style="fill: none; stroke: #000000"/>
    </g>
    <g clip-path="url(#paebe58050f)">
     <use xlink:href="#C1_0_27d8385d64" x="597.939583" y="19.902942" style="fill: none; stroke: #000000"/>
    </g>
   </g>
   <g id="legend_2">
    <g id="patch_13">
     <path d="M 363.524574 44.55625 
L 494.418324 44.55625 
Q 496.418324 44.55625 496.418324 42.55625 
L 496.418324 14.2 
Q 496.418324 12.2 494.418324 12.2 
L 363.524574 12.2 
Q 361.524574 12.2 361.524574 14.2 
L 361.524574 42.55625 
Q 361.524574 44.55625 363.524574 44.55625 
z
" style="fill: #ffffff; opacity: 0.8; stroke: #cccccc; stroke-linejoin: miter"/>
    </g>
    <g id="PathCollection_4">
     <path d="M 375.524574 22.905488 
C 375.983919 22.905488 376.424513 22.722989 376.749319 22.398182 
C 377.074125 22.073376 377.256625 21.632783 377.256625 21.173437 
C 377.256625 20.714092 377.074125 20.273499 376.749319 19.948693 
C 376.424513 19.623886 375.983919 19.441387 375.524574 19.441387 
C 375.065229 19.441387 374.624635 19.623886 374.299829 19.948693 
C 373.975023 20.273499 373.792523 20.714092 373.792523 21.173437 
C 373.792523 21.632783 373.975023 22.073376 374.299829 22.398182 
C 374.624635 22.722989 375.065229 22.905488 375.524574 22.905488 
L 375.524574 22.905488 
z
" style="fill: none; stroke: #000000"/>
    </g>
    <g id="text_39">
     <!-- data -->
     <g transform="translate(393.524574 23.798437) scale(0.1 -0.1)">
      <use xlink:href="#DejaVuSans-64"/>
      <use xlink:href="#DejaVuSans-61" x="63.476562"/>
      <use xlink:href="#DejaVuSans-74" x="124.755859"/>
      <use xlink:href="#DejaVuSans-61" x="163.964844"/>
     </g>
    </g>
    <g id="line2d_37">
     <path d="M 365.524574 34.976562 
L 375.524574 34.976562 
L 385.524574 34.976562 
" style="fill: none; stroke: #1f77b4; stroke-width: 1.5; stroke-linecap: square"/>
    </g>
    <g id="text_40">
     <!-- relu approx. (B=24) -->
     <g transform="translate(393.524574 38.476562) scale(0.1 -0.1)">
      <defs>
       <path id="DejaVuSans-72" d="M 2631 2963 
Q 2534 3019 2420 3045 
Q 2306 3072 2169 3072 
Q 1681 3072 1420 2755 
Q 1159 2438 1159 1844 
L 1159 0 
L 581 0 
L 581 3500 
L 1159 3500 
L 1159 2956 
Q 1341 3275 1631 3429 
Q 1922 3584 2338 3584 
Q 2397 3584 2469 3576 
Q 2541 3569 2628 3553 
L 2631 2963 
z
" transform="scale(0.015625)"/>
       <path id="DejaVuSans-65" d="M 3597 1894 
L 3597 1613 
L 953 1613 
Q 991 1019 1311 708 
Q 1631 397 2203 397 
Q 2534 397 2845 478 
Q 3156 559 3463 722 
L 3463 178 
Q 3153 47 2828 -22 
Q 2503 -91 2169 -91 
Q 1331 -91 842 396 
Q 353 884 353 1716 
Q 353 2575 817 3079 
Q 1281 3584 2069 3584 
Q 2775 3584 3186 3129 
Q 3597 2675 3597 1894 
z
M 3022 2063 
Q 3016 2534 2758 2815 
Q 2500 3097 2075 3097 
Q 1594 3097 1305 2825 
Q 1016 2553 972 2059 
L 3022 2063 
z
" transform="scale(0.015625)"/>
       <path id="DejaVuSans-6c" d="M 603 4863 
L 1178 4863 
L 1178 0 
L 603 0 
L 603 4863 
z
" transform="scale(0.015625)"/>
       <path id="DejaVuSans-75" d="M 544 1381 
L 544 3500 
L 1119 3500 
L 1119 1403 
Q 1119 906 1312 657 
Q 1506 409 1894 409 
Q 2359 409 2629 706 
Q 2900 1003 2900 1516 
L 2900 3500 
L 3475 3500 
L 3475 0 
L 2900 0 
L 2900 538 
Q 2691 219 2414 64 
Q 2138 -91 1772 -91 
Q 1169 -91 856 284 
Q 544 659 544 1381 
z
M 1991 3584 
L 1991 3584 
z
" transform="scale(0.015625)"/>
       <path id="DejaVuSans-20" transform="scale(0.015625)"/>
       <path id="DejaVuSans-70" d="M 1159 525 
L 1159 -1331 
L 581 -1331 
L 581 3500 
L 1159 3500 
L 1159 2969 
Q 1341 3281 1617 3432 
Q 1894 3584 2278 3584 
Q 2916 3584 3314 3078 
Q 3713 2572 3713 1747 
Q 3713 922 3314 415 
Q 2916 -91 2278 -91 
Q 1894 -91 1617 61 
Q 1341 213 1159 525 
z
M 3116 1747 
Q 3116 2381 2855 2742 
Q 2594 3103 2138 3103 
Q 1681 3103 1420 2742 
Q 1159 2381 1159 1747 
Q 1159 1113 1420 752 
Q 1681 391 2138 391 
Q 2594 391 2855 752 
Q 3116 1113 3116 1747 
z
" transform="scale(0.015625)"/>
       <path id="DejaVuSans-6f" d="M 1959 3097 
Q 1497 3097 1228 2736 
Q 959 2375 959 1747 
Q 959 1119 1226 758 
Q 1494 397 1959 397 
Q 2419 397 2687 759 
Q 2956 1122 2956 1747 
Q 2956 2369 2687 2733 
Q 2419 3097 1959 3097 
z
M 1959 3584 
Q 2709 3584 3137 3096 
Q 3566 2609 3566 1747 
Q 3566 888 3137 398 
Q 2709 -91 1959 -91 
Q 1206 -91 779 398 
Q 353 888 353 1747 
Q 353 2609 779 3096 
Q 1206 3584 1959 3584 
z
" transform="scale(0.015625)"/>
       <path id="DejaVuSans-28" d="M 1984 4856 
Q 1566 4138 1362 3434 
Q 1159 2731 1159 2009 
Q 1159 1288 1364 580 
Q 1569 -128 1984 -844 
L 1484 -844 
Q 1016 -109 783 600 
Q 550 1309 550 2009 
Q 550 2706 781 3412 
Q 1013 4119 1484 4856 
L 1984 4856 
z
" transform="scale(0.015625)"/>
       <path id="DejaVuSans-42" d="M 1259 2228 
L 1259 519 
L 2272 519 
Q 2781 519 3026 730 
Q 3272 941 3272 1375 
Q 3272 1813 3026 2020 
Q 2781 2228 2272 2228 
L 1259 2228 
z
M 1259 4147 
L 1259 2741 
L 2194 2741 
Q 2656 2741 2882 2914 
Q 3109 3088 3109 3444 
Q 3109 3797 2882 3972 
Q 2656 4147 2194 4147 
L 1259 4147 
z
M 628 4666 
L 2241 4666 
Q 2963 4666 3353 4366 
Q 3744 4066 3744 3513 
Q 3744 3084 3544 2831 
Q 3344 2578 2956 2516 
Q 3422 2416 3680 2098 
Q 3938 1781 3938 1306 
Q 3938 681 3513 340 
Q 3088 0 2303 0 
L 628 0 
L 628 4666 
z
" transform="scale(0.015625)"/>
       <path id="DejaVuSans-3d" d="M 678 2906 
L 4684 2906 
L 4684 2381 
L 678 2381 
L 678 2906 
z
M 678 1631 
L 4684 1631 
L 4684 1100 
L 678 1100 
L 678 1631 
z
" transform="scale(0.015625)"/>
       <path id="DejaVuSans-29" d="M 513 4856 
L 1013 4856 
Q 1481 4119 1714 3412 
Q 1947 2706 1947 2009 
Q 1947 1309 1714 600 
Q 1481 -109 1013 -844 
L 513 -844 
Q 928 -128 1133 580 
Q 1338 1288 1338 2009 
Q 1338 2731 1133 3434 
Q 928 4138 513 4856 
z
" transform="scale(0.015625)"/>
      </defs>
      <use xlink:href="#DejaVuSans-72"/>
      <use xlink:href="#DejaVuSans-65" x="38.863281"/>
      <use xlink:href="#DejaVuSans-6c" x="100.386719"/>
      <use xlink:href="#DejaVuSans-75" x="128.169922"/>
      <use xlink:href="#DejaVuSans-20" x="191.548828"/>
      <use xlink:href="#DejaVuSans-61" x="223.335938"/>
      <use xlink:href="#DejaVuSans-70" x="284.615234"/>
      <use xlink:href="#DejaVuSans-70" x="348.091797"/>
      <use xlink:href="#DejaVuSans-72" x="411.568359"/>
      <use xlink:href="#DejaVuSans-6f" x="450.431641"/>
      <use xlink:href="#DejaVuSans-78" x="508.488281"/>
      <use xlink:href="#DejaVuSans-2e" x="567.667969"/>
      <use xlink:href="#DejaVuSans-20" x="599.455078"/>
      <use xlink:href="#DejaVuSans-28" x="631.242188"/>
      <use xlink:href="#DejaVuSans-42" x="670.255859"/>
      <use xlink:href="#DejaVuSans-3d" x="738.859375"/>
      <use xlink:href="#DejaVuSans-32" x="822.648438"/>
      <use xlink:href="#DejaVuSans-34" x="886.271484"/>
      <use xlink:href="#DejaVuSans-29" x="949.894531"/>
     </g>
    </g>
   </g>
  </g>
 </g>
 <defs>
  <clipPath id="pd4203c89cf">
   <rect x="52.160938" y="7.2" width="253.636364" height="221.76"/>
  </clipPath>
  <clipPath id="paebe58050f">
   <rect x="356.524574" y="7.2" width="253.636364" height="221.76"/>
  </clipPath>
 </defs>
</svg>