<?xml version="1.0" encoding="UTF-8" standalone="no"?>
<!DOCTYPE svg PUBLIC "-//W3C//DTD SVG 1.1//EN"
 "http://www.w3.org/Graphics/SVG/1.1/DTD/svg11.dtd">
<!-- Generated by graphviz version 12.1.0 (20240811.2233)
 -->
<!-- Pages: 1 -->
<svg width="2086pt" height="268pt"
 viewBox="0.00 0.00 2085.50 268.00" xmlns="http://www.w3.org/2000/svg" xmlns:xlink="http://www.w3.org/1999/xlink">
<g id="graph0" class="graph" transform="scale(1 1) rotate(0) translate(4 264)">
<polygon fill="white" stroke="none" points="-4,4 -4,-264 2081.5,-264 2081.5,4 -4,4"/>
<!-- 4696451216 -->
<g id="node1" class="node">
<title>4696451216</title>
<polygon fill="none" stroke="black" points="1142.5,-69.5 1142.5,-118.5 1228.25,-118.5 1228.25,-69.5 1142.5,-69.5"/>
<text text-anchor="middle" x="1185.38" y="-101.2" font-family="Times,serif" font-size="14.00">data=&#45;1.000</text>
<polyline fill="none" stroke="black" points="1142.5,-94 1228.25,-94"/>
<text text-anchor="middle" x="1185.38" y="-76.7" font-family="Times,serif" font-size="14.00">grad=0.1702</text>
</g>
<!-- 4696450880* -->
<g id="node37" class="node">
<title>4696450880*</title>
<ellipse fill="none" stroke="black" cx="1293.5" cy="-94" rx="27" ry="18"/>
<text text-anchor="middle" x="1293.5" y="-88.95" font-family="Times,serif" font-size="14.00">*</text>
</g>
<!-- 4696451216&#45;&gt;4696450880* -->
<g id="edge22" class="edge">
<title>4696451216&#45;&gt;4696450880*</title>
<path fill="none" stroke="black" d="M1228.62,-94C1237.27,-94 1246.31,-94 1254.78,-94"/>
<polygon fill="black" stroke="black" points="1254.76,-97.5 1264.76,-94 1254.76,-90.5 1254.76,-97.5"/>
</g>
<!-- 4696451312 -->
<g id="node2" class="node">
<title>4696451312</title>
<polygon fill="none" stroke="black" points="1356.5,-169.5 1356.5,-218.5 1442.25,-218.5 1442.25,-169.5 1356.5,-169.5"/>
<text text-anchor="middle" x="1399.38" y="-201.2" font-family="Times,serif" font-size="14.00">data=0.611</text>
<polyline fill="none" stroke="black" points="1356.5,-194 1442.25,-194"/>
<text text-anchor="middle" x="1399.38" y="-176.7" font-family="Times,serif" font-size="14.00">grad=0.5788</text>
</g>
<!-- 4696450736* -->
<g id="node33" class="node">
<title>4696450736*</title>
<ellipse fill="none" stroke="black" cx="1505.25" cy="-227" rx="27" ry="18"/>
<text text-anchor="middle" x="1505.25" y="-221.95" font-family="Times,serif" font-size="14.00">*</text>
</g>
<!-- 4696451312&#45;&gt;4696450736* -->
<g id="edge28" class="edge">
<title>4696451312&#45;&gt;4696450736*</title>
<path fill="none" stroke="black" d="M1442.62,-207.42C1451.53,-210.25 1460.83,-213.21 1469.42,-215.94"/>
<polygon fill="black" stroke="black" points="1468.19,-219.22 1478.78,-218.91 1470.31,-212.55 1468.19,-219.22"/>
</g>
<!-- 4696450832+ -->
<g id="node35" class="node">
<title>4696450832+</title>
<ellipse fill="none" stroke="black" cx="1505.25" cy="-159" rx="27" ry="18"/>
<text text-anchor="middle" x="1505.25" y="-153.95" font-family="Times,serif" font-size="14.00">+</text>
</g>
<!-- 4696451312&#45;&gt;4696450832+ -->
<g id="edge31" class="edge">
<title>4696451312&#45;&gt;4696450832+</title>
<path fill="none" stroke="black" d="M1442.62,-179.76C1451.61,-176.74 1460.99,-173.58 1469.65,-170.66"/>
<polygon fill="black" stroke="black" points="1470.72,-173.99 1479.08,-167.48 1468.49,-167.36 1470.72,-173.99"/>
</g>
<!-- 4696451312+ -->
<g id="node3" class="node">
<title>4696451312+</title>
<ellipse fill="none" stroke="black" cx="1293.5" cy="-194" rx="27" ry="18"/>
<text text-anchor="middle" x="1293.5" y="-188.95" font-family="Times,serif" font-size="14.00">+</text>
</g>
<!-- 4696451312+&#45;&gt;4696451312 -->
<g id="edge1" class="edge">
<title>4696451312+&#45;&gt;4696451312</title>
<path fill="none" stroke="black" d="M1320.98,-194C1328.34,-194 1336.6,-194 1344.91,-194"/>
<polygon fill="black" stroke="black" points="1344.69,-197.5 1354.69,-194 1344.69,-190.5 1344.69,-197.5"/>
</g>
<!-- 4696451360 -->
<g id="node4" class="node">
<title>4696451360</title>
<polygon fill="none" stroke="black" points="1018.5,-182.5 1018.5,-231.5 1104.25,-231.5 1104.25,-182.5 1018.5,-182.5"/>
<text text-anchor="middle" x="1061.38" y="-214.2" font-family="Times,serif" font-size="14.00">data=&#45;0.160</text>
<polyline fill="none" stroke="black" points="1018.5,-207 1104.25,-207"/>
<text text-anchor="middle" x="1061.38" y="-189.7" font-family="Times,serif" font-size="14.00">grad=0.5788</text>
</g>
<!-- 4696451360&#45;&gt;4696451312+ -->
<g id="edge24" class="edge">
<title>4696451360&#45;&gt;4696451312+</title>
<path fill="none" stroke="black" d="M1104.58,-204.62C1147.57,-202.19 1213.61,-198.46 1254.86,-196.13"/>
<polygon fill="black" stroke="black" points="1255.01,-199.62 1264.8,-195.56 1254.62,-192.63 1255.01,-199.62"/>
</g>
<!-- 4696451360* -->
<g id="node5" class="node">
<title>4696451360*</title>
<ellipse fill="none" stroke="black" cx="829.25" cy="-207" rx="27" ry="18"/>
<text text-anchor="middle" x="829.25" y="-201.95" font-family="Times,serif" font-size="14.00">*</text>
</g>
<!-- 4696451360*&#45;&gt;4696451360 -->
<g id="edge2" class="edge">
<title>4696451360*&#45;&gt;4696451360</title>
<path fill="none" stroke="black" d="M856.65,-207C893.19,-207 959.99,-207 1007.12,-207"/>
<polygon fill="black" stroke="black" points="1006.83,-210.5 1016.83,-207 1006.83,-203.5 1006.83,-210.5"/>
</g>
<!-- 4696451456 -->
<g id="node6" class="node">
<title>4696451456</title>
<polygon fill="none" stroke="black" points="338,-182.5 338,-231.5 423.75,-231.5 423.75,-182.5 338,-182.5"/>
<text text-anchor="middle" x="380.88" y="-214.2" font-family="Times,serif" font-size="14.00">data=&#45;0.380</text>
<polyline fill="none" stroke="black" points="338,-207 423.75,-207"/>
<text text-anchor="middle" x="380.88" y="-189.7" font-family="Times,serif" font-size="14.00">grad=0.2431</text>
</g>
<!-- 4696451456&#45;&gt;4696451360* -->
<g id="edge34" class="edge">
<title>4696451456&#45;&gt;4696451360*</title>
<path fill="none" stroke="black" d="M423.87,-207C510.44,-207 707.56,-207 790.43,-207"/>
<polygon fill="black" stroke="black" points="790.29,-210.5 800.29,-207 790.29,-203.5 790.29,-210.5"/>
</g>
<!-- 4696451456tanh -->
<g id="node7" class="node">
<title>4696451456tanh</title>
<ellipse fill="none" stroke="black" cx="148.75" cy="-211" rx="27" ry="18"/>
<text text-anchor="middle" x="148.75" y="-205.95" font-family="Times,serif" font-size="14.00">tanh</text>
</g>
<!-- 4696451456tanh&#45;&gt;4696451456 -->
<g id="edge3" class="edge">
<title>4696451456tanh&#45;&gt;4696451456</title>
<path fill="none" stroke="black" d="M176.15,-210.54C212.69,-209.91 279.49,-208.74 326.62,-207.93"/>
<polygon fill="black" stroke="black" points="326.4,-211.43 336.33,-207.76 326.27,-204.43 326.4,-211.43"/>
</g>
<!-- 4696449440 -->
<g id="node8" class="node">
<title>4696449440</title>
<polygon fill="none" stroke="black" points="0,-124.5 0,-173.5 85.75,-173.5 85.75,-124.5 0,-124.5"/>
<text text-anchor="middle" x="42.88" y="-156.2" font-family="Times,serif" font-size="14.00">data=&#45;1.000</text>
<polyline fill="none" stroke="black" points="0,-149 85.75,-149"/>
<text text-anchor="middle" x="42.88" y="-131.7" font-family="Times,serif" font-size="14.00">grad=0.2846</text>
</g>
<!-- 4696455824* -->
<g id="node15" class="node">
<title>4696455824*</title>
<ellipse fill="none" stroke="black" cx="148.75" cy="-154" rx="27" ry="18"/>
<text text-anchor="middle" x="148.75" y="-148.95" font-family="Times,serif" font-size="14.00">*</text>
</g>
<!-- 4696449440&#45;&gt;4696455824* -->
<g id="edge30" class="edge">
<title>4696449440&#45;&gt;4696455824*</title>
<path fill="none" stroke="black" d="M86.12,-151.03C94.03,-151.41 102.25,-151.81 110.01,-152.18"/>
<polygon fill="black" stroke="black" points="109.67,-155.67 119.82,-152.66 110,-148.68 109.67,-155.67"/>
</g>
<!-- 4696455584 -->
<g id="node9" class="node">
<title>4696455584</title>
<polygon fill="none" stroke="black" points="0,-192.5 0,-241.5 85.75,-241.5 85.75,-192.5 0,-192.5"/>
<text text-anchor="middle" x="42.88" y="-224.2" font-family="Times,serif" font-size="14.00">data=&#45;0.400</text>
<polyline fill="none" stroke="black" points="0,-217 85.75,-217"/>
<text text-anchor="middle" x="42.88" y="-199.7" font-family="Times,serif" font-size="14.00">grad=1.3668</text>
</g>
<!-- 4696455584&#45;&gt;4696451456tanh -->
<g id="edge25" class="edge">
<title>4696455584&#45;&gt;4696451456tanh</title>
<path fill="none" stroke="black" d="M86.12,-214.56C94.11,-214.1 102.41,-213.62 110.23,-213.17"/>
<polygon fill="black" stroke="black" points="110.35,-216.67 120.13,-212.6 109.94,-209.68 110.35,-216.67"/>
</g>
<!-- 4696455584&#45;&gt;4696455824* -->
<g id="edge40" class="edge">
<title>4696455584&#45;&gt;4696455824*</title>
<path fill="none" stroke="black" d="M84.93,-192.1C96.07,-185.34 107.92,-178.16 118.28,-171.87"/>
<polygon fill="black" stroke="black" points="120.04,-174.9 126.78,-166.72 116.41,-168.91 120.04,-174.9"/>
</g>
<!-- 4696450112* -->
<g id="node21" class="node">
<title>4696450112*</title>
<ellipse fill="none" stroke="black" cx="148.75" cy="-93" rx="27" ry="18"/>
<text text-anchor="middle" x="148.75" y="-87.95" font-family="Times,serif" font-size="14.00">*</text>
</g>
<!-- 4696455584&#45;&gt;4696450112* -->
<g id="edge42" class="edge">
<title>4696455584&#45;&gt;4696450112*</title>
<path fill="none" stroke="black" d="M76.38,-192.38C79.68,-189.36 82.88,-186.21 85.75,-183 105.48,-160.95 104.75,-151.22 121.75,-127 123.88,-123.96 126.18,-120.81 128.49,-117.71"/>
<polygon fill="black" stroke="black" points="131.14,-120 134.39,-109.92 125.56,-115.77 131.14,-120"/>
</g>
<!-- 4696455584&#45;&gt;4696450736* -->
<g id="edge20" class="edge">
<title>4696455584&#45;&gt;4696450736*</title>
<path fill="none" stroke="black" d="M86,-230.72C128.42,-243.31 195.97,-260 255.88,-260 255.88,-260 255.88,-260 1294.5,-260 1356.2,-260 1426.88,-245.89 1468.42,-236.13"/>
<polygon fill="black" stroke="black" points="1469.21,-239.54 1478.11,-233.8 1467.57,-232.73 1469.21,-239.54"/>
</g>
<!-- 4696451552 -->
<g id="node10" class="node">
<title>4696451552</title>
<polygon fill="none" stroke="black" points="1142.5,-137.5 1142.5,-186.5 1228.25,-186.5 1228.25,-137.5 1142.5,-137.5"/>
<text text-anchor="middle" x="1185.38" y="-169.2" font-family="Times,serif" font-size="14.00">data=0.771</text>
<polyline fill="none" stroke="black" points="1142.5,-162 1228.25,-162"/>
<text text-anchor="middle" x="1185.38" y="-144.7" font-family="Times,serif" font-size="14.00">grad=0.5788</text>
</g>
<!-- 4696451552&#45;&gt;4696451312+ -->
<g id="edge38" class="edge">
<title>4696451552&#45;&gt;4696451312+</title>
<path fill="none" stroke="black" d="M1228.62,-174.74C1238.24,-177.64 1248.35,-180.69 1257.62,-183.48"/>
<polygon fill="black" stroke="black" points="1256.38,-186.77 1266.97,-186.3 1258.4,-180.06 1256.38,-186.77"/>
</g>
<!-- 4696451552** 0.3 -->
<g id="node11" class="node">
<title>4696451552** 0.3</title>
<ellipse fill="none" stroke="black" cx="1061.38" cy="-146" rx="34.46" ry="18"/>
<text text-anchor="middle" x="1061.38" y="-140.95" font-family="Times,serif" font-size="14.00">** 0.3</text>
</g>
<!-- 4696451552** 0.3&#45;&gt;4696451552 -->
<g id="edge4" class="edge">
<title>4696451552** 0.3&#45;&gt;4696451552</title>
<path fill="none" stroke="black" d="M1095.07,-150.29C1106.2,-151.75 1118.95,-153.42 1131.26,-155.03"/>
<polygon fill="black" stroke="black" points="1130.52,-158.47 1140.89,-156.3 1131.43,-151.53 1130.52,-158.47"/>
</g>
<!-- 4696451696 -->
<g id="node12" class="node">
<title>4696451696</title>
<polygon fill="none" stroke="black" points="892.25,-42.5 892.25,-91.5 982.5,-91.5 982.5,-42.5 892.25,-42.5"/>
<text text-anchor="middle" x="937.38" y="-74.2" font-family="Times,serif" font-size="14.00">data=0.176</text>
<polyline fill="none" stroke="black" points="892.25,-67 982.5,-67"/>
<text text-anchor="middle" x="937.38" y="-49.7" font-family="Times,serif" font-size="14.00">grad=&#45;0.9646</text>
</g>
<!-- 4696452128relu -->
<g id="node19" class="node">
<title>4696452128relu</title>
<ellipse fill="none" stroke="black" cx="1061.38" cy="-45" rx="27" ry="18"/>
<text text-anchor="middle" x="1061.38" y="-39.95" font-family="Times,serif" font-size="14.00">relu</text>
</g>
<!-- 4696451696&#45;&gt;4696452128relu -->
<g id="edge41" class="edge">
<title>4696451696&#45;&gt;4696452128relu</title>
<path fill="none" stroke="black" d="M982.76,-59C996.22,-56.57 1010.85,-53.93 1023.74,-51.61"/>
<polygon fill="black" stroke="black" points="1024.29,-55.06 1033.51,-49.84 1023.05,-48.17 1024.29,-55.06"/>
</g>
<!-- 4696451696* -->
<g id="node13" class="node">
<title>4696451696*</title>
<ellipse fill="none" stroke="black" cx="829.25" cy="-85" rx="27" ry="18"/>
<text text-anchor="middle" x="829.25" y="-79.95" font-family="Times,serif" font-size="14.00">*</text>
</g>
<!-- 4696451696*&#45;&gt;4696451696 -->
<g id="edge5" class="edge">
<title>4696451696*&#45;&gt;4696451696</title>
<path fill="none" stroke="black" d="M855.94,-80.64C863.45,-79.37 871.96,-77.93 880.57,-76.47"/>
<polygon fill="black" stroke="black" points="881.1,-79.92 890.38,-74.8 879.93,-73.02 881.1,-79.92"/>
</g>
<!-- 4696455824 -->
<g id="node14" class="node">
<title>4696455824</title>
<polygon fill="none" stroke="black" points="459.75,-129.5 459.75,-178.5 550,-178.5 550,-129.5 459.75,-129.5"/>
<text text-anchor="middle" x="504.88" y="-161.2" font-family="Times,serif" font-size="14.00">data=0.400</text>
<polyline fill="none" stroke="black" points="459.75,-154 550,-154"/>
<text text-anchor="middle" x="504.88" y="-136.7" font-family="Times,serif" font-size="14.00">grad=&#45;0.7115</text>
</g>
<!-- 4696455872+ -->
<g id="node17" class="node">
<title>4696455872+</title>
<ellipse fill="none" stroke="black" cx="613" cy="-146" rx="27" ry="18"/>
<text text-anchor="middle" x="613" y="-140.95" font-family="Times,serif" font-size="14.00">+</text>
</g>
<!-- 4696455824&#45;&gt;4696455872+ -->
<g id="edge18" class="edge">
<title>4696455824&#45;&gt;4696455872+</title>
<path fill="none" stroke="black" d="M550.27,-150.65C558.34,-150.05 566.69,-149.42 574.53,-148.82"/>
<polygon fill="black" stroke="black" points="574.74,-152.32 584.45,-148.08 574.21,-145.34 574.74,-152.32"/>
</g>
<!-- 4696455824*&#45;&gt;4696455824 -->
<g id="edge6" class="edge">
<title>4696455824*&#45;&gt;4696455824</title>
<path fill="none" stroke="black" d="M176.08,-154C233.4,-154 370.58,-154 448.09,-154"/>
<polygon fill="black" stroke="black" points="448.02,-157.5 458.02,-154 448.02,-150.5 448.02,-157.5"/>
</g>
<!-- 4696455872 -->
<g id="node16" class="node">
<title>4696455872</title>
<polygon fill="none" stroke="black" points="676,-121.5 676,-170.5 766.25,-170.5 766.25,-121.5 676,-121.5"/>
<text text-anchor="middle" x="721.12" y="-153.2" font-family="Times,serif" font-size="14.00">data=0.420</text>
<polyline fill="none" stroke="black" points="676,-146 766.25,-146"/>
<text text-anchor="middle" x="721.12" y="-128.7" font-family="Times,serif" font-size="14.00">grad=&#45;0.7115</text>
</g>
<!-- 4696455872&#45;&gt;4696451360* -->
<g id="edge23" class="edge">
<title>4696455872&#45;&gt;4696451360*</title>
<path fill="none" stroke="black" d="M765.6,-170.99C776.56,-177.29 788.08,-183.91 798.22,-189.74"/>
<polygon fill="black" stroke="black" points="796.47,-192.77 806.88,-194.72 799.96,-186.7 796.47,-192.77"/>
</g>
<!-- 4696455872&#45;&gt;4696451696* -->
<g id="edge27" class="edge">
<title>4696455872&#45;&gt;4696451696*</title>
<path fill="none" stroke="black" d="M765.6,-121.01C776.56,-114.71 788.08,-108.09 798.22,-102.26"/>
<polygon fill="black" stroke="black" points="799.96,-105.3 806.88,-97.28 796.47,-99.23 799.96,-105.3"/>
</g>
<!-- 4696450208relu -->
<g id="node24" class="node">
<title>4696450208relu</title>
<ellipse fill="none" stroke="black" cx="829.25" cy="-146" rx="27" ry="18"/>
<text text-anchor="middle" x="829.25" y="-140.95" font-family="Times,serif" font-size="14.00">relu</text>
</g>
<!-- 4696455872&#45;&gt;4696450208relu -->
<g id="edge39" class="edge">
<title>4696455872&#45;&gt;4696450208relu</title>
<path fill="none" stroke="black" d="M766.52,-146C774.51,-146 782.78,-146 790.56,-146"/>
<polygon fill="black" stroke="black" points="790.39,-149.5 800.39,-146 790.39,-142.5 790.39,-149.5"/>
</g>
<!-- 4696455872+&#45;&gt;4696455872 -->
<g id="edge7" class="edge">
<title>4696455872+&#45;&gt;4696455872</title>
<path fill="none" stroke="black" d="M640.23,-146C647.58,-146 655.85,-146 664.22,-146"/>
<polygon fill="black" stroke="black" points="664.09,-149.5 674.09,-146 664.09,-142.5 664.09,-149.5"/>
</g>
<!-- 4696452128 -->
<g id="node18" class="node">
<title>4696452128</title>
<polygon fill="none" stroke="black" points="1140.25,-1.5 1140.25,-50.5 1230.5,-50.5 1230.5,-1.5 1140.25,-1.5"/>
<text text-anchor="middle" x="1185.38" y="-33.2" font-family="Times,serif" font-size="14.00">data=0.176</text>
<polyline fill="none" stroke="black" points="1140.25,-26 1230.5,-26"/>
<text text-anchor="middle" x="1185.38" y="-8.7" font-family="Times,serif" font-size="14.00">grad=&#45;0.9646</text>
</g>
<!-- 4696452128&#45;&gt;4696450880* -->
<g id="edge26" class="edge">
<title>4696452128&#45;&gt;4696450880*</title>
<path fill="none" stroke="black" d="M1225.29,-50.93C1238.05,-59.11 1251.98,-68.03 1263.83,-75.63"/>
<polygon fill="black" stroke="black" points="1261.65,-78.39 1271.96,-80.84 1265.43,-72.5 1261.65,-78.39"/>
</g>
<!-- 4696452128relu&#45;&gt;4696452128 -->
<g id="edge8" class="edge">
<title>4696452128relu&#45;&gt;4696452128</title>
<path fill="none" stroke="black" d="M1087.95,-41.02C1099.86,-39.16 1114.52,-36.88 1128.79,-34.66"/>
<polygon fill="black" stroke="black" points="1129.25,-38.13 1138.59,-33.13 1128.17,-31.21 1129.25,-38.13"/>
</g>
<!-- 4696450112 -->
<g id="node20" class="node">
<title>4696450112</title>
<polygon fill="none" stroke="black" points="211.75,-68.5 211.75,-117.5 302,-117.5 302,-68.5 211.75,-68.5"/>
<text text-anchor="middle" x="256.88" y="-100.2" font-family="Times,serif" font-size="14.00">data=&#45;0.080</text>
<polyline fill="none" stroke="black" points="211.75,-93 302,-93"/>
<text text-anchor="middle" x="256.88" y="-75.7" font-family="Times,serif" font-size="14.00">grad=&#45;0.7115</text>
</g>
<!-- 4696450256+ -->
<g id="node26" class="node">
<title>4696450256+</title>
<ellipse fill="none" stroke="black" cx="380.88" cy="-86" rx="27" ry="18"/>
<text text-anchor="middle" x="380.88" y="-80.95" font-family="Times,serif" font-size="14.00">+</text>
</g>
<!-- 4696450112&#45;&gt;4696450256+ -->
<g id="edge29" class="edge">
<title>4696450112&#45;&gt;4696450256+</title>
<path fill="none" stroke="black" d="M302.26,-90.45C315.51,-89.69 329.9,-88.87 342.64,-88.14"/>
<polygon fill="black" stroke="black" points="342.5,-91.65 352.29,-87.58 342.1,-84.66 342.5,-91.65"/>
</g>
<!-- 4696450112*&#45;&gt;4696450112 -->
<g id="edge9" class="edge">
<title>4696450112*&#45;&gt;4696450112</title>
<path fill="none" stroke="black" d="M175.98,-93C183.33,-93 191.6,-93 199.97,-93"/>
<polygon fill="black" stroke="black" points="199.84,-96.5 209.84,-93 199.84,-89.5 199.84,-96.5"/>
</g>
<!-- 4696452176 -->
<g id="node22" class="node">
<title>4696452176</title>
<polygon fill="none" stroke="black" points="211.75,-0.5 211.75,-49.5 302,-49.5 302,-0.5 211.75,-0.5"/>
<text text-anchor="middle" x="256.88" y="-32.2" font-family="Times,serif" font-size="14.00">data=0.100</text>
<polyline fill="none" stroke="black" points="211.75,-25 302,-25"/>
<text text-anchor="middle" x="256.88" y="-7.7" font-family="Times,serif" font-size="14.00">grad=&#45;0.7115</text>
</g>
<!-- 4696452176&#45;&gt;4696450256+ -->
<g id="edge36" class="edge">
<title>4696452176&#45;&gt;4696450256+</title>
<path fill="none" stroke="black" d="M302.26,-47.19C317.58,-54.85 334.4,-63.26 348.45,-70.29"/>
<polygon fill="black" stroke="black" points="346.73,-73.34 357.24,-74.68 349.86,-67.08 346.73,-73.34"/>
</g>
<!-- 4696450208 -->
<g id="node23" class="node">
<title>4696450208</title>
<polygon fill="none" stroke="black" points="894.5,-121.5 894.5,-170.5 980.25,-170.5 980.25,-121.5 894.5,-121.5"/>
<text text-anchor="middle" x="937.38" y="-153.2" font-family="Times,serif" font-size="14.00">data=0.420</text>
<polyline fill="none" stroke="black" points="894.5,-146 980.25,-146"/>
<text text-anchor="middle" x="937.38" y="-128.7" font-family="Times,serif" font-size="14.00">grad=0.3187</text>
</g>
<!-- 4696450208&#45;&gt;4696451552** 0.3 -->
<g id="edge17" class="edge">
<title>4696450208&#45;&gt;4696451552** 0.3</title>
<path fill="none" stroke="black" d="M980.7,-146C991.84,-146 1003.89,-146 1015.17,-146"/>
<polygon fill="black" stroke="black" points="1015.06,-149.5 1025.06,-146 1015.06,-142.5 1015.06,-149.5"/>
</g>
<!-- 4696450208relu&#45;&gt;4696450208 -->
<g id="edge10" class="edge">
<title>4696450208relu&#45;&gt;4696450208</title>
<path fill="none" stroke="black" d="M856.48,-146C864.6,-146 873.85,-146 883.11,-146"/>
<polygon fill="black" stroke="black" points="882.83,-149.5 892.83,-146 882.83,-142.5 882.83,-149.5"/>
</g>
<!-- 4696450256 -->
<g id="node25" class="node">
<title>4696450256</title>
<polygon fill="none" stroke="black" points="459.75,-61.5 459.75,-110.5 550,-110.5 550,-61.5 459.75,-61.5"/>
<text text-anchor="middle" x="504.88" y="-93.2" font-family="Times,serif" font-size="14.00">data=0.020</text>
<polyline fill="none" stroke="black" points="459.75,-86 550,-86"/>
<text text-anchor="middle" x="504.88" y="-68.7" font-family="Times,serif" font-size="14.00">grad=&#45;0.7115</text>
</g>
<!-- 4696450256&#45;&gt;4696455872+ -->
<g id="edge21" class="edge">
<title>4696450256&#45;&gt;4696455872+</title>
<path fill="none" stroke="black" d="M549.96,-110.92C560.7,-116.99 571.94,-123.35 581.85,-128.96"/>
<polygon fill="black" stroke="black" points="579.89,-131.87 590.32,-133.74 583.34,-125.77 579.89,-131.87"/>
</g>
<!-- 4696450256+&#45;&gt;4696450256 -->
<g id="edge11" class="edge">
<title>4696450256+&#45;&gt;4696450256</title>
<path fill="none" stroke="black" d="M408.35,-86C420.06,-86 434.31,-86 448.19,-86"/>
<polygon fill="black" stroke="black" points="448.19,-89.5 458.19,-86 448.19,-82.5 448.19,-89.5"/>
</g>
<!-- 4696454576 -->
<g id="node27" class="node">
<title>4696454576</title>
<polygon fill="none" stroke="black" points="0,-56.5 0,-105.5 85.75,-105.5 85.75,-56.5 0,-56.5"/>
<text text-anchor="middle" x="42.88" y="-88.2" font-family="Times,serif" font-size="14.00">data=0.200</text>
<polyline fill="none" stroke="black" points="0,-81 85.75,-81"/>
<text text-anchor="middle" x="42.88" y="-63.7" font-family="Times,serif" font-size="14.00">grad=0.2846</text>
</g>
<!-- 4696454576&#45;&gt;4696450112* -->
<g id="edge32" class="edge">
<title>4696454576&#45;&gt;4696450112*</title>
<path fill="none" stroke="black" d="M86.12,-85.88C94.11,-86.8 102.41,-87.76 110.23,-88.67"/>
<polygon fill="black" stroke="black" points="109.8,-92.14 120.13,-89.81 110.6,-85.19 109.8,-92.14"/>
</g>
<!-- 4696450544 -->
<g id="node28" class="node">
<title>4696450544</title>
<polygon fill="none" stroke="black" points="1991.75,-168.5 1991.75,-217.5 2077.5,-217.5 2077.5,-168.5 1991.75,-168.5"/>
<text text-anchor="middle" x="2034.62" y="-200.2" font-family="Times,serif" font-size="14.00">data=0.188</text>
<polyline fill="none" stroke="black" points="1991.75,-193 2077.5,-193"/>
<text text-anchor="middle" x="2034.62" y="-175.7" font-family="Times,serif" font-size="14.00">grad=1.0000</text>
</g>
<!-- 4696450544tanh -->
<g id="node29" class="node">
<title>4696450544tanh</title>
<ellipse fill="none" stroke="black" cx="1928.75" cy="-193" rx="27" ry="18"/>
<text text-anchor="middle" x="1928.75" y="-187.95" font-family="Times,serif" font-size="14.00">tanh</text>
</g>
<!-- 4696450544tanh&#45;&gt;4696450544 -->
<g id="edge12" class="edge">
<title>4696450544tanh&#45;&gt;4696450544</title>
<path fill="none" stroke="black" d="M1956.23,-193C1963.59,-193 1971.85,-193 1980.16,-193"/>
<polygon fill="black" stroke="black" points="1979.94,-196.5 1989.94,-193 1979.94,-189.5 1979.94,-196.5"/>
</g>
<!-- 4696450640 -->
<g id="node30" class="node">
<title>4696450640</title>
<polygon fill="none" stroke="black" points="1780,-168.5 1780,-217.5 1865.75,-217.5 1865.75,-168.5 1780,-168.5"/>
<text text-anchor="middle" x="1822.88" y="-200.2" font-family="Times,serif" font-size="14.00">data=0.190</text>
<polyline fill="none" stroke="black" points="1780,-193 1865.75,-193"/>
<text text-anchor="middle" x="1822.88" y="-175.7" font-family="Times,serif" font-size="14.00">grad=0.9646</text>
</g>
<!-- 4696450640&#45;&gt;4696450544tanh -->
<g id="edge33" class="edge">
<title>4696450640&#45;&gt;4696450544tanh</title>
<path fill="none" stroke="black" d="M1866.12,-193C1874.03,-193 1882.25,-193 1890.01,-193"/>
<polygon fill="black" stroke="black" points="1889.82,-196.5 1899.82,-193 1889.82,-189.5 1889.82,-196.5"/>
</g>
<!-- 4696450640+ -->
<g id="node31" class="node">
<title>4696450640+</title>
<ellipse fill="none" stroke="black" cx="1717" cy="-193" rx="27" ry="18"/>
<text text-anchor="middle" x="1717" y="-187.95" font-family="Times,serif" font-size="14.00">+</text>
</g>
<!-- 4696450640+&#45;&gt;4696450640 -->
<g id="edge13" class="edge">
<title>4696450640+&#45;&gt;4696450640</title>
<path fill="none" stroke="black" d="M1744.48,-193C1751.84,-193 1760.1,-193 1768.41,-193"/>
<polygon fill="black" stroke="black" points="1768.19,-196.5 1778.19,-193 1768.19,-189.5 1768.19,-196.5"/>
</g>
<!-- 4696450736 -->
<g id="node32" class="node">
<title>4696450736</title>
<polygon fill="none" stroke="black" points="1568.25,-202.5 1568.25,-251.5 1654,-251.5 1654,-202.5 1568.25,-202.5"/>
<text text-anchor="middle" x="1611.12" y="-234.2" font-family="Times,serif" font-size="14.00">data=&#45;0.245</text>
<polyline fill="none" stroke="black" points="1568.25,-227 1654,-227"/>
<text text-anchor="middle" x="1611.12" y="-209.7" font-family="Times,serif" font-size="14.00">grad=0.9646</text>
</g>
<!-- 4696450736&#45;&gt;4696450640+ -->
<g id="edge37" class="edge">
<title>4696450736&#45;&gt;4696450640+</title>
<path fill="none" stroke="black" d="M1654.37,-213.17C1663.36,-210.23 1672.74,-207.16 1681.4,-204.33"/>
<polygon fill="black" stroke="black" points="1682.41,-207.68 1690.83,-201.24 1680.24,-201.02 1682.41,-207.68"/>
</g>
<!-- 4696450736*&#45;&gt;4696450736 -->
<g id="edge14" class="edge">
<title>4696450736*&#45;&gt;4696450736</title>
<path fill="none" stroke="black" d="M1532.73,-227C1540.09,-227 1548.35,-227 1556.66,-227"/>
<polygon fill="black" stroke="black" points="1556.44,-230.5 1566.44,-227 1556.44,-223.5 1556.44,-230.5"/>
</g>
<!-- 4696450832 -->
<g id="node34" class="node">
<title>4696450832</title>
<polygon fill="none" stroke="black" points="1568.25,-134.5 1568.25,-183.5 1654,-183.5 1654,-134.5 1568.25,-134.5"/>
<text text-anchor="middle" x="1611.12" y="-166.2" font-family="Times,serif" font-size="14.00">data=0.435</text>
<polyline fill="none" stroke="black" points="1568.25,-159 1654,-159"/>
<text text-anchor="middle" x="1611.12" y="-141.7" font-family="Times,serif" font-size="14.00">grad=0.9646</text>
</g>
<!-- 4696450832&#45;&gt;4696450640+ -->
<g id="edge19" class="edge">
<title>4696450832&#45;&gt;4696450640+</title>
<path fill="none" stroke="black" d="M1654.37,-172.83C1663.36,-175.77 1672.74,-178.84 1681.4,-181.67"/>
<polygon fill="black" stroke="black" points="1680.24,-184.98 1690.83,-184.76 1682.41,-178.32 1680.24,-184.98"/>
</g>
<!-- 4696450832+&#45;&gt;4696450832 -->
<g id="edge15" class="edge">
<title>4696450832+&#45;&gt;4696450832</title>
<path fill="none" stroke="black" d="M1532.73,-159C1540.09,-159 1548.35,-159 1556.66,-159"/>
<polygon fill="black" stroke="black" points="1556.44,-162.5 1566.44,-159 1556.44,-155.5 1556.44,-162.5"/>
</g>
<!-- 4696450880 -->
<g id="node36" class="node">
<title>4696450880</title>
<polygon fill="none" stroke="black" points="1356.5,-88.5 1356.5,-137.5 1442.25,-137.5 1442.25,-88.5 1356.5,-88.5"/>
<text text-anchor="middle" x="1399.38" y="-120.2" font-family="Times,serif" font-size="14.00">data=&#45;0.176</text>
<polyline fill="none" stroke="black" points="1356.5,-113 1442.25,-113"/>
<text text-anchor="middle" x="1399.38" y="-95.7" font-family="Times,serif" font-size="14.00">grad=0.9646</text>
</g>
<!-- 4696450880&#45;&gt;4696450832+ -->
<g id="edge35" class="edge">
<title>4696450880&#45;&gt;4696450832+</title>
<path fill="none" stroke="black" d="M1442.62,-131.71C1452.39,-136.04 1462.64,-140.57 1471.91,-144.68"/>
<polygon fill="black" stroke="black" points="1470.31,-147.8 1480.87,-148.65 1473.14,-141.4 1470.31,-147.8"/>
</g>
<!-- 4696450880*&#45;&gt;4696450880 -->
<g id="edge16" class="edge">
<title>4696450880*&#45;&gt;4696450880</title>
<path fill="none" stroke="black" d="M1319.91,-98.65C1327.6,-100.05 1336.34,-101.65 1345.14,-103.26"/>
<polygon fill="black" stroke="black" points="1344.27,-106.66 1354.74,-105.02 1345.53,-99.78 1344.27,-106.66"/>
</g>
</g>
</svg>