<?xml version="1.0" encoding="utf-8" standalone="no"?>
<!DOCTYPE svg PUBLIC "-//W3C//DTD SVG 1.1//EN"
  "http://www.w3.org/Graphics/SVG/1.1/DTD/svg11.dtd">
<svg xmlns:xlink="http://www.w3.org/1999/xlink" width="352.187315pt" height="208.398125pt" viewBox="0 0 352.187315 208.398125" xmlns="http://www.w3.org/2000/svg" version="1.1">
 <metadata>
  <rdf:RDF xmlns:dc="http://purl.org/dc/elements/1.1/" xmlns:cc="http://creativecommons.org/ns#" xmlns:rdf="http://www.w3.org/1999/02/22-rdf-syntax-ns#">
   <cc:Work>
    <dc:type rdf:resource="http://purl.org/dc/dcmitype/StillImage"/>
    <dc:date>2024-03-14T04:13:50.884736</dc:date>
    <dc:format>image/svg+xml</dc:format>
    <dc:creator>
     <cc:Agent>
      <dc:title>Matplotlib v3.7.1, https://matplotlib.org/</dc:title>
     </cc:Agent>
    </dc:creator>
   </cc:Work>
  </rdf:RDF>
 </metadata>
 <defs>
  <style type="text/css">*{stroke-linejoin: round; stroke-linecap: butt}</style>
 </defs>
 <g id="figure_1">
  <g id="patch_1">
   <path d="M 0 208.398125 
L 352.187315 208.398125 
L 352.187315 0 
L 0 0 
z
" style="fill: #ffffff"/>
  </g>
  <g id="axes_1">
   <g id="patch_2">
    <path d="M 31.8 184.52 
L 344.987315 184.52 
L 344.987315 7.2 
L 31.8 7.2 
z
" style="fill: #ffffff"/>
   </g>
   <g id="matplotlib.axis_1">
    <g id="xtick_1">
     <g id="line2d_1">
      <defs>
       <path id="m85b165dbc9" d="M 0 0 
L 0 3.5 
" style="stroke: #000000; stroke-width: 0.8"/>
      </defs>
      <g>
       <use xlink:href="#m85b165dbc9" x="46.035787" y="184.52" style="stroke: #000000; stroke-width: 0.8"/>
      </g>
     </g>
     <g id="text_1">
      <!-- 0.0 -->
      <g transform="translate(38.084225 199.118437) scale(0.1 -0.1)">
       <defs>
        <path id="DejaVuSans-30" d="M 2034 4250 
Q 1547 4250 1301 3770 
Q 1056 3291 1056 2328 
Q 1056 1369 1301 889 
Q 1547 409 2034 409 
Q 2525 409 2770 889 
Q 3016 1369 3016 2328 
Q 3016 3291 2770 3770 
Q 2525 4250 2034 4250 
z
M 2034 4750 
Q 2819 4750 3233 4129 
Q 3647 3509 3647 2328 
Q 3647 1150 3233 529 
Q 2819 -91 2034 -91 
Q 1250 -91 836 529 
Q 422 1150 422 2328 
Q 422 3509 836 4129 
Q 1250 4750 2034 4750 
z
" transform="scale(0.015625)"/>
        <path id="DejaVuSans-2e" d="M 684 794 
L 1344 794 
L 1344 0 
L 684 0 
L 684 794 
z
" transform="scale(0.015625)"/>
       </defs>
       <use xlink:href="#DejaVuSans-30"/>
       <use xlink:href="#DejaVuSans-2e" x="63.623047"/>
       <use xlink:href="#DejaVuSans-30" x="95.410156"/>
      </g>
     </g>
    </g>
    <g id="xtick_2">
     <g id="line2d_2">
      <g>
       <use xlink:href="#m85b165dbc9" x="102.978935" y="184.52" style="stroke: #000000; stroke-width: 0.8"/>
      </g>
     </g>
     <g id="text_2">
      <!-- 0.2 -->
      <g transform="translate(95.027373 199.118437) scale(0.1 -0.1)">
       <defs>
        <path id="DejaVuSans-32" d="M 1228 531 
L 3431 531 
L 3431 0 
L 469 0 
L 469 531 
Q 828 903 1448 1529 
Q 2069 2156 2228 2338 
Q 2531 2678 2651 2914 
Q 2772 3150 2772 3378 
Q 2772 3750 2511 3984 
Q 2250 4219 1831 4219 
Q 1534 4219 1204 4116 
Q 875 4013 500 3803 
L 500 4441 
Q 881 4594 1212 4672 
Q 1544 4750 1819 4750 
Q 2544 4750 2975 4387 
Q 3406 4025 3406 3419 
Q 3406 3131 3298 2873 
Q 3191 2616 2906 2266 
Q 2828 2175 2409 1742 
Q 1991 1309 1228 531 
z
" transform="scale(0.015625)"/>
       </defs>
       <use xlink:href="#DejaVuSans-30"/>
       <use xlink:href="#DejaVuSans-2e" x="63.623047"/>
       <use xlink:href="#DejaVuSans-32" x="95.410156"/>
      </g>
     </g>
    </g>
    <g id="xtick_3">
     <g id="line2d_3">
      <g>
       <use xlink:href="#m85b165dbc9" x="159.922084" y="184.52" style="stroke: #000000; stroke-width: 0.8"/>
      </g>
     </g>
     <g id="text_3">
      <!-- 0.4 -->
      <g transform="translate(151.970521 199.118437) scale(0.1 -0.1)">
       <defs>
        <path id="DejaVuSans-34" d="M 2419 4116 
L 825 1625 
L 2419 1625 
L 2419 4116 
z
M 2253 4666 
L 3047 4666 
L 3047 1625 
L 3713 1625 
L 3713 1100 
L 3047 1100 
L 3047 0 
L 2419 0 
L 2419 1100 
L 313 1100 
L 313 1709 
L 2253 4666 
z
" transform="scale(0.015625)"/>
       </defs>
       <use xlink:href="#DejaVuSans-30"/>
       <use xlink:href="#DejaVuSans-2e" x="63.623047"/>
       <use xlink:href="#DejaVuSans-34" x="95.410156"/>
      </g>
     </g>
    </g>
    <g id="xtick_4">
     <g id="line2d_4">
      <g>
       <use xlink:href="#m85b165dbc9" x="216.865232" y="184.52" style="stroke: #000000; stroke-width: 0.8"/>
      </g>
     </g>
     <g id="text_4">
      <!-- 0.6 -->
      <g transform="translate(208.913669 199.118437) scale(0.1 -0.1)">
       <defs>
        <path id="DejaVuSans-36" d="M 2113 2584 
Q 1688 2584 1439 2293 
Q 1191 2003 1191 1497 
Q 1191 994 1439 701 
Q 1688 409 2113 409 
Q 2538 409 2786 701 
Q 3034 994 3034 1497 
Q 3034 2003 2786 2293 
Q 2538 2584 2113 2584 
z
M 3366 4563 
L 3366 3988 
Q 3128 4100 2886 4159 
Q 2644 4219 2406 4219 
Q 1781 4219 1451 3797 
Q 1122 3375 1075 2522 
Q 1259 2794 1537 2939 
Q 1816 3084 2150 3084 
Q 2853 3084 3261 2657 
Q 3669 2231 3669 1497 
Q 3669 778 3244 343 
Q 2819 -91 2113 -91 
Q 1303 -91 875 529 
Q 447 1150 447 2328 
Q 447 3434 972 4092 
Q 1497 4750 2381 4750 
Q 2619 4750 2861 4703 
Q 3103 4656 3366 4563 
z
" transform="scale(0.015625)"/>
       </defs>
       <use xlink:href="#DejaVuSans-30"/>
       <use xlink:href="#DejaVuSans-2e" x="63.623047"/>
       <use xlink:href="#DejaVuSans-36" x="95.410156"/>
      </g>
     </g>
    </g>
    <g id="xtick_5">
     <g id="line2d_5">
      <g>
       <use xlink:href="#m85b165dbc9" x="273.80838" y="184.52" style="stroke: #000000; stroke-width: 0.8"/>
      </g>
     </g>
     <g id="text_5">
      <!-- 0.8 -->
      <g transform="translate(265.856817 199.118437) scale(0.1 -0.1)">
       <defs>
        <path id="DejaVuSans-38" d="M 2034 2216 
Q 1584 2216 1326 1975 
Q 1069 1734 1069 1313 
Q 1069 891 1326 650 
Q 1584 409 2034 409 
Q 2484 409 2743 651 
Q 3003 894 3003 1313 
Q 3003 1734 2745 1975 
Q 2488 2216 2034 2216 
z
M 1403 2484 
Q 997 2584 770 2862 
Q 544 3141 544 3541 
Q 544 4100 942 4425 
Q 1341 4750 2034 4750 
Q 2731 4750 3128 4425 
Q 3525 4100 3525 3541 
Q 3525 3141 3298 2862 
Q 3072 2584 2669 2484 
Q 3125 2378 3379 2068 
Q 3634 1759 3634 1313 
Q 3634 634 3220 271 
Q 2806 -91 2034 -91 
Q 1263 -91 848 271 
Q 434 634 434 1313 
Q 434 1759 690 2068 
Q 947 2378 1403 2484 
z
M 1172 3481 
Q 1172 3119 1398 2916 
Q 1625 2713 2034 2713 
Q 2441 2713 2670 2916 
Q 2900 3119 2900 3481 
Q 2900 3844 2670 4047 
Q 2441 4250 2034 4250 
Q 1625 4250 1398 4047 
Q 1172 3844 1172 3481 
z
" transform="scale(0.015625)"/>
       </defs>
       <use xlink:href="#DejaVuSans-30"/>
       <use xlink:href="#DejaVuSans-2e" x="63.623047"/>
       <use xlink:href="#DejaVuSans-38" x="95.410156"/>
      </g>
     </g>
    </g>
    <g id="xtick_6">
     <g id="line2d_6">
      <g>
       <use xlink:href="#m85b165dbc9" x="330.751528" y="184.52" style="stroke: #000000; stroke-width: 0.8"/>
      </g>
     </g>
     <g id="text_6">
      <!-- 1.0 -->
      <g transform="translate(322.799966 199.118437) scale(0.1 -0.1)">
       <defs>
        <path id="DejaVuSans-31" d="M 794 531 
L 1825 531 
L 1825 4091 
L 703 3866 
L 703 4441 
L 1819 4666 
L 2450 4666 
L 2450 531 
L 3481 531 
L 3481 0 
L 794 0 
L 794 531 
z
" transform="scale(0.015625)"/>
       </defs>
       <use xlink:href="#DejaVuSans-31"/>
       <use xlink:href="#DejaVuSans-2e" x="63.623047"/>
       <use xlink:href="#DejaVuSans-30" x="95.410156"/>
      </g>
     </g>
    </g>
   </g>
   <g id="matplotlib.axis_2">
    <g id="ytick_1">
     <g id="line2d_7">
      <defs>
       <path id="m7c1cf69c80" d="M 0 0 
L -3.5 0 
" style="stroke: #000000; stroke-width: 0.8"/>
      </defs>
      <g>
       <use xlink:href="#m7c1cf69c80" x="31.8" y="176.46" style="stroke: #000000; stroke-width: 0.8"/>
      </g>
     </g>
     <g id="text_7">
      <!-- $\mathdefault{10^{0}}$ -->
      <g transform="translate(7.2 180.259219) scale(0.1 -0.1)">
       <use xlink:href="#DejaVuSans-31" transform="translate(0 0.765625)"/>
       <use xlink:href="#DejaVuSans-30" transform="translate(63.623047 0.765625)"/>
       <use xlink:href="#DejaVuSans-30" transform="translate(128.203125 39.046875) scale(0.7)"/>
      </g>
     </g>
    </g>
    <g id="ytick_2">
     <g id="line2d_8">
      <g>
       <use xlink:href="#m7c1cf69c80" x="31.8" y="131.721299" style="stroke: #000000; stroke-width: 0.8"/>
      </g>
     </g>
     <g id="text_8">
      <!-- $\mathdefault{10^{1}}$ -->
      <g transform="translate(7.2 135.520517) scale(0.1 -0.1)">
       <use xlink:href="#DejaVuSans-31" transform="translate(0 0.684375)"/>
       <use xlink:href="#DejaVuSans-30" transform="translate(63.623047 0.684375)"/>
       <use xlink:href="#DejaVuSans-31" transform="translate(128.203125 38.965625) scale(0.7)"/>
      </g>
     </g>
    </g>
    <g id="ytick_3">
     <g id="line2d_9">
      <g>
       <use xlink:href="#m7c1cf69c80" x="31.8" y="86.982597" style="stroke: #000000; stroke-width: 0.8"/>
      </g>
     </g>
     <g id="text_9">
      <!-- $\mathdefault{10^{2}}$ -->
      <g transform="translate(7.2 90.781816) scale(0.1 -0.1)">
       <use xlink:href="#DejaVuSans-31" transform="translate(0 0.765625)"/>
       <use xlink:href="#DejaVuSans-30" transform="translate(63.623047 0.765625)"/>
       <use xlink:href="#DejaVuSans-32" transform="translate(128.203125 39.046875) scale(0.7)"/>
      </g>
     </g>
    </g>
    <g id="ytick_4">
     <g id="line2d_10">
      <g>
       <use xlink:href="#m7c1cf69c80" x="31.8" y="42.243896" style="stroke: #000000; stroke-width: 0.8"/>
      </g>
     </g>
     <g id="text_10">
      <!-- $\mathdefault{10^{3}}$ -->
      <g transform="translate(7.2 46.043115) scale(0.1 -0.1)">
       <defs>
        <path id="DejaVuSans-33" d="M 2597 2516 
Q 3050 2419 3304 2112 
Q 3559 1806 3559 1356 
Q 3559 666 3084 287 
Q 2609 -91 1734 -91 
Q 1441 -91 1130 -33 
Q 819 25 488 141 
L 488 750 
Q 750 597 1062 519 
Q 1375 441 1716 441 
Q 2309 441 2620 675 
Q 2931 909 2931 1356 
Q 2931 1769 2642 2001 
Q 2353 2234 1838 2234 
L 1294 2234 
L 1294 2753 
L 1863 2753 
Q 2328 2753 2575 2939 
Q 2822 3125 2822 3475 
Q 2822 3834 2567 4026 
Q 2313 4219 1838 4219 
Q 1578 4219 1281 4162 
Q 984 4106 628 3988 
L 628 4550 
Q 988 4650 1302 4700 
Q 1616 4750 1894 4750 
Q 2613 4750 3031 4423 
Q 3450 4097 3450 3541 
Q 3450 3153 3228 2886 
Q 3006 2619 2597 2516 
z
" transform="scale(0.015625)"/>
       </defs>
       <use xlink:href="#DejaVuSans-31" transform="translate(0 0.765625)"/>
       <use xlink:href="#DejaVuSans-30" transform="translate(63.623047 0.765625)"/>
       <use xlink:href="#DejaVuSans-33" transform="translate(128.203125 39.046875) scale(0.7)"/>
      </g>
     </g>
    </g>
    <g id="ytick_5">
     <g id="line2d_11">
      <defs>
       <path id="mf988da89ee" d="M 0 0 
L -2 0 
" style="stroke: #000000; stroke-width: 0.6"/>
      </defs>
      <g>
       <use xlink:href="#mf988da89ee" x="31.8" y="183.390113" style="stroke: #000000; stroke-width: 0.6"/>
      </g>
     </g>
    </g>
    <g id="ytick_6">
     <g id="line2d_12">
      <g>
       <use xlink:href="#mf988da89ee" x="31.8" y="180.795628" style="stroke: #000000; stroke-width: 0.6"/>
      </g>
     </g>
    </g>
    <g id="ytick_7">
     <g id="line2d_13">
      <g>
       <use xlink:href="#mf988da89ee" x="31.8" y="178.507131" style="stroke: #000000; stroke-width: 0.6"/>
      </g>
     </g>
    </g>
    <g id="ytick_8">
     <g id="line2d_14">
      <g>
       <use xlink:href="#mf988da89ee" x="31.8" y="162.992309" style="stroke: #000000; stroke-width: 0.6"/>
      </g>
     </g>
    </g>
    <g id="ytick_9">
     <g id="line2d_15">
      <g>
       <use xlink:href="#mf988da89ee" x="31.8" y="155.114215" style="stroke: #000000; stroke-width: 0.6"/>
      </g>
     </g>
    </g>
    <g id="ytick_10">
     <g id="line2d_16">
      <g>
       <use xlink:href="#mf988da89ee" x="31.8" y="149.524618" style="stroke: #000000; stroke-width: 0.6"/>
      </g>
     </g>
    </g>
    <g id="ytick_11">
     <g id="line2d_17">
      <g>
       <use xlink:href="#mf988da89ee" x="31.8" y="145.18899" style="stroke: #000000; stroke-width: 0.6"/>
      </g>
     </g>
    </g>
    <g id="ytick_12">
     <g id="line2d_18">
      <g>
       <use xlink:href="#mf988da89ee" x="31.8" y="141.646524" style="stroke: #000000; stroke-width: 0.6"/>
      </g>
     </g>
    </g>
    <g id="ytick_13">
     <g id="line2d_19">
      <g>
       <use xlink:href="#mf988da89ee" x="31.8" y="138.651411" style="stroke: #000000; stroke-width: 0.6"/>
      </g>
     </g>
    </g>
    <g id="ytick_14">
     <g id="line2d_20">
      <g>
       <use xlink:href="#mf988da89ee" x="31.8" y="136.056927" style="stroke: #000000; stroke-width: 0.6"/>
      </g>
     </g>
    </g>
    <g id="ytick_15">
     <g id="line2d_21">
      <g>
       <use xlink:href="#mf988da89ee" x="31.8" y="133.768429" style="stroke: #000000; stroke-width: 0.6"/>
      </g>
     </g>
    </g>
    <g id="ytick_16">
     <g id="line2d_22">
      <g>
       <use xlink:href="#mf988da89ee" x="31.8" y="118.253608" style="stroke: #000000; stroke-width: 0.6"/>
      </g>
     </g>
    </g>
    <g id="ytick_17">
     <g id="line2d_23">
      <g>
       <use xlink:href="#mf988da89ee" x="31.8" y="110.375513" style="stroke: #000000; stroke-width: 0.6"/>
      </g>
     </g>
    </g>
    <g id="ytick_18">
     <g id="line2d_24">
      <g>
       <use xlink:href="#mf988da89ee" x="31.8" y="104.785917" style="stroke: #000000; stroke-width: 0.6"/>
      </g>
     </g>
    </g>
    <g id="ytick_19">
     <g id="line2d_25">
      <g>
       <use xlink:href="#mf988da89ee" x="31.8" y="100.450288" style="stroke: #000000; stroke-width: 0.6"/>
      </g>
     </g>
    </g>
    <g id="ytick_20">
     <g id="line2d_26">
      <g>
       <use xlink:href="#mf988da89ee" x="31.8" y="96.907822" style="stroke: #000000; stroke-width: 0.6"/>
      </g>
     </g>
    </g>
    <g id="ytick_21">
     <g id="line2d_27">
      <g>
       <use xlink:href="#mf988da89ee" x="31.8" y="93.91271" style="stroke: #000000; stroke-width: 0.6"/>
      </g>
     </g>
    </g>
    <g id="ytick_22">
     <g id="line2d_28">
      <g>
       <use xlink:href="#mf988da89ee" x="31.8" y="91.318225" style="stroke: #000000; stroke-width: 0.6"/>
      </g>
     </g>
    </g>
    <g id="ytick_23">
     <g id="line2d_29">
      <g>
       <use xlink:href="#mf988da89ee" x="31.8" y="89.029728" style="stroke: #000000; stroke-width: 0.6"/>
      </g>
     </g>
    </g>
    <g id="ytick_24">
     <g id="line2d_30">
      <g>
       <use xlink:href="#mf988da89ee" x="31.8" y="73.514906" style="stroke: #000000; stroke-width: 0.6"/>
      </g>
     </g>
    </g>
    <g id="ytick_25">
     <g id="line2d_31">
      <g>
       <use xlink:href="#mf988da89ee" x="31.8" y="65.636812" style="stroke: #000000; stroke-width: 0.6"/>
      </g>
     </g>
    </g>
    <g id="ytick_26">
     <g id="line2d_32">
      <g>
       <use xlink:href="#mf988da89ee" x="31.8" y="60.047215" style="stroke: #000000; stroke-width: 0.6"/>
      </g>
     </g>
    </g>
    <g id="ytick_27">
     <g id="line2d_33">
      <g>
       <use xlink:href="#mf988da89ee" x="31.8" y="55.711587" style="stroke: #000000; stroke-width: 0.6"/>
      </g>
     </g>
    </g>
    <g id="ytick_28">
     <g id="line2d_34">
      <g>
       <use xlink:href="#mf988da89ee" x="31.8" y="52.169121" style="stroke: #000000; stroke-width: 0.6"/>
      </g>
     </g>
    </g>
    <g id="ytick_29">
     <g id="line2d_35">
      <g>
       <use xlink:href="#mf988da89ee" x="31.8" y="49.174008" style="stroke: #000000; stroke-width: 0.6"/>
      </g>
     </g>
    </g>
    <g id="ytick_30">
     <g id="line2d_36">
      <g>
       <use xlink:href="#mf988da89ee" x="31.8" y="46.579524" style="stroke: #000000; stroke-width: 0.6"/>
      </g>
     </g>
    </g>
    <g id="ytick_31">
     <g id="line2d_37">
      <g>
       <use xlink:href="#mf988da89ee" x="31.8" y="44.291027" style="stroke: #000000; stroke-width: 0.6"/>
      </g>
     </g>
    </g>
    <g id="ytick_32">
     <g id="line2d_38">
      <g>
       <use xlink:href="#mf988da89ee" x="31.8" y="28.776205" style="stroke: #000000; stroke-width: 0.6"/>
      </g>
     </g>
    </g>
    <g id="ytick_33">
     <g id="line2d_39">
      <g>
       <use xlink:href="#mf988da89ee" x="31.8" y="20.898111" style="stroke: #000000; stroke-width: 0.6"/>
      </g>
     </g>
    </g>
    <g id="ytick_34">
     <g id="line2d_40">
      <g>
       <use xlink:href="#mf988da89ee" x="31.8" y="15.308514" style="stroke: #000000; stroke-width: 0.6"/>
      </g>
     </g>
    </g>
    <g id="ytick_35">
     <g id="line2d_41">
      <g>
       <use xlink:href="#mf988da89ee" x="31.8" y="10.972886" style="stroke: #000000; stroke-width: 0.6"/>
      </g>
     </g>
    </g>
    <g id="ytick_36">
     <g id="line2d_42">
      <g>
       <use xlink:href="#mf988da89ee" x="31.8" y="7.43042" style="stroke: #000000; stroke-width: 0.6"/>
      </g>
     </g>
    </g>
   </g>
   <g id="line2d_43">
    <path d="M 46.035787 15.26 
L 46.374734 21.81309 
L 46.713682 22.801848 
L 47.052629 25.144889 
L 47.391576 28.805371 
L 47.730524 28.932268 
L 48.069471 29.691184 
L 49.086313 30.092449 
L 49.42526 32.048541 
L 49.764207 32.221764 
L 50.103155 32.537512 
L 50.442102 33.955659 
L 51.119997 34.944268 
L 51.797891 36.184008 
L 52.136839 36.269539 
L 52.475786 36.644587 
L 53.153681 36.834861 
L 53.492628 37.815228 
L 54.170523 37.93938 
L 54.848417 38.685245 
L 55.526312 38.750065 
L 56.204206 39.044461 
L 56.882101 39.698047 
L 57.559996 40.712613 
L 58.576838 41.500538 
L 58.915785 42.715897 
L 59.593679 43.425462 
L 60.610521 43.821789 
L 60.949469 44.639552 
L 61.288416 45.084189 
L 61.627363 45.10669 
L 61.966311 45.447373 
L 62.305258 45.958101 
L 62.983153 46.338157 
L 63.3221 46.947291 
L 63.999995 47.046549 
L 64.677889 47.525077 
L 66.033678 49.008177 
L 68.067362 50.229149 
L 68.745257 50.317266 
L 69.762099 51.098166 
L 70.778941 51.252005 
L 71.456835 51.500709 
L 72.13473 51.626265 
L 72.473677 51.84796 
L 73.490519 52.104463 
L 73.829467 52.233995 
L 74.168414 52.627855 
L 75.185256 53.097683 
L 75.524203 53.509637 
L 76.541045 54.108607 
L 77.21894 54.288347 
L 77.896834 54.726631 
L 78.574729 54.912208 
L 79.252624 55.099575 
L 79.930518 56.585876 
L 80.608413 56.749152 
L 80.94736 57.163448 
L 81.286307 57.163448 
L 81.625255 57.715588 
L 81.964202 57.801943 
L 82.981044 59.00693 
L 83.997886 59.472894 
L 84.336833 59.950308 
L 84.67578 60.193488 
L 85.014728 60.193488 
L 85.353675 60.390247 
L 85.692622 60.390247 
L 86.709464 61.095031 
L 87.387359 61.405087 
L 87.726306 61.56199 
L 88.065254 62.040449 
L 88.404201 62.865033 
L 88.743148 62.921269 
L 89.082096 63.147858 
L 89.421043 63.204921 
L 89.75999 63.492774 
L 91.793674 64.0816 
L 93.149463 64.382843 
L 93.827358 64.565857 
L 94.166305 64.874763 
L 94.505253 64.874763 
L 94.8442 65.252051 
L 95.183147 65.252051 
L 95.522094 65.572154 
L 96.199989 65.701686 
L 96.538936 65.96337 
L 96.877884 66.029346 
L 97.555778 67.186627 
L 98.233673 67.398206 
L 98.57262 67.469247 
L 99.250515 67.901037 
L 100.267357 68.120585 
L 101.284199 69.024458 
L 102.639988 69.413846 
L 102.978935 69.65128 
L 103.995777 70.969057 
L 105.012619 71.312956 
L 106.368408 71.929826 
L 107.046303 72.019571 
L 107.38525 72.29132 
L 108.063145 73.225624 
L 109.418934 73.514906 
L 110.096829 74.308068 
L 110.435776 74.511523 
L 110.774723 74.511523 
L 111.452618 75.454392 
L 111.791565 75.454392 
L 112.808407 75.998679 
L 113.825249 76.44536 
L 114.503144 76.902553 
L 114.842091 76.902553 
L 115.858933 77.135247 
L 116.19788 77.135247 
L 116.536828 77.972352 
L 117.214722 78.593164 
L 117.55367 78.593164 
L 117.892617 78.719743 
L 118.909459 78.719743 
L 119.248406 78.847151 
L 119.587354 79.497037 
L 119.926301 79.497037 
L 120.604195 79.763202 
L 121.28209 80.306728 
L 121.959985 80.306728 
L 122.637879 80.724589 
L 122.976827 80.724589 
L 123.315774 80.865897 
L 123.654721 81.151634 
L 123.993669 82.646969 
L 124.332616 82.960359 
L 125.01051 82.960359 
L 125.688405 83.278887 
L 126.027352 83.602724 
L 126.3663 83.602724 
L 126.705247 83.93205 
L 127.044194 83.93205 
L 127.383142 84.267055 
L 128.061036 84.607937 
L 128.399984 85.308184 
L 128.738931 85.487262 
L 129.077878 85.850446 
L 129.416826 86.034616 
L 129.755773 86.034616 
L 130.09472 86.220548 
L 130.772615 86.220548 
L 131.111562 86.408277 
L 131.450509 86.408277 
L 131.789457 86.789265 
L 132.128404 86.789265 
L 132.467351 86.982597 
L 132.806299 86.982597 
L 133.145246 87.375131 
L 133.484193 87.574413 
L 133.823141 87.979214 
L 134.501035 87.979214 
L 134.839983 88.392629 
L 135.17893 88.392629 
L 135.517877 88.602683 
L 136.195772 88.602683 
L 136.534719 88.815032 
L 136.873666 88.815032 
L 137.890508 89.46637 
L 138.229456 89.46637 
L 138.90735 90.370244 
L 139.585245 90.370244 
L 139.924192 90.838454 
L 140.263139 90.838454 
L 140.941034 91.318225 
L 141.279981 92.060855 
L 141.957876 92.060855 
L 142.635771 92.572194 
L 143.652613 92.572194 
L 143.99156 92.833 
L 144.330507 92.833 
L 144.669455 93.365356 
L 145.008402 93.365356 
L 145.686296 93.91271 
L 146.025244 93.91271 
L 146.364191 94.19228 
L 147.042086 94.19228 
L 147.381033 94.475931 
L 147.71998 95.352611 
L 148.058928 95.653854 
L 148.736822 95.653854 
L 149.753664 96.586662 
L 150.431559 96.586662 
L 151.448401 97.566522 
L 152.126295 97.566522 
L 152.465243 98.248338 
L 153.482085 98.248338 
L 153.821032 98.598433 
L 154.159979 98.598433 
L 154.498927 98.954953 
L 154.837874 98.954953 
L 155.176821 99.318137 
L 155.515768 99.318137 
L 155.854716 99.688239 
L 156.53261 99.688239 
L 156.871558 100.450288 
L 157.210505 100.450288 
L 158.227347 101.652513 
L 158.905242 101.652513 
L 159.583136 102.497419 
L 160.261031 102.497419 
L 160.938925 103.380743 
L 162.294715 103.380743 
L 162.633662 103.837935 
L 163.311557 103.837935 
L 163.650504 104.306145 
L 163.989451 104.306145 
L 164.328399 104.785917 
L 164.667346 104.785917 
L 165.34524 105.782533 
L 165.684188 105.782533 
L 166.023135 106.300691 
L 166.362082 106.300691 
L 167.039977 107.380401 
L 168.056819 107.380401 
L 168.395766 107.943622 
L 169.073661 107.943622 
L 169.412608 108.523658 
L 169.751556 108.523658 
L 170.090503 109.121545 
L 170.768397 109.121545 
L 171.107345 109.738415 
L 172.463134 109.738415 
L 172.802081 110.375513 
L 173.479976 110.375513 
L 173.818923 111.034213 
L 174.496818 111.034213 
L 175.174712 112.422644 
L 176.191554 112.422644 
L 176.530502 113.15593 
L 177.208396 113.15593 
L 177.547344 113.917979 
L 179.24208 113.917979 
L 179.581028 114.711141 
L 179.919975 114.711141 
L 180.258922 115.538065 
L 181.275764 115.538065 
L 181.614711 116.401753 
L 182.970501 116.401753 
L 183.309448 117.305626 
L 183.987343 117.305626 
L 184.32629 118.253608 
L 187.037868 118.253608 
L 187.376816 119.250225 
L 189.4105 119.250225 
L 189.749447 120.300738 
L 191.444183 120.300738 
L 191.783131 121.411313 
L 192.799973 121.411313 
L 193.13892 122.589236 
L 197.545235 122.589236 
L 197.884182 123.843204 
L 200.256813 123.843204 
L 200.595761 125.18372 
L 201.273655 125.18372 
L 201.612603 126.623621 
L 203.307339 126.623621 
L 203.646287 128.178833 
L 206.018918 128.178833 
L 206.357865 129.869444 
L 208.052602 129.869444 
L 208.391549 131.721299 
L 209.747338 131.721299 
L 210.086286 133.768429 
L 212.797864 133.768429 
L 213.136811 136.056927 
L 216.526284 136.056927 
L 216.865232 138.651411 
L 221.610494 138.651411 
L 221.949441 141.646524 
L 224.322073 141.646524 
L 224.66102 145.18899 
L 227.372598 145.18899 
L 227.711546 149.524618 
L 235.507334 149.524618 
L 235.846281 155.114215 
L 243.642069 155.114215 
L 243.981017 162.992309 
L 258.555751 162.992309 
L 258.894698 176.46 
L 274.486275 176.46 
L 274.486524 209.398125 
L 274.486524 209.398125 
" clip-path="url(#pf66e5df2f1)" style="fill: none; stroke: #1f77b4; stroke-width: 1.5; stroke-linecap: square"/>
   </g>
   <g id="line2d_44">
    <path d="M 46.035787 32.048541 
L 46.082485 36.702934 
L 46.234252 52.962283 
L 46.38602 58.239569 
L 46.607834 64.32222 
L 47.109834 70.464359 
L 47.238252 72.019571 
L 47.401694 74.308068 
L 47.413369 74.308068 
L 47.565136 75.670281 
L 47.588485 75.779132 
L 47.903694 77.729476 
L 47.927043 77.729476 
L 48.253927 80.033065 
L 48.265601 80.033065 
L 48.49909 81.588276 
L 48.510764 81.588276 
L 48.662531 82.646969 
L 48.837648 83.602724 
L 48.849322 83.602724 
L 49.012764 84.436748 
L 49.047787 84.436748 
L 49.304624 86.597837 
L 49.351322 86.597837 
L 49.491415 87.177873 
L 49.549787 87.177873 
L 49.701555 87.979214 
L 49.748252 87.979214 
L 49.876671 88.392629 
L 49.923369 88.392629 
L 50.051787 88.815032 
L 50.063462 88.815032 
L 50.19188 89.246823 
L 50.215229 89.246823 
L 50.366997 90.140303 
L 50.413694 90.140303 
L 50.530439 90.370244 
L 50.542113 90.370244 
L 50.670532 90.838454 
L 50.682206 90.838454 
L 50.810625 91.318225 
L 50.90402 91.318225 
L 51.032439 91.810145 
L 51.11416 91.810145 
L 51.242578 92.314842 
L 51.254253 92.314842 
L 51.382671 92.833 
L 51.417694 92.833 
L 51.546113 93.365356 
L 51.61616 93.365356 
L 51.744578 93.91271 
L 51.791276 93.91271 
L 51.919694 94.475931 
L 51.989741 94.475931 
L 52.11816 95.055967 
L 52.211555 95.055967 
L 52.339974 95.653854 
L 52.374997 95.653854 
L 52.503415 96.270724 
L 52.538439 96.270724 
L 52.666857 96.907822 
L 52.841974 96.907822 
L 52.970392 97.566522 
L 53.040439 97.566522 
L 53.168857 98.248338 
L 53.262253 98.248338 
L 53.390671 98.954953 
L 53.449043 98.954953 
L 53.565788 99.318137 
L 53.635834 99.318137 
L 53.752578 99.688239 
L 53.775927 99.688239 
L 53.892671 100.065528 
L 53.939369 100.065528 
L 54.056113 100.450288 
L 54.114485 100.450288 
L 54.231229 100.842822 
L 54.242904 100.842822 
L 54.371323 101.652513 
L 54.429695 101.652513 
L 54.546439 102.070374 
L 54.639834 102.070374 
L 54.756578 102.497419 
L 54.81495 102.497419 
L 54.931695 102.934062 
L 54.943369 102.934062 
L 55.060113 103.380743 
L 55.176857 103.380743 
L 55.293602 103.837935 
L 55.52709 103.837935 
L 55.643834 104.306145 
L 55.73723 104.306145 
L 55.853974 104.785917 
L 55.912346 104.785917 
L 56.02909 105.277836 
L 56.227555 105.277836 
L 56.344299 105.782533 
L 56.437695 105.782533 
L 56.554439 106.300691 
L 56.659509 106.300691 
L 56.776253 106.833047 
L 56.974718 106.833047 
L 57.091462 107.380401 
L 57.254904 107.380401 
L 57.371648 107.943622 
L 57.616811 107.943622 
L 57.733555 108.523658 
L 57.920346 108.523658 
L 58.03709 109.121545 
L 58.223881 109.121545 
L 58.340625 109.738415 
L 58.53909 109.738415 
L 58.655834 110.375513 
L 58.8543 110.375513 
L 58.971044 111.034213 
L 59.204532 111.034213 
L 59.321276 111.716029 
L 59.613137 111.716029 
L 59.729881 112.422644 
L 59.928346 112.422644 
L 60.04509 113.15593 
L 60.313602 113.15593 
L 60.430346 113.917979 
L 60.75723 113.917979 
L 60.873974 114.711141 
L 61.212532 114.711141 
L 61.329277 115.538065 
L 61.737881 115.538065 
L 61.854625 116.401753 
L 62.15816 116.401753 
L 62.274904 117.305626 
L 62.578439 117.305626 
L 62.695184 118.253608 
L 63.173835 118.253608 
L 63.290579 119.250225 
L 63.932672 119.250225 
L 64.049416 120.300738 
L 64.574765 120.300738 
L 64.691509 121.411313 
L 65.228533 121.411313 
L 65.345277 122.589236 
L 66.034068 122.589236 
L 66.150812 123.843204 
L 66.862951 123.843204 
L 66.979696 125.18372 
L 67.936998 125.18372 
L 68.053742 126.623621 
L 68.905975 126.623621 
L 69.022719 128.178833 
L 70.096766 128.178833 
L 70.21351 129.869444 
L 71.556068 129.869444 
L 71.672812 131.721299 
L 73.108766 131.721299 
L 73.22551 133.768429 
L 74.801557 133.768429 
L 74.918301 136.056927 
L 76.669464 136.056927 
L 76.786208 138.651411 
L 79.179464 138.651411 
L 79.296208 141.646524 
L 81.771185 141.646524 
L 81.887929 145.18899 
L 85.121743 145.18899 
L 85.238488 149.524618 
L 89.441279 149.524618 
L 89.558023 155.114215 
L 95.080023 155.114215 
L 95.196767 162.992309 
L 103.508954 162.992309 
L 103.625698 176.46 
L 120.798769 176.46 
L 120.798778 209.398125 
L 120.798778 209.398125 
" clip-path="url(#pf66e5df2f1)" style="fill: none; stroke: #ff7f0e; stroke-width: 1.5; stroke-linecap: square"/>
   </g>
   <g id="patch_3">
    <path d="M 31.8 184.52 
L 31.8 7.2 
" style="fill: none; stroke: #000000; stroke-width: 0.8; stroke-linejoin: miter; stroke-linecap: square"/>
   </g>
   <g id="patch_4">
    <path d="M 344.987315 184.52 
L 344.987315 7.2 
" style="fill: none; stroke: #000000; stroke-width: 0.8; stroke-linejoin: miter; stroke-linecap: square"/>
   </g>
   <g id="patch_5">
    <path d="M 31.8 184.52 
L 344.987315 184.52 
" style="fill: none; stroke: #000000; stroke-width: 0.8; stroke-linejoin: miter; stroke-linecap: square"/>
   </g>
   <g id="patch_6">
    <path d="M 31.8 7.2 
L 344.987315 7.2 
" style="fill: none; stroke: #000000; stroke-width: 0.8; stroke-linejoin: miter; stroke-linecap: square"/>
   </g>
   <g id="legend_1">
    <g id="patch_7">
     <path d="M 263.64044 44.55625 
L 337.987315 44.55625 
Q 339.987315 44.55625 339.987315 42.55625 
L 339.987315 14.2 
Q 339.987315 12.2 337.987315 12.2 
L 263.64044 12.2 
Q 261.64044 12.2 261.64044 14.2 
L 261.64044 42.55625 
Q 261.64044 44.55625 263.64044 44.55625 
z
" style="fill: #ffffff; opacity: 0.8; stroke: #cccccc; stroke-linejoin: miter"/>
    </g>
    <g id="line2d_45">
     <path d="M 265.64044 20.298438 
L 275.64044 20.298438 
L 285.64044 20.298438 
" style="fill: none; stroke: #1f77b4; stroke-width: 1.5; stroke-linecap: square"/>
    </g>
    <g id="text_11">
     <!-- bigrams -->
     <g transform="translate(293.64044 23.798438) scale(0.1 -0.1)">
      <defs>
       <path id="DejaVuSans-62" d="M 3116 1747 
Q 3116 2381 2855 2742 
Q 2594 3103 2138 3103 
Q 1681 3103 1420 2742 
Q 1159 2381 1159 1747 
Q 1159 1113 1420 752 
Q 1681 391 2138 391 
Q 2594 391 2855 752 
Q 3116 1113 3116 1747 
z
M 1159 2969 
Q 1341 3281 1617 3432 
Q 1894 3584 2278 3584 
Q 2916 3584 3314 3078 
Q 3713 2572 3713 1747 
Q 3713 922 3314 415 
Q 2916 -91 2278 -91 
Q 1894 -91 1617 61 
Q 1341 213 1159 525 
L 1159 0 
L 581 0 
L 581 4863 
L 1159 4863 
L 1159 2969 
z
" transform="scale(0.015625)"/>
       <path id="DejaVuSans-69" d="M 603 3500 
L 1178 3500 
L 1178 0 
L 603 0 
L 603 3500 
z
M 603 4863 
L 1178 4863 
L 1178 4134 
L 603 4134 
L 603 4863 
z
" transform="scale(0.015625)"/>
       <path id="DejaVuSans-67" d="M 2906 1791 
Q 2906 2416 2648 2759 
Q 2391 3103 1925 3103 
Q 1463 3103 1205 2759 
Q 947 2416 947 1791 
Q 947 1169 1205 825 
Q 1463 481 1925 481 
Q 2391 481 2648 825 
Q 2906 1169 2906 1791 
z
M 3481 434 
Q 3481 -459 3084 -895 
Q 2688 -1331 1869 -1331 
Q 1566 -1331 1297 -1286 
Q 1028 -1241 775 -1147 
L 775 -588 
Q 1028 -725 1275 -790 
Q 1522 -856 1778 -856 
Q 2344 -856 2625 -561 
Q 2906 -266 2906 331 
L 2906 616 
Q 2728 306 2450 153 
Q 2172 0 1784 0 
Q 1141 0 747 490 
Q 353 981 353 1791 
Q 353 2603 747 3093 
Q 1141 3584 1784 3584 
Q 2172 3584 2450 3431 
Q 2728 3278 2906 2969 
L 2906 3500 
L 3481 3500 
L 3481 434 
z
" transform="scale(0.015625)"/>
       <path id="DejaVuSans-72" d="M 2631 2963 
Q 2534 3019 2420 3045 
Q 2306 3072 2169 3072 
Q 1681 3072 1420 2755 
Q 1159 2438 1159 1844 
L 1159 0 
L 581 0 
L 581 3500 
L 1159 3500 
L 1159 2956 
Q 1341 3275 1631 3429 
Q 1922 3584 2338 3584 
Q 2397 3584 2469 3576 
Q 2541 3569 2628 3553 
L 2631 2963 
z
" transform="scale(0.015625)"/>
       <path id="DejaVuSans-61" d="M 2194 1759 
Q 1497 1759 1228 1600 
Q 959 1441 959 1056 
Q 959 750 1161 570 
Q 1363 391 1709 391 
Q 2188 391 2477 730 
Q 2766 1069 2766 1631 
L 2766 1759 
L 2194 1759 
z
M 3341 1997 
L 3341 0 
L 2766 0 
L 2766 531 
Q 2569 213 2275 61 
Q 1981 -91 1556 -91 
Q 1019 -91 701 211 
Q 384 513 384 1019 
Q 384 1609 779 1909 
Q 1175 2209 1959 2209 
L 2766 2209 
L 2766 2266 
Q 2766 2663 2505 2880 
Q 2244 3097 1772 3097 
Q 1472 3097 1187 3025 
Q 903 2953 641 2809 
L 641 3341 
Q 956 3463 1253 3523 
Q 1550 3584 1831 3584 
Q 2591 3584 2966 3190 
Q 3341 2797 3341 1997 
z
" transform="scale(0.015625)"/>
       <path id="DejaVuSans-6d" d="M 3328 2828 
Q 3544 3216 3844 3400 
Q 4144 3584 4550 3584 
Q 5097 3584 5394 3201 
Q 5691 2819 5691 2113 
L 5691 0 
L 5113 0 
L 5113 2094 
Q 5113 2597 4934 2840 
Q 4756 3084 4391 3084 
Q 3944 3084 3684 2787 
Q 3425 2491 3425 1978 
L 3425 0 
L 2847 0 
L 2847 2094 
Q 2847 2600 2669 2842 
Q 2491 3084 2119 3084 
Q 1678 3084 1418 2786 
Q 1159 2488 1159 1978 
L 1159 0 
L 581 0 
L 581 3500 
L 1159 3500 
L 1159 2956 
Q 1356 3278 1631 3431 
Q 1906 3584 2284 3584 
Q 2666 3584 2933 3390 
Q 3200 3197 3328 2828 
z
" transform="scale(0.015625)"/>
       <path id="DejaVuSans-73" d="M 2834 3397 
L 2834 2853 
Q 2591 2978 2328 3040 
Q 2066 3103 1784 3103 
Q 1356 3103 1142 2972 
Q 928 2841 928 2578 
Q 928 2378 1081 2264 
Q 1234 2150 1697 2047 
L 1894 2003 
Q 2506 1872 2764 1633 
Q 3022 1394 3022 966 
Q 3022 478 2636 193 
Q 2250 -91 1575 -91 
Q 1294 -91 989 -36 
Q 684 19 347 128 
L 347 722 
Q 666 556 975 473 
Q 1284 391 1588 391 
Q 1994 391 2212 530 
Q 2431 669 2431 922 
Q 2431 1156 2273 1281 
Q 2116 1406 1581 1522 
L 1381 1569 
Q 847 1681 609 1914 
Q 372 2147 372 2553 
Q 372 3047 722 3315 
Q 1072 3584 1716 3584 
Q 2034 3584 2315 3537 
Q 2597 3491 2834 3397 
z
" transform="scale(0.015625)"/>
      </defs>
      <use xlink:href="#DejaVuSans-62"/>
      <use xlink:href="#DejaVuSans-69" x="63.476562"/>
      <use xlink:href="#DejaVuSans-67" x="91.259766"/>
      <use xlink:href="#DejaVuSans-72" x="154.736328"/>
      <use xlink:href="#DejaVuSans-61" x="195.849609"/>
      <use xlink:href="#DejaVuSans-6d" x="257.128906"/>
      <use xlink:href="#DejaVuSans-73" x="354.541016"/>
     </g>
    </g>
    <g id="line2d_46">
     <path d="M 265.64044 34.976562 
L 275.64044 34.976562 
L 285.64044 34.976562 
" style="fill: none; stroke: #ff7f0e; stroke-width: 1.5; stroke-linecap: square"/>
    </g>
    <g id="text_12">
     <!-- trigrams -->
     <g transform="translate(293.64044 38.476562) scale(0.1 -0.1)">
      <defs>
       <path id="DejaVuSans-74" d="M 1172 4494 
L 1172 3500 
L 2356 3500 
L 2356 3053 
L 1172 3053 
L 1172 1153 
Q 1172 725 1289 603 
Q 1406 481 1766 481 
L 2356 481 
L 2356 0 
L 1766 0 
Q 1100 0 847 248 
Q 594 497 594 1153 
L 594 3053 
L 172 3053 
L 172 3500 
L 594 3500 
L 594 4494 
L 1172 4494 
z
" transform="scale(0.015625)"/>
      </defs>
      <use xlink:href="#DejaVuSans-74"/>
      <use xlink:href="#DejaVuSans-72" x="39.208984"/>
      <use xlink:href="#DejaVuSans-69" x="80.322266"/>
      <use xlink:href="#DejaVuSans-67" x="108.105469"/>
      <use xlink:href="#DejaVuSans-72" x="171.582031"/>
      <use xlink:href="#DejaVuSans-61" x="212.695312"/>
      <use xlink:href="#DejaVuSans-6d" x="273.974609"/>
      <use xlink:href="#DejaVuSans-73" x="371.386719"/>
     </g>
    </g>
   </g>
  </g>
 </g>
 <defs>
  <clipPath id="pf66e5df2f1">
   <rect x="31.8" y="7.2" width="313.187315" height="177.32"/>
  </clipPath>
 </defs>
</svg>