<?xml version="1.0" encoding="utf-8" standalone="no"?>
<!DOCTYPE svg PUBLIC "-//W3C//DTD SVG 1.1//EN"
  "http://www.w3.org/Graphics/SVG/1.1/DTD/svg11.dtd">
<svg xmlns:xlink="http://www.w3.org/1999/xlink" width="482.542187pt" height="197.398125pt" viewBox="0 0 482.542187 197.398125" xmlns="http://www.w3.org/2000/svg" version="1.1">
 <metadata>
  <rdf:RDF xmlns:dc="http://purl.org/dc/elements/1.1/" xmlns:cc="http://creativecommons.org/ns#" xmlns:rdf="http://www.w3.org/1999/02/22-rdf-syntax-ns#">
   <cc:Work>
    <dc:type rdf:resource="http://purl.org/dc/dcmitype/StillImage"/>
    <dc:date>2025-01-13T22:20:59.616742</dc:date>
    <dc:format>image/svg+xml</dc:format>
    <dc:creator>
     <cc:Agent>
      <dc:title>Matplotlib v3.9.2, https://matplotlib.org/</dc:title>
     </cc:Agent>
    </dc:creator>
   </cc:Work>
  </rdf:RDF>
 </metadata>
 <defs>
  <style type="text/css">*{stroke-linejoin: round; stroke-linecap: butt}</style>
 </defs>
 <g id="figure_1">
  <g id="patch_1">
   <path d="M 0 197.398125 
L 482.542187 197.398125 
L 482.542187 0 
L 0 0 
z
" style="fill: #ffffff"/>
  </g>
  <g id="axes_1">
   <g id="patch_2">
    <path d="M 28.942188 173.52 
L 475.342187 173.52 
L 475.342187 7.2 
L 28.942188 7.2 
z
" style="fill: #ffffff"/>
   </g>
   <g id="matplotlib.axis_1">
    <g id="xtick_1">
     <g id="line2d_1">
      <path d="M 47.193809 173.52 
L 47.193809 7.2 
" clip-path="url(#p94fce3a143)" style="fill: none; stroke-dasharray: 0.8,1.32; stroke-dashoffset: 0; stroke: #b0b0b0; stroke-width: 0.8"/>
     </g>
     <g id="line2d_2">
      <defs>
       <path id="m65bb3fc09d" d="M 0 0 
L 0 3.5 
" style="stroke: #000000; stroke-width: 0.8"/>
      </defs>
      <g>
       <use xlink:href="#m65bb3fc09d" x="47.193809" y="173.52" style="stroke: #000000; stroke-width: 0.8"/>
      </g>
     </g>
     <g id="text_1">
      <!-- 0 -->
      <g transform="translate(44.012559 188.118438) scale(0.1 -0.1)">
       <defs>
        <path id="DejaVuSans-30" d="M 2034 4250 
Q 1547 4250 1301 3770 
Q 1056 3291 1056 2328 
Q 1056 1369 1301 889 
Q 1547 409 2034 409 
Q 2525 409 2770 889 
Q 3016 1369 3016 2328 
Q 3016 3291 2770 3770 
Q 2525 4250 2034 4250 
z
M 2034 4750 
Q 2819 4750 3233 4129 
Q 3647 3509 3647 2328 
Q 3647 1150 3233 529 
Q 2819 -91 2034 -91 
Q 1250 -91 836 529 
Q 422 1150 422 2328 
Q 422 3509 836 4129 
Q 1250 4750 2034 4750 
z
" transform="scale(0.015625)"/>
       </defs>
       <use xlink:href="#DejaVuSans-30"/>
      </g>
     </g>
    </g>
    <g id="xtick_2">
     <g id="line2d_3">
      <path d="M 128.765303 173.52 
L 128.765303 7.2 
" clip-path="url(#p94fce3a143)" style="fill: none; stroke-dasharray: 0.8,1.32; stroke-dashoffset: 0; stroke: #b0b0b0; stroke-width: 0.8"/>
     </g>
     <g id="line2d_4">
      <g>
       <use xlink:href="#m65bb3fc09d" x="128.765303" y="173.52" style="stroke: #000000; stroke-width: 0.8"/>
      </g>
     </g>
     <g id="text_2">
      <!-- 200 -->
      <g transform="translate(119.221553 188.118438) scale(0.1 -0.1)">
       <defs>
        <path id="DejaVuSans-32" d="M 1228 531 
L 3431 531 
L 3431 0 
L 469 0 
L 469 531 
Q 828 903 1448 1529 
Q 2069 2156 2228 2338 
Q 2531 2678 2651 2914 
Q 2772 3150 2772 3378 
Q 2772 3750 2511 3984 
Q 2250 4219 1831 4219 
Q 1534 4219 1204 4116 
Q 875 4013 500 3803 
L 500 4441 
Q 881 4594 1212 4672 
Q 1544 4750 1819 4750 
Q 2544 4750 2975 4387 
Q 3406 4025 3406 3419 
Q 3406 3131 3298 2873 
Q 3191 2616 2906 2266 
Q 2828 2175 2409 1742 
Q 1991 1309 1228 531 
z
" transform="scale(0.015625)"/>
       </defs>
       <use xlink:href="#DejaVuSans-32"/>
       <use xlink:href="#DejaVuSans-30" x="63.623047"/>
       <use xlink:href="#DejaVuSans-30" x="127.246094"/>
      </g>
     </g>
    </g>
    <g id="xtick_3">
     <g id="line2d_5">
      <path d="M 210.336797 173.52 
L 210.336797 7.2 
" clip-path="url(#p94fce3a143)" style="fill: none; stroke-dasharray: 0.8,1.32; stroke-dashoffset: 0; stroke: #b0b0b0; stroke-width: 0.8"/>
     </g>
     <g id="line2d_6">
      <g>
       <use xlink:href="#m65bb3fc09d" x="210.336797" y="173.52" style="stroke: #000000; stroke-width: 0.8"/>
      </g>
     </g>
     <g id="text_3">
      <!-- 400 -->
      <g transform="translate(200.793047 188.118438) scale(0.1 -0.1)">
       <defs>
        <path id="DejaVuSans-34" d="M 2419 4116 
L 825 1625 
L 2419 1625 
L 2419 4116 
z
M 2253 4666 
L 3047 4666 
L 3047 1625 
L 3713 1625 
L 3713 1100 
L 3047 1100 
L 3047 0 
L 2419 0 
L 2419 1100 
L 313 1100 
L 313 1709 
L 2253 4666 
z
" transform="scale(0.015625)"/>
       </defs>
       <use xlink:href="#DejaVuSans-34"/>
       <use xlink:href="#DejaVuSans-30" x="63.623047"/>
       <use xlink:href="#DejaVuSans-30" x="127.246094"/>
      </g>
     </g>
    </g>
    <g id="xtick_4">
     <g id="line2d_7">
      <path d="M 291.908291 173.52 
L 291.908291 7.2 
" clip-path="url(#p94fce3a143)" style="fill: none; stroke-dasharray: 0.8,1.32; stroke-dashoffset: 0; stroke: #b0b0b0; stroke-width: 0.8"/>
     </g>
     <g id="line2d_8">
      <g>
       <use xlink:href="#m65bb3fc09d" x="291.908291" y="173.52" style="stroke: #000000; stroke-width: 0.8"/>
      </g>
     </g>
     <g id="text_4">
      <!-- 600 -->
      <g transform="translate(282.364541 188.118438) scale(0.1 -0.1)">
       <defs>
        <path id="DejaVuSans-36" d="M 2113 2584 
Q 1688 2584 1439 2293 
Q 1191 2003 1191 1497 
Q 1191 994 1439 701 
Q 1688 409 2113 409 
Q 2538 409 2786 701 
Q 3034 994 3034 1497 
Q 3034 2003 2786 2293 
Q 2538 2584 2113 2584 
z
M 3366 4563 
L 3366 3988 
Q 3128 4100 2886 4159 
Q 2644 4219 2406 4219 
Q 1781 4219 1451 3797 
Q 1122 3375 1075 2522 
Q 1259 2794 1537 2939 
Q 1816 3084 2150 3084 
Q 2853 3084 3261 2657 
Q 3669 2231 3669 1497 
Q 3669 778 3244 343 
Q 2819 -91 2113 -91 
Q 1303 -91 875 529 
Q 447 1150 447 2328 
Q 447 3434 972 4092 
Q 1497 4750 2381 4750 
Q 2619 4750 2861 4703 
Q 3103 4656 3366 4563 
z
" transform="scale(0.015625)"/>
       </defs>
       <use xlink:href="#DejaVuSans-36"/>
       <use xlink:href="#DejaVuSans-30" x="63.623047"/>
       <use xlink:href="#DejaVuSans-30" x="127.246094"/>
      </g>
     </g>
    </g>
    <g id="xtick_5">
     <g id="line2d_9">
      <path d="M 373.479785 173.52 
L 373.479785 7.2 
" clip-path="url(#p94fce3a143)" style="fill: none; stroke-dasharray: 0.8,1.32; stroke-dashoffset: 0; stroke: #b0b0b0; stroke-width: 0.8"/>
     </g>
     <g id="line2d_10">
      <g>
       <use xlink:href="#m65bb3fc09d" x="373.479785" y="173.52" style="stroke: #000000; stroke-width: 0.8"/>
      </g>
     </g>
     <g id="text_5">
      <!-- 800 -->
      <g transform="translate(363.936035 188.118438) scale(0.1 -0.1)">
       <defs>
        <path id="DejaVuSans-38" d="M 2034 2216 
Q 1584 2216 1326 1975 
Q 1069 1734 1069 1313 
Q 1069 891 1326 650 
Q 1584 409 2034 409 
Q 2484 409 2743 651 
Q 3003 894 3003 1313 
Q 3003 1734 2745 1975 
Q 2488 2216 2034 2216 
z
M 1403 2484 
Q 997 2584 770 2862 
Q 544 3141 544 3541 
Q 544 4100 942 4425 
Q 1341 4750 2034 4750 
Q 2731 4750 3128 4425 
Q 3525 4100 3525 3541 
Q 3525 3141 3298 2862 
Q 3072 2584 2669 2484 
Q 3125 2378 3379 2068 
Q 3634 1759 3634 1313 
Q 3634 634 3220 271 
Q 2806 -91 2034 -91 
Q 1263 -91 848 271 
Q 434 634 434 1313 
Q 434 1759 690 2068 
Q 947 2378 1403 2484 
z
M 1172 3481 
Q 1172 3119 1398 2916 
Q 1625 2713 2034 2713 
Q 2441 2713 2670 2916 
Q 2900 3119 2900 3481 
Q 2900 3844 2670 4047 
Q 2441 4250 2034 4250 
Q 1625 4250 1398 4047 
Q 1172 3844 1172 3481 
z
" transform="scale(0.015625)"/>
       </defs>
       <use xlink:href="#DejaVuSans-38"/>
       <use xlink:href="#DejaVuSans-30" x="63.623047"/>
       <use xlink:href="#DejaVuSans-30" x="127.246094"/>
      </g>
     </g>
    </g>
    <g id="xtick_6">
     <g id="line2d_11">
      <path d="M 455.051278 173.52 
L 455.051278 7.2 
" clip-path="url(#p94fce3a143)" style="fill: none; stroke-dasharray: 0.8,1.32; stroke-dashoffset: 0; stroke: #b0b0b0; stroke-width: 0.8"/>
     </g>
     <g id="line2d_12">
      <g>
       <use xlink:href="#m65bb3fc09d" x="455.051278" y="173.52" style="stroke: #000000; stroke-width: 0.8"/>
      </g>
     </g>
     <g id="text_6">
      <!-- 1000 -->
      <g transform="translate(442.326278 188.118438) scale(0.1 -0.1)">
       <defs>
        <path id="DejaVuSans-31" d="M 794 531 
L 1825 531 
L 1825 4091 
L 703 3866 
L 703 4441 
L 1819 4666 
L 2450 4666 
L 2450 531 
L 3481 531 
L 3481 0 
L 794 0 
L 794 531 
z
" transform="scale(0.015625)"/>
       </defs>
       <use xlink:href="#DejaVuSans-31"/>
       <use xlink:href="#DejaVuSans-30" x="63.623047"/>
       <use xlink:href="#DejaVuSans-30" x="127.246094"/>
       <use xlink:href="#DejaVuSans-30" x="190.869141"/>
      </g>
     </g>
    </g>
   </g>
   <g id="matplotlib.axis_2">
    <g id="ytick_1">
     <g id="line2d_13">
      <path d="M 28.942188 170.107968 
L 475.342187 170.107968 
" clip-path="url(#p94fce3a143)" style="fill: none; stroke-dasharray: 0.8,1.32; stroke-dashoffset: 0; stroke: #b0b0b0; stroke-width: 0.8"/>
     </g>
     <g id="line2d_14">
      <defs>
       <path id="m2eb669f497" d="M 0 0 
L -3.5 0 
" style="stroke: #000000; stroke-width: 0.8"/>
      </defs>
      <g>
       <use xlink:href="#m2eb669f497" x="28.942188" y="170.107968" style="stroke: #000000; stroke-width: 0.8"/>
      </g>
     </g>
     <g id="text_7">
      <!-- −3 -->
      <g transform="translate(7.2 173.907187) scale(0.1 -0.1)">
       <defs>
        <path id="DejaVuSans-2212" d="M 678 2272 
L 4684 2272 
L 4684 1741 
L 678 1741 
L 678 2272 
z
" transform="scale(0.015625)"/>
        <path id="DejaVuSans-33" d="M 2597 2516 
Q 3050 2419 3304 2112 
Q 3559 1806 3559 1356 
Q 3559 666 3084 287 
Q 2609 -91 1734 -91 
Q 1441 -91 1130 -33 
Q 819 25 488 141 
L 488 750 
Q 750 597 1062 519 
Q 1375 441 1716 441 
Q 2309 441 2620 675 
Q 2931 909 2931 1356 
Q 2931 1769 2642 2001 
Q 2353 2234 1838 2234 
L 1294 2234 
L 1294 2753 
L 1863 2753 
Q 2328 2753 2575 2939 
Q 2822 3125 2822 3475 
Q 2822 3834 2567 4026 
Q 2313 4219 1838 4219 
Q 1578 4219 1281 4162 
Q 984 4106 628 3988 
L 628 4550 
Q 988 4650 1302 4700 
Q 1616 4750 1894 4750 
Q 2613 4750 3031 4423 
Q 3450 4097 3450 3541 
Q 3450 3153 3228 2886 
Q 3006 2619 2597 2516 
z
" transform="scale(0.015625)"/>
       </defs>
       <use xlink:href="#DejaVuSans-2212"/>
       <use xlink:href="#DejaVuSans-33" x="83.789062"/>
      </g>
     </g>
    </g>
    <g id="ytick_2">
     <g id="line2d_15">
      <path d="M 28.942188 135.881275 
L 475.342187 135.881275 
" clip-path="url(#p94fce3a143)" style="fill: none; stroke-dasharray: 0.8,1.32; stroke-dashoffset: 0; stroke: #b0b0b0; stroke-width: 0.8"/>
     </g>
     <g id="line2d_16">
      <g>
       <use xlink:href="#m2eb669f497" x="28.942188" y="135.881275" style="stroke: #000000; stroke-width: 0.8"/>
      </g>
     </g>
     <g id="text_8">
      <!-- −2 -->
      <g transform="translate(7.2 139.680494) scale(0.1 -0.1)">
       <use xlink:href="#DejaVuSans-2212"/>
       <use xlink:href="#DejaVuSans-32" x="83.789062"/>
      </g>
     </g>
    </g>
    <g id="ytick_3">
     <g id="line2d_17">
      <path d="M 28.942188 101.654582 
L 475.342187 101.654582 
" clip-path="url(#p94fce3a143)" style="fill: none; stroke-dasharray: 0.8,1.32; stroke-dashoffset: 0; stroke: #b0b0b0; stroke-width: 0.8"/>
     </g>
     <g id="line2d_18">
      <g>
       <use xlink:href="#m2eb669f497" x="28.942188" y="101.654582" style="stroke: #000000; stroke-width: 0.8"/>
      </g>
     </g>
     <g id="text_9">
      <!-- −1 -->
      <g transform="translate(7.2 105.4538) scale(0.1 -0.1)">
       <use xlink:href="#DejaVuSans-2212"/>
       <use xlink:href="#DejaVuSans-31" x="83.789062"/>
      </g>
     </g>
    </g>
    <g id="ytick_4">
     <g id="line2d_19">
      <path d="M 28.942188 67.427889 
L 475.342187 67.427889 
" clip-path="url(#p94fce3a143)" style="fill: none; stroke-dasharray: 0.8,1.32; stroke-dashoffset: 0; stroke: #b0b0b0; stroke-width: 0.8"/>
     </g>
     <g id="line2d_20">
      <g>
       <use xlink:href="#m2eb669f497" x="28.942188" y="67.427889" style="stroke: #000000; stroke-width: 0.8"/>
      </g>
     </g>
     <g id="text_10">
      <!-- 0 -->
      <g transform="translate(15.579688 71.227107) scale(0.1 -0.1)">
       <use xlink:href="#DejaVuSans-30"/>
      </g>
     </g>
    </g>
    <g id="ytick_5">
     <g id="line2d_21">
      <path d="M 28.942188 33.201195 
L 475.342187 33.201195 
" clip-path="url(#p94fce3a143)" style="fill: none; stroke-dasharray: 0.8,1.32; stroke-dashoffset: 0; stroke: #b0b0b0; stroke-width: 0.8"/>
     </g>
     <g id="line2d_22">
      <g>
       <use xlink:href="#m2eb669f497" x="28.942188" y="33.201195" style="stroke: #000000; stroke-width: 0.8"/>
      </g>
     </g>
     <g id="text_11">
      <!-- 1 -->
      <g transform="translate(15.579688 37.000414) scale(0.1 -0.1)">
       <use xlink:href="#DejaVuSans-31"/>
      </g>
     </g>
    </g>
   </g>
   <g id="line2d_23">
    <path d="M 49.233097 61.073263 
L 49.640954 73.826398 
L 50.048812 65.328788 
L 50.456669 75.677162 
L 50.864526 69.50027 
L 51.272384 52.724854 
L 51.680241 66.35719 
L 52.088099 72.9387 
L 52.495956 67.973534 
L 52.903814 66.481276 
L 53.311671 67.576079 
L 53.719529 56.755757 
L 54.127386 50.395121 
L 54.535244 62.392796 
L 54.943101 64.368727 
L 55.350959 57.618957 
L 55.758816 65.48266 
L 56.166674 52.577161 
L 56.574531 54.143221 
L 56.982389 47.787697 
L 57.390246 50.204029 
L 57.798103 49.754416 
L 58.205961 54.119705 
L 58.613818 48.832415 
L 59.021676 59.226237 
L 59.429533 57.027352 
L 59.837391 58.708858 
L 60.245248 50.775293 
L 60.653106 65.815532 
L 61.468821 57.220646 
L 61.876678 43.614789 
L 62.284536 52.868147 
L 62.692393 57.638484 
L 63.100251 52.322538 
L 63.508108 59.401735 
L 63.915965 64.44692 
L 64.323823 46.65613 
L 64.73168 59.182213 
L 65.139538 56.964416 
L 65.547395 61.262456 
L 65.955253 37.70183 
L 66.36311 60.378709 
L 66.770968 54.96265 
L 67.178825 57.575349 
L 67.586683 55.523909 
L 67.99454 50.185095 
L 68.402398 46.821987 
L 68.810255 53.465623 
L 69.218113 41.675389 
L 69.62597 55.11019 
L 70.033828 54.285261 
L 70.441685 58.563776 
L 70.849542 48.424383 
L 71.2574 48.820013 
L 71.665257 43.477231 
L 72.073115 48.49005 
L 72.480972 34.914107 
L 72.88883 55.371971 
L 73.296687 37.517 
L 73.704545 36.82193 
L 74.112402 40.580493 
L 74.52026 30.990115 
L 74.928117 42.325139 
L 75.335975 43.268412 
L 75.743832 46.729248 
L 76.15169 52.336799 
L 76.559547 36.111023 
L 76.967404 45.781854 
L 77.375262 40.763734 
L 77.783119 43.710052 
L 78.190977 40.930245 
L 78.598834 39.665377 
L 79.006692 47.74978 
L 79.414549 58.218388 
L 79.822407 48.014667 
L 80.230264 42.563539 
L 80.638122 44.721994 
L 81.045979 51.348346 
L 81.453837 45.948278 
L 81.861694 38.043656 
L 82.269552 37.898226 
L 82.677409 33.455525 
L 83.085267 40.694527 
L 83.493124 35.738689 
L 83.900981 43.913806 
L 84.308839 47.589737 
L 84.716696 36.063185 
L 85.124554 51.780782 
L 85.532411 45.454202 
L 85.940269 30.450871 
L 86.348126 36.079681 
L 86.755984 56.373462 
L 87.163841 35.662179 
L 87.571699 33.442721 
L 87.979556 38.431021 
L 88.387414 34.057447 
L 88.795271 34.270523 
L 89.203129 30.781905 
L 89.610986 40.992096 
L 90.018844 39.007079 
L 90.426701 32.417156 
L 90.834558 34.633512 
L 91.242416 36.019731 
L 91.650273 35.268184 
L 92.058131 28.209536 
L 92.465988 36.780059 
L 92.873846 38.698696 
L 93.281703 46.446708 
L 93.689561 37.028889 
L 94.097418 40.288402 
L 94.505276 32.783136 
L 94.913133 30.942712 
L 95.728848 38.316173 
L 96.136706 31.913507 
L 96.544563 35.491684 
L 96.95242 33.637016 
L 97.360278 34.262364 
L 97.768135 29.825345 
L 98.175993 27.451573 
L 98.58385 32.514316 
L 98.991708 29.809526 
L 99.399565 31.821949 
L 99.807423 21.322236 
L 100.21528 27.521926 
L 100.623138 44.191264 
L 101.030995 42.006247 
L 101.438853 35.119893 
L 101.84671 22.9138 
L 102.254568 29.550184 
L 102.662425 30.015871 
L 103.070283 26.074868 
L 103.47814 33.695209 
L 103.885997 46.120411 
L 104.293855 27.36429 
L 104.701712 36.212075 
L 105.10957 26.517776 
L 105.517427 38.240244 
L 105.925285 29.134345 
L 106.333142 40.108888 
L 106.741 26.850095 
L 107.148857 22.290942 
L 107.556715 23.412263 
L 107.964572 31.468164 
L 108.780287 38.280712 
L 109.188145 32.531387 
L 109.596002 30.842352 
L 110.003859 26.593915 
L 110.411717 36.396392 
L 110.819574 22.21781 
L 111.227432 50.178469 
L 111.635289 36.060874 
L 112.043147 41.390791 
L 112.451004 27.65507 
L 112.858862 46.237426 
L 113.266719 31.677936 
L 113.674577 33.090991 
L 114.082434 35.651266 
L 114.490292 31.345034 
L 114.898149 38.340144 
L 115.306007 32.172772 
L 115.713864 40.893389 
L 116.121722 44.41141 
L 116.529579 24.225443 
L 116.937436 24.709813 
L 117.345294 33.223481 
L 117.753151 44.222746 
L 118.161009 28.510071 
L 118.568866 28.440611 
L 118.976724 19.939672 
L 119.384581 33.632862 
L 119.792439 33.121984 
L 120.200296 39.535249 
L 120.608154 35.517238 
L 121.423869 45.149191 
L 121.831726 42.120699 
L 122.239584 38.011295 
L 122.647441 38.077795 
L 123.055299 44.899332 
L 123.463156 47.910438 
L 123.871013 33.949169 
L 124.278871 27.927949 
L 124.686728 38.84377 
L 125.094586 30.33045 
L 125.502443 30.407589 
L 125.910301 23.239355 
L 126.318158 41.815886 
L 126.726016 29.044374 
L 127.133873 38.067943 
L 127.541731 43.937967 
L 127.949588 33.575999 
L 128.357446 32.887441 
L 128.765303 27.039111 
L 129.173161 32.848557 
L 129.581018 22.1391 
L 129.988875 40.311643 
L 130.396733 43.280016 
L 131.212448 29.900179 
L 131.620305 28.434413 
L 132.028163 34.395709 
L 132.43602 43.28817 
L 132.843878 44.873812 
L 133.251735 41.445271 
L 133.659593 42.288715 
L 134.06745 37.358332 
L 134.475308 35.580502 
L 134.883165 39.798718 
L 135.291023 54.842908 
L 136.106738 31.962147 
L 136.514595 51.746315 
L 136.922452 29.432648 
L 137.33031 37.840392 
L 137.738167 43.588872 
L 138.146025 33.287417 
L 138.553882 29.017139 
L 138.96174 40.827854 
L 139.369597 29.603589 
L 140.185312 48.711704 
L 140.59317 45.598135 
L 141.001027 41.332812 
L 141.408885 39.396692 
L 141.816742 28.749228 
L 142.2246 43.093158 
L 142.632457 49.039737 
L 143.040314 57.100636 
L 143.856029 43.441736 
L 144.263887 43.273416 
L 144.671744 42.735554 
L 145.079602 41.504661 
L 145.487459 50.922762 
L 145.895317 42.927753 
L 146.303174 48.765242 
L 146.711032 42.17025 
L 147.118889 51.56769 
L 147.526747 46.04966 
L 147.934604 48.54898 
L 148.342462 36.379294 
L 148.750319 38.077117 
L 149.158177 51.838282 
L 149.566034 41.374023 
L 149.973891 43.985037 
L 150.789606 44.186005 
L 151.197464 44.877903 
L 151.605321 47.102495 
L 152.013179 53.604549 
L 152.421036 45.343226 
L 152.828894 59.808706 
L 153.236751 60.809534 
L 153.644609 60.202716 
L 154.052466 47.414972 
L 154.460324 51.52748 
L 154.868181 45.617051 
L 155.276039 62.215946 
L 155.683896 52.321411 
L 156.091754 46.98272 
L 156.499611 51.916259 
L 156.907468 43.552339 
L 157.315326 51.112079 
L 157.723183 66.647529 
L 158.131041 53.299338 
L 158.538898 63.176624 
L 158.946756 49.765363 
L 159.354613 72.059757 
L 159.762471 54.846185 
L 160.170328 55.836632 
L 160.578186 60.433139 
L 160.986043 43.939642 
L 161.393901 55.565849 
L 161.801758 48.119051 
L 162.209616 43.348154 
L 162.617473 51.946547 
L 163.02533 50.546592 
L 163.433188 54.750438 
L 163.841045 49.9997 
L 164.248903 56.404255 
L 164.65676 58.826941 
L 165.064618 52.244732 
L 165.472475 66.187729 
L 165.880333 63.28151 
L 166.28819 62.924381 
L 166.696048 62.386505 
L 167.103905 61.459461 
L 167.511763 65.804511 
L 167.91962 61.572255 
L 168.327478 47.750945 
L 168.735335 60.182984 
L 169.143193 55.848984 
L 169.55105 57.722318 
L 169.958907 63.15434 
L 170.366765 62.580654 
L 170.774622 54.420991 
L 171.18248 59.074112 
L 171.590337 61.533187 
L 171.998195 69.525761 
L 172.406052 59.272441 
L 172.81391 71.882673 
L 173.221767 62.557543 
L 173.629625 57.474796 
L 174.037482 82.135585 
L 174.44534 75.498109 
L 174.853197 65.799731 
L 175.261055 81.931784 
L 175.668912 68.633483 
L 176.07677 75.182284 
L 176.484627 73.634829 
L 176.892484 69.120544 
L 177.300342 60.836448 
L 177.708199 76.151199 
L 178.116057 66.800392 
L 178.523914 75.018176 
L 178.931772 63.225486 
L 179.339629 80.739608 
L 179.747487 67.946936 
L 180.155344 68.928816 
L 180.563202 71.842656 
L 180.971059 71.60546 
L 181.786774 68.000254 
L 182.194632 84.964003 
L 182.602489 79.275752 
L 183.010346 70.859658 
L 183.418204 72.354159 
L 183.826061 78.528344 
L 184.641776 69.116985 
L 185.049634 74.261809 
L 185.457491 70.459832 
L 185.865349 76.570694 
L 186.273206 72.625655 
L 186.681064 81.692788 
L 187.088921 80.499975 
L 187.904636 73.652343 
L 188.312494 66.97886 
L 188.720351 79.047185 
L 189.128209 71.367474 
L 189.536066 72.625149 
L 189.943923 84.065795 
L 190.351781 83.676445 
L 190.759638 82.333765 
L 191.167496 85.824855 
L 191.575353 78.137575 
L 191.983211 80.419184 
L 192.391068 89.832762 
L 192.798926 83.838678 
L 193.206783 87.737103 
L 193.614641 86.040368 
L 194.022498 68.958784 
L 194.430356 69.871787 
L 194.838213 71.581287 
L 195.246071 83.295452 
L 195.653928 84.98964 
L 196.061785 96.229161 
L 196.469643 89.210629 
L 196.8775 87.385088 
L 197.285358 72.06242 
L 197.693215 86.766562 
L 198.101073 84.424048 
L 198.50893 71.174229 
L 198.916788 74.470976 
L 199.324645 84.057155 
L 199.732503 82.310759 
L 200.14036 88.386681 
L 200.548218 82.578839 
L 201.363933 95.906801 
L 201.77179 96.880084 
L 202.179648 85.299721 
L 202.587505 92.683228 
L 202.995362 83.060627 
L 203.40322 92.52706 
L 203.811077 91.896213 
L 204.218935 85.135079 
L 204.626792 90.463807 
L 205.03465 91.646794 
L 205.442507 89.327721 
L 205.850365 80.653484 
L 206.258222 97.396213 
L 206.66608 95.331361 
L 207.073937 92.142101 
L 207.481795 98.446227 
L 207.889652 108.976947 
L 208.29751 94.448212 
L 208.705367 86.640777 
L 209.113225 85.888607 
L 209.521082 95.150623 
L 209.928939 98.63415 
L 210.336797 87.687684 
L 210.744654 93.384073 
L 211.152512 101.057423 
L 211.968227 96.994175 
L 212.376084 87.828783 
L 212.783942 95.602074 
L 213.191799 93.786681 
L 213.599657 95.301359 
L 214.007514 88.770512 
L 214.415372 106.266906 
L 214.823229 88.872918 
L 215.231087 87.980138 
L 215.638944 96.983097 
L 216.046801 98.090816 
L 216.454659 97.705729 
L 216.862516 91.246831 
L 217.270374 92.060941 
L 217.678231 105.984761 
L 218.086089 100.622512 
L 218.493946 93.150577 
L 218.901804 100.644172 
L 219.309661 101.755027 
L 219.717519 98.06515 
L 220.125376 109.171848 
L 220.533234 101.368956 
L 220.941091 103.279122 
L 221.348949 96.20827 
L 221.756806 97.535607 
L 222.164664 91.562795 
L 222.572521 103.073393 
L 222.980378 102.44681 
L 223.388236 94.328018 
L 223.796093 102.56418 
L 224.203951 91.528209 
L 224.611808 102.593095 
L 225.019666 89.83114 
L 225.427523 93.859503 
L 225.835381 100.109033 
L 226.243238 95.314742 
L 226.651096 92.858529 
L 227.058953 95.379029 
L 227.466811 109.189417 
L 227.874668 100.040166 
L 228.282526 108.40317 
L 229.09824 92.42788 
L 229.506098 95.446831 
L 229.913955 105.843241 
L 230.321813 110.284844 
L 230.72967 97.552711 
L 231.137528 107.815217 
L 231.545385 100.797563 
L 232.3611 107.868006 
L 232.768958 105.5994 
L 233.176815 95.599656 
L 233.584673 90.414556 
L 233.99253 102.182087 
L 234.400388 104.705 
L 234.808245 100.663081 
L 235.216103 100.947206 
L 235.62396 107.825577 
L 236.031817 110.177296 
L 236.439675 94.130541 
L 236.847532 94.081112 
L 237.25539 106.287735 
L 237.663247 101.171746 
L 238.071105 101.641931 
L 238.478962 100.536644 
L 238.88682 93.465215 
L 239.294677 110.595547 
L 239.702535 111.264253 
L 240.110392 108.903415 
L 240.51825 99.548709 
L 240.926107 98.789163 
L 241.333965 106.526742 
L 241.741822 82.198327 
L 242.14968 88.204189 
L 242.557537 87.527632 
L 242.965394 108.971301 
L 243.373252 90.390609 
L 243.781109 95.629396 
L 244.188967 104.15949 
L 244.596824 105.543906 
L 245.004682 104.809105 
L 245.412539 105.516152 
L 245.820397 112.504897 
L 246.636112 104.198643 
L 247.043969 101.553468 
L 247.859684 108.740764 
L 248.267542 103.919239 
L 249.083256 98.07094 
L 249.491114 100.917154 
L 249.898971 92.44805 
L 250.306829 102.70503 
L 250.714686 95.898066 
L 251.122544 99.598673 
L 251.530401 105.301688 
L 251.938259 104.478475 
L 252.346116 108.720225 
L 252.753974 86.381101 
L 253.161831 106.320315 
L 253.569689 117.178032 
L 253.977546 94.631717 
L 254.385404 93.755747 
L 255.201119 96.218614 
L 255.608976 101.304387 
L 256.016833 95.304703 
L 256.424691 108.048618 
L 256.832548 97.251919 
L 257.240406 102.607229 
L 257.648263 97.1653 
L 258.056121 87.795375 
L 258.463978 96.526974 
L 258.871836 102.78871 
L 259.279693 104.187679 
L 259.687551 93.932574 
L 260.095408 100.514211 
L 260.503266 95.922577 
L 260.911123 99.647 
L 261.318981 109.084165 
L 261.726838 96.01102 
L 262.134695 109.580563 
L 262.542553 100.683329 
L 262.95041 86.902853 
L 263.358268 104.759413 
L 263.766125 90.477286 
L 264.173983 91.110513 
L 264.58184 92.913121 
L 264.989698 113.255052 
L 265.397555 104.907061 
L 265.805413 101.37307 
L 266.21327 92.77784 
L 266.621128 95.531928 
L 267.028985 85.883464 
L 267.436843 96.815199 
L 267.8447 86.742775 
L 268.252558 89.254555 
L 268.660415 84.856503 
L 269.068272 97.146727 
L 269.47613 104.652766 
L 269.883987 93.38492 
L 270.291845 101.642358 
L 270.699702 84.446168 
L 271.10756 96.080803 
L 271.515417 96.978411 
L 271.923275 92.481263 
L 272.331132 79.83725 
L 272.73899 77.098587 
L 273.146847 99.164834 
L 273.554705 82.67472 
L 273.962562 77.939611 
L 274.37042 104.001792 
L 274.778277 92.384482 
L 275.186135 95.986025 
L 275.593992 89.264297 
L 276.001849 76.038649 
L 276.409707 70.549391 
L 276.817564 85.701823 
L 277.225422 85.351996 
L 277.633279 86.318267 
L 278.041137 89.019558 
L 278.448994 85.047572 
L 278.856852 89.924547 
L 279.264709 83.316745 
L 279.672567 81.824266 
L 280.080424 78.006106 
L 280.488282 85.584986 
L 280.896139 81.764859 
L 281.303997 89.249892 
L 281.711854 86.017468 
L 282.119711 80.358761 
L 282.527569 89.729926 
L 282.935426 91.605587 
L 283.343284 82.292743 
L 284.158999 95.278139 
L 284.566856 84.510945 
L 284.974714 85.427078 
L 285.382571 67.149064 
L 285.790429 85.081454 
L 286.198286 90.294803 
L 286.606144 76.112988 
L 287.014001 80.624729 
L 287.421859 82.67901 
L 287.829716 81.964364 
L 288.237574 88.158679 
L 288.645431 86.118933 
L 289.053288 78.847046 
L 289.461146 78.36113 
L 289.869003 73.500729 
L 290.684718 84.192196 
L 291.092576 75.504107 
L 291.500433 71.808691 
L 291.908291 84.612685 
L 292.316148 73.252166 
L 292.724006 84.546321 
L 293.131863 75.131175 
L 293.539721 72.655066 
L 293.947578 70.971163 
L 294.355436 73.909717 
L 294.763293 62.554523 
L 295.17115 70.043719 
L 295.579008 86.82473 
L 295.986865 57.741098 
L 296.394723 79.626262 
L 296.80258 68.428648 
L 297.210438 75.664209 
L 297.618295 88.17912 
L 298.026153 63.111056 
L 298.841868 77.100762 
L 299.249725 59.665756 
L 299.657583 59.656263 
L 300.06544 70.80974 
L 300.473298 66.979888 
L 300.881155 67.06758 
L 301.69687 60.833351 
L 302.104727 71.39601 
L 302.512585 64.672699 
L 302.920442 72.681422 
L 303.3283 70.49644 
L 303.736157 66.226189 
L 304.144015 66.365686 
L 304.551872 62.65388 
L 304.95973 70.129097 
L 305.367587 73.245222 
L 305.775445 68.146698 
L 306.183302 59.580152 
L 306.59116 54.546242 
L 306.999017 64.15976 
L 307.406875 54.232545 
L 307.814732 62.190611 
L 308.22259 59.971656 
L 308.630447 71.852182 
L 309.038304 63.022816 
L 309.446162 49.32033 
L 309.854019 59.769948 
L 310.261877 60.888771 
L 310.669734 66.624774 
L 311.077592 69.220762 
L 311.485449 55.425682 
L 311.893307 57.28011 
L 312.301164 58.351447 
L 312.709022 69.048342 
L 313.116879 47.063889 
L 313.524737 59.574651 
L 313.932594 59.806539 
L 314.340452 64.364913 
L 315.156166 60.583042 
L 315.564024 62.142329 
L 315.971881 58.66476 
L 316.379739 71.634881 
L 316.787596 55.839953 
L 317.195454 48.629244 
L 317.603311 56.599951 
L 318.011169 57.51712 
L 318.419026 61.680563 
L 318.826884 55.466829 
L 319.234741 61.47554 
L 319.642599 54.252419 
L 320.050456 57.43226 
L 320.458314 47.824267 
L 320.866171 52.858341 
L 321.274029 64.367831 
L 321.681886 38.060697 
L 322.089743 62.72302 
L 322.497601 51.074726 
L 322.905458 59.79534 
L 323.313316 55.042455 
L 323.721173 44.525758 
L 324.536888 54.430327 
L 324.944746 69.342645 
L 325.352603 54.792413 
L 325.760461 46.047385 
L 326.168318 61.048907 
L 326.576176 43.310233 
L 326.984033 50.609324 
L 327.391891 47.633784 
L 327.799748 42.19732 
L 328.207605 46.874089 
L 328.615463 42.568421 
L 329.02332 45.482128 
L 329.431178 28.379209 
L 329.839035 43.844038 
L 330.246893 48.645612 
L 330.65475 46.92029 
L 331.062608 35.436263 
L 331.470465 46.46992 
L 331.878323 48.329489 
L 332.28618 35.353975 
L 332.694038 49.779987 
L 333.101895 53.25454 
L 333.509753 23.722386 
L 333.91761 34.961943 
L 334.733325 41.475478 
L 335.141182 40.381179 
L 335.54904 32.766538 
L 335.956897 34.185856 
L 336.364755 43.508396 
L 336.772612 33.095903 
L 337.18047 45.536835 
L 337.588327 48.793482 
L 337.996185 51.124419 
L 338.404042 41.504537 
L 338.8119 44.116128 
L 339.219757 45.985271 
L 339.627615 43.293036 
L 340.44333 33.632262 
L 340.851187 31.534189 
L 341.259045 33.488352 
L 341.666902 39.143729 
L 342.074759 33.975902 
L 342.482617 25.131009 
L 342.890474 33.812388 
L 343.298332 37.151793 
L 343.706189 37.59715 
L 344.114047 36.258044 
L 344.521904 37.881318 
L 344.929762 26.393931 
L 345.337619 46.807866 
L 345.745477 35.302051 
L 346.153334 35.446162 
L 346.561192 47.611286 
L 346.969049 47.681297 
L 347.376907 38.808391 
L 347.784764 35.59035 
L 348.192621 37.503191 
L 348.600479 30.072312 
L 349.008336 27.917439 
L 349.416194 34.547027 
L 349.824051 30.425121 
L 350.231909 41.774403 
L 350.639766 45.880324 
L 351.047624 32.814219 
L 351.455481 32.188954 
L 351.863339 45.013367 
L 352.271196 22.175752 
L 352.679054 23.337588 
L 353.086911 42.071376 
L 353.494769 43.674423 
L 353.902626 50.849519 
L 354.310484 34.988731 
L 355.126198 46.129516 
L 355.534056 32.572936 
L 355.941913 26.480569 
L 356.757628 37.052751 
L 357.165486 14.76 
L 357.573343 28.571804 
L 357.981201 28.668886 
L 358.389058 21.125157 
L 358.796916 29.919347 
L 359.204773 33.433984 
L 359.612631 44.819185 
L 360.428346 29.773902 
L 360.836203 31.303057 
L 361.244061 54.837703 
L 361.651918 43.540804 
L 362.059775 43.309272 
L 362.467633 37.619905 
L 362.87549 35.201284 
L 363.283348 38.307988 
L 363.691205 35.993384 
L 364.099063 29.739299 
L 364.50692 38.916049 
L 364.914778 36.494484 
L 365.322635 29.132607 
L 365.730493 35.168178 
L 366.13835 27.955058 
L 366.546208 38.460675 
L 366.954065 39.7041 
L 367.361923 33.085662 
L 367.76978 32.65229 
L 368.585495 24.00248 
L 368.993352 32.355256 
L 369.40121 50.022692 
L 369.809067 30.407385 
L 370.216925 20.252252 
L 370.624782 38.329107 
L 371.03264 33.022049 
L 371.440497 43.77143 
L 371.848355 31.012302 
L 372.256212 28.364524 
L 372.66407 23.778243 
L 373.479785 34.511808 
L 373.887642 27.310314 
L 374.2955 30.055779 
L 374.703357 33.786367 
L 375.111214 43.712829 
L 375.519072 37.999321 
L 376.334787 32.630629 
L 376.742644 42.602329 
L 377.150502 36.988149 
L 377.558359 24.26584 
L 378.374074 41.251136 
L 378.781932 39.233388 
L 379.189789 37.82259 
L 379.597647 43.516478 
L 380.005504 27.423836 
L 380.413362 42.198306 
L 380.821219 48.621802 
L 381.229076 33.080109 
L 381.636934 32.255774 
L 382.044791 35.324253 
L 382.452649 42.478109 
L 382.860506 34.058788 
L 383.268364 40.891253 
L 383.676221 26.488639 
L 384.084079 38.172505 
L 384.491936 42.370973 
L 384.899794 23.122793 
L 385.307651 47.708418 
L 385.715509 21.847627 
L 386.123366 41.219464 
L 386.531224 36.07385 
L 386.939081 38.516143 
L 387.346939 32.292059 
L 387.754796 34.987754 
L 388.162653 26.616001 
L 388.570511 40.046018 
L 388.978368 40.962811 
L 389.386226 46.436388 
L 389.794083 42.271828 
L 391.017656 35.814953 
L 391.425513 35.608488 
L 391.833371 35.76121 
L 392.241228 32.394462 
L 392.649086 43.565569 
L 393.056943 37.003996 
L 393.464801 34.260145 
L 393.872658 46.163504 
L 394.280516 30.173919 
L 394.688373 34.771564 
L 395.09623 42.098069 
L 395.504088 34.133354 
L 395.911945 36.232368 
L 396.319803 42.301203 
L 397.135518 57.993944 
L 397.543375 44.049398 
L 397.951233 43.205462 
L 398.35909 43.599715 
L 398.766948 34.969151 
L 399.174805 44.714926 
L 399.582663 31.80613 
L 400.398378 58.503475 
L 400.806235 55.346981 
L 401.62195 41.977574 
L 402.029807 47.46931 
L 402.437665 41.593653 
L 402.845522 61.471391 
L 403.25338 49.358896 
L 403.661237 49.851844 
L 404.069095 37.360782 
L 404.476952 37.480458 
L 404.88481 54.631559 
L 405.292667 47.393064 
L 405.700525 53.775425 
L 406.108382 37.329244 
L 406.51624 38.028911 
L 406.924097 56.964577 
L 407.331955 57.259759 
L 407.739812 57.1077 
L 408.147669 59.666408 
L 408.555527 66.527893 
L 408.963384 40.007648 
L 409.371242 53.37308 
L 409.779099 44.93347 
L 410.186957 56.10179 
L 410.594814 50.329539 
L 411.002672 41.698066 
L 411.410529 44.878101 
L 412.226244 62.458653 
L 412.634102 57.569453 
L 413.041959 57.261164 
L 413.449817 55.348449 
L 413.857674 46.454607 
L 414.673389 70.000862 
L 415.081246 51.743004 
L 415.489104 41.426512 
L 415.896961 47.021484 
L 416.304819 58.474507 
L 416.712676 60.284562 
L 417.120534 54.42675 
L 417.528391 57.482012 
L 417.936249 52.691714 
L 418.344106 45.070196 
L 418.751964 45.932611 
L 419.159821 60.006067 
L 419.567679 44.73846 
L 419.975536 65.190613 
L 420.383394 52.083893 
L 420.791251 64.181383 
L 421.199108 51.750511 
L 421.606966 65.075766 
L 422.014823 63.36876 
L 422.830538 52.408343 
L 423.238396 68.766599 
L 423.646253 42.989094 
L 424.054111 61.79473 
L 424.461968 62.031712 
L 424.869826 53.197365 
L 425.277683 56.201996 
L 425.685541 69.067839 
L 426.093398 62.474092 
L 426.501256 65.416797 
L 426.909113 78.890911 
L 427.316971 66.914238 
L 427.724828 61.290018 
L 428.132685 67.181985 
L 428.540543 66.4428 
L 428.9484 67.998985 
L 429.356258 59.596479 
L 429.764115 73.119559 
L 430.171973 75.331126 
L 430.57983 61.746578 
L 430.987688 64.476253 
L 431.395545 63.230511 
L 431.803403 61.317267 
L 432.21126 63.387921 
L 432.619118 66.60364 
L 433.026975 67.72364 
L 433.434833 68.140593 
L 433.84269 66.044308 
L 434.250547 67.768401 
L 434.658405 74.035889 
L 435.066262 66.444986 
L 435.47412 76.097465 
L 435.881977 72.384637 
L 436.289835 80.683254 
L 436.697692 75.257836 
L 437.10555 71.518439 
L 437.513407 70.053137 
L 437.921265 62.754347 
L 438.329122 75.426386 
L 438.73698 75.197434 
L 439.144837 76.795887 
L 439.552695 79.056327 
L 439.960552 75.502552 
L 440.36841 76.93234 
L 440.776267 79.389336 
L 441.184124 80.804094 
L 441.591982 66.796076 
L 441.999839 82.418321 
L 442.407697 78.198038 
L 442.815554 70.352949 
L 443.223412 80.202656 
L 443.631269 83.834139 
L 444.039127 82.565954 
L 444.446984 63.07467 
L 444.854842 82.808765 
L 445.262699 75.592699 
L 445.670557 73.177636 
L 446.078414 90.93248 
L 446.486272 71.570575 
L 446.894129 99.774306 
L 447.301986 82.942169 
L 447.709844 85.482246 
L 448.117701 91.990656 
L 448.525559 83.692127 
L 448.933416 84.379144 
L 449.341274 85.476283 
L 449.749131 85.646553 
L 450.156989 74.619097 
L 450.972704 88.500183 
L 451.380561 88.958011 
L 451.788419 82.724847 
L 452.196276 73.294157 
L 453.011991 88.29082 
L 453.419849 79.516745 
L 453.827706 80.392249 
L 454.235563 85.718139 
L 454.643421 88.359395 
L 455.051278 91.890118 
L 455.051278 91.890118 
" clip-path="url(#p94fce3a143)" style="fill: none; stroke: #1f77b4; stroke-width: 1.5; stroke-linecap: square"/>
   </g>
   <g id="line2d_24">
    <path d="M 129.173161 42.740319 
L 129.581018 40.875286 
L 129.988875 40.255443 
L 130.396733 42.4192 
L 130.80459 41.508333 
L 131.620305 42.719056 
L 132.028163 42.636331 
L 132.43602 43.168997 
L 137.738167 47.139712 
L 145.895317 53.121137 
L 154.868181 59.423555 
L 163.841045 65.448631 
L 172.81391 71.208574 
L 182.194632 76.959508 
L 191.575353 82.44614 
L 200.956075 87.680611 
L 210.744654 92.886361 
L 220.533234 97.842711 
L 230.72967 102.753241 
L 240.926107 107.418971 
L 251.530401 112.024742 
L 262.134695 116.391965 
L 273.146847 120.687903 
L 284.566856 124.899293 
L 295.986865 128.87625 
L 307.814732 132.762012 
L 320.050456 136.546419 
L 332.694038 140.220487 
L 345.745477 143.776427 
L 359.204773 147.207694 
L 373.071927 150.508804 
L 387.346939 153.675499 
L 402.029807 156.704562 
L 417.120534 159.593856 
L 433.026975 162.411617 
L 449.341274 165.077352 
L 455.051278 165.96 
L 455.051278 165.96 
" clip-path="url(#p94fce3a143)" style="fill: none; stroke-dasharray: 5.55,2.4; stroke-dashoffset: 0; stroke: #ff7f0e; stroke-width: 1.5"/>
   </g>
   <g id="patch_3">
    <path d="M 28.942188 173.52 
L 28.942188 7.2 
" style="fill: none; stroke: #000000; stroke-width: 0.8; stroke-linejoin: miter; stroke-linecap: square"/>
   </g>
   <g id="patch_4">
    <path d="M 475.342187 173.52 
L 475.342187 7.2 
" style="fill: none; stroke: #000000; stroke-width: 0.8; stroke-linejoin: miter; stroke-linecap: square"/>
   </g>
   <g id="patch_5">
    <path d="M 28.942188 173.52 
L 475.342187 173.52 
" style="fill: none; stroke: #000000; stroke-width: 0.8; stroke-linejoin: miter; stroke-linecap: square"/>
   </g>
   <g id="patch_6">
    <path d="M 28.942188 7.2 
L 475.342187 7.2 
" style="fill: none; stroke: #000000; stroke-width: 0.8; stroke-linejoin: miter; stroke-linecap: square"/>
   </g>
   <g id="legend_1">
    <g id="patch_7">
     <path d="M 34.542188 169.52 
L 125.675938 169.52 
Q 127.275938 169.52 127.275938 167.92 
L 127.275938 145.235 
Q 127.275938 143.635 125.675938 143.635 
L 34.542188 143.635 
Q 32.942188 143.635 32.942188 145.235 
L 32.942188 167.92 
Q 32.942188 169.52 34.542188 169.52 
z
" style="fill: #ffffff; opacity: 0.8; stroke: #cccccc; stroke-linejoin: miter"/>
    </g>
    <g id="line2d_25">
     <path d="M 36.142188 150.11375 
L 44.142188 150.11375 
L 52.142188 150.11375 
" style="fill: none; stroke: #1f77b4; stroke-width: 1.5; stroke-linecap: square"/>
    </g>
    <g id="text_12">
     <!-- target -->
     <g transform="translate(58.542188 152.91375) scale(0.08 -0.08)">
      <defs>
       <path id="DejaVuSans-74" d="M 1172 4494 
L 1172 3500 
L 2356 3500 
L 2356 3053 
L 1172 3053 
L 1172 1153 
Q 1172 725 1289 603 
Q 1406 481 1766 481 
L 2356 481 
L 2356 0 
L 1766 0 
Q 1100 0 847 248 
Q 594 497 594 1153 
L 594 3053 
L 172 3053 
L 172 3500 
L 594 3500 
L 594 4494 
L 1172 4494 
z
" transform="scale(0.015625)"/>
       <path id="DejaVuSans-61" d="M 2194 1759 
Q 1497 1759 1228 1600 
Q 959 1441 959 1056 
Q 959 750 1161 570 
Q 1363 391 1709 391 
Q 2188 391 2477 730 
Q 2766 1069 2766 1631 
L 2766 1759 
L 2194 1759 
z
M 3341 1997 
L 3341 0 
L 2766 0 
L 2766 531 
Q 2569 213 2275 61 
Q 1981 -91 1556 -91 
Q 1019 -91 701 211 
Q 384 513 384 1019 
Q 384 1609 779 1909 
Q 1175 2209 1959 2209 
L 2766 2209 
L 2766 2266 
Q 2766 2663 2505 2880 
Q 2244 3097 1772 3097 
Q 1472 3097 1187 3025 
Q 903 2953 641 2809 
L 641 3341 
Q 956 3463 1253 3523 
Q 1550 3584 1831 3584 
Q 2591 3584 2966 3190 
Q 3341 2797 3341 1997 
z
" transform="scale(0.015625)"/>
       <path id="DejaVuSans-72" d="M 2631 2963 
Q 2534 3019 2420 3045 
Q 2306 3072 2169 3072 
Q 1681 3072 1420 2755 
Q 1159 2438 1159 1844 
L 1159 0 
L 581 0 
L 581 3500 
L 1159 3500 
L 1159 2956 
Q 1341 3275 1631 3429 
Q 1922 3584 2338 3584 
Q 2397 3584 2469 3576 
Q 2541 3569 2628 3553 
L 2631 2963 
z
" transform="scale(0.015625)"/>
       <path id="DejaVuSans-67" d="M 2906 1791 
Q 2906 2416 2648 2759 
Q 2391 3103 1925 3103 
Q 1463 3103 1205 2759 
Q 947 2416 947 1791 
Q 947 1169 1205 825 
Q 1463 481 1925 481 
Q 2391 481 2648 825 
Q 2906 1169 2906 1791 
z
M 3481 434 
Q 3481 -459 3084 -895 
Q 2688 -1331 1869 -1331 
Q 1566 -1331 1297 -1286 
Q 1028 -1241 775 -1147 
L 775 -588 
Q 1028 -725 1275 -790 
Q 1522 -856 1778 -856 
Q 2344 -856 2625 -561 
Q 2906 -266 2906 331 
L 2906 616 
Q 2728 306 2450 153 
Q 2172 0 1784 0 
Q 1141 0 747 490 
Q 353 981 353 1791 
Q 353 2603 747 3093 
Q 1141 3584 1784 3584 
Q 2172 3584 2450 3431 
Q 2728 3278 2906 2969 
L 2906 3500 
L 3481 3500 
L 3481 434 
z
" transform="scale(0.015625)"/>
       <path id="DejaVuSans-65" d="M 3597 1894 
L 3597 1613 
L 953 1613 
Q 991 1019 1311 708 
Q 1631 397 2203 397 
Q 2534 397 2845 478 
Q 3156 559 3463 722 
L 3463 178 
Q 3153 47 2828 -22 
Q 2503 -91 2169 -91 
Q 1331 -91 842 396 
Q 353 884 353 1716 
Q 353 2575 817 3079 
Q 1281 3584 2069 3584 
Q 2775 3584 3186 3129 
Q 3597 2675 3597 1894 
z
M 3022 2063 
Q 3016 2534 2758 2815 
Q 2500 3097 2075 3097 
Q 1594 3097 1305 2825 
Q 1016 2553 972 2059 
L 3022 2063 
z
" transform="scale(0.015625)"/>
      </defs>
      <use xlink:href="#DejaVuSans-74"/>
      <use xlink:href="#DejaVuSans-61" x="39.208984"/>
      <use xlink:href="#DejaVuSans-72" x="100.488281"/>
      <use xlink:href="#DejaVuSans-67" x="139.851562"/>
      <use xlink:href="#DejaVuSans-65" x="203.328125"/>
      <use xlink:href="#DejaVuSans-74" x="264.851562"/>
     </g>
    </g>
    <g id="line2d_26">
     <path d="M 36.142188 161.85625 
L 44.142188 161.85625 
L 52.142188 161.85625 
" style="fill: none; stroke-dasharray: 5.55,2.4; stroke-dashoffset: 0; stroke: #ff7f0e; stroke-width: 1.5"/>
    </g>
    <g id="text_13">
     <!-- multi-step preds -->
     <g transform="translate(58.542188 164.65625) scale(0.08 -0.08)">
      <defs>
       <path id="DejaVuSans-6d" d="M 3328 2828 
Q 3544 3216 3844 3400 
Q 4144 3584 4550 3584 
Q 5097 3584 5394 3201 
Q 5691 2819 5691 2113 
L 5691 0 
L 5113 0 
L 5113 2094 
Q 5113 2597 4934 2840 
Q 4756 3084 4391 3084 
Q 3944 3084 3684 2787 
Q 3425 2491 3425 1978 
L 3425 0 
L 2847 0 
L 2847 2094 
Q 2847 2600 2669 2842 
Q 2491 3084 2119 3084 
Q 1678 3084 1418 2786 
Q 1159 2488 1159 1978 
L 1159 0 
L 581 0 
L 581 3500 
L 1159 3500 
L 1159 2956 
Q 1356 3278 1631 3431 
Q 1906 3584 2284 3584 
Q 2666 3584 2933 3390 
Q 3200 3197 3328 2828 
z
" transform="scale(0.015625)"/>
       <path id="DejaVuSans-75" d="M 544 1381 
L 544 3500 
L 1119 3500 
L 1119 1403 
Q 1119 906 1312 657 
Q 1506 409 1894 409 
Q 2359 409 2629 706 
Q 2900 1003 2900 1516 
L 2900 3500 
L 3475 3500 
L 3475 0 
L 2900 0 
L 2900 538 
Q 2691 219 2414 64 
Q 2138 -91 1772 -91 
Q 1169 -91 856 284 
Q 544 659 544 1381 
z
M 1991 3584 
L 1991 3584 
z
" transform="scale(0.015625)"/>
       <path id="DejaVuSans-6c" d="M 603 4863 
L 1178 4863 
L 1178 0 
L 603 0 
L 603 4863 
z
" transform="scale(0.015625)"/>
       <path id="DejaVuSans-69" d="M 603 3500 
L 1178 3500 
L 1178 0 
L 603 0 
L 603 3500 
z
M 603 4863 
L 1178 4863 
L 1178 4134 
L 603 4134 
L 603 4863 
z
" transform="scale(0.015625)"/>
       <path id="DejaVuSans-2d" d="M 313 2009 
L 1997 2009 
L 1997 1497 
L 313 1497 
L 313 2009 
z
" transform="scale(0.015625)"/>
       <path id="DejaVuSans-73" d="M 2834 3397 
L 2834 2853 
Q 2591 2978 2328 3040 
Q 2066 3103 1784 3103 
Q 1356 3103 1142 2972 
Q 928 2841 928 2578 
Q 928 2378 1081 2264 
Q 1234 2150 1697 2047 
L 1894 2003 
Q 2506 1872 2764 1633 
Q 3022 1394 3022 966 
Q 3022 478 2636 193 
Q 2250 -91 1575 -91 
Q 1294 -91 989 -36 
Q 684 19 347 128 
L 347 722 
Q 666 556 975 473 
Q 1284 391 1588 391 
Q 1994 391 2212 530 
Q 2431 669 2431 922 
Q 2431 1156 2273 1281 
Q 2116 1406 1581 1522 
L 1381 1569 
Q 847 1681 609 1914 
Q 372 2147 372 2553 
Q 372 3047 722 3315 
Q 1072 3584 1716 3584 
Q 2034 3584 2315 3537 
Q 2597 3491 2834 3397 
z
" transform="scale(0.015625)"/>
       <path id="DejaVuSans-70" d="M 1159 525 
L 1159 -1331 
L 581 -1331 
L 581 3500 
L 1159 3500 
L 1159 2969 
Q 1341 3281 1617 3432 
Q 1894 3584 2278 3584 
Q 2916 3584 3314 3078 
Q 3713 2572 3713 1747 
Q 3713 922 3314 415 
Q 2916 -91 2278 -91 
Q 1894 -91 1617 61 
Q 1341 213 1159 525 
z
M 3116 1747 
Q 3116 2381 2855 2742 
Q 2594 3103 2138 3103 
Q 1681 3103 1420 2742 
Q 1159 2381 1159 1747 
Q 1159 1113 1420 752 
Q 1681 391 2138 391 
Q 2594 391 2855 752 
Q 3116 1113 3116 1747 
z
" transform="scale(0.015625)"/>
       <path id="DejaVuSans-20" transform="scale(0.015625)"/>
       <path id="DejaVuSans-64" d="M 2906 2969 
L 2906 4863 
L 3481 4863 
L 3481 0 
L 2906 0 
L 2906 525 
Q 2725 213 2448 61 
Q 2172 -91 1784 -91 
Q 1150 -91 751 415 
Q 353 922 353 1747 
Q 353 2572 751 3078 
Q 1150 3584 1784 3584 
Q 2172 3584 2448 3432 
Q 2725 3281 2906 2969 
z
M 947 1747 
Q 947 1113 1208 752 
Q 1469 391 1925 391 
Q 2381 391 2643 752 
Q 2906 1113 2906 1747 
Q 2906 2381 2643 2742 
Q 2381 3103 1925 3103 
Q 1469 3103 1208 2742 
Q 947 2381 947 1747 
z
" transform="scale(0.015625)"/>
      </defs>
      <use xlink:href="#DejaVuSans-6d"/>
      <use xlink:href="#DejaVuSans-75" x="97.412109"/>
      <use xlink:href="#DejaVuSans-6c" x="160.791016"/>
      <use xlink:href="#DejaVuSans-74" x="188.574219"/>
      <use xlink:href="#DejaVuSans-69" x="227.783203"/>
      <use xlink:href="#DejaVuSans-2d" x="255.566406"/>
      <use xlink:href="#DejaVuSans-73" x="291.650391"/>
      <use xlink:href="#DejaVuSans-74" x="343.75"/>
      <use xlink:href="#DejaVuSans-65" x="382.958984"/>
      <use xlink:href="#DejaVuSans-70" x="444.482422"/>
      <use xlink:href="#DejaVuSans-20" x="507.958984"/>
      <use xlink:href="#DejaVuSans-70" x="539.746094"/>
      <use xlink:href="#DejaVuSans-72" x="603.222656"/>
      <use xlink:href="#DejaVuSans-65" x="642.085938"/>
      <use xlink:href="#DejaVuSans-64" x="703.609375"/>
      <use xlink:href="#DejaVuSans-73" x="767.085938"/>
     </g>
    </g>
   </g>
  </g>
 </g>
 <defs>
  <clipPath id="p94fce3a143">
   <rect x="28.942188" y="7.2" width="446.4" height="166.32"/>
  </clipPath>
 </defs>
</svg>