<?xml version="1.0" encoding="utf-8" standalone="no"?>
<!DOCTYPE svg PUBLIC "-//W3C//DTD SVG 1.1//EN"
  "http://www.w3.org/Graphics/SVG/1.1/DTD/svg11.dtd">
<svg xmlns:xlink="http://www.w3.org/1999/xlink" width="417.648125pt" height="310.86825pt" viewBox="0 0 417.648125 310.86825" xmlns="http://www.w3.org/2000/svg" version="1.1">
 <metadata>
  <rdf:RDF xmlns:dc="http://purl.org/dc/elements/1.1/" xmlns:cc="http://creativecommons.org/ns#" xmlns:rdf="http://www.w3.org/1999/02/22-rdf-syntax-ns#">
   <cc:Work>
    <dc:type rdf:resource="http://purl.org/dc/dcmitype/StillImage"/>
    <dc:date>2023-05-18T01:41:06.601474</dc:date>
    <dc:format>image/svg+xml</dc:format>
    <dc:creator>
     <cc:Agent>
      <dc:title>Matplotlib v3.7.0, https://matplotlib.org/</dc:title>
     </cc:Agent>
    </dc:creator>
   </cc:Work>
  </rdf:RDF>
 </metadata>
 <defs>
  <style type="text/css">*{stroke-linejoin: round; stroke-linecap: butt}</style>
 </defs>
 <g id="figure_1">
  <g id="patch_1">
   <path d="M 0 310.86825 
L 417.648125 310.86825 
L 417.648125 0 
L 0 0 
z
" style="fill: #ffffff"/>
  </g>
  <g id="axes_1">
   <g id="patch_2">
    <path d="M 53.328125 273.312 
L 410.448125 273.312 
L 410.448125 7.2 
L 53.328125 7.2 
z
" style="fill: #ffffff"/>
   </g>
   <g id="patch_3">
    <path d="M 69.560852 273.312 
L 73.380318 273.312 
L 73.380318 231.029462 
L 69.560852 231.029462 
z
" clip-path="url(#p59614b0faf)" style="fill: #1f77b4; fill-opacity: 0.75; stroke: #000000; stroke-width: 0.381947; stroke-linejoin: miter"/>
   </g>
   <g id="patch_4">
    <path d="M 73.380318 273.312 
L 77.199783 273.312 
L 77.199783 206.442634 
L 73.380318 206.442634 
z
" clip-path="url(#p59614b0faf)" style="fill: #1f77b4; fill-opacity: 0.75; stroke: #000000; stroke-width: 0.381947; stroke-linejoin: miter"/>
   </g>
   <g id="patch_5">
    <path d="M 77.199783 273.312 
L 81.019248 273.312 
L 81.019248 168.924326 
L 77.199783 168.924326 
z
" clip-path="url(#p59614b0faf)" style="fill: #1f77b4; fill-opacity: 0.75; stroke: #000000; stroke-width: 0.381947; stroke-linejoin: miter"/>
   </g>
   <g id="patch_6">
    <path d="M 81.019248 273.312 
L 84.838713 273.312 
L 84.838713 180.494598 
L 81.019248 180.494598 
z
" clip-path="url(#p59614b0faf)" style="fill: #1f77b4; fill-opacity: 0.75; stroke: #000000; stroke-width: 0.381947; stroke-linejoin: miter"/>
   </g>
   <g id="patch_7">
    <path d="M 84.838713 273.312 
L 88.658178 273.312 
L 88.658178 102.735565 
L 84.838713 102.735565 
z
" clip-path="url(#p59614b0faf)" style="fill: #1f77b4; fill-opacity: 0.75; stroke: #000000; stroke-width: 0.381947; stroke-linejoin: miter"/>
   </g>
   <g id="patch_8">
    <path d="M 88.658178 273.312 
L 92.477644 273.312 
L 92.477644 75.086018 
L 88.658178 75.086018 
z
" clip-path="url(#p59614b0faf)" style="fill: #1f77b4; fill-opacity: 0.75; stroke: #000000; stroke-width: 0.381947; stroke-linejoin: miter"/>
   </g>
   <g id="patch_9">
    <path d="M 92.477644 273.312 
L 96.297109 273.312 
L 96.297109 131.831396 
L 92.477644 131.831396 
z
" clip-path="url(#p59614b0faf)" style="fill: #1f77b4; fill-opacity: 0.75; stroke: #000000; stroke-width: 0.381947; stroke-linejoin: miter"/>
   </g>
   <g id="patch_10">
    <path d="M 96.297109 273.312 
L 100.116574 273.312 
L 100.116574 35.866199 
L 96.297109 35.866199 
z
" clip-path="url(#p59614b0faf)" style="fill: #1f77b4; fill-opacity: 0.75; stroke: #000000; stroke-width: 0.381947; stroke-linejoin: miter"/>
   </g>
   <g id="patch_11">
    <path d="M 100.116574 273.312 
L 103.936039 273.312 
L 103.936039 27.443722 
L 100.116574 27.443722 
z
" clip-path="url(#p59614b0faf)" style="fill: #1f77b4; fill-opacity: 0.75; stroke: #000000; stroke-width: 0.381947; stroke-linejoin: miter"/>
   </g>
   <g id="patch_12">
    <path d="M 103.936039 273.312 
L 107.755505 273.312 
L 107.755505 124.429825 
L 103.936039 124.429825 
z
" clip-path="url(#p59614b0faf)" style="fill: #1f77b4; fill-opacity: 0.75; stroke: #000000; stroke-width: 0.381947; stroke-linejoin: miter"/>
   </g>
   <g id="patch_13">
    <path d="M 107.755505 273.312 
L 111.57497 273.312 
L 111.57497 26.167589 
L 107.755505 26.167589 
z
" clip-path="url(#p59614b0faf)" style="fill: #1f77b4; fill-opacity: 0.75; stroke: #000000; stroke-width: 0.381947; stroke-linejoin: miter"/>
   </g>
   <g id="patch_14">
    <path d="M 111.57497 273.312 
L 115.394435 273.312 
L 115.394435 32.207952 
L 111.57497 32.207952 
z
" clip-path="url(#p59614b0faf)" style="fill: #1f77b4; fill-opacity: 0.75; stroke: #000000; stroke-width: 0.381947; stroke-linejoin: miter"/>
   </g>
   <g id="patch_15">
    <path d="M 115.394435 273.312 
L 119.2139 273.312 
L 119.2139 19.872 
L 115.394435 19.872 
z
" clip-path="url(#p59614b0faf)" style="fill: #1f77b4; fill-opacity: 0.75; stroke: #000000; stroke-width: 0.381947; stroke-linejoin: miter"/>
   </g>
   <g id="patch_16">
    <path d="M 119.2139 273.312 
L 123.033366 273.312 
L 123.033366 153.185353 
L 119.2139 153.185353 
z
" clip-path="url(#p59614b0faf)" style="fill: #1f77b4; fill-opacity: 0.75; stroke: #000000; stroke-width: 0.381947; stroke-linejoin: miter"/>
   </g>
   <g id="patch_17">
    <path d="M 123.033366 273.312 
L 126.852831 273.312 
L 126.852831 42.842393 
L 123.033366 42.842393 
z
" clip-path="url(#p59614b0faf)" style="fill: #1f77b4; fill-opacity: 0.75; stroke: #000000; stroke-width: 0.381947; stroke-linejoin: miter"/>
   </g>
   <g id="patch_18">
    <path d="M 126.852831 273.312 
L 130.672296 273.312 
L 130.672296 51.349946 
L 126.852831 51.349946 
z
" clip-path="url(#p59614b0faf)" style="fill: #1f77b4; fill-opacity: 0.75; stroke: #000000; stroke-width: 0.381947; stroke-linejoin: miter"/>
   </g>
   <g id="patch_19">
    <path d="M 130.672296 273.312 
L 134.491761 273.312 
L 134.491761 173.858707 
L 130.672296 173.858707 
z
" clip-path="url(#p59614b0faf)" style="fill: #1f77b4; fill-opacity: 0.75; stroke: #000000; stroke-width: 0.381947; stroke-linejoin: miter"/>
   </g>
   <g id="patch_20">
    <path d="M 134.491761 273.312 
L 138.311227 273.312 
L 138.311227 57.475384 
L 134.491761 57.475384 
z
" clip-path="url(#p59614b0faf)" style="fill: #1f77b4; fill-opacity: 0.75; stroke: #000000; stroke-width: 0.381947; stroke-linejoin: miter"/>
   </g>
   <g id="patch_21">
    <path d="M 138.311227 273.312 
L 142.130692 273.312 
L 142.130692 68.96058 
L 138.311227 68.96058 
z
" clip-path="url(#p59614b0faf)" style="fill: #1f77b4; fill-opacity: 0.75; stroke: #000000; stroke-width: 0.381947; stroke-linejoin: miter"/>
   </g>
   <g id="patch_22">
    <path d="M 142.130692 273.312 
L 145.950157 273.312 
L 145.950157 192.235021 
L 142.130692 192.235021 
z
" clip-path="url(#p59614b0faf)" style="fill: #1f77b4; fill-opacity: 0.75; stroke: #000000; stroke-width: 0.381947; stroke-linejoin: miter"/>
   </g>
   <g id="patch_23">
    <path d="M 145.950157 273.312 
L 149.769622 273.312 
L 149.769622 78.574115 
L 145.950157 78.574115 
z
" clip-path="url(#p59614b0faf)" style="fill: #1f77b4; fill-opacity: 0.75; stroke: #000000; stroke-width: 0.381947; stroke-linejoin: miter"/>
   </g>
   <g id="patch_24">
    <path d="M 149.769622 273.312 
L 153.589088 273.312 
L 153.589088 97.460882 
L 149.769622 97.460882 
z
" clip-path="url(#p59614b0faf)" style="fill: #1f77b4; fill-opacity: 0.75; stroke: #000000; stroke-width: 0.381947; stroke-linejoin: miter"/>
   </g>
   <g id="patch_25">
    <path d="M 153.589088 273.312 
L 157.408553 273.312 
L 157.408553 211.377015 
L 153.589088 211.377015 
z
" clip-path="url(#p59614b0faf)" style="fill: #1f77b4; fill-opacity: 0.75; stroke: #000000; stroke-width: 0.381947; stroke-linejoin: miter"/>
   </g>
   <g id="patch_26">
    <path d="M 157.408553 273.312 
L 161.228018 273.312 
L 161.228018 113.625233 
L 157.408553 113.625233 
z
" clip-path="url(#p59614b0faf)" style="fill: #1f77b4; fill-opacity: 0.75; stroke: #000000; stroke-width: 0.381947; stroke-linejoin: miter"/>
   </g>
   <g id="patch_27">
    <path d="M 161.228018 273.312 
L 165.047483 273.312 
L 165.047483 120.686502 
L 161.228018 120.686502 
z
" clip-path="url(#p59614b0faf)" style="fill: #1f77b4; fill-opacity: 0.75; stroke: #000000; stroke-width: 0.381947; stroke-linejoin: miter"/>
   </g>
   <g id="patch_28">
    <path d="M 165.047483 273.312 
L 168.866949 273.312 
L 168.866949 127.067166 
L 165.047483 127.067166 
z
" clip-path="url(#p59614b0faf)" style="fill: #1f77b4; fill-opacity: 0.75; stroke: #000000; stroke-width: 0.381947; stroke-linejoin: miter"/>
   </g>
   <g id="patch_29">
    <path d="M 168.866949 273.312 
L 172.686414 273.312 
L 172.686414 225.414477 
L 168.866949 225.414477 
z
" clip-path="url(#p59614b0faf)" style="fill: #1f77b4; fill-opacity: 0.75; stroke: #000000; stroke-width: 0.381947; stroke-linejoin: miter"/>
   </g>
   <g id="patch_30">
    <path d="M 172.686414 273.312 
L 176.505879 273.312 
L 176.505879 139.74342 
L 172.686414 139.74342 
z
" clip-path="url(#p59614b0faf)" style="fill: #1f77b4; fill-opacity: 0.75; stroke: #000000; stroke-width: 0.381947; stroke-linejoin: miter"/>
   </g>
   <g id="patch_31">
    <path d="M 176.505879 273.312 
L 180.325344 273.312 
L 180.325344 150.548012 
L 176.505879 150.548012 
z
" clip-path="url(#p59614b0faf)" style="fill: #1f77b4; fill-opacity: 0.75; stroke: #000000; stroke-width: 0.381947; stroke-linejoin: miter"/>
   </g>
   <g id="patch_32">
    <path d="M 180.325344 273.312 
L 184.144809 273.312 
L 184.144809 237.835505 
L 180.325344 237.835505 
z
" clip-path="url(#p59614b0faf)" style="fill: #1f77b4; fill-opacity: 0.75; stroke: #000000; stroke-width: 0.381947; stroke-linejoin: miter"/>
   </g>
   <g id="patch_33">
    <path d="M 184.144809 273.312 
L 187.964275 273.312 
L 187.964275 157.183903 
L 184.144809 157.183903 
z
" clip-path="url(#p59614b0faf)" style="fill: #1f77b4; fill-opacity: 0.75; stroke: #000000; stroke-width: 0.381947; stroke-linejoin: miter"/>
   </g>
   <g id="patch_34">
    <path d="M 187.964275 273.312 
L 191.78374 273.312 
L 191.78374 162.543662 
L 187.964275 162.543662 
z
" clip-path="url(#p59614b0faf)" style="fill: #1f77b4; fill-opacity: 0.75; stroke: #000000; stroke-width: 0.381947; stroke-linejoin: miter"/>
   </g>
   <g id="patch_35">
    <path d="M 191.78374 273.312 
L 195.603205 273.312 
L 195.603205 244.38632 
L 191.78374 244.38632 
z
" clip-path="url(#p59614b0faf)" style="fill: #1f77b4; fill-opacity: 0.75; stroke: #000000; stroke-width: 0.381947; stroke-linejoin: miter"/>
   </g>
   <g id="patch_36">
    <path d="M 195.603205 273.312 
L 199.42267 273.312 
L 199.42267 175.985595 
L 195.603205 175.985595 
z
" clip-path="url(#p59614b0faf)" style="fill: #1f77b4; fill-opacity: 0.75; stroke: #000000; stroke-width: 0.381947; stroke-linejoin: miter"/>
   </g>
   <g id="patch_37">
    <path d="M 199.42267 273.312 
L 203.242136 273.312 
L 203.242136 180.324447 
L 199.42267 180.324447 
z
" clip-path="url(#p59614b0faf)" style="fill: #1f77b4; fill-opacity: 0.75; stroke: #000000; stroke-width: 0.381947; stroke-linejoin: miter"/>
   </g>
   <g id="patch_38">
    <path d="M 203.242136 273.312 
L 207.061601 273.312 
L 207.061601 253.319251 
L 203.242136 253.319251 
z
" clip-path="url(#p59614b0faf)" style="fill: #1f77b4; fill-opacity: 0.75; stroke: #000000; stroke-width: 0.381947; stroke-linejoin: miter"/>
   </g>
   <g id="patch_39">
    <path d="M 207.061601 273.312 
L 210.881066 273.312 
L 210.881066 187.130489 
L 207.061601 187.130489 
z
" clip-path="url(#p59614b0faf)" style="fill: #1f77b4; fill-opacity: 0.75; stroke: #000000; stroke-width: 0.381947; stroke-linejoin: miter"/>
   </g>
   <g id="patch_40">
    <path d="M 210.881066 273.312 
L 214.700531 273.312 
L 214.700531 194.702211 
L 210.881066 194.702211 
z
" clip-path="url(#p59614b0faf)" style="fill: #1f77b4; fill-opacity: 0.75; stroke: #000000; stroke-width: 0.381947; stroke-linejoin: miter"/>
   </g>
   <g id="patch_41">
    <path d="M 214.700531 273.312 
L 218.519997 273.312 
L 218.519997 193.936532 
L 214.700531 193.936532 
z
" clip-path="url(#p59614b0faf)" style="fill: #1f77b4; fill-opacity: 0.75; stroke: #000000; stroke-width: 0.381947; stroke-linejoin: miter"/>
   </g>
   <g id="patch_42">
    <path d="M 218.519997 273.312 
L 222.339462 273.312 
L 222.339462 257.14765 
L 218.519997 257.14765 
z
" clip-path="url(#p59614b0faf)" style="fill: #1f77b4; fill-opacity: 0.75; stroke: #000000; stroke-width: 0.381947; stroke-linejoin: miter"/>
   </g>
   <g id="patch_43">
    <path d="M 222.339462 273.312 
L 226.158927 273.312 
L 226.158927 207.038163 
L 222.339462 207.038163 
z
" clip-path="url(#p59614b0faf)" style="fill: #1f77b4; fill-opacity: 0.75; stroke: #000000; stroke-width: 0.381947; stroke-linejoin: miter"/>
   </g>
   <g id="patch_44">
    <path d="M 226.158927 273.312 
L 229.978392 273.312 
L 229.978392 206.953088 
L 226.158927 206.953088 
z
" clip-path="url(#p59614b0faf)" style="fill: #1f77b4; fill-opacity: 0.75; stroke: #000000; stroke-width: 0.381947; stroke-linejoin: miter"/>
   </g>
   <g id="patch_45">
    <path d="M 229.978392 273.312 
L 233.797858 273.312 
L 233.797858 259.359613 
L 229.978392 259.359613 
z
" clip-path="url(#p59614b0faf)" style="fill: #1f77b4; fill-opacity: 0.75; stroke: #000000; stroke-width: 0.381947; stroke-linejoin: miter"/>
   </g>
   <g id="patch_46">
    <path d="M 233.797858 273.312 
L 237.617323 273.312 
L 237.617323 217.587529 
L 233.797858 217.587529 
z
" clip-path="url(#p59614b0faf)" style="fill: #1f77b4; fill-opacity: 0.75; stroke: #000000; stroke-width: 0.381947; stroke-linejoin: miter"/>
   </g>
   <g id="patch_47">
    <path d="M 237.617323 273.312 
L 241.436788 273.312 
L 241.436788 216.396471 
L 237.617323 216.396471 
z
" clip-path="url(#p59614b0faf)" style="fill: #1f77b4; fill-opacity: 0.75; stroke: #000000; stroke-width: 0.381947; stroke-linejoin: miter"/>
   </g>
   <g id="patch_48">
    <path d="M 241.436788 273.312 
L 245.256253 273.312 
L 245.256253 263.017861 
L 241.436788 263.017861 
z
" clip-path="url(#p59614b0faf)" style="fill: #1f77b4; fill-opacity: 0.75; stroke: #000000; stroke-width: 0.381947; stroke-linejoin: miter"/>
   </g>
   <g id="patch_49">
    <path d="M 245.256253 273.312 
L 249.075719 273.312 
L 249.075719 220.565172 
L 245.256253 220.565172 
z
" clip-path="url(#p59614b0faf)" style="fill: #1f77b4; fill-opacity: 0.75; stroke: #000000; stroke-width: 0.381947; stroke-linejoin: miter"/>
   </g>
   <g id="patch_50">
    <path d="M 249.075719 273.312 
L 252.895184 273.312 
L 252.895184 224.563722 
L 249.075719 224.563722 
z
" clip-path="url(#p59614b0faf)" style="fill: #1f77b4; fill-opacity: 0.75; stroke: #000000; stroke-width: 0.381947; stroke-linejoin: miter"/>
   </g>
   <g id="patch_51">
    <path d="M 252.895184 273.312 
L 256.714649 273.312 
L 256.714649 227.201063 
L 252.895184 227.201063 
z
" clip-path="url(#p59614b0faf)" style="fill: #1f77b4; fill-opacity: 0.75; stroke: #000000; stroke-width: 0.381947; stroke-linejoin: miter"/>
   </g>
   <g id="patch_52">
    <path d="M 256.714649 273.312 
L 260.534114 273.312 
L 260.534114 264.804447 
L 256.714649 264.804447 
z
" clip-path="url(#p59614b0faf)" style="fill: #1f77b4; fill-opacity: 0.75; stroke: #000000; stroke-width: 0.381947; stroke-linejoin: miter"/>
   </g>
   <g id="patch_53">
    <path d="M 260.534114 273.312 
L 264.35358 273.312 
L 264.35358 229.498103 
L 260.534114 229.498103 
z
" clip-path="url(#p59614b0faf)" style="fill: #1f77b4; fill-opacity: 0.75; stroke: #000000; stroke-width: 0.381947; stroke-linejoin: miter"/>
   </g>
   <g id="patch_54">
    <path d="M 264.35358 273.312 
L 268.173045 273.312 
L 268.173045 231.539915 
L 264.35358 231.539915 
z
" clip-path="url(#p59614b0faf)" style="fill: #1f77b4; fill-opacity: 0.75; stroke: #000000; stroke-width: 0.381947; stroke-linejoin: miter"/>
   </g>
   <g id="patch_55">
    <path d="M 268.173045 273.312 
L 271.99251 273.312 
L 271.99251 264.804447 
L 268.173045 264.804447 
z
" clip-path="url(#p59614b0faf)" style="fill: #1f77b4; fill-opacity: 0.75; stroke: #000000; stroke-width: 0.381947; stroke-linejoin: miter"/>
   </g>
   <g id="patch_56">
    <path d="M 271.99251 273.312 
L 275.811975 273.312 
L 275.811975 234.942937 
L 271.99251 234.942937 
z
" clip-path="url(#p59614b0faf)" style="fill: #1f77b4; fill-opacity: 0.75; stroke: #000000; stroke-width: 0.381947; stroke-linejoin: miter"/>
   </g>
   <g id="patch_57">
    <path d="M 275.811975 273.312 
L 279.631441 273.312 
L 279.631441 236.814598 
L 275.811975 236.814598 
z
" clip-path="url(#p59614b0faf)" style="fill: #1f77b4; fill-opacity: 0.75; stroke: #000000; stroke-width: 0.381947; stroke-linejoin: miter"/>
   </g>
   <g id="patch_58">
    <path d="M 279.631441 273.312 
L 283.450906 273.312 
L 283.450906 266.591033 
L 279.631441 266.591033 
z
" clip-path="url(#p59614b0faf)" style="fill: #1f77b4; fill-opacity: 0.75; stroke: #000000; stroke-width: 0.381947; stroke-linejoin: miter"/>
   </g>
   <g id="patch_59">
    <path d="M 283.450906 273.312 
L 287.270371 273.312 
L 287.270371 238.856411 
L 283.450906 238.856411 
z
" clip-path="url(#p59614b0faf)" style="fill: #1f77b4; fill-opacity: 0.75; stroke: #000000; stroke-width: 0.381947; stroke-linejoin: miter"/>
   </g>
   <g id="patch_60">
    <path d="M 287.270371 273.312 
L 291.089836 273.312 
L 291.089836 240.217619 
L 287.270371 240.217619 
z
" clip-path="url(#p59614b0faf)" style="fill: #1f77b4; fill-opacity: 0.75; stroke: #000000; stroke-width: 0.381947; stroke-linejoin: miter"/>
   </g>
   <g id="patch_61">
    <path d="M 291.089836 273.312 
L 294.909301 273.312 
L 294.909301 267.782091 
L 291.089836 267.782091 
z
" clip-path="url(#p59614b0faf)" style="fill: #1f77b4; fill-opacity: 0.75; stroke: #000000; stroke-width: 0.381947; stroke-linejoin: miter"/>
   </g>
   <g id="patch_62">
    <path d="M 294.909301 273.312 
L 298.728767 273.312 
L 298.728767 245.91768 
L 294.909301 245.91768 
z
" clip-path="url(#p59614b0faf)" style="fill: #1f77b4; fill-opacity: 0.75; stroke: #000000; stroke-width: 0.381947; stroke-linejoin: miter"/>
   </g>
   <g id="patch_63">
    <path d="M 298.728767 273.312 
L 302.548232 273.312 
L 302.548232 248.38487 
L 298.728767 248.38487 
z
" clip-path="url(#p59614b0faf)" style="fill: #1f77b4; fill-opacity: 0.75; stroke: #000000; stroke-width: 0.381947; stroke-linejoin: miter"/>
   </g>
   <g id="patch_64">
    <path d="M 302.548232 273.312 
L 306.367697 273.312 
L 306.367697 250.511758 
L 302.548232 250.511758 
z
" clip-path="url(#p59614b0faf)" style="fill: #1f77b4; fill-opacity: 0.75; stroke: #000000; stroke-width: 0.381947; stroke-linejoin: miter"/>
   </g>
   <g id="patch_65">
    <path d="M 306.367697 273.312 
L 310.187162 273.312 
L 310.187162 268.292544 
L 306.367697 268.292544 
z
" clip-path="url(#p59614b0faf)" style="fill: #1f77b4; fill-opacity: 0.75; stroke: #000000; stroke-width: 0.381947; stroke-linejoin: miter"/>
   </g>
   <g id="patch_66">
    <path d="M 310.187162 273.312 
L 314.006628 273.312 
L 314.006628 252.128193 
L 310.187162 252.128193 
z
" clip-path="url(#p59614b0faf)" style="fill: #1f77b4; fill-opacity: 0.75; stroke: #000000; stroke-width: 0.381947; stroke-linejoin: miter"/>
   </g>
   <g id="patch_67">
    <path d="M 314.006628 273.312 
L 317.826093 273.312 
L 317.826093 255.020761 
L 314.006628 255.020761 
z
" clip-path="url(#p59614b0faf)" style="fill: #1f77b4; fill-opacity: 0.75; stroke: #000000; stroke-width: 0.381947; stroke-linejoin: miter"/>
   </g>
   <g id="patch_68">
    <path d="M 317.826093 273.312 
L 321.645558 273.312 
L 321.645558 267.441789 
L 317.826093 267.441789 
z
" clip-path="url(#p59614b0faf)" style="fill: #1f77b4; fill-opacity: 0.75; stroke: #000000; stroke-width: 0.381947; stroke-linejoin: miter"/>
   </g>
   <g id="patch_69">
    <path d="M 321.645558 273.312 
L 325.465023 273.312 
L 325.465023 254.595384 
L 321.645558 254.595384 
z
" clip-path="url(#p59614b0faf)" style="fill: #1f77b4; fill-opacity: 0.75; stroke: #000000; stroke-width: 0.381947; stroke-linejoin: miter"/>
   </g>
   <g id="patch_70">
    <path d="M 325.465023 273.312 
L 329.284489 273.312 
L 329.284489 255.190912 
L 325.465023 255.190912 
z
" clip-path="url(#p59614b0faf)" style="fill: #1f77b4; fill-opacity: 0.75; stroke: #000000; stroke-width: 0.381947; stroke-linejoin: miter"/>
   </g>
   <g id="patch_71">
    <path d="M 329.284489 273.312 
L 333.103954 273.312 
L 333.103954 268.207468 
L 329.284489 268.207468 
z
" clip-path="url(#p59614b0faf)" style="fill: #1f77b4; fill-opacity: 0.75; stroke: #000000; stroke-width: 0.381947; stroke-linejoin: miter"/>
   </g>
   <g id="patch_72">
    <path d="M 333.103954 273.312 
L 336.923419 273.312 
L 336.923419 257.658103 
L 333.103954 257.658103 
z
" clip-path="url(#p59614b0faf)" style="fill: #1f77b4; fill-opacity: 0.75; stroke: #000000; stroke-width: 0.381947; stroke-linejoin: miter"/>
   </g>
   <g id="patch_73">
    <path d="M 336.923419 273.312 
L 340.742884 273.312 
L 340.742884 260.210369 
L 336.923419 260.210369 
z
" clip-path="url(#p59614b0faf)" style="fill: #1f77b4; fill-opacity: 0.75; stroke: #000000; stroke-width: 0.381947; stroke-linejoin: miter"/>
   </g>
   <g id="patch_74">
    <path d="M 340.742884 273.312 
L 344.56235 273.312 
L 344.56235 269.483601 
L 340.742884 269.483601 
z
" clip-path="url(#p59614b0faf)" style="fill: #1f77b4; fill-opacity: 0.75; stroke: #000000; stroke-width: 0.381947; stroke-linejoin: miter"/>
   </g>
   <g id="patch_75">
    <path d="M 344.56235 273.312 
L 348.381815 273.312 
L 348.381815 260.976048 
L 344.56235 260.976048 
z
" clip-path="url(#p59614b0faf)" style="fill: #1f77b4; fill-opacity: 0.75; stroke: #000000; stroke-width: 0.381947; stroke-linejoin: miter"/>
   </g>
   <g id="patch_76">
    <path d="M 348.381815 273.312 
L 352.20128 273.312 
L 352.20128 263.61339 
L 348.381815 263.61339 
z
" clip-path="url(#p59614b0faf)" style="fill: #1f77b4; fill-opacity: 0.75; stroke: #000000; stroke-width: 0.381947; stroke-linejoin: miter"/>
   </g>
   <g id="patch_77">
    <path d="M 352.20128 273.312 
L 356.020745 273.312 
L 356.020745 261.996955 
L 352.20128 261.996955 
z
" clip-path="url(#p59614b0faf)" style="fill: #1f77b4; fill-opacity: 0.75; stroke: #000000; stroke-width: 0.381947; stroke-linejoin: miter"/>
   </g>
   <g id="patch_78">
    <path d="M 356.020745 273.312 
L 359.840211 273.312 
L 359.840211 269.143299 
L 356.020745 269.143299 
z
" clip-path="url(#p59614b0faf)" style="fill: #1f77b4; fill-opacity: 0.75; stroke: #000000; stroke-width: 0.381947; stroke-linejoin: miter"/>
   </g>
   <g id="patch_79">
    <path d="M 359.840211 273.312 
L 363.659676 273.312 
L 363.659676 263.61339 
L 359.840211 263.61339 
z
" clip-path="url(#p59614b0faf)" style="fill: #1f77b4; fill-opacity: 0.75; stroke: #000000; stroke-width: 0.381947; stroke-linejoin: miter"/>
   </g>
   <g id="patch_80">
    <path d="M 363.659676 273.312 
L 367.479141 273.312 
L 367.479141 266.676109 
L 363.659676 266.676109 
z
" clip-path="url(#p59614b0faf)" style="fill: #1f77b4; fill-opacity: 0.75; stroke: #000000; stroke-width: 0.381947; stroke-linejoin: miter"/>
   </g>
   <g id="patch_81">
    <path d="M 367.479141 273.312 
L 371.298606 273.312 
L 371.298606 270.334356 
L 367.479141 270.334356 
z
" clip-path="url(#p59614b0faf)" style="fill: #1f77b4; fill-opacity: 0.75; stroke: #000000; stroke-width: 0.381947; stroke-linejoin: miter"/>
   </g>
   <g id="patch_82">
    <path d="M 371.298606 273.312 
L 375.118072 273.312 
L 375.118072 265.059674 
L 371.298606 265.059674 
z
" clip-path="url(#p59614b0faf)" style="fill: #1f77b4; fill-opacity: 0.75; stroke: #000000; stroke-width: 0.381947; stroke-linejoin: miter"/>
   </g>
   <g id="patch_83">
    <path d="M 375.118072 273.312 
L 378.937537 273.312 
L 378.937537 264.634296 
L 375.118072 264.634296 
z
" clip-path="url(#p59614b0faf)" style="fill: #1f77b4; fill-opacity: 0.75; stroke: #000000; stroke-width: 0.381947; stroke-linejoin: miter"/>
   </g>
   <g id="patch_84">
    <path d="M 378.937537 273.312 
L 382.757002 273.312 
L 382.757002 271.355263 
L 378.937537 271.355263 
z
" clip-path="url(#p59614b0faf)" style="fill: #1f77b4; fill-opacity: 0.75; stroke: #000000; stroke-width: 0.381947; stroke-linejoin: miter"/>
   </g>
   <g id="patch_85">
    <path d="M 382.757002 273.312 
L 386.576467 273.312 
L 386.576467 267.016411 
L 382.757002 267.016411 
z
" clip-path="url(#p59614b0faf)" style="fill: #1f77b4; fill-opacity: 0.75; stroke: #000000; stroke-width: 0.381947; stroke-linejoin: miter"/>
   </g>
   <g id="patch_86">
    <path d="M 386.576467 273.312 
L 390.395932 273.312 
L 390.395932 268.377619 
L 386.576467 268.377619 
z
" clip-path="url(#p59614b0faf)" style="fill: #1f77b4; fill-opacity: 0.75; stroke: #000000; stroke-width: 0.381947; stroke-linejoin: miter"/>
   </g>
   <g id="patch_87">
    <path d="M 390.395932 273.312 
L 394.215398 273.312 
L 394.215398 267.952242 
L 390.395932 267.952242 
z
" clip-path="url(#p59614b0faf)" style="fill: #1f77b4; fill-opacity: 0.75; stroke: #000000; stroke-width: 0.381947; stroke-linejoin: miter"/>
   </g>
   <g id="matplotlib.axis_1">
    <g id="xtick_1">
     <g id="line2d_1">
      <defs>
       <path id="mcf3bc432be" d="M 0 0 
L 0 3.5 
" style="stroke: #000000; stroke-width: 0.8"/>
      </defs>
      <g>
       <use xlink:href="#mcf3bc432be" x="64.058233" y="273.312" style="stroke: #000000; stroke-width: 0.8"/>
      </g>
     </g>
     <g id="text_1">
      <!-- 0 -->
      <g transform="translate(60.876983 287.910437) scale(0.1 -0.1)">
       <defs>
        <path id="DejaVuSans-30" d="M 2034 4250 
Q 1547 4250 1301 3770 
Q 1056 3291 1056 2328 
Q 1056 1369 1301 889 
Q 1547 409 2034 409 
Q 2525 409 2770 889 
Q 3016 1369 3016 2328 
Q 3016 3291 2770 3770 
Q 2525 4250 2034 4250 
z
M 2034 4750 
Q 2819 4750 3233 4129 
Q 3647 3509 3647 2328 
Q 3647 1150 3233 529 
Q 2819 -91 2034 -91 
Q 1250 -91 836 529 
Q 422 1150 422 2328 
Q 422 3509 836 4129 
Q 1250 4750 2034 4750 
z
" transform="scale(0.015625)"/>
       </defs>
       <use xlink:href="#DejaVuSans-30"/>
      </g>
     </g>
    </g>
    <g id="xtick_2">
     <g id="line2d_2">
      <g>
       <use xlink:href="#mcf3bc432be" x="119.084427" y="273.312" style="stroke: #000000; stroke-width: 0.8"/>
      </g>
     </g>
     <g id="text_2">
      <!-- 10 -->
      <g transform="translate(112.721927 287.910437) scale(0.1 -0.1)">
       <defs>
        <path id="DejaVuSans-31" d="M 794 531 
L 1825 531 
L 1825 4091 
L 703 3866 
L 703 4441 
L 1819 4666 
L 2450 4666 
L 2450 531 
L 3481 531 
L 3481 0 
L 794 0 
L 794 531 
z
" transform="scale(0.015625)"/>
       </defs>
       <use xlink:href="#DejaVuSans-31"/>
       <use xlink:href="#DejaVuSans-30" x="63.623047"/>
      </g>
     </g>
    </g>
    <g id="xtick_3">
     <g id="line2d_3">
      <g>
       <use xlink:href="#mcf3bc432be" x="174.110621" y="273.312" style="stroke: #000000; stroke-width: 0.8"/>
      </g>
     </g>
     <g id="text_3">
      <!-- 20 -->
      <g transform="translate(167.748121 287.910437) scale(0.1 -0.1)">
       <defs>
        <path id="DejaVuSans-32" d="M 1228 531 
L 3431 531 
L 3431 0 
L 469 0 
L 469 531 
Q 828 903 1448 1529 
Q 2069 2156 2228 2338 
Q 2531 2678 2651 2914 
Q 2772 3150 2772 3378 
Q 2772 3750 2511 3984 
Q 2250 4219 1831 4219 
Q 1534 4219 1204 4116 
Q 875 4013 500 3803 
L 500 4441 
Q 881 4594 1212 4672 
Q 1544 4750 1819 4750 
Q 2544 4750 2975 4387 
Q 3406 4025 3406 3419 
Q 3406 3131 3298 2873 
Q 3191 2616 2906 2266 
Q 2828 2175 2409 1742 
Q 1991 1309 1228 531 
z
" transform="scale(0.015625)"/>
       </defs>
       <use xlink:href="#DejaVuSans-32"/>
       <use xlink:href="#DejaVuSans-30" x="63.623047"/>
      </g>
     </g>
    </g>
    <g id="xtick_4">
     <g id="line2d_4">
      <g>
       <use xlink:href="#mcf3bc432be" x="229.136815" y="273.312" style="stroke: #000000; stroke-width: 0.8"/>
      </g>
     </g>
     <g id="text_4">
      <!-- 30 -->
      <g transform="translate(222.774315 287.910437) scale(0.1 -0.1)">
       <defs>
        <path id="DejaVuSans-33" d="M 2597 2516 
Q 3050 2419 3304 2112 
Q 3559 1806 3559 1356 
Q 3559 666 3084 287 
Q 2609 -91 1734 -91 
Q 1441 -91 1130 -33 
Q 819 25 488 141 
L 488 750 
Q 750 597 1062 519 
Q 1375 441 1716 441 
Q 2309 441 2620 675 
Q 2931 909 2931 1356 
Q 2931 1769 2642 2001 
Q 2353 2234 1838 2234 
L 1294 2234 
L 1294 2753 
L 1863 2753 
Q 2328 2753 2575 2939 
Q 2822 3125 2822 3475 
Q 2822 3834 2567 4026 
Q 2313 4219 1838 4219 
Q 1578 4219 1281 4162 
Q 984 4106 628 3988 
L 628 4550 
Q 988 4650 1302 4700 
Q 1616 4750 1894 4750 
Q 2613 4750 3031 4423 
Q 3450 4097 3450 3541 
Q 3450 3153 3228 2886 
Q 3006 2619 2597 2516 
z
" transform="scale(0.015625)"/>
       </defs>
       <use xlink:href="#DejaVuSans-33"/>
       <use xlink:href="#DejaVuSans-30" x="63.623047"/>
      </g>
     </g>
    </g>
    <g id="xtick_5">
     <g id="line2d_5">
      <g>
       <use xlink:href="#mcf3bc432be" x="284.163009" y="273.312" style="stroke: #000000; stroke-width: 0.8"/>
      </g>
     </g>
     <g id="text_5">
      <!-- 40 -->
      <g transform="translate(277.800509 287.910437) scale(0.1 -0.1)">
       <defs>
        <path id="DejaVuSans-34" d="M 2419 4116 
L 825 1625 
L 2419 1625 
L 2419 4116 
z
M 2253 4666 
L 3047 4666 
L 3047 1625 
L 3713 1625 
L 3713 1100 
L 3047 1100 
L 3047 0 
L 2419 0 
L 2419 1100 
L 313 1100 
L 313 1709 
L 2253 4666 
z
" transform="scale(0.015625)"/>
       </defs>
       <use xlink:href="#DejaVuSans-34"/>
       <use xlink:href="#DejaVuSans-30" x="63.623047"/>
      </g>
     </g>
    </g>
    <g id="xtick_6">
     <g id="line2d_6">
      <g>
       <use xlink:href="#mcf3bc432be" x="339.189204" y="273.312" style="stroke: #000000; stroke-width: 0.8"/>
      </g>
     </g>
     <g id="text_6">
      <!-- 50 -->
      <g transform="translate(332.826704 287.910437) scale(0.1 -0.1)">
       <defs>
        <path id="DejaVuSans-35" d="M 691 4666 
L 3169 4666 
L 3169 4134 
L 1269 4134 
L 1269 2991 
Q 1406 3038 1543 3061 
Q 1681 3084 1819 3084 
Q 2600 3084 3056 2656 
Q 3513 2228 3513 1497 
Q 3513 744 3044 326 
Q 2575 -91 1722 -91 
Q 1428 -91 1123 -41 
Q 819 9 494 109 
L 494 744 
Q 775 591 1075 516 
Q 1375 441 1709 441 
Q 2250 441 2565 725 
Q 2881 1009 2881 1497 
Q 2881 1984 2565 2268 
Q 2250 2553 1709 2553 
Q 1456 2553 1204 2497 
Q 953 2441 691 2322 
L 691 4666 
z
" transform="scale(0.015625)"/>
       </defs>
       <use xlink:href="#DejaVuSans-35"/>
       <use xlink:href="#DejaVuSans-30" x="63.623047"/>
      </g>
     </g>
    </g>
    <g id="xtick_7">
     <g id="line2d_7">
      <g>
       <use xlink:href="#mcf3bc432be" x="394.215398" y="273.312" style="stroke: #000000; stroke-width: 0.8"/>
      </g>
     </g>
     <g id="text_7">
      <!-- 60 -->
      <g transform="translate(387.852898 287.910437) scale(0.1 -0.1)">
       <defs>
        <path id="DejaVuSans-36" d="M 2113 2584 
Q 1688 2584 1439 2293 
Q 1191 2003 1191 1497 
Q 1191 994 1439 701 
Q 1688 409 2113 409 
Q 2538 409 2786 701 
Q 3034 994 3034 1497 
Q 3034 2003 2786 2293 
Q 2538 2584 2113 2584 
z
M 3366 4563 
L 3366 3988 
Q 3128 4100 2886 4159 
Q 2644 4219 2406 4219 
Q 1781 4219 1451 3797 
Q 1122 3375 1075 2522 
Q 1259 2794 1537 2939 
Q 1816 3084 2150 3084 
Q 2853 3084 3261 2657 
Q 3669 2231 3669 1497 
Q 3669 778 3244 343 
Q 2819 -91 2113 -91 
Q 1303 -91 875 529 
Q 447 1150 447 2328 
Q 447 3434 972 4092 
Q 1497 4750 2381 4750 
Q 2619 4750 2861 4703 
Q 3103 4656 3366 4563 
z
" transform="scale(0.015625)"/>
       </defs>
       <use xlink:href="#DejaVuSans-36"/>
       <use xlink:href="#DejaVuSans-30" x="63.623047"/>
      </g>
     </g>
    </g>
    <g id="text_8">
     <!-- duration (min) -->
     <g transform="translate(195.929531 301.588562) scale(0.1 -0.1)">
      <defs>
       <path id="DejaVuSans-64" d="M 2906 2969 
L 2906 4863 
L 3481 4863 
L 3481 0 
L 2906 0 
L 2906 525 
Q 2725 213 2448 61 
Q 2172 -91 1784 -91 
Q 1150 -91 751 415 
Q 353 922 353 1747 
Q 353 2572 751 3078 
Q 1150 3584 1784 3584 
Q 2172 3584 2448 3432 
Q 2725 3281 2906 2969 
z
M 947 1747 
Q 947 1113 1208 752 
Q 1469 391 1925 391 
Q 2381 391 2643 752 
Q 2906 1113 2906 1747 
Q 2906 2381 2643 2742 
Q 2381 3103 1925 3103 
Q 1469 3103 1208 2742 
Q 947 2381 947 1747 
z
" transform="scale(0.015625)"/>
       <path id="DejaVuSans-75" d="M 544 1381 
L 544 3500 
L 1119 3500 
L 1119 1403 
Q 1119 906 1312 657 
Q 1506 409 1894 409 
Q 2359 409 2629 706 
Q 2900 1003 2900 1516 
L 2900 3500 
L 3475 3500 
L 3475 0 
L 2900 0 
L 2900 538 
Q 2691 219 2414 64 
Q 2138 -91 1772 -91 
Q 1169 -91 856 284 
Q 544 659 544 1381 
z
M 1991 3584 
L 1991 3584 
z
" transform="scale(0.015625)"/>
       <path id="DejaVuSans-72" d="M 2631 2963 
Q 2534 3019 2420 3045 
Q 2306 3072 2169 3072 
Q 1681 3072 1420 2755 
Q 1159 2438 1159 1844 
L 1159 0 
L 581 0 
L 581 3500 
L 1159 3500 
L 1159 2956 
Q 1341 3275 1631 3429 
Q 1922 3584 2338 3584 
Q 2397 3584 2469 3576 
Q 2541 3569 2628 3553 
L 2631 2963 
z
" transform="scale(0.015625)"/>
       <path id="DejaVuSans-61" d="M 2194 1759 
Q 1497 1759 1228 1600 
Q 959 1441 959 1056 
Q 959 750 1161 570 
Q 1363 391 1709 391 
Q 2188 391 2477 730 
Q 2766 1069 2766 1631 
L 2766 1759 
L 2194 1759 
z
M 3341 1997 
L 3341 0 
L 2766 0 
L 2766 531 
Q 2569 213 2275 61 
Q 1981 -91 1556 -91 
Q 1019 -91 701 211 
Q 384 513 384 1019 
Q 384 1609 779 1909 
Q 1175 2209 1959 2209 
L 2766 2209 
L 2766 2266 
Q 2766 2663 2505 2880 
Q 2244 3097 1772 3097 
Q 1472 3097 1187 3025 
Q 903 2953 641 2809 
L 641 3341 
Q 956 3463 1253 3523 
Q 1550 3584 1831 3584 
Q 2591 3584 2966 3190 
Q 3341 2797 3341 1997 
z
" transform="scale(0.015625)"/>
       <path id="DejaVuSans-74" d="M 1172 4494 
L 1172 3500 
L 2356 3500 
L 2356 3053 
L 1172 3053 
L 1172 1153 
Q 1172 725 1289 603 
Q 1406 481 1766 481 
L 2356 481 
L 2356 0 
L 1766 0 
Q 1100 0 847 248 
Q 594 497 594 1153 
L 594 3053 
L 172 3053 
L 172 3500 
L 594 3500 
L 594 4494 
L 1172 4494 
z
" transform="scale(0.015625)"/>
       <path id="DejaVuSans-69" d="M 603 3500 
L 1178 3500 
L 1178 0 
L 603 0 
L 603 3500 
z
M 603 4863 
L 1178 4863 
L 1178 4134 
L 603 4134 
L 603 4863 
z
" transform="scale(0.015625)"/>
       <path id="DejaVuSans-6f" d="M 1959 3097 
Q 1497 3097 1228 2736 
Q 959 2375 959 1747 
Q 959 1119 1226 758 
Q 1494 397 1959 397 
Q 2419 397 2687 759 
Q 2956 1122 2956 1747 
Q 2956 2369 2687 2733 
Q 2419 3097 1959 3097 
z
M 1959 3584 
Q 2709 3584 3137 3096 
Q 3566 2609 3566 1747 
Q 3566 888 3137 398 
Q 2709 -91 1959 -91 
Q 1206 -91 779 398 
Q 353 888 353 1747 
Q 353 2609 779 3096 
Q 1206 3584 1959 3584 
z
" transform="scale(0.015625)"/>
       <path id="DejaVuSans-6e" d="M 3513 2113 
L 3513 0 
L 2938 0 
L 2938 2094 
Q 2938 2591 2744 2837 
Q 2550 3084 2163 3084 
Q 1697 3084 1428 2787 
Q 1159 2491 1159 1978 
L 1159 0 
L 581 0 
L 581 3500 
L 1159 3500 
L 1159 2956 
Q 1366 3272 1645 3428 
Q 1925 3584 2291 3584 
Q 2894 3584 3203 3211 
Q 3513 2838 3513 2113 
z
" transform="scale(0.015625)"/>
       <path id="DejaVuSans-20" transform="scale(0.015625)"/>
       <path id="DejaVuSans-28" d="M 1984 4856 
Q 1566 4138 1362 3434 
Q 1159 2731 1159 2009 
Q 1159 1288 1364 580 
Q 1569 -128 1984 -844 
L 1484 -844 
Q 1016 -109 783 600 
Q 550 1309 550 2009 
Q 550 2706 781 3412 
Q 1013 4119 1484 4856 
L 1984 4856 
z
" transform="scale(0.015625)"/>
       <path id="DejaVuSans-6d" d="M 3328 2828 
Q 3544 3216 3844 3400 
Q 4144 3584 4550 3584 
Q 5097 3584 5394 3201 
Q 5691 2819 5691 2113 
L 5691 0 
L 5113 0 
L 5113 2094 
Q 5113 2597 4934 2840 
Q 4756 3084 4391 3084 
Q 3944 3084 3684 2787 
Q 3425 2491 3425 1978 
L 3425 0 
L 2847 0 
L 2847 2094 
Q 2847 2600 2669 2842 
Q 2491 3084 2119 3084 
Q 1678 3084 1418 2786 
Q 1159 2488 1159 1978 
L 1159 0 
L 581 0 
L 581 3500 
L 1159 3500 
L 1159 2956 
Q 1356 3278 1631 3431 
Q 1906 3584 2284 3584 
Q 2666 3584 2933 3390 
Q 3200 3197 3328 2828 
z
" transform="scale(0.015625)"/>
       <path id="DejaVuSans-29" d="M 513 4856 
L 1013 4856 
Q 1481 4119 1714 3412 
Q 1947 2706 1947 2009 
Q 1947 1309 1714 600 
Q 1481 -109 1013 -844 
L 513 -844 
Q 928 -128 1133 580 
Q 1338 1288 1338 2009 
Q 1338 2731 1133 3434 
Q 928 4138 513 4856 
z
" transform="scale(0.015625)"/>
      </defs>
      <use xlink:href="#DejaVuSans-64"/>
      <use xlink:href="#DejaVuSans-75" x="63.476562"/>
      <use xlink:href="#DejaVuSans-72" x="126.855469"/>
      <use xlink:href="#DejaVuSans-61" x="167.96875"/>
      <use xlink:href="#DejaVuSans-74" x="229.248047"/>
      <use xlink:href="#DejaVuSans-69" x="268.457031"/>
      <use xlink:href="#DejaVuSans-6f" x="296.240234"/>
      <use xlink:href="#DejaVuSans-6e" x="357.421875"/>
      <use xlink:href="#DejaVuSans-20" x="420.800781"/>
      <use xlink:href="#DejaVuSans-28" x="452.587891"/>
      <use xlink:href="#DejaVuSans-6d" x="491.601562"/>
      <use xlink:href="#DejaVuSans-69" x="589.013672"/>
      <use xlink:href="#DejaVuSans-6e" x="616.796875"/>
      <use xlink:href="#DejaVuSans-29" x="680.175781"/>
     </g>
    </g>
   </g>
   <g id="matplotlib.axis_2">
    <g id="ytick_1">
     <g id="line2d_8">
      <defs>
       <path id="m0a8e52a057" d="M 0 0 
L -3.5 0 
" style="stroke: #000000; stroke-width: 0.8"/>
      </defs>
      <g>
       <use xlink:href="#m0a8e52a057" x="53.328125" y="273.312" style="stroke: #000000; stroke-width: 0.8"/>
      </g>
     </g>
     <g id="text_9">
      <!-- 0 -->
      <g transform="translate(39.965625 277.111219) scale(0.1 -0.1)">
       <use xlink:href="#DejaVuSans-30"/>
      </g>
     </g>
    </g>
    <g id="ytick_2">
     <g id="line2d_9">
      <g>
       <use xlink:href="#m0a8e52a057" x="53.328125" y="230.774236" style="stroke: #000000; stroke-width: 0.8"/>
      </g>
     </g>
     <g id="text_10">
      <!-- 500 -->
      <g transform="translate(27.240625 234.573454) scale(0.1 -0.1)">
       <use xlink:href="#DejaVuSans-35"/>
       <use xlink:href="#DejaVuSans-30" x="63.623047"/>
       <use xlink:href="#DejaVuSans-30" x="127.246094"/>
      </g>
     </g>
    </g>
    <g id="ytick_3">
     <g id="line2d_10">
      <g>
       <use xlink:href="#m0a8e52a057" x="53.328125" y="188.236471" style="stroke: #000000; stroke-width: 0.8"/>
      </g>
     </g>
     <g id="text_11">
      <!-- 1000 -->
      <g transform="translate(20.878125 192.03569) scale(0.1 -0.1)">
       <use xlink:href="#DejaVuSans-31"/>
       <use xlink:href="#DejaVuSans-30" x="63.623047"/>
       <use xlink:href="#DejaVuSans-30" x="127.246094"/>
       <use xlink:href="#DejaVuSans-30" x="190.869141"/>
      </g>
     </g>
    </g>
    <g id="ytick_4">
     <g id="line2d_11">
      <g>
       <use xlink:href="#m0a8e52a057" x="53.328125" y="145.698707" style="stroke: #000000; stroke-width: 0.8"/>
      </g>
     </g>
     <g id="text_12">
      <!-- 1500 -->
      <g transform="translate(20.878125 149.497926) scale(0.1 -0.1)">
       <use xlink:href="#DejaVuSans-31"/>
       <use xlink:href="#DejaVuSans-35" x="63.623047"/>
       <use xlink:href="#DejaVuSans-30" x="127.246094"/>
       <use xlink:href="#DejaVuSans-30" x="190.869141"/>
      </g>
     </g>
    </g>
    <g id="ytick_5">
     <g id="line2d_12">
      <g>
       <use xlink:href="#m0a8e52a057" x="53.328125" y="103.160943" style="stroke: #000000; stroke-width: 0.8"/>
      </g>
     </g>
     <g id="text_13">
      <!-- 2000 -->
      <g transform="translate(20.878125 106.960161) scale(0.1 -0.1)">
       <use xlink:href="#DejaVuSans-32"/>
       <use xlink:href="#DejaVuSans-30" x="63.623047"/>
       <use xlink:href="#DejaVuSans-30" x="127.246094"/>
       <use xlink:href="#DejaVuSans-30" x="190.869141"/>
      </g>
     </g>
    </g>
    <g id="ytick_6">
     <g id="line2d_13">
      <g>
       <use xlink:href="#m0a8e52a057" x="53.328125" y="60.623178" style="stroke: #000000; stroke-width: 0.8"/>
      </g>
     </g>
     <g id="text_14">
      <!-- 2500 -->
      <g transform="translate(20.878125 64.422397) scale(0.1 -0.1)">
       <use xlink:href="#DejaVuSans-32"/>
       <use xlink:href="#DejaVuSans-35" x="63.623047"/>
       <use xlink:href="#DejaVuSans-30" x="127.246094"/>
       <use xlink:href="#DejaVuSans-30" x="190.869141"/>
      </g>
     </g>
    </g>
    <g id="ytick_7">
     <g id="line2d_14">
      <g>
       <use xlink:href="#m0a8e52a057" x="53.328125" y="18.085414" style="stroke: #000000; stroke-width: 0.8"/>
      </g>
     </g>
     <g id="text_15">
      <!-- 3000 -->
      <g transform="translate(20.878125 21.884633) scale(0.1 -0.1)">
       <use xlink:href="#DejaVuSans-33"/>
       <use xlink:href="#DejaVuSans-30" x="63.623047"/>
       <use xlink:href="#DejaVuSans-30" x="127.246094"/>
       <use xlink:href="#DejaVuSans-30" x="190.869141"/>
      </g>
     </g>
    </g>
    <g id="text_16">
     <!-- Count -->
     <g transform="translate(14.798438 155.104437) rotate(-90) scale(0.1 -0.1)">
      <defs>
       <path id="DejaVuSans-43" d="M 4122 4306 
L 4122 3641 
Q 3803 3938 3442 4084 
Q 3081 4231 2675 4231 
Q 1875 4231 1450 3742 
Q 1025 3253 1025 2328 
Q 1025 1406 1450 917 
Q 1875 428 2675 428 
Q 3081 428 3442 575 
Q 3803 722 4122 1019 
L 4122 359 
Q 3791 134 3420 21 
Q 3050 -91 2638 -91 
Q 1578 -91 968 557 
Q 359 1206 359 2328 
Q 359 3453 968 4101 
Q 1578 4750 2638 4750 
Q 3056 4750 3426 4639 
Q 3797 4528 4122 4306 
z
" transform="scale(0.015625)"/>
      </defs>
      <use xlink:href="#DejaVuSans-43"/>
      <use xlink:href="#DejaVuSans-6f" x="69.824219"/>
      <use xlink:href="#DejaVuSans-75" x="131.005859"/>
      <use xlink:href="#DejaVuSans-6e" x="194.384766"/>
      <use xlink:href="#DejaVuSans-74" x="257.763672"/>
     </g>
    </g>
   </g>
   <g id="patch_88">
    <path d="M 53.328125 273.312 
L 53.328125 7.2 
" style="fill: none; stroke: #000000; stroke-width: 0.8; stroke-linejoin: miter; stroke-linecap: square"/>
   </g>
   <g id="patch_89">
    <path d="M 410.448125 273.312 
L 410.448125 7.2 
" style="fill: none; stroke: #000000; stroke-width: 0.8; stroke-linejoin: miter; stroke-linecap: square"/>
   </g>
   <g id="patch_90">
    <path d="M 53.328125 273.312 
L 410.448125 273.312 
" style="fill: none; stroke: #000000; stroke-width: 0.8; stroke-linejoin: miter; stroke-linecap: square"/>
   </g>
   <g id="patch_91">
    <path d="M 53.328125 7.2 
L 410.448125 7.2 
" style="fill: none; stroke: #000000; stroke-width: 0.8; stroke-linejoin: miter; stroke-linecap: square"/>
   </g>
  </g>
 </g>
 <defs>
  <clipPath id="p59614b0faf">
   <rect x="53.328125" y="7.2" width="357.12" height="266.112"/>
  </clipPath>
 </defs>
</svg>