<?xml version="1.0" encoding="utf-8" standalone="no"?>
<!DOCTYPE svg PUBLIC "-//W3C//DTD SVG 1.1//EN"
  "http://www.w3.org/Graphics/SVG/1.1/DTD/svg11.dtd">
<svg xmlns:xlink="http://www.w3.org/1999/xlink" width="856.7725pt" height="494.2995pt" viewBox="0 0 856.7725 494.2995" xmlns="http://www.w3.org/2000/svg" version="1.1">
 <metadata>
  <rdf:RDF xmlns:dc="http://purl.org/dc/elements/1.1/" xmlns:cc="http://creativecommons.org/ns#" xmlns:rdf="http://www.w3.org/1999/02/22-rdf-syntax-ns#">
   <cc:Work>
    <dc:type rdf:resource="http://purl.org/dc/dcmitype/StillImage"/>
    <dc:date>2023-03-29T03:36:05.748589</dc:date>
    <dc:format>image/svg+xml</dc:format>
    <dc:creator>
     <cc:Agent>
      <dc:title>Matplotlib v3.7.0, https://matplotlib.org/</dc:title>
     </cc:Agent>
    </dc:creator>
   </cc:Work>
  </rdf:RDF>
 </metadata>
 <defs>
  <style type="text/css">*{stroke-linejoin: round; stroke-linecap: butt}</style>
 </defs>
 <g id="figure_1">
  <g id="patch_1">
   <path d="M 0 494.2995 
L 856.7725 494.2995 
L 856.7725 -0 
L 0 -0 
z
" style="fill: #ffffff"/>
  </g>
  <g id="axes_1">
   <g id="patch_2">
    <path d="M 20.5625 247.4875 
L 422.9725 247.4875 
L 422.9725 35.7555 
L 20.5625 35.7555 
z
" style="fill: #ffffff"/>
   </g>
   <g id="matplotlib.axis_1">
    <g id="xtick_1">
     <g id="line2d_1">
      <defs>
       <path id="me0f7a496db" d="M 0 0 
L 0 3.5 
" style="stroke: #000000; stroke-width: 0.8"/>
      </defs>
      <g>
       <use xlink:href="#me0f7a496db" x="43.660458" y="247.4875" style="stroke: #000000; stroke-width: 0.8"/>
      </g>
     </g>
     <g id="text_1">
      <!-- −2 -->
      <g transform="translate(36.289364 262.085938) scale(0.1 -0.1)">
       <defs>
        <path id="DejaVuSans-2212" d="M 678 2272 
L 4684 2272 
L 4684 1741 
L 678 1741 
L 678 2272 
z
" transform="scale(0.015625)"/>
        <path id="DejaVuSans-32" d="M 1228 531 
L 3431 531 
L 3431 0 
L 469 0 
L 469 531 
Q 828 903 1448 1529 
Q 2069 2156 2228 2338 
Q 2531 2678 2651 2914 
Q 2772 3150 2772 3378 
Q 2772 3750 2511 3984 
Q 2250 4219 1831 4219 
Q 1534 4219 1204 4116 
Q 875 4013 500 3803 
L 500 4441 
Q 881 4594 1212 4672 
Q 1544 4750 1819 4750 
Q 2544 4750 2975 4387 
Q 3406 4025 3406 3419 
Q 3406 3131 3298 2873 
Q 3191 2616 2906 2266 
Q 2828 2175 2409 1742 
Q 1991 1309 1228 531 
z
" transform="scale(0.015625)"/>
       </defs>
       <use xlink:href="#DejaVuSans-2212"/>
       <use xlink:href="#DejaVuSans-32" x="83.789062"/>
      </g>
     </g>
    </g>
    <g id="xtick_2">
     <g id="line2d_2">
      <g>
       <use xlink:href="#me0f7a496db" x="132.713979" y="247.4875" style="stroke: #000000; stroke-width: 0.8"/>
      </g>
     </g>
     <g id="text_2">
      <!-- −1 -->
      <g transform="translate(125.342885 262.085938) scale(0.1 -0.1)">
       <defs>
        <path id="DejaVuSans-31" d="M 794 531 
L 1825 531 
L 1825 4091 
L 703 3866 
L 703 4441 
L 1819 4666 
L 2450 4666 
L 2450 531 
L 3481 531 
L 3481 0 
L 794 0 
L 794 531 
z
" transform="scale(0.015625)"/>
       </defs>
       <use xlink:href="#DejaVuSans-2212"/>
       <use xlink:href="#DejaVuSans-31" x="83.789062"/>
      </g>
     </g>
    </g>
    <g id="xtick_3">
     <g id="line2d_3">
      <g>
       <use xlink:href="#me0f7a496db" x="221.7675" y="247.4875" style="stroke: #000000; stroke-width: 0.8"/>
      </g>
     </g>
     <g id="text_3">
      <!-- 0 -->
      <g transform="translate(218.58625 262.085938) scale(0.1 -0.1)">
       <defs>
        <path id="DejaVuSans-30" d="M 2034 4250 
Q 1547 4250 1301 3770 
Q 1056 3291 1056 2328 
Q 1056 1369 1301 889 
Q 1547 409 2034 409 
Q 2525 409 2770 889 
Q 3016 1369 3016 2328 
Q 3016 3291 2770 3770 
Q 2525 4250 2034 4250 
z
M 2034 4750 
Q 2819 4750 3233 4129 
Q 3647 3509 3647 2328 
Q 3647 1150 3233 529 
Q 2819 -91 2034 -91 
Q 1250 -91 836 529 
Q 422 1150 422 2328 
Q 422 3509 836 4129 
Q 1250 4750 2034 4750 
z
" transform="scale(0.015625)"/>
       </defs>
       <use xlink:href="#DejaVuSans-30"/>
      </g>
     </g>
    </g>
    <g id="xtick_4">
     <g id="line2d_4">
      <g>
       <use xlink:href="#me0f7a496db" x="310.821021" y="247.4875" style="stroke: #000000; stroke-width: 0.8"/>
      </g>
     </g>
     <g id="text_4">
      <!-- 1 -->
      <g transform="translate(307.639771 262.085938) scale(0.1 -0.1)">
       <use xlink:href="#DejaVuSans-31"/>
      </g>
     </g>
    </g>
    <g id="xtick_5">
     <g id="line2d_5">
      <g>
       <use xlink:href="#me0f7a496db" x="399.874542" y="247.4875" style="stroke: #000000; stroke-width: 0.8"/>
      </g>
     </g>
     <g id="text_5">
      <!-- 2 -->
      <g transform="translate(396.693292 262.085938) scale(0.1 -0.1)">
       <use xlink:href="#DejaVuSans-32"/>
      </g>
     </g>
    </g>
   </g>
   <g id="matplotlib.axis_2">
    <g id="ytick_1">
     <g id="line2d_6">
      <defs>
       <path id="mee1a61d2f7" d="M 0 0 
L -3.5 0 
" style="stroke: #000000; stroke-width: 0.8"/>
      </defs>
      <g>
       <use xlink:href="#mee1a61d2f7" x="20.5625" y="237.863318" style="stroke: #000000; stroke-width: 0.8"/>
      </g>
     </g>
     <g id="text_6">
      <!-- 0 -->
      <g transform="translate(7.2 241.662537) scale(0.1 -0.1)">
       <use xlink:href="#DejaVuSans-30"/>
      </g>
     </g>
    </g>
    <g id="ytick_2">
     <g id="line2d_7">
      <g>
       <use xlink:href="#mee1a61d2f7" x="20.5625" y="203.742459" style="stroke: #000000; stroke-width: 0.8"/>
      </g>
     </g>
     <g id="text_7">
      <!-- 1 -->
      <g transform="translate(7.2 207.541677) scale(0.1 -0.1)">
       <use xlink:href="#DejaVuSans-31"/>
      </g>
     </g>
    </g>
    <g id="ytick_3">
     <g id="line2d_8">
      <g>
       <use xlink:href="#mee1a61d2f7" x="20.5625" y="169.621599" style="stroke: #000000; stroke-width: 0.8"/>
      </g>
     </g>
     <g id="text_8">
      <!-- 2 -->
      <g transform="translate(7.2 173.420818) scale(0.1 -0.1)">
       <use xlink:href="#DejaVuSans-32"/>
      </g>
     </g>
    </g>
    <g id="ytick_4">
     <g id="line2d_9">
      <g>
       <use xlink:href="#mee1a61d2f7" x="20.5625" y="135.50074" style="stroke: #000000; stroke-width: 0.8"/>
      </g>
     </g>
     <g id="text_9">
      <!-- 3 -->
      <g transform="translate(7.2 139.299958) scale(0.1 -0.1)">
       <defs>
        <path id="DejaVuSans-33" d="M 2597 2516 
Q 3050 2419 3304 2112 
Q 3559 1806 3559 1356 
Q 3559 666 3084 287 
Q 2609 -91 1734 -91 
Q 1441 -91 1130 -33 
Q 819 25 488 141 
L 488 750 
Q 750 597 1062 519 
Q 1375 441 1716 441 
Q 2309 441 2620 675 
Q 2931 909 2931 1356 
Q 2931 1769 2642 2001 
Q 2353 2234 1838 2234 
L 1294 2234 
L 1294 2753 
L 1863 2753 
Q 2328 2753 2575 2939 
Q 2822 3125 2822 3475 
Q 2822 3834 2567 4026 
Q 2313 4219 1838 4219 
Q 1578 4219 1281 4162 
Q 984 4106 628 3988 
L 628 4550 
Q 988 4650 1302 4700 
Q 1616 4750 1894 4750 
Q 2613 4750 3031 4423 
Q 3450 4097 3450 3541 
Q 3450 3153 3228 2886 
Q 3006 2619 2597 2516 
z
" transform="scale(0.015625)"/>
       </defs>
       <use xlink:href="#DejaVuSans-33"/>
      </g>
     </g>
    </g>
    <g id="ytick_5">
     <g id="line2d_10">
      <g>
       <use xlink:href="#mee1a61d2f7" x="20.5625" y="101.37988" style="stroke: #000000; stroke-width: 0.8"/>
      </g>
     </g>
     <g id="text_10">
      <!-- 4 -->
      <g transform="translate(7.2 105.179099) scale(0.1 -0.1)">
       <defs>
        <path id="DejaVuSans-34" d="M 2419 4116 
L 825 1625 
L 2419 1625 
L 2419 4116 
z
M 2253 4666 
L 3047 4666 
L 3047 1625 
L 3713 1625 
L 3713 1100 
L 3047 1100 
L 3047 0 
L 2419 0 
L 2419 1100 
L 313 1100 
L 313 1709 
L 2253 4666 
z
" transform="scale(0.015625)"/>
       </defs>
       <use xlink:href="#DejaVuSans-34"/>
      </g>
     </g>
    </g>
    <g id="ytick_6">
     <g id="line2d_11">
      <g>
       <use xlink:href="#mee1a61d2f7" x="20.5625" y="67.25902" style="stroke: #000000; stroke-width: 0.8"/>
      </g>
     </g>
     <g id="text_11">
      <!-- 5 -->
      <g transform="translate(7.2 71.058239) scale(0.1 -0.1)">
       <defs>
        <path id="DejaVuSans-35" d="M 691 4666 
L 3169 4666 
L 3169 4134 
L 1269 4134 
L 1269 2991 
Q 1406 3038 1543 3061 
Q 1681 3084 1819 3084 
Q 2600 3084 3056 2656 
Q 3513 2228 3513 1497 
Q 3513 744 3044 326 
Q 2575 -91 1722 -91 
Q 1428 -91 1123 -41 
Q 819 9 494 109 
L 494 744 
Q 775 591 1075 516 
Q 1375 441 1709 441 
Q 2250 441 2565 725 
Q 2881 1009 2881 1497 
Q 2881 1984 2565 2268 
Q 2250 2553 1709 2553 
Q 1456 2553 1204 2497 
Q 953 2441 691 2322 
L 691 4666 
z
" transform="scale(0.015625)"/>
       </defs>
       <use xlink:href="#DejaVuSans-35"/>
      </g>
     </g>
    </g>
   </g>
   <g id="line2d_12">
    <path d="M 173.996445 237.397071 
L 178.069635 237.397071 
L 182.142824 236.930823 
L 186.216013 233.900215 
L 190.289203 231.802098 
L 194.362389 228.771493 
L 198.435579 215.716564 
L 202.508768 188.907338 
L 206.581958 183.079244 
L 210.655147 164.429332 
L 214.728336 146.24568 
L 218.801525 153.239396 
L 222.874714 228.771492 
L 226.947903 228.771492 
L 231.021092 227.838996 
L 235.09428 228.771493 
L 239.16747 226.207132 
L 243.240659 228.305245 
L 247.313849 226.440255 
L 251.387038 229.703988 
L 255.460227 229.703983 
L 259.533414 228.305245 
L 263.606603 229.004616 
L 267.679793 230.403354 
L 271.75298 227.838991 
L 275.826166 224.342151 
L 279.899358 225.740877 
L 283.972545 231.335858 
L 288.045737 228.072115 
L 292.118924 228.538375 
L 296.192116 229.470858 
L 300.265302 228.305251 
L 304.338495 230.17023 
L 308.411681 228.305239 
L 312.484868 229.470869 
L 316.55806 230.17024 
L 320.631252 232.501476 
L 324.704444 232.035214 
L 328.777625 232.501476 
L 332.850817 231.802105 
L 336.924009 233.43397 
L 340.997202 232.268338 
L 345.070383 232.035229 
L 349.143575 235.99833 
L 353.216767 233.200847 
L 357.289959 234.366455 
L 361.36314 229.703993 
L 365.436332 234.366455 
L 369.509514 233.43397 
L 373.582706 234.366455 
L 377.655887 233.43397 
L 381.729079 234.832712 
L 385.802271 234.599588 
L 389.875463 232.268338 
L 393.948645 236.6977 
L 398.021837 235.99833 
L 402.095029 235.065835 
L 406.168221 235.765206 
L 410.241413 235.532082 
L 414.314605 234.366446 
L 418.387776 236.464577 
L 422.460968 235.99833 
L 426.53416 235.99833 
L 430.607352 236.464577 
L 434.680544 236.464577 
L 438.753736 236.6977 
L 442.826928 236.231453 
L 446.90012 235.765195 
L 450.973291 236.231453 
L 455.046483 236.6977 
L 459.119675 236.930824 
L 463.192867 237.163947 
L 467.266059 236.930824 
L 471.339251 236.930824 
L 475.412443 237.397071 
L 479.485635 237.397069 
L 483.558806 237.163947 
L 487.631998 236.930824 
L 491.70519 237.397071 
L 495.778382 237.397071 
L 499.851574 237.863318 
L 503.924766 237.397071 
L 507.997958 237.163947 
L 512.07115 237.630193 
L 516.144321 237.163947 
L 520.217513 237.630195 
L 524.290705 237.630195 
L 528.363897 237.863318 
L 532.437089 237.863318 
L 536.510281 237.863318 
L 540.583473 237.397071 
L 544.656665 237.863318 
L 548.729836 237.863318 
L 552.803028 237.630195 
L 556.87622 237.397071 
L 560.949412 237.863318 
L 565.022604 237.863318 
L 569.095774 237.863318 
L 573.168966 237.863318 
L 577.242159 237.630195 
" clip-path="url(#pd0e296a009)" style="fill: none; stroke: #1f77b4; stroke-width: 1.5; stroke-linecap: square"/>
   </g>
   <g id="line2d_13">
    <path d="M 174.859622 236.89632 
L 178.787476 236.654569 
L 182.715327 235.687572 
L 186.64318 233.753572 
L 190.571031 228.918582 
L 194.498885 216.347602 
L 198.426738 195.79887 
L 202.354591 184.436634 
L 206.282443 164.61316 
L 210.210295 149.624694 
L 214.138148 132.460453 
L 218.066001 127.625469 
L 221.993853 230.852578 
L 225.921706 228.676831 
L 229.849558 233.511824 
L 233.777411 226.984582 
L 237.705264 229.160329 
L 241.633116 231.336076 
L 245.560968 230.85258 
L 249.488822 231.577824 
L 253.416673 229.402082 
L 257.344526 227.468085 
L 261.27238 232.061323 
L 265.200231 229.885586 
L 269.128087 230.85258 
L 273.05594 233.753575 
L 276.983794 233.270069 
L 280.911642 229.885581 
L 284.839496 233.995324 
L 288.767349 230.610829 
L 292.695203 231.577829 
L 296.623057 229.40207 
L 300.550905 233.270075 
L 304.478758 231.577829 
L 308.406612 232.30307 
L 312.33446 232.786583 
L 316.262319 231.336069 
L 320.190168 232.786569 
L 324.118016 235.445825 
L 328.045875 233.028319 
L 331.973723 235.445819 
L 335.901571 232.061336 
L 339.82943 232.06132 
L 343.757278 234.720577 
L 347.685137 233.995319 
L 351.612986 233.511819 
L 355.540834 233.75358 
L 359.468693 235.687574 
L 363.396552 234.720569 
L 367.3244 237.13807 
L 371.252259 235.204069 
L 375.180107 236.171073 
L 379.107966 234.720569 
L 383.035814 233.995319 
L 386.963662 236.654572 
L 390.891521 235.204054 
L 394.819348 235.445819 
L 398.747197 235.445819 
L 402.675045 237.13807 
L 406.602904 236.171073 
L 410.530763 235.445825 
L 414.458622 236.896316 
L 418.386459 236.654572 
L 422.314318 236.654565 
L 426.242156 236.654572 
L 430.170015 237.138066 
L 434.097852 236.412823 
L 438.025711 235.687574 
L 441.95357 237.13807 
L 445.881429 237.138066 
L 449.809267 236.654572 
L 453.737126 236.896321 
L 457.664984 237.621569 
L 461.592843 237.379817 
L 465.520681 237.37982 
L 469.44854 237.863318 
L 473.376399 237.13807 
L 477.304258 237.621568 
L 481.232095 237.37982 
L 485.159954 237.621569 
L 489.087813 237.13807 
L 493.015672 237.621568 
L 496.94351 237.621569 
L 500.871369 237.863318 
L 504.799227 237.621569 
L 508.727086 237.863318 
L 512.654924 237.863318 
L 516.582783 237.37982 
L 520.510642 237.863318 
L 524.438501 237.863318 
L 528.366338 237.863318 
L 532.294197 237.621569 
L 536.222056 237.621569 
L 540.149915 237.379817 
L 544.077753 237.37982 
L 548.005612 237.863318 
L 551.933449 237.863318 
L 555.861308 237.863318 
L 559.789167 237.863318 
L 563.717005 237.621569 
" clip-path="url(#pd0e296a009)" style="fill: none; stroke: #ff7f0e; stroke-width: 1.5; stroke-linecap: square"/>
   </g>
   <g id="line2d_14">
    <path d="M 173.283787 237.370077 
L 177.134059 237.863318 
L 180.984331 237.863318 
L 184.8346 236.876835 
L 188.684872 233.917385 
L 192.535144 228.738342 
L 196.385413 220.846483 
L 200.235685 198.157371 
L 204.085956 177.441222 
L 207.936228 161.410848 
L 211.786499 105.181306 
L 215.63677 113.319794 
L 219.487041 166.096651 
L 223.337312 228.738347 
L 227.187583 226.518759 
L 231.037854 228.984968 
L 234.888126 227.505245 
L 238.738397 229.97145 
L 242.588668 231.697796 
L 246.438938 225.778899 
L 250.28921 229.971453 
L 254.139482 230.957931 
L 257.989751 230.957936 
L 261.840023 230.218063 
L 265.690289 228.984969 
L 269.540561 232.19104 
L 273.390833 230.957936 
L 277.241105 232.437653 
L 281.091371 231.944419 
L 284.941643 232.19104 
L 288.791915 232.19104 
L 292.642187 232.191047 
L 296.492464 233.424144 
L 300.342736 228.984969 
L 304.193007 233.670765 
L 308.043279 233.91738 
L 311.893546 233.17753 
L 315.743823 234.410622 
L 319.594089 233.42415 
L 323.444366 232.684289 
L 327.294644 236.13697 
L 331.14491 231.697807 
L 334.995187 233.91738 
L 338.845454 235.397114 
L 342.695731 232.191032 
L 346.545997 236.136975 
L 350.396274 234.657244 
L 354.246541 236.136966 
L 358.096797 235.890349 
L 361.947063 235.890355 
L 365.79734 234.903865 
L 369.647607 236.136975 
L 373.497884 235.150486 
L 377.34815 236.383595 
L 381.198428 234.903865 
L 385.048694 235.890349 
L 388.898961 236.13697 
L 392.749227 235.150493 
L 396.599504 236.876836 
L 400.449781 236.876831 
L 404.300037 235.890355 
L 408.150314 236.383595 
L 412.000591 236.383595 
L 415.850868 236.876831 
L 419.701124 237.616698 
L 423.551401 236.876831 
L 427.401657 237.123457 
L 431.251934 236.876836 
L 435.102212 237.123457 
L 438.952489 237.123453 
L 442.802745 237.123457 
L 446.653022 237.123457 
L 450.503299 237.616698 
L 454.353576 237.123453 
L 458.203832 237.616698 
L 462.054109 237.370077 
L 465.904386 237.616698 
L 469.754663 237.616696 
L 473.604919 237.616698 
L 477.455196 237.863318 
L 481.305473 237.616698 
L 485.15575 237.370075 
L 489.006006 237.863318 
L 492.856283 237.616698 
L 496.70656 237.863318 
L 500.556838 237.616696 
L 504.407093 237.863318 
L 508.257371 237.863318 
L 512.107648 237.863318 
L 515.957925 237.863318 
L 519.808181 237.616698 
L 523.658458 237.616698 
L 527.508735 237.616698 
L 531.359012 237.863318 
L 535.209268 237.863318 
L 539.059545 237.616696 
L 542.909801 237.863318 
L 546.760078 237.863318 
L 550.610355 237.616696 
L 554.460611 237.616698 
" clip-path="url(#pd0e296a009)" style="fill: none; stroke: #2ca02c; stroke-width: 1.5; stroke-linecap: square"/>
   </g>
   <g id="line2d_15">
    <path d="M 187.66844 237.129834 
L 191.552192 236.39635 
L 195.435944 231.995444 
L 199.319696 226.372067 
L 203.203449 202.656068 
L 207.087201 165.737366 
L 210.970954 125.395742 
L 214.854707 85.543075 
L 218.738459 120.99482 
L 222.622211 227.350043 
L 226.505963 228.572518 
L 230.389716 226.616558 
L 234.273468 227.594538 
L 238.15722 225.883078 
L 242.040973 225.14959 
L 245.924726 226.372063 
L 249.808478 228.328022 
L 253.69223 229.550496 
L 257.575982 228.817011 
L 261.459734 228.572517 
L 265.343486 231.261964 
L 269.22724 232.239935 
L 273.11099 226.372071 
L 276.994744 230.52848 
L 280.878499 230.772975 
L 284.762254 232.973419 
L 288.646003 231.017469 
L 292.529758 233.951399 
L 296.413507 228.817018 
L 300.297262 232.239935 
L 304.181011 231.506458 
L 308.064766 229.794985 
L 311.948515 231.261954 
L 315.832265 234.195904 
L 319.716025 233.706904 
L 323.599774 232.484429 
L 327.483524 232.728925 
L 331.367273 233.217927 
L 335.251033 234.684884 
L 339.134782 234.684884 
L 343.018532 235.418369 
L 346.902281 235.66287 
L 350.786041 235.173874 
L 354.66979 235.907359 
L 358.55354 235.907359 
L 362.437289 234.684893 
L 366.321049 235.418369 
L 370.204799 236.396353 
L 374.088559 235.173874 
L 377.972308 236.640847 
L 381.856068 235.662864 
L 385.739817 235.907359 
L 389.623567 237.618823 
L 393.507316 237.37433 
L 397.391076 237.374327 
L 401.274815 236.396345 
L 405.158554 237.129835 
L 409.042314 237.129831 
L 412.926052 235.418375 
L 416.809812 237.129835 
L 420.693572 236.885336 
L 424.577311 237.129835 
L 428.461071 237.618823 
L 432.34481 237.618824 
L 436.22857 237.618824 
L 440.11233 236.885336 
L 443.996069 237.863318 
L 447.879829 237.129835 
L 451.763589 237.863318 
L 455.647327 237.863318 
L 459.531087 237.618823 
L 463.414826 237.863318 
L 467.298586 237.618824 
L 471.182346 236.885336 
L 475.066085 237.129835 
L 478.949845 237.863318 
L 482.833605 237.618823 
L 486.717344 237.618824 
L 490.601104 237.618823 
L 494.484842 237.618824 
L 498.368602 237.863318 
L 502.252362 237.863318 
L 506.136101 237.863318 
L 510.019861 237.863318 
L 513.903621 237.863318 
L 517.78736 237.863318 
L 521.67112 237.863318 
L 525.554859 237.863318 
L 529.438619 237.863318 
L 533.322379 237.863318 
L 537.206118 237.863318 
L 541.089878 237.863318 
L 544.973638 237.863318 
L 548.857376 237.863318 
L 552.741136 237.863318 
L 556.624875 237.863318 
L 560.508635 237.863318 
L 564.392395 237.863318 
L 568.276155 237.863318 
L 572.159894 237.618824 
" clip-path="url(#pd0e296a009)" style="fill: none; stroke: #d62728; stroke-width: 1.5; stroke-linecap: square"/>
   </g>
   <g id="line2d_16">
    <path d="M 184.683954 237.299401 
L 189.735533 236.735485 
L 194.787115 233.539955 
L 199.838694 221.321754 
L 204.890273 189.742405 
L 209.941852 138.989894 
L 214.993433 45.379682 
L 220.045012 171.133152 
L 225.096592 228.840648 
L 230.148172 227.33687 
L 235.199752 228.464704 
L 240.251332 227.900785 
L 245.302911 228.840646 
L 250.354491 227.336868 
L 255.40607 227.336874 
L 260.457652 229.592536 
L 265.509231 228.840651 
L 270.560813 231.472259 
L 275.612392 229.028619 
L 280.663971 232.600093 
L 285.71555 231.660231 
L 290.767129 231.848204 
L 295.818708 232.976038 
L 300.870287 233.351987 
L 305.921872 234.291848 
L 310.973456 236.171565 
L 316.02503 233.351987 
L 321.076615 235.79562 
L 326.128189 235.795625 
L 331.179773 234.479813 
L 336.231347 234.47982 
L 341.282931 235.04373 
L 346.334505 234.667792 
L 351.38609 235.983593 
L 356.437663 236.547513 
L 361.489248 235.79562 
L 366.540822 235.983597 
L 371.592406 237.111428 
L 376.64398 237.675346 
L 381.695565 236.54751 
L 386.747138 236.359541 
L 391.798723 236.923456 
L 396.850297 236.735485 
L 401.901881 237.11143 
L 406.953466 237.863318 
L 412.005029 237.487374 
L 417.056613 237.863318 
L 422.108198 237.863318 
L 427.159803 237.299402 
L 432.211388 237.487374 
L 437.262972 237.675345 
L 442.314536 237.675346 
L 447.36612 237.863318 
L 452.417705 237.11143 
L 457.469289 237.487372 
L 462.520852 237.863318 
L 467.572437 237.863318 
L 472.624021 237.675346 
L 477.675606 237.675345 
L 482.727169 237.675346 
L 487.778753 237.863318 
L 492.830338 237.675346 
L 497.881922 237.863318 
L 502.933485 237.863318 
L 507.98507 237.675346 
L 513.036654 237.863318 
L 518.088239 237.863318 
L 523.139802 237.863318 
L 528.191387 237.863318 
L 533.242971 237.863318 
L 538.294555 237.863318 
L 543.346119 237.863318 
L 548.397703 237.863318 
L 553.449288 237.863318 
L 558.500872 237.863318 
L 563.552435 237.863318 
L 568.60402 237.863318 
L 573.655604 237.863318 
L 578.707167 237.863318 
L 583.758773 237.863318 
L 588.810336 237.863318 
L 593.8619 237.863318 
L 598.913505 237.863318 
L 603.965069 237.863318 
L 609.016674 237.863318 
L 614.068237 237.863318 
L 619.119801 237.863318 
L 624.171406 237.863318 
L 629.22297 237.863318 
L 634.274533 237.863318 
L 639.326139 237.863318 
L 644.377702 237.863318 
L 649.429307 237.863318 
L 654.480871 237.863318 
L 659.532434 237.863318 
L 664.58404 237.863318 
L 669.635603 237.863318 
L 674.687209 237.863318 
L 679.738772 237.863318 
L 684.790377 237.675345 
" clip-path="url(#pd0e296a009)" style="fill: none; stroke: #9467bd; stroke-width: 1.5; stroke-linecap: square"/>
   </g>
   <g id="patch_3">
    <path d="M 20.5625 247.4875 
L 20.5625 35.7555 
" style="fill: none; stroke: #000000; stroke-width: 0.8; stroke-linejoin: miter; stroke-linecap: square"/>
   </g>
   <g id="patch_4">
    <path d="M 422.9725 247.4875 
L 422.9725 35.7555 
" style="fill: none; stroke: #000000; stroke-width: 0.8; stroke-linejoin: miter; stroke-linecap: square"/>
   </g>
   <g id="patch_5">
    <path d="M 20.5625 247.4875 
L 422.9725 247.4875 
" style="fill: none; stroke: #000000; stroke-width: 0.8; stroke-linejoin: miter; stroke-linecap: square"/>
   </g>
   <g id="patch_6">
    <path d="M 20.5625 35.7555 
L 422.9725 35.7555 
" style="fill: none; stroke: #000000; stroke-width: 0.8; stroke-linejoin: miter; stroke-linecap: square"/>
   </g>
   <g id="text_12">
    <!-- Activation histogram -->
    <g transform="translate(159.406875 16.318125) scale(0.12 -0.12)">
     <defs>
      <path id="DejaVuSans-41" d="M 2188 4044 
L 1331 1722 
L 3047 1722 
L 2188 4044 
z
M 1831 4666 
L 2547 4666 
L 4325 0 
L 3669 0 
L 3244 1197 
L 1141 1197 
L 716 0 
L 50 0 
L 1831 4666 
z
" transform="scale(0.015625)"/>
      <path id="DejaVuSans-63" d="M 3122 3366 
L 3122 2828 
Q 2878 2963 2633 3030 
Q 2388 3097 2138 3097 
Q 1578 3097 1268 2742 
Q 959 2388 959 1747 
Q 959 1106 1268 751 
Q 1578 397 2138 397 
Q 2388 397 2633 464 
Q 2878 531 3122 666 
L 3122 134 
Q 2881 22 2623 -34 
Q 2366 -91 2075 -91 
Q 1284 -91 818 406 
Q 353 903 353 1747 
Q 353 2603 823 3093 
Q 1294 3584 2113 3584 
Q 2378 3584 2631 3529 
Q 2884 3475 3122 3366 
z
" transform="scale(0.015625)"/>
      <path id="DejaVuSans-74" d="M 1172 4494 
L 1172 3500 
L 2356 3500 
L 2356 3053 
L 1172 3053 
L 1172 1153 
Q 1172 725 1289 603 
Q 1406 481 1766 481 
L 2356 481 
L 2356 0 
L 1766 0 
Q 1100 0 847 248 
Q 594 497 594 1153 
L 594 3053 
L 172 3053 
L 172 3500 
L 594 3500 
L 594 4494 
L 1172 4494 
z
" transform="scale(0.015625)"/>
      <path id="DejaVuSans-69" d="M 603 3500 
L 1178 3500 
L 1178 0 
L 603 0 
L 603 3500 
z
M 603 4863 
L 1178 4863 
L 1178 4134 
L 603 4134 
L 603 4863 
z
" transform="scale(0.015625)"/>
      <path id="DejaVuSans-76" d="M 191 3500 
L 800 3500 
L 1894 563 
L 2988 3500 
L 3597 3500 
L 2284 0 
L 1503 0 
L 191 3500 
z
" transform="scale(0.015625)"/>
      <path id="DejaVuSans-61" d="M 2194 1759 
Q 1497 1759 1228 1600 
Q 959 1441 959 1056 
Q 959 750 1161 570 
Q 1363 391 1709 391 
Q 2188 391 2477 730 
Q 2766 1069 2766 1631 
L 2766 1759 
L 2194 1759 
z
M 3341 1997 
L 3341 0 
L 2766 0 
L 2766 531 
Q 2569 213 2275 61 
Q 1981 -91 1556 -91 
Q 1019 -91 701 211 
Q 384 513 384 1019 
Q 384 1609 779 1909 
Q 1175 2209 1959 2209 
L 2766 2209 
L 2766 2266 
Q 2766 2663 2505 2880 
Q 2244 3097 1772 3097 
Q 1472 3097 1187 3025 
Q 903 2953 641 2809 
L 641 3341 
Q 956 3463 1253 3523 
Q 1550 3584 1831 3584 
Q 2591 3584 2966 3190 
Q 3341 2797 3341 1997 
z
" transform="scale(0.015625)"/>
      <path id="DejaVuSans-6f" d="M 1959 3097 
Q 1497 3097 1228 2736 
Q 959 2375 959 1747 
Q 959 1119 1226 758 
Q 1494 397 1959 397 
Q 2419 397 2687 759 
Q 2956 1122 2956 1747 
Q 2956 2369 2687 2733 
Q 2419 3097 1959 3097 
z
M 1959 3584 
Q 2709 3584 3137 3096 
Q 3566 2609 3566 1747 
Q 3566 888 3137 398 
Q 2709 -91 1959 -91 
Q 1206 -91 779 398 
Q 353 888 353 1747 
Q 353 2609 779 3096 
Q 1206 3584 1959 3584 
z
" transform="scale(0.015625)"/>
      <path id="DejaVuSans-6e" d="M 3513 2113 
L 3513 0 
L 2938 0 
L 2938 2094 
Q 2938 2591 2744 2837 
Q 2550 3084 2163 3084 
Q 1697 3084 1428 2787 
Q 1159 2491 1159 1978 
L 1159 0 
L 581 0 
L 581 3500 
L 1159 3500 
L 1159 2956 
Q 1366 3272 1645 3428 
Q 1925 3584 2291 3584 
Q 2894 3584 3203 3211 
Q 3513 2838 3513 2113 
z
" transform="scale(0.015625)"/>
      <path id="DejaVuSans-20" transform="scale(0.015625)"/>
      <path id="DejaVuSans-68" d="M 3513 2113 
L 3513 0 
L 2938 0 
L 2938 2094 
Q 2938 2591 2744 2837 
Q 2550 3084 2163 3084 
Q 1697 3084 1428 2787 
Q 1159 2491 1159 1978 
L 1159 0 
L 581 0 
L 581 4863 
L 1159 4863 
L 1159 2956 
Q 1366 3272 1645 3428 
Q 1925 3584 2291 3584 
Q 2894 3584 3203 3211 
Q 3513 2838 3513 2113 
z
" transform="scale(0.015625)"/>
      <path id="DejaVuSans-73" d="M 2834 3397 
L 2834 2853 
Q 2591 2978 2328 3040 
Q 2066 3103 1784 3103 
Q 1356 3103 1142 2972 
Q 928 2841 928 2578 
Q 928 2378 1081 2264 
Q 1234 2150 1697 2047 
L 1894 2003 
Q 2506 1872 2764 1633 
Q 3022 1394 3022 966 
Q 3022 478 2636 193 
Q 2250 -91 1575 -91 
Q 1294 -91 989 -36 
Q 684 19 347 128 
L 347 722 
Q 666 556 975 473 
Q 1284 391 1588 391 
Q 1994 391 2212 530 
Q 2431 669 2431 922 
Q 2431 1156 2273 1281 
Q 2116 1406 1581 1522 
L 1381 1569 
Q 847 1681 609 1914 
Q 372 2147 372 2553 
Q 372 3047 722 3315 
Q 1072 3584 1716 3584 
Q 2034 3584 2315 3537 
Q 2597 3491 2834 3397 
z
" transform="scale(0.015625)"/>
      <path id="DejaVuSans-67" d="M 2906 1791 
Q 2906 2416 2648 2759 
Q 2391 3103 1925 3103 
Q 1463 3103 1205 2759 
Q 947 2416 947 1791 
Q 947 1169 1205 825 
Q 1463 481 1925 481 
Q 2391 481 2648 825 
Q 2906 1169 2906 1791 
z
M 3481 434 
Q 3481 -459 3084 -895 
Q 2688 -1331 1869 -1331 
Q 1566 -1331 1297 -1286 
Q 1028 -1241 775 -1147 
L 775 -588 
Q 1028 -725 1275 -790 
Q 1522 -856 1778 -856 
Q 2344 -856 2625 -561 
Q 2906 -266 2906 331 
L 2906 616 
Q 2728 306 2450 153 
Q 2172 0 1784 0 
Q 1141 0 747 490 
Q 353 981 353 1791 
Q 353 2603 747 3093 
Q 1141 3584 1784 3584 
Q 2172 3584 2450 3431 
Q 2728 3278 2906 2969 
L 2906 3500 
L 3481 3500 
L 3481 434 
z
" transform="scale(0.015625)"/>
      <path id="DejaVuSans-72" d="M 2631 2963 
Q 2534 3019 2420 3045 
Q 2306 3072 2169 3072 
Q 1681 3072 1420 2755 
Q 1159 2438 1159 1844 
L 1159 0 
L 581 0 
L 581 3500 
L 1159 3500 
L 1159 2956 
Q 1341 3275 1631 3429 
Q 1922 3584 2338 3584 
Q 2397 3584 2469 3576 
Q 2541 3569 2628 3553 
L 2631 2963 
z
" transform="scale(0.015625)"/>
      <path id="DejaVuSans-6d" d="M 3328 2828 
Q 3544 3216 3844 3400 
Q 4144 3584 4550 3584 
Q 5097 3584 5394 3201 
Q 5691 2819 5691 2113 
L 5691 0 
L 5113 0 
L 5113 2094 
Q 5113 2597 4934 2840 
Q 4756 3084 4391 3084 
Q 3944 3084 3684 2787 
Q 3425 2491 3425 1978 
L 3425 0 
L 2847 0 
L 2847 2094 
Q 2847 2600 2669 2842 
Q 2491 3084 2119 3084 
Q 1678 3084 1418 2786 
Q 1159 2488 1159 1978 
L 1159 0 
L 581 0 
L 581 3500 
L 1159 3500 
L 1159 2956 
Q 1356 3278 1631 3431 
Q 1906 3584 2284 3584 
Q 2666 3584 2933 3390 
Q 3200 3197 3328 2828 
z
" transform="scale(0.015625)"/>
     </defs>
     <use xlink:href="#DejaVuSans-41"/>
     <use xlink:href="#DejaVuSans-63" x="66.658203"/>
     <use xlink:href="#DejaVuSans-74" x="121.638672"/>
     <use xlink:href="#DejaVuSans-69" x="160.847656"/>
     <use xlink:href="#DejaVuSans-76" x="188.630859"/>
     <use xlink:href="#DejaVuSans-61" x="247.810547"/>
     <use xlink:href="#DejaVuSans-74" x="309.089844"/>
     <use xlink:href="#DejaVuSans-69" x="348.298828"/>
     <use xlink:href="#DejaVuSans-6f" x="376.082031"/>
     <use xlink:href="#DejaVuSans-6e" x="437.263672"/>
     <use xlink:href="#DejaVuSans-20" x="500.642578"/>
     <use xlink:href="#DejaVuSans-68" x="532.429688"/>
     <use xlink:href="#DejaVuSans-69" x="595.808594"/>
     <use xlink:href="#DejaVuSans-73" x="623.591797"/>
     <use xlink:href="#DejaVuSans-74" x="675.691406"/>
     <use xlink:href="#DejaVuSans-6f" x="714.900391"/>
     <use xlink:href="#DejaVuSans-67" x="776.082031"/>
     <use xlink:href="#DejaVuSans-72" x="839.558594"/>
     <use xlink:href="#DejaVuSans-61" x="880.671875"/>
     <use xlink:href="#DejaVuSans-6d" x="941.951172"/>
    </g>
    <!-- gain=1.41, BN=False, act=LReLU, n_hidden=4, lr=1e-01 -->
    <g transform="translate(51.047813 29.7555) scale(0.12 -0.12)">
     <defs>
      <path id="DejaVuSans-3d" d="M 678 2906 
L 4684 2906 
L 4684 2381 
L 678 2381 
L 678 2906 
z
M 678 1631 
L 4684 1631 
L 4684 1100 
L 678 1100 
L 678 1631 
z
" transform="scale(0.015625)"/>
      <path id="DejaVuSans-2e" d="M 684 794 
L 1344 794 
L 1344 0 
L 684 0 
L 684 794 
z
" transform="scale(0.015625)"/>
      <path id="DejaVuSans-2c" d="M 750 794 
L 1409 794 
L 1409 256 
L 897 -744 
L 494 -744 
L 750 256 
L 750 794 
z
" transform="scale(0.015625)"/>
      <path id="DejaVuSans-42" d="M 1259 2228 
L 1259 519 
L 2272 519 
Q 2781 519 3026 730 
Q 3272 941 3272 1375 
Q 3272 1813 3026 2020 
Q 2781 2228 2272 2228 
L 1259 2228 
z
M 1259 4147 
L 1259 2741 
L 2194 2741 
Q 2656 2741 2882 2914 
Q 3109 3088 3109 3444 
Q 3109 3797 2882 3972 
Q 2656 4147 2194 4147 
L 1259 4147 
z
M 628 4666 
L 2241 4666 
Q 2963 4666 3353 4366 
Q 3744 4066 3744 3513 
Q 3744 3084 3544 2831 
Q 3344 2578 2956 2516 
Q 3422 2416 3680 2098 
Q 3938 1781 3938 1306 
Q 3938 681 3513 340 
Q 3088 0 2303 0 
L 628 0 
L 628 4666 
z
" transform="scale(0.015625)"/>
      <path id="DejaVuSans-4e" d="M 628 4666 
L 1478 4666 
L 3547 763 
L 3547 4666 
L 4159 4666 
L 4159 0 
L 3309 0 
L 1241 3903 
L 1241 0 
L 628 0 
L 628 4666 
z
" transform="scale(0.015625)"/>
      <path id="DejaVuSans-46" d="M 628 4666 
L 3309 4666 
L 3309 4134 
L 1259 4134 
L 1259 2759 
L 3109 2759 
L 3109 2228 
L 1259 2228 
L 1259 0 
L 628 0 
L 628 4666 
z
" transform="scale(0.015625)"/>
      <path id="DejaVuSans-6c" d="M 603 4863 
L 1178 4863 
L 1178 0 
L 603 0 
L 603 4863 
z
" transform="scale(0.015625)"/>
      <path id="DejaVuSans-65" d="M 3597 1894 
L 3597 1613 
L 953 1613 
Q 991 1019 1311 708 
Q 1631 397 2203 397 
Q 2534 397 2845 478 
Q 3156 559 3463 722 
L 3463 178 
Q 3153 47 2828 -22 
Q 2503 -91 2169 -91 
Q 1331 -91 842 396 
Q 353 884 353 1716 
Q 353 2575 817 3079 
Q 1281 3584 2069 3584 
Q 2775 3584 3186 3129 
Q 3597 2675 3597 1894 
z
M 3022 2063 
Q 3016 2534 2758 2815 
Q 2500 3097 2075 3097 
Q 1594 3097 1305 2825 
Q 1016 2553 972 2059 
L 3022 2063 
z
" transform="scale(0.015625)"/>
      <path id="DejaVuSans-4c" d="M 628 4666 
L 1259 4666 
L 1259 531 
L 3531 531 
L 3531 0 
L 628 0 
L 628 4666 
z
" transform="scale(0.015625)"/>
      <path id="DejaVuSans-52" d="M 2841 2188 
Q 3044 2119 3236 1894 
Q 3428 1669 3622 1275 
L 4263 0 
L 3584 0 
L 2988 1197 
Q 2756 1666 2539 1819 
Q 2322 1972 1947 1972 
L 1259 1972 
L 1259 0 
L 628 0 
L 628 4666 
L 2053 4666 
Q 2853 4666 3247 4331 
Q 3641 3997 3641 3322 
Q 3641 2881 3436 2590 
Q 3231 2300 2841 2188 
z
M 1259 4147 
L 1259 2491 
L 2053 2491 
Q 2509 2491 2742 2702 
Q 2975 2913 2975 3322 
Q 2975 3731 2742 3939 
Q 2509 4147 2053 4147 
L 1259 4147 
z
" transform="scale(0.015625)"/>
      <path id="DejaVuSans-55" d="M 556 4666 
L 1191 4666 
L 1191 1831 
Q 1191 1081 1462 751 
Q 1734 422 2344 422 
Q 2950 422 3222 751 
Q 3494 1081 3494 1831 
L 3494 4666 
L 4128 4666 
L 4128 1753 
Q 4128 841 3676 375 
Q 3225 -91 2344 -91 
Q 1459 -91 1007 375 
Q 556 841 556 1753 
L 556 4666 
z
" transform="scale(0.015625)"/>
      <path id="DejaVuSans-5f" d="M 3263 -1063 
L 3263 -1509 
L -63 -1509 
L -63 -1063 
L 3263 -1063 
z
" transform="scale(0.015625)"/>
      <path id="DejaVuSans-64" d="M 2906 2969 
L 2906 4863 
L 3481 4863 
L 3481 0 
L 2906 0 
L 2906 525 
Q 2725 213 2448 61 
Q 2172 -91 1784 -91 
Q 1150 -91 751 415 
Q 353 922 353 1747 
Q 353 2572 751 3078 
Q 1150 3584 1784 3584 
Q 2172 3584 2448 3432 
Q 2725 3281 2906 2969 
z
M 947 1747 
Q 947 1113 1208 752 
Q 1469 391 1925 391 
Q 2381 391 2643 752 
Q 2906 1113 2906 1747 
Q 2906 2381 2643 2742 
Q 2381 3103 1925 3103 
Q 1469 3103 1208 2742 
Q 947 2381 947 1747 
z
" transform="scale(0.015625)"/>
      <path id="DejaVuSans-2d" d="M 313 2009 
L 1997 2009 
L 1997 1497 
L 313 1497 
L 313 2009 
z
" transform="scale(0.015625)"/>
     </defs>
     <use xlink:href="#DejaVuSans-67"/>
     <use xlink:href="#DejaVuSans-61" x="63.476562"/>
     <use xlink:href="#DejaVuSans-69" x="124.755859"/>
     <use xlink:href="#DejaVuSans-6e" x="152.539062"/>
     <use xlink:href="#DejaVuSans-3d" x="215.917969"/>
     <use xlink:href="#DejaVuSans-31" x="299.707031"/>
     <use xlink:href="#DejaVuSans-2e" x="363.330078"/>
     <use xlink:href="#DejaVuSans-34" x="395.117188"/>
     <use xlink:href="#DejaVuSans-31" x="458.740234"/>
     <use xlink:href="#DejaVuSans-2c" x="522.363281"/>
     <use xlink:href="#DejaVuSans-20" x="554.150391"/>
     <use xlink:href="#DejaVuSans-42" x="585.9375"/>
     <use xlink:href="#DejaVuSans-4e" x="654.541016"/>
     <use xlink:href="#DejaVuSans-3d" x="729.345703"/>
     <use xlink:href="#DejaVuSans-46" x="813.134766"/>
     <use xlink:href="#DejaVuSans-61" x="861.529297"/>
     <use xlink:href="#DejaVuSans-6c" x="922.808594"/>
     <use xlink:href="#DejaVuSans-73" x="950.591797"/>
     <use xlink:href="#DejaVuSans-65" x="1002.691406"/>
     <use xlink:href="#DejaVuSans-2c" x="1064.214844"/>
     <use xlink:href="#DejaVuSans-20" x="1096.001953"/>
     <use xlink:href="#DejaVuSans-61" x="1127.789062"/>
     <use xlink:href="#DejaVuSans-63" x="1189.068359"/>
     <use xlink:href="#DejaVuSans-74" x="1244.048828"/>
     <use xlink:href="#DejaVuSans-3d" x="1283.257812"/>
     <use xlink:href="#DejaVuSans-4c" x="1367.046875"/>
     <use xlink:href="#DejaVuSans-52" x="1422.759766"/>
     <use xlink:href="#DejaVuSans-65" x="1487.742188"/>
     <use xlink:href="#DejaVuSans-4c" x="1549.265625"/>
     <use xlink:href="#DejaVuSans-55" x="1599.978516"/>
     <use xlink:href="#DejaVuSans-2c" x="1673.171875"/>
     <use xlink:href="#DejaVuSans-20" x="1704.958984"/>
     <use xlink:href="#DejaVuSans-6e" x="1736.746094"/>
     <use xlink:href="#DejaVuSans-5f" x="1800.125"/>
     <use xlink:href="#DejaVuSans-68" x="1850.125"/>
     <use xlink:href="#DejaVuSans-69" x="1913.503906"/>
     <use xlink:href="#DejaVuSans-64" x="1941.287109"/>
     <use xlink:href="#DejaVuSans-64" x="2004.763672"/>
     <use xlink:href="#DejaVuSans-65" x="2068.240234"/>
     <use xlink:href="#DejaVuSans-6e" x="2129.763672"/>
     <use xlink:href="#DejaVuSans-3d" x="2193.142578"/>
     <use xlink:href="#DejaVuSans-34" x="2276.931641"/>
     <use xlink:href="#DejaVuSans-2c" x="2340.554688"/>
     <use xlink:href="#DejaVuSans-20" x="2372.341797"/>
     <use xlink:href="#DejaVuSans-6c" x="2404.128906"/>
     <use xlink:href="#DejaVuSans-72" x="2431.912109"/>
     <use xlink:href="#DejaVuSans-3d" x="2473.025391"/>
     <use xlink:href="#DejaVuSans-31" x="2556.814453"/>
     <use xlink:href="#DejaVuSans-65" x="2620.4375"/>
     <use xlink:href="#DejaVuSans-2d" x="2681.960938"/>
     <use xlink:href="#DejaVuSans-30" x="2718.044922"/>
     <use xlink:href="#DejaVuSans-31" x="2781.667969"/>
    </g>
   </g>
   <g id="legend_1">
    <g id="patch_7">
     <path d="M 337.455312 117.146125 
L 415.9725 117.146125 
Q 417.9725 117.146125 417.9725 115.146125 
L 417.9725 42.7555 
Q 417.9725 40.7555 415.9725 40.7555 
L 337.455312 40.7555 
Q 335.455312 40.7555 335.455312 42.7555 
L 335.455312 115.146125 
Q 335.455312 117.146125 337.455312 117.146125 
z
" style="fill: #ffffff; opacity: 0.8; stroke: #cccccc; stroke-linejoin: miter"/>
    </g>
    <g id="line2d_17">
     <path d="M 339.455312 48.853937 
L 349.455312 48.853937 
L 359.455312 48.853937 
" style="fill: none; stroke: #1f77b4; stroke-width: 1.5; stroke-linecap: square"/>
    </g>
    <g id="text_13">
     <!-- LReLU.2 -->
     <g transform="translate(367.455312 52.353937) scale(0.1 -0.1)">
      <use xlink:href="#DejaVuSans-4c"/>
      <use xlink:href="#DejaVuSans-52" x="55.712891"/>
      <use xlink:href="#DejaVuSans-65" x="120.695312"/>
      <use xlink:href="#DejaVuSans-4c" x="182.21875"/>
      <use xlink:href="#DejaVuSans-55" x="232.931641"/>
      <use xlink:href="#DejaVuSans-2e" x="306.125"/>
      <use xlink:href="#DejaVuSans-32" x="337.912109"/>
     </g>
    </g>
    <g id="line2d_18">
     <path d="M 339.455312 63.532062 
L 349.455312 63.532062 
L 359.455312 63.532062 
" style="fill: none; stroke: #ff7f0e; stroke-width: 1.5; stroke-linecap: square"/>
    </g>
    <g id="text_14">
     <!-- LReLU.4 -->
     <g transform="translate(367.455312 67.032062) scale(0.1 -0.1)">
      <use xlink:href="#DejaVuSans-4c"/>
      <use xlink:href="#DejaVuSans-52" x="55.712891"/>
      <use xlink:href="#DejaVuSans-65" x="120.695312"/>
      <use xlink:href="#DejaVuSans-4c" x="182.21875"/>
      <use xlink:href="#DejaVuSans-55" x="232.931641"/>
      <use xlink:href="#DejaVuSans-2e" x="306.125"/>
      <use xlink:href="#DejaVuSans-34" x="337.912109"/>
     </g>
    </g>
    <g id="line2d_19">
     <path d="M 339.455312 78.210187 
L 349.455312 78.210187 
L 359.455312 78.210187 
" style="fill: none; stroke: #2ca02c; stroke-width: 1.5; stroke-linecap: square"/>
    </g>
    <g id="text_15">
     <!-- LReLU.6 -->
     <g transform="translate(367.455312 81.710187) scale(0.1 -0.1)">
      <defs>
       <path id="DejaVuSans-36" d="M 2113 2584 
Q 1688 2584 1439 2293 
Q 1191 2003 1191 1497 
Q 1191 994 1439 701 
Q 1688 409 2113 409 
Q 2538 409 2786 701 
Q 3034 994 3034 1497 
Q 3034 2003 2786 2293 
Q 2538 2584 2113 2584 
z
M 3366 4563 
L 3366 3988 
Q 3128 4100 2886 4159 
Q 2644 4219 2406 4219 
Q 1781 4219 1451 3797 
Q 1122 3375 1075 2522 
Q 1259 2794 1537 2939 
Q 1816 3084 2150 3084 
Q 2853 3084 3261 2657 
Q 3669 2231 3669 1497 
Q 3669 778 3244 343 
Q 2819 -91 2113 -91 
Q 1303 -91 875 529 
Q 447 1150 447 2328 
Q 447 3434 972 4092 
Q 1497 4750 2381 4750 
Q 2619 4750 2861 4703 
Q 3103 4656 3366 4563 
z
" transform="scale(0.015625)"/>
      </defs>
      <use xlink:href="#DejaVuSans-4c"/>
      <use xlink:href="#DejaVuSans-52" x="55.712891"/>
      <use xlink:href="#DejaVuSans-65" x="120.695312"/>
      <use xlink:href="#DejaVuSans-4c" x="182.21875"/>
      <use xlink:href="#DejaVuSans-55" x="232.931641"/>
      <use xlink:href="#DejaVuSans-2e" x="306.125"/>
      <use xlink:href="#DejaVuSans-36" x="337.912109"/>
     </g>
    </g>
    <g id="line2d_20">
     <path d="M 339.455312 92.888312 
L 349.455312 92.888312 
L 359.455312 92.888312 
" style="fill: none; stroke: #d62728; stroke-width: 1.5; stroke-linecap: square"/>
    </g>
    <g id="text_16">
     <!-- LReLU.8 -->
     <g transform="translate(367.455312 96.388312) scale(0.1 -0.1)">
      <defs>
       <path id="DejaVuSans-38" d="M 2034 2216 
Q 1584 2216 1326 1975 
Q 1069 1734 1069 1313 
Q 1069 891 1326 650 
Q 1584 409 2034 409 
Q 2484 409 2743 651 
Q 3003 894 3003 1313 
Q 3003 1734 2745 1975 
Q 2488 2216 2034 2216 
z
M 1403 2484 
Q 997 2584 770 2862 
Q 544 3141 544 3541 
Q 544 4100 942 4425 
Q 1341 4750 2034 4750 
Q 2731 4750 3128 4425 
Q 3525 4100 3525 3541 
Q 3525 3141 3298 2862 
Q 3072 2584 2669 2484 
Q 3125 2378 3379 2068 
Q 3634 1759 3634 1313 
Q 3634 634 3220 271 
Q 2806 -91 2034 -91 
Q 1263 -91 848 271 
Q 434 634 434 1313 
Q 434 1759 690 2068 
Q 947 2378 1403 2484 
z
M 1172 3481 
Q 1172 3119 1398 2916 
Q 1625 2713 2034 2713 
Q 2441 2713 2670 2916 
Q 2900 3119 2900 3481 
Q 2900 3844 2670 4047 
Q 2441 4250 2034 4250 
Q 1625 4250 1398 4047 
Q 1172 3844 1172 3481 
z
" transform="scale(0.015625)"/>
      </defs>
      <use xlink:href="#DejaVuSans-4c"/>
      <use xlink:href="#DejaVuSans-52" x="55.712891"/>
      <use xlink:href="#DejaVuSans-65" x="120.695312"/>
      <use xlink:href="#DejaVuSans-4c" x="182.21875"/>
      <use xlink:href="#DejaVuSans-55" x="232.931641"/>
      <use xlink:href="#DejaVuSans-2e" x="306.125"/>
      <use xlink:href="#DejaVuSans-38" x="337.912109"/>
     </g>
    </g>
    <g id="line2d_21">
     <path d="M 339.455312 107.566437 
L 349.455312 107.566437 
L 359.455312 107.566437 
" style="fill: none; stroke: #9467bd; stroke-width: 1.5; stroke-linecap: square"/>
    </g>
    <g id="text_17">
     <!-- LReLU.10 -->
     <g transform="translate(367.455312 111.066437) scale(0.1 -0.1)">
      <use xlink:href="#DejaVuSans-4c"/>
      <use xlink:href="#DejaVuSans-52" x="55.712891"/>
      <use xlink:href="#DejaVuSans-65" x="120.695312"/>
      <use xlink:href="#DejaVuSans-4c" x="182.21875"/>
      <use xlink:href="#DejaVuSans-55" x="232.931641"/>
      <use xlink:href="#DejaVuSans-2e" x="306.125"/>
      <use xlink:href="#DejaVuSans-31" x="337.912109"/>
      <use xlink:href="#DejaVuSans-30" x="401.535156"/>
     </g>
    </g>
   </g>
  </g>
  <g id="axes_2">
   <g id="patch_8">
    <path d="M 447.1625 247.4875 
L 849.5725 247.4875 
L 849.5725 35.7555 
L 447.1625 35.7555 
z
" style="fill: #ffffff"/>
   </g>
   <g id="matplotlib.axis_3">
    <g id="xtick_6">
     <g id="line2d_22">
      <g>
       <use xlink:href="#me0f7a496db" x="492.25934" y="247.4875" style="stroke: #000000; stroke-width: 0.8"/>
      </g>
     </g>
     <g id="text_18">
      <!-- −1.5 -->
      <g transform="translate(480.117934 262.085938) scale(0.1 -0.1)">
       <use xlink:href="#DejaVuSans-2212"/>
       <use xlink:href="#DejaVuSans-31" x="83.789062"/>
       <use xlink:href="#DejaVuSans-2e" x="147.412109"/>
       <use xlink:href="#DejaVuSans-35" x="179.199219"/>
      </g>
     </g>
    </g>
    <g id="xtick_7">
     <g id="line2d_23">
      <g>
       <use xlink:href="#me0f7a496db" x="544.295393" y="247.4875" style="stroke: #000000; stroke-width: 0.8"/>
      </g>
     </g>
     <g id="text_19">
      <!-- −1.0 -->
      <g transform="translate(532.153987 262.085938) scale(0.1 -0.1)">
       <use xlink:href="#DejaVuSans-2212"/>
       <use xlink:href="#DejaVuSans-31" x="83.789062"/>
       <use xlink:href="#DejaVuSans-2e" x="147.412109"/>
       <use xlink:href="#DejaVuSans-30" x="179.199219"/>
      </g>
     </g>
    </g>
    <g id="xtick_8">
     <g id="line2d_24">
      <g>
       <use xlink:href="#me0f7a496db" x="596.331447" y="247.4875" style="stroke: #000000; stroke-width: 0.8"/>
      </g>
     </g>
     <g id="text_20">
      <!-- −0.5 -->
      <g transform="translate(584.19004 262.085938) scale(0.1 -0.1)">
       <use xlink:href="#DejaVuSans-2212"/>
       <use xlink:href="#DejaVuSans-30" x="83.789062"/>
       <use xlink:href="#DejaVuSans-2e" x="147.412109"/>
       <use xlink:href="#DejaVuSans-35" x="179.199219"/>
      </g>
     </g>
    </g>
    <g id="xtick_9">
     <g id="line2d_25">
      <g>
       <use xlink:href="#me0f7a496db" x="648.3675" y="247.4875" style="stroke: #000000; stroke-width: 0.8"/>
      </g>
     </g>
     <g id="text_21">
      <!-- 0.0 -->
      <g transform="translate(640.415937 262.085938) scale(0.1 -0.1)">
       <use xlink:href="#DejaVuSans-30"/>
       <use xlink:href="#DejaVuSans-2e" x="63.623047"/>
       <use xlink:href="#DejaVuSans-30" x="95.410156"/>
      </g>
     </g>
    </g>
    <g id="xtick_10">
     <g id="line2d_26">
      <g>
       <use xlink:href="#me0f7a496db" x="700.403553" y="247.4875" style="stroke: #000000; stroke-width: 0.8"/>
      </g>
     </g>
     <g id="text_22">
      <!-- 0.5 -->
      <g transform="translate(692.451991 262.085938) scale(0.1 -0.1)">
       <use xlink:href="#DejaVuSans-30"/>
       <use xlink:href="#DejaVuSans-2e" x="63.623047"/>
       <use xlink:href="#DejaVuSans-35" x="95.410156"/>
      </g>
     </g>
    </g>
    <g id="xtick_11">
     <g id="line2d_27">
      <g>
       <use xlink:href="#me0f7a496db" x="752.439607" y="247.4875" style="stroke: #000000; stroke-width: 0.8"/>
      </g>
     </g>
     <g id="text_23">
      <!-- 1.0 -->
      <g transform="translate(744.488044 262.085938) scale(0.1 -0.1)">
       <use xlink:href="#DejaVuSans-31"/>
       <use xlink:href="#DejaVuSans-2e" x="63.623047"/>
       <use xlink:href="#DejaVuSans-30" x="95.410156"/>
      </g>
     </g>
    </g>
    <g id="xtick_12">
     <g id="line2d_28">
      <g>
       <use xlink:href="#me0f7a496db" x="804.47566" y="247.4875" style="stroke: #000000; stroke-width: 0.8"/>
      </g>
     </g>
     <g id="text_24">
      <!-- 1.5 -->
      <g transform="translate(796.524097 262.085938) scale(0.1 -0.1)">
       <use xlink:href="#DejaVuSans-31"/>
       <use xlink:href="#DejaVuSans-2e" x="63.623047"/>
       <use xlink:href="#DejaVuSans-35" x="95.410156"/>
      </g>
     </g>
    </g>
   </g>
   <g id="matplotlib.axis_4">
    <g id="ytick_7">
     <g id="line2d_29">
      <g>
       <use xlink:href="#mee1a61d2f7" x="447.1625" y="237.863318" style="stroke: #000000; stroke-width: 0.8"/>
      </g>
     </g>
     <g id="text_25">
      <!-- 0 -->
      <g transform="translate(433.8 241.662537) scale(0.1 -0.1)">
       <use xlink:href="#DejaVuSans-30"/>
      </g>
     </g>
    </g>
    <g id="ytick_8">
     <g id="line2d_30">
      <g>
       <use xlink:href="#mee1a61d2f7" x="447.1625" y="195.167595" style="stroke: #000000; stroke-width: 0.8"/>
      </g>
     </g>
     <g id="text_26">
      <!-- 1 -->
      <g transform="translate(433.8 198.966814) scale(0.1 -0.1)">
       <use xlink:href="#DejaVuSans-31"/>
      </g>
     </g>
    </g>
    <g id="ytick_9">
     <g id="line2d_31">
      <g>
       <use xlink:href="#mee1a61d2f7" x="447.1625" y="152.471871" style="stroke: #000000; stroke-width: 0.8"/>
      </g>
     </g>
     <g id="text_27">
      <!-- 2 -->
      <g transform="translate(433.8 156.27109) scale(0.1 -0.1)">
       <use xlink:href="#DejaVuSans-32"/>
      </g>
     </g>
    </g>
    <g id="ytick_10">
     <g id="line2d_32">
      <g>
       <use xlink:href="#mee1a61d2f7" x="447.1625" y="109.776148" style="stroke: #000000; stroke-width: 0.8"/>
      </g>
     </g>
     <g id="text_28">
      <!-- 3 -->
      <g transform="translate(433.8 113.575367) scale(0.1 -0.1)">
       <use xlink:href="#DejaVuSans-33"/>
      </g>
     </g>
    </g>
    <g id="ytick_11">
     <g id="line2d_33">
      <g>
       <use xlink:href="#mee1a61d2f7" x="447.1625" y="67.080424" style="stroke: #000000; stroke-width: 0.8"/>
      </g>
     </g>
     <g id="text_29">
      <!-- 4 -->
      <g transform="translate(433.8 70.879643) scale(0.1 -0.1)">
       <use xlink:href="#DejaVuSans-34"/>
      </g>
     </g>
    </g>
   </g>
   <g id="line2d_34">
    <path d="M 604.517595 237.479667 
L 608.136959 237.863318 
L 611.756326 237.479667 
L 615.37569 233.643156 
L 618.995054 232.492206 
L 622.614421 225.970132 
L 626.233784 216.378863 
L 629.85315 196.045359 
L 633.472515 163.051372 
L 637.09188 105.503699 
L 640.711245 108.572926 
L 644.33061 76.729895 
L 647.949975 203.718377 
L 651.56934 224.819183 
L 655.188705 212.542347 
L 658.808069 227.888393 
L 662.427435 216.762513 
L 666.0468 219.448071 
L 669.666165 222.900923 
L 673.285529 226.737435 
L 676.904893 224.43554 
L 680.52426 229.806644 
L 684.143623 215.99522 
L 687.76299 223.668214 
L 691.382351 229.039341 
L 695.001715 227.121095 
L 698.621082 219.831714 
L 702.240445 214.844247 
L 705.859809 221.366319 
L 709.479173 222.133648 
L 713.098543 218.680761 
L 716.717907 214.076986 
L 720.337277 218.680761 
L 723.956641 217.913459 
L 727.576004 227.888406 
L 731.195374 226.737435 
L 734.814738 228.655691 
L 738.434102 223.668225 
L 742.053466 219.448063 
L 745.672829 230.190308 
L 749.292199 226.353803 
L 752.911569 230.573934 
L 756.530927 225.586503 
L 760.150297 230.190282 
L 763.769655 230.190308 
L 767.389025 229.423008 
L 771.008395 227.121068 
L 774.627752 227.504719 
L 778.24711 228.655706 
L 781.86648 230.190282 
L 785.485837 231.341259 
L 789.105207 233.259496 
L 792.724565 230.573959 
L 796.343935 232.492212 
L 799.963305 231.724889 
L 803.582662 235.945066 
L 807.202032 235.177765 
L 810.821402 233.259496 
L 814.44076 235.177765 
L 818.06013 234.0268 
L 821.679487 234.410464 
L 825.298857 234.410464 
L 828.918227 235.177756 
L 832.537585 235.561415 
L 836.156955 234.026813 
L 839.776325 235.177756 
L 843.395683 234.794114 
L 847.015053 235.945059 
L 850.63441 236.712367 
L 854.25378 233.259496 
L 857.7725 236.24338 
" clip-path="url(#pf8b32472db)" style="fill: none; stroke: #1f77b4; stroke-width: 1.5; stroke-linecap: square"/>
   </g>
   <g id="line2d_35">
    <path d="M 615.159447 235.446583 
L 619.181406 231.994109 
L 623.203369 218.529436 
L 627.225329 210.588744 
L 631.24729 187.111896 
L 635.269251 134.979468 
L 639.291211 105.288169 
L 643.313172 76.63259 
L 647.335133 182.623668 
L 651.357093 220.25568 
L 655.379054 221.981917 
L 659.401014 225.779646 
L 663.422975 225.089151 
L 667.444936 218.529436 
L 671.466896 223.708166 
L 675.488859 223.017658 
L 679.510818 221.636667 
L 683.532778 224.743908 
L 687.55474 217.493693 
L 691.5767 217.838956 
L 695.598662 216.457948 
L 699.620622 224.053402 
L 703.642581 213.350736 
L 707.664544 214.73169 
L 711.686501 216.803212 
L 715.708463 231.303603 
L 719.73042 219.565194 
L 723.752382 225.779651 
L 727.774345 220.946158 
L 731.796301 221.291432 
L 735.818264 233.375099 
L 739.840227 220.946183 
L 743.862189 229.922622 
L 747.884152 230.267858 
L 751.906108 229.922635 
L 755.928077 227.505873 
L 759.950033 227.505873 
L 763.97199 232.339364 
L 767.993959 230.613107 
L 772.015915 230.613107 
L 776.037872 232.684596 
L 780.059828 228.886894 
L 784.081797 231.994099 
L 788.103753 228.196369 
L 792.12571 231.994117 
L 796.147679 236.482326 
L 800.169635 231.648851 
L 804.191591 234.410837 
L 808.213548 232.684596 
L 812.235504 233.375106 
L 816.257473 233.72034 
L 820.27943 234.756084 
L 824.301386 233.375106 
L 828.323355 235.101333 
L 832.345311 233.72034 
L 836.367268 235.791836 
L 840.389236 236.827574 
L 844.411193 236.48233 
L 848.433162 236.137077 
L 852.455118 236.482326 
L 856.477075 235.101341 
L 857.7725 235.323741 
" clip-path="url(#pf8b32472db)" style="fill: none; stroke: #ff7f0e; stroke-width: 1.5; stroke-linecap: square"/>
   </g>
   <g id="line2d_36">
    <path d="M 615.44479 236.447997 
L 619.369195 232.202035 
L 623.293601 226.186921 
L 627.218006 207.08009 
L 631.142411 174.173881 
L 635.066816 151.528745 
L 638.991221 102.346358 
L 642.915627 45.379682 
L 646.840032 174.173881 
L 650.764437 218.756486 
L 654.688842 223.71011 
L 658.613247 227.248412 
L 662.537653 217.694997 
L 666.462058 219.110319 
L 670.386463 222.294789 
L 674.310868 220.525638 
L 678.235273 221.233299 
L 682.159679 224.41777 
L 686.084084 223.35628 
L 690.008489 224.41777 
L 693.932894 225.833091 
L 697.857299 226.894573 
L 701.781702 220.525638 
L 705.706107 221.233299 
L 709.630512 223.002451 
L 713.554917 222.294789 
L 717.479322 225.833091 
L 721.403728 226.540753 
L 725.328133 220.879468 
L 729.252538 224.063941 
L 733.176943 222.294789 
L 737.101348 231.848205 
L 741.025754 231.494374 
L 744.950159 229.725223 
L 748.874564 230.786714 
L 752.798969 228.663733 
L 756.723374 233.617356 
L 760.64778 222.648619 
L 764.572185 226.186921 
L 768.49659 224.41777 
L 772.420995 232.202035 
L 776.3454 227.248412 
L 780.269806 229.017563 
L 784.194211 231.140544 
L 788.118616 232.555865 
L 792.043021 230.786714 
L 795.967427 233.971186 
L 799.891832 233.263526 
L 803.816237 231.494374 
L 807.740642 233.971186 
L 811.665047 233.971186 
L 815.589453 233.971186 
L 819.513858 233.263526 
L 823.438263 235.386507 
L 827.362668 234.325016 
L 831.287073 235.740337 
L 835.211479 234.678846 
L 839.135884 234.325016 
L 843.060289 236.094167 
L 846.984694 234.678846 
L 850.909099 237.155658 
L 854.833505 236.801828 
L 857.7725 236.271859 
" clip-path="url(#pf8b32472db)" style="fill: none; stroke: #2ca02c; stroke-width: 1.5; stroke-linecap: square"/>
   </g>
   <g id="line2d_37">
    <path d="M 607.262156 237.523953 
L 611.353833 237.863318 
L 615.445507 237.523953 
L 619.537184 232.433472 
L 623.628859 225.306798 
L 627.720535 206.981077 
L 631.812212 180.171198 
L 635.903887 123.497186 
L 639.995563 74.628581 
L 644.087239 68.18064 
L 648.178915 216.822666 
L 652.270591 224.288704 
L 656.362267 220.555683 
L 660.453942 218.180133 
L 664.545619 218.858856 
L 668.637295 220.216318 
L 672.72897 223.949342 
L 676.820647 231.415374 
L 680.912321 225.306803 
L 685.003998 218.180133 
L 689.095675 228.021718 
L 693.187349 222.931247 
L 697.279027 226.664264 
L 701.370704 218.519512 
L 705.462384 224.967429 
L 709.554058 224.288718 
L 713.645738 216.483289 
L 717.737412 227.682352 
L 721.829086 220.895067 
L 725.920766 229.37918 
L 730.01244 227.003621 
L 734.104114 225.306794 
L 738.195788 225.306794 
L 742.287462 229.039828 
L 746.379142 229.039815 
L 750.470816 224.628083 
L 754.562496 230.397265 
L 758.654164 230.057923 
L 762.745844 225.985543 
L 766.837525 228.021703 
L 770.929192 231.415383 
L 775.020872 225.64614 
L 779.11254 233.790938 
L 783.20422 232.094113 
L 787.295901 232.772828 
L 791.387568 232.433478 
L 795.479249 231.754748 
L 799.570929 232.772843 
L 803.662609 234.469668 
L 807.754289 234.469658 
L 811.845957 230.397288 
L 815.937637 234.469668 
L 820.029317 234.809024 
L 824.120985 234.809033 
L 828.212665 235.148398 
L 832.304345 233.451546 
L 836.396001 234.809033 
L 840.487681 234.809024 
L 844.579349 232.094113 
L 848.671029 235.487763 
L 852.762709 235.827122 
L 856.854377 235.14839 
L 857.7725 235.224543 
" clip-path="url(#pf8b32472db)" style="fill: none; stroke: #d62728; stroke-width: 1.5; stroke-linecap: square"/>
   </g>
   <g id="line2d_38">
    <path d="M 612.744806 237.507282 
L 616.644895 235.7271 
L 620.544984 231.810699 
L 624.445071 226.11412 
L 628.345159 211.516632 
L 632.245248 176.9811 
L 636.145336 121.795467 
L 640.045424 46.671841 
L 643.945513 52.368406 
L 647.845601 193.358777 
L 651.74569 230.030519 
L 655.645777 222.197722 
L 659.545866 227.18223 
L 663.445955 225.402043 
L 667.346042 225.046012 
L 671.246131 230.03052 
L 675.14622 224.33394 
L 679.046308 225.046012 
L 682.946397 226.470158 
L 686.846486 224.689965 
L 690.746571 221.129613 
L 694.64666 230.386557 
L 698.546749 225.046012 
L 702.446838 230.030508 
L 706.34692 221.485649 
L 710.247009 230.03052 
L 714.147098 225.402048 
L 718.047186 221.485649 
L 721.947275 231.454665 
L 725.847364 227.18223 
L 729.747453 222.553758 
L 733.647541 223.977903 
L 737.54763 228.250338 
L 741.447719 226.826193 
L 745.347808 222.197722 
L 749.247896 229.674483 
L 753.147985 231.098629 
L 757.048074 228.250338 
L 760.948163 230.03052 
L 764.848251 226.11412 
L 768.74834 227.894302 
L 772.648429 231.810702 
L 776.548517 227.538266 
L 780.448606 232.87881 
L 784.348695 229.674483 
L 788.248784 234.658992 
L 792.148872 229.674483 
L 796.048961 231.810682 
L 799.949037 234.302955 
L 803.849126 234.302955 
L 807.749215 232.166738 
L 811.649304 233.234847 
L 815.549392 233.590883 
L 819.449481 233.946919 
L 823.34957 233.234847 
L 827.249659 232.522808 
L 831.149772 233.946919 
L 835.049861 233.234847 
L 838.94995 232.522774 
L 842.850038 234.302955 
L 846.750127 234.658992 
L 850.650216 233.590883 
L 854.550305 234.302944 
L 857.7725 235.479576 
" clip-path="url(#pf8b32472db)" style="fill: none; stroke: #9467bd; stroke-width: 1.5; stroke-linecap: square"/>
   </g>
   <g id="patch_9">
    <path d="M 447.1625 247.4875 
L 447.1625 35.7555 
" style="fill: none; stroke: #000000; stroke-width: 0.8; stroke-linejoin: miter; stroke-linecap: square"/>
   </g>
   <g id="patch_10">
    <path d="M 849.5725 247.4875 
L 849.5725 35.7555 
" style="fill: none; stroke: #000000; stroke-width: 0.8; stroke-linejoin: miter; stroke-linecap: square"/>
   </g>
   <g id="patch_11">
    <path d="M 447.1625 247.4875 
L 849.5725 247.4875 
" style="fill: none; stroke: #000000; stroke-width: 0.8; stroke-linejoin: miter; stroke-linecap: square"/>
   </g>
   <g id="patch_12">
    <path d="M 447.1625 35.7555 
L 849.5725 35.7555 
" style="fill: none; stroke: #000000; stroke-width: 0.8; stroke-linejoin: miter; stroke-linecap: square"/>
   </g>
   <g id="text_30">
    <!-- Activation histogram -->
    <g transform="translate(586.006875 16.318125) scale(0.12 -0.12)">
     <use xlink:href="#DejaVuSans-41"/>
     <use xlink:href="#DejaVuSans-63" x="66.658203"/>
     <use xlink:href="#DejaVuSans-74" x="121.638672"/>
     <use xlink:href="#DejaVuSans-69" x="160.847656"/>
     <use xlink:href="#DejaVuSans-76" x="188.630859"/>
     <use xlink:href="#DejaVuSans-61" x="247.810547"/>
     <use xlink:href="#DejaVuSans-74" x="309.089844"/>
     <use xlink:href="#DejaVuSans-69" x="348.298828"/>
     <use xlink:href="#DejaVuSans-6f" x="376.082031"/>
     <use xlink:href="#DejaVuSans-6e" x="437.263672"/>
     <use xlink:href="#DejaVuSans-20" x="500.642578"/>
     <use xlink:href="#DejaVuSans-68" x="532.429688"/>
     <use xlink:href="#DejaVuSans-69" x="595.808594"/>
     <use xlink:href="#DejaVuSans-73" x="623.591797"/>
     <use xlink:href="#DejaVuSans-74" x="675.691406"/>
     <use xlink:href="#DejaVuSans-6f" x="714.900391"/>
     <use xlink:href="#DejaVuSans-67" x="776.082031"/>
     <use xlink:href="#DejaVuSans-72" x="839.558594"/>
     <use xlink:href="#DejaVuSans-61" x="880.671875"/>
     <use xlink:href="#DejaVuSans-6d" x="941.951172"/>
    </g>
    <!-- gain=1.41, BN=True , act=LReLU, n_hidden=4, lr=1e-01 -->
    <g transform="translate(478.065 29.7555) scale(0.12 -0.12)">
     <defs>
      <path id="DejaVuSans-54" d="M -19 4666 
L 3928 4666 
L 3928 4134 
L 2272 4134 
L 2272 0 
L 1638 0 
L 1638 4134 
L -19 4134 
L -19 4666 
z
" transform="scale(0.015625)"/>
      <path id="DejaVuSans-75" d="M 544 1381 
L 544 3500 
L 1119 3500 
L 1119 1403 
Q 1119 906 1312 657 
Q 1506 409 1894 409 
Q 2359 409 2629 706 
Q 2900 1003 2900 1516 
L 2900 3500 
L 3475 3500 
L 3475 0 
L 2900 0 
L 2900 538 
Q 2691 219 2414 64 
Q 2138 -91 1772 -91 
Q 1169 -91 856 284 
Q 544 659 544 1381 
z
M 1991 3584 
L 1991 3584 
z
" transform="scale(0.015625)"/>
     </defs>
     <use xlink:href="#DejaVuSans-67"/>
     <use xlink:href="#DejaVuSans-61" x="63.476562"/>
     <use xlink:href="#DejaVuSans-69" x="124.755859"/>
     <use xlink:href="#DejaVuSans-6e" x="152.539062"/>
     <use xlink:href="#DejaVuSans-3d" x="215.917969"/>
     <use xlink:href="#DejaVuSans-31" x="299.707031"/>
     <use xlink:href="#DejaVuSans-2e" x="363.330078"/>
     <use xlink:href="#DejaVuSans-34" x="395.117188"/>
     <use xlink:href="#DejaVuSans-31" x="458.740234"/>
     <use xlink:href="#DejaVuSans-2c" x="522.363281"/>
     <use xlink:href="#DejaVuSans-20" x="554.150391"/>
     <use xlink:href="#DejaVuSans-42" x="585.9375"/>
     <use xlink:href="#DejaVuSans-4e" x="654.541016"/>
     <use xlink:href="#DejaVuSans-3d" x="729.345703"/>
     <use xlink:href="#DejaVuSans-54" x="813.134766"/>
     <use xlink:href="#DejaVuSans-72" x="859.46875"/>
     <use xlink:href="#DejaVuSans-75" x="900.582031"/>
     <use xlink:href="#DejaVuSans-65" x="963.960938"/>
     <use xlink:href="#DejaVuSans-20" x="1025.484375"/>
     <use xlink:href="#DejaVuSans-2c" x="1057.271484"/>
     <use xlink:href="#DejaVuSans-20" x="1089.058594"/>
     <use xlink:href="#DejaVuSans-61" x="1120.845703"/>
     <use xlink:href="#DejaVuSans-63" x="1182.125"/>
     <use xlink:href="#DejaVuSans-74" x="1237.105469"/>
     <use xlink:href="#DejaVuSans-3d" x="1276.314453"/>
     <use xlink:href="#DejaVuSans-4c" x="1360.103516"/>
     <use xlink:href="#DejaVuSans-52" x="1415.816406"/>
     <use xlink:href="#DejaVuSans-65" x="1480.798828"/>
     <use xlink:href="#DejaVuSans-4c" x="1542.322266"/>
     <use xlink:href="#DejaVuSans-55" x="1593.035156"/>
     <use xlink:href="#DejaVuSans-2c" x="1666.228516"/>
     <use xlink:href="#DejaVuSans-20" x="1698.015625"/>
     <use xlink:href="#DejaVuSans-6e" x="1729.802734"/>
     <use xlink:href="#DejaVuSans-5f" x="1793.181641"/>
     <use xlink:href="#DejaVuSans-68" x="1843.181641"/>
     <use xlink:href="#DejaVuSans-69" x="1906.560547"/>
     <use xlink:href="#DejaVuSans-64" x="1934.34375"/>
     <use xlink:href="#DejaVuSans-64" x="1997.820312"/>
     <use xlink:href="#DejaVuSans-65" x="2061.296875"/>
     <use xlink:href="#DejaVuSans-6e" x="2122.820312"/>
     <use xlink:href="#DejaVuSans-3d" x="2186.199219"/>
     <use xlink:href="#DejaVuSans-34" x="2269.988281"/>
     <use xlink:href="#DejaVuSans-2c" x="2333.611328"/>
     <use xlink:href="#DejaVuSans-20" x="2365.398438"/>
     <use xlink:href="#DejaVuSans-6c" x="2397.185547"/>
     <use xlink:href="#DejaVuSans-72" x="2424.96875"/>
     <use xlink:href="#DejaVuSans-3d" x="2466.082031"/>
     <use xlink:href="#DejaVuSans-31" x="2549.871094"/>
     <use xlink:href="#DejaVuSans-65" x="2613.494141"/>
     <use xlink:href="#DejaVuSans-2d" x="2675.017578"/>
     <use xlink:href="#DejaVuSans-30" x="2711.101562"/>
     <use xlink:href="#DejaVuSans-31" x="2774.724609"/>
    </g>
   </g>
   <g id="legend_2">
    <g id="patch_13">
     <path d="M 764.055312 117.146125 
L 842.5725 117.146125 
Q 844.5725 117.146125 844.5725 115.146125 
L 844.5725 42.7555 
Q 844.5725 40.7555 842.5725 40.7555 
L 764.055312 40.7555 
Q 762.055312 40.7555 762.055312 42.7555 
L 762.055312 115.146125 
Q 762.055312 117.146125 764.055312 117.146125 
z
" style="fill: #ffffff; opacity: 0.8; stroke: #cccccc; stroke-linejoin: miter"/>
    </g>
    <g id="line2d_39">
     <path d="M 766.055312 48.853937 
L 776.055312 48.853937 
L 786.055312 48.853937 
" style="fill: none; stroke: #1f77b4; stroke-width: 1.5; stroke-linecap: square"/>
    </g>
    <g id="text_31">
     <!-- LReLU.3 -->
     <g transform="translate(794.055312 52.353937) scale(0.1 -0.1)">
      <use xlink:href="#DejaVuSans-4c"/>
      <use xlink:href="#DejaVuSans-52" x="55.712891"/>
      <use xlink:href="#DejaVuSans-65" x="120.695312"/>
      <use xlink:href="#DejaVuSans-4c" x="182.21875"/>
      <use xlink:href="#DejaVuSans-55" x="232.931641"/>
      <use xlink:href="#DejaVuSans-2e" x="306.125"/>
      <use xlink:href="#DejaVuSans-33" x="337.912109"/>
     </g>
    </g>
    <g id="line2d_40">
     <path d="M 766.055312 63.532062 
L 776.055312 63.532062 
L 786.055312 63.532062 
" style="fill: none; stroke: #ff7f0e; stroke-width: 1.5; stroke-linecap: square"/>
    </g>
    <g id="text_32">
     <!-- LReLU.6 -->
     <g transform="translate(794.055312 67.032062) scale(0.1 -0.1)">
      <use xlink:href="#DejaVuSans-4c"/>
      <use xlink:href="#DejaVuSans-52" x="55.712891"/>
      <use xlink:href="#DejaVuSans-65" x="120.695312"/>
      <use xlink:href="#DejaVuSans-4c" x="182.21875"/>
      <use xlink:href="#DejaVuSans-55" x="232.931641"/>
      <use xlink:href="#DejaVuSans-2e" x="306.125"/>
      <use xlink:href="#DejaVuSans-36" x="337.912109"/>
     </g>
    </g>
    <g id="line2d_41">
     <path d="M 766.055312 78.210187 
L 776.055312 78.210187 
L 786.055312 78.210187 
" style="fill: none; stroke: #2ca02c; stroke-width: 1.5; stroke-linecap: square"/>
    </g>
    <g id="text_33">
     <!-- LReLU.9 -->
     <g transform="translate(794.055312 81.710187) scale(0.1 -0.1)">
      <defs>
       <path id="DejaVuSans-39" d="M 703 97 
L 703 672 
Q 941 559 1184 500 
Q 1428 441 1663 441 
Q 2288 441 2617 861 
Q 2947 1281 2994 2138 
Q 2813 1869 2534 1725 
Q 2256 1581 1919 1581 
Q 1219 1581 811 2004 
Q 403 2428 403 3163 
Q 403 3881 828 4315 
Q 1253 4750 1959 4750 
Q 2769 4750 3195 4129 
Q 3622 3509 3622 2328 
Q 3622 1225 3098 567 
Q 2575 -91 1691 -91 
Q 1453 -91 1209 -44 
Q 966 3 703 97 
z
M 1959 2075 
Q 2384 2075 2632 2365 
Q 2881 2656 2881 3163 
Q 2881 3666 2632 3958 
Q 2384 4250 1959 4250 
Q 1534 4250 1286 3958 
Q 1038 3666 1038 3163 
Q 1038 2656 1286 2365 
Q 1534 2075 1959 2075 
z
" transform="scale(0.015625)"/>
      </defs>
      <use xlink:href="#DejaVuSans-4c"/>
      <use xlink:href="#DejaVuSans-52" x="55.712891"/>
      <use xlink:href="#DejaVuSans-65" x="120.695312"/>
      <use xlink:href="#DejaVuSans-4c" x="182.21875"/>
      <use xlink:href="#DejaVuSans-55" x="232.931641"/>
      <use xlink:href="#DejaVuSans-2e" x="306.125"/>
      <use xlink:href="#DejaVuSans-39" x="337.912109"/>
     </g>
    </g>
    <g id="line2d_42">
     <path d="M 766.055312 92.888312 
L 776.055312 92.888312 
L 786.055312 92.888312 
" style="fill: none; stroke: #d62728; stroke-width: 1.5; stroke-linecap: square"/>
    </g>
    <g id="text_34">
     <!-- LReLU.12 -->
     <g transform="translate(794.055312 96.388312) scale(0.1 -0.1)">
      <use xlink:href="#DejaVuSans-4c"/>
      <use xlink:href="#DejaVuSans-52" x="55.712891"/>
      <use xlink:href="#DejaVuSans-65" x="120.695312"/>
      <use xlink:href="#DejaVuSans-4c" x="182.21875"/>
      <use xlink:href="#DejaVuSans-55" x="232.931641"/>
      <use xlink:href="#DejaVuSans-2e" x="306.125"/>
      <use xlink:href="#DejaVuSans-31" x="337.912109"/>
      <use xlink:href="#DejaVuSans-32" x="401.535156"/>
     </g>
    </g>
    <g id="line2d_43">
     <path d="M 766.055312 107.566437 
L 776.055312 107.566437 
L 786.055312 107.566437 
" style="fill: none; stroke: #9467bd; stroke-width: 1.5; stroke-linecap: square"/>
    </g>
    <g id="text_35">
     <!-- LReLU.15 -->
     <g transform="translate(794.055312 111.066437) scale(0.1 -0.1)">
      <use xlink:href="#DejaVuSans-4c"/>
      <use xlink:href="#DejaVuSans-52" x="55.712891"/>
      <use xlink:href="#DejaVuSans-65" x="120.695312"/>
      <use xlink:href="#DejaVuSans-4c" x="182.21875"/>
      <use xlink:href="#DejaVuSans-55" x="232.931641"/>
      <use xlink:href="#DejaVuSans-2e" x="306.125"/>
      <use xlink:href="#DejaVuSans-31" x="337.912109"/>
      <use xlink:href="#DejaVuSans-35" x="401.535156"/>
     </g>
    </g>
   </g>
  </g>
  <g id="axes_3">
   <g id="table_1">
    <g id="patch_14">
     <path d="M 20.5625 352.426425 
L 121.165 352.426425 
L 121.165 338.022888 
L 20.5625 338.022888 
z
" style="fill: #ffffff; stroke: #000000; stroke-linejoin: miter"/>
    </g>
    <g id="text_36">
     <!-- layer -->
     <g transform="translate(58.319219 347.984031) scale(0.1 -0.1)">
      <defs>
       <path id="DejaVuSans-79" d="M 2059 -325 
Q 1816 -950 1584 -1140 
Q 1353 -1331 966 -1331 
L 506 -1331 
L 506 -850 
L 844 -850 
Q 1081 -850 1212 -737 
Q 1344 -625 1503 -206 
L 1606 56 
L 191 3500 
L 800 3500 
L 1894 763 
L 2988 3500 
L 3597 3500 
L 2059 -325 
z
" transform="scale(0.015625)"/>
      </defs>
      <use xlink:href="#DejaVuSans-6c"/>
      <use xlink:href="#DejaVuSans-61" x="27.783203"/>
      <use xlink:href="#DejaVuSans-79" x="89.0625"/>
      <use xlink:href="#DejaVuSans-65" x="148.242188"/>
      <use xlink:href="#DejaVuSans-72" x="209.765625"/>
     </g>
    </g>
    <g id="patch_15">
     <path d="M 121.165 352.426425 
L 221.7675 352.426425 
L 221.7675 338.022888 
L 121.165 338.022888 
z
" style="fill: #ffffff; stroke: #000000; stroke-linejoin: miter"/>
    </g>
    <g id="text_37">
     <!-- μ -->
     <g transform="translate(168.285 347.984031) scale(0.1 -0.1)">
      <defs>
       <path id="DejaVuSans-3bc" d="M 544 -1331 
L 544 3500 
L 1119 3500 
L 1119 1325 
Q 1119 872 1334 640 
Q 1550 409 1972 409 
Q 2434 409 2667 671 
Q 2900 934 2900 1459 
L 2900 3500 
L 3475 3500 
L 3475 806 
Q 3475 619 3529 530 
Q 3584 441 3700 441 
Q 3728 441 3778 458 
Q 3828 475 3916 513 
L 3916 50 
Q 3788 -22 3673 -56 
Q 3559 -91 3450 -91 
Q 3234 -91 3106 31 
Q 2978 153 2931 403 
Q 2775 156 2548 32 
Q 2322 -91 2016 -91 
Q 1697 -91 1473 31 
Q 1250 153 1119 397 
L 1119 -1331 
L 544 -1331 
z
" transform="scale(0.015625)"/>
      </defs>
      <use xlink:href="#DejaVuSans-3bc"/>
     </g>
    </g>
    <g id="patch_16">
     <path d="M 221.7675 352.426425 
L 322.37 352.426425 
L 322.37 338.022888 
L 221.7675 338.022888 
z
" style="fill: #ffffff; stroke: #000000; stroke-linejoin: miter"/>
    </g>
    <g id="text_38">
     <!-- σ -->
     <g transform="translate(268.9 347.984031) scale(0.1 -0.1)">
      <defs>
       <path id="DejaVuSans-3c3" d="M 1959 3044 
Q 1484 3044 1228 2700 
Q 959 2341 959 1747 
Q 959 1119 1226 758 
Q 1494 397 1959 397 
Q 2419 397 2687 759 
Q 2956 1122 2956 1747 
Q 2956 2319 2688 2700 
Q 2441 3044 1959 3044 
z
M 1959 3500 
L 3869 3500 
L 3869 2925 
L 3225 2925 
Q 3566 2438 3566 1747 
Q 3566 888 3138 400 
Q 2709 -91 1959 -91 
Q 1206 -91 781 400 
Q 353 888 353 1747 
Q 353 2613 781 3097 
Q 1134 3500 1959 3500 
z
" transform="scale(0.015625)"/>
      </defs>
      <use xlink:href="#DejaVuSans-3c3"/>
     </g>
    </g>
    <g id="patch_17">
     <path d="M 322.37 352.426425 
L 422.9725 352.426425 
L 422.9725 338.022888 
L 322.37 338.022888 
z
" style="fill: #ffffff; stroke: #000000; stroke-linejoin: miter"/>
    </g>
    <g id="text_39">
     <!-- saturation -->
     <g transform="translate(347.176719 347.984031) scale(0.1 -0.1)">
      <use xlink:href="#DejaVuSans-73"/>
      <use xlink:href="#DejaVuSans-61" x="52.099609"/>
      <use xlink:href="#DejaVuSans-74" x="113.378906"/>
      <use xlink:href="#DejaVuSans-75" x="152.587891"/>
      <use xlink:href="#DejaVuSans-72" x="215.966797"/>
      <use xlink:href="#DejaVuSans-61" x="257.080078"/>
      <use xlink:href="#DejaVuSans-74" x="318.359375"/>
      <use xlink:href="#DejaVuSans-69" x="357.568359"/>
      <use xlink:href="#DejaVuSans-6f" x="385.351562"/>
      <use xlink:href="#DejaVuSans-6e" x="446.533203"/>
     </g>
    </g>
    <g id="patch_18">
     <path d="M 20.5625 366.829963 
L 121.165 366.829963 
L 121.165 352.426425 
L 20.5625 352.426425 
z
" style="fill: #ffffff; stroke: #000000; stroke-linejoin: miter"/>
    </g>
    <g id="text_40">
     <!-- LReLU.2 -->
     <g transform="translate(50.786406 362.387569) scale(0.1 -0.1)">
      <use xlink:href="#DejaVuSans-4c"/>
      <use xlink:href="#DejaVuSans-52" x="55.712891"/>
      <use xlink:href="#DejaVuSans-65" x="120.695312"/>
      <use xlink:href="#DejaVuSans-4c" x="182.21875"/>
      <use xlink:href="#DejaVuSans-55" x="232.931641"/>
      <use xlink:href="#DejaVuSans-2e" x="306.125"/>
      <use xlink:href="#DejaVuSans-32" x="337.912109"/>
     </g>
    </g>
    <g id="patch_19">
     <path d="M 121.165 366.829963 
L 221.7675 366.829963 
L 221.7675 352.426425 
L 121.165 352.426425 
z
" style="fill: #ffffff; stroke: #000000; stroke-linejoin: miter"/>
    </g>
    <g id="text_41">
     <!-- +0.41 -->
     <g transform="translate(156.143594 362.387569) scale(0.1 -0.1)">
      <defs>
       <path id="DejaVuSans-2b" d="M 2944 4013 
L 2944 2272 
L 4684 2272 
L 4684 1741 
L 2944 1741 
L 2944 0 
L 2419 0 
L 2419 1741 
L 678 1741 
L 678 2272 
L 2419 2272 
L 2419 4013 
L 2944 4013 
z
" transform="scale(0.015625)"/>
      </defs>
      <use xlink:href="#DejaVuSans-2b"/>
      <use xlink:href="#DejaVuSans-30" x="83.789062"/>
      <use xlink:href="#DejaVuSans-2e" x="147.412109"/>
      <use xlink:href="#DejaVuSans-34" x="179.199219"/>
      <use xlink:href="#DejaVuSans-31" x="242.822266"/>
     </g>
    </g>
    <g id="patch_20">
     <path d="M 221.7675 366.829963 
L 322.37 366.829963 
L 322.37 352.426425 
L 221.7675 352.426425 
z
" style="fill: #ffffff; stroke: #000000; stroke-linejoin: miter"/>
    </g>
    <g id="text_42">
     <!-- 0.75 -->
     <g transform="translate(260.935938 362.387569) scale(0.1 -0.1)">
      <defs>
       <path id="DejaVuSans-37" d="M 525 4666 
L 3525 4666 
L 3525 4397 
L 1831 0 
L 1172 0 
L 2766 4134 
L 525 4134 
L 525 4666 
z
" transform="scale(0.015625)"/>
      </defs>
      <use xlink:href="#DejaVuSans-30"/>
      <use xlink:href="#DejaVuSans-2e" x="63.623047"/>
      <use xlink:href="#DejaVuSans-37" x="95.410156"/>
      <use xlink:href="#DejaVuSans-35" x="159.033203"/>
     </g>
    </g>
    <g id="patch_21">
     <path d="M 322.37 366.829963 
L 422.9725 366.829963 
L 422.9725 352.426425 
L 322.37 352.426425 
z
" style="fill: #ffffff; stroke: #000000; stroke-linejoin: miter"/>
    </g>
    <g id="text_43">
     <!-- 52.81% -->
     <g transform="translate(353.606406 362.387569) scale(0.1 -0.1)">
      <defs>
       <path id="DejaVuSans-25" d="M 4653 2053 
Q 4381 2053 4226 1822 
Q 4072 1591 4072 1178 
Q 4072 772 4226 539 
Q 4381 306 4653 306 
Q 4919 306 5073 539 
Q 5228 772 5228 1178 
Q 5228 1588 5073 1820 
Q 4919 2053 4653 2053 
z
M 4653 2450 
Q 5147 2450 5437 2106 
Q 5728 1763 5728 1178 
Q 5728 594 5436 251 
Q 5144 -91 4653 -91 
Q 4153 -91 3862 251 
Q 3572 594 3572 1178 
Q 3572 1766 3864 2108 
Q 4156 2450 4653 2450 
z
M 1428 4353 
Q 1159 4353 1004 4120 
Q 850 3888 850 3481 
Q 850 3069 1003 2837 
Q 1156 2606 1428 2606 
Q 1700 2606 1854 2837 
Q 2009 3069 2009 3481 
Q 2009 3884 1853 4118 
Q 1697 4353 1428 4353 
z
M 4250 4750 
L 4750 4750 
L 1831 -91 
L 1331 -91 
L 4250 4750 
z
M 1428 4750 
Q 1922 4750 2215 4408 
Q 2509 4066 2509 3481 
Q 2509 2891 2217 2550 
Q 1925 2209 1428 2209 
Q 931 2209 642 2551 
Q 353 2894 353 3481 
Q 353 4063 643 4406 
Q 934 4750 1428 4750 
z
" transform="scale(0.015625)"/>
      </defs>
      <use xlink:href="#DejaVuSans-35"/>
      <use xlink:href="#DejaVuSans-32" x="63.623047"/>
      <use xlink:href="#DejaVuSans-2e" x="127.246094"/>
      <use xlink:href="#DejaVuSans-38" x="159.033203"/>
      <use xlink:href="#DejaVuSans-31" x="222.65625"/>
      <use xlink:href="#DejaVuSans-25" x="286.279297"/>
     </g>
    </g>
    <g id="patch_22">
     <path d="M 20.5625 381.2335 
L 121.165 381.2335 
L 121.165 366.829963 
L 20.5625 366.829963 
z
" style="fill: #ffffff; stroke: #000000; stroke-linejoin: miter"/>
    </g>
    <g id="text_44">
     <!-- LReLU.4 -->
     <g transform="translate(50.786406 376.791106) scale(0.1 -0.1)">
      <use xlink:href="#DejaVuSans-4c"/>
      <use xlink:href="#DejaVuSans-52" x="55.712891"/>
      <use xlink:href="#DejaVuSans-65" x="120.695312"/>
      <use xlink:href="#DejaVuSans-4c" x="182.21875"/>
      <use xlink:href="#DejaVuSans-55" x="232.931641"/>
      <use xlink:href="#DejaVuSans-2e" x="306.125"/>
      <use xlink:href="#DejaVuSans-34" x="337.912109"/>
     </g>
    </g>
    <g id="patch_23">
     <path d="M 121.165 381.2335 
L 221.7675 381.2335 
L 221.7675 366.829963 
L 121.165 366.829963 
z
" style="fill: #ffffff; stroke: #000000; stroke-linejoin: miter"/>
    </g>
    <g id="text_45">
     <!-- +0.24 -->
     <g transform="translate(156.143594 376.791106) scale(0.1 -0.1)">
      <use xlink:href="#DejaVuSans-2b"/>
      <use xlink:href="#DejaVuSans-30" x="83.789062"/>
      <use xlink:href="#DejaVuSans-2e" x="147.412109"/>
      <use xlink:href="#DejaVuSans-32" x="179.199219"/>
      <use xlink:href="#DejaVuSans-34" x="242.822266"/>
     </g>
    </g>
    <g id="patch_24">
     <path d="M 221.7675 381.2335 
L 322.37 381.2335 
L 322.37 366.829963 
L 221.7675 366.829963 
z
" style="fill: #ffffff; stroke: #000000; stroke-linejoin: miter"/>
    </g>
    <g id="text_46">
     <!-- 0.67 -->
     <g transform="translate(260.935938 376.791106) scale(0.1 -0.1)">
      <use xlink:href="#DejaVuSans-30"/>
      <use xlink:href="#DejaVuSans-2e" x="63.623047"/>
      <use xlink:href="#DejaVuSans-36" x="95.410156"/>
      <use xlink:href="#DejaVuSans-37" x="159.033203"/>
     </g>
    </g>
    <g id="patch_25">
     <path d="M 322.37 381.2335 
L 422.9725 381.2335 
L 422.9725 366.829963 
L 322.37 366.829963 
z
" style="fill: #ffffff; stroke: #000000; stroke-linejoin: miter"/>
    </g>
    <g id="text_47">
     <!-- 66.09% -->
     <g transform="translate(353.606406 376.791106) scale(0.1 -0.1)">
      <use xlink:href="#DejaVuSans-36"/>
      <use xlink:href="#DejaVuSans-36" x="63.623047"/>
      <use xlink:href="#DejaVuSans-2e" x="127.246094"/>
      <use xlink:href="#DejaVuSans-30" x="159.033203"/>
      <use xlink:href="#DejaVuSans-39" x="222.65625"/>
      <use xlink:href="#DejaVuSans-25" x="286.279297"/>
     </g>
    </g>
    <g id="patch_26">
     <path d="M 20.5625 395.637037 
L 121.165 395.637037 
L 121.165 381.2335 
L 20.5625 381.2335 
z
" style="fill: #ffffff; stroke: #000000; stroke-linejoin: miter"/>
    </g>
    <g id="text_48">
     <!-- LReLU.6 -->
     <g transform="translate(50.786406 391.194644) scale(0.1 -0.1)">
      <use xlink:href="#DejaVuSans-4c"/>
      <use xlink:href="#DejaVuSans-52" x="55.712891"/>
      <use xlink:href="#DejaVuSans-65" x="120.695312"/>
      <use xlink:href="#DejaVuSans-4c" x="182.21875"/>
      <use xlink:href="#DejaVuSans-55" x="232.931641"/>
      <use xlink:href="#DejaVuSans-2e" x="306.125"/>
      <use xlink:href="#DejaVuSans-36" x="337.912109"/>
     </g>
    </g>
    <g id="patch_27">
     <path d="M 121.165 395.637037 
L 221.7675 395.637037 
L 221.7675 381.2335 
L 121.165 381.2335 
z
" style="fill: #ffffff; stroke: #000000; stroke-linejoin: miter"/>
    </g>
    <g id="text_49">
     <!-- +0.20 -->
     <g transform="translate(156.143594 391.194644) scale(0.1 -0.1)">
      <use xlink:href="#DejaVuSans-2b"/>
      <use xlink:href="#DejaVuSans-30" x="83.789062"/>
      <use xlink:href="#DejaVuSans-2e" x="147.412109"/>
      <use xlink:href="#DejaVuSans-32" x="179.199219"/>
      <use xlink:href="#DejaVuSans-30" x="242.822266"/>
     </g>
    </g>
    <g id="patch_28">
     <path d="M 221.7675 395.637037 
L 322.37 395.637037 
L 322.37 381.2335 
L 221.7675 381.2335 
z
" style="fill: #ffffff; stroke: #000000; stroke-linejoin: miter"/>
    </g>
    <g id="text_50">
     <!-- 0.60 -->
     <g transform="translate(260.935938 391.194644) scale(0.1 -0.1)">
      <use xlink:href="#DejaVuSans-30"/>
      <use xlink:href="#DejaVuSans-2e" x="63.623047"/>
      <use xlink:href="#DejaVuSans-36" x="95.410156"/>
      <use xlink:href="#DejaVuSans-30" x="159.033203"/>
     </g>
    </g>
    <g id="patch_29">
     <path d="M 322.37 395.637037 
L 422.9725 395.637037 
L 422.9725 381.2335 
L 322.37 381.2335 
z
" style="fill: #ffffff; stroke: #000000; stroke-linejoin: miter"/>
    </g>
    <g id="text_51">
     <!-- 67.50% -->
     <g transform="translate(353.606406 391.194644) scale(0.1 -0.1)">
      <use xlink:href="#DejaVuSans-36"/>
      <use xlink:href="#DejaVuSans-37" x="63.623047"/>
      <use xlink:href="#DejaVuSans-2e" x="127.246094"/>
      <use xlink:href="#DejaVuSans-35" x="159.033203"/>
      <use xlink:href="#DejaVuSans-30" x="222.65625"/>
      <use xlink:href="#DejaVuSans-25" x="286.279297"/>
     </g>
    </g>
    <g id="patch_30">
     <path d="M 20.5625 410.040575 
L 121.165 410.040575 
L 121.165 395.637037 
L 20.5625 395.637037 
z
" style="fill: #ffffff; stroke: #000000; stroke-linejoin: miter"/>
    </g>
    <g id="text_52">
     <!-- LReLU.8 -->
     <g transform="translate(50.786406 405.598181) scale(0.1 -0.1)">
      <use xlink:href="#DejaVuSans-4c"/>
      <use xlink:href="#DejaVuSans-52" x="55.712891"/>
      <use xlink:href="#DejaVuSans-65" x="120.695312"/>
      <use xlink:href="#DejaVuSans-4c" x="182.21875"/>
      <use xlink:href="#DejaVuSans-55" x="232.931641"/>
      <use xlink:href="#DejaVuSans-2e" x="306.125"/>
      <use xlink:href="#DejaVuSans-38" x="337.912109"/>
     </g>
    </g>
    <g id="patch_31">
     <path d="M 121.165 410.040575 
L 221.7675 410.040575 
L 221.7675 395.637037 
L 121.165 395.637037 
z
" style="fill: #ffffff; stroke: #000000; stroke-linejoin: miter"/>
    </g>
    <g id="text_53">
     <!-- +0.21 -->
     <g transform="translate(156.143594 405.598181) scale(0.1 -0.1)">
      <use xlink:href="#DejaVuSans-2b"/>
      <use xlink:href="#DejaVuSans-30" x="83.789062"/>
      <use xlink:href="#DejaVuSans-2e" x="147.412109"/>
      <use xlink:href="#DejaVuSans-32" x="179.199219"/>
      <use xlink:href="#DejaVuSans-31" x="242.822266"/>
     </g>
    </g>
    <g id="patch_32">
     <path d="M 221.7675 410.040575 
L 322.37 410.040575 
L 322.37 395.637037 
L 221.7675 395.637037 
z
" style="fill: #ffffff; stroke: #000000; stroke-linejoin: miter"/>
    </g>
    <g id="text_54">
     <!-- 0.54 -->
     <g transform="translate(260.935938 405.598181) scale(0.1 -0.1)">
      <use xlink:href="#DejaVuSans-30"/>
      <use xlink:href="#DejaVuSans-2e" x="63.623047"/>
      <use xlink:href="#DejaVuSans-35" x="95.410156"/>
      <use xlink:href="#DejaVuSans-34" x="159.033203"/>
     </g>
    </g>
    <g id="patch_33">
     <path d="M 322.37 410.040575 
L 422.9725 410.040575 
L 422.9725 395.637037 
L 322.37 395.637037 
z
" style="fill: #ffffff; stroke: #000000; stroke-linejoin: miter"/>
    </g>
    <g id="text_55">
     <!-- 64.69% -->
     <g transform="translate(353.606406 405.598181) scale(0.1 -0.1)">
      <use xlink:href="#DejaVuSans-36"/>
      <use xlink:href="#DejaVuSans-34" x="63.623047"/>
      <use xlink:href="#DejaVuSans-2e" x="127.246094"/>
      <use xlink:href="#DejaVuSans-36" x="159.033203"/>
      <use xlink:href="#DejaVuSans-39" x="222.65625"/>
      <use xlink:href="#DejaVuSans-25" x="286.279297"/>
     </g>
    </g>
    <g id="patch_34">
     <path d="M 20.5625 424.444112 
L 121.165 424.444112 
L 121.165 410.040575 
L 20.5625 410.040575 
z
" style="fill: #ffffff; stroke: #000000; stroke-linejoin: miter"/>
    </g>
    <g id="text_56">
     <!-- LReLU.10 -->
     <g transform="translate(47.605156 420.001719) scale(0.1 -0.1)">
      <use xlink:href="#DejaVuSans-4c"/>
      <use xlink:href="#DejaVuSans-52" x="55.712891"/>
      <use xlink:href="#DejaVuSans-65" x="120.695312"/>
      <use xlink:href="#DejaVuSans-4c" x="182.21875"/>
      <use xlink:href="#DejaVuSans-55" x="232.931641"/>
      <use xlink:href="#DejaVuSans-2e" x="306.125"/>
      <use xlink:href="#DejaVuSans-31" x="337.912109"/>
      <use xlink:href="#DejaVuSans-30" x="401.535156"/>
     </g>
    </g>
    <g id="patch_35">
     <path d="M 121.165 424.444112 
L 221.7675 424.444112 
L 221.7675 410.040575 
L 121.165 410.040575 
z
" style="fill: #ffffff; stroke: #000000; stroke-linejoin: miter"/>
    </g>
    <g id="text_57">
     <!-- +0.15 -->
     <g transform="translate(156.143594 420.001719) scale(0.1 -0.1)">
      <use xlink:href="#DejaVuSans-2b"/>
      <use xlink:href="#DejaVuSans-30" x="83.789062"/>
      <use xlink:href="#DejaVuSans-2e" x="147.412109"/>
      <use xlink:href="#DejaVuSans-31" x="179.199219"/>
      <use xlink:href="#DejaVuSans-35" x="242.822266"/>
     </g>
    </g>
    <g id="patch_36">
     <path d="M 221.7675 424.444112 
L 322.37 424.444112 
L 322.37 410.040575 
L 221.7675 410.040575 
z
" style="fill: #ffffff; stroke: #000000; stroke-linejoin: miter"/>
    </g>
    <g id="text_58">
     <!-- 0.47 -->
     <g transform="translate(260.935938 420.001719) scale(0.1 -0.1)">
      <use xlink:href="#DejaVuSans-30"/>
      <use xlink:href="#DejaVuSans-2e" x="63.623047"/>
      <use xlink:href="#DejaVuSans-34" x="95.410156"/>
      <use xlink:href="#DejaVuSans-37" x="159.033203"/>
     </g>
    </g>
    <g id="patch_37">
     <path d="M 322.37 424.444112 
L 422.9725 424.444112 
L 422.9725 410.040575 
L 322.37 410.040575 
z
" style="fill: #ffffff; stroke: #000000; stroke-linejoin: miter"/>
    </g>
    <g id="text_59">
     <!-- 69.88% -->
     <g transform="translate(353.606406 420.001719) scale(0.1 -0.1)">
      <use xlink:href="#DejaVuSans-36"/>
      <use xlink:href="#DejaVuSans-39" x="63.623047"/>
      <use xlink:href="#DejaVuSans-2e" x="127.246094"/>
      <use xlink:href="#DejaVuSans-38" x="159.033203"/>
      <use xlink:href="#DejaVuSans-38" x="222.65625"/>
      <use xlink:href="#DejaVuSans-25" x="286.279297"/>
     </g>
    </g>
   </g>
  </g>
  <g id="axes_4">
   <g id="table_2">
    <g id="patch_38">
     <path d="M 447.1625 352.426425 
L 547.765 352.426425 
L 547.765 338.022888 
L 447.1625 338.022888 
z
" style="fill: #ffffff; stroke: #000000; stroke-linejoin: miter"/>
    </g>
    <g id="text_60">
     <!-- layer -->
     <g transform="translate(484.919219 347.984031) scale(0.1 -0.1)">
      <use xlink:href="#DejaVuSans-6c"/>
      <use xlink:href="#DejaVuSans-61" x="27.783203"/>
      <use xlink:href="#DejaVuSans-79" x="89.0625"/>
      <use xlink:href="#DejaVuSans-65" x="148.242188"/>
      <use xlink:href="#DejaVuSans-72" x="209.765625"/>
     </g>
    </g>
    <g id="patch_39">
     <path d="M 547.765 352.426425 
L 648.3675 352.426425 
L 648.3675 338.022888 
L 547.765 338.022888 
z
" style="fill: #ffffff; stroke: #000000; stroke-linejoin: miter"/>
    </g>
    <g id="text_61">
     <!-- μ -->
     <g transform="translate(594.885 347.984031) scale(0.1 -0.1)">
      <use xlink:href="#DejaVuSans-3bc"/>
     </g>
    </g>
    <g id="patch_40">
     <path d="M 648.3675 352.426425 
L 748.97 352.426425 
L 748.97 338.022888 
L 648.3675 338.022888 
z
" style="fill: #ffffff; stroke: #000000; stroke-linejoin: miter"/>
    </g>
    <g id="text_62">
     <!-- σ -->
     <g transform="translate(695.5 347.984031) scale(0.1 -0.1)">
      <use xlink:href="#DejaVuSans-3c3"/>
     </g>
    </g>
    <g id="patch_41">
     <path d="M 748.97 352.426425 
L 849.5725 352.426425 
L 849.5725 338.022888 
L 748.97 338.022888 
z
" style="fill: #ffffff; stroke: #000000; stroke-linejoin: miter"/>
    </g>
    <g id="text_63">
     <!-- saturation -->
     <g transform="translate(773.776719 347.984031) scale(0.1 -0.1)">
      <use xlink:href="#DejaVuSans-73"/>
      <use xlink:href="#DejaVuSans-61" x="52.099609"/>
      <use xlink:href="#DejaVuSans-74" x="113.378906"/>
      <use xlink:href="#DejaVuSans-75" x="152.587891"/>
      <use xlink:href="#DejaVuSans-72" x="215.966797"/>
      <use xlink:href="#DejaVuSans-61" x="257.080078"/>
      <use xlink:href="#DejaVuSans-74" x="318.359375"/>
      <use xlink:href="#DejaVuSans-69" x="357.568359"/>
      <use xlink:href="#DejaVuSans-6f" x="385.351562"/>
      <use xlink:href="#DejaVuSans-6e" x="446.533203"/>
     </g>
    </g>
    <g id="patch_42">
     <path d="M 447.1625 366.829963 
L 547.765 366.829963 
L 547.765 352.426425 
L 447.1625 352.426425 
z
" style="fill: #ffffff; stroke: #000000; stroke-linejoin: miter"/>
    </g>
    <g id="text_64">
     <!-- LReLU.3 -->
     <g transform="translate(477.386406 362.387569) scale(0.1 -0.1)">
      <use xlink:href="#DejaVuSans-4c"/>
      <use xlink:href="#DejaVuSans-52" x="55.712891"/>
      <use xlink:href="#DejaVuSans-65" x="120.695312"/>
      <use xlink:href="#DejaVuSans-4c" x="182.21875"/>
      <use xlink:href="#DejaVuSans-55" x="232.931641"/>
      <use xlink:href="#DejaVuSans-2e" x="306.125"/>
      <use xlink:href="#DejaVuSans-33" x="337.912109"/>
     </g>
    </g>
    <g id="patch_43">
     <path d="M 547.765 366.829963 
L 648.3675 366.829963 
L 648.3675 352.426425 
L 547.765 352.426425 
z
" style="fill: #ffffff; stroke: #000000; stroke-linejoin: miter"/>
    </g>
    <g id="text_65">
     <!-- +0.36 -->
     <g transform="translate(582.743594 362.387569) scale(0.1 -0.1)">
      <use xlink:href="#DejaVuSans-2b"/>
      <use xlink:href="#DejaVuSans-30" x="83.789062"/>
      <use xlink:href="#DejaVuSans-2e" x="147.412109"/>
      <use xlink:href="#DejaVuSans-33" x="179.199219"/>
      <use xlink:href="#DejaVuSans-36" x="242.822266"/>
     </g>
    </g>
    <g id="patch_44">
     <path d="M 648.3675 366.829963 
L 748.97 366.829963 
L 748.97 352.426425 
L 648.3675 352.426425 
z
" style="fill: #ffffff; stroke: #000000; stroke-linejoin: miter"/>
    </g>
    <g id="text_66">
     <!-- 0.60 -->
     <g transform="translate(687.535937 362.387569) scale(0.1 -0.1)">
      <use xlink:href="#DejaVuSans-30"/>
      <use xlink:href="#DejaVuSans-2e" x="63.623047"/>
      <use xlink:href="#DejaVuSans-36" x="95.410156"/>
      <use xlink:href="#DejaVuSans-30" x="159.033203"/>
     </g>
    </g>
    <g id="patch_45">
     <path d="M 748.97 366.829963 
L 849.5725 366.829963 
L 849.5725 352.426425 
L 748.97 352.426425 
z
" style="fill: #ffffff; stroke: #000000; stroke-linejoin: miter"/>
    </g>
    <g id="text_67">
     <!-- 49.38% -->
     <g transform="translate(780.206406 362.387569) scale(0.1 -0.1)">
      <use xlink:href="#DejaVuSans-34"/>
      <use xlink:href="#DejaVuSans-39" x="63.623047"/>
      <use xlink:href="#DejaVuSans-2e" x="127.246094"/>
      <use xlink:href="#DejaVuSans-33" x="159.033203"/>
      <use xlink:href="#DejaVuSans-38" x="222.65625"/>
      <use xlink:href="#DejaVuSans-25" x="286.279297"/>
     </g>
    </g>
    <g id="patch_46">
     <path d="M 447.1625 381.2335 
L 547.765 381.2335 
L 547.765 366.829963 
L 447.1625 366.829963 
z
" style="fill: #ffffff; stroke: #000000; stroke-linejoin: miter"/>
    </g>
    <g id="text_68">
     <!-- LReLU.6 -->
     <g transform="translate(477.386406 376.791106) scale(0.1 -0.1)">
      <use xlink:href="#DejaVuSans-4c"/>
      <use xlink:href="#DejaVuSans-52" x="55.712891"/>
      <use xlink:href="#DejaVuSans-65" x="120.695312"/>
      <use xlink:href="#DejaVuSans-4c" x="182.21875"/>
      <use xlink:href="#DejaVuSans-55" x="232.931641"/>
      <use xlink:href="#DejaVuSans-2e" x="306.125"/>
      <use xlink:href="#DejaVuSans-36" x="337.912109"/>
     </g>
    </g>
    <g id="patch_47">
     <path d="M 547.765 381.2335 
L 648.3675 381.2335 
L 648.3675 366.829963 
L 547.765 366.829963 
z
" style="fill: #ffffff; stroke: #000000; stroke-linejoin: miter"/>
    </g>
    <g id="text_69">
     <!-- +0.35 -->
     <g transform="translate(582.743594 376.791106) scale(0.1 -0.1)">
      <use xlink:href="#DejaVuSans-2b"/>
      <use xlink:href="#DejaVuSans-30" x="83.789062"/>
      <use xlink:href="#DejaVuSans-2e" x="147.412109"/>
      <use xlink:href="#DejaVuSans-33" x="179.199219"/>
      <use xlink:href="#DejaVuSans-35" x="242.822266"/>
     </g>
    </g>
    <g id="patch_48">
     <path d="M 648.3675 381.2335 
L 748.97 381.2335 
L 748.97 366.829963 
L 648.3675 366.829963 
z
" style="fill: #ffffff; stroke: #000000; stroke-linejoin: miter"/>
    </g>
    <g id="text_70">
     <!-- 0.60 -->
     <g transform="translate(687.535937 376.791106) scale(0.1 -0.1)">
      <use xlink:href="#DejaVuSans-30"/>
      <use xlink:href="#DejaVuSans-2e" x="63.623047"/>
      <use xlink:href="#DejaVuSans-36" x="95.410156"/>
      <use xlink:href="#DejaVuSans-30" x="159.033203"/>
     </g>
    </g>
    <g id="patch_49">
     <path d="M 748.97 381.2335 
L 849.5725 381.2335 
L 849.5725 366.829963 
L 748.97 366.829963 
z
" style="fill: #ffffff; stroke: #000000; stroke-linejoin: miter"/>
    </g>
    <g id="text_71">
     <!-- 49.53% -->
     <g transform="translate(780.206406 376.791106) scale(0.1 -0.1)">
      <use xlink:href="#DejaVuSans-34"/>
      <use xlink:href="#DejaVuSans-39" x="63.623047"/>
      <use xlink:href="#DejaVuSans-2e" x="127.246094"/>
      <use xlink:href="#DejaVuSans-35" x="159.033203"/>
      <use xlink:href="#DejaVuSans-33" x="222.65625"/>
      <use xlink:href="#DejaVuSans-25" x="286.279297"/>
     </g>
    </g>
    <g id="patch_50">
     <path d="M 447.1625 395.637037 
L 547.765 395.637037 
L 547.765 381.2335 
L 447.1625 381.2335 
z
" style="fill: #ffffff; stroke: #000000; stroke-linejoin: miter"/>
    </g>
    <g id="text_72">
     <!-- LReLU.9 -->
     <g transform="translate(477.386406 391.194644) scale(0.1 -0.1)">
      <use xlink:href="#DejaVuSans-4c"/>
      <use xlink:href="#DejaVuSans-52" x="55.712891"/>
      <use xlink:href="#DejaVuSans-65" x="120.695312"/>
      <use xlink:href="#DejaVuSans-4c" x="182.21875"/>
      <use xlink:href="#DejaVuSans-55" x="232.931641"/>
      <use xlink:href="#DejaVuSans-2e" x="306.125"/>
      <use xlink:href="#DejaVuSans-39" x="337.912109"/>
     </g>
    </g>
    <g id="patch_51">
     <path d="M 547.765 395.637037 
L 648.3675 395.637037 
L 648.3675 381.2335 
L 547.765 381.2335 
z
" style="fill: #ffffff; stroke: #000000; stroke-linejoin: miter"/>
    </g>
    <g id="text_73">
     <!-- +0.36 -->
     <g transform="translate(582.743594 391.194644) scale(0.1 -0.1)">
      <use xlink:href="#DejaVuSans-2b"/>
      <use xlink:href="#DejaVuSans-30" x="83.789062"/>
      <use xlink:href="#DejaVuSans-2e" x="147.412109"/>
      <use xlink:href="#DejaVuSans-33" x="179.199219"/>
      <use xlink:href="#DejaVuSans-36" x="242.822266"/>
     </g>
    </g>
    <g id="patch_52">
     <path d="M 648.3675 395.637037 
L 748.97 395.637037 
L 748.97 381.2335 
L 648.3675 381.2335 
z
" style="fill: #ffffff; stroke: #000000; stroke-linejoin: miter"/>
    </g>
    <g id="text_74">
     <!-- 0.62 -->
     <g transform="translate(687.535937 391.194644) scale(0.1 -0.1)">
      <use xlink:href="#DejaVuSans-30"/>
      <use xlink:href="#DejaVuSans-2e" x="63.623047"/>
      <use xlink:href="#DejaVuSans-36" x="95.410156"/>
      <use xlink:href="#DejaVuSans-32" x="159.033203"/>
     </g>
    </g>
    <g id="patch_53">
     <path d="M 748.97 395.637037 
L 849.5725 395.637037 
L 849.5725 381.2335 
L 748.97 381.2335 
z
" style="fill: #ffffff; stroke: #000000; stroke-linejoin: miter"/>
    </g>
    <g id="text_75">
     <!-- 51.53% -->
     <g transform="translate(780.206406 391.194644) scale(0.1 -0.1)">
      <use xlink:href="#DejaVuSans-35"/>
      <use xlink:href="#DejaVuSans-31" x="63.623047"/>
      <use xlink:href="#DejaVuSans-2e" x="127.246094"/>
      <use xlink:href="#DejaVuSans-35" x="159.033203"/>
      <use xlink:href="#DejaVuSans-33" x="222.65625"/>
      <use xlink:href="#DejaVuSans-25" x="286.279297"/>
     </g>
    </g>
    <g id="patch_54">
     <path d="M 447.1625 410.040575 
L 547.765 410.040575 
L 547.765 395.637037 
L 447.1625 395.637037 
z
" style="fill: #ffffff; stroke: #000000; stroke-linejoin: miter"/>
    </g>
    <g id="text_76">
     <!-- LReLU.12 -->
     <g transform="translate(474.205156 405.598181) scale(0.1 -0.1)">
      <use xlink:href="#DejaVuSans-4c"/>
      <use xlink:href="#DejaVuSans-52" x="55.712891"/>
      <use xlink:href="#DejaVuSans-65" x="120.695312"/>
      <use xlink:href="#DejaVuSans-4c" x="182.21875"/>
      <use xlink:href="#DejaVuSans-55" x="232.931641"/>
      <use xlink:href="#DejaVuSans-2e" x="306.125"/>
      <use xlink:href="#DejaVuSans-31" x="337.912109"/>
      <use xlink:href="#DejaVuSans-32" x="401.535156"/>
     </g>
    </g>
    <g id="patch_55">
     <path d="M 547.765 410.040575 
L 648.3675 410.040575 
L 648.3675 395.637037 
L 547.765 395.637037 
z
" style="fill: #ffffff; stroke: #000000; stroke-linejoin: miter"/>
    </g>
    <g id="text_77">
     <!-- +0.36 -->
     <g transform="translate(582.743594 405.598181) scale(0.1 -0.1)">
      <use xlink:href="#DejaVuSans-2b"/>
      <use xlink:href="#DejaVuSans-30" x="83.789062"/>
      <use xlink:href="#DejaVuSans-2e" x="147.412109"/>
      <use xlink:href="#DejaVuSans-33" x="179.199219"/>
      <use xlink:href="#DejaVuSans-36" x="242.822266"/>
     </g>
    </g>
    <g id="patch_56">
     <path d="M 648.3675 410.040575 
L 748.97 410.040575 
L 748.97 395.637037 
L 648.3675 395.637037 
z
" style="fill: #ffffff; stroke: #000000; stroke-linejoin: miter"/>
    </g>
    <g id="text_78">
     <!-- 0.63 -->
     <g transform="translate(687.535937 405.598181) scale(0.1 -0.1)">
      <use xlink:href="#DejaVuSans-30"/>
      <use xlink:href="#DejaVuSans-2e" x="63.623047"/>
      <use xlink:href="#DejaVuSans-36" x="95.410156"/>
      <use xlink:href="#DejaVuSans-33" x="159.033203"/>
     </g>
    </g>
    <g id="patch_57">
     <path d="M 748.97 410.040575 
L 849.5725 410.040575 
L 849.5725 395.637037 
L 748.97 395.637037 
z
" style="fill: #ffffff; stroke: #000000; stroke-linejoin: miter"/>
    </g>
    <g id="text_79">
     <!-- 51.59% -->
     <g transform="translate(780.206406 405.598181) scale(0.1 -0.1)">
      <use xlink:href="#DejaVuSans-35"/>
      <use xlink:href="#DejaVuSans-31" x="63.623047"/>
      <use xlink:href="#DejaVuSans-2e" x="127.246094"/>
      <use xlink:href="#DejaVuSans-35" x="159.033203"/>
      <use xlink:href="#DejaVuSans-39" x="222.65625"/>
      <use xlink:href="#DejaVuSans-25" x="286.279297"/>
     </g>
    </g>
    <g id="patch_58">
     <path d="M 447.1625 424.444112 
L 547.765 424.444112 
L 547.765 410.040575 
L 447.1625 410.040575 
z
" style="fill: #ffffff; stroke: #000000; stroke-linejoin: miter"/>
    </g>
    <g id="text_80">
     <!-- LReLU.15 -->
     <g transform="translate(474.205156 420.001719) scale(0.1 -0.1)">
      <use xlink:href="#DejaVuSans-4c"/>
      <use xlink:href="#DejaVuSans-52" x="55.712891"/>
      <use xlink:href="#DejaVuSans-65" x="120.695312"/>
      <use xlink:href="#DejaVuSans-4c" x="182.21875"/>
      <use xlink:href="#DejaVuSans-55" x="232.931641"/>
      <use xlink:href="#DejaVuSans-2e" x="306.125"/>
      <use xlink:href="#DejaVuSans-31" x="337.912109"/>
      <use xlink:href="#DejaVuSans-35" x="401.535156"/>
     </g>
    </g>
    <g id="patch_59">
     <path d="M 547.765 424.444112 
L 648.3675 424.444112 
L 648.3675 410.040575 
L 547.765 410.040575 
z
" style="fill: #ffffff; stroke: #000000; stroke-linejoin: miter"/>
    </g>
    <g id="text_81">
     <!-- +0.36 -->
     <g transform="translate(582.743594 420.001719) scale(0.1 -0.1)">
      <use xlink:href="#DejaVuSans-2b"/>
      <use xlink:href="#DejaVuSans-30" x="83.789062"/>
      <use xlink:href="#DejaVuSans-2e" x="147.412109"/>
      <use xlink:href="#DejaVuSans-33" x="179.199219"/>
      <use xlink:href="#DejaVuSans-36" x="242.822266"/>
     </g>
    </g>
    <g id="patch_60">
     <path d="M 648.3675 424.444112 
L 748.97 424.444112 
L 748.97 410.040575 
L 648.3675 410.040575 
z
" style="fill: #ffffff; stroke: #000000; stroke-linejoin: miter"/>
    </g>
    <g id="text_82">
     <!-- 0.64 -->
     <g transform="translate(687.535937 420.001719) scale(0.1 -0.1)">
      <use xlink:href="#DejaVuSans-30"/>
      <use xlink:href="#DejaVuSans-2e" x="63.623047"/>
      <use xlink:href="#DejaVuSans-36" x="95.410156"/>
      <use xlink:href="#DejaVuSans-34" x="159.033203"/>
     </g>
    </g>
    <g id="patch_61">
     <path d="M 748.97 424.444112 
L 849.5725 424.444112 
L 849.5725 410.040575 
L 748.97 410.040575 
z
" style="fill: #ffffff; stroke: #000000; stroke-linejoin: miter"/>
    </g>
    <g id="text_83">
     <!-- 55.84% -->
     <g transform="translate(780.206406 420.001719) scale(0.1 -0.1)">
      <use xlink:href="#DejaVuSans-35"/>
      <use xlink:href="#DejaVuSans-35" x="63.623047"/>
      <use xlink:href="#DejaVuSans-2e" x="127.246094"/>
      <use xlink:href="#DejaVuSans-38" x="159.033203"/>
      <use xlink:href="#DejaVuSans-34" x="222.65625"/>
      <use xlink:href="#DejaVuSans-25" x="286.279297"/>
     </g>
    </g>
   </g>
  </g>
 </g>
 <defs>
  <clipPath id="pd0e296a009">
   <rect x="20.5625" y="35.7555" width="402.41" height="211.732"/>
  </clipPath>
  <clipPath id="pf8b32472db">
   <rect x="447.1625" y="35.7555" width="402.41" height="211.732"/>
  </clipPath>
 </defs>
</svg>