<?xml version="1.0" encoding="utf-8" standalone="no"?>
<!DOCTYPE svg PUBLIC "-//W3C//DTD SVG 1.1//EN"
  "http://www.w3.org/Graphics/SVG/1.1/DTD/svg11.dtd">
<svg xmlns:xlink="http://www.w3.org/1999/xlink" width="494.203125pt" height="266.51625pt" viewBox="0 0 494.203125 266.51625" xmlns="http://www.w3.org/2000/svg" version="1.1">
 <metadata>
  <rdf:RDF xmlns:dc="http://purl.org/dc/elements/1.1/" xmlns:cc="http://creativecommons.org/ns#" xmlns:rdf="http://www.w3.org/1999/02/22-rdf-syntax-ns#">
   <cc:Work>
    <dc:type rdf:resource="http://purl.org/dc/dcmitype/StillImage"/>
    <dc:date>2024-10-01T13:17:27.447606</dc:date>
    <dc:format>image/svg+xml</dc:format>
    <dc:creator>
     <cc:Agent>
      <dc:title>Matplotlib v3.9.2, https://matplotlib.org/</dc:title>
     </cc:Agent>
    </dc:creator>
   </cc:Work>
  </rdf:RDF>
 </metadata>
 <defs>
  <style type="text/css">*{stroke-linejoin: round; stroke-linecap: butt}</style>
 </defs>
 <g id="figure_1">
  <g id="patch_1">
   <path d="M 0 266.51625 
L 494.203125 266.51625 
L 494.203125 0 
L 0 0 
z
" style="fill: #ffffff"/>
  </g>
  <g id="axes_1">
   <g id="patch_2">
    <path d="M 40.603125 228.96 
L 487.003125 228.96 
L 487.003125 7.2 
L 40.603125 7.2 
z
" style="fill: #ffffff"/>
   </g>
   <g id="matplotlib.axis_1">
    <g id="xtick_1">
     <g id="line2d_1">
      <path d="M 60.894034 228.96 
L 60.894034 7.2 
" clip-path="url(#p0d24e3c68c)" style="fill: none; stroke-dasharray: 0.8,1.32; stroke-dashoffset: 0; stroke: #b0b0b0; stroke-opacity: 0.6; stroke-width: 0.8"/>
     </g>
     <g id="line2d_2">
      <defs>
       <path id="m9814d222c3" d="M 0 0 
L 0 3.5 
" style="stroke: #000000; stroke-width: 0.8"/>
      </defs>
      <g>
       <use xlink:href="#m9814d222c3" x="60.894034" y="228.96" style="stroke: #000000; stroke-width: 0.8"/>
      </g>
     </g>
     <g id="text_1">
      <!-- 0 -->
      <g transform="translate(57.712784 243.558437) scale(0.1 -0.1)">
       <defs>
        <path id="DejaVuSans-30" d="M 2034 4250 
Q 1547 4250 1301 3770 
Q 1056 3291 1056 2328 
Q 1056 1369 1301 889 
Q 1547 409 2034 409 
Q 2525 409 2770 889 
Q 3016 1369 3016 2328 
Q 3016 3291 2770 3770 
Q 2525 4250 2034 4250 
z
M 2034 4750 
Q 2819 4750 3233 4129 
Q 3647 3509 3647 2328 
Q 3647 1150 3233 529 
Q 2819 -91 2034 -91 
Q 1250 -91 836 529 
Q 422 1150 422 2328 
Q 422 3509 836 4129 
Q 1250 4750 2034 4750 
z
" transform="scale(0.015625)"/>
       </defs>
       <use xlink:href="#DejaVuSans-30"/>
      </g>
     </g>
    </g>
    <g id="xtick_2">
     <g id="line2d_3">
      <path d="M 111.684795 228.96 
L 111.684795 7.2 
" clip-path="url(#p0d24e3c68c)" style="fill: none; stroke-dasharray: 0.8,1.32; stroke-dashoffset: 0; stroke: #b0b0b0; stroke-opacity: 0.6; stroke-width: 0.8"/>
     </g>
     <g id="line2d_4">
      <g>
       <use xlink:href="#m9814d222c3" x="111.684795" y="228.96" style="stroke: #000000; stroke-width: 0.8"/>
      </g>
     </g>
     <g id="text_2">
      <!-- 100 -->
      <g transform="translate(102.141045 243.558437) scale(0.1 -0.1)">
       <defs>
        <path id="DejaVuSans-31" d="M 794 531 
L 1825 531 
L 1825 4091 
L 703 3866 
L 703 4441 
L 1819 4666 
L 2450 4666 
L 2450 531 
L 3481 531 
L 3481 0 
L 794 0 
L 794 531 
z
" transform="scale(0.015625)"/>
       </defs>
       <use xlink:href="#DejaVuSans-31"/>
       <use xlink:href="#DejaVuSans-30" x="63.623047"/>
       <use xlink:href="#DejaVuSans-30" x="127.246094"/>
      </g>
     </g>
    </g>
    <g id="xtick_3">
     <g id="line2d_5">
      <path d="M 162.475556 228.96 
L 162.475556 7.2 
" clip-path="url(#p0d24e3c68c)" style="fill: none; stroke-dasharray: 0.8,1.32; stroke-dashoffset: 0; stroke: #b0b0b0; stroke-opacity: 0.6; stroke-width: 0.8"/>
     </g>
     <g id="line2d_6">
      <g>
       <use xlink:href="#m9814d222c3" x="162.475556" y="228.96" style="stroke: #000000; stroke-width: 0.8"/>
      </g>
     </g>
     <g id="text_3">
      <!-- 200 -->
      <g transform="translate(152.931806 243.558437) scale(0.1 -0.1)">
       <defs>
        <path id="DejaVuSans-32" d="M 1228 531 
L 3431 531 
L 3431 0 
L 469 0 
L 469 531 
Q 828 903 1448 1529 
Q 2069 2156 2228 2338 
Q 2531 2678 2651 2914 
Q 2772 3150 2772 3378 
Q 2772 3750 2511 3984 
Q 2250 4219 1831 4219 
Q 1534 4219 1204 4116 
Q 875 4013 500 3803 
L 500 4441 
Q 881 4594 1212 4672 
Q 1544 4750 1819 4750 
Q 2544 4750 2975 4387 
Q 3406 4025 3406 3419 
Q 3406 3131 3298 2873 
Q 3191 2616 2906 2266 
Q 2828 2175 2409 1742 
Q 1991 1309 1228 531 
z
" transform="scale(0.015625)"/>
       </defs>
       <use xlink:href="#DejaVuSans-32"/>
       <use xlink:href="#DejaVuSans-30" x="63.623047"/>
       <use xlink:href="#DejaVuSans-30" x="127.246094"/>
      </g>
     </g>
    </g>
    <g id="xtick_4">
     <g id="line2d_7">
      <path d="M 213.266318 228.96 
L 213.266318 7.2 
" clip-path="url(#p0d24e3c68c)" style="fill: none; stroke-dasharray: 0.8,1.32; stroke-dashoffset: 0; stroke: #b0b0b0; stroke-opacity: 0.6; stroke-width: 0.8"/>
     </g>
     <g id="line2d_8">
      <g>
       <use xlink:href="#m9814d222c3" x="213.266318" y="228.96" style="stroke: #000000; stroke-width: 0.8"/>
      </g>
     </g>
     <g id="text_4">
      <!-- 300 -->
      <g transform="translate(203.722568 243.558437) scale(0.1 -0.1)">
       <defs>
        <path id="DejaVuSans-33" d="M 2597 2516 
Q 3050 2419 3304 2112 
Q 3559 1806 3559 1356 
Q 3559 666 3084 287 
Q 2609 -91 1734 -91 
Q 1441 -91 1130 -33 
Q 819 25 488 141 
L 488 750 
Q 750 597 1062 519 
Q 1375 441 1716 441 
Q 2309 441 2620 675 
Q 2931 909 2931 1356 
Q 2931 1769 2642 2001 
Q 2353 2234 1838 2234 
L 1294 2234 
L 1294 2753 
L 1863 2753 
Q 2328 2753 2575 2939 
Q 2822 3125 2822 3475 
Q 2822 3834 2567 4026 
Q 2313 4219 1838 4219 
Q 1578 4219 1281 4162 
Q 984 4106 628 3988 
L 628 4550 
Q 988 4650 1302 4700 
Q 1616 4750 1894 4750 
Q 2613 4750 3031 4423 
Q 3450 4097 3450 3541 
Q 3450 3153 3228 2886 
Q 3006 2619 2597 2516 
z
" transform="scale(0.015625)"/>
       </defs>
       <use xlink:href="#DejaVuSans-33"/>
       <use xlink:href="#DejaVuSans-30" x="63.623047"/>
       <use xlink:href="#DejaVuSans-30" x="127.246094"/>
      </g>
     </g>
    </g>
    <g id="xtick_5">
     <g id="line2d_9">
      <path d="M 264.057079 228.96 
L 264.057079 7.2 
" clip-path="url(#p0d24e3c68c)" style="fill: none; stroke-dasharray: 0.8,1.32; stroke-dashoffset: 0; stroke: #b0b0b0; stroke-opacity: 0.6; stroke-width: 0.8"/>
     </g>
     <g id="line2d_10">
      <g>
       <use xlink:href="#m9814d222c3" x="264.057079" y="228.96" style="stroke: #000000; stroke-width: 0.8"/>
      </g>
     </g>
     <g id="text_5">
      <!-- 400 -->
      <g transform="translate(254.513329 243.558437) scale(0.1 -0.1)">
       <defs>
        <path id="DejaVuSans-34" d="M 2419 4116 
L 825 1625 
L 2419 1625 
L 2419 4116 
z
M 2253 4666 
L 3047 4666 
L 3047 1625 
L 3713 1625 
L 3713 1100 
L 3047 1100 
L 3047 0 
L 2419 0 
L 2419 1100 
L 313 1100 
L 313 1709 
L 2253 4666 
z
" transform="scale(0.015625)"/>
       </defs>
       <use xlink:href="#DejaVuSans-34"/>
       <use xlink:href="#DejaVuSans-30" x="63.623047"/>
       <use xlink:href="#DejaVuSans-30" x="127.246094"/>
      </g>
     </g>
    </g>
    <g id="xtick_6">
     <g id="line2d_11">
      <path d="M 314.84784 228.96 
L 314.84784 7.2 
" clip-path="url(#p0d24e3c68c)" style="fill: none; stroke-dasharray: 0.8,1.32; stroke-dashoffset: 0; stroke: #b0b0b0; stroke-opacity: 0.6; stroke-width: 0.8"/>
     </g>
     <g id="line2d_12">
      <g>
       <use xlink:href="#m9814d222c3" x="314.84784" y="228.96" style="stroke: #000000; stroke-width: 0.8"/>
      </g>
     </g>
     <g id="text_6">
      <!-- 500 -->
      <g transform="translate(305.30409 243.558437) scale(0.1 -0.1)">
       <defs>
        <path id="DejaVuSans-35" d="M 691 4666 
L 3169 4666 
L 3169 4134 
L 1269 4134 
L 1269 2991 
Q 1406 3038 1543 3061 
Q 1681 3084 1819 3084 
Q 2600 3084 3056 2656 
Q 3513 2228 3513 1497 
Q 3513 744 3044 326 
Q 2575 -91 1722 -91 
Q 1428 -91 1123 -41 
Q 819 9 494 109 
L 494 744 
Q 775 591 1075 516 
Q 1375 441 1709 441 
Q 2250 441 2565 725 
Q 2881 1009 2881 1497 
Q 2881 1984 2565 2268 
Q 2250 2553 1709 2553 
Q 1456 2553 1204 2497 
Q 953 2441 691 2322 
L 691 4666 
z
" transform="scale(0.015625)"/>
       </defs>
       <use xlink:href="#DejaVuSans-35"/>
       <use xlink:href="#DejaVuSans-30" x="63.623047"/>
       <use xlink:href="#DejaVuSans-30" x="127.246094"/>
      </g>
     </g>
    </g>
    <g id="xtick_7">
     <g id="line2d_13">
      <path d="M 365.638601 228.96 
L 365.638601 7.2 
" clip-path="url(#p0d24e3c68c)" style="fill: none; stroke-dasharray: 0.8,1.32; stroke-dashoffset: 0; stroke: #b0b0b0; stroke-opacity: 0.6; stroke-width: 0.8"/>
     </g>
     <g id="line2d_14">
      <g>
       <use xlink:href="#m9814d222c3" x="365.638601" y="228.96" style="stroke: #000000; stroke-width: 0.8"/>
      </g>
     </g>
     <g id="text_7">
      <!-- 600 -->
      <g transform="translate(356.094851 243.558437) scale(0.1 -0.1)">
       <defs>
        <path id="DejaVuSans-36" d="M 2113 2584 
Q 1688 2584 1439 2293 
Q 1191 2003 1191 1497 
Q 1191 994 1439 701 
Q 1688 409 2113 409 
Q 2538 409 2786 701 
Q 3034 994 3034 1497 
Q 3034 2003 2786 2293 
Q 2538 2584 2113 2584 
z
M 3366 4563 
L 3366 3988 
Q 3128 4100 2886 4159 
Q 2644 4219 2406 4219 
Q 1781 4219 1451 3797 
Q 1122 3375 1075 2522 
Q 1259 2794 1537 2939 
Q 1816 3084 2150 3084 
Q 2853 3084 3261 2657 
Q 3669 2231 3669 1497 
Q 3669 778 3244 343 
Q 2819 -91 2113 -91 
Q 1303 -91 875 529 
Q 447 1150 447 2328 
Q 447 3434 972 4092 
Q 1497 4750 2381 4750 
Q 2619 4750 2861 4703 
Q 3103 4656 3366 4563 
z
" transform="scale(0.015625)"/>
       </defs>
       <use xlink:href="#DejaVuSans-36"/>
       <use xlink:href="#DejaVuSans-30" x="63.623047"/>
       <use xlink:href="#DejaVuSans-30" x="127.246094"/>
      </g>
     </g>
    </g>
    <g id="xtick_8">
     <g id="line2d_15">
      <path d="M 416.429362 228.96 
L 416.429362 7.2 
" clip-path="url(#p0d24e3c68c)" style="fill: none; stroke-dasharray: 0.8,1.32; stroke-dashoffset: 0; stroke: #b0b0b0; stroke-opacity: 0.6; stroke-width: 0.8"/>
     </g>
     <g id="line2d_16">
      <g>
       <use xlink:href="#m9814d222c3" x="416.429362" y="228.96" style="stroke: #000000; stroke-width: 0.8"/>
      </g>
     </g>
     <g id="text_8">
      <!-- 700 -->
      <g transform="translate(406.885612 243.558437) scale(0.1 -0.1)">
       <defs>
        <path id="DejaVuSans-37" d="M 525 4666 
L 3525 4666 
L 3525 4397 
L 1831 0 
L 1172 0 
L 2766 4134 
L 525 4134 
L 525 4666 
z
" transform="scale(0.015625)"/>
       </defs>
       <use xlink:href="#DejaVuSans-37"/>
       <use xlink:href="#DejaVuSans-30" x="63.623047"/>
       <use xlink:href="#DejaVuSans-30" x="127.246094"/>
      </g>
     </g>
    </g>
    <g id="xtick_9">
     <g id="line2d_17">
      <path d="M 467.220124 228.96 
L 467.220124 7.2 
" clip-path="url(#p0d24e3c68c)" style="fill: none; stroke-dasharray: 0.8,1.32; stroke-dashoffset: 0; stroke: #b0b0b0; stroke-opacity: 0.6; stroke-width: 0.8"/>
     </g>
     <g id="line2d_18">
      <g>
       <use xlink:href="#m9814d222c3" x="467.220124" y="228.96" style="stroke: #000000; stroke-width: 0.8"/>
      </g>
     </g>
     <g id="text_9">
      <!-- 800 -->
      <g transform="translate(457.676374 243.558437) scale(0.1 -0.1)">
       <defs>
        <path id="DejaVuSans-38" d="M 2034 2216 
Q 1584 2216 1326 1975 
Q 1069 1734 1069 1313 
Q 1069 891 1326 650 
Q 1584 409 2034 409 
Q 2484 409 2743 651 
Q 3003 894 3003 1313 
Q 3003 1734 2745 1975 
Q 2488 2216 2034 2216 
z
M 1403 2484 
Q 997 2584 770 2862 
Q 544 3141 544 3541 
Q 544 4100 942 4425 
Q 1341 4750 2034 4750 
Q 2731 4750 3128 4425 
Q 3525 4100 3525 3541 
Q 3525 3141 3298 2862 
Q 3072 2584 2669 2484 
Q 3125 2378 3379 2068 
Q 3634 1759 3634 1313 
Q 3634 634 3220 271 
Q 2806 -91 2034 -91 
Q 1263 -91 848 271 
Q 434 634 434 1313 
Q 434 1759 690 2068 
Q 947 2378 1403 2484 
z
M 1172 3481 
Q 1172 3119 1398 2916 
Q 1625 2713 2034 2713 
Q 2441 2713 2670 2916 
Q 2900 3119 2900 3481 
Q 2900 3844 2670 4047 
Q 2441 4250 2034 4250 
Q 1625 4250 1398 4047 
Q 1172 3844 1172 3481 
z
" transform="scale(0.015625)"/>
       </defs>
       <use xlink:href="#DejaVuSans-38"/>
       <use xlink:href="#DejaVuSans-30" x="63.623047"/>
       <use xlink:href="#DejaVuSans-30" x="127.246094"/>
      </g>
     </g>
    </g>
    <g id="text_10">
     <!-- steps -->
     <g transform="translate(250.382813 257.236562) scale(0.1 -0.1)">
      <defs>
       <path id="DejaVuSans-73" d="M 2834 3397 
L 2834 2853 
Q 2591 2978 2328 3040 
Q 2066 3103 1784 3103 
Q 1356 3103 1142 2972 
Q 928 2841 928 2578 
Q 928 2378 1081 2264 
Q 1234 2150 1697 2047 
L 1894 2003 
Q 2506 1872 2764 1633 
Q 3022 1394 3022 966 
Q 3022 478 2636 193 
Q 2250 -91 1575 -91 
Q 1294 -91 989 -36 
Q 684 19 347 128 
L 347 722 
Q 666 556 975 473 
Q 1284 391 1588 391 
Q 1994 391 2212 530 
Q 2431 669 2431 922 
Q 2431 1156 2273 1281 
Q 2116 1406 1581 1522 
L 1381 1569 
Q 847 1681 609 1914 
Q 372 2147 372 2553 
Q 372 3047 722 3315 
Q 1072 3584 1716 3584 
Q 2034 3584 2315 3537 
Q 2597 3491 2834 3397 
z
" transform="scale(0.015625)"/>
       <path id="DejaVuSans-74" d="M 1172 4494 
L 1172 3500 
L 2356 3500 
L 2356 3053 
L 1172 3053 
L 1172 1153 
Q 1172 725 1289 603 
Q 1406 481 1766 481 
L 2356 481 
L 2356 0 
L 1766 0 
Q 1100 0 847 248 
Q 594 497 594 1153 
L 594 3053 
L 172 3053 
L 172 3500 
L 594 3500 
L 594 4494 
L 1172 4494 
z
" transform="scale(0.015625)"/>
       <path id="DejaVuSans-65" d="M 3597 1894 
L 3597 1613 
L 953 1613 
Q 991 1019 1311 708 
Q 1631 397 2203 397 
Q 2534 397 2845 478 
Q 3156 559 3463 722 
L 3463 178 
Q 3153 47 2828 -22 
Q 2503 -91 2169 -91 
Q 1331 -91 842 396 
Q 353 884 353 1716 
Q 353 2575 817 3079 
Q 1281 3584 2069 3584 
Q 2775 3584 3186 3129 
Q 3597 2675 3597 1894 
z
M 3022 2063 
Q 3016 2534 2758 2815 
Q 2500 3097 2075 3097 
Q 1594 3097 1305 2825 
Q 1016 2553 972 2059 
L 3022 2063 
z
" transform="scale(0.015625)"/>
       <path id="DejaVuSans-70" d="M 1159 525 
L 1159 -1331 
L 581 -1331 
L 581 3500 
L 1159 3500 
L 1159 2969 
Q 1341 3281 1617 3432 
Q 1894 3584 2278 3584 
Q 2916 3584 3314 3078 
Q 3713 2572 3713 1747 
Q 3713 922 3314 415 
Q 2916 -91 2278 -91 
Q 1894 -91 1617 61 
Q 1341 213 1159 525 
z
M 3116 1747 
Q 3116 2381 2855 2742 
Q 2594 3103 2138 3103 
Q 1681 3103 1420 2742 
Q 1159 2381 1159 1747 
Q 1159 1113 1420 752 
Q 1681 391 2138 391 
Q 2594 391 2855 752 
Q 3116 1113 3116 1747 
z
" transform="scale(0.015625)"/>
      </defs>
      <use xlink:href="#DejaVuSans-73"/>
      <use xlink:href="#DejaVuSans-74" x="52.099609"/>
      <use xlink:href="#DejaVuSans-65" x="91.308594"/>
      <use xlink:href="#DejaVuSans-70" x="152.832031"/>
      <use xlink:href="#DejaVuSans-73" x="216.308594"/>
     </g>
    </g>
   </g>
   <g id="matplotlib.axis_2">
    <g id="ytick_1">
     <g id="line2d_19">
      <path d="M 40.603125 222.505427 
L 487.003125 222.505427 
" clip-path="url(#p0d24e3c68c)" style="fill: none; stroke-dasharray: 0.8,1.32; stroke-dashoffset: 0; stroke: #b0b0b0; stroke-opacity: 0.6; stroke-width: 0.8"/>
     </g>
     <g id="line2d_20">
      <defs>
       <path id="m07ddcb5391" d="M 0 0 
L -3.5 0 
" style="stroke: #000000; stroke-width: 0.8"/>
      </defs>
      <g>
       <use xlink:href="#m07ddcb5391" x="40.603125" y="222.505427" style="stroke: #000000; stroke-width: 0.8"/>
      </g>
     </g>
     <g id="text_11">
      <!-- 0 -->
      <g transform="translate(27.240625 226.304646) scale(0.1 -0.1)">
       <use xlink:href="#DejaVuSans-30"/>
      </g>
     </g>
    </g>
    <g id="ytick_2">
     <g id="line2d_21">
      <path d="M 40.603125 173.641984 
L 487.003125 173.641984 
" clip-path="url(#p0d24e3c68c)" style="fill: none; stroke-dasharray: 0.8,1.32; stroke-dashoffset: 0; stroke: #b0b0b0; stroke-opacity: 0.6; stroke-width: 0.8"/>
     </g>
     <g id="line2d_22">
      <g>
       <use xlink:href="#m07ddcb5391" x="40.603125" y="173.641984" style="stroke: #000000; stroke-width: 0.8"/>
      </g>
     </g>
     <g id="text_12">
      <!-- 20 -->
      <g transform="translate(20.878125 177.441203) scale(0.1 -0.1)">
       <use xlink:href="#DejaVuSans-32"/>
       <use xlink:href="#DejaVuSans-30" x="63.623047"/>
      </g>
     </g>
    </g>
    <g id="ytick_3">
     <g id="line2d_23">
      <path d="M 40.603125 124.77854 
L 487.003125 124.77854 
" clip-path="url(#p0d24e3c68c)" style="fill: none; stroke-dasharray: 0.8,1.32; stroke-dashoffset: 0; stroke: #b0b0b0; stroke-opacity: 0.6; stroke-width: 0.8"/>
     </g>
     <g id="line2d_24">
      <g>
       <use xlink:href="#m07ddcb5391" x="40.603125" y="124.77854" style="stroke: #000000; stroke-width: 0.8"/>
      </g>
     </g>
     <g id="text_13">
      <!-- 40 -->
      <g transform="translate(20.878125 128.577759) scale(0.1 -0.1)">
       <use xlink:href="#DejaVuSans-34"/>
       <use xlink:href="#DejaVuSans-30" x="63.623047"/>
      </g>
     </g>
    </g>
    <g id="ytick_4">
     <g id="line2d_25">
      <path d="M 40.603125 75.915097 
L 487.003125 75.915097 
" clip-path="url(#p0d24e3c68c)" style="fill: none; stroke-dasharray: 0.8,1.32; stroke-dashoffset: 0; stroke: #b0b0b0; stroke-opacity: 0.6; stroke-width: 0.8"/>
     </g>
     <g id="line2d_26">
      <g>
       <use xlink:href="#m07ddcb5391" x="40.603125" y="75.915097" style="stroke: #000000; stroke-width: 0.8"/>
      </g>
     </g>
     <g id="text_14">
      <!-- 60 -->
      <g transform="translate(20.878125 79.714316) scale(0.1 -0.1)">
       <use xlink:href="#DejaVuSans-36"/>
       <use xlink:href="#DejaVuSans-30" x="63.623047"/>
      </g>
     </g>
    </g>
    <g id="ytick_5">
     <g id="line2d_27">
      <path d="M 40.603125 27.051653 
L 487.003125 27.051653 
" clip-path="url(#p0d24e3c68c)" style="fill: none; stroke-dasharray: 0.8,1.32; stroke-dashoffset: 0; stroke: #b0b0b0; stroke-opacity: 0.6; stroke-width: 0.8"/>
     </g>
     <g id="line2d_28">
      <g>
       <use xlink:href="#m07ddcb5391" x="40.603125" y="27.051653" style="stroke: #000000; stroke-width: 0.8"/>
      </g>
     </g>
     <g id="text_15">
      <!-- 80 -->
      <g transform="translate(20.878125 30.850872) scale(0.1 -0.1)">
       <use xlink:href="#DejaVuSans-38"/>
       <use xlink:href="#DejaVuSans-30" x="63.623047"/>
      </g>
     </g>
    </g>
    <g id="text_16">
     <!-- MSE -->
     <g transform="translate(14.798438 128.727656) rotate(-90) scale(0.1 -0.1)">
      <defs>
       <path id="DejaVuSans-4d" d="M 628 4666 
L 1569 4666 
L 2759 1491 
L 3956 4666 
L 4897 4666 
L 4897 0 
L 4281 0 
L 4281 4097 
L 3078 897 
L 2444 897 
L 1241 4097 
L 1241 0 
L 628 0 
L 628 4666 
z
" transform="scale(0.015625)"/>
       <path id="DejaVuSans-53" d="M 3425 4513 
L 3425 3897 
Q 3066 4069 2747 4153 
Q 2428 4238 2131 4238 
Q 1616 4238 1336 4038 
Q 1056 3838 1056 3469 
Q 1056 3159 1242 3001 
Q 1428 2844 1947 2747 
L 2328 2669 
Q 3034 2534 3370 2195 
Q 3706 1856 3706 1288 
Q 3706 609 3251 259 
Q 2797 -91 1919 -91 
Q 1588 -91 1214 -16 
Q 841 59 441 206 
L 441 856 
Q 825 641 1194 531 
Q 1563 422 1919 422 
Q 2459 422 2753 634 
Q 3047 847 3047 1241 
Q 3047 1584 2836 1778 
Q 2625 1972 2144 2069 
L 1759 2144 
Q 1053 2284 737 2584 
Q 422 2884 422 3419 
Q 422 4038 858 4394 
Q 1294 4750 2059 4750 
Q 2388 4750 2728 4690 
Q 3069 4631 3425 4513 
z
" transform="scale(0.015625)"/>
       <path id="DejaVuSans-45" d="M 628 4666 
L 3578 4666 
L 3578 4134 
L 1259 4134 
L 1259 2753 
L 3481 2753 
L 3481 2222 
L 1259 2222 
L 1259 531 
L 3634 531 
L 3634 0 
L 628 0 
L 628 4666 
z
" transform="scale(0.015625)"/>
      </defs>
      <use xlink:href="#DejaVuSans-4d"/>
      <use xlink:href="#DejaVuSans-53" x="86.279297"/>
      <use xlink:href="#DejaVuSans-45" x="149.755859"/>
     </g>
    </g>
   </g>
   <g id="line2d_29">
    <path d="M 60.894034 17.28 
L 61.401942 133.448027 
L 61.909849 124.819271 
L 62.417757 166.624096 
L 62.925665 174.044013 
L 63.433572 172.635173 
L 63.94148 195.981532 
L 64.449387 194.02982 
L 64.957295 208.197389 
L 65.465203 186.886037 
L 65.97311 177.789933 
L 66.481018 179.618386 
L 66.988925 206.199982 
L 67.496833 209.911308 
L 68.004741 178.734105 
L 68.512648 191.88606 
L 69.020556 170.944811 
L 69.528463 203.545227 
L 70.036371 207.342877 
L 70.544279 199.908186 
L 71.052186 212.162863 
L 71.560094 205.405632 
L 72.068002 212.776215 
L 72.575909 208.204376 
L 73.083817 209.990795 
L 73.591724 204.32717 
L 74.099632 210.632852 
L 74.60754 212.077881 
L 75.115447 212.219166 
L 75.623355 207.358329 
L 76.131262 206.494822 
L 76.63917 204.061384 
L 77.147078 207.323044 
L 77.654985 205.384438 
L 78.162893 209.47772 
L 78.670801 214.657548 
L 79.178708 204.056862 
L 80.194523 214.480388 
L 80.702431 211.534509 
L 81.210339 213.781603 
L 81.718246 210.154491 
L 82.226154 202.112979 
L 82.734061 203.535113 
L 83.241969 196.880006 
L 83.749877 206.561779 
L 84.257784 211.591073 
L 85.273599 210.634134 
L 85.781507 200.379387 
L 86.289415 203.226861 
L 86.797322 213.158644 
L 87.813138 199.048796 
L 88.321045 199.687795 
L 88.828953 203.14532 
L 89.33686 214.882436 
L 89.844768 202.947428 
L 90.352676 207.655423 
L 90.860583 206.21105 
L 91.368491 210.386201 
L 91.876398 212.270318 
L 92.384306 197.80653 
L 92.892214 212.850521 
L 93.400121 214.896943 
L 94.415936 208.792689 
L 94.923844 213.174936 
L 95.431752 210.834887 
L 95.939659 214.506241 
L 96.447567 212.384298 
L 96.955475 208.161258 
L 97.463382 208.054482 
L 97.97129 202.895371 
L 98.479197 199.601054 
L 98.987105 208.148569 
L 99.495013 208.469756 
L 100.00292 215.457044 
L 100.510828 214.502838 
L 101.018735 210.706742 
L 101.526643 213.959774 
L 102.034551 213.536434 
L 102.542458 215.487513 
L 103.050366 212.609232 
L 103.558273 215.272824 
L 104.066181 196.659337 
L 104.574089 209.821397 
L 105.081996 209.446401 
L 105.589904 209.739962 
L 106.097812 213.416346 
L 106.605719 213.074649 
L 107.113627 213.526527 
L 107.621534 205.744464 
L 108.129442 209.9232 
L 108.63735 205.807024 
L 109.145257 216.99306 
L 109.653165 215.713327 
L 110.161072 204.041864 
L 110.66898 212.376257 
L 111.176888 215.083264 
L 111.684795 207.983485 
L 112.192703 213.225744 
L 112.70061 213.18996 
L 113.208518 206.65908 
L 113.716426 211.444422 
L 114.224333 214.059239 
L 114.732241 207.543587 
L 115.240149 211.632935 
L 115.748056 207.223685 
L 116.255964 214.767277 
L 116.763871 209.975166 
L 117.271779 213.080542 
L 117.779687 214.750284 
L 118.287594 214.250985 
L 118.795502 213.272022 
L 119.303409 208.748754 
L 119.811317 213.219103 
L 120.319225 214.945769 
L 120.827132 212.92765 
L 121.33504 212.812956 
L 121.842948 206.127067 
L 122.350855 214.097799 
L 123.36667 194.034653 
L 123.874578 212.408002 
L 124.382486 214.866071 
L 124.890393 218.06847 
L 125.398301 214.077389 
L 125.906208 208.1563 
L 126.414116 217.496558 
L 126.922024 211.160311 
L 127.429931 215.158601 
L 127.937839 210.427361 
L 128.445746 210.801508 
L 128.953654 209.810991 
L 129.461562 215.177014 
L 129.969469 210.804126 
L 130.477377 209.202291 
L 130.985285 213.10798 
L 131.493192 209.809118 
L 132.0011 214.040653 
L 132.509007 212.299615 
L 133.016915 209.484761 
L 133.524823 214.549878 
L 134.03273 211.517647 
L 134.540638 195.745739 
L 135.048545 209.969844 
L 135.556453 211.800244 
L 136.064361 215.013058 
L 136.572268 214.323563 
L 137.080176 204.402287 
L 137.588083 213.746015 
L 138.095991 213.311568 
L 138.603899 211.685061 
L 139.111806 211.894848 
L 139.619714 208.774552 
L 140.127622 215.911854 
L 140.635529 215.574215 
L 141.143437 214.585331 
L 141.651344 215.628849 
L 142.159252 216.051816 
L 142.66716 216.05546 
L 143.175067 216.450391 
L 144.69879 214.253603 
L 145.206698 213.363768 
L 145.714605 213.043471 
L 146.222513 213.239841 
L 146.73042 215.865119 
L 148.254143 210.423571 
L 148.762051 213.593522 
L 149.269959 213.958291 
L 149.777866 206.867595 
L 150.285774 214.087368 
L 150.793681 214.679693 
L 151.301589 215.884823 
L 151.809497 215.566616 
L 152.317404 213.157173 
L 152.825312 212.866593 
L 153.333219 213.971607 
L 153.841127 214.579947 
L 154.349035 212.265461 
L 154.856942 216.312775 
L 155.36485 213.503377 
L 155.872757 217.348751 
L 156.380665 212.378517 
L 156.888573 213.967031 
L 157.39648 210.730308 
L 157.904388 215.507094 
L 158.412296 211.720833 
L 158.920203 215.53017 
L 159.428111 209.890803 
L 159.936018 212.698949 
L 160.443926 214.476441 
L 160.951834 215.136445 
L 161.459741 213.533821 
L 161.967649 214.778985 
L 162.475556 214.618666 
L 162.983464 210.145845 
L 163.491372 212.637383 
L 163.999279 213.736075 
L 164.507187 212.049285 
L 165.015095 215.453822 
L 165.523002 214.39845 
L 166.03091 213.752939 
L 166.538817 217.14416 
L 167.046725 211.610015 
L 167.554633 216.852396 
L 168.06254 214.722907 
L 168.570448 211.410265 
L 170.094171 216.633341 
L 170.602078 212.616126 
L 171.109986 217.77018 
L 171.617893 212.366598 
L 172.125801 215.163278 
L 172.633709 211.935021 
L 173.141616 209.475257 
L 173.649524 213.732472 
L 174.157432 211.480633 
L 174.665339 214.242283 
L 175.173247 214.186647 
L 175.681154 210.141954 
L 176.189062 213.473995 
L 176.69697 215.347139 
L 177.204877 214.11309 
L 177.712785 214.528497 
L 178.220692 213.034784 
L 178.7286 206.267317 
L 179.236508 213.5935 
L 180.252323 213.846987 
L 180.76023 208.483197 
L 181.268138 212.051437 
L 181.776046 211.559022 
L 182.283953 213.608068 
L 182.791861 214.176381 
L 183.299769 213.819689 
L 183.807676 214.733944 
L 184.315584 214.874916 
L 185.331399 210.796103 
L 185.839307 215.307701 
L 186.855122 218.88 
L 187.363029 216.577357 
L 187.870937 216.257694 
L 188.378845 218.12809 
L 188.886752 212.750164 
L 189.39466 217.1249 
L 189.902567 214.778422 
L 190.410475 198.213777 
L 190.918383 209.526801 
L 191.42629 214.09154 
L 191.934198 211.615242 
L 192.442106 213.047236 
L 192.950013 214.835445 
L 193.457921 209.030324 
L 193.965828 217.654388 
L 194.473736 216.715748 
L 194.981644 214.909292 
L 195.489551 214.240138 
L 195.997459 209.301151 
L 196.505366 216.613215 
L 197.013274 211.603422 
L 197.521182 213.126274 
L 198.029089 211.892135 
L 198.536997 213.262727 
L 199.044904 214.176729 
L 199.552812 216.026062 
L 200.06072 215.691839 
L 200.568627 213.455573 
L 201.076535 213.238947 
L 201.584443 213.66217 
L 202.09235 213.087801 
L 202.600258 214.312245 
L 203.108165 216.162177 
L 203.616073 215.830339 
L 204.123981 211.52747 
L 205.139796 217.390748 
L 205.647703 213.826104 
L 206.155611 212.582525 
L 206.663519 210.46421 
L 207.171426 217.359346 
L 207.679334 213.364171 
L 208.187242 216.051241 
L 208.695149 210.028606 
L 209.203057 213.791158 
L 209.710964 212.960577 
L 210.218872 212.858958 
L 210.72678 213.649956 
L 211.742595 213.392202 
L 212.250502 215.857841 
L 213.266318 209.219949 
L 213.774225 216.054351 
L 214.282133 212.918754 
L 214.79004 215.828375 
L 215.297948 214.800699 
L 215.805856 213.234215 
L 216.821671 212.354816 
L 217.329579 215.516393 
L 217.837486 215.812818 
L 218.345394 197.726387 
L 218.853301 217.011983 
L 219.361209 214.859698 
L 219.869117 213.880704 
L 220.377024 210.129775 
L 220.884932 215.367516 
L 221.392839 214.647444 
L 221.900747 204.730332 
L 222.408655 212.07221 
L 222.916562 210.760988 
L 223.42447 213.350289 
L 223.932377 210.515947 
L 224.440285 211.114791 
L 224.948193 215.344956 
L 225.4561 214.596259 
L 225.964008 209.939071 
L 226.471916 213.19954 
L 226.979823 215.366758 
L 227.487731 215.01217 
L 227.995638 215.229299 
L 228.503546 211.20755 
L 229.011454 216.232745 
L 230.027269 215.743867 
L 230.535176 214.696585 
L 231.043084 214.019386 
L 231.550992 214.616747 
L 232.058899 212.442772 
L 232.566807 215.571178 
L 233.582622 214.203399 
L 234.09053 216.683023 
L 234.598437 216.929131 
L 235.106345 212.80775 
L 235.614253 214.380424 
L 236.12216 214.785047 
L 236.630068 213.829264 
L 237.137975 216.776084 
L 237.645883 215.292428 
L 238.153791 215.495818 
L 238.661698 212.923951 
L 239.169606 214.175901 
L 239.677513 215.747386 
L 240.185421 211.871944 
L 240.693329 217.150392 
L 241.201236 212.136444 
L 241.709144 210.93089 
L 242.217051 210.844644 
L 242.724959 215.049834 
L 243.232867 215.905428 
L 243.740774 215.158676 
L 244.248682 213.054437 
L 244.75659 213.011283 
L 245.264497 216.421561 
L 245.772405 209.59022 
L 246.280312 214.785351 
L 246.78822 216.825202 
L 247.296128 212.356699 
L 247.804035 215.146981 
L 248.311943 216.680134 
L 248.81985 215.330987 
L 249.327758 216.634058 
L 249.835666 213.945451 
L 250.343573 212.800266 
L 250.851481 212.372613 
L 251.359389 210.578692 
L 251.867296 216.538933 
L 252.375204 213.842462 
L 252.883111 213.01096 
L 253.391019 215.194866 
L 253.898927 214.123637 
L 254.406834 216.749041 
L 254.914742 214.786827 
L 255.422649 215.179871 
L 255.930557 213.820538 
L 256.438465 213.568803 
L 257.45428 214.733968 
L 257.962187 213.413209 
L 258.470095 214.51863 
L 258.978003 213.565539 
L 259.48591 216.09997 
L 259.993818 216.391496 
L 260.501726 216.495262 
L 261.009633 214.135632 
L 261.517541 209.018674 
L 262.025448 215.785319 
L 262.533356 214.708383 
L 263.041264 217.43621 
L 263.549171 216.40989 
L 264.057079 217.219897 
L 264.564986 216.287672 
L 265.072894 212.739262 
L 265.580802 212.437239 
L 266.088709 211.772259 
L 266.596617 213.412769 
L 267.104524 216.078067 
L 267.612432 216.477252 
L 268.12034 215.38596 
L 268.628247 213.597096 
L 269.136155 215.838731 
L 269.644063 216.898581 
L 270.15197 209.69048 
L 270.659878 214.498316 
L 271.167785 213.472652 
L 271.675693 213.980581 
L 272.183601 213.214699 
L 272.691508 211.775781 
L 273.199416 212.228836 
L 273.707323 216.639218 
L 274.215231 214.641466 
L 274.723139 215.395788 
L 275.231046 213.879654 
L 275.738954 210.25807 
L 276.246861 217.333399 
L 276.754769 214.596639 
L 277.262677 216.955672 
L 277.770584 217.417617 
L 278.278492 212.336423 
L 278.7864 215.670518 
L 279.294307 212.880402 
L 279.802215 211.872466 
L 280.310122 215.391873 
L 280.81803 215.70992 
L 281.325938 212.185815 
L 281.833845 213.936396 
L 282.341753 213.530336 
L 282.84966 212.189949 
L 283.357568 210.070702 
L 283.865476 215.214555 
L 284.373383 216.052266 
L 284.881291 216.433909 
L 285.389199 214.67797 
L 285.897106 212.404146 
L 286.405014 213.080214 
L 286.912921 213.090969 
L 287.420829 213.483892 
L 287.928737 213.669326 
L 288.436644 216.396405 
L 288.944552 214.820372 
L 289.452459 212.803746 
L 289.960367 213.977346 
L 290.468275 216.909829 
L 290.976182 217.367017 
L 291.991997 210.751098 
L 292.499905 209.897285 
L 293.007813 216.959094 
L 293.51572 209.989732 
L 294.023628 215.770928 
L 294.531536 213.222453 
L 295.039443 213.804756 
L 295.547351 211.670205 
L 296.055258 216.133445 
L 296.563166 215.968618 
L 297.071074 215.363182 
L 297.578981 216.929684 
L 298.086889 216.605689 
L 298.594796 211.012444 
L 299.102704 212.233659 
L 299.610612 215.958127 
L 300.118519 215.311204 
L 300.626427 211.20158 
L 301.134334 213.772044 
L 301.642242 215.667094 
L 302.15015 209.533963 
L 302.658057 210.792955 
L 303.165965 215.867097 
L 303.673873 215.660835 
L 304.18178 209.613817 
L 304.689688 213.569251 
L 305.197595 215.425052 
L 306.213411 215.497478 
L 306.721318 213.110013 
L 307.229226 217.214822 
L 307.737133 213.946906 
L 308.245041 215.451581 
L 308.752949 214.883542 
L 309.260856 212.832896 
L 309.768764 216.378607 
L 310.276671 216.766906 
L 310.784579 214.212346 
L 311.292487 215.148212 
L 311.800394 212.461194 
L 312.308302 214.943568 
L 312.81621 214.381908 
L 313.324117 213.459481 
L 313.832025 216.38829 
L 314.339932 211.774094 
L 314.84784 215.896071 
L 315.355748 213.042039 
L 315.863655 213.576704 
L 316.371563 213.30041 
L 316.87947 218.029139 
L 317.387378 216.910982 
L 317.895286 209.83548 
L 318.403193 215.426601 
L 319.419008 215.574728 
L 319.926916 213.720339 
L 320.434824 212.784664 
L 320.942731 208.623609 
L 321.450639 215.024093 
L 321.958547 216.288999 
L 322.974362 210.757458 
L 323.482269 210.261364 
L 323.990177 215.758254 
L 324.498085 217.155139 
L 325.005992 214.433438 
L 325.5139 214.246313 
L 326.021807 211.234925 
L 327.037623 216.000311 
L 327.54553 216.793083 
L 328.053438 214.72548 
L 328.561346 214.962217 
L 329.069253 211.857166 
L 329.577161 215.650652 
L 330.085068 216.140873 
L 330.592976 217.567616 
L 331.100884 213.412285 
L 331.608791 211.735208 
L 332.116699 216.905151 
L 332.624606 215.942582 
L 333.640422 215.326342 
L 334.148329 214.254429 
L 334.656237 214.401555 
L 335.164144 215.349328 
L 335.672052 216.601485 
L 336.17996 218.260061 
L 336.687867 213.325404 
L 337.195775 217.548259 
L 337.703683 213.129375 
L 338.21159 212.644845 
L 339.227405 216.232794 
L 339.735313 214.57287 
L 340.243221 214.936913 
L 340.751128 216.239756 
L 341.259036 215.160402 
L 341.766943 215.903497 
L 342.274851 212.807624 
L 342.782759 212.175369 
L 343.290666 215.017011 
L 343.798574 214.430007 
L 344.306481 215.003594 
L 344.814389 212.594567 
L 345.322297 214.787087 
L 345.830204 215.600049 
L 346.338112 210.081048 
L 346.84602 214.651741 
L 347.353927 214.33357 
L 347.861835 216.454113 
L 348.369742 214.387902 
L 348.87765 215.28032 
L 349.385558 215.695555 
L 349.893465 209.62074 
L 350.401373 213.073833 
L 350.90928 215.463947 
L 351.417188 213.549835 
L 351.925096 213.891871 
L 352.433003 218.564347 
L 352.940911 215.882022 
L 353.448818 217.695086 
L 353.956726 212.663333 
L 354.972541 216.891286 
L 355.480449 213.977291 
L 355.988357 215.969833 
L 356.496264 213.908561 
L 357.004172 213.851808 
L 357.512079 217.848887 
L 358.019987 216.842614 
L 358.527895 217.24251 
L 359.035802 214.012822 
L 359.54371 215.891269 
L 360.559525 213.50572 
L 361.067433 212.916779 
L 361.57534 212.753728 
L 362.083248 213.55942 
L 362.591155 217.367652 
L 363.099063 217.017238 
L 363.606971 217.148501 
L 364.114878 213.519894 
L 364.622786 216.899441 
L 365.130694 215.594928 
L 365.638601 216.112474 
L 366.146509 210.324531 
L 366.654416 210.748802 
L 367.162324 217.461902 
L 367.670232 215.016334 
L 368.178139 214.307062 
L 368.686047 215.084285 
L 369.193954 214.932239 
L 369.701862 216.141934 
L 370.20977 215.653433 
L 370.717677 215.403603 
L 371.225585 214.922878 
L 371.733493 214.780535 
L 372.2414 216.522386 
L 372.749308 212.828986 
L 373.257215 216.507842 
L 373.765123 215.104626 
L 374.273031 216.673932 
L 374.780938 216.11532 
L 375.288846 216.50306 
L 375.796753 212.876315 
L 376.304661 213.061803 
L 376.812569 217.207936 
L 377.320476 214.226326 
L 377.828384 213.403918 
L 378.844199 214.615329 
L 379.352107 212.130408 
L 380.367922 215.35541 
L 380.87583 213.19175 
L 381.383737 213.206495 
L 381.891645 213.797914 
L 382.399552 215.9345 
L 382.90746 211.961525 
L 383.415368 217.503938 
L 383.923275 216.299909 
L 384.431183 214.29226 
L 384.93909 217.085579 
L 385.446998 214.677386 
L 385.954906 212.935599 
L 386.462813 212.947258 
L 386.970721 216.408245 
L 387.478628 214.382653 
L 387.986536 212.928994 
L 388.494444 212.839124 
L 389.002351 214.235929 
L 389.510259 212.582757 
L 390.018167 211.93361 
L 390.526074 212.046198 
L 391.033982 216.005247 
L 391.541889 215.514315 
L 392.049797 210.393923 
L 392.557705 216.2979 
L 393.065612 214.875682 
L 393.57352 217.33457 
L 394.081427 209.183137 
L 394.589335 215.330632 
L 395.60515 213.226999 
L 396.113058 213.273587 
L 396.620965 215.763269 
L 397.128873 213.026184 
L 397.636781 215.289104 
L 398.144688 214.479933 
L 398.652596 218.060291 
L 399.160504 215.4052 
L 400.176319 213.685834 
L 400.684226 215.581518 
L 401.192134 215.91326 
L 401.700042 213.058544 
L 402.207949 216.994549 
L 402.715857 216.342274 
L 403.223764 209.951394 
L 403.731672 214.542373 
L 404.23958 216.052352 
L 404.747487 213.235697 
L 405.255395 217.557879 
L 405.763302 210.408508 
L 406.27121 217.93894 
L 406.779118 216.194837 
L 407.287025 212.583765 
L 407.794933 211.643555 
L 408.302841 214.996159 
L 409.318656 213.23857 
L 409.826563 211.888756 
L 410.334471 217.473443 
L 410.842379 213.321599 
L 411.350286 213.919388 
L 411.858194 213.768894 
L 412.366101 213.925995 
L 412.874009 214.297187 
L 413.381917 216.24667 
L 413.889824 215.984648 
L 414.397732 217.548554 
L 414.90564 215.817376 
L 415.413547 213.060138 
L 415.921455 215.030444 
L 416.429362 215.030074 
L 416.93727 210.731019 
L 417.445178 216.501632 
L 417.953085 215.27905 
L 418.460993 215.122355 
L 418.9689 215.648082 
L 419.476808 215.700944 
L 419.984716 214.412221 
L 420.492623 215.931192 
L 421.000531 211.768755 
L 421.508438 216.449011 
L 422.016346 212.533195 
L 423.032161 215.449969 
L 423.540069 211.444071 
L 424.047977 214.648324 
L 424.555884 216.482981 
L 425.063792 214.300471 
L 425.571699 216.46499 
L 426.079607 212.801127 
L 426.587515 214.861079 
L 427.095422 213.883538 
L 427.60333 214.299539 
L 428.111237 212.024233 
L 428.619145 213.78732 
L 429.127053 216.969884 
L 429.63496 217.292155 
L 430.142868 216.105638 
L 430.650775 213.298951 
L 431.666591 216.59916 
L 432.682406 211.44192 
L 433.190314 213.932765 
L 433.698221 212.927388 
L 434.206129 213.486307 
L 434.714036 215.006954 
L 435.729852 213.081938 
L 436.237759 211.181408 
L 436.745667 214.852019 
L 437.253574 213.588883 
L 437.761482 210.985698 
L 438.26939 204.725194 
L 438.777297 215.65518 
L 439.285205 215.587679 
L 439.793112 215.9558 
L 440.30102 211.855827 
L 440.808928 215.091417 
L 441.316835 216.583132 
L 441.824743 211.915542 
L 442.840558 215.187679 
L 443.348466 216.203845 
L 443.856373 213.795959 
L 444.364281 210.597929 
L 444.872189 212.660795 
L 445.380096 213.93889 
L 445.888004 209.598575 
L 446.395911 213.743056 
L 446.903819 210.243547 
L 447.411727 211.712684 
L 447.919634 214.620411 
L 448.427542 214.130158 
L 448.935449 215.946582 
L 449.443357 214.801622 
L 449.951265 214.19671 
L 450.459172 217.134568 
L 450.96708 215.507992 
L 451.474988 212.219289 
L 451.982895 213.555109 
L 452.490803 213.942069 
L 452.99871 213.804458 
L 453.506618 214.551688 
L 454.014526 211.995601 
L 454.522433 212.460907 
L 455.030341 215.914654 
L 455.538248 216.748191 
L 456.046156 214.613926 
L 456.554064 216.70122 
L 457.061971 215.143529 
L 457.569879 215.265472 
L 458.077787 215.254242 
L 458.585694 213.109553 
L 459.093602 216.310417 
L 459.601509 214.537692 
L 460.109417 213.61552 
L 460.617325 217.416904 
L 461.125232 208.962254 
L 461.63314 215.856399 
L 462.141047 216.894772 
L 462.648955 216.474751 
L 463.156863 216.882363 
L 463.66477 213.715594 
L 464.172678 214.928684 
L 465.188493 214.157369 
L 465.696401 215.047563 
L 466.204308 215.063577 
L 466.712216 215.397112 
L 466.712216 215.397112 
" clip-path="url(#p0d24e3c68c)" style="fill: none; stroke: #1f77b4; stroke-width: 1.5; stroke-linecap: square"/>
   </g>
   <g id="patch_3">
    <path d="M 40.603125 228.96 
L 40.603125 7.2 
" style="fill: none; stroke: #000000; stroke-width: 0.8; stroke-linejoin: miter; stroke-linecap: square"/>
   </g>
   <g id="patch_4">
    <path d="M 487.003125 228.96 
L 487.003125 7.2 
" style="fill: none; stroke: #000000; stroke-width: 0.8; stroke-linejoin: miter; stroke-linecap: square"/>
   </g>
   <g id="patch_5">
    <path d="M 40.603125 228.96 
L 487.003125 228.96 
" style="fill: none; stroke: #000000; stroke-width: 0.8; stroke-linejoin: miter; stroke-linecap: square"/>
   </g>
   <g id="patch_6">
    <path d="M 40.603125 7.2 
L 487.003125 7.2 
" style="fill: none; stroke: #000000; stroke-width: 0.8; stroke-linejoin: miter; stroke-linecap: square"/>
   </g>
   <g id="legend_1">
    <g id="patch_7">
     <path d="M 424.728125 29.878125 
L 480.003125 29.878125 
Q 482.003125 29.878125 482.003125 27.878125 
L 482.003125 14.2 
Q 482.003125 12.2 480.003125 12.2 
L 424.728125 12.2 
Q 422.728125 12.2 422.728125 14.2 
L 422.728125 27.878125 
Q 422.728125 29.878125 424.728125 29.878125 
z
" style="fill: #ffffff; opacity: 0.8; stroke: #cccccc; stroke-linejoin: miter"/>
    </g>
    <g id="line2d_30">
     <path d="M 426.728125 20.298437 
L 436.728125 20.298437 
L 446.728125 20.298437 
" style="fill: none; stroke: #1f77b4; stroke-width: 1.5; stroke-linecap: square"/>
    </g>
    <g id="text_17">
     <!-- train -->
     <g transform="translate(454.728125 23.798437) scale(0.1 -0.1)">
      <defs>
       <path id="DejaVuSans-72" d="M 2631 2963 
Q 2534 3019 2420 3045 
Q 2306 3072 2169 3072 
Q 1681 3072 1420 2755 
Q 1159 2438 1159 1844 
L 1159 0 
L 581 0 
L 581 3500 
L 1159 3500 
L 1159 2956 
Q 1341 3275 1631 3429 
Q 1922 3584 2338 3584 
Q 2397 3584 2469 3576 
Q 2541 3569 2628 3553 
L 2631 2963 
z
" transform="scale(0.015625)"/>
       <path id="DejaVuSans-61" d="M 2194 1759 
Q 1497 1759 1228 1600 
Q 959 1441 959 1056 
Q 959 750 1161 570 
Q 1363 391 1709 391 
Q 2188 391 2477 730 
Q 2766 1069 2766 1631 
L 2766 1759 
L 2194 1759 
z
M 3341 1997 
L 3341 0 
L 2766 0 
L 2766 531 
Q 2569 213 2275 61 
Q 1981 -91 1556 -91 
Q 1019 -91 701 211 
Q 384 513 384 1019 
Q 384 1609 779 1909 
Q 1175 2209 1959 2209 
L 2766 2209 
L 2766 2266 
Q 2766 2663 2505 2880 
Q 2244 3097 1772 3097 
Q 1472 3097 1187 3025 
Q 903 2953 641 2809 
L 641 3341 
Q 956 3463 1253 3523 
Q 1550 3584 1831 3584 
Q 2591 3584 2966 3190 
Q 3341 2797 3341 1997 
z
" transform="scale(0.015625)"/>
       <path id="DejaVuSans-69" d="M 603 3500 
L 1178 3500 
L 1178 0 
L 603 0 
L 603 3500 
z
M 603 4863 
L 1178 4863 
L 1178 4134 
L 603 4134 
L 603 4863 
z
" transform="scale(0.015625)"/>
       <path id="DejaVuSans-6e" d="M 3513 2113 
L 3513 0 
L 2938 0 
L 2938 2094 
Q 2938 2591 2744 2837 
Q 2550 3084 2163 3084 
Q 1697 3084 1428 2787 
Q 1159 2491 1159 1978 
L 1159 0 
L 581 0 
L 581 3500 
L 1159 3500 
L 1159 2956 
Q 1366 3272 1645 3428 
Q 1925 3584 2291 3584 
Q 2894 3584 3203 3211 
Q 3513 2838 3513 2113 
z
" transform="scale(0.015625)"/>
      </defs>
      <use xlink:href="#DejaVuSans-74"/>
      <use xlink:href="#DejaVuSans-72" x="39.208984"/>
      <use xlink:href="#DejaVuSans-61" x="80.322266"/>
      <use xlink:href="#DejaVuSans-69" x="141.601562"/>
      <use xlink:href="#DejaVuSans-6e" x="169.384766"/>
     </g>
    </g>
   </g>
  </g>
 </g>
 <defs>
  <clipPath id="p0d24e3c68c">
   <rect x="40.603125" y="7.2" width="446.4" height="221.76"/>
  </clipPath>
 </defs>
</svg>