<?xml version="1.0" encoding="utf-8" standalone="no"?>
<!DOCTYPE svg PUBLIC "-//W3C//DTD SVG 1.1//EN"
  "http://www.w3.org/Graphics/SVG/1.1/DTD/svg11.dtd">
<svg xmlns:xlink="http://www.w3.org/1999/xlink" width="486.8875pt" height="212.51625pt" viewBox="0 0 486.8875 212.51625" xmlns="http://www.w3.org/2000/svg" version="1.1">
 <metadata>
  <rdf:RDF xmlns:dc="http://purl.org/dc/elements/1.1/" xmlns:cc="http://creativecommons.org/ns#" xmlns:rdf="http://www.w3.org/1999/02/22-rdf-syntax-ns#">
   <cc:Work>
    <dc:type rdf:resource="http://purl.org/dc/dcmitype/StillImage"/>
    <dc:date>2023-03-29T02:52:08.048359</dc:date>
    <dc:format>image/svg+xml</dc:format>
    <dc:creator>
     <cc:Agent>
      <dc:title>Matplotlib v3.7.0, https://matplotlib.org/</dc:title>
     </cc:Agent>
    </dc:creator>
   </cc:Work>
  </rdf:RDF>
 </metadata>
 <defs>
  <style type="text/css">*{stroke-linejoin: round; stroke-linecap: butt}</style>
 </defs>
 <g id="figure_1">
  <g id="patch_1">
   <path d="M 0 212.51625 
L 486.8875 212.51625 
L 486.8875 0 
L 0 0 
z
" style="fill: #ffffff"/>
  </g>
  <g id="axes_1">
   <g id="patch_2">
    <path d="M 33.2875 188.638125 
L 236.196591 188.638125 
L 236.196591 22.318125 
L 33.2875 22.318125 
z
" style="fill: #ffffff"/>
   </g>
   <g id="patch_3">
    <path d="M 42.51064 188.638125 
L 46.199897 188.638125 
L 46.199897 39.108525 
L 42.51064 39.108525 
z
" clip-path="url(#p6014903c1e)" style="fill: #1f77b4"/>
   </g>
   <g id="patch_4">
    <path d="M 46.199897 188.638125 
L 49.889153 188.638125 
L 49.889153 30.238125 
L 46.199897 30.238125 
z
" clip-path="url(#p6014903c1e)" style="fill: #1f77b4"/>
   </g>
   <g id="patch_5">
    <path d="M 49.889153 188.638125 
L 53.578409 188.638125 
L 53.578409 72.689325 
L 49.889153 72.689325 
z
" clip-path="url(#p6014903c1e)" style="fill: #1f77b4"/>
   </g>
   <g id="patch_6">
    <path d="M 53.578409 188.638125 
L 57.267665 188.638125 
L 57.267665 77.124525 
L 53.578409 77.124525 
z
" clip-path="url(#p6014903c1e)" style="fill: #1f77b4"/>
   </g>
   <g id="patch_7">
    <path d="M 57.267665 188.638125 
L 60.956921 188.638125 
L 60.956921 87.262125 
L 57.267665 87.262125 
z
" clip-path="url(#p6014903c1e)" style="fill: #1f77b4"/>
   </g>
   <g id="patch_8">
    <path d="M 60.956921 188.638125 
L 64.646178 188.638125 
L 64.646178 96.766125 
L 60.956921 96.766125 
z
" clip-path="url(#p6014903c1e)" style="fill: #1f77b4"/>
   </g>
   <g id="patch_9">
    <path d="M 64.646178 188.638125 
L 68.335434 188.638125 
L 68.335434 113.239725 
L 64.646178 113.239725 
z
" clip-path="url(#p6014903c1e)" style="fill: #1f77b4"/>
   </g>
   <g id="patch_10">
    <path d="M 68.335434 188.638125 
L 72.02469 188.638125 
L 72.02469 102.468525 
L 68.335434 102.468525 
z
" clip-path="url(#p6014903c1e)" style="fill: #1f77b4"/>
   </g>
   <g id="patch_11">
    <path d="M 72.02469 188.638125 
L 75.713946 188.638125 
L 75.713946 108.170925 
L 72.02469 108.170925 
z
" clip-path="url(#p6014903c1e)" style="fill: #1f77b4"/>
   </g>
   <g id="patch_12">
    <path d="M 75.713946 188.638125 
L 79.403202 188.638125 
L 79.403202 115.140525 
L 75.713946 115.140525 
z
" clip-path="url(#p6014903c1e)" style="fill: #1f77b4"/>
   </g>
   <g id="patch_13">
    <path d="M 79.403202 188.638125 
L 83.092459 188.638125 
L 83.092459 122.110125 
L 79.403202 122.110125 
z
" clip-path="url(#p6014903c1e)" style="fill: #1f77b4"/>
   </g>
   <g id="patch_14">
    <path d="M 83.092459 188.638125 
L 86.781715 188.638125 
L 86.781715 118.308525 
L 83.092459 118.308525 
z
" clip-path="url(#p6014903c1e)" style="fill: #1f77b4"/>
   </g>
   <g id="patch_15">
    <path d="M 86.781715 188.638125 
L 90.470971 188.638125 
L 90.470971 109.438125 
L 86.781715 109.438125 
z
" clip-path="url(#p6014903c1e)" style="fill: #1f77b4"/>
   </g>
   <g id="patch_16">
    <path d="M 90.470971 188.638125 
L 94.160227 188.638125 
L 94.160227 120.842925 
L 90.470971 120.842925 
z
" clip-path="url(#p6014903c1e)" style="fill: #1f77b4"/>
   </g>
   <g id="patch_17">
    <path d="M 94.160227 188.638125 
L 97.849483 188.638125 
L 97.849483 115.140525 
L 94.160227 115.140525 
z
" clip-path="url(#p6014903c1e)" style="fill: #1f77b4"/>
   </g>
   <g id="patch_18">
    <path d="M 97.849483 188.638125 
L 101.53874 188.638125 
L 101.53874 132.247725 
L 97.849483 132.247725 
z
" clip-path="url(#p6014903c1e)" style="fill: #1f77b4"/>
   </g>
   <g id="patch_19">
    <path d="M 101.53874 188.638125 
L 105.227996 188.638125 
L 105.227996 129.713325 
L 101.53874 129.713325 
z
" clip-path="url(#p6014903c1e)" style="fill: #1f77b4"/>
   </g>
   <g id="patch_20">
    <path d="M 105.227996 188.638125 
L 108.917252 188.638125 
L 108.917252 130.980525 
L 105.227996 130.980525 
z
" clip-path="url(#p6014903c1e)" style="fill: #1f77b4"/>
   </g>
   <g id="patch_21">
    <path d="M 108.917252 188.638125 
L 112.606508 188.638125 
L 112.606508 129.713325 
L 108.917252 129.713325 
z
" clip-path="url(#p6014903c1e)" style="fill: #1f77b4"/>
   </g>
   <g id="patch_22">
    <path d="M 112.606508 188.638125 
L 116.295764 188.638125 
L 116.295764 130.346925 
L 112.606508 130.346925 
z
" clip-path="url(#p6014903c1e)" style="fill: #1f77b4"/>
   </g>
   <g id="patch_23">
    <path d="M 116.295764 188.638125 
L 119.985021 188.638125 
L 119.985021 125.278125 
L 116.295764 125.278125 
z
" clip-path="url(#p6014903c1e)" style="fill: #1f77b4"/>
   </g>
   <g id="patch_24">
    <path d="M 119.985021 188.638125 
L 123.674277 188.638125 
L 123.674277 119.575725 
L 119.985021 119.575725 
z
" clip-path="url(#p6014903c1e)" style="fill: #1f77b4"/>
   </g>
   <g id="patch_25">
    <path d="M 123.674277 188.638125 
L 127.363533 188.638125 
L 127.363533 120.842925 
L 123.674277 120.842925 
z
" clip-path="url(#p6014903c1e)" style="fill: #1f77b4"/>
   </g>
   <g id="patch_26">
    <path d="M 127.363533 188.638125 
L 131.052789 188.638125 
L 131.052789 130.346925 
L 127.363533 130.346925 
z
" clip-path="url(#p6014903c1e)" style="fill: #1f77b4"/>
   </g>
   <g id="patch_27">
    <path d="M 131.052789 188.638125 
L 134.742045 188.638125 
L 134.742045 125.911725 
L 131.052789 125.911725 
z
" clip-path="url(#p6014903c1e)" style="fill: #1f77b4"/>
   </g>
   <g id="patch_28">
    <path d="M 134.742045 188.638125 
L 138.431302 188.638125 
L 138.431302 126.545325 
L 134.742045 126.545325 
z
" clip-path="url(#p6014903c1e)" style="fill: #1f77b4"/>
   </g>
   <g id="patch_29">
    <path d="M 138.431302 188.638125 
L 142.120558 188.638125 
L 142.120558 122.110125 
L 138.431302 122.110125 
z
" clip-path="url(#p6014903c1e)" style="fill: #1f77b4"/>
   </g>
   <g id="patch_30">
    <path d="M 142.120558 188.638125 
L 145.809814 188.638125 
L 145.809814 121.476525 
L 142.120558 121.476525 
z
" clip-path="url(#p6014903c1e)" style="fill: #1f77b4"/>
   </g>
   <g id="patch_31">
    <path d="M 145.809814 188.638125 
L 149.49907 188.638125 
L 149.49907 115.774125 
L 145.809814 115.774125 
z
" clip-path="url(#p6014903c1e)" style="fill: #1f77b4"/>
   </g>
   <g id="patch_32">
    <path d="M 149.49907 188.638125 
L 153.188326 188.638125 
L 153.188326 134.782125 
L 149.49907 134.782125 
z
" clip-path="url(#p6014903c1e)" style="fill: #1f77b4"/>
   </g>
   <g id="patch_33">
    <path d="M 153.188326 188.638125 
L 156.877583 188.638125 
L 156.877583 126.545325 
L 153.188326 126.545325 
z
" clip-path="url(#p6014903c1e)" style="fill: #1f77b4"/>
   </g>
   <g id="patch_34">
    <path d="M 156.877583 188.638125 
L 160.566839 188.638125 
L 160.566839 125.911725 
L 156.877583 125.911725 
z
" clip-path="url(#p6014903c1e)" style="fill: #1f77b4"/>
   </g>
   <g id="patch_35">
    <path d="M 160.566839 188.638125 
L 164.256095 188.638125 
L 164.256095 127.178925 
L 160.566839 127.178925 
z
" clip-path="url(#p6014903c1e)" style="fill: #1f77b4"/>
   </g>
   <g id="patch_36">
    <path d="M 164.256095 188.638125 
L 167.945351 188.638125 
L 167.945351 120.842925 
L 164.256095 120.842925 
z
" clip-path="url(#p6014903c1e)" style="fill: #1f77b4"/>
   </g>
   <g id="patch_37">
    <path d="M 167.945351 188.638125 
L 171.634607 188.638125 
L 171.634607 132.881325 
L 167.945351 132.881325 
z
" clip-path="url(#p6014903c1e)" style="fill: #1f77b4"/>
   </g>
   <g id="patch_38">
    <path d="M 171.634607 188.638125 
L 175.323864 188.638125 
L 175.323864 127.178925 
L 171.634607 127.178925 
z
" clip-path="url(#p6014903c1e)" style="fill: #1f77b4"/>
   </g>
   <g id="patch_39">
    <path d="M 175.323864 188.638125 
L 179.01312 188.638125 
L 179.01312 120.842925 
L 175.323864 120.842925 
z
" clip-path="url(#p6014903c1e)" style="fill: #1f77b4"/>
   </g>
   <g id="patch_40">
    <path d="M 179.01312 188.638125 
L 182.702376 188.638125 
L 182.702376 105.002925 
L 179.01312 105.002925 
z
" clip-path="url(#p6014903c1e)" style="fill: #1f77b4"/>
   </g>
   <g id="patch_41">
    <path d="M 182.702376 188.638125 
L 186.391632 188.638125 
L 186.391632 121.476525 
L 182.702376 121.476525 
z
" clip-path="url(#p6014903c1e)" style="fill: #1f77b4"/>
   </g>
   <g id="patch_42">
    <path d="M 186.391632 188.638125 
L 190.080888 188.638125 
L 190.080888 113.873325 
L 186.391632 113.873325 
z
" clip-path="url(#p6014903c1e)" style="fill: #1f77b4"/>
   </g>
   <g id="patch_43">
    <path d="M 190.080888 188.638125 
L 193.770145 188.638125 
L 193.770145 110.705325 
L 190.080888 110.705325 
z
" clip-path="url(#p6014903c1e)" style="fill: #1f77b4"/>
   </g>
   <g id="patch_44">
    <path d="M 193.770145 188.638125 
L 197.459401 188.638125 
L 197.459401 101.834925 
L 193.770145 101.834925 
z
" clip-path="url(#p6014903c1e)" style="fill: #1f77b4"/>
   </g>
   <g id="patch_45">
    <path d="M 197.459401 188.638125 
L 201.148657 188.638125 
L 201.148657 100.567725 
L 197.459401 100.567725 
z
" clip-path="url(#p6014903c1e)" style="fill: #1f77b4"/>
   </g>
   <g id="patch_46">
    <path d="M 201.148657 188.638125 
L 204.837913 188.638125 
L 204.837913 92.964525 
L 201.148657 92.964525 
z
" clip-path="url(#p6014903c1e)" style="fill: #1f77b4"/>
   </g>
   <g id="patch_47">
    <path d="M 204.837913 188.638125 
L 208.527169 188.638125 
L 208.527169 106.903725 
L 204.837913 106.903725 
z
" clip-path="url(#p6014903c1e)" style="fill: #1f77b4"/>
   </g>
   <g id="patch_48">
    <path d="M 208.527169 188.638125 
L 212.216426 188.638125 
L 212.216426 82.826925 
L 208.527169 82.826925 
z
" clip-path="url(#p6014903c1e)" style="fill: #1f77b4"/>
   </g>
   <g id="patch_49">
    <path d="M 212.216426 188.638125 
L 215.905682 188.638125 
L 215.905682 91.697325 
L 212.216426 91.697325 
z
" clip-path="url(#p6014903c1e)" style="fill: #1f77b4"/>
   </g>
   <g id="patch_50">
    <path d="M 215.905682 188.638125 
L 219.594938 188.638125 
L 219.594938 63.818925 
L 215.905682 63.818925 
z
" clip-path="url(#p6014903c1e)" style="fill: #1f77b4"/>
   </g>
   <g id="patch_51">
    <path d="M 219.594938 188.638125 
L 223.284194 188.638125 
L 223.284194 48.612525 
L 219.594938 48.612525 
z
" clip-path="url(#p6014903c1e)" style="fill: #1f77b4"/>
   </g>
   <g id="patch_52">
    <path d="M 223.284194 188.638125 
L 226.97345 188.638125 
L 226.97345 31.505325 
L 223.284194 31.505325 
z
" clip-path="url(#p6014903c1e)" style="fill: #1f77b4"/>
   </g>
   <g id="matplotlib.axis_1">
    <g id="xtick_1">
     <g id="line2d_1">
      <defs>
       <path id="m0fdffb92f4" d="M 0 0 
L 0 3.5 
" style="stroke: #000000; stroke-width: 0.8"/>
      </defs>
      <g>
       <use xlink:href="#m0fdffb92f4" x="42.472457" y="188.638125" style="stroke: #000000; stroke-width: 0.8"/>
      </g>
     </g>
     <g id="text_1">
      <!-- −1.0 -->
      <g transform="translate(30.331051 203.236563) scale(0.1 -0.1)">
       <defs>
        <path id="DejaVuSans-2212" d="M 678 2272 
L 4684 2272 
L 4684 1741 
L 678 1741 
L 678 2272 
z
" transform="scale(0.015625)"/>
        <path id="DejaVuSans-31" d="M 794 531 
L 1825 531 
L 1825 4091 
L 703 3866 
L 703 4441 
L 1819 4666 
L 2450 4666 
L 2450 531 
L 3481 531 
L 3481 0 
L 794 0 
L 794 531 
z
" transform="scale(0.015625)"/>
        <path id="DejaVuSans-2e" d="M 684 794 
L 1344 794 
L 1344 0 
L 684 0 
L 684 794 
z
" transform="scale(0.015625)"/>
        <path id="DejaVuSans-30" d="M 2034 4250 
Q 1547 4250 1301 3770 
Q 1056 3291 1056 2328 
Q 1056 1369 1301 889 
Q 1547 409 2034 409 
Q 2525 409 2770 889 
Q 3016 1369 3016 2328 
Q 3016 3291 2770 3770 
Q 2525 4250 2034 4250 
z
M 2034 4750 
Q 2819 4750 3233 4129 
Q 3647 3509 3647 2328 
Q 3647 1150 3233 529 
Q 2819 -91 2034 -91 
Q 1250 -91 836 529 
Q 422 1150 422 2328 
Q 422 3509 836 4129 
Q 1250 4750 2034 4750 
z
" transform="scale(0.015625)"/>
       </defs>
       <use xlink:href="#DejaVuSans-2212"/>
       <use xlink:href="#DejaVuSans-31" x="83.789062"/>
       <use xlink:href="#DejaVuSans-2e" x="147.412109"/>
       <use xlink:href="#DejaVuSans-30" x="179.199219"/>
      </g>
     </g>
    </g>
    <g id="xtick_2">
     <g id="line2d_2">
      <g>
       <use xlink:href="#m0fdffb92f4" x="88.605978" y="188.638125" style="stroke: #000000; stroke-width: 0.8"/>
      </g>
     </g>
     <g id="text_2">
      <!-- −0.5 -->
      <g transform="translate(76.464572 203.236563) scale(0.1 -0.1)">
       <defs>
        <path id="DejaVuSans-35" d="M 691 4666 
L 3169 4666 
L 3169 4134 
L 1269 4134 
L 1269 2991 
Q 1406 3038 1543 3061 
Q 1681 3084 1819 3084 
Q 2600 3084 3056 2656 
Q 3513 2228 3513 1497 
Q 3513 744 3044 326 
Q 2575 -91 1722 -91 
Q 1428 -91 1123 -41 
Q 819 9 494 109 
L 494 744 
Q 775 591 1075 516 
Q 1375 441 1709 441 
Q 2250 441 2565 725 
Q 2881 1009 2881 1497 
Q 2881 1984 2565 2268 
Q 2250 2553 1709 2553 
Q 1456 2553 1204 2497 
Q 953 2441 691 2322 
L 691 4666 
z
" transform="scale(0.015625)"/>
       </defs>
       <use xlink:href="#DejaVuSans-2212"/>
       <use xlink:href="#DejaVuSans-30" x="83.789062"/>
       <use xlink:href="#DejaVuSans-2e" x="147.412109"/>
       <use xlink:href="#DejaVuSans-35" x="179.199219"/>
      </g>
     </g>
    </g>
    <g id="xtick_3">
     <g id="line2d_3">
      <g>
       <use xlink:href="#m0fdffb92f4" x="134.739499" y="188.638125" style="stroke: #000000; stroke-width: 0.8"/>
      </g>
     </g>
     <g id="text_3">
      <!-- 0.0 -->
      <g transform="translate(126.787937 203.236563) scale(0.1 -0.1)">
       <use xlink:href="#DejaVuSans-30"/>
       <use xlink:href="#DejaVuSans-2e" x="63.623047"/>
       <use xlink:href="#DejaVuSans-30" x="95.410156"/>
      </g>
     </g>
    </g>
    <g id="xtick_4">
     <g id="line2d_4">
      <g>
       <use xlink:href="#m0fdffb92f4" x="180.87302" y="188.638125" style="stroke: #000000; stroke-width: 0.8"/>
      </g>
     </g>
     <g id="text_4">
      <!-- 0.5 -->
      <g transform="translate(172.921458 203.236563) scale(0.1 -0.1)">
       <use xlink:href="#DejaVuSans-30"/>
       <use xlink:href="#DejaVuSans-2e" x="63.623047"/>
       <use xlink:href="#DejaVuSans-35" x="95.410156"/>
      </g>
     </g>
    </g>
    <g id="xtick_5">
     <g id="line2d_5">
      <g>
       <use xlink:href="#m0fdffb92f4" x="227.006541" y="188.638125" style="stroke: #000000; stroke-width: 0.8"/>
      </g>
     </g>
     <g id="text_5">
      <!-- 1.0 -->
      <g transform="translate(219.054979 203.236563) scale(0.1 -0.1)">
       <use xlink:href="#DejaVuSans-31"/>
       <use xlink:href="#DejaVuSans-2e" x="63.623047"/>
       <use xlink:href="#DejaVuSans-30" x="95.410156"/>
      </g>
     </g>
    </g>
   </g>
   <g id="matplotlib.axis_2">
    <g id="ytick_1">
     <g id="line2d_6">
      <defs>
       <path id="mfa4743d498" d="M 0 0 
L -3.5 0 
" style="stroke: #000000; stroke-width: 0.8"/>
      </defs>
      <g>
       <use xlink:href="#mfa4743d498" x="33.2875" y="188.638125" style="stroke: #000000; stroke-width: 0.8"/>
      </g>
     </g>
     <g id="text_6">
      <!-- 0 -->
      <g transform="translate(19.925 192.437344) scale(0.1 -0.1)">
       <use xlink:href="#DejaVuSans-30"/>
      </g>
     </g>
    </g>
    <g id="ytick_2">
     <g id="line2d_7">
      <g>
       <use xlink:href="#mfa4743d498" x="33.2875" y="156.958125" style="stroke: #000000; stroke-width: 0.8"/>
      </g>
     </g>
     <g id="text_7">
      <!-- 50 -->
      <g transform="translate(13.5625 160.757344) scale(0.1 -0.1)">
       <use xlink:href="#DejaVuSans-35"/>
       <use xlink:href="#DejaVuSans-30" x="63.623047"/>
      </g>
     </g>
    </g>
    <g id="ytick_3">
     <g id="line2d_8">
      <g>
       <use xlink:href="#mfa4743d498" x="33.2875" y="125.278125" style="stroke: #000000; stroke-width: 0.8"/>
      </g>
     </g>
     <g id="text_8">
      <!-- 100 -->
      <g transform="translate(7.2 129.077344) scale(0.1 -0.1)">
       <use xlink:href="#DejaVuSans-31"/>
       <use xlink:href="#DejaVuSans-30" x="63.623047"/>
       <use xlink:href="#DejaVuSans-30" x="127.246094"/>
      </g>
     </g>
    </g>
    <g id="ytick_4">
     <g id="line2d_9">
      <g>
       <use xlink:href="#mfa4743d498" x="33.2875" y="93.598125" style="stroke: #000000; stroke-width: 0.8"/>
      </g>
     </g>
     <g id="text_9">
      <!-- 150 -->
      <g transform="translate(7.2 97.397344) scale(0.1 -0.1)">
       <use xlink:href="#DejaVuSans-31"/>
       <use xlink:href="#DejaVuSans-35" x="63.623047"/>
       <use xlink:href="#DejaVuSans-30" x="127.246094"/>
      </g>
     </g>
    </g>
    <g id="ytick_5">
     <g id="line2d_10">
      <g>
       <use xlink:href="#mfa4743d498" x="33.2875" y="61.918125" style="stroke: #000000; stroke-width: 0.8"/>
      </g>
     </g>
     <g id="text_10">
      <!-- 200 -->
      <g transform="translate(7.2 65.717344) scale(0.1 -0.1)">
       <defs>
        <path id="DejaVuSans-32" d="M 1228 531 
L 3431 531 
L 3431 0 
L 469 0 
L 469 531 
Q 828 903 1448 1529 
Q 2069 2156 2228 2338 
Q 2531 2678 2651 2914 
Q 2772 3150 2772 3378 
Q 2772 3750 2511 3984 
Q 2250 4219 1831 4219 
Q 1534 4219 1204 4116 
Q 875 4013 500 3803 
L 500 4441 
Q 881 4594 1212 4672 
Q 1544 4750 1819 4750 
Q 2544 4750 2975 4387 
Q 3406 4025 3406 3419 
Q 3406 3131 3298 2873 
Q 3191 2616 2906 2266 
Q 2828 2175 2409 1742 
Q 1991 1309 1228 531 
z
" transform="scale(0.015625)"/>
       </defs>
       <use xlink:href="#DejaVuSans-32"/>
       <use xlink:href="#DejaVuSans-30" x="63.623047"/>
       <use xlink:href="#DejaVuSans-30" x="127.246094"/>
      </g>
     </g>
    </g>
    <g id="ytick_6">
     <g id="line2d_11">
      <g>
       <use xlink:href="#mfa4743d498" x="33.2875" y="30.238125" style="stroke: #000000; stroke-width: 0.8"/>
      </g>
     </g>
     <g id="text_11">
      <!-- 250 -->
      <g transform="translate(7.2 34.037344) scale(0.1 -0.1)">
       <use xlink:href="#DejaVuSans-32"/>
       <use xlink:href="#DejaVuSans-35" x="63.623047"/>
       <use xlink:href="#DejaVuSans-30" x="127.246094"/>
      </g>
     </g>
    </g>
   </g>
   <g id="patch_53">
    <path d="M 33.2875 188.638125 
L 33.2875 22.318125 
" style="fill: none; stroke: #000000; stroke-width: 0.8; stroke-linejoin: miter; stroke-linecap: square"/>
   </g>
   <g id="patch_54">
    <path d="M 236.196591 188.638125 
L 236.196591 22.318125 
" style="fill: none; stroke: #000000; stroke-width: 0.8; stroke-linejoin: miter; stroke-linecap: square"/>
   </g>
   <g id="patch_55">
    <path d="M 33.2875 188.638125 
L 236.196591 188.638125 
" style="fill: none; stroke: #000000; stroke-width: 0.8; stroke-linejoin: miter; stroke-linecap: square"/>
   </g>
   <g id="patch_56">
    <path d="M 33.2875 22.318125 
L 236.196591 22.318125 
" style="fill: none; stroke: #000000; stroke-width: 0.8; stroke-linejoin: miter; stroke-linecap: square"/>
   </g>
   <g id="text_12">
    <!-- tanh activations -->
    <g transform="translate(86.359545 16.318125) scale(0.12 -0.12)">
     <defs>
      <path id="DejaVuSans-74" d="M 1172 4494 
L 1172 3500 
L 2356 3500 
L 2356 3053 
L 1172 3053 
L 1172 1153 
Q 1172 725 1289 603 
Q 1406 481 1766 481 
L 2356 481 
L 2356 0 
L 1766 0 
Q 1100 0 847 248 
Q 594 497 594 1153 
L 594 3053 
L 172 3053 
L 172 3500 
L 594 3500 
L 594 4494 
L 1172 4494 
z
" transform="scale(0.015625)"/>
      <path id="DejaVuSans-61" d="M 2194 1759 
Q 1497 1759 1228 1600 
Q 959 1441 959 1056 
Q 959 750 1161 570 
Q 1363 391 1709 391 
Q 2188 391 2477 730 
Q 2766 1069 2766 1631 
L 2766 1759 
L 2194 1759 
z
M 3341 1997 
L 3341 0 
L 2766 0 
L 2766 531 
Q 2569 213 2275 61 
Q 1981 -91 1556 -91 
Q 1019 -91 701 211 
Q 384 513 384 1019 
Q 384 1609 779 1909 
Q 1175 2209 1959 2209 
L 2766 2209 
L 2766 2266 
Q 2766 2663 2505 2880 
Q 2244 3097 1772 3097 
Q 1472 3097 1187 3025 
Q 903 2953 641 2809 
L 641 3341 
Q 956 3463 1253 3523 
Q 1550 3584 1831 3584 
Q 2591 3584 2966 3190 
Q 3341 2797 3341 1997 
z
" transform="scale(0.015625)"/>
      <path id="DejaVuSans-6e" d="M 3513 2113 
L 3513 0 
L 2938 0 
L 2938 2094 
Q 2938 2591 2744 2837 
Q 2550 3084 2163 3084 
Q 1697 3084 1428 2787 
Q 1159 2491 1159 1978 
L 1159 0 
L 581 0 
L 581 3500 
L 1159 3500 
L 1159 2956 
Q 1366 3272 1645 3428 
Q 1925 3584 2291 3584 
Q 2894 3584 3203 3211 
Q 3513 2838 3513 2113 
z
" transform="scale(0.015625)"/>
      <path id="DejaVuSans-68" d="M 3513 2113 
L 3513 0 
L 2938 0 
L 2938 2094 
Q 2938 2591 2744 2837 
Q 2550 3084 2163 3084 
Q 1697 3084 1428 2787 
Q 1159 2491 1159 1978 
L 1159 0 
L 581 0 
L 581 4863 
L 1159 4863 
L 1159 2956 
Q 1366 3272 1645 3428 
Q 1925 3584 2291 3584 
Q 2894 3584 3203 3211 
Q 3513 2838 3513 2113 
z
" transform="scale(0.015625)"/>
      <path id="DejaVuSans-20" transform="scale(0.015625)"/>
      <path id="DejaVuSans-63" d="M 3122 3366 
L 3122 2828 
Q 2878 2963 2633 3030 
Q 2388 3097 2138 3097 
Q 1578 3097 1268 2742 
Q 959 2388 959 1747 
Q 959 1106 1268 751 
Q 1578 397 2138 397 
Q 2388 397 2633 464 
Q 2878 531 3122 666 
L 3122 134 
Q 2881 22 2623 -34 
Q 2366 -91 2075 -91 
Q 1284 -91 818 406 
Q 353 903 353 1747 
Q 353 2603 823 3093 
Q 1294 3584 2113 3584 
Q 2378 3584 2631 3529 
Q 2884 3475 3122 3366 
z
" transform="scale(0.015625)"/>
      <path id="DejaVuSans-69" d="M 603 3500 
L 1178 3500 
L 1178 0 
L 603 0 
L 603 3500 
z
M 603 4863 
L 1178 4863 
L 1178 4134 
L 603 4134 
L 603 4863 
z
" transform="scale(0.015625)"/>
      <path id="DejaVuSans-76" d="M 191 3500 
L 800 3500 
L 1894 563 
L 2988 3500 
L 3597 3500 
L 2284 0 
L 1503 0 
L 191 3500 
z
" transform="scale(0.015625)"/>
      <path id="DejaVuSans-6f" d="M 1959 3097 
Q 1497 3097 1228 2736 
Q 959 2375 959 1747 
Q 959 1119 1226 758 
Q 1494 397 1959 397 
Q 2419 397 2687 759 
Q 2956 1122 2956 1747 
Q 2956 2369 2687 2733 
Q 2419 3097 1959 3097 
z
M 1959 3584 
Q 2709 3584 3137 3096 
Q 3566 2609 3566 1747 
Q 3566 888 3137 398 
Q 2709 -91 1959 -91 
Q 1206 -91 779 398 
Q 353 888 353 1747 
Q 353 2609 779 3096 
Q 1206 3584 1959 3584 
z
" transform="scale(0.015625)"/>
      <path id="DejaVuSans-73" d="M 2834 3397 
L 2834 2853 
Q 2591 2978 2328 3040 
Q 2066 3103 1784 3103 
Q 1356 3103 1142 2972 
Q 928 2841 928 2578 
Q 928 2378 1081 2264 
Q 1234 2150 1697 2047 
L 1894 2003 
Q 2506 1872 2764 1633 
Q 3022 1394 3022 966 
Q 3022 478 2636 193 
Q 2250 -91 1575 -91 
Q 1294 -91 989 -36 
Q 684 19 347 128 
L 347 722 
Q 666 556 975 473 
Q 1284 391 1588 391 
Q 1994 391 2212 530 
Q 2431 669 2431 922 
Q 2431 1156 2273 1281 
Q 2116 1406 1581 1522 
L 1381 1569 
Q 847 1681 609 1914 
Q 372 2147 372 2553 
Q 372 3047 722 3315 
Q 1072 3584 1716 3584 
Q 2034 3584 2315 3537 
Q 2597 3491 2834 3397 
z
" transform="scale(0.015625)"/>
     </defs>
     <use xlink:href="#DejaVuSans-74"/>
     <use xlink:href="#DejaVuSans-61" x="39.208984"/>
     <use xlink:href="#DejaVuSans-6e" x="100.488281"/>
     <use xlink:href="#DejaVuSans-68" x="163.867188"/>
     <use xlink:href="#DejaVuSans-20" x="227.246094"/>
     <use xlink:href="#DejaVuSans-61" x="259.033203"/>
     <use xlink:href="#DejaVuSans-63" x="320.3125"/>
     <use xlink:href="#DejaVuSans-74" x="375.292969"/>
     <use xlink:href="#DejaVuSans-69" x="414.501953"/>
     <use xlink:href="#DejaVuSans-76" x="442.285156"/>
     <use xlink:href="#DejaVuSans-61" x="501.464844"/>
     <use xlink:href="#DejaVuSans-74" x="562.744141"/>
     <use xlink:href="#DejaVuSans-69" x="601.953125"/>
     <use xlink:href="#DejaVuSans-6f" x="629.736328"/>
     <use xlink:href="#DejaVuSans-6e" x="690.917969"/>
     <use xlink:href="#DejaVuSans-73" x="754.296875"/>
    </g>
   </g>
  </g>
  <g id="axes_2">
   <g id="patch_57">
    <path d="M 276.778409 188.638125 
L 479.6875 188.638125 
L 479.6875 22.318125 
L 276.778409 22.318125 
z
" style="fill: #ffffff"/>
   </g>
   <g id="patch_58">
    <path d="M 286.00155 188.638125 
L 289.690806 188.638125 
L 289.690806 162.201711 
L 286.00155 162.201711 
z
" clip-path="url(#pa57d5151cf)" style="fill: #ff7f0e"/>
   </g>
   <g id="patch_59">
    <path d="M 289.690806 188.638125 
L 293.380062 188.638125 
L 293.380062 162.857159 
L 289.690806 162.857159 
z
" clip-path="url(#pa57d5151cf)" style="fill: #ff7f0e"/>
   </g>
   <g id="patch_60">
    <path d="M 293.380062 188.638125 
L 297.069318 188.638125 
L 297.069318 159.579918 
L 293.380062 159.579918 
z
" clip-path="url(#pa57d5151cf)" style="fill: #ff7f0e"/>
   </g>
   <g id="patch_61">
    <path d="M 297.069318 188.638125 
L 300.758574 188.638125 
L 300.758574 160.016884 
L 297.069318 160.016884 
z
" clip-path="url(#pa57d5151cf)" style="fill: #ff7f0e"/>
   </g>
   <g id="patch_62">
    <path d="M 300.758574 188.638125 
L 304.447831 188.638125 
L 304.447831 158.269022 
L 300.758574 158.269022 
z
" clip-path="url(#pa57d5151cf)" style="fill: #ff7f0e"/>
   </g>
   <g id="patch_63">
    <path d="M 304.447831 188.638125 
L 308.137087 188.638125 
L 308.137087 165.915918 
L 304.447831 165.915918 
z
" clip-path="url(#pa57d5151cf)" style="fill: #ff7f0e"/>
   </g>
   <g id="patch_64">
    <path d="M 308.137087 188.638125 
L 311.826343 188.638125 
L 311.826343 161.546263 
L 308.137087 161.546263 
z
" clip-path="url(#pa57d5151cf)" style="fill: #ff7f0e"/>
   </g>
   <g id="patch_65">
    <path d="M 311.826343 188.638125 
L 315.515599 188.638125 
L 315.515599 162.638677 
L 311.826343 162.638677 
z
" clip-path="url(#pa57d5151cf)" style="fill: #ff7f0e"/>
   </g>
   <g id="patch_66">
    <path d="M 315.515599 188.638125 
L 319.204855 188.638125 
L 319.204855 164.168056 
L 315.515599 164.168056 
z
" clip-path="url(#pa57d5151cf)" style="fill: #ff7f0e"/>
   </g>
   <g id="patch_67">
    <path d="M 319.204855 188.638125 
L 322.894112 188.638125 
L 322.894112 169.630125 
L 319.204855 169.630125 
z
" clip-path="url(#pa57d5151cf)" style="fill: #ff7f0e"/>
   </g>
   <g id="patch_68">
    <path d="M 322.894112 188.638125 
L 326.583368 188.638125 
L 326.583368 162.857159 
L 322.894112 162.857159 
z
" clip-path="url(#pa57d5151cf)" style="fill: #ff7f0e"/>
   </g>
   <g id="patch_69">
    <path d="M 326.583368 188.638125 
L 330.272624 188.638125 
L 330.272624 166.789849 
L 326.583368 166.789849 
z
" clip-path="url(#pa57d5151cf)" style="fill: #ff7f0e"/>
   </g>
   <g id="patch_70">
    <path d="M 330.272624 188.638125 
L 333.96188 188.638125 
L 333.96188 164.386539 
L 330.272624 164.386539 
z
" clip-path="url(#pa57d5151cf)" style="fill: #ff7f0e"/>
   </g>
   <g id="patch_71">
    <path d="M 333.96188 188.638125 
L 337.651136 188.638125 
L 337.651136 170.941022 
L 333.96188 170.941022 
z
" clip-path="url(#pa57d5151cf)" style="fill: #ff7f0e"/>
   </g>
   <g id="patch_72">
    <path d="M 337.651136 188.638125 
L 341.340393 188.638125 
L 341.340393 169.193159 
L 337.651136 169.193159 
z
" clip-path="url(#pa57d5151cf)" style="fill: #ff7f0e"/>
   </g>
   <g id="patch_73">
    <path d="M 341.340393 188.638125 
L 345.029649 188.638125 
L 345.029649 170.941022 
L 341.340393 170.941022 
z
" clip-path="url(#pa57d5151cf)" style="fill: #ff7f0e"/>
   </g>
   <g id="patch_74">
    <path d="M 345.029649 188.638125 
L 348.718905 188.638125 
L 348.718905 168.100746 
L 345.029649 168.100746 
z
" clip-path="url(#pa57d5151cf)" style="fill: #ff7f0e"/>
   </g>
   <g id="patch_75">
    <path d="M 348.718905 188.638125 
L 352.408161 188.638125 
L 352.408161 160.453849 
L 348.718905 160.453849 
z
" clip-path="url(#pa57d5151cf)" style="fill: #ff7f0e"/>
   </g>
   <g id="patch_76">
    <path d="M 352.408161 188.638125 
L 356.097417 188.638125 
L 356.097417 170.504056 
L 352.408161 170.504056 
z
" clip-path="url(#pa57d5151cf)" style="fill: #ff7f0e"/>
   </g>
   <g id="patch_77">
    <path d="M 356.097417 188.638125 
L 359.786674 188.638125 
L 359.786674 167.008332 
L 356.097417 167.008332 
z
" clip-path="url(#pa57d5151cf)" style="fill: #ff7f0e"/>
   </g>
   <g id="patch_78">
    <path d="M 359.786674 188.638125 
L 363.47593 188.638125 
L 363.47593 170.285573 
L 359.786674 170.285573 
z
" clip-path="url(#pa57d5151cf)" style="fill: #ff7f0e"/>
   </g>
   <g id="patch_79">
    <path d="M 363.47593 188.638125 
L 367.165186 188.638125 
L 367.165186 174.655228 
L 363.47593 174.655228 
z
" clip-path="url(#pa57d5151cf)" style="fill: #ff7f0e"/>
   </g>
   <g id="patch_80">
    <path d="M 367.165186 188.638125 
L 370.854442 188.638125 
L 370.854442 165.041987 
L 367.165186 165.041987 
z
" clip-path="url(#pa57d5151cf)" style="fill: #ff7f0e"/>
   </g>
   <g id="patch_81">
    <path d="M 370.854442 188.638125 
L 374.543698 188.638125 
L 374.543698 167.226815 
L 370.854442 167.226815 
z
" clip-path="url(#pa57d5151cf)" style="fill: #ff7f0e"/>
   </g>
   <g id="patch_82">
    <path d="M 374.543698 188.638125 
L 378.232955 188.638125 
L 378.232955 165.915918 
L 374.543698 165.915918 
z
" clip-path="url(#pa57d5151cf)" style="fill: #ff7f0e"/>
   </g>
   <g id="patch_83">
    <path d="M 378.232955 188.638125 
L 381.922211 188.638125 
L 381.922211 168.974677 
L 378.232955 168.974677 
z
" clip-path="url(#pa57d5151cf)" style="fill: #ff7f0e"/>
   </g>
   <g id="patch_84">
    <path d="M 381.922211 188.638125 
L 385.611467 188.638125 
L 385.611467 167.008332 
L 381.922211 167.008332 
z
" clip-path="url(#pa57d5151cf)" style="fill: #ff7f0e"/>
   </g>
   <g id="patch_85">
    <path d="M 385.611467 188.638125 
L 389.300723 188.638125 
L 389.300723 164.386539 
L 385.611467 164.386539 
z
" clip-path="url(#pa57d5151cf)" style="fill: #ff7f0e"/>
   </g>
   <g id="patch_86">
    <path d="M 389.300723 188.638125 
L 392.989979 188.638125 
L 392.989979 168.319228 
L 389.300723 168.319228 
z
" clip-path="url(#pa57d5151cf)" style="fill: #ff7f0e"/>
   </g>
   <g id="patch_87">
    <path d="M 392.989979 188.638125 
L 396.679236 188.638125 
L 396.679236 167.445297 
L 392.989979 167.445297 
z
" clip-path="url(#pa57d5151cf)" style="fill: #ff7f0e"/>
   </g>
   <g id="patch_88">
    <path d="M 396.679236 188.638125 
L 400.368492 188.638125 
L 400.368492 169.848608 
L 396.679236 169.848608 
z
" clip-path="url(#pa57d5151cf)" style="fill: #ff7f0e"/>
   </g>
   <g id="patch_89">
    <path d="M 400.368492 188.638125 
L 404.057748 188.638125 
L 404.057748 165.478953 
L 400.368492 165.478953 
z
" clip-path="url(#pa57d5151cf)" style="fill: #ff7f0e"/>
   </g>
   <g id="patch_90">
    <path d="M 404.057748 188.638125 
L 407.747004 188.638125 
L 407.747004 169.411642 
L 404.057748 169.411642 
z
" clip-path="url(#pa57d5151cf)" style="fill: #ff7f0e"/>
   </g>
   <g id="patch_91">
    <path d="M 407.747004 188.638125 
L 411.43626 188.638125 
L 411.43626 163.949573 
L 407.747004 163.949573 
z
" clip-path="url(#pa57d5151cf)" style="fill: #ff7f0e"/>
   </g>
   <g id="patch_92">
    <path d="M 411.43626 188.638125 
L 415.125517 188.638125 
L 415.125517 169.630125 
L 411.43626 169.630125 
z
" clip-path="url(#pa57d5151cf)" style="fill: #ff7f0e"/>
   </g>
   <g id="patch_93">
    <path d="M 415.125517 188.638125 
L 418.814773 188.638125 
L 418.814773 169.193159 
L 415.125517 169.193159 
z
" clip-path="url(#pa57d5151cf)" style="fill: #ff7f0e"/>
   </g>
   <g id="patch_94">
    <path d="M 418.814773 188.638125 
L 422.504029 188.638125 
L 422.504029 160.453849 
L 418.814773 160.453849 
z
" clip-path="url(#pa57d5151cf)" style="fill: #ff7f0e"/>
   </g>
   <g id="patch_95">
    <path d="M 422.504029 188.638125 
L 426.193285 188.638125 
L 426.193285 162.420194 
L 422.504029 162.420194 
z
" clip-path="url(#pa57d5151cf)" style="fill: #ff7f0e"/>
   </g>
   <g id="patch_96">
    <path d="M 426.193285 188.638125 
L 429.882541 188.638125 
L 429.882541 159.361435 
L 426.193285 159.361435 
z
" clip-path="url(#pa57d5151cf)" style="fill: #ff7f0e"/>
   </g>
   <g id="patch_97">
    <path d="M 429.882541 188.638125 
L 433.571798 188.638125 
L 433.571798 165.478953 
L 429.882541 165.478953 
z
" clip-path="url(#pa57d5151cf)" style="fill: #ff7f0e"/>
   </g>
   <g id="patch_98">
    <path d="M 433.571798 188.638125 
L 437.261054 188.638125 
L 437.261054 161.546263 
L 433.571798 161.546263 
z
" clip-path="url(#pa57d5151cf)" style="fill: #ff7f0e"/>
   </g>
   <g id="patch_99">
    <path d="M 437.261054 188.638125 
L 440.95031 188.638125 
L 440.95031 159.361435 
L 437.261054 159.361435 
z
" clip-path="url(#pa57d5151cf)" style="fill: #ff7f0e"/>
   </g>
   <g id="patch_100">
    <path d="M 440.95031 188.638125 
L 444.639566 188.638125 
L 444.639566 164.823504 
L 440.95031 164.823504 
z
" clip-path="url(#pa57d5151cf)" style="fill: #ff7f0e"/>
   </g>
   <g id="patch_101">
    <path d="M 444.639566 188.638125 
L 448.328822 188.638125 
L 448.328822 157.613573 
L 444.639566 157.613573 
z
" clip-path="url(#pa57d5151cf)" style="fill: #ff7f0e"/>
   </g>
   <g id="patch_102">
    <path d="M 448.328822 188.638125 
L 452.018079 188.638125 
L 452.018079 154.99178 
L 448.328822 154.99178 
z
" clip-path="url(#pa57d5151cf)" style="fill: #ff7f0e"/>
   </g>
   <g id="patch_103">
    <path d="M 452.018079 188.638125 
L 455.707335 188.638125 
L 455.707335 155.865711 
L 452.018079 155.865711 
z
" clip-path="url(#pa57d5151cf)" style="fill: #ff7f0e"/>
   </g>
   <g id="patch_104">
    <path d="M 455.707335 188.638125 
L 459.396591 188.638125 
L 459.396591 148.000332 
L 455.707335 148.000332 
z
" clip-path="url(#pa57d5151cf)" style="fill: #ff7f0e"/>
   </g>
   <g id="patch_105">
    <path d="M 459.396591 188.638125 
L 463.085847 188.638125 
L 463.085847 143.630677 
L 459.396591 143.630677 
z
" clip-path="url(#pa57d5151cf)" style="fill: #ff7f0e"/>
   </g>
   <g id="patch_106">
    <path d="M 463.085847 188.638125 
L 466.775103 188.638125 
L 466.775103 125.059642 
L 463.085847 125.059642 
z
" clip-path="url(#pa57d5151cf)" style="fill: #ff7f0e"/>
   </g>
   <g id="patch_107">
    <path d="M 466.775103 188.638125 
L 470.46436 188.638125 
L 470.46436 30.238125 
L 466.775103 30.238125 
z
" clip-path="url(#pa57d5151cf)" style="fill: #ff7f0e"/>
   </g>
   <g id="matplotlib.axis_3">
    <g id="xtick_6">
     <g id="line2d_12">
      <g>
       <use xlink:href="#m0fdffb92f4" x="285.869165" y="188.638125" style="stroke: #000000; stroke-width: 0.8"/>
      </g>
     </g>
     <g id="text_13">
      <!-- 0.0 -->
      <g transform="translate(277.917602 203.236563) scale(0.1 -0.1)">
       <use xlink:href="#DejaVuSans-30"/>
       <use xlink:href="#DejaVuSans-2e" x="63.623047"/>
       <use xlink:href="#DejaVuSans-30" x="95.410156"/>
      </g>
     </g>
    </g>
    <g id="xtick_7">
     <g id="line2d_13">
      <g>
       <use xlink:href="#m0fdffb92f4" x="322.788204" y="188.638125" style="stroke: #000000; stroke-width: 0.8"/>
      </g>
     </g>
     <g id="text_14">
      <!-- 0.2 -->
      <g transform="translate(314.836641 203.236563) scale(0.1 -0.1)">
       <use xlink:href="#DejaVuSans-30"/>
       <use xlink:href="#DejaVuSans-2e" x="63.623047"/>
       <use xlink:href="#DejaVuSans-32" x="95.410156"/>
      </g>
     </g>
    </g>
    <g id="xtick_8">
     <g id="line2d_14">
      <g>
       <use xlink:href="#m0fdffb92f4" x="359.707243" y="188.638125" style="stroke: #000000; stroke-width: 0.8"/>
      </g>
     </g>
     <g id="text_15">
      <!-- 0.4 -->
      <g transform="translate(351.75568 203.236563) scale(0.1 -0.1)">
       <defs>
        <path id="DejaVuSans-34" d="M 2419 4116 
L 825 1625 
L 2419 1625 
L 2419 4116 
z
M 2253 4666 
L 3047 4666 
L 3047 1625 
L 3713 1625 
L 3713 1100 
L 3047 1100 
L 3047 0 
L 2419 0 
L 2419 1100 
L 313 1100 
L 313 1709 
L 2253 4666 
z
" transform="scale(0.015625)"/>
       </defs>
       <use xlink:href="#DejaVuSans-30"/>
       <use xlink:href="#DejaVuSans-2e" x="63.623047"/>
       <use xlink:href="#DejaVuSans-34" x="95.410156"/>
      </g>
     </g>
    </g>
    <g id="xtick_9">
     <g id="line2d_15">
      <g>
       <use xlink:href="#m0fdffb92f4" x="396.626282" y="188.638125" style="stroke: #000000; stroke-width: 0.8"/>
      </g>
     </g>
     <g id="text_16">
      <!-- 0.6 -->
      <g transform="translate(388.674719 203.236563) scale(0.1 -0.1)">
       <defs>
        <path id="DejaVuSans-36" d="M 2113 2584 
Q 1688 2584 1439 2293 
Q 1191 2003 1191 1497 
Q 1191 994 1439 701 
Q 1688 409 2113 409 
Q 2538 409 2786 701 
Q 3034 994 3034 1497 
Q 3034 2003 2786 2293 
Q 2538 2584 2113 2584 
z
M 3366 4563 
L 3366 3988 
Q 3128 4100 2886 4159 
Q 2644 4219 2406 4219 
Q 1781 4219 1451 3797 
Q 1122 3375 1075 2522 
Q 1259 2794 1537 2939 
Q 1816 3084 2150 3084 
Q 2853 3084 3261 2657 
Q 3669 2231 3669 1497 
Q 3669 778 3244 343 
Q 2819 -91 2113 -91 
Q 1303 -91 875 529 
Q 447 1150 447 2328 
Q 447 3434 972 4092 
Q 1497 4750 2381 4750 
Q 2619 4750 2861 4703 
Q 3103 4656 3366 4563 
z
" transform="scale(0.015625)"/>
       </defs>
       <use xlink:href="#DejaVuSans-30"/>
       <use xlink:href="#DejaVuSans-2e" x="63.623047"/>
       <use xlink:href="#DejaVuSans-36" x="95.410156"/>
      </g>
     </g>
    </g>
    <g id="xtick_10">
     <g id="line2d_16">
      <g>
       <use xlink:href="#m0fdffb92f4" x="433.545321" y="188.638125" style="stroke: #000000; stroke-width: 0.8"/>
      </g>
     </g>
     <g id="text_17">
      <!-- 0.8 -->
      <g transform="translate(425.593758 203.236563) scale(0.1 -0.1)">
       <defs>
        <path id="DejaVuSans-38" d="M 2034 2216 
Q 1584 2216 1326 1975 
Q 1069 1734 1069 1313 
Q 1069 891 1326 650 
Q 1584 409 2034 409 
Q 2484 409 2743 651 
Q 3003 894 3003 1313 
Q 3003 1734 2745 1975 
Q 2488 2216 2034 2216 
z
M 1403 2484 
Q 997 2584 770 2862 
Q 544 3141 544 3541 
Q 544 4100 942 4425 
Q 1341 4750 2034 4750 
Q 2731 4750 3128 4425 
Q 3525 4100 3525 3541 
Q 3525 3141 3298 2862 
Q 3072 2584 2669 2484 
Q 3125 2378 3379 2068 
Q 3634 1759 3634 1313 
Q 3634 634 3220 271 
Q 2806 -91 2034 -91 
Q 1263 -91 848 271 
Q 434 634 434 1313 
Q 434 1759 690 2068 
Q 947 2378 1403 2484 
z
M 1172 3481 
Q 1172 3119 1398 2916 
Q 1625 2713 2034 2713 
Q 2441 2713 2670 2916 
Q 2900 3119 2900 3481 
Q 2900 3844 2670 4047 
Q 2441 4250 2034 4250 
Q 1625 4250 1398 4047 
Q 1172 3844 1172 3481 
z
" transform="scale(0.015625)"/>
       </defs>
       <use xlink:href="#DejaVuSans-30"/>
       <use xlink:href="#DejaVuSans-2e" x="63.623047"/>
       <use xlink:href="#DejaVuSans-38" x="95.410156"/>
      </g>
     </g>
    </g>
    <g id="xtick_11">
     <g id="line2d_17">
      <g>
       <use xlink:href="#m0fdffb92f4" x="470.46436" y="188.638125" style="stroke: #000000; stroke-width: 0.8"/>
      </g>
     </g>
     <g id="text_18">
      <!-- 1.0 -->
      <g transform="translate(462.512797 203.236563) scale(0.1 -0.1)">
       <use xlink:href="#DejaVuSans-31"/>
       <use xlink:href="#DejaVuSans-2e" x="63.623047"/>
       <use xlink:href="#DejaVuSans-30" x="95.410156"/>
      </g>
     </g>
    </g>
   </g>
   <g id="matplotlib.axis_4">
    <g id="ytick_7">
     <g id="line2d_18">
      <g>
       <use xlink:href="#mfa4743d498" x="276.778409" y="188.638125" style="stroke: #000000; stroke-width: 0.8"/>
      </g>
     </g>
     <g id="text_19">
      <!-- 0 -->
      <g transform="translate(263.415909 192.437344) scale(0.1 -0.1)">
       <use xlink:href="#DejaVuSans-30"/>
      </g>
     </g>
    </g>
    <g id="ytick_8">
     <g id="line2d_19">
      <g>
       <use xlink:href="#mfa4743d498" x="276.778409" y="166.789849" style="stroke: #000000; stroke-width: 0.8"/>
      </g>
     </g>
     <g id="text_20">
      <!-- 100 -->
      <g transform="translate(250.690909 170.589068) scale(0.1 -0.1)">
       <use xlink:href="#DejaVuSans-31"/>
       <use xlink:href="#DejaVuSans-30" x="63.623047"/>
       <use xlink:href="#DejaVuSans-30" x="127.246094"/>
      </g>
     </g>
    </g>
    <g id="ytick_9">
     <g id="line2d_20">
      <g>
       <use xlink:href="#mfa4743d498" x="276.778409" y="144.941573" style="stroke: #000000; stroke-width: 0.8"/>
      </g>
     </g>
     <g id="text_21">
      <!-- 200 -->
      <g transform="translate(250.690909 148.740792) scale(0.1 -0.1)">
       <use xlink:href="#DejaVuSans-32"/>
       <use xlink:href="#DejaVuSans-30" x="63.623047"/>
       <use xlink:href="#DejaVuSans-30" x="127.246094"/>
      </g>
     </g>
    </g>
    <g id="ytick_10">
     <g id="line2d_21">
      <g>
       <use xlink:href="#mfa4743d498" x="276.778409" y="123.093297" style="stroke: #000000; stroke-width: 0.8"/>
      </g>
     </g>
     <g id="text_22">
      <!-- 300 -->
      <g transform="translate(250.690909 126.892516) scale(0.1 -0.1)">
       <defs>
        <path id="DejaVuSans-33" d="M 2597 2516 
Q 3050 2419 3304 2112 
Q 3559 1806 3559 1356 
Q 3559 666 3084 287 
Q 2609 -91 1734 -91 
Q 1441 -91 1130 -33 
Q 819 25 488 141 
L 488 750 
Q 750 597 1062 519 
Q 1375 441 1716 441 
Q 2309 441 2620 675 
Q 2931 909 2931 1356 
Q 2931 1769 2642 2001 
Q 2353 2234 1838 2234 
L 1294 2234 
L 1294 2753 
L 1863 2753 
Q 2328 2753 2575 2939 
Q 2822 3125 2822 3475 
Q 2822 3834 2567 4026 
Q 2313 4219 1838 4219 
Q 1578 4219 1281 4162 
Q 984 4106 628 3988 
L 628 4550 
Q 988 4650 1302 4700 
Q 1616 4750 1894 4750 
Q 2613 4750 3031 4423 
Q 3450 4097 3450 3541 
Q 3450 3153 3228 2886 
Q 3006 2619 2597 2516 
z
" transform="scale(0.015625)"/>
       </defs>
       <use xlink:href="#DejaVuSans-33"/>
       <use xlink:href="#DejaVuSans-30" x="63.623047"/>
       <use xlink:href="#DejaVuSans-30" x="127.246094"/>
      </g>
     </g>
    </g>
    <g id="ytick_11">
     <g id="line2d_22">
      <g>
       <use xlink:href="#mfa4743d498" x="276.778409" y="101.245022" style="stroke: #000000; stroke-width: 0.8"/>
      </g>
     </g>
     <g id="text_23">
      <!-- 400 -->
      <g transform="translate(250.690909 105.04424) scale(0.1 -0.1)">
       <use xlink:href="#DejaVuSans-34"/>
       <use xlink:href="#DejaVuSans-30" x="63.623047"/>
       <use xlink:href="#DejaVuSans-30" x="127.246094"/>
      </g>
     </g>
    </g>
    <g id="ytick_12">
     <g id="line2d_23">
      <g>
       <use xlink:href="#mfa4743d498" x="276.778409" y="79.396746" style="stroke: #000000; stroke-width: 0.8"/>
      </g>
     </g>
     <g id="text_24">
      <!-- 500 -->
      <g transform="translate(250.690909 83.195964) scale(0.1 -0.1)">
       <use xlink:href="#DejaVuSans-35"/>
       <use xlink:href="#DejaVuSans-30" x="63.623047"/>
       <use xlink:href="#DejaVuSans-30" x="127.246094"/>
      </g>
     </g>
    </g>
    <g id="ytick_13">
     <g id="line2d_24">
      <g>
       <use xlink:href="#mfa4743d498" x="276.778409" y="57.54847" style="stroke: #000000; stroke-width: 0.8"/>
      </g>
     </g>
     <g id="text_25">
      <!-- 600 -->
      <g transform="translate(250.690909 61.347689) scale(0.1 -0.1)">
       <use xlink:href="#DejaVuSans-36"/>
       <use xlink:href="#DejaVuSans-30" x="63.623047"/>
       <use xlink:href="#DejaVuSans-30" x="127.246094"/>
      </g>
     </g>
    </g>
    <g id="ytick_14">
     <g id="line2d_25">
      <g>
       <use xlink:href="#mfa4743d498" x="276.778409" y="35.700194" style="stroke: #000000; stroke-width: 0.8"/>
      </g>
     </g>
     <g id="text_26">
      <!-- 700 -->
      <g transform="translate(250.690909 39.499413) scale(0.1 -0.1)">
       <defs>
        <path id="DejaVuSans-37" d="M 525 4666 
L 3525 4666 
L 3525 4397 
L 1831 0 
L 1172 0 
L 2766 4134 
L 525 4134 
L 525 4666 
z
" transform="scale(0.015625)"/>
       </defs>
       <use xlink:href="#DejaVuSans-37"/>
       <use xlink:href="#DejaVuSans-30" x="63.623047"/>
       <use xlink:href="#DejaVuSans-30" x="127.246094"/>
      </g>
     </g>
    </g>
   </g>
   <g id="patch_108">
    <path d="M 276.778409 188.638125 
L 276.778409 22.318125 
" style="fill: none; stroke: #000000; stroke-width: 0.8; stroke-linejoin: miter; stroke-linecap: square"/>
   </g>
   <g id="patch_109">
    <path d="M 479.6875 188.638125 
L 479.6875 22.318125 
" style="fill: none; stroke: #000000; stroke-width: 0.8; stroke-linejoin: miter; stroke-linecap: square"/>
   </g>
   <g id="patch_110">
    <path d="M 276.778409 188.638125 
L 479.6875 188.638125 
" style="fill: none; stroke: #000000; stroke-width: 0.8; stroke-linejoin: miter; stroke-linecap: square"/>
   </g>
   <g id="patch_111">
    <path d="M 276.778409 22.318125 
L 479.6875 22.318125 
" style="fill: none; stroke: #000000; stroke-width: 0.8; stroke-linejoin: miter; stroke-linecap: square"/>
   </g>
   <g id="text_27">
    <!-- tanh gradients -->
    <g transform="translate(334.291392 16.318125) scale(0.12 -0.12)">
     <defs>
      <path id="DejaVuSans-67" d="M 2906 1791 
Q 2906 2416 2648 2759 
Q 2391 3103 1925 3103 
Q 1463 3103 1205 2759 
Q 947 2416 947 1791 
Q 947 1169 1205 825 
Q 1463 481 1925 481 
Q 2391 481 2648 825 
Q 2906 1169 2906 1791 
z
M 3481 434 
Q 3481 -459 3084 -895 
Q 2688 -1331 1869 -1331 
Q 1566 -1331 1297 -1286 
Q 1028 -1241 775 -1147 
L 775 -588 
Q 1028 -725 1275 -790 
Q 1522 -856 1778 -856 
Q 2344 -856 2625 -561 
Q 2906 -266 2906 331 
L 2906 616 
Q 2728 306 2450 153 
Q 2172 0 1784 0 
Q 1141 0 747 490 
Q 353 981 353 1791 
Q 353 2603 747 3093 
Q 1141 3584 1784 3584 
Q 2172 3584 2450 3431 
Q 2728 3278 2906 2969 
L 2906 3500 
L 3481 3500 
L 3481 434 
z
" transform="scale(0.015625)"/>
      <path id="DejaVuSans-72" d="M 2631 2963 
Q 2534 3019 2420 3045 
Q 2306 3072 2169 3072 
Q 1681 3072 1420 2755 
Q 1159 2438 1159 1844 
L 1159 0 
L 581 0 
L 581 3500 
L 1159 3500 
L 1159 2956 
Q 1341 3275 1631 3429 
Q 1922 3584 2338 3584 
Q 2397 3584 2469 3576 
Q 2541 3569 2628 3553 
L 2631 2963 
z
" transform="scale(0.015625)"/>
      <path id="DejaVuSans-64" d="M 2906 2969 
L 2906 4863 
L 3481 4863 
L 3481 0 
L 2906 0 
L 2906 525 
Q 2725 213 2448 61 
Q 2172 -91 1784 -91 
Q 1150 -91 751 415 
Q 353 922 353 1747 
Q 353 2572 751 3078 
Q 1150 3584 1784 3584 
Q 2172 3584 2448 3432 
Q 2725 3281 2906 2969 
z
M 947 1747 
Q 947 1113 1208 752 
Q 1469 391 1925 391 
Q 2381 391 2643 752 
Q 2906 1113 2906 1747 
Q 2906 2381 2643 2742 
Q 2381 3103 1925 3103 
Q 1469 3103 1208 2742 
Q 947 2381 947 1747 
z
" transform="scale(0.015625)"/>
      <path id="DejaVuSans-65" d="M 3597 1894 
L 3597 1613 
L 953 1613 
Q 991 1019 1311 708 
Q 1631 397 2203 397 
Q 2534 397 2845 478 
Q 3156 559 3463 722 
L 3463 178 
Q 3153 47 2828 -22 
Q 2503 -91 2169 -91 
Q 1331 -91 842 396 
Q 353 884 353 1716 
Q 353 2575 817 3079 
Q 1281 3584 2069 3584 
Q 2775 3584 3186 3129 
Q 3597 2675 3597 1894 
z
M 3022 2063 
Q 3016 2534 2758 2815 
Q 2500 3097 2075 3097 
Q 1594 3097 1305 2825 
Q 1016 2553 972 2059 
L 3022 2063 
z
" transform="scale(0.015625)"/>
     </defs>
     <use xlink:href="#DejaVuSans-74"/>
     <use xlink:href="#DejaVuSans-61" x="39.208984"/>
     <use xlink:href="#DejaVuSans-6e" x="100.488281"/>
     <use xlink:href="#DejaVuSans-68" x="163.867188"/>
     <use xlink:href="#DejaVuSans-20" x="227.246094"/>
     <use xlink:href="#DejaVuSans-67" x="259.033203"/>
     <use xlink:href="#DejaVuSans-72" x="322.509766"/>
     <use xlink:href="#DejaVuSans-61" x="363.623047"/>
     <use xlink:href="#DejaVuSans-64" x="424.902344"/>
     <use xlink:href="#DejaVuSans-69" x="488.378906"/>
     <use xlink:href="#DejaVuSans-65" x="516.162109"/>
     <use xlink:href="#DejaVuSans-6e" x="577.685547"/>
     <use xlink:href="#DejaVuSans-74" x="641.064453"/>
     <use xlink:href="#DejaVuSans-73" x="680.273438"/>
    </g>
   </g>
  </g>
 </g>
 <defs>
  <clipPath id="p6014903c1e">
   <rect x="33.2875" y="22.318125" width="202.909091" height="166.32"/>
  </clipPath>
  <clipPath id="pa57d5151cf">
   <rect x="276.778409" y="22.318125" width="202.909091" height="166.32"/>
  </clipPath>
 </defs>
</svg>