<?xml version="1.0" encoding="utf-8" standalone="no"?>
<!DOCTYPE svg PUBLIC "-//W3C//DTD SVG 1.1//EN"
  "http://www.w3.org/Graphics/SVG/1.1/DTD/svg11.dtd">
<svg xmlns:xlink="http://www.w3.org/1999/xlink" width="497.38125pt" height="212.51625pt" viewBox="0 0 497.38125 212.51625" xmlns="http://www.w3.org/2000/svg" version="1.1">
 <metadata>
  <rdf:RDF xmlns:dc="http://purl.org/dc/elements/1.1/" xmlns:cc="http://creativecommons.org/ns#" xmlns:rdf="http://www.w3.org/1999/02/22-rdf-syntax-ns#">
   <cc:Work>
    <dc:type rdf:resource="http://purl.org/dc/dcmitype/StillImage"/>
    <dc:date>2023-03-29T02:52:52.664702</dc:date>
    <dc:format>image/svg+xml</dc:format>
    <dc:creator>
     <cc:Agent>
      <dc:title>Matplotlib v3.7.0, https://matplotlib.org/</dc:title>
     </cc:Agent>
    </dc:creator>
   </cc:Work>
  </rdf:RDF>
 </metadata>
 <defs>
  <style type="text/css">*{stroke-linejoin: round; stroke-linecap: butt}</style>
 </defs>
 <g id="figure_1">
  <g id="patch_1">
   <path d="M 0 212.51625 
L 497.38125 212.51625 
L 497.38125 0 
L 0 0 
z
" style="fill: #ffffff"/>
  </g>
  <g id="axes_1">
   <g id="patch_2">
    <path d="M 43.78125 188.638125 
L 246.690341 188.638125 
L 246.690341 22.318125 
L 43.78125 22.318125 
z
" style="fill: #ffffff"/>
   </g>
   <g id="patch_3">
    <path d="M 58.96366 188.638125 
L 62.414545 188.638125 
L 62.414545 188.623583 
L 58.96366 188.623583 
z
" clip-path="url(#p84793ae273)" style="fill: #1f77b4; opacity: 0.4"/>
   </g>
   <g id="patch_4">
    <path d="M 62.414545 188.638125 
L 65.865431 188.638125 
L 65.865431 188.623583 
L 62.414545 188.623583 
z
" clip-path="url(#p84793ae273)" style="fill: #1f77b4; opacity: 0.4"/>
   </g>
   <g id="patch_5">
    <path d="M 65.865431 188.638125 
L 69.316316 188.638125 
L 69.316316 188.565415 
L 65.865431 188.565415 
z
" clip-path="url(#p84793ae273)" style="fill: #1f77b4; opacity: 0.4"/>
   </g>
   <g id="patch_6">
    <path d="M 69.316316 188.638125 
L 72.767202 188.638125 
L 72.767202 188.579957 
L 69.316316 188.579957 
z
" clip-path="url(#p84793ae273)" style="fill: #1f77b4; opacity: 0.4"/>
   </g>
   <g id="patch_7">
    <path d="M 72.767202 188.638125 
L 76.218087 188.638125 
L 76.218087 188.550873 
L 72.767202 188.550873 
z
" clip-path="url(#p84793ae273)" style="fill: #1f77b4; opacity: 0.4"/>
   </g>
   <g id="patch_8">
    <path d="M 76.218087 188.638125 
L 79.668972 188.638125 
L 79.668972 188.405454 
L 76.218087 188.405454 
z
" clip-path="url(#p84793ae273)" style="fill: #1f77b4; opacity: 0.4"/>
   </g>
   <g id="patch_9">
    <path d="M 79.668972 188.638125 
L 83.119858 188.638125 
L 83.119858 188.289118 
L 79.668972 188.289118 
z
" clip-path="url(#p84793ae273)" style="fill: #1f77b4; opacity: 0.4"/>
   </g>
   <g id="patch_10">
    <path d="M 83.119858 188.638125 
L 86.570743 188.638125 
L 86.570743 187.794691 
L 83.119858 187.794691 
z
" clip-path="url(#p84793ae273)" style="fill: #1f77b4; opacity: 0.4"/>
   </g>
   <g id="patch_11">
    <path d="M 86.570743 188.638125 
L 90.021629 188.638125 
L 90.021629 187.503851 
L 86.570743 187.503851 
z
" clip-path="url(#p84793ae273)" style="fill: #1f77b4; opacity: 0.4"/>
   </g>
   <g id="patch_12">
    <path d="M 90.021629 188.638125 
L 93.472514 188.638125 
L 93.472514 186.544082 
L 90.021629 186.544082 
z
" clip-path="url(#p84793ae273)" style="fill: #1f77b4; opacity: 0.4"/>
   </g>
   <g id="patch_13">
    <path d="M 93.472514 188.638125 
L 96.923399 188.638125 
L 96.923399 185.177136 
L 93.472514 185.177136 
z
" clip-path="url(#p84793ae273)" style="fill: #1f77b4; opacity: 0.4"/>
   </g>
   <g id="patch_14">
    <path d="M 96.923399 188.638125 
L 100.374285 188.638125 
L 100.374285 184.159199 
L 96.923399 184.159199 
z
" clip-path="url(#p84793ae273)" style="fill: #1f77b4; opacity: 0.4"/>
   </g>
   <g id="patch_15">
    <path d="M 100.374285 188.638125 
L 103.82517 188.638125 
L 103.82517 181.323515 
L 100.374285 181.323515 
z
" clip-path="url(#p84793ae273)" style="fill: #1f77b4; opacity: 0.4"/>
   </g>
   <g id="patch_16">
    <path d="M 103.82517 188.638125 
L 107.276056 188.638125 
L 107.276056 178.095198 
L 103.82517 178.095198 
z
" clip-path="url(#p84793ae273)" style="fill: #1f77b4; opacity: 0.4"/>
   </g>
   <g id="patch_17">
    <path d="M 107.276056 188.638125 
L 110.726941 188.638125 
L 110.726941 173.005509 
L 107.276056 173.005509 
z
" clip-path="url(#p84793ae273)" style="fill: #1f77b4; opacity: 0.4"/>
   </g>
   <g id="patch_18">
    <path d="M 110.726941 188.638125 
L 114.177827 188.638125 
L 114.177827 167.741316 
L 110.726941 167.741316 
z
" clip-path="url(#p84793ae273)" style="fill: #1f77b4; opacity: 0.4"/>
   </g>
   <g id="patch_19">
    <path d="M 114.177827 188.638125 
L 117.628712 188.638125 
L 117.628712 161.590063 
L 114.177827 161.590063 
z
" clip-path="url(#p84793ae273)" style="fill: #1f77b4; opacity: 0.4"/>
   </g>
   <g id="patch_20">
    <path d="M 117.628712 188.638125 
L 121.079597 188.638125 
L 121.079597 152.472249 
L 117.628712 152.472249 
z
" clip-path="url(#p84793ae273)" style="fill: #1f77b4; opacity: 0.4"/>
   </g>
   <g id="patch_21">
    <path d="M 121.079597 188.638125 
L 124.530483 188.638125 
L 124.530483 144.110617 
L 121.079597 144.110617 
z
" clip-path="url(#p84793ae273)" style="fill: #1f77b4; opacity: 0.4"/>
   </g>
   <g id="patch_22">
    <path d="M 124.530483 188.638125 
L 127.981368 188.638125 
L 127.981368 132.913301 
L 124.530483 132.913301 
z
" clip-path="url(#p84793ae273)" style="fill: #1f77b4; opacity: 0.4"/>
   </g>
   <g id="patch_23">
    <path d="M 127.981368 188.638125 
L 131.432254 188.638125 
L 131.432254 120.959803 
L 127.981368 120.959803 
z
" clip-path="url(#p84793ae273)" style="fill: #1f77b4; opacity: 0.4"/>
   </g>
   <g id="patch_24">
    <path d="M 131.432254 188.638125 
L 134.883139 188.638125 
L 134.883139 111.536607 
L 131.432254 111.536607 
z
" clip-path="url(#p84793ae273)" style="fill: #1f77b4; opacity: 0.4"/>
   </g>
   <g id="patch_25">
    <path d="M 134.883139 188.638125 
L 138.334025 188.638125 
L 138.334025 102.709632 
L 134.883139 102.709632 
z
" clip-path="url(#p84793ae273)" style="fill: #1f77b4; opacity: 0.4"/>
   </g>
   <g id="patch_26">
    <path d="M 138.334025 188.638125 
L 141.78491 188.638125 
L 141.78491 94.362542 
L 138.334025 94.362542 
z
" clip-path="url(#p84793ae273)" style="fill: #1f77b4; opacity: 0.4"/>
   </g>
   <g id="patch_27">
    <path d="M 141.78491 188.638125 
L 145.235795 188.638125 
L 145.235795 89.825448 
L 141.78491 89.825448 
z
" clip-path="url(#p84793ae273)" style="fill: #1f77b4; opacity: 0.4"/>
   </g>
   <g id="patch_28">
    <path d="M 145.235795 188.638125 
L 148.686681 188.638125 
L 148.686681 85.593735 
L 145.235795 85.593735 
z
" clip-path="url(#p84793ae273)" style="fill: #1f77b4; opacity: 0.4"/>
   </g>
   <g id="patch_29">
    <path d="M 148.686681 188.638125 
L 152.137566 188.638125 
L 152.137566 90.988805 
L 148.686681 90.988805 
z
" clip-path="url(#p84793ae273)" style="fill: #1f77b4; opacity: 0.4"/>
   </g>
   <g id="patch_30">
    <path d="M 152.137566 188.638125 
L 155.588452 188.638125 
L 155.588452 93.490024 
L 152.137566 93.490024 
z
" clip-path="url(#p84793ae273)" style="fill: #1f77b4; opacity: 0.4"/>
   </g>
   <g id="patch_31">
    <path d="M 155.588452 188.638125 
L 159.039337 188.638125 
L 159.039337 99.205018 
L 155.588452 99.205018 
z
" clip-path="url(#p84793ae273)" style="fill: #1f77b4; opacity: 0.4"/>
   </g>
   <g id="patch_32">
    <path d="M 159.039337 188.638125 
L 162.490223 188.638125 
L 162.490223 107.188559 
L 159.039337 107.188559 
z
" clip-path="url(#p84793ae273)" style="fill: #1f77b4; opacity: 0.4"/>
   </g>
   <g id="patch_33">
    <path d="M 162.490223 188.638125 
L 165.941108 188.638125 
L 165.941108 117.338853 
L 162.490223 117.338853 
z
" clip-path="url(#p84793ae273)" style="fill: #1f77b4; opacity: 0.4"/>
   </g>
   <g id="patch_34">
    <path d="M 165.941108 188.638125 
L 169.391993 188.638125 
L 169.391993 126.602087 
L 165.941108 126.602087 
z
" clip-path="url(#p84793ae273)" style="fill: #1f77b4; opacity: 0.4"/>
   </g>
   <g id="patch_35">
    <path d="M 169.391993 188.638125 
L 172.842879 188.638125 
L 172.842879 139.588065 
L 169.391993 139.588065 
z
" clip-path="url(#p84793ae273)" style="fill: #1f77b4; opacity: 0.4"/>
   </g>
   <g id="patch_36">
    <path d="M 172.842879 188.638125 
L 176.293764 188.638125 
L 176.293764 147.30985 
L 172.842879 147.30985 
z
" clip-path="url(#p84793ae273)" style="fill: #1f77b4; opacity: 0.4"/>
   </g>
   <g id="patch_37">
    <path d="M 176.293764 188.638125 
L 179.74465 188.638125 
L 179.74465 156.76213 
L 176.293764 156.76213 
z
" clip-path="url(#p84793ae273)" style="fill: #1f77b4; opacity: 0.4"/>
   </g>
   <g id="patch_38">
    <path d="M 179.74465 188.638125 
L 183.195535 188.638125 
L 183.195535 164.469373 
L 179.74465 164.469373 
z
" clip-path="url(#p84793ae273)" style="fill: #1f77b4; opacity: 0.4"/>
   </g>
   <g id="patch_39">
    <path d="M 183.195535 188.638125 
L 186.646421 188.638125 
L 186.646421 171.260472 
L 183.195535 171.260472 
z
" clip-path="url(#p84793ae273)" style="fill: #1f77b4; opacity: 0.4"/>
   </g>
   <g id="patch_40">
    <path d="M 186.646421 188.638125 
L 190.097306 188.638125 
L 190.097306 176.510123 
L 186.646421 176.510123 
z
" clip-path="url(#p84793ae273)" style="fill: #1f77b4; opacity: 0.4"/>
   </g>
   <g id="patch_41">
    <path d="M 190.097306 188.638125 
L 193.548191 188.638125 
L 193.548191 179.651188 
L 190.097306 179.651188 
z
" clip-path="url(#p84793ae273)" style="fill: #1f77b4; opacity: 0.4"/>
   </g>
   <g id="patch_42">
    <path d="M 193.548191 188.638125 
L 196.999077 188.638125 
L 196.999077 183.097635 
L 193.548191 183.097635 
z
" clip-path="url(#p84793ae273)" style="fill: #1f77b4; opacity: 0.4"/>
   </g>
   <g id="patch_43">
    <path d="M 196.999077 188.638125 
L 200.449962 188.638125 
L 200.449962 185.133511 
L 196.999077 185.133511 
z
" clip-path="url(#p84793ae273)" style="fill: #1f77b4; opacity: 0.4"/>
   </g>
   <g id="patch_44">
    <path d="M 200.449962 188.638125 
L 203.900848 188.638125 
L 203.900848 186.38412 
L 200.449962 186.38412 
z
" clip-path="url(#p84793ae273)" style="fill: #1f77b4; opacity: 0.4"/>
   </g>
   <g id="patch_45">
    <path d="M 203.900848 188.638125 
L 207.351733 188.638125 
L 207.351733 187.154844 
L 203.900848 187.154844 
z
" clip-path="url(#p84793ae273)" style="fill: #1f77b4; opacity: 0.4"/>
   </g>
   <g id="patch_46">
    <path d="M 207.351733 188.638125 
L 210.802619 188.638125 
L 210.802619 187.823775 
L 207.351733 187.823775 
z
" clip-path="url(#p84793ae273)" style="fill: #1f77b4; opacity: 0.4"/>
   </g>
   <g id="patch_47">
    <path d="M 210.802619 188.638125 
L 214.253504 188.638125 
L 214.253504 188.15824 
L 210.802619 188.15824 
z
" clip-path="url(#p84793ae273)" style="fill: #1f77b4; opacity: 0.4"/>
   </g>
   <g id="patch_48">
    <path d="M 214.253504 188.638125 
L 217.704389 188.638125 
L 217.704389 188.361828 
L 214.253504 188.361828 
z
" clip-path="url(#p84793ae273)" style="fill: #1f77b4; opacity: 0.4"/>
   </g>
   <g id="patch_49">
    <path d="M 217.704389 188.638125 
L 221.155275 188.638125 
L 221.155275 188.507247 
L 217.704389 188.507247 
z
" clip-path="url(#p84793ae273)" style="fill: #1f77b4; opacity: 0.4"/>
   </g>
   <g id="patch_50">
    <path d="M 221.155275 188.638125 
L 224.60616 188.638125 
L 224.60616 188.565415 
L 221.155275 188.565415 
z
" clip-path="url(#p84793ae273)" style="fill: #1f77b4; opacity: 0.4"/>
   </g>
   <g id="patch_51">
    <path d="M 224.60616 188.638125 
L 228.057046 188.638125 
L 228.057046 188.550873 
L 224.60616 188.550873 
z
" clip-path="url(#p84793ae273)" style="fill: #1f77b4; opacity: 0.4"/>
   </g>
   <g id="patch_52">
    <path d="M 228.057046 188.638125 
L 231.507931 188.638125 
L 231.507931 188.550873 
L 228.057046 188.550873 
z
" clip-path="url(#p84793ae273)" style="fill: #1f77b4; opacity: 0.4"/>
   </g>
   <g id="patch_53">
    <path d="M 95.351628 188.638125 
L 97.604779 188.638125 
L 97.604779 188.560172 
L 95.351628 188.560172 
z
" clip-path="url(#p84793ae273)" style="fill: #ff7f0e; opacity: 0.4"/>
   </g>
   <g id="patch_54">
    <path d="M 97.604779 188.638125 
L 99.85793 188.638125 
L 99.85793 188.526764 
L 97.604779 188.526764 
z
" clip-path="url(#p84793ae273)" style="fill: #ff7f0e; opacity: 0.4"/>
   </g>
   <g id="patch_55">
    <path d="M 99.85793 188.638125 
L 102.111081 188.638125 
L 102.111081 188.448811 
L 99.85793 188.448811 
z
" clip-path="url(#p84793ae273)" style="fill: #ff7f0e; opacity: 0.4"/>
   </g>
   <g id="patch_56">
    <path d="M 102.111081 188.638125 
L 104.364232 188.638125 
L 104.364232 188.270633 
L 102.111081 188.270633 
z
" clip-path="url(#p84793ae273)" style="fill: #ff7f0e; opacity: 0.4"/>
   </g>
   <g id="patch_57">
    <path d="M 104.364232 188.638125 
L 106.617383 188.638125 
L 106.617383 188.125864 
L 104.364232 188.125864 
z
" clip-path="url(#p84793ae273)" style="fill: #ff7f0e; opacity: 0.4"/>
   </g>
   <g id="patch_58">
    <path d="M 106.617383 188.638125 
L 108.870535 188.638125 
L 108.870535 187.53565 
L 106.617383 187.53565 
z
" clip-path="url(#p84793ae273)" style="fill: #ff7f0e; opacity: 0.4"/>
   </g>
   <g id="patch_59">
    <path d="M 108.870535 188.638125 
L 111.123686 188.638125 
L 111.123686 186.533401 
L 108.870535 186.533401 
z
" clip-path="url(#p84793ae273)" style="fill: #ff7f0e; opacity: 0.4"/>
   </g>
   <g id="patch_60">
    <path d="M 111.123686 188.638125 
L 113.376837 188.638125 
L 113.376837 185.631376 
L 111.123686 185.631376 
z
" clip-path="url(#p84793ae273)" style="fill: #ff7f0e; opacity: 0.4"/>
   </g>
   <g id="patch_61">
    <path d="M 113.376837 188.638125 
L 115.629988 188.638125 
L 115.629988 183.738237 
L 113.376837 183.738237 
z
" clip-path="url(#p84793ae273)" style="fill: #ff7f0e; opacity: 0.4"/>
   </g>
   <g id="patch_62">
    <path d="M 115.629988 188.638125 
L 117.883139 188.638125 
L 117.883139 180.820577 
L 115.629988 180.820577 
z
" clip-path="url(#p84793ae273)" style="fill: #ff7f0e; opacity: 0.4"/>
   </g>
   <g id="patch_63">
    <path d="M 117.883139 188.638125 
L 120.13629 188.638125 
L 120.13629 176.967484 
L 117.883139 176.967484 
z
" clip-path="url(#p84793ae273)" style="fill: #ff7f0e; opacity: 0.4"/>
   </g>
   <g id="patch_64">
    <path d="M 120.13629 188.638125 
L 122.389441 188.638125 
L 122.389441 171.265797 
L 120.13629 171.265797 
z
" clip-path="url(#p84793ae273)" style="fill: #ff7f0e; opacity: 0.4"/>
   </g>
   <g id="patch_65">
    <path d="M 122.389441 188.638125 
L 124.642592 188.638125 
L 124.642592 163.55961 
L 122.389441 163.55961 
z
" clip-path="url(#p84793ae273)" style="fill: #ff7f0e; opacity: 0.4"/>
   </g>
   <g id="patch_66">
    <path d="M 124.642592 188.638125 
L 126.895743 188.638125 
L 126.895743 154.606179 
L 124.642592 154.606179 
z
" clip-path="url(#p84793ae273)" style="fill: #ff7f0e; opacity: 0.4"/>
   </g>
   <g id="patch_67">
    <path d="M 126.895743 188.638125 
L 129.148894 188.638125 
L 129.148894 141.69943 
L 126.895743 141.69943 
z
" clip-path="url(#p84793ae273)" style="fill: #ff7f0e; opacity: 0.4"/>
   </g>
   <g id="patch_68">
    <path d="M 129.148894 188.638125 
L 131.402045 188.638125 
L 131.402045 127.244762 
L 129.148894 127.244762 
z
" clip-path="url(#p84793ae273)" style="fill: #ff7f0e; opacity: 0.4"/>
   </g>
   <g id="patch_69">
    <path d="M 131.402045 188.638125 
L 133.655197 188.638125 
L 133.655197 109.649711 
L 131.402045 109.649711 
z
" clip-path="url(#p84793ae273)" style="fill: #ff7f0e; opacity: 0.4"/>
   </g>
   <g id="patch_70">
    <path d="M 133.655197 188.638125 
L 135.908348 188.638125 
L 135.908348 94.05916 
L 133.655197 94.05916 
z
" clip-path="url(#p84793ae273)" style="fill: #ff7f0e; opacity: 0.4"/>
   </g>
   <g id="patch_71">
    <path d="M 135.908348 188.638125 
L 138.161499 188.638125 
L 138.161499 78.312703 
L 135.908348 78.312703 
z
" clip-path="url(#p84793ae273)" style="fill: #ff7f0e; opacity: 0.4"/>
   </g>
   <g id="patch_72">
    <path d="M 138.161499 188.638125 
L 140.41465 188.638125 
L 140.41465 60.606291 
L 138.161499 60.606291 
z
" clip-path="url(#p84793ae273)" style="fill: #ff7f0e; opacity: 0.4"/>
   </g>
   <g id="patch_73">
    <path d="M 140.41465 188.638125 
L 142.667801 188.638125 
L 142.667801 48.011353 
L 140.41465 48.011353 
z
" clip-path="url(#p84793ae273)" style="fill: #ff7f0e; opacity: 0.4"/>
   </g>
   <g id="patch_74">
    <path d="M 142.667801 188.638125 
L 144.920952 188.638125 
L 144.920952 37.465459 
L 142.667801 37.465459 
z
" clip-path="url(#p84793ae273)" style="fill: #ff7f0e; opacity: 0.4"/>
   </g>
   <g id="patch_75">
    <path d="M 144.920952 188.638125 
L 147.174103 188.638125 
L 147.174103 32.376258 
L 144.920952 32.376258 
z
" clip-path="url(#p84793ae273)" style="fill: #ff7f0e; opacity: 0.4"/>
   </g>
   <g id="patch_76">
    <path d="M 147.174103 188.638125 
L 149.427254 188.638125 
L 149.427254 30.238125 
L 147.174103 30.238125 
z
" clip-path="url(#p84793ae273)" style="fill: #ff7f0e; opacity: 0.4"/>
   </g>
   <g id="patch_77">
    <path d="M 149.427254 188.638125 
L 151.680405 188.638125 
L 151.680405 33.534413 
L 149.427254 33.534413 
z
" clip-path="url(#p84793ae273)" style="fill: #ff7f0e; opacity: 0.4"/>
   </g>
   <g id="patch_78">
    <path d="M 151.680405 188.638125 
L 153.933556 188.638125 
L 153.933556 43.668271 
L 151.680405 43.668271 
z
" clip-path="url(#p84793ae273)" style="fill: #ff7f0e; opacity: 0.4"/>
   </g>
   <g id="patch_79">
    <path d="M 153.933556 188.638125 
L 156.186707 188.638125 
L 156.186707 53.935763 
L 153.933556 53.935763 
z
" clip-path="url(#p84793ae273)" style="fill: #ff7f0e; opacity: 0.4"/>
   </g>
   <g id="patch_80">
    <path d="M 156.186707 188.638125 
L 158.439859 188.638125 
L 158.439859 69.092006 
L 156.186707 69.092006 
z
" clip-path="url(#p84793ae273)" style="fill: #ff7f0e; opacity: 0.4"/>
   </g>
   <g id="patch_81">
    <path d="M 158.439859 188.638125 
L 160.69301 188.638125 
L 160.69301 88.546786 
L 158.439859 88.546786 
z
" clip-path="url(#p84793ae273)" style="fill: #ff7f0e; opacity: 0.4"/>
   </g>
   <g id="patch_82">
    <path d="M 160.69301 188.638125 
L 162.946161 188.638125 
L 162.946161 102.845549 
L 160.69301 102.845549 
z
" clip-path="url(#p84793ae273)" style="fill: #ff7f0e; opacity: 0.4"/>
   </g>
   <g id="patch_83">
    <path d="M 162.946161 188.638125 
L 165.199312 188.638125 
L 165.199312 118.58087 
L 162.946161 118.58087 
z
" clip-path="url(#p84793ae273)" style="fill: #ff7f0e; opacity: 0.4"/>
   </g>
   <g id="patch_84">
    <path d="M 165.199312 188.638125 
L 167.452463 188.638125 
L 167.452463 135.875245 
L 165.199312 135.875245 
z
" clip-path="url(#p84793ae273)" style="fill: #ff7f0e; opacity: 0.4"/>
   </g>
   <g id="patch_85">
    <path d="M 167.452463 188.638125 
L 169.705614 188.638125 
L 169.705614 147.93565 
L 167.452463 147.93565 
z
" clip-path="url(#p84793ae273)" style="fill: #ff7f0e; opacity: 0.4"/>
   </g>
   <g id="patch_86">
    <path d="M 169.705614 188.638125 
L 171.958765 188.638125 
L 171.958765 159.160847 
L 169.705614 159.160847 
z
" clip-path="url(#p84793ae273)" style="fill: #ff7f0e; opacity: 0.4"/>
   </g>
   <g id="patch_87">
    <path d="M 171.958765 188.638125 
L 174.211916 188.638125 
L 174.211916 168.927214 
L 171.958765 168.927214 
z
" clip-path="url(#p84793ae273)" style="fill: #ff7f0e; opacity: 0.4"/>
   </g>
   <g id="patch_88">
    <path d="M 174.211916 188.638125 
L 176.465067 188.638125 
L 176.465067 174.506404 
L 174.211916 174.506404 
z
" clip-path="url(#p84793ae273)" style="fill: #ff7f0e; opacity: 0.4"/>
   </g>
   <g id="patch_89">
    <path d="M 176.465067 188.638125 
L 178.718218 188.638125 
L 178.718218 178.827214 
L 176.465067 178.827214 
z
" clip-path="url(#p84793ae273)" style="fill: #ff7f0e; opacity: 0.4"/>
   </g>
   <g id="patch_90">
    <path d="M 178.718218 188.638125 
L 180.971369 188.638125 
L 180.971369 182.836213 
L 178.718218 182.836213 
z
" clip-path="url(#p84793ae273)" style="fill: #ff7f0e; opacity: 0.4"/>
   </g>
   <g id="patch_91">
    <path d="M 180.971369 188.638125 
L 183.224521 188.638125 
L 183.224521 184.584582 
L 180.971369 184.584582 
z
" clip-path="url(#p84793ae273)" style="fill: #ff7f0e; opacity: 0.4"/>
   </g>
   <g id="patch_92">
    <path d="M 183.224521 188.638125 
L 185.477672 188.638125 
L 185.477672 186.444312 
L 183.224521 186.444312 
z
" clip-path="url(#p84793ae273)" style="fill: #ff7f0e; opacity: 0.4"/>
   </g>
   <g id="patch_93">
    <path d="M 185.477672 188.638125 
L 187.730823 188.638125 
L 187.730823 187.123614 
L 185.477672 187.123614 
z
" clip-path="url(#p84793ae273)" style="fill: #ff7f0e; opacity: 0.4"/>
   </g>
   <g id="patch_94">
    <path d="M 187.730823 188.638125 
L 189.983974 188.638125 
L 189.983974 187.869734 
L 187.730823 187.869734 
z
" clip-path="url(#p84793ae273)" style="fill: #ff7f0e; opacity: 0.4"/>
   </g>
   <g id="patch_95">
    <path d="M 189.983974 188.638125 
L 192.237125 188.638125 
L 192.237125 188.214953 
L 189.983974 188.214953 
z
" clip-path="url(#p84793ae273)" style="fill: #ff7f0e; opacity: 0.4"/>
   </g>
   <g id="patch_96">
    <path d="M 192.237125 188.638125 
L 194.490276 188.638125 
L 194.490276 188.33745 
L 192.237125 188.33745 
z
" clip-path="url(#p84793ae273)" style="fill: #ff7f0e; opacity: 0.4"/>
   </g>
   <g id="patch_97">
    <path d="M 194.490276 188.638125 
L 196.743427 188.638125 
L 196.743427 188.482219 
L 194.490276 188.482219 
z
" clip-path="url(#p84793ae273)" style="fill: #ff7f0e; opacity: 0.4"/>
   </g>
   <g id="patch_98">
    <path d="M 196.743427 188.638125 
L 198.996578 188.638125 
L 198.996578 188.615853 
L 196.743427 188.615853 
z
" clip-path="url(#p84793ae273)" style="fill: #ff7f0e; opacity: 0.4"/>
   </g>
   <g id="patch_99">
    <path d="M 198.996578 188.638125 
L 201.249729 188.638125 
L 201.249729 188.626989 
L 198.996578 188.626989 
z
" clip-path="url(#p84793ae273)" style="fill: #ff7f0e; opacity: 0.4"/>
   </g>
   <g id="patch_100">
    <path d="M 201.249729 188.638125 
L 203.50288 188.638125 
L 203.50288 188.593581 
L 201.249729 188.593581 
z
" clip-path="url(#p84793ae273)" style="fill: #ff7f0e; opacity: 0.4"/>
   </g>
   <g id="patch_101">
    <path d="M 203.50288 188.638125 
L 205.756031 188.638125 
L 205.756031 188.638125 
L 203.50288 188.638125 
z
" clip-path="url(#p84793ae273)" style="fill: #ff7f0e; opacity: 0.4"/>
   </g>
   <g id="patch_102">
    <path d="M 205.756031 188.638125 
L 208.009183 188.638125 
L 208.009183 188.626989 
L 205.756031 188.626989 
z
" clip-path="url(#p84793ae273)" style="fill: #ff7f0e; opacity: 0.4"/>
   </g>
   <g id="matplotlib.axis_1">
    <g id="xtick_1">
     <g id="line2d_1">
      <defs>
       <path id="mef5a225a08" d="M 0 0 
L 0 3.5 
" style="stroke: #000000; stroke-width: 0.8"/>
      </defs>
      <g>
       <use xlink:href="#mef5a225a08" x="67.814888" y="188.638125" style="stroke: #000000; stroke-width: 0.8"/>
      </g>
     </g>
     <g id="text_1">
      <!-- −4 -->
      <g transform="translate(60.443794 203.236563) scale(0.1 -0.1)">
       <defs>
        <path id="DejaVuSans-2212" d="M 678 2272 
L 4684 2272 
L 4684 1741 
L 678 1741 
L 678 2272 
z
" transform="scale(0.015625)"/>
        <path id="DejaVuSans-34" d="M 2419 4116 
L 825 1625 
L 2419 1625 
L 2419 4116 
z
M 2253 4666 
L 3047 4666 
L 3047 1625 
L 3713 1625 
L 3713 1100 
L 3047 1100 
L 3047 0 
L 2419 0 
L 2419 1100 
L 313 1100 
L 313 1709 
L 2253 4666 
z
" transform="scale(0.015625)"/>
       </defs>
       <use xlink:href="#DejaVuSans-2212"/>
       <use xlink:href="#DejaVuSans-34" x="83.789062"/>
      </g>
     </g>
    </g>
    <g id="xtick_2">
     <g id="line2d_2">
      <g>
       <use xlink:href="#mef5a225a08" x="107.74238" y="188.638125" style="stroke: #000000; stroke-width: 0.8"/>
      </g>
     </g>
     <g id="text_2">
      <!-- −2 -->
      <g transform="translate(100.371287 203.236563) scale(0.1 -0.1)">
       <defs>
        <path id="DejaVuSans-32" d="M 1228 531 
L 3431 531 
L 3431 0 
L 469 0 
L 469 531 
Q 828 903 1448 1529 
Q 2069 2156 2228 2338 
Q 2531 2678 2651 2914 
Q 2772 3150 2772 3378 
Q 2772 3750 2511 3984 
Q 2250 4219 1831 4219 
Q 1534 4219 1204 4116 
Q 875 4013 500 3803 
L 500 4441 
Q 881 4594 1212 4672 
Q 1544 4750 1819 4750 
Q 2544 4750 2975 4387 
Q 3406 4025 3406 3419 
Q 3406 3131 3298 2873 
Q 3191 2616 2906 2266 
Q 2828 2175 2409 1742 
Q 1991 1309 1228 531 
z
" transform="scale(0.015625)"/>
       </defs>
       <use xlink:href="#DejaVuSans-2212"/>
       <use xlink:href="#DejaVuSans-32" x="83.789062"/>
      </g>
     </g>
    </g>
    <g id="xtick_3">
     <g id="line2d_3">
      <g>
       <use xlink:href="#mef5a225a08" x="147.669873" y="188.638125" style="stroke: #000000; stroke-width: 0.8"/>
      </g>
     </g>
     <g id="text_3">
      <!-- 0 -->
      <g transform="translate(144.488623 203.236563) scale(0.1 -0.1)">
       <defs>
        <path id="DejaVuSans-30" d="M 2034 4250 
Q 1547 4250 1301 3770 
Q 1056 3291 1056 2328 
Q 1056 1369 1301 889 
Q 1547 409 2034 409 
Q 2525 409 2770 889 
Q 3016 1369 3016 2328 
Q 3016 3291 2770 3770 
Q 2525 4250 2034 4250 
z
M 2034 4750 
Q 2819 4750 3233 4129 
Q 3647 3509 3647 2328 
Q 3647 1150 3233 529 
Q 2819 -91 2034 -91 
Q 1250 -91 836 529 
Q 422 1150 422 2328 
Q 422 3509 836 4129 
Q 1250 4750 2034 4750 
z
" transform="scale(0.015625)"/>
       </defs>
       <use xlink:href="#DejaVuSans-30"/>
      </g>
     </g>
    </g>
    <g id="xtick_4">
     <g id="line2d_4">
      <g>
       <use xlink:href="#mef5a225a08" x="187.597365" y="188.638125" style="stroke: #000000; stroke-width: 0.8"/>
      </g>
     </g>
     <g id="text_4">
      <!-- 2 -->
      <g transform="translate(184.416115 203.236563) scale(0.1 -0.1)">
       <use xlink:href="#DejaVuSans-32"/>
      </g>
     </g>
    </g>
    <g id="xtick_5">
     <g id="line2d_5">
      <g>
       <use xlink:href="#mef5a225a08" x="227.524857" y="188.638125" style="stroke: #000000; stroke-width: 0.8"/>
      </g>
     </g>
     <g id="text_5">
      <!-- 4 -->
      <g transform="translate(224.343607 203.236563) scale(0.1 -0.1)">
       <use xlink:href="#DejaVuSans-34"/>
      </g>
     </g>
    </g>
   </g>
   <g id="matplotlib.axis_2">
    <g id="ytick_1">
     <g id="line2d_6">
      <defs>
       <path id="m08a35b9c60" d="M 0 0 
L -3.5 0 
" style="stroke: #000000; stroke-width: 0.8"/>
      </defs>
      <g>
       <use xlink:href="#m08a35b9c60" x="43.78125" y="188.638125" style="stroke: #000000; stroke-width: 0.8"/>
      </g>
     </g>
     <g id="text_6">
      <!-- 0.0 -->
      <g transform="translate(20.878125 192.437344) scale(0.1 -0.1)">
       <defs>
        <path id="DejaVuSans-2e" d="M 684 794 
L 1344 794 
L 1344 0 
L 684 0 
L 684 794 
z
" transform="scale(0.015625)"/>
       </defs>
       <use xlink:href="#DejaVuSans-30"/>
       <use xlink:href="#DejaVuSans-2e" x="63.623047"/>
       <use xlink:href="#DejaVuSans-30" x="95.410156"/>
      </g>
     </g>
    </g>
    <g id="ytick_2">
     <g id="line2d_7">
      <g>
       <use xlink:href="#m08a35b9c60" x="43.78125" y="163.501226" style="stroke: #000000; stroke-width: 0.8"/>
      </g>
     </g>
     <g id="text_7">
      <!-- 0.1 -->
      <g transform="translate(20.878125 167.300444) scale(0.1 -0.1)">
       <defs>
        <path id="DejaVuSans-31" d="M 794 531 
L 1825 531 
L 1825 4091 
L 703 3866 
L 703 4441 
L 1819 4666 
L 2450 4666 
L 2450 531 
L 3481 531 
L 3481 0 
L 794 0 
L 794 531 
z
" transform="scale(0.015625)"/>
       </defs>
       <use xlink:href="#DejaVuSans-30"/>
       <use xlink:href="#DejaVuSans-2e" x="63.623047"/>
       <use xlink:href="#DejaVuSans-31" x="95.410156"/>
      </g>
     </g>
    </g>
    <g id="ytick_3">
     <g id="line2d_8">
      <g>
       <use xlink:href="#m08a35b9c60" x="43.78125" y="138.364326" style="stroke: #000000; stroke-width: 0.8"/>
      </g>
     </g>
     <g id="text_8">
      <!-- 0.2 -->
      <g transform="translate(20.878125 142.163545) scale(0.1 -0.1)">
       <use xlink:href="#DejaVuSans-30"/>
       <use xlink:href="#DejaVuSans-2e" x="63.623047"/>
       <use xlink:href="#DejaVuSans-32" x="95.410156"/>
      </g>
     </g>
    </g>
    <g id="ytick_4">
     <g id="line2d_9">
      <g>
       <use xlink:href="#m08a35b9c60" x="43.78125" y="113.227427" style="stroke: #000000; stroke-width: 0.8"/>
      </g>
     </g>
     <g id="text_9">
      <!-- 0.3 -->
      <g transform="translate(20.878125 117.026646) scale(0.1 -0.1)">
       <defs>
        <path id="DejaVuSans-33" d="M 2597 2516 
Q 3050 2419 3304 2112 
Q 3559 1806 3559 1356 
Q 3559 666 3084 287 
Q 2609 -91 1734 -91 
Q 1441 -91 1130 -33 
Q 819 25 488 141 
L 488 750 
Q 750 597 1062 519 
Q 1375 441 1716 441 
Q 2309 441 2620 675 
Q 2931 909 2931 1356 
Q 2931 1769 2642 2001 
Q 2353 2234 1838 2234 
L 1294 2234 
L 1294 2753 
L 1863 2753 
Q 2328 2753 2575 2939 
Q 2822 3125 2822 3475 
Q 2822 3834 2567 4026 
Q 2313 4219 1838 4219 
Q 1578 4219 1281 4162 
Q 984 4106 628 3988 
L 628 4550 
Q 988 4650 1302 4700 
Q 1616 4750 1894 4750 
Q 2613 4750 3031 4423 
Q 3450 4097 3450 3541 
Q 3450 3153 3228 2886 
Q 3006 2619 2597 2516 
z
" transform="scale(0.015625)"/>
       </defs>
       <use xlink:href="#DejaVuSans-30"/>
       <use xlink:href="#DejaVuSans-2e" x="63.623047"/>
       <use xlink:href="#DejaVuSans-33" x="95.410156"/>
      </g>
     </g>
    </g>
    <g id="ytick_5">
     <g id="line2d_10">
      <g>
       <use xlink:href="#m08a35b9c60" x="43.78125" y="88.090528" style="stroke: #000000; stroke-width: 0.8"/>
      </g>
     </g>
     <g id="text_10">
      <!-- 0.4 -->
      <g transform="translate(20.878125 91.889747) scale(0.1 -0.1)">
       <use xlink:href="#DejaVuSans-30"/>
       <use xlink:href="#DejaVuSans-2e" x="63.623047"/>
       <use xlink:href="#DejaVuSans-34" x="95.410156"/>
      </g>
     </g>
    </g>
    <g id="ytick_6">
     <g id="line2d_11">
      <g>
       <use xlink:href="#m08a35b9c60" x="43.78125" y="62.953629" style="stroke: #000000; stroke-width: 0.8"/>
      </g>
     </g>
     <g id="text_11">
      <!-- 0.5 -->
      <g transform="translate(20.878125 66.752847) scale(0.1 -0.1)">
       <defs>
        <path id="DejaVuSans-35" d="M 691 4666 
L 3169 4666 
L 3169 4134 
L 1269 4134 
L 1269 2991 
Q 1406 3038 1543 3061 
Q 1681 3084 1819 3084 
Q 2600 3084 3056 2656 
Q 3513 2228 3513 1497 
Q 3513 744 3044 326 
Q 2575 -91 1722 -91 
Q 1428 -91 1123 -41 
Q 819 9 494 109 
L 494 744 
Q 775 591 1075 516 
Q 1375 441 1709 441 
Q 2250 441 2565 725 
Q 2881 1009 2881 1497 
Q 2881 1984 2565 2268 
Q 2250 2553 1709 2553 
Q 1456 2553 1204 2497 
Q 953 2441 691 2322 
L 691 4666 
z
" transform="scale(0.015625)"/>
       </defs>
       <use xlink:href="#DejaVuSans-30"/>
       <use xlink:href="#DejaVuSans-2e" x="63.623047"/>
       <use xlink:href="#DejaVuSans-35" x="95.410156"/>
      </g>
     </g>
    </g>
    <g id="ytick_7">
     <g id="line2d_12">
      <g>
       <use xlink:href="#m08a35b9c60" x="43.78125" y="37.816729" style="stroke: #000000; stroke-width: 0.8"/>
      </g>
     </g>
     <g id="text_12">
      <!-- 0.6 -->
      <g transform="translate(20.878125 41.615948) scale(0.1 -0.1)">
       <defs>
        <path id="DejaVuSans-36" d="M 2113 2584 
Q 1688 2584 1439 2293 
Q 1191 2003 1191 1497 
Q 1191 994 1439 701 
Q 1688 409 2113 409 
Q 2538 409 2786 701 
Q 3034 994 3034 1497 
Q 3034 2003 2786 2293 
Q 2538 2584 2113 2584 
z
M 3366 4563 
L 3366 3988 
Q 3128 4100 2886 4159 
Q 2644 4219 2406 4219 
Q 1781 4219 1451 3797 
Q 1122 3375 1075 2522 
Q 1259 2794 1537 2939 
Q 1816 3084 2150 3084 
Q 2853 3084 3261 2657 
Q 3669 2231 3669 1497 
Q 3669 778 3244 343 
Q 2819 -91 2113 -91 
Q 1303 -91 875 529 
Q 447 1150 447 2328 
Q 447 3434 972 4092 
Q 1497 4750 2381 4750 
Q 2619 4750 2861 4703 
Q 3103 4656 3366 4563 
z
" transform="scale(0.015625)"/>
       </defs>
       <use xlink:href="#DejaVuSans-30"/>
       <use xlink:href="#DejaVuSans-2e" x="63.623047"/>
       <use xlink:href="#DejaVuSans-36" x="95.410156"/>
      </g>
     </g>
    </g>
    <g id="text_13">
     <!-- Density -->
     <g transform="translate(14.798438 124.486719) rotate(-90) scale(0.1 -0.1)">
      <defs>
       <path id="DejaVuSans-44" d="M 1259 4147 
L 1259 519 
L 2022 519 
Q 2988 519 3436 956 
Q 3884 1394 3884 2338 
Q 3884 3275 3436 3711 
Q 2988 4147 2022 4147 
L 1259 4147 
z
M 628 4666 
L 1925 4666 
Q 3281 4666 3915 4102 
Q 4550 3538 4550 2338 
Q 4550 1131 3912 565 
Q 3275 0 1925 0 
L 628 0 
L 628 4666 
z
" transform="scale(0.015625)"/>
       <path id="DejaVuSans-65" d="M 3597 1894 
L 3597 1613 
L 953 1613 
Q 991 1019 1311 708 
Q 1631 397 2203 397 
Q 2534 397 2845 478 
Q 3156 559 3463 722 
L 3463 178 
Q 3153 47 2828 -22 
Q 2503 -91 2169 -91 
Q 1331 -91 842 396 
Q 353 884 353 1716 
Q 353 2575 817 3079 
Q 1281 3584 2069 3584 
Q 2775 3584 3186 3129 
Q 3597 2675 3597 1894 
z
M 3022 2063 
Q 3016 2534 2758 2815 
Q 2500 3097 2075 3097 
Q 1594 3097 1305 2825 
Q 1016 2553 972 2059 
L 3022 2063 
z
" transform="scale(0.015625)"/>
       <path id="DejaVuSans-6e" d="M 3513 2113 
L 3513 0 
L 2938 0 
L 2938 2094 
Q 2938 2591 2744 2837 
Q 2550 3084 2163 3084 
Q 1697 3084 1428 2787 
Q 1159 2491 1159 1978 
L 1159 0 
L 581 0 
L 581 3500 
L 1159 3500 
L 1159 2956 
Q 1366 3272 1645 3428 
Q 1925 3584 2291 3584 
Q 2894 3584 3203 3211 
Q 3513 2838 3513 2113 
z
" transform="scale(0.015625)"/>
       <path id="DejaVuSans-73" d="M 2834 3397 
L 2834 2853 
Q 2591 2978 2328 3040 
Q 2066 3103 1784 3103 
Q 1356 3103 1142 2972 
Q 928 2841 928 2578 
Q 928 2378 1081 2264 
Q 1234 2150 1697 2047 
L 1894 2003 
Q 2506 1872 2764 1633 
Q 3022 1394 3022 966 
Q 3022 478 2636 193 
Q 2250 -91 1575 -91 
Q 1294 -91 989 -36 
Q 684 19 347 128 
L 347 722 
Q 666 556 975 473 
Q 1284 391 1588 391 
Q 1994 391 2212 530 
Q 2431 669 2431 922 
Q 2431 1156 2273 1281 
Q 2116 1406 1581 1522 
L 1381 1569 
Q 847 1681 609 1914 
Q 372 2147 372 2553 
Q 372 3047 722 3315 
Q 1072 3584 1716 3584 
Q 2034 3584 2315 3537 
Q 2597 3491 2834 3397 
z
" transform="scale(0.015625)"/>
       <path id="DejaVuSans-69" d="M 603 3500 
L 1178 3500 
L 1178 0 
L 603 0 
L 603 3500 
z
M 603 4863 
L 1178 4863 
L 1178 4134 
L 603 4134 
L 603 4863 
z
" transform="scale(0.015625)"/>
       <path id="DejaVuSans-74" d="M 1172 4494 
L 1172 3500 
L 2356 3500 
L 2356 3053 
L 1172 3053 
L 1172 1153 
Q 1172 725 1289 603 
Q 1406 481 1766 481 
L 2356 481 
L 2356 0 
L 1766 0 
Q 1100 0 847 248 
Q 594 497 594 1153 
L 594 3053 
L 172 3053 
L 172 3500 
L 594 3500 
L 594 4494 
L 1172 4494 
z
" transform="scale(0.015625)"/>
       <path id="DejaVuSans-79" d="M 2059 -325 
Q 1816 -950 1584 -1140 
Q 1353 -1331 966 -1331 
L 506 -1331 
L 506 -850 
L 844 -850 
Q 1081 -850 1212 -737 
Q 1344 -625 1503 -206 
L 1606 56 
L 191 3500 
L 800 3500 
L 1894 763 
L 2988 3500 
L 3597 3500 
L 2059 -325 
z
" transform="scale(0.015625)"/>
      </defs>
      <use xlink:href="#DejaVuSans-44"/>
      <use xlink:href="#DejaVuSans-65" x="77.001953"/>
      <use xlink:href="#DejaVuSans-6e" x="138.525391"/>
      <use xlink:href="#DejaVuSans-73" x="201.904297"/>
      <use xlink:href="#DejaVuSans-69" x="254.003906"/>
      <use xlink:href="#DejaVuSans-74" x="281.787109"/>
      <use xlink:href="#DejaVuSans-79" x="320.996094"/>
     </g>
    </g>
   </g>
   <g id="line2d_13">
    <path d="M 53.00439 188.638013 
L 75.251162 188.519946 
L 80.812854 188.267024 
L 87.301496 187.57243 
L 89.155393 187.226621 
L 91.93624 186.417716 
L 96.570984 184.742834 
L 98.424881 183.914621 
L 100.278779 182.819789 
L 102.132677 181.379577 
L 103.986574 179.654463 
L 105.840472 177.604299 
L 107.694369 175.087586 
L 112.329113 167.800425 
L 114.183011 164.64834 
L 116.036908 160.817575 
L 118.817755 153.890119 
L 123.452499 142.016959 
L 125.306396 136.270091 
L 129.014192 123.173356 
L 130.868089 117.637465 
L 133.648936 110.495631 
L 138.28368 98.766635 
L 140.137577 94.926144 
L 141.991475 91.84551 
L 143.845372 89.110418 
L 144.772321 87.968506 
L 145.69927 87.214013 
L 146.626219 87.02276 
L 147.553167 87.428415 
L 148.480116 88.267836 
L 150.334014 90.208421 
L 153.11486 92.729746 
L 154.041809 93.771904 
L 154.968758 95.059828 
L 155.895707 96.654279 
L 157.749604 100.615064 
L 160.530451 107.158294 
L 162.384348 112.159961 
L 167.946041 127.998499 
L 170.726887 137.366571 
L 172.580785 142.626068 
L 177.215529 154.635349 
L 179.996375 161.118454 
L 182.777222 167.146707 
L 184.631119 170.637046 
L 186.485017 173.555607 
L 188.338914 175.959952 
L 192.973658 180.923056 
L 194.827556 182.632042 
L 196.681453 183.96829 
L 198.535351 185.004175 
L 200.389249 185.768631 
L 202.243146 186.274198 
L 205.950941 187.196139 
L 207.804839 187.615782 
L 210.585685 187.960877 
L 216.147378 188.379249 
L 221.709071 188.529403 
L 237.4672 188.637881 
L 237.4672 188.637881 
" clip-path="url(#p84793ae273)" style="fill: none; stroke: #1f77b4; stroke-width: 1.5; stroke-linecap: square"/>
   </g>
   <g id="line2d_14">
    <path d="M 92.063072 188.637923 
L 99.253102 188.518074 
L 102.848117 188.330681 
L 106.443132 187.877508 
L 108.24064 187.284601 
L 110.637316 186.283834 
L 111.835655 185.812941 
L 113.033993 185.024726 
L 114.831501 183.36478 
L 116.029839 181.887975 
L 117.228177 179.910832 
L 119.624854 175.437628 
L 120.823193 172.37612 
L 122.021531 168.911029 
L 123.219869 164.739998 
L 125.616546 154.827558 
L 126.814884 148.646277 
L 128.612392 137.961059 
L 131.009069 121.794286 
L 139.397437 60.944474 
L 141.794114 46.99254 
L 142.992452 41.26507 
L 144.190791 36.299716 
L 144.78996 34.281045 
L 145.389129 32.967025 
L 145.988298 32.31453 
L 147.186636 31.477189 
L 147.785806 30.934322 
L 148.384975 30.600285 
L 148.984144 30.846365 
L 149.583313 31.846111 
L 150.781652 35.231499 
L 151.97999 39.305206 
L 153.178328 44.89573 
L 156.174174 60.902513 
L 157.372512 70.420014 
L 158.570851 80.784149 
L 159.769189 88.963166 
L 160.967528 96.517691 
L 166.36005 135.339007 
L 168.157558 145.688051 
L 169.955065 155.406295 
L 172.351742 165.926864 
L 173.55008 169.761869 
L 175.946757 175.646674 
L 177.145095 178.147874 
L 178.942603 181.365962 
L 180.140941 182.870149 
L 182.537618 184.97529 
L 184.335126 186.274135 
L 185.533464 186.807872 
L 188.52931 187.766687 
L 190.326817 188.123851 
L 197.516848 188.5818 
L 201.711032 188.607623 
L 211.297739 188.638024 
L 211.297739 188.638024 
" clip-path="url(#p84793ae273)" style="fill: none; stroke: #ff7f0e; stroke-width: 1.5; stroke-linecap: square"/>
   </g>
   <g id="patch_103">
    <path d="M 43.78125 188.638125 
L 43.78125 22.318125 
" style="fill: none; stroke: #000000; stroke-width: 0.8; stroke-linejoin: miter; stroke-linecap: square"/>
   </g>
   <g id="patch_104">
    <path d="M 246.690341 188.638125 
L 246.690341 22.318125 
" style="fill: none; stroke: #000000; stroke-width: 0.8; stroke-linejoin: miter; stroke-linecap: square"/>
   </g>
   <g id="patch_105">
    <path d="M 43.78125 188.638125 
L 246.690341 188.638125 
" style="fill: none; stroke: #000000; stroke-width: 0.8; stroke-linejoin: miter; stroke-linecap: square"/>
   </g>
   <g id="patch_106">
    <path d="M 43.78125 22.318125 
L 246.690341 22.318125 
" style="fill: none; stroke: #000000; stroke-width: 0.8; stroke-linejoin: miter; stroke-linecap: square"/>
   </g>
   <g id="text_14">
    <!-- Xavier init -->
    <g transform="translate(114.677045 16.318125) scale(0.12 -0.12)">
     <defs>
      <path id="DejaVuSans-58" d="M 403 4666 
L 1081 4666 
L 2241 2931 
L 3406 4666 
L 4084 4666 
L 2584 2425 
L 4184 0 
L 3506 0 
L 2194 1984 
L 872 0 
L 191 0 
L 1856 2491 
L 403 4666 
z
" transform="scale(0.015625)"/>
      <path id="DejaVuSans-61" d="M 2194 1759 
Q 1497 1759 1228 1600 
Q 959 1441 959 1056 
Q 959 750 1161 570 
Q 1363 391 1709 391 
Q 2188 391 2477 730 
Q 2766 1069 2766 1631 
L 2766 1759 
L 2194 1759 
z
M 3341 1997 
L 3341 0 
L 2766 0 
L 2766 531 
Q 2569 213 2275 61 
Q 1981 -91 1556 -91 
Q 1019 -91 701 211 
Q 384 513 384 1019 
Q 384 1609 779 1909 
Q 1175 2209 1959 2209 
L 2766 2209 
L 2766 2266 
Q 2766 2663 2505 2880 
Q 2244 3097 1772 3097 
Q 1472 3097 1187 3025 
Q 903 2953 641 2809 
L 641 3341 
Q 956 3463 1253 3523 
Q 1550 3584 1831 3584 
Q 2591 3584 2966 3190 
Q 3341 2797 3341 1997 
z
" transform="scale(0.015625)"/>
      <path id="DejaVuSans-76" d="M 191 3500 
L 800 3500 
L 1894 563 
L 2988 3500 
L 3597 3500 
L 2284 0 
L 1503 0 
L 191 3500 
z
" transform="scale(0.015625)"/>
      <path id="DejaVuSans-72" d="M 2631 2963 
Q 2534 3019 2420 3045 
Q 2306 3072 2169 3072 
Q 1681 3072 1420 2755 
Q 1159 2438 1159 1844 
L 1159 0 
L 581 0 
L 581 3500 
L 1159 3500 
L 1159 2956 
Q 1341 3275 1631 3429 
Q 1922 3584 2338 3584 
Q 2397 3584 2469 3576 
Q 2541 3569 2628 3553 
L 2631 2963 
z
" transform="scale(0.015625)"/>
      <path id="DejaVuSans-20" transform="scale(0.015625)"/>
     </defs>
     <use xlink:href="#DejaVuSans-58"/>
     <use xlink:href="#DejaVuSans-61" x="68.505859"/>
     <use xlink:href="#DejaVuSans-76" x="129.785156"/>
     <use xlink:href="#DejaVuSans-69" x="188.964844"/>
     <use xlink:href="#DejaVuSans-65" x="216.748047"/>
     <use xlink:href="#DejaVuSans-72" x="278.271484"/>
     <use xlink:href="#DejaVuSans-20" x="319.384766"/>
     <use xlink:href="#DejaVuSans-69" x="351.171875"/>
     <use xlink:href="#DejaVuSans-6e" x="378.955078"/>
     <use xlink:href="#DejaVuSans-69" x="442.333984"/>
     <use xlink:href="#DejaVuSans-74" x="470.117188"/>
    </g>
   </g>
  </g>
  <g id="axes_2">
   <g id="patch_107">
    <path d="M 287.272159 188.638125 
L 490.18125 188.638125 
L 490.18125 22.318125 
L 287.272159 22.318125 
z
" style="fill: #ffffff"/>
   </g>
   <g id="patch_108">
    <path d="M 311.068558 188.638125 
L 314.199531 188.638125 
L 314.199531 188.616394 
L 311.068558 188.616394 
z
" clip-path="url(#pf71f7875ca)" style="fill: #1f77b4; opacity: 0.4"/>
   </g>
   <g id="patch_109">
    <path d="M 314.199531 188.638125 
L 317.330505 188.638125 
L 317.330505 188.638125 
L 314.199531 188.638125 
z
" clip-path="url(#pf71f7875ca)" style="fill: #1f77b4; opacity: 0.4"/>
   </g>
   <g id="patch_110">
    <path d="M 317.330505 188.638125 
L 320.461479 188.638125 
L 320.461479 188.594662 
L 317.330505 188.594662 
z
" clip-path="url(#pf71f7875ca)" style="fill: #1f77b4; opacity: 0.4"/>
   </g>
   <g id="patch_111">
    <path d="M 320.461479 188.638125 
L 323.592453 188.638125 
L 323.592453 188.594662 
L 320.461479 188.594662 
z
" clip-path="url(#pf71f7875ca)" style="fill: #1f77b4; opacity: 0.4"/>
   </g>
   <g id="patch_112">
    <path d="M 323.592453 188.638125 
L 326.723426 188.638125 
L 326.723426 188.312154 
L 323.592453 188.312154 
z
" clip-path="url(#pf71f7875ca)" style="fill: #1f77b4; opacity: 0.4"/>
   </g>
   <g id="patch_113">
    <path d="M 326.723426 188.638125 
L 329.8544 188.638125 
L 329.8544 188.355617 
L 326.723426 188.355617 
z
" clip-path="url(#pf71f7875ca)" style="fill: #1f77b4; opacity: 0.4"/>
   </g>
   <g id="patch_114">
    <path d="M 329.8544 188.638125 
L 332.985374 188.638125 
L 332.985374 188.094841 
L 329.8544 188.094841 
z
" clip-path="url(#pf71f7875ca)" style="fill: #1f77b4; opacity: 0.4"/>
   </g>
   <g id="patch_115">
    <path d="M 332.985374 188.638125 
L 336.116348 188.638125 
L 336.116348 187.638482 
L 332.985374 187.638482 
z
" clip-path="url(#pf71f7875ca)" style="fill: #1f77b4; opacity: 0.4"/>
   </g>
   <g id="patch_116">
    <path d="M 336.116348 188.638125 
L 339.247322 188.638125 
L 339.247322 187.051735 
L 336.116348 187.051735 
z
" clip-path="url(#pf71f7875ca)" style="fill: #1f77b4; opacity: 0.4"/>
   </g>
   <g id="patch_117">
    <path d="M 339.247322 188.638125 
L 342.378295 188.638125 
L 342.378295 185.421881 
L 339.247322 185.421881 
z
" clip-path="url(#pf71f7875ca)" style="fill: #1f77b4; opacity: 0.4"/>
   </g>
   <g id="patch_118">
    <path d="M 342.378295 188.638125 
L 345.509269 188.638125 
L 345.509269 183.770297 
L 342.378295 183.770297 
z
" clip-path="url(#pf71f7875ca)" style="fill: #1f77b4; opacity: 0.4"/>
   </g>
   <g id="patch_119">
    <path d="M 345.509269 188.638125 
L 348.640243 188.638125 
L 348.640243 180.81483 
L 345.509269 180.81483 
z
" clip-path="url(#pf71f7875ca)" style="fill: #1f77b4; opacity: 0.4"/>
   </g>
   <g id="patch_120">
    <path d="M 348.640243 188.638125 
L 351.771217 188.638125 
L 351.771217 176.816256 
L 348.640243 176.816256 
z
" clip-path="url(#pf71f7875ca)" style="fill: #1f77b4; opacity: 0.4"/>
   </g>
   <g id="patch_121">
    <path d="M 351.771217 188.638125 
L 354.90219 188.638125 
L 354.90219 171.448607 
L 351.771217 171.448607 
z
" clip-path="url(#pf71f7875ca)" style="fill: #1f77b4; opacity: 0.4"/>
   </g>
   <g id="patch_122">
    <path d="M 354.90219 188.638125 
L 358.033164 188.638125 
L 358.033164 162.929907 
L 354.90219 162.929907 
z
" clip-path="url(#pf71f7875ca)" style="fill: #1f77b4; opacity: 0.4"/>
   </g>
   <g id="patch_123">
    <path d="M 358.033164 188.638125 
L 361.164138 188.638125 
L 361.164138 153.150788 
L 358.033164 153.150788 
z
" clip-path="url(#pf71f7875ca)" style="fill: #1f77b4; opacity: 0.4"/>
   </g>
   <g id="patch_124">
    <path d="M 361.164138 188.638125 
L 364.295112 188.638125 
L 364.295112 140.111962 
L 361.164138 140.111962 
z
" clip-path="url(#pf71f7875ca)" style="fill: #1f77b4; opacity: 0.4"/>
   </g>
   <g id="patch_125">
    <path d="M 364.295112 188.638125 
L 367.426085 188.638125 
L 367.426085 125.55194 
L 364.295112 125.55194 
z
" clip-path="url(#pf71f7875ca)" style="fill: #1f77b4; opacity: 0.4"/>
   </g>
   <g id="patch_126">
    <path d="M 367.426085 188.638125 
L 370.557059 188.638125 
L 370.557059 111.296158 
L 367.426085 111.296158 
z
" clip-path="url(#pf71f7875ca)" style="fill: #1f77b4; opacity: 0.4"/>
   </g>
   <g id="patch_127">
    <path d="M 370.557059 188.638125 
L 373.688033 188.638125 
L 373.688033 95.975538 
L 370.557059 95.975538 
z
" clip-path="url(#pf71f7875ca)" style="fill: #1f77b4; opacity: 0.4"/>
   </g>
   <g id="patch_128">
    <path d="M 373.688033 188.638125 
L 376.819007 188.638125 
L 376.819007 75.243805 
L 373.688033 75.243805 
z
" clip-path="url(#pf71f7875ca)" style="fill: #1f77b4; opacity: 0.4"/>
   </g>
   <g id="patch_129">
    <path d="M 376.819007 188.638125 
L 379.94998 188.638125 
L 379.94998 61.009753 
L 376.819007 61.009753 
z
" clip-path="url(#pf71f7875ca)" style="fill: #1f77b4; opacity: 0.4"/>
   </g>
   <g id="patch_130">
    <path d="M 379.94998 188.638125 
L 383.080954 188.638125 
L 383.080954 50.926395 
L 379.94998 50.926395 
z
" clip-path="url(#pf71f7875ca)" style="fill: #1f77b4; opacity: 0.4"/>
   </g>
   <g id="patch_131">
    <path d="M 383.080954 188.638125 
L 386.211928 188.638125 
L 386.211928 37.192165 
L 383.080954 37.192165 
z
" clip-path="url(#pf71f7875ca)" style="fill: #1f77b4; opacity: 0.4"/>
   </g>
   <g id="patch_132">
    <path d="M 386.211928 188.638125 
L 389.342902 188.638125 
L 389.342902 35.21461 
L 386.211928 35.21461 
z
" clip-path="url(#pf71f7875ca)" style="fill: #1f77b4; opacity: 0.4"/>
   </g>
   <g id="patch_133">
    <path d="M 389.342902 188.638125 
L 392.473876 188.638125 
L 392.473876 30.238125 
L 389.342902 30.238125 
z
" clip-path="url(#pf71f7875ca)" style="fill: #1f77b4; opacity: 0.4"/>
   </g>
   <g id="patch_134">
    <path d="M 392.473876 188.638125 
L 395.604849 188.638125 
L 395.604849 36.279448 
L 392.473876 36.279448 
z
" clip-path="url(#pf71f7875ca)" style="fill: #1f77b4; opacity: 0.4"/>
   </g>
   <g id="patch_135">
    <path d="M 395.604849 188.638125 
L 398.735823 188.638125 
L 398.735823 46.493194 
L 395.604849 46.493194 
z
" clip-path="url(#pf71f7875ca)" style="fill: #1f77b4; opacity: 0.4"/>
   </g>
   <g id="patch_136">
    <path d="M 398.735823 188.638125 
L 401.866797 188.638125 
L 401.866797 58.858347 
L 398.735823 58.858347 
z
" clip-path="url(#pf71f7875ca)" style="fill: #1f77b4; opacity: 0.4"/>
   </g>
   <g id="patch_137">
    <path d="M 401.866797 188.638125 
L 404.997771 188.638125 
L 404.997771 75.678432 
L 401.866797 75.678432 
z
" clip-path="url(#pf71f7875ca)" style="fill: #1f77b4; opacity: 0.4"/>
   </g>
   <g id="patch_138">
    <path d="M 404.997771 188.638125 
L 408.128744 188.638125 
L 408.128744 93.302578 
L 404.997771 93.302578 
z
" clip-path="url(#pf71f7875ca)" style="fill: #1f77b4; opacity: 0.4"/>
   </g>
   <g id="patch_139">
    <path d="M 408.128744 188.638125 
L 411.259718 188.638125 
L 411.259718 109.90535 
L 408.128744 109.90535 
z
" clip-path="url(#pf71f7875ca)" style="fill: #1f77b4; opacity: 0.4"/>
   </g>
   <g id="patch_140">
    <path d="M 411.259718 188.638125 
L 414.390692 188.638125 
L 414.390692 126.442927 
L 411.259718 126.442927 
z
" clip-path="url(#pf71f7875ca)" style="fill: #1f77b4; opacity: 0.4"/>
   </g>
   <g id="patch_141">
    <path d="M 414.390692 188.638125 
L 417.521666 188.638125 
L 417.521666 138.677691 
L 414.390692 138.677691 
z
" clip-path="url(#pf71f7875ca)" style="fill: #1f77b4; opacity: 0.4"/>
   </g>
   <g id="patch_142">
    <path d="M 417.521666 188.638125 
L 420.652639 188.638125 
L 420.652639 152.172876 
L 417.521666 152.172876 
z
" clip-path="url(#pf71f7875ca)" style="fill: #1f77b4; opacity: 0.4"/>
   </g>
   <g id="patch_143">
    <path d="M 420.652639 188.638125 
L 423.783613 188.638125 
L 423.783613 162.038921 
L 420.652639 162.038921 
z
" clip-path="url(#pf71f7875ca)" style="fill: #1f77b4; opacity: 0.4"/>
   </g>
   <g id="patch_144">
    <path d="M 423.783613 188.638125 
L 426.914587 188.638125 
L 426.914587 169.92741 
L 423.783613 169.92741 
z
" clip-path="url(#pf71f7875ca)" style="fill: #1f77b4; opacity: 0.4"/>
   </g>
   <g id="patch_145">
    <path d="M 426.914587 188.638125 
L 430.045561 188.638125 
L 430.045561 175.816613 
L 426.914587 175.816613 
z
" clip-path="url(#pf71f7875ca)" style="fill: #1f77b4; opacity: 0.4"/>
   </g>
   <g id="patch_146">
    <path d="M 430.045561 188.638125 
L 433.176535 188.638125 
L 433.176535 180.119426 
L 430.045561 180.119426 
z
" clip-path="url(#pf71f7875ca)" style="fill: #1f77b4; opacity: 0.4"/>
   </g>
   <g id="patch_147">
    <path d="M 433.176535 188.638125 
L 436.307508 188.638125 
L 436.307508 183.205281 
L 433.176535 183.205281 
z
" clip-path="url(#pf71f7875ca)" style="fill: #1f77b4; opacity: 0.4"/>
   </g>
   <g id="patch_148">
    <path d="M 436.307508 188.638125 
L 439.438482 188.638125 
L 439.438482 185.443613 
L 436.307508 185.443613 
z
" clip-path="url(#pf71f7875ca)" style="fill: #1f77b4; opacity: 0.4"/>
   </g>
   <g id="patch_149">
    <path d="M 439.438482 188.638125 
L 442.569456 188.638125 
L 442.569456 186.66057 
L 439.438482 186.66057 
z
" clip-path="url(#pf71f7875ca)" style="fill: #1f77b4; opacity: 0.4"/>
   </g>
   <g id="patch_150">
    <path d="M 442.569456 188.638125 
L 445.70043 188.638125 
L 445.70043 187.421168 
L 442.569456 187.421168 
z
" clip-path="url(#pf71f7875ca)" style="fill: #1f77b4; opacity: 0.4"/>
   </g>
   <g id="patch_151">
    <path d="M 445.70043 188.638125 
L 448.831403 188.638125 
L 448.831403 188.116572 
L 445.70043 188.116572 
z
" clip-path="url(#pf71f7875ca)" style="fill: #1f77b4; opacity: 0.4"/>
   </g>
   <g id="patch_152">
    <path d="M 448.831403 188.638125 
L 451.962377 188.638125 
L 451.962377 188.442543 
L 448.831403 188.442543 
z
" clip-path="url(#pf71f7875ca)" style="fill: #1f77b4; opacity: 0.4"/>
   </g>
   <g id="patch_153">
    <path d="M 451.962377 188.638125 
L 455.093351 188.638125 
L 455.093351 188.529468 
L 451.962377 188.529468 
z
" clip-path="url(#pf71f7875ca)" style="fill: #1f77b4; opacity: 0.4"/>
   </g>
   <g id="patch_154">
    <path d="M 455.093351 188.638125 
L 458.224325 188.638125 
L 458.224325 188.486005 
L 455.093351 188.486005 
z
" clip-path="url(#pf71f7875ca)" style="fill: #1f77b4; opacity: 0.4"/>
   </g>
   <g id="patch_155">
    <path d="M 458.224325 188.638125 
L 461.355298 188.638125 
L 461.355298 188.507737 
L 458.224325 188.507737 
z
" clip-path="url(#pf71f7875ca)" style="fill: #1f77b4; opacity: 0.4"/>
   </g>
   <g id="patch_156">
    <path d="M 461.355298 188.638125 
L 464.486272 188.638125 
L 464.486272 188.616394 
L 461.355298 188.616394 
z
" clip-path="url(#pf71f7875ca)" style="fill: #1f77b4; opacity: 0.4"/>
   </g>
   <g id="patch_157">
    <path d="M 464.486272 188.638125 
L 467.617246 188.638125 
L 467.617246 188.616394 
L 464.486272 188.616394 
z
" clip-path="url(#pf71f7875ca)" style="fill: #1f77b4; opacity: 0.4"/>
   </g>
   <g id="patch_158">
    <path d="M 301.263713 188.638125 
L 304.762232 188.638125 
L 304.762232 188.628401 
L 301.263713 188.628401 
z
" clip-path="url(#pf71f7875ca)" style="fill: #ff7f0e; opacity: 0.4"/>
   </g>
   <g id="patch_159">
    <path d="M 304.762232 188.638125 
L 308.260752 188.638125 
L 308.260752 188.628401 
L 304.762232 188.628401 
z
" clip-path="url(#pf71f7875ca)" style="fill: #ff7f0e; opacity: 0.4"/>
   </g>
   <g id="patch_160">
    <path d="M 308.260752 188.638125 
L 311.759272 188.638125 
L 311.759272 188.618677 
L 308.260752 188.618677 
z
" clip-path="url(#pf71f7875ca)" style="fill: #ff7f0e; opacity: 0.4"/>
   </g>
   <g id="patch_161">
    <path d="M 311.759272 188.638125 
L 315.257791 188.638125 
L 315.257791 188.599228 
L 311.759272 188.599228 
z
" clip-path="url(#pf71f7875ca)" style="fill: #ff7f0e; opacity: 0.4"/>
   </g>
   <g id="patch_162">
    <path d="M 315.257791 188.638125 
L 318.756311 188.638125 
L 318.756311 188.550608 
L 315.257791 188.550608 
z
" clip-path="url(#pf71f7875ca)" style="fill: #ff7f0e; opacity: 0.4"/>
   </g>
   <g id="patch_163">
    <path d="M 318.756311 188.638125 
L 322.254831 188.638125 
L 322.254831 188.501987 
L 318.756311 188.501987 
z
" clip-path="url(#pf71f7875ca)" style="fill: #ff7f0e; opacity: 0.4"/>
   </g>
   <g id="patch_164">
    <path d="M 322.254831 188.638125 
L 325.75335 188.638125 
L 325.75335 188.433918 
L 322.254831 188.433918 
z
" clip-path="url(#pf71f7875ca)" style="fill: #ff7f0e; opacity: 0.4"/>
   </g>
   <g id="patch_165">
    <path d="M 325.75335 188.638125 
L 329.25187 188.638125 
L 329.25187 188.093572 
L 325.75335 188.093572 
z
" clip-path="url(#pf71f7875ca)" style="fill: #ff7f0e; opacity: 0.4"/>
   </g>
   <g id="patch_166">
    <path d="M 329.25187 188.638125 
L 332.75039 188.638125 
L 332.75039 187.64626 
L 329.25187 187.64626 
z
" clip-path="url(#pf71f7875ca)" style="fill: #ff7f0e; opacity: 0.4"/>
   </g>
   <g id="patch_167">
    <path d="M 332.75039 188.638125 
L 336.248909 188.638125 
L 336.248909 186.975293 
L 332.75039 186.975293 
z
" clip-path="url(#pf71f7875ca)" style="fill: #ff7f0e; opacity: 0.4"/>
   </g>
   <g id="patch_168">
    <path d="M 336.248909 188.638125 
L 339.747429 188.638125 
L 339.747429 185.944531 
L 336.248909 185.944531 
z
" clip-path="url(#pf71f7875ca)" style="fill: #ff7f0e; opacity: 0.4"/>
   </g>
   <g id="patch_169">
    <path d="M 339.747429 188.638125 
L 343.245949 188.638125 
L 343.245949 183.795491 
L 339.747429 183.795491 
z
" clip-path="url(#pf71f7875ca)" style="fill: #ff7f0e; opacity: 0.4"/>
   </g>
   <g id="patch_170">
    <path d="M 343.245949 188.638125 
L 346.744468 188.638125 
L 346.744468 180.985207 
L 343.245949 180.985207 
z
" clip-path="url(#pf71f7875ca)" style="fill: #ff7f0e; opacity: 0.4"/>
   </g>
   <g id="patch_171">
    <path d="M 346.744468 188.638125 
L 350.242988 188.638125 
L 350.242988 176.288435 
L 346.744468 176.288435 
z
" clip-path="url(#pf71f7875ca)" style="fill: #ff7f0e; opacity: 0.4"/>
   </g>
   <g id="patch_172">
    <path d="M 350.242988 188.638125 
L 353.741508 188.638125 
L 353.741508 170.81373 
L 350.242988 170.81373 
z
" clip-path="url(#pf71f7875ca)" style="fill: #ff7f0e; opacity: 0.4"/>
   </g>
   <g id="patch_173">
    <path d="M 353.741508 188.638125 
L 357.240027 188.638125 
L 357.240027 162.227292 
L 353.741508 162.227292 
z
" clip-path="url(#pf71f7875ca)" style="fill: #ff7f0e; opacity: 0.4"/>
   </g>
   <g id="patch_174">
    <path d="M 357.240027 188.638125 
L 360.738547 188.638125 
L 360.738547 151.18064 
L 357.240027 151.18064 
z
" clip-path="url(#pf71f7875ca)" style="fill: #ff7f0e; opacity: 0.4"/>
   </g>
   <g id="patch_175">
    <path d="M 360.738547 188.638125 
L 364.237067 188.638125 
L 364.237067 138.325293 
L 360.738547 138.325293 
z
" clip-path="url(#pf71f7875ca)" style="fill: #ff7f0e; opacity: 0.4"/>
   </g>
   <g id="patch_176">
    <path d="M 364.237067 188.638125 
L 367.735586 188.638125 
L 367.735586 124.575323 
L 364.237067 124.575323 
z
" clip-path="url(#pf71f7875ca)" style="fill: #ff7f0e; opacity: 0.4"/>
   </g>
   <g id="patch_177">
    <path d="M 367.735586 188.638125 
L 371.234106 188.638125 
L 371.234106 107.392723 
L 367.735586 107.392723 
z
" clip-path="url(#pf71f7875ca)" style="fill: #ff7f0e; opacity: 0.4"/>
   </g>
   <g id="patch_178">
    <path d="M 371.234106 188.638125 
L 374.732626 188.638125 
L 374.732626 89.957294 
L 371.234106 89.957294 
z
" clip-path="url(#pf71f7875ca)" style="fill: #ff7f0e; opacity: 0.4"/>
   </g>
   <g id="patch_179">
    <path d="M 374.732626 188.638125 
L 378.231146 188.638125 
L 378.231146 75.098769 
L 374.732626 75.098769 
z
" clip-path="url(#pf71f7875ca)" style="fill: #ff7f0e; opacity: 0.4"/>
   </g>
   <g id="patch_180">
    <path d="M 378.231146 188.638125 
L 381.729665 188.638125 
L 381.729665 57.993962 
L 378.231146 57.993962 
z
" clip-path="url(#pf71f7875ca)" style="fill: #ff7f0e; opacity: 0.4"/>
   </g>
   <g id="patch_181">
    <path d="M 381.729665 188.638125 
L 385.228185 188.638125 
L 385.228185 49.689525 
L 381.729665 49.689525 
z
" clip-path="url(#pf71f7875ca)" style="fill: #ff7f0e; opacity: 0.4"/>
   </g>
   <g id="patch_182">
    <path d="M 385.228185 188.638125 
L 388.726705 188.638125 
L 388.726705 41.355915 
L 385.228185 41.355915 
z
" clip-path="url(#pf71f7875ca)" style="fill: #ff7f0e; opacity: 0.4"/>
   </g>
   <g id="patch_183">
    <path d="M 388.726705 188.638125 
L 392.225224 188.638125 
L 392.225224 39.508324 
L 388.726705 39.508324 
z
" clip-path="url(#pf71f7875ca)" style="fill: #ff7f0e; opacity: 0.4"/>
   </g>
   <g id="patch_184">
    <path d="M 392.225224 188.638125 
L 395.723744 188.638125 
L 395.723744 42.688126 
L 392.225224 42.688126 
z
" clip-path="url(#pf71f7875ca)" style="fill: #ff7f0e; opacity: 0.4"/>
   </g>
   <g id="patch_185">
    <path d="M 395.723744 188.638125 
L 399.222264 188.638125 
L 399.222264 53.676433 
L 395.723744 53.676433 
z
" clip-path="url(#pf71f7875ca)" style="fill: #ff7f0e; opacity: 0.4"/>
   </g>
   <g id="patch_186">
    <path d="M 399.222264 188.638125 
L 402.720783 188.638125 
L 402.720783 67.737576 
L 399.222264 67.737576 
z
" clip-path="url(#pf71f7875ca)" style="fill: #ff7f0e; opacity: 0.4"/>
   </g>
   <g id="patch_187">
    <path d="M 402.720783 188.638125 
L 406.219303 188.638125 
L 406.219303 81.633409 
L 402.720783 81.633409 
z
" clip-path="url(#pf71f7875ca)" style="fill: #ff7f0e; opacity: 0.4"/>
   </g>
   <g id="patch_188">
    <path d="M 406.219303 188.638125 
L 409.717823 188.638125 
L 409.717823 98.903526 
L 406.219303 98.903526 
z
" clip-path="url(#pf71f7875ca)" style="fill: #ff7f0e; opacity: 0.4"/>
   </g>
   <g id="patch_189">
    <path d="M 409.717823 188.638125 
L 413.216342 188.638125 
L 413.216342 115.881919 
L 409.717823 115.881919 
z
" clip-path="url(#pf71f7875ca)" style="fill: #ff7f0e; opacity: 0.4"/>
   </g>
   <g id="patch_190">
    <path d="M 413.216342 188.638125 
L 416.714862 188.638125 
L 416.714862 132.403276 
L 413.216342 132.403276 
z
" clip-path="url(#pf71f7875ca)" style="fill: #ff7f0e; opacity: 0.4"/>
   </g>
   <g id="patch_191">
    <path d="M 416.714862 188.638125 
L 420.213382 188.638125 
L 420.213382 147.650768 
L 416.714862 147.650768 
z
" clip-path="url(#pf71f7875ca)" style="fill: #ff7f0e; opacity: 0.4"/>
   </g>
   <g id="patch_192">
    <path d="M 420.213382 188.638125 
L 423.711901 188.638125 
L 423.711901 158.123694 
L 420.213382 158.123694 
z
" clip-path="url(#pf71f7875ca)" style="fill: #ff7f0e; opacity: 0.4"/>
   </g>
   <g id="patch_193">
    <path d="M 423.711901 188.638125 
L 427.210421 188.638125 
L 427.210421 167.906204 
L 423.711901 167.906204 
z
" clip-path="url(#pf71f7875ca)" style="fill: #ff7f0e; opacity: 0.4"/>
   </g>
   <g id="patch_194">
    <path d="M 427.210421 188.638125 
L 430.708941 188.638125 
L 430.708941 173.555944 
L 427.210421 173.555944 
z
" clip-path="url(#pf71f7875ca)" style="fill: #ff7f0e; opacity: 0.4"/>
   </g>
   <g id="patch_195">
    <path d="M 430.708941 188.638125 
L 434.20746 188.638125 
L 434.20746 179.118167 
L 430.708941 179.118167 
z
" clip-path="url(#pf71f7875ca)" style="fill: #ff7f0e; opacity: 0.4"/>
   </g>
   <g id="patch_196">
    <path d="M 434.20746 188.638125 
L 437.70598 188.638125 
L 437.70598 182.755005 
L 434.20746 182.755005 
z
" clip-path="url(#pf71f7875ca)" style="fill: #ff7f0e; opacity: 0.4"/>
   </g>
   <g id="patch_197">
    <path d="M 437.70598 188.638125 
L 441.2045 188.638125 
L 441.2045 185.234667 
L 437.70598 185.234667 
z
" clip-path="url(#pf71f7875ca)" style="fill: #ff7f0e; opacity: 0.4"/>
   </g>
   <g id="patch_198">
    <path d="M 441.2045 188.638125 
L 444.703019 188.638125 
L 444.703019 186.634947 
L 441.2045 186.634947 
z
" clip-path="url(#pf71f7875ca)" style="fill: #ff7f0e; opacity: 0.4"/>
   </g>
   <g id="patch_199">
    <path d="M 444.703019 188.638125 
L 448.201539 188.638125 
L 448.201539 187.636536 
L 444.703019 187.636536 
z
" clip-path="url(#pf71f7875ca)" style="fill: #ff7f0e; opacity: 0.4"/>
   </g>
   <g id="patch_200">
    <path d="M 448.201539 188.638125 
L 451.700059 188.638125 
L 451.700059 187.937985 
L 448.201539 187.937985 
z
" clip-path="url(#pf71f7875ca)" style="fill: #ff7f0e; opacity: 0.4"/>
   </g>
   <g id="patch_201">
    <path d="M 451.700059 188.638125 
L 455.198578 188.638125 
L 455.198578 188.288055 
L 451.700059 188.288055 
z
" clip-path="url(#pf71f7875ca)" style="fill: #ff7f0e; opacity: 0.4"/>
   </g>
   <g id="patch_202">
    <path d="M 455.198578 188.638125 
L 458.697098 188.638125 
L 458.697098 188.414469 
L 455.198578 188.414469 
z
" clip-path="url(#pf71f7875ca)" style="fill: #ff7f0e; opacity: 0.4"/>
   </g>
   <g id="patch_203">
    <path d="M 458.697098 188.638125 
L 462.195618 188.638125 
L 462.195618 188.57978 
L 458.697098 188.57978 
z
" clip-path="url(#pf71f7875ca)" style="fill: #ff7f0e; opacity: 0.4"/>
   </g>
   <g id="patch_204">
    <path d="M 462.195618 188.638125 
L 465.694138 188.638125 
L 465.694138 188.608953 
L 462.195618 188.608953 
z
" clip-path="url(#pf71f7875ca)" style="fill: #ff7f0e; opacity: 0.4"/>
   </g>
   <g id="patch_205">
    <path d="M 465.694138 188.638125 
L 469.192657 188.638125 
L 469.192657 188.638125 
L 465.694138 188.638125 
z
" clip-path="url(#pf71f7875ca)" style="fill: #ff7f0e; opacity: 0.4"/>
   </g>
   <g id="patch_206">
    <path d="M 469.192657 188.638125 
L 472.691177 188.638125 
L 472.691177 188.638125 
L 469.192657 188.638125 
z
" clip-path="url(#pf71f7875ca)" style="fill: #ff7f0e; opacity: 0.4"/>
   </g>
   <g id="patch_207">
    <path d="M 472.691177 188.638125 
L 476.189697 188.638125 
L 476.189697 188.618677 
L 472.691177 188.618677 
z
" clip-path="url(#pf71f7875ca)" style="fill: #ff7f0e; opacity: 0.4"/>
   </g>
   <g id="matplotlib.axis_3">
    <g id="xtick_6">
     <g id="line2d_15">
      <g>
       <use xlink:href="#mef5a225a08" x="319.96467" y="188.638125" style="stroke: #000000; stroke-width: 0.8"/>
      </g>
     </g>
     <g id="text_15">
      <!-- −4 -->
      <g transform="translate(312.593576 203.236563) scale(0.1 -0.1)">
       <use xlink:href="#DejaVuSans-2212"/>
       <use xlink:href="#DejaVuSans-34" x="83.789062"/>
      </g>
     </g>
    </g>
    <g id="xtick_7">
     <g id="line2d_16">
      <g>
       <use xlink:href="#mef5a225a08" x="354.726885" y="188.638125" style="stroke: #000000; stroke-width: 0.8"/>
      </g>
     </g>
     <g id="text_16">
      <!-- −2 -->
      <g transform="translate(347.355792 203.236563) scale(0.1 -0.1)">
       <use xlink:href="#DejaVuSans-2212"/>
       <use xlink:href="#DejaVuSans-32" x="83.789062"/>
      </g>
     </g>
    </g>
    <g id="xtick_8">
     <g id="line2d_17">
      <g>
       <use xlink:href="#mef5a225a08" x="389.489101" y="188.638125" style="stroke: #000000; stroke-width: 0.8"/>
      </g>
     </g>
     <g id="text_17">
      <!-- 0 -->
      <g transform="translate(386.307851 203.236563) scale(0.1 -0.1)">
       <use xlink:href="#DejaVuSans-30"/>
      </g>
     </g>
    </g>
    <g id="xtick_9">
     <g id="line2d_18">
      <g>
       <use xlink:href="#mef5a225a08" x="424.251317" y="188.638125" style="stroke: #000000; stroke-width: 0.8"/>
      </g>
     </g>
     <g id="text_18">
      <!-- 2 -->
      <g transform="translate(421.070067 203.236563) scale(0.1 -0.1)">
       <use xlink:href="#DejaVuSans-32"/>
      </g>
     </g>
    </g>
    <g id="xtick_10">
     <g id="line2d_19">
      <g>
       <use xlink:href="#mef5a225a08" x="459.013533" y="188.638125" style="stroke: #000000; stroke-width: 0.8"/>
      </g>
     </g>
     <g id="text_19">
      <!-- 4 -->
      <g transform="translate(455.832283 203.236563) scale(0.1 -0.1)">
       <use xlink:href="#DejaVuSans-34"/>
      </g>
     </g>
    </g>
   </g>
   <g id="matplotlib.axis_4">
    <g id="ytick_8">
     <g id="line2d_20">
      <g>
       <use xlink:href="#m08a35b9c60" x="287.272159" y="188.638125" style="stroke: #000000; stroke-width: 0.8"/>
      </g>
     </g>
     <g id="text_20">
      <!-- 0.0 -->
      <g transform="translate(264.369034 192.437344) scale(0.1 -0.1)">
       <use xlink:href="#DejaVuSans-30"/>
       <use xlink:href="#DejaVuSans-2e" x="63.623047"/>
       <use xlink:href="#DejaVuSans-30" x="95.410156"/>
      </g>
     </g>
    </g>
    <g id="ytick_9">
     <g id="line2d_21">
      <g>
       <use xlink:href="#m08a35b9c60" x="287.272159" y="149.491962" style="stroke: #000000; stroke-width: 0.8"/>
      </g>
     </g>
     <g id="text_21">
      <!-- 0.1 -->
      <g transform="translate(264.369034 153.291181) scale(0.1 -0.1)">
       <use xlink:href="#DejaVuSans-30"/>
       <use xlink:href="#DejaVuSans-2e" x="63.623047"/>
       <use xlink:href="#DejaVuSans-31" x="95.410156"/>
      </g>
     </g>
    </g>
    <g id="ytick_10">
     <g id="line2d_22">
      <g>
       <use xlink:href="#m08a35b9c60" x="287.272159" y="110.345799" style="stroke: #000000; stroke-width: 0.8"/>
      </g>
     </g>
     <g id="text_22">
      <!-- 0.2 -->
      <g transform="translate(264.369034 114.145018) scale(0.1 -0.1)">
       <use xlink:href="#DejaVuSans-30"/>
       <use xlink:href="#DejaVuSans-2e" x="63.623047"/>
       <use xlink:href="#DejaVuSans-32" x="95.410156"/>
      </g>
     </g>
    </g>
    <g id="ytick_11">
     <g id="line2d_23">
      <g>
       <use xlink:href="#m08a35b9c60" x="287.272159" y="71.199636" style="stroke: #000000; stroke-width: 0.8"/>
      </g>
     </g>
     <g id="text_23">
      <!-- 0.3 -->
      <g transform="translate(264.369034 74.998855) scale(0.1 -0.1)">
       <use xlink:href="#DejaVuSans-30"/>
       <use xlink:href="#DejaVuSans-2e" x="63.623047"/>
       <use xlink:href="#DejaVuSans-33" x="95.410156"/>
      </g>
     </g>
    </g>
    <g id="ytick_12">
     <g id="line2d_24">
      <g>
       <use xlink:href="#m08a35b9c60" x="287.272159" y="32.053473" style="stroke: #000000; stroke-width: 0.8"/>
      </g>
     </g>
     <g id="text_24">
      <!-- 0.4 -->
      <g transform="translate(264.369034 35.852692) scale(0.1 -0.1)">
       <use xlink:href="#DejaVuSans-30"/>
       <use xlink:href="#DejaVuSans-2e" x="63.623047"/>
       <use xlink:href="#DejaVuSans-34" x="95.410156"/>
      </g>
     </g>
    </g>
    <g id="text_25">
     <!-- Density -->
     <g transform="translate(258.289347 124.486719) rotate(-90) scale(0.1 -0.1)">
      <use xlink:href="#DejaVuSans-44"/>
      <use xlink:href="#DejaVuSans-65" x="77.001953"/>
      <use xlink:href="#DejaVuSans-6e" x="138.525391"/>
      <use xlink:href="#DejaVuSans-73" x="201.904297"/>
      <use xlink:href="#DejaVuSans-69" x="254.003906"/>
      <use xlink:href="#DejaVuSans-74" x="281.787109"/>
      <use xlink:href="#DejaVuSans-79" x="320.996094"/>
     </g>
    </g>
   </g>
   <g id="line2d_25">
    <path d="M 305.866131 188.637951 
L 321.806419 188.551461 
L 332.712932 187.87868 
L 336.068782 187.265113 
L 337.746707 186.889323 
L 339.424632 186.24547 
L 341.941519 184.92114 
L 343.619444 183.870603 
L 345.297369 182.44627 
L 346.975294 180.716996 
L 348.65322 178.754451 
L 350.331145 176.425376 
L 352.00907 173.651613 
L 353.686995 170.309003 
L 355.36492 166.135342 
L 357.042845 161.30692 
L 358.72077 155.860903 
L 360.398695 149.488778 
L 364.593507 131.932211 
L 369.627283 107.997264 
L 371.305208 99.213752 
L 376.338983 71.170911 
L 378.016908 63.507645 
L 379.694833 57.263749 
L 381.372758 51.297218 
L 384.728608 37.945965 
L 385.56757 35.799874 
L 386.406533 34.63868 
L 387.245495 34.192059 
L 388.084458 33.928149 
L 388.923421 33.435922 
L 390.601346 31.956558 
L 391.440308 31.719765 
L 392.279271 32.326742 
L 393.118233 33.839674 
L 393.957196 36.00719 
L 395.635121 41.229318 
L 397.313046 47.439499 
L 399.829933 57.846307 
L 401.507858 65.841083 
L 404.863708 84.048529 
L 407.380596 97.182803 
L 414.092296 131.281841 
L 417.448146 145.889654 
L 419.126071 151.922577 
L 422.481921 162.47051 
L 424.159846 167.081117 
L 425.837771 171.02208 
L 427.515697 174.229022 
L 429.193622 176.658168 
L 432.549472 180.987791 
L 434.227397 182.626776 
L 436.744284 184.561022 
L 438.422209 185.541667 
L 440.939097 186.570182 
L 442.617022 187.088451 
L 446.811835 188.001578 
L 449.328722 188.360741 
L 453.523535 188.49624 
L 472.819673 188.637951 
L 472.819673 188.637951 
" clip-path="url(#pf71f7875ca)" style="fill: none; stroke: #1f77b4; stroke-width: 1.5; stroke-linecap: square"/>
   </g>
   <g id="line2d_26">
    <path d="M 296.4953 188.63803 
L 319.669019 188.526714 
L 326.157661 188.25206 
L 333.573251 187.209174 
L 337.281047 186.158309 
L 339.134944 185.243698 
L 341.91579 183.449653 
L 343.769688 181.925085 
L 345.623586 180.076642 
L 347.477483 177.846819 
L 349.331381 175.135088 
L 351.185278 172.095327 
L 353.039176 168.32638 
L 354.893074 163.808297 
L 356.746971 158.711724 
L 358.600869 152.511945 
L 364.162562 132.117553 
L 366.016459 124.009636 
L 370.651203 101.478909 
L 373.432049 88.109371 
L 377.139845 71.482269 
L 378.993742 62.687838 
L 379.920691 59.15695 
L 380.84764 56.384311 
L 382.701537 51.59737 
L 384.555435 45.937008 
L 385.482384 43.564997 
L 386.409333 42.007337 
L 387.336281 41.193025 
L 388.26323 40.784484 
L 389.190179 40.517961 
L 390.117128 40.451321 
L 391.044077 40.756854 
L 391.971025 41.403345 
L 392.897974 42.233121 
L 393.824923 43.284998 
L 394.751872 44.882393 
L 395.67882 47.278036 
L 397.532718 53.653729 
L 399.386616 60.784856 
L 404.02136 80.263266 
L 405.875257 88.746618 
L 413.290848 124.473692 
L 416.071694 137.24285 
L 417.925592 145.091313 
L 419.779489 151.685384 
L 423.487284 162.851284 
L 424.414233 165.323753 
L 425.341182 167.308565 
L 430.902875 176.850458 
L 432.756772 179.401786 
L 434.61067 181.541245 
L 436.464567 183.212562 
L 438.318465 184.516471 
L 440.172363 185.4677 
L 442.953209 186.638152 
L 445.734055 187.372582 
L 448.514902 187.814168 
L 452.222697 188.197008 
L 458.711338 188.504261 
L 464.273031 188.618433 
L 480.031161 188.637504 
L 480.95811 188.638004 
L 480.95811 188.638004 
" clip-path="url(#pf71f7875ca)" style="fill: none; stroke: #ff7f0e; stroke-width: 1.5; stroke-linecap: square"/>
   </g>
   <g id="patch_208">
    <path d="M 287.272159 188.638125 
L 287.272159 22.318125 
" style="fill: none; stroke: #000000; stroke-width: 0.8; stroke-linejoin: miter; stroke-linecap: square"/>
   </g>
   <g id="patch_209">
    <path d="M 490.18125 188.638125 
L 490.18125 22.318125 
" style="fill: none; stroke: #000000; stroke-width: 0.8; stroke-linejoin: miter; stroke-linecap: square"/>
   </g>
   <g id="patch_210">
    <path d="M 287.272159 188.638125 
L 490.18125 188.638125 
" style="fill: none; stroke: #000000; stroke-width: 0.8; stroke-linejoin: miter; stroke-linecap: square"/>
   </g>
   <g id="patch_211">
    <path d="M 287.272159 22.318125 
L 490.18125 22.318125 
" style="fill: none; stroke: #000000; stroke-width: 0.8; stroke-linejoin: miter; stroke-linecap: square"/>
   </g>
   <g id="text_26">
    <!-- Xavier init + gain=5/3 -->
    <g transform="translate(321.687017 16.318125) scale(0.12 -0.12)">
     <defs>
      <path id="DejaVuSans-2b" d="M 2944 4013 
L 2944 2272 
L 4684 2272 
L 4684 1741 
L 2944 1741 
L 2944 0 
L 2419 0 
L 2419 1741 
L 678 1741 
L 678 2272 
L 2419 2272 
L 2419 4013 
L 2944 4013 
z
" transform="scale(0.015625)"/>
      <path id="DejaVuSans-67" d="M 2906 1791 
Q 2906 2416 2648 2759 
Q 2391 3103 1925 3103 
Q 1463 3103 1205 2759 
Q 947 2416 947 1791 
Q 947 1169 1205 825 
Q 1463 481 1925 481 
Q 2391 481 2648 825 
Q 2906 1169 2906 1791 
z
M 3481 434 
Q 3481 -459 3084 -895 
Q 2688 -1331 1869 -1331 
Q 1566 -1331 1297 -1286 
Q 1028 -1241 775 -1147 
L 775 -588 
Q 1028 -725 1275 -790 
Q 1522 -856 1778 -856 
Q 2344 -856 2625 -561 
Q 2906 -266 2906 331 
L 2906 616 
Q 2728 306 2450 153 
Q 2172 0 1784 0 
Q 1141 0 747 490 
Q 353 981 353 1791 
Q 353 2603 747 3093 
Q 1141 3584 1784 3584 
Q 2172 3584 2450 3431 
Q 2728 3278 2906 2969 
L 2906 3500 
L 3481 3500 
L 3481 434 
z
" transform="scale(0.015625)"/>
      <path id="DejaVuSans-3d" d="M 678 2906 
L 4684 2906 
L 4684 2381 
L 678 2381 
L 678 2906 
z
M 678 1631 
L 4684 1631 
L 4684 1100 
L 678 1100 
L 678 1631 
z
" transform="scale(0.015625)"/>
      <path id="DejaVuSans-2f" d="M 1625 4666 
L 2156 4666 
L 531 -594 
L 0 -594 
L 1625 4666 
z
" transform="scale(0.015625)"/>
     </defs>
     <use xlink:href="#DejaVuSans-58"/>
     <use xlink:href="#DejaVuSans-61" x="68.505859"/>
     <use xlink:href="#DejaVuSans-76" x="129.785156"/>
     <use xlink:href="#DejaVuSans-69" x="188.964844"/>
     <use xlink:href="#DejaVuSans-65" x="216.748047"/>
     <use xlink:href="#DejaVuSans-72" x="278.271484"/>
     <use xlink:href="#DejaVuSans-20" x="319.384766"/>
     <use xlink:href="#DejaVuSans-69" x="351.171875"/>
     <use xlink:href="#DejaVuSans-6e" x="378.955078"/>
     <use xlink:href="#DejaVuSans-69" x="442.333984"/>
     <use xlink:href="#DejaVuSans-74" x="470.117188"/>
     <use xlink:href="#DejaVuSans-20" x="509.326172"/>
     <use xlink:href="#DejaVuSans-2b" x="541.113281"/>
     <use xlink:href="#DejaVuSans-20" x="624.902344"/>
     <use xlink:href="#DejaVuSans-67" x="656.689453"/>
     <use xlink:href="#DejaVuSans-61" x="720.166016"/>
     <use xlink:href="#DejaVuSans-69" x="781.445312"/>
     <use xlink:href="#DejaVuSans-6e" x="809.228516"/>
     <use xlink:href="#DejaVuSans-3d" x="872.607422"/>
     <use xlink:href="#DejaVuSans-35" x="956.396484"/>
     <use xlink:href="#DejaVuSans-2f" x="1020.019531"/>
     <use xlink:href="#DejaVuSans-33" x="1053.710938"/>
    </g>
   </g>
   <g id="legend_1">
    <g id="patch_212">
     <path d="M 294.272159 59.816563 
L 375.772159 59.816563 
Q 377.772159 59.816563 377.772159 57.816563 
L 377.772159 29.318125 
Q 377.772159 27.318125 375.772159 27.318125 
L 294.272159 27.318125 
Q 292.272159 27.318125 292.272159 29.318125 
L 292.272159 57.816563 
Q 292.272159 59.816563 294.272159 59.816563 
z
" style="fill: #ffffff; opacity: 0.8; stroke: #cccccc; stroke-linejoin: miter"/>
    </g>
    <g id="patch_213">
     <path d="M 296.272159 38.918125 
L 316.272159 38.918125 
L 316.272159 31.918125 
L 296.272159 31.918125 
z
" style="fill: #1f77b4; opacity: 0.4"/>
    </g>
    <g id="text_27">
     <!-- $\mathbf{x}$ - input -->
     <g transform="translate(324.272159 38.918125) scale(0.1 -0.1)">
      <defs>
       <path id="DejaVuSans-Bold-78" d="M 1422 1791 
L 159 3500 
L 1344 3500 
L 2059 2463 
L 2784 3500 
L 3969 3500 
L 2706 1797 
L 4031 0 
L 2847 0 
L 2059 1106 
L 1281 0 
L 97 0 
L 1422 1791 
z
" transform="scale(0.015625)"/>
       <path id="DejaVuSans-2d" d="M 313 2009 
L 1997 2009 
L 1997 1497 
L 313 1497 
L 313 2009 
z
" transform="scale(0.015625)"/>
       <path id="DejaVuSans-70" d="M 1159 525 
L 1159 -1331 
L 581 -1331 
L 581 3500 
L 1159 3500 
L 1159 2969 
Q 1341 3281 1617 3432 
Q 1894 3584 2278 3584 
Q 2916 3584 3314 3078 
Q 3713 2572 3713 1747 
Q 3713 922 3314 415 
Q 2916 -91 2278 -91 
Q 1894 -91 1617 61 
Q 1341 213 1159 525 
z
M 3116 1747 
Q 3116 2381 2855 2742 
Q 2594 3103 2138 3103 
Q 1681 3103 1420 2742 
Q 1159 2381 1159 1747 
Q 1159 1113 1420 752 
Q 1681 391 2138 391 
Q 2594 391 2855 752 
Q 3116 1113 3116 1747 
z
" transform="scale(0.015625)"/>
       <path id="DejaVuSans-75" d="M 544 1381 
L 544 3500 
L 1119 3500 
L 1119 1403 
Q 1119 906 1312 657 
Q 1506 409 1894 409 
Q 2359 409 2629 706 
Q 2900 1003 2900 1516 
L 2900 3500 
L 3475 3500 
L 3475 0 
L 2900 0 
L 2900 538 
Q 2691 219 2414 64 
Q 2138 -91 1772 -91 
Q 1169 -91 856 284 
Q 544 659 544 1381 
z
M 1991 3584 
L 1991 3584 
z
" transform="scale(0.015625)"/>
      </defs>
      <use xlink:href="#DejaVuSans-Bold-78" transform="translate(0 0.015625)"/>
      <use xlink:href="#DejaVuSans-20" transform="translate(64.501953 0.015625)"/>
      <use xlink:href="#DejaVuSans-2d" transform="translate(96.289062 0.015625)"/>
      <use xlink:href="#DejaVuSans-20" transform="translate(132.373047 0.015625)"/>
      <use xlink:href="#DejaVuSans-69" transform="translate(164.160156 0.015625)"/>
      <use xlink:href="#DejaVuSans-6e" transform="translate(191.943359 0.015625)"/>
      <use xlink:href="#DejaVuSans-70" transform="translate(255.322266 0.015625)"/>
      <use xlink:href="#DejaVuSans-75" transform="translate(318.798828 0.015625)"/>
      <use xlink:href="#DejaVuSans-74" transform="translate(382.177734 0.015625)"/>
     </g>
    </g>
    <g id="patch_214">
     <path d="M 296.272159 53.616563 
L 316.272159 53.616563 
L 316.272159 46.616563 
L 296.272159 46.616563 
z
" style="fill: #ff7f0e; opacity: 0.4"/>
    </g>
    <g id="text_28">
     <!-- $\mathbf{y}$ - output -->
     <g transform="translate(324.272159 53.616563) scale(0.1 -0.1)">
      <defs>
       <path id="DejaVuSans-Bold-79" d="M 78 3500 
L 1197 3500 
L 2138 1125 
L 2938 3500 
L 4056 3500 
L 2584 -331 
Q 2363 -916 2067 -1148 
Q 1772 -1381 1288 -1381 
L 641 -1381 
L 641 -647 
L 991 -647 
Q 1275 -647 1404 -556 
Q 1534 -466 1606 -231 
L 1638 -134 
L 78 3500 
z
" transform="scale(0.015625)"/>
       <path id="DejaVuSans-6f" d="M 1959 3097 
Q 1497 3097 1228 2736 
Q 959 2375 959 1747 
Q 959 1119 1226 758 
Q 1494 397 1959 397 
Q 2419 397 2687 759 
Q 2956 1122 2956 1747 
Q 2956 2369 2687 2733 
Q 2419 3097 1959 3097 
z
M 1959 3584 
Q 2709 3584 3137 3096 
Q 3566 2609 3566 1747 
Q 3566 888 3137 398 
Q 2709 -91 1959 -91 
Q 1206 -91 779 398 
Q 353 888 353 1747 
Q 353 2609 779 3096 
Q 1206 3584 1959 3584 
z
" transform="scale(0.015625)"/>
      </defs>
      <use xlink:href="#DejaVuSans-Bold-79" transform="translate(0 0.78125)"/>
      <use xlink:href="#DejaVuSans-20" transform="translate(65.185547 0.78125)"/>
      <use xlink:href="#DejaVuSans-2d" transform="translate(96.972656 0.78125)"/>
      <use xlink:href="#DejaVuSans-20" transform="translate(133.056641 0.78125)"/>
      <use xlink:href="#DejaVuSans-6f" transform="translate(164.84375 0.78125)"/>
      <use xlink:href="#DejaVuSans-75" transform="translate(226.025391 0.78125)"/>
      <use xlink:href="#DejaVuSans-74" transform="translate(289.404297 0.78125)"/>
      <use xlink:href="#DejaVuSans-70" transform="translate(328.613281 0.78125)"/>
      <use xlink:href="#DejaVuSans-75" transform="translate(392.089844 0.78125)"/>
      <use xlink:href="#DejaVuSans-74" transform="translate(455.46875 0.78125)"/>
     </g>
    </g>
   </g>
  </g>
 </g>
 <defs>
  <clipPath id="p84793ae273">
   <rect x="43.78125" y="22.318125" width="202.909091" height="166.32"/>
  </clipPath>
  <clipPath id="pf71f7875ca">
   <rect x="287.272159" y="22.318125" width="202.909091" height="166.32"/>
  </clipPath>
 </defs>
</svg>