<?xml version="1.0" encoding="utf-8" standalone="no"?>
<!DOCTYPE svg PUBLIC "-//W3C//DTD SVG 1.1//EN"
  "http://www.w3.org/Graphics/SVG/1.1/DTD/svg11.dtd">
<svg xmlns:xlink="http://www.w3.org/1999/xlink" width="856.863125pt" height="494.2995pt" viewBox="0 0 856.863125 494.2995" xmlns="http://www.w3.org/2000/svg" version="1.1">
 <metadata>
  <rdf:RDF xmlns:dc="http://purl.org/dc/elements/1.1/" xmlns:cc="http://creativecommons.org/ns#" xmlns:rdf="http://www.w3.org/1999/02/22-rdf-syntax-ns#">
   <cc:Work>
    <dc:type rdf:resource="http://purl.org/dc/dcmitype/StillImage"/>
    <dc:date>2023-03-29T03:36:06.271621</dc:date>
    <dc:format>image/svg+xml</dc:format>
    <dc:creator>
     <cc:Agent>
      <dc:title>Matplotlib v3.7.0, https://matplotlib.org/</dc:title>
     </cc:Agent>
    </dc:creator>
   </cc:Work>
  </rdf:RDF>
 </metadata>
 <defs>
  <style type="text/css">*{stroke-linejoin: round; stroke-linecap: butt}</style>
 </defs>
 <g id="figure_1">
  <g id="patch_1">
   <path d="M 0 494.2995 
L 856.863125 494.2995 
L 856.863125 -0 
L 0 -0 
z
" style="fill: #ffffff"/>
  </g>
  <g id="axes_1">
   <g id="patch_2">
    <path d="M 30.103125 247.4875 
L 423.063125 247.4875 
L 423.063125 35.7555 
L 30.103125 35.7555 
z
" style="fill: #ffffff"/>
   </g>
   <g id="matplotlib.axis_1">
    <g id="xtick_1">
     <g id="line2d_1">
      <defs>
       <path id="mddda9309c0" d="M 0 0 
L 0 3.5 
" style="stroke: #000000; stroke-width: 0.8"/>
      </defs>
      <g>
       <use xlink:href="#mddda9309c0" x="52.906398" y="247.4875" style="stroke: #000000; stroke-width: 0.8"/>
      </g>
     </g>
     <g id="text_1">
      <!-- −3 -->
      <g transform="translate(45.535305 262.085938) scale(0.1 -0.1)">
       <defs>
        <path id="DejaVuSans-2212" d="M 678 2272 
L 4684 2272 
L 4684 1741 
L 678 1741 
L 678 2272 
z
" transform="scale(0.015625)"/>
        <path id="DejaVuSans-33" d="M 2597 2516 
Q 3050 2419 3304 2112 
Q 3559 1806 3559 1356 
Q 3559 666 3084 287 
Q 2609 -91 1734 -91 
Q 1441 -91 1130 -33 
Q 819 25 488 141 
L 488 750 
Q 750 597 1062 519 
Q 1375 441 1716 441 
Q 2309 441 2620 675 
Q 2931 909 2931 1356 
Q 2931 1769 2642 2001 
Q 2353 2234 1838 2234 
L 1294 2234 
L 1294 2753 
L 1863 2753 
Q 2328 2753 2575 2939 
Q 2822 3125 2822 3475 
Q 2822 3834 2567 4026 
Q 2313 4219 1838 4219 
Q 1578 4219 1281 4162 
Q 984 4106 628 3988 
L 628 4550 
Q 988 4650 1302 4700 
Q 1616 4750 1894 4750 
Q 2613 4750 3031 4423 
Q 3450 4097 3450 3541 
Q 3450 3153 3228 2886 
Q 3006 2619 2597 2516 
z
" transform="scale(0.015625)"/>
       </defs>
       <use xlink:href="#DejaVuSans-2212"/>
       <use xlink:href="#DejaVuSans-33" x="83.789062"/>
      </g>
     </g>
    </g>
    <g id="xtick_2">
     <g id="line2d_2">
      <g>
       <use xlink:href="#mddda9309c0" x="110.798641" y="247.4875" style="stroke: #000000; stroke-width: 0.8"/>
      </g>
     </g>
     <g id="text_2">
      <!-- −2 -->
      <g transform="translate(103.427547 262.085938) scale(0.1 -0.1)">
       <defs>
        <path id="DejaVuSans-32" d="M 1228 531 
L 3431 531 
L 3431 0 
L 469 0 
L 469 531 
Q 828 903 1448 1529 
Q 2069 2156 2228 2338 
Q 2531 2678 2651 2914 
Q 2772 3150 2772 3378 
Q 2772 3750 2511 3984 
Q 2250 4219 1831 4219 
Q 1534 4219 1204 4116 
Q 875 4013 500 3803 
L 500 4441 
Q 881 4594 1212 4672 
Q 1544 4750 1819 4750 
Q 2544 4750 2975 4387 
Q 3406 4025 3406 3419 
Q 3406 3131 3298 2873 
Q 3191 2616 2906 2266 
Q 2828 2175 2409 1742 
Q 1991 1309 1228 531 
z
" transform="scale(0.015625)"/>
       </defs>
       <use xlink:href="#DejaVuSans-2212"/>
       <use xlink:href="#DejaVuSans-32" x="83.789062"/>
      </g>
     </g>
    </g>
    <g id="xtick_3">
     <g id="line2d_3">
      <g>
       <use xlink:href="#mddda9309c0" x="168.690883" y="247.4875" style="stroke: #000000; stroke-width: 0.8"/>
      </g>
     </g>
     <g id="text_3">
      <!-- −1 -->
      <g transform="translate(161.319789 262.085938) scale(0.1 -0.1)">
       <defs>
        <path id="DejaVuSans-31" d="M 794 531 
L 1825 531 
L 1825 4091 
L 703 3866 
L 703 4441 
L 1819 4666 
L 2450 4666 
L 2450 531 
L 3481 531 
L 3481 0 
L 794 0 
L 794 531 
z
" transform="scale(0.015625)"/>
       </defs>
       <use xlink:href="#DejaVuSans-2212"/>
       <use xlink:href="#DejaVuSans-31" x="83.789062"/>
      </g>
     </g>
    </g>
    <g id="xtick_4">
     <g id="line2d_4">
      <g>
       <use xlink:href="#mddda9309c0" x="226.583125" y="247.4875" style="stroke: #000000; stroke-width: 0.8"/>
      </g>
     </g>
     <g id="text_4">
      <!-- 0 -->
      <g transform="translate(223.401875 262.085938) scale(0.1 -0.1)">
       <defs>
        <path id="DejaVuSans-30" d="M 2034 4250 
Q 1547 4250 1301 3770 
Q 1056 3291 1056 2328 
Q 1056 1369 1301 889 
Q 1547 409 2034 409 
Q 2525 409 2770 889 
Q 3016 1369 3016 2328 
Q 3016 3291 2770 3770 
Q 2525 4250 2034 4250 
z
M 2034 4750 
Q 2819 4750 3233 4129 
Q 3647 3509 3647 2328 
Q 3647 1150 3233 529 
Q 2819 -91 2034 -91 
Q 1250 -91 836 529 
Q 422 1150 422 2328 
Q 422 3509 836 4129 
Q 1250 4750 2034 4750 
z
" transform="scale(0.015625)"/>
       </defs>
       <use xlink:href="#DejaVuSans-30"/>
      </g>
     </g>
    </g>
    <g id="xtick_5">
     <g id="line2d_5">
      <g>
       <use xlink:href="#mddda9309c0" x="284.475367" y="247.4875" style="stroke: #000000; stroke-width: 0.8"/>
      </g>
     </g>
     <g id="text_5">
      <!-- 1 -->
      <g transform="translate(281.294117 262.085938) scale(0.1 -0.1)">
       <use xlink:href="#DejaVuSans-31"/>
      </g>
     </g>
    </g>
    <g id="xtick_6">
     <g id="line2d_6">
      <g>
       <use xlink:href="#mddda9309c0" x="342.367609" y="247.4875" style="stroke: #000000; stroke-width: 0.8"/>
      </g>
     </g>
     <g id="text_6">
      <!-- 2 -->
      <g transform="translate(339.186359 262.085938) scale(0.1 -0.1)">
       <use xlink:href="#DejaVuSans-32"/>
      </g>
     </g>
    </g>
    <g id="xtick_7">
     <g id="line2d_7">
      <g>
       <use xlink:href="#mddda9309c0" x="400.259852" y="247.4875" style="stroke: #000000; stroke-width: 0.8"/>
      </g>
     </g>
     <g id="text_7">
      <!-- 3 -->
      <g transform="translate(397.078602 262.085938) scale(0.1 -0.1)">
       <use xlink:href="#DejaVuSans-33"/>
      </g>
     </g>
    </g>
   </g>
   <g id="matplotlib.axis_2">
    <g id="ytick_1">
     <g id="line2d_8">
      <defs>
       <path id="m99667863c1" d="M 0 0 
L -3.5 0 
" style="stroke: #000000; stroke-width: 0.8"/>
      </defs>
      <g>
       <use xlink:href="#m99667863c1" x="30.103125" y="237.863318" style="stroke: #000000; stroke-width: 0.8"/>
      </g>
     </g>
     <g id="text_8">
      <!-- 0.0 -->
      <g transform="translate(7.2 241.662537) scale(0.1 -0.1)">
       <defs>
        <path id="DejaVuSans-2e" d="M 684 794 
L 1344 794 
L 1344 0 
L 684 0 
L 684 794 
z
" transform="scale(0.015625)"/>
       </defs>
       <use xlink:href="#DejaVuSans-30"/>
       <use xlink:href="#DejaVuSans-2e" x="63.623047"/>
       <use xlink:href="#DejaVuSans-30" x="95.410156"/>
      </g>
     </g>
    </g>
    <g id="ytick_2">
     <g id="line2d_9">
      <g>
       <use xlink:href="#m99667863c1" x="30.103125" y="195.456603" style="stroke: #000000; stroke-width: 0.8"/>
      </g>
     </g>
     <g id="text_9">
      <!-- 0.5 -->
      <g transform="translate(7.2 199.255822) scale(0.1 -0.1)">
       <defs>
        <path id="DejaVuSans-35" d="M 691 4666 
L 3169 4666 
L 3169 4134 
L 1269 4134 
L 1269 2991 
Q 1406 3038 1543 3061 
Q 1681 3084 1819 3084 
Q 2600 3084 3056 2656 
Q 3513 2228 3513 1497 
Q 3513 744 3044 326 
Q 2575 -91 1722 -91 
Q 1428 -91 1123 -41 
Q 819 9 494 109 
L 494 744 
Q 775 591 1075 516 
Q 1375 441 1709 441 
Q 2250 441 2565 725 
Q 2881 1009 2881 1497 
Q 2881 1984 2565 2268 
Q 2250 2553 1709 2553 
Q 1456 2553 1204 2497 
Q 953 2441 691 2322 
L 691 4666 
z
" transform="scale(0.015625)"/>
       </defs>
       <use xlink:href="#DejaVuSans-30"/>
       <use xlink:href="#DejaVuSans-2e" x="63.623047"/>
       <use xlink:href="#DejaVuSans-35" x="95.410156"/>
      </g>
     </g>
    </g>
    <g id="ytick_3">
     <g id="line2d_10">
      <g>
       <use xlink:href="#m99667863c1" x="30.103125" y="153.049888" style="stroke: #000000; stroke-width: 0.8"/>
      </g>
     </g>
     <g id="text_10">
      <!-- 1.0 -->
      <g transform="translate(7.2 156.849107) scale(0.1 -0.1)">
       <use xlink:href="#DejaVuSans-31"/>
       <use xlink:href="#DejaVuSans-2e" x="63.623047"/>
       <use xlink:href="#DejaVuSans-30" x="95.410156"/>
      </g>
     </g>
    </g>
    <g id="ytick_4">
     <g id="line2d_11">
      <g>
       <use xlink:href="#m99667863c1" x="30.103125" y="110.643173" style="stroke: #000000; stroke-width: 0.8"/>
      </g>
     </g>
     <g id="text_11">
      <!-- 1.5 -->
      <g transform="translate(7.2 114.442392) scale(0.1 -0.1)">
       <use xlink:href="#DejaVuSans-31"/>
       <use xlink:href="#DejaVuSans-2e" x="63.623047"/>
       <use xlink:href="#DejaVuSans-35" x="95.410156"/>
      </g>
     </g>
    </g>
    <g id="ytick_5">
     <g id="line2d_12">
      <g>
       <use xlink:href="#m99667863c1" x="30.103125" y="68.236458" style="stroke: #000000; stroke-width: 0.8"/>
      </g>
     </g>
     <g id="text_12">
      <!-- 2.0 -->
      <g transform="translate(7.2 72.035677) scale(0.1 -0.1)">
       <use xlink:href="#DejaVuSans-32"/>
       <use xlink:href="#DejaVuSans-2e" x="63.623047"/>
       <use xlink:href="#DejaVuSans-30" x="95.410156"/>
      </g>
     </g>
    </g>
   </g>
   <g id="line2d_13">
    <path d="M 169.066917 200.533704 
L 171.94418 203.733343 
L 174.821439 169.603455 
L 177.698702 172.80313 
L 180.575965 185.068515 
L 183.453225 165.870488 
L 186.330488 174.936183 
L 189.207747 181.8689 
L 192.08501 178.135934 
L 194.962273 190.934605 
L 197.839533 190.93466 
L 200.716796 173.869651 
L 203.594057 190.93463 
L 206.471318 214.932268 
L 209.348581 196.80072 
L 212.225842 211.199291 
L 215.103103 200.533681 
L 217.980365 215.998824 
L 220.857627 203.733371 
L 223.734888 217.065381 
L 226.61215 203.20009 
L 229.489412 210.666015 
L 232.366673 216.532103 
L 235.243936 205.866523 
L 238.1212 217.065378 
L 240.998461 214.398974 
L 243.875723 215.998829 
L 246.752986 219.73178 
L 249.630247 212.799134 
L 252.507508 211.732587 
L 255.384771 209.599436 
L 258.262031 214.398961 
L 261.13929 214.932268 
L 264.016553 213.86568 
L 266.893812 213.865708 
L 269.771075 215.998829 
L 272.648338 221.331612 
L 275.525598 210.132747 
L 278.402861 217.065366 
L 281.28012 206.39975 
L 284.15738 210.132747 
L 287.034643 225.064578 
L 289.911902 227.197702 
L 292.789162 229.330845 
L 295.666428 223.464735 
L 298.543688 227.197702 
L 301.420947 222.398211 
L 304.298214 228.264309 
L 307.175487 226.13114 
L 310.052746 216.532135 
L 312.930013 214.932242 
L 315.807272 222.931454 
L 318.684532 228.797565 
L 321.561798 228.264263 
L 324.439058 228.264263 
L 327.316317 230.397386 
L 330.193577 233.597071 
L 333.070836 233.063802 
L 335.948103 230.930667 
L 338.825362 232.53051 
L 341.702622 236.263479 
L 344.579888 230.930667 
L 347.457147 233.597071 
L 350.334407 230.397386 
L 353.211667 235.196914 
L 356.088926 231.997229 
L 358.966186 235.730195 
L 361.843445 235.730205 
L 364.720718 237.330037 
L 367.597978 235.730195 
L 370.475237 233.06379 
L 373.352497 235.730205 
L 376.22977 237.863318 
L 379.10703 236.263476 
L 381.984289 237.330037 
L 384.861549 235.730205 
L 387.738822 236.796756 
L 390.616081 237.863318 
L 393.493341 237.330037 
L 396.3706 237.330037 
L 399.24786 232.53051 
L 402.125119 236.796756 
L 405.002379 237.863318 
L 407.879638 237.33004 
L 410.756912 237.863318 
L 413.634171 237.330037 
L 416.511431 237.330037 
L 419.38869 237.863318 
L 422.26595 237.863318 
L 425.143209 237.863318 
L 428.020469 237.863318 
L 430.897728 237.33004 
L 433.775002 237.330037 
L 436.652261 237.863318 
L 439.529521 237.863318 
L 442.40678 237.863318 
L 445.28404 237.33004 
L 448.161313 237.863318 
L 451.038572 237.863318 
L 453.915832 237.330037 
" clip-path="url(#p1e78dd4501)" style="fill: none; stroke: #1f77b4; stroke-width: 1.5; stroke-linecap: square"/>
   </g>
   <g id="line2d_14">
    <path d="M 168.991196 142.764265 
L 172.234255 129.516514 
L 175.477311 144.656778 
L 178.72037 138.979118 
L 181.963425 149.861203 
L 185.206485 166.893797 
L 188.44954 170.205781 
L 191.692599 186.292184 
L 194.935658 189.604072 
L 198.178716 182.033995 
L 201.421773 198.593537 
L 204.66483 205.690485 
L 207.907888 215.153097 
L 211.150947 218.938123 
L 214.394004 217.045604 
L 217.637062 218.938112 
L 220.880117 223.196293 
L 224.123175 222.250032 
L 227.366232 223.196293 
L 230.60929 226.035071 
L 233.852348 225.08881 
L 237.095405 221.776906 
L 240.338463 217.991864 
L 243.581521 225.561947 
L 246.82458 218.938123 
L 250.067637 212.787436 
L 253.310694 225.561947 
L 256.553753 225.561935 
L 259.796809 215.626225 
L 263.039868 226.981324 
L 266.282924 215.153097 
L 269.525983 227.927585 
L 272.769039 219.411263 
L 276.012098 221.303763 
L 279.255153 222.250039 
L 282.498212 218.938133 
L 285.741271 214.679941 
L 288.984327 224.142544 
L 292.227383 215.153072 
L 295.470438 224.142602 
L 298.713508 221.776893 
L 301.956563 234.078285 
L 305.199626 226.508195 
L 308.442682 230.766366 
L 311.685737 232.185757 
L 314.928793 227.927607 
L 318.171855 229.820106 
L 321.414911 231.712627 
L 324.657967 233.132017 
L 327.901022 226.508219 
L 331.144085 229.820106 
L 334.387141 229.346975 
L 337.630196 230.766366 
L 340.873252 224.615702 
L 344.116314 231.239496 
L 347.35937 232.185757 
L 350.602426 235.024537 
L 353.845481 235.497667 
L 357.088537 235.497667 
L 360.331593 235.970806 
L 363.574662 235.024537 
L 366.817718 234.078277 
L 370.060773 234.551407 
L 373.303829 235.024537 
L 376.546885 235.497667 
L 379.78994 236.443928 
L 383.032996 237.390188 
L 386.276051 235.497677 
L 389.519121 235.024537 
L 392.762177 235.970798 
L 396.005232 236.917058 
L 399.248288 235.497667 
L 402.491343 236.917058 
L 405.734399 235.970798 
L 408.977455 236.443928 
L 412.22051 236.917062 
L 415.46358 237.863318 
L 418.706635 236.443928 
L 421.949691 236.443928 
L 425.192747 236.917058 
L 428.435802 236.443928 
L 431.678858 237.390188 
L 434.921914 236.443928 
L 438.164969 237.863318 
L 441.408039 236.917058 
L 444.651094 237.390188 
L 447.89415 236.917058 
L 451.137206 237.863318 
L 454.380261 237.863318 
L 457.623317 237.863318 
L 460.866373 236.917058 
L 464.109428 236.917058 
L 467.352484 237.390188 
L 470.595539 237.863318 
L 473.838595 237.863318 
L 477.081651 237.863318 
L 480.324734 237.390188 
L 483.56779 237.863318 
L 486.810845 237.863318 
L 490.053901 237.390188 
" clip-path="url(#p1e78dd4501)" style="fill: none; stroke: #ff7f0e; stroke-width: 1.5; stroke-linecap: square"/>
   </g>
   <g id="line2d_15">
    <path d="M 168.835403 119.611007 
L 172.715089 127.916257 
L 176.594772 117.23795 
L 180.474454 153.623379 
L 184.35414 177.352943 
L 188.233826 186.449226 
L 192.113509 183.680776 
L 195.993192 199.896024 
L 199.872878 207.014879 
L 203.752562 206.22389 
L 207.632247 219.670647 
L 211.511931 209.783327 
L 215.391615 221.252619 
L 219.2713 215.320227 
L 223.150984 216.506705 
L 227.030669 217.297691 
L 230.910353 228.766983 
L 234.790037 220.857126 
L 238.669722 225.998532 
L 242.549406 225.603041 
L 246.429091 227.975997 
L 250.308775 229.162476 
L 254.188459 227.975993 
L 258.068142 225.603046 
L 261.947828 226.789524 
L 265.827514 220.066132 
L 269.707197 224.416555 
L 273.58688 223.23009 
L 277.466566 224.021076 
L 281.346252 220.461641 
L 285.225938 211.365261 
L 289.105617 220.461641 
L 292.985303 225.998537 
L 296.86499 223.230063 
L 300.744669 227.580509 
L 304.624355 226.394032 
L 308.504041 226.789524 
L 312.383727 220.461641 
L 316.263413 226.394012 
L 320.143092 227.580509 
L 324.022779 232.721914 
L 327.902465 227.580491 
L 331.782144 228.371495 
L 335.66183 230.348957 
L 339.541516 232.326421 
L 343.421202 234.303884 
L 347.300888 234.303884 
L 351.180575 231.930907 
L 355.060247 235.09487 
L 358.939933 234.699377 
L 362.819619 234.303884 
L 366.699305 235.09487 
L 370.578991 234.699366 
L 374.458664 235.09487 
L 378.33835 233.512899 
L 382.218036 235.885848 
L 386.097708 234.699377 
L 389.977394 232.326421 
L 393.85708 235.490362 
L 397.736767 235.09487 
L 401.616453 235.885848 
L 405.496125 235.885855 
L 409.375811 236.281348 
L 413.255497 237.467824 
L 417.13517 236.281348 
L 421.014856 236.281348 
L 424.894542 236.281348 
L 428.774228 237.863318 
L 432.653914 235.490354 
L 436.533586 237.863318 
L 440.413273 236.67684 
L 444.292959 236.676844 
L 448.172659 237.467826 
L 452.052345 237.072333 
L 455.932031 236.67684 
L 459.811717 236.67684 
L 463.691403 237.072333 
L 467.571089 237.072333 
L 471.450775 237.467826 
L 475.330461 237.072327 
L 479.21012 237.467826 
L 483.089806 237.863318 
L 486.969492 237.467826 
L 490.849178 237.467826 
L 494.728864 235.885855 
L 498.608551 237.863318 
L 502.488237 237.863318 
L 506.367923 236.67684 
L 510.247609 237.467826 
L 514.127295 237.863318 
L 518.006981 237.467826 
L 521.886667 237.863318 
L 525.766353 237.863318 
L 529.64604 237.863318 
L 533.525726 237.863318 
L 537.405412 237.863318 
L 541.28507 237.863318 
L 545.164756 237.863318 
L 549.044443 237.467826 
L 552.924129 237.467826 
" clip-path="url(#p1e78dd4501)" style="fill: none; stroke: #2ca02c; stroke-width: 1.5; stroke-linecap: square"/>
   </g>
   <g id="line2d_16">
    <path d="M 168.6961 45.379682 
L 172.602146 72.87722 
L 176.508188 106.267378 
L 180.414234 136.514712 
L 184.320276 156.54881 
L 188.226321 181.296699 
L 192.132367 197.795264 
L 196.038409 204.473302 
L 199.944455 208.008703 
L 203.850499 211.544116 
L 207.756542 220.186251 
L 211.662588 222.93601 
L 215.568632 222.936012 
L 219.474676 228.042722 
L 223.380721 228.828369 
L 227.286765 226.864251 
L 231.192809 225.685778 
L 235.098853 226.471428 
L 239.004898 228.042723 
L 242.910943 224.900129 
L 246.816986 228.042721 
L 250.72303 230.399667 
L 254.629076 222.150355 
L 258.535118 228.82838 
L 262.441167 226.078605 
L 266.347213 220.57906 
L 270.253255 231.578139 
L 274.159301 224.114476 
L 278.065343 224.507311 
L 281.971388 231.970962 
L 285.877434 217.043643 
L 289.783476 225.685771 
L 293.689518 233.542254 
L 297.59556 229.614027 
L 301.501609 227.649893 
L 305.407652 230.006837 
L 309.313694 230.399674 
L 313.219743 233.149429 
L 317.125785 230.792484 
L 321.031827 231.578133 
L 324.937869 228.43554 
L 328.843912 233.542261 
L 332.749961 232.363781 
L 336.656003 235.899198 
L 340.562045 233.542254 
L 344.468087 234.327908 
L 348.374136 237.077671 
L 352.280185 234.720731 
L 356.186234 235.899201 
L 360.092283 234.327895 
L 363.998319 235.506378 
L 367.904368 235.506378 
L 371.810417 234.72072 
L 375.716452 234.720731 
L 379.622501 237.077671 
L 383.52855 235.899194 
L 387.434585 235.113554 
L 391.340634 237.470493 
L 395.24667 237.470495 
L 399.152719 236.292025 
L 403.058768 236.684844 
L 406.964803 236.684848 
L 410.870852 236.292025 
L 414.776901 237.470493 
L 418.682936 237.077671 
L 422.588985 234.72072 
L 426.495021 237.077671 
L 430.40107 237.863318 
L 434.307119 237.863318 
L 438.213154 237.470495 
L 442.119203 236.292025 
L 446.025252 236.684848 
L 449.931301 237.863318 
L 453.83735 237.077669 
L 457.743386 237.470493 
L 461.649421 237.470495 
L 465.55547 237.470495 
L 469.461519 237.863318 
L 473.367568 236.292025 
L 477.273617 237.470495 
L 481.179666 237.863318 
L 485.085715 237.470495 
L 488.991764 237.863318 
L 492.897786 237.863318 
L 496.803835 237.470495 
L 500.709884 237.077671 
L 504.615933 237.863318 
L 508.521982 237.863318 
L 512.428003 237.863318 
L 516.334053 237.863318 
L 520.240102 237.863318 
L 524.146123 237.470495 
L 528.052172 237.863318 
L 531.958221 237.863318 
L 535.86427 237.863318 
L 539.770319 237.863318 
L 543.676368 237.863318 
L 547.582417 237.863318 
L 551.488439 237.863318 
L 555.394488 237.470495 
" clip-path="url(#p1e78dd4501)" style="fill: none; stroke: #d62728; stroke-width: 1.5; stroke-linecap: square"/>
   </g>
   <g id="line2d_17">
    <path d="M 168.810275 146.603422 
L 171.248216 120.169534 
L 173.686156 130.23959 
L 176.124096 132.757107 
L 178.562037 134.645242 
L 180.999977 137.162748 
L 183.437918 142.827163 
L 185.875858 156.673488 
L 188.313799 152.267837 
L 190.751739 142.197781 
L 193.189679 173.666707 
L 195.62762 174.296084 
L 198.06556 174.92542 
L 200.503499 207.023769 
L 202.94144 179.331112 
L 205.37938 190.659896 
L 207.817319 200.729987 
L 210.255259 205.135636 
L 212.6932 212.688168 
L 215.131139 216.464448 
L 217.56908 212.688176 
L 220.00702 215.835066 
L 222.44496 219.61134 
L 224.8829 203.876848 
L 227.320839 221.499476 
L 229.758779 220.240718 
L 232.196719 224.016987 
L 234.634659 209.541285 
L 237.0726 220.240719 
L 239.51054 230.940152 
L 241.94848 231.569533 
L 244.38642 200.100631 
L 246.824362 228.42264 
L 249.262303 218.352583 
L 251.700243 215.835069 
L 254.138184 218.352583 
L 256.576124 227.163883 
L 259.014064 223.387612 
L 261.452005 224.646369 
L 263.889945 213.946934 
L 266.327886 229.052019 
L 268.765826 229.681398 
L 271.203767 221.499477 
L 273.641707 229.052019 
L 276.079647 230.940154 
L 278.517588 223.387612 
L 280.955528 231.569533 
L 283.393469 229.051994 
L 285.831402 232.198903 
L 288.269339 232.828297 
L 290.707283 228.422626 
L 293.14522 230.310786 
L 295.583164 230.940145 
L 298.021101 229.681409 
L 300.459045 229.052006 
L 302.896982 233.457662 
L 305.334919 232.828283 
L 307.772856 230.310786 
L 310.2108 234.716421 
L 312.648737 233.457675 
L 315.086681 235.345801 
L 317.524618 235.975185 
L 319.962562 233.457662 
L 322.400499 234.71643 
L 324.838442 234.716421 
L 327.276379 232.828297 
L 329.714323 235.345801 
L 332.15226 237.233941 
L 334.590204 235.97518 
L 337.028141 233.457675 
L 339.466085 236.604559 
L 341.904022 237.233939 
L 344.341959 234.087042 
L 346.779896 235.345801 
L 349.217833 235.975191 
L 351.655784 236.604559 
L 354.093721 235.345801 
L 356.531658 237.233939 
L 358.969595 237.233942 
L 361.407546 235.345801 
L 363.845483 237.233939 
L 366.28342 237.863318 
L 368.721356 236.604566 
L 371.159307 237.233939 
L 373.597244 237.863318 
L 376.035181 237.863318 
L 378.473118 237.863318 
L 380.911069 237.863318 
L 383.349006 236.604559 
L 385.786943 237.233939 
L 388.22488 237.863318 
L 390.662831 237.233939 
L 393.100768 237.863318 
L 395.538705 237.233939 
L 397.976642 237.863318 
L 400.414593 237.863318 
L 402.85253 237.233939 
L 405.290467 237.863318 
L 407.728417 237.233939 
L 410.166354 236.604559 
" clip-path="url(#p1e78dd4501)" style="fill: none; stroke: #9467bd; stroke-width: 1.5; stroke-linecap: square"/>
   </g>
   <g id="patch_3">
    <path d="M 30.103125 247.4875 
L 30.103125 35.7555 
" style="fill: none; stroke: #000000; stroke-width: 0.8; stroke-linejoin: miter; stroke-linecap: square"/>
   </g>
   <g id="patch_4">
    <path d="M 423.063125 247.4875 
L 423.063125 35.7555 
" style="fill: none; stroke: #000000; stroke-width: 0.8; stroke-linejoin: miter; stroke-linecap: square"/>
   </g>
   <g id="patch_5">
    <path d="M 30.103125 247.4875 
L 423.063125 247.4875 
" style="fill: none; stroke: #000000; stroke-width: 0.8; stroke-linejoin: miter; stroke-linecap: square"/>
   </g>
   <g id="patch_6">
    <path d="M 30.103125 35.7555 
L 423.063125 35.7555 
" style="fill: none; stroke: #000000; stroke-width: 0.8; stroke-linejoin: miter; stroke-linecap: square"/>
   </g>
   <g id="text_13">
    <!-- Activation histogram -->
    <g transform="translate(164.2225 16.318125) scale(0.12 -0.12)">
     <defs>
      <path id="DejaVuSans-41" d="M 2188 4044 
L 1331 1722 
L 3047 1722 
L 2188 4044 
z
M 1831 4666 
L 2547 4666 
L 4325 0 
L 3669 0 
L 3244 1197 
L 1141 1197 
L 716 0 
L 50 0 
L 1831 4666 
z
" transform="scale(0.015625)"/>
      <path id="DejaVuSans-63" d="M 3122 3366 
L 3122 2828 
Q 2878 2963 2633 3030 
Q 2388 3097 2138 3097 
Q 1578 3097 1268 2742 
Q 959 2388 959 1747 
Q 959 1106 1268 751 
Q 1578 397 2138 397 
Q 2388 397 2633 464 
Q 2878 531 3122 666 
L 3122 134 
Q 2881 22 2623 -34 
Q 2366 -91 2075 -91 
Q 1284 -91 818 406 
Q 353 903 353 1747 
Q 353 2603 823 3093 
Q 1294 3584 2113 3584 
Q 2378 3584 2631 3529 
Q 2884 3475 3122 3366 
z
" transform="scale(0.015625)"/>
      <path id="DejaVuSans-74" d="M 1172 4494 
L 1172 3500 
L 2356 3500 
L 2356 3053 
L 1172 3053 
L 1172 1153 
Q 1172 725 1289 603 
Q 1406 481 1766 481 
L 2356 481 
L 2356 0 
L 1766 0 
Q 1100 0 847 248 
Q 594 497 594 1153 
L 594 3053 
L 172 3053 
L 172 3500 
L 594 3500 
L 594 4494 
L 1172 4494 
z
" transform="scale(0.015625)"/>
      <path id="DejaVuSans-69" d="M 603 3500 
L 1178 3500 
L 1178 0 
L 603 0 
L 603 3500 
z
M 603 4863 
L 1178 4863 
L 1178 4134 
L 603 4134 
L 603 4863 
z
" transform="scale(0.015625)"/>
      <path id="DejaVuSans-76" d="M 191 3500 
L 800 3500 
L 1894 563 
L 2988 3500 
L 3597 3500 
L 2284 0 
L 1503 0 
L 191 3500 
z
" transform="scale(0.015625)"/>
      <path id="DejaVuSans-61" d="M 2194 1759 
Q 1497 1759 1228 1600 
Q 959 1441 959 1056 
Q 959 750 1161 570 
Q 1363 391 1709 391 
Q 2188 391 2477 730 
Q 2766 1069 2766 1631 
L 2766 1759 
L 2194 1759 
z
M 3341 1997 
L 3341 0 
L 2766 0 
L 2766 531 
Q 2569 213 2275 61 
Q 1981 -91 1556 -91 
Q 1019 -91 701 211 
Q 384 513 384 1019 
Q 384 1609 779 1909 
Q 1175 2209 1959 2209 
L 2766 2209 
L 2766 2266 
Q 2766 2663 2505 2880 
Q 2244 3097 1772 3097 
Q 1472 3097 1187 3025 
Q 903 2953 641 2809 
L 641 3341 
Q 956 3463 1253 3523 
Q 1550 3584 1831 3584 
Q 2591 3584 2966 3190 
Q 3341 2797 3341 1997 
z
" transform="scale(0.015625)"/>
      <path id="DejaVuSans-6f" d="M 1959 3097 
Q 1497 3097 1228 2736 
Q 959 2375 959 1747 
Q 959 1119 1226 758 
Q 1494 397 1959 397 
Q 2419 397 2687 759 
Q 2956 1122 2956 1747 
Q 2956 2369 2687 2733 
Q 2419 3097 1959 3097 
z
M 1959 3584 
Q 2709 3584 3137 3096 
Q 3566 2609 3566 1747 
Q 3566 888 3137 398 
Q 2709 -91 1959 -91 
Q 1206 -91 779 398 
Q 353 888 353 1747 
Q 353 2609 779 3096 
Q 1206 3584 1959 3584 
z
" transform="scale(0.015625)"/>
      <path id="DejaVuSans-6e" d="M 3513 2113 
L 3513 0 
L 2938 0 
L 2938 2094 
Q 2938 2591 2744 2837 
Q 2550 3084 2163 3084 
Q 1697 3084 1428 2787 
Q 1159 2491 1159 1978 
L 1159 0 
L 581 0 
L 581 3500 
L 1159 3500 
L 1159 2956 
Q 1366 3272 1645 3428 
Q 1925 3584 2291 3584 
Q 2894 3584 3203 3211 
Q 3513 2838 3513 2113 
z
" transform="scale(0.015625)"/>
      <path id="DejaVuSans-20" transform="scale(0.015625)"/>
      <path id="DejaVuSans-68" d="M 3513 2113 
L 3513 0 
L 2938 0 
L 2938 2094 
Q 2938 2591 2744 2837 
Q 2550 3084 2163 3084 
Q 1697 3084 1428 2787 
Q 1159 2491 1159 1978 
L 1159 0 
L 581 0 
L 581 4863 
L 1159 4863 
L 1159 2956 
Q 1366 3272 1645 3428 
Q 1925 3584 2291 3584 
Q 2894 3584 3203 3211 
Q 3513 2838 3513 2113 
z
" transform="scale(0.015625)"/>
      <path id="DejaVuSans-73" d="M 2834 3397 
L 2834 2853 
Q 2591 2978 2328 3040 
Q 2066 3103 1784 3103 
Q 1356 3103 1142 2972 
Q 928 2841 928 2578 
Q 928 2378 1081 2264 
Q 1234 2150 1697 2047 
L 1894 2003 
Q 2506 1872 2764 1633 
Q 3022 1394 3022 966 
Q 3022 478 2636 193 
Q 2250 -91 1575 -91 
Q 1294 -91 989 -36 
Q 684 19 347 128 
L 347 722 
Q 666 556 975 473 
Q 1284 391 1588 391 
Q 1994 391 2212 530 
Q 2431 669 2431 922 
Q 2431 1156 2273 1281 
Q 2116 1406 1581 1522 
L 1381 1569 
Q 847 1681 609 1914 
Q 372 2147 372 2553 
Q 372 3047 722 3315 
Q 1072 3584 1716 3584 
Q 2034 3584 2315 3537 
Q 2597 3491 2834 3397 
z
" transform="scale(0.015625)"/>
      <path id="DejaVuSans-67" d="M 2906 1791 
Q 2906 2416 2648 2759 
Q 2391 3103 1925 3103 
Q 1463 3103 1205 2759 
Q 947 2416 947 1791 
Q 947 1169 1205 825 
Q 1463 481 1925 481 
Q 2391 481 2648 825 
Q 2906 1169 2906 1791 
z
M 3481 434 
Q 3481 -459 3084 -895 
Q 2688 -1331 1869 -1331 
Q 1566 -1331 1297 -1286 
Q 1028 -1241 775 -1147 
L 775 -588 
Q 1028 -725 1275 -790 
Q 1522 -856 1778 -856 
Q 2344 -856 2625 -561 
Q 2906 -266 2906 331 
L 2906 616 
Q 2728 306 2450 153 
Q 2172 0 1784 0 
Q 1141 0 747 490 
Q 353 981 353 1791 
Q 353 2603 747 3093 
Q 1141 3584 1784 3584 
Q 2172 3584 2450 3431 
Q 2728 3278 2906 2969 
L 2906 3500 
L 3481 3500 
L 3481 434 
z
" transform="scale(0.015625)"/>
      <path id="DejaVuSans-72" d="M 2631 2963 
Q 2534 3019 2420 3045 
Q 2306 3072 2169 3072 
Q 1681 3072 1420 2755 
Q 1159 2438 1159 1844 
L 1159 0 
L 581 0 
L 581 3500 
L 1159 3500 
L 1159 2956 
Q 1341 3275 1631 3429 
Q 1922 3584 2338 3584 
Q 2397 3584 2469 3576 
Q 2541 3569 2628 3553 
L 2631 2963 
z
" transform="scale(0.015625)"/>
      <path id="DejaVuSans-6d" d="M 3328 2828 
Q 3544 3216 3844 3400 
Q 4144 3584 4550 3584 
Q 5097 3584 5394 3201 
Q 5691 2819 5691 2113 
L 5691 0 
L 5113 0 
L 5113 2094 
Q 5113 2597 4934 2840 
Q 4756 3084 4391 3084 
Q 3944 3084 3684 2787 
Q 3425 2491 3425 1978 
L 3425 0 
L 2847 0 
L 2847 2094 
Q 2847 2600 2669 2842 
Q 2491 3084 2119 3084 
Q 1678 3084 1418 2786 
Q 1159 2488 1159 1978 
L 1159 0 
L 581 0 
L 581 3500 
L 1159 3500 
L 1159 2956 
Q 1356 3278 1631 3431 
Q 1906 3584 2284 3584 
Q 2666 3584 2933 3390 
Q 3200 3197 3328 2828 
z
" transform="scale(0.015625)"/>
     </defs>
     <use xlink:href="#DejaVuSans-41"/>
     <use xlink:href="#DejaVuSans-63" x="66.658203"/>
     <use xlink:href="#DejaVuSans-74" x="121.638672"/>
     <use xlink:href="#DejaVuSans-69" x="160.847656"/>
     <use xlink:href="#DejaVuSans-76" x="188.630859"/>
     <use xlink:href="#DejaVuSans-61" x="247.810547"/>
     <use xlink:href="#DejaVuSans-74" x="309.089844"/>
     <use xlink:href="#DejaVuSans-69" x="348.298828"/>
     <use xlink:href="#DejaVuSans-6f" x="376.082031"/>
     <use xlink:href="#DejaVuSans-6e" x="437.263672"/>
     <use xlink:href="#DejaVuSans-20" x="500.642578"/>
     <use xlink:href="#DejaVuSans-68" x="532.429688"/>
     <use xlink:href="#DejaVuSans-69" x="595.808594"/>
     <use xlink:href="#DejaVuSans-73" x="623.591797"/>
     <use xlink:href="#DejaVuSans-74" x="675.691406"/>
     <use xlink:href="#DejaVuSans-6f" x="714.900391"/>
     <use xlink:href="#DejaVuSans-67" x="776.082031"/>
     <use xlink:href="#DejaVuSans-72" x="839.558594"/>
     <use xlink:href="#DejaVuSans-61" x="880.671875"/>
     <use xlink:href="#DejaVuSans-6d" x="941.951172"/>
    </g>
    <!-- gain=1.41, BN=False, act=ELU, n_hidden=4, lr=1e-01 -->
    <g transform="translate(63.00625 29.7555) scale(0.12 -0.12)">
     <defs>
      <path id="DejaVuSans-3d" d="M 678 2906 
L 4684 2906 
L 4684 2381 
L 678 2381 
L 678 2906 
z
M 678 1631 
L 4684 1631 
L 4684 1100 
L 678 1100 
L 678 1631 
z
" transform="scale(0.015625)"/>
      <path id="DejaVuSans-34" d="M 2419 4116 
L 825 1625 
L 2419 1625 
L 2419 4116 
z
M 2253 4666 
L 3047 4666 
L 3047 1625 
L 3713 1625 
L 3713 1100 
L 3047 1100 
L 3047 0 
L 2419 0 
L 2419 1100 
L 313 1100 
L 313 1709 
L 2253 4666 
z
" transform="scale(0.015625)"/>
      <path id="DejaVuSans-2c" d="M 750 794 
L 1409 794 
L 1409 256 
L 897 -744 
L 494 -744 
L 750 256 
L 750 794 
z
" transform="scale(0.015625)"/>
      <path id="DejaVuSans-42" d="M 1259 2228 
L 1259 519 
L 2272 519 
Q 2781 519 3026 730 
Q 3272 941 3272 1375 
Q 3272 1813 3026 2020 
Q 2781 2228 2272 2228 
L 1259 2228 
z
M 1259 4147 
L 1259 2741 
L 2194 2741 
Q 2656 2741 2882 2914 
Q 3109 3088 3109 3444 
Q 3109 3797 2882 3972 
Q 2656 4147 2194 4147 
L 1259 4147 
z
M 628 4666 
L 2241 4666 
Q 2963 4666 3353 4366 
Q 3744 4066 3744 3513 
Q 3744 3084 3544 2831 
Q 3344 2578 2956 2516 
Q 3422 2416 3680 2098 
Q 3938 1781 3938 1306 
Q 3938 681 3513 340 
Q 3088 0 2303 0 
L 628 0 
L 628 4666 
z
" transform="scale(0.015625)"/>
      <path id="DejaVuSans-4e" d="M 628 4666 
L 1478 4666 
L 3547 763 
L 3547 4666 
L 4159 4666 
L 4159 0 
L 3309 0 
L 1241 3903 
L 1241 0 
L 628 0 
L 628 4666 
z
" transform="scale(0.015625)"/>
      <path id="DejaVuSans-46" d="M 628 4666 
L 3309 4666 
L 3309 4134 
L 1259 4134 
L 1259 2759 
L 3109 2759 
L 3109 2228 
L 1259 2228 
L 1259 0 
L 628 0 
L 628 4666 
z
" transform="scale(0.015625)"/>
      <path id="DejaVuSans-6c" d="M 603 4863 
L 1178 4863 
L 1178 0 
L 603 0 
L 603 4863 
z
" transform="scale(0.015625)"/>
      <path id="DejaVuSans-65" d="M 3597 1894 
L 3597 1613 
L 953 1613 
Q 991 1019 1311 708 
Q 1631 397 2203 397 
Q 2534 397 2845 478 
Q 3156 559 3463 722 
L 3463 178 
Q 3153 47 2828 -22 
Q 2503 -91 2169 -91 
Q 1331 -91 842 396 
Q 353 884 353 1716 
Q 353 2575 817 3079 
Q 1281 3584 2069 3584 
Q 2775 3584 3186 3129 
Q 3597 2675 3597 1894 
z
M 3022 2063 
Q 3016 2534 2758 2815 
Q 2500 3097 2075 3097 
Q 1594 3097 1305 2825 
Q 1016 2553 972 2059 
L 3022 2063 
z
" transform="scale(0.015625)"/>
      <path id="DejaVuSans-45" d="M 628 4666 
L 3578 4666 
L 3578 4134 
L 1259 4134 
L 1259 2753 
L 3481 2753 
L 3481 2222 
L 1259 2222 
L 1259 531 
L 3634 531 
L 3634 0 
L 628 0 
L 628 4666 
z
" transform="scale(0.015625)"/>
      <path id="DejaVuSans-4c" d="M 628 4666 
L 1259 4666 
L 1259 531 
L 3531 531 
L 3531 0 
L 628 0 
L 628 4666 
z
" transform="scale(0.015625)"/>
      <path id="DejaVuSans-55" d="M 556 4666 
L 1191 4666 
L 1191 1831 
Q 1191 1081 1462 751 
Q 1734 422 2344 422 
Q 2950 422 3222 751 
Q 3494 1081 3494 1831 
L 3494 4666 
L 4128 4666 
L 4128 1753 
Q 4128 841 3676 375 
Q 3225 -91 2344 -91 
Q 1459 -91 1007 375 
Q 556 841 556 1753 
L 556 4666 
z
" transform="scale(0.015625)"/>
      <path id="DejaVuSans-5f" d="M 3263 -1063 
L 3263 -1509 
L -63 -1509 
L -63 -1063 
L 3263 -1063 
z
" transform="scale(0.015625)"/>
      <path id="DejaVuSans-64" d="M 2906 2969 
L 2906 4863 
L 3481 4863 
L 3481 0 
L 2906 0 
L 2906 525 
Q 2725 213 2448 61 
Q 2172 -91 1784 -91 
Q 1150 -91 751 415 
Q 353 922 353 1747 
Q 353 2572 751 3078 
Q 1150 3584 1784 3584 
Q 2172 3584 2448 3432 
Q 2725 3281 2906 2969 
z
M 947 1747 
Q 947 1113 1208 752 
Q 1469 391 1925 391 
Q 2381 391 2643 752 
Q 2906 1113 2906 1747 
Q 2906 2381 2643 2742 
Q 2381 3103 1925 3103 
Q 1469 3103 1208 2742 
Q 947 2381 947 1747 
z
" transform="scale(0.015625)"/>
      <path id="DejaVuSans-2d" d="M 313 2009 
L 1997 2009 
L 1997 1497 
L 313 1497 
L 313 2009 
z
" transform="scale(0.015625)"/>
     </defs>
     <use xlink:href="#DejaVuSans-67"/>
     <use xlink:href="#DejaVuSans-61" x="63.476562"/>
     <use xlink:href="#DejaVuSans-69" x="124.755859"/>
     <use xlink:href="#DejaVuSans-6e" x="152.539062"/>
     <use xlink:href="#DejaVuSans-3d" x="215.917969"/>
     <use xlink:href="#DejaVuSans-31" x="299.707031"/>
     <use xlink:href="#DejaVuSans-2e" x="363.330078"/>
     <use xlink:href="#DejaVuSans-34" x="395.117188"/>
     <use xlink:href="#DejaVuSans-31" x="458.740234"/>
     <use xlink:href="#DejaVuSans-2c" x="522.363281"/>
     <use xlink:href="#DejaVuSans-20" x="554.150391"/>
     <use xlink:href="#DejaVuSans-42" x="585.9375"/>
     <use xlink:href="#DejaVuSans-4e" x="654.541016"/>
     <use xlink:href="#DejaVuSans-3d" x="729.345703"/>
     <use xlink:href="#DejaVuSans-46" x="813.134766"/>
     <use xlink:href="#DejaVuSans-61" x="861.529297"/>
     <use xlink:href="#DejaVuSans-6c" x="922.808594"/>
     <use xlink:href="#DejaVuSans-73" x="950.591797"/>
     <use xlink:href="#DejaVuSans-65" x="1002.691406"/>
     <use xlink:href="#DejaVuSans-2c" x="1064.214844"/>
     <use xlink:href="#DejaVuSans-20" x="1096.001953"/>
     <use xlink:href="#DejaVuSans-61" x="1127.789062"/>
     <use xlink:href="#DejaVuSans-63" x="1189.068359"/>
     <use xlink:href="#DejaVuSans-74" x="1244.048828"/>
     <use xlink:href="#DejaVuSans-3d" x="1283.257812"/>
     <use xlink:href="#DejaVuSans-45" x="1367.046875"/>
     <use xlink:href="#DejaVuSans-4c" x="1430.230469"/>
     <use xlink:href="#DejaVuSans-55" x="1480.943359"/>
     <use xlink:href="#DejaVuSans-2c" x="1554.136719"/>
     <use xlink:href="#DejaVuSans-20" x="1585.923828"/>
     <use xlink:href="#DejaVuSans-6e" x="1617.710938"/>
     <use xlink:href="#DejaVuSans-5f" x="1681.089844"/>
     <use xlink:href="#DejaVuSans-68" x="1731.089844"/>
     <use xlink:href="#DejaVuSans-69" x="1794.46875"/>
     <use xlink:href="#DejaVuSans-64" x="1822.251953"/>
     <use xlink:href="#DejaVuSans-64" x="1885.728516"/>
     <use xlink:href="#DejaVuSans-65" x="1949.205078"/>
     <use xlink:href="#DejaVuSans-6e" x="2010.728516"/>
     <use xlink:href="#DejaVuSans-3d" x="2074.107422"/>
     <use xlink:href="#DejaVuSans-34" x="2157.896484"/>
     <use xlink:href="#DejaVuSans-2c" x="2221.519531"/>
     <use xlink:href="#DejaVuSans-20" x="2253.306641"/>
     <use xlink:href="#DejaVuSans-6c" x="2285.09375"/>
     <use xlink:href="#DejaVuSans-72" x="2312.876953"/>
     <use xlink:href="#DejaVuSans-3d" x="2353.990234"/>
     <use xlink:href="#DejaVuSans-31" x="2437.779297"/>
     <use xlink:href="#DejaVuSans-65" x="2501.402344"/>
     <use xlink:href="#DejaVuSans-2d" x="2562.925781"/>
     <use xlink:href="#DejaVuSans-30" x="2599.009766"/>
     <use xlink:href="#DejaVuSans-31" x="2662.632812"/>
    </g>
   </g>
   <g id="legend_1">
    <g id="patch_7">
     <path d="M 349.450625 117.146125 
L 416.063125 117.146125 
Q 418.063125 117.146125 418.063125 115.146125 
L 418.063125 42.7555 
Q 418.063125 40.7555 416.063125 40.7555 
L 349.450625 40.7555 
Q 347.450625 40.7555 347.450625 42.7555 
L 347.450625 115.146125 
Q 347.450625 117.146125 349.450625 117.146125 
z
" style="fill: #ffffff; opacity: 0.8; stroke: #cccccc; stroke-linejoin: miter"/>
    </g>
    <g id="line2d_18">
     <path d="M 351.450625 48.853937 
L 361.450625 48.853937 
L 371.450625 48.853937 
" style="fill: none; stroke: #1f77b4; stroke-width: 1.5; stroke-linecap: square"/>
    </g>
    <g id="text_14">
     <!-- ELU.2 -->
     <g transform="translate(379.450625 52.353937) scale(0.1 -0.1)">
      <use xlink:href="#DejaVuSans-45"/>
      <use xlink:href="#DejaVuSans-4c" x="63.183594"/>
      <use xlink:href="#DejaVuSans-55" x="113.896484"/>
      <use xlink:href="#DejaVuSans-2e" x="187.089844"/>
      <use xlink:href="#DejaVuSans-32" x="218.876953"/>
     </g>
    </g>
    <g id="line2d_19">
     <path d="M 351.450625 63.532062 
L 361.450625 63.532062 
L 371.450625 63.532062 
" style="fill: none; stroke: #ff7f0e; stroke-width: 1.5; stroke-linecap: square"/>
    </g>
    <g id="text_15">
     <!-- ELU.4 -->
     <g transform="translate(379.450625 67.032062) scale(0.1 -0.1)">
      <use xlink:href="#DejaVuSans-45"/>
      <use xlink:href="#DejaVuSans-4c" x="63.183594"/>
      <use xlink:href="#DejaVuSans-55" x="113.896484"/>
      <use xlink:href="#DejaVuSans-2e" x="187.089844"/>
      <use xlink:href="#DejaVuSans-34" x="218.876953"/>
     </g>
    </g>
    <g id="line2d_20">
     <path d="M 351.450625 78.210187 
L 361.450625 78.210187 
L 371.450625 78.210187 
" style="fill: none; stroke: #2ca02c; stroke-width: 1.5; stroke-linecap: square"/>
    </g>
    <g id="text_16">
     <!-- ELU.6 -->
     <g transform="translate(379.450625 81.710187) scale(0.1 -0.1)">
      <defs>
       <path id="DejaVuSans-36" d="M 2113 2584 
Q 1688 2584 1439 2293 
Q 1191 2003 1191 1497 
Q 1191 994 1439 701 
Q 1688 409 2113 409 
Q 2538 409 2786 701 
Q 3034 994 3034 1497 
Q 3034 2003 2786 2293 
Q 2538 2584 2113 2584 
z
M 3366 4563 
L 3366 3988 
Q 3128 4100 2886 4159 
Q 2644 4219 2406 4219 
Q 1781 4219 1451 3797 
Q 1122 3375 1075 2522 
Q 1259 2794 1537 2939 
Q 1816 3084 2150 3084 
Q 2853 3084 3261 2657 
Q 3669 2231 3669 1497 
Q 3669 778 3244 343 
Q 2819 -91 2113 -91 
Q 1303 -91 875 529 
Q 447 1150 447 2328 
Q 447 3434 972 4092 
Q 1497 4750 2381 4750 
Q 2619 4750 2861 4703 
Q 3103 4656 3366 4563 
z
" transform="scale(0.015625)"/>
      </defs>
      <use xlink:href="#DejaVuSans-45"/>
      <use xlink:href="#DejaVuSans-4c" x="63.183594"/>
      <use xlink:href="#DejaVuSans-55" x="113.896484"/>
      <use xlink:href="#DejaVuSans-2e" x="187.089844"/>
      <use xlink:href="#DejaVuSans-36" x="218.876953"/>
     </g>
    </g>
    <g id="line2d_21">
     <path d="M 351.450625 92.888312 
L 361.450625 92.888312 
L 371.450625 92.888312 
" style="fill: none; stroke: #d62728; stroke-width: 1.5; stroke-linecap: square"/>
    </g>
    <g id="text_17">
     <!-- ELU.8 -->
     <g transform="translate(379.450625 96.388312) scale(0.1 -0.1)">
      <defs>
       <path id="DejaVuSans-38" d="M 2034 2216 
Q 1584 2216 1326 1975 
Q 1069 1734 1069 1313 
Q 1069 891 1326 650 
Q 1584 409 2034 409 
Q 2484 409 2743 651 
Q 3003 894 3003 1313 
Q 3003 1734 2745 1975 
Q 2488 2216 2034 2216 
z
M 1403 2484 
Q 997 2584 770 2862 
Q 544 3141 544 3541 
Q 544 4100 942 4425 
Q 1341 4750 2034 4750 
Q 2731 4750 3128 4425 
Q 3525 4100 3525 3541 
Q 3525 3141 3298 2862 
Q 3072 2584 2669 2484 
Q 3125 2378 3379 2068 
Q 3634 1759 3634 1313 
Q 3634 634 3220 271 
Q 2806 -91 2034 -91 
Q 1263 -91 848 271 
Q 434 634 434 1313 
Q 434 1759 690 2068 
Q 947 2378 1403 2484 
z
M 1172 3481 
Q 1172 3119 1398 2916 
Q 1625 2713 2034 2713 
Q 2441 2713 2670 2916 
Q 2900 3119 2900 3481 
Q 2900 3844 2670 4047 
Q 2441 4250 2034 4250 
Q 1625 4250 1398 4047 
Q 1172 3844 1172 3481 
z
" transform="scale(0.015625)"/>
      </defs>
      <use xlink:href="#DejaVuSans-45"/>
      <use xlink:href="#DejaVuSans-4c" x="63.183594"/>
      <use xlink:href="#DejaVuSans-55" x="113.896484"/>
      <use xlink:href="#DejaVuSans-2e" x="187.089844"/>
      <use xlink:href="#DejaVuSans-38" x="218.876953"/>
     </g>
    </g>
    <g id="line2d_22">
     <path d="M 351.450625 107.566437 
L 361.450625 107.566437 
L 371.450625 107.566437 
" style="fill: none; stroke: #9467bd; stroke-width: 1.5; stroke-linecap: square"/>
    </g>
    <g id="text_18">
     <!-- ELU.10 -->
     <g transform="translate(379.450625 111.066437) scale(0.1 -0.1)">
      <use xlink:href="#DejaVuSans-45"/>
      <use xlink:href="#DejaVuSans-4c" x="63.183594"/>
      <use xlink:href="#DejaVuSans-55" x="113.896484"/>
      <use xlink:href="#DejaVuSans-2e" x="187.089844"/>
      <use xlink:href="#DejaVuSans-31" x="218.876953"/>
      <use xlink:href="#DejaVuSans-30" x="282.5"/>
     </g>
    </g>
   </g>
  </g>
  <g id="axes_2">
   <g id="patch_8">
    <path d="M 456.703125 247.4875 
L 849.663125 247.4875 
L 849.663125 35.7555 
L 456.703125 35.7555 
z
" style="fill: #ffffff"/>
   </g>
   <g id="matplotlib.axis_3">
    <g id="xtick_8">
     <g id="line2d_23">
      <g>
       <use xlink:href="#mddda9309c0" x="489.502599" y="247.4875" style="stroke: #000000; stroke-width: 0.8"/>
      </g>
     </g>
     <g id="text_19">
      <!-- −2 -->
      <g transform="translate(482.131505 262.085938) scale(0.1 -0.1)">
       <use xlink:href="#DejaVuSans-2212"/>
       <use xlink:href="#DejaVuSans-32" x="83.789062"/>
      </g>
     </g>
    </g>
    <g id="xtick_9">
     <g id="line2d_24">
      <g>
       <use xlink:href="#mddda9309c0" x="571.342862" y="247.4875" style="stroke: #000000; stroke-width: 0.8"/>
      </g>
     </g>
     <g id="text_20">
      <!-- −1 -->
      <g transform="translate(563.971768 262.085938) scale(0.1 -0.1)">
       <use xlink:href="#DejaVuSans-2212"/>
       <use xlink:href="#DejaVuSans-31" x="83.789062"/>
      </g>
     </g>
    </g>
    <g id="xtick_10">
     <g id="line2d_25">
      <g>
       <use xlink:href="#mddda9309c0" x="653.183125" y="247.4875" style="stroke: #000000; stroke-width: 0.8"/>
      </g>
     </g>
     <g id="text_21">
      <!-- 0 -->
      <g transform="translate(650.001875 262.085938) scale(0.1 -0.1)">
       <use xlink:href="#DejaVuSans-30"/>
      </g>
     </g>
    </g>
    <g id="xtick_11">
     <g id="line2d_26">
      <g>
       <use xlink:href="#mddda9309c0" x="735.023388" y="247.4875" style="stroke: #000000; stroke-width: 0.8"/>
      </g>
     </g>
     <g id="text_22">
      <!-- 1 -->
      <g transform="translate(731.842138 262.085938) scale(0.1 -0.1)">
       <use xlink:href="#DejaVuSans-31"/>
      </g>
     </g>
    </g>
    <g id="xtick_12">
     <g id="line2d_27">
      <g>
       <use xlink:href="#mddda9309c0" x="816.863651" y="247.4875" style="stroke: #000000; stroke-width: 0.8"/>
      </g>
     </g>
     <g id="text_23">
      <!-- 2 -->
      <g transform="translate(813.682401 262.085938) scale(0.1 -0.1)">
       <use xlink:href="#DejaVuSans-32"/>
      </g>
     </g>
    </g>
   </g>
   <g id="matplotlib.axis_4">
    <g id="ytick_6">
     <g id="line2d_28">
      <g>
       <use xlink:href="#m99667863c1" x="456.703125" y="237.863318" style="stroke: #000000; stroke-width: 0.8"/>
      </g>
     </g>
     <g id="text_24">
      <!-- 0.0 -->
      <g transform="translate(433.8 241.662537) scale(0.1 -0.1)">
       <use xlink:href="#DejaVuSans-30"/>
       <use xlink:href="#DejaVuSans-2e" x="63.623047"/>
       <use xlink:href="#DejaVuSans-30" x="95.410156"/>
      </g>
     </g>
    </g>
    <g id="ytick_7">
     <g id="line2d_29">
      <g>
       <use xlink:href="#m99667863c1" x="456.703125" y="199.91802" style="stroke: #000000; stroke-width: 0.8"/>
      </g>
     </g>
     <g id="text_25">
      <!-- 0.2 -->
      <g transform="translate(433.8 203.717239) scale(0.1 -0.1)">
       <use xlink:href="#DejaVuSans-30"/>
       <use xlink:href="#DejaVuSans-2e" x="63.623047"/>
       <use xlink:href="#DejaVuSans-32" x="95.410156"/>
      </g>
     </g>
    </g>
    <g id="ytick_8">
     <g id="line2d_30">
      <g>
       <use xlink:href="#m99667863c1" x="456.703125" y="161.972722" style="stroke: #000000; stroke-width: 0.8"/>
      </g>
     </g>
     <g id="text_26">
      <!-- 0.4 -->
      <g transform="translate(433.8 165.77194) scale(0.1 -0.1)">
       <use xlink:href="#DejaVuSans-30"/>
       <use xlink:href="#DejaVuSans-2e" x="63.623047"/>
       <use xlink:href="#DejaVuSans-34" x="95.410156"/>
      </g>
     </g>
    </g>
    <g id="ytick_9">
     <g id="line2d_31">
      <g>
       <use xlink:href="#m99667863c1" x="456.703125" y="124.027423" style="stroke: #000000; stroke-width: 0.8"/>
      </g>
     </g>
     <g id="text_27">
      <!-- 0.6 -->
      <g transform="translate(433.8 127.826642) scale(0.1 -0.1)">
       <use xlink:href="#DejaVuSans-30"/>
       <use xlink:href="#DejaVuSans-2e" x="63.623047"/>
       <use xlink:href="#DejaVuSans-36" x="95.410156"/>
      </g>
     </g>
    </g>
    <g id="ytick_10">
     <g id="line2d_32">
      <g>
       <use xlink:href="#m99667863c1" x="456.703125" y="86.082125" style="stroke: #000000; stroke-width: 0.8"/>
      </g>
     </g>
     <g id="text_28">
      <!-- 0.8 -->
      <g transform="translate(433.8 89.881344) scale(0.1 -0.1)">
       <use xlink:href="#DejaVuSans-30"/>
       <use xlink:href="#DejaVuSans-2e" x="63.623047"/>
       <use xlink:href="#DejaVuSans-38" x="95.410156"/>
      </g>
     </g>
    </g>
    <g id="ytick_11">
     <g id="line2d_33">
      <g>
       <use xlink:href="#m99667863c1" x="456.703125" y="48.136827" style="stroke: #000000; stroke-width: 0.8"/>
      </g>
     </g>
     <g id="text_29">
      <!-- 1.0 -->
      <g transform="translate(433.8 51.936045) scale(0.1 -0.1)">
       <use xlink:href="#DejaVuSans-31"/>
       <use xlink:href="#DejaVuSans-2e" x="63.623047"/>
       <use xlink:href="#DejaVuSans-30" x="95.410156"/>
      </g>
     </g>
    </g>
   </g>
   <g id="line2d_34">
    <path d="M 573.637257 209.166021 
L 577.526203 189.202622 
L 581.415143 141.789636 
L 585.304084 125.569547 
L 589.193029 138.046632 
L 593.081975 119.330852 
L 596.970915 129.312529 
L 600.859856 134.303503 
L 604.748801 94.376831 
L 608.637746 126.81711 
L 612.526687 103.110696 
L 616.41563 124.321759 
L 620.304573 149.275956 
L 624.193516 131.808016 
L 628.082459 133.055737 
L 631.971401 165.496174 
L 635.860344 159.257627 
L 639.749287 167.991594 
L 643.63823 164.248465 
L 647.527173 165.496174 
L 651.416116 164.248465 
L 655.305059 170.487007 
L 659.194002 138.046564 
L 663.082945 154.266788 
L 666.971888 141.789693 
L 670.860831 177.97327 
L 674.749774 156.762213 
L 678.638717 146.780531 
L 682.52766 143.037408 
L 686.416603 145.532821 
L 690.305545 165.496129 
L 694.194486 170.487052 
L 698.083431 176.725594 
L 701.972377 160.505285 
L 705.861317 190.450332 
L 709.750258 180.468723 
L 713.639203 171.734767 
L 717.528148 180.46865 
L 721.417089 187.954913 
L 725.306029 190.450391 
L 729.194975 185.459556 
L 733.08392 196.688829 
L 736.972856 186.707265 
L 740.861801 210.41373 
L 744.750747 196.688933 
L 748.639692 200.432059 
L 752.528637 215.404506 
L 756.417573 206.670604 
L 760.306518 195.441224 
L 764.195464 206.670525 
L 768.084399 214.156855 
L 771.973345 220.395398 
L 775.86229 216.652271 
L 779.751235 211.661437 
L 783.640181 216.652219 
L 787.529116 222.890928 
L 791.418091 222.890815 
L 795.307036 227.881649 
L 799.195982 220.395355 
L 803.084917 226.633941 
L 806.973863 230.377066 
L 810.862808 230.377048 
L 814.751744 230.377066 
L 818.640689 229.129314 
L 822.529615 225.386232 
L 826.41856 230.377066 
L 830.307506 231.624775 
L 834.196451 234.120192 
L 838.085396 231.624743 
L 841.974322 232.872484 
L 845.863268 235.367901 
L 849.752213 234.120211 
L 853.641178 236.61561 
L 857.530123 232.872484 
L 857.863125 232.872484 
" clip-path="url(#p2243007126)" style="fill: none; stroke: #1f77b4; stroke-width: 1.5; stroke-linecap: square"/>
   </g>
   <g id="line2d_35">
    <path d="M 574.186371 207.336909 
L 578.001248 178.082432 
L 581.816125 137.380681 
L 585.631007 132.292826 
L 589.445883 146.284084 
L 593.26076 103.038524 
L 597.075642 104.310287 
L 600.890519 125.933152 
L 604.705396 111.941883 
L 608.520273 110.670029 
L 612.335152 127.205152 
L 616.150032 136.108624 
L 619.964908 99.222535 
L 623.779785 139.924489 
L 627.594665 167.907005 
L 631.409544 131.020894 
L 635.224421 161.547314 
L 639.039299 138.652523 
L 642.854177 122.117388 
L 646.669055 162.819258 
L 650.483934 156.45959 
L 654.298812 169.178915 
L 658.11369 156.45959 
L 661.928568 159.003449 
L 665.743446 162.819258 
L 669.558324 164.091185 
L 673.373202 152.643809 
L 677.188082 169.178893 
L 681.002959 174.266634 
L 684.817835 160.27541 
L 688.632715 202.249195 
L 692.447594 179.354364 
L 696.262471 174.266634 
L 700.077348 178.082432 
L 703.892225 174.266713 
L 707.707107 165.363095 
L 711.521984 175.538567 
L 715.336861 190.801831 
L 719.151742 204.793044 
L 722.966619 169.178893 
L 726.781496 174.266634 
L 730.596373 171.722769 
L 734.41125 204.793044 
L 738.226127 198.433372 
L 742.041004 200.977336 
L 745.85589 193.345639 
L 749.670767 194.617572 
L 753.485644 207.336909 
L 757.300521 207.336909 
L 761.115398 209.880777 
L 764.930275 206.064976 
L 768.745152 226.415944 
L 772.560039 218.784312 
L 776.374916 217.512379 
L 780.189792 217.512379 
L 784.004669 225.143981 
L 787.819546 218.784312 
L 791.634423 223.872047 
L 795.4493 221.328181 
L 799.264177 218.784312 
L 803.079054 226.415944 
L 806.893941 230.231716 
L 810.708817 228.959782 
L 814.523694 226.415944 
L 818.338581 230.231716 
L 822.153458 225.143981 
L 825.968335 227.687849 
L 829.783212 231.50365 
L 833.598089 230.231716 
L 837.412966 231.50365 
L 841.227843 232.775583 
L 845.042719 234.047517 
L 848.857596 230.231716 
L 852.672473 230.231716 
L 856.48735 237.863318 
L 857.863125 236.945913 
" clip-path="url(#p2243007126)" style="fill: none; stroke: #ff7f0e; stroke-width: 1.5; stroke-linecap: square"/>
   </g>
   <g id="line2d_36">
    <path d="M 573.504023 203.720905 
L 577.056987 194.16103 
L 580.609951 160.018513 
L 584.162911 160.01862 
L 587.715875 110.853545 
L 591.268839 128.607597 
L 594.821803 109.487853 
L 598.374767 86.27101 
L 601.927731 91.733789 
L 605.480695 86.27101 
L 609.033659 95.830786 
L 612.586621 134.07032 
L 616.139583 132.704696 
L 619.692547 146.36165 
L 623.245511 129.973221 
L 626.798473 138.167407 
L 630.351434 160.018592 
L 633.904397 162.749982 
L 637.45736 146.36165 
L 641.010324 160.018592 
L 644.563287 160.018598 
L 648.11625 155.921505 
L 651.669214 153.190115 
L 655.222177 131.339038 
L 658.775143 181.869743 
L 662.328105 173.675563 
L 665.881068 173.675586 
L 669.434032 179.138348 
L 672.986995 169.57847 
L 676.539958 157.287231 
L 680.092922 173.67554 
L 683.645884 142.264506 
L 687.198846 180.504068 
L 690.75181 181.86976 
L 694.304774 166.847007 
L 697.857733 183.235458 
L 701.410697 185.966853 
L 704.963661 161.384312 
L 708.516626 179.13837 
L 712.06959 196.892366 
L 715.622549 168.212801 
L 719.175513 191.429638 
L 722.728477 173.675495 
L 726.281436 194.16103 
L 729.834401 194.16103 
L 733.387365 213.28078 
L 736.940329 191.429638 
L 740.493293 190.06394 
L 744.046257 187.332545 
L 747.599221 211.915086 
L 751.152185 188.698243 
L 754.705149 187.332545 
L 758.258114 196.892423 
L 761.811078 211.915015 
L 765.364032 221.474961 
L 768.916996 207.818077 
L 772.46997 217.377871 
L 776.022934 214.646478 
L 779.575898 216.012174 
L 783.128862 211.915086 
L 786.681827 213.28078 
L 790.234791 226.937717 
L 793.787745 222.840657 
L 797.340709 224.206353 
L 800.893673 217.377871 
L 804.446637 231.034836 
L 807.999602 226.937746 
L 811.552566 221.474961 
L 815.10553 226.937717 
L 818.658484 228.303442 
L 822.211448 231.034836 
L 825.764412 229.669139 
L 829.317377 236.497622 
L 832.870341 221.474961 
L 836.423305 233.766229 
L 839.976269 233.766229 
L 843.529233 235.131925 
L 847.082197 233.766229 
L 850.635161 229.669139 
L 854.188125 237.863318 
L 857.74109 232.400532 
L 857.863125 232.494349 
" clip-path="url(#p2243007126)" style="fill: none; stroke: #2ca02c; stroke-width: 1.5; stroke-linecap: square"/>
   </g>
   <g id="line2d_37">
    <path d="M 575.107885 209.832673 
L 578.396898 187.703212 
L 581.68591 150.820657 
L 584.974917 127.216031 
L 588.26393 134.592516 
L 591.552942 97.709876 
L 594.841949 116.888945 
L 598.130962 72.630035 
L 601.419974 63.778255 
L 604.708986 91.808901 
L 607.997999 133.117063 
L 611.287006 88.8583 
L 614.576018 130.166621 
L 617.865031 115.41356 
L 621.15404 110.987665 
L 624.44305 150.820787 
L 627.732063 144.919597 
L 631.021075 141.968934 
L 634.310085 156.721943 
L 637.599096 159.672544 
L 640.888107 161.147839 
L 644.177118 155.246643 
L 647.466129 152.296053 
L 650.75514 192.129088 
L 654.044151 143.444268 
L 657.333162 189.17849 
L 660.622174 165.573729 
L 663.911185 189.17849 
L 667.200196 187.703195 
L 670.489207 165.573729 
L 673.778218 165.5737 
L 677.067228 178.851432 
L 680.35624 167.049057 
L 683.645252 175.900792 
L 686.934262 155.246614 
L 690.223272 181.802027 
L 693.512284 180.326733 
L 696.801297 178.851342 
L 700.090304 193.604399 
L 703.379316 184.752617 
L 706.668329 184.752617 
L 709.957341 167.049057 
L 713.246353 184.752538 
L 716.535361 195.0797 
L 719.824373 150.820787 
L 723.113385 196.554935 
L 726.402393 164.098456 
L 729.691405 198.030292 
L 732.980417 205.40678 
L 736.26943 199.505593 
L 739.558442 184.752617 
L 742.847454 190.65381 
L 746.136467 200.98078 
L 749.425469 172.950242 
L 752.714482 205.40678 
L 756.003494 209.832922 
L 759.292535 206.882078 
L 762.581548 190.65381 
L 765.87056 209.832673 
L 769.159572 223.110347 
L 772.448585 205.406684 
L 775.737587 218.684455 
L 779.0266 223.110347 
L 782.315612 220.159699 
L 785.604614 224.585643 
L 788.893627 215.733859 
L 792.182639 218.684455 
L 795.471651 226.060941 
L 798.760664 223.110303 
L 802.049666 215.733859 
L 805.338679 221.635049 
L 808.627691 227.536268 
L 811.916713 226.060941 
L 815.205725 230.486832 
L 818.494738 227.536207 
L 821.78374 229.011562 
L 825.072762 229.011509 
L 828.361765 230.486854 
L 831.650787 229.011509 
L 834.939789 231.962112 
L 838.228792 234.912715 
L 841.517794 229.011562 
L 844.806816 233.437413 
L 848.095819 229.011562 
L 851.384841 233.437413 
L 854.673844 236.388025 
L 857.863125 233.526892 
" clip-path="url(#p2243007126)" style="fill: none; stroke: #d62728; stroke-width: 1.5; stroke-linecap: square"/>
   </g>
   <g id="line2d_38">
    <path d="M 575.284822 208.358529 
L 578.73842 176.04367 
L 582.192013 154.968915 
L 585.645611 112.819214 
L 589.099209 118.439001 
L 592.552803 135.299042 
L 596.006401 108.604234 
L 599.459999 91.744363 
L 602.913597 98.769309 
L 606.367195 79.099233 
L 609.820788 45.379682 
L 613.274386 86.124394 
L 616.727984 146.538912 
L 620.18158 74.884367 
L 623.635175 114.224203 
L 627.088773 166.208728 
L 630.542367 171.828764 
L 633.995963 149.348919 
L 637.44956 167.613768 
L 640.903156 166.208807 
L 644.356753 159.183849 
L 647.810349 194.308605 
L 651.263946 157.778854 
L 654.717542 192.90359 
L 658.171136 197.118597 
L 661.624733 170.423775 
L 665.07833 195.713588 
L 668.531926 170.423775 
L 671.985522 169.018786 
L 675.439119 177.448705 
L 678.892715 187.283675 
L 682.346313 159.183878 
L 685.799911 170.423752 
L 689.253506 173.233776 
L 692.707105 166.208779 
L 696.1607 177.44875 
L 699.614298 199.928533 
L 703.067891 170.423803 
L 706.521489 184.473702 
L 709.975087 184.473702 
L 713.428686 190.093659 
L 716.882284 183.068634 
L 720.335877 140.919011 
L 723.789475 180.258728 
L 727.243073 190.093591 
L 730.696666 191.498649 
L 734.150264 181.663718 
L 737.603862 180.258564 
L 741.05745 188.68867 
L 744.511048 183.068713 
L 747.964646 202.738569 
L 751.418245 194.308506 
L 754.871833 222.408429 
L 758.325431 212.573497 
L 761.779029 192.903641 
L 765.232627 208.358529 
L 768.686225 211.16851 
L 772.139823 223.813418 
L 775.593421 198.523598 
L 779.047019 215.383416 
L 782.500607 211.16851 
L 785.954205 229.433379 
L 789.407804 221.003439 
L 792.861402 228.028388 
L 796.315 216.788467 
L 799.768598 221.003439 
L 803.222196 226.623399 
L 806.675794 226.623367 
L 810.129382 226.623399 
L 813.58298 223.813458 
L 817.036588 226.623367 
L 820.490176 229.433355 
L 823.943764 226.623367 
L 827.397353 232.243374 
L 830.850961 232.243343 
L 834.304549 233.64836 
L 837.758157 232.243343 
L 841.211745 232.243374 
L 844.665353 230.838348 
L 848.118941 233.648336 
L 851.572529 236.458324 
L 855.026118 236.458332 
L 857.863125 236.458326 
" clip-path="url(#p2243007126)" style="fill: none; stroke: #9467bd; stroke-width: 1.5; stroke-linecap: square"/>
   </g>
   <g id="patch_9">
    <path d="M 456.703125 247.4875 
L 456.703125 35.7555 
" style="fill: none; stroke: #000000; stroke-width: 0.8; stroke-linejoin: miter; stroke-linecap: square"/>
   </g>
   <g id="patch_10">
    <path d="M 849.663125 247.4875 
L 849.663125 35.7555 
" style="fill: none; stroke: #000000; stroke-width: 0.8; stroke-linejoin: miter; stroke-linecap: square"/>
   </g>
   <g id="patch_11">
    <path d="M 456.703125 247.4875 
L 849.663125 247.4875 
" style="fill: none; stroke: #000000; stroke-width: 0.8; stroke-linejoin: miter; stroke-linecap: square"/>
   </g>
   <g id="patch_12">
    <path d="M 456.703125 35.7555 
L 849.663125 35.7555 
" style="fill: none; stroke: #000000; stroke-width: 0.8; stroke-linejoin: miter; stroke-linecap: square"/>
   </g>
   <g id="text_30">
    <!-- Activation histogram -->
    <g transform="translate(590.8225 16.318125) scale(0.12 -0.12)">
     <use xlink:href="#DejaVuSans-41"/>
     <use xlink:href="#DejaVuSans-63" x="66.658203"/>
     <use xlink:href="#DejaVuSans-74" x="121.638672"/>
     <use xlink:href="#DejaVuSans-69" x="160.847656"/>
     <use xlink:href="#DejaVuSans-76" x="188.630859"/>
     <use xlink:href="#DejaVuSans-61" x="247.810547"/>
     <use xlink:href="#DejaVuSans-74" x="309.089844"/>
     <use xlink:href="#DejaVuSans-69" x="348.298828"/>
     <use xlink:href="#DejaVuSans-6f" x="376.082031"/>
     <use xlink:href="#DejaVuSans-6e" x="437.263672"/>
     <use xlink:href="#DejaVuSans-20" x="500.642578"/>
     <use xlink:href="#DejaVuSans-68" x="532.429688"/>
     <use xlink:href="#DejaVuSans-69" x="595.808594"/>
     <use xlink:href="#DejaVuSans-73" x="623.591797"/>
     <use xlink:href="#DejaVuSans-74" x="675.691406"/>
     <use xlink:href="#DejaVuSans-6f" x="714.900391"/>
     <use xlink:href="#DejaVuSans-67" x="776.082031"/>
     <use xlink:href="#DejaVuSans-72" x="839.558594"/>
     <use xlink:href="#DejaVuSans-61" x="880.671875"/>
     <use xlink:href="#DejaVuSans-6d" x="941.951172"/>
    </g>
    <!-- gain=1.41, BN=True , act=ELU, n_hidden=4, lr=1e-01 -->
    <g transform="translate(490.023437 29.7555) scale(0.12 -0.12)">
     <defs>
      <path id="DejaVuSans-54" d="M -19 4666 
L 3928 4666 
L 3928 4134 
L 2272 4134 
L 2272 0 
L 1638 0 
L 1638 4134 
L -19 4134 
L -19 4666 
z
" transform="scale(0.015625)"/>
      <path id="DejaVuSans-75" d="M 544 1381 
L 544 3500 
L 1119 3500 
L 1119 1403 
Q 1119 906 1312 657 
Q 1506 409 1894 409 
Q 2359 409 2629 706 
Q 2900 1003 2900 1516 
L 2900 3500 
L 3475 3500 
L 3475 0 
L 2900 0 
L 2900 538 
Q 2691 219 2414 64 
Q 2138 -91 1772 -91 
Q 1169 -91 856 284 
Q 544 659 544 1381 
z
M 1991 3584 
L 1991 3584 
z
" transform="scale(0.015625)"/>
     </defs>
     <use xlink:href="#DejaVuSans-67"/>
     <use xlink:href="#DejaVuSans-61" x="63.476562"/>
     <use xlink:href="#DejaVuSans-69" x="124.755859"/>
     <use xlink:href="#DejaVuSans-6e" x="152.539062"/>
     <use xlink:href="#DejaVuSans-3d" x="215.917969"/>
     <use xlink:href="#DejaVuSans-31" x="299.707031"/>
     <use xlink:href="#DejaVuSans-2e" x="363.330078"/>
     <use xlink:href="#DejaVuSans-34" x="395.117188"/>
     <use xlink:href="#DejaVuSans-31" x="458.740234"/>
     <use xlink:href="#DejaVuSans-2c" x="522.363281"/>
     <use xlink:href="#DejaVuSans-20" x="554.150391"/>
     <use xlink:href="#DejaVuSans-42" x="585.9375"/>
     <use xlink:href="#DejaVuSans-4e" x="654.541016"/>
     <use xlink:href="#DejaVuSans-3d" x="729.345703"/>
     <use xlink:href="#DejaVuSans-54" x="813.134766"/>
     <use xlink:href="#DejaVuSans-72" x="859.46875"/>
     <use xlink:href="#DejaVuSans-75" x="900.582031"/>
     <use xlink:href="#DejaVuSans-65" x="963.960938"/>
     <use xlink:href="#DejaVuSans-20" x="1025.484375"/>
     <use xlink:href="#DejaVuSans-2c" x="1057.271484"/>
     <use xlink:href="#DejaVuSans-20" x="1089.058594"/>
     <use xlink:href="#DejaVuSans-61" x="1120.845703"/>
     <use xlink:href="#DejaVuSans-63" x="1182.125"/>
     <use xlink:href="#DejaVuSans-74" x="1237.105469"/>
     <use xlink:href="#DejaVuSans-3d" x="1276.314453"/>
     <use xlink:href="#DejaVuSans-45" x="1360.103516"/>
     <use xlink:href="#DejaVuSans-4c" x="1423.287109"/>
     <use xlink:href="#DejaVuSans-55" x="1474"/>
     <use xlink:href="#DejaVuSans-2c" x="1547.193359"/>
     <use xlink:href="#DejaVuSans-20" x="1578.980469"/>
     <use xlink:href="#DejaVuSans-6e" x="1610.767578"/>
     <use xlink:href="#DejaVuSans-5f" x="1674.146484"/>
     <use xlink:href="#DejaVuSans-68" x="1724.146484"/>
     <use xlink:href="#DejaVuSans-69" x="1787.525391"/>
     <use xlink:href="#DejaVuSans-64" x="1815.308594"/>
     <use xlink:href="#DejaVuSans-64" x="1878.785156"/>
     <use xlink:href="#DejaVuSans-65" x="1942.261719"/>
     <use xlink:href="#DejaVuSans-6e" x="2003.785156"/>
     <use xlink:href="#DejaVuSans-3d" x="2067.164062"/>
     <use xlink:href="#DejaVuSans-34" x="2150.953125"/>
     <use xlink:href="#DejaVuSans-2c" x="2214.576172"/>
     <use xlink:href="#DejaVuSans-20" x="2246.363281"/>
     <use xlink:href="#DejaVuSans-6c" x="2278.150391"/>
     <use xlink:href="#DejaVuSans-72" x="2305.933594"/>
     <use xlink:href="#DejaVuSans-3d" x="2347.046875"/>
     <use xlink:href="#DejaVuSans-31" x="2430.835938"/>
     <use xlink:href="#DejaVuSans-65" x="2494.458984"/>
     <use xlink:href="#DejaVuSans-2d" x="2555.982422"/>
     <use xlink:href="#DejaVuSans-30" x="2592.066406"/>
     <use xlink:href="#DejaVuSans-31" x="2655.689453"/>
    </g>
   </g>
   <g id="legend_2">
    <g id="patch_13">
     <path d="M 776.050625 117.146125 
L 842.663125 117.146125 
Q 844.663125 117.146125 844.663125 115.146125 
L 844.663125 42.7555 
Q 844.663125 40.7555 842.663125 40.7555 
L 776.050625 40.7555 
Q 774.050625 40.7555 774.050625 42.7555 
L 774.050625 115.146125 
Q 774.050625 117.146125 776.050625 117.146125 
z
" style="fill: #ffffff; opacity: 0.8; stroke: #cccccc; stroke-linejoin: miter"/>
    </g>
    <g id="line2d_39">
     <path d="M 778.050625 48.853937 
L 788.050625 48.853937 
L 798.050625 48.853937 
" style="fill: none; stroke: #1f77b4; stroke-width: 1.5; stroke-linecap: square"/>
    </g>
    <g id="text_31">
     <!-- ELU.3 -->
     <g transform="translate(806.050625 52.353937) scale(0.1 -0.1)">
      <use xlink:href="#DejaVuSans-45"/>
      <use xlink:href="#DejaVuSans-4c" x="63.183594"/>
      <use xlink:href="#DejaVuSans-55" x="113.896484"/>
      <use xlink:href="#DejaVuSans-2e" x="187.089844"/>
      <use xlink:href="#DejaVuSans-33" x="218.876953"/>
     </g>
    </g>
    <g id="line2d_40">
     <path d="M 778.050625 63.532062 
L 788.050625 63.532062 
L 798.050625 63.532062 
" style="fill: none; stroke: #ff7f0e; stroke-width: 1.5; stroke-linecap: square"/>
    </g>
    <g id="text_32">
     <!-- ELU.6 -->
     <g transform="translate(806.050625 67.032062) scale(0.1 -0.1)">
      <use xlink:href="#DejaVuSans-45"/>
      <use xlink:href="#DejaVuSans-4c" x="63.183594"/>
      <use xlink:href="#DejaVuSans-55" x="113.896484"/>
      <use xlink:href="#DejaVuSans-2e" x="187.089844"/>
      <use xlink:href="#DejaVuSans-36" x="218.876953"/>
     </g>
    </g>
    <g id="line2d_41">
     <path d="M 778.050625 78.210187 
L 788.050625 78.210187 
L 798.050625 78.210187 
" style="fill: none; stroke: #2ca02c; stroke-width: 1.5; stroke-linecap: square"/>
    </g>
    <g id="text_33">
     <!-- ELU.9 -->
     <g transform="translate(806.050625 81.710187) scale(0.1 -0.1)">
      <defs>
       <path id="DejaVuSans-39" d="M 703 97 
L 703 672 
Q 941 559 1184 500 
Q 1428 441 1663 441 
Q 2288 441 2617 861 
Q 2947 1281 2994 2138 
Q 2813 1869 2534 1725 
Q 2256 1581 1919 1581 
Q 1219 1581 811 2004 
Q 403 2428 403 3163 
Q 403 3881 828 4315 
Q 1253 4750 1959 4750 
Q 2769 4750 3195 4129 
Q 3622 3509 3622 2328 
Q 3622 1225 3098 567 
Q 2575 -91 1691 -91 
Q 1453 -91 1209 -44 
Q 966 3 703 97 
z
M 1959 2075 
Q 2384 2075 2632 2365 
Q 2881 2656 2881 3163 
Q 2881 3666 2632 3958 
Q 2384 4250 1959 4250 
Q 1534 4250 1286 3958 
Q 1038 3666 1038 3163 
Q 1038 2656 1286 2365 
Q 1534 2075 1959 2075 
z
" transform="scale(0.015625)"/>
      </defs>
      <use xlink:href="#DejaVuSans-45"/>
      <use xlink:href="#DejaVuSans-4c" x="63.183594"/>
      <use xlink:href="#DejaVuSans-55" x="113.896484"/>
      <use xlink:href="#DejaVuSans-2e" x="187.089844"/>
      <use xlink:href="#DejaVuSans-39" x="218.876953"/>
     </g>
    </g>
    <g id="line2d_42">
     <path d="M 778.050625 92.888312 
L 788.050625 92.888312 
L 798.050625 92.888312 
" style="fill: none; stroke: #d62728; stroke-width: 1.5; stroke-linecap: square"/>
    </g>
    <g id="text_34">
     <!-- ELU.12 -->
     <g transform="translate(806.050625 96.388312) scale(0.1 -0.1)">
      <use xlink:href="#DejaVuSans-45"/>
      <use xlink:href="#DejaVuSans-4c" x="63.183594"/>
      <use xlink:href="#DejaVuSans-55" x="113.896484"/>
      <use xlink:href="#DejaVuSans-2e" x="187.089844"/>
      <use xlink:href="#DejaVuSans-31" x="218.876953"/>
      <use xlink:href="#DejaVuSans-32" x="282.5"/>
     </g>
    </g>
    <g id="line2d_43">
     <path d="M 778.050625 107.566437 
L 788.050625 107.566437 
L 798.050625 107.566437 
" style="fill: none; stroke: #9467bd; stroke-width: 1.5; stroke-linecap: square"/>
    </g>
    <g id="text_35">
     <!-- ELU.15 -->
     <g transform="translate(806.050625 111.066437) scale(0.1 -0.1)">
      <use xlink:href="#DejaVuSans-45"/>
      <use xlink:href="#DejaVuSans-4c" x="63.183594"/>
      <use xlink:href="#DejaVuSans-55" x="113.896484"/>
      <use xlink:href="#DejaVuSans-2e" x="187.089844"/>
      <use xlink:href="#DejaVuSans-31" x="218.876953"/>
      <use xlink:href="#DejaVuSans-35" x="282.5"/>
     </g>
    </g>
   </g>
  </g>
  <g id="axes_3">
   <g id="table_1">
    <g id="patch_14">
     <path d="M 30.103125 352.426425 
L 128.343125 352.426425 
L 128.343125 338.022888 
L 30.103125 338.022888 
z
" style="fill: #ffffff; stroke: #000000; stroke-linejoin: miter"/>
    </g>
    <g id="text_36">
     <!-- layer -->
     <g transform="translate(66.678594 347.984031) scale(0.1 -0.1)">
      <defs>
       <path id="DejaVuSans-79" d="M 2059 -325 
Q 1816 -950 1584 -1140 
Q 1353 -1331 966 -1331 
L 506 -1331 
L 506 -850 
L 844 -850 
Q 1081 -850 1212 -737 
Q 1344 -625 1503 -206 
L 1606 56 
L 191 3500 
L 800 3500 
L 1894 763 
L 2988 3500 
L 3597 3500 
L 2059 -325 
z
" transform="scale(0.015625)"/>
      </defs>
      <use xlink:href="#DejaVuSans-6c"/>
      <use xlink:href="#DejaVuSans-61" x="27.783203"/>
      <use xlink:href="#DejaVuSans-79" x="89.0625"/>
      <use xlink:href="#DejaVuSans-65" x="148.242188"/>
      <use xlink:href="#DejaVuSans-72" x="209.765625"/>
     </g>
    </g>
    <g id="patch_15">
     <path d="M 128.343125 352.426425 
L 226.583125 352.426425 
L 226.583125 338.022888 
L 128.343125 338.022888 
z
" style="fill: #ffffff; stroke: #000000; stroke-linejoin: miter"/>
    </g>
    <g id="text_37">
     <!-- μ -->
     <g transform="translate(174.281875 347.984031) scale(0.1 -0.1)">
      <defs>
       <path id="DejaVuSans-3bc" d="M 544 -1331 
L 544 3500 
L 1119 3500 
L 1119 1325 
Q 1119 872 1334 640 
Q 1550 409 1972 409 
Q 2434 409 2667 671 
Q 2900 934 2900 1459 
L 2900 3500 
L 3475 3500 
L 3475 806 
Q 3475 619 3529 530 
Q 3584 441 3700 441 
Q 3728 441 3778 458 
Q 3828 475 3916 513 
L 3916 50 
Q 3788 -22 3673 -56 
Q 3559 -91 3450 -91 
Q 3234 -91 3106 31 
Q 2978 153 2931 403 
Q 2775 156 2548 32 
Q 2322 -91 2016 -91 
Q 1697 -91 1473 31 
Q 1250 153 1119 397 
L 1119 -1331 
L 544 -1331 
z
" transform="scale(0.015625)"/>
      </defs>
      <use xlink:href="#DejaVuSans-3bc"/>
     </g>
    </g>
    <g id="patch_16">
     <path d="M 226.583125 352.426425 
L 324.823125 352.426425 
L 324.823125 338.022888 
L 226.583125 338.022888 
z
" style="fill: #ffffff; stroke: #000000; stroke-linejoin: miter"/>
    </g>
    <g id="text_38">
     <!-- σ -->
     <g transform="translate(272.534375 347.984031) scale(0.1 -0.1)">
      <defs>
       <path id="DejaVuSans-3c3" d="M 1959 3044 
Q 1484 3044 1228 2700 
Q 959 2341 959 1747 
Q 959 1119 1226 758 
Q 1494 397 1959 397 
Q 2419 397 2687 759 
Q 2956 1122 2956 1747 
Q 2956 2319 2688 2700 
Q 2441 3044 1959 3044 
z
M 1959 3500 
L 3869 3500 
L 3869 2925 
L 3225 2925 
Q 3566 2438 3566 1747 
Q 3566 888 3138 400 
Q 2709 -91 1959 -91 
Q 1206 -91 781 400 
Q 353 888 353 1747 
Q 353 2613 781 3097 
Q 1134 3500 1959 3500 
z
" transform="scale(0.015625)"/>
      </defs>
      <use xlink:href="#DejaVuSans-3c3"/>
     </g>
    </g>
    <g id="patch_17">
     <path d="M 324.823125 352.426425 
L 423.063125 352.426425 
L 423.063125 338.022888 
L 324.823125 338.022888 
z
" style="fill: #ffffff; stroke: #000000; stroke-linejoin: miter"/>
    </g>
    <g id="text_39">
     <!-- saturation -->
     <g transform="translate(348.448594 347.984031) scale(0.1 -0.1)">
      <use xlink:href="#DejaVuSans-73"/>
      <use xlink:href="#DejaVuSans-61" x="52.099609"/>
      <use xlink:href="#DejaVuSans-74" x="113.378906"/>
      <use xlink:href="#DejaVuSans-75" x="152.587891"/>
      <use xlink:href="#DejaVuSans-72" x="215.966797"/>
      <use xlink:href="#DejaVuSans-61" x="257.080078"/>
      <use xlink:href="#DejaVuSans-74" x="318.359375"/>
      <use xlink:href="#DejaVuSans-69" x="357.568359"/>
      <use xlink:href="#DejaVuSans-6f" x="385.351562"/>
      <use xlink:href="#DejaVuSans-6e" x="446.533203"/>
     </g>
    </g>
    <g id="patch_18">
     <path d="M 30.103125 366.829963 
L 128.343125 366.829963 
L 128.343125 352.426425 
L 30.103125 352.426425 
z
" style="fill: #ffffff; stroke: #000000; stroke-linejoin: miter"/>
    </g>
    <g id="text_40">
     <!-- ELU.2 -->
     <g transform="translate(65.098125 362.387569) scale(0.1 -0.1)">
      <use xlink:href="#DejaVuSans-45"/>
      <use xlink:href="#DejaVuSans-4c" x="63.183594"/>
      <use xlink:href="#DejaVuSans-55" x="113.896484"/>
      <use xlink:href="#DejaVuSans-2e" x="187.089844"/>
      <use xlink:href="#DejaVuSans-32" x="218.876953"/>
     </g>
    </g>
    <g id="patch_19">
     <path d="M 128.343125 366.829963 
L 226.583125 366.829963 
L 226.583125 352.426425 
L 128.343125 352.426425 
z
" style="fill: #ffffff; stroke: #000000; stroke-linejoin: miter"/>
    </g>
    <g id="text_41">
     <!-- +0.12 -->
     <g transform="translate(162.140469 362.387569) scale(0.1 -0.1)">
      <defs>
       <path id="DejaVuSans-2b" d="M 2944 4013 
L 2944 2272 
L 4684 2272 
L 4684 1741 
L 2944 1741 
L 2944 0 
L 2419 0 
L 2419 1741 
L 678 1741 
L 678 2272 
L 2419 2272 
L 2419 4013 
L 2944 4013 
z
" transform="scale(0.015625)"/>
      </defs>
      <use xlink:href="#DejaVuSans-2b"/>
      <use xlink:href="#DejaVuSans-30" x="83.789062"/>
      <use xlink:href="#DejaVuSans-2e" x="147.412109"/>
      <use xlink:href="#DejaVuSans-31" x="179.199219"/>
      <use xlink:href="#DejaVuSans-32" x="242.822266"/>
     </g>
    </g>
    <g id="patch_20">
     <path d="M 226.583125 366.829963 
L 324.823125 366.829963 
L 324.823125 352.426425 
L 226.583125 352.426425 
z
" style="fill: #ffffff; stroke: #000000; stroke-linejoin: miter"/>
    </g>
    <g id="text_42">
     <!-- 0.89 -->
     <g transform="translate(264.570312 362.387569) scale(0.1 -0.1)">
      <use xlink:href="#DejaVuSans-30"/>
      <use xlink:href="#DejaVuSans-2e" x="63.623047"/>
      <use xlink:href="#DejaVuSans-38" x="95.410156"/>
      <use xlink:href="#DejaVuSans-39" x="159.033203"/>
     </g>
    </g>
    <g id="patch_21">
     <path d="M 324.823125 366.829963 
L 423.063125 366.829963 
L 423.063125 352.426425 
L 324.823125 352.426425 
z
" style="fill: #ffffff; stroke: #000000; stroke-linejoin: miter"/>
    </g>
    <g id="text_43">
     <!-- 4.03% -->
     <g transform="translate(358.059531 362.387569) scale(0.1 -0.1)">
      <defs>
       <path id="DejaVuSans-25" d="M 4653 2053 
Q 4381 2053 4226 1822 
Q 4072 1591 4072 1178 
Q 4072 772 4226 539 
Q 4381 306 4653 306 
Q 4919 306 5073 539 
Q 5228 772 5228 1178 
Q 5228 1588 5073 1820 
Q 4919 2053 4653 2053 
z
M 4653 2450 
Q 5147 2450 5437 2106 
Q 5728 1763 5728 1178 
Q 5728 594 5436 251 
Q 5144 -91 4653 -91 
Q 4153 -91 3862 251 
Q 3572 594 3572 1178 
Q 3572 1766 3864 2108 
Q 4156 2450 4653 2450 
z
M 1428 4353 
Q 1159 4353 1004 4120 
Q 850 3888 850 3481 
Q 850 3069 1003 2837 
Q 1156 2606 1428 2606 
Q 1700 2606 1854 2837 
Q 2009 3069 2009 3481 
Q 2009 3884 1853 4118 
Q 1697 4353 1428 4353 
z
M 4250 4750 
L 4750 4750 
L 1831 -91 
L 1331 -91 
L 4250 4750 
z
M 1428 4750 
Q 1922 4750 2215 4408 
Q 2509 4066 2509 3481 
Q 2509 2891 2217 2550 
Q 1925 2209 1428 2209 
Q 931 2209 642 2551 
Q 353 2894 353 3481 
Q 353 4063 643 4406 
Q 934 4750 1428 4750 
z
" transform="scale(0.015625)"/>
      </defs>
      <use xlink:href="#DejaVuSans-34"/>
      <use xlink:href="#DejaVuSans-2e" x="63.623047"/>
      <use xlink:href="#DejaVuSans-30" x="95.410156"/>
      <use xlink:href="#DejaVuSans-33" x="159.033203"/>
      <use xlink:href="#DejaVuSans-25" x="222.65625"/>
     </g>
    </g>
    <g id="patch_22">
     <path d="M 30.103125 381.2335 
L 128.343125 381.2335 
L 128.343125 366.829963 
L 30.103125 366.829963 
z
" style="fill: #ffffff; stroke: #000000; stroke-linejoin: miter"/>
    </g>
    <g id="text_44">
     <!-- ELU.4 -->
     <g transform="translate(65.098125 376.791106) scale(0.1 -0.1)">
      <use xlink:href="#DejaVuSans-45"/>
      <use xlink:href="#DejaVuSans-4c" x="63.183594"/>
      <use xlink:href="#DejaVuSans-55" x="113.896484"/>
      <use xlink:href="#DejaVuSans-2e" x="187.089844"/>
      <use xlink:href="#DejaVuSans-34" x="218.876953"/>
     </g>
    </g>
    <g id="patch_23">
     <path d="M 128.343125 381.2335 
L 226.583125 381.2335 
L 226.583125 366.829963 
L 128.343125 366.829963 
z
" style="fill: #ffffff; stroke: #000000; stroke-linejoin: miter"/>
    </g>
    <g id="text_45">
     <!-- -0.01 -->
     <g transform="translate(164.526406 376.791106) scale(0.1 -0.1)">
      <use xlink:href="#DejaVuSans-2d"/>
      <use xlink:href="#DejaVuSans-30" x="36.083984"/>
      <use xlink:href="#DejaVuSans-2e" x="99.707031"/>
      <use xlink:href="#DejaVuSans-30" x="131.494141"/>
      <use xlink:href="#DejaVuSans-31" x="195.117188"/>
     </g>
    </g>
    <g id="patch_24">
     <path d="M 226.583125 381.2335 
L 324.823125 381.2335 
L 324.823125 366.829963 
L 226.583125 366.829963 
z
" style="fill: #ffffff; stroke: #000000; stroke-linejoin: miter"/>
    </g>
    <g id="text_46">
     <!-- 1.01 -->
     <g transform="translate(264.570312 376.791106) scale(0.1 -0.1)">
      <use xlink:href="#DejaVuSans-31"/>
      <use xlink:href="#DejaVuSans-2e" x="63.623047"/>
      <use xlink:href="#DejaVuSans-30" x="95.410156"/>
      <use xlink:href="#DejaVuSans-31" x="159.033203"/>
     </g>
    </g>
    <g id="patch_25">
     <path d="M 324.823125 381.2335 
L 423.063125 381.2335 
L 423.063125 366.829963 
L 324.823125 366.829963 
z
" style="fill: #ffffff; stroke: #000000; stroke-linejoin: miter"/>
    </g>
    <g id="text_47">
     <!-- 10.88% -->
     <g transform="translate(354.878281 376.791106) scale(0.1 -0.1)">
      <use xlink:href="#DejaVuSans-31"/>
      <use xlink:href="#DejaVuSans-30" x="63.623047"/>
      <use xlink:href="#DejaVuSans-2e" x="127.246094"/>
      <use xlink:href="#DejaVuSans-38" x="159.033203"/>
      <use xlink:href="#DejaVuSans-38" x="222.65625"/>
      <use xlink:href="#DejaVuSans-25" x="286.279297"/>
     </g>
    </g>
    <g id="patch_26">
     <path d="M 30.103125 395.637037 
L 128.343125 395.637037 
L 128.343125 381.2335 
L 30.103125 381.2335 
z
" style="fill: #ffffff; stroke: #000000; stroke-linejoin: miter"/>
    </g>
    <g id="text_48">
     <!-- ELU.6 -->
     <g transform="translate(65.098125 391.194644) scale(0.1 -0.1)">
      <use xlink:href="#DejaVuSans-45"/>
      <use xlink:href="#DejaVuSans-4c" x="63.183594"/>
      <use xlink:href="#DejaVuSans-55" x="113.896484"/>
      <use xlink:href="#DejaVuSans-2e" x="187.089844"/>
      <use xlink:href="#DejaVuSans-36" x="218.876953"/>
     </g>
    </g>
    <g id="patch_27">
     <path d="M 128.343125 395.637037 
L 226.583125 395.637037 
L 226.583125 381.2335 
L 128.343125 381.2335 
z
" style="fill: #ffffff; stroke: #000000; stroke-linejoin: miter"/>
    </g>
    <g id="text_49">
     <!-- +0.04 -->
     <g transform="translate(162.140469 391.194644) scale(0.1 -0.1)">
      <use xlink:href="#DejaVuSans-2b"/>
      <use xlink:href="#DejaVuSans-30" x="83.789062"/>
      <use xlink:href="#DejaVuSans-2e" x="147.412109"/>
      <use xlink:href="#DejaVuSans-30" x="179.199219"/>
      <use xlink:href="#DejaVuSans-34" x="242.822266"/>
     </g>
    </g>
    <g id="patch_28">
     <path d="M 226.583125 395.637037 
L 324.823125 395.637037 
L 324.823125 381.2335 
L 226.583125 381.2335 
z
" style="fill: #ffffff; stroke: #000000; stroke-linejoin: miter"/>
    </g>
    <g id="text_50">
     <!-- 1.13 -->
     <g transform="translate(264.570312 391.194644) scale(0.1 -0.1)">
      <use xlink:href="#DejaVuSans-31"/>
      <use xlink:href="#DejaVuSans-2e" x="63.623047"/>
      <use xlink:href="#DejaVuSans-31" x="95.410156"/>
      <use xlink:href="#DejaVuSans-33" x="159.033203"/>
     </g>
    </g>
    <g id="patch_29">
     <path d="M 324.823125 395.637037 
L 423.063125 395.637037 
L 423.063125 381.2335 
L 324.823125 381.2335 
z
" style="fill: #ffffff; stroke: #000000; stroke-linejoin: miter"/>
    </g>
    <g id="text_51">
     <!-- 13.47% -->
     <g transform="translate(354.878281 391.194644) scale(0.1 -0.1)">
      <defs>
       <path id="DejaVuSans-37" d="M 525 4666 
L 3525 4666 
L 3525 4397 
L 1831 0 
L 1172 0 
L 2766 4134 
L 525 4134 
L 525 4666 
z
" transform="scale(0.015625)"/>
      </defs>
      <use xlink:href="#DejaVuSans-31"/>
      <use xlink:href="#DejaVuSans-33" x="63.623047"/>
      <use xlink:href="#DejaVuSans-2e" x="127.246094"/>
      <use xlink:href="#DejaVuSans-34" x="159.033203"/>
      <use xlink:href="#DejaVuSans-37" x="222.65625"/>
      <use xlink:href="#DejaVuSans-25" x="286.279297"/>
     </g>
    </g>
    <g id="patch_30">
     <path d="M 30.103125 410.040575 
L 128.343125 410.040575 
L 128.343125 395.637037 
L 30.103125 395.637037 
z
" style="fill: #ffffff; stroke: #000000; stroke-linejoin: miter"/>
    </g>
    <g id="text_52">
     <!-- ELU.8 -->
     <g transform="translate(65.098125 405.598181) scale(0.1 -0.1)">
      <use xlink:href="#DejaVuSans-45"/>
      <use xlink:href="#DejaVuSans-4c" x="63.183594"/>
      <use xlink:href="#DejaVuSans-55" x="113.896484"/>
      <use xlink:href="#DejaVuSans-2e" x="187.089844"/>
      <use xlink:href="#DejaVuSans-38" x="218.876953"/>
     </g>
    </g>
    <g id="patch_31">
     <path d="M 128.343125 410.040575 
L 226.583125 410.040575 
L 226.583125 395.637037 
L 128.343125 395.637037 
z
" style="fill: #ffffff; stroke: #000000; stroke-linejoin: miter"/>
    </g>
    <g id="text_53">
     <!-- -0.23 -->
     <g transform="translate(164.526406 405.598181) scale(0.1 -0.1)">
      <use xlink:href="#DejaVuSans-2d"/>
      <use xlink:href="#DejaVuSans-30" x="36.083984"/>
      <use xlink:href="#DejaVuSans-2e" x="99.707031"/>
      <use xlink:href="#DejaVuSans-32" x="131.494141"/>
      <use xlink:href="#DejaVuSans-33" x="195.117188"/>
     </g>
    </g>
    <g id="patch_32">
     <path d="M 226.583125 410.040575 
L 324.823125 410.040575 
L 324.823125 395.637037 
L 226.583125 395.637037 
z
" style="fill: #ffffff; stroke: #000000; stroke-linejoin: miter"/>
    </g>
    <g id="text_54">
     <!-- 1.00 -->
     <g transform="translate(264.570312 405.598181) scale(0.1 -0.1)">
      <use xlink:href="#DejaVuSans-31"/>
      <use xlink:href="#DejaVuSans-2e" x="63.623047"/>
      <use xlink:href="#DejaVuSans-30" x="95.410156"/>
      <use xlink:href="#DejaVuSans-30" x="159.033203"/>
     </g>
    </g>
    <g id="patch_33">
     <path d="M 324.823125 410.040575 
L 423.063125 410.040575 
L 423.063125 395.637037 
L 324.823125 395.637037 
z
" style="fill: #ffffff; stroke: #000000; stroke-linejoin: miter"/>
    </g>
    <g id="text_55">
     <!-- 22.84% -->
     <g transform="translate(354.878281 405.598181) scale(0.1 -0.1)">
      <use xlink:href="#DejaVuSans-32"/>
      <use xlink:href="#DejaVuSans-32" x="63.623047"/>
      <use xlink:href="#DejaVuSans-2e" x="127.246094"/>
      <use xlink:href="#DejaVuSans-38" x="159.033203"/>
      <use xlink:href="#DejaVuSans-34" x="222.65625"/>
      <use xlink:href="#DejaVuSans-25" x="286.279297"/>
     </g>
    </g>
    <g id="patch_34">
     <path d="M 30.103125 424.444112 
L 128.343125 424.444112 
L 128.343125 410.040575 
L 30.103125 410.040575 
z
" style="fill: #ffffff; stroke: #000000; stroke-linejoin: miter"/>
    </g>
    <g id="text_56">
     <!-- ELU.10 -->
     <g transform="translate(61.916875 420.001719) scale(0.1 -0.1)">
      <use xlink:href="#DejaVuSans-45"/>
      <use xlink:href="#DejaVuSans-4c" x="63.183594"/>
      <use xlink:href="#DejaVuSans-55" x="113.896484"/>
      <use xlink:href="#DejaVuSans-2e" x="187.089844"/>
      <use xlink:href="#DejaVuSans-31" x="218.876953"/>
      <use xlink:href="#DejaVuSans-30" x="282.5"/>
     </g>
    </g>
    <g id="patch_35">
     <path d="M 128.343125 424.444112 
L 226.583125 424.444112 
L 226.583125 410.040575 
L 128.343125 410.040575 
z
" style="fill: #ffffff; stroke: #000000; stroke-linejoin: miter"/>
    </g>
    <g id="text_57">
     <!-- -0.30 -->
     <g transform="translate(164.526406 420.001719) scale(0.1 -0.1)">
      <use xlink:href="#DejaVuSans-2d"/>
      <use xlink:href="#DejaVuSans-30" x="36.083984"/>
      <use xlink:href="#DejaVuSans-2e" x="99.707031"/>
      <use xlink:href="#DejaVuSans-33" x="131.494141"/>
      <use xlink:href="#DejaVuSans-30" x="195.117188"/>
     </g>
    </g>
    <g id="patch_36">
     <path d="M 226.583125 424.444112 
L 324.823125 424.444112 
L 324.823125 410.040575 
L 226.583125 410.040575 
z
" style="fill: #ffffff; stroke: #000000; stroke-linejoin: miter"/>
    </g>
    <g id="text_58">
     <!-- 0.70 -->
     <g transform="translate(264.570312 420.001719) scale(0.1 -0.1)">
      <use xlink:href="#DejaVuSans-30"/>
      <use xlink:href="#DejaVuSans-2e" x="63.623047"/>
      <use xlink:href="#DejaVuSans-37" x="95.410156"/>
      <use xlink:href="#DejaVuSans-30" x="159.033203"/>
     </g>
    </g>
    <g id="patch_37">
     <path d="M 324.823125 424.444112 
L 423.063125 424.444112 
L 423.063125 410.040575 
L 324.823125 410.040575 
z
" style="fill: #ffffff; stroke: #000000; stroke-linejoin: miter"/>
    </g>
    <g id="text_59">
     <!-- 12.47% -->
     <g transform="translate(354.878281 420.001719) scale(0.1 -0.1)">
      <use xlink:href="#DejaVuSans-31"/>
      <use xlink:href="#DejaVuSans-32" x="63.623047"/>
      <use xlink:href="#DejaVuSans-2e" x="127.246094"/>
      <use xlink:href="#DejaVuSans-34" x="159.033203"/>
      <use xlink:href="#DejaVuSans-37" x="222.65625"/>
      <use xlink:href="#DejaVuSans-25" x="286.279297"/>
     </g>
    </g>
   </g>
  </g>
  <g id="axes_4">
   <g id="table_2">
    <g id="patch_38">
     <path d="M 456.703125 352.426425 
L 554.943125 352.426425 
L 554.943125 338.022888 
L 456.703125 338.022888 
z
" style="fill: #ffffff; stroke: #000000; stroke-linejoin: miter"/>
    </g>
    <g id="text_60">
     <!-- layer -->
     <g transform="translate(493.278594 347.984031) scale(0.1 -0.1)">
      <use xlink:href="#DejaVuSans-6c"/>
      <use xlink:href="#DejaVuSans-61" x="27.783203"/>
      <use xlink:href="#DejaVuSans-79" x="89.0625"/>
      <use xlink:href="#DejaVuSans-65" x="148.242188"/>
      <use xlink:href="#DejaVuSans-72" x="209.765625"/>
     </g>
    </g>
    <g id="patch_39">
     <path d="M 554.943125 352.426425 
L 653.183125 352.426425 
L 653.183125 338.022888 
L 554.943125 338.022888 
z
" style="fill: #ffffff; stroke: #000000; stroke-linejoin: miter"/>
    </g>
    <g id="text_61">
     <!-- μ -->
     <g transform="translate(600.881875 347.984031) scale(0.1 -0.1)">
      <use xlink:href="#DejaVuSans-3bc"/>
     </g>
    </g>
    <g id="patch_40">
     <path d="M 653.183125 352.426425 
L 751.423125 352.426425 
L 751.423125 338.022888 
L 653.183125 338.022888 
z
" style="fill: #ffffff; stroke: #000000; stroke-linejoin: miter"/>
    </g>
    <g id="text_62">
     <!-- σ -->
     <g transform="translate(699.134375 347.984031) scale(0.1 -0.1)">
      <use xlink:href="#DejaVuSans-3c3"/>
     </g>
    </g>
    <g id="patch_41">
     <path d="M 751.423125 352.426425 
L 849.663125 352.426425 
L 849.663125 338.022888 
L 751.423125 338.022888 
z
" style="fill: #ffffff; stroke: #000000; stroke-linejoin: miter"/>
    </g>
    <g id="text_63">
     <!-- saturation -->
     <g transform="translate(775.048594 347.984031) scale(0.1 -0.1)">
      <use xlink:href="#DejaVuSans-73"/>
      <use xlink:href="#DejaVuSans-61" x="52.099609"/>
      <use xlink:href="#DejaVuSans-74" x="113.378906"/>
      <use xlink:href="#DejaVuSans-75" x="152.587891"/>
      <use xlink:href="#DejaVuSans-72" x="215.966797"/>
      <use xlink:href="#DejaVuSans-61" x="257.080078"/>
      <use xlink:href="#DejaVuSans-74" x="318.359375"/>
      <use xlink:href="#DejaVuSans-69" x="357.568359"/>
      <use xlink:href="#DejaVuSans-6f" x="385.351562"/>
      <use xlink:href="#DejaVuSans-6e" x="446.533203"/>
     </g>
    </g>
    <g id="patch_42">
     <path d="M 456.703125 366.829963 
L 554.943125 366.829963 
L 554.943125 352.426425 
L 456.703125 352.426425 
z
" style="fill: #ffffff; stroke: #000000; stroke-linejoin: miter"/>
    </g>
    <g id="text_64">
     <!-- ELU.3 -->
     <g transform="translate(491.698125 362.387569) scale(0.1 -0.1)">
      <use xlink:href="#DejaVuSans-45"/>
      <use xlink:href="#DejaVuSans-4c" x="63.183594"/>
      <use xlink:href="#DejaVuSans-55" x="113.896484"/>
      <use xlink:href="#DejaVuSans-2e" x="187.089844"/>
      <use xlink:href="#DejaVuSans-33" x="218.876953"/>
     </g>
    </g>
    <g id="patch_43">
     <path d="M 554.943125 366.829963 
L 653.183125 366.829963 
L 653.183125 352.426425 
L 554.943125 352.426425 
z
" style="fill: #ffffff; stroke: #000000; stroke-linejoin: miter"/>
    </g>
    <g id="text_65">
     <!-- +0.16 -->
     <g transform="translate(588.740469 362.387569) scale(0.1 -0.1)">
      <use xlink:href="#DejaVuSans-2b"/>
      <use xlink:href="#DejaVuSans-30" x="83.789062"/>
      <use xlink:href="#DejaVuSans-2e" x="147.412109"/>
      <use xlink:href="#DejaVuSans-31" x="179.199219"/>
      <use xlink:href="#DejaVuSans-36" x="242.822266"/>
     </g>
    </g>
    <g id="patch_44">
     <path d="M 653.183125 366.829963 
L 751.423125 366.829963 
L 751.423125 352.426425 
L 653.183125 352.426425 
z
" style="fill: #ffffff; stroke: #000000; stroke-linejoin: miter"/>
    </g>
    <g id="text_66">
     <!-- 0.77 -->
     <g transform="translate(691.170313 362.387569) scale(0.1 -0.1)">
      <use xlink:href="#DejaVuSans-30"/>
      <use xlink:href="#DejaVuSans-2e" x="63.623047"/>
      <use xlink:href="#DejaVuSans-37" x="95.410156"/>
      <use xlink:href="#DejaVuSans-37" x="159.033203"/>
     </g>
    </g>
    <g id="patch_45">
     <path d="M 751.423125 366.829963 
L 849.663125 366.829963 
L 849.663125 352.426425 
L 751.423125 352.426425 
z
" style="fill: #ffffff; stroke: #000000; stroke-linejoin: miter"/>
    </g>
    <g id="text_67">
     <!-- 1.34% -->
     <g transform="translate(784.659531 362.387569) scale(0.1 -0.1)">
      <use xlink:href="#DejaVuSans-31"/>
      <use xlink:href="#DejaVuSans-2e" x="63.623047"/>
      <use xlink:href="#DejaVuSans-33" x="95.410156"/>
      <use xlink:href="#DejaVuSans-34" x="159.033203"/>
      <use xlink:href="#DejaVuSans-25" x="222.65625"/>
     </g>
    </g>
    <g id="patch_46">
     <path d="M 456.703125 381.2335 
L 554.943125 381.2335 
L 554.943125 366.829963 
L 456.703125 366.829963 
z
" style="fill: #ffffff; stroke: #000000; stroke-linejoin: miter"/>
    </g>
    <g id="text_68">
     <!-- ELU.6 -->
     <g transform="translate(491.698125 376.791106) scale(0.1 -0.1)">
      <use xlink:href="#DejaVuSans-45"/>
      <use xlink:href="#DejaVuSans-4c" x="63.183594"/>
      <use xlink:href="#DejaVuSans-55" x="113.896484"/>
      <use xlink:href="#DejaVuSans-2e" x="187.089844"/>
      <use xlink:href="#DejaVuSans-36" x="218.876953"/>
     </g>
    </g>
    <g id="patch_47">
     <path d="M 554.943125 381.2335 
L 653.183125 381.2335 
L 653.183125 366.829963 
L 554.943125 366.829963 
z
" style="fill: #ffffff; stroke: #000000; stroke-linejoin: miter"/>
    </g>
    <g id="text_69">
     <!-- +0.15 -->
     <g transform="translate(588.740469 376.791106) scale(0.1 -0.1)">
      <use xlink:href="#DejaVuSans-2b"/>
      <use xlink:href="#DejaVuSans-30" x="83.789062"/>
      <use xlink:href="#DejaVuSans-2e" x="147.412109"/>
      <use xlink:href="#DejaVuSans-31" x="179.199219"/>
      <use xlink:href="#DejaVuSans-35" x="242.822266"/>
     </g>
    </g>
    <g id="patch_48">
     <path d="M 653.183125 381.2335 
L 751.423125 381.2335 
L 751.423125 366.829963 
L 653.183125 366.829963 
z
" style="fill: #ffffff; stroke: #000000; stroke-linejoin: miter"/>
    </g>
    <g id="text_70">
     <!-- 0.79 -->
     <g transform="translate(691.170313 376.791106) scale(0.1 -0.1)">
      <use xlink:href="#DejaVuSans-30"/>
      <use xlink:href="#DejaVuSans-2e" x="63.623047"/>
      <use xlink:href="#DejaVuSans-37" x="95.410156"/>
      <use xlink:href="#DejaVuSans-39" x="159.033203"/>
     </g>
    </g>
    <g id="patch_49">
     <path d="M 751.423125 381.2335 
L 849.663125 381.2335 
L 849.663125 366.829963 
L 751.423125 366.829963 
z
" style="fill: #ffffff; stroke: #000000; stroke-linejoin: miter"/>
    </g>
    <g id="text_71">
     <!-- 1.41% -->
     <g transform="translate(784.659531 376.791106) scale(0.1 -0.1)">
      <use xlink:href="#DejaVuSans-31"/>
      <use xlink:href="#DejaVuSans-2e" x="63.623047"/>
      <use xlink:href="#DejaVuSans-34" x="95.410156"/>
      <use xlink:href="#DejaVuSans-31" x="159.033203"/>
      <use xlink:href="#DejaVuSans-25" x="222.65625"/>
     </g>
    </g>
    <g id="patch_50">
     <path d="M 456.703125 395.637037 
L 554.943125 395.637037 
L 554.943125 381.2335 
L 456.703125 381.2335 
z
" style="fill: #ffffff; stroke: #000000; stroke-linejoin: miter"/>
    </g>
    <g id="text_72">
     <!-- ELU.9 -->
     <g transform="translate(491.698125 391.194644) scale(0.1 -0.1)">
      <use xlink:href="#DejaVuSans-45"/>
      <use xlink:href="#DejaVuSans-4c" x="63.183594"/>
      <use xlink:href="#DejaVuSans-55" x="113.896484"/>
      <use xlink:href="#DejaVuSans-2e" x="187.089844"/>
      <use xlink:href="#DejaVuSans-39" x="218.876953"/>
     </g>
    </g>
    <g id="patch_51">
     <path d="M 554.943125 395.637037 
L 653.183125 395.637037 
L 653.183125 381.2335 
L 554.943125 381.2335 
z
" style="fill: #ffffff; stroke: #000000; stroke-linejoin: miter"/>
    </g>
    <g id="text_73">
     <!-- +0.14 -->
     <g transform="translate(588.740469 391.194644) scale(0.1 -0.1)">
      <use xlink:href="#DejaVuSans-2b"/>
      <use xlink:href="#DejaVuSans-30" x="83.789062"/>
      <use xlink:href="#DejaVuSans-2e" x="147.412109"/>
      <use xlink:href="#DejaVuSans-31" x="179.199219"/>
      <use xlink:href="#DejaVuSans-34" x="242.822266"/>
     </g>
    </g>
    <g id="patch_52">
     <path d="M 653.183125 395.637037 
L 751.423125 395.637037 
L 751.423125 381.2335 
L 653.183125 381.2335 
z
" style="fill: #ffffff; stroke: #000000; stroke-linejoin: miter"/>
    </g>
    <g id="text_74">
     <!-- 0.78 -->
     <g transform="translate(691.170313 391.194644) scale(0.1 -0.1)">
      <use xlink:href="#DejaVuSans-30"/>
      <use xlink:href="#DejaVuSans-2e" x="63.623047"/>
      <use xlink:href="#DejaVuSans-37" x="95.410156"/>
      <use xlink:href="#DejaVuSans-38" x="159.033203"/>
     </g>
    </g>
    <g id="patch_53">
     <path d="M 751.423125 395.637037 
L 849.663125 395.637037 
L 849.663125 381.2335 
L 751.423125 381.2335 
z
" style="fill: #ffffff; stroke: #000000; stroke-linejoin: miter"/>
    </g>
    <g id="text_75">
     <!-- 1.44% -->
     <g transform="translate(784.659531 391.194644) scale(0.1 -0.1)">
      <use xlink:href="#DejaVuSans-31"/>
      <use xlink:href="#DejaVuSans-2e" x="63.623047"/>
      <use xlink:href="#DejaVuSans-34" x="95.410156"/>
      <use xlink:href="#DejaVuSans-34" x="159.033203"/>
      <use xlink:href="#DejaVuSans-25" x="222.65625"/>
     </g>
    </g>
    <g id="patch_54">
     <path d="M 456.703125 410.040575 
L 554.943125 410.040575 
L 554.943125 395.637037 
L 456.703125 395.637037 
z
" style="fill: #ffffff; stroke: #000000; stroke-linejoin: miter"/>
    </g>
    <g id="text_76">
     <!-- ELU.12 -->
     <g transform="translate(488.516875 405.598181) scale(0.1 -0.1)">
      <use xlink:href="#DejaVuSans-45"/>
      <use xlink:href="#DejaVuSans-4c" x="63.183594"/>
      <use xlink:href="#DejaVuSans-55" x="113.896484"/>
      <use xlink:href="#DejaVuSans-2e" x="187.089844"/>
      <use xlink:href="#DejaVuSans-31" x="218.876953"/>
      <use xlink:href="#DejaVuSans-32" x="282.5"/>
     </g>
    </g>
    <g id="patch_55">
     <path d="M 554.943125 410.040575 
L 653.183125 410.040575 
L 653.183125 395.637037 
L 554.943125 395.637037 
z
" style="fill: #ffffff; stroke: #000000; stroke-linejoin: miter"/>
    </g>
    <g id="text_77">
     <!-- +0.14 -->
     <g transform="translate(588.740469 405.598181) scale(0.1 -0.1)">
      <use xlink:href="#DejaVuSans-2b"/>
      <use xlink:href="#DejaVuSans-30" x="83.789062"/>
      <use xlink:href="#DejaVuSans-2e" x="147.412109"/>
      <use xlink:href="#DejaVuSans-31" x="179.199219"/>
      <use xlink:href="#DejaVuSans-34" x="242.822266"/>
     </g>
    </g>
    <g id="patch_56">
     <path d="M 653.183125 410.040575 
L 751.423125 410.040575 
L 751.423125 395.637037 
L 653.183125 395.637037 
z
" style="fill: #ffffff; stroke: #000000; stroke-linejoin: miter"/>
    </g>
    <g id="text_78">
     <!-- 0.80 -->
     <g transform="translate(691.170313 405.598181) scale(0.1 -0.1)">
      <use xlink:href="#DejaVuSans-30"/>
      <use xlink:href="#DejaVuSans-2e" x="63.623047"/>
      <use xlink:href="#DejaVuSans-38" x="95.410156"/>
      <use xlink:href="#DejaVuSans-30" x="159.033203"/>
     </g>
    </g>
    <g id="patch_57">
     <path d="M 751.423125 410.040575 
L 849.663125 410.040575 
L 849.663125 395.637037 
L 751.423125 395.637037 
z
" style="fill: #ffffff; stroke: #000000; stroke-linejoin: miter"/>
    </g>
    <g id="text_79">
     <!-- 0.91% -->
     <g transform="translate(784.659531 405.598181) scale(0.1 -0.1)">
      <use xlink:href="#DejaVuSans-30"/>
      <use xlink:href="#DejaVuSans-2e" x="63.623047"/>
      <use xlink:href="#DejaVuSans-39" x="95.410156"/>
      <use xlink:href="#DejaVuSans-31" x="159.033203"/>
      <use xlink:href="#DejaVuSans-25" x="222.65625"/>
     </g>
    </g>
    <g id="patch_58">
     <path d="M 456.703125 424.444112 
L 554.943125 424.444112 
L 554.943125 410.040575 
L 456.703125 410.040575 
z
" style="fill: #ffffff; stroke: #000000; stroke-linejoin: miter"/>
    </g>
    <g id="text_80">
     <!-- ELU.15 -->
     <g transform="translate(488.516875 420.001719) scale(0.1 -0.1)">
      <use xlink:href="#DejaVuSans-45"/>
      <use xlink:href="#DejaVuSans-4c" x="63.183594"/>
      <use xlink:href="#DejaVuSans-55" x="113.896484"/>
      <use xlink:href="#DejaVuSans-2e" x="187.089844"/>
      <use xlink:href="#DejaVuSans-31" x="218.876953"/>
      <use xlink:href="#DejaVuSans-35" x="282.5"/>
     </g>
    </g>
    <g id="patch_59">
     <path d="M 554.943125 424.444112 
L 653.183125 424.444112 
L 653.183125 410.040575 
L 554.943125 410.040575 
z
" style="fill: #ffffff; stroke: #000000; stroke-linejoin: miter"/>
    </g>
    <g id="text_81">
     <!-- +0.14 -->
     <g transform="translate(588.740469 420.001719) scale(0.1 -0.1)">
      <use xlink:href="#DejaVuSans-2b"/>
      <use xlink:href="#DejaVuSans-30" x="83.789062"/>
      <use xlink:href="#DejaVuSans-2e" x="147.412109"/>
      <use xlink:href="#DejaVuSans-31" x="179.199219"/>
      <use xlink:href="#DejaVuSans-34" x="242.822266"/>
     </g>
    </g>
    <g id="patch_60">
     <path d="M 653.183125 424.444112 
L 751.423125 424.444112 
L 751.423125 410.040575 
L 653.183125 410.040575 
z
" style="fill: #ffffff; stroke: #000000; stroke-linejoin: miter"/>
    </g>
    <g id="text_82">
     <!-- 0.80 -->
     <g transform="translate(691.170313 420.001719) scale(0.1 -0.1)">
      <use xlink:href="#DejaVuSans-30"/>
      <use xlink:href="#DejaVuSans-2e" x="63.623047"/>
      <use xlink:href="#DejaVuSans-38" x="95.410156"/>
      <use xlink:href="#DejaVuSans-30" x="159.033203"/>
     </g>
    </g>
    <g id="patch_61">
     <path d="M 751.423125 424.444112 
L 849.663125 424.444112 
L 849.663125 410.040575 
L 751.423125 410.040575 
z
" style="fill: #ffffff; stroke: #000000; stroke-linejoin: miter"/>
    </g>
    <g id="text_83">
     <!-- 0.84% -->
     <g transform="translate(784.659531 420.001719) scale(0.1 -0.1)">
      <use xlink:href="#DejaVuSans-30"/>
      <use xlink:href="#DejaVuSans-2e" x="63.623047"/>
      <use xlink:href="#DejaVuSans-38" x="95.410156"/>
      <use xlink:href="#DejaVuSans-34" x="159.033203"/>
      <use xlink:href="#DejaVuSans-25" x="222.65625"/>
     </g>
    </g>
   </g>
  </g>
 </g>
 <defs>
  <clipPath id="p1e78dd4501">
   <rect x="30.103125" y="35.7555" width="392.96" height="211.732"/>
  </clipPath>
  <clipPath id="p2243007126">
   <rect x="456.703125" y="35.7555" width="392.96" height="211.732"/>
  </clipPath>
 </defs>
</svg>