<?xml version="1.0" encoding="utf-8" standalone="no"?>
<!DOCTYPE svg PUBLIC "-//W3C//DTD SVG 1.1//EN"
  "http://www.w3.org/Graphics/SVG/1.1/DTD/svg11.dtd">
<svg xmlns:xlink="http://www.w3.org/1999/xlink" width="329.98125pt" height="211.07625pt" viewBox="0 0 329.98125 211.07625" xmlns="http://www.w3.org/2000/svg" version="1.1">
 <metadata>
  <rdf:RDF xmlns:dc="http://purl.org/dc/elements/1.1/" xmlns:cc="http://creativecommons.org/ns#" xmlns:rdf="http://www.w3.org/1999/02/22-rdf-syntax-ns#">
   <cc:Work>
    <dc:type rdf:resource="http://purl.org/dc/dcmitype/StillImage"/>
    <dc:date>2024-03-14T04:14:14.896021</dc:date>
    <dc:format>image/svg+xml</dc:format>
    <dc:creator>
     <cc:Agent>
      <dc:title>Matplotlib v3.7.1, https://matplotlib.org/</dc:title>
     </cc:Agent>
    </dc:creator>
   </cc:Work>
  </rdf:RDF>
 </metadata>
 <defs>
  <style type="text/css">*{stroke-linejoin: round; stroke-linecap: butt}</style>
 </defs>
 <g id="figure_1">
  <g id="patch_1">
   <path d="M 0 211.07625 
L 329.98125 211.07625 
L 329.98125 0 
L 0 0 
z
" style="fill: #ffffff"/>
  </g>
  <g id="axes_1">
   <g id="patch_2">
    <path d="M 43.78125 173.52 
L 322.78125 173.52 
L 322.78125 7.2 
L 43.78125 7.2 
z
" style="fill: #ffffff"/>
   </g>
   <g id="matplotlib.axis_1">
    <g id="xtick_1">
     <g id="line2d_1">
      <defs>
       <path id="m5e95b6afad" d="M 0 0 
L 0 3.5 
" style="stroke: #000000; stroke-width: 0.8"/>
      </defs>
      <g>
       <use xlink:href="#m5e95b6afad" x="56.463068" y="173.52" style="stroke: #000000; stroke-width: 0.8"/>
      </g>
     </g>
     <g id="text_1">
      <!-- 0 -->
      <g transform="translate(53.281818 188.118438) scale(0.1 -0.1)">
       <defs>
        <path id="DejaVuSans-30" d="M 2034 4250 
Q 1547 4250 1301 3770 
Q 1056 3291 1056 2328 
Q 1056 1369 1301 889 
Q 1547 409 2034 409 
Q 2525 409 2770 889 
Q 3016 1369 3016 2328 
Q 3016 3291 2770 3770 
Q 2525 4250 2034 4250 
z
M 2034 4750 
Q 2819 4750 3233 4129 
Q 3647 3509 3647 2328 
Q 3647 1150 3233 529 
Q 2819 -91 2034 -91 
Q 1250 -91 836 529 
Q 422 1150 422 2328 
Q 422 3509 836 4129 
Q 1250 4750 2034 4750 
z
" transform="scale(0.015625)"/>
       </defs>
       <use xlink:href="#DejaVuSans-30"/>
      </g>
     </g>
    </g>
    <g id="xtick_2">
     <g id="line2d_2">
      <g>
       <use xlink:href="#m5e95b6afad" x="107.291999" y="173.52" style="stroke: #000000; stroke-width: 0.8"/>
      </g>
     </g>
     <g id="text_2">
      <!-- 100 -->
      <g transform="translate(97.748249 188.118438) scale(0.1 -0.1)">
       <defs>
        <path id="DejaVuSans-31" d="M 794 531 
L 1825 531 
L 1825 4091 
L 703 3866 
L 703 4441 
L 1819 4666 
L 2450 4666 
L 2450 531 
L 3481 531 
L 3481 0 
L 794 0 
L 794 531 
z
" transform="scale(0.015625)"/>
       </defs>
       <use xlink:href="#DejaVuSans-31"/>
       <use xlink:href="#DejaVuSans-30" x="63.623047"/>
       <use xlink:href="#DejaVuSans-30" x="127.246094"/>
      </g>
     </g>
    </g>
    <g id="xtick_3">
     <g id="line2d_3">
      <g>
       <use xlink:href="#m5e95b6afad" x="158.120929" y="173.52" style="stroke: #000000; stroke-width: 0.8"/>
      </g>
     </g>
     <g id="text_3">
      <!-- 200 -->
      <g transform="translate(148.577179 188.118438) scale(0.1 -0.1)">
       <defs>
        <path id="DejaVuSans-32" d="M 1228 531 
L 3431 531 
L 3431 0 
L 469 0 
L 469 531 
Q 828 903 1448 1529 
Q 2069 2156 2228 2338 
Q 2531 2678 2651 2914 
Q 2772 3150 2772 3378 
Q 2772 3750 2511 3984 
Q 2250 4219 1831 4219 
Q 1534 4219 1204 4116 
Q 875 4013 500 3803 
L 500 4441 
Q 881 4594 1212 4672 
Q 1544 4750 1819 4750 
Q 2544 4750 2975 4387 
Q 3406 4025 3406 3419 
Q 3406 3131 3298 2873 
Q 3191 2616 2906 2266 
Q 2828 2175 2409 1742 
Q 1991 1309 1228 531 
z
" transform="scale(0.015625)"/>
       </defs>
       <use xlink:href="#DejaVuSans-32"/>
       <use xlink:href="#DejaVuSans-30" x="63.623047"/>
       <use xlink:href="#DejaVuSans-30" x="127.246094"/>
      </g>
     </g>
    </g>
    <g id="xtick_4">
     <g id="line2d_4">
      <g>
       <use xlink:href="#m5e95b6afad" x="208.94986" y="173.52" style="stroke: #000000; stroke-width: 0.8"/>
      </g>
     </g>
     <g id="text_4">
      <!-- 300 -->
      <g transform="translate(199.40611 188.118438) scale(0.1 -0.1)">
       <defs>
        <path id="DejaVuSans-33" d="M 2597 2516 
Q 3050 2419 3304 2112 
Q 3559 1806 3559 1356 
Q 3559 666 3084 287 
Q 2609 -91 1734 -91 
Q 1441 -91 1130 -33 
Q 819 25 488 141 
L 488 750 
Q 750 597 1062 519 
Q 1375 441 1716 441 
Q 2309 441 2620 675 
Q 2931 909 2931 1356 
Q 2931 1769 2642 2001 
Q 2353 2234 1838 2234 
L 1294 2234 
L 1294 2753 
L 1863 2753 
Q 2328 2753 2575 2939 
Q 2822 3125 2822 3475 
Q 2822 3834 2567 4026 
Q 2313 4219 1838 4219 
Q 1578 4219 1281 4162 
Q 984 4106 628 3988 
L 628 4550 
Q 988 4650 1302 4700 
Q 1616 4750 1894 4750 
Q 2613 4750 3031 4423 
Q 3450 4097 3450 3541 
Q 3450 3153 3228 2886 
Q 3006 2619 2597 2516 
z
" transform="scale(0.015625)"/>
       </defs>
       <use xlink:href="#DejaVuSans-33"/>
       <use xlink:href="#DejaVuSans-30" x="63.623047"/>
       <use xlink:href="#DejaVuSans-30" x="127.246094"/>
      </g>
     </g>
    </g>
    <g id="xtick_5">
     <g id="line2d_5">
      <g>
       <use xlink:href="#m5e95b6afad" x="259.778791" y="173.52" style="stroke: #000000; stroke-width: 0.8"/>
      </g>
     </g>
     <g id="text_5">
      <!-- 400 -->
      <g transform="translate(250.235041 188.118438) scale(0.1 -0.1)">
       <defs>
        <path id="DejaVuSans-34" d="M 2419 4116 
L 825 1625 
L 2419 1625 
L 2419 4116 
z
M 2253 4666 
L 3047 4666 
L 3047 1625 
L 3713 1625 
L 3713 1100 
L 3047 1100 
L 3047 0 
L 2419 0 
L 2419 1100 
L 313 1100 
L 313 1709 
L 2253 4666 
z
" transform="scale(0.015625)"/>
       </defs>
       <use xlink:href="#DejaVuSans-34"/>
       <use xlink:href="#DejaVuSans-30" x="63.623047"/>
       <use xlink:href="#DejaVuSans-30" x="127.246094"/>
      </g>
     </g>
    </g>
    <g id="xtick_6">
     <g id="line2d_6">
      <g>
       <use xlink:href="#m5e95b6afad" x="310.607721" y="173.52" style="stroke: #000000; stroke-width: 0.8"/>
      </g>
     </g>
     <g id="text_6">
      <!-- 500 -->
      <g transform="translate(301.063971 188.118438) scale(0.1 -0.1)">
       <defs>
        <path id="DejaVuSans-35" d="M 691 4666 
L 3169 4666 
L 3169 4134 
L 1269 4134 
L 1269 2991 
Q 1406 3038 1543 3061 
Q 1681 3084 1819 3084 
Q 2600 3084 3056 2656 
Q 3513 2228 3513 1497 
Q 3513 744 3044 326 
Q 2575 -91 1722 -91 
Q 1428 -91 1123 -41 
Q 819 9 494 109 
L 494 744 
Q 775 591 1075 516 
Q 1375 441 1709 441 
Q 2250 441 2565 725 
Q 2881 1009 2881 1497 
Q 2881 1984 2565 2268 
Q 2250 2553 1709 2553 
Q 1456 2553 1204 2497 
Q 953 2441 691 2322 
L 691 4666 
z
" transform="scale(0.015625)"/>
       </defs>
       <use xlink:href="#DejaVuSans-35"/>
       <use xlink:href="#DejaVuSans-30" x="63.623047"/>
       <use xlink:href="#DejaVuSans-30" x="127.246094"/>
      </g>
     </g>
    </g>
    <g id="text_7">
     <!-- step -->
     <g transform="translate(172.465625 201.796563) scale(0.1 -0.1)">
      <defs>
       <path id="DejaVuSans-73" d="M 2834 3397 
L 2834 2853 
Q 2591 2978 2328 3040 
Q 2066 3103 1784 3103 
Q 1356 3103 1142 2972 
Q 928 2841 928 2578 
Q 928 2378 1081 2264 
Q 1234 2150 1697 2047 
L 1894 2003 
Q 2506 1872 2764 1633 
Q 3022 1394 3022 966 
Q 3022 478 2636 193 
Q 2250 -91 1575 -91 
Q 1294 -91 989 -36 
Q 684 19 347 128 
L 347 722 
Q 666 556 975 473 
Q 1284 391 1588 391 
Q 1994 391 2212 530 
Q 2431 669 2431 922 
Q 2431 1156 2273 1281 
Q 2116 1406 1581 1522 
L 1381 1569 
Q 847 1681 609 1914 
Q 372 2147 372 2553 
Q 372 3047 722 3315 
Q 1072 3584 1716 3584 
Q 2034 3584 2315 3537 
Q 2597 3491 2834 3397 
z
" transform="scale(0.015625)"/>
       <path id="DejaVuSans-74" d="M 1172 4494 
L 1172 3500 
L 2356 3500 
L 2356 3053 
L 1172 3053 
L 1172 1153 
Q 1172 725 1289 603 
Q 1406 481 1766 481 
L 2356 481 
L 2356 0 
L 1766 0 
Q 1100 0 847 248 
Q 594 497 594 1153 
L 594 3053 
L 172 3053 
L 172 3500 
L 594 3500 
L 594 4494 
L 1172 4494 
z
" transform="scale(0.015625)"/>
       <path id="DejaVuSans-65" d="M 3597 1894 
L 3597 1613 
L 953 1613 
Q 991 1019 1311 708 
Q 1631 397 2203 397 
Q 2534 397 2845 478 
Q 3156 559 3463 722 
L 3463 178 
Q 3153 47 2828 -22 
Q 2503 -91 2169 -91 
Q 1331 -91 842 396 
Q 353 884 353 1716 
Q 353 2575 817 3079 
Q 1281 3584 2069 3584 
Q 2775 3584 3186 3129 
Q 3597 2675 3597 1894 
z
M 3022 2063 
Q 3016 2534 2758 2815 
Q 2500 3097 2075 3097 
Q 1594 3097 1305 2825 
Q 1016 2553 972 2059 
L 3022 2063 
z
" transform="scale(0.015625)"/>
       <path id="DejaVuSans-70" d="M 1159 525 
L 1159 -1331 
L 581 -1331 
L 581 3500 
L 1159 3500 
L 1159 2969 
Q 1341 3281 1617 3432 
Q 1894 3584 2278 3584 
Q 2916 3584 3314 3078 
Q 3713 2572 3713 1747 
Q 3713 922 3314 415 
Q 2916 -91 2278 -91 
Q 1894 -91 1617 61 
Q 1341 213 1159 525 
z
M 3116 1747 
Q 3116 2381 2855 2742 
Q 2594 3103 2138 3103 
Q 1681 3103 1420 2742 
Q 1159 2381 1159 1747 
Q 1159 1113 1420 752 
Q 1681 391 2138 391 
Q 2594 391 2855 752 
Q 3116 1113 3116 1747 
z
" transform="scale(0.015625)"/>
      </defs>
      <use xlink:href="#DejaVuSans-73"/>
      <use xlink:href="#DejaVuSans-74" x="52.099609"/>
      <use xlink:href="#DejaVuSans-65" x="91.308594"/>
      <use xlink:href="#DejaVuSans-70" x="152.832031"/>
     </g>
    </g>
   </g>
   <g id="matplotlib.axis_2">
    <g id="ytick_1">
     <g id="line2d_7">
      <defs>
       <path id="m9405cb058a" d="M 0 0 
L -3.5 0 
" style="stroke: #000000; stroke-width: 0.8"/>
      </defs>
      <g>
       <use xlink:href="#m9405cb058a" x="43.78125" y="153.566943" style="stroke: #000000; stroke-width: 0.8"/>
      </g>
     </g>
     <g id="text_8">
      <!-- 2.6 -->
      <g transform="translate(20.878125 157.366162) scale(0.1 -0.1)">
       <defs>
        <path id="DejaVuSans-2e" d="M 684 794 
L 1344 794 
L 1344 0 
L 684 0 
L 684 794 
z
" transform="scale(0.015625)"/>
        <path id="DejaVuSans-36" d="M 2113 2584 
Q 1688 2584 1439 2293 
Q 1191 2003 1191 1497 
Q 1191 994 1439 701 
Q 1688 409 2113 409 
Q 2538 409 2786 701 
Q 3034 994 3034 1497 
Q 3034 2003 2786 2293 
Q 2538 2584 2113 2584 
z
M 3366 4563 
L 3366 3988 
Q 3128 4100 2886 4159 
Q 2644 4219 2406 4219 
Q 1781 4219 1451 3797 
Q 1122 3375 1075 2522 
Q 1259 2794 1537 2939 
Q 1816 3084 2150 3084 
Q 2853 3084 3261 2657 
Q 3669 2231 3669 1497 
Q 3669 778 3244 343 
Q 2819 -91 2113 -91 
Q 1303 -91 875 529 
Q 447 1150 447 2328 
Q 447 3434 972 4092 
Q 1497 4750 2381 4750 
Q 2619 4750 2861 4703 
Q 3103 4656 3366 4563 
z
" transform="scale(0.015625)"/>
       </defs>
       <use xlink:href="#DejaVuSans-32"/>
       <use xlink:href="#DejaVuSans-2e" x="63.623047"/>
       <use xlink:href="#DejaVuSans-36" x="95.410156"/>
      </g>
     </g>
    </g>
    <g id="ytick_2">
     <g id="line2d_8">
      <g>
       <use xlink:href="#m9405cb058a" x="43.78125" y="130.647175" style="stroke: #000000; stroke-width: 0.8"/>
      </g>
     </g>
     <g id="text_9">
      <!-- 2.8 -->
      <g transform="translate(20.878125 134.446394) scale(0.1 -0.1)">
       <defs>
        <path id="DejaVuSans-38" d="M 2034 2216 
Q 1584 2216 1326 1975 
Q 1069 1734 1069 1313 
Q 1069 891 1326 650 
Q 1584 409 2034 409 
Q 2484 409 2743 651 
Q 3003 894 3003 1313 
Q 3003 1734 2745 1975 
Q 2488 2216 2034 2216 
z
M 1403 2484 
Q 997 2584 770 2862 
Q 544 3141 544 3541 
Q 544 4100 942 4425 
Q 1341 4750 2034 4750 
Q 2731 4750 3128 4425 
Q 3525 4100 3525 3541 
Q 3525 3141 3298 2862 
Q 3072 2584 2669 2484 
Q 3125 2378 3379 2068 
Q 3634 1759 3634 1313 
Q 3634 634 3220 271 
Q 2806 -91 2034 -91 
Q 1263 -91 848 271 
Q 434 634 434 1313 
Q 434 1759 690 2068 
Q 947 2378 1403 2484 
z
M 1172 3481 
Q 1172 3119 1398 2916 
Q 1625 2713 2034 2713 
Q 2441 2713 2670 2916 
Q 2900 3119 2900 3481 
Q 2900 3844 2670 4047 
Q 2441 4250 2034 4250 
Q 1625 4250 1398 4047 
Q 1172 3844 1172 3481 
z
" transform="scale(0.015625)"/>
       </defs>
       <use xlink:href="#DejaVuSans-32"/>
       <use xlink:href="#DejaVuSans-2e" x="63.623047"/>
       <use xlink:href="#DejaVuSans-38" x="95.410156"/>
      </g>
     </g>
    </g>
    <g id="ytick_3">
     <g id="line2d_9">
      <g>
       <use xlink:href="#m9405cb058a" x="43.78125" y="107.727406" style="stroke: #000000; stroke-width: 0.8"/>
      </g>
     </g>
     <g id="text_10">
      <!-- 3.0 -->
      <g transform="translate(20.878125 111.526625) scale(0.1 -0.1)">
       <use xlink:href="#DejaVuSans-33"/>
       <use xlink:href="#DejaVuSans-2e" x="63.623047"/>
       <use xlink:href="#DejaVuSans-30" x="95.410156"/>
      </g>
     </g>
    </g>
    <g id="ytick_4">
     <g id="line2d_10">
      <g>
       <use xlink:href="#m9405cb058a" x="43.78125" y="84.807638" style="stroke: #000000; stroke-width: 0.8"/>
      </g>
     </g>
     <g id="text_11">
      <!-- 3.2 -->
      <g transform="translate(20.878125 88.606856) scale(0.1 -0.1)">
       <use xlink:href="#DejaVuSans-33"/>
       <use xlink:href="#DejaVuSans-2e" x="63.623047"/>
       <use xlink:href="#DejaVuSans-32" x="95.410156"/>
      </g>
     </g>
    </g>
    <g id="ytick_5">
     <g id="line2d_11">
      <g>
       <use xlink:href="#m9405cb058a" x="43.78125" y="61.887869" style="stroke: #000000; stroke-width: 0.8"/>
      </g>
     </g>
     <g id="text_12">
      <!-- 3.4 -->
      <g transform="translate(20.878125 65.687088) scale(0.1 -0.1)">
       <use xlink:href="#DejaVuSans-33"/>
       <use xlink:href="#DejaVuSans-2e" x="63.623047"/>
       <use xlink:href="#DejaVuSans-34" x="95.410156"/>
      </g>
     </g>
    </g>
    <g id="ytick_6">
     <g id="line2d_12">
      <g>
       <use xlink:href="#m9405cb058a" x="43.78125" y="38.968101" style="stroke: #000000; stroke-width: 0.8"/>
      </g>
     </g>
     <g id="text_13">
      <!-- 3.6 -->
      <g transform="translate(20.878125 42.767319) scale(0.1 -0.1)">
       <use xlink:href="#DejaVuSans-33"/>
       <use xlink:href="#DejaVuSans-2e" x="63.623047"/>
       <use xlink:href="#DejaVuSans-36" x="95.410156"/>
      </g>
     </g>
    </g>
    <g id="ytick_7">
     <g id="line2d_13">
      <g>
       <use xlink:href="#m9405cb058a" x="43.78125" y="16.048332" style="stroke: #000000; stroke-width: 0.8"/>
      </g>
     </g>
     <g id="text_14">
      <!-- 3.8 -->
      <g transform="translate(20.878125 19.847551) scale(0.1 -0.1)">
       <use xlink:href="#DejaVuSans-33"/>
       <use xlink:href="#DejaVuSans-2e" x="63.623047"/>
       <use xlink:href="#DejaVuSans-38" x="95.410156"/>
      </g>
     </g>
    </g>
    <g id="text_15">
     <!-- loss -->
     <g transform="translate(14.798438 100.017813) rotate(-90) scale(0.1 -0.1)">
      <defs>
       <path id="DejaVuSans-6c" d="M 603 4863 
L 1178 4863 
L 1178 0 
L 603 0 
L 603 4863 
z
" transform="scale(0.015625)"/>
       <path id="DejaVuSans-6f" d="M 1959 3097 
Q 1497 3097 1228 2736 
Q 959 2375 959 1747 
Q 959 1119 1226 758 
Q 1494 397 1959 397 
Q 2419 397 2687 759 
Q 2956 1122 2956 1747 
Q 2956 2369 2687 2733 
Q 2419 3097 1959 3097 
z
M 1959 3584 
Q 2709 3584 3137 3096 
Q 3566 2609 3566 1747 
Q 3566 888 3137 398 
Q 2709 -91 1959 -91 
Q 1206 -91 779 398 
Q 353 888 353 1747 
Q 353 2609 779 3096 
Q 1206 3584 1959 3584 
z
" transform="scale(0.015625)"/>
      </defs>
      <use xlink:href="#DejaVuSans-6c"/>
      <use xlink:href="#DejaVuSans-6f" x="27.783203"/>
      <use xlink:href="#DejaVuSans-73" x="88.964844"/>
      <use xlink:href="#DejaVuSans-73" x="141.064453"/>
     </g>
    </g>
   </g>
   <g id="line2d_14">
    <path d="M 56.463068 14.76 
L 56.971357 25.30263 
L 57.479647 32.632353 
L 57.987936 37.771277 
L 59.004515 52.186297 
L 60.529383 69.37515 
L 61.037672 71.558436 
L 62.054251 80.64475 
L 62.56254 84.733534 
L 63.070829 84.936294 
L 63.579118 91.739212 
L 64.087408 96.135784 
L 64.595697 95.966138 
L 65.103986 97.977047 
L 65.612276 101.303396 
L 66.120565 102.87668 
L 66.628854 103.138867 
L 67.137144 108.501234 
L 67.645433 108.567737 
L 68.662012 113.401796 
L 69.170301 112.489198 
L 69.67859 115.543005 
L 70.186879 116.205958 
L 70.695169 116.217707 
L 71.203458 119.754276 
L 71.711747 120.51141 
L 72.220037 119.618811 
L 72.728326 122.831554 
L 73.236615 123.609562 
L 73.744905 122.700324 
L 74.253194 126.186729 
L 74.761483 126.87643 
L 75.269772 129.474444 
L 75.778062 128.635644 
L 76.286351 127.199628 
L 76.79464 130.472617 
L 77.811219 132.682323 
L 78.319508 133.017024 
L 78.827798 130.871853 
L 79.336087 134.070552 
L 79.844376 133.641835 
L 80.352666 133.840579 
L 80.860955 136.48709 
L 81.369244 135.319245 
L 81.877533 135.637989 
L 82.385823 137.607831 
L 82.894112 136.229111 
L 83.402401 141.599975 
L 83.910691 139.453111 
L 84.41898 138.733108 
L 84.927269 140.091145 
L 85.435559 134.503641 
L 85.943848 139.071661 
L 86.452137 141.303991 
L 86.960427 141.085438 
L 87.468716 143.779764 
L 87.977005 141.267024 
L 88.485294 143.747742 
L 88.993584 141.622271 
L 89.501873 144.172689 
L 90.010162 144.766734 
L 90.518452 141.811178 
L 91.026741 143.346375 
L 91.53503 148.08445 
L 92.04332 144.846024 
L 93.059898 144.546706 
L 93.568188 148.096718 
L 94.076477 146.398215 
L 94.584766 141.83331 
L 95.093055 144.416542 
L 95.601345 147.876389 
L 96.109634 146.454308 
L 96.617923 147.207398 
L 97.126213 146.006165 
L 97.634502 146.085209 
L 98.142791 146.433324 
L 98.651081 145.374906 
L 99.15937 150.958694 
L 99.667659 145.580644 
L 100.175948 147.192097 
L 100.684238 145.507201 
L 101.192527 146.053378 
L 101.700816 147.629285 
L 102.209106 149.964975 
L 102.717395 147.47923 
L 103.225684 150.195359 
L 103.733974 150.7873 
L 104.242263 150.18055 
L 104.750552 151.408395 
L 105.258842 151.849817 
L 105.767131 152.058671 
L 106.27542 151.244706 
L 106.783709 150.10279 
L 107.291999 149.574236 
L 107.800288 152.435584 
L 108.308577 148.541692 
L 108.816867 150.313692 
L 109.325156 150.942301 
L 109.833445 150.78577 
L 110.341735 149.063114 
L 110.850024 150.81465 
L 111.358313 149.40011 
L 111.866603 149.166038 
L 112.374892 155.773491 
L 112.883181 150.688639 
L 113.39147 151.258286 
L 113.89976 149.569837 
L 114.408049 152.827498 
L 114.916338 152.640585 
L 115.424628 150.5476 
L 115.932917 151.643177 
L 116.441206 149.62798 
L 116.949496 153.436353 
L 117.457785 154.083978 
L 117.966074 155.076276 
L 118.474363 153.858922 
L 119.490942 150.410004 
L 119.999231 154.682532 
L 120.507521 154.110508 
L 121.01581 153.913158 
L 121.524099 152.287305 
L 122.032389 155.555813 
L 122.540678 153.146898 
L 123.048967 154.620018 
L 123.557257 153.825343 
L 124.065546 158.414347 
L 124.573835 155.481988 
L 125.082124 154.377175 
L 125.590414 157.478251 
L 126.098703 152.575339 
L 126.606992 156.077946 
L 127.115282 154.982423 
L 127.623571 155.834147 
L 128.13186 155.731251 
L 128.64015 154.318733 
L 129.148439 157.111529 
L 129.656728 155.461004 
L 130.165018 154.360809 
L 130.673307 154.513925 
L 131.181596 151.604543 
L 131.689885 155.887973 
L 132.198175 154.93939 
L 132.706464 152.920805 
L 133.214753 154.287066 
L 133.723043 153.953021 
L 134.231332 154.595455 
L 134.739621 153.529277 
L 135.247911 158.385358 
L 135.7562 157.509126 
L 136.264489 156.057509 
L 136.772779 156.152318 
L 137.281068 155.17002 
L 137.789357 155.478846 
L 138.297646 157.160709 
L 138.805936 160.660611 
L 139.314225 156.302482 
L 139.822514 155.093599 
L 140.330804 156.496007 
L 140.839093 156.768768 
L 141.347382 158.836725 
L 141.855672 153.378511 
L 142.363961 155.039609 
L 142.87225 154.920292 
L 143.888829 157.111829 
L 144.397118 156.09199 
L 144.905407 157.759837 
L 145.413697 156.948277 
L 145.921986 160.000554 
L 146.430275 156.56986 
L 146.938565 161.408373 
L 147.446854 155.30543 
L 147.955143 159.080387 
L 148.463433 153.867693 
L 148.971722 158.444456 
L 149.480011 157.931039 
L 149.9883 157.824509 
L 150.49659 159.710799 
L 151.004879 156.357674 
L 151.513168 157.686257 
L 152.021458 157.179534 
L 152.529747 157.894946 
L 153.038036 157.21937 
L 153.546326 158.748228 
L 154.054615 154.919991 
L 154.562904 157.183086 
L 155.071194 155.16614 
L 155.579483 159.110797 
L 156.087772 158.959813 
L 156.596061 159.638012 
L 157.104351 157.766394 
L 157.61264 159.360744 
L 158.120929 159.722985 
L 158.629219 157.703306 
L 159.137508 159.595526 
L 159.645797 155.467835 
L 160.154087 159.483066 
L 160.662376 157.035818 
L 161.170665 159.225361 
L 161.678954 159.908505 
L 162.187244 159.701592 
L 162.695533 157.639099 
L 163.203822 160.775284 
L 163.712112 157.92552 
L 164.220401 159.664378 
L 165.23698 155.954066 
L 165.745269 161.753648 
L 166.761848 156.513467 
L 167.270137 159.024048 
L 167.778426 163.108133 
L 168.795005 158.829622 
L 169.303294 157.339999 
L 169.811583 158.718829 
L 170.319873 158.122434 
L 170.828162 159.427793 
L 171.336451 156.261116 
L 171.844741 159.181754 
L 172.35303 158.913638 
L 172.861319 160.197495 
L 173.369609 156.682265 
L 173.877898 156.918277 
L 174.386187 158.609484 
L 174.894476 162.732066 
L 175.402766 156.755325 
L 175.911055 161.182198 
L 176.419344 160.687005 
L 176.927634 159.448886 
L 177.435923 159.972248 
L 177.944212 159.680963 
L 178.452502 158.388063 
L 178.960791 158.560331 
L 179.46908 162.495399 
L 179.97737 161.851735 
L 180.485659 159.471208 
L 180.993948 162.184004 
L 181.502237 159.335607 
L 182.010527 158.413691 
L 182.518816 160.635611 
L 183.027105 160.674464 
L 183.535395 155.569556 
L 184.043684 156.276826 
L 184.551973 161.399521 
L 185.060263 160.473616 
L 185.568552 158.559266 
L 186.076841 161.037088 
L 186.58513 160.547851 
L 187.09342 161.027334 
L 187.601709 160.248533 
L 188.109998 158.614348 
L 188.618288 162.379715 
L 189.126577 161.37963 
L 189.634866 159.459296 
L 190.143156 161.693702 
L 190.651445 161.179984 
L 191.668024 160.971732 
L 192.176313 161.022989 
L 192.684602 158.821398 
L 193.192891 160.145746 
L 193.701181 158.265658 
L 194.20947 159.169158 
L 194.717759 163.666823 
L 195.226049 159.063092 
L 195.734338 161.32687 
L 196.242627 161.028836 
L 196.750917 162.275343 
L 197.259206 159.217765 
L 198.275785 160.563316 
L 199.292363 158.721015 
L 199.800652 160.822688 
L 200.308942 159.95356 
L 200.817231 163.04846 
L 201.83381 158.976835 
L 202.342099 160.97829 
L 202.850388 160.431375 
L 203.358678 160.282167 
L 203.866967 160.413261 
L 204.375256 159.805499 
L 204.883546 162.516082 
L 205.391835 161.119492 
L 205.900124 162.602913 
L 206.408413 163.022258 
L 206.916703 159.042983 
L 207.424992 162.168567 
L 207.933281 162.307912 
L 208.441571 163.230647 
L 208.94986 162.315562 
L 209.458149 160.972962 
L 209.966439 155.882863 
L 210.474728 159.90815 
L 210.983017 159.970582 
L 211.491306 163.089854 
L 211.999596 160.520365 
L 213.016174 161.07288 
L 213.524464 159.600007 
L 214.032753 160.289326 
L 214.541042 159.421017 
L 215.049332 159.334705 
L 215.557621 163.249281 
L 216.5742 160.777087 
L 217.082489 161.897118 
L 217.590778 160.573097 
L 218.099067 160.02744 
L 218.607357 160.56889 
L 219.115646 159.816647 
L 219.623935 162.819389 
L 220.132225 157.060463 
L 220.640514 159.692767 
L 221.148803 160.189599 
L 221.657093 162.347174 
L 222.165382 160.163478 
L 222.673671 159.245661 
L 223.181961 162.188649 
L 223.69025 162.713897 
L 224.198539 160.617032 
L 224.706828 160.666212 
L 225.215118 163.088433 
L 225.723407 158.573637 
L 226.739986 161.791079 
L 227.248275 160.036948 
L 227.756564 156.872839 
L 228.264854 161.706298 
L 228.773143 161.370641 
L 229.281432 161.991353 
L 229.789721 164.557127 
L 230.298011 162.505071 
L 230.8063 163.632807 
L 231.314589 160.083396 
L 231.822879 159.713067 
L 232.331168 160.070637 
L 232.839457 162.213786 
L 233.347747 158.653911 
L 233.856036 160.023533 
L 234.364325 164.243055 
L 234.872615 162.090643 
L 235.380904 160.454627 
L 235.889193 160.401293 
L 236.397482 159.58569 
L 236.905772 162.25548 
L 237.414061 162.631465 
L 237.92235 160.46725 
L 238.43064 160.831623 
L 238.938929 163.314008 
L 239.447218 162.434333 
L 239.955508 163.791004 
L 240.463797 165.96 
L 240.972086 161.99843 
L 241.480376 163.444008 
L 241.988665 160.136019 
L 242.496954 163.121466 
L 243.005243 159.928341 
L 243.513533 162.688432 
L 244.021822 160.907115 
L 244.530111 161.129192 
L 245.038401 161.910561 
L 245.54669 162.96887 
L 246.054979 162.153184 
L 246.563269 164.319694 
L 247.579847 157.277813 
L 248.088137 159.088748 
L 248.596426 163.667807 
L 249.104715 161.302007 
L 249.613004 160.274763 
L 250.121294 158.446997 
L 250.629583 161.521434 
L 251.137872 159.678914 
L 251.646162 161.079246 
L 252.154451 159.417028 
L 252.66274 159.007573 
L 253.17103 161.776489 
L 253.679319 161.533018 
L 254.187608 162.613705 
L 254.695897 161.987419 
L 255.204187 163.252122 
L 255.712476 159.291727 
L 256.220765 165.426583 
L 256.729055 162.294797 
L 257.237344 160.234298 
L 257.745633 164.072016 
L 258.253923 160.622496 
L 259.270501 163.288926 
L 260.28708 163.114198 
L 260.795369 160.77206 
L 261.303658 160.944027 
L 261.811948 159.793177 
L 262.320237 162.566956 
L 262.828526 162.465808 
L 263.336816 163.272095 
L 263.845105 159.63375 
L 264.353394 162.124059 
L 264.861684 156.741801 
L 265.369973 163.450128 
L 265.878262 163.950677 
L 266.386552 160.588726 
L 266.894841 162.705181 
L 267.40313 161.500095 
L 267.911419 161.719194 
L 268.419709 160.176429 
L 268.927998 161.626926 
L 269.436287 162.560235 
L 269.944577 159.663531 
L 270.452866 162.143266 
L 270.961155 161.962391 
L 271.469445 161.660205 
L 271.977734 162.058075 
L 272.486023 160.968536 
L 272.994312 160.386266 
L 273.502602 163.385866 
L 274.010891 164.749149 
L 274.51918 161.248291 
L 275.02747 162.840454 
L 275.535759 161.94567 
L 276.044048 162.268485 
L 276.552338 160.763699 
L 277.060627 161.683757 
L 277.568916 164.347672 
L 278.077206 161.968812 
L 279.093784 162.287283 
L 279.602073 161.923511 
L 280.110363 163.271494 
L 280.618652 163.35797 
L 281.126941 162.396191 
L 281.635231 160.594108 
L 282.14352 162.264633 
L 282.651809 160.544272 
L 283.160099 163.144335 
L 283.668388 160.583125 
L 284.176677 163.119144 
L 284.684967 161.052306 
L 285.193256 162.376136 
L 285.701545 163.097422 
L 286.209834 159.439378 
L 286.718124 162.574443 
L 287.226413 162.974963 
L 287.734702 160.007194 
L 288.751281 162.988624 
L 289.25957 164.589312 
L 289.76786 161.473264 
L 290.276149 162.253294 
L 290.784438 158.781124 
L 291.292728 162.299961 
L 291.801017 163.553681 
L 292.309306 164.091169 
L 292.817595 157.759727 
L 293.325885 161.381078 
L 293.834174 163.432423 
L 294.342463 163.028324 
L 294.850753 160.385911 
L 295.359042 162.343431 
L 295.867331 161.908949 
L 296.375621 163.564282 
L 296.88391 160.170008 
L 297.392199 159.752767 
L 297.900488 162.732285 
L 298.408778 160.220282 
L 298.917067 162.638514 
L 299.425356 163.05775 
L 299.933646 159.041562 
L 300.441935 165.209724 
L 300.950224 158.145029 
L 301.458514 159.68375 
L 301.966803 165.349779 
L 302.475092 161.656817 
L 302.983382 161.018126 
L 303.491671 161.39881 
L 303.99996 163.793927 
L 304.508249 159.621427 
L 305.016539 159.085005 
L 305.524828 162.349988 
L 306.033117 161.529685 
L 306.541407 163.664009 
L 307.049696 162.321983 
L 307.557985 163.938819 
L 308.066275 161.772445 
L 308.574564 160.493917 
L 309.082853 160.007795 
L 309.591143 161.767227 
L 310.099432 161.861353 
L 310.099432 161.861353 
" clip-path="url(#p2139df9ab0)" style="fill: none; stroke: #1f77b4; stroke-width: 1.5; stroke-linecap: square"/>
   </g>
   <g id="patch_3">
    <path d="M 43.78125 173.52 
L 43.78125 7.2 
" style="fill: none; stroke: #000000; stroke-width: 0.8; stroke-linejoin: miter; stroke-linecap: square"/>
   </g>
   <g id="patch_4">
    <path d="M 322.78125 173.52 
L 322.78125 7.2 
" style="fill: none; stroke: #000000; stroke-width: 0.8; stroke-linejoin: miter; stroke-linecap: square"/>
   </g>
   <g id="patch_5">
    <path d="M 43.78125 173.52 
L 322.78125 173.52 
" style="fill: none; stroke: #000000; stroke-width: 0.8; stroke-linejoin: miter; stroke-linecap: square"/>
   </g>
   <g id="patch_6">
    <path d="M 43.78125 7.2 
L 322.78125 7.2 
" style="fill: none; stroke: #000000; stroke-width: 0.8; stroke-linejoin: miter; stroke-linecap: square"/>
   </g>
  </g>
 </g>
 <defs>
  <clipPath id="p2139df9ab0">
   <rect x="43.78125" y="7.2" width="279" height="166.32"/>
  </clipPath>
 </defs>
</svg>