<?xml version="1.0" encoding="UTF-8" standalone="no"?>
<!DOCTYPE svg PUBLIC "-//W3C//DTD SVG 1.1//EN"
 "http://www.w3.org/Graphics/SVG/1.1/DTD/svg11.dtd">
<!-- Generated by graphviz version 9.0.0 (20230911.1827)
 -->
<!-- Pages: 1 -->
<svg width="2077pt" height="361pt"
 viewBox="0.00 0.00 2076.50 360.50" xmlns="http://www.w3.org/2000/svg" xmlns:xlink="http://www.w3.org/1999/xlink">
<g id="graph0" class="graph" transform="scale(1 1) rotate(0) translate(4 356.5)">
<polygon fill="white" stroke="none" points="-4,4 -4,-356.5 2072.5,-356.5 2072.5,4 -4,4"/>
<!-- 5263124512 -->
<g id="node1" class="node">
<title>5263124512</title>
<polygon fill="none" stroke="black" points="1315.75,-147.5 1315.75,-221 1401.5,-221 1401.5,-147.5 1315.75,-147.5"/>
<text text-anchor="middle" x="1358.62" y="-203.7" font-family="Times,serif" font-size="14.00">data=&#45;4.000</text>
<polyline fill="none" stroke="black" points="1315.75,-196.5 1401.5,-196.5"/>
<text text-anchor="middle" x="1358.62" y="-179.2" font-family="Times,serif" font-size="14.00">grad=0.0000</text>
<polyline fill="none" stroke="black" points="1315.75,-172 1401.5,-172"/>
<text text-anchor="middle" x="1358.62" y="-154.7" font-family="Times,serif" font-size="14.00">deg=0</text>
</g>
<!-- 5263125568+ -->
<g id="node27" class="node">
<title>5263125568+</title>
<ellipse fill="none" stroke="black" cx="1480.38" cy="-242.25" rx="27" ry="18"/>
<text text-anchor="middle" x="1480.38" y="-237.2" font-family="Times,serif" font-size="14.00">+</text>
</g>
<!-- 5263124512&#45;&gt;5263125568+ -->
<g id="edge18" class="edge">
<title>5263124512&#45;&gt;5263125568+</title>
<path fill="none" stroke="black" d="M1401.84,-204.7C1416.98,-212.03 1433.76,-220.16 1447.83,-226.97"/>
<polygon fill="black" stroke="black" points="1446.1,-230.02 1456.63,-231.23 1449.15,-223.72 1446.1,-230.02"/>
</g>
<!-- 5263124512* -->
<g id="node2" class="node">
<title>5263124512*</title>
<ellipse fill="none" stroke="black" cx="1252.75" cy="-170.25" rx="27" ry="18"/>
<text text-anchor="middle" x="1252.75" y="-165.2" font-family="Times,serif" font-size="14.00">*</text>
</g>
<!-- 5263124512*&#45;&gt;5263124512 -->
<g id="edge1" class="edge">
<title>5263124512*&#45;&gt;5263124512</title>
<path fill="none" stroke="black" d="M1279.69,-173.75C1287.21,-174.76 1295.72,-175.91 1304.27,-177.06"/>
<polygon fill="black" stroke="black" points="1303.58,-180.5 1313.96,-178.37 1304.52,-173.56 1303.58,-180.5"/>
</g>
<!-- 4434548816 -->
<g id="node3" class="node">
<title>4434548816</title>
<polygon fill="none" stroke="black" points="459.75,-226.5 459.75,-300 545.5,-300 545.5,-226.5 459.75,-226.5"/>
<text text-anchor="middle" x="502.62" y="-282.7" font-family="Times,serif" font-size="14.00">data=&#45;0.999</text>
<polyline fill="none" stroke="black" points="459.75,-275.5 545.5,-275.5"/>
<text text-anchor="middle" x="502.62" y="-258.2" font-family="Times,serif" font-size="14.00">grad=0.0000</text>
<polyline fill="none" stroke="black" points="459.75,-251 545.5,-251"/>
<text text-anchor="middle" x="502.62" y="-233.7" font-family="Times,serif" font-size="14.00">deg=0</text>
</g>
<!-- 4434548720* -->
<g id="node35" class="node">
<title>4434548720*</title>
<ellipse fill="none" stroke="black" cx="820.25" cy="-263.25" rx="27" ry="18"/>
<text text-anchor="middle" x="820.25" y="-258.2" font-family="Times,serif" font-size="14.00">*</text>
</g>
<!-- 4434548816&#45;&gt;4434548720* -->
<g id="edge27" class="edge">
<title>4434548816&#45;&gt;4434548720*</title>
<path fill="none" stroke="black" d="M545.86,-263.25C607.78,-263.25 722.24,-263.25 781.5,-263.25"/>
<polygon fill="black" stroke="black" points="781.41,-266.75 791.41,-263.25 781.41,-259.75 781.41,-266.75"/>
</g>
<!-- 4434548816tanh -->
<g id="node4" class="node">
<title>4434548816tanh</title>
<ellipse fill="none" stroke="black" cx="153.25" cy="-277.25" rx="27" ry="18"/>
<text text-anchor="middle" x="153.25" y="-272.2" font-family="Times,serif" font-size="14.00">tanh</text>
</g>
<!-- 4434548816tanh&#45;&gt;4434548816 -->
<g id="edge2" class="edge">
<title>4434548816tanh&#45;&gt;4434548816</title>
<path fill="none" stroke="black" d="M180.64,-276.19C237.57,-273.89 372.83,-268.44 448.34,-265.4"/>
<polygon fill="black" stroke="black" points="448.11,-268.91 457.96,-265.01 447.83,-261.92 448.11,-268.91"/>
</g>
<!-- 5263124848 -->
<g id="node5" class="node">
<title>5263124848</title>
<polygon fill="none" stroke="black" points="216.25,-0.5 216.25,-74 302,-74 302,-0.5 216.25,-0.5"/>
<text text-anchor="middle" x="259.12" y="-56.7" font-family="Times,serif" font-size="14.00">data=2.000</text>
<polyline fill="none" stroke="black" points="216.25,-49.5 302,-49.5"/>
<text text-anchor="middle" x="259.12" y="-32.2" font-family="Times,serif" font-size="14.00">grad=0.0000</text>
<polyline fill="none" stroke="black" points="216.25,-25 302,-25"/>
<text text-anchor="middle" x="259.12" y="-7.7" font-family="Times,serif" font-size="14.00">deg=0</text>
</g>
<!-- 5263124080+ -->
<g id="node33" class="node">
<title>5263124080+</title>
<ellipse fill="none" stroke="black" cx="380.88" cy="-126.25" rx="27" ry="18"/>
<text text-anchor="middle" x="380.88" y="-121.2" font-family="Times,serif" font-size="14.00">+</text>
</g>
<!-- 5263124848&#45;&gt;5263124080+ -->
<g id="edge19" class="edge">
<title>5263124848&#45;&gt;5263124080+</title>
<path fill="none" stroke="black" d="M302.34,-68.63C319.14,-81.11 337.96,-95.1 352.86,-106.17"/>
<polygon fill="black" stroke="black" points="350.69,-108.92 360.81,-112.08 354.87,-103.3 350.69,-108.92"/>
</g>
<!-- 5263124896 -->
<g id="node6" class="node">
<title>5263124896</title>
<polygon fill="none" stroke="black" points="1771,-241.5 1771,-315 1856.75,-315 1856.75,-241.5 1771,-241.5"/>
<text text-anchor="middle" x="1813.88" y="-297.7" font-family="Times,serif" font-size="14.00">data=&#45;9.996</text>
<polyline fill="none" stroke="black" points="1771,-290.5 1856.75,-290.5"/>
<text text-anchor="middle" x="1813.88" y="-273.2" font-family="Times,serif" font-size="14.00">grad=0.0000</text>
<polyline fill="none" stroke="black" points="1771,-266 1856.75,-266"/>
<text text-anchor="middle" x="1813.88" y="-248.7" font-family="Times,serif" font-size="14.00">deg=0</text>
</g>
<!-- 5263123072tanh -->
<g id="node11" class="node">
<title>5263123072tanh</title>
<ellipse fill="none" stroke="black" cx="1919.75" cy="-278.25" rx="27" ry="18"/>
<text text-anchor="middle" x="1919.75" y="-273.2" font-family="Times,serif" font-size="14.00">tanh</text>
</g>
<!-- 5263124896&#45;&gt;5263123072tanh -->
<g id="edge20" class="edge">
<title>5263124896&#45;&gt;5263123072tanh</title>
<path fill="none" stroke="black" d="M1857.12,-278.25C1865.03,-278.25 1873.25,-278.25 1881.01,-278.25"/>
<polygon fill="black" stroke="black" points="1880.82,-281.75 1890.82,-278.25 1880.82,-274.75 1880.82,-281.75"/>
</g>
<!-- 5263124896+ -->
<g id="node7" class="node">
<title>5263124896+</title>
<ellipse fill="none" stroke="black" cx="1708" cy="-278.25" rx="27" ry="18"/>
<text text-anchor="middle" x="1708" y="-273.2" font-family="Times,serif" font-size="14.00">+</text>
</g>
<!-- 5263124896+&#45;&gt;5263124896 -->
<g id="edge3" class="edge">
<title>5263124896+&#45;&gt;5263124896</title>
<path fill="none" stroke="black" d="M1735.48,-278.25C1742.84,-278.25 1751.1,-278.25 1759.41,-278.25"/>
<polygon fill="black" stroke="black" points="1759.19,-281.75 1769.19,-278.25 1759.19,-274.75 1759.19,-281.75"/>
</g>
<!-- 4434549344 -->
<g id="node8" class="node">
<title>4434549344</title>
<polygon fill="none" stroke="black" points="883.25,-133.5 883.25,-207 973.5,-207 973.5,-133.5 883.25,-133.5"/>
<text text-anchor="middle" x="928.38" y="-189.7" font-family="Times,serif" font-size="14.00">data=&#45;0.000</text>
<polyline fill="none" stroke="black" points="883.25,-182.5 973.5,-182.5"/>
<text text-anchor="middle" x="928.38" y="-165.2" font-family="Times,serif" font-size="14.00">grad=&#45;0.0000</text>
<polyline fill="none" stroke="black" points="883.25,-158 973.5,-158"/>
<text text-anchor="middle" x="928.38" y="-140.7" font-family="Times,serif" font-size="14.00">deg=0</text>
</g>
<!-- 4434549536+ -->
<g id="node15" class="node">
<title>4434549536+</title>
<ellipse fill="none" stroke="black" cx="1036.5" cy="-263.25" rx="27" ry="18"/>
<text text-anchor="middle" x="1036.5" y="-258.2" font-family="Times,serif" font-size="14.00">+</text>
</g>
<!-- 4434549344&#45;&gt;4434549536+ -->
<g id="edge37" class="edge">
<title>4434549344&#45;&gt;4434549536+</title>
<path fill="none" stroke="black" d="M971.62,-207.27C984.98,-218.98 999.29,-231.52 1010.98,-241.76"/>
<polygon fill="black" stroke="black" points="1008.38,-244.13 1018.2,-248.09 1012.99,-238.87 1008.38,-244.13"/>
</g>
<!-- 4434549344relu -->
<g id="node9" class="node">
<title>4434549344relu</title>
<ellipse fill="none" stroke="black" cx="820.25" cy="-170.25" rx="27" ry="18"/>
<text text-anchor="middle" x="820.25" y="-165.2" font-family="Times,serif" font-size="14.00">relu</text>
</g>
<!-- 4434549344relu&#45;&gt;4434549344 -->
<g id="edge4" class="edge">
<title>4434549344relu&#45;&gt;4434549344</title>
<path fill="none" stroke="black" d="M847.48,-170.25C854.83,-170.25 863.1,-170.25 871.47,-170.25"/>
<polygon fill="black" stroke="black" points="871.34,-173.75 881.34,-170.25 871.34,-166.75 871.34,-173.75"/>
</g>
<!-- 5263123072 -->
<g id="node10" class="node">
<title>5263123072</title>
<polygon fill="none" stroke="black" points="1982.75,-241.5 1982.75,-315 2068.5,-315 2068.5,-241.5 1982.75,-241.5"/>
<text text-anchor="middle" x="2025.62" y="-297.7" font-family="Times,serif" font-size="14.00">data=&#45;1.000</text>
<polyline fill="none" stroke="black" points="1982.75,-290.5 2068.5,-290.5"/>
<text text-anchor="middle" x="2025.62" y="-273.2" font-family="Times,serif" font-size="14.00">grad=1.0000</text>
<polyline fill="none" stroke="black" points="1982.75,-266 2068.5,-266"/>
<text text-anchor="middle" x="2025.62" y="-248.7" font-family="Times,serif" font-size="14.00">deg=0</text>
</g>
<!-- 5263123072tanh&#45;&gt;5263123072 -->
<g id="edge5" class="edge">
<title>5263123072tanh&#45;&gt;5263123072</title>
<path fill="none" stroke="black" d="M1947.23,-278.25C1954.59,-278.25 1962.85,-278.25 1971.16,-278.25"/>
<polygon fill="black" stroke="black" points="1970.94,-281.75 1980.94,-278.25 1970.94,-274.75 1970.94,-281.75"/>
</g>
<!-- 4434549392 -->
<g id="node12" class="node">
<title>4434549392</title>
<polygon fill="none" stroke="black" points="1099.5,-40.5 1099.5,-114 1189.75,-114 1189.75,-40.5 1099.5,-40.5"/>
<text text-anchor="middle" x="1144.62" y="-96.7" font-family="Times,serif" font-size="14.00">data=4.000</text>
<polyline fill="none" stroke="black" points="1099.5,-89.5 1189.75,-89.5"/>
<text text-anchor="middle" x="1144.62" y="-72.2" font-family="Times,serif" font-size="14.00">grad=&#45;0.0000</text>
<polyline fill="none" stroke="black" points="1099.5,-65 1189.75,-65"/>
<text text-anchor="middle" x="1144.62" y="-47.7" font-family="Times,serif" font-size="14.00">deg=0</text>
</g>
<!-- 4434549392&#45;&gt;5263124512* -->
<g id="edge16" class="edge">
<title>4434549392&#45;&gt;5263124512*</title>
<path fill="none" stroke="black" d="M1187.87,-114.27C1201.23,-125.98 1215.54,-138.52 1227.23,-148.76"/>
<polygon fill="black" stroke="black" points="1224.63,-151.13 1234.45,-155.09 1229.24,-145.87 1224.63,-151.13"/>
</g>
<!-- 4434549392relu -->
<g id="node13" class="node">
<title>4434549392relu</title>
<ellipse fill="none" stroke="black" cx="1036.5" cy="-77.25" rx="27" ry="18"/>
<text text-anchor="middle" x="1036.5" y="-72.2" font-family="Times,serif" font-size="14.00">relu</text>
</g>
<!-- 4434549392relu&#45;&gt;4434549392 -->
<g id="edge6" class="edge">
<title>4434549392relu&#45;&gt;4434549392</title>
<path fill="none" stroke="black" d="M1063.73,-77.25C1071.08,-77.25 1079.35,-77.25 1087.72,-77.25"/>
<polygon fill="black" stroke="black" points="1087.59,-80.75 1097.59,-77.25 1087.59,-73.75 1087.59,-80.75"/>
</g>
<!-- 4434549536 -->
<g id="node14" class="node">
<title>4434549536</title>
<polygon fill="none" stroke="black" points="1099.5,-226.5 1099.5,-300 1189.75,-300 1189.75,-226.5 1099.5,-226.5"/>
<text text-anchor="middle" x="1144.62" y="-282.7" font-family="Times,serif" font-size="14.00">data=1.999</text>
<polyline fill="none" stroke="black" points="1099.5,-275.5 1189.75,-275.5"/>
<text text-anchor="middle" x="1144.62" y="-258.2" font-family="Times,serif" font-size="14.00">grad=&#45;0.0000</text>
<polyline fill="none" stroke="black" points="1099.5,-251 1189.75,-251"/>
<text text-anchor="middle" x="1144.62" y="-233.7" font-family="Times,serif" font-size="14.00">deg=0</text>
</g>
<!-- 5263125472* -->
<g id="node24" class="node">
<title>5263125472*</title>
<ellipse fill="none" stroke="black" cx="1252.75" cy="-315.25" rx="27" ry="18"/>
<text text-anchor="middle" x="1252.75" y="-310.2" font-family="Times,serif" font-size="14.00">*</text>
</g>
<!-- 4434549536&#45;&gt;5263125472* -->
<g id="edge24" class="edge">
<title>4434549536&#45;&gt;5263125472*</title>
<path fill="none" stroke="black" d="M1190.02,-285C1200.17,-289.98 1210.76,-295.16 1220.24,-299.81"/>
<polygon fill="black" stroke="black" points="1218.51,-302.86 1229.03,-304.12 1221.59,-296.57 1218.51,-302.86"/>
</g>
<!-- 4434549536&#45;&gt;5263125568+ -->
<g id="edge25" class="edge">
<title>4434549536&#45;&gt;5263125568+</title>
<path fill="none" stroke="black" d="M1189.94,-260.46C1256.24,-256.29 1380.06,-248.5 1442.04,-244.6"/>
<polygon fill="black" stroke="black" points="1441.94,-248.11 1451.7,-243.99 1441.5,-241.13 1441.94,-248.11"/>
</g>
<!-- 4434549536+&#45;&gt;4434549536 -->
<g id="edge7" class="edge">
<title>4434549536+&#45;&gt;4434549536</title>
<path fill="none" stroke="black" d="M1063.73,-263.25C1071.08,-263.25 1079.35,-263.25 1087.72,-263.25"/>
<polygon fill="black" stroke="black" points="1087.59,-266.75 1097.59,-263.25 1087.59,-259.75 1087.59,-266.75"/>
</g>
<!-- 5263123264 -->
<g id="node16" class="node">
<title>5263123264</title>
<polygon fill="none" stroke="black" points="216.25,-93.5 216.25,-167 302,-167 302,-93.5 216.25,-93.5"/>
<text text-anchor="middle" x="259.12" y="-149.7" font-family="Times,serif" font-size="14.00">data=&#45;8.000</text>
<polyline fill="none" stroke="black" points="216.25,-142.5 302,-142.5"/>
<text text-anchor="middle" x="259.12" y="-125.2" font-family="Times,serif" font-size="14.00">grad=0.0000</text>
<polyline fill="none" stroke="black" points="216.25,-118 302,-118"/>
<text text-anchor="middle" x="259.12" y="-100.7" font-family="Times,serif" font-size="14.00">deg=0</text>
</g>
<!-- 5263123264&#45;&gt;5263124080+ -->
<g id="edge17" class="edge">
<title>5263123264&#45;&gt;5263124080+</title>
<path fill="none" stroke="black" d="M302.34,-128.84C315.44,-128.4 329.77,-127.92 342.51,-127.5"/>
<polygon fill="black" stroke="black" points="342.29,-131.01 352.17,-127.18 342.06,-124.01 342.29,-131.01"/>
</g>
<!-- 5263123264* -->
<g id="node17" class="node">
<title>5263123264*</title>
<ellipse fill="none" stroke="black" cx="153.25" cy="-130.25" rx="27" ry="18"/>
<text text-anchor="middle" x="153.25" y="-125.2" font-family="Times,serif" font-size="14.00">*</text>
</g>
<!-- 5263123264*&#45;&gt;5263123264 -->
<g id="edge8" class="edge">
<title>5263123264*&#45;&gt;5263123264</title>
<path fill="none" stroke="black" d="M180.73,-130.25C188.09,-130.25 196.35,-130.25 204.66,-130.25"/>
<polygon fill="black" stroke="black" points="204.44,-133.75 214.44,-130.25 204.44,-126.75 204.44,-133.75"/>
</g>
<!-- 5263123312 -->
<g id="node18" class="node">
<title>5263123312</title>
<polygon fill="none" stroke="black" points="338,-162.5 338,-236 423.75,-236 423.75,-162.5 338,-162.5"/>
<text text-anchor="middle" x="380.88" y="-218.7" font-family="Times,serif" font-size="14.00">data=4.000</text>
<polyline fill="none" stroke="black" points="338,-211.5 423.75,-211.5"/>
<text text-anchor="middle" x="380.88" y="-194.2" font-family="Times,serif" font-size="14.00">grad=0.0000</text>
<polyline fill="none" stroke="black" points="338,-187 423.75,-187"/>
<text text-anchor="middle" x="380.88" y="-169.7" font-family="Times,serif" font-size="14.00">deg=0</text>
</g>
<!-- 5263123936+ -->
<g id="node30" class="node">
<title>5263123936+</title>
<ellipse fill="none" stroke="black" cx="608.5" cy="-170.25" rx="27" ry="18"/>
<text text-anchor="middle" x="608.5" y="-165.2" font-family="Times,serif" font-size="14.00">+</text>
</g>
<!-- 5263123312&#45;&gt;5263123936+ -->
<g id="edge28" class="edge">
<title>5263123312&#45;&gt;5263123936+</title>
<path fill="none" stroke="black" d="M424.05,-193.83C466.19,-188.41 530.33,-180.17 570.53,-175"/>
<polygon fill="black" stroke="black" points="570.72,-178.51 580.2,-173.76 569.83,-171.56 570.72,-178.51"/>
</g>
<!-- 5263123312* -->
<g id="node19" class="node">
<title>5263123312*</title>
<ellipse fill="none" stroke="black" cx="153.25" cy="-199.25" rx="27" ry="18"/>
<text text-anchor="middle" x="153.25" y="-194.2" font-family="Times,serif" font-size="14.00">*</text>
</g>
<!-- 5263123312*&#45;&gt;5263123312 -->
<g id="edge9" class="edge">
<title>5263123312*&#45;&gt;5263123312</title>
<path fill="none" stroke="black" d="M180.57,-199.25C216.15,-199.25 280.41,-199.25 326.35,-199.25"/>
<polygon fill="black" stroke="black" points="326.09,-202.75 336.09,-199.25 326.09,-195.75 326.09,-202.75"/>
</g>
<!-- 4434547568 -->
<g id="node20" class="node">
<title>4434547568</title>
<polygon fill="none" stroke="black" points="883.25,-40.5 883.25,-114 973.5,-114 973.5,-40.5 883.25,-40.5"/>
<text text-anchor="middle" x="928.38" y="-96.7" font-family="Times,serif" font-size="14.00">data=4.000</text>
<polyline fill="none" stroke="black" points="883.25,-89.5 973.5,-89.5"/>
<text text-anchor="middle" x="928.38" y="-72.2" font-family="Times,serif" font-size="14.00">grad=&#45;0.0000</text>
<polyline fill="none" stroke="black" points="883.25,-65 973.5,-65"/>
<text text-anchor="middle" x="928.38" y="-47.7" font-family="Times,serif" font-size="14.00">deg=0</text>
</g>
<!-- 4434547568&#45;&gt;4434549392relu -->
<g id="edge22" class="edge">
<title>4434547568&#45;&gt;4434549392relu</title>
<path fill="none" stroke="black" d="M973.77,-77.25C981.76,-77.25 990.03,-77.25 997.81,-77.25"/>
<polygon fill="black" stroke="black" points="997.64,-80.75 1007.64,-77.25 997.64,-73.75 997.64,-80.75"/>
</g>
<!-- 4434547568* -->
<g id="node21" class="node">
<title>4434547568*</title>
<ellipse fill="none" stroke="black" cx="820.25" cy="-96.25" rx="27" ry="18"/>
<text text-anchor="middle" x="820.25" y="-91.2" font-family="Times,serif" font-size="14.00">*</text>
</g>
<!-- 4434547568*&#45;&gt;4434547568 -->
<g id="edge10" class="edge">
<title>4434547568*&#45;&gt;4434547568</title>
<path fill="none" stroke="black" d="M846.67,-91.7C854.34,-90.33 863.09,-88.76 871.92,-87.18"/>
<polygon fill="black" stroke="black" points="872.37,-90.65 881.6,-85.45 871.14,-83.76 872.37,-90.65"/>
</g>
<!-- 4827093984 -->
<g id="node22" class="node">
<title>4827093984</title>
<polygon fill="none" stroke="black" points="2.25,-248.5 2.25,-322 88,-322 88,-248.5 2.25,-248.5"/>
<text text-anchor="middle" x="45.12" y="-304.7" font-family="Times,serif" font-size="14.00">data=&#45;4.000</text>
<polyline fill="none" stroke="black" points="2.25,-297.5 88,-297.5"/>
<text text-anchor="middle" x="45.12" y="-280.2" font-family="Times,serif" font-size="14.00">grad=0.0000</text>
<polyline fill="none" stroke="black" points="2.25,-273 88,-273"/>
<text text-anchor="middle" x="45.12" y="-255.7" font-family="Times,serif" font-size="14.00">deg=0</text>
</g>
<!-- 4827093984&#45;&gt;4434548816tanh -->
<g id="edge33" class="edge">
<title>4827093984&#45;&gt;4434548816tanh</title>
<path fill="none" stroke="black" d="M88.37,-282.07C97.12,-281.41 106.27,-280.72 114.82,-280.07"/>
<polygon fill="black" stroke="black" points="114.81,-283.58 124.52,-279.34 114.28,-276.6 114.81,-283.58"/>
</g>
<!-- 4827093984&#45;&gt;5263123264* -->
<g id="edge39" class="edge">
<title>4827093984&#45;&gt;5263123264*</title>
<path fill="none" stroke="black" d="M82.64,-248.01C85.32,-244.79 87.89,-241.51 90.25,-238.25 109.84,-211.18 109.45,-201.13 126.25,-172.25 129.25,-167.1 132.53,-161.65 135.73,-156.45"/>
<polygon fill="black" stroke="black" points="138.57,-158.51 140.86,-148.17 132.62,-154.82 138.57,-158.51"/>
</g>
<!-- 4827093984&#45;&gt;5263123312* -->
<g id="edge38" class="edge">
<title>4827093984&#45;&gt;5263123312*</title>
<path fill="none" stroke="black" d="M88.37,-251.01C101.33,-240.52 115.18,-229.29 126.66,-219.99"/>
<polygon fill="black" stroke="black" points="128.56,-222.96 134.12,-213.94 124.15,-217.52 128.56,-222.96"/>
</g>
<!-- 4827093984&#45;&gt;5263125472* -->
<g id="edge34" class="edge">
<title>4827093984&#45;&gt;5263125472*</title>
<path fill="none" stroke="black" d="M88.25,-298.97C130.67,-311.56 198.22,-328.25 258.12,-328.25 258.12,-328.25 258.12,-328.25 1037.5,-328.25 1099.66,-328.25 1171.79,-322.73 1214.49,-318.88"/>
<polygon fill="black" stroke="black" points="1214.58,-322.39 1224.22,-317.99 1213.94,-315.42 1214.58,-322.39"/>
</g>
<!-- 5263125472 -->
<g id="node23" class="node">
<title>5263125472</title>
<polygon fill="none" stroke="black" points="1437.5,-278.5 1437.5,-352 1523.25,-352 1523.25,-278.5 1437.5,-278.5"/>
<text text-anchor="middle" x="1480.38" y="-334.7" font-family="Times,serif" font-size="14.00">data=&#45;7.995</text>
<polyline fill="none" stroke="black" points="1437.5,-327.5 1523.25,-327.5"/>
<text text-anchor="middle" x="1480.38" y="-310.2" font-family="Times,serif" font-size="14.00">grad=0.0000</text>
<polyline fill="none" stroke="black" points="1437.5,-303 1523.25,-303"/>
<text text-anchor="middle" x="1480.38" y="-285.7" font-family="Times,serif" font-size="14.00">deg=0</text>
</g>
<!-- 5263125472&#45;&gt;5263124896+ -->
<g id="edge32" class="edge">
<title>5263125472&#45;&gt;5263124896+</title>
<path fill="none" stroke="black" d="M1523.57,-310.29C1556.7,-306.16 1603.94,-299.76 1645,-292.25 1653.43,-290.71 1662.46,-288.81 1670.94,-286.92"/>
<polygon fill="black" stroke="black" points="1671.62,-290.36 1680.58,-284.71 1670.05,-283.53 1671.62,-290.36"/>
</g>
<!-- 5263125472*&#45;&gt;5263125472 -->
<g id="edge11" class="edge">
<title>5263125472*&#45;&gt;5263125472</title>
<path fill="none" stroke="black" d="M1280.07,-315.25C1315.65,-315.25 1379.91,-315.25 1425.85,-315.25"/>
<polygon fill="black" stroke="black" points="1425.59,-318.75 1435.59,-315.25 1425.59,-311.75 1425.59,-318.75"/>
</g>
<!-- 4434547760 -->
<g id="node25" class="node">
<title>4434547760</title>
<polygon fill="none" stroke="black" points="1101.75,-133.5 1101.75,-207 1187.5,-207 1187.5,-133.5 1101.75,-133.5"/>
<text text-anchor="middle" x="1144.62" y="-189.7" font-family="Times,serif" font-size="14.00">data=&#45;1.000</text>
<polyline fill="none" stroke="black" points="1101.75,-182.5 1187.5,-182.5"/>
<text text-anchor="middle" x="1144.62" y="-165.2" font-family="Times,serif" font-size="14.00">grad=0.0000</text>
<polyline fill="none" stroke="black" points="1101.75,-158 1187.5,-158"/>
<text text-anchor="middle" x="1144.62" y="-140.7" font-family="Times,serif" font-size="14.00">deg=0</text>
</g>
<!-- 4434547760&#45;&gt;5263124512* -->
<g id="edge23" class="edge">
<title>4434547760&#45;&gt;5263124512*</title>
<path fill="none" stroke="black" d="M1187.87,-170.25C1196.52,-170.25 1205.56,-170.25 1214.03,-170.25"/>
<polygon fill="black" stroke="black" points="1214.01,-173.75 1224.01,-170.25 1214.01,-166.75 1214.01,-173.75"/>
</g>
<!-- 5263125568 -->
<g id="node26" class="node">
<title>5263125568</title>
<polygon fill="none" stroke="black" points="1559.25,-209.5 1559.25,-283 1645,-283 1645,-209.5 1559.25,-209.5"/>
<text text-anchor="middle" x="1602.12" y="-265.7" font-family="Times,serif" font-size="14.00">data=&#45;2.001</text>
<polyline fill="none" stroke="black" points="1559.25,-258.5 1645,-258.5"/>
<text text-anchor="middle" x="1602.12" y="-241.2" font-family="Times,serif" font-size="14.00">grad=0.0000</text>
<polyline fill="none" stroke="black" points="1559.25,-234 1645,-234"/>
<text text-anchor="middle" x="1602.12" y="-216.7" font-family="Times,serif" font-size="14.00">deg=0</text>
</g>
<!-- 5263125568&#45;&gt;5263124896+ -->
<g id="edge36" class="edge">
<title>5263125568&#45;&gt;5263124896+</title>
<path fill="none" stroke="black" d="M1645.37,-259.27C1654.28,-262.01 1663.58,-264.87 1672.17,-267.52"/>
<polygon fill="black" stroke="black" points="1670.94,-270.8 1681.53,-270.4 1673,-264.11 1670.94,-270.8"/>
</g>
<!-- 5263125568+&#45;&gt;5263125568 -->
<g id="edge12" class="edge">
<title>5263125568+&#45;&gt;5263125568</title>
<path fill="none" stroke="black" d="M1507.65,-243.13C1519.38,-243.52 1533.65,-244 1547.47,-244.46"/>
<polygon fill="black" stroke="black" points="1547.28,-247.95 1557.39,-244.79 1547.52,-240.96 1547.28,-247.95"/>
</g>
<!-- 5549780320 -->
<g id="node28" class="node">
<title>5549780320</title>
<polygon fill="none" stroke="black" points="0,-62.5 0,-136 90.25,-136 90.25,-62.5 0,-62.5"/>
<text text-anchor="middle" x="45.12" y="-118.7" font-family="Times,serif" font-size="14.00">data=2.000</text>
<polyline fill="none" stroke="black" points="0,-111.5 90.25,-111.5"/>
<text text-anchor="middle" x="45.12" y="-94.2" font-family="Times,serif" font-size="14.00">grad=&#45;0.0000</text>
<polyline fill="none" stroke="black" points="0,-87 90.25,-87"/>
<text text-anchor="middle" x="45.12" y="-69.7" font-family="Times,serif" font-size="14.00">deg=0</text>
</g>
<!-- 5549780320&#45;&gt;5263123264* -->
<g id="edge35" class="edge">
<title>5549780320&#45;&gt;5263123264*</title>
<path fill="none" stroke="black" d="M90.52,-112.22C99.34,-114.8 108.5,-117.47 116.97,-119.94"/>
<polygon fill="black" stroke="black" points="115.97,-123.3 126.55,-122.74 117.93,-116.58 115.97,-123.3"/>
</g>
<!-- 5263123936 -->
<g id="node29" class="node">
<title>5263123936</title>
<polygon fill="none" stroke="black" points="671.5,-133.5 671.5,-207 757.25,-207 757.25,-133.5 671.5,-133.5"/>
<text text-anchor="middle" x="714.38" y="-189.7" font-family="Times,serif" font-size="14.00">data=&#45;2.000</text>
<polyline fill="none" stroke="black" points="671.5,-182.5 757.25,-182.5"/>
<text text-anchor="middle" x="714.38" y="-165.2" font-family="Times,serif" font-size="14.00">grad=0.0000</text>
<polyline fill="none" stroke="black" points="671.5,-158 757.25,-158"/>
<text text-anchor="middle" x="714.38" y="-140.7" font-family="Times,serif" font-size="14.00">deg=0</text>
</g>
<!-- 5263123936&#45;&gt;4434549344relu -->
<g id="edge29" class="edge">
<title>5263123936&#45;&gt;4434549344relu</title>
<path fill="none" stroke="black" d="M757.62,-170.25C765.53,-170.25 773.75,-170.25 781.51,-170.25"/>
<polygon fill="black" stroke="black" points="781.32,-173.75 791.32,-170.25 781.32,-166.75 781.32,-173.75"/>
</g>
<!-- 5263123936&#45;&gt;4434547568* -->
<g id="edge40" class="edge">
<title>5263123936&#45;&gt;4434547568*</title>
<path fill="none" stroke="black" d="M757.62,-140.15C769.15,-131.94 781.33,-123.26 791.8,-115.81"/>
<polygon fill="black" stroke="black" points="793.51,-118.88 799.63,-110.23 789.45,-113.18 793.51,-118.88"/>
</g>
<!-- 5263123936&#45;&gt;4434548720* -->
<g id="edge26" class="edge">
<title>5263123936&#45;&gt;4434548720*</title>
<path fill="none" stroke="black" d="M756.73,-207.27C769.58,-218.78 783.35,-231.1 794.68,-241.25"/>
<polygon fill="black" stroke="black" points="792.26,-243.79 802.05,-247.85 796.93,-238.57 792.26,-243.79"/>
</g>
<!-- 5263123936+&#45;&gt;5263123936 -->
<g id="edge13" class="edge">
<title>5263123936+&#45;&gt;5263123936</title>
<path fill="none" stroke="black" d="M635.98,-170.25C643.34,-170.25 651.6,-170.25 659.91,-170.25"/>
<polygon fill="black" stroke="black" points="659.69,-173.75 669.69,-170.25 659.69,-166.75 659.69,-173.75"/>
</g>
<!-- 5263126096 -->
<g id="node31" class="node">
<title>5263126096</title>
<polygon fill="none" stroke="black" points="0,-155.5 0,-229 90.25,-229 90.25,-155.5 0,-155.5"/>
<text text-anchor="middle" x="45.12" y="-211.7" font-family="Times,serif" font-size="14.00">data=&#45;1.000</text>
<polyline fill="none" stroke="black" points="0,-204.5 90.25,-204.5"/>
<text text-anchor="middle" x="45.12" y="-187.2" font-family="Times,serif" font-size="14.00">grad=&#45;0.0000</text>
<polyline fill="none" stroke="black" points="0,-180 90.25,-180"/>
<text text-anchor="middle" x="45.12" y="-162.7" font-family="Times,serif" font-size="14.00">deg=0</text>
</g>
<!-- 5263126096&#45;&gt;5263123312* -->
<g id="edge21" class="edge">
<title>5263126096&#45;&gt;5263123312*</title>
<path fill="none" stroke="black" d="M90.52,-195.18C98.51,-195.71 106.78,-196.25 114.56,-196.76"/>
<polygon fill="black" stroke="black" points="114.19,-200.25 124.4,-197.41 114.65,-193.26 114.19,-200.25"/>
</g>
<!-- 5263124080 -->
<g id="node32" class="node">
<title>5263124080</title>
<polygon fill="none" stroke="black" points="459.75,-93.5 459.75,-167 545.5,-167 545.5,-93.5 459.75,-93.5"/>
<text text-anchor="middle" x="502.62" y="-149.7" font-family="Times,serif" font-size="14.00">data=&#45;6.000</text>
<polyline fill="none" stroke="black" points="459.75,-142.5 545.5,-142.5"/>
<text text-anchor="middle" x="502.62" y="-125.2" font-family="Times,serif" font-size="14.00">grad=0.0000</text>
<polyline fill="none" stroke="black" points="459.75,-118 545.5,-118"/>
<text text-anchor="middle" x="502.62" y="-100.7" font-family="Times,serif" font-size="14.00">deg=0</text>
</g>
<!-- 5263124080&#45;&gt;5263123936+ -->
<g id="edge31" class="edge">
<title>5263124080&#45;&gt;5263123936+</title>
<path fill="none" stroke="black" d="M545.87,-146.52C555.3,-150.15 565.16,-153.95 574.17,-157.42"/>
<polygon fill="black" stroke="black" points="572.64,-160.58 583.23,-160.9 575.15,-154.04 572.64,-160.58"/>
</g>
<!-- 5263124080+&#45;&gt;5263124080 -->
<g id="edge14" class="edge">
<title>5263124080+&#45;&gt;5263124080</title>
<path fill="none" stroke="black" d="M408.15,-127.13C419.88,-127.52 434.15,-128 447.97,-128.46"/>
<polygon fill="black" stroke="black" points="447.78,-131.95 457.89,-128.79 448.02,-124.96 447.78,-131.95"/>
</g>
<!-- 4434548720 -->
<g id="node34" class="node">
<title>4434548720</title>
<polygon fill="none" stroke="black" points="883.25,-226.5 883.25,-300 973.5,-300 973.5,-226.5 883.25,-226.5"/>
<text text-anchor="middle" x="928.38" y="-282.7" font-family="Times,serif" font-size="14.00">data=1.999</text>
<polyline fill="none" stroke="black" points="883.25,-275.5 973.5,-275.5"/>
<text text-anchor="middle" x="928.38" y="-258.2" font-family="Times,serif" font-size="14.00">grad=&#45;0.0000</text>
<polyline fill="none" stroke="black" points="883.25,-251 973.5,-251"/>
<text text-anchor="middle" x="928.38" y="-233.7" font-family="Times,serif" font-size="14.00">deg=0</text>
</g>
<!-- 4434548720&#45;&gt;4434549536+ -->
<g id="edge30" class="edge">
<title>4434548720&#45;&gt;4434549536+</title>
<path fill="none" stroke="black" d="M973.77,-263.25C981.76,-263.25 990.03,-263.25 997.81,-263.25"/>
<polygon fill="black" stroke="black" points="997.64,-266.75 1007.64,-263.25 997.64,-259.75 997.64,-266.75"/>
</g>
<!-- 4434548720*&#45;&gt;4434548720 -->
<g id="edge15" class="edge">
<title>4434548720*&#45;&gt;4434548720</title>
<path fill="none" stroke="black" d="M847.48,-263.25C854.83,-263.25 863.1,-263.25 871.47,-263.25"/>
<polygon fill="black" stroke="black" points="871.34,-266.75 881.34,-263.25 871.34,-259.75 871.34,-266.75"/>
</g>
</g>
</svg>