<?xml version="1.0" encoding="utf-8" standalone="no"?>
<!DOCTYPE svg PUBLIC "-//W3C//DTD SVG 1.1//EN"
  "http://www.w3.org/Graphics/SVG/1.1/DTD/svg11.dtd">
<svg xmlns:xlink="http://www.w3.org/1999/xlink" width="505.760937pt" height="211.07625pt" viewBox="0 0 505.760937 211.07625" xmlns="http://www.w3.org/2000/svg" version="1.1">
 <metadata>
  <rdf:RDF xmlns:dc="http://purl.org/dc/elements/1.1/" xmlns:cc="http://creativecommons.org/ns#" xmlns:rdf="http://www.w3.org/1999/02/22-rdf-syntax-ns#">
   <cc:Work>
    <dc:type rdf:resource="http://purl.org/dc/dcmitype/StillImage"/>
    <dc:date>2025-01-13T22:20:58.793429</dc:date>
    <dc:format>image/svg+xml</dc:format>
    <dc:creator>
     <cc:Agent>
      <dc:title>Matplotlib v3.9.2, https://matplotlib.org/</dc:title>
     </cc:Agent>
    </dc:creator>
   </cc:Work>
  </rdf:RDF>
 </metadata>
 <defs>
  <style type="text/css">*{stroke-linejoin: round; stroke-linecap: butt}</style>
 </defs>
 <g id="figure_1">
  <g id="patch_1">
   <path d="M 0 211.07625 
L 505.760937 211.07625 
L 505.760937 0 
L 0 0 
z
" style="fill: #ffffff"/>
  </g>
  <g id="axes_1">
   <g id="patch_2">
    <path d="M 52.160938 173.52 
L 498.560937 173.52 
L 498.560937 7.2 
L 52.160938 7.2 
z
" style="fill: #ffffff"/>
   </g>
   <g id="matplotlib.axis_1">
    <g id="xtick_1">
     <g id="line2d_1">
      <defs>
       <path id="md0080526f2" d="M 0 0 
L 0 3.5 
" style="stroke: #000000; stroke-width: 0.8"/>
      </defs>
      <g>
       <use xlink:href="#md0080526f2" x="72.045622" y="173.52" style="stroke: #000000; stroke-width: 0.8"/>
      </g>
     </g>
     <g id="text_1">
      <!-- 0 -->
      <g transform="translate(68.864372 188.118438) scale(0.1 -0.1)">
       <defs>
        <path id="DejaVuSans-30" d="M 2034 4250 
Q 1547 4250 1301 3770 
Q 1056 3291 1056 2328 
Q 1056 1369 1301 889 
Q 1547 409 2034 409 
Q 2525 409 2770 889 
Q 3016 1369 3016 2328 
Q 3016 3291 2770 3770 
Q 2525 4250 2034 4250 
z
M 2034 4750 
Q 2819 4750 3233 4129 
Q 3647 3509 3647 2328 
Q 3647 1150 3233 529 
Q 2819 -91 2034 -91 
Q 1250 -91 836 529 
Q 422 1150 422 2328 
Q 422 3509 836 4129 
Q 1250 4750 2034 4750 
z
" transform="scale(0.015625)"/>
       </defs>
       <use xlink:href="#DejaVuSans-30"/>
      </g>
     </g>
    </g>
    <g id="xtick_2">
     <g id="line2d_2">
      <g>
       <use xlink:href="#md0080526f2" x="153.290503" y="173.52" style="stroke: #000000; stroke-width: 0.8"/>
      </g>
     </g>
     <g id="text_2">
      <!-- 200 -->
      <g transform="translate(143.746753 188.118438) scale(0.1 -0.1)">
       <defs>
        <path id="DejaVuSans-32" d="M 1228 531 
L 3431 531 
L 3431 0 
L 469 0 
L 469 531 
Q 828 903 1448 1529 
Q 2069 2156 2228 2338 
Q 2531 2678 2651 2914 
Q 2772 3150 2772 3378 
Q 2772 3750 2511 3984 
Q 2250 4219 1831 4219 
Q 1534 4219 1204 4116 
Q 875 4013 500 3803 
L 500 4441 
Q 881 4594 1212 4672 
Q 1544 4750 1819 4750 
Q 2544 4750 2975 4387 
Q 3406 4025 3406 3419 
Q 3406 3131 3298 2873 
Q 3191 2616 2906 2266 
Q 2828 2175 2409 1742 
Q 1991 1309 1228 531 
z
" transform="scale(0.015625)"/>
       </defs>
       <use xlink:href="#DejaVuSans-32"/>
       <use xlink:href="#DejaVuSans-30" x="63.623047"/>
       <use xlink:href="#DejaVuSans-30" x="127.246094"/>
      </g>
     </g>
    </g>
    <g id="xtick_3">
     <g id="line2d_3">
      <g>
       <use xlink:href="#md0080526f2" x="234.535385" y="173.52" style="stroke: #000000; stroke-width: 0.8"/>
      </g>
     </g>
     <g id="text_3">
      <!-- 400 -->
      <g transform="translate(224.991635 188.118438) scale(0.1 -0.1)">
       <defs>
        <path id="DejaVuSans-34" d="M 2419 4116 
L 825 1625 
L 2419 1625 
L 2419 4116 
z
M 2253 4666 
L 3047 4666 
L 3047 1625 
L 3713 1625 
L 3713 1100 
L 3047 1100 
L 3047 0 
L 2419 0 
L 2419 1100 
L 313 1100 
L 313 1709 
L 2253 4666 
z
" transform="scale(0.015625)"/>
       </defs>
       <use xlink:href="#DejaVuSans-34"/>
       <use xlink:href="#DejaVuSans-30" x="63.623047"/>
       <use xlink:href="#DejaVuSans-30" x="127.246094"/>
      </g>
     </g>
    </g>
    <g id="xtick_4">
     <g id="line2d_4">
      <g>
       <use xlink:href="#md0080526f2" x="315.780266" y="173.52" style="stroke: #000000; stroke-width: 0.8"/>
      </g>
     </g>
     <g id="text_4">
      <!-- 600 -->
      <g transform="translate(306.236516 188.118438) scale(0.1 -0.1)">
       <defs>
        <path id="DejaVuSans-36" d="M 2113 2584 
Q 1688 2584 1439 2293 
Q 1191 2003 1191 1497 
Q 1191 994 1439 701 
Q 1688 409 2113 409 
Q 2538 409 2786 701 
Q 3034 994 3034 1497 
Q 3034 2003 2786 2293 
Q 2538 2584 2113 2584 
z
M 3366 4563 
L 3366 3988 
Q 3128 4100 2886 4159 
Q 2644 4219 2406 4219 
Q 1781 4219 1451 3797 
Q 1122 3375 1075 2522 
Q 1259 2794 1537 2939 
Q 1816 3084 2150 3084 
Q 2853 3084 3261 2657 
Q 3669 2231 3669 1497 
Q 3669 778 3244 343 
Q 2819 -91 2113 -91 
Q 1303 -91 875 529 
Q 447 1150 447 2328 
Q 447 3434 972 4092 
Q 1497 4750 2381 4750 
Q 2619 4750 2861 4703 
Q 3103 4656 3366 4563 
z
" transform="scale(0.015625)"/>
       </defs>
       <use xlink:href="#DejaVuSans-36"/>
       <use xlink:href="#DejaVuSans-30" x="63.623047"/>
       <use xlink:href="#DejaVuSans-30" x="127.246094"/>
      </g>
     </g>
    </g>
    <g id="xtick_5">
     <g id="line2d_5">
      <g>
       <use xlink:href="#md0080526f2" x="397.025147" y="173.52" style="stroke: #000000; stroke-width: 0.8"/>
      </g>
     </g>
     <g id="text_5">
      <!-- 800 -->
      <g transform="translate(387.481397 188.118438) scale(0.1 -0.1)">
       <defs>
        <path id="DejaVuSans-38" d="M 2034 2216 
Q 1584 2216 1326 1975 
Q 1069 1734 1069 1313 
Q 1069 891 1326 650 
Q 1584 409 2034 409 
Q 2484 409 2743 651 
Q 3003 894 3003 1313 
Q 3003 1734 2745 1975 
Q 2488 2216 2034 2216 
z
M 1403 2484 
Q 997 2584 770 2862 
Q 544 3141 544 3541 
Q 544 4100 942 4425 
Q 1341 4750 2034 4750 
Q 2731 4750 3128 4425 
Q 3525 4100 3525 3541 
Q 3525 3141 3298 2862 
Q 3072 2584 2669 2484 
Q 3125 2378 3379 2068 
Q 3634 1759 3634 1313 
Q 3634 634 3220 271 
Q 2806 -91 2034 -91 
Q 1263 -91 848 271 
Q 434 634 434 1313 
Q 434 1759 690 2068 
Q 947 2378 1403 2484 
z
M 1172 3481 
Q 1172 3119 1398 2916 
Q 1625 2713 2034 2713 
Q 2441 2713 2670 2916 
Q 2900 3119 2900 3481 
Q 2900 3844 2670 4047 
Q 2441 4250 2034 4250 
Q 1625 4250 1398 4047 
Q 1172 3844 1172 3481 
z
" transform="scale(0.015625)"/>
       </defs>
       <use xlink:href="#DejaVuSans-38"/>
       <use xlink:href="#DejaVuSans-30" x="63.623047"/>
       <use xlink:href="#DejaVuSans-30" x="127.246094"/>
      </g>
     </g>
    </g>
    <g id="xtick_6">
     <g id="line2d_6">
      <g>
       <use xlink:href="#md0080526f2" x="478.270028" y="173.52" style="stroke: #000000; stroke-width: 0.8"/>
      </g>
     </g>
     <g id="text_6">
      <!-- 1000 -->
      <g transform="translate(465.545028 188.118438) scale(0.1 -0.1)">
       <defs>
        <path id="DejaVuSans-31" d="M 794 531 
L 1825 531 
L 1825 4091 
L 703 3866 
L 703 4441 
L 1819 4666 
L 2450 4666 
L 2450 531 
L 3481 531 
L 3481 0 
L 794 0 
L 794 531 
z
" transform="scale(0.015625)"/>
       </defs>
       <use xlink:href="#DejaVuSans-31"/>
       <use xlink:href="#DejaVuSans-30" x="63.623047"/>
       <use xlink:href="#DejaVuSans-30" x="127.246094"/>
       <use xlink:href="#DejaVuSans-30" x="190.869141"/>
      </g>
     </g>
    </g>
    <g id="text_7">
     <!-- $t$ -->
     <g transform="translate(273.360937 201.796563) scale(0.1 -0.1)">
      <defs>
       <path id="DejaVuSans-Oblique-74" d="M 2706 3500 
L 2619 3053 
L 1472 3053 
L 1100 1153 
Q 1081 1047 1072 975 
Q 1063 903 1063 863 
Q 1063 663 1183 572 
Q 1303 481 1569 481 
L 2150 481 
L 2053 0 
L 1503 0 
Q 991 0 739 200 
Q 488 400 488 806 
Q 488 878 497 964 
Q 506 1050 525 1153 
L 897 3053 
L 409 3053 
L 500 3500 
L 978 3500 
L 1172 4494 
L 1747 4494 
L 1556 3500 
L 2706 3500 
z
" transform="scale(0.015625)"/>
      </defs>
      <use xlink:href="#DejaVuSans-Oblique-74" transform="translate(0 0.78125)"/>
     </g>
    </g>
   </g>
   <g id="matplotlib.axis_2">
    <g id="ytick_1">
     <g id="line2d_7">
      <defs>
       <path id="md9ee109371" d="M 0 0 
L -3.5 0 
" style="stroke: #000000; stroke-width: 0.8"/>
      </defs>
      <g>
       <use xlink:href="#md9ee109371" x="52.160938" y="168.307167" style="stroke: #000000; stroke-width: 0.8"/>
      </g>
     </g>
     <g id="text_8">
      <!-- −1.5 -->
      <g transform="translate(20.878125 172.106386) scale(0.1 -0.1)">
       <defs>
        <path id="DejaVuSans-2212" d="M 678 2272 
L 4684 2272 
L 4684 1741 
L 678 1741 
L 678 2272 
z
" transform="scale(0.015625)"/>
        <path id="DejaVuSans-2e" d="M 684 794 
L 1344 794 
L 1344 0 
L 684 0 
L 684 794 
z
" transform="scale(0.015625)"/>
        <path id="DejaVuSans-35" d="M 691 4666 
L 3169 4666 
L 3169 4134 
L 1269 4134 
L 1269 2991 
Q 1406 3038 1543 3061 
Q 1681 3084 1819 3084 
Q 2600 3084 3056 2656 
Q 3513 2228 3513 1497 
Q 3513 744 3044 326 
Q 2575 -91 1722 -91 
Q 1428 -91 1123 -41 
Q 819 9 494 109 
L 494 744 
Q 775 591 1075 516 
Q 1375 441 1709 441 
Q 2250 441 2565 725 
Q 2881 1009 2881 1497 
Q 2881 1984 2565 2268 
Q 2250 2553 1709 2553 
Q 1456 2553 1204 2497 
Q 953 2441 691 2322 
L 691 4666 
z
" transform="scale(0.015625)"/>
       </defs>
       <use xlink:href="#DejaVuSans-2212"/>
       <use xlink:href="#DejaVuSans-31" x="83.789062"/>
       <use xlink:href="#DejaVuSans-2e" x="147.412109"/>
       <use xlink:href="#DejaVuSans-35" x="179.199219"/>
      </g>
     </g>
    </g>
    <g id="ytick_2">
     <g id="line2d_8">
      <g>
       <use xlink:href="#md9ee109371" x="52.160938" y="143.04269" style="stroke: #000000; stroke-width: 0.8"/>
      </g>
     </g>
     <g id="text_9">
      <!-- −1.0 -->
      <g transform="translate(20.878125 146.841909) scale(0.1 -0.1)">
       <use xlink:href="#DejaVuSans-2212"/>
       <use xlink:href="#DejaVuSans-31" x="83.789062"/>
       <use xlink:href="#DejaVuSans-2e" x="147.412109"/>
       <use xlink:href="#DejaVuSans-30" x="179.199219"/>
      </g>
     </g>
    </g>
    <g id="ytick_3">
     <g id="line2d_9">
      <g>
       <use xlink:href="#md9ee109371" x="52.160938" y="117.778214" style="stroke: #000000; stroke-width: 0.8"/>
      </g>
     </g>
     <g id="text_10">
      <!-- −0.5 -->
      <g transform="translate(20.878125 121.577432) scale(0.1 -0.1)">
       <use xlink:href="#DejaVuSans-2212"/>
       <use xlink:href="#DejaVuSans-30" x="83.789062"/>
       <use xlink:href="#DejaVuSans-2e" x="147.412109"/>
       <use xlink:href="#DejaVuSans-35" x="179.199219"/>
      </g>
     </g>
    </g>
    <g id="ytick_4">
     <g id="line2d_10">
      <g>
       <use xlink:href="#md9ee109371" x="52.160938" y="92.513737" style="stroke: #000000; stroke-width: 0.8"/>
      </g>
     </g>
     <g id="text_11">
      <!-- 0.0 -->
      <g transform="translate(29.257812 96.312956) scale(0.1 -0.1)">
       <use xlink:href="#DejaVuSans-30"/>
       <use xlink:href="#DejaVuSans-2e" x="63.623047"/>
       <use xlink:href="#DejaVuSans-30" x="95.410156"/>
      </g>
     </g>
    </g>
    <g id="ytick_5">
     <g id="line2d_11">
      <g>
       <use xlink:href="#md9ee109371" x="52.160938" y="67.24926" style="stroke: #000000; stroke-width: 0.8"/>
      </g>
     </g>
     <g id="text_12">
      <!-- 0.5 -->
      <g transform="translate(29.257812 71.048479) scale(0.1 -0.1)">
       <use xlink:href="#DejaVuSans-30"/>
       <use xlink:href="#DejaVuSans-2e" x="63.623047"/>
       <use xlink:href="#DejaVuSans-35" x="95.410156"/>
      </g>
     </g>
    </g>
    <g id="ytick_6">
     <g id="line2d_12">
      <g>
       <use xlink:href="#md9ee109371" x="52.160938" y="41.984783" style="stroke: #000000; stroke-width: 0.8"/>
      </g>
     </g>
     <g id="text_13">
      <!-- 1.0 -->
      <g transform="translate(29.257812 45.784002) scale(0.1 -0.1)">
       <use xlink:href="#DejaVuSans-31"/>
       <use xlink:href="#DejaVuSans-2e" x="63.623047"/>
       <use xlink:href="#DejaVuSans-30" x="95.410156"/>
      </g>
     </g>
    </g>
    <g id="ytick_7">
     <g id="line2d_13">
      <g>
       <use xlink:href="#md9ee109371" x="52.160938" y="16.720307" style="stroke: #000000; stroke-width: 0.8"/>
      </g>
     </g>
     <g id="text_14">
      <!-- 1.5 -->
      <g transform="translate(29.257812 20.519525) scale(0.1 -0.1)">
       <use xlink:href="#DejaVuSans-31"/>
       <use xlink:href="#DejaVuSans-2e" x="63.623047"/>
       <use xlink:href="#DejaVuSans-35" x="95.410156"/>
      </g>
     </g>
    </g>
    <g id="text_15">
     <!-- $x$ -->
     <g transform="translate(14.798438 93.36) rotate(-90) scale(0.1 -0.1)">
      <defs>
       <path id="DejaVuSans-Oblique-78" d="M 3841 3500 
L 2234 1784 
L 3219 0 
L 2559 0 
L 1819 1388 
L 531 0 
L -166 0 
L 1556 1844 
L 641 3500 
L 1300 3500 
L 1972 2234 
L 3144 3500 
L 3841 3500 
z
" transform="scale(0.015625)"/>
      </defs>
      <use xlink:href="#DejaVuSans-Oblique-78" transform="translate(0 0.3125)"/>
     </g>
    </g>
   </g>
   <g id="line2d_14">
    <path d="M 72.451847 72.535455 
L 72.858071 76.473043 
L 73.264295 81.895636 
L 73.67052 111.771077 
L 74.076744 83.132387 
L 74.482969 101.959872 
L 74.889193 89.414829 
L 75.295417 104.69216 
L 75.701642 95.573199 
L 76.107866 70.80761 
L 76.514091 90.933062 
L 76.920315 100.649361 
L 77.326539 93.319275 
L 77.732764 91.116251 
L 78.138988 92.73251 
L 78.545213 76.758442 
L 78.951437 67.368219 
L 79.357661 85.080417 
L 79.763886 87.997489 
L 80.17011 78.032787 
L 80.576335 89.641991 
L 80.982559 70.58957 
L 81.388784 72.901548 
L 81.795008 63.518873 
L 82.201232 67.08611 
L 82.607457 66.422345 
L 83.013681 72.866832 
L 83.419906 65.061192 
L 83.82613 80.405618 
L 84.232354 77.159399 
L 84.638579 79.641811 
L 85.044803 67.929468 
L 85.451028 90.13341 
L 86.263476 77.444759 
L 86.669701 57.358398 
L 87.075925 71.019154 
L 87.48215 78.061614 
L 87.888374 70.21367 
L 88.294598 80.664706 
L 88.700823 88.112926 
L 89.107047 61.848337 
L 89.513272 80.340625 
L 89.919496 77.066486 
L 90.32572 83.411693 
L 90.731945 48.629082 
L 91.138169 82.107015 
L 91.544394 74.111274 
L 91.950618 77.968407 
L 92.356842 74.939862 
L 92.763067 67.058158 
L 93.169291 62.093193 
L 93.575516 71.901209 
L 93.98174 54.495256 
L 94.387965 74.329088 
L 94.794189 73.111242 
L 95.200413 79.427625 
L 95.606638 64.458813 
L 96.012862 65.042884 
L 96.419087 57.155321 
L 96.825311 64.555759 
L 97.231535 44.51356 
L 97.63776 74.715556 
L 98.043984 48.356217 
L 98.450209 47.330083 
L 98.856433 52.87886 
L 99.262657 38.720559 
L 99.668882 55.454484 
L 100.075106 56.847041 
L 100.481331 61.956281 
L 100.887555 70.234723 
L 101.293779 46.280569 
L 101.700004 60.557641 
L 102.106228 53.149379 
L 102.512453 57.499035 
L 102.918677 53.395199 
L 103.324901 51.527871 
L 103.731126 63.462896 
L 104.13735 78.917728 
L 104.543575 63.853949 
L 104.949799 55.806435 
L 105.356023 58.992968 
L 105.762248 68.775468 
L 106.168472 60.803334 
L 106.574697 49.133721 
L 106.980921 48.919021 
L 107.387146 42.360251 
L 107.79337 53.047208 
L 108.199594 45.730892 
L 108.605819 57.799838 
L 109.012043 63.226624 
L 109.418268 46.209946 
L 109.824492 69.413874 
L 110.230716 60.073928 
L 110.636941 37.924473 
L 111.043165 46.234299 
L 111.44939 76.194059 
L 111.855614 45.617939 
L 112.261838 42.341349 
L 112.668063 49.705588 
L 113.074287 43.24887 
L 113.480512 43.563434 
L 113.886736 38.413179 
L 114.29296 53.486509 
L 114.699185 50.556024 
L 115.105409 40.827304 
L 115.511634 44.099316 
L 115.917858 46.145795 
L 116.324082 45.036284 
L 116.730307 34.615584 
L 117.136531 47.268269 
L 117.542756 50.100758 
L 117.94898 61.539167 
L 118.355204 47.635617 
L 118.761429 52.447645 
L 119.167653 41.367601 
L 119.573878 38.650578 
L 120.386327 49.536038 
L 120.792551 40.083766 
L 121.198775 45.366237 
L 121.605 42.628186 
L 122.011224 43.55139 
L 122.417449 37.001007 
L 122.823673 33.496601 
L 123.229897 40.970742 
L 123.636122 36.977654 
L 124.042346 39.948598 
L 124.448571 24.447845 
L 124.854795 33.600464 
L 125.261019 58.209449 
L 125.667244 54.983704 
L 126.073468 44.817362 
L 126.479693 26.797476 
L 126.885917 36.594787 
L 127.292141 37.282281 
L 127.698366 31.464168 
L 128.10459 42.714096 
L 128.510815 61.057454 
L 128.917039 33.367746 
L 129.323263 46.429753 
L 129.729488 32.118034 
L 130.135712 49.423943 
L 130.541937 35.980881 
L 130.948161 52.182628 
L 131.354385 32.608637 
L 131.76061 25.877949 
L 132.166834 27.533357 
L 132.573059 39.426305 
L 133.385508 49.483687 
L 133.791732 40.995944 
L 134.197956 38.502417 
L 134.604181 32.230439 
L 135.010405 46.70186 
L 135.41663 25.769984 
L 135.822854 67.048376 
L 136.229078 46.206533 
L 136.635303 54.075104 
L 137.041527 33.797024 
L 137.447752 61.230203 
L 137.853976 39.735992 
L 138.2602 41.822088 
L 138.666425 45.601829 
L 139.072649 39.244527 
L 139.478874 49.571426 
L 139.885098 40.466519 
L 140.291322 53.340788 
L 140.697547 58.534452 
L 141.103771 28.733857 
L 141.509996 29.448933 
L 141.91622 42.017684 
L 142.322444 58.255927 
L 142.728669 35.059265 
L 143.134893 34.95672 
L 143.541118 22.406763 
L 143.947342 42.622054 
L 144.353566 41.867843 
L 144.759791 51.335763 
L 145.166015 45.403963 
L 145.978464 59.62364 
L 146.384689 55.152669 
L 146.790913 49.085945 
L 147.197137 49.184119 
L 147.603362 59.254771 
L 148.009586 63.700075 
L 148.415811 43.089018 
L 148.822035 34.199877 
L 149.228259 50.31493 
L 149.634484 37.746694 
L 150.040708 37.860575 
L 150.446933 27.278093 
L 150.853157 54.702673 
L 151.259381 35.848057 
L 151.665606 49.169576 
L 152.07183 57.835506 
L 152.478055 42.538107 
L 152.884279 41.521587 
L 153.290503 32.887683 
L 153.696728 41.464183 
L 154.102952 25.653784 
L 154.509177 52.481955 
L 154.915401 56.864171 
L 155.72785 37.111484 
L 156.134074 34.94757 
L 156.540299 43.748247 
L 156.946523 56.876209 
L 157.352747 59.217097 
L 157.758972 54.155533 
L 158.165196 55.400712 
L 158.571421 48.121974 
L 158.977645 45.49736 
L 159.38387 51.724723 
L 159.790094 73.934498 
L 160.602543 40.155573 
L 161.008767 69.36299 
L 161.414992 36.421267 
L 161.821216 48.833641 
L 162.22744 57.320137 
L 162.633665 42.112072 
L 163.039889 35.80785 
L 163.446114 53.244039 
L 163.852338 36.673628 
L 164.664787 64.882986 
L 165.071011 60.286417 
L 165.477236 53.989509 
L 165.88346 51.13121 
L 166.289684 35.412333 
L 166.695909 56.588312 
L 167.102133 65.367262 
L 167.508358 77.267587 
L 168.320806 57.10292 
L 168.727031 56.854428 
L 169.133255 56.060381 
L 169.53948 54.243211 
L 169.945704 68.147177 
L 170.351928 56.344125 
L 170.758153 64.962024 
L 171.164377 55.225822 
L 171.570602 69.099285 
L 171.976826 60.953004 
L 172.383051 64.642756 
L 172.789275 46.676618 
L 173.195499 49.183119 
L 173.601724 69.498762 
L 174.007948 54.05035 
L 174.414173 57.904997 
L 175.226621 58.201685 
L 175.632846 59.223136 
L 176.03907 62.507307 
L 176.445295 72.106306 
L 176.851519 59.910094 
L 177.257743 81.265518 
L 177.663968 82.743043 
L 178.070192 81.847196 
L 178.476417 62.968618 
L 178.882641 69.039923 
L 179.288865 60.314342 
L 179.69509 84.819332 
L 180.101314 70.212006 
L 180.507539 62.330483 
L 180.913763 69.613879 
L 181.319987 57.266202 
L 181.726212 68.426666 
L 182.132436 91.36169 
L 182.538661 71.655722 
L 182.944885 86.237584 
L 183.351109 66.438506 
L 183.757334 99.351776 
L 184.163558 73.939336 
L 184.569783 75.401535 
L 184.976007 82.18737 
L 185.382232 57.837979 
L 185.788456 75.001778 
L 186.19468 64.008052 
L 186.600905 56.964764 
L 187.007129 69.658593 
L 187.413354 67.591836 
L 187.819578 73.797985 
L 188.225802 66.784458 
L 188.632027 76.239518 
L 189.038251 79.816136 
L 189.444476 70.098804 
L 189.8507 90.682886 
L 190.256924 86.392428 
L 190.663149 85.865198 
L 191.069373 85.07113 
L 191.475598 83.702532 
L 191.881822 90.11714 
L 192.288046 83.86905 
L 192.694271 63.464616 
L 193.100495 81.818066 
L 193.50672 75.419771 
L 193.912944 78.185379 
L 194.319168 86.204687 
L 194.725393 85.357753 
L 195.131617 73.31162 
L 195.537842 80.181036 
L 195.944066 83.811374 
L 196.35029 95.610831 
L 196.756515 80.47383 
L 197.162739 99.090346 
L 197.568964 85.323633 
L 197.975188 77.819961 
L 198.381413 114.226746 
L 198.787637 104.427824 
L 199.193861 90.110084 
L 199.600086 113.925874 
L 200.00631 94.293559 
L 200.412535 103.96157 
L 200.818759 101.677058 
L 201.224983 95.012608 
L 201.631208 82.782776 
L 202.037432 105.391982 
L 202.443657 91.587362 
L 202.849881 103.719298 
L 203.256105 86.30972 
L 203.66233 112.165862 
L 204.068554 93.280008 
L 204.474779 94.72956 
L 204.881003 99.03127 
L 205.287227 98.681097 
L 206.099676 93.358722 
L 206.505901 118.402347 
L 206.912125 110.004767 
L 207.318349 97.580067 
L 207.724574 99.786402 
L 208.130798 108.901368 
L 208.943247 95.007354 
L 209.349471 102.602671 
L 209.755696 96.989803 
L 210.16192 106.011284 
L 210.568145 100.187212 
L 210.974369 113.573043 
L 211.380594 111.812091 
L 212.193042 101.702914 
L 212.599267 91.850835 
L 213.005491 109.667334 
L 213.411716 98.329756 
L 213.81794 100.186465 
L 214.224164 117.07632 
L 214.630389 116.501522 
L 215.036613 114.51932 
L 215.442838 119.673225 
L 215.849062 108.324474 
L 216.255286 111.692819 
L 216.661511 125.590109 
L 217.067735 116.741027 
L 217.47396 122.496281 
L 217.880184 119.991388 
L 218.286408 94.773801 
L 218.692633 96.121671 
L 219.098857 98.64541 
L 219.505082 115.939061 
L 219.911306 118.440196 
L 220.31753 135.033128 
L 220.723755 124.671651 
L 221.129979 121.976602 
L 221.536204 99.355708 
L 221.942428 121.063469 
L 222.348652 117.605211 
L 222.754877 98.044469 
L 223.161101 102.911464 
L 223.567326 117.063565 
L 223.97355 114.485357 
L 224.379775 123.455255 
L 224.785999 114.881123 
L 225.598448 134.557227 
L 226.004672 135.994087 
L 226.410897 118.897968 
L 226.817121 129.798258 
L 227.223345 115.592388 
L 227.62957 129.567707 
L 228.035794 128.636387 
L 228.442019 118.654907 
L 228.848243 126.521721 
L 229.254467 128.268169 
L 229.660692 124.844514 
L 230.066916 112.038717 
L 230.473141 136.75605 
L 230.879365 133.707703 
L 231.285589 128.999391 
L 231.691814 138.306188 
L 232.098038 153.852717 
L 232.504263 132.403909 
L 232.910487 120.877773 
L 233.316711 119.767343 
L 233.722936 133.440879 
L 234.12916 138.58362 
L 234.535385 122.423324 
L 234.941609 130.832918 
L 235.347833 142.161103 
L 236.160282 136.16252 
L 236.566507 122.631629 
L 236.972731 134.107358 
L 237.378956 131.427289 
L 237.78518 133.663412 
L 238.191404 124.021906 
L 238.597629 149.851877 
L 239.003853 124.173087 
L 239.410078 122.855075 
L 239.816302 136.146166 
L 240.222526 137.781495 
L 240.628751 137.212989 
L 241.034975 127.677701 
L 241.4412 128.879574 
L 241.847424 149.435344 
L 242.253648 141.519044 
L 242.659873 130.488207 
L 243.066097 141.55102 
L 243.472322 143.190977 
L 243.878546 137.743604 
L 244.28477 154.140449 
L 244.690995 142.62102 
L 245.097219 145.441003 
L 245.503444 135.002287 
L 245.909668 136.961838 
L 246.315892 128.14416 
L 246.722117 145.137285 
L 247.128341 144.212259 
L 247.534566 132.226465 
L 247.94079 144.385532 
L 248.347014 128.093101 
L 248.753239 144.428221 
L 249.159463 125.587714 
L 249.565688 131.534796 
L 249.971912 140.760993 
L 250.378137 133.683169 
L 250.784361 130.057055 
L 251.190585 133.778076 
L 251.59681 154.166386 
L 252.003034 140.659325 
L 252.409259 153.005648 
L 253.221707 129.421288 
L 253.627932 133.878172 
L 254.034156 149.226419 
L 254.440381 155.783569 
L 254.846605 136.987089 
L 255.252829 152.137652 
L 255.659054 141.777471 
L 256.471503 152.215585 
L 256.877727 148.866435 
L 257.283951 134.103789 
L 257.690176 126.449011 
L 258.0964 143.821447 
L 258.502625 147.546031 
L 258.908849 141.578936 
L 259.315073 141.99839 
L 259.721298 152.152946 
L 260.127522 155.624795 
L 260.533747 131.93493 
L 260.939971 131.861958 
L 261.346195 149.882627 
L 261.75242 142.329879 
L 262.158644 143.024015 
L 262.564869 141.392276 
L 262.971093 130.952707 
L 263.377318 156.24226 
L 263.783542 157.229473 
L 264.189766 153.744162 
L 264.595991 139.933786 
L 265.002215 138.812465 
L 265.40844 150.235473 
L 265.814664 114.319373 
L 266.220888 123.185841 
L 266.627113 122.187039 
L 267.033337 153.844381 
L 267.439562 126.413659 
L 267.845786 134.147694 
L 268.25201 146.740692 
L 268.658235 148.784509 
L 269.064459 147.699721 
L 269.470684 148.743537 
L 269.876908 159.061039 
L 270.689357 146.798494 
L 271.095581 142.893416 
L 271.90803 153.50404 
L 272.314254 146.386009 
L 273.126703 137.752151 
L 273.532928 141.954023 
L 273.939152 129.451065 
L 274.345376 144.59347 
L 274.751601 134.544331 
L 275.157825 140.007547 
L 275.56405 148.426923 
L 275.970274 147.211611 
L 276.376499 153.473718 
L 276.782723 120.494412 
L 277.188947 149.930725 
L 277.595172 165.96 
L 278.001396 132.674817 
L 278.407621 131.381621 
L 279.220069 135.017557 
L 279.626294 142.525698 
L 280.032518 133.668349 
L 280.438743 152.482222 
L 280.844967 136.543029 
L 281.251191 144.449086 
L 281.657416 136.415152 
L 282.06364 122.582309 
L 282.469865 135.47279 
L 282.876089 144.717006 
L 283.282313 146.782309 
L 283.688538 131.642672 
L 284.094762 141.359159 
L 284.500987 134.580517 
L 284.907211 140.078892 
L 285.313435 154.011004 
L 285.71966 134.711086 
L 286.125884 154.743837 
L 286.532109 141.608828 
L 286.938333 121.264676 
L 287.344557 147.626361 
L 287.750782 126.54162 
L 288.157006 127.476455 
L 288.563231 130.13765 
L 288.969455 160.168493 
L 289.37568 147.844334 
L 289.781904 142.627095 
L 290.188128 129.937934 
L 290.594353 134.003801 
L 291.000577 119.75975 
L 291.406802 135.898298 
L 291.813026 121.028352 
L 292.21925 124.7365 
L 292.625475 118.243645 
L 293.031699 136.387733 
L 293.437924 147.468918 
L 293.844148 130.834168 
L 294.250372 143.024644 
L 294.656597 117.637866 
L 295.062821 134.814106 
L 295.469046 136.139248 
L 295.87527 129.500096 
L 296.281494 110.833709 
L 296.687719 106.790613 
L 297.093943 139.367069 
L 297.500168 115.022673 
L 297.906392 108.032219 
L 298.312616 146.507883 
L 298.718841 129.357218 
L 299.125065 134.674186 
L 299.53129 124.750882 
L 299.937514 105.225825 
L 300.343738 97.122019 
L 300.749963 119.491592 
L 301.156187 118.975141 
L 301.562412 120.40165 
L 301.968636 124.389573 
L 302.374861 118.525721 
L 302.781085 125.725611 
L 303.187309 115.970496 
L 303.593534 113.767145 
L 303.999758 108.130386 
L 304.405983 119.319106 
L 304.812207 113.679443 
L 305.218431 124.729616 
L 305.624656 119.957581 
L 306.03088 111.603617 
L 306.437105 125.438292 
L 306.843329 128.207334 
L 307.249553 114.458758 
L 308.062002 133.629132 
L 308.468227 117.733497 
L 308.874451 119.085986 
L 309.280675 92.102108 
L 309.6869 118.57574 
L 310.093124 126.272221 
L 310.499349 105.335572 
L 310.905573 111.996266 
L 311.311797 115.029007 
L 311.718022 113.973972 
L 312.124246 123.118655 
L 312.530471 120.107374 
L 312.936695 109.371868 
L 313.342919 108.654509 
L 313.749144 101.479087 
L 314.561593 117.262926 
L 314.967817 104.436678 
L 315.374042 98.981127 
L 315.780266 117.883695 
L 316.18649 101.112132 
L 316.592715 117.785722 
L 316.998939 103.886118 
L 317.405164 100.230633 
L 317.811388 97.744681 
L 318.217612 102.082877 
L 318.623837 85.319175 
L 319.030061 96.375494 
L 319.436286 121.149343 
L 319.84251 78.213104 
L 320.248734 110.522226 
L 320.654959 93.99116 
L 321.061183 104.673037 
L 321.467408 123.148833 
L 321.873632 86.140786 
L 322.686081 106.793824 
L 323.092305 81.054481 
L 323.49853 81.040466 
L 323.904754 97.506373 
L 324.310978 91.852352 
L 324.717203 91.981812 
L 325.529652 82.778205 
L 325.935876 98.371885 
L 326.3421 88.446244 
L 326.748325 100.269542 
L 327.154549 97.043847 
L 327.560774 90.739665 
L 327.966998 90.945604 
L 328.373223 85.465856 
L 328.779447 96.501537 
L 329.185671 101.101881 
L 329.591896 93.574917 
L 329.99812 80.928103 
L 330.404345 73.496529 
L 330.810569 87.68899 
L 331.216793 73.033418 
L 331.623018 84.781931 
L 332.029242 81.506081 
L 332.435467 99.045333 
L 332.841691 86.010517 
L 333.247915 65.781503 
L 333.65414 81.208299 
L 334.060364 82.860022 
L 334.466589 91.328097 
L 334.872813 95.160561 
L 335.279037 74.794849 
L 335.685262 77.532545 
L 336.091486 79.114164 
L 336.497711 94.906016 
L 336.903935 62.450312 
L 337.310159 80.919982 
L 337.716384 81.262319 
L 338.122608 87.991859 
L 338.935057 82.408673 
L 339.341281 84.710652 
L 339.747506 79.576708 
L 340.15373 98.72453 
L 340.559955 75.406438 
L 340.966179 64.761251 
L 341.372404 76.528426 
L 341.778628 77.882444 
L 342.184852 84.028946 
L 342.591077 74.855595 
L 342.997301 83.72627 
L 343.403526 73.062757 
L 343.80975 77.757165 
L 344.215974 63.572862 
L 344.622199 71.004677 
L 345.028423 87.996166 
L 345.434648 49.158878 
L 345.840872 85.567928 
L 346.247096 68.371522 
L 346.653321 81.245786 
L 347.059545 74.22909 
L 347.46577 58.703264 
L 348.278218 73.325404 
L 348.684443 95.340497 
L 349.090667 73.859952 
L 349.496892 60.949645 
L 349.903116 83.096431 
L 350.30934 56.908782 
L 350.715565 67.684447 
L 351.121789 63.29165 
L 351.528014 55.265785 
L 351.934238 62.17011 
L 352.340462 55.813642 
L 352.746687 60.115156 
L 353.152911 34.866072 
L 353.559136 57.696839 
L 353.96536 64.785414 
L 354.371585 62.238317 
L 354.777809 45.28442 
L 355.184033 61.573435 
L 355.590258 64.318721 
L 355.996482 45.162937 
L 356.402707 66.460095 
L 356.808931 71.589586 
L 357.215155 27.991193 
L 357.62138 44.58418 
L 358.433829 54.200128 
L 358.840053 52.584611 
L 359.246277 41.343098 
L 359.652502 43.43844 
L 360.058726 57.201329 
L 360.464951 41.82934 
L 360.871175 60.195919 
L 361.277399 65.003716 
L 361.683624 68.444884 
L 362.089848 54.243027 
L 362.496073 58.098526 
L 362.902297 60.857946 
L 363.308521 56.883392 
L 364.12097 42.621168 
L 364.527195 39.523778 
L 364.933419 42.408713 
L 365.339643 50.757761 
L 365.745868 43.128484 
L 366.152092 30.070747 
L 366.558317 42.887089 
L 366.964541 47.81706 
L 367.370766 48.474543 
L 367.77699 46.497617 
L 368.183214 48.89406 
L 368.589439 31.935202 
L 368.995663 62.072345 
L 369.401888 45.086282 
L 369.808112 45.299033 
L 370.214336 63.258437 
L 370.620561 63.361794 
L 371.026785 50.2627 
L 371.43301 45.511898 
L 371.839234 48.33583 
L 372.245458 37.365604 
L 372.651683 34.18436 
L 373.057907 43.971639 
L 373.464132 37.886458 
L 373.870356 54.641432 
L 374.27658 60.703012 
L 374.682805 41.413489 
L 375.089029 40.490408 
L 375.495254 59.423123 
L 375.901478 25.707893 
L 376.307702 27.423115 
L 376.713927 55.079854 
L 377.120151 57.446435 
L 377.526376 68.039048 
L 377.9326 44.623727 
L 378.745049 61.070896 
L 379.151273 41.057282 
L 379.557498 32.063105 
L 380.369947 47.670845 
L 380.776171 14.76 
L 381.182395 35.1504 
L 381.58862 35.293724 
L 381.994844 24.156897 
L 382.401069 37.139783 
L 382.807293 42.328449 
L 383.213517 59.136451 
L 384.025966 36.925062 
L 384.432191 39.182557 
L 384.838415 73.926815 
L 385.244639 57.249174 
L 385.650864 56.907363 
L 386.057088 48.508136 
L 386.463313 44.937519 
L 386.869537 49.523954 
L 387.275761 46.106898 
L 387.681986 36.873977 
L 388.08821 50.421637 
L 388.494435 46.846674 
L 388.900659 35.978315 
L 389.306883 44.888644 
L 389.713108 34.239897 
L 390.119332 49.749367 
L 390.525557 51.585037 
L 390.931781 41.814221 
L 391.338005 41.174433 
L 392.150454 28.404696 
L 392.556679 40.735921 
L 392.962903 66.818401 
L 393.369128 37.860274 
L 393.775352 22.868225 
L 394.181576 49.555132 
L 394.587801 41.720309 
L 394.994025 57.589647 
L 395.40025 38.753315 
L 395.806474 34.844394 
L 396.212698 28.073655 
L 397.025147 43.919644 
L 397.431372 33.28806 
L 397.837596 37.341197 
L 398.24382 42.848674 
L 398.650045 57.503134 
L 399.056269 49.068269 
L 399.868718 41.142454 
L 400.274942 55.863701 
L 400.681167 47.575472 
L 401.087391 28.793496 
L 401.89984 53.868931 
L 402.306064 50.890125 
L 402.712289 48.80736 
L 403.118513 57.213262 
L 403.524738 33.455653 
L 403.930962 55.26724 
L 404.337186 64.750264 
L 404.743411 41.806023 
L 405.149635 40.589055 
L 405.55586 45.119059 
L 405.962084 55.680315 
L 406.368309 43.250849 
L 406.774533 53.337635 
L 407.180757 32.07502 
L 407.586982 49.32394 
L 407.993206 55.522149 
L 408.399431 27.106013 
L 408.805655 63.401833 
L 409.211879 25.223482 
L 409.618104 53.822173 
L 410.024328 46.225691 
L 410.430553 49.831253 
L 410.836777 40.642623 
L 411.243001 44.622284 
L 411.649226 32.263044 
L 412.05545 52.089812 
L 412.461675 53.443276 
L 412.867899 61.523931 
L 413.274123 55.375781 
L 414.492797 45.843481 
L 414.899021 45.538676 
L 415.305245 45.764139 
L 415.71147 40.793801 
L 416.117694 57.285734 
L 416.523919 47.598867 
L 416.930143 43.548113 
L 417.336367 61.121072 
L 417.742592 37.515608 
L 418.148816 44.303122 
L 418.555041 55.11926 
L 418.961265 43.360932 
L 419.36749 46.459711 
L 419.773714 55.419147 
L 420.586163 78.586381 
L 420.992387 58.000012 
L 421.398612 56.754107 
L 421.804836 57.336144 
L 422.21106 44.59482 
L 422.617285 58.982532 
L 423.023509 39.925245 
L 423.835958 79.338603 
L 424.242182 74.678663 
L 425.054631 54.941373 
L 425.460856 63.048836 
L 425.86708 54.37459 
L 426.273304 83.720145 
L 426.679529 65.838437 
L 427.085753 66.566178 
L 427.491978 48.125591 
L 427.898202 48.30227 
L 428.304426 73.622484 
L 428.710651 62.936275 
L 429.116875 72.35857 
L 429.5231 48.079032 
L 429.929324 49.111952 
L 430.335548 77.066724 
L 430.741773 77.502502 
L 431.147997 77.278017 
L 431.554222 81.055444 
L 431.960446 91.185072 
L 432.366671 52.033166 
L 432.772895 71.764588 
L 433.179119 59.30517 
L 433.585344 75.792989 
L 433.991568 67.2714 
L 434.397793 54.528735 
L 434.804017 59.223428 
L 435.616466 85.177641 
L 436.02269 77.959703 
L 436.428915 77.504575 
L 436.835139 74.68083 
L 437.241363 61.550829 
L 438.053812 96.312225 
L 438.460037 69.358102 
L 438.866261 54.12784 
L 439.272485 62.38771 
L 439.67871 79.295838 
L 440.084934 81.968026 
L 440.491159 73.320123 
L 440.897383 77.830615 
L 441.303607 70.758685 
L 441.709832 59.507018 
L 442.116056 60.780204 
L 442.522281 81.556884 
L 442.928505 59.017276 
L 443.334729 89.210842 
L 443.740954 69.861357 
L 444.147178 87.720913 
L 444.553403 69.369186 
L 444.959627 89.041292 
L 445.365852 86.521236 
L 446.1783 70.340344 
L 446.584525 94.490078 
L 446.990749 56.434682 
L 447.396974 84.197491 
L 447.803198 84.547348 
L 448.209422 71.505179 
L 448.615647 75.940923 
L 449.021871 94.9348 
L 449.428096 85.200435 
L 449.83432 89.544758 
L 450.240544 109.436625 
L 450.646769 91.755434 
L 451.052993 83.452382 
L 451.459218 92.150708 
L 451.865442 91.059449 
L 452.271666 93.356848 
L 452.677891 80.952207 
L 453.084115 100.916364 
L 453.49034 104.181307 
L 453.896564 84.126404 
L 454.302788 88.156231 
L 454.709013 86.317138 
L 455.115237 83.492611 
L 455.521462 86.549523 
L 455.927686 91.296896 
L 456.33391 92.950356 
L 456.740135 93.565905 
L 457.146359 90.471153 
L 457.552584 93.016436 
L 457.958808 102.269145 
L 458.365033 91.062676 
L 458.771257 105.312655 
L 459.177481 99.831397 
L 459.583706 112.082666 
L 459.98993 104.073109 
L 460.396155 98.552627 
L 460.802379 96.389398 
L 461.208603 85.614175 
L 461.614828 104.32194 
L 462.021052 103.983936 
L 462.427277 106.343737 
L 462.833501 109.68083 
L 463.239725 104.434383 
L 463.64595 106.545182 
L 464.052174 110.172453 
L 464.458399 112.261063 
L 464.864623 91.58099 
L 465.270847 114.64415 
L 465.677072 108.413735 
L 466.083296 96.832011 
L 466.489521 111.373159 
L 466.895745 116.734326 
L 467.301969 114.862101 
L 467.708194 86.08707 
L 468.114418 115.220564 
L 468.520643 104.567467 
L 468.926867 101.002104 
L 469.333091 127.213625 
L 469.739316 98.629596 
L 470.14554 140.266835 
L 470.551765 115.417509 
L 470.957989 119.16743 
L 471.364214 128.775813 
L 471.770438 116.524674 
L 472.176662 117.538919 
L 472.582887 119.158627 
L 472.989111 119.409997 
L 473.395336 103.130136 
L 474.207784 123.622818 
L 474.614009 124.298711 
L 475.020233 115.096675 
L 475.426458 101.174125 
L 476.238906 123.313736 
L 476.645131 110.360546 
L 477.051355 111.653055 
L 477.45758 119.51568 
L 477.863804 123.414973 
L 478.270028 128.627388 
L 478.270028 128.627388 
" clip-path="url(#p408d0e99e5)" style="fill: none; stroke: #1f77b4; stroke-width: 1.5; stroke-linecap: square"/>
   </g>
   <g id="patch_3">
    <path d="M 52.160938 173.52 
L 52.160938 7.2 
" style="fill: none; stroke: #000000; stroke-width: 0.8; stroke-linejoin: miter; stroke-linecap: square"/>
   </g>
   <g id="patch_4">
    <path d="M 498.560937 173.52 
L 498.560937 7.2 
" style="fill: none; stroke: #000000; stroke-width: 0.8; stroke-linejoin: miter; stroke-linecap: square"/>
   </g>
   <g id="patch_5">
    <path d="M 52.160938 173.52 
L 498.560937 173.52 
" style="fill: none; stroke: #000000; stroke-width: 0.8; stroke-linejoin: miter; stroke-linecap: square"/>
   </g>
   <g id="patch_6">
    <path d="M 52.160938 7.2 
L 498.560937 7.2 
" style="fill: none; stroke: #000000; stroke-width: 0.8; stroke-linejoin: miter; stroke-linecap: square"/>
   </g>
  </g>
 </g>
 <defs>
  <clipPath id="p408d0e99e5">
   <rect x="52.160938" y="7.2" width="446.4" height="166.32"/>
  </clipPath>
 </defs>
</svg>