<?xml version="1.0" encoding="utf-8" standalone="no"?>
<!DOCTYPE svg PUBLIC "-//W3C//DTD SVG 1.1//EN"
  "http://www.w3.org/Graphics/SVG/1.1/DTD/svg11.dtd">
<svg xmlns:xlink="http://www.w3.org/1999/xlink" width="856.747584pt" height="494.2995pt" viewBox="0 0 856.747584 494.2995" xmlns="http://www.w3.org/2000/svg" version="1.1">
 <metadata>
  <rdf:RDF xmlns:dc="http://purl.org/dc/elements/1.1/" xmlns:cc="http://creativecommons.org/ns#" xmlns:rdf="http://www.w3.org/1999/02/22-rdf-syntax-ns#">
   <cc:Work>
    <dc:type rdf:resource="http://purl.org/dc/dcmitype/StillImage"/>
    <dc:date>2023-03-29T03:36:06.874389</dc:date>
    <dc:format>image/svg+xml</dc:format>
    <dc:creator>
     <cc:Agent>
      <dc:title>Matplotlib v3.7.0, https://matplotlib.org/</dc:title>
     </cc:Agent>
    </dc:creator>
   </cc:Work>
  </rdf:RDF>
 </metadata>
 <defs>
  <style type="text/css">*{stroke-linejoin: round; stroke-linecap: butt}</style>
 </defs>
 <g id="figure_1">
  <g id="patch_1">
   <path d="M 0 494.2995 
L 856.747584 494.2995 
L 856.747584 -0 
L 0 -0 
z
" style="fill: #ffffff"/>
  </g>
  <g id="axes_1">
   <g id="patch_2">
    <path d="M 20.5625 247.4875 
L 419.198813 247.4875 
L 419.198813 35.7555 
L 20.5625 35.7555 
z
" style="fill: #ffffff"/>
   </g>
   <g id="matplotlib.axis_1">
    <g id="xtick_1">
     <g id="line2d_1">
      <defs>
       <path id="m5edd61293e" d="M 0 0 
L 0 3.5 
" style="stroke: #000000; stroke-width: 0.8"/>
      </defs>
      <g>
       <use xlink:href="#m5edd61293e" x="44.280443" y="247.4875" style="stroke: #000000; stroke-width: 0.8"/>
      </g>
     </g>
     <g id="text_1">
      <!-- −2 -->
      <g transform="translate(36.90935 262.085938) scale(0.1 -0.1)">
       <defs>
        <path id="DejaVuSans-2212" d="M 678 2272 
L 4684 2272 
L 4684 1741 
L 678 1741 
L 678 2272 
z
" transform="scale(0.015625)"/>
        <path id="DejaVuSans-32" d="M 1228 531 
L 3431 531 
L 3431 0 
L 469 0 
L 469 531 
Q 828 903 1448 1529 
Q 2069 2156 2228 2338 
Q 2531 2678 2651 2914 
Q 2772 3150 2772 3378 
Q 2772 3750 2511 3984 
Q 2250 4219 1831 4219 
Q 1534 4219 1204 4116 
Q 875 4013 500 3803 
L 500 4441 
Q 881 4594 1212 4672 
Q 1544 4750 1819 4750 
Q 2544 4750 2975 4387 
Q 3406 4025 3406 3419 
Q 3406 3131 3298 2873 
Q 3191 2616 2906 2266 
Q 2828 2175 2409 1742 
Q 1991 1309 1228 531 
z
" transform="scale(0.015625)"/>
       </defs>
       <use xlink:href="#DejaVuSans-2212"/>
       <use xlink:href="#DejaVuSans-32" x="83.789062"/>
      </g>
     </g>
    </g>
    <g id="xtick_2">
     <g id="line2d_2">
      <g>
       <use xlink:href="#m5edd61293e" x="132.08055" y="247.4875" style="stroke: #000000; stroke-width: 0.8"/>
      </g>
     </g>
     <g id="text_2">
      <!-- −1 -->
      <g transform="translate(124.709456 262.085938) scale(0.1 -0.1)">
       <defs>
        <path id="DejaVuSans-31" d="M 794 531 
L 1825 531 
L 1825 4091 
L 703 3866 
L 703 4441 
L 1819 4666 
L 2450 4666 
L 2450 531 
L 3481 531 
L 3481 0 
L 794 0 
L 794 531 
z
" transform="scale(0.015625)"/>
       </defs>
       <use xlink:href="#DejaVuSans-2212"/>
       <use xlink:href="#DejaVuSans-31" x="83.789062"/>
      </g>
     </g>
    </g>
    <g id="xtick_3">
     <g id="line2d_3">
      <g>
       <use xlink:href="#m5edd61293e" x="219.880657" y="247.4875" style="stroke: #000000; stroke-width: 0.8"/>
      </g>
     </g>
     <g id="text_3">
      <!-- 0 -->
      <g transform="translate(216.699407 262.085938) scale(0.1 -0.1)">
       <defs>
        <path id="DejaVuSans-30" d="M 2034 4250 
Q 1547 4250 1301 3770 
Q 1056 3291 1056 2328 
Q 1056 1369 1301 889 
Q 1547 409 2034 409 
Q 2525 409 2770 889 
Q 3016 1369 3016 2328 
Q 3016 3291 2770 3770 
Q 2525 4250 2034 4250 
z
M 2034 4750 
Q 2819 4750 3233 4129 
Q 3647 3509 3647 2328 
Q 3647 1150 3233 529 
Q 2819 -91 2034 -91 
Q 1250 -91 836 529 
Q 422 1150 422 2328 
Q 422 3509 836 4129 
Q 1250 4750 2034 4750 
z
" transform="scale(0.015625)"/>
       </defs>
       <use xlink:href="#DejaVuSans-30"/>
      </g>
     </g>
    </g>
    <g id="xtick_4">
     <g id="line2d_4">
      <g>
       <use xlink:href="#m5edd61293e" x="307.680763" y="247.4875" style="stroke: #000000; stroke-width: 0.8"/>
      </g>
     </g>
     <g id="text_4">
      <!-- 1 -->
      <g transform="translate(304.499513 262.085938) scale(0.1 -0.1)">
       <use xlink:href="#DejaVuSans-31"/>
      </g>
     </g>
    </g>
    <g id="xtick_5">
     <g id="line2d_5">
      <g>
       <use xlink:href="#m5edd61293e" x="395.48087" y="247.4875" style="stroke: #000000; stroke-width: 0.8"/>
      </g>
     </g>
     <g id="text_5">
      <!-- 2 -->
      <g transform="translate(392.29962 262.085938) scale(0.1 -0.1)">
       <use xlink:href="#DejaVuSans-32"/>
      </g>
     </g>
    </g>
   </g>
   <g id="matplotlib.axis_2">
    <g id="ytick_1">
     <g id="line2d_6">
      <defs>
       <path id="m7b1b1cf823" d="M 0 0 
L -3.5 0 
" style="stroke: #000000; stroke-width: 0.8"/>
      </defs>
      <g>
       <use xlink:href="#m7b1b1cf823" x="20.5625" y="237.863318" style="stroke: #000000; stroke-width: 0.8"/>
      </g>
     </g>
     <g id="text_6">
      <!-- 0 -->
      <g transform="translate(7.2 241.662537) scale(0.1 -0.1)">
       <use xlink:href="#DejaVuSans-30"/>
      </g>
     </g>
    </g>
    <g id="ytick_2">
     <g id="line2d_7">
      <g>
       <use xlink:href="#m7b1b1cf823" x="20.5625" y="208.449974" style="stroke: #000000; stroke-width: 0.8"/>
      </g>
     </g>
     <g id="text_7">
      <!-- 1 -->
      <g transform="translate(7.2 212.249193) scale(0.1 -0.1)">
       <use xlink:href="#DejaVuSans-31"/>
      </g>
     </g>
    </g>
    <g id="ytick_3">
     <g id="line2d_8">
      <g>
       <use xlink:href="#m7b1b1cf823" x="20.5625" y="179.03663" style="stroke: #000000; stroke-width: 0.8"/>
      </g>
     </g>
     <g id="text_8">
      <!-- 2 -->
      <g transform="translate(7.2 182.835848) scale(0.1 -0.1)">
       <use xlink:href="#DejaVuSans-32"/>
      </g>
     </g>
    </g>
    <g id="ytick_4">
     <g id="line2d_9">
      <g>
       <use xlink:href="#m7b1b1cf823" x="20.5625" y="149.623285" style="stroke: #000000; stroke-width: 0.8"/>
      </g>
     </g>
     <g id="text_9">
      <!-- 3 -->
      <g transform="translate(7.2 153.422504) scale(0.1 -0.1)">
       <defs>
        <path id="DejaVuSans-33" d="M 2597 2516 
Q 3050 2419 3304 2112 
Q 3559 1806 3559 1356 
Q 3559 666 3084 287 
Q 2609 -91 1734 -91 
Q 1441 -91 1130 -33 
Q 819 25 488 141 
L 488 750 
Q 750 597 1062 519 
Q 1375 441 1716 441 
Q 2309 441 2620 675 
Q 2931 909 2931 1356 
Q 2931 1769 2642 2001 
Q 2353 2234 1838 2234 
L 1294 2234 
L 1294 2753 
L 1863 2753 
Q 2328 2753 2575 2939 
Q 2822 3125 2822 3475 
Q 2822 3834 2567 4026 
Q 2313 4219 1838 4219 
Q 1578 4219 1281 4162 
Q 984 4106 628 3988 
L 628 4550 
Q 988 4650 1302 4700 
Q 1616 4750 1894 4750 
Q 2613 4750 3031 4423 
Q 3450 4097 3450 3541 
Q 3450 3153 3228 2886 
Q 3006 2619 2597 2516 
z
" transform="scale(0.015625)"/>
       </defs>
       <use xlink:href="#DejaVuSans-33"/>
      </g>
     </g>
    </g>
    <g id="ytick_5">
     <g id="line2d_10">
      <g>
       <use xlink:href="#m7b1b1cf823" x="20.5625" y="120.209941" style="stroke: #000000; stroke-width: 0.8"/>
      </g>
     </g>
     <g id="text_10">
      <!-- 4 -->
      <g transform="translate(7.2 124.00916) scale(0.1 -0.1)">
       <defs>
        <path id="DejaVuSans-34" d="M 2419 4116 
L 825 1625 
L 2419 1625 
L 2419 4116 
z
M 2253 4666 
L 3047 4666 
L 3047 1625 
L 3713 1625 
L 3713 1100 
L 3047 1100 
L 3047 0 
L 2419 0 
L 2419 1100 
L 313 1100 
L 313 1709 
L 2253 4666 
z
" transform="scale(0.015625)"/>
       </defs>
       <use xlink:href="#DejaVuSans-34"/>
      </g>
     </g>
    </g>
    <g id="ytick_6">
     <g id="line2d_11">
      <g>
       <use xlink:href="#m7b1b1cf823" x="20.5625" y="90.796597" style="stroke: #000000; stroke-width: 0.8"/>
      </g>
     </g>
     <g id="text_11">
      <!-- 5 -->
      <g transform="translate(7.2 94.595815) scale(0.1 -0.1)">
       <defs>
        <path id="DejaVuSans-35" d="M 691 4666 
L 3169 4666 
L 3169 4134 
L 1269 4134 
L 1269 2991 
Q 1406 3038 1543 3061 
Q 1681 3084 1819 3084 
Q 2600 3084 3056 2656 
Q 3513 2228 3513 1497 
Q 3513 744 3044 326 
Q 2575 -91 1722 -91 
Q 1428 -91 1123 -41 
Q 819 9 494 109 
L 494 744 
Q 775 591 1075 516 
Q 1375 441 1709 441 
Q 2250 441 2565 725 
Q 2881 1009 2881 1497 
Q 2881 1984 2565 2268 
Q 2250 2553 1709 2553 
Q 1456 2553 1204 2497 
Q 953 2441 691 2322 
L 691 4666 
z
" transform="scale(0.015625)"/>
       </defs>
       <use xlink:href="#DejaVuSans-35"/>
      </g>
     </g>
    </g>
    <g id="ytick_7">
     <g id="line2d_12">
      <g>
       <use xlink:href="#m7b1b1cf823" x="20.5625" y="61.383252" style="stroke: #000000; stroke-width: 0.8"/>
      </g>
     </g>
     <g id="text_12">
      <!-- 6 -->
      <g transform="translate(7.2 65.182471) scale(0.1 -0.1)">
       <defs>
        <path id="DejaVuSans-36" d="M 2113 2584 
Q 1688 2584 1439 2293 
Q 1191 2003 1191 1497 
Q 1191 994 1439 701 
Q 1688 409 2113 409 
Q 2538 409 2786 701 
Q 3034 994 3034 1497 
Q 3034 2003 2786 2293 
Q 2538 2584 2113 2584 
z
M 3366 4563 
L 3366 3988 
Q 3128 4100 2886 4159 
Q 2644 4219 2406 4219 
Q 1781 4219 1451 3797 
Q 1122 3375 1075 2522 
Q 1259 2794 1537 2939 
Q 1816 3084 2150 3084 
Q 2853 3084 3261 2657 
Q 3669 2231 3669 1497 
Q 3669 778 3244 343 
Q 2819 -91 2113 -91 
Q 1303 -91 875 529 
Q 447 1150 447 2328 
Q 447 3434 972 4092 
Q 1497 4750 2381 4750 
Q 2619 4750 2861 4703 
Q 3103 4656 3366 4563 
z
" transform="scale(0.015625)"/>
       </defs>
       <use xlink:href="#DejaVuSans-36"/>
      </g>
     </g>
    </g>
   </g>
   <g id="line2d_13">
    <path d="M 192.764225 102.166366 
L 197.730216 179.196754 
L 202.696208 205.361067 
L 207.6622 213.324111 
L 212.62819 219.662054 
L 217.594181 223.237303 
L 222.560173 218.849499 
L 227.526164 227.787618 
L 232.492155 223.887345 
L 237.458146 224.699909 
L 242.424139 226.650038 
L 247.39013 230.550309 
L 252.35612 231.687889 
L 257.322111 230.062776 
L 262.288101 232.175426 
L 267.254094 224.537399 
L 272.220088 232.012914 
L 277.186081 232.825465 
L 282.152069 231.200358 
L 287.118062 229.087703 
L 292.08405 230.875336 
L 297.050043 234.450583 
L 302.016036 233.800533 
L 306.982024 234.288075 
L 311.948023 233.312999 
L 316.914011 229.900276 
L 321.880009 234.775602 
L 326.845997 232.500442 
L 331.811985 235.10063 
L 336.777984 234.775602 
L 341.743972 233.312999 
L 346.70996 234.775602 
L 351.675948 234.125556 
L 356.641936 233.800542 
L 361.607934 234.125556 
L 366.573922 235.100624 
L 371.53991 233.800542 
L 376.505908 235.75067 
L 381.471896 236.075693 
L 386.437884 234.775602 
L 391.403872 236.238204 
L 396.36986 234.288075 
L 401.335859 235.913177 
L 406.301836 236.725741 
L 411.267835 236.400719 
L 416.233833 236.725736 
L 421.199811 236.238208 
L 426.165809 236.888252 
L 431.131807 237.375785 
L 436.097806 236.563224 
L 441.063783 237.213274 
L 446.029782 237.213274 
L 450.99578 237.375783 
L 455.961758 237.050763 
L 460.927756 236.888252 
L 465.893755 237.213274 
L 470.859753 236.56323 
L 475.825751 237.863318 
L 480.791729 237.700807 
L 485.757727 237.700807 
L 490.723726 237.863318 
L 495.689703 237.700807 
L 500.655702 237.700807 
L 505.6217 237.863318 
L 510.587678 237.700807 
L 515.553676 237.863318 
L 520.519654 236.888252 
L 525.485652 237.700807 
L 530.451651 237.863318 
L 535.417628 237.863318 
L 540.383627 237.538296 
L 545.349625 237.700807 
L 550.315623 237.863318 
L 555.281622 237.863318 
L 560.247599 237.700807 
L 565.213598 237.863318 
L 570.179596 237.700807 
L 575.145595 237.700806 
L 580.111572 237.863318 
L 585.07755 237.863318 
L 590.043527 237.863318 
L 595.009505 237.863318 
L 599.975524 237.863318 
L 604.941502 237.863318 
L 609.907479 237.863318 
L 614.873498 237.863318 
L 619.839476 237.863318 
L 624.805453 237.863318 
L 629.771473 237.863318 
L 634.73745 237.863318 
L 639.70347 237.863318 
L 644.669447 237.863318 
L 649.635425 237.863318 
L 654.601444 237.863318 
L 659.567422 237.863318 
L 664.533399 237.863318 
L 669.499418 237.863318 
L 674.465396 237.863318 
L 679.431373 237.863318 
L 684.397393 237.700806 
" clip-path="url(#p4968a9c935)" style="fill: none; stroke: #1f77b4; stroke-width: 1.5; stroke-linecap: square"/>
   </g>
   <g id="line2d_14">
    <path d="M 192.764176 53.121352 
L 197.128222 171.659506 
L 201.49227 195.145219 
L 205.856318 210.679064 
L 210.220365 213.822825 
L 214.584412 223.62395 
L 218.948459 227.69234 
L 223.312506 225.103364 
L 227.676554 223.439021 
L 232.0406 225.658146 
L 236.404648 226.212927 
L 240.768696 229.541608 
L 245.132743 229.541608 
L 249.496789 230.651174 
L 253.860839 232.685365 
L 258.224885 229.541608 
L 262.588932 233.240149 
L 266.952981 231.945654 
L 271.317025 232.315514 
L 275.681074 233.055216 
L 280.045118 230.096393 
L 284.409168 231.205954 
L 288.773217 230.466238 
L 293.137261 234.719566 
L 297.501315 233.240149 
L 301.865365 235.829121 
L 306.229409 233.610002 
L 310.593458 234.349705 
L 314.957502 235.459273 
L 319.321556 233.42507 
L 323.6856 234.349705 
L 328.049644 231.760727 
L 332.413688 231.390873 
L 336.777732 233.97986 
L 341.141787 236.014048 
L 345.505831 235.829121 
L 349.869875 235.829126 
L 354.233929 234.164778 
L 358.597973 235.829121 
L 362.962017 236.383902 
L 367.326061 236.014048 
L 371.690105 235.644199 
L 376.05416 236.014048 
L 380.418204 235.644194 
L 384.782248 235.829126 
L 389.146302 236.198975 
L 393.510346 237.12361 
L 397.87439 236.014057 
L 402.238455 237.308537 
L 406.602499 235.829121 
L 410.966543 237.308537 
L 415.330587 236.568835 
L 419.694652 237.308537 
L 424.058696 236.568829 
L 428.42274 236.753756 
L 432.786784 237.123607 
L 437.150807 237.308537 
L 441.514851 237.12361 
L 445.878895 237.308537 
L 450.242939 237.493466 
L 454.607004 236.753756 
L 458.971048 237.308537 
L 463.335092 237.308537 
L 467.699136 236.753756 
L 472.06318 237.308537 
L 476.427224 237.308537 
L 480.791268 237.12361 
L 485.155312 237.493466 
L 489.519377 237.308537 
L 493.883421 237.678391 
L 498.247465 237.308537 
L 502.611509 237.678392 
L 506.975574 237.863318 
L 511.339618 237.863318 
L 515.703662 237.678391 
L 520.067706 237.863318 
L 524.431771 237.863318 
L 528.795815 237.863318 
L 533.159859 237.863318 
L 537.523903 237.863318 
L 541.887947 237.863318 
L 546.251991 237.863318 
L 550.616035 237.678391 
L 554.980079 237.863318 
L 559.344144 237.678391 
L 563.708188 237.863318 
L 568.072232 237.678392 
L 572.436297 237.493462 
L 576.80032 237.678392 
L 581.164385 237.863318 
L 585.528408 237.678392 
L 589.892473 237.863318 
L 594.256496 237.678392 
L 598.620561 237.863318 
L 602.984584 237.863318 
L 607.348649 237.863318 
L 611.712714 237.863318 
L 616.076737 237.678392 
L 620.440802 237.863318 
L 624.804825 237.678392 
" clip-path="url(#p4968a9c935)" style="fill: none; stroke: #ff7f0e; stroke-width: 1.5; stroke-linecap: square"/>
   </g>
   <g id="line2d_15">
    <path d="M 192.764189 58.084638 
L 197.854734 176.034652 
L 202.945278 198.22956 
L 208.035823 213.766 
L 213.126368 218.522047 
L 218.216913 227.241472 
L 223.307458 223.753702 
L 228.398003 224.070772 
L 233.488548 229.143893 
L 238.579094 228.509749 
L 243.669637 228.351218 
L 248.760182 227.875613 
L 253.850728 230.095104 
L 258.941274 232.948733 
L 264.031819 232.473128 
L 269.122365 231.204842 
L 274.212905 232.314593 
L 279.303451 231.680454 
L 284.393996 232.156058 
L 289.484542 232.948733 
L 294.575088 234.53408 
L 299.665628 234.851153 
L 304.756174 234.534083 
L 309.846719 234.85115 
L 314.93726 234.21701 
L 320.0278 235.485296 
L 325.118351 236.595037 
L 330.208891 234.851156 
L 335.299442 236.912107 
L 340.389982 234.851156 
L 345.480533 233.899939 
L 350.571074 235.9609 
L 355.661624 235.643826 
L 360.752165 236.119435 
L 365.842716 236.436502 
L 370.933256 236.753574 
L 376.023807 237.229178 
L 381.114347 236.119435 
L 386.204898 236.753572 
L 391.295438 236.912111 
L 396.386 236.912109 
L 401.476551 236.595034 
L 406.56708 235.643831 
L 411.657631 237.387714 
L 416.748182 237.070644 
L 421.838733 237.704783 
L 426.929263 237.070644 
L 432.019814 237.229176 
L 437.110344 237.387714 
L 442.200894 236.595034 
L 447.291424 237.387714 
L 452.381975 237.387714 
L 457.472526 236.59504 
L 462.563077 237.387712 
L 467.653607 237.546249 
L 472.744158 237.704783 
L 477.834708 237.387714 
L 482.925259 237.704783 
L 488.015789 237.704783 
L 493.10634 237.704783 
L 498.196891 237.546249 
L 503.287442 237.704783 
L 508.377972 237.863318 
L 513.468522 237.546249 
L 518.559073 237.863318 
L 523.649624 237.546247 
L 528.740154 237.704783 
L 533.830705 237.863318 
L 538.921256 237.704783 
L 544.011807 237.863318 
L 549.102336 237.546249 
L 554.192887 237.704783 
L 559.283438 237.863318 
L 564.373989 237.863318 
L 569.464519 237.863318 
L 574.55507 237.863318 
L 579.6456 237.863318 
L 584.736171 237.863318 
L 589.826701 237.863318 
L 594.917273 237.704783 
L 600.007803 237.863318 
L 605.098333 237.863318 
L 610.188905 237.863318 
L 615.279435 237.863318 
L 620.369964 237.863318 
L 625.460536 237.863318 
L 630.551066 237.863318 
L 635.641638 237.863318 
L 640.732168 237.863318 
L 645.822698 237.863318 
L 650.913269 237.704783 
L 656.003799 237.863318 
L 661.094329 237.863318 
L 666.184901 237.863318 
L 671.275431 237.863318 
L 676.366003 237.704783 
L 681.456533 237.863318 
L 686.547063 237.863318 
L 691.637592 237.863318 
L 696.728164 237.704783 
" clip-path="url(#p4968a9c935)" style="fill: none; stroke: #2ca02c; stroke-width: 1.5; stroke-linecap: square"/>
   </g>
   <g id="line2d_16">
    <path d="M 192.764178 56.679885 
L 197.343109 165.072734 
L 201.922043 195.034948 
L 206.500975 204.023621 
L 211.079907 216.889754 
L 215.658839 219.533481 
L 220.237771 224.644686 
L 224.816704 224.29219 
L 229.395636 230.284636 
L 233.974568 223.939692 
L 238.5535 229.403396 
L 243.132434 230.989628 
L 247.711365 233.633355 
L 252.290296 229.932141 
L 256.869229 229.755893 
L 261.448163 230.637127 
L 266.027091 227.817161 
L 270.606025 232.575866 
L 275.184958 232.928358 
L 279.763886 233.809606 
L 284.34282 233.985854 
L 288.921754 233.457104 
L 293.500682 233.457109 
L 298.079615 234.162102 
L 302.658549 234.514599 
L 307.237482 233.457109 
L 311.816416 235.572089 
L 316.39535 234.338342 
L 320.974273 235.219592 
L 325.553206 235.924586 
L 330.13214 236.62958 
L 334.711073 235.043344 
L 339.290007 237.158325 
L 343.86894 235.395841 
L 348.447874 233.633357 
L 353.026807 235.572089 
L 357.605741 234.69084 
L 362.184664 236.277083 
L 366.763597 236.277083 
L 371.342531 236.277086 
L 375.921475 236.62958 
L 380.500409 236.100834 
L 385.079342 236.62958 
L 389.658276 235.924586 
L 394.237209 236.453328 
L 398.816132 236.629582 
L 403.395076 236.277079 
L 407.973999 237.158323 
L 412.552922 236.982074 
L 417.131845 236.629582 
L 421.710789 236.982074 
L 426.289712 237.158326 
L 430.868656 237.334572 
L 435.44758 236.982078 
L 440.026524 237.158323 
L 444.605447 237.510824 
L 449.184412 237.334572 
L 453.763335 237.510822 
L 458.342279 237.863318 
L 462.921202 237.334574 
L 467.500146 237.687069 
L 472.079069 237.68707 
L 476.658013 237.687069 
L 481.236936 237.687069 
L 485.815859 237.687069 
L 490.394782 237.510822 
L 494.973726 237.687069 
L 499.552649 237.510822 
L 504.131593 237.863318 
L 508.710516 237.510822 
L 513.28946 237.863318 
L 517.868383 237.68707 
L 522.447327 237.863318 
L 527.02625 237.68707 
L 531.605194 237.687069 
L 536.184117 237.863318 
L 540.763061 237.687069 
L 545.341984 237.510822 
L 549.920928 237.863318 
L 554.499851 237.863318 
L 559.078774 237.863318 
L 563.657698 237.68707 
L 568.236642 237.863318 
L 572.815565 237.687069 
L 577.394488 237.863318 
L 581.973453 237.863318 
L 586.552376 237.863318 
L 591.131299 237.863318 
L 595.710222 237.863318 
L 600.289145 237.863318 
L 604.868068 237.863318 
L 609.447033 237.863318 
L 614.025956 237.863318 
L 618.604879 237.863318 
L 623.183802 237.863318 
L 627.762767 237.863318 
L 632.34169 237.863318 
L 636.920613 237.863318 
L 641.499578 237.863318 
L 646.078501 237.687069 
" clip-path="url(#p4968a9c935)" style="fill: none; stroke: #d62728; stroke-width: 1.5; stroke-linecap: square"/>
   </g>
   <g id="line2d_17">
    <path d="M 192.764176 45.379682 
L 196.290251 152.493109 
L 199.81633 182.017884 
L 203.342406 187.510898 
L 206.868483 206.965241 
L 210.39456 205.591992 
L 213.920637 212.458232 
L 217.446713 212.229357 
L 220.97279 217.035725 
L 224.498867 228.021708 
L 228.024944 229.852705 
L 231.55102 221.384343 
L 235.077098 226.419587 
L 238.603175 226.648457 
L 242.129251 226.877341 
L 245.655329 227.335081 
L 249.181405 231.225952 
L 252.707481 229.623834 
L 256.233559 233.056949 
L 259.759635 230.310458 
L 263.285714 233.28582 
L 266.811787 232.141455 
L 270.337865 233.285827 
L 273.863944 233.972445 
L 277.390017 231.454831 
L 280.916096 234.430195 
L 284.442169 235.574573 
L 287.968247 234.659075 
L 291.494326 230.768197 
L 295.020399 234.4302 
L 298.546478 235.574573 
L 302.072556 235.116824 
L 305.598635 231.91258 
L 309.124713 235.345698 
L 312.650791 234.887949 
L 316.17687 234.659065 
L 319.702938 236.032322 
L 323.229016 236.94782 
L 326.755095 235.803447 
L 330.281173 236.261196 
L 333.807252 235.803447 
L 337.33333 236.032322 
L 340.859409 234.659075 
L 344.385487 235.345691 
L 347.911555 235.574573 
L 351.437634 236.490071 
L 354.963712 236.490071 
L 358.489791 237.176693 
L 362.015859 236.94782 
L 365.541937 237.176695 
L 369.068016 237.176695 
L 372.594094 236.032316 
L 376.120162 235.345698 
L 379.646241 236.718945 
L 383.172319 237.176695 
L 386.698398 236.94782 
L 390.224476 237.176695 
L 393.750555 237.405568 
L 397.276623 236.947823 
L 400.802712 237.176693 
L 404.32878 236.947823 
L 407.854869 237.863318 
L 411.380937 237.405568 
L 414.907005 237.634444 
L 418.433094 237.634443 
L 421.959162 237.40557 
L 425.48525 237.863318 
L 429.011318 237.40557 
L 432.537407 237.634443 
L 436.063475 237.40557 
L 439.589564 237.176693 
L 443.115632 236.947817 
L 446.6417 237.863318 
L 450.167768 237.40557 
L 453.693857 237.405568 
L 457.219925 237.634444 
L 460.746014 237.863318 
L 464.272082 237.863318 
L 467.798171 237.863318 
L 471.324239 237.634443 
L 474.850307 237.863318 
L 478.376375 237.176697 
L 481.902464 237.863318 
L 485.428532 237.40557 
L 488.954621 237.634443 
L 492.480689 237.634444 
L 496.006778 237.634443 
L 499.532846 237.863318 
L 503.058935 237.863318 
L 506.585003 237.863318 
L 510.111092 237.863318 
L 513.63716 237.863318 
L 517.163249 237.405568 
L 520.689317 237.863318 
L 524.215406 237.863318 
L 527.741474 237.634443 
L 531.267542 237.863318 
L 534.793631 237.634443 
L 538.319699 237.863318 
L 541.845788 237.634443 
" clip-path="url(#p4968a9c935)" style="fill: none; stroke: #9467bd; stroke-width: 1.5; stroke-linecap: square"/>
   </g>
   <g id="patch_3">
    <path d="M 20.5625 247.4875 
L 20.5625 35.7555 
" style="fill: none; stroke: #000000; stroke-width: 0.8; stroke-linejoin: miter; stroke-linecap: square"/>
   </g>
   <g id="patch_4">
    <path d="M 419.198813 247.4875 
L 419.198813 35.7555 
" style="fill: none; stroke: #000000; stroke-width: 0.8; stroke-linejoin: miter; stroke-linecap: square"/>
   </g>
   <g id="patch_5">
    <path d="M 20.5625 247.4875 
L 419.198813 247.4875 
" style="fill: none; stroke: #000000; stroke-width: 0.8; stroke-linejoin: miter; stroke-linecap: square"/>
   </g>
   <g id="patch_6">
    <path d="M 20.5625 35.7555 
L 419.198813 35.7555 
" style="fill: none; stroke: #000000; stroke-width: 0.8; stroke-linejoin: miter; stroke-linecap: square"/>
   </g>
   <g id="text_13">
    <!-- Activation histogram -->
    <g transform="translate(157.520032 16.318125) scale(0.12 -0.12)">
     <defs>
      <path id="DejaVuSans-41" d="M 2188 4044 
L 1331 1722 
L 3047 1722 
L 2188 4044 
z
M 1831 4666 
L 2547 4666 
L 4325 0 
L 3669 0 
L 3244 1197 
L 1141 1197 
L 716 0 
L 50 0 
L 1831 4666 
z
" transform="scale(0.015625)"/>
      <path id="DejaVuSans-63" d="M 3122 3366 
L 3122 2828 
Q 2878 2963 2633 3030 
Q 2388 3097 2138 3097 
Q 1578 3097 1268 2742 
Q 959 2388 959 1747 
Q 959 1106 1268 751 
Q 1578 397 2138 397 
Q 2388 397 2633 464 
Q 2878 531 3122 666 
L 3122 134 
Q 2881 22 2623 -34 
Q 2366 -91 2075 -91 
Q 1284 -91 818 406 
Q 353 903 353 1747 
Q 353 2603 823 3093 
Q 1294 3584 2113 3584 
Q 2378 3584 2631 3529 
Q 2884 3475 3122 3366 
z
" transform="scale(0.015625)"/>
      <path id="DejaVuSans-74" d="M 1172 4494 
L 1172 3500 
L 2356 3500 
L 2356 3053 
L 1172 3053 
L 1172 1153 
Q 1172 725 1289 603 
Q 1406 481 1766 481 
L 2356 481 
L 2356 0 
L 1766 0 
Q 1100 0 847 248 
Q 594 497 594 1153 
L 594 3053 
L 172 3053 
L 172 3500 
L 594 3500 
L 594 4494 
L 1172 4494 
z
" transform="scale(0.015625)"/>
      <path id="DejaVuSans-69" d="M 603 3500 
L 1178 3500 
L 1178 0 
L 603 0 
L 603 3500 
z
M 603 4863 
L 1178 4863 
L 1178 4134 
L 603 4134 
L 603 4863 
z
" transform="scale(0.015625)"/>
      <path id="DejaVuSans-76" d="M 191 3500 
L 800 3500 
L 1894 563 
L 2988 3500 
L 3597 3500 
L 2284 0 
L 1503 0 
L 191 3500 
z
" transform="scale(0.015625)"/>
      <path id="DejaVuSans-61" d="M 2194 1759 
Q 1497 1759 1228 1600 
Q 959 1441 959 1056 
Q 959 750 1161 570 
Q 1363 391 1709 391 
Q 2188 391 2477 730 
Q 2766 1069 2766 1631 
L 2766 1759 
L 2194 1759 
z
M 3341 1997 
L 3341 0 
L 2766 0 
L 2766 531 
Q 2569 213 2275 61 
Q 1981 -91 1556 -91 
Q 1019 -91 701 211 
Q 384 513 384 1019 
Q 384 1609 779 1909 
Q 1175 2209 1959 2209 
L 2766 2209 
L 2766 2266 
Q 2766 2663 2505 2880 
Q 2244 3097 1772 3097 
Q 1472 3097 1187 3025 
Q 903 2953 641 2809 
L 641 3341 
Q 956 3463 1253 3523 
Q 1550 3584 1831 3584 
Q 2591 3584 2966 3190 
Q 3341 2797 3341 1997 
z
" transform="scale(0.015625)"/>
      <path id="DejaVuSans-6f" d="M 1959 3097 
Q 1497 3097 1228 2736 
Q 959 2375 959 1747 
Q 959 1119 1226 758 
Q 1494 397 1959 397 
Q 2419 397 2687 759 
Q 2956 1122 2956 1747 
Q 2956 2369 2687 2733 
Q 2419 3097 1959 3097 
z
M 1959 3584 
Q 2709 3584 3137 3096 
Q 3566 2609 3566 1747 
Q 3566 888 3137 398 
Q 2709 -91 1959 -91 
Q 1206 -91 779 398 
Q 353 888 353 1747 
Q 353 2609 779 3096 
Q 1206 3584 1959 3584 
z
" transform="scale(0.015625)"/>
      <path id="DejaVuSans-6e" d="M 3513 2113 
L 3513 0 
L 2938 0 
L 2938 2094 
Q 2938 2591 2744 2837 
Q 2550 3084 2163 3084 
Q 1697 3084 1428 2787 
Q 1159 2491 1159 1978 
L 1159 0 
L 581 0 
L 581 3500 
L 1159 3500 
L 1159 2956 
Q 1366 3272 1645 3428 
Q 1925 3584 2291 3584 
Q 2894 3584 3203 3211 
Q 3513 2838 3513 2113 
z
" transform="scale(0.015625)"/>
      <path id="DejaVuSans-20" transform="scale(0.015625)"/>
      <path id="DejaVuSans-68" d="M 3513 2113 
L 3513 0 
L 2938 0 
L 2938 2094 
Q 2938 2591 2744 2837 
Q 2550 3084 2163 3084 
Q 1697 3084 1428 2787 
Q 1159 2491 1159 1978 
L 1159 0 
L 581 0 
L 581 4863 
L 1159 4863 
L 1159 2956 
Q 1366 3272 1645 3428 
Q 1925 3584 2291 3584 
Q 2894 3584 3203 3211 
Q 3513 2838 3513 2113 
z
" transform="scale(0.015625)"/>
      <path id="DejaVuSans-73" d="M 2834 3397 
L 2834 2853 
Q 2591 2978 2328 3040 
Q 2066 3103 1784 3103 
Q 1356 3103 1142 2972 
Q 928 2841 928 2578 
Q 928 2378 1081 2264 
Q 1234 2150 1697 2047 
L 1894 2003 
Q 2506 1872 2764 1633 
Q 3022 1394 3022 966 
Q 3022 478 2636 193 
Q 2250 -91 1575 -91 
Q 1294 -91 989 -36 
Q 684 19 347 128 
L 347 722 
Q 666 556 975 473 
Q 1284 391 1588 391 
Q 1994 391 2212 530 
Q 2431 669 2431 922 
Q 2431 1156 2273 1281 
Q 2116 1406 1581 1522 
L 1381 1569 
Q 847 1681 609 1914 
Q 372 2147 372 2553 
Q 372 3047 722 3315 
Q 1072 3584 1716 3584 
Q 2034 3584 2315 3537 
Q 2597 3491 2834 3397 
z
" transform="scale(0.015625)"/>
      <path id="DejaVuSans-67" d="M 2906 1791 
Q 2906 2416 2648 2759 
Q 2391 3103 1925 3103 
Q 1463 3103 1205 2759 
Q 947 2416 947 1791 
Q 947 1169 1205 825 
Q 1463 481 1925 481 
Q 2391 481 2648 825 
Q 2906 1169 2906 1791 
z
M 3481 434 
Q 3481 -459 3084 -895 
Q 2688 -1331 1869 -1331 
Q 1566 -1331 1297 -1286 
Q 1028 -1241 775 -1147 
L 775 -588 
Q 1028 -725 1275 -790 
Q 1522 -856 1778 -856 
Q 2344 -856 2625 -561 
Q 2906 -266 2906 331 
L 2906 616 
Q 2728 306 2450 153 
Q 2172 0 1784 0 
Q 1141 0 747 490 
Q 353 981 353 1791 
Q 353 2603 747 3093 
Q 1141 3584 1784 3584 
Q 2172 3584 2450 3431 
Q 2728 3278 2906 2969 
L 2906 3500 
L 3481 3500 
L 3481 434 
z
" transform="scale(0.015625)"/>
      <path id="DejaVuSans-72" d="M 2631 2963 
Q 2534 3019 2420 3045 
Q 2306 3072 2169 3072 
Q 1681 3072 1420 2755 
Q 1159 2438 1159 1844 
L 1159 0 
L 581 0 
L 581 3500 
L 1159 3500 
L 1159 2956 
Q 1341 3275 1631 3429 
Q 1922 3584 2338 3584 
Q 2397 3584 2469 3576 
Q 2541 3569 2628 3553 
L 2631 2963 
z
" transform="scale(0.015625)"/>
      <path id="DejaVuSans-6d" d="M 3328 2828 
Q 3544 3216 3844 3400 
Q 4144 3584 4550 3584 
Q 5097 3584 5394 3201 
Q 5691 2819 5691 2113 
L 5691 0 
L 5113 0 
L 5113 2094 
Q 5113 2597 4934 2840 
Q 4756 3084 4391 3084 
Q 3944 3084 3684 2787 
Q 3425 2491 3425 1978 
L 3425 0 
L 2847 0 
L 2847 2094 
Q 2847 2600 2669 2842 
Q 2491 3084 2119 3084 
Q 1678 3084 1418 2786 
Q 1159 2488 1159 1978 
L 1159 0 
L 581 0 
L 581 3500 
L 1159 3500 
L 1159 2956 
Q 1356 3278 1631 3431 
Q 1906 3584 2284 3584 
Q 2666 3584 2933 3390 
Q 3200 3197 3328 2828 
z
" transform="scale(0.015625)"/>
     </defs>
     <use xlink:href="#DejaVuSans-41"/>
     <use xlink:href="#DejaVuSans-63" x="66.658203"/>
     <use xlink:href="#DejaVuSans-74" x="121.638672"/>
     <use xlink:href="#DejaVuSans-69" x="160.847656"/>
     <use xlink:href="#DejaVuSans-76" x="188.630859"/>
     <use xlink:href="#DejaVuSans-61" x="247.810547"/>
     <use xlink:href="#DejaVuSans-74" x="309.089844"/>
     <use xlink:href="#DejaVuSans-69" x="348.298828"/>
     <use xlink:href="#DejaVuSans-6f" x="376.082031"/>
     <use xlink:href="#DejaVuSans-6e" x="437.263672"/>
     <use xlink:href="#DejaVuSans-20" x="500.642578"/>
     <use xlink:href="#DejaVuSans-68" x="532.429688"/>
     <use xlink:href="#DejaVuSans-69" x="595.808594"/>
     <use xlink:href="#DejaVuSans-73" x="623.591797"/>
     <use xlink:href="#DejaVuSans-74" x="675.691406"/>
     <use xlink:href="#DejaVuSans-6f" x="714.900391"/>
     <use xlink:href="#DejaVuSans-67" x="776.082031"/>
     <use xlink:href="#DejaVuSans-72" x="839.558594"/>
     <use xlink:href="#DejaVuSans-61" x="880.671875"/>
     <use xlink:href="#DejaVuSans-6d" x="941.951172"/>
    </g>
    <!-- gain=1.41, BN=False, act=Mish, n_hidden=4, lr=1e-01 -->
    <g transform="translate(53.757532 29.7555) scale(0.12 -0.12)">
     <defs>
      <path id="DejaVuSans-3d" d="M 678 2906 
L 4684 2906 
L 4684 2381 
L 678 2381 
L 678 2906 
z
M 678 1631 
L 4684 1631 
L 4684 1100 
L 678 1100 
L 678 1631 
z
" transform="scale(0.015625)"/>
      <path id="DejaVuSans-2e" d="M 684 794 
L 1344 794 
L 1344 0 
L 684 0 
L 684 794 
z
" transform="scale(0.015625)"/>
      <path id="DejaVuSans-2c" d="M 750 794 
L 1409 794 
L 1409 256 
L 897 -744 
L 494 -744 
L 750 256 
L 750 794 
z
" transform="scale(0.015625)"/>
      <path id="DejaVuSans-42" d="M 1259 2228 
L 1259 519 
L 2272 519 
Q 2781 519 3026 730 
Q 3272 941 3272 1375 
Q 3272 1813 3026 2020 
Q 2781 2228 2272 2228 
L 1259 2228 
z
M 1259 4147 
L 1259 2741 
L 2194 2741 
Q 2656 2741 2882 2914 
Q 3109 3088 3109 3444 
Q 3109 3797 2882 3972 
Q 2656 4147 2194 4147 
L 1259 4147 
z
M 628 4666 
L 2241 4666 
Q 2963 4666 3353 4366 
Q 3744 4066 3744 3513 
Q 3744 3084 3544 2831 
Q 3344 2578 2956 2516 
Q 3422 2416 3680 2098 
Q 3938 1781 3938 1306 
Q 3938 681 3513 340 
Q 3088 0 2303 0 
L 628 0 
L 628 4666 
z
" transform="scale(0.015625)"/>
      <path id="DejaVuSans-4e" d="M 628 4666 
L 1478 4666 
L 3547 763 
L 3547 4666 
L 4159 4666 
L 4159 0 
L 3309 0 
L 1241 3903 
L 1241 0 
L 628 0 
L 628 4666 
z
" transform="scale(0.015625)"/>
      <path id="DejaVuSans-46" d="M 628 4666 
L 3309 4666 
L 3309 4134 
L 1259 4134 
L 1259 2759 
L 3109 2759 
L 3109 2228 
L 1259 2228 
L 1259 0 
L 628 0 
L 628 4666 
z
" transform="scale(0.015625)"/>
      <path id="DejaVuSans-6c" d="M 603 4863 
L 1178 4863 
L 1178 0 
L 603 0 
L 603 4863 
z
" transform="scale(0.015625)"/>
      <path id="DejaVuSans-65" d="M 3597 1894 
L 3597 1613 
L 953 1613 
Q 991 1019 1311 708 
Q 1631 397 2203 397 
Q 2534 397 2845 478 
Q 3156 559 3463 722 
L 3463 178 
Q 3153 47 2828 -22 
Q 2503 -91 2169 -91 
Q 1331 -91 842 396 
Q 353 884 353 1716 
Q 353 2575 817 3079 
Q 1281 3584 2069 3584 
Q 2775 3584 3186 3129 
Q 3597 2675 3597 1894 
z
M 3022 2063 
Q 3016 2534 2758 2815 
Q 2500 3097 2075 3097 
Q 1594 3097 1305 2825 
Q 1016 2553 972 2059 
L 3022 2063 
z
" transform="scale(0.015625)"/>
      <path id="DejaVuSans-4d" d="M 628 4666 
L 1569 4666 
L 2759 1491 
L 3956 4666 
L 4897 4666 
L 4897 0 
L 4281 0 
L 4281 4097 
L 3078 897 
L 2444 897 
L 1241 4097 
L 1241 0 
L 628 0 
L 628 4666 
z
" transform="scale(0.015625)"/>
      <path id="DejaVuSans-5f" d="M 3263 -1063 
L 3263 -1509 
L -63 -1509 
L -63 -1063 
L 3263 -1063 
z
" transform="scale(0.015625)"/>
      <path id="DejaVuSans-64" d="M 2906 2969 
L 2906 4863 
L 3481 4863 
L 3481 0 
L 2906 0 
L 2906 525 
Q 2725 213 2448 61 
Q 2172 -91 1784 -91 
Q 1150 -91 751 415 
Q 353 922 353 1747 
Q 353 2572 751 3078 
Q 1150 3584 1784 3584 
Q 2172 3584 2448 3432 
Q 2725 3281 2906 2969 
z
M 947 1747 
Q 947 1113 1208 752 
Q 1469 391 1925 391 
Q 2381 391 2643 752 
Q 2906 1113 2906 1747 
Q 2906 2381 2643 2742 
Q 2381 3103 1925 3103 
Q 1469 3103 1208 2742 
Q 947 2381 947 1747 
z
" transform="scale(0.015625)"/>
      <path id="DejaVuSans-2d" d="M 313 2009 
L 1997 2009 
L 1997 1497 
L 313 1497 
L 313 2009 
z
" transform="scale(0.015625)"/>
     </defs>
     <use xlink:href="#DejaVuSans-67"/>
     <use xlink:href="#DejaVuSans-61" x="63.476562"/>
     <use xlink:href="#DejaVuSans-69" x="124.755859"/>
     <use xlink:href="#DejaVuSans-6e" x="152.539062"/>
     <use xlink:href="#DejaVuSans-3d" x="215.917969"/>
     <use xlink:href="#DejaVuSans-31" x="299.707031"/>
     <use xlink:href="#DejaVuSans-2e" x="363.330078"/>
     <use xlink:href="#DejaVuSans-34" x="395.117188"/>
     <use xlink:href="#DejaVuSans-31" x="458.740234"/>
     <use xlink:href="#DejaVuSans-2c" x="522.363281"/>
     <use xlink:href="#DejaVuSans-20" x="554.150391"/>
     <use xlink:href="#DejaVuSans-42" x="585.9375"/>
     <use xlink:href="#DejaVuSans-4e" x="654.541016"/>
     <use xlink:href="#DejaVuSans-3d" x="729.345703"/>
     <use xlink:href="#DejaVuSans-46" x="813.134766"/>
     <use xlink:href="#DejaVuSans-61" x="861.529297"/>
     <use xlink:href="#DejaVuSans-6c" x="922.808594"/>
     <use xlink:href="#DejaVuSans-73" x="950.591797"/>
     <use xlink:href="#DejaVuSans-65" x="1002.691406"/>
     <use xlink:href="#DejaVuSans-2c" x="1064.214844"/>
     <use xlink:href="#DejaVuSans-20" x="1096.001953"/>
     <use xlink:href="#DejaVuSans-61" x="1127.789062"/>
     <use xlink:href="#DejaVuSans-63" x="1189.068359"/>
     <use xlink:href="#DejaVuSans-74" x="1244.048828"/>
     <use xlink:href="#DejaVuSans-3d" x="1283.257812"/>
     <use xlink:href="#DejaVuSans-4d" x="1367.046875"/>
     <use xlink:href="#DejaVuSans-69" x="1453.326172"/>
     <use xlink:href="#DejaVuSans-73" x="1481.109375"/>
     <use xlink:href="#DejaVuSans-68" x="1533.208984"/>
     <use xlink:href="#DejaVuSans-2c" x="1596.587891"/>
     <use xlink:href="#DejaVuSans-20" x="1628.375"/>
     <use xlink:href="#DejaVuSans-6e" x="1660.162109"/>
     <use xlink:href="#DejaVuSans-5f" x="1723.541016"/>
     <use xlink:href="#DejaVuSans-68" x="1773.541016"/>
     <use xlink:href="#DejaVuSans-69" x="1836.919922"/>
     <use xlink:href="#DejaVuSans-64" x="1864.703125"/>
     <use xlink:href="#DejaVuSans-64" x="1928.179688"/>
     <use xlink:href="#DejaVuSans-65" x="1991.65625"/>
     <use xlink:href="#DejaVuSans-6e" x="2053.179688"/>
     <use xlink:href="#DejaVuSans-3d" x="2116.558594"/>
     <use xlink:href="#DejaVuSans-34" x="2200.347656"/>
     <use xlink:href="#DejaVuSans-2c" x="2263.970703"/>
     <use xlink:href="#DejaVuSans-20" x="2295.757812"/>
     <use xlink:href="#DejaVuSans-6c" x="2327.544922"/>
     <use xlink:href="#DejaVuSans-72" x="2355.328125"/>
     <use xlink:href="#DejaVuSans-3d" x="2396.441406"/>
     <use xlink:href="#DejaVuSans-31" x="2480.230469"/>
     <use xlink:href="#DejaVuSans-65" x="2543.853516"/>
     <use xlink:href="#DejaVuSans-2d" x="2605.376953"/>
     <use xlink:href="#DejaVuSans-30" x="2641.460938"/>
     <use xlink:href="#DejaVuSans-31" x="2705.083984"/>
    </g>
   </g>
   <g id="legend_1">
    <g id="patch_7">
     <path d="M 341.342563 117.146125 
L 412.198813 117.146125 
Q 414.198813 117.146125 414.198813 115.146125 
L 414.198813 42.7555 
Q 414.198813 40.7555 412.198813 40.7555 
L 341.342563 40.7555 
Q 339.342563 40.7555 339.342563 42.7555 
L 339.342563 115.146125 
Q 339.342563 117.146125 341.342563 117.146125 
z
" style="fill: #ffffff; opacity: 0.8; stroke: #cccccc; stroke-linejoin: miter"/>
    </g>
    <g id="line2d_18">
     <path d="M 343.342563 48.853937 
L 353.342563 48.853937 
L 363.342563 48.853937 
" style="fill: none; stroke: #1f77b4; stroke-width: 1.5; stroke-linecap: square"/>
    </g>
    <g id="text_14">
     <!-- Mish.2 -->
     <g transform="translate(371.342563 52.353937) scale(0.1 -0.1)">
      <use xlink:href="#DejaVuSans-4d"/>
      <use xlink:href="#DejaVuSans-69" x="86.279297"/>
      <use xlink:href="#DejaVuSans-73" x="114.0625"/>
      <use xlink:href="#DejaVuSans-68" x="166.162109"/>
      <use xlink:href="#DejaVuSans-2e" x="229.541016"/>
      <use xlink:href="#DejaVuSans-32" x="261.328125"/>
     </g>
    </g>
    <g id="line2d_19">
     <path d="M 343.342563 63.532062 
L 353.342563 63.532062 
L 363.342563 63.532062 
" style="fill: none; stroke: #ff7f0e; stroke-width: 1.5; stroke-linecap: square"/>
    </g>
    <g id="text_15">
     <!-- Mish.4 -->
     <g transform="translate(371.342563 67.032062) scale(0.1 -0.1)">
      <use xlink:href="#DejaVuSans-4d"/>
      <use xlink:href="#DejaVuSans-69" x="86.279297"/>
      <use xlink:href="#DejaVuSans-73" x="114.0625"/>
      <use xlink:href="#DejaVuSans-68" x="166.162109"/>
      <use xlink:href="#DejaVuSans-2e" x="229.541016"/>
      <use xlink:href="#DejaVuSans-34" x="261.328125"/>
     </g>
    </g>
    <g id="line2d_20">
     <path d="M 343.342563 78.210187 
L 353.342563 78.210187 
L 363.342563 78.210187 
" style="fill: none; stroke: #2ca02c; stroke-width: 1.5; stroke-linecap: square"/>
    </g>
    <g id="text_16">
     <!-- Mish.6 -->
     <g transform="translate(371.342563 81.710187) scale(0.1 -0.1)">
      <use xlink:href="#DejaVuSans-4d"/>
      <use xlink:href="#DejaVuSans-69" x="86.279297"/>
      <use xlink:href="#DejaVuSans-73" x="114.0625"/>
      <use xlink:href="#DejaVuSans-68" x="166.162109"/>
      <use xlink:href="#DejaVuSans-2e" x="229.541016"/>
      <use xlink:href="#DejaVuSans-36" x="261.328125"/>
     </g>
    </g>
    <g id="line2d_21">
     <path d="M 343.342563 92.888312 
L 353.342563 92.888312 
L 363.342563 92.888312 
" style="fill: none; stroke: #d62728; stroke-width: 1.5; stroke-linecap: square"/>
    </g>
    <g id="text_17">
     <!-- Mish.8 -->
     <g transform="translate(371.342563 96.388312) scale(0.1 -0.1)">
      <defs>
       <path id="DejaVuSans-38" d="M 2034 2216 
Q 1584 2216 1326 1975 
Q 1069 1734 1069 1313 
Q 1069 891 1326 650 
Q 1584 409 2034 409 
Q 2484 409 2743 651 
Q 3003 894 3003 1313 
Q 3003 1734 2745 1975 
Q 2488 2216 2034 2216 
z
M 1403 2484 
Q 997 2584 770 2862 
Q 544 3141 544 3541 
Q 544 4100 942 4425 
Q 1341 4750 2034 4750 
Q 2731 4750 3128 4425 
Q 3525 4100 3525 3541 
Q 3525 3141 3298 2862 
Q 3072 2584 2669 2484 
Q 3125 2378 3379 2068 
Q 3634 1759 3634 1313 
Q 3634 634 3220 271 
Q 2806 -91 2034 -91 
Q 1263 -91 848 271 
Q 434 634 434 1313 
Q 434 1759 690 2068 
Q 947 2378 1403 2484 
z
M 1172 3481 
Q 1172 3119 1398 2916 
Q 1625 2713 2034 2713 
Q 2441 2713 2670 2916 
Q 2900 3119 2900 3481 
Q 2900 3844 2670 4047 
Q 2441 4250 2034 4250 
Q 1625 4250 1398 4047 
Q 1172 3844 1172 3481 
z
" transform="scale(0.015625)"/>
      </defs>
      <use xlink:href="#DejaVuSans-4d"/>
      <use xlink:href="#DejaVuSans-69" x="86.279297"/>
      <use xlink:href="#DejaVuSans-73" x="114.0625"/>
      <use xlink:href="#DejaVuSans-68" x="166.162109"/>
      <use xlink:href="#DejaVuSans-2e" x="229.541016"/>
      <use xlink:href="#DejaVuSans-38" x="261.328125"/>
     </g>
    </g>
    <g id="line2d_22">
     <path d="M 343.342563 107.566437 
L 353.342563 107.566437 
L 363.342563 107.566437 
" style="fill: none; stroke: #9467bd; stroke-width: 1.5; stroke-linecap: square"/>
    </g>
    <g id="text_18">
     <!-- Mish.10 -->
     <g transform="translate(371.342563 111.066437) scale(0.1 -0.1)">
      <use xlink:href="#DejaVuSans-4d"/>
      <use xlink:href="#DejaVuSans-69" x="86.279297"/>
      <use xlink:href="#DejaVuSans-73" x="114.0625"/>
      <use xlink:href="#DejaVuSans-68" x="166.162109"/>
      <use xlink:href="#DejaVuSans-2e" x="229.541016"/>
      <use xlink:href="#DejaVuSans-31" x="261.328125"/>
      <use xlink:href="#DejaVuSans-30" x="324.951172"/>
     </g>
    </g>
   </g>
  </g>
  <g id="axes_2">
   <g id="patch_8">
    <path d="M 443.388813 247.4875 
L 842.025127 247.4875 
L 842.025127 35.7555 
L 443.388813 35.7555 
z
" style="fill: #ffffff"/>
   </g>
   <g id="matplotlib.axis_3">
    <g id="xtick_6">
     <g id="line2d_23">
      <g>
       <use xlink:href="#m5edd61293e" x="443.817918" y="247.4875" style="stroke: #000000; stroke-width: 0.8"/>
      </g>
     </g>
     <g id="text_19">
      <!-- −2.0 -->
      <g transform="translate(431.676512 262.085938) scale(0.1 -0.1)">
       <use xlink:href="#DejaVuSans-2212"/>
       <use xlink:href="#DejaVuSans-32" x="83.789062"/>
       <use xlink:href="#DejaVuSans-2e" x="147.412109"/>
       <use xlink:href="#DejaVuSans-30" x="179.199219"/>
      </g>
     </g>
    </g>
    <g id="xtick_7">
     <g id="line2d_24">
      <g>
       <use xlink:href="#m5edd61293e" x="493.540181" y="247.4875" style="stroke: #000000; stroke-width: 0.8"/>
      </g>
     </g>
     <g id="text_20">
      <!-- −1.5 -->
      <g transform="translate(481.398775 262.085938) scale(0.1 -0.1)">
       <use xlink:href="#DejaVuSans-2212"/>
       <use xlink:href="#DejaVuSans-31" x="83.789062"/>
       <use xlink:href="#DejaVuSans-2e" x="147.412109"/>
       <use xlink:href="#DejaVuSans-35" x="179.199219"/>
      </g>
     </g>
    </g>
    <g id="xtick_8">
     <g id="line2d_25">
      <g>
       <use xlink:href="#m5edd61293e" x="543.262444" y="247.4875" style="stroke: #000000; stroke-width: 0.8"/>
      </g>
     </g>
     <g id="text_21">
      <!-- −1.0 -->
      <g transform="translate(531.121038 262.085938) scale(0.1 -0.1)">
       <use xlink:href="#DejaVuSans-2212"/>
       <use xlink:href="#DejaVuSans-31" x="83.789062"/>
       <use xlink:href="#DejaVuSans-2e" x="147.412109"/>
       <use xlink:href="#DejaVuSans-30" x="179.199219"/>
      </g>
     </g>
    </g>
    <g id="xtick_9">
     <g id="line2d_26">
      <g>
       <use xlink:href="#m5edd61293e" x="592.984707" y="247.4875" style="stroke: #000000; stroke-width: 0.8"/>
      </g>
     </g>
     <g id="text_22">
      <!-- −0.5 -->
      <g transform="translate(580.843301 262.085938) scale(0.1 -0.1)">
       <use xlink:href="#DejaVuSans-2212"/>
       <use xlink:href="#DejaVuSans-30" x="83.789062"/>
       <use xlink:href="#DejaVuSans-2e" x="147.412109"/>
       <use xlink:href="#DejaVuSans-35" x="179.199219"/>
      </g>
     </g>
    </g>
    <g id="xtick_10">
     <g id="line2d_27">
      <g>
       <use xlink:href="#m5edd61293e" x="642.70697" y="247.4875" style="stroke: #000000; stroke-width: 0.8"/>
      </g>
     </g>
     <g id="text_23">
      <!-- 0.0 -->
      <g transform="translate(634.755408 262.085938) scale(0.1 -0.1)">
       <use xlink:href="#DejaVuSans-30"/>
       <use xlink:href="#DejaVuSans-2e" x="63.623047"/>
       <use xlink:href="#DejaVuSans-30" x="95.410156"/>
      </g>
     </g>
    </g>
    <g id="xtick_11">
     <g id="line2d_28">
      <g>
       <use xlink:href="#m5edd61293e" x="692.429233" y="247.4875" style="stroke: #000000; stroke-width: 0.8"/>
      </g>
     </g>
     <g id="text_24">
      <!-- 0.5 -->
      <g transform="translate(684.477671 262.085938) scale(0.1 -0.1)">
       <use xlink:href="#DejaVuSans-30"/>
       <use xlink:href="#DejaVuSans-2e" x="63.623047"/>
       <use xlink:href="#DejaVuSans-35" x="95.410156"/>
      </g>
     </g>
    </g>
    <g id="xtick_12">
     <g id="line2d_29">
      <g>
       <use xlink:href="#m5edd61293e" x="742.151496" y="247.4875" style="stroke: #000000; stroke-width: 0.8"/>
      </g>
     </g>
     <g id="text_25">
      <!-- 1.0 -->
      <g transform="translate(734.199933 262.085938) scale(0.1 -0.1)">
       <use xlink:href="#DejaVuSans-31"/>
       <use xlink:href="#DejaVuSans-2e" x="63.623047"/>
       <use xlink:href="#DejaVuSans-30" x="95.410156"/>
      </g>
     </g>
    </g>
    <g id="xtick_13">
     <g id="line2d_30">
      <g>
       <use xlink:href="#m5edd61293e" x="791.873759" y="247.4875" style="stroke: #000000; stroke-width: 0.8"/>
      </g>
     </g>
     <g id="text_26">
      <!-- 1.5 -->
      <g transform="translate(783.922196 262.085938) scale(0.1 -0.1)">
       <use xlink:href="#DejaVuSans-31"/>
       <use xlink:href="#DejaVuSans-2e" x="63.623047"/>
       <use xlink:href="#DejaVuSans-35" x="95.410156"/>
      </g>
     </g>
    </g>
    <g id="xtick_14">
     <g id="line2d_31">
      <g>
       <use xlink:href="#m5edd61293e" x="841.596022" y="247.4875" style="stroke: #000000; stroke-width: 0.8"/>
      </g>
     </g>
     <g id="text_27">
      <!-- 2.0 -->
      <g transform="translate(833.644459 262.085938) scale(0.1 -0.1)">
       <use xlink:href="#DejaVuSans-32"/>
       <use xlink:href="#DejaVuSans-2e" x="63.623047"/>
       <use xlink:href="#DejaVuSans-30" x="95.410156"/>
      </g>
     </g>
    </g>
   </g>
   <g id="matplotlib.axis_4">
    <g id="ytick_8">
     <g id="line2d_32">
      <g>
       <use xlink:href="#m7b1b1cf823" x="443.388813" y="237.863318" style="stroke: #000000; stroke-width: 0.8"/>
      </g>
     </g>
     <g id="text_28">
      <!-- 0 -->
      <g transform="translate(430.026313 241.662537) scale(0.1 -0.1)">
       <use xlink:href="#DejaVuSans-30"/>
      </g>
     </g>
    </g>
    <g id="ytick_9">
     <g id="line2d_33">
      <g>
       <use xlink:href="#m7b1b1cf823" x="443.388813" y="206.281338" style="stroke: #000000; stroke-width: 0.8"/>
      </g>
     </g>
     <g id="text_29">
      <!-- 1 -->
      <g transform="translate(430.026313 210.080557) scale(0.1 -0.1)">
       <use xlink:href="#DejaVuSans-31"/>
      </g>
     </g>
    </g>
    <g id="ytick_10">
     <g id="line2d_34">
      <g>
       <use xlink:href="#m7b1b1cf823" x="443.388813" y="174.699359" style="stroke: #000000; stroke-width: 0.8"/>
      </g>
     </g>
     <g id="text_30">
      <!-- 2 -->
      <g transform="translate(430.026313 178.498577) scale(0.1 -0.1)">
       <use xlink:href="#DejaVuSans-32"/>
      </g>
     </g>
    </g>
    <g id="ytick_11">
     <g id="line2d_35">
      <g>
       <use xlink:href="#m7b1b1cf823" x="443.388813" y="143.117379" style="stroke: #000000; stroke-width: 0.8"/>
      </g>
     </g>
     <g id="text_31">
      <!-- 3 -->
      <g transform="translate(430.026313 146.916598) scale(0.1 -0.1)">
       <use xlink:href="#DejaVuSans-33"/>
      </g>
     </g>
    </g>
    <g id="ytick_12">
     <g id="line2d_36">
      <g>
       <use xlink:href="#m7b1b1cf823" x="443.388813" y="111.535399" style="stroke: #000000; stroke-width: 0.8"/>
      </g>
     </g>
     <g id="text_32">
      <!-- 4 -->
      <g transform="translate(430.026313 115.334618) scale(0.1 -0.1)">
       <use xlink:href="#DejaVuSans-34"/>
      </g>
     </g>
    </g>
    <g id="ytick_13">
     <g id="line2d_37">
      <g>
       <use xlink:href="#m7b1b1cf823" x="443.388813" y="79.953419" style="stroke: #000000; stroke-width: 0.8"/>
      </g>
     </g>
     <g id="text_33">
      <!-- 5 -->
      <g transform="translate(430.026313 83.752638) scale(0.1 -0.1)">
       <use xlink:href="#DejaVuSans-35"/>
      </g>
     </g>
    </g>
    <g id="ytick_14">
     <g id="line2d_38">
      <g>
       <use xlink:href="#m7b1b1cf823" x="443.388813" y="48.37144" style="stroke: #000000; stroke-width: 0.8"/>
      </g>
     </g>
     <g id="text_34">
      <!-- 6 -->
      <g transform="translate(430.026313 52.170658) scale(0.1 -0.1)">
       <use xlink:href="#DejaVuSans-36"/>
      </g>
     </g>
    </g>
   </g>
   <g id="line2d_39">
    <path d="M 611.994184 50.076156 
L 615.663131 179.012686 
L 619.332082 193.992814 
L 623.001029 204.96045 
L 626.669977 214.59056 
L 630.338926 217.533088 
L 634.007874 215.928072 
L 637.676822 216.730581 
L 641.345771 218.068097 
L 645.014719 216.195575 
L 648.683667 218.603099 
L 652.352615 218.3356 
L 656.021564 226.093188 
L 659.690513 222.615643 
L 663.35946 224.220667 
L 667.028408 225.825684 
L 670.697357 227.430698 
L 674.366304 226.895701 
L 678.035254 227.163194 
L 681.704202 225.558176 
L 685.373149 224.755678 
L 689.042099 223.15066 
L 692.711049 225.290663 
L 696.379993 227.430707 
L 700.048944 229.570729 
L 703.717894 226.360677 
L 707.386838 226.093192 
L 711.055788 223.15066 
L 714.724738 227.163186 
L 718.393683 231.175746 
L 722.062633 228.76822 
L 725.731583 227.965712 
L 729.400533 231.44325 
L 733.069483 231.710742 
L 736.738427 228.500718 
L 740.407378 233.048259 
L 744.076322 231.978255 
L 747.745272 234.385781 
L 751.414222 229.838232 
L 755.083172 233.850775 
L 758.752122 231.978255 
L 762.421073 231.175746 
L 766.090023 233.850775 
L 769.758973 232.780747 
L 773.427911 232.513261 
L 777.096861 233.315769 
L 780.765811 234.118278 
L 784.434762 235.455784 
L 788.1037 234.653284 
L 791.77265 234.385781 
L 795.4416 234.385781 
L 799.11055 233.315755 
L 802.779489 234.920787 
L 806.448439 235.723295 
L 810.117389 235.18829 
L 813.786339 235.455792 
L 817.455289 236.258301 
L 821.124239 237.328312 
L 824.79319 235.455792 
L 828.46214 235.723288 
L 832.131078 236.258301 
L 835.800028 236.525804 
L 839.468978 237.060807 
L 843.137917 235.990804 
L 846.806879 235.990792 
L 850.475817 237.060812 
L 854.144779 237.060807 
L 857.747584 236.798132 
" clip-path="url(#p27d4b1b0fc)" style="fill: none; stroke: #1f77b4; stroke-width: 1.5; stroke-linecap: square"/>
   </g>
   <g id="line2d_40">
    <path d="M 611.994196 62.55307 
L 615.935461 171.62393 
L 619.876726 191.047496 
L 623.817989 207.233829 
L 627.759254 209.724031 
L 631.700518 216.945615 
L 635.641782 213.708352 
L 639.583047 217.443656 
L 643.524311 221.926022 
L 647.465575 216.696596 
L 651.40684 223.918182 
L 655.348104 220.182882 
L 659.289368 226.159367 
L 663.230633 225.412301 
L 667.171896 222.673083 
L 671.113161 228.151529 
L 675.054426 226.159367 
L 678.995691 228.400549 
L 682.936955 223.420144 
L 686.87822 228.400542 
L 690.819482 226.657407 
L 694.760747 232.384873 
L 698.702011 227.155448 
L 702.643276 229.64565 
L 706.584541 231.139771 
L 710.525805 227.653488 
L 714.46707 226.159367 
L 718.408335 228.898589 
L 722.3496 225.910347 
L 726.290864 230.641731 
L 730.232129 231.886833 
L 734.173394 226.906428 
L 738.114659 230.392711 
L 742.055923 230.890751 
L 745.997188 231.637812 
L 749.938453 230.890751 
L 753.879717 233.380954 
L 757.820982 234.377035 
L 761.762247 231.637812 
L 765.703512 232.384873 
L 769.644776 232.882913 
L 773.586041 233.878995 
L 777.527306 232.633893 
L 781.468571 235.124096 
L 785.409835 234.377035 
L 789.3511 234.377035 
L 793.292365 236.120176 
L 797.23363 235.124087 
L 801.174882 235.124096 
L 805.116147 236.618217 
L 809.057412 236.120176 
L 812.998677 234.377035 
L 816.939941 236.369197 
L 820.881206 235.871156 
L 824.822471 236.120176 
L 828.763736 234.626055 
L 832.705 236.618217 
L 836.646265 236.618217 
L 840.58753 236.618213 
L 844.528783 236.867237 
L 848.470047 237.614298 
L 852.411312 236.867237 
L 856.352577 236.618217 
L 857.747584 236.441936 
" clip-path="url(#p27d4b1b0fc)" style="fill: none; stroke: #ff7f0e; stroke-width: 1.5; stroke-linecap: square"/>
   </g>
   <g id="line2d_41">
    <path d="M 611.994235 83.679085 
L 616.411869 178.5446 
L 620.829504 192.98549 
L 625.247138 209.425882 
L 629.664772 207.204207 
L 634.082407 213.647062 
L 638.500041 215.646571 
L 642.917676 217.201743 
L 647.33531 217.201743 
L 651.752945 216.979576 
L 656.170579 222.978097 
L 660.588214 225.421939 
L 665.005848 224.755438 
L 669.423482 224.311102 
L 673.841117 227.643614 
L 678.258751 227.865782 
L 682.676386 228.976619 
L 687.09402 227.421447 
L 691.511655 225.199772 
L 695.929289 229.198787 
L 700.346924 230.976126 
L 704.764558 228.976619 
L 709.182192 231.198294 
L 713.599827 230.976126 
L 718.017461 229.865289 
L 722.435096 229.420954 
L 726.85273 233.864304 
L 731.270365 229.198787 
L 735.687999 229.865289 
L 740.105634 229.865289 
L 744.523268 230.087457 
L 748.940903 232.753466 
L 753.358537 232.309131 
L 757.776171 232.753466 
L 762.193806 231.642629 
L 766.61144 232.309131 
L 771.029075 232.975634 
L 775.446709 233.419969 
L 779.864344 233.419969 
L 784.281978 235.197309 
L 788.699613 234.975141 
L 793.117247 232.309131 
L 797.534881 235.197309 
L 801.952516 233.642136 
L 806.37015 235.419476 
L 810.787785 234.975141 
L 815.205419 234.530806 
L 819.623054 236.085978 
L 824.040688 236.308146 
L 828.458323 236.530313 
L 832.875957 236.752481 
L 837.293591 237.196816 
L 841.711226 235.641643 
L 846.12886 236.308146 
L 850.546495 237.196816 
L 854.964129 236.974653 
L 857.747584 236.97465 
" clip-path="url(#p27d4b1b0fc)" style="fill: none; stroke: #2ca02c; stroke-width: 1.5; stroke-linecap: square"/>
   </g>
   <g id="line2d_42">
    <path d="M 611.99419 52.730822 
L 616.017925 171.030196 
L 620.041657 191.275282 
L 624.065391 209.812931 
L 628.089124 209.812931 
L 632.112858 210.544679 
L 636.136591 220.301336 
L 640.160325 218.837838 
L 644.184058 225.423581 
L 648.207792 219.813503 
L 652.231525 223.228332 
L 656.255259 220.057419 
L 660.278992 226.15533 
L 664.302726 224.69183 
L 668.326459 228.106657 
L 672.350191 225.179669 
L 676.373926 228.594497 
L 680.397661 226.643158 
L 684.421393 227.618825 
L 688.445125 226.155343 
L 692.468863 229.814073 
L 696.492595 229.570157 
L 700.516327 229.814073 
L 704.540059 228.106657 
L 708.563791 231.277572 
L 712.587524 230.301906 
L 716.611256 229.326253 
L 720.634993 231.277572 
L 724.658726 230.301906 
L 728.682458 231.277582 
L 732.706196 228.594491 
L 736.729928 230.05799 
L 740.75366 231.521498 
L 744.777398 231.033646 
L 748.801124 231.277582 
L 752.824862 231.765396 
L 756.848588 233.96066 
L 760.872326 229.570169 
L 764.896064 232.009313 
L 768.91979 232.253247 
L 772.943528 233.716743 
L 776.967266 233.472814 
L 780.990992 235.424157 
L 785.01473 232.984995 
L 789.038468 233.960648 
L 793.062194 234.936324 
L 797.085932 234.448482 
L 801.109658 233.472827 
L 805.133396 235.911989 
L 809.157134 235.668066 
L 813.18086 235.668073 
L 817.204598 235.180233 
L 821.228324 235.911989 
L 825.252062 236.155905 
L 829.2758 236.399817 
L 833.299526 235.911995 
L 837.323276 236.643737 
L 841.347014 235.911989 
L 845.370752 237.619401 
L 849.394478 235.911983 
L 853.418204 236.887656 
L 857.441954 236.399817 
L 857.747584 236.436871 
" clip-path="url(#p27d4b1b0fc)" style="fill: none; stroke: #d62728; stroke-width: 1.5; stroke-linecap: square"/>
   </g>
   <g id="line2d_43">
    <path d="M 611.994184 45.379682 
L 615.757172 175.266961 
L 619.520157 187.525457 
L 623.283144 201.348793 
L 627.04613 206.825969 
L 630.809117 215.172153 
L 634.572104 212.042334 
L 638.33509 218.04115 
L 642.098077 218.301966 
L 645.861063 220.910148 
L 649.62405 216.997879 
L 653.387037 224.039963 
L 657.150023 223.257508 
L 660.913009 222.996696 
L 664.675997 224.561593 
L 668.438981 225.344057 
L 672.201969 228.995508 
L 675.964957 230.299592 
L 679.727941 227.4306 
L 683.490929 228.213054 
L 687.253917 230.038774 
L 691.016901 225.344047 
L 694.779886 227.691419 
L 698.542874 228.473887 
L 702.305867 228.213054 
L 706.068855 230.821234 
L 709.831843 229.517131 
L 713.594824 232.907777 
L 717.357812 231.603688 
L 721.1208 229.777962 
L 724.883787 232.125324 
L 728.646775 232.907769 
L 732.409757 230.299598 
L 736.172744 231.603688 
L 739.935732 229.517131 
L 743.698714 232.125333 
L 747.461707 233.429406 
L 751.224689 233.690225 
L 754.987671 232.125333 
L 758.750664 231.342859 
L 762.513646 232.907769 
L 766.276628 234.211873 
L 770.039621 235.255135 
L 773.802603 235.776778 
L 777.565597 234.211861 
L 781.328578 233.690225 
L 785.09156 233.42942 
L 788.854554 234.733508 
L 792.617547 234.733498 
L 796.380529 235.51596 
L 800.143523 233.951043 
L 803.906504 233.951055 
L 807.669498 233.690225 
L 811.43248 235.776771 
L 815.195461 234.211873 
L 818.958455 234.47269 
L 822.721448 235.255135 
L 826.48443 236.298413 
L 830.247424 236.559226 
L 834.010405 236.037595 
L 837.773399 237.080863 
L 841.536381 236.298408 
L 845.299363 236.820048 
L 849.062356 236.820042 
L 852.825326 236.037595 
L 856.58832 236.298403 
L 857.747584 236.459107 
" clip-path="url(#p27d4b1b0fc)" style="fill: none; stroke: #9467bd; stroke-width: 1.5; stroke-linecap: square"/>
   </g>
   <g id="patch_9">
    <path d="M 443.388813 247.4875 
L 443.388813 35.7555 
" style="fill: none; stroke: #000000; stroke-width: 0.8; stroke-linejoin: miter; stroke-linecap: square"/>
   </g>
   <g id="patch_10">
    <path d="M 842.025127 247.4875 
L 842.025127 35.7555 
" style="fill: none; stroke: #000000; stroke-width: 0.8; stroke-linejoin: miter; stroke-linecap: square"/>
   </g>
   <g id="patch_11">
    <path d="M 443.388813 247.4875 
L 842.025127 247.4875 
" style="fill: none; stroke: #000000; stroke-width: 0.8; stroke-linejoin: miter; stroke-linecap: square"/>
   </g>
   <g id="patch_12">
    <path d="M 443.388813 35.7555 
L 842.025127 35.7555 
" style="fill: none; stroke: #000000; stroke-width: 0.8; stroke-linejoin: miter; stroke-linecap: square"/>
   </g>
   <g id="text_35">
    <!-- Activation histogram -->
    <g transform="translate(580.346345 16.318125) scale(0.12 -0.12)">
     <use xlink:href="#DejaVuSans-41"/>
     <use xlink:href="#DejaVuSans-63" x="66.658203"/>
     <use xlink:href="#DejaVuSans-74" x="121.638672"/>
     <use xlink:href="#DejaVuSans-69" x="160.847656"/>
     <use xlink:href="#DejaVuSans-76" x="188.630859"/>
     <use xlink:href="#DejaVuSans-61" x="247.810547"/>
     <use xlink:href="#DejaVuSans-74" x="309.089844"/>
     <use xlink:href="#DejaVuSans-69" x="348.298828"/>
     <use xlink:href="#DejaVuSans-6f" x="376.082031"/>
     <use xlink:href="#DejaVuSans-6e" x="437.263672"/>
     <use xlink:href="#DejaVuSans-20" x="500.642578"/>
     <use xlink:href="#DejaVuSans-68" x="532.429688"/>
     <use xlink:href="#DejaVuSans-69" x="595.808594"/>
     <use xlink:href="#DejaVuSans-73" x="623.591797"/>
     <use xlink:href="#DejaVuSans-74" x="675.691406"/>
     <use xlink:href="#DejaVuSans-6f" x="714.900391"/>
     <use xlink:href="#DejaVuSans-67" x="776.082031"/>
     <use xlink:href="#DejaVuSans-72" x="839.558594"/>
     <use xlink:href="#DejaVuSans-61" x="880.671875"/>
     <use xlink:href="#DejaVuSans-6d" x="941.951172"/>
    </g>
    <!-- gain=1.41, BN=True , act=Mish, n_hidden=4, lr=1e-01 -->
    <g transform="translate(477.001033 29.7555) scale(0.12 -0.12)">
     <defs>
      <path id="DejaVuSans-54" d="M -19 4666 
L 3928 4666 
L 3928 4134 
L 2272 4134 
L 2272 0 
L 1638 0 
L 1638 4134 
L -19 4134 
L -19 4666 
z
" transform="scale(0.015625)"/>
      <path id="DejaVuSans-75" d="M 544 1381 
L 544 3500 
L 1119 3500 
L 1119 1403 
Q 1119 906 1312 657 
Q 1506 409 1894 409 
Q 2359 409 2629 706 
Q 2900 1003 2900 1516 
L 2900 3500 
L 3475 3500 
L 3475 0 
L 2900 0 
L 2900 538 
Q 2691 219 2414 64 
Q 2138 -91 1772 -91 
Q 1169 -91 856 284 
Q 544 659 544 1381 
z
M 1991 3584 
L 1991 3584 
z
" transform="scale(0.015625)"/>
     </defs>
     <use xlink:href="#DejaVuSans-67"/>
     <use xlink:href="#DejaVuSans-61" x="63.476562"/>
     <use xlink:href="#DejaVuSans-69" x="124.755859"/>
     <use xlink:href="#DejaVuSans-6e" x="152.539062"/>
     <use xlink:href="#DejaVuSans-3d" x="215.917969"/>
     <use xlink:href="#DejaVuSans-31" x="299.707031"/>
     <use xlink:href="#DejaVuSans-2e" x="363.330078"/>
     <use xlink:href="#DejaVuSans-34" x="395.117188"/>
     <use xlink:href="#DejaVuSans-31" x="458.740234"/>
     <use xlink:href="#DejaVuSans-2c" x="522.363281"/>
     <use xlink:href="#DejaVuSans-20" x="554.150391"/>
     <use xlink:href="#DejaVuSans-42" x="585.9375"/>
     <use xlink:href="#DejaVuSans-4e" x="654.541016"/>
     <use xlink:href="#DejaVuSans-3d" x="729.345703"/>
     <use xlink:href="#DejaVuSans-54" x="813.134766"/>
     <use xlink:href="#DejaVuSans-72" x="859.46875"/>
     <use xlink:href="#DejaVuSans-75" x="900.582031"/>
     <use xlink:href="#DejaVuSans-65" x="963.960938"/>
     <use xlink:href="#DejaVuSans-20" x="1025.484375"/>
     <use xlink:href="#DejaVuSans-2c" x="1057.271484"/>
     <use xlink:href="#DejaVuSans-20" x="1089.058594"/>
     <use xlink:href="#DejaVuSans-61" x="1120.845703"/>
     <use xlink:href="#DejaVuSans-63" x="1182.125"/>
     <use xlink:href="#DejaVuSans-74" x="1237.105469"/>
     <use xlink:href="#DejaVuSans-3d" x="1276.314453"/>
     <use xlink:href="#DejaVuSans-4d" x="1360.103516"/>
     <use xlink:href="#DejaVuSans-69" x="1446.382812"/>
     <use xlink:href="#DejaVuSans-73" x="1474.166016"/>
     <use xlink:href="#DejaVuSans-68" x="1526.265625"/>
     <use xlink:href="#DejaVuSans-2c" x="1589.644531"/>
     <use xlink:href="#DejaVuSans-20" x="1621.431641"/>
     <use xlink:href="#DejaVuSans-6e" x="1653.21875"/>
     <use xlink:href="#DejaVuSans-5f" x="1716.597656"/>
     <use xlink:href="#DejaVuSans-68" x="1766.597656"/>
     <use xlink:href="#DejaVuSans-69" x="1829.976562"/>
     <use xlink:href="#DejaVuSans-64" x="1857.759766"/>
     <use xlink:href="#DejaVuSans-64" x="1921.236328"/>
     <use xlink:href="#DejaVuSans-65" x="1984.712891"/>
     <use xlink:href="#DejaVuSans-6e" x="2046.236328"/>
     <use xlink:href="#DejaVuSans-3d" x="2109.615234"/>
     <use xlink:href="#DejaVuSans-34" x="2193.404297"/>
     <use xlink:href="#DejaVuSans-2c" x="2257.027344"/>
     <use xlink:href="#DejaVuSans-20" x="2288.814453"/>
     <use xlink:href="#DejaVuSans-6c" x="2320.601562"/>
     <use xlink:href="#DejaVuSans-72" x="2348.384766"/>
     <use xlink:href="#DejaVuSans-3d" x="2389.498047"/>
     <use xlink:href="#DejaVuSans-31" x="2473.287109"/>
     <use xlink:href="#DejaVuSans-65" x="2536.910156"/>
     <use xlink:href="#DejaVuSans-2d" x="2598.433594"/>
     <use xlink:href="#DejaVuSans-30" x="2634.517578"/>
     <use xlink:href="#DejaVuSans-31" x="2698.140625"/>
    </g>
   </g>
   <g id="legend_2">
    <g id="patch_13">
     <path d="M 764.168877 117.146125 
L 835.025127 117.146125 
Q 837.025127 117.146125 837.025127 115.146125 
L 837.025127 42.7555 
Q 837.025127 40.7555 835.025127 40.7555 
L 764.168877 40.7555 
Q 762.168877 40.7555 762.168877 42.7555 
L 762.168877 115.146125 
Q 762.168877 117.146125 764.168877 117.146125 
z
" style="fill: #ffffff; opacity: 0.8; stroke: #cccccc; stroke-linejoin: miter"/>
    </g>
    <g id="line2d_44">
     <path d="M 766.168877 48.853937 
L 776.168877 48.853937 
L 786.168877 48.853937 
" style="fill: none; stroke: #1f77b4; stroke-width: 1.5; stroke-linecap: square"/>
    </g>
    <g id="text_36">
     <!-- Mish.3 -->
     <g transform="translate(794.168877 52.353937) scale(0.1 -0.1)">
      <use xlink:href="#DejaVuSans-4d"/>
      <use xlink:href="#DejaVuSans-69" x="86.279297"/>
      <use xlink:href="#DejaVuSans-73" x="114.0625"/>
      <use xlink:href="#DejaVuSans-68" x="166.162109"/>
      <use xlink:href="#DejaVuSans-2e" x="229.541016"/>
      <use xlink:href="#DejaVuSans-33" x="261.328125"/>
     </g>
    </g>
    <g id="line2d_45">
     <path d="M 766.168877 63.532062 
L 776.168877 63.532062 
L 786.168877 63.532062 
" style="fill: none; stroke: #ff7f0e; stroke-width: 1.5; stroke-linecap: square"/>
    </g>
    <g id="text_37">
     <!-- Mish.6 -->
     <g transform="translate(794.168877 67.032062) scale(0.1 -0.1)">
      <use xlink:href="#DejaVuSans-4d"/>
      <use xlink:href="#DejaVuSans-69" x="86.279297"/>
      <use xlink:href="#DejaVuSans-73" x="114.0625"/>
      <use xlink:href="#DejaVuSans-68" x="166.162109"/>
      <use xlink:href="#DejaVuSans-2e" x="229.541016"/>
      <use xlink:href="#DejaVuSans-36" x="261.328125"/>
     </g>
    </g>
    <g id="line2d_46">
     <path d="M 766.168877 78.210187 
L 776.168877 78.210187 
L 786.168877 78.210187 
" style="fill: none; stroke: #2ca02c; stroke-width: 1.5; stroke-linecap: square"/>
    </g>
    <g id="text_38">
     <!-- Mish.9 -->
     <g transform="translate(794.168877 81.710187) scale(0.1 -0.1)">
      <defs>
       <path id="DejaVuSans-39" d="M 703 97 
L 703 672 
Q 941 559 1184 500 
Q 1428 441 1663 441 
Q 2288 441 2617 861 
Q 2947 1281 2994 2138 
Q 2813 1869 2534 1725 
Q 2256 1581 1919 1581 
Q 1219 1581 811 2004 
Q 403 2428 403 3163 
Q 403 3881 828 4315 
Q 1253 4750 1959 4750 
Q 2769 4750 3195 4129 
Q 3622 3509 3622 2328 
Q 3622 1225 3098 567 
Q 2575 -91 1691 -91 
Q 1453 -91 1209 -44 
Q 966 3 703 97 
z
M 1959 2075 
Q 2384 2075 2632 2365 
Q 2881 2656 2881 3163 
Q 2881 3666 2632 3958 
Q 2384 4250 1959 4250 
Q 1534 4250 1286 3958 
Q 1038 3666 1038 3163 
Q 1038 2656 1286 2365 
Q 1534 2075 1959 2075 
z
" transform="scale(0.015625)"/>
      </defs>
      <use xlink:href="#DejaVuSans-4d"/>
      <use xlink:href="#DejaVuSans-69" x="86.279297"/>
      <use xlink:href="#DejaVuSans-73" x="114.0625"/>
      <use xlink:href="#DejaVuSans-68" x="166.162109"/>
      <use xlink:href="#DejaVuSans-2e" x="229.541016"/>
      <use xlink:href="#DejaVuSans-39" x="261.328125"/>
     </g>
    </g>
    <g id="line2d_47">
     <path d="M 766.168877 92.888312 
L 776.168877 92.888312 
L 786.168877 92.888312 
" style="fill: none; stroke: #d62728; stroke-width: 1.5; stroke-linecap: square"/>
    </g>
    <g id="text_39">
     <!-- Mish.12 -->
     <g transform="translate(794.168877 96.388312) scale(0.1 -0.1)">
      <use xlink:href="#DejaVuSans-4d"/>
      <use xlink:href="#DejaVuSans-69" x="86.279297"/>
      <use xlink:href="#DejaVuSans-73" x="114.0625"/>
      <use xlink:href="#DejaVuSans-68" x="166.162109"/>
      <use xlink:href="#DejaVuSans-2e" x="229.541016"/>
      <use xlink:href="#DejaVuSans-31" x="261.328125"/>
      <use xlink:href="#DejaVuSans-32" x="324.951172"/>
     </g>
    </g>
    <g id="line2d_48">
     <path d="M 766.168877 107.566437 
L 776.168877 107.566437 
L 786.168877 107.566437 
" style="fill: none; stroke: #9467bd; stroke-width: 1.5; stroke-linecap: square"/>
    </g>
    <g id="text_40">
     <!-- Mish.15 -->
     <g transform="translate(794.168877 111.066437) scale(0.1 -0.1)">
      <use xlink:href="#DejaVuSans-4d"/>
      <use xlink:href="#DejaVuSans-69" x="86.279297"/>
      <use xlink:href="#DejaVuSans-73" x="114.0625"/>
      <use xlink:href="#DejaVuSans-68" x="166.162109"/>
      <use xlink:href="#DejaVuSans-2e" x="229.541016"/>
      <use xlink:href="#DejaVuSans-31" x="261.328125"/>
      <use xlink:href="#DejaVuSans-35" x="324.951172"/>
     </g>
    </g>
   </g>
  </g>
  <g id="axes_3">
   <g id="table_1">
    <g id="patch_14">
     <path d="M 20.5625 352.426425 
L 120.221578 352.426425 
L 120.221578 338.022888 
L 20.5625 338.022888 
z
" style="fill: #ffffff; stroke: #000000; stroke-linejoin: miter"/>
    </g>
    <g id="text_41">
     <!-- layer -->
     <g transform="translate(57.847508 347.984031) scale(0.1 -0.1)">
      <defs>
       <path id="DejaVuSans-79" d="M 2059 -325 
Q 1816 -950 1584 -1140 
Q 1353 -1331 966 -1331 
L 506 -1331 
L 506 -850 
L 844 -850 
Q 1081 -850 1212 -737 
Q 1344 -625 1503 -206 
L 1606 56 
L 191 3500 
L 800 3500 
L 1894 763 
L 2988 3500 
L 3597 3500 
L 2059 -325 
z
" transform="scale(0.015625)"/>
      </defs>
      <use xlink:href="#DejaVuSans-6c"/>
      <use xlink:href="#DejaVuSans-61" x="27.783203"/>
      <use xlink:href="#DejaVuSans-79" x="89.0625"/>
      <use xlink:href="#DejaVuSans-65" x="148.242188"/>
      <use xlink:href="#DejaVuSans-72" x="209.765625"/>
     </g>
    </g>
    <g id="patch_15">
     <path d="M 120.221578 352.426425 
L 219.880657 352.426425 
L 219.880657 338.022888 
L 120.221578 338.022888 
z
" style="fill: #ffffff; stroke: #000000; stroke-linejoin: miter"/>
    </g>
    <g id="text_42">
     <!-- μ -->
     <g transform="translate(166.869868 347.984031) scale(0.1 -0.1)">
      <defs>
       <path id="DejaVuSans-3bc" d="M 544 -1331 
L 544 3500 
L 1119 3500 
L 1119 1325 
Q 1119 872 1334 640 
Q 1550 409 1972 409 
Q 2434 409 2667 671 
Q 2900 934 2900 1459 
L 2900 3500 
L 3475 3500 
L 3475 806 
Q 3475 619 3529 530 
Q 3584 441 3700 441 
Q 3728 441 3778 458 
Q 3828 475 3916 513 
L 3916 50 
Q 3788 -22 3673 -56 
Q 3559 -91 3450 -91 
Q 3234 -91 3106 31 
Q 2978 153 2931 403 
Q 2775 156 2548 32 
Q 2322 -91 2016 -91 
Q 1697 -91 1473 31 
Q 1250 153 1119 397 
L 1119 -1331 
L 544 -1331 
z
" transform="scale(0.015625)"/>
      </defs>
      <use xlink:href="#DejaVuSans-3bc"/>
     </g>
    </g>
    <g id="patch_16">
     <path d="M 219.880657 352.426425 
L 319.539735 352.426425 
L 319.539735 338.022888 
L 219.880657 338.022888 
z
" style="fill: #ffffff; stroke: #000000; stroke-linejoin: miter"/>
    </g>
    <g id="text_43">
     <!-- σ -->
     <g transform="translate(266.541446 347.984031) scale(0.1 -0.1)">
      <defs>
       <path id="DejaVuSans-3c3" d="M 1959 3044 
Q 1484 3044 1228 2700 
Q 959 2341 959 1747 
Q 959 1119 1226 758 
Q 1494 397 1959 397 
Q 2419 397 2687 759 
Q 2956 1122 2956 1747 
Q 2956 2319 2688 2700 
Q 2441 3044 1959 3044 
z
M 1959 3500 
L 3869 3500 
L 3869 2925 
L 3225 2925 
Q 3566 2438 3566 1747 
Q 3566 888 3138 400 
Q 2709 -91 1959 -91 
Q 1206 -91 781 400 
Q 353 888 353 1747 
Q 353 2613 781 3097 
Q 1134 3500 1959 3500 
z
" transform="scale(0.015625)"/>
      </defs>
      <use xlink:href="#DejaVuSans-3c3"/>
     </g>
    </g>
    <g id="patch_17">
     <path d="M 319.539735 352.426425 
L 419.198813 352.426425 
L 419.198813 338.022888 
L 319.539735 338.022888 
z
" style="fill: #ffffff; stroke: #000000; stroke-linejoin: miter"/>
    </g>
    <g id="text_44">
     <!-- saturation -->
     <g transform="translate(343.874743 347.984031) scale(0.1 -0.1)">
      <use xlink:href="#DejaVuSans-73"/>
      <use xlink:href="#DejaVuSans-61" x="52.099609"/>
      <use xlink:href="#DejaVuSans-74" x="113.378906"/>
      <use xlink:href="#DejaVuSans-75" x="152.587891"/>
      <use xlink:href="#DejaVuSans-72" x="215.966797"/>
      <use xlink:href="#DejaVuSans-61" x="257.080078"/>
      <use xlink:href="#DejaVuSans-74" x="318.359375"/>
      <use xlink:href="#DejaVuSans-69" x="357.568359"/>
      <use xlink:href="#DejaVuSans-6f" x="385.351562"/>
      <use xlink:href="#DejaVuSans-6e" x="446.533203"/>
     </g>
    </g>
    <g id="patch_18">
     <path d="M 20.5625 366.829963 
L 120.221578 366.829963 
L 120.221578 352.426425 
L 20.5625 352.426425 
z
" style="fill: #ffffff; stroke: #000000; stroke-linejoin: miter"/>
    </g>
    <g id="text_45">
     <!-- Mish.2 -->
     <g transform="translate(54.145164 362.387569) scale(0.1 -0.1)">
      <use xlink:href="#DejaVuSans-4d"/>
      <use xlink:href="#DejaVuSans-69" x="86.279297"/>
      <use xlink:href="#DejaVuSans-73" x="114.0625"/>
      <use xlink:href="#DejaVuSans-68" x="166.162109"/>
      <use xlink:href="#DejaVuSans-2e" x="229.541016"/>
      <use xlink:href="#DejaVuSans-32" x="261.328125"/>
     </g>
    </g>
    <g id="patch_19">
     <path d="M 120.221578 366.829963 
L 219.880657 366.829963 
L 219.880657 352.426425 
L 120.221578 352.426425 
z
" style="fill: #ffffff; stroke: #000000; stroke-linejoin: miter"/>
    </g>
    <g id="text_46">
     <!-- +0.29 -->
     <g transform="translate(154.728461 362.387569) scale(0.1 -0.1)">
      <defs>
       <path id="DejaVuSans-2b" d="M 2944 4013 
L 2944 2272 
L 4684 2272 
L 4684 1741 
L 2944 1741 
L 2944 0 
L 2419 0 
L 2419 1741 
L 678 1741 
L 678 2272 
L 2419 2272 
L 2419 4013 
L 2944 4013 
z
" transform="scale(0.015625)"/>
      </defs>
      <use xlink:href="#DejaVuSans-2b"/>
      <use xlink:href="#DejaVuSans-30" x="83.789062"/>
      <use xlink:href="#DejaVuSans-2e" x="147.412109"/>
      <use xlink:href="#DejaVuSans-32" x="179.199219"/>
      <use xlink:href="#DejaVuSans-39" x="242.822266"/>
     </g>
    </g>
    <g id="patch_20">
     <path d="M 219.880657 366.829963 
L 319.539735 366.829963 
L 319.539735 352.426425 
L 219.880657 352.426425 
z
" style="fill: #ffffff; stroke: #000000; stroke-linejoin: miter"/>
    </g>
    <g id="text_47">
     <!-- 0.76 -->
     <g transform="translate(258.577383 362.387569) scale(0.1 -0.1)">
      <defs>
       <path id="DejaVuSans-37" d="M 525 4666 
L 3525 4666 
L 3525 4397 
L 1831 0 
L 1172 0 
L 2766 4134 
L 525 4134 
L 525 4666 
z
" transform="scale(0.015625)"/>
      </defs>
      <use xlink:href="#DejaVuSans-30"/>
      <use xlink:href="#DejaVuSans-2e" x="63.623047"/>
      <use xlink:href="#DejaVuSans-37" x="95.410156"/>
      <use xlink:href="#DejaVuSans-36" x="159.033203"/>
     </g>
    </g>
    <g id="patch_21">
     <path d="M 319.539735 366.829963 
L 419.198813 366.829963 
L 419.198813 352.426425 
L 319.539735 352.426425 
z
" style="fill: #ffffff; stroke: #000000; stroke-linejoin: miter"/>
    </g>
    <g id="text_48">
     <!-- 19.69% -->
     <g transform="translate(350.30443 362.387569) scale(0.1 -0.1)">
      <defs>
       <path id="DejaVuSans-25" d="M 4653 2053 
Q 4381 2053 4226 1822 
Q 4072 1591 4072 1178 
Q 4072 772 4226 539 
Q 4381 306 4653 306 
Q 4919 306 5073 539 
Q 5228 772 5228 1178 
Q 5228 1588 5073 1820 
Q 4919 2053 4653 2053 
z
M 4653 2450 
Q 5147 2450 5437 2106 
Q 5728 1763 5728 1178 
Q 5728 594 5436 251 
Q 5144 -91 4653 -91 
Q 4153 -91 3862 251 
Q 3572 594 3572 1178 
Q 3572 1766 3864 2108 
Q 4156 2450 4653 2450 
z
M 1428 4353 
Q 1159 4353 1004 4120 
Q 850 3888 850 3481 
Q 850 3069 1003 2837 
Q 1156 2606 1428 2606 
Q 1700 2606 1854 2837 
Q 2009 3069 2009 3481 
Q 2009 3884 1853 4118 
Q 1697 4353 1428 4353 
z
M 4250 4750 
L 4750 4750 
L 1831 -91 
L 1331 -91 
L 4250 4750 
z
M 1428 4750 
Q 1922 4750 2215 4408 
Q 2509 4066 2509 3481 
Q 2509 2891 2217 2550 
Q 1925 2209 1428 2209 
Q 931 2209 642 2551 
Q 353 2894 353 3481 
Q 353 4063 643 4406 
Q 934 4750 1428 4750 
z
" transform="scale(0.015625)"/>
      </defs>
      <use xlink:href="#DejaVuSans-31"/>
      <use xlink:href="#DejaVuSans-39" x="63.623047"/>
      <use xlink:href="#DejaVuSans-2e" x="127.246094"/>
      <use xlink:href="#DejaVuSans-36" x="159.033203"/>
      <use xlink:href="#DejaVuSans-39" x="222.65625"/>
      <use xlink:href="#DejaVuSans-25" x="286.279297"/>
     </g>
    </g>
    <g id="patch_22">
     <path d="M 20.5625 381.2335 
L 120.221578 381.2335 
L 120.221578 366.829963 
L 20.5625 366.829963 
z
" style="fill: #ffffff; stroke: #000000; stroke-linejoin: miter"/>
    </g>
    <g id="text_49">
     <!-- Mish.4 -->
     <g transform="translate(54.145164 376.791106) scale(0.1 -0.1)">
      <use xlink:href="#DejaVuSans-4d"/>
      <use xlink:href="#DejaVuSans-69" x="86.279297"/>
      <use xlink:href="#DejaVuSans-73" x="114.0625"/>
      <use xlink:href="#DejaVuSans-68" x="166.162109"/>
      <use xlink:href="#DejaVuSans-2e" x="229.541016"/>
      <use xlink:href="#DejaVuSans-34" x="261.328125"/>
     </g>
    </g>
    <g id="patch_23">
     <path d="M 120.221578 381.2335 
L 219.880657 381.2335 
L 219.880657 366.829963 
L 120.221578 366.829963 
z
" style="fill: #ffffff; stroke: #000000; stroke-linejoin: miter"/>
    </g>
    <g id="text_50">
     <!-- +0.20 -->
     <g transform="translate(154.728461 376.791106) scale(0.1 -0.1)">
      <use xlink:href="#DejaVuSans-2b"/>
      <use xlink:href="#DejaVuSans-30" x="83.789062"/>
      <use xlink:href="#DejaVuSans-2e" x="147.412109"/>
      <use xlink:href="#DejaVuSans-32" x="179.199219"/>
      <use xlink:href="#DejaVuSans-30" x="242.822266"/>
     </g>
    </g>
    <g id="patch_24">
     <path d="M 219.880657 381.2335 
L 319.539735 381.2335 
L 319.539735 366.829963 
L 219.880657 366.829963 
z
" style="fill: #ffffff; stroke: #000000; stroke-linejoin: miter"/>
    </g>
    <g id="text_51">
     <!-- 0.73 -->
     <g transform="translate(258.577383 376.791106) scale(0.1 -0.1)">
      <use xlink:href="#DejaVuSans-30"/>
      <use xlink:href="#DejaVuSans-2e" x="63.623047"/>
      <use xlink:href="#DejaVuSans-37" x="95.410156"/>
      <use xlink:href="#DejaVuSans-33" x="159.033203"/>
     </g>
    </g>
    <g id="patch_25">
     <path d="M 319.539735 381.2335 
L 419.198813 381.2335 
L 419.198813 366.829963 
L 319.539735 366.829963 
z
" style="fill: #ffffff; stroke: #000000; stroke-linejoin: miter"/>
    </g>
    <g id="text_52">
     <!-- 23.66% -->
     <g transform="translate(350.30443 376.791106) scale(0.1 -0.1)">
      <use xlink:href="#DejaVuSans-32"/>
      <use xlink:href="#DejaVuSans-33" x="63.623047"/>
      <use xlink:href="#DejaVuSans-2e" x="127.246094"/>
      <use xlink:href="#DejaVuSans-36" x="159.033203"/>
      <use xlink:href="#DejaVuSans-36" x="222.65625"/>
      <use xlink:href="#DejaVuSans-25" x="286.279297"/>
     </g>
    </g>
    <g id="patch_26">
     <path d="M 20.5625 395.637037 
L 120.221578 395.637037 
L 120.221578 381.2335 
L 20.5625 381.2335 
z
" style="fill: #ffffff; stroke: #000000; stroke-linejoin: miter"/>
    </g>
    <g id="text_53">
     <!-- Mish.6 -->
     <g transform="translate(54.145164 391.194644) scale(0.1 -0.1)">
      <use xlink:href="#DejaVuSans-4d"/>
      <use xlink:href="#DejaVuSans-69" x="86.279297"/>
      <use xlink:href="#DejaVuSans-73" x="114.0625"/>
      <use xlink:href="#DejaVuSans-68" x="166.162109"/>
      <use xlink:href="#DejaVuSans-2e" x="229.541016"/>
      <use xlink:href="#DejaVuSans-36" x="261.328125"/>
     </g>
    </g>
    <g id="patch_27">
     <path d="M 120.221578 395.637037 
L 219.880657 395.637037 
L 219.880657 381.2335 
L 120.221578 381.2335 
z
" style="fill: #ffffff; stroke: #000000; stroke-linejoin: miter"/>
    </g>
    <g id="text_54">
     <!-- +0.13 -->
     <g transform="translate(154.728461 391.194644) scale(0.1 -0.1)">
      <use xlink:href="#DejaVuSans-2b"/>
      <use xlink:href="#DejaVuSans-30" x="83.789062"/>
      <use xlink:href="#DejaVuSans-2e" x="147.412109"/>
      <use xlink:href="#DejaVuSans-31" x="179.199219"/>
      <use xlink:href="#DejaVuSans-33" x="242.822266"/>
     </g>
    </g>
    <g id="patch_28">
     <path d="M 219.880657 395.637037 
L 319.539735 395.637037 
L 319.539735 381.2335 
L 219.880657 381.2335 
z
" style="fill: #ffffff; stroke: #000000; stroke-linejoin: miter"/>
    </g>
    <g id="text_55">
     <!-- 0.68 -->
     <g transform="translate(258.577383 391.194644) scale(0.1 -0.1)">
      <use xlink:href="#DejaVuSans-30"/>
      <use xlink:href="#DejaVuSans-2e" x="63.623047"/>
      <use xlink:href="#DejaVuSans-36" x="95.410156"/>
      <use xlink:href="#DejaVuSans-38" x="159.033203"/>
     </g>
    </g>
    <g id="patch_29">
     <path d="M 319.539735 395.637037 
L 419.198813 395.637037 
L 419.198813 381.2335 
L 319.539735 381.2335 
z
" style="fill: #ffffff; stroke: #000000; stroke-linejoin: miter"/>
    </g>
    <g id="text_56">
     <!-- 27.59% -->
     <g transform="translate(350.30443 391.194644) scale(0.1 -0.1)">
      <use xlink:href="#DejaVuSans-32"/>
      <use xlink:href="#DejaVuSans-37" x="63.623047"/>
      <use xlink:href="#DejaVuSans-2e" x="127.246094"/>
      <use xlink:href="#DejaVuSans-35" x="159.033203"/>
      <use xlink:href="#DejaVuSans-39" x="222.65625"/>
      <use xlink:href="#DejaVuSans-25" x="286.279297"/>
     </g>
    </g>
    <g id="patch_30">
     <path d="M 20.5625 410.040575 
L 120.221578 410.040575 
L 120.221578 395.637037 
L 20.5625 395.637037 
z
" style="fill: #ffffff; stroke: #000000; stroke-linejoin: miter"/>
    </g>
    <g id="text_57">
     <!-- Mish.8 -->
     <g transform="translate(54.145164 405.598181) scale(0.1 -0.1)">
      <use xlink:href="#DejaVuSans-4d"/>
      <use xlink:href="#DejaVuSans-69" x="86.279297"/>
      <use xlink:href="#DejaVuSans-73" x="114.0625"/>
      <use xlink:href="#DejaVuSans-68" x="166.162109"/>
      <use xlink:href="#DejaVuSans-2e" x="229.541016"/>
      <use xlink:href="#DejaVuSans-38" x="261.328125"/>
     </g>
    </g>
    <g id="patch_31">
     <path d="M 120.221578 410.040575 
L 219.880657 410.040575 
L 219.880657 395.637037 
L 120.221578 395.637037 
z
" style="fill: #ffffff; stroke: #000000; stroke-linejoin: miter"/>
    </g>
    <g id="text_58">
     <!-- +0.13 -->
     <g transform="translate(154.728461 405.598181) scale(0.1 -0.1)">
      <use xlink:href="#DejaVuSans-2b"/>
      <use xlink:href="#DejaVuSans-30" x="83.789062"/>
      <use xlink:href="#DejaVuSans-2e" x="147.412109"/>
      <use xlink:href="#DejaVuSans-31" x="179.199219"/>
      <use xlink:href="#DejaVuSans-33" x="242.822266"/>
     </g>
    </g>
    <g id="patch_32">
     <path d="M 219.880657 410.040575 
L 319.539735 410.040575 
L 319.539735 395.637037 
L 219.880657 395.637037 
z
" style="fill: #ffffff; stroke: #000000; stroke-linejoin: miter"/>
    </g>
    <g id="text_59">
     <!-- 0.66 -->
     <g transform="translate(258.577383 405.598181) scale(0.1 -0.1)">
      <use xlink:href="#DejaVuSans-30"/>
      <use xlink:href="#DejaVuSans-2e" x="63.623047"/>
      <use xlink:href="#DejaVuSans-36" x="95.410156"/>
      <use xlink:href="#DejaVuSans-36" x="159.033203"/>
     </g>
    </g>
    <g id="patch_33">
     <path d="M 319.539735 410.040575 
L 419.198813 410.040575 
L 419.198813 395.637037 
L 319.539735 395.637037 
z
" style="fill: #ffffff; stroke: #000000; stroke-linejoin: miter"/>
    </g>
    <g id="text_60">
     <!-- 23.00% -->
     <g transform="translate(350.30443 405.598181) scale(0.1 -0.1)">
      <use xlink:href="#DejaVuSans-32"/>
      <use xlink:href="#DejaVuSans-33" x="63.623047"/>
      <use xlink:href="#DejaVuSans-2e" x="127.246094"/>
      <use xlink:href="#DejaVuSans-30" x="159.033203"/>
      <use xlink:href="#DejaVuSans-30" x="222.65625"/>
      <use xlink:href="#DejaVuSans-25" x="286.279297"/>
     </g>
    </g>
    <g id="patch_34">
     <path d="M 20.5625 424.444112 
L 120.221578 424.444112 
L 120.221578 410.040575 
L 20.5625 410.040575 
z
" style="fill: #ffffff; stroke: #000000; stroke-linejoin: miter"/>
    </g>
    <g id="text_61">
     <!-- Mish.10 -->
     <g transform="translate(50.963914 420.001719) scale(0.1 -0.1)">
      <use xlink:href="#DejaVuSans-4d"/>
      <use xlink:href="#DejaVuSans-69" x="86.279297"/>
      <use xlink:href="#DejaVuSans-73" x="114.0625"/>
      <use xlink:href="#DejaVuSans-68" x="166.162109"/>
      <use xlink:href="#DejaVuSans-2e" x="229.541016"/>
      <use xlink:href="#DejaVuSans-31" x="261.328125"/>
      <use xlink:href="#DejaVuSans-30" x="324.951172"/>
     </g>
    </g>
    <g id="patch_35">
     <path d="M 120.221578 424.444112 
L 219.880657 424.444112 
L 219.880657 410.040575 
L 120.221578 410.040575 
z
" style="fill: #ffffff; stroke: #000000; stroke-linejoin: miter"/>
    </g>
    <g id="text_62">
     <!-- +0.07 -->
     <g transform="translate(154.728461 420.001719) scale(0.1 -0.1)">
      <use xlink:href="#DejaVuSans-2b"/>
      <use xlink:href="#DejaVuSans-30" x="83.789062"/>
      <use xlink:href="#DejaVuSans-2e" x="147.412109"/>
      <use xlink:href="#DejaVuSans-30" x="179.199219"/>
      <use xlink:href="#DejaVuSans-37" x="242.822266"/>
     </g>
    </g>
    <g id="patch_36">
     <path d="M 219.880657 424.444112 
L 319.539735 424.444112 
L 319.539735 410.040575 
L 219.880657 410.040575 
z
" style="fill: #ffffff; stroke: #000000; stroke-linejoin: miter"/>
    </g>
    <g id="text_63">
     <!-- 0.56 -->
     <g transform="translate(258.577383 420.001719) scale(0.1 -0.1)">
      <use xlink:href="#DejaVuSans-30"/>
      <use xlink:href="#DejaVuSans-2e" x="63.623047"/>
      <use xlink:href="#DejaVuSans-35" x="95.410156"/>
      <use xlink:href="#DejaVuSans-36" x="159.033203"/>
     </g>
    </g>
    <g id="patch_37">
     <path d="M 319.539735 424.444112 
L 419.198813 424.444112 
L 419.198813 410.040575 
L 319.539735 410.040575 
z
" style="fill: #ffffff; stroke: #000000; stroke-linejoin: miter"/>
    </g>
    <g id="text_64">
     <!-- 20.72% -->
     <g transform="translate(350.30443 420.001719) scale(0.1 -0.1)">
      <use xlink:href="#DejaVuSans-32"/>
      <use xlink:href="#DejaVuSans-30" x="63.623047"/>
      <use xlink:href="#DejaVuSans-2e" x="127.246094"/>
      <use xlink:href="#DejaVuSans-37" x="159.033203"/>
      <use xlink:href="#DejaVuSans-32" x="222.65625"/>
      <use xlink:href="#DejaVuSans-25" x="286.279297"/>
     </g>
    </g>
   </g>
  </g>
  <g id="axes_4">
   <g id="table_2">
    <g id="patch_38">
     <path d="M 443.388813 352.426425 
L 543.047892 352.426425 
L 543.047892 338.022888 
L 443.388813 338.022888 
z
" style="fill: #ffffff; stroke: #000000; stroke-linejoin: miter"/>
    </g>
    <g id="text_65">
     <!-- layer -->
     <g transform="translate(480.673821 347.984031) scale(0.1 -0.1)">
      <use xlink:href="#DejaVuSans-6c"/>
      <use xlink:href="#DejaVuSans-61" x="27.783203"/>
      <use xlink:href="#DejaVuSans-79" x="89.0625"/>
      <use xlink:href="#DejaVuSans-65" x="148.242188"/>
      <use xlink:href="#DejaVuSans-72" x="209.765625"/>
     </g>
    </g>
    <g id="patch_39">
     <path d="M 543.047892 352.426425 
L 642.70697 352.426425 
L 642.70697 338.022888 
L 543.047892 338.022888 
z
" style="fill: #ffffff; stroke: #000000; stroke-linejoin: miter"/>
    </g>
    <g id="text_66">
     <!-- μ -->
     <g transform="translate(589.696181 347.984031) scale(0.1 -0.1)">
      <use xlink:href="#DejaVuSans-3bc"/>
     </g>
    </g>
    <g id="patch_40">
     <path d="M 642.70697 352.426425 
L 742.366048 352.426425 
L 742.366048 338.022888 
L 642.70697 338.022888 
z
" style="fill: #ffffff; stroke: #000000; stroke-linejoin: miter"/>
    </g>
    <g id="text_67">
     <!-- σ -->
     <g transform="translate(689.367759 347.984031) scale(0.1 -0.1)">
      <use xlink:href="#DejaVuSans-3c3"/>
     </g>
    </g>
    <g id="patch_41">
     <path d="M 742.366048 352.426425 
L 842.025127 352.426425 
L 842.025127 338.022888 
L 742.366048 338.022888 
z
" style="fill: #ffffff; stroke: #000000; stroke-linejoin: miter"/>
    </g>
    <g id="text_68">
     <!-- saturation -->
     <g transform="translate(766.701056 347.984031) scale(0.1 -0.1)">
      <use xlink:href="#DejaVuSans-73"/>
      <use xlink:href="#DejaVuSans-61" x="52.099609"/>
      <use xlink:href="#DejaVuSans-74" x="113.378906"/>
      <use xlink:href="#DejaVuSans-75" x="152.587891"/>
      <use xlink:href="#DejaVuSans-72" x="215.966797"/>
      <use xlink:href="#DejaVuSans-61" x="257.080078"/>
      <use xlink:href="#DejaVuSans-74" x="318.359375"/>
      <use xlink:href="#DejaVuSans-69" x="357.568359"/>
      <use xlink:href="#DejaVuSans-6f" x="385.351562"/>
      <use xlink:href="#DejaVuSans-6e" x="446.533203"/>
     </g>
    </g>
    <g id="patch_42">
     <path d="M 443.388813 366.829963 
L 543.047892 366.829963 
L 543.047892 352.426425 
L 443.388813 352.426425 
z
" style="fill: #ffffff; stroke: #000000; stroke-linejoin: miter"/>
    </g>
    <g id="text_69">
     <!-- Mish.3 -->
     <g transform="translate(476.971478 362.387569) scale(0.1 -0.1)">
      <use xlink:href="#DejaVuSans-4d"/>
      <use xlink:href="#DejaVuSans-69" x="86.279297"/>
      <use xlink:href="#DejaVuSans-73" x="114.0625"/>
      <use xlink:href="#DejaVuSans-68" x="166.162109"/>
      <use xlink:href="#DejaVuSans-2e" x="229.541016"/>
      <use xlink:href="#DejaVuSans-33" x="261.328125"/>
     </g>
    </g>
    <g id="patch_43">
     <path d="M 543.047892 366.829963 
L 642.70697 366.829963 
L 642.70697 352.426425 
L 543.047892 352.426425 
z
" style="fill: #ffffff; stroke: #000000; stroke-linejoin: miter"/>
    </g>
    <g id="text_70">
     <!-- +0.25 -->
     <g transform="translate(577.554775 362.387569) scale(0.1 -0.1)">
      <use xlink:href="#DejaVuSans-2b"/>
      <use xlink:href="#DejaVuSans-30" x="83.789062"/>
      <use xlink:href="#DejaVuSans-2e" x="147.412109"/>
      <use xlink:href="#DejaVuSans-32" x="179.199219"/>
      <use xlink:href="#DejaVuSans-35" x="242.822266"/>
     </g>
    </g>
    <g id="patch_44">
     <path d="M 642.70697 366.829963 
L 742.366048 366.829963 
L 742.366048 352.426425 
L 642.70697 352.426425 
z
" style="fill: #ffffff; stroke: #000000; stroke-linejoin: miter"/>
    </g>
    <g id="text_71">
     <!-- 0.62 -->
     <g transform="translate(681.403697 362.387569) scale(0.1 -0.1)">
      <use xlink:href="#DejaVuSans-30"/>
      <use xlink:href="#DejaVuSans-2e" x="63.623047"/>
      <use xlink:href="#DejaVuSans-36" x="95.410156"/>
      <use xlink:href="#DejaVuSans-32" x="159.033203"/>
     </g>
    </g>
    <g id="patch_45">
     <path d="M 742.366048 366.829963 
L 842.025127 366.829963 
L 842.025127 352.426425 
L 742.366048 352.426425 
z
" style="fill: #ffffff; stroke: #000000; stroke-linejoin: miter"/>
    </g>
    <g id="text_72">
     <!-- 18.22% -->
     <g transform="translate(773.130744 362.387569) scale(0.1 -0.1)">
      <use xlink:href="#DejaVuSans-31"/>
      <use xlink:href="#DejaVuSans-38" x="63.623047"/>
      <use xlink:href="#DejaVuSans-2e" x="127.246094"/>
      <use xlink:href="#DejaVuSans-32" x="159.033203"/>
      <use xlink:href="#DejaVuSans-32" x="222.65625"/>
      <use xlink:href="#DejaVuSans-25" x="286.279297"/>
     </g>
    </g>
    <g id="patch_46">
     <path d="M 443.388813 381.2335 
L 543.047892 381.2335 
L 543.047892 366.829963 
L 443.388813 366.829963 
z
" style="fill: #ffffff; stroke: #000000; stroke-linejoin: miter"/>
    </g>
    <g id="text_73">
     <!-- Mish.6 -->
     <g transform="translate(476.971478 376.791106) scale(0.1 -0.1)">
      <use xlink:href="#DejaVuSans-4d"/>
      <use xlink:href="#DejaVuSans-69" x="86.279297"/>
      <use xlink:href="#DejaVuSans-73" x="114.0625"/>
      <use xlink:href="#DejaVuSans-68" x="166.162109"/>
      <use xlink:href="#DejaVuSans-2e" x="229.541016"/>
      <use xlink:href="#DejaVuSans-36" x="261.328125"/>
     </g>
    </g>
    <g id="patch_47">
     <path d="M 543.047892 381.2335 
L 642.70697 381.2335 
L 642.70697 366.829963 
L 543.047892 366.829963 
z
" style="fill: #ffffff; stroke: #000000; stroke-linejoin: miter"/>
    </g>
    <g id="text_74">
     <!-- +0.24 -->
     <g transform="translate(577.554775 376.791106) scale(0.1 -0.1)">
      <use xlink:href="#DejaVuSans-2b"/>
      <use xlink:href="#DejaVuSans-30" x="83.789062"/>
      <use xlink:href="#DejaVuSans-2e" x="147.412109"/>
      <use xlink:href="#DejaVuSans-32" x="179.199219"/>
      <use xlink:href="#DejaVuSans-34" x="242.822266"/>
     </g>
    </g>
    <g id="patch_48">
     <path d="M 642.70697 381.2335 
L 742.366048 381.2335 
L 742.366048 366.829963 
L 642.70697 366.829963 
z
" style="fill: #ffffff; stroke: #000000; stroke-linejoin: miter"/>
    </g>
    <g id="text_75">
     <!-- 0.64 -->
     <g transform="translate(681.403697 376.791106) scale(0.1 -0.1)">
      <use xlink:href="#DejaVuSans-30"/>
      <use xlink:href="#DejaVuSans-2e" x="63.623047"/>
      <use xlink:href="#DejaVuSans-36" x="95.410156"/>
      <use xlink:href="#DejaVuSans-34" x="159.033203"/>
     </g>
    </g>
    <g id="patch_49">
     <path d="M 742.366048 381.2335 
L 842.025127 381.2335 
L 842.025127 366.829963 
L 742.366048 366.829963 
z
" style="fill: #ffffff; stroke: #000000; stroke-linejoin: miter"/>
    </g>
    <g id="text_76">
     <!-- 16.81% -->
     <g transform="translate(773.130744 376.791106) scale(0.1 -0.1)">
      <use xlink:href="#DejaVuSans-31"/>
      <use xlink:href="#DejaVuSans-36" x="63.623047"/>
      <use xlink:href="#DejaVuSans-2e" x="127.246094"/>
      <use xlink:href="#DejaVuSans-38" x="159.033203"/>
      <use xlink:href="#DejaVuSans-31" x="222.65625"/>
      <use xlink:href="#DejaVuSans-25" x="286.279297"/>
     </g>
    </g>
    <g id="patch_50">
     <path d="M 443.388813 395.637037 
L 543.047892 395.637037 
L 543.047892 381.2335 
L 443.388813 381.2335 
z
" style="fill: #ffffff; stroke: #000000; stroke-linejoin: miter"/>
    </g>
    <g id="text_77">
     <!-- Mish.9 -->
     <g transform="translate(476.971478 391.194644) scale(0.1 -0.1)">
      <use xlink:href="#DejaVuSans-4d"/>
      <use xlink:href="#DejaVuSans-69" x="86.279297"/>
      <use xlink:href="#DejaVuSans-73" x="114.0625"/>
      <use xlink:href="#DejaVuSans-68" x="166.162109"/>
      <use xlink:href="#DejaVuSans-2e" x="229.541016"/>
      <use xlink:href="#DejaVuSans-39" x="261.328125"/>
     </g>
    </g>
    <g id="patch_51">
     <path d="M 543.047892 395.637037 
L 642.70697 395.637037 
L 642.70697 381.2335 
L 543.047892 381.2335 
z
" style="fill: #ffffff; stroke: #000000; stroke-linejoin: miter"/>
    </g>
    <g id="text_78">
     <!-- +0.24 -->
     <g transform="translate(577.554775 391.194644) scale(0.1 -0.1)">
      <use xlink:href="#DejaVuSans-2b"/>
      <use xlink:href="#DejaVuSans-30" x="83.789062"/>
      <use xlink:href="#DejaVuSans-2e" x="147.412109"/>
      <use xlink:href="#DejaVuSans-32" x="179.199219"/>
      <use xlink:href="#DejaVuSans-34" x="242.822266"/>
     </g>
    </g>
    <g id="patch_52">
     <path d="M 642.70697 395.637037 
L 742.366048 395.637037 
L 742.366048 381.2335 
L 642.70697 381.2335 
z
" style="fill: #ffffff; stroke: #000000; stroke-linejoin: miter"/>
    </g>
    <g id="text_79">
     <!-- 0.64 -->
     <g transform="translate(681.403697 391.194644) scale(0.1 -0.1)">
      <use xlink:href="#DejaVuSans-30"/>
      <use xlink:href="#DejaVuSans-2e" x="63.623047"/>
      <use xlink:href="#DejaVuSans-36" x="95.410156"/>
      <use xlink:href="#DejaVuSans-34" x="159.033203"/>
     </g>
    </g>
    <g id="patch_53">
     <path d="M 742.366048 395.637037 
L 842.025127 395.637037 
L 842.025127 381.2335 
L 742.366048 381.2335 
z
" style="fill: #ffffff; stroke: #000000; stroke-linejoin: miter"/>
    </g>
    <g id="text_80">
     <!-- 15.84% -->
     <g transform="translate(773.130744 391.194644) scale(0.1 -0.1)">
      <use xlink:href="#DejaVuSans-31"/>
      <use xlink:href="#DejaVuSans-35" x="63.623047"/>
      <use xlink:href="#DejaVuSans-2e" x="127.246094"/>
      <use xlink:href="#DejaVuSans-38" x="159.033203"/>
      <use xlink:href="#DejaVuSans-34" x="222.65625"/>
      <use xlink:href="#DejaVuSans-25" x="286.279297"/>
     </g>
    </g>
    <g id="patch_54">
     <path d="M 443.388813 410.040575 
L 543.047892 410.040575 
L 543.047892 395.637037 
L 443.388813 395.637037 
z
" style="fill: #ffffff; stroke: #000000; stroke-linejoin: miter"/>
    </g>
    <g id="text_81">
     <!-- Mish.12 -->
     <g transform="translate(473.790228 405.598181) scale(0.1 -0.1)">
      <use xlink:href="#DejaVuSans-4d"/>
      <use xlink:href="#DejaVuSans-69" x="86.279297"/>
      <use xlink:href="#DejaVuSans-73" x="114.0625"/>
      <use xlink:href="#DejaVuSans-68" x="166.162109"/>
      <use xlink:href="#DejaVuSans-2e" x="229.541016"/>
      <use xlink:href="#DejaVuSans-31" x="261.328125"/>
      <use xlink:href="#DejaVuSans-32" x="324.951172"/>
     </g>
    </g>
    <g id="patch_55">
     <path d="M 543.047892 410.040575 
L 642.70697 410.040575 
L 642.70697 395.637037 
L 543.047892 395.637037 
z
" style="fill: #ffffff; stroke: #000000; stroke-linejoin: miter"/>
    </g>
    <g id="text_82">
     <!-- +0.24 -->
     <g transform="translate(577.554775 405.598181) scale(0.1 -0.1)">
      <use xlink:href="#DejaVuSans-2b"/>
      <use xlink:href="#DejaVuSans-30" x="83.789062"/>
      <use xlink:href="#DejaVuSans-2e" x="147.412109"/>
      <use xlink:href="#DejaVuSans-32" x="179.199219"/>
      <use xlink:href="#DejaVuSans-34" x="242.822266"/>
     </g>
    </g>
    <g id="patch_56">
     <path d="M 642.70697 410.040575 
L 742.366048 410.040575 
L 742.366048 395.637037 
L 642.70697 395.637037 
z
" style="fill: #ffffff; stroke: #000000; stroke-linejoin: miter"/>
    </g>
    <g id="text_83">
     <!-- 0.65 -->
     <g transform="translate(681.403697 405.598181) scale(0.1 -0.1)">
      <use xlink:href="#DejaVuSans-30"/>
      <use xlink:href="#DejaVuSans-2e" x="63.623047"/>
      <use xlink:href="#DejaVuSans-36" x="95.410156"/>
      <use xlink:href="#DejaVuSans-35" x="159.033203"/>
     </g>
    </g>
    <g id="patch_57">
     <path d="M 742.366048 410.040575 
L 842.025127 410.040575 
L 842.025127 395.637037 
L 742.366048 395.637037 
z
" style="fill: #ffffff; stroke: #000000; stroke-linejoin: miter"/>
    </g>
    <g id="text_84">
     <!-- 16.78% -->
     <g transform="translate(773.130744 405.598181) scale(0.1 -0.1)">
      <use xlink:href="#DejaVuSans-31"/>
      <use xlink:href="#DejaVuSans-36" x="63.623047"/>
      <use xlink:href="#DejaVuSans-2e" x="127.246094"/>
      <use xlink:href="#DejaVuSans-37" x="159.033203"/>
      <use xlink:href="#DejaVuSans-38" x="222.65625"/>
      <use xlink:href="#DejaVuSans-25" x="286.279297"/>
     </g>
    </g>
    <g id="patch_58">
     <path d="M 443.388813 424.444112 
L 543.047892 424.444112 
L 543.047892 410.040575 
L 443.388813 410.040575 
z
" style="fill: #ffffff; stroke: #000000; stroke-linejoin: miter"/>
    </g>
    <g id="text_85">
     <!-- Mish.15 -->
     <g transform="translate(473.790228 420.001719) scale(0.1 -0.1)">
      <use xlink:href="#DejaVuSans-4d"/>
      <use xlink:href="#DejaVuSans-69" x="86.279297"/>
      <use xlink:href="#DejaVuSans-73" x="114.0625"/>
      <use xlink:href="#DejaVuSans-68" x="166.162109"/>
      <use xlink:href="#DejaVuSans-2e" x="229.541016"/>
      <use xlink:href="#DejaVuSans-31" x="261.328125"/>
      <use xlink:href="#DejaVuSans-35" x="324.951172"/>
     </g>
    </g>
    <g id="patch_59">
     <path d="M 543.047892 424.444112 
L 642.70697 424.444112 
L 642.70697 410.040575 
L 543.047892 410.040575 
z
" style="fill: #ffffff; stroke: #000000; stroke-linejoin: miter"/>
    </g>
    <g id="text_86">
     <!-- +0.24 -->
     <g transform="translate(577.554775 420.001719) scale(0.1 -0.1)">
      <use xlink:href="#DejaVuSans-2b"/>
      <use xlink:href="#DejaVuSans-30" x="83.789062"/>
      <use xlink:href="#DejaVuSans-2e" x="147.412109"/>
      <use xlink:href="#DejaVuSans-32" x="179.199219"/>
      <use xlink:href="#DejaVuSans-34" x="242.822266"/>
     </g>
    </g>
    <g id="patch_60">
     <path d="M 642.70697 424.444112 
L 742.366048 424.444112 
L 742.366048 410.040575 
L 642.70697 410.040575 
z
" style="fill: #ffffff; stroke: #000000; stroke-linejoin: miter"/>
    </g>
    <g id="text_87">
     <!-- 0.67 -->
     <g transform="translate(681.403697 420.001719) scale(0.1 -0.1)">
      <use xlink:href="#DejaVuSans-30"/>
      <use xlink:href="#DejaVuSans-2e" x="63.623047"/>
      <use xlink:href="#DejaVuSans-36" x="95.410156"/>
      <use xlink:href="#DejaVuSans-37" x="159.033203"/>
     </g>
    </g>
    <g id="patch_61">
     <path d="M 742.366048 424.444112 
L 842.025127 424.444112 
L 842.025127 410.040575 
L 742.366048 410.040575 
z
" style="fill: #ffffff; stroke: #000000; stroke-linejoin: miter"/>
    </g>
    <g id="text_88">
     <!-- 17.59% -->
     <g transform="translate(773.130744 420.001719) scale(0.1 -0.1)">
      <use xlink:href="#DejaVuSans-31"/>
      <use xlink:href="#DejaVuSans-37" x="63.623047"/>
      <use xlink:href="#DejaVuSans-2e" x="127.246094"/>
      <use xlink:href="#DejaVuSans-35" x="159.033203"/>
      <use xlink:href="#DejaVuSans-39" x="222.65625"/>
      <use xlink:href="#DejaVuSans-25" x="286.279297"/>
     </g>
    </g>
   </g>
  </g>
 </g>
 <defs>
  <clipPath id="p4968a9c935">
   <rect x="20.5625" y="35.7555" width="398.636313" height="211.732"/>
  </clipPath>
  <clipPath id="p27d4b1b0fc">
   <rect x="443.388813" y="35.7555" width="398.636313" height="211.732"/>
  </clipPath>
 </defs>
</svg>