<?xml version="1.0" encoding="utf-8" standalone="no"?>
<!DOCTYPE svg PUBLIC "-//W3C//DTD SVG 1.1//EN"
  "http://www.w3.org/Graphics/SVG/1.1/DTD/svg11.dtd">
<svg xmlns:xlink="http://www.w3.org/1999/xlink" width="568.495625pt" height="185.996563pt" viewBox="0 0 568.495625 185.996563" xmlns="http://www.w3.org/2000/svg" version="1.1">
 <metadata>
  <rdf:RDF xmlns:dc="http://purl.org/dc/elements/1.1/" xmlns:cc="http://creativecommons.org/ns#" xmlns:rdf="http://www.w3.org/1999/02/22-rdf-syntax-ns#">
   <cc:Work>
    <dc:type rdf:resource="http://purl.org/dc/dcmitype/StillImage"/>
    <dc:date>2024-06-13T22:30:52.157434</dc:date>
    <dc:format>image/svg+xml</dc:format>
    <dc:creator>
     <cc:Agent>
      <dc:title>Matplotlib v3.7.1, https://matplotlib.org/</dc:title>
     </cc:Agent>
    </dc:creator>
   </cc:Work>
  </rdf:RDF>
 </metadata>
 <defs>
  <style type="text/css">*{stroke-linejoin: round; stroke-linecap: butt}</style>
 </defs>
 <g id="figure_1">
  <g id="patch_1">
   <path d="M 0 185.996563 
L 568.495625 185.996563 
L 568.495625 0 
L 0 0 
z
" style="fill: #ffffff"/>
  </g>
  <g id="axes_1">
   <g id="patch_2">
    <path d="M 46.965625 162.118437 
L 273.874743 162.118437 
L 273.874743 20.798438 
L 46.965625 20.798438 
z
" style="fill: #ffffff"/>
   </g>
   <g id="patch_3">
    <path d="M 147.218134 162.118437 
L 149.555693 162.118437 
L 149.555693 160.726808 
L 147.218134 160.726808 
z
" clip-path="url(#p7337f9a78a)" style="fill: #1f77b4; fill-opacity: 0.75; stroke: #000000; stroke-linejoin: miter"/>
   </g>
   <g id="patch_4">
    <path d="M 149.555693 162.118437 
L 151.893252 162.118437 
L 151.893252 154.76268 
L 149.555693 154.76268 
z
" clip-path="url(#p7337f9a78a)" style="fill: #1f77b4; fill-opacity: 0.75; stroke: #000000; stroke-linejoin: miter"/>
   </g>
   <g id="patch_5">
    <path d="M 151.893252 162.118437 
L 154.230812 162.118437 
L 154.230812 136.870298 
L 151.893252 136.870298 
z
" clip-path="url(#p7337f9a78a)" style="fill: #1f77b4; fill-opacity: 0.75; stroke: #000000; stroke-linejoin: miter"/>
   </g>
   <g id="patch_6">
    <path d="M 154.230812 162.118437 
L 156.568371 162.118437 
L 156.568371 95.519014 
L 154.230812 95.519014 
z
" clip-path="url(#p7337f9a78a)" style="fill: #1f77b4; fill-opacity: 0.75; stroke: #000000; stroke-linejoin: miter"/>
   </g>
   <g id="patch_7">
    <path d="M 156.568371 162.118437 
L 158.90593 162.118437 
L 158.90593 47.805995 
L 156.568371 47.805995 
z
" clip-path="url(#p7337f9a78a)" style="fill: #1f77b4; fill-opacity: 0.75; stroke: #000000; stroke-linejoin: miter"/>
   </g>
   <g id="patch_8">
    <path d="M 158.90593 162.118437 
L 161.243489 162.118437 
L 161.243489 27.527961 
L 158.90593 27.527961 
z
" clip-path="url(#p7337f9a78a)" style="fill: #1f77b4; fill-opacity: 0.75; stroke: #000000; stroke-linejoin: miter"/>
   </g>
   <g id="patch_9">
    <path d="M 161.243489 162.118437 
L 163.581048 162.118437 
L 163.581048 45.817952 
L 161.243489 45.817952 
z
" clip-path="url(#p7337f9a78a)" style="fill: #1f77b4; fill-opacity: 0.75; stroke: #000000; stroke-linejoin: miter"/>
   </g>
   <g id="patch_10">
    <path d="M 163.581048 162.118437 
L 165.918608 162.118437 
L 165.918608 83.590759 
L 163.581048 83.590759 
z
" clip-path="url(#p7337f9a78a)" style="fill: #1f77b4; fill-opacity: 0.75; stroke: #000000; stroke-linejoin: miter"/>
   </g>
   <g id="patch_11">
    <path d="M 165.918608 162.118437 
L 168.256167 162.118437 
L 168.256167 125.538456 
L 165.918608 125.538456 
z
" clip-path="url(#p7337f9a78a)" style="fill: #1f77b4; fill-opacity: 0.75; stroke: #000000; stroke-linejoin: miter"/>
   </g>
   <g id="patch_12">
    <path d="M 168.256167 162.118437 
L 170.593726 162.118437 
L 170.593726 149.59377 
L 168.256167 149.59377 
z
" clip-path="url(#p7337f9a78a)" style="fill: #1f77b4; fill-opacity: 0.75; stroke: #000000; stroke-linejoin: miter"/>
   </g>
   <g id="patch_13">
    <path d="M 170.593726 162.118437 
L 172.931285 162.118437 
L 172.931285 159.533982 
L 170.593726 159.533982 
z
" clip-path="url(#p7337f9a78a)" style="fill: #1f77b4; fill-opacity: 0.75; stroke: #000000; stroke-linejoin: miter"/>
   </g>
   <g id="patch_14">
    <path d="M 172.931285 162.118437 
L 175.268844 162.118437 
L 175.268844 161.720829 
L 172.931285 161.720829 
z
" clip-path="url(#p7337f9a78a)" style="fill: #1f77b4; fill-opacity: 0.75; stroke: #000000; stroke-linejoin: miter"/>
   </g>
   <g id="matplotlib.axis_1">
    <g id="xtick_1">
     <g id="line2d_1">
      <defs>
       <path id="m294f3d3982" d="M 0 0 
L 0 3.5 
" style="stroke: #000000; stroke-width: 0.8"/>
      </defs>
      <g>
       <use xlink:href="#m294f3d3982" x="85.211534" y="162.118437" style="stroke: #000000; stroke-width: 0.8"/>
      </g>
     </g>
     <g id="text_1">
      <!-- −1 -->
      <g transform="translate(77.84044 176.716875) scale(0.1 -0.1)">
       <defs>
        <path id="DejaVuSans-2212" d="M 678 2272 
L 4684 2272 
L 4684 1741 
L 678 1741 
L 678 2272 
z
" transform="scale(0.015625)"/>
        <path id="DejaVuSans-31" d="M 794 531 
L 1825 531 
L 1825 4091 
L 703 3866 
L 703 4441 
L 1819 4666 
L 2450 4666 
L 2450 531 
L 3481 531 
L 3481 0 
L 794 0 
L 794 531 
z
" transform="scale(0.015625)"/>
       </defs>
       <use xlink:href="#DejaVuSans-2212"/>
       <use xlink:href="#DejaVuSans-31" x="83.789062"/>
      </g>
     </g>
    </g>
    <g id="xtick_2">
     <g id="line2d_2">
      <g>
       <use xlink:href="#m294f3d3982" x="141.938813" y="162.118437" style="stroke: #000000; stroke-width: 0.8"/>
      </g>
     </g>
     <g id="text_2">
      <!-- 0 -->
      <g transform="translate(138.757563 176.716875) scale(0.1 -0.1)">
       <defs>
        <path id="DejaVuSans-30" d="M 2034 4250 
Q 1547 4250 1301 3770 
Q 1056 3291 1056 2328 
Q 1056 1369 1301 889 
Q 1547 409 2034 409 
Q 2525 409 2770 889 
Q 3016 1369 3016 2328 
Q 3016 3291 2770 3770 
Q 2525 4250 2034 4250 
z
M 2034 4750 
Q 2819 4750 3233 4129 
Q 3647 3509 3647 2328 
Q 3647 1150 3233 529 
Q 2819 -91 2034 -91 
Q 1250 -91 836 529 
Q 422 1150 422 2328 
Q 422 3509 836 4129 
Q 1250 4750 2034 4750 
z
" transform="scale(0.015625)"/>
       </defs>
       <use xlink:href="#DejaVuSans-30"/>
      </g>
     </g>
    </g>
    <g id="xtick_3">
     <g id="line2d_3">
      <g>
       <use xlink:href="#m294f3d3982" x="198.666093" y="162.118437" style="stroke: #000000; stroke-width: 0.8"/>
      </g>
     </g>
     <g id="text_3">
      <!-- 1 -->
      <g transform="translate(195.484843 176.716875) scale(0.1 -0.1)">
       <use xlink:href="#DejaVuSans-31"/>
      </g>
     </g>
    </g>
    <g id="xtick_4">
     <g id="line2d_4">
      <g>
       <use xlink:href="#m294f3d3982" x="255.393373" y="162.118437" style="stroke: #000000; stroke-width: 0.8"/>
      </g>
     </g>
     <g id="text_4">
      <!-- 2 -->
      <g transform="translate(252.212123 176.716875) scale(0.1 -0.1)">
       <defs>
        <path id="DejaVuSans-32" d="M 1228 531 
L 3431 531 
L 3431 0 
L 469 0 
L 469 531 
Q 828 903 1448 1529 
Q 2069 2156 2228 2338 
Q 2531 2678 2651 2914 
Q 2772 3150 2772 3378 
Q 2772 3750 2511 3984 
Q 2250 4219 1831 4219 
Q 1534 4219 1204 4116 
Q 875 4013 500 3803 
L 500 4441 
Q 881 4594 1212 4672 
Q 1544 4750 1819 4750 
Q 2544 4750 2975 4387 
Q 3406 4025 3406 3419 
Q 3406 3131 3298 2873 
Q 3191 2616 2906 2266 
Q 2828 2175 2409 1742 
Q 1991 1309 1228 531 
z
" transform="scale(0.015625)"/>
       </defs>
       <use xlink:href="#DejaVuSans-32"/>
      </g>
     </g>
    </g>
   </g>
   <g id="matplotlib.axis_2">
    <g id="ytick_1">
     <g id="line2d_5">
      <defs>
       <path id="m9aaf9b630f" d="M 0 0 
L -3.5 0 
" style="stroke: #000000; stroke-width: 0.8"/>
      </defs>
      <g>
       <use xlink:href="#m9aaf9b630f" x="46.965625" y="162.118437" style="stroke: #000000; stroke-width: 0.8"/>
      </g>
     </g>
     <g id="text_5">
      <!-- 0 -->
      <g transform="translate(33.603125 165.917656) scale(0.1 -0.1)">
       <use xlink:href="#DejaVuSans-30"/>
      </g>
     </g>
    </g>
    <g id="ytick_2">
     <g id="line2d_6">
      <g>
       <use xlink:href="#m9aaf9b630f" x="46.965625" y="122.357588" style="stroke: #000000; stroke-width: 0.8"/>
      </g>
     </g>
     <g id="text_6">
      <!-- 200 -->
      <g transform="translate(20.878125 126.156807) scale(0.1 -0.1)">
       <use xlink:href="#DejaVuSans-32"/>
       <use xlink:href="#DejaVuSans-30" x="63.623047"/>
       <use xlink:href="#DejaVuSans-30" x="127.246094"/>
      </g>
     </g>
    </g>
    <g id="ytick_3">
     <g id="line2d_7">
      <g>
       <use xlink:href="#m9aaf9b630f" x="46.965625" y="82.596738" style="stroke: #000000; stroke-width: 0.8"/>
      </g>
     </g>
     <g id="text_7">
      <!-- 400 -->
      <g transform="translate(20.878125 86.395957) scale(0.1 -0.1)">
       <defs>
        <path id="DejaVuSans-34" d="M 2419 4116 
L 825 1625 
L 2419 1625 
L 2419 4116 
z
M 2253 4666 
L 3047 4666 
L 3047 1625 
L 3713 1625 
L 3713 1100 
L 3047 1100 
L 3047 0 
L 2419 0 
L 2419 1100 
L 313 1100 
L 313 1709 
L 2253 4666 
z
" transform="scale(0.015625)"/>
       </defs>
       <use xlink:href="#DejaVuSans-34"/>
       <use xlink:href="#DejaVuSans-30" x="63.623047"/>
       <use xlink:href="#DejaVuSans-30" x="127.246094"/>
      </g>
     </g>
    </g>
    <g id="ytick_4">
     <g id="line2d_8">
      <g>
       <use xlink:href="#m9aaf9b630f" x="46.965625" y="42.835888" style="stroke: #000000; stroke-width: 0.8"/>
      </g>
     </g>
     <g id="text_8">
      <!-- 600 -->
      <g transform="translate(20.878125 46.635107) scale(0.1 -0.1)">
       <defs>
        <path id="DejaVuSans-36" d="M 2113 2584 
Q 1688 2584 1439 2293 
Q 1191 2003 1191 1497 
Q 1191 994 1439 701 
Q 1688 409 2113 409 
Q 2538 409 2786 701 
Q 3034 994 3034 1497 
Q 3034 2003 2786 2293 
Q 2538 2584 2113 2584 
z
M 3366 4563 
L 3366 3988 
Q 3128 4100 2886 4159 
Q 2644 4219 2406 4219 
Q 1781 4219 1451 3797 
Q 1122 3375 1075 2522 
Q 1259 2794 1537 2939 
Q 1816 3084 2150 3084 
Q 2853 3084 3261 2657 
Q 3669 2231 3669 1497 
Q 3669 778 3244 343 
Q 2819 -91 2113 -91 
Q 1303 -91 875 529 
Q 447 1150 447 2328 
Q 447 3434 972 4092 
Q 1497 4750 2381 4750 
Q 2619 4750 2861 4703 
Q 3103 4656 3366 4563 
z
" transform="scale(0.015625)"/>
       </defs>
       <use xlink:href="#DejaVuSans-36"/>
       <use xlink:href="#DejaVuSans-30" x="63.623047"/>
       <use xlink:href="#DejaVuSans-30" x="127.246094"/>
      </g>
     </g>
    </g>
    <g id="text_9">
     <!-- Count -->
     <g transform="translate(14.798437 106.306875) rotate(-90) scale(0.1 -0.1)">
      <defs>
       <path id="DejaVuSans-43" d="M 4122 4306 
L 4122 3641 
Q 3803 3938 3442 4084 
Q 3081 4231 2675 4231 
Q 1875 4231 1450 3742 
Q 1025 3253 1025 2328 
Q 1025 1406 1450 917 
Q 1875 428 2675 428 
Q 3081 428 3442 575 
Q 3803 722 4122 1019 
L 4122 359 
Q 3791 134 3420 21 
Q 3050 -91 2638 -91 
Q 1578 -91 968 557 
Q 359 1206 359 2328 
Q 359 3453 968 4101 
Q 1578 4750 2638 4750 
Q 3056 4750 3426 4639 
Q 3797 4528 4122 4306 
z
" transform="scale(0.015625)"/>
       <path id="DejaVuSans-6f" d="M 1959 3097 
Q 1497 3097 1228 2736 
Q 959 2375 959 1747 
Q 959 1119 1226 758 
Q 1494 397 1959 397 
Q 2419 397 2687 759 
Q 2956 1122 2956 1747 
Q 2956 2369 2687 2733 
Q 2419 3097 1959 3097 
z
M 1959 3584 
Q 2709 3584 3137 3096 
Q 3566 2609 3566 1747 
Q 3566 888 3137 398 
Q 2709 -91 1959 -91 
Q 1206 -91 779 398 
Q 353 888 353 1747 
Q 353 2609 779 3096 
Q 1206 3584 1959 3584 
z
" transform="scale(0.015625)"/>
       <path id="DejaVuSans-75" d="M 544 1381 
L 544 3500 
L 1119 3500 
L 1119 1403 
Q 1119 906 1312 657 
Q 1506 409 1894 409 
Q 2359 409 2629 706 
Q 2900 1003 2900 1516 
L 2900 3500 
L 3475 3500 
L 3475 0 
L 2900 0 
L 2900 538 
Q 2691 219 2414 64 
Q 2138 -91 1772 -91 
Q 1169 -91 856 284 
Q 544 659 544 1381 
z
M 1991 3584 
L 1991 3584 
z
" transform="scale(0.015625)"/>
       <path id="DejaVuSans-6e" d="M 3513 2113 
L 3513 0 
L 2938 0 
L 2938 2094 
Q 2938 2591 2744 2837 
Q 2550 3084 2163 3084 
Q 1697 3084 1428 2787 
Q 1159 2491 1159 1978 
L 1159 0 
L 581 0 
L 581 3500 
L 1159 3500 
L 1159 2956 
Q 1366 3272 1645 3428 
Q 1925 3584 2291 3584 
Q 2894 3584 3203 3211 
Q 3513 2838 3513 2113 
z
" transform="scale(0.015625)"/>
       <path id="DejaVuSans-74" d="M 1172 4494 
L 1172 3500 
L 2356 3500 
L 2356 3053 
L 1172 3053 
L 1172 1153 
Q 1172 725 1289 603 
Q 1406 481 1766 481 
L 2356 481 
L 2356 0 
L 1766 0 
Q 1100 0 847 248 
Q 594 497 594 1153 
L 594 3053 
L 172 3053 
L 172 3500 
L 594 3500 
L 594 4494 
L 1172 4494 
z
" transform="scale(0.015625)"/>
      </defs>
      <use xlink:href="#DejaVuSans-43"/>
      <use xlink:href="#DejaVuSans-6f" x="69.824219"/>
      <use xlink:href="#DejaVuSans-75" x="131.005859"/>
      <use xlink:href="#DejaVuSans-6e" x="194.384766"/>
      <use xlink:href="#DejaVuSans-74" x="257.763672"/>
     </g>
    </g>
   </g>
   <g id="patch_15">
    <path d="M 46.965625 162.118437 
L 46.965625 20.798438 
" style="fill: none; stroke: #000000; stroke-width: 0.8; stroke-linejoin: miter; stroke-linecap: square"/>
   </g>
   <g id="patch_16">
    <path d="M 273.874743 162.118437 
L 273.874743 20.798438 
" style="fill: none; stroke: #000000; stroke-width: 0.8; stroke-linejoin: miter; stroke-linecap: square"/>
   </g>
   <g id="patch_17">
    <path d="M 46.965625 162.118437 
L 273.874743 162.118437 
" style="fill: none; stroke: #000000; stroke-width: 0.8; stroke-linejoin: miter; stroke-linecap: square"/>
   </g>
   <g id="patch_18">
    <path d="M 46.965625 20.798438 
L 273.874743 20.798438 
" style="fill: none; stroke: #000000; stroke-width: 0.8; stroke-linejoin: miter; stroke-linecap: square"/>
   </g>
   <g id="text_10">
    <!-- MHA output norm (train) -->
    <g transform="translate(99.06159 14.798438) scale(0.1 -0.1)">
     <defs>
      <path id="DejaVuSans-4d" d="M 628 4666 
L 1569 4666 
L 2759 1491 
L 3956 4666 
L 4897 4666 
L 4897 0 
L 4281 0 
L 4281 4097 
L 3078 897 
L 2444 897 
L 1241 4097 
L 1241 0 
L 628 0 
L 628 4666 
z
" transform="scale(0.015625)"/>
      <path id="DejaVuSans-48" d="M 628 4666 
L 1259 4666 
L 1259 2753 
L 3553 2753 
L 3553 4666 
L 4184 4666 
L 4184 0 
L 3553 0 
L 3553 2222 
L 1259 2222 
L 1259 0 
L 628 0 
L 628 4666 
z
" transform="scale(0.015625)"/>
      <path id="DejaVuSans-41" d="M 2188 4044 
L 1331 1722 
L 3047 1722 
L 2188 4044 
z
M 1831 4666 
L 2547 4666 
L 4325 0 
L 3669 0 
L 3244 1197 
L 1141 1197 
L 716 0 
L 50 0 
L 1831 4666 
z
" transform="scale(0.015625)"/>
      <path id="DejaVuSans-20" transform="scale(0.015625)"/>
      <path id="DejaVuSans-70" d="M 1159 525 
L 1159 -1331 
L 581 -1331 
L 581 3500 
L 1159 3500 
L 1159 2969 
Q 1341 3281 1617 3432 
Q 1894 3584 2278 3584 
Q 2916 3584 3314 3078 
Q 3713 2572 3713 1747 
Q 3713 922 3314 415 
Q 2916 -91 2278 -91 
Q 1894 -91 1617 61 
Q 1341 213 1159 525 
z
M 3116 1747 
Q 3116 2381 2855 2742 
Q 2594 3103 2138 3103 
Q 1681 3103 1420 2742 
Q 1159 2381 1159 1747 
Q 1159 1113 1420 752 
Q 1681 391 2138 391 
Q 2594 391 2855 752 
Q 3116 1113 3116 1747 
z
" transform="scale(0.015625)"/>
      <path id="DejaVuSans-72" d="M 2631 2963 
Q 2534 3019 2420 3045 
Q 2306 3072 2169 3072 
Q 1681 3072 1420 2755 
Q 1159 2438 1159 1844 
L 1159 0 
L 581 0 
L 581 3500 
L 1159 3500 
L 1159 2956 
Q 1341 3275 1631 3429 
Q 1922 3584 2338 3584 
Q 2397 3584 2469 3576 
Q 2541 3569 2628 3553 
L 2631 2963 
z
" transform="scale(0.015625)"/>
      <path id="DejaVuSans-6d" d="M 3328 2828 
Q 3544 3216 3844 3400 
Q 4144 3584 4550 3584 
Q 5097 3584 5394 3201 
Q 5691 2819 5691 2113 
L 5691 0 
L 5113 0 
L 5113 2094 
Q 5113 2597 4934 2840 
Q 4756 3084 4391 3084 
Q 3944 3084 3684 2787 
Q 3425 2491 3425 1978 
L 3425 0 
L 2847 0 
L 2847 2094 
Q 2847 2600 2669 2842 
Q 2491 3084 2119 3084 
Q 1678 3084 1418 2786 
Q 1159 2488 1159 1978 
L 1159 0 
L 581 0 
L 581 3500 
L 1159 3500 
L 1159 2956 
Q 1356 3278 1631 3431 
Q 1906 3584 2284 3584 
Q 2666 3584 2933 3390 
Q 3200 3197 3328 2828 
z
" transform="scale(0.015625)"/>
      <path id="DejaVuSans-28" d="M 1984 4856 
Q 1566 4138 1362 3434 
Q 1159 2731 1159 2009 
Q 1159 1288 1364 580 
Q 1569 -128 1984 -844 
L 1484 -844 
Q 1016 -109 783 600 
Q 550 1309 550 2009 
Q 550 2706 781 3412 
Q 1013 4119 1484 4856 
L 1984 4856 
z
" transform="scale(0.015625)"/>
      <path id="DejaVuSans-61" d="M 2194 1759 
Q 1497 1759 1228 1600 
Q 959 1441 959 1056 
Q 959 750 1161 570 
Q 1363 391 1709 391 
Q 2188 391 2477 730 
Q 2766 1069 2766 1631 
L 2766 1759 
L 2194 1759 
z
M 3341 1997 
L 3341 0 
L 2766 0 
L 2766 531 
Q 2569 213 2275 61 
Q 1981 -91 1556 -91 
Q 1019 -91 701 211 
Q 384 513 384 1019 
Q 384 1609 779 1909 
Q 1175 2209 1959 2209 
L 2766 2209 
L 2766 2266 
Q 2766 2663 2505 2880 
Q 2244 3097 1772 3097 
Q 1472 3097 1187 3025 
Q 903 2953 641 2809 
L 641 3341 
Q 956 3463 1253 3523 
Q 1550 3584 1831 3584 
Q 2591 3584 2966 3190 
Q 3341 2797 3341 1997 
z
" transform="scale(0.015625)"/>
      <path id="DejaVuSans-69" d="M 603 3500 
L 1178 3500 
L 1178 0 
L 603 0 
L 603 3500 
z
M 603 4863 
L 1178 4863 
L 1178 4134 
L 603 4134 
L 603 4863 
z
" transform="scale(0.015625)"/>
      <path id="DejaVuSans-29" d="M 513 4856 
L 1013 4856 
Q 1481 4119 1714 3412 
Q 1947 2706 1947 2009 
Q 1947 1309 1714 600 
Q 1481 -109 1013 -844 
L 513 -844 
Q 928 -128 1133 580 
Q 1338 1288 1338 2009 
Q 1338 2731 1133 3434 
Q 928 4138 513 4856 
z
" transform="scale(0.015625)"/>
     </defs>
     <use xlink:href="#DejaVuSans-4d"/>
     <use xlink:href="#DejaVuSans-48" x="86.279297"/>
     <use xlink:href="#DejaVuSans-41" x="161.474609"/>
     <use xlink:href="#DejaVuSans-20" x="229.882812"/>
     <use xlink:href="#DejaVuSans-6f" x="261.669922"/>
     <use xlink:href="#DejaVuSans-75" x="322.851562"/>
     <use xlink:href="#DejaVuSans-74" x="386.230469"/>
     <use xlink:href="#DejaVuSans-70" x="425.439453"/>
     <use xlink:href="#DejaVuSans-75" x="488.916016"/>
     <use xlink:href="#DejaVuSans-74" x="552.294922"/>
     <use xlink:href="#DejaVuSans-20" x="591.503906"/>
     <use xlink:href="#DejaVuSans-6e" x="623.291016"/>
     <use xlink:href="#DejaVuSans-6f" x="686.669922"/>
     <use xlink:href="#DejaVuSans-72" x="747.851562"/>
     <use xlink:href="#DejaVuSans-6d" x="787.214844"/>
     <use xlink:href="#DejaVuSans-20" x="884.626953"/>
     <use xlink:href="#DejaVuSans-28" x="916.414062"/>
     <use xlink:href="#DejaVuSans-74" x="955.427734"/>
     <use xlink:href="#DejaVuSans-72" x="994.636719"/>
     <use xlink:href="#DejaVuSans-61" x="1035.75"/>
     <use xlink:href="#DejaVuSans-69" x="1097.029297"/>
     <use xlink:href="#DejaVuSans-6e" x="1124.8125"/>
     <use xlink:href="#DejaVuSans-29" x="1188.191406"/>
    </g>
   </g>
  </g>
  <g id="axes_2">
   <g id="patch_19">
    <path d="M 334.386507 162.118437 
L 561.295625 162.118437 
L 561.295625 20.798438 
L 334.386507 20.798438 
z
" style="fill: #ffffff"/>
   </g>
   <g id="patch_20">
    <path d="M 419.497799 162.118437 
L 422.334163 162.118437 
L 422.334163 162.118437 
L 419.497799 162.118437 
z
" clip-path="url(#p3579f74121)" style="fill: #1f77b4; fill-opacity: 0.75; stroke: #000000; stroke-width: 0.922314; stroke-linejoin: miter"/>
   </g>
   <g id="patch_21">
    <path d="M 422.334163 162.118437 
L 425.170527 162.118437 
L 425.170527 162.118437 
L 422.334163 162.118437 
z
" clip-path="url(#p3579f74121)" style="fill: #1f77b4; fill-opacity: 0.75; stroke: #000000; stroke-width: 0.922314; stroke-linejoin: miter"/>
   </g>
   <g id="patch_22">
    <path d="M 425.170527 162.118437 
L 428.006891 162.118437 
L 428.006891 162.118437 
L 425.170527 162.118437 
z
" clip-path="url(#p3579f74121)" style="fill: #1f77b4; fill-opacity: 0.75; stroke: #000000; stroke-width: 0.922314; stroke-linejoin: miter"/>
   </g>
   <g id="patch_23">
    <path d="M 428.006891 162.118437 
L 430.843255 162.118437 
L 430.843255 162.118437 
L 428.006891 162.118437 
z
" clip-path="url(#p3579f74121)" style="fill: #1f77b4; fill-opacity: 0.75; stroke: #000000; stroke-width: 0.922314; stroke-linejoin: miter"/>
   </g>
   <g id="patch_24">
    <path d="M 430.843255 162.118437 
L 433.679619 162.118437 
L 433.679619 162.118437 
L 430.843255 162.118437 
z
" clip-path="url(#p3579f74121)" style="fill: #1f77b4; fill-opacity: 0.75; stroke: #000000; stroke-width: 0.922314; stroke-linejoin: miter"/>
   </g>
   <g id="patch_25">
    <path d="M 433.679619 162.118437 
L 436.515983 162.118437 
L 436.515983 162.118437 
L 433.679619 162.118437 
z
" clip-path="url(#p3579f74121)" style="fill: #1f77b4; fill-opacity: 0.75; stroke: #000000; stroke-width: 0.922314; stroke-linejoin: miter"/>
   </g>
   <g id="patch_26">
    <path d="M 436.515983 162.118437 
L 439.352347 162.118437 
L 439.352347 162.118437 
L 436.515983 162.118437 
z
" clip-path="url(#p3579f74121)" style="fill: #1f77b4; fill-opacity: 0.75; stroke: #000000; stroke-width: 0.922314; stroke-linejoin: miter"/>
   </g>
   <g id="patch_27">
    <path d="M 439.352347 162.118437 
L 442.188711 162.118437 
L 442.188711 162.118437 
L 439.352347 162.118437 
z
" clip-path="url(#p3579f74121)" style="fill: #1f77b4; fill-opacity: 0.75; stroke: #000000; stroke-width: 0.922314; stroke-linejoin: miter"/>
   </g>
   <g id="patch_28">
    <path d="M 442.188711 162.118437 
L 445.025075 162.118437 
L 445.025075 162.118437 
L 442.188711 162.118437 
z
" clip-path="url(#p3579f74121)" style="fill: #1f77b4; fill-opacity: 0.75; stroke: #000000; stroke-width: 0.922314; stroke-linejoin: miter"/>
   </g>
   <g id="patch_29">
    <path d="M 445.025075 162.118437 
L 447.861439 162.118437 
L 447.861439 162.118437 
L 445.025075 162.118437 
z
" clip-path="url(#p3579f74121)" style="fill: #1f77b4; fill-opacity: 0.75; stroke: #000000; stroke-width: 0.922314; stroke-linejoin: miter"/>
   </g>
   <g id="patch_30">
    <path d="M 447.861439 162.118437 
L 450.697803 162.118437 
L 450.697803 27.527961 
L 447.861439 27.527961 
z
" clip-path="url(#p3579f74121)" style="fill: #1f77b4; fill-opacity: 0.75; stroke: #000000; stroke-width: 0.922314; stroke-linejoin: miter"/>
   </g>
   <g id="patch_31">
    <path d="M 450.697803 162.118437 
L 453.534167 162.118437 
L 453.534167 162.118437 
L 450.697803 162.118437 
z
" clip-path="url(#p3579f74121)" style="fill: #1f77b4; fill-opacity: 0.75; stroke: #000000; stroke-width: 0.922314; stroke-linejoin: miter"/>
   </g>
   <g id="patch_32">
    <path d="M 453.534167 162.118437 
L 456.370531 162.118437 
L 456.370531 162.118437 
L 453.534167 162.118437 
z
" clip-path="url(#p3579f74121)" style="fill: #1f77b4; fill-opacity: 0.75; stroke: #000000; stroke-width: 0.922314; stroke-linejoin: miter"/>
   </g>
   <g id="patch_33">
    <path d="M 456.370531 162.118437 
L 459.206895 162.118437 
L 459.206895 162.118437 
L 456.370531 162.118437 
z
" clip-path="url(#p3579f74121)" style="fill: #1f77b4; fill-opacity: 0.75; stroke: #000000; stroke-width: 0.922314; stroke-linejoin: miter"/>
   </g>
   <g id="patch_34">
    <path d="M 459.206895 162.118437 
L 462.043259 162.118437 
L 462.043259 162.118437 
L 459.206895 162.118437 
z
" clip-path="url(#p3579f74121)" style="fill: #1f77b4; fill-opacity: 0.75; stroke: #000000; stroke-width: 0.922314; stroke-linejoin: miter"/>
   </g>
   <g id="patch_35">
    <path d="M 462.043259 162.118437 
L 464.879623 162.118437 
L 464.879623 162.118437 
L 462.043259 162.118437 
z
" clip-path="url(#p3579f74121)" style="fill: #1f77b4; fill-opacity: 0.75; stroke: #000000; stroke-width: 0.922314; stroke-linejoin: miter"/>
   </g>
   <g id="patch_36">
    <path d="M 464.879623 162.118437 
L 467.715987 162.118437 
L 467.715987 162.118437 
L 464.879623 162.118437 
z
" clip-path="url(#p3579f74121)" style="fill: #1f77b4; fill-opacity: 0.75; stroke: #000000; stroke-width: 0.922314; stroke-linejoin: miter"/>
   </g>
   <g id="patch_37">
    <path d="M 467.715987 162.118437 
L 470.552351 162.118437 
L 470.552351 162.118437 
L 467.715987 162.118437 
z
" clip-path="url(#p3579f74121)" style="fill: #1f77b4; fill-opacity: 0.75; stroke: #000000; stroke-width: 0.922314; stroke-linejoin: miter"/>
   </g>
   <g id="patch_38">
    <path d="M 470.552351 162.118437 
L 473.388715 162.118437 
L 473.388715 162.118437 
L 470.552351 162.118437 
z
" clip-path="url(#p3579f74121)" style="fill: #1f77b4; fill-opacity: 0.75; stroke: #000000; stroke-width: 0.922314; stroke-linejoin: miter"/>
   </g>
   <g id="patch_39">
    <path d="M 473.388715 162.118437 
L 476.225079 162.118437 
L 476.225079 162.118437 
L 473.388715 162.118437 
z
" clip-path="url(#p3579f74121)" style="fill: #1f77b4; fill-opacity: 0.75; stroke: #000000; stroke-width: 0.922314; stroke-linejoin: miter"/>
   </g>
   <g id="matplotlib.axis_3">
    <g id="xtick_5">
     <g id="line2d_9">
      <g>
       <use xlink:href="#m294f3d3982" x="372.632415" y="162.118437" style="stroke: #000000; stroke-width: 0.8"/>
      </g>
     </g>
     <g id="text_11">
      <!-- −1 -->
      <g transform="translate(365.261322 176.716875) scale(0.1 -0.1)">
       <use xlink:href="#DejaVuSans-2212"/>
       <use xlink:href="#DejaVuSans-31" x="83.789062"/>
      </g>
     </g>
    </g>
    <g id="xtick_6">
     <g id="line2d_10">
      <g>
       <use xlink:href="#m294f3d3982" x="429.359695" y="162.118437" style="stroke: #000000; stroke-width: 0.8"/>
      </g>
     </g>
     <g id="text_12">
      <!-- 0 -->
      <g transform="translate(426.178445 176.716875) scale(0.1 -0.1)">
       <use xlink:href="#DejaVuSans-30"/>
      </g>
     </g>
    </g>
    <g id="xtick_7">
     <g id="line2d_11">
      <g>
       <use xlink:href="#m294f3d3982" x="486.086975" y="162.118437" style="stroke: #000000; stroke-width: 0.8"/>
      </g>
     </g>
     <g id="text_13">
      <!-- 1 -->
      <g transform="translate(482.905725 176.716875) scale(0.1 -0.1)">
       <use xlink:href="#DejaVuSans-31"/>
      </g>
     </g>
    </g>
    <g id="xtick_8">
     <g id="line2d_12">
      <g>
       <use xlink:href="#m294f3d3982" x="542.814254" y="162.118437" style="stroke: #000000; stroke-width: 0.8"/>
      </g>
     </g>
     <g id="text_14">
      <!-- 2 -->
      <g transform="translate(539.633004 176.716875) scale(0.1 -0.1)">
       <use xlink:href="#DejaVuSans-32"/>
      </g>
     </g>
    </g>
   </g>
   <g id="matplotlib.axis_4">
    <g id="ytick_5">
     <g id="line2d_13">
      <g>
       <use xlink:href="#m9aaf9b630f" x="334.386507" y="162.118437" style="stroke: #000000; stroke-width: 0.8"/>
      </g>
     </g>
     <g id="text_15">
      <!-- 0 -->
      <g transform="translate(321.024007 165.917656) scale(0.1 -0.1)">
       <use xlink:href="#DejaVuSans-30"/>
      </g>
     </g>
    </g>
    <g id="ytick_6">
     <g id="line2d_14">
      <g>
       <use xlink:href="#m9aaf9b630f" x="334.386507" y="139.686691" style="stroke: #000000; stroke-width: 0.8"/>
      </g>
     </g>
     <g id="text_16">
      <!-- 500 -->
      <g transform="translate(308.299007 143.48591) scale(0.1 -0.1)">
       <defs>
        <path id="DejaVuSans-35" d="M 691 4666 
L 3169 4666 
L 3169 4134 
L 1269 4134 
L 1269 2991 
Q 1406 3038 1543 3061 
Q 1681 3084 1819 3084 
Q 2600 3084 3056 2656 
Q 3513 2228 3513 1497 
Q 3513 744 3044 326 
Q 2575 -91 1722 -91 
Q 1428 -91 1123 -41 
Q 819 9 494 109 
L 494 744 
Q 775 591 1075 516 
Q 1375 441 1709 441 
Q 2250 441 2565 725 
Q 2881 1009 2881 1497 
Q 2881 1984 2565 2268 
Q 2250 2553 1709 2553 
Q 1456 2553 1204 2497 
Q 953 2441 691 2322 
L 691 4666 
z
" transform="scale(0.015625)"/>
       </defs>
       <use xlink:href="#DejaVuSans-35"/>
       <use xlink:href="#DejaVuSans-30" x="63.623047"/>
       <use xlink:href="#DejaVuSans-30" x="127.246094"/>
      </g>
     </g>
    </g>
    <g id="ytick_7">
     <g id="line2d_15">
      <g>
       <use xlink:href="#m9aaf9b630f" x="334.386507" y="117.254945" style="stroke: #000000; stroke-width: 0.8"/>
      </g>
     </g>
     <g id="text_17">
      <!-- 1000 -->
      <g transform="translate(301.936507 121.054164) scale(0.1 -0.1)">
       <use xlink:href="#DejaVuSans-31"/>
       <use xlink:href="#DejaVuSans-30" x="63.623047"/>
       <use xlink:href="#DejaVuSans-30" x="127.246094"/>
       <use xlink:href="#DejaVuSans-30" x="190.869141"/>
      </g>
     </g>
    </g>
    <g id="ytick_8">
     <g id="line2d_16">
      <g>
       <use xlink:href="#m9aaf9b630f" x="334.386507" y="94.823199" style="stroke: #000000; stroke-width: 0.8"/>
      </g>
     </g>
     <g id="text_18">
      <!-- 1500 -->
      <g transform="translate(301.936507 98.622418) scale(0.1 -0.1)">
       <use xlink:href="#DejaVuSans-31"/>
       <use xlink:href="#DejaVuSans-35" x="63.623047"/>
       <use xlink:href="#DejaVuSans-30" x="127.246094"/>
       <use xlink:href="#DejaVuSans-30" x="190.869141"/>
      </g>
     </g>
    </g>
    <g id="ytick_9">
     <g id="line2d_17">
      <g>
       <use xlink:href="#m9aaf9b630f" x="334.386507" y="72.391453" style="stroke: #000000; stroke-width: 0.8"/>
      </g>
     </g>
     <g id="text_19">
      <!-- 2000 -->
      <g transform="translate(301.936507 76.190672) scale(0.1 -0.1)">
       <use xlink:href="#DejaVuSans-32"/>
       <use xlink:href="#DejaVuSans-30" x="63.623047"/>
       <use xlink:href="#DejaVuSans-30" x="127.246094"/>
       <use xlink:href="#DejaVuSans-30" x="190.869141"/>
      </g>
     </g>
    </g>
    <g id="ytick_10">
     <g id="line2d_18">
      <g>
       <use xlink:href="#m9aaf9b630f" x="334.386507" y="49.959707" style="stroke: #000000; stroke-width: 0.8"/>
      </g>
     </g>
     <g id="text_20">
      <!-- 2500 -->
      <g transform="translate(301.936507 53.758926) scale(0.1 -0.1)">
       <use xlink:href="#DejaVuSans-32"/>
       <use xlink:href="#DejaVuSans-35" x="63.623047"/>
       <use xlink:href="#DejaVuSans-30" x="127.246094"/>
       <use xlink:href="#DejaVuSans-30" x="190.869141"/>
      </g>
     </g>
    </g>
    <g id="ytick_11">
     <g id="line2d_19">
      <g>
       <use xlink:href="#m9aaf9b630f" x="334.386507" y="27.527961" style="stroke: #000000; stroke-width: 0.8"/>
      </g>
     </g>
     <g id="text_21">
      <!-- 3000 -->
      <g transform="translate(301.936507 31.32718) scale(0.1 -0.1)">
       <defs>
        <path id="DejaVuSans-33" d="M 2597 2516 
Q 3050 2419 3304 2112 
Q 3559 1806 3559 1356 
Q 3559 666 3084 287 
Q 2609 -91 1734 -91 
Q 1441 -91 1130 -33 
Q 819 25 488 141 
L 488 750 
Q 750 597 1062 519 
Q 1375 441 1716 441 
Q 2309 441 2620 675 
Q 2931 909 2931 1356 
Q 2931 1769 2642 2001 
Q 2353 2234 1838 2234 
L 1294 2234 
L 1294 2753 
L 1863 2753 
Q 2328 2753 2575 2939 
Q 2822 3125 2822 3475 
Q 2822 3834 2567 4026 
Q 2313 4219 1838 4219 
Q 1578 4219 1281 4162 
Q 984 4106 628 3988 
L 628 4550 
Q 988 4650 1302 4700 
Q 1616 4750 1894 4750 
Q 2613 4750 3031 4423 
Q 3450 4097 3450 3541 
Q 3450 3153 3228 2886 
Q 3006 2619 2597 2516 
z
" transform="scale(0.015625)"/>
       </defs>
       <use xlink:href="#DejaVuSans-33"/>
       <use xlink:href="#DejaVuSans-30" x="63.623047"/>
       <use xlink:href="#DejaVuSans-30" x="127.246094"/>
       <use xlink:href="#DejaVuSans-30" x="190.869141"/>
      </g>
     </g>
    </g>
    <g id="text_22">
     <!-- Count -->
     <g transform="translate(295.856819 106.306875) rotate(-90) scale(0.1 -0.1)">
      <use xlink:href="#DejaVuSans-43"/>
      <use xlink:href="#DejaVuSans-6f" x="69.824219"/>
      <use xlink:href="#DejaVuSans-75" x="131.005859"/>
      <use xlink:href="#DejaVuSans-6e" x="194.384766"/>
      <use xlink:href="#DejaVuSans-74" x="257.763672"/>
     </g>
    </g>
   </g>
   <g id="patch_40">
    <path d="M 334.386507 162.118437 
L 334.386507 20.798438 
" style="fill: none; stroke: #000000; stroke-width: 0.8; stroke-linejoin: miter; stroke-linecap: square"/>
   </g>
   <g id="patch_41">
    <path d="M 561.295625 162.118437 
L 561.295625 20.798438 
" style="fill: none; stroke: #000000; stroke-width: 0.8; stroke-linejoin: miter; stroke-linecap: square"/>
   </g>
   <g id="patch_42">
    <path d="M 334.386507 162.118437 
L 561.295625 162.118437 
" style="fill: none; stroke: #000000; stroke-width: 0.8; stroke-linejoin: miter; stroke-linecap: square"/>
   </g>
   <g id="patch_43">
    <path d="M 334.386507 20.798438 
L 561.295625 20.798438 
" style="fill: none; stroke: #000000; stroke-width: 0.8; stroke-linejoin: miter; stroke-linecap: square"/>
   </g>
   <g id="text_23">
    <!-- MHA output norm (valid) -->
    <g transform="translate(386.144191 14.798438) scale(0.1 -0.1)">
     <defs>
      <path id="DejaVuSans-76" d="M 191 3500 
L 800 3500 
L 1894 563 
L 2988 3500 
L 3597 3500 
L 2284 0 
L 1503 0 
L 191 3500 
z
" transform="scale(0.015625)"/>
      <path id="DejaVuSans-6c" d="M 603 4863 
L 1178 4863 
L 1178 0 
L 603 0 
L 603 4863 
z
" transform="scale(0.015625)"/>
      <path id="DejaVuSans-64" d="M 2906 2969 
L 2906 4863 
L 3481 4863 
L 3481 0 
L 2906 0 
L 2906 525 
Q 2725 213 2448 61 
Q 2172 -91 1784 -91 
Q 1150 -91 751 415 
Q 353 922 353 1747 
Q 353 2572 751 3078 
Q 1150 3584 1784 3584 
Q 2172 3584 2448 3432 
Q 2725 3281 2906 2969 
z
M 947 1747 
Q 947 1113 1208 752 
Q 1469 391 1925 391 
Q 2381 391 2643 752 
Q 2906 1113 2906 1747 
Q 2906 2381 2643 2742 
Q 2381 3103 1925 3103 
Q 1469 3103 1208 2742 
Q 947 2381 947 1747 
z
" transform="scale(0.015625)"/>
     </defs>
     <use xlink:href="#DejaVuSans-4d"/>
     <use xlink:href="#DejaVuSans-48" x="86.279297"/>
     <use xlink:href="#DejaVuSans-41" x="161.474609"/>
     <use xlink:href="#DejaVuSans-20" x="229.882812"/>
     <use xlink:href="#DejaVuSans-6f" x="261.669922"/>
     <use xlink:href="#DejaVuSans-75" x="322.851562"/>
     <use xlink:href="#DejaVuSans-74" x="386.230469"/>
     <use xlink:href="#DejaVuSans-70" x="425.439453"/>
     <use xlink:href="#DejaVuSans-75" x="488.916016"/>
     <use xlink:href="#DejaVuSans-74" x="552.294922"/>
     <use xlink:href="#DejaVuSans-20" x="591.503906"/>
     <use xlink:href="#DejaVuSans-6e" x="623.291016"/>
     <use xlink:href="#DejaVuSans-6f" x="686.669922"/>
     <use xlink:href="#DejaVuSans-72" x="747.851562"/>
     <use xlink:href="#DejaVuSans-6d" x="787.214844"/>
     <use xlink:href="#DejaVuSans-20" x="884.626953"/>
     <use xlink:href="#DejaVuSans-28" x="916.414062"/>
     <use xlink:href="#DejaVuSans-76" x="955.427734"/>
     <use xlink:href="#DejaVuSans-61" x="1014.607422"/>
     <use xlink:href="#DejaVuSans-6c" x="1075.886719"/>
     <use xlink:href="#DejaVuSans-69" x="1103.669922"/>
     <use xlink:href="#DejaVuSans-64" x="1131.453125"/>
     <use xlink:href="#DejaVuSans-29" x="1194.929688"/>
    </g>
   </g>
  </g>
 </g>
 <defs>
  <clipPath id="p7337f9a78a">
   <rect x="46.965625" y="20.798438" width="226.909118" height="141.32"/>
  </clipPath>
  <clipPath id="p3579f74121">
   <rect x="334.386507" y="20.798438" width="226.909118" height="141.32"/>
  </clipPath>
 </defs>
</svg>