<?xml version="1.0" encoding="utf-8" standalone="no"?>
<!DOCTYPE svg PUBLIC "-//W3C//DTD SVG 1.1//EN"
  "http://www.w3.org/Graphics/SVG/1.1/DTD/svg11.dtd">
<svg xmlns:xlink="http://www.w3.org/1999/xlink" width="853.949017pt" height="494.2995pt" viewBox="0 0 853.949017 494.2995" xmlns="http://www.w3.org/2000/svg" version="1.1">
 <metadata>
  <rdf:RDF xmlns:dc="http://purl.org/dc/elements/1.1/" xmlns:cc="http://creativecommons.org/ns#" xmlns:rdf="http://www.w3.org/1999/02/22-rdf-syntax-ns#">
   <cc:Work>
    <dc:type rdf:resource="http://purl.org/dc/dcmitype/StillImage"/>
    <dc:date>2023-03-29T02:56:51.092834</dc:date>
    <dc:format>image/svg+xml</dc:format>
    <dc:creator>
     <cc:Agent>
      <dc:title>Matplotlib v3.7.0, https://matplotlib.org/</dc:title>
     </cc:Agent>
    </dc:creator>
   </cc:Work>
  </rdf:RDF>
 </metadata>
 <defs>
  <style type="text/css">*{stroke-linejoin: round; stroke-linecap: butt}</style>
 </defs>
 <g id="figure_1">
  <g id="patch_1">
   <path d="M 0 494.2995 
L 853.949017 494.2995 
L 853.949017 -0 
L 0 -0 
z
" style="fill: #ffffff"/>
  </g>
  <g id="axes_1">
   <g id="patch_2">
    <path d="M 33.2875 247.4875 
L 419.573168 247.4875 
L 419.573168 35.7555 
L 33.2875 35.7555 
z
" style="fill: #ffffff"/>
   </g>
   <g id="matplotlib.axis_1">
    <g id="xtick_1">
     <g id="line2d_1">
      <defs>
       <path id="m11ebffaa28" d="M 0 0 
L 0 3.5 
" style="stroke: #000000; stroke-width: 0.8"/>
      </defs>
      <g>
       <use xlink:href="#m11ebffaa28" x="53.938371" y="247.4875" style="stroke: #000000; stroke-width: 0.8"/>
      </g>
     </g>
     <g id="text_1">
      <!-- −0.0100 -->
      <g transform="translate(32.253215 262.085938) scale(0.1 -0.1)">
       <defs>
        <path id="DejaVuSans-2212" d="M 678 2272 
L 4684 2272 
L 4684 1741 
L 678 1741 
L 678 2272 
z
" transform="scale(0.015625)"/>
        <path id="DejaVuSans-30" d="M 2034 4250 
Q 1547 4250 1301 3770 
Q 1056 3291 1056 2328 
Q 1056 1369 1301 889 
Q 1547 409 2034 409 
Q 2525 409 2770 889 
Q 3016 1369 3016 2328 
Q 3016 3291 2770 3770 
Q 2525 4250 2034 4250 
z
M 2034 4750 
Q 2819 4750 3233 4129 
Q 3647 3509 3647 2328 
Q 3647 1150 3233 529 
Q 2819 -91 2034 -91 
Q 1250 -91 836 529 
Q 422 1150 422 2328 
Q 422 3509 836 4129 
Q 1250 4750 2034 4750 
z
" transform="scale(0.015625)"/>
        <path id="DejaVuSans-2e" d="M 684 794 
L 1344 794 
L 1344 0 
L 684 0 
L 684 794 
z
" transform="scale(0.015625)"/>
        <path id="DejaVuSans-31" d="M 794 531 
L 1825 531 
L 1825 4091 
L 703 3866 
L 703 4441 
L 1819 4666 
L 2450 4666 
L 2450 531 
L 3481 531 
L 3481 0 
L 794 0 
L 794 531 
z
" transform="scale(0.015625)"/>
       </defs>
       <use xlink:href="#DejaVuSans-2212"/>
       <use xlink:href="#DejaVuSans-30" x="83.789062"/>
       <use xlink:href="#DejaVuSans-2e" x="147.412109"/>
       <use xlink:href="#DejaVuSans-30" x="179.199219"/>
       <use xlink:href="#DejaVuSans-31" x="242.822266"/>
       <use xlink:href="#DejaVuSans-30" x="306.445312"/>
       <use xlink:href="#DejaVuSans-30" x="370.068359"/>
      </g>
     </g>
    </g>
    <g id="xtick_2">
     <g id="line2d_2">
      <g>
       <use xlink:href="#m11ebffaa28" x="97.061362" y="247.4875" style="stroke: #000000; stroke-width: 0.8"/>
      </g>
     </g>
     <g id="text_2">
      <!-- −0.0075 -->
      <g transform="translate(75.376206 262.085938) scale(0.1 -0.1)">
       <defs>
        <path id="DejaVuSans-37" d="M 525 4666 
L 3525 4666 
L 3525 4397 
L 1831 0 
L 1172 0 
L 2766 4134 
L 525 4134 
L 525 4666 
z
" transform="scale(0.015625)"/>
        <path id="DejaVuSans-35" d="M 691 4666 
L 3169 4666 
L 3169 4134 
L 1269 4134 
L 1269 2991 
Q 1406 3038 1543 3061 
Q 1681 3084 1819 3084 
Q 2600 3084 3056 2656 
Q 3513 2228 3513 1497 
Q 3513 744 3044 326 
Q 2575 -91 1722 -91 
Q 1428 -91 1123 -41 
Q 819 9 494 109 
L 494 744 
Q 775 591 1075 516 
Q 1375 441 1709 441 
Q 2250 441 2565 725 
Q 2881 1009 2881 1497 
Q 2881 1984 2565 2268 
Q 2250 2553 1709 2553 
Q 1456 2553 1204 2497 
Q 953 2441 691 2322 
L 691 4666 
z
" transform="scale(0.015625)"/>
       </defs>
       <use xlink:href="#DejaVuSans-2212"/>
       <use xlink:href="#DejaVuSans-30" x="83.789062"/>
       <use xlink:href="#DejaVuSans-2e" x="147.412109"/>
       <use xlink:href="#DejaVuSans-30" x="179.199219"/>
       <use xlink:href="#DejaVuSans-30" x="242.822266"/>
       <use xlink:href="#DejaVuSans-37" x="306.445312"/>
       <use xlink:href="#DejaVuSans-35" x="370.068359"/>
      </g>
     </g>
    </g>
    <g id="xtick_3">
     <g id="line2d_3">
      <g>
       <use xlink:href="#m11ebffaa28" x="140.184352" y="247.4875" style="stroke: #000000; stroke-width: 0.8"/>
      </g>
     </g>
     <g id="text_3">
      <!-- −0.0050 -->
      <g transform="translate(118.499196 262.085938) scale(0.1 -0.1)">
       <use xlink:href="#DejaVuSans-2212"/>
       <use xlink:href="#DejaVuSans-30" x="83.789062"/>
       <use xlink:href="#DejaVuSans-2e" x="147.412109"/>
       <use xlink:href="#DejaVuSans-30" x="179.199219"/>
       <use xlink:href="#DejaVuSans-30" x="242.822266"/>
       <use xlink:href="#DejaVuSans-35" x="306.445312"/>
       <use xlink:href="#DejaVuSans-30" x="370.068359"/>
      </g>
     </g>
    </g>
    <g id="xtick_4">
     <g id="line2d_4">
      <g>
       <use xlink:href="#m11ebffaa28" x="183.307343" y="247.4875" style="stroke: #000000; stroke-width: 0.8"/>
      </g>
     </g>
     <g id="text_4">
      <!-- −0.0025 -->
      <g transform="translate(161.622187 262.085938) scale(0.1 -0.1)">
       <defs>
        <path id="DejaVuSans-32" d="M 1228 531 
L 3431 531 
L 3431 0 
L 469 0 
L 469 531 
Q 828 903 1448 1529 
Q 2069 2156 2228 2338 
Q 2531 2678 2651 2914 
Q 2772 3150 2772 3378 
Q 2772 3750 2511 3984 
Q 2250 4219 1831 4219 
Q 1534 4219 1204 4116 
Q 875 4013 500 3803 
L 500 4441 
Q 881 4594 1212 4672 
Q 1544 4750 1819 4750 
Q 2544 4750 2975 4387 
Q 3406 4025 3406 3419 
Q 3406 3131 3298 2873 
Q 3191 2616 2906 2266 
Q 2828 2175 2409 1742 
Q 1991 1309 1228 531 
z
" transform="scale(0.015625)"/>
       </defs>
       <use xlink:href="#DejaVuSans-2212"/>
       <use xlink:href="#DejaVuSans-30" x="83.789062"/>
       <use xlink:href="#DejaVuSans-2e" x="147.412109"/>
       <use xlink:href="#DejaVuSans-30" x="179.199219"/>
       <use xlink:href="#DejaVuSans-30" x="242.822266"/>
       <use xlink:href="#DejaVuSans-32" x="306.445312"/>
       <use xlink:href="#DejaVuSans-35" x="370.068359"/>
      </g>
     </g>
    </g>
    <g id="xtick_5">
     <g id="line2d_5">
      <g>
       <use xlink:href="#m11ebffaa28" x="226.430334" y="247.4875" style="stroke: #000000; stroke-width: 0.8"/>
      </g>
     </g>
     <g id="text_5">
      <!-- 0.0000 -->
      <g transform="translate(208.935021 262.085938) scale(0.1 -0.1)">
       <use xlink:href="#DejaVuSans-30"/>
       <use xlink:href="#DejaVuSans-2e" x="63.623047"/>
       <use xlink:href="#DejaVuSans-30" x="95.410156"/>
       <use xlink:href="#DejaVuSans-30" x="159.033203"/>
       <use xlink:href="#DejaVuSans-30" x="222.65625"/>
       <use xlink:href="#DejaVuSans-30" x="286.279297"/>
      </g>
     </g>
    </g>
    <g id="xtick_6">
     <g id="line2d_6">
      <g>
       <use xlink:href="#m11ebffaa28" x="269.553324" y="247.4875" style="stroke: #000000; stroke-width: 0.8"/>
      </g>
     </g>
     <g id="text_6">
      <!-- 0.0025 -->
      <g transform="translate(252.058012 262.085938) scale(0.1 -0.1)">
       <use xlink:href="#DejaVuSans-30"/>
       <use xlink:href="#DejaVuSans-2e" x="63.623047"/>
       <use xlink:href="#DejaVuSans-30" x="95.410156"/>
       <use xlink:href="#DejaVuSans-30" x="159.033203"/>
       <use xlink:href="#DejaVuSans-32" x="222.65625"/>
       <use xlink:href="#DejaVuSans-35" x="286.279297"/>
      </g>
     </g>
    </g>
    <g id="xtick_7">
     <g id="line2d_7">
      <g>
       <use xlink:href="#m11ebffaa28" x="312.676315" y="247.4875" style="stroke: #000000; stroke-width: 0.8"/>
      </g>
     </g>
     <g id="text_7">
      <!-- 0.0050 -->
      <g transform="translate(295.181003 262.085938) scale(0.1 -0.1)">
       <use xlink:href="#DejaVuSans-30"/>
       <use xlink:href="#DejaVuSans-2e" x="63.623047"/>
       <use xlink:href="#DejaVuSans-30" x="95.410156"/>
       <use xlink:href="#DejaVuSans-30" x="159.033203"/>
       <use xlink:href="#DejaVuSans-35" x="222.65625"/>
       <use xlink:href="#DejaVuSans-30" x="286.279297"/>
      </g>
     </g>
    </g>
    <g id="xtick_8">
     <g id="line2d_8">
      <g>
       <use xlink:href="#m11ebffaa28" x="355.799306" y="247.4875" style="stroke: #000000; stroke-width: 0.8"/>
      </g>
     </g>
     <g id="text_8">
      <!-- 0.0075 -->
      <g transform="translate(338.303993 262.085938) scale(0.1 -0.1)">
       <use xlink:href="#DejaVuSans-30"/>
       <use xlink:href="#DejaVuSans-2e" x="63.623047"/>
       <use xlink:href="#DejaVuSans-30" x="95.410156"/>
       <use xlink:href="#DejaVuSans-30" x="159.033203"/>
       <use xlink:href="#DejaVuSans-37" x="222.65625"/>
       <use xlink:href="#DejaVuSans-35" x="286.279297"/>
      </g>
     </g>
    </g>
    <g id="xtick_9">
     <g id="line2d_9">
      <g>
       <use xlink:href="#m11ebffaa28" x="398.922297" y="247.4875" style="stroke: #000000; stroke-width: 0.8"/>
      </g>
     </g>
     <g id="text_9">
      <!-- 0.0100 -->
      <g transform="translate(381.426984 262.085938) scale(0.1 -0.1)">
       <use xlink:href="#DejaVuSans-30"/>
       <use xlink:href="#DejaVuSans-2e" x="63.623047"/>
       <use xlink:href="#DejaVuSans-30" x="95.410156"/>
       <use xlink:href="#DejaVuSans-31" x="159.033203"/>
       <use xlink:href="#DejaVuSans-30" x="222.65625"/>
       <use xlink:href="#DejaVuSans-30" x="286.279297"/>
      </g>
     </g>
    </g>
   </g>
   <g id="matplotlib.axis_2">
    <g id="ytick_1">
     <g id="line2d_10">
      <defs>
       <path id="m5b649a6504" d="M 0 0 
L -3.5 0 
" style="stroke: #000000; stroke-width: 0.8"/>
      </defs>
      <g>
       <use xlink:href="#m5b649a6504" x="33.2875" y="237.863318" style="stroke: #000000; stroke-width: 0.8"/>
      </g>
     </g>
     <g id="text_10">
      <!-- 0 -->
      <g transform="translate(19.925 241.662537) scale(0.1 -0.1)">
       <use xlink:href="#DejaVuSans-30"/>
      </g>
     </g>
    </g>
    <g id="ytick_2">
     <g id="line2d_11">
      <g>
       <use xlink:href="#m5b649a6504" x="33.2875" y="191.905457" style="stroke: #000000; stroke-width: 0.8"/>
      </g>
     </g>
     <g id="text_11">
      <!-- 50 -->
      <g transform="translate(13.5625 195.704675) scale(0.1 -0.1)">
       <use xlink:href="#DejaVuSans-35"/>
       <use xlink:href="#DejaVuSans-30" x="63.623047"/>
      </g>
     </g>
    </g>
    <g id="ytick_3">
     <g id="line2d_12">
      <g>
       <use xlink:href="#m5b649a6504" x="33.2875" y="145.947595" style="stroke: #000000; stroke-width: 0.8"/>
      </g>
     </g>
     <g id="text_12">
      <!-- 100 -->
      <g transform="translate(7.2 149.746814) scale(0.1 -0.1)">
       <use xlink:href="#DejaVuSans-31"/>
       <use xlink:href="#DejaVuSans-30" x="63.623047"/>
       <use xlink:href="#DejaVuSans-30" x="127.246094"/>
      </g>
     </g>
    </g>
    <g id="ytick_4">
     <g id="line2d_13">
      <g>
       <use xlink:href="#m5b649a6504" x="33.2875" y="99.989734" style="stroke: #000000; stroke-width: 0.8"/>
      </g>
     </g>
     <g id="text_13">
      <!-- 150 -->
      <g transform="translate(7.2 103.788952) scale(0.1 -0.1)">
       <use xlink:href="#DejaVuSans-31"/>
       <use xlink:href="#DejaVuSans-35" x="63.623047"/>
       <use xlink:href="#DejaVuSans-30" x="127.246094"/>
      </g>
     </g>
    </g>
    <g id="ytick_5">
     <g id="line2d_14">
      <g>
       <use xlink:href="#m5b649a6504" x="33.2875" y="54.031872" style="stroke: #000000; stroke-width: 0.8"/>
      </g>
     </g>
     <g id="text_14">
      <!-- 200 -->
      <g transform="translate(7.2 57.831091) scale(0.1 -0.1)">
       <use xlink:href="#DejaVuSans-32"/>
       <use xlink:href="#DejaVuSans-30" x="63.623047"/>
       <use xlink:href="#DejaVuSans-30" x="127.246094"/>
      </g>
     </g>
    </g>
   </g>
   <g id="line2d_15">
    <path d="M -1 237.123199 
L 0.542425 237.123199 
L 7.236754 235.642961 
L 13.931084 236.38308 
L 20.625413 232.682485 
L 27.319743 233.422593 
L 34.014056 235.642961 
L 40.708386 235.642961 
L 47.402715 234.902842 
L 54.097045 236.38308 
L 60.791374 234.162723 
L 67.485704 231.202246 
L 74.180033 230.462127 
L 80.874363 228.981889 
L 87.568692 228.981889 
L 94.263022 228.981889 
L 100.957351 223.060937 
L 107.651681 221.580698 
L 114.34601 220.840578 
L 121.04034 226.021413 
L 127.734669 223.801056 
L 134.428999 218.620222 
L 141.123328 212.699269 
L 147.817658 205.298079 
L 154.511987 198.637008 
L 161.206317 197.896886 
L 167.900646 186.054953 
L 174.594972 173.472957 
L 181.289301 175.693319 
L 187.983631 161.630919 
L 194.677948 150.529272 
L 201.372278 143.128076 
L 208.066607 103.90172 
L 214.760935 87.619147 
L 221.455264 57.274238 
L 228.149593 78.737701 
L 234.843922 97.240677 
L 241.538251 126.845517 
L 248.232584 125.365218 
L 254.926914 157.190336 
L 261.621243 149.78914 
L 268.315573 169.772359 
L 275.009902 168.292081 
L 281.704228 192.716052 
L 288.398557 208.998692 
L 295.092891 204.55788 
L 301.787204 206.038197 
L 308.481534 215.659744 
L 315.175863 215.659744 
L 321.870193 225.281294 
L 328.564522 220.10046 
L 335.258852 221.580698 
L 341.953181 228.24177 
L 348.647511 225.281294 
L 355.34184 228.24177 
L 362.03617 227.501651 
L 368.730499 231.202246 
L 375.424829 228.981889 
L 382.119158 234.162723 
L 388.813488 231.202246 
L 395.507817 231.202246 
L 402.202147 235.642956 
L 408.89646 235.642961 
L 415.59079 235.642961 
L 422.285119 235.642961 
L 428.979449 232.682485 
L 435.673778 234.162723 
L 442.368108 235.642961 
L 449.062437 237.863318 
L 455.756767 236.38308 
L 462.451096 237.123199 
L 469.145426 237.863318 
L 475.839755 237.123199 
L 482.534085 237.863318 
L 489.228414 237.123199 
L 495.922744 237.863318 
L 502.617073 237.123199 
L 509.311403 237.863318 
L 516.005732 237.123199 
L 522.700062 237.863318 
L 529.394391 237.863318 
L 536.088721 237.123199 
" clip-path="url(#p38c0e73ba8)" style="fill: none; stroke: #1f77b4; stroke-width: 1.5; stroke-linecap: square"/>
   </g>
   <g id="line2d_16">
    <path d="M -1 237.021306 
L -0.763271 236.984397 
L 4.873865 237.863318 
L 10.511002 236.10548 
L 16.148154 237.863318 
L 21.785291 236.10548 
L 27.422443 235.226554 
L 33.05958 236.984397 
L 38.696716 234.347642 
L 44.333869 234.347632 
L 49.971005 235.226561 
L 55.608158 236.984397 
L 61.245295 233.46871 
L 66.882431 232.589804 
L 72.519584 231.710867 
L 78.15672 229.953023 
L 83.793857 233.468723 
L 89.431009 229.074102 
L 95.068146 228.195194 
L 100.70529 225.558433 
L 106.342435 229.074102 
L 111.979571 226.437354 
L 117.616716 218.52707 
L 123.25386 221.163832 
L 128.891005 215.011389 
L 134.528149 215.890278 
L 140.165286 216.769231 
L 145.80243 214.132467 
L 151.439575 202.706452 
L 157.076711 203.585427 
L 162.713856 201.827585 
L 168.351 180.733498 
L 173.988145 176.338851 
L 179.625285 174.581006 
L 185.262426 163.155082 
L 190.89957 157.881534 
L 196.536713 140.303122 
L 202.173855 135.029602 
L 207.810998 87.567885 
L 213.44814 77.89975 
L 219.085283 45.379682 
L 224.722425 56.805669 
L 230.359568 77.020831 
L 235.99671 101.630615 
L 241.633853 134.150683 
L 247.270996 110.419817 
L 252.908138 135.908233 
L 258.545264 145.576684 
L 264.182409 169.307486 
L 269.81955 168.42856 
L 275.45669 178.97565 
L 281.093835 191.280542 
L 286.730979 197.432953 
L 292.36812 199.190794 
L 298.00526 206.222096 
L 303.642389 207.980024 
L 309.279533 217.648149 
L 314.916678 222.042728 
L 320.553814 219.405991 
L 326.190959 226.437354 
L 331.828103 226.437338 
L 337.46524 224.679513 
L 343.102384 232.589811 
L 348.739545 222.921671 
L 354.376689 234.347637 
L 360.013834 236.105475 
L 365.65097 230.831966 
L 371.288123 231.710867 
L 376.925259 234.347632 
L 382.562396 234.347642 
L 388.199548 236.984394 
L 393.836669 236.105475 
L 399.473805 236.984399 
L 405.110958 236.984397 
L 410.748094 236.10548 
L 416.385247 236.984397 
L 422.022383 236.105475 
L 427.65952 236.984399 
L 433.296672 237.863318 
L 438.933825 236.984397 
L 444.570961 236.10548 
L 450.208114 236.984397 
L 455.845251 236.984399 
L 461.482403 236.984397 
L 467.11954 237.863318 
L 472.756676 236.10548 
L 478.393829 237.863318 
L 484.030949 237.863318 
L 489.668102 237.863318 
L 495.305238 237.863318 
L 500.942375 236.984399 
" clip-path="url(#p38c0e73ba8)" style="fill: none; stroke: #ff7f0e; stroke-width: 1.5; stroke-linecap: square"/>
   </g>
   <g id="line2d_17">
    <path d="M -1 237.800487 
L 4.237323 236.98497 
L 9.878138 236.106626 
L 15.51897 237.863318 
L 21.159801 237.863318 
L 26.800616 237.863318 
L 32.441448 236.106621 
L 38.082263 236.984972 
L 43.723094 236.984972 
L 49.363926 236.98497 
L 55.004741 236.984972 
L 60.645572 232.593243 
L 66.286404 232.593228 
L 71.927219 233.471589 
L 77.56805 233.471576 
L 83.208865 231.714897 
L 88.849697 231.714897 
L 94.490528 232.593236 
L 100.131351 222.931417 
L 105.772175 229.958204 
L 111.413006 221.174747 
L 117.053837 225.566458 
L 122.694661 223.809784 
L 128.335492 217.661333 
L 133.976315 217.661363 
L 139.617147 215.90464 
L 145.25797 209.756211 
L 150.898793 208.877902 
L 156.539625 196.58106 
L 162.180456 193.94599 
L 167.821283 172.865672 
L 173.462111 188.675878 
L 179.102934 162.325518 
L 184.743761 171.987328 
L 190.384589 137.731779 
L 196.025414 136.853435 
L 201.666239 121.042727 
L 207.307042 113.138089 
L 212.947869 72.734147 
L 218.588695 68.342413 
L 224.229521 60.437291 
L 229.870348 77.125866 
L 235.511174 101.719591 
L 241.152 116.65145 
L 246.792826 114.894987 
L 252.433661 147.393631 
L 258.074488 150.907013 
L 263.715316 157.055378 
L 269.356139 186.040875 
L 274.996966 175.500717 
L 280.637794 188.675878 
L 286.278617 189.554257 
L 291.919444 200.094362 
L 297.560264 210.634556 
L 303.201087 207.999558 
L 308.841918 215.026293 
L 314.482742 211.51294 
L 320.123573 216.782988 
L 325.764396 219.418028 
L 331.405219 225.566476 
L 337.046051 229.079859 
L 342.686882 228.201499 
L 348.327705 232.593243 
L 353.968537 228.201499 
L 359.60936 233.471589 
L 365.250191 230.836531 
L 370.891007 232.593243 
L 376.531838 236.106626 
L 382.172669 233.471576 
L 387.813485 237.863318 
L 393.454316 234.349925 
L 399.095131 233.471589 
L 404.735963 236.106626 
L 410.376794 236.98497 
L 416.017609 236.106626 
L 421.658441 236.984972 
L 427.299272 236.984972 
L 432.940103 236.106626 
L 438.580935 236.98497 
L 444.22175 237.863318 
L 449.862581 236.984972 
L 455.503413 237.863318 
L 461.144228 237.863318 
L 466.785059 236.984972 
L 472.425891 237.863318 
L 478.066706 236.984972 
L 483.707537 237.863318 
L 489.348369 237.863318 
L 494.989184 236.984972 
" clip-path="url(#p38c0e73ba8)" style="fill: none; stroke: #2ca02c; stroke-width: 1.5; stroke-linecap: square"/>
   </g>
   <g id="line2d_18">
    <path d="M -1 237.369009 
L 0.112457 237.863318 
L 4.834861 237.863318 
L 9.557249 236.814149 
L 14.279653 237.863318 
L 19.002041 237.863318 
L 23.724445 236.814145 
L 28.446833 237.863318 
L 33.169237 233.666627 
L 37.891625 235.76498 
L 42.614029 234.7158 
L 47.336417 234.71581 
L 52.058821 235.764973 
L 56.781209 236.814149 
L 61.503613 234.7158 
L 66.226001 234.7158 
L 70.948389 234.7158 
L 75.670777 230.519133 
L 80.393181 235.764973 
L 85.115569 229.469964 
L 89.837973 233.666627 
L 94.560361 224.224095 
L 99.282757 225.273266 
L 104.005153 227.371607 
L 108.727549 222.125752 
L 113.449945 226.322437 
L 118.172341 222.125752 
L 122.894737 226.322417 
L 127.617125 212.683214 
L 132.339521 208.48653 
L 137.061917 218.978239 
L 141.784313 207.43736 
L 146.506709 220.02741 
L 151.229105 187.50311 
L 155.951501 206.388158 
L 160.673893 187.50311 
L 165.396289 173.863882 
L 170.118685 175.962175 
L 174.841077 169.667205 
L 179.563473 171.765659 
L 184.285877 144.487099 
L 189.008273 143.437886 
L 193.730667 137.14286 
L 198.453061 129.798704 
L 203.175457 143.437928 
L 207.897853 90.979311 
L 212.620247 111.962761 
L 217.342642 119.306762 
L 222.065029 89.930168 
L 226.787424 120.356136 
L 231.509819 101.471064 
L 236.232214 125.601992 
L 240.954609 108.815275 
L 245.677005 125.601964 
L 250.399399 118.257773 
L 255.121793 137.14307 
L 259.844197 151.831297 
L 264.566593 165.470521 
L 269.288989 162.322937 
L 274.011381 157.077152 
L 278.733777 182.257258 
L 283.456173 179.109689 
L 288.178565 195.896475 
L 292.900961 201.142271 
L 297.623349 203.240673 
L 302.345745 205.339015 
L 307.068141 206.388186 
L 311.790537 202.191502 
L 316.512933 207.437308 
L 321.235321 215.830727 
L 325.957717 213.732383 
L 330.680113 220.027441 
L 335.402517 222.125752 
L 340.124913 225.273266 
L 344.847309 227.371607 
L 349.569705 229.46995 
L 354.292101 228.420763 
L 359.014489 233.666641 
L 363.736893 230.519108 
L 368.459281 236.814145 
L 373.181669 234.7158 
L 377.904057 231.568303 
L 382.626461 233.666627 
L 387.348849 236.814149 
L 392.071253 234.7158 
L 396.793641 236.814149 
L 401.516045 236.814145 
L 406.238433 234.71581 
L 410.960837 234.7158 
L 415.683225 236.814149 
L 420.405629 235.764973 
L 425.128017 237.863318 
L 429.850421 236.814145 
L 434.572809 237.863318 
L 439.295213 236.814145 
L 444.017601 236.814145 
L 448.739989 236.814149 
L 453.462393 237.863318 
L 458.184781 235.76498 
L 462.907185 236.814145 
" clip-path="url(#p38c0e73ba8)" style="fill: none; stroke: #d62728; stroke-width: 1.5; stroke-linecap: square"/>
   </g>
   <g id="line2d_19">
    <path d="M -1 237.863318 
L -0.696057 237.863318 
L 5.409233 236.240271 
L 11.514539 233.805689 
L 17.619829 237.863318 
L 23.725135 237.863318 
L 29.830426 237.051792 
L 35.935716 237.863318 
L 42.041022 237.051792 
L 48.146312 237.051792 
L 54.251602 237.863318 
L 60.356908 233.805689 
L 66.462198 233.805699 
L 72.567504 235.428741 
L 78.672794 235.428741 
L 84.778084 233.805699 
L 90.88339 233.805689 
L 96.988681 232.994163 
L 103.093971 229.748059 
L 109.199261 224.878921 
L 115.304559 219.198223 
L 121.409849 224.067396 
L 127.515147 217.575171 
L 133.620437 215.140623 
L 139.725735 208.648423 
L 145.831033 203.779231 
L 151.936323 195.663972 
L 158.041613 186.73722 
L 164.146907 181.056544 
L 170.252202 175.375907 
L 176.3575 168.072137 
L 182.462794 165.637561 
L 188.568088 134.79963 
L 194.673384 129.11895 
L 200.77868 148.59588 
L 206.883998 115.323009 
L 212.989293 103.96165 
L 219.094588 88.542666 
L 225.199883 95.034874 
L 231.305179 99.904025 
L 237.410474 103.150136 
L 243.515769 112.888454 
L 249.621065 128.307247 
L 255.726351 151.030099 
L 261.831645 151.841633 
L 267.936939 159.145403 
L 274.042237 162.391458 
L 280.147531 176.998913 
L 286.252825 191.606404 
L 292.358123 198.910075 
L 298.463413 202.967794 
L 304.56872 206.213849 
L 310.674018 209.459912 
L 316.779308 214.329099 
L 322.884606 218.386697 
L 328.989896 225.690445 
L 335.095194 227.313496 
L 341.200492 228.125007 
L 347.305782 231.371111 
L 353.411072 235.428744 
L 359.51637 232.182644 
L 365.621668 231.371111 
L 371.726959 233.805689 
L 377.832249 237.051794 
L 383.937555 233.805689 
L 390.042845 234.617215 
L 396.148135 237.051794 
L 402.253441 237.051792 
L 408.358731 237.051794 
L 414.464037 235.428741 
L 420.569327 237.863318 
L 426.674617 237.051794 
L 432.779924 236.240266 
L 438.885214 237.863318 
L 444.990504 237.863318 
L 451.095794 237.051792 
L 457.201084 237.051794 
L 463.30639 237.051792 
L 469.41168 237.863318 
L 475.51697 237.863318 
L 481.622276 237.863318 
L 487.727566 237.863318 
L 493.832856 237.863318 
L 499.938146 237.863318 
L 506.043453 237.863318 
L 512.148759 237.863318 
L 518.254033 237.051794 
" clip-path="url(#p38c0e73ba8)" style="fill: none; stroke: #9467bd; stroke-width: 1.5; stroke-linecap: square"/>
   </g>
   <g id="patch_3">
    <path d="M 33.2875 247.4875 
L 33.2875 35.7555 
" style="fill: none; stroke: #000000; stroke-width: 0.8; stroke-linejoin: miter; stroke-linecap: square"/>
   </g>
   <g id="patch_4">
    <path d="M 419.573168 247.4875 
L 419.573168 35.7555 
" style="fill: none; stroke: #000000; stroke-width: 0.8; stroke-linejoin: miter; stroke-linecap: square"/>
   </g>
   <g id="patch_5">
    <path d="M 33.2875 247.4875 
L 419.573168 247.4875 
" style="fill: none; stroke: #000000; stroke-width: 0.8; stroke-linejoin: miter; stroke-linecap: square"/>
   </g>
   <g id="patch_6">
    <path d="M 33.2875 35.7555 
L 419.573168 35.7555 
" style="fill: none; stroke: #000000; stroke-width: 0.8; stroke-linejoin: miter; stroke-linecap: square"/>
   </g>
   <g id="text_15">
    <!-- Activation gradients histogram -->
    <g transform="translate(133.762209 16.318125) scale(0.12 -0.12)">
     <defs>
      <path id="DejaVuSans-41" d="M 2188 4044 
L 1331 1722 
L 3047 1722 
L 2188 4044 
z
M 1831 4666 
L 2547 4666 
L 4325 0 
L 3669 0 
L 3244 1197 
L 1141 1197 
L 716 0 
L 50 0 
L 1831 4666 
z
" transform="scale(0.015625)"/>
      <path id="DejaVuSans-63" d="M 3122 3366 
L 3122 2828 
Q 2878 2963 2633 3030 
Q 2388 3097 2138 3097 
Q 1578 3097 1268 2742 
Q 959 2388 959 1747 
Q 959 1106 1268 751 
Q 1578 397 2138 397 
Q 2388 397 2633 464 
Q 2878 531 3122 666 
L 3122 134 
Q 2881 22 2623 -34 
Q 2366 -91 2075 -91 
Q 1284 -91 818 406 
Q 353 903 353 1747 
Q 353 2603 823 3093 
Q 1294 3584 2113 3584 
Q 2378 3584 2631 3529 
Q 2884 3475 3122 3366 
z
" transform="scale(0.015625)"/>
      <path id="DejaVuSans-74" d="M 1172 4494 
L 1172 3500 
L 2356 3500 
L 2356 3053 
L 1172 3053 
L 1172 1153 
Q 1172 725 1289 603 
Q 1406 481 1766 481 
L 2356 481 
L 2356 0 
L 1766 0 
Q 1100 0 847 248 
Q 594 497 594 1153 
L 594 3053 
L 172 3053 
L 172 3500 
L 594 3500 
L 594 4494 
L 1172 4494 
z
" transform="scale(0.015625)"/>
      <path id="DejaVuSans-69" d="M 603 3500 
L 1178 3500 
L 1178 0 
L 603 0 
L 603 3500 
z
M 603 4863 
L 1178 4863 
L 1178 4134 
L 603 4134 
L 603 4863 
z
" transform="scale(0.015625)"/>
      <path id="DejaVuSans-76" d="M 191 3500 
L 800 3500 
L 1894 563 
L 2988 3500 
L 3597 3500 
L 2284 0 
L 1503 0 
L 191 3500 
z
" transform="scale(0.015625)"/>
      <path id="DejaVuSans-61" d="M 2194 1759 
Q 1497 1759 1228 1600 
Q 959 1441 959 1056 
Q 959 750 1161 570 
Q 1363 391 1709 391 
Q 2188 391 2477 730 
Q 2766 1069 2766 1631 
L 2766 1759 
L 2194 1759 
z
M 3341 1997 
L 3341 0 
L 2766 0 
L 2766 531 
Q 2569 213 2275 61 
Q 1981 -91 1556 -91 
Q 1019 -91 701 211 
Q 384 513 384 1019 
Q 384 1609 779 1909 
Q 1175 2209 1959 2209 
L 2766 2209 
L 2766 2266 
Q 2766 2663 2505 2880 
Q 2244 3097 1772 3097 
Q 1472 3097 1187 3025 
Q 903 2953 641 2809 
L 641 3341 
Q 956 3463 1253 3523 
Q 1550 3584 1831 3584 
Q 2591 3584 2966 3190 
Q 3341 2797 3341 1997 
z
" transform="scale(0.015625)"/>
      <path id="DejaVuSans-6f" d="M 1959 3097 
Q 1497 3097 1228 2736 
Q 959 2375 959 1747 
Q 959 1119 1226 758 
Q 1494 397 1959 397 
Q 2419 397 2687 759 
Q 2956 1122 2956 1747 
Q 2956 2369 2687 2733 
Q 2419 3097 1959 3097 
z
M 1959 3584 
Q 2709 3584 3137 3096 
Q 3566 2609 3566 1747 
Q 3566 888 3137 398 
Q 2709 -91 1959 -91 
Q 1206 -91 779 398 
Q 353 888 353 1747 
Q 353 2609 779 3096 
Q 1206 3584 1959 3584 
z
" transform="scale(0.015625)"/>
      <path id="DejaVuSans-6e" d="M 3513 2113 
L 3513 0 
L 2938 0 
L 2938 2094 
Q 2938 2591 2744 2837 
Q 2550 3084 2163 3084 
Q 1697 3084 1428 2787 
Q 1159 2491 1159 1978 
L 1159 0 
L 581 0 
L 581 3500 
L 1159 3500 
L 1159 2956 
Q 1366 3272 1645 3428 
Q 1925 3584 2291 3584 
Q 2894 3584 3203 3211 
Q 3513 2838 3513 2113 
z
" transform="scale(0.015625)"/>
      <path id="DejaVuSans-20" transform="scale(0.015625)"/>
      <path id="DejaVuSans-67" d="M 2906 1791 
Q 2906 2416 2648 2759 
Q 2391 3103 1925 3103 
Q 1463 3103 1205 2759 
Q 947 2416 947 1791 
Q 947 1169 1205 825 
Q 1463 481 1925 481 
Q 2391 481 2648 825 
Q 2906 1169 2906 1791 
z
M 3481 434 
Q 3481 -459 3084 -895 
Q 2688 -1331 1869 -1331 
Q 1566 -1331 1297 -1286 
Q 1028 -1241 775 -1147 
L 775 -588 
Q 1028 -725 1275 -790 
Q 1522 -856 1778 -856 
Q 2344 -856 2625 -561 
Q 2906 -266 2906 331 
L 2906 616 
Q 2728 306 2450 153 
Q 2172 0 1784 0 
Q 1141 0 747 490 
Q 353 981 353 1791 
Q 353 2603 747 3093 
Q 1141 3584 1784 3584 
Q 2172 3584 2450 3431 
Q 2728 3278 2906 2969 
L 2906 3500 
L 3481 3500 
L 3481 434 
z
" transform="scale(0.015625)"/>
      <path id="DejaVuSans-72" d="M 2631 2963 
Q 2534 3019 2420 3045 
Q 2306 3072 2169 3072 
Q 1681 3072 1420 2755 
Q 1159 2438 1159 1844 
L 1159 0 
L 581 0 
L 581 3500 
L 1159 3500 
L 1159 2956 
Q 1341 3275 1631 3429 
Q 1922 3584 2338 3584 
Q 2397 3584 2469 3576 
Q 2541 3569 2628 3553 
L 2631 2963 
z
" transform="scale(0.015625)"/>
      <path id="DejaVuSans-64" d="M 2906 2969 
L 2906 4863 
L 3481 4863 
L 3481 0 
L 2906 0 
L 2906 525 
Q 2725 213 2448 61 
Q 2172 -91 1784 -91 
Q 1150 -91 751 415 
Q 353 922 353 1747 
Q 353 2572 751 3078 
Q 1150 3584 1784 3584 
Q 2172 3584 2448 3432 
Q 2725 3281 2906 2969 
z
M 947 1747 
Q 947 1113 1208 752 
Q 1469 391 1925 391 
Q 2381 391 2643 752 
Q 2906 1113 2906 1747 
Q 2906 2381 2643 2742 
Q 2381 3103 1925 3103 
Q 1469 3103 1208 2742 
Q 947 2381 947 1747 
z
" transform="scale(0.015625)"/>
      <path id="DejaVuSans-65" d="M 3597 1894 
L 3597 1613 
L 953 1613 
Q 991 1019 1311 708 
Q 1631 397 2203 397 
Q 2534 397 2845 478 
Q 3156 559 3463 722 
L 3463 178 
Q 3153 47 2828 -22 
Q 2503 -91 2169 -91 
Q 1331 -91 842 396 
Q 353 884 353 1716 
Q 353 2575 817 3079 
Q 1281 3584 2069 3584 
Q 2775 3584 3186 3129 
Q 3597 2675 3597 1894 
z
M 3022 2063 
Q 3016 2534 2758 2815 
Q 2500 3097 2075 3097 
Q 1594 3097 1305 2825 
Q 1016 2553 972 2059 
L 3022 2063 
z
" transform="scale(0.015625)"/>
      <path id="DejaVuSans-73" d="M 2834 3397 
L 2834 2853 
Q 2591 2978 2328 3040 
Q 2066 3103 1784 3103 
Q 1356 3103 1142 2972 
Q 928 2841 928 2578 
Q 928 2378 1081 2264 
Q 1234 2150 1697 2047 
L 1894 2003 
Q 2506 1872 2764 1633 
Q 3022 1394 3022 966 
Q 3022 478 2636 193 
Q 2250 -91 1575 -91 
Q 1294 -91 989 -36 
Q 684 19 347 128 
L 347 722 
Q 666 556 975 473 
Q 1284 391 1588 391 
Q 1994 391 2212 530 
Q 2431 669 2431 922 
Q 2431 1156 2273 1281 
Q 2116 1406 1581 1522 
L 1381 1569 
Q 847 1681 609 1914 
Q 372 2147 372 2553 
Q 372 3047 722 3315 
Q 1072 3584 1716 3584 
Q 2034 3584 2315 3537 
Q 2597 3491 2834 3397 
z
" transform="scale(0.015625)"/>
      <path id="DejaVuSans-68" d="M 3513 2113 
L 3513 0 
L 2938 0 
L 2938 2094 
Q 2938 2591 2744 2837 
Q 2550 3084 2163 3084 
Q 1697 3084 1428 2787 
Q 1159 2491 1159 1978 
L 1159 0 
L 581 0 
L 581 4863 
L 1159 4863 
L 1159 2956 
Q 1366 3272 1645 3428 
Q 1925 3584 2291 3584 
Q 2894 3584 3203 3211 
Q 3513 2838 3513 2113 
z
" transform="scale(0.015625)"/>
      <path id="DejaVuSans-6d" d="M 3328 2828 
Q 3544 3216 3844 3400 
Q 4144 3584 4550 3584 
Q 5097 3584 5394 3201 
Q 5691 2819 5691 2113 
L 5691 0 
L 5113 0 
L 5113 2094 
Q 5113 2597 4934 2840 
Q 4756 3084 4391 3084 
Q 3944 3084 3684 2787 
Q 3425 2491 3425 1978 
L 3425 0 
L 2847 0 
L 2847 2094 
Q 2847 2600 2669 2842 
Q 2491 3084 2119 3084 
Q 1678 3084 1418 2786 
Q 1159 2488 1159 1978 
L 1159 0 
L 581 0 
L 581 3500 
L 1159 3500 
L 1159 2956 
Q 1356 3278 1631 3431 
Q 1906 3584 2284 3584 
Q 2666 3584 2933 3390 
Q 3200 3197 3328 2828 
z
" transform="scale(0.015625)"/>
     </defs>
     <use xlink:href="#DejaVuSans-41"/>
     <use xlink:href="#DejaVuSans-63" x="66.658203"/>
     <use xlink:href="#DejaVuSans-74" x="121.638672"/>
     <use xlink:href="#DejaVuSans-69" x="160.847656"/>
     <use xlink:href="#DejaVuSans-76" x="188.630859"/>
     <use xlink:href="#DejaVuSans-61" x="247.810547"/>
     <use xlink:href="#DejaVuSans-74" x="309.089844"/>
     <use xlink:href="#DejaVuSans-69" x="348.298828"/>
     <use xlink:href="#DejaVuSans-6f" x="376.082031"/>
     <use xlink:href="#DejaVuSans-6e" x="437.263672"/>
     <use xlink:href="#DejaVuSans-20" x="500.642578"/>
     <use xlink:href="#DejaVuSans-67" x="532.429688"/>
     <use xlink:href="#DejaVuSans-72" x="595.90625"/>
     <use xlink:href="#DejaVuSans-61" x="637.019531"/>
     <use xlink:href="#DejaVuSans-64" x="698.298828"/>
     <use xlink:href="#DejaVuSans-69" x="761.775391"/>
     <use xlink:href="#DejaVuSans-65" x="789.558594"/>
     <use xlink:href="#DejaVuSans-6e" x="851.082031"/>
     <use xlink:href="#DejaVuSans-74" x="914.460938"/>
     <use xlink:href="#DejaVuSans-73" x="953.669922"/>
     <use xlink:href="#DejaVuSans-20" x="1005.769531"/>
     <use xlink:href="#DejaVuSans-68" x="1037.556641"/>
     <use xlink:href="#DejaVuSans-69" x="1100.935547"/>
     <use xlink:href="#DejaVuSans-73" x="1128.71875"/>
     <use xlink:href="#DejaVuSans-74" x="1180.818359"/>
     <use xlink:href="#DejaVuSans-6f" x="1220.027344"/>
     <use xlink:href="#DejaVuSans-67" x="1281.208984"/>
     <use xlink:href="#DejaVuSans-72" x="1344.685547"/>
     <use xlink:href="#DejaVuSans-61" x="1385.798828"/>
     <use xlink:href="#DejaVuSans-6d" x="1447.078125"/>
    </g>
    <!-- gain=1.67, BN=False, act=Tanh, lr=1e-01 -->
    <g transform="translate(100.165959 29.7555) scale(0.12 -0.12)">
     <defs>
      <path id="DejaVuSans-3d" d="M 678 2906 
L 4684 2906 
L 4684 2381 
L 678 2381 
L 678 2906 
z
M 678 1631 
L 4684 1631 
L 4684 1100 
L 678 1100 
L 678 1631 
z
" transform="scale(0.015625)"/>
      <path id="DejaVuSans-36" d="M 2113 2584 
Q 1688 2584 1439 2293 
Q 1191 2003 1191 1497 
Q 1191 994 1439 701 
Q 1688 409 2113 409 
Q 2538 409 2786 701 
Q 3034 994 3034 1497 
Q 3034 2003 2786 2293 
Q 2538 2584 2113 2584 
z
M 3366 4563 
L 3366 3988 
Q 3128 4100 2886 4159 
Q 2644 4219 2406 4219 
Q 1781 4219 1451 3797 
Q 1122 3375 1075 2522 
Q 1259 2794 1537 2939 
Q 1816 3084 2150 3084 
Q 2853 3084 3261 2657 
Q 3669 2231 3669 1497 
Q 3669 778 3244 343 
Q 2819 -91 2113 -91 
Q 1303 -91 875 529 
Q 447 1150 447 2328 
Q 447 3434 972 4092 
Q 1497 4750 2381 4750 
Q 2619 4750 2861 4703 
Q 3103 4656 3366 4563 
z
" transform="scale(0.015625)"/>
      <path id="DejaVuSans-2c" d="M 750 794 
L 1409 794 
L 1409 256 
L 897 -744 
L 494 -744 
L 750 256 
L 750 794 
z
" transform="scale(0.015625)"/>
      <path id="DejaVuSans-42" d="M 1259 2228 
L 1259 519 
L 2272 519 
Q 2781 519 3026 730 
Q 3272 941 3272 1375 
Q 3272 1813 3026 2020 
Q 2781 2228 2272 2228 
L 1259 2228 
z
M 1259 4147 
L 1259 2741 
L 2194 2741 
Q 2656 2741 2882 2914 
Q 3109 3088 3109 3444 
Q 3109 3797 2882 3972 
Q 2656 4147 2194 4147 
L 1259 4147 
z
M 628 4666 
L 2241 4666 
Q 2963 4666 3353 4366 
Q 3744 4066 3744 3513 
Q 3744 3084 3544 2831 
Q 3344 2578 2956 2516 
Q 3422 2416 3680 2098 
Q 3938 1781 3938 1306 
Q 3938 681 3513 340 
Q 3088 0 2303 0 
L 628 0 
L 628 4666 
z
" transform="scale(0.015625)"/>
      <path id="DejaVuSans-4e" d="M 628 4666 
L 1478 4666 
L 3547 763 
L 3547 4666 
L 4159 4666 
L 4159 0 
L 3309 0 
L 1241 3903 
L 1241 0 
L 628 0 
L 628 4666 
z
" transform="scale(0.015625)"/>
      <path id="DejaVuSans-46" d="M 628 4666 
L 3309 4666 
L 3309 4134 
L 1259 4134 
L 1259 2759 
L 3109 2759 
L 3109 2228 
L 1259 2228 
L 1259 0 
L 628 0 
L 628 4666 
z
" transform="scale(0.015625)"/>
      <path id="DejaVuSans-6c" d="M 603 4863 
L 1178 4863 
L 1178 0 
L 603 0 
L 603 4863 
z
" transform="scale(0.015625)"/>
      <path id="DejaVuSans-54" d="M -19 4666 
L 3928 4666 
L 3928 4134 
L 2272 4134 
L 2272 0 
L 1638 0 
L 1638 4134 
L -19 4134 
L -19 4666 
z
" transform="scale(0.015625)"/>
      <path id="DejaVuSans-2d" d="M 313 2009 
L 1997 2009 
L 1997 1497 
L 313 1497 
L 313 2009 
z
" transform="scale(0.015625)"/>
     </defs>
     <use xlink:href="#DejaVuSans-67"/>
     <use xlink:href="#DejaVuSans-61" x="63.476562"/>
     <use xlink:href="#DejaVuSans-69" x="124.755859"/>
     <use xlink:href="#DejaVuSans-6e" x="152.539062"/>
     <use xlink:href="#DejaVuSans-3d" x="215.917969"/>
     <use xlink:href="#DejaVuSans-31" x="299.707031"/>
     <use xlink:href="#DejaVuSans-2e" x="363.330078"/>
     <use xlink:href="#DejaVuSans-36" x="395.117188"/>
     <use xlink:href="#DejaVuSans-37" x="458.740234"/>
     <use xlink:href="#DejaVuSans-2c" x="522.363281"/>
     <use xlink:href="#DejaVuSans-20" x="554.150391"/>
     <use xlink:href="#DejaVuSans-42" x="585.9375"/>
     <use xlink:href="#DejaVuSans-4e" x="654.541016"/>
     <use xlink:href="#DejaVuSans-3d" x="729.345703"/>
     <use xlink:href="#DejaVuSans-46" x="813.134766"/>
     <use xlink:href="#DejaVuSans-61" x="861.529297"/>
     <use xlink:href="#DejaVuSans-6c" x="922.808594"/>
     <use xlink:href="#DejaVuSans-73" x="950.591797"/>
     <use xlink:href="#DejaVuSans-65" x="1002.691406"/>
     <use xlink:href="#DejaVuSans-2c" x="1064.214844"/>
     <use xlink:href="#DejaVuSans-20" x="1096.001953"/>
     <use xlink:href="#DejaVuSans-61" x="1127.789062"/>
     <use xlink:href="#DejaVuSans-63" x="1189.068359"/>
     <use xlink:href="#DejaVuSans-74" x="1244.048828"/>
     <use xlink:href="#DejaVuSans-3d" x="1283.257812"/>
     <use xlink:href="#DejaVuSans-54" x="1367.046875"/>
     <use xlink:href="#DejaVuSans-61" x="1411.630859"/>
     <use xlink:href="#DejaVuSans-6e" x="1472.910156"/>
     <use xlink:href="#DejaVuSans-68" x="1536.289062"/>
     <use xlink:href="#DejaVuSans-2c" x="1599.667969"/>
     <use xlink:href="#DejaVuSans-20" x="1631.455078"/>
     <use xlink:href="#DejaVuSans-6c" x="1663.242188"/>
     <use xlink:href="#DejaVuSans-72" x="1691.025391"/>
     <use xlink:href="#DejaVuSans-3d" x="1732.138672"/>
     <use xlink:href="#DejaVuSans-31" x="1815.927734"/>
     <use xlink:href="#DejaVuSans-65" x="1879.550781"/>
     <use xlink:href="#DejaVuSans-2d" x="1941.074219"/>
     <use xlink:href="#DejaVuSans-30" x="1977.158203"/>
     <use xlink:href="#DejaVuSans-31" x="2040.78125"/>
    </g>
   </g>
   <g id="legend_1">
    <g id="patch_7">
     <path d="M 341.409105 117.146125 
L 412.573168 117.146125 
Q 414.573168 117.146125 414.573168 115.146125 
L 414.573168 42.7555 
Q 414.573168 40.7555 412.573168 40.7555 
L 341.409105 40.7555 
Q 339.409105 40.7555 339.409105 42.7555 
L 339.409105 115.146125 
Q 339.409105 117.146125 341.409105 117.146125 
z
" style="fill: #ffffff; opacity: 0.8; stroke: #cccccc; stroke-linejoin: miter"/>
    </g>
    <g id="line2d_20">
     <path d="M 343.409105 48.853937 
L 353.409105 48.853937 
L 363.409105 48.853937 
" style="fill: none; stroke: #1f77b4; stroke-width: 1.5; stroke-linecap: square"/>
    </g>
    <g id="text_16">
     <!-- Tanh.2 -->
     <g transform="translate(371.409105 52.353937) scale(0.1 -0.1)">
      <use xlink:href="#DejaVuSans-54"/>
      <use xlink:href="#DejaVuSans-61" x="44.583984"/>
      <use xlink:href="#DejaVuSans-6e" x="105.863281"/>
      <use xlink:href="#DejaVuSans-68" x="169.242188"/>
      <use xlink:href="#DejaVuSans-2e" x="232.621094"/>
      <use xlink:href="#DejaVuSans-32" x="264.408203"/>
     </g>
    </g>
    <g id="line2d_21">
     <path d="M 343.409105 63.532062 
L 353.409105 63.532062 
L 363.409105 63.532062 
" style="fill: none; stroke: #ff7f0e; stroke-width: 1.5; stroke-linecap: square"/>
    </g>
    <g id="text_17">
     <!-- Tanh.4 -->
     <g transform="translate(371.409105 67.032062) scale(0.1 -0.1)">
      <defs>
       <path id="DejaVuSans-34" d="M 2419 4116 
L 825 1625 
L 2419 1625 
L 2419 4116 
z
M 2253 4666 
L 3047 4666 
L 3047 1625 
L 3713 1625 
L 3713 1100 
L 3047 1100 
L 3047 0 
L 2419 0 
L 2419 1100 
L 313 1100 
L 313 1709 
L 2253 4666 
z
" transform="scale(0.015625)"/>
      </defs>
      <use xlink:href="#DejaVuSans-54"/>
      <use xlink:href="#DejaVuSans-61" x="44.583984"/>
      <use xlink:href="#DejaVuSans-6e" x="105.863281"/>
      <use xlink:href="#DejaVuSans-68" x="169.242188"/>
      <use xlink:href="#DejaVuSans-2e" x="232.621094"/>
      <use xlink:href="#DejaVuSans-34" x="264.408203"/>
     </g>
    </g>
    <g id="line2d_22">
     <path d="M 343.409105 78.210187 
L 353.409105 78.210187 
L 363.409105 78.210187 
" style="fill: none; stroke: #2ca02c; stroke-width: 1.5; stroke-linecap: square"/>
    </g>
    <g id="text_18">
     <!-- Tanh.6 -->
     <g transform="translate(371.409105 81.710187) scale(0.1 -0.1)">
      <use xlink:href="#DejaVuSans-54"/>
      <use xlink:href="#DejaVuSans-61" x="44.583984"/>
      <use xlink:href="#DejaVuSans-6e" x="105.863281"/>
      <use xlink:href="#DejaVuSans-68" x="169.242188"/>
      <use xlink:href="#DejaVuSans-2e" x="232.621094"/>
      <use xlink:href="#DejaVuSans-36" x="264.408203"/>
     </g>
    </g>
    <g id="line2d_23">
     <path d="M 343.409105 92.888312 
L 353.409105 92.888312 
L 363.409105 92.888312 
" style="fill: none; stroke: #d62728; stroke-width: 1.5; stroke-linecap: square"/>
    </g>
    <g id="text_19">
     <!-- Tanh.8 -->
     <g transform="translate(371.409105 96.388312) scale(0.1 -0.1)">
      <defs>
       <path id="DejaVuSans-38" d="M 2034 2216 
Q 1584 2216 1326 1975 
Q 1069 1734 1069 1313 
Q 1069 891 1326 650 
Q 1584 409 2034 409 
Q 2484 409 2743 651 
Q 3003 894 3003 1313 
Q 3003 1734 2745 1975 
Q 2488 2216 2034 2216 
z
M 1403 2484 
Q 997 2584 770 2862 
Q 544 3141 544 3541 
Q 544 4100 942 4425 
Q 1341 4750 2034 4750 
Q 2731 4750 3128 4425 
Q 3525 4100 3525 3541 
Q 3525 3141 3298 2862 
Q 3072 2584 2669 2484 
Q 3125 2378 3379 2068 
Q 3634 1759 3634 1313 
Q 3634 634 3220 271 
Q 2806 -91 2034 -91 
Q 1263 -91 848 271 
Q 434 634 434 1313 
Q 434 1759 690 2068 
Q 947 2378 1403 2484 
z
M 1172 3481 
Q 1172 3119 1398 2916 
Q 1625 2713 2034 2713 
Q 2441 2713 2670 2916 
Q 2900 3119 2900 3481 
Q 2900 3844 2670 4047 
Q 2441 4250 2034 4250 
Q 1625 4250 1398 4047 
Q 1172 3844 1172 3481 
z
" transform="scale(0.015625)"/>
      </defs>
      <use xlink:href="#DejaVuSans-54"/>
      <use xlink:href="#DejaVuSans-61" x="44.583984"/>
      <use xlink:href="#DejaVuSans-6e" x="105.863281"/>
      <use xlink:href="#DejaVuSans-68" x="169.242188"/>
      <use xlink:href="#DejaVuSans-2e" x="232.621094"/>
      <use xlink:href="#DejaVuSans-38" x="264.408203"/>
     </g>
    </g>
    <g id="line2d_24">
     <path d="M 343.409105 107.566437 
L 353.409105 107.566437 
L 363.409105 107.566437 
" style="fill: none; stroke: #9467bd; stroke-width: 1.5; stroke-linecap: square"/>
    </g>
    <g id="text_20">
     <!-- Tanh.10 -->
     <g transform="translate(371.409105 111.066437) scale(0.1 -0.1)">
      <use xlink:href="#DejaVuSans-54"/>
      <use xlink:href="#DejaVuSans-61" x="44.583984"/>
      <use xlink:href="#DejaVuSans-6e" x="105.863281"/>
      <use xlink:href="#DejaVuSans-68" x="169.242188"/>
      <use xlink:href="#DejaVuSans-2e" x="232.621094"/>
      <use xlink:href="#DejaVuSans-31" x="264.408203"/>
      <use xlink:href="#DejaVuSans-30" x="328.03125"/>
     </g>
    </g>
   </g>
  </g>
  <g id="axes_2">
   <g id="patch_8">
    <path d="M 457.461857 247.4875 
L 843.747524 247.4875 
L 843.747524 35.7555 
L 457.461857 35.7555 
z
" style="fill: #ffffff"/>
   </g>
   <g id="matplotlib.axis_3">
    <g id="xtick_10">
     <g id="line2d_25">
      <g>
       <use xlink:href="#m11ebffaa28" x="471.955676" y="247.4875" style="stroke: #000000; stroke-width: 0.8"/>
      </g>
     </g>
     <g id="text_21">
      <!-- −0.0100 -->
      <g transform="translate(450.27052 262.085938) scale(0.1 -0.1)">
       <use xlink:href="#DejaVuSans-2212"/>
       <use xlink:href="#DejaVuSans-30" x="83.789062"/>
       <use xlink:href="#DejaVuSans-2e" x="147.412109"/>
       <use xlink:href="#DejaVuSans-30" x="179.199219"/>
       <use xlink:href="#DejaVuSans-31" x="242.822266"/>
       <use xlink:href="#DejaVuSans-30" x="306.445312"/>
       <use xlink:href="#DejaVuSans-30" x="370.068359"/>
      </g>
     </g>
    </g>
    <g id="xtick_11">
     <g id="line2d_26">
      <g>
       <use xlink:href="#m11ebffaa28" x="516.61793" y="247.4875" style="stroke: #000000; stroke-width: 0.8"/>
      </g>
     </g>
     <g id="text_22">
      <!-- −0.0075 -->
      <g transform="translate(494.932774 262.085938) scale(0.1 -0.1)">
       <use xlink:href="#DejaVuSans-2212"/>
       <use xlink:href="#DejaVuSans-30" x="83.789062"/>
       <use xlink:href="#DejaVuSans-2e" x="147.412109"/>
       <use xlink:href="#DejaVuSans-30" x="179.199219"/>
       <use xlink:href="#DejaVuSans-30" x="242.822266"/>
       <use xlink:href="#DejaVuSans-37" x="306.445312"/>
       <use xlink:href="#DejaVuSans-35" x="370.068359"/>
      </g>
     </g>
    </g>
    <g id="xtick_12">
     <g id="line2d_27">
      <g>
       <use xlink:href="#m11ebffaa28" x="561.280183" y="247.4875" style="stroke: #000000; stroke-width: 0.8"/>
      </g>
     </g>
     <g id="text_23">
      <!-- −0.0050 -->
      <g transform="translate(539.595027 262.085938) scale(0.1 -0.1)">
       <use xlink:href="#DejaVuSans-2212"/>
       <use xlink:href="#DejaVuSans-30" x="83.789062"/>
       <use xlink:href="#DejaVuSans-2e" x="147.412109"/>
       <use xlink:href="#DejaVuSans-30" x="179.199219"/>
       <use xlink:href="#DejaVuSans-30" x="242.822266"/>
       <use xlink:href="#DejaVuSans-35" x="306.445312"/>
       <use xlink:href="#DejaVuSans-30" x="370.068359"/>
      </g>
     </g>
    </g>
    <g id="xtick_13">
     <g id="line2d_28">
      <g>
       <use xlink:href="#m11ebffaa28" x="605.942437" y="247.4875" style="stroke: #000000; stroke-width: 0.8"/>
      </g>
     </g>
     <g id="text_24">
      <!-- −0.0025 -->
      <g transform="translate(584.257281 262.085938) scale(0.1 -0.1)">
       <use xlink:href="#DejaVuSans-2212"/>
       <use xlink:href="#DejaVuSans-30" x="83.789062"/>
       <use xlink:href="#DejaVuSans-2e" x="147.412109"/>
       <use xlink:href="#DejaVuSans-30" x="179.199219"/>
       <use xlink:href="#DejaVuSans-30" x="242.822266"/>
       <use xlink:href="#DejaVuSans-32" x="306.445312"/>
       <use xlink:href="#DejaVuSans-35" x="370.068359"/>
      </g>
     </g>
    </g>
    <g id="xtick_14">
     <g id="line2d_29">
      <g>
       <use xlink:href="#m11ebffaa28" x="650.60469" y="247.4875" style="stroke: #000000; stroke-width: 0.8"/>
      </g>
     </g>
     <g id="text_25">
      <!-- 0.0000 -->
      <g transform="translate(633.109378 262.085938) scale(0.1 -0.1)">
       <use xlink:href="#DejaVuSans-30"/>
       <use xlink:href="#DejaVuSans-2e" x="63.623047"/>
       <use xlink:href="#DejaVuSans-30" x="95.410156"/>
       <use xlink:href="#DejaVuSans-30" x="159.033203"/>
       <use xlink:href="#DejaVuSans-30" x="222.65625"/>
       <use xlink:href="#DejaVuSans-30" x="286.279297"/>
      </g>
     </g>
    </g>
    <g id="xtick_15">
     <g id="line2d_30">
      <g>
       <use xlink:href="#m11ebffaa28" x="695.266944" y="247.4875" style="stroke: #000000; stroke-width: 0.8"/>
      </g>
     </g>
     <g id="text_26">
      <!-- 0.0025 -->
      <g transform="translate(677.771631 262.085938) scale(0.1 -0.1)">
       <use xlink:href="#DejaVuSans-30"/>
       <use xlink:href="#DejaVuSans-2e" x="63.623047"/>
       <use xlink:href="#DejaVuSans-30" x="95.410156"/>
       <use xlink:href="#DejaVuSans-30" x="159.033203"/>
       <use xlink:href="#DejaVuSans-32" x="222.65625"/>
       <use xlink:href="#DejaVuSans-35" x="286.279297"/>
      </g>
     </g>
    </g>
    <g id="xtick_16">
     <g id="line2d_31">
      <g>
       <use xlink:href="#m11ebffaa28" x="739.929197" y="247.4875" style="stroke: #000000; stroke-width: 0.8"/>
      </g>
     </g>
     <g id="text_27">
      <!-- 0.0050 -->
      <g transform="translate(722.433885 262.085938) scale(0.1 -0.1)">
       <use xlink:href="#DejaVuSans-30"/>
       <use xlink:href="#DejaVuSans-2e" x="63.623047"/>
       <use xlink:href="#DejaVuSans-30" x="95.410156"/>
       <use xlink:href="#DejaVuSans-30" x="159.033203"/>
       <use xlink:href="#DejaVuSans-35" x="222.65625"/>
       <use xlink:href="#DejaVuSans-30" x="286.279297"/>
      </g>
     </g>
    </g>
    <g id="xtick_17">
     <g id="line2d_32">
      <g>
       <use xlink:href="#m11ebffaa28" x="784.591451" y="247.4875" style="stroke: #000000; stroke-width: 0.8"/>
      </g>
     </g>
     <g id="text_28">
      <!-- 0.0075 -->
      <g transform="translate(767.096138 262.085938) scale(0.1 -0.1)">
       <use xlink:href="#DejaVuSans-30"/>
       <use xlink:href="#DejaVuSans-2e" x="63.623047"/>
       <use xlink:href="#DejaVuSans-30" x="95.410156"/>
       <use xlink:href="#DejaVuSans-30" x="159.033203"/>
       <use xlink:href="#DejaVuSans-37" x="222.65625"/>
       <use xlink:href="#DejaVuSans-35" x="286.279297"/>
      </g>
     </g>
    </g>
    <g id="xtick_18">
     <g id="line2d_33">
      <g>
       <use xlink:href="#m11ebffaa28" x="829.253704" y="247.4875" style="stroke: #000000; stroke-width: 0.8"/>
      </g>
     </g>
     <g id="text_29">
      <!-- 0.0100 -->
      <g transform="translate(811.758392 262.085938) scale(0.1 -0.1)">
       <use xlink:href="#DejaVuSans-30"/>
       <use xlink:href="#DejaVuSans-2e" x="63.623047"/>
       <use xlink:href="#DejaVuSans-30" x="95.410156"/>
       <use xlink:href="#DejaVuSans-31" x="159.033203"/>
       <use xlink:href="#DejaVuSans-30" x="222.65625"/>
       <use xlink:href="#DejaVuSans-30" x="286.279297"/>
      </g>
     </g>
    </g>
   </g>
   <g id="matplotlib.axis_4">
    <g id="ytick_6">
     <g id="line2d_34">
      <g>
       <use xlink:href="#m5b649a6504" x="457.461857" y="237.863318" style="stroke: #000000; stroke-width: 0.8"/>
      </g>
     </g>
     <g id="text_30">
      <!-- 0 -->
      <g transform="translate(444.099357 241.662537) scale(0.1 -0.1)">
       <use xlink:href="#DejaVuSans-30"/>
      </g>
     </g>
    </g>
    <g id="ytick_7">
     <g id="line2d_35">
      <g>
       <use xlink:href="#m5b649a6504" x="457.461857" y="211.614457" style="stroke: #000000; stroke-width: 0.8"/>
      </g>
     </g>
     <g id="text_31">
      <!-- 25 -->
      <g transform="translate(437.736857 215.413675) scale(0.1 -0.1)">
       <use xlink:href="#DejaVuSans-32"/>
       <use xlink:href="#DejaVuSans-35" x="63.623047"/>
      </g>
     </g>
    </g>
    <g id="ytick_8">
     <g id="line2d_36">
      <g>
       <use xlink:href="#m5b649a6504" x="457.461857" y="185.365595" style="stroke: #000000; stroke-width: 0.8"/>
      </g>
     </g>
     <g id="text_32">
      <!-- 50 -->
      <g transform="translate(437.736857 189.164814) scale(0.1 -0.1)">
       <use xlink:href="#DejaVuSans-35"/>
       <use xlink:href="#DejaVuSans-30" x="63.623047"/>
      </g>
     </g>
    </g>
    <g id="ytick_9">
     <g id="line2d_37">
      <g>
       <use xlink:href="#m5b649a6504" x="457.461857" y="159.116733" style="stroke: #000000; stroke-width: 0.8"/>
      </g>
     </g>
     <g id="text_33">
      <!-- 75 -->
      <g transform="translate(437.736857 162.915952) scale(0.1 -0.1)">
       <use xlink:href="#DejaVuSans-37"/>
       <use xlink:href="#DejaVuSans-35" x="63.623047"/>
      </g>
     </g>
    </g>
    <g id="ytick_10">
     <g id="line2d_38">
      <g>
       <use xlink:href="#m5b649a6504" x="457.461857" y="132.867872" style="stroke: #000000; stroke-width: 0.8"/>
      </g>
     </g>
     <g id="text_34">
      <!-- 100 -->
      <g transform="translate(431.374357 136.66709) scale(0.1 -0.1)">
       <use xlink:href="#DejaVuSans-31"/>
       <use xlink:href="#DejaVuSans-30" x="63.623047"/>
       <use xlink:href="#DejaVuSans-30" x="127.246094"/>
      </g>
     </g>
    </g>
    <g id="ytick_11">
     <g id="line2d_39">
      <g>
       <use xlink:href="#m5b649a6504" x="457.461857" y="106.61901" style="stroke: #000000; stroke-width: 0.8"/>
      </g>
     </g>
     <g id="text_35">
      <!-- 125 -->
      <g transform="translate(431.374357 110.418229) scale(0.1 -0.1)">
       <use xlink:href="#DejaVuSans-31"/>
       <use xlink:href="#DejaVuSans-32" x="63.623047"/>
       <use xlink:href="#DejaVuSans-35" x="127.246094"/>
      </g>
     </g>
    </g>
    <g id="ytick_12">
     <g id="line2d_40">
      <g>
       <use xlink:href="#m5b649a6504" x="457.461857" y="80.370148" style="stroke: #000000; stroke-width: 0.8"/>
      </g>
     </g>
     <g id="text_36">
      <!-- 150 -->
      <g transform="translate(431.374357 84.169367) scale(0.1 -0.1)">
       <use xlink:href="#DejaVuSans-31"/>
       <use xlink:href="#DejaVuSans-35" x="63.623047"/>
       <use xlink:href="#DejaVuSans-30" x="127.246094"/>
      </g>
     </g>
    </g>
    <g id="ytick_13">
     <g id="line2d_41">
      <g>
       <use xlink:href="#m5b649a6504" x="457.461857" y="54.121287" style="stroke: #000000; stroke-width: 0.8"/>
      </g>
     </g>
     <g id="text_37">
      <!-- 175 -->
      <g transform="translate(431.374357 57.920505) scale(0.1 -0.1)">
       <use xlink:href="#DejaVuSans-31"/>
       <use xlink:href="#DejaVuSans-37" x="63.623047"/>
       <use xlink:href="#DejaVuSans-35" x="127.246094"/>
      </g>
     </g>
    </g>
   </g>
   <g id="line2d_42">
    <path d="M 349.903508 235.955609 
L 356.048748 237.863318 
L 362.193989 236.909463 
L 368.339229 236.909463 
L 374.484469 237.863318 
L 380.629692 236.909463 
L 386.774932 235.955609 
L 392.920172 236.909463 
L 399.065413 235.001754 
L 405.210653 237.863318 
L 411.355893 236.909463 
L 417.501133 237.863318 
L 423.646356 237.863318 
L 429.791597 235.001754 
L 435.936837 235.955609 
L 442.082077 237.863318 
L 448.227317 235.955609 
L 454.372557 234.047899 
L 460.517797 234.047899 
L 466.663037 236.909463 
L 472.808277 231.186317 
L 478.953501 232.14019 
L 485.098741 229.278624 
L 491.243981 234.047899 
L 497.389221 230.23248 
L 503.534461 230.23248 
L 509.679701 224.509333 
L 515.824933 229.278624 
L 521.970173 223.555496 
L 528.115413 217.832342 
L 534.260645 224.509351 
L 540.405885 219.740079 
L 546.551125 214.016949 
L 552.696366 210.201532 
L 558.841606 210.201493 
L 564.986838 205.432256 
L 571.132078 200.662983 
L 577.277318 185.40127 
L 583.422554 189.216695 
L 589.56779 154.877952 
L 595.71303 156.785665 
L 601.85827 141.523924 
L 608.003506 152.016331 
L 614.148742 116.723764 
L 620.293982 130.077696 
L 626.43922 115.769872 
L 632.584458 109.092882 
L 638.729696 89.061927 
L 644.874934 93.831197 
L 651.020172 86.200363 
L 657.16541 91.923492 
L 663.310648 116.723724 
L 669.455886 100.508187 
L 675.601124 111.000586 
L 681.746362 144.385489 
L 687.891598 129.124172 
L 694.036855 162.508787 
L 700.182095 164.416451 
L 706.327331 163.462599 
L 712.472567 175.862759 
L 718.617807 189.216727 
L 724.763047 198.755222 
L 730.908279 204.478402 
L 737.053519 209.247597 
L 743.198743 210.201532 
L 749.343983 208.293821 
L 755.489223 214.016917 
L 761.634455 222.601642 
L 767.779695 220.693931 
L 773.924935 214.970773 
L 780.070167 230.23248 
L 786.215407 228.324796 
L 792.360664 230.23248 
L 798.505904 229.278624 
L 804.651144 231.186335 
L 810.796384 230.23248 
L 816.941624 235.955604 
L 823.086848 235.001754 
L 829.232088 235.001754 
L 835.377328 236.909461 
L 841.522551 234.047899 
L 847.667791 237.863318 
L 853.813032 236.909463 
L 854.949017 236.909463 
" clip-path="url(#pf3be5cf421)" style="fill: none; stroke: #1f77b4; stroke-width: 1.5; stroke-linecap: square"/>
   </g>
   <g id="line2d_43">
    <path d="M 357.199831 236.980226 
L 363.837489 236.980226 
L 370.475147 236.980223 
L 377.112788 237.863318 
L 383.750429 237.863318 
L 390.388087 237.863318 
L 397.025729 236.980226 
L 403.663387 237.863318 
L 410.301028 237.863318 
L 416.938686 236.980223 
L 423.576327 236.097133 
L 430.213985 237.863318 
L 436.851626 236.980226 
L 443.489284 236.980223 
L 450.126926 236.097133 
L 456.764584 235.21404 
L 463.402242 236.980226 
L 470.0399 236.980223 
L 476.677541 235.21404 
L 483.315199 234.330939 
L 489.95284 234.330948 
L 496.590498 236.097129 
L 503.228139 231.68167 
L 509.865797 229.915485 
L 516.503455 226.383101 
L 523.141105 226.383101 
L 529.778755 216.669071 
L 536.416404 222.850725 
L 543.054054 214.902912 
L 549.691712 209.604319 
L 556.329361 200.773383 
L 562.967011 201.656431 
L 569.604652 199.890288 
L 576.242302 199.890288 
L 582.879952 182.228452 
L 589.517605 169.865109 
L 596.155255 172.514383 
L 602.792905 141.60616 
L 609.430558 138.07373 
L 616.068208 123.944092 
L 622.705849 92.152866 
L 629.343499 93.035993 
L 635.981151 81.555753 
L 642.618801 60.361511 
L 649.256452 96.568343 
L 655.894103 98.334533 
L 662.531753 101.866931 
L 669.169405 97.451951 
L 675.80708 104.516169 
L 682.444729 132.775166 
L 689.082379 145.138541 
L 695.720033 164.566544 
L 702.357682 174.28057 
L 708.995332 184.877726 
L 715.632986 190.176255 
L 722.270635 187.526916 
L 728.908277 198.124101 
L 735.545926 205.18885 
L 742.183576 214.019786 
L 748.821226 223.733819 
L 755.458875 217.552188 
L 762.096533 225.500007 
L 768.734183 227.266194 
L 775.371832 222.850706 
L 782.009474 226.383101 
L 788.647123 229.032381 
L 795.284773 234.330948 
L 801.922431 234.330939 
L 808.560072 233.447855 
L 815.19773 235.214034 
L 821.835372 235.21404 
L 828.47303 235.214034 
L 835.110671 236.097133 
L 841.748329 236.980223 
L 848.38597 234.330948 
L 854.949017 236.077276 
" clip-path="url(#pf3be5cf421)" style="fill: none; stroke: #ff7f0e; stroke-width: 1.5; stroke-linecap: square"/>
   </g>
   <g id="line2d_44">
    <path d="M 304.876027 236.91208 
L 311.038171 237.863318 
L 317.200349 237.863318 
L 323.362526 237.863318 
L 329.524671 237.863318 
L 335.686815 237.863318 
L 341.848993 236.912085 
L 348.01117 237.863318 
L 354.173315 237.863318 
L 360.335459 237.863318 
L 366.497637 237.863318 
L 372.659797 237.863318 
L 378.821958 237.863318 
L 384.984119 237.863318 
L 391.14628 237.863318 
L 397.308441 237.863318 
L 403.470602 236.912083 
L 409.632763 237.863318 
L 415.794924 236.912083 
L 421.957085 236.912083 
L 428.119246 237.863318 
L 434.281407 236.912083 
L 440.443568 237.863318 
L 446.605729 237.863318 
L 452.76789 236.912083 
L 458.930051 237.863318 
L 465.092212 235.009612 
L 471.254373 236.912083 
L 477.416534 235.009612 
L 483.578695 233.10714 
L 489.740856 235.009612 
L 495.903016 233.10714 
L 502.065177 233.10714 
L 508.227338 230.253434 
L 514.389499 230.253434 
L 520.55166 231.204669 
L 526.713821 226.448492 
L 532.875982 222.643549 
L 539.038143 215.9849 
L 545.200304 212.179957 
L 551.362465 209.32625 
L 557.524626 196.960189 
L 563.686787 206.472544 
L 569.848948 196.960189 
L 576.011109 203.618835 
L 582.17327 194.106483 
L 588.335431 164.61818 
L 594.497592 158.910767 
L 600.659753 148.447173 
L 606.821914 157.008293 
L 612.984075 137.983588 
L 619.146235 97.080455 
L 625.308396 79.006983 
L 631.470557 99.934153 
L 637.632718 91.373042 
L 643.794879 76.153268 
L 649.95704 75.202035 
L 656.119201 92.324275 
L 662.281362 79.958215 
L 668.443523 94.226756 
L 674.605684 120.86134 
L 680.767845 134.17864 
L 686.930006 145.593467 
L 693.092167 140.837294 
L 699.254328 157.959534 
L 705.416489 175.081769 
L 711.57865 187.447837 
L 717.740811 190.301539 
L 723.902972 196.008952 
L 730.065133 196.008952 
L 736.227293 213.131194 
L 742.389454 215.033666 
L 748.551615 212.179957 
L 754.713776 219.789844 
L 760.875937 215.033666 
L 767.038098 229.302197 
L 773.200259 229.302197 
L 779.36242 228.350963 
L 785.524581 230.253434 
L 791.686742 233.10714 
L 797.848903 235.009612 
L 804.011064 233.10714 
L 810.173225 233.10714 
L 816.335386 235.960847 
L 822.497547 236.912083 
L 828.659708 234.058376 
L 834.821869 235.009612 
L 840.98403 235.960847 
L 847.146191 235.960847 
L 853.308352 236.912083 
L 854.949017 236.912083 
" clip-path="url(#pf3be5cf421)" style="fill: none; stroke: #2ca02c; stroke-width: 1.5; stroke-linecap: square"/>
   </g>
   <g id="line2d_45">
    <path d="M 434.74732 236.509258 
L 439.076275 237.863318 
L 443.405229 236.509258 
L 447.734184 236.509258 
L 452.063138 237.863318 
L 456.392092 236.509258 
L 460.721047 236.509258 
L 465.050001 236.509258 
L 469.378956 237.863318 
L 473.70791 237.863318 
L 478.036864 233.801137 
L 482.365819 236.509258 
L 486.694773 233.801137 
L 491.023727 231.093015 
L 495.352682 236.509258 
L 499.681636 231.093041 
L 504.010607 235.155197 
L 508.339562 233.801137 
L 512.668516 233.801137 
L 516.99747 227.030833 
L 521.326425 229.738955 
L 525.655379 233.801144 
L 529.984342 222.968651 
L 534.313296 228.384876 
L 538.642242 225.676773 
L 542.971197 225.676773 
L 547.300151 220.260532 
L 551.629105 216.198349 
L 555.95806 206.719925 
L 560.287014 205.365927 
L 564.615977 199.949622 
L 568.944931 210.782106 
L 573.273886 209.428046 
L 577.60284 191.825256 
L 581.931794 187.763123 
L 586.260753 174.222469 
L 590.589707 183.700893 
L 594.918662 167.452173 
L 599.247616 149.849382 
L 603.57657 124.122342 
L 607.905529 137.662831 
L 612.234483 115.997923 
L 616.56344 110.58162 
L 620.892394 103.81138 
L 625.221351 102.457258 
L 629.550305 76.730105 
L 633.879259 72.667956 
L 638.208215 90.270538 
L 642.537164 101.103224 
L 646.866119 61.835478 
L 651.195074 87.562615 
L 655.524029 76.730137 
L 659.852985 87.562631 
L 664.18194 78.084171 
L 668.510894 103.81138 
L 672.839851 106.519752 
L 677.168816 121.414106 
L 681.49777 118.705983 
L 685.826724 129.538573 
L 690.155683 130.892526 
L 694.484637 149.849382 
L 698.813592 148.495317 
L 703.142546 164.744041 
L 707.4715 162.035854 
L 711.800451 172.868412 
L 716.129405 179.638712 
L 720.458359 191.825256 
L 724.787314 205.365865 
L 729.116268 190.471198 
L 733.445223 218.906506 
L 737.774185 206.719925 
L 742.10314 220.260532 
L 746.432094 217.552408 
L 750.761048 222.968651 
L 755.090003 212.136167 
L 759.418957 224.322712 
L 763.747912 225.676773 
L 768.076866 231.093028 
L 772.405829 233.801137 
L 776.734783 233.801137 
L 781.063737 235.155197 
L 785.392692 225.676773 
L 789.721646 235.155197 
L 794.050601 235.155197 
L 798.379555 235.155197 
L 802.708509 232.447076 
L 807.037464 233.801137 
L 811.366418 233.801137 
L 815.695372 237.863318 
L 820.024327 236.509258 
L 824.353281 237.863318 
L 828.682236 236.509258 
L 833.01119 236.509258 
L 837.340144 236.509258 
L 841.669099 235.155197 
L 845.998053 237.863318 
L 850.327024 237.863318 
L 854.655978 237.863318 
L 854.949017 237.771658 
" clip-path="url(#pf3be5cf421)" style="fill: none; stroke: #d62728; stroke-width: 1.5; stroke-linecap: square"/>
   </g>
   <g id="line2d_46">
    <path d="M 468.429575 235.226552 
L 472.875678 236.54494 
L 477.321797 236.544935 
L 481.767899 237.863318 
L 486.214018 236.544935 
L 490.660121 235.226562 
L 495.10624 233.908169 
L 499.552342 232.589805 
L 503.998461 232.589786 
L 508.444564 235.226562 
L 512.890683 232.589796 
L 517.336794 231.271415 
L 521.782904 232.589796 
L 526.229015 229.953034 
L 530.675126 227.316273 
L 535.121237 233.908169 
L 539.567339 224.679511 
L 544.01345 224.679511 
L 548.459561 224.679511 
L 552.905671 210.177324 
L 557.351782 218.087607 
L 561.797893 208.858943 
L 566.244004 214.132464 
L 570.690115 199.630207 
L 575.136217 193.038372 
L 579.582328 185.128091 
L 584.028438 171.944282 
L 588.474549 152.168579 
L 592.92066 153.486878 
L 597.366767 160.07886 
L 601.812877 158.760473 
L 606.258988 135.029726 
L 610.705103 112.617157 
L 615.151214 115.253914 
L 619.597325 103.388432 
L 624.043433 108.662004 
L 628.489544 117.890672 
L 632.935655 45.379682 
L 637.381764 70.428937 
L 641.827874 86.249691 
L 646.273989 69.110582 
L 650.720099 67.792195 
L 655.16621 91.523031 
L 659.612319 88.886305 
L 664.05843 70.428969 
L 668.504541 104.706811 
L 672.950649 91.523063 
L 677.39676 95.477791 
L 681.842858 124.482575 
L 686.288969 144.25829 
L 690.73508 138.984766 
L 695.181191 167.989142 
L 699.627302 141.621436 
L 704.073408 177.217806 
L 708.519519 183.809712 
L 712.96563 181.17279 
L 717.411728 196.993517 
L 721.857839 204.9038 
L 726.303949 202.267036 
L 730.75006 193.038372 
L 735.196171 194.356755 
L 739.642282 216.769228 
L 744.088392 211.495705 
L 748.534503 216.769228 
L 752.980614 225.997891 
L 757.426725 227.316273 
L 761.872836 224.679511 
L 766.318946 228.634653 
L 770.765057 231.271415 
L 775.211168 231.271415 
L 779.657279 228.634653 
L 784.103389 229.953034 
L 788.5495 232.589786 
L 792.995602 236.54494 
L 797.441722 237.863318 
L 801.887824 232.589805 
L 806.333943 231.271402 
L 810.780046 235.226562 
L 815.226165 235.226552 
L 819.672267 236.54494 
L 824.118386 237.863318 
L 828.564489 237.863318 
L 833.010608 237.863318 
L 837.45671 237.863318 
L 841.902829 237.863318 
L 846.348932 237.863318 
L 850.795051 237.863318 
L 854.949017 237.863318 
" clip-path="url(#pf3be5cf421)" style="fill: none; stroke: #9467bd; stroke-width: 1.5; stroke-linecap: square"/>
   </g>
   <g id="patch_9">
    <path d="M 457.461857 247.4875 
L 457.461857 35.7555 
" style="fill: none; stroke: #000000; stroke-width: 0.8; stroke-linejoin: miter; stroke-linecap: square"/>
   </g>
   <g id="patch_10">
    <path d="M 843.747524 247.4875 
L 843.747524 35.7555 
" style="fill: none; stroke: #000000; stroke-width: 0.8; stroke-linejoin: miter; stroke-linecap: square"/>
   </g>
   <g id="patch_11">
    <path d="M 457.461857 247.4875 
L 843.747524 247.4875 
" style="fill: none; stroke: #000000; stroke-width: 0.8; stroke-linejoin: miter; stroke-linecap: square"/>
   </g>
   <g id="patch_12">
    <path d="M 457.461857 35.7555 
L 843.747524 35.7555 
" style="fill: none; stroke: #000000; stroke-width: 0.8; stroke-linejoin: miter; stroke-linecap: square"/>
   </g>
   <g id="text_38">
    <!-- Activation gradients histogram -->
    <g transform="translate(557.936565 16.318125) scale(0.12 -0.12)">
     <use xlink:href="#DejaVuSans-41"/>
     <use xlink:href="#DejaVuSans-63" x="66.658203"/>
     <use xlink:href="#DejaVuSans-74" x="121.638672"/>
     <use xlink:href="#DejaVuSans-69" x="160.847656"/>
     <use xlink:href="#DejaVuSans-76" x="188.630859"/>
     <use xlink:href="#DejaVuSans-61" x="247.810547"/>
     <use xlink:href="#DejaVuSans-74" x="309.089844"/>
     <use xlink:href="#DejaVuSans-69" x="348.298828"/>
     <use xlink:href="#DejaVuSans-6f" x="376.082031"/>
     <use xlink:href="#DejaVuSans-6e" x="437.263672"/>
     <use xlink:href="#DejaVuSans-20" x="500.642578"/>
     <use xlink:href="#DejaVuSans-67" x="532.429688"/>
     <use xlink:href="#DejaVuSans-72" x="595.90625"/>
     <use xlink:href="#DejaVuSans-61" x="637.019531"/>
     <use xlink:href="#DejaVuSans-64" x="698.298828"/>
     <use xlink:href="#DejaVuSans-69" x="761.775391"/>
     <use xlink:href="#DejaVuSans-65" x="789.558594"/>
     <use xlink:href="#DejaVuSans-6e" x="851.082031"/>
     <use xlink:href="#DejaVuSans-74" x="914.460938"/>
     <use xlink:href="#DejaVuSans-73" x="953.669922"/>
     <use xlink:href="#DejaVuSans-20" x="1005.769531"/>
     <use xlink:href="#DejaVuSans-68" x="1037.556641"/>
     <use xlink:href="#DejaVuSans-69" x="1100.935547"/>
     <use xlink:href="#DejaVuSans-73" x="1128.71875"/>
     <use xlink:href="#DejaVuSans-74" x="1180.818359"/>
     <use xlink:href="#DejaVuSans-6f" x="1220.027344"/>
     <use xlink:href="#DejaVuSans-67" x="1281.208984"/>
     <use xlink:href="#DejaVuSans-72" x="1344.685547"/>
     <use xlink:href="#DejaVuSans-61" x="1385.798828"/>
     <use xlink:href="#DejaVuSans-6d" x="1447.078125"/>
    </g>
    <!-- gain=1.67, BN=True , act=Tanh, lr=1e-01 -->
    <g transform="translate(524.757503 29.7555) scale(0.12 -0.12)">
     <defs>
      <path id="DejaVuSans-75" d="M 544 1381 
L 544 3500 
L 1119 3500 
L 1119 1403 
Q 1119 906 1312 657 
Q 1506 409 1894 409 
Q 2359 409 2629 706 
Q 2900 1003 2900 1516 
L 2900 3500 
L 3475 3500 
L 3475 0 
L 2900 0 
L 2900 538 
Q 2691 219 2414 64 
Q 2138 -91 1772 -91 
Q 1169 -91 856 284 
Q 544 659 544 1381 
z
M 1991 3584 
L 1991 3584 
z
" transform="scale(0.015625)"/>
     </defs>
     <use xlink:href="#DejaVuSans-67"/>
     <use xlink:href="#DejaVuSans-61" x="63.476562"/>
     <use xlink:href="#DejaVuSans-69" x="124.755859"/>
     <use xlink:href="#DejaVuSans-6e" x="152.539062"/>
     <use xlink:href="#DejaVuSans-3d" x="215.917969"/>
     <use xlink:href="#DejaVuSans-31" x="299.707031"/>
     <use xlink:href="#DejaVuSans-2e" x="363.330078"/>
     <use xlink:href="#DejaVuSans-36" x="395.117188"/>
     <use xlink:href="#DejaVuSans-37" x="458.740234"/>
     <use xlink:href="#DejaVuSans-2c" x="522.363281"/>
     <use xlink:href="#DejaVuSans-20" x="554.150391"/>
     <use xlink:href="#DejaVuSans-42" x="585.9375"/>
     <use xlink:href="#DejaVuSans-4e" x="654.541016"/>
     <use xlink:href="#DejaVuSans-3d" x="729.345703"/>
     <use xlink:href="#DejaVuSans-54" x="813.134766"/>
     <use xlink:href="#DejaVuSans-72" x="859.46875"/>
     <use xlink:href="#DejaVuSans-75" x="900.582031"/>
     <use xlink:href="#DejaVuSans-65" x="963.960938"/>
     <use xlink:href="#DejaVuSans-20" x="1025.484375"/>
     <use xlink:href="#DejaVuSans-2c" x="1057.271484"/>
     <use xlink:href="#DejaVuSans-20" x="1089.058594"/>
     <use xlink:href="#DejaVuSans-61" x="1120.845703"/>
     <use xlink:href="#DejaVuSans-63" x="1182.125"/>
     <use xlink:href="#DejaVuSans-74" x="1237.105469"/>
     <use xlink:href="#DejaVuSans-3d" x="1276.314453"/>
     <use xlink:href="#DejaVuSans-54" x="1360.103516"/>
     <use xlink:href="#DejaVuSans-61" x="1404.6875"/>
     <use xlink:href="#DejaVuSans-6e" x="1465.966797"/>
     <use xlink:href="#DejaVuSans-68" x="1529.345703"/>
     <use xlink:href="#DejaVuSans-2c" x="1592.724609"/>
     <use xlink:href="#DejaVuSans-20" x="1624.511719"/>
     <use xlink:href="#DejaVuSans-6c" x="1656.298828"/>
     <use xlink:href="#DejaVuSans-72" x="1684.082031"/>
     <use xlink:href="#DejaVuSans-3d" x="1725.195312"/>
     <use xlink:href="#DejaVuSans-31" x="1808.984375"/>
     <use xlink:href="#DejaVuSans-65" x="1872.607422"/>
     <use xlink:href="#DejaVuSans-2d" x="1934.130859"/>
     <use xlink:href="#DejaVuSans-30" x="1970.214844"/>
     <use xlink:href="#DejaVuSans-31" x="2033.837891"/>
    </g>
   </g>
   <g id="legend_2">
    <g id="patch_13">
     <path d="M 765.583462 117.146125 
L 836.747524 117.146125 
Q 838.747524 117.146125 838.747524 115.146125 
L 838.747524 42.7555 
Q 838.747524 40.7555 836.747524 40.7555 
L 765.583462 40.7555 
Q 763.583462 40.7555 763.583462 42.7555 
L 763.583462 115.146125 
Q 763.583462 117.146125 765.583462 117.146125 
z
" style="fill: #ffffff; opacity: 0.8; stroke: #cccccc; stroke-linejoin: miter"/>
    </g>
    <g id="line2d_47">
     <path d="M 767.583462 48.853937 
L 777.583462 48.853937 
L 787.583462 48.853937 
" style="fill: none; stroke: #1f77b4; stroke-width: 1.5; stroke-linecap: square"/>
    </g>
    <g id="text_39">
     <!-- Tanh.3 -->
     <g transform="translate(795.583462 52.353937) scale(0.1 -0.1)">
      <defs>
       <path id="DejaVuSans-33" d="M 2597 2516 
Q 3050 2419 3304 2112 
Q 3559 1806 3559 1356 
Q 3559 666 3084 287 
Q 2609 -91 1734 -91 
Q 1441 -91 1130 -33 
Q 819 25 488 141 
L 488 750 
Q 750 597 1062 519 
Q 1375 441 1716 441 
Q 2309 441 2620 675 
Q 2931 909 2931 1356 
Q 2931 1769 2642 2001 
Q 2353 2234 1838 2234 
L 1294 2234 
L 1294 2753 
L 1863 2753 
Q 2328 2753 2575 2939 
Q 2822 3125 2822 3475 
Q 2822 3834 2567 4026 
Q 2313 4219 1838 4219 
Q 1578 4219 1281 4162 
Q 984 4106 628 3988 
L 628 4550 
Q 988 4650 1302 4700 
Q 1616 4750 1894 4750 
Q 2613 4750 3031 4423 
Q 3450 4097 3450 3541 
Q 3450 3153 3228 2886 
Q 3006 2619 2597 2516 
z
" transform="scale(0.015625)"/>
      </defs>
      <use xlink:href="#DejaVuSans-54"/>
      <use xlink:href="#DejaVuSans-61" x="44.583984"/>
      <use xlink:href="#DejaVuSans-6e" x="105.863281"/>
      <use xlink:href="#DejaVuSans-68" x="169.242188"/>
      <use xlink:href="#DejaVuSans-2e" x="232.621094"/>
      <use xlink:href="#DejaVuSans-33" x="264.408203"/>
     </g>
    </g>
    <g id="line2d_48">
     <path d="M 767.583462 63.532062 
L 777.583462 63.532062 
L 787.583462 63.532062 
" style="fill: none; stroke: #ff7f0e; stroke-width: 1.5; stroke-linecap: square"/>
    </g>
    <g id="text_40">
     <!-- Tanh.6 -->
     <g transform="translate(795.583462 67.032062) scale(0.1 -0.1)">
      <use xlink:href="#DejaVuSans-54"/>
      <use xlink:href="#DejaVuSans-61" x="44.583984"/>
      <use xlink:href="#DejaVuSans-6e" x="105.863281"/>
      <use xlink:href="#DejaVuSans-68" x="169.242188"/>
      <use xlink:href="#DejaVuSans-2e" x="232.621094"/>
      <use xlink:href="#DejaVuSans-36" x="264.408203"/>
     </g>
    </g>
    <g id="line2d_49">
     <path d="M 767.583462 78.210187 
L 777.583462 78.210187 
L 787.583462 78.210187 
" style="fill: none; stroke: #2ca02c; stroke-width: 1.5; stroke-linecap: square"/>
    </g>
    <g id="text_41">
     <!-- Tanh.9 -->
     <g transform="translate(795.583462 81.710187) scale(0.1 -0.1)">
      <defs>
       <path id="DejaVuSans-39" d="M 703 97 
L 703 672 
Q 941 559 1184 500 
Q 1428 441 1663 441 
Q 2288 441 2617 861 
Q 2947 1281 2994 2138 
Q 2813 1869 2534 1725 
Q 2256 1581 1919 1581 
Q 1219 1581 811 2004 
Q 403 2428 403 3163 
Q 403 3881 828 4315 
Q 1253 4750 1959 4750 
Q 2769 4750 3195 4129 
Q 3622 3509 3622 2328 
Q 3622 1225 3098 567 
Q 2575 -91 1691 -91 
Q 1453 -91 1209 -44 
Q 966 3 703 97 
z
M 1959 2075 
Q 2384 2075 2632 2365 
Q 2881 2656 2881 3163 
Q 2881 3666 2632 3958 
Q 2384 4250 1959 4250 
Q 1534 4250 1286 3958 
Q 1038 3666 1038 3163 
Q 1038 2656 1286 2365 
Q 1534 2075 1959 2075 
z
" transform="scale(0.015625)"/>
      </defs>
      <use xlink:href="#DejaVuSans-54"/>
      <use xlink:href="#DejaVuSans-61" x="44.583984"/>
      <use xlink:href="#DejaVuSans-6e" x="105.863281"/>
      <use xlink:href="#DejaVuSans-68" x="169.242188"/>
      <use xlink:href="#DejaVuSans-2e" x="232.621094"/>
      <use xlink:href="#DejaVuSans-39" x="264.408203"/>
     </g>
    </g>
    <g id="line2d_50">
     <path d="M 767.583462 92.888312 
L 777.583462 92.888312 
L 787.583462 92.888312 
" style="fill: none; stroke: #d62728; stroke-width: 1.5; stroke-linecap: square"/>
    </g>
    <g id="text_42">
     <!-- Tanh.12 -->
     <g transform="translate(795.583462 96.388312) scale(0.1 -0.1)">
      <use xlink:href="#DejaVuSans-54"/>
      <use xlink:href="#DejaVuSans-61" x="44.583984"/>
      <use xlink:href="#DejaVuSans-6e" x="105.863281"/>
      <use xlink:href="#DejaVuSans-68" x="169.242188"/>
      <use xlink:href="#DejaVuSans-2e" x="232.621094"/>
      <use xlink:href="#DejaVuSans-31" x="264.408203"/>
      <use xlink:href="#DejaVuSans-32" x="328.03125"/>
     </g>
    </g>
    <g id="line2d_51">
     <path d="M 767.583462 107.566437 
L 777.583462 107.566437 
L 787.583462 107.566437 
" style="fill: none; stroke: #9467bd; stroke-width: 1.5; stroke-linecap: square"/>
    </g>
    <g id="text_43">
     <!-- Tanh.15 -->
     <g transform="translate(795.583462 111.066437) scale(0.1 -0.1)">
      <use xlink:href="#DejaVuSans-54"/>
      <use xlink:href="#DejaVuSans-61" x="44.583984"/>
      <use xlink:href="#DejaVuSans-6e" x="105.863281"/>
      <use xlink:href="#DejaVuSans-68" x="169.242188"/>
      <use xlink:href="#DejaVuSans-2e" x="232.621094"/>
      <use xlink:href="#DejaVuSans-31" x="264.408203"/>
      <use xlink:href="#DejaVuSans-35" x="328.03125"/>
     </g>
    </g>
   </g>
  </g>
  <g id="axes_3">
   <g id="table_1">
    <g id="patch_14">
     <path d="M 33.2875 352.426425 
L 162.049389 352.426425 
L 162.049389 338.022888 
L 33.2875 338.022888 
z
" style="fill: #ffffff; stroke: #000000; stroke-linejoin: miter"/>
    </g>
    <g id="text_44">
     <!-- layer -->
     <g transform="translate(85.123913 347.984031) scale(0.1 -0.1)">
      <defs>
       <path id="DejaVuSans-79" d="M 2059 -325 
Q 1816 -950 1584 -1140 
Q 1353 -1331 966 -1331 
L 506 -1331 
L 506 -850 
L 844 -850 
Q 1081 -850 1212 -737 
Q 1344 -625 1503 -206 
L 1606 56 
L 191 3500 
L 800 3500 
L 1894 763 
L 2988 3500 
L 3597 3500 
L 2059 -325 
z
" transform="scale(0.015625)"/>
      </defs>
      <use xlink:href="#DejaVuSans-6c"/>
      <use xlink:href="#DejaVuSans-61" x="27.783203"/>
      <use xlink:href="#DejaVuSans-79" x="89.0625"/>
      <use xlink:href="#DejaVuSans-65" x="148.242188"/>
      <use xlink:href="#DejaVuSans-72" x="209.765625"/>
     </g>
    </g>
    <g id="patch_15">
     <path d="M 162.049389 352.426425 
L 290.811278 352.426425 
L 290.811278 338.022888 
L 162.049389 338.022888 
z
" style="fill: #ffffff; stroke: #000000; stroke-linejoin: miter"/>
    </g>
    <g id="text_45">
     <!-- μ -->
     <g transform="translate(223.249084 347.984031) scale(0.1 -0.1)">
      <defs>
       <path id="DejaVuSans-3bc" d="M 544 -1331 
L 544 3500 
L 1119 3500 
L 1119 1325 
Q 1119 872 1334 640 
Q 1550 409 1972 409 
Q 2434 409 2667 671 
Q 2900 934 2900 1459 
L 2900 3500 
L 3475 3500 
L 3475 806 
Q 3475 619 3529 530 
Q 3584 441 3700 441 
Q 3728 441 3778 458 
Q 3828 475 3916 513 
L 3916 50 
Q 3788 -22 3673 -56 
Q 3559 -91 3450 -91 
Q 3234 -91 3106 31 
Q 2978 153 2931 403 
Q 2775 156 2548 32 
Q 2322 -91 2016 -91 
Q 1697 -91 1473 31 
Q 1250 153 1119 397 
L 1119 -1331 
L 544 -1331 
z
" transform="scale(0.015625)"/>
      </defs>
      <use xlink:href="#DejaVuSans-3bc"/>
     </g>
    </g>
    <g id="patch_16">
     <path d="M 290.811278 352.426425 
L 419.573168 352.426425 
L 419.573168 338.022888 
L 290.811278 338.022888 
z
" style="fill: #ffffff; stroke: #000000; stroke-linejoin: miter"/>
    </g>
    <g id="text_46">
     <!-- σ -->
     <g transform="translate(352.023473 347.984031) scale(0.1 -0.1)">
      <defs>
       <path id="DejaVuSans-3c3" d="M 1959 3044 
Q 1484 3044 1228 2700 
Q 959 2341 959 1747 
Q 959 1119 1226 758 
Q 1494 397 1959 397 
Q 2419 397 2687 759 
Q 2956 1122 2956 1747 
Q 2956 2319 2688 2700 
Q 2441 3044 1959 3044 
z
M 1959 3500 
L 3869 3500 
L 3869 2925 
L 3225 2925 
Q 3566 2438 3566 1747 
Q 3566 888 3138 400 
Q 2709 -91 1959 -91 
Q 1206 -91 781 400 
Q 353 888 353 1747 
Q 353 2613 781 3097 
Q 1134 3500 1959 3500 
z
" transform="scale(0.015625)"/>
      </defs>
      <use xlink:href="#DejaVuSans-3c3"/>
     </g>
    </g>
    <g id="patch_17">
     <path d="M 33.2875 366.829963 
L 162.049389 366.829963 
L 162.049389 352.426425 
L 33.2875 352.426425 
z
" style="fill: #ffffff; stroke: #000000; stroke-linejoin: miter"/>
    </g>
    <g id="text_47">
     <!-- Tanh.2 -->
     <g transform="translate(81.267663 362.387569) scale(0.1 -0.1)">
      <use xlink:href="#DejaVuSans-54"/>
      <use xlink:href="#DejaVuSans-61" x="44.583984"/>
      <use xlink:href="#DejaVuSans-6e" x="105.863281"/>
      <use xlink:href="#DejaVuSans-68" x="169.242188"/>
      <use xlink:href="#DejaVuSans-2e" x="232.621094"/>
      <use xlink:href="#DejaVuSans-32" x="264.408203"/>
     </g>
    </g>
    <g id="patch_18">
     <path d="M 162.049389 366.829963 
L 290.811278 366.829963 
L 290.811278 352.426425 
L 162.049389 352.426425 
z
" style="fill: #ffffff; stroke: #000000; stroke-linejoin: miter"/>
    </g>
    <g id="text_48">
     <!-- 0.0001 -->
     <g transform="translate(208.935021 362.387569) scale(0.1 -0.1)">
      <use xlink:href="#DejaVuSans-30"/>
      <use xlink:href="#DejaVuSans-2e" x="63.623047"/>
      <use xlink:href="#DejaVuSans-30" x="95.410156"/>
      <use xlink:href="#DejaVuSans-30" x="159.033203"/>
      <use xlink:href="#DejaVuSans-30" x="222.65625"/>
      <use xlink:href="#DejaVuSans-31" x="286.279297"/>
     </g>
    </g>
    <g id="patch_19">
     <path d="M 290.811278 366.829963 
L 419.573168 366.829963 
L 419.573168 352.426425 
L 290.811278 352.426425 
z
" style="fill: #ffffff; stroke: #000000; stroke-linejoin: miter"/>
    </g>
    <g id="text_49">
     <!-- 0.0037 -->
     <g transform="translate(337.696911 362.387569) scale(0.1 -0.1)">
      <use xlink:href="#DejaVuSans-30"/>
      <use xlink:href="#DejaVuSans-2e" x="63.623047"/>
      <use xlink:href="#DejaVuSans-30" x="95.410156"/>
      <use xlink:href="#DejaVuSans-30" x="159.033203"/>
      <use xlink:href="#DejaVuSans-33" x="222.65625"/>
      <use xlink:href="#DejaVuSans-37" x="286.279297"/>
     </g>
    </g>
    <g id="patch_20">
     <path d="M 33.2875 381.2335 
L 162.049389 381.2335 
L 162.049389 366.829963 
L 33.2875 366.829963 
z
" style="fill: #ffffff; stroke: #000000; stroke-linejoin: miter"/>
    </g>
    <g id="text_50">
     <!-- Tanh.4 -->
     <g transform="translate(81.267663 376.791106) scale(0.1 -0.1)">
      <use xlink:href="#DejaVuSans-54"/>
      <use xlink:href="#DejaVuSans-61" x="44.583984"/>
      <use xlink:href="#DejaVuSans-6e" x="105.863281"/>
      <use xlink:href="#DejaVuSans-68" x="169.242188"/>
      <use xlink:href="#DejaVuSans-2e" x="232.621094"/>
      <use xlink:href="#DejaVuSans-34" x="264.408203"/>
     </g>
    </g>
    <g id="patch_21">
     <path d="M 162.049389 381.2335 
L 290.811278 381.2335 
L 290.811278 366.829963 
L 162.049389 366.829963 
z
" style="fill: #ffffff; stroke: #000000; stroke-linejoin: miter"/>
    </g>
    <g id="text_51">
     <!-- -0.0001 -->
     <g transform="translate(207.131115 376.791106) scale(0.1 -0.1)">
      <use xlink:href="#DejaVuSans-2d"/>
      <use xlink:href="#DejaVuSans-30" x="36.083984"/>
      <use xlink:href="#DejaVuSans-2e" x="99.707031"/>
      <use xlink:href="#DejaVuSans-30" x="131.494141"/>
      <use xlink:href="#DejaVuSans-30" x="195.117188"/>
      <use xlink:href="#DejaVuSans-30" x="258.740234"/>
      <use xlink:href="#DejaVuSans-31" x="322.363281"/>
     </g>
    </g>
    <g id="patch_22">
     <path d="M 290.811278 381.2335 
L 419.573168 381.2335 
L 419.573168 366.829963 
L 290.811278 366.829963 
z
" style="fill: #ffffff; stroke: #000000; stroke-linejoin: miter"/>
    </g>
    <g id="text_52">
     <!-- 0.0032 -->
     <g transform="translate(337.696911 376.791106) scale(0.1 -0.1)">
      <use xlink:href="#DejaVuSans-30"/>
      <use xlink:href="#DejaVuSans-2e" x="63.623047"/>
      <use xlink:href="#DejaVuSans-30" x="95.410156"/>
      <use xlink:href="#DejaVuSans-30" x="159.033203"/>
      <use xlink:href="#DejaVuSans-33" x="222.65625"/>
      <use xlink:href="#DejaVuSans-32" x="286.279297"/>
     </g>
    </g>
    <g id="patch_23">
     <path d="M 33.2875 395.637037 
L 162.049389 395.637037 
L 162.049389 381.2335 
L 33.2875 381.2335 
z
" style="fill: #ffffff; stroke: #000000; stroke-linejoin: miter"/>
    </g>
    <g id="text_53">
     <!-- Tanh.6 -->
     <g transform="translate(81.267663 391.194644) scale(0.1 -0.1)">
      <use xlink:href="#DejaVuSans-54"/>
      <use xlink:href="#DejaVuSans-61" x="44.583984"/>
      <use xlink:href="#DejaVuSans-6e" x="105.863281"/>
      <use xlink:href="#DejaVuSans-68" x="169.242188"/>
      <use xlink:href="#DejaVuSans-2e" x="232.621094"/>
      <use xlink:href="#DejaVuSans-36" x="264.408203"/>
     </g>
    </g>
    <g id="patch_24">
     <path d="M 162.049389 395.637037 
L 290.811278 395.637037 
L 290.811278 381.2335 
L 162.049389 381.2335 
z
" style="fill: #ffffff; stroke: #000000; stroke-linejoin: miter"/>
    </g>
    <g id="text_54">
     <!-- 0.0000 -->
     <g transform="translate(208.935021 391.194644) scale(0.1 -0.1)">
      <use xlink:href="#DejaVuSans-30"/>
      <use xlink:href="#DejaVuSans-2e" x="63.623047"/>
      <use xlink:href="#DejaVuSans-30" x="95.410156"/>
      <use xlink:href="#DejaVuSans-30" x="159.033203"/>
      <use xlink:href="#DejaVuSans-30" x="222.65625"/>
      <use xlink:href="#DejaVuSans-30" x="286.279297"/>
     </g>
    </g>
    <g id="patch_25">
     <path d="M 290.811278 395.637037 
L 419.573168 395.637037 
L 419.573168 381.2335 
L 290.811278 381.2335 
z
" style="fill: #ffffff; stroke: #000000; stroke-linejoin: miter"/>
    </g>
    <g id="text_55">
     <!-- 0.0032 -->
     <g transform="translate(337.696911 391.194644) scale(0.1 -0.1)">
      <use xlink:href="#DejaVuSans-30"/>
      <use xlink:href="#DejaVuSans-2e" x="63.623047"/>
      <use xlink:href="#DejaVuSans-30" x="95.410156"/>
      <use xlink:href="#DejaVuSans-30" x="159.033203"/>
      <use xlink:href="#DejaVuSans-33" x="222.65625"/>
      <use xlink:href="#DejaVuSans-32" x="286.279297"/>
     </g>
    </g>
    <g id="patch_26">
     <path d="M 33.2875 410.040575 
L 162.049389 410.040575 
L 162.049389 395.637037 
L 33.2875 395.637037 
z
" style="fill: #ffffff; stroke: #000000; stroke-linejoin: miter"/>
    </g>
    <g id="text_56">
     <!-- Tanh.8 -->
     <g transform="translate(81.267663 405.598181) scale(0.1 -0.1)">
      <use xlink:href="#DejaVuSans-54"/>
      <use xlink:href="#DejaVuSans-61" x="44.583984"/>
      <use xlink:href="#DejaVuSans-6e" x="105.863281"/>
      <use xlink:href="#DejaVuSans-68" x="169.242188"/>
      <use xlink:href="#DejaVuSans-2e" x="232.621094"/>
      <use xlink:href="#DejaVuSans-38" x="264.408203"/>
     </g>
    </g>
    <g id="patch_27">
     <path d="M 162.049389 410.040575 
L 290.811278 410.040575 
L 290.811278 395.637037 
L 162.049389 395.637037 
z
" style="fill: #ffffff; stroke: #000000; stroke-linejoin: miter"/>
    </g>
    <g id="text_57">
     <!-- 0.0000 -->
     <g transform="translate(208.935021 405.598181) scale(0.1 -0.1)">
      <use xlink:href="#DejaVuSans-30"/>
      <use xlink:href="#DejaVuSans-2e" x="63.623047"/>
      <use xlink:href="#DejaVuSans-30" x="95.410156"/>
      <use xlink:href="#DejaVuSans-30" x="159.033203"/>
      <use xlink:href="#DejaVuSans-30" x="222.65625"/>
      <use xlink:href="#DejaVuSans-30" x="286.279297"/>
     </g>
    </g>
    <g id="patch_28">
     <path d="M 290.811278 410.040575 
L 419.573168 410.040575 
L 419.573168 395.637037 
L 290.811278 395.637037 
z
" style="fill: #ffffff; stroke: #000000; stroke-linejoin: miter"/>
    </g>
    <g id="text_58">
     <!-- 0.0033 -->
     <g transform="translate(337.696911 405.598181) scale(0.1 -0.1)">
      <use xlink:href="#DejaVuSans-30"/>
      <use xlink:href="#DejaVuSans-2e" x="63.623047"/>
      <use xlink:href="#DejaVuSans-30" x="95.410156"/>
      <use xlink:href="#DejaVuSans-30" x="159.033203"/>
      <use xlink:href="#DejaVuSans-33" x="222.65625"/>
      <use xlink:href="#DejaVuSans-33" x="286.279297"/>
     </g>
    </g>
    <g id="patch_29">
     <path d="M 33.2875 424.444112 
L 162.049389 424.444112 
L 162.049389 410.040575 
L 33.2875 410.040575 
z
" style="fill: #ffffff; stroke: #000000; stroke-linejoin: miter"/>
    </g>
    <g id="text_59">
     <!-- Tanh.10 -->
     <g transform="translate(78.086413 420.001719) scale(0.1 -0.1)">
      <use xlink:href="#DejaVuSans-54"/>
      <use xlink:href="#DejaVuSans-61" x="44.583984"/>
      <use xlink:href="#DejaVuSans-6e" x="105.863281"/>
      <use xlink:href="#DejaVuSans-68" x="169.242188"/>
      <use xlink:href="#DejaVuSans-2e" x="232.621094"/>
      <use xlink:href="#DejaVuSans-31" x="264.408203"/>
      <use xlink:href="#DejaVuSans-30" x="328.03125"/>
     </g>
    </g>
    <g id="patch_30">
     <path d="M 162.049389 424.444112 
L 290.811278 424.444112 
L 290.811278 410.040575 
L 162.049389 410.040575 
z
" style="fill: #ffffff; stroke: #000000; stroke-linejoin: miter"/>
    </g>
    <g id="text_60">
     <!-- 0.0000 -->
     <g transform="translate(208.935021 420.001719) scale(0.1 -0.1)">
      <use xlink:href="#DejaVuSans-30"/>
      <use xlink:href="#DejaVuSans-2e" x="63.623047"/>
      <use xlink:href="#DejaVuSans-30" x="95.410156"/>
      <use xlink:href="#DejaVuSans-30" x="159.033203"/>
      <use xlink:href="#DejaVuSans-30" x="222.65625"/>
      <use xlink:href="#DejaVuSans-30" x="286.279297"/>
     </g>
    </g>
    <g id="patch_31">
     <path d="M 290.811278 424.444112 
L 419.573168 424.444112 
L 419.573168 410.040575 
L 290.811278 410.040575 
z
" style="fill: #ffffff; stroke: #000000; stroke-linejoin: miter"/>
    </g>
    <g id="text_61">
     <!-- 0.0032 -->
     <g transform="translate(337.696911 420.001719) scale(0.1 -0.1)">
      <use xlink:href="#DejaVuSans-30"/>
      <use xlink:href="#DejaVuSans-2e" x="63.623047"/>
      <use xlink:href="#DejaVuSans-30" x="95.410156"/>
      <use xlink:href="#DejaVuSans-30" x="159.033203"/>
      <use xlink:href="#DejaVuSans-33" x="222.65625"/>
      <use xlink:href="#DejaVuSans-32" x="286.279297"/>
     </g>
    </g>
   </g>
  </g>
  <g id="axes_4">
   <g id="table_2">
    <g id="patch_32">
     <path d="M 457.461857 352.426425 
L 586.223746 352.426425 
L 586.223746 338.022888 
L 457.461857 338.022888 
z
" style="fill: #ffffff; stroke: #000000; stroke-linejoin: miter"/>
    </g>
    <g id="text_62">
     <!-- layer -->
     <g transform="translate(509.29827 347.984031) scale(0.1 -0.1)">
      <use xlink:href="#DejaVuSans-6c"/>
      <use xlink:href="#DejaVuSans-61" x="27.783203"/>
      <use xlink:href="#DejaVuSans-79" x="89.0625"/>
      <use xlink:href="#DejaVuSans-65" x="148.242188"/>
      <use xlink:href="#DejaVuSans-72" x="209.765625"/>
     </g>
    </g>
    <g id="patch_33">
     <path d="M 586.223746 352.426425 
L 714.985635 352.426425 
L 714.985635 338.022888 
L 586.223746 338.022888 
z
" style="fill: #ffffff; stroke: #000000; stroke-linejoin: miter"/>
    </g>
    <g id="text_63">
     <!-- μ -->
     <g transform="translate(647.42344 347.984031) scale(0.1 -0.1)">
      <use xlink:href="#DejaVuSans-3bc"/>
     </g>
    </g>
    <g id="patch_34">
     <path d="M 714.985635 352.426425 
L 843.747524 352.426425 
L 843.747524 338.022888 
L 714.985635 338.022888 
z
" style="fill: #ffffff; stroke: #000000; stroke-linejoin: miter"/>
    </g>
    <g id="text_64">
     <!-- σ -->
     <g transform="translate(776.19783 347.984031) scale(0.1 -0.1)">
      <use xlink:href="#DejaVuSans-3c3"/>
     </g>
    </g>
    <g id="patch_35">
     <path d="M 457.461857 366.829963 
L 586.223746 366.829963 
L 586.223746 352.426425 
L 457.461857 352.426425 
z
" style="fill: #ffffff; stroke: #000000; stroke-linejoin: miter"/>
    </g>
    <g id="text_65">
     <!-- Tanh.3 -->
     <g transform="translate(505.44202 362.387569) scale(0.1 -0.1)">
      <use xlink:href="#DejaVuSans-54"/>
      <use xlink:href="#DejaVuSans-61" x="44.583984"/>
      <use xlink:href="#DejaVuSans-6e" x="105.863281"/>
      <use xlink:href="#DejaVuSans-68" x="169.242188"/>
      <use xlink:href="#DejaVuSans-2e" x="232.621094"/>
      <use xlink:href="#DejaVuSans-33" x="264.408203"/>
     </g>
    </g>
    <g id="patch_36">
     <path d="M 586.223746 366.829963 
L 714.985635 366.829963 
L 714.985635 352.426425 
L 586.223746 352.426425 
z
" style="fill: #ffffff; stroke: #000000; stroke-linejoin: miter"/>
    </g>
    <g id="text_66">
     <!-- 0.0000 -->
     <g transform="translate(633.109378 362.387569) scale(0.1 -0.1)">
      <use xlink:href="#DejaVuSans-30"/>
      <use xlink:href="#DejaVuSans-2e" x="63.623047"/>
      <use xlink:href="#DejaVuSans-30" x="95.410156"/>
      <use xlink:href="#DejaVuSans-30" x="159.033203"/>
      <use xlink:href="#DejaVuSans-30" x="222.65625"/>
      <use xlink:href="#DejaVuSans-30" x="286.279297"/>
     </g>
    </g>
    <g id="patch_37">
     <path d="M 714.985635 366.829963 
L 843.747524 366.829963 
L 843.747524 352.426425 
L 714.985635 352.426425 
z
" style="fill: #ffffff; stroke: #000000; stroke-linejoin: miter"/>
    </g>
    <g id="text_67">
     <!-- 0.0036 -->
     <g transform="translate(761.871267 362.387569) scale(0.1 -0.1)">
      <use xlink:href="#DejaVuSans-30"/>
      <use xlink:href="#DejaVuSans-2e" x="63.623047"/>
      <use xlink:href="#DejaVuSans-30" x="95.410156"/>
      <use xlink:href="#DejaVuSans-30" x="159.033203"/>
      <use xlink:href="#DejaVuSans-33" x="222.65625"/>
      <use xlink:href="#DejaVuSans-36" x="286.279297"/>
     </g>
    </g>
    <g id="patch_38">
     <path d="M 457.461857 381.2335 
L 586.223746 381.2335 
L 586.223746 366.829963 
L 457.461857 366.829963 
z
" style="fill: #ffffff; stroke: #000000; stroke-linejoin: miter"/>
    </g>
    <g id="text_68">
     <!-- Tanh.6 -->
     <g transform="translate(505.44202 376.791106) scale(0.1 -0.1)">
      <use xlink:href="#DejaVuSans-54"/>
      <use xlink:href="#DejaVuSans-61" x="44.583984"/>
      <use xlink:href="#DejaVuSans-6e" x="105.863281"/>
      <use xlink:href="#DejaVuSans-68" x="169.242188"/>
      <use xlink:href="#DejaVuSans-2e" x="232.621094"/>
      <use xlink:href="#DejaVuSans-36" x="264.408203"/>
     </g>
    </g>
    <g id="patch_39">
     <path d="M 586.223746 381.2335 
L 714.985635 381.2335 
L 714.985635 366.829963 
L 586.223746 366.829963 
z
" style="fill: #ffffff; stroke: #000000; stroke-linejoin: miter"/>
    </g>
    <g id="text_69">
     <!-- 0.0000 -->
     <g transform="translate(633.109378 376.791106) scale(0.1 -0.1)">
      <use xlink:href="#DejaVuSans-30"/>
      <use xlink:href="#DejaVuSans-2e" x="63.623047"/>
      <use xlink:href="#DejaVuSans-30" x="95.410156"/>
      <use xlink:href="#DejaVuSans-30" x="159.033203"/>
      <use xlink:href="#DejaVuSans-30" x="222.65625"/>
      <use xlink:href="#DejaVuSans-30" x="286.279297"/>
     </g>
    </g>
    <g id="patch_40">
     <path d="M 714.985635 381.2335 
L 843.747524 381.2335 
L 843.747524 366.829963 
L 714.985635 366.829963 
z
" style="fill: #ffffff; stroke: #000000; stroke-linejoin: miter"/>
    </g>
    <g id="text_70">
     <!-- 0.0034 -->
     <g transform="translate(761.871267 376.791106) scale(0.1 -0.1)">
      <use xlink:href="#DejaVuSans-30"/>
      <use xlink:href="#DejaVuSans-2e" x="63.623047"/>
      <use xlink:href="#DejaVuSans-30" x="95.410156"/>
      <use xlink:href="#DejaVuSans-30" x="159.033203"/>
      <use xlink:href="#DejaVuSans-33" x="222.65625"/>
      <use xlink:href="#DejaVuSans-34" x="286.279297"/>
     </g>
    </g>
    <g id="patch_41">
     <path d="M 457.461857 395.637037 
L 586.223746 395.637037 
L 586.223746 381.2335 
L 457.461857 381.2335 
z
" style="fill: #ffffff; stroke: #000000; stroke-linejoin: miter"/>
    </g>
    <g id="text_71">
     <!-- Tanh.9 -->
     <g transform="translate(505.44202 391.194644) scale(0.1 -0.1)">
      <use xlink:href="#DejaVuSans-54"/>
      <use xlink:href="#DejaVuSans-61" x="44.583984"/>
      <use xlink:href="#DejaVuSans-6e" x="105.863281"/>
      <use xlink:href="#DejaVuSans-68" x="169.242188"/>
      <use xlink:href="#DejaVuSans-2e" x="232.621094"/>
      <use xlink:href="#DejaVuSans-39" x="264.408203"/>
     </g>
    </g>
    <g id="patch_42">
     <path d="M 586.223746 395.637037 
L 714.985635 395.637037 
L 714.985635 381.2335 
L 586.223746 381.2335 
z
" style="fill: #ffffff; stroke: #000000; stroke-linejoin: miter"/>
    </g>
    <g id="text_72">
     <!-- 0.0000 -->
     <g transform="translate(633.109378 391.194644) scale(0.1 -0.1)">
      <use xlink:href="#DejaVuSans-30"/>
      <use xlink:href="#DejaVuSans-2e" x="63.623047"/>
      <use xlink:href="#DejaVuSans-30" x="95.410156"/>
      <use xlink:href="#DejaVuSans-30" x="159.033203"/>
      <use xlink:href="#DejaVuSans-30" x="222.65625"/>
      <use xlink:href="#DejaVuSans-30" x="286.279297"/>
     </g>
    </g>
    <g id="patch_43">
     <path d="M 714.985635 395.637037 
L 843.747524 395.637037 
L 843.747524 381.2335 
L 714.985635 381.2335 
z
" style="fill: #ffffff; stroke: #000000; stroke-linejoin: miter"/>
    </g>
    <g id="text_73">
     <!-- 0.0032 -->
     <g transform="translate(761.871267 391.194644) scale(0.1 -0.1)">
      <use xlink:href="#DejaVuSans-30"/>
      <use xlink:href="#DejaVuSans-2e" x="63.623047"/>
      <use xlink:href="#DejaVuSans-30" x="95.410156"/>
      <use xlink:href="#DejaVuSans-30" x="159.033203"/>
      <use xlink:href="#DejaVuSans-33" x="222.65625"/>
      <use xlink:href="#DejaVuSans-32" x="286.279297"/>
     </g>
    </g>
    <g id="patch_44">
     <path d="M 457.461857 410.040575 
L 586.223746 410.040575 
L 586.223746 395.637037 
L 457.461857 395.637037 
z
" style="fill: #ffffff; stroke: #000000; stroke-linejoin: miter"/>
    </g>
    <g id="text_74">
     <!-- Tanh.12 -->
     <g transform="translate(502.26077 405.598181) scale(0.1 -0.1)">
      <use xlink:href="#DejaVuSans-54"/>
      <use xlink:href="#DejaVuSans-61" x="44.583984"/>
      <use xlink:href="#DejaVuSans-6e" x="105.863281"/>
      <use xlink:href="#DejaVuSans-68" x="169.242188"/>
      <use xlink:href="#DejaVuSans-2e" x="232.621094"/>
      <use xlink:href="#DejaVuSans-31" x="264.408203"/>
      <use xlink:href="#DejaVuSans-32" x="328.03125"/>
     </g>
    </g>
    <g id="patch_45">
     <path d="M 586.223746 410.040575 
L 714.985635 410.040575 
L 714.985635 395.637037 
L 586.223746 395.637037 
z
" style="fill: #ffffff; stroke: #000000; stroke-linejoin: miter"/>
    </g>
    <g id="text_75">
     <!-- -0.0000 -->
     <g transform="translate(631.305472 405.598181) scale(0.1 -0.1)">
      <use xlink:href="#DejaVuSans-2d"/>
      <use xlink:href="#DejaVuSans-30" x="36.083984"/>
      <use xlink:href="#DejaVuSans-2e" x="99.707031"/>
      <use xlink:href="#DejaVuSans-30" x="131.494141"/>
      <use xlink:href="#DejaVuSans-30" x="195.117188"/>
      <use xlink:href="#DejaVuSans-30" x="258.740234"/>
      <use xlink:href="#DejaVuSans-30" x="322.363281"/>
     </g>
    </g>
    <g id="patch_46">
     <path d="M 714.985635 410.040575 
L 843.747524 410.040575 
L 843.747524 395.637037 
L 714.985635 395.637037 
z
" style="fill: #ffffff; stroke: #000000; stroke-linejoin: miter"/>
    </g>
    <g id="text_76">
     <!-- 0.0029 -->
     <g transform="translate(761.871267 405.598181) scale(0.1 -0.1)">
      <use xlink:href="#DejaVuSans-30"/>
      <use xlink:href="#DejaVuSans-2e" x="63.623047"/>
      <use xlink:href="#DejaVuSans-30" x="95.410156"/>
      <use xlink:href="#DejaVuSans-30" x="159.033203"/>
      <use xlink:href="#DejaVuSans-32" x="222.65625"/>
      <use xlink:href="#DejaVuSans-39" x="286.279297"/>
     </g>
    </g>
    <g id="patch_47">
     <path d="M 457.461857 424.444112 
L 586.223746 424.444112 
L 586.223746 410.040575 
L 457.461857 410.040575 
z
" style="fill: #ffffff; stroke: #000000; stroke-linejoin: miter"/>
    </g>
    <g id="text_77">
     <!-- Tanh.15 -->
     <g transform="translate(502.26077 420.001719) scale(0.1 -0.1)">
      <use xlink:href="#DejaVuSans-54"/>
      <use xlink:href="#DejaVuSans-61" x="44.583984"/>
      <use xlink:href="#DejaVuSans-6e" x="105.863281"/>
      <use xlink:href="#DejaVuSans-68" x="169.242188"/>
      <use xlink:href="#DejaVuSans-2e" x="232.621094"/>
      <use xlink:href="#DejaVuSans-31" x="264.408203"/>
      <use xlink:href="#DejaVuSans-35" x="328.03125"/>
     </g>
    </g>
    <g id="patch_48">
     <path d="M 586.223746 424.444112 
L 714.985635 424.444112 
L 714.985635 410.040575 
L 586.223746 410.040575 
z
" style="fill: #ffffff; stroke: #000000; stroke-linejoin: miter"/>
    </g>
    <g id="text_78">
     <!-- 0.0000 -->
     <g transform="translate(633.109378 420.001719) scale(0.1 -0.1)">
      <use xlink:href="#DejaVuSans-30"/>
      <use xlink:href="#DejaVuSans-2e" x="63.623047"/>
      <use xlink:href="#DejaVuSans-30" x="95.410156"/>
      <use xlink:href="#DejaVuSans-30" x="159.033203"/>
      <use xlink:href="#DejaVuSans-30" x="222.65625"/>
      <use xlink:href="#DejaVuSans-30" x="286.279297"/>
     </g>
    </g>
    <g id="patch_49">
     <path d="M 714.985635 424.444112 
L 843.747524 424.444112 
L 843.747524 410.040575 
L 714.985635 410.040575 
z
" style="fill: #ffffff; stroke: #000000; stroke-linejoin: miter"/>
    </g>
    <g id="text_79">
     <!-- 0.0028 -->
     <g transform="translate(761.871267 420.001719) scale(0.1 -0.1)">
      <use xlink:href="#DejaVuSans-30"/>
      <use xlink:href="#DejaVuSans-2e" x="63.623047"/>
      <use xlink:href="#DejaVuSans-30" x="95.410156"/>
      <use xlink:href="#DejaVuSans-30" x="159.033203"/>
      <use xlink:href="#DejaVuSans-32" x="222.65625"/>
      <use xlink:href="#DejaVuSans-38" x="286.279297"/>
     </g>
    </g>
   </g>
  </g>
 </g>
 <defs>
  <clipPath id="p38c0e73ba8">
   <rect x="33.2875" y="35.7555" width="386.285668" height="211.732"/>
  </clipPath>
  <clipPath id="pf3be5cf421">
   <rect x="457.461857" y="35.7555" width="386.285668" height="211.732"/>
  </clipPath>
 </defs>
</svg>