<?xml version="1.0" encoding="utf-8" standalone="no"?>
<!DOCTYPE svg PUBLIC "-//W3C//DTD SVG 1.1//EN"
  "http://www.w3.org/Graphics/SVG/1.1/DTD/svg11.dtd">
<svg xmlns:xlink="http://www.w3.org/1999/xlink" width="568.218691pt" height="277.138125pt" viewBox="0 0 568.218691 277.138125" xmlns="http://www.w3.org/2000/svg" version="1.1">
 <metadata>
  <rdf:RDF xmlns:dc="http://purl.org/dc/elements/1.1/" xmlns:cc="http://creativecommons.org/ns#" xmlns:rdf="http://www.w3.org/1999/02/22-rdf-syntax-ns#">
   <cc:Work>
    <dc:type rdf:resource="http://purl.org/dc/dcmitype/StillImage"/>
    <dc:date>2024-06-13T22:30:52.607771</dc:date>
    <dc:format>image/svg+xml</dc:format>
    <dc:creator>
     <cc:Agent>
      <dc:title>Matplotlib v3.7.1, https://matplotlib.org/</dc:title>
     </cc:Agent>
    </dc:creator>
   </cc:Work>
  </rdf:RDF>
 </metadata>
 <defs>
  <style type="text/css">*{stroke-linejoin: round; stroke-linecap: butt}</style>
 </defs>
 <g id="figure_1">
  <g id="patch_1">
   <path d="M 0 277.138125 
L 568.218691 277.138125 
L 568.218691 0 
L 0 0 
z
" style="fill: #ffffff"/>
  </g>
  <g id="axes_1">
   <g id="patch_2">
    <path d="M 52 239.56 
L 282.30476 239.56 
L 282.30476 7.2 
L 52 7.2 
z
" style="fill: #ffffff"/>
   </g>
   <g id="matplotlib.axis_1">
    <g id="xtick_1">
     <g id="line2d_1">
      <defs>
       <path id="m741c56fff0" d="M 0 0 
L 0 3.5 
" style="stroke: #000000; stroke-width: 0.8"/>
      </defs>
      <g>
       <use xlink:href="#m741c56fff0" x="62.468398" y="239.56" style="stroke: #000000; stroke-width: 0.8"/>
      </g>
     </g>
     <g id="text_1">
      <!-- 0 -->
      <g transform="translate(59.287148 254.158438) scale(0.1 -0.1)">
       <defs>
        <path id="DejaVuSans-30" d="M 2034 4250 
Q 1547 4250 1301 3770 
Q 1056 3291 1056 2328 
Q 1056 1369 1301 889 
Q 1547 409 2034 409 
Q 2525 409 2770 889 
Q 3016 1369 3016 2328 
Q 3016 3291 2770 3770 
Q 2525 4250 2034 4250 
z
M 2034 4750 
Q 2819 4750 3233 4129 
Q 3647 3509 3647 2328 
Q 3647 1150 3233 529 
Q 2819 -91 2034 -91 
Q 1250 -91 836 529 
Q 422 1150 422 2328 
Q 422 3509 836 4129 
Q 1250 4750 2034 4750 
z
" transform="scale(0.015625)"/>
       </defs>
       <use xlink:href="#DejaVuSans-30"/>
      </g>
     </g>
    </g>
    <g id="xtick_2">
     <g id="line2d_2">
      <g>
       <use xlink:href="#m741c56fff0" x="114.941572" y="239.56" style="stroke: #000000; stroke-width: 0.8"/>
      </g>
     </g>
     <g id="text_2">
      <!-- 100 -->
      <g transform="translate(105.397822 254.158438) scale(0.1 -0.1)">
       <defs>
        <path id="DejaVuSans-31" d="M 794 531 
L 1825 531 
L 1825 4091 
L 703 3866 
L 703 4441 
L 1819 4666 
L 2450 4666 
L 2450 531 
L 3481 531 
L 3481 0 
L 794 0 
L 794 531 
z
" transform="scale(0.015625)"/>
       </defs>
       <use xlink:href="#DejaVuSans-31"/>
       <use xlink:href="#DejaVuSans-30" x="63.623047"/>
       <use xlink:href="#DejaVuSans-30" x="127.246094"/>
      </g>
     </g>
    </g>
    <g id="xtick_3">
     <g id="line2d_3">
      <g>
       <use xlink:href="#m741c56fff0" x="167.414746" y="239.56" style="stroke: #000000; stroke-width: 0.8"/>
      </g>
     </g>
     <g id="text_3">
      <!-- 200 -->
      <g transform="translate(157.870996 254.158438) scale(0.1 -0.1)">
       <defs>
        <path id="DejaVuSans-32" d="M 1228 531 
L 3431 531 
L 3431 0 
L 469 0 
L 469 531 
Q 828 903 1448 1529 
Q 2069 2156 2228 2338 
Q 2531 2678 2651 2914 
Q 2772 3150 2772 3378 
Q 2772 3750 2511 3984 
Q 2250 4219 1831 4219 
Q 1534 4219 1204 4116 
Q 875 4013 500 3803 
L 500 4441 
Q 881 4594 1212 4672 
Q 1544 4750 1819 4750 
Q 2544 4750 2975 4387 
Q 3406 4025 3406 3419 
Q 3406 3131 3298 2873 
Q 3191 2616 2906 2266 
Q 2828 2175 2409 1742 
Q 1991 1309 1228 531 
z
" transform="scale(0.015625)"/>
       </defs>
       <use xlink:href="#DejaVuSans-32"/>
       <use xlink:href="#DejaVuSans-30" x="63.623047"/>
       <use xlink:href="#DejaVuSans-30" x="127.246094"/>
      </g>
     </g>
    </g>
    <g id="xtick_4">
     <g id="line2d_4">
      <g>
       <use xlink:href="#m741c56fff0" x="219.887919" y="239.56" style="stroke: #000000; stroke-width: 0.8"/>
      </g>
     </g>
     <g id="text_4">
      <!-- 300 -->
      <g transform="translate(210.344169 254.158438) scale(0.1 -0.1)">
       <defs>
        <path id="DejaVuSans-33" d="M 2597 2516 
Q 3050 2419 3304 2112 
Q 3559 1806 3559 1356 
Q 3559 666 3084 287 
Q 2609 -91 1734 -91 
Q 1441 -91 1130 -33 
Q 819 25 488 141 
L 488 750 
Q 750 597 1062 519 
Q 1375 441 1716 441 
Q 2309 441 2620 675 
Q 2931 909 2931 1356 
Q 2931 1769 2642 2001 
Q 2353 2234 1838 2234 
L 1294 2234 
L 1294 2753 
L 1863 2753 
Q 2328 2753 2575 2939 
Q 2822 3125 2822 3475 
Q 2822 3834 2567 4026 
Q 2313 4219 1838 4219 
Q 1578 4219 1281 4162 
Q 984 4106 628 3988 
L 628 4550 
Q 988 4650 1302 4700 
Q 1616 4750 1894 4750 
Q 2613 4750 3031 4423 
Q 3450 4097 3450 3541 
Q 3450 3153 3228 2886 
Q 3006 2619 2597 2516 
z
" transform="scale(0.015625)"/>
       </defs>
       <use xlink:href="#DejaVuSans-33"/>
       <use xlink:href="#DejaVuSans-30" x="63.623047"/>
       <use xlink:href="#DejaVuSans-30" x="127.246094"/>
      </g>
     </g>
    </g>
    <g id="xtick_5">
     <g id="line2d_5">
      <g>
       <use xlink:href="#m741c56fff0" x="272.361093" y="239.56" style="stroke: #000000; stroke-width: 0.8"/>
      </g>
     </g>
     <g id="text_5">
      <!-- 400 -->
      <g transform="translate(262.817343 254.158438) scale(0.1 -0.1)">
       <defs>
        <path id="DejaVuSans-34" d="M 2419 4116 
L 825 1625 
L 2419 1625 
L 2419 4116 
z
M 2253 4666 
L 3047 4666 
L 3047 1625 
L 3713 1625 
L 3713 1100 
L 3047 1100 
L 3047 0 
L 2419 0 
L 2419 1100 
L 313 1100 
L 313 1709 
L 2253 4666 
z
" transform="scale(0.015625)"/>
       </defs>
       <use xlink:href="#DejaVuSans-34"/>
       <use xlink:href="#DejaVuSans-30" x="63.623047"/>
       <use xlink:href="#DejaVuSans-30" x="127.246094"/>
      </g>
     </g>
    </g>
    <g id="text_6">
     <!-- position ($t$) -->
     <g transform="translate(139.85238 267.838125) scale(0.1 -0.1)">
      <defs>
       <path id="DejaVuSans-70" d="M 1159 525 
L 1159 -1331 
L 581 -1331 
L 581 3500 
L 1159 3500 
L 1159 2969 
Q 1341 3281 1617 3432 
Q 1894 3584 2278 3584 
Q 2916 3584 3314 3078 
Q 3713 2572 3713 1747 
Q 3713 922 3314 415 
Q 2916 -91 2278 -91 
Q 1894 -91 1617 61 
Q 1341 213 1159 525 
z
M 3116 1747 
Q 3116 2381 2855 2742 
Q 2594 3103 2138 3103 
Q 1681 3103 1420 2742 
Q 1159 2381 1159 1747 
Q 1159 1113 1420 752 
Q 1681 391 2138 391 
Q 2594 391 2855 752 
Q 3116 1113 3116 1747 
z
" transform="scale(0.015625)"/>
       <path id="DejaVuSans-6f" d="M 1959 3097 
Q 1497 3097 1228 2736 
Q 959 2375 959 1747 
Q 959 1119 1226 758 
Q 1494 397 1959 397 
Q 2419 397 2687 759 
Q 2956 1122 2956 1747 
Q 2956 2369 2687 2733 
Q 2419 3097 1959 3097 
z
M 1959 3584 
Q 2709 3584 3137 3096 
Q 3566 2609 3566 1747 
Q 3566 888 3137 398 
Q 2709 -91 1959 -91 
Q 1206 -91 779 398 
Q 353 888 353 1747 
Q 353 2609 779 3096 
Q 1206 3584 1959 3584 
z
" transform="scale(0.015625)"/>
       <path id="DejaVuSans-73" d="M 2834 3397 
L 2834 2853 
Q 2591 2978 2328 3040 
Q 2066 3103 1784 3103 
Q 1356 3103 1142 2972 
Q 928 2841 928 2578 
Q 928 2378 1081 2264 
Q 1234 2150 1697 2047 
L 1894 2003 
Q 2506 1872 2764 1633 
Q 3022 1394 3022 966 
Q 3022 478 2636 193 
Q 2250 -91 1575 -91 
Q 1294 -91 989 -36 
Q 684 19 347 128 
L 347 722 
Q 666 556 975 473 
Q 1284 391 1588 391 
Q 1994 391 2212 530 
Q 2431 669 2431 922 
Q 2431 1156 2273 1281 
Q 2116 1406 1581 1522 
L 1381 1569 
Q 847 1681 609 1914 
Q 372 2147 372 2553 
Q 372 3047 722 3315 
Q 1072 3584 1716 3584 
Q 2034 3584 2315 3537 
Q 2597 3491 2834 3397 
z
" transform="scale(0.015625)"/>
       <path id="DejaVuSans-69" d="M 603 3500 
L 1178 3500 
L 1178 0 
L 603 0 
L 603 3500 
z
M 603 4863 
L 1178 4863 
L 1178 4134 
L 603 4134 
L 603 4863 
z
" transform="scale(0.015625)"/>
       <path id="DejaVuSans-74" d="M 1172 4494 
L 1172 3500 
L 2356 3500 
L 2356 3053 
L 1172 3053 
L 1172 1153 
Q 1172 725 1289 603 
Q 1406 481 1766 481 
L 2356 481 
L 2356 0 
L 1766 0 
Q 1100 0 847 248 
Q 594 497 594 1153 
L 594 3053 
L 172 3053 
L 172 3500 
L 594 3500 
L 594 4494 
L 1172 4494 
z
" transform="scale(0.015625)"/>
       <path id="DejaVuSans-6e" d="M 3513 2113 
L 3513 0 
L 2938 0 
L 2938 2094 
Q 2938 2591 2744 2837 
Q 2550 3084 2163 3084 
Q 1697 3084 1428 2787 
Q 1159 2491 1159 1978 
L 1159 0 
L 581 0 
L 581 3500 
L 1159 3500 
L 1159 2956 
Q 1366 3272 1645 3428 
Q 1925 3584 2291 3584 
Q 2894 3584 3203 3211 
Q 3513 2838 3513 2113 
z
" transform="scale(0.015625)"/>
       <path id="DejaVuSans-20" transform="scale(0.015625)"/>
       <path id="DejaVuSans-28" d="M 1984 4856 
Q 1566 4138 1362 3434 
Q 1159 2731 1159 2009 
Q 1159 1288 1364 580 
Q 1569 -128 1984 -844 
L 1484 -844 
Q 1016 -109 783 600 
Q 550 1309 550 2009 
Q 550 2706 781 3412 
Q 1013 4119 1484 4856 
L 1984 4856 
z
" transform="scale(0.015625)"/>
       <path id="DejaVuSans-Oblique-74" d="M 2706 3500 
L 2619 3053 
L 1472 3053 
L 1100 1153 
Q 1081 1047 1072 975 
Q 1063 903 1063 863 
Q 1063 663 1183 572 
Q 1303 481 1569 481 
L 2150 481 
L 2053 0 
L 1503 0 
Q 991 0 739 200 
Q 488 400 488 806 
Q 488 878 497 964 
Q 506 1050 525 1153 
L 897 3053 
L 409 3053 
L 500 3500 
L 978 3500 
L 1172 4494 
L 1747 4494 
L 1556 3500 
L 2706 3500 
z
" transform="scale(0.015625)"/>
       <path id="DejaVuSans-29" d="M 513 4856 
L 1013 4856 
Q 1481 4119 1714 3412 
Q 1947 2706 1947 2009 
Q 1947 1309 1714 600 
Q 1481 -109 1013 -844 
L 513 -844 
Q 928 -128 1133 580 
Q 1338 1288 1338 2009 
Q 1338 2731 1133 3434 
Q 928 4138 513 4856 
z
" transform="scale(0.015625)"/>
      </defs>
      <use xlink:href="#DejaVuSans-70" transform="translate(0 0.015625)"/>
      <use xlink:href="#DejaVuSans-6f" transform="translate(63.476562 0.015625)"/>
      <use xlink:href="#DejaVuSans-73" transform="translate(124.658203 0.015625)"/>
      <use xlink:href="#DejaVuSans-69" transform="translate(176.757812 0.015625)"/>
      <use xlink:href="#DejaVuSans-74" transform="translate(204.541016 0.015625)"/>
      <use xlink:href="#DejaVuSans-69" transform="translate(243.75 0.015625)"/>
      <use xlink:href="#DejaVuSans-6f" transform="translate(271.533203 0.015625)"/>
      <use xlink:href="#DejaVuSans-6e" transform="translate(332.714844 0.015625)"/>
      <use xlink:href="#DejaVuSans-20" transform="translate(396.09375 0.015625)"/>
      <use xlink:href="#DejaVuSans-28" transform="translate(427.880859 0.015625)"/>
      <use xlink:href="#DejaVuSans-Oblique-74" transform="translate(466.894531 0.015625)"/>
      <use xlink:href="#DejaVuSans-29" transform="translate(506.103516 0.015625)"/>
     </g>
    </g>
   </g>
   <g id="matplotlib.axis_2">
    <g id="ytick_1">
     <g id="line2d_6">
      <defs>
       <path id="mcfa84886ed" d="M 0 0 
L -3.5 0 
" style="stroke: #000000; stroke-width: 0.8"/>
      </defs>
      <g>
       <use xlink:href="#mcfa84886ed" x="52" y="228.998182" style="stroke: #000000; stroke-width: 0.8"/>
      </g>
     </g>
     <g id="text_7">
      <!-- $d=$240 -->
      <g transform="translate(7.2 232.797401) scale(0.1 -0.1)">
       <defs>
        <path id="DejaVuSans-Oblique-64" d="M 2675 525 
Q 2444 222 2128 65 
Q 1813 -91 1428 -91 
Q 903 -91 598 267 
Q 294 625 294 1247 
Q 294 1766 478 2236 
Q 663 2706 1013 3078 
Q 1244 3325 1534 3454 
Q 1825 3584 2144 3584 
Q 2481 3584 2739 3421 
Q 2997 3259 3138 2956 
L 3513 4863 
L 4091 4863 
L 3144 0 
L 2566 0 
L 2675 525 
z
M 891 1350 
Q 891 897 1095 644 
Q 1300 391 1663 391 
Q 1931 391 2161 520 
Q 2391 650 2566 903 
Q 2750 1166 2856 1509 
Q 2963 1853 2963 2188 
Q 2963 2622 2758 2865 
Q 2553 3109 2194 3109 
Q 1922 3109 1687 2981 
Q 1453 2853 1288 2613 
Q 1106 2353 998 2009 
Q 891 1666 891 1350 
z
" transform="scale(0.015625)"/>
        <path id="DejaVuSans-3d" d="M 678 2906 
L 4684 2906 
L 4684 2381 
L 678 2381 
L 678 2906 
z
M 678 1631 
L 4684 1631 
L 4684 1100 
L 678 1100 
L 678 1631 
z
" transform="scale(0.015625)"/>
       </defs>
       <use xlink:href="#DejaVuSans-Oblique-64" transform="translate(0 0.015625)"/>
       <use xlink:href="#DejaVuSans-3d" transform="translate(82.958984 0.015625)"/>
       <use xlink:href="#DejaVuSans-32" transform="translate(186.230469 0.015625)"/>
       <use xlink:href="#DejaVuSans-34" transform="translate(249.853516 0.015625)"/>
       <use xlink:href="#DejaVuSans-30" transform="translate(313.476562 0.015625)"/>
      </g>
     </g>
    </g>
    <g id="ytick_2">
     <g id="line2d_7">
      <g>
       <use xlink:href="#mcfa84886ed" x="52" y="189.391352" style="stroke: #000000; stroke-width: 0.8"/>
      </g>
     </g>
     <g id="text_8">
      <!-- $d=$150 -->
      <g transform="translate(7.2 193.190571) scale(0.1 -0.1)">
       <defs>
        <path id="DejaVuSans-35" d="M 691 4666 
L 3169 4666 
L 3169 4134 
L 1269 4134 
L 1269 2991 
Q 1406 3038 1543 3061 
Q 1681 3084 1819 3084 
Q 2600 3084 3056 2656 
Q 3513 2228 3513 1497 
Q 3513 744 3044 326 
Q 2575 -91 1722 -91 
Q 1428 -91 1123 -41 
Q 819 9 494 109 
L 494 744 
Q 775 591 1075 516 
Q 1375 441 1709 441 
Q 2250 441 2565 725 
Q 2881 1009 2881 1497 
Q 2881 1984 2565 2268 
Q 2250 2553 1709 2553 
Q 1456 2553 1204 2497 
Q 953 2441 691 2322 
L 691 4666 
z
" transform="scale(0.015625)"/>
       </defs>
       <use xlink:href="#DejaVuSans-Oblique-64" transform="translate(0 0.015625)"/>
       <use xlink:href="#DejaVuSans-3d" transform="translate(82.958984 0.015625)"/>
       <use xlink:href="#DejaVuSans-31" transform="translate(186.230469 0.015625)"/>
       <use xlink:href="#DejaVuSans-35" transform="translate(249.853516 0.015625)"/>
       <use xlink:href="#DejaVuSans-30" transform="translate(313.476562 0.015625)"/>
      </g>
     </g>
    </g>
    <g id="ytick_3">
     <g id="line2d_8">
      <g>
       <use xlink:href="#mcfa84886ed" x="52" y="149.784522" style="stroke: #000000; stroke-width: 0.8"/>
      </g>
     </g>
     <g id="text_9">
      <!-- $d=$120 -->
      <g transform="translate(7.2 153.583741) scale(0.1 -0.1)">
       <use xlink:href="#DejaVuSans-Oblique-64" transform="translate(0 0.015625)"/>
       <use xlink:href="#DejaVuSans-3d" transform="translate(82.958984 0.015625)"/>
       <use xlink:href="#DejaVuSans-31" transform="translate(186.230469 0.015625)"/>
       <use xlink:href="#DejaVuSans-32" transform="translate(249.853516 0.015625)"/>
       <use xlink:href="#DejaVuSans-30" transform="translate(313.476562 0.015625)"/>
      </g>
     </g>
    </g>
    <g id="ytick_4">
     <g id="line2d_9">
      <g>
       <use xlink:href="#mcfa84886ed" x="52" y="110.177692" style="stroke: #000000; stroke-width: 0.8"/>
      </g>
     </g>
     <g id="text_10">
      <!-- $d=$90 -->
      <g transform="translate(13.6 113.976911) scale(0.1 -0.1)">
       <defs>
        <path id="DejaVuSans-39" d="M 703 97 
L 703 672 
Q 941 559 1184 500 
Q 1428 441 1663 441 
Q 2288 441 2617 861 
Q 2947 1281 2994 2138 
Q 2813 1869 2534 1725 
Q 2256 1581 1919 1581 
Q 1219 1581 811 2004 
Q 403 2428 403 3163 
Q 403 3881 828 4315 
Q 1253 4750 1959 4750 
Q 2769 4750 3195 4129 
Q 3622 3509 3622 2328 
Q 3622 1225 3098 567 
Q 2575 -91 1691 -91 
Q 1453 -91 1209 -44 
Q 966 3 703 97 
z
M 1959 2075 
Q 2384 2075 2632 2365 
Q 2881 2656 2881 3163 
Q 2881 3666 2632 3958 
Q 2384 4250 1959 4250 
Q 1534 4250 1286 3958 
Q 1038 3666 1038 3163 
Q 1038 2656 1286 2365 
Q 1534 2075 1959 2075 
z
" transform="scale(0.015625)"/>
       </defs>
       <use xlink:href="#DejaVuSans-Oblique-64" transform="translate(0 0.015625)"/>
       <use xlink:href="#DejaVuSans-3d" transform="translate(82.958984 0.015625)"/>
       <use xlink:href="#DejaVuSans-39" transform="translate(186.230469 0.015625)"/>
       <use xlink:href="#DejaVuSans-30" transform="translate(249.853516 0.015625)"/>
      </g>
     </g>
    </g>
    <g id="ytick_5">
     <g id="line2d_10">
      <g>
       <use xlink:href="#mcfa84886ed" x="52" y="70.570862" style="stroke: #000000; stroke-width: 0.8"/>
      </g>
     </g>
     <g id="text_11">
      <!-- $d=$50 -->
      <g transform="translate(13.6 74.370081) scale(0.1 -0.1)">
       <use xlink:href="#DejaVuSans-Oblique-64" transform="translate(0 0.015625)"/>
       <use xlink:href="#DejaVuSans-3d" transform="translate(82.958984 0.015625)"/>
       <use xlink:href="#DejaVuSans-35" transform="translate(186.230469 0.015625)"/>
       <use xlink:href="#DejaVuSans-30" transform="translate(249.853516 0.015625)"/>
      </g>
     </g>
    </g>
    <g id="ytick_6">
     <g id="line2d_11">
      <g>
       <use xlink:href="#mcfa84886ed" x="52" y="30.964032" style="stroke: #000000; stroke-width: 0.8"/>
      </g>
     </g>
     <g id="text_12">
      <!-- $d=$30 -->
      <g transform="translate(13.6 34.763251) scale(0.1 -0.1)">
       <use xlink:href="#DejaVuSans-Oblique-64" transform="translate(0 0.015625)"/>
       <use xlink:href="#DejaVuSans-3d" transform="translate(82.958984 0.015625)"/>
       <use xlink:href="#DejaVuSans-33" transform="translate(186.230469 0.015625)"/>
       <use xlink:href="#DejaVuSans-30" transform="translate(249.853516 0.015625)"/>
      </g>
     </g>
    </g>
   </g>
   <g id="line2d_12">
    <path d="M 62.468398 228.998182 
L 271.836361 228.062222 
L 271.836361 228.062222 
" clip-path="url(#pe18b6ee0a5)" style="fill: none; stroke: #000000; stroke-width: 2; stroke-linecap: square"/>
   </g>
   <g id="line2d_13">
    <path d="M 52 228.998182 
L 282.30476 228.998182 
" clip-path="url(#pe18b6ee0a5)" style="fill: none; stroke-dasharray: 0.5,0.825; stroke-dashoffset: 0; stroke: #000000; stroke-opacity: 0.5; stroke-width: 0.5"/>
   </g>
   <g id="line2d_14">
    <path d="M 62.468398 189.391352 
L 104.971669 184.653435 
L 128.059865 182.306505 
L 147.999671 180.502403 
L 165.84055 179.109655 
L 182.631966 178.020835 
L 198.373918 177.216474 
L 214.11587 176.636777 
L 229.333091 176.300056 
L 244.550311 176.189094 
L 259.767531 176.30581 
L 271.836361 176.559071 
L 271.836361 176.559071 
" clip-path="url(#pe18b6ee0a5)" style="fill: none; stroke: #000000; stroke-width: 2; stroke-linecap: square"/>
   </g>
   <g id="line2d_15">
    <path d="M 52 189.391352 
L 282.30476 189.391352 
" clip-path="url(#pe18b6ee0a5)" style="fill: none; stroke-dasharray: 0.5,0.825; stroke-dashoffset: 0; stroke: #000000; stroke-opacity: 0.5; stroke-width: 0.5"/>
   </g>
   <g id="line2d_16">
    <path d="M 62.468398 149.784522 
L 77.160887 144.968722 
L 85.031863 142.622242 
L 91.853375 140.81657 
L 98.150156 139.387302 
L 103.922205 138.309755 
L 109.169523 137.54353 
L 114.41684 136.994665 
L 119.664158 136.672904 
L 124.911475 136.583958 
L 130.158792 136.729405 
L 135.40611 137.106659 
L 140.653427 137.709035 
L 145.900744 138.525829 
L 151.672794 139.654533 
L 157.969574 141.13303 
L 164.791087 142.982877 
L 172.662063 145.366833 
L 183.156698 148.801952 
L 200.997577 154.668078 
L 208.868553 157.007891 
L 215.690065 158.805801 
L 221.986846 160.226476 
L 227.758895 161.295141 
L 233.006213 162.052608 
L 238.25353 162.592245 
L 243.500848 162.904462 
L 248.748165 162.983714 
L 253.995482 162.828597 
L 259.2428 162.441862 
L 264.490117 161.830377 
L 269.737434 161.005002 
L 271.836361 160.618122 
L 271.836361 160.618122 
" clip-path="url(#pe18b6ee0a5)" style="fill: none; stroke: #000000; stroke-width: 2; stroke-linecap: square"/>
   </g>
   <g id="line2d_17">
    <path d="M 52 149.784522 
L 282.30476 149.784522 
" clip-path="url(#pe18b6ee0a5)" style="fill: none; stroke-dasharray: 0.5,0.825; stroke-dashoffset: 0; stroke: #000000; stroke-opacity: 0.5; stroke-width: 0.5"/>
   </g>
   <g id="line2d_18">
    <path d="M 62.468398 110.177692 
L 67.715716 105.12882 
L 70.864106 102.422379 
L 73.487765 100.488238 
L 75.586692 99.205538 
L 77.685619 98.192631 
L 79.784545 97.474409 
L 81.358741 97.140051 
L 82.932936 96.986168 
L 84.507131 97.0149 
L 86.081326 97.225856 
L 87.655522 97.616104 
L 89.754449 98.405653 
L 91.853375 99.484661 
L 93.952302 100.826587 
L 96.575961 102.822926 
L 99.19962 105.101485 
L 102.872742 108.597651 
L 110.218986 115.674364 
L 112.842645 117.909044 
L 115.466304 119.847026 
L 117.565231 121.133365 
L 119.664158 122.150313 
L 121.763084 122.872879 
L 123.33728 123.210649 
L 124.911475 123.367982 
L 126.48567 123.342738 
L 128.059865 123.135231 
L 129.634061 122.748357 
L 131.732987 121.96309 
L 133.831914 120.888048 
L 135.930841 119.549659 
L 138.5545 117.557009 
L 141.178159 115.281195 
L 144.851281 111.787107 
L 152.197525 104.707939 
L 154.821184 102.47035 
L 157.444843 100.528528 
L 159.54377 99.238563 
L 161.642697 98.217573 
L 163.741623 97.490651 
L 165.315819 97.149494 
L 166.890014 96.988686 
L 168.464209 97.010468 
L 170.038404 97.214512 
L 171.6126 97.598024 
L 173.711526 98.378986 
L 175.810453 99.450061 
L 177.90938 100.784912 
L 180.533039 102.773848 
L 183.156698 105.046905 
L 186.82982 108.538915 
L 194.176064 115.620501 
L 196.799723 117.860986 
L 199.423382 119.806635 
L 201.522309 121.100226 
L 203.621236 122.125245 
L 205.720162 122.856511 
L 207.294358 123.201068 
L 208.868553 123.365338 
L 210.442748 123.347044 
L 212.016943 123.146449 
L 213.591139 122.766312 
L 215.690065 121.989644 
L 217.788992 120.922546 
L 219.887919 119.591246 
L 222.511578 117.606025 
L 225.135237 115.335725 
L 228.808359 111.845843 
L 236.154603 104.761852 
L 238.778262 102.518484 
L 241.401921 100.56902 
L 243.500848 99.271815 
L 245.599775 98.242754 
L 247.698701 97.507157 
L 249.272897 97.159201 
L 250.847092 96.991468 
L 252.421287 97.006288 
L 253.995482 97.203432 
L 255.569678 97.580183 
L 257.668604 98.352545 
L 259.767531 99.415676 
L 261.866458 100.743413 
L 264.490117 102.72492 
L 267.113776 104.992425 
L 270.786898 108.480205 
L 271.836361 109.511935 
L 271.836361 109.511935 
" clip-path="url(#pe18b6ee0a5)" style="fill: none; stroke: #000000; stroke-width: 2; stroke-linecap: square"/>
   </g>
   <g id="line2d_19">
    <path d="M 52 110.177692 
L 282.30476 110.177692 
" clip-path="url(#pe18b6ee0a5)" style="fill: none; stroke-dasharray: 0.5,0.825; stroke-dashoffset: 0; stroke: #000000; stroke-opacity: 0.5; stroke-width: 0.5"/>
   </g>
   <g id="line2d_20">
    <path d="M 62.468398 70.570862 
L 64.042593 64.282577 
L 65.092057 60.851606 
L 66.14152 58.47557 
L 66.666252 57.769082 
L 67.190984 57.412363 
L 67.715716 57.415158 
L 68.240447 57.777392 
L 68.765179 58.489155 
L 69.289911 59.531021 
L 70.339374 62.482929 
L 71.388838 66.312697 
L 74.537228 78.712116 
L 75.586692 81.647619 
L 76.111423 82.679651 
L 76.636155 83.380864 
L 77.160887 83.732068 
L 77.685619 83.723682 
L 78.21035 83.355947 
L 78.735082 82.638895 
L 79.259814 81.592132 
L 80.309277 78.632065 
L 81.358741 74.797022 
L 84.507131 62.403041 
L 85.556595 59.475748 
L 86.081326 58.448638 
L 86.606058 57.752727 
L 87.13079 57.407037 
L 87.655522 57.421 
L 88.180253 57.794251 
L 88.704985 58.516565 
L 89.229717 59.568226 
L 90.27918 62.536452 
L 91.328644 66.376733 
L 94.477034 78.765211 
L 95.526498 81.684258 
L 96.051229 82.706432 
L 96.575961 83.397043 
L 97.100693 83.737217 
L 97.625425 83.717664 
L 98.150156 83.338924 
L 98.674888 82.611334 
L 99.19962 81.554775 
L 100.249083 78.578429 
L 101.298547 74.732948 
L 104.446937 62.350047 
L 105.496401 59.43926 
L 106.021132 58.422022 
L 106.545864 57.736711 
L 107.070596 57.402051 
L 107.595328 57.427195 
L 108.120059 57.811437 
L 108.644791 58.54429 
L 109.169523 59.605734 
L 110.218986 62.590189 
L 111.26845 66.44087 
L 114.41684 78.818092 
L 115.466304 81.720595 
L 115.991035 82.732885 
L 116.515767 83.412894 
L 117.040499 83.742027 
L 117.565231 83.711306 
L 118.089962 83.321574 
L 118.614694 82.583446 
L 119.139426 81.517129 
L 120.188889 78.524591 
L 121.238353 74.668735 
L 124.386743 62.297267 
L 125.436207 59.403074 
L 125.960938 58.39572 
L 126.48567 57.721036 
L 127.010402 57.397418 
L 127.535134 57.433729 
L 128.059865 57.828963 
L 128.584597 58.572329 
L 129.109329 59.643518 
L 130.158792 62.644127 
L 131.208256 66.50512 
L 134.356646 78.870771 
L 135.40611 81.756642 
L 135.930841 82.759023 
L 136.455573 83.428406 
L 136.980305 83.746497 
L 137.505037 83.704608 
L 138.029768 83.303872 
L 138.5545 82.555255 
L 139.079232 81.479206 
L 140.128695 78.470552 
L 141.178159 74.604435 
L 144.326549 62.244701 
L 145.376013 59.367178 
L 145.900744 58.369758 
L 146.425476 57.705688 
L 146.950208 57.393124 
L 147.47494 57.440604 
L 147.999671 57.846817 
L 148.524403 58.600683 
L 149.049135 59.681592 
L 150.098598 62.698292 
L 151.148062 66.569471 
L 154.296452 78.923212 
L 155.345916 81.792387 
L 155.870647 82.784846 
L 156.395379 83.443578 
L 156.920111 83.750614 
L 157.444843 83.697557 
L 157.969574 83.285842 
L 158.494306 82.52675 
L 159.019038 81.440994 
L 160.068501 78.416286 
L 161.117965 74.540034 
L 164.266355 62.192361 
L 165.315819 59.331559 
L 165.84055 58.344098 
L 166.365282 57.69068 
L 166.890014 57.389184 
L 167.414746 57.447831 
L 167.939477 57.86501 
L 168.464209 58.629352 
L 168.988941 59.719944 
L 170.038404 62.752634 
L 171.087868 66.633922 
L 174.236258 78.975425 
L 175.285722 81.827867 
L 175.810453 82.810342 
L 176.335185 83.458422 
L 176.859917 83.754391 
L 177.384649 83.690153 
L 177.90938 83.267485 
L 178.434112 82.497917 
L 178.958844 81.402491 
L 180.008307 78.361819 
L 181.057771 74.475519 
L 184.206161 62.140249 
L 185.255625 59.296255 
L 185.780356 58.318765 
L 186.305088 57.676012 
L 186.82982 57.385583 
L 187.354552 57.455385 
L 187.879283 57.883531 
L 188.404015 58.658323 
L 188.928747 59.758572 
L 189.97821 62.807227 
L 191.027674 66.698513 
L 194.176064 79.027462 
L 195.225528 81.86302 
L 195.750259 82.835511 
L 196.274991 83.472914 
L 196.799723 83.757816 
L 197.324455 83.682423 
L 197.849186 83.2488 
L 198.373918 82.468795 
L 198.89865 81.363712 
L 199.948113 78.307163 
L 200.997577 74.410916 
L 203.621236 63.870736 
L 204.670699 60.537708 
L 205.195431 59.261228 
L 205.720162 58.293735 
L 206.244894 57.661683 
L 206.769626 57.382322 
L 207.294358 57.463305 
L 207.819089 57.902405 
L 208.343821 58.687622 
L 208.868553 59.797515 
L 209.918016 62.861984 
L 210.96748 66.763166 
L 213.591139 77.300098 
L 214.640602 80.625924 
L 215.165334 81.897884 
L 215.690065 82.860365 
L 216.214797 83.487078 
L 216.739529 83.7609 
L 217.264261 83.67434 
L 217.788992 83.229775 
L 218.313724 82.439346 
L 218.838456 81.324656 
L 219.887919 78.252267 
L 220.937383 74.346175 
L 223.561042 63.812554 
L 224.610505 60.493917 
L 225.135237 59.226515 
L 225.659968 58.269045 
L 226.1847 57.647695 
L 226.709432 57.379413 
L 227.234164 57.471552 
L 227.758895 57.921593 
L 228.283627 58.717222 
L 228.808359 59.836722 
L 229.857822 62.916929 
L 230.907286 66.827919 
L 233.530945 77.358153 
L 234.580408 80.669613 
L 235.10514 81.93247 
L 235.629872 82.884904 
L 236.154603 83.500903 
L 236.679335 83.763633 
L 237.204067 83.665916 
L 237.728798 83.210411 
L 238.25353 82.409581 
L 238.778262 81.285285 
L 239.827725 78.197208 
L 240.877189 74.281371 
L 243.500848 63.754599 
L 244.550311 60.450404 
L 245.075043 59.192092 
L 245.599775 58.244682 
L 246.124506 57.634034 
L 246.649238 57.376845 
L 247.17397 57.480151 
L 247.698701 57.941108 
L 248.223433 58.747125 
L 248.748165 59.876194 
L 249.797628 62.972127 
L 251.371824 69.031728 
L 253.470751 77.416058 
L 254.520214 80.713001 
L 255.044946 81.96673 
L 255.569678 82.909116 
L 256.094409 83.514388 
L 256.619141 83.766025 
L 257.143873 83.657153 
L 257.668604 83.190732 
L 258.193336 82.379515 
L 258.718068 81.245662 
L 259.767531 78.14196 
L 261.341727 72.076454 
L 263.440654 63.696821 
L 264.490117 60.407105 
L 265.014849 59.157959 
L 265.539581 58.220621 
L 266.064312 57.620713 
L 266.589044 57.374629 
L 267.113776 57.489091 
L 267.638507 57.960964 
L 268.163239 58.777368 
L 268.687971 59.91598 
L 269.737434 63.027488 
L 271.31163 69.098861 
L 271.836361 71.280183 
L 271.836361 71.280183 
" clip-path="url(#pe18b6ee0a5)" style="fill: none; stroke: #000000; stroke-width: 2; stroke-linecap: square"/>
   </g>
   <g id="line2d_21">
    <path d="M 52 70.570862 
L 282.30476 70.570862 
" clip-path="url(#pe18b6ee0a5)" style="fill: none; stroke-dasharray: 0.5,0.825; stroke-dashoffset: 0; stroke: #000000; stroke-opacity: 0.5; stroke-width: 0.5"/>
   </g>
   <g id="line2d_22">
    <path d="M 62.468398 30.964032 
L 63.517862 22.666212 
L 64.042593 19.717981 
L 64.567325 18.055974 
L 65.092057 17.870287 
L 65.616789 19.182134 
L 66.14152 21.841498 
L 67.190984 29.866805 
L 68.240447 38.379724 
L 68.765179 41.596414 
L 69.289911 43.597084 
L 69.814642 44.152887 
L 70.339374 43.200264 
L 70.864106 40.848163 
L 71.913569 33.150906 
L 72.963033 24.481775 
L 73.487765 21.018874 
L 74.012496 18.693402 
L 74.537228 17.771337 
L 75.06196 18.358138 
L 75.586692 20.386684 
L 76.111423 23.624979 
L 78.21035 40.153158 
L 78.735082 42.78734 
L 79.259814 44.069285 
L 79.784545 43.852373 
L 80.309277 42.161395 
L 80.834009 39.18977 
L 81.883472 30.871616 
L 82.932936 22.594534 
L 83.457668 19.669846 
L 83.982399 18.036887 
L 84.507131 17.882424 
L 85.031863 19.224124 
L 85.556595 21.908531 
L 86.606058 29.958931 
L 87.655522 38.455998 
L 88.180253 41.650944 
L 88.704985 43.623613 
L 89.229717 44.148392 
L 89.754449 43.165262 
L 90.27918 40.786657 
L 91.328644 33.059712 
L 92.378107 24.401434 
L 92.902839 20.958338 
L 93.427571 18.659596 
L 93.952302 17.768139 
L 94.477034 18.385913 
L 95.001766 20.442259 
L 95.526498 23.701984 
L 97.625425 40.219284 
L 98.150156 42.828172 
L 98.674888 44.080151 
L 99.19962 43.832014 
L 99.724352 42.112166 
L 100.249083 39.117273 
L 101.298547 30.779201 
L 102.34801 22.523258 
L 102.872742 19.622266 
L 103.397474 18.018441 
L 103.922205 17.895216 
L 104.446937 19.266693 
L 104.971669 21.976004 
L 106.021132 30.051107 
L 107.070596 38.53192 
L 107.595328 41.704958 
L 108.120059 43.649537 
L 108.644791 44.143255 
L 109.169523 43.129656 
L 109.694255 40.724661 
L 110.743718 32.968404 
L 111.793181 24.321395 
L 112.317913 20.898293 
L 112.842645 18.626407 
L 113.367377 17.765595 
L 113.892108 18.414292 
L 114.41684 20.498325 
L 114.941572 23.779341 
L 117.040499 40.284957 
L 117.565231 42.868424 
L 118.089962 44.090374 
L 118.614694 43.811038 
L 119.139426 42.062382 
L 119.664158 39.044398 
L 120.713621 30.68681 
L 121.763084 22.45241 
L 122.287816 19.57524 
L 122.812548 18.000625 
L 123.33728 17.908638 
L 123.862011 19.309816 
L 124.386743 22.043906 
L 125.436207 30.143322 
L 126.48567 38.607451 
L 127.010402 41.758418 
L 127.535134 43.674819 
L 128.059865 44.137476 
L 128.584597 43.09347 
L 129.109329 40.662199 
L 130.158792 32.877008 
L 131.208256 24.241696 
L 131.732987 20.838727 
L 132.257719 18.59381 
L 132.782451 17.763682 
L 133.307183 18.443301 
L 133.831914 20.554933 
L 134.356646 23.857063 
L 136.455573 40.350189 
L 136.980305 42.908098 
L 137.505037 44.099943 
L 138.029768 43.789432 
L 138.5545 42.012057 
L 139.079232 38.971095 
L 140.128695 30.594395 
L 141.178159 22.381965 
L 141.702891 19.528768 
L 142.227622 17.983439 
L 142.752354 17.922714 
L 143.277086 19.353531 
L 143.801817 22.112273 
L 144.851281 30.235586 
L 145.900744 38.68263 
L 146.425476 41.811374 
L 146.950208 43.699497 
L 147.47494 44.131042 
L 147.999671 43.056667 
L 148.524403 40.599245 
L 149.573867 32.785512 
L 150.62333 24.162312 
L 151.148062 20.779664 
L 151.672794 18.561817 
L 152.197525 17.762435 
L 152.722257 18.472927 
L 153.246989 20.612044 
L 153.77172 23.935125 
L 155.870647 40.414956 
L 156.395379 42.947179 
L 156.920111 44.108882 
L 157.444843 43.767184 
L 157.969574 41.961178 
L 158.494306 38.897414 
L 159.54377 30.502017 
L 160.593233 22.311936 
L 161.117965 19.48285 
L 161.642697 17.966895 
L 162.167428 17.937408 
L 162.69216 19.3978 
L 163.216892 22.181031 
L 164.266355 30.32785 
L 165.315819 38.757394 
L 165.84055 41.863764 
L 166.365282 43.723532 
L 166.890014 44.123979 
L 167.414746 43.019298 
L 167.939477 40.535851 
L 168.988941 32.693965 
L 170.038404 24.083293 
L 170.563136 20.72113 
L 171.087868 18.530454 
L 171.6126 17.761818 
L 172.137331 18.503144 
L 172.662063 20.669634 
L 173.186795 24.013502 
L 175.285722 40.479231 
L 175.810453 42.985669 
L 176.335185 44.117167 
L 176.859917 43.744332 
L 177.384649 41.909796 
L 177.90938 38.823381 
L 180.533039 19.437523 
L 181.057771 17.95098 
L 181.582503 17.952756 
L 182.107234 19.442648 
L 182.631966 22.250254 
L 183.68143 30.42019 
L 184.730893 38.831804 
L 185.255625 41.915663 
L 185.780356 43.746964 
L 186.305088 44.116261 
L 186.82982 42.981325 
L 187.354552 40.471954 
L 188.404015 32.602292 
L 189.453479 24.004576 
L 189.97821 20.663062 
L 190.502942 18.499669 
L 191.027674 17.761856 
L 191.552406 18.533979 
L 192.077137 20.727752 
L 192.601869 24.092257 
L 194.700796 40.543078 
L 195.225528 43.023579 
L 195.750259 44.12481 
L 196.274991 43.720838 
L 196.799723 41.857847 
L 197.324455 38.74892 
L 199.948113 19.392738 
L 200.472845 17.935708 
L 200.997577 17.968746 
L 201.522309 19.488062 
L 202.04704 22.319906 
L 203.096504 30.512556 
L 204.145967 38.905838 
L 204.670699 41.967008 
L 205.195431 43.769753 
L 205.720162 44.1079 
L 206.244894 42.942747 
L 206.769626 40.40759 
L 207.819089 32.510532 
L 208.868553 23.926199 
L 209.393285 20.605497 
L 209.918016 18.469515 
L 210.442748 17.762536 
L 210.96748 18.565443 
L 211.492212 20.786375 
L 212.016943 24.171352 
L 214.11587 40.606447 
L 214.640602 43.060898 
L 215.165334 44.13181 
L 215.690065 43.696714 
L 216.214797 41.805356 
L 216.739529 38.674068 
L 219.363188 19.34852 
L 219.887919 17.921078 
L 220.412651 17.985366 
L 220.937383 19.534043 
L 221.462115 22.389986 
L 222.511578 30.604946 
L 223.561042 38.97948 
L 224.085773 42.017824 
L 224.610505 43.791925 
L 225.135237 44.098886 
L 225.659968 42.903603 
L 226.1847 40.342773 
L 227.234164 32.418695 
L 228.283627 23.848174 
L 228.808359 20.548449 
L 229.333091 18.439964 
L 229.857822 17.76387 
L 230.382554 18.597499 
L 230.907286 20.8455 
L 231.432018 24.250774 
L 233.530945 40.66935 
L 234.055676 43.097625 
L 234.580408 44.138168 
L 235.10514 43.671961 
L 235.629872 41.752349 
L 236.154603 38.598852 
L 238.778262 19.304868 
L 239.302994 17.907077 
L 239.827725 18.002627 
L 240.352457 19.580579 
L 240.877189 22.460481 
L 241.926652 30.697349 
L 242.976116 39.052733 
L 243.500848 42.068098 
L 244.025579 43.813468 
L 244.550311 44.089241 
L 245.075043 42.863854 
L 245.599775 40.277478 
L 246.649238 32.326796 
L 247.698701 23.77049 
L 248.223433 20.491904 
L 248.748165 18.411018 
L 249.272897 17.765847 
L 249.797628 18.630172 
L 250.32236 20.905117 
L 250.847092 24.330536 
L 252.946019 40.731775 
L 253.470751 43.13376 
L 253.995482 44.143872 
L 254.520214 43.646603 
L 255.044946 41.698801 
L 255.569678 38.523257 
L 257.668604 21.968261 
L 258.193336 19.261795 
L 258.718068 17.893718 
L 259.2428 18.020519 
L 259.767531 19.62768 
L 260.292263 22.531391 
L 261.341727 30.789764 
L 262.39119 39.125583 
L 262.915922 42.117768 
L 263.440654 43.834381 
L 263.965385 44.078954 
L 264.490117 42.823539 
L 265.014849 40.211818 
L 266.064312 32.234922 
L 267.113776 23.693246 
L 267.638507 20.435876 
L 268.163239 18.382727 
L 268.687971 17.768479 
L 269.212703 18.663398 
L 269.737434 20.965238 
L 270.262166 24.410524 
L 271.836361 37.293917 
L 271.836361 37.293917 
" clip-path="url(#pe18b6ee0a5)" style="fill: none; stroke: #000000; stroke-width: 2; stroke-linecap: square"/>
   </g>
   <g id="line2d_23">
    <path d="M 52 30.964032 
L 282.30476 30.964032 
" clip-path="url(#pe18b6ee0a5)" style="fill: none; stroke-dasharray: 0.5,0.825; stroke-dashoffset: 0; stroke: #000000; stroke-opacity: 0.5; stroke-width: 0.5"/>
   </g>
   <g id="patch_3">
    <path d="M 52 239.56 
L 52 7.2 
" style="fill: none; stroke: #000000; stroke-width: 0.8; stroke-linejoin: miter; stroke-linecap: square"/>
   </g>
   <g id="patch_4">
    <path d="M 282.30476 239.56 
L 282.30476 7.2 
" style="fill: none; stroke: #000000; stroke-width: 0.8; stroke-linejoin: miter; stroke-linecap: square"/>
   </g>
   <g id="patch_5">
    <path d="M 52 239.56 
L 282.30476 239.56 
" style="fill: none; stroke: #000000; stroke-width: 0.8; stroke-linejoin: miter; stroke-linecap: square"/>
   </g>
   <g id="patch_6">
    <path d="M 52 7.2 
L 282.30476 7.2 
" style="fill: none; stroke: #000000; stroke-width: 0.8; stroke-linejoin: miter; stroke-linecap: square"/>
   </g>
  </g>
  <g id="axes_2">
   <g id="patch_7">
    <path d="M 330.713932 239.56 
L 561.018691 239.56 
L 561.018691 7.2 
L 330.713932 7.2 
z
" style="fill: #ffffff"/>
   </g>
   <g id="matplotlib.axis_3">
    <g id="xtick_6">
     <g id="line2d_24">
      <g>
       <use xlink:href="#m741c56fff0" x="341.18233" y="239.56" style="stroke: #000000; stroke-width: 0.8"/>
      </g>
     </g>
     <g id="text_13">
      <!-- 0 -->
      <g transform="translate(338.00108 254.158438) scale(0.1 -0.1)">
       <use xlink:href="#DejaVuSans-30"/>
      </g>
     </g>
    </g>
    <g id="xtick_7">
     <g id="line2d_25">
      <g>
       <use xlink:href="#m741c56fff0" x="374.153663" y="239.56" style="stroke: #000000; stroke-width: 0.8"/>
      </g>
     </g>
     <g id="text_14">
      <!-- 20 -->
      <g transform="translate(367.791163 254.158438) scale(0.1 -0.1)">
       <use xlink:href="#DejaVuSans-32"/>
       <use xlink:href="#DejaVuSans-30" x="63.623047"/>
      </g>
     </g>
    </g>
    <g id="xtick_8">
     <g id="line2d_26">
      <g>
       <use xlink:href="#m741c56fff0" x="407.124996" y="239.56" style="stroke: #000000; stroke-width: 0.8"/>
      </g>
     </g>
     <g id="text_15">
      <!-- 40 -->
      <g transform="translate(400.762496 254.158438) scale(0.1 -0.1)">
       <use xlink:href="#DejaVuSans-34"/>
       <use xlink:href="#DejaVuSans-30" x="63.623047"/>
      </g>
     </g>
    </g>
    <g id="xtick_9">
     <g id="line2d_27">
      <g>
       <use xlink:href="#m741c56fff0" x="440.096328" y="239.56" style="stroke: #000000; stroke-width: 0.8"/>
      </g>
     </g>
     <g id="text_16">
      <!-- 60 -->
      <g transform="translate(433.733828 254.158438) scale(0.1 -0.1)">
       <defs>
        <path id="DejaVuSans-36" d="M 2113 2584 
Q 1688 2584 1439 2293 
Q 1191 2003 1191 1497 
Q 1191 994 1439 701 
Q 1688 409 2113 409 
Q 2538 409 2786 701 
Q 3034 994 3034 1497 
Q 3034 2003 2786 2293 
Q 2538 2584 2113 2584 
z
M 3366 4563 
L 3366 3988 
Q 3128 4100 2886 4159 
Q 2644 4219 2406 4219 
Q 1781 4219 1451 3797 
Q 1122 3375 1075 2522 
Q 1259 2794 1537 2939 
Q 1816 3084 2150 3084 
Q 2853 3084 3261 2657 
Q 3669 2231 3669 1497 
Q 3669 778 3244 343 
Q 2819 -91 2113 -91 
Q 1303 -91 875 529 
Q 447 1150 447 2328 
Q 447 3434 972 4092 
Q 1497 4750 2381 4750 
Q 2619 4750 2861 4703 
Q 3103 4656 3366 4563 
z
" transform="scale(0.015625)"/>
       </defs>
       <use xlink:href="#DejaVuSans-36"/>
       <use xlink:href="#DejaVuSans-30" x="63.623047"/>
      </g>
     </g>
    </g>
    <g id="xtick_10">
     <g id="line2d_28">
      <g>
       <use xlink:href="#m741c56fff0" x="473.067661" y="239.56" style="stroke: #000000; stroke-width: 0.8"/>
      </g>
     </g>
     <g id="text_17">
      <!-- 80 -->
      <g transform="translate(466.705161 254.158438) scale(0.1 -0.1)">
       <defs>
        <path id="DejaVuSans-38" d="M 2034 2216 
Q 1584 2216 1326 1975 
Q 1069 1734 1069 1313 
Q 1069 891 1326 650 
Q 1584 409 2034 409 
Q 2484 409 2743 651 
Q 3003 894 3003 1313 
Q 3003 1734 2745 1975 
Q 2488 2216 2034 2216 
z
M 1403 2484 
Q 997 2584 770 2862 
Q 544 3141 544 3541 
Q 544 4100 942 4425 
Q 1341 4750 2034 4750 
Q 2731 4750 3128 4425 
Q 3525 4100 3525 3541 
Q 3525 3141 3298 2862 
Q 3072 2584 2669 2484 
Q 3125 2378 3379 2068 
Q 3634 1759 3634 1313 
Q 3634 634 3220 271 
Q 2806 -91 2034 -91 
Q 1263 -91 848 271 
Q 434 634 434 1313 
Q 434 1759 690 2068 
Q 947 2378 1403 2484 
z
M 1172 3481 
Q 1172 3119 1398 2916 
Q 1625 2713 2034 2713 
Q 2441 2713 2670 2916 
Q 2900 3119 2900 3481 
Q 2900 3844 2670 4047 
Q 2441 4250 2034 4250 
Q 1625 4250 1398 4047 
Q 1172 3844 1172 3481 
z
" transform="scale(0.015625)"/>
       </defs>
       <use xlink:href="#DejaVuSans-38"/>
       <use xlink:href="#DejaVuSans-30" x="63.623047"/>
      </g>
     </g>
    </g>
    <g id="xtick_11">
     <g id="line2d_29">
      <g>
       <use xlink:href="#m741c56fff0" x="506.038994" y="239.56" style="stroke: #000000; stroke-width: 0.8"/>
      </g>
     </g>
     <g id="text_18">
      <!-- 100 -->
      <g transform="translate(496.495244 254.158438) scale(0.1 -0.1)">
       <use xlink:href="#DejaVuSans-31"/>
       <use xlink:href="#DejaVuSans-30" x="63.623047"/>
       <use xlink:href="#DejaVuSans-30" x="127.246094"/>
      </g>
     </g>
    </g>
    <g id="xtick_12">
     <g id="line2d_30">
      <g>
       <use xlink:href="#m741c56fff0" x="539.010327" y="239.56" style="stroke: #000000; stroke-width: 0.8"/>
      </g>
     </g>
     <g id="text_19">
      <!-- 120 -->
      <g transform="translate(529.466577 254.158438) scale(0.1 -0.1)">
       <use xlink:href="#DejaVuSans-31"/>
       <use xlink:href="#DejaVuSans-32" x="63.623047"/>
       <use xlink:href="#DejaVuSans-30" x="127.246094"/>
      </g>
     </g>
    </g>
    <g id="text_20">
     <!-- embedding parameter $j$ -->
     <g transform="translate(386.616312 267.838125) scale(0.1 -0.1)">
      <defs>
       <path id="DejaVuSans-65" d="M 3597 1894 
L 3597 1613 
L 953 1613 
Q 991 1019 1311 708 
Q 1631 397 2203 397 
Q 2534 397 2845 478 
Q 3156 559 3463 722 
L 3463 178 
Q 3153 47 2828 -22 
Q 2503 -91 2169 -91 
Q 1331 -91 842 396 
Q 353 884 353 1716 
Q 353 2575 817 3079 
Q 1281 3584 2069 3584 
Q 2775 3584 3186 3129 
Q 3597 2675 3597 1894 
z
M 3022 2063 
Q 3016 2534 2758 2815 
Q 2500 3097 2075 3097 
Q 1594 3097 1305 2825 
Q 1016 2553 972 2059 
L 3022 2063 
z
" transform="scale(0.015625)"/>
       <path id="DejaVuSans-6d" d="M 3328 2828 
Q 3544 3216 3844 3400 
Q 4144 3584 4550 3584 
Q 5097 3584 5394 3201 
Q 5691 2819 5691 2113 
L 5691 0 
L 5113 0 
L 5113 2094 
Q 5113 2597 4934 2840 
Q 4756 3084 4391 3084 
Q 3944 3084 3684 2787 
Q 3425 2491 3425 1978 
L 3425 0 
L 2847 0 
L 2847 2094 
Q 2847 2600 2669 2842 
Q 2491 3084 2119 3084 
Q 1678 3084 1418 2786 
Q 1159 2488 1159 1978 
L 1159 0 
L 581 0 
L 581 3500 
L 1159 3500 
L 1159 2956 
Q 1356 3278 1631 3431 
Q 1906 3584 2284 3584 
Q 2666 3584 2933 3390 
Q 3200 3197 3328 2828 
z
" transform="scale(0.015625)"/>
       <path id="DejaVuSans-62" d="M 3116 1747 
Q 3116 2381 2855 2742 
Q 2594 3103 2138 3103 
Q 1681 3103 1420 2742 
Q 1159 2381 1159 1747 
Q 1159 1113 1420 752 
Q 1681 391 2138 391 
Q 2594 391 2855 752 
Q 3116 1113 3116 1747 
z
M 1159 2969 
Q 1341 3281 1617 3432 
Q 1894 3584 2278 3584 
Q 2916 3584 3314 3078 
Q 3713 2572 3713 1747 
Q 3713 922 3314 415 
Q 2916 -91 2278 -91 
Q 1894 -91 1617 61 
Q 1341 213 1159 525 
L 1159 0 
L 581 0 
L 581 4863 
L 1159 4863 
L 1159 2969 
z
" transform="scale(0.015625)"/>
       <path id="DejaVuSans-64" d="M 2906 2969 
L 2906 4863 
L 3481 4863 
L 3481 0 
L 2906 0 
L 2906 525 
Q 2725 213 2448 61 
Q 2172 -91 1784 -91 
Q 1150 -91 751 415 
Q 353 922 353 1747 
Q 353 2572 751 3078 
Q 1150 3584 1784 3584 
Q 2172 3584 2448 3432 
Q 2725 3281 2906 2969 
z
M 947 1747 
Q 947 1113 1208 752 
Q 1469 391 1925 391 
Q 2381 391 2643 752 
Q 2906 1113 2906 1747 
Q 2906 2381 2643 2742 
Q 2381 3103 1925 3103 
Q 1469 3103 1208 2742 
Q 947 2381 947 1747 
z
" transform="scale(0.015625)"/>
       <path id="DejaVuSans-67" d="M 2906 1791 
Q 2906 2416 2648 2759 
Q 2391 3103 1925 3103 
Q 1463 3103 1205 2759 
Q 947 2416 947 1791 
Q 947 1169 1205 825 
Q 1463 481 1925 481 
Q 2391 481 2648 825 
Q 2906 1169 2906 1791 
z
M 3481 434 
Q 3481 -459 3084 -895 
Q 2688 -1331 1869 -1331 
Q 1566 -1331 1297 -1286 
Q 1028 -1241 775 -1147 
L 775 -588 
Q 1028 -725 1275 -790 
Q 1522 -856 1778 -856 
Q 2344 -856 2625 -561 
Q 2906 -266 2906 331 
L 2906 616 
Q 2728 306 2450 153 
Q 2172 0 1784 0 
Q 1141 0 747 490 
Q 353 981 353 1791 
Q 353 2603 747 3093 
Q 1141 3584 1784 3584 
Q 2172 3584 2450 3431 
Q 2728 3278 2906 2969 
L 2906 3500 
L 3481 3500 
L 3481 434 
z
" transform="scale(0.015625)"/>
       <path id="DejaVuSans-61" d="M 2194 1759 
Q 1497 1759 1228 1600 
Q 959 1441 959 1056 
Q 959 750 1161 570 
Q 1363 391 1709 391 
Q 2188 391 2477 730 
Q 2766 1069 2766 1631 
L 2766 1759 
L 2194 1759 
z
M 3341 1997 
L 3341 0 
L 2766 0 
L 2766 531 
Q 2569 213 2275 61 
Q 1981 -91 1556 -91 
Q 1019 -91 701 211 
Q 384 513 384 1019 
Q 384 1609 779 1909 
Q 1175 2209 1959 2209 
L 2766 2209 
L 2766 2266 
Q 2766 2663 2505 2880 
Q 2244 3097 1772 3097 
Q 1472 3097 1187 3025 
Q 903 2953 641 2809 
L 641 3341 
Q 956 3463 1253 3523 
Q 1550 3584 1831 3584 
Q 2591 3584 2966 3190 
Q 3341 2797 3341 1997 
z
" transform="scale(0.015625)"/>
       <path id="DejaVuSans-72" d="M 2631 2963 
Q 2534 3019 2420 3045 
Q 2306 3072 2169 3072 
Q 1681 3072 1420 2755 
Q 1159 2438 1159 1844 
L 1159 0 
L 581 0 
L 581 3500 
L 1159 3500 
L 1159 2956 
Q 1341 3275 1631 3429 
Q 1922 3584 2338 3584 
Q 2397 3584 2469 3576 
Q 2541 3569 2628 3553 
L 2631 2963 
z
" transform="scale(0.015625)"/>
       <path id="DejaVuSans-Oblique-6a" d="M 928 3500 
L 1503 3500 
L 813 -63 
L 809 -78 
Q 694 -675 544 -897 
Q 403 -1106 132 -1218 
Q -138 -1331 -506 -1331 
L -722 -1331 
L -628 -844 
L -481 -844 
Q -144 -844 -1 -703 
Q 141 -563 238 -63 
L 928 3500 
z
M 1197 4863 
L 1772 4863 
L 1631 4134 
L 1056 4134 
L 1197 4863 
z
" transform="scale(0.015625)"/>
      </defs>
      <use xlink:href="#DejaVuSans-65" transform="translate(0 0.015625)"/>
      <use xlink:href="#DejaVuSans-6d" transform="translate(61.523438 0.015625)"/>
      <use xlink:href="#DejaVuSans-62" transform="translate(158.935547 0.015625)"/>
      <use xlink:href="#DejaVuSans-65" transform="translate(222.412109 0.015625)"/>
      <use xlink:href="#DejaVuSans-64" transform="translate(283.935547 0.015625)"/>
      <use xlink:href="#DejaVuSans-64" transform="translate(347.412109 0.015625)"/>
      <use xlink:href="#DejaVuSans-69" transform="translate(410.888672 0.015625)"/>
      <use xlink:href="#DejaVuSans-6e" transform="translate(438.671875 0.015625)"/>
      <use xlink:href="#DejaVuSans-67" transform="translate(502.050781 0.015625)"/>
      <use xlink:href="#DejaVuSans-20" transform="translate(565.527344 0.015625)"/>
      <use xlink:href="#DejaVuSans-70" transform="translate(597.314453 0.015625)"/>
      <use xlink:href="#DejaVuSans-61" transform="translate(660.791016 0.015625)"/>
      <use xlink:href="#DejaVuSans-72" transform="translate(722.070312 0.015625)"/>
      <use xlink:href="#DejaVuSans-61" transform="translate(763.183594 0.015625)"/>
      <use xlink:href="#DejaVuSans-6d" transform="translate(824.462891 0.015625)"/>
      <use xlink:href="#DejaVuSans-65" transform="translate(921.875 0.015625)"/>
      <use xlink:href="#DejaVuSans-74" transform="translate(983.398438 0.015625)"/>
      <use xlink:href="#DejaVuSans-65" transform="translate(1022.607422 0.015625)"/>
      <use xlink:href="#DejaVuSans-72" transform="translate(1084.130859 0.015625)"/>
      <use xlink:href="#DejaVuSans-20" transform="translate(1125.244141 0.015625)"/>
      <use xlink:href="#DejaVuSans-Oblique-6a" transform="translate(1157.03125 0.015625)"/>
     </g>
    </g>
   </g>
   <g id="matplotlib.axis_4">
    <g id="ytick_7">
     <g id="line2d_31">
      <g>
       <use xlink:href="#mcfa84886ed" x="330.713932" y="229.020884" style="stroke: #000000; stroke-width: 0.8"/>
      </g>
     </g>
     <g id="text_21">
      <!-- 0.0 -->
      <g transform="translate(307.810807 232.820103) scale(0.1 -0.1)">
       <defs>
        <path id="DejaVuSans-2e" d="M 684 794 
L 1344 794 
L 1344 0 
L 684 0 
L 684 794 
z
" transform="scale(0.015625)"/>
       </defs>
       <use xlink:href="#DejaVuSans-30"/>
       <use xlink:href="#DejaVuSans-2e" x="63.623047"/>
       <use xlink:href="#DejaVuSans-30" x="95.410156"/>
      </g>
     </g>
    </g>
    <g id="ytick_8">
     <g id="line2d_32">
      <g>
       <use xlink:href="#mcfa84886ed" x="330.713932" y="186.769071" style="stroke: #000000; stroke-width: 0.8"/>
      </g>
     </g>
     <g id="text_22">
      <!-- 0.2 -->
      <g transform="translate(307.810807 190.568289) scale(0.1 -0.1)">
       <use xlink:href="#DejaVuSans-30"/>
       <use xlink:href="#DejaVuSans-2e" x="63.623047"/>
       <use xlink:href="#DejaVuSans-32" x="95.410156"/>
      </g>
     </g>
    </g>
    <g id="ytick_9">
     <g id="line2d_33">
      <g>
       <use xlink:href="#mcfa84886ed" x="330.713932" y="144.517258" style="stroke: #000000; stroke-width: 0.8"/>
      </g>
     </g>
     <g id="text_23">
      <!-- 0.4 -->
      <g transform="translate(307.810807 148.316476) scale(0.1 -0.1)">
       <use xlink:href="#DejaVuSans-30"/>
       <use xlink:href="#DejaVuSans-2e" x="63.623047"/>
       <use xlink:href="#DejaVuSans-34" x="95.410156"/>
      </g>
     </g>
    </g>
    <g id="ytick_10">
     <g id="line2d_34">
      <g>
       <use xlink:href="#mcfa84886ed" x="330.713932" y="102.265444" style="stroke: #000000; stroke-width: 0.8"/>
      </g>
     </g>
     <g id="text_24">
      <!-- 0.6 -->
      <g transform="translate(307.810807 106.064663) scale(0.1 -0.1)">
       <use xlink:href="#DejaVuSans-30"/>
       <use xlink:href="#DejaVuSans-2e" x="63.623047"/>
       <use xlink:href="#DejaVuSans-36" x="95.410156"/>
      </g>
     </g>
    </g>
    <g id="ytick_11">
     <g id="line2d_35">
      <g>
       <use xlink:href="#mcfa84886ed" x="330.713932" y="60.013631" style="stroke: #000000; stroke-width: 0.8"/>
      </g>
     </g>
     <g id="text_25">
      <!-- 0.8 -->
      <g transform="translate(307.810807 63.81285) scale(0.1 -0.1)">
       <use xlink:href="#DejaVuSans-30"/>
       <use xlink:href="#DejaVuSans-2e" x="63.623047"/>
       <use xlink:href="#DejaVuSans-38" x="95.410156"/>
      </g>
     </g>
    </g>
    <g id="ytick_12">
     <g id="line2d_36">
      <g>
       <use xlink:href="#mcfa84886ed" x="330.713932" y="17.761818" style="stroke: #000000; stroke-width: 0.8"/>
      </g>
     </g>
     <g id="text_26">
      <!-- 1.0 -->
      <g transform="translate(307.810807 21.561037) scale(0.1 -0.1)">
       <use xlink:href="#DejaVuSans-31"/>
       <use xlink:href="#DejaVuSans-2e" x="63.623047"/>
       <use xlink:href="#DejaVuSans-30" x="95.410156"/>
      </g>
     </g>
    </g>
    <g id="text_27">
     <!-- frequency -->
     <g transform="translate(301.731119 148.456563) rotate(-90) scale(0.1 -0.1)">
      <defs>
       <path id="DejaVuSans-66" d="M 2375 4863 
L 2375 4384 
L 1825 4384 
Q 1516 4384 1395 4259 
Q 1275 4134 1275 3809 
L 1275 3500 
L 2222 3500 
L 2222 3053 
L 1275 3053 
L 1275 0 
L 697 0 
L 697 3053 
L 147 3053 
L 147 3500 
L 697 3500 
L 697 3744 
Q 697 4328 969 4595 
Q 1241 4863 1831 4863 
L 2375 4863 
z
" transform="scale(0.015625)"/>
       <path id="DejaVuSans-71" d="M 947 1747 
Q 947 1113 1208 752 
Q 1469 391 1925 391 
Q 2381 391 2643 752 
Q 2906 1113 2906 1747 
Q 2906 2381 2643 2742 
Q 2381 3103 1925 3103 
Q 1469 3103 1208 2742 
Q 947 2381 947 1747 
z
M 2906 525 
Q 2725 213 2448 61 
Q 2172 -91 1784 -91 
Q 1150 -91 751 415 
Q 353 922 353 1747 
Q 353 2572 751 3078 
Q 1150 3584 1784 3584 
Q 2172 3584 2448 3432 
Q 2725 3281 2906 2969 
L 2906 3500 
L 3481 3500 
L 3481 -1331 
L 2906 -1331 
L 2906 525 
z
" transform="scale(0.015625)"/>
       <path id="DejaVuSans-75" d="M 544 1381 
L 544 3500 
L 1119 3500 
L 1119 1403 
Q 1119 906 1312 657 
Q 1506 409 1894 409 
Q 2359 409 2629 706 
Q 2900 1003 2900 1516 
L 2900 3500 
L 3475 3500 
L 3475 0 
L 2900 0 
L 2900 538 
Q 2691 219 2414 64 
Q 2138 -91 1772 -91 
Q 1169 -91 856 284 
Q 544 659 544 1381 
z
M 1991 3584 
L 1991 3584 
z
" transform="scale(0.015625)"/>
       <path id="DejaVuSans-63" d="M 3122 3366 
L 3122 2828 
Q 2878 2963 2633 3030 
Q 2388 3097 2138 3097 
Q 1578 3097 1268 2742 
Q 959 2388 959 1747 
Q 959 1106 1268 751 
Q 1578 397 2138 397 
Q 2388 397 2633 464 
Q 2878 531 3122 666 
L 3122 134 
Q 2881 22 2623 -34 
Q 2366 -91 2075 -91 
Q 1284 -91 818 406 
Q 353 903 353 1747 
Q 353 2603 823 3093 
Q 1294 3584 2113 3584 
Q 2378 3584 2631 3529 
Q 2884 3475 3122 3366 
z
" transform="scale(0.015625)"/>
       <path id="DejaVuSans-79" d="M 2059 -325 
Q 1816 -950 1584 -1140 
Q 1353 -1331 966 -1331 
L 506 -1331 
L 506 -850 
L 844 -850 
Q 1081 -850 1212 -737 
Q 1344 -625 1503 -206 
L 1606 56 
L 191 3500 
L 800 3500 
L 1894 763 
L 2988 3500 
L 3597 3500 
L 2059 -325 
z
" transform="scale(0.015625)"/>
      </defs>
      <use xlink:href="#DejaVuSans-66"/>
      <use xlink:href="#DejaVuSans-72" x="35.205078"/>
      <use xlink:href="#DejaVuSans-65" x="74.068359"/>
      <use xlink:href="#DejaVuSans-71" x="135.591797"/>
      <use xlink:href="#DejaVuSans-75" x="199.068359"/>
      <use xlink:href="#DejaVuSans-65" x="262.447266"/>
      <use xlink:href="#DejaVuSans-6e" x="323.970703"/>
      <use xlink:href="#DejaVuSans-63" x="387.349609"/>
      <use xlink:href="#DejaVuSans-79" x="442.330078"/>
     </g>
    </g>
   </g>
   <g id="line2d_37">
    <path d="M 341.18233 17.761818 
L 342.830897 32.429106 
L 344.479463 46.078076 
L 346.12803 58.779422 
L 347.776597 70.598935 
L 349.425163 81.597852 
L 351.07373 91.833126 
L 352.722296 101.357794 
L 354.370863 110.221179 
L 356.01943 118.469205 
L 357.667996 126.144584 
L 359.316563 133.287068 
L 362.613696 146.118823 
L 365.91083 157.230652 
L 369.207963 166.853104 
L 372.505096 175.185811 
L 375.802229 182.401625 
L 379.099363 188.650271 
L 382.396496 194.061374 
L 385.693629 198.747196 
L 388.990763 202.804951 
L 392.287896 206.318823 
L 395.585029 209.361705 
L 398.882162 211.996737 
L 402.179296 214.278579 
L 405.476429 216.254575 
L 408.773562 217.965716 
L 412.070696 219.447504 
L 415.367829 220.730679 
L 420.313529 222.340286 
L 425.259229 223.637376 
L 430.204929 224.682627 
L 435.150628 225.524932 
L 441.744895 226.39929 
L 448.339162 227.054966 
L 456.581995 227.649006 
L 466.473395 228.130012 
L 479.661928 228.51991 
L 497.796161 228.793863 
L 525.821794 228.954078 
L 550.550293 228.998182 
L 550.550293 228.998182 
" clip-path="url(#pe01ef8e04b)" style="fill: none; stroke: #1f77b4; stroke-width: 2; stroke-linecap: square"/>
   </g>
   <g id="patch_8">
    <path d="M 330.713932 239.56 
L 330.713932 7.2 
" style="fill: none; stroke: #000000; stroke-width: 0.8; stroke-linejoin: miter; stroke-linecap: square"/>
   </g>
   <g id="patch_9">
    <path d="M 561.018691 239.56 
L 561.018691 7.2 
" style="fill: none; stroke: #000000; stroke-width: 0.8; stroke-linejoin: miter; stroke-linecap: square"/>
   </g>
   <g id="patch_10">
    <path d="M 330.713932 239.56 
L 561.018691 239.56 
" style="fill: none; stroke: #000000; stroke-width: 0.8; stroke-linejoin: miter; stroke-linecap: square"/>
   </g>
   <g id="patch_11">
    <path d="M 330.713932 7.2 
L 561.018691 7.2 
" style="fill: none; stroke: #000000; stroke-width: 0.8; stroke-linejoin: miter; stroke-linecap: square"/>
   </g>
   <g id="legend_1">
    <g id="patch_12">
     <path d="M 432.418691 32.5 
L 554.018691 32.5 
Q 556.018691 32.5 556.018691 30.5 
L 556.018691 14.2 
Q 556.018691 12.2 554.018691 12.2 
L 432.418691 12.2 
Q 430.418691 12.2 430.418691 14.2 
L 430.418691 30.5 
Q 430.418691 32.5 432.418691 32.5 
z
" style="fill: #ffffff; opacity: 0.8; stroke: #cccccc; stroke-linejoin: miter"/>
    </g>
    <g id="line2d_38">
     <path d="M 434.418691 21.9 
L 444.418691 21.9 
L 454.418691 21.9 
" style="fill: none; stroke: #1f77b4; stroke-width: 2; stroke-linecap: square"/>
    </g>
    <g id="text_28">
     <!-- $\omega_j = 10000^{-2j / d_{model}}$ -->
     <g transform="translate(462.418691 25.4) scale(0.1 -0.1)">
      <defs>
       <path id="DejaVuSans-Oblique-3c9" d="M 1369 -91 
Q 72 -91 434 1766 
Q 575 2500 1256 3500 
L 1875 3500 
Q 1231 2500 1088 1750 
Q 819 397 1519 397 
Q 2166 397 2478 2078 
L 3009 2078 
Q 2669 388 3316 397 
Q 4013 403 4275 1750 
Q 4419 2500 4169 3500 
L 4788 3500 
Q 5075 2500 4934 1766 
Q 4578 -94 3278 -91 
Q 2428 -88 2503 844 
Q 2194 -91 1369 -91 
z
" transform="scale(0.015625)"/>
       <path id="DejaVuSans-2212" d="M 678 2272 
L 4684 2272 
L 4684 1741 
L 678 1741 
L 678 2272 
z
" transform="scale(0.015625)"/>
       <path id="DejaVuSans-2f" d="M 1625 4666 
L 2156 4666 
L 531 -594 
L 0 -594 
L 1625 4666 
z
" transform="scale(0.015625)"/>
       <path id="DejaVuSans-Oblique-6d" d="M 5747 2113 
L 5338 0 
L 4763 0 
L 5166 2094 
Q 5191 2228 5203 2325 
Q 5216 2422 5216 2491 
Q 5216 2772 5059 2928 
Q 4903 3084 4622 3084 
Q 4203 3084 3875 2770 
Q 3547 2456 3450 1953 
L 3066 0 
L 2491 0 
L 2900 2094 
Q 2925 2209 2937 2307 
Q 2950 2406 2950 2484 
Q 2950 2769 2794 2926 
Q 2638 3084 2363 3084 
Q 1938 3084 1609 2770 
Q 1281 2456 1184 1953 
L 800 0 
L 225 0 
L 909 3500 
L 1484 3500 
L 1375 2956 
Q 1609 3263 1923 3423 
Q 2238 3584 2597 3584 
Q 2978 3584 3223 3384 
Q 3469 3184 3519 2828 
Q 3781 3197 4126 3390 
Q 4472 3584 4856 3584 
Q 5306 3584 5551 3325 
Q 5797 3066 5797 2591 
Q 5797 2488 5784 2364 
Q 5772 2241 5747 2113 
z
" transform="scale(0.015625)"/>
       <path id="DejaVuSans-Oblique-6f" d="M 1625 -91 
Q 1009 -91 651 289 
Q 294 669 294 1325 
Q 294 1706 417 2101 
Q 541 2497 738 2766 
Q 1047 3184 1428 3384 
Q 1809 3584 2291 3584 
Q 2888 3584 3255 3212 
Q 3622 2841 3622 2241 
Q 3622 1825 3500 1412 
Q 3378 1000 3181 728 
Q 2875 309 2494 109 
Q 2113 -91 1625 -91 
z
M 891 1344 
Q 891 869 1089 633 
Q 1288 397 1691 397 
Q 2269 397 2648 901 
Q 3028 1406 3028 2181 
Q 3028 2634 2825 2865 
Q 2622 3097 2228 3097 
Q 1903 3097 1650 2945 
Q 1397 2794 1197 2484 
Q 1050 2253 970 1956 
Q 891 1659 891 1344 
z
" transform="scale(0.015625)"/>
       <path id="DejaVuSans-Oblique-65" d="M 3078 2063 
Q 3088 2113 3092 2166 
Q 3097 2219 3097 2272 
Q 3097 2653 2873 2875 
Q 2650 3097 2266 3097 
Q 1838 3097 1509 2826 
Q 1181 2556 1013 2059 
L 3078 2063 
z
M 3578 1613 
L 903 1613 
Q 884 1494 878 1425 
Q 872 1356 872 1306 
Q 872 872 1139 634 
Q 1406 397 1894 397 
Q 2269 397 2603 481 
Q 2938 566 3225 728 
L 3116 159 
Q 2806 34 2476 -28 
Q 2147 -91 1806 -91 
Q 1078 -91 686 257 
Q 294 606 294 1247 
Q 294 1794 489 2264 
Q 684 2734 1063 3103 
Q 1306 3334 1642 3459 
Q 1978 3584 2356 3584 
Q 2950 3584 3301 3228 
Q 3653 2872 3653 2272 
Q 3653 2128 3634 1964 
Q 3616 1800 3578 1613 
z
" transform="scale(0.015625)"/>
       <path id="DejaVuSans-Oblique-6c" d="M 1172 4863 
L 1747 4863 
L 800 0 
L 225 0 
L 1172 4863 
z
" transform="scale(0.015625)"/>
      </defs>
      <use xlink:href="#DejaVuSans-Oblique-3c9" transform="translate(0 0.529687)"/>
      <use xlink:href="#DejaVuSans-Oblique-6a" transform="translate(83.740234 -15.876563) scale(0.7)"/>
      <use xlink:href="#DejaVuSans-3d" transform="translate(125.405273 0.529687)"/>
      <use xlink:href="#DejaVuSans-31" transform="translate(228.676758 0.529687)"/>
      <use xlink:href="#DejaVuSans-30" transform="translate(292.299805 0.529687)"/>
      <use xlink:href="#DejaVuSans-30" transform="translate(355.922852 0.529687)"/>
      <use xlink:href="#DejaVuSans-30" transform="translate(419.545898 0.529687)"/>
      <use xlink:href="#DejaVuSans-30" transform="translate(483.168945 0.529687)"/>
      <use xlink:href="#DejaVuSans-2212" transform="translate(547.749023 38.810937) scale(0.7)"/>
      <use xlink:href="#DejaVuSans-32" transform="translate(606.401367 38.810937) scale(0.7)"/>
      <use xlink:href="#DejaVuSans-Oblique-6a" transform="translate(650.9375 38.810937) scale(0.7)"/>
      <use xlink:href="#DejaVuSans-2f" transform="translate(670.385742 38.810937) scale(0.7)"/>
      <use xlink:href="#DejaVuSans-Oblique-64" transform="translate(693.969727 38.810937) scale(0.7)"/>
      <use xlink:href="#DejaVuSans-Oblique-6d" transform="translate(738.40332 27.326562) scale(0.49)"/>
      <use xlink:href="#DejaVuSans-Oblique-6f" transform="translate(786.135254 27.326562) scale(0.49)"/>
      <use xlink:href="#DejaVuSans-Oblique-64" transform="translate(816.114258 27.326562) scale(0.49)"/>
      <use xlink:href="#DejaVuSans-Oblique-65" transform="translate(847.217773 27.326562) scale(0.49)"/>
      <use xlink:href="#DejaVuSans-Oblique-6c" transform="translate(877.364258 27.326562) scale(0.49)"/>
     </g>
    </g>
   </g>
  </g>
 </g>
 <defs>
  <clipPath id="pe18b6ee0a5">
   <rect x="52" y="7.2" width="230.30476" height="232.36"/>
  </clipPath>
  <clipPath id="pe01ef8e04b">
   <rect x="330.713932" y="7.2" width="230.30476" height="232.36"/>
  </clipPath>
 </defs>
</svg>