<?xml version="1.0" encoding="UTF-8" standalone="no"?>
<!DOCTYPE svg PUBLIC "-//W3C//DTD SVG 1.1//EN"
 "http://www.w3.org/Graphics/SVG/1.1/DTD/svg11.dtd">
<!-- Generated by graphviz version 9.0.0 (20230911.1827)
 -->
<!-- Pages: 1 -->
<svg width="2243pt" height="641pt"
 viewBox="0.00 0.00 2243.00 640.50" xmlns="http://www.w3.org/2000/svg" xmlns:xlink="http://www.w3.org/1999/xlink">
<g id="graph0" class="graph" transform="scale(1 1) rotate(0) translate(4 636.5)">
<polygon fill="white" stroke="none" points="-4,4 -4,-636.5 2239,-636.5 2239,4 -4,4"/>
<!-- 4435058752 -->
<g id="node1" class="node">
<title>4435058752</title>
<polygon fill="none" stroke="black" points="1694,-277.5 1694,-351 1779.75,-351 1779.75,-277.5 1694,-277.5"/>
<text text-anchor="middle" x="1736.88" y="-333.7" font-family="Times,serif" font-size="14.00">data=0.000</text>
<polyline fill="none" stroke="black" points="1694,-326.5 1779.75,-326.5"/>
<text text-anchor="middle" x="1736.88" y="-309.2" font-family="Times,serif" font-size="14.00">grad=0.0000</text>
<polyline fill="none" stroke="black" points="1694,-302 1779.75,-302"/>
<text text-anchor="middle" x="1736.88" y="-284.7" font-family="Times,serif" font-size="14.00">deg=1</text>
</g>
<!-- 4435028432+ -->
<g id="node14" class="node">
<title>4435028432+</title>
<ellipse fill="none" stroke="black" cx="1858.62" cy="-314.25" rx="27" ry="18"/>
<text text-anchor="middle" x="1858.62" y="-309.2" font-family="Times,serif" font-size="14.00">+</text>
</g>
<!-- 4435058752&#45;&gt;4435028432+ -->
<g id="edge41" class="edge">
<title>4435058752&#45;&gt;4435028432+</title>
<path fill="none" stroke="black" d="M1780.09,-314.25C1793.19,-314.25 1807.52,-314.25 1820.26,-314.25"/>
<polygon fill="black" stroke="black" points="1819.92,-317.75 1829.92,-314.25 1819.92,-310.75 1819.92,-317.75"/>
</g>
<!-- 4435026032 -->
<g id="node2" class="node">
<title>4435026032</title>
<polygon fill="none" stroke="black" points="1482.25,-188.5 1482.25,-262 1568,-262 1568,-188.5 1482.25,-188.5"/>
<text text-anchor="middle" x="1525.12" y="-244.7" font-family="Times,serif" font-size="14.00">data=0.488</text>
<polyline fill="none" stroke="black" points="1482.25,-237.5 1568,-237.5"/>
<text text-anchor="middle" x="1525.12" y="-220.2" font-family="Times,serif" font-size="14.00">grad=0.0000</text>
<polyline fill="none" stroke="black" points="1482.25,-213 1568,-213"/>
<text text-anchor="middle" x="1525.12" y="-195.7" font-family="Times,serif" font-size="14.00">deg=1</text>
</g>
<!-- 4435028480* -->
<g id="node18" class="node">
<title>4435028480*</title>
<ellipse fill="none" stroke="black" cx="1631" cy="-225.25" rx="27" ry="18"/>
<text text-anchor="middle" x="1631" y="-220.2" font-family="Times,serif" font-size="14.00">*</text>
</g>
<!-- 4435026032&#45;&gt;4435028480* -->
<g id="edge45" class="edge">
<title>4435026032&#45;&gt;4435028480*</title>
<path fill="none" stroke="black" d="M1568.37,-225.25C1576.28,-225.25 1584.5,-225.25 1592.26,-225.25"/>
<polygon fill="black" stroke="black" points="1592.07,-228.75 1602.07,-225.25 1592.07,-221.75 1592.07,-228.75"/>
</g>
<!-- 4435026032relu -->
<g id="node3" class="node">
<title>4435026032relu</title>
<ellipse fill="none" stroke="black" cx="1419.25" cy="-225.25" rx="27" ry="18"/>
<text text-anchor="middle" x="1419.25" y="-220.2" font-family="Times,serif" font-size="14.00">relu</text>
</g>
<!-- 4435026032relu&#45;&gt;4435026032 -->
<g id="edge1" class="edge">
<title>4435026032relu&#45;&gt;4435026032</title>
<path fill="none" stroke="black" d="M1446.73,-225.25C1454.09,-225.25 1462.35,-225.25 1470.66,-225.25"/>
<polygon fill="black" stroke="black" points="1470.44,-228.75 1480.44,-225.25 1470.44,-221.75 1470.44,-228.75"/>
</g>
<!-- 4435058800 -->
<g id="node4" class="node">
<title>4435058800</title>
<polygon fill="none" stroke="black" points="1482.25,-95.5 1482.25,-169 1568,-169 1568,-95.5 1482.25,-95.5"/>
<text text-anchor="middle" x="1525.12" y="-151.7" font-family="Times,serif" font-size="14.00">data=0.087</text>
<polyline fill="none" stroke="black" points="1482.25,-144.5 1568,-144.5"/>
<text text-anchor="middle" x="1525.12" y="-127.2" font-family="Times,serif" font-size="14.00">grad=0.0000</text>
<polyline fill="none" stroke="black" points="1482.25,-120 1568,-120"/>
<text text-anchor="middle" x="1525.12" y="-102.7" font-family="Times,serif" font-size="14.00">deg=1</text>
</g>
<!-- 4435058800&#45;&gt;4435028480* -->
<g id="edge22" class="edge">
<title>4435058800&#45;&gt;4435028480*</title>
<path fill="none" stroke="black" d="M1567.48,-169.27C1580.33,-180.78 1594.1,-193.1 1605.43,-203.25"/>
<polygon fill="black" stroke="black" points="1603.01,-205.79 1612.8,-209.85 1607.68,-200.57 1603.01,-205.79"/>
</g>
<!-- 4435026080 -->
<g id="node5" class="node">
<title>4435026080</title>
<polygon fill="none" stroke="black" points="1694,-372.5 1694,-446 1779.75,-446 1779.75,-372.5 1694,-372.5"/>
<text text-anchor="middle" x="1736.88" y="-428.7" font-family="Times,serif" font-size="14.00">data=0.162</text>
<polyline fill="none" stroke="black" points="1694,-421.5 1779.75,-421.5"/>
<text text-anchor="middle" x="1736.88" y="-404.2" font-family="Times,serif" font-size="14.00">grad=0.0000</text>
<polyline fill="none" stroke="black" points="1694,-397 1779.75,-397"/>
<text text-anchor="middle" x="1736.88" y="-379.7" font-family="Times,serif" font-size="14.00">deg=1</text>
</g>
<!-- 4435026080&#45;&gt;4435028432+ -->
<g id="edge34" class="edge">
<title>4435026080&#45;&gt;4435028432+</title>
<path fill="none" stroke="black" d="M1780.09,-375.76C1797.27,-362.13 1816.57,-346.82 1831.62,-334.88"/>
<polygon fill="black" stroke="black" points="1833.54,-337.82 1839.2,-328.87 1829.19,-332.34 1833.54,-337.82"/>
</g>
<!-- 4435026080* -->
<g id="node6" class="node">
<title>4435026080*</title>
<ellipse fill="none" stroke="black" cx="1631" cy="-409.25" rx="27" ry="18"/>
<text text-anchor="middle" x="1631" y="-404.2" font-family="Times,serif" font-size="14.00">*</text>
</g>
<!-- 4435026080*&#45;&gt;4435026080 -->
<g id="edge2" class="edge">
<title>4435026080*&#45;&gt;4435026080</title>
<path fill="none" stroke="black" d="M1658.48,-409.25C1665.84,-409.25 1674.1,-409.25 1682.41,-409.25"/>
<polygon fill="black" stroke="black" points="1682.19,-412.75 1692.19,-409.25 1682.19,-405.75 1682.19,-412.75"/>
</g>
<!-- 4435058896 -->
<g id="node7" class="node">
<title>4435058896</title>
<polygon fill="none" stroke="black" points="1482.25,-465.5 1482.25,-539 1568,-539 1568,-465.5 1482.25,-465.5"/>
<text text-anchor="middle" x="1525.12" y="-521.7" font-family="Times,serif" font-size="14.00">data=0.892</text>
<polyline fill="none" stroke="black" points="1482.25,-514.5 1568,-514.5"/>
<text text-anchor="middle" x="1525.12" y="-497.2" font-family="Times,serif" font-size="14.00">grad=0.0000</text>
<polyline fill="none" stroke="black" points="1482.25,-490 1568,-490"/>
<text text-anchor="middle" x="1525.12" y="-472.7" font-family="Times,serif" font-size="14.00">deg=1</text>
</g>
<!-- 4435058896&#45;&gt;4435026080* -->
<g id="edge42" class="edge">
<title>4435058896&#45;&gt;4435026080*</title>
<path fill="none" stroke="black" d="M1567.48,-465.23C1580.33,-453.72 1594.1,-441.4 1605.43,-431.25"/>
<polygon fill="black" stroke="black" points="1607.68,-433.93 1612.8,-424.65 1603.01,-428.71 1607.68,-433.93"/>
</g>
<!-- 4435026128 -->
<g id="node8" class="node">
<title>4435026128</title>
<polygon fill="none" stroke="black" points="847,-0.5 847,-74 932.75,-74 932.75,-0.5 847,-0.5"/>
<text text-anchor="middle" x="889.88" y="-56.7" font-family="Times,serif" font-size="14.00">data=0.471</text>
<polyline fill="none" stroke="black" points="847,-49.5 932.75,-49.5"/>
<text text-anchor="middle" x="889.88" y="-32.2" font-family="Times,serif" font-size="14.00">grad=0.0000</text>
<polyline fill="none" stroke="black" points="847,-25 932.75,-25"/>
<text text-anchor="middle" x="889.88" y="-7.7" font-family="Times,serif" font-size="14.00">deg=1</text>
</g>
<!-- 4435029200+ -->
<g id="node44" class="node">
<title>4435029200+</title>
<ellipse fill="none" stroke="black" cx="995.75" cy="-130.25" rx="27" ry="18"/>
<text text-anchor="middle" x="995.75" y="-125.2" font-family="Times,serif" font-size="14.00">+</text>
</g>
<!-- 4435026128&#45;&gt;4435029200+ -->
<g id="edge26" class="edge">
<title>4435026128&#45;&gt;4435029200+</title>
<path fill="none" stroke="black" d="M932.23,-74.27C945.08,-85.78 958.85,-98.1 970.18,-108.25"/>
<polygon fill="black" stroke="black" points="967.76,-110.79 977.55,-114.85 972.43,-105.57 967.76,-110.79"/>
</g>
<!-- 4435026128* -->
<g id="node9" class="node">
<title>4435026128*</title>
<ellipse fill="none" stroke="black" cx="784" cy="-130.25" rx="27" ry="18"/>
<text text-anchor="middle" x="784" y="-125.2" font-family="Times,serif" font-size="14.00">*</text>
</g>
<!-- 4435026128*&#45;&gt;4435026128 -->
<g id="edge3" class="edge">
<title>4435026128*&#45;&gt;4435026128</title>
<path fill="none" stroke="black" d="M800.78,-116.13C811.02,-106.95 825,-94.44 838.79,-82.09"/>
<polygon fill="black" stroke="black" points="841.09,-84.73 846.2,-75.46 836.42,-79.52 841.09,-84.73"/>
</g>
<!-- 4435058944 -->
<g id="node10" class="node">
<title>4435058944</title>
<polygon fill="none" stroke="black" points="0,-319.5 0,-393 85.75,-393 85.75,-319.5 0,-319.5"/>
<text text-anchor="middle" x="42.88" y="-375.7" font-family="Times,serif" font-size="14.00">data=0.639</text>
<polyline fill="none" stroke="black" points="0,-368.5 85.75,-368.5"/>
<text text-anchor="middle" x="42.88" y="-351.2" font-family="Times,serif" font-size="14.00">grad=0.0000</text>
<polyline fill="none" stroke="black" points="0,-344 85.75,-344"/>
<text text-anchor="middle" x="42.88" y="-326.7" font-family="Times,serif" font-size="14.00">deg=1</text>
</g>
<!-- 4435059664* -->
<g id="node32" class="node">
<title>4435059664*</title>
<ellipse fill="none" stroke="black" cx="148.75" cy="-342.25" rx="27" ry="18"/>
<text text-anchor="middle" x="148.75" y="-337.2" font-family="Times,serif" font-size="14.00">*</text>
</g>
<!-- 4435058944&#45;&gt;4435059664* -->
<g id="edge29" class="edge">
<title>4435058944&#45;&gt;4435059664*</title>
<path fill="none" stroke="black" d="M86.12,-350.56C94.28,-349.46 102.76,-348.31 110.73,-347.24"/>
<polygon fill="black" stroke="black" points="111,-350.74 120.44,-345.93 110.06,-343.8 111,-350.74"/>
</g>
<!-- 4435059040 -->
<g id="node11" class="node">
<title>4435059040</title>
<polygon fill="none" stroke="black" points="211.75,-398.5 211.75,-472 297.5,-472 297.5,-398.5 211.75,-398.5"/>
<text text-anchor="middle" x="254.62" y="-454.7" font-family="Times,serif" font-size="14.00">data=0.000</text>
<polyline fill="none" stroke="black" points="211.75,-447.5 297.5,-447.5"/>
<text text-anchor="middle" x="254.62" y="-430.2" font-family="Times,serif" font-size="14.00">grad=0.0000</text>
<polyline fill="none" stroke="black" points="211.75,-423 297.5,-423"/>
<text text-anchor="middle" x="254.62" y="-405.7" font-family="Times,serif" font-size="14.00">deg=1</text>
</g>
<!-- 4435027280+ -->
<g id="node48" class="node">
<title>4435027280+</title>
<ellipse fill="none" stroke="black" cx="360.5" cy="-409.25" rx="27" ry="18"/>
<text text-anchor="middle" x="360.5" y="-404.2" font-family="Times,serif" font-size="14.00">+</text>
</g>
<!-- 4435059040&#45;&gt;4435027280+ -->
<g id="edge54" class="edge">
<title>4435059040&#45;&gt;4435027280+</title>
<path fill="none" stroke="black" d="M297.87,-424.67C306.52,-422.51 315.55,-420.25 323.93,-418.15"/>
<polygon fill="black" stroke="black" points="324.56,-421.6 333.41,-415.78 322.86,-414.81 324.56,-421.6"/>
</g>
<!-- 4435048912 -->
<g id="node12" class="node">
<title>4435048912</title>
<polygon fill="none" stroke="black" points="0,-226.5 0,-300 85.75,-300 85.75,-226.5 0,-226.5"/>
<text text-anchor="middle" x="42.88" y="-282.7" font-family="Times,serif" font-size="14.00">data=1.000</text>
<polyline fill="none" stroke="black" points="0,-275.5 85.75,-275.5"/>
<text text-anchor="middle" x="42.88" y="-258.2" font-family="Times,serif" font-size="14.00">grad=0.0000</text>
<polyline fill="none" stroke="black" points="0,-251 85.75,-251"/>
<text text-anchor="middle" x="42.88" y="-233.7" font-family="Times,serif" font-size="14.00">deg=2</text>
</g>
<!-- 4435048912&#45;&gt;4435059664* -->
<g id="edge21" class="edge">
<title>4435048912&#45;&gt;4435059664*</title>
<path fill="none" stroke="black" d="M86.12,-295.38C97.91,-304.34 110.38,-313.83 121,-321.91"/>
<polygon fill="black" stroke="black" points="118.88,-324.69 128.95,-327.95 123.11,-319.12 118.88,-324.69"/>
</g>
<!-- 4435026992* -->
<g id="node38" class="node">
<title>4435026992*</title>
<ellipse fill="none" stroke="black" cx="360.5" cy="-223.25" rx="27" ry="18"/>
<text text-anchor="middle" x="360.5" y="-218.2" font-family="Times,serif" font-size="14.00">*</text>
</g>
<!-- 4435048912&#45;&gt;4435026992* -->
<g id="edge36" class="edge">
<title>4435048912&#45;&gt;4435026992*</title>
<path fill="none" stroke="black" d="M86.06,-263.32C136.75,-262.66 224.16,-259.17 297.5,-244.25 307,-242.32 317.05,-239.34 326.24,-236.23"/>
<polygon fill="black" stroke="black" points="327.24,-239.59 335.49,-232.94 324.89,-232.99 327.24,-239.59"/>
</g>
<!-- 4435028432 -->
<g id="node13" class="node">
<title>4435028432</title>
<polygon fill="none" stroke="black" points="1937.5,-270.5 1937.5,-344 2023.25,-344 2023.25,-270.5 1937.5,-270.5"/>
<text text-anchor="middle" x="1980.38" y="-326.7" font-family="Times,serif" font-size="14.00">data=0.162</text>
<polyline fill="none" stroke="black" points="1937.5,-319.5 2023.25,-319.5"/>
<text text-anchor="middle" x="1980.38" y="-302.2" font-family="Times,serif" font-size="14.00">grad=0.0000</text>
<polyline fill="none" stroke="black" points="1937.5,-295 2023.25,-295"/>
<text text-anchor="middle" x="1980.38" y="-277.7" font-family="Times,serif" font-size="14.00">deg=1</text>
</g>
<!-- 4435028528+ -->
<g id="node20" class="node">
<title>4435028528+</title>
<ellipse fill="none" stroke="black" cx="2086.25" cy="-272.25" rx="27" ry="18"/>
<text text-anchor="middle" x="2086.25" y="-267.2" font-family="Times,serif" font-size="14.00">+</text>
</g>
<!-- 4435028432&#45;&gt;4435028528+ -->
<g id="edge40" class="edge">
<title>4435028432&#45;&gt;4435028528+</title>
<path fill="none" stroke="black" d="M2023.62,-293.01C2032.61,-289.99 2041.99,-286.83 2050.65,-283.91"/>
<polygon fill="black" stroke="black" points="2051.72,-287.24 2060.08,-280.73 2049.49,-280.61 2051.72,-287.24"/>
</g>
<!-- 4435028432+&#45;&gt;4435028432 -->
<g id="edge4" class="edge">
<title>4435028432+&#45;&gt;4435028432</title>
<path fill="none" stroke="black" d="M1885.9,-312.71C1897.63,-312.03 1911.9,-311.19 1925.72,-310.39"/>
<polygon fill="black" stroke="black" points="1925.87,-313.88 1935.65,-309.81 1925.46,-306.9 1925.87,-313.88"/>
</g>
<!-- 4435026416 -->
<g id="node15" class="node">
<title>4435026416</title>
<polygon fill="none" stroke="black" points="1058.75,-372.5 1058.75,-446 1144.5,-446 1144.5,-372.5 1058.75,-372.5"/>
<text text-anchor="middle" x="1101.62" y="-428.7" font-family="Times,serif" font-size="14.00">data=0.006</text>
<polyline fill="none" stroke="black" points="1058.75,-421.5 1144.5,-421.5"/>
<text text-anchor="middle" x="1101.62" y="-404.2" font-family="Times,serif" font-size="14.00">grad=0.0000</text>
<polyline fill="none" stroke="black" points="1058.75,-397 1144.5,-397"/>
<text text-anchor="middle" x="1101.62" y="-379.7" font-family="Times,serif" font-size="14.00">deg=1</text>
</g>
<!-- 4435026944+ -->
<g id="node36" class="node">
<title>4435026944+</title>
<ellipse fill="none" stroke="black" cx="1207.5" cy="-409.25" rx="27" ry="18"/>
<text text-anchor="middle" x="1207.5" y="-404.2" font-family="Times,serif" font-size="14.00">+</text>
</g>
<!-- 4435026416&#45;&gt;4435026944+ -->
<g id="edge23" class="edge">
<title>4435026416&#45;&gt;4435026944+</title>
<path fill="none" stroke="black" d="M1144.87,-409.25C1152.78,-409.25 1161,-409.25 1168.76,-409.25"/>
<polygon fill="black" stroke="black" points="1168.57,-412.75 1178.57,-409.25 1168.57,-405.75 1168.57,-412.75"/>
</g>
<!-- 4435026416* -->
<g id="node16" class="node">
<title>4435026416*</title>
<ellipse fill="none" stroke="black" cx="995.75" cy="-409.25" rx="27" ry="18"/>
<text text-anchor="middle" x="995.75" y="-404.2" font-family="Times,serif" font-size="14.00">*</text>
</g>
<!-- 4435026416*&#45;&gt;4435026416 -->
<g id="edge5" class="edge">
<title>4435026416*&#45;&gt;4435026416</title>
<path fill="none" stroke="black" d="M1023.23,-409.25C1030.59,-409.25 1038.85,-409.25 1047.16,-409.25"/>
<polygon fill="black" stroke="black" points="1046.94,-412.75 1056.94,-409.25 1046.94,-405.75 1046.94,-412.75"/>
</g>
<!-- 4435028480 -->
<g id="node17" class="node">
<title>4435028480</title>
<polygon fill="none" stroke="black" points="1815.75,-199.5 1815.75,-273 1901.5,-273 1901.5,-199.5 1815.75,-199.5"/>
<text text-anchor="middle" x="1858.62" y="-255.7" font-family="Times,serif" font-size="14.00">data=0.042</text>
<polyline fill="none" stroke="black" points="1815.75,-248.5 1901.5,-248.5"/>
<text text-anchor="middle" x="1858.62" y="-231.2" font-family="Times,serif" font-size="14.00">grad=0.0000</text>
<polyline fill="none" stroke="black" points="1815.75,-224 1901.5,-224"/>
<text text-anchor="middle" x="1858.62" y="-206.7" font-family="Times,serif" font-size="14.00">deg=1</text>
</g>
<!-- 4435028480&#45;&gt;4435028528+ -->
<g id="edge25" class="edge">
<title>4435028480&#45;&gt;4435028528+</title>
<path fill="none" stroke="black" d="M1901.71,-242.4C1934.78,-247.3 1982,-254.44 2023.25,-261.25 2031.56,-262.62 2040.47,-264.16 2048.88,-265.65"/>
<polygon fill="black" stroke="black" points="2047.99,-269.04 2058.44,-267.35 2049.21,-262.15 2047.99,-269.04"/>
</g>
<!-- 4435028480*&#45;&gt;4435028480 -->
<g id="edge6" class="edge">
<title>4435028480*&#45;&gt;4435028480</title>
<path fill="none" stroke="black" d="M1658.32,-226.53C1693.9,-228.27 1758.16,-231.4 1804.1,-233.64"/>
<polygon fill="black" stroke="black" points="1803.69,-237.12 1813.84,-234.12 1804.03,-230.13 1803.69,-237.12"/>
</g>
<!-- 4435028528 -->
<g id="node19" class="node">
<title>4435028528</title>
<polygon fill="none" stroke="black" points="2149.25,-235.5 2149.25,-309 2235,-309 2235,-235.5 2149.25,-235.5"/>
<text text-anchor="middle" x="2192.12" y="-291.7" font-family="Times,serif" font-size="14.00">data=0.204</text>
<polyline fill="none" stroke="black" points="2149.25,-284.5 2235,-284.5"/>
<text text-anchor="middle" x="2192.12" y="-267.2" font-family="Times,serif" font-size="14.00">grad=0.0000</text>
<polyline fill="none" stroke="black" points="2149.25,-260 2235,-260"/>
<text text-anchor="middle" x="2192.12" y="-242.7" font-family="Times,serif" font-size="14.00">deg=0</text>
</g>
<!-- 4435028528+&#45;&gt;4435028528 -->
<g id="edge7" class="edge">
<title>4435028528+&#45;&gt;4435028528</title>
<path fill="none" stroke="black" d="M2113.73,-272.25C2121.09,-272.25 2129.35,-272.25 2137.66,-272.25"/>
<polygon fill="black" stroke="black" points="2137.44,-275.75 2147.44,-272.25 2137.44,-268.75 2137.44,-275.75"/>
</g>
<!-- 4435026512 -->
<g id="node21" class="node">
<title>4435026512</title>
<polygon fill="none" stroke="black" points="1058.75,-465.5 1058.75,-539 1144.5,-539 1144.5,-465.5 1058.75,-465.5"/>
<text text-anchor="middle" x="1101.62" y="-521.7" font-family="Times,serif" font-size="14.00">data=0.176</text>
<polyline fill="none" stroke="black" points="1058.75,-514.5 1144.5,-514.5"/>
<text text-anchor="middle" x="1101.62" y="-497.2" font-family="Times,serif" font-size="14.00">grad=0.0000</text>
<polyline fill="none" stroke="black" points="1058.75,-490 1144.5,-490"/>
<text text-anchor="middle" x="1101.62" y="-472.7" font-family="Times,serif" font-size="14.00">deg=1</text>
</g>
<!-- 4435026512&#45;&gt;4435026944+ -->
<g id="edge38" class="edge">
<title>4435026512&#45;&gt;4435026944+</title>
<path fill="none" stroke="black" d="M1143.98,-465.23C1156.83,-453.72 1170.6,-441.4 1181.93,-431.25"/>
<polygon fill="black" stroke="black" points="1184.18,-433.93 1189.3,-424.65 1179.51,-428.71 1184.18,-433.93"/>
</g>
<!-- 4435026512+ -->
<g id="node22" class="node">
<title>4435026512+</title>
<ellipse fill="none" stroke="black" cx="995.75" cy="-502.25" rx="27" ry="18"/>
<text text-anchor="middle" x="995.75" y="-497.2" font-family="Times,serif" font-size="14.00">+</text>
</g>
<!-- 4435026512+&#45;&gt;4435026512 -->
<g id="edge8" class="edge">
<title>4435026512+&#45;&gt;4435026512</title>
<path fill="none" stroke="black" d="M1023.23,-502.25C1030.59,-502.25 1038.85,-502.25 1047.16,-502.25"/>
<polygon fill="black" stroke="black" points="1046.94,-505.75 1056.94,-502.25 1046.94,-498.75 1046.94,-505.75"/>
</g>
<!-- 4435026560 -->
<g id="node23" class="node">
<title>4435026560</title>
<polygon fill="none" stroke="black" points="1482.25,-372.5 1482.25,-446 1568,-446 1568,-372.5 1482.25,-372.5"/>
<text text-anchor="middle" x="1525.12" y="-428.7" font-family="Times,serif" font-size="14.00">data=0.181</text>
<polyline fill="none" stroke="black" points="1482.25,-421.5 1568,-421.5"/>
<text text-anchor="middle" x="1525.12" y="-404.2" font-family="Times,serif" font-size="14.00">grad=0.0000</text>
<polyline fill="none" stroke="black" points="1482.25,-397 1568,-397"/>
<text text-anchor="middle" x="1525.12" y="-379.7" font-family="Times,serif" font-size="14.00">deg=1</text>
</g>
<!-- 4435026560&#45;&gt;4435026080* -->
<g id="edge49" class="edge">
<title>4435026560&#45;&gt;4435026080*</title>
<path fill="none" stroke="black" d="M1568.37,-409.25C1576.28,-409.25 1584.5,-409.25 1592.26,-409.25"/>
<polygon fill="black" stroke="black" points="1592.07,-412.75 1602.07,-409.25 1592.07,-405.75 1592.07,-412.75"/>
</g>
<!-- 4435026560relu -->
<g id="node24" class="node">
<title>4435026560relu</title>
<ellipse fill="none" stroke="black" cx="1419.25" cy="-409.25" rx="27" ry="18"/>
<text text-anchor="middle" x="1419.25" y="-404.2" font-family="Times,serif" font-size="14.00">relu</text>
</g>
<!-- 4435026560relu&#45;&gt;4435026560 -->
<g id="edge9" class="edge">
<title>4435026560relu&#45;&gt;4435026560</title>
<path fill="none" stroke="black" d="M1446.73,-409.25C1454.09,-409.25 1462.35,-409.25 1470.66,-409.25"/>
<polygon fill="black" stroke="black" points="1470.44,-412.75 1480.44,-409.25 1470.44,-405.75 1470.44,-412.75"/>
</g>
<!-- 4435059328 -->
<g id="node25" class="node">
<title>4435059328</title>
<polygon fill="none" stroke="black" points="211.75,-161.5 211.75,-235 297.5,-235 297.5,-161.5 211.75,-161.5"/>
<text text-anchor="middle" x="254.62" y="-217.7" font-family="Times,serif" font-size="14.00">data=0.025</text>
<polyline fill="none" stroke="black" points="211.75,-210.5 297.5,-210.5"/>
<text text-anchor="middle" x="254.62" y="-193.2" font-family="Times,serif" font-size="14.00">grad=0.0000</text>
<polyline fill="none" stroke="black" points="211.75,-186 297.5,-186"/>
<text text-anchor="middle" x="254.62" y="-168.7" font-family="Times,serif" font-size="14.00">deg=1</text>
</g>
<!-- 4435059328&#45;&gt;4435026992* -->
<g id="edge43" class="edge">
<title>4435059328&#45;&gt;4435026992*</title>
<path fill="none" stroke="black" d="M297.87,-208.42C306.35,-210.46 315.18,-212.58 323.42,-214.57"/>
<polygon fill="black" stroke="black" points="322.57,-217.96 333.11,-216.9 324.21,-211.16 322.57,-217.96"/>
</g>
<!-- 4435026656 -->
<g id="node26" class="node">
<title>4435026656</title>
<polygon fill="none" stroke="black" points="847,-465.5 847,-539 932.75,-539 932.75,-465.5 847,-465.5"/>
<text text-anchor="middle" x="889.88" y="-521.7" font-family="Times,serif" font-size="14.00">data=0.176</text>
<polyline fill="none" stroke="black" points="847,-514.5 932.75,-514.5"/>
<text text-anchor="middle" x="889.88" y="-497.2" font-family="Times,serif" font-size="14.00">grad=0.0000</text>
<polyline fill="none" stroke="black" points="847,-490 932.75,-490"/>
<text text-anchor="middle" x="889.88" y="-472.7" font-family="Times,serif" font-size="14.00">deg=1</text>
</g>
<!-- 4435026656&#45;&gt;4435026512+ -->
<g id="edge30" class="edge">
<title>4435026656&#45;&gt;4435026512+</title>
<path fill="none" stroke="black" d="M933.12,-502.25C941.03,-502.25 949.25,-502.25 957.01,-502.25"/>
<polygon fill="black" stroke="black" points="956.82,-505.75 966.82,-502.25 956.82,-498.75 956.82,-505.75"/>
</g>
<!-- 4435026656* -->
<g id="node27" class="node">
<title>4435026656*</title>
<ellipse fill="none" stroke="black" cx="784" cy="-502.25" rx="27" ry="18"/>
<text text-anchor="middle" x="784" y="-497.2" font-family="Times,serif" font-size="14.00">*</text>
</g>
<!-- 4435026656*&#45;&gt;4435026656 -->
<g id="edge10" class="edge">
<title>4435026656*&#45;&gt;4435026656</title>
<path fill="none" stroke="black" d="M811.48,-502.25C818.84,-502.25 827.1,-502.25 835.41,-502.25"/>
<polygon fill="black" stroke="black" points="835.19,-505.75 845.19,-502.25 835.19,-498.75 835.19,-505.75"/>
</g>
<!-- 4435059424 -->
<g id="node28" class="node">
<title>4435059424</title>
<polygon fill="none" stroke="black" points="423.5,-279.5 423.5,-353 509.25,-353 509.25,-279.5 423.5,-279.5"/>
<text text-anchor="middle" x="466.38" y="-335.7" font-family="Times,serif" font-size="14.00">data=0.000</text>
<polyline fill="none" stroke="black" points="423.5,-328.5 509.25,-328.5"/>
<text text-anchor="middle" x="466.38" y="-311.2" font-family="Times,serif" font-size="14.00">grad=0.0000</text>
<polyline fill="none" stroke="black" points="423.5,-304 509.25,-304"/>
<text text-anchor="middle" x="466.38" y="-286.7" font-family="Times,serif" font-size="14.00">deg=1</text>
</g>
<!-- 4435026800+ -->
<g id="node30" class="node">
<title>4435026800+</title>
<ellipse fill="none" stroke="black" cx="572.25" cy="-316.25" rx="27" ry="18"/>
<text text-anchor="middle" x="572.25" y="-311.2" font-family="Times,serif" font-size="14.00">+</text>
</g>
<!-- 4435059424&#45;&gt;4435026800+ -->
<g id="edge48" class="edge">
<title>4435059424&#45;&gt;4435026800+</title>
<path fill="none" stroke="black" d="M509.62,-316.25C517.53,-316.25 525.75,-316.25 533.51,-316.25"/>
<polygon fill="black" stroke="black" points="533.32,-319.75 543.32,-316.25 533.32,-312.75 533.32,-319.75"/>
</g>
<!-- 4435026800 -->
<g id="node29" class="node">
<title>4435026800</title>
<polygon fill="none" stroke="black" points="635.25,-279.5 635.25,-353 721,-353 721,-279.5 635.25,-279.5"/>
<text text-anchor="middle" x="678.12" y="-335.7" font-family="Times,serif" font-size="14.00">data=0.025</text>
<polyline fill="none" stroke="black" points="635.25,-328.5 721,-328.5"/>
<text text-anchor="middle" x="678.12" y="-311.2" font-family="Times,serif" font-size="14.00">grad=0.0000</text>
<polyline fill="none" stroke="black" points="635.25,-304 721,-304"/>
<text text-anchor="middle" x="678.12" y="-286.7" font-family="Times,serif" font-size="14.00">deg=1</text>
</g>
<!-- 4435026896relu -->
<g id="node34" class="node">
<title>4435026896relu</title>
<ellipse fill="none" stroke="black" cx="784" cy="-316.25" rx="27" ry="18"/>
<text text-anchor="middle" x="784" y="-311.2" font-family="Times,serif" font-size="14.00">relu</text>
</g>
<!-- 4435026800&#45;&gt;4435026896relu -->
<g id="edge35" class="edge">
<title>4435026800&#45;&gt;4435026896relu</title>
<path fill="none" stroke="black" d="M721.37,-316.25C729.28,-316.25 737.5,-316.25 745.26,-316.25"/>
<polygon fill="black" stroke="black" points="745.07,-319.75 755.07,-316.25 745.07,-312.75 745.07,-319.75"/>
</g>
<!-- 4435026800+&#45;&gt;4435026800 -->
<g id="edge11" class="edge">
<title>4435026800+&#45;&gt;4435026800</title>
<path fill="none" stroke="black" d="M599.73,-316.25C607.09,-316.25 615.35,-316.25 623.66,-316.25"/>
<polygon fill="black" stroke="black" points="623.44,-319.75 633.44,-316.25 623.44,-312.75 623.44,-319.75"/>
</g>
<!-- 4435059664 -->
<g id="node31" class="node">
<title>4435059664</title>
<polygon fill="none" stroke="black" points="211.75,-305.5 211.75,-379 297.5,-379 297.5,-305.5 211.75,-305.5"/>
<text text-anchor="middle" x="254.62" y="-361.7" font-family="Times,serif" font-size="14.00">data=0.639</text>
<polyline fill="none" stroke="black" points="211.75,-354.5 297.5,-354.5"/>
<text text-anchor="middle" x="254.62" y="-337.2" font-family="Times,serif" font-size="14.00">grad=0.0000</text>
<polyline fill="none" stroke="black" points="211.75,-330 297.5,-330"/>
<text text-anchor="middle" x="254.62" y="-312.7" font-family="Times,serif" font-size="14.00">deg=1</text>
</g>
<!-- 4435059664&#45;&gt;4435027280+ -->
<g id="edge24" class="edge">
<title>4435059664&#45;&gt;4435027280+</title>
<path fill="none" stroke="black" d="M297.87,-369.5C308.91,-376.62 320.55,-384.13 330.71,-390.68"/>
<polygon fill="black" stroke="black" points="328.72,-393.56 339.02,-396.04 332.52,-387.68 328.72,-393.56"/>
</g>
<!-- 4435059664*&#45;&gt;4435059664 -->
<g id="edge12" class="edge">
<title>4435059664*&#45;&gt;4435059664</title>
<path fill="none" stroke="black" d="M176.23,-342.25C183.59,-342.25 191.85,-342.25 200.16,-342.25"/>
<polygon fill="black" stroke="black" points="199.94,-345.75 209.94,-342.25 199.94,-338.75 199.94,-345.75"/>
</g>
<!-- 4435026896 -->
<g id="node33" class="node">
<title>4435026896</title>
<polygon fill="none" stroke="black" points="847,-279.5 847,-353 932.75,-353 932.75,-279.5 847,-279.5"/>
<text text-anchor="middle" x="889.88" y="-335.7" font-family="Times,serif" font-size="14.00">data=0.025</text>
<polyline fill="none" stroke="black" points="847,-328.5 932.75,-328.5"/>
<text text-anchor="middle" x="889.88" y="-311.2" font-family="Times,serif" font-size="14.00">grad=0.0000</text>
<polyline fill="none" stroke="black" points="847,-304 932.75,-304"/>
<text text-anchor="middle" x="889.88" y="-286.7" font-family="Times,serif" font-size="14.00">deg=2</text>
</g>
<!-- 4435026896&#45;&gt;4435026416* -->
<g id="edge32" class="edge">
<title>4435026896&#45;&gt;4435026416*</title>
<path fill="none" stroke="black" d="M932.23,-353.27C945.08,-364.78 958.85,-377.1 970.18,-387.25"/>
<polygon fill="black" stroke="black" points="967.76,-389.79 977.55,-393.85 972.43,-384.57 967.76,-389.79"/>
</g>
<!-- 4435029056* -->
<g id="node40" class="node">
<title>4435029056*</title>
<ellipse fill="none" stroke="black" cx="995.75" cy="-223.25" rx="27" ry="18"/>
<text text-anchor="middle" x="995.75" y="-218.2" font-family="Times,serif" font-size="14.00">*</text>
</g>
<!-- 4435026896&#45;&gt;4435029056* -->
<g id="edge28" class="edge">
<title>4435026896&#45;&gt;4435029056*</title>
<path fill="none" stroke="black" d="M932.23,-279.23C945.08,-267.72 958.85,-255.4 970.18,-245.25"/>
<polygon fill="black" stroke="black" points="972.43,-247.93 977.55,-238.65 967.76,-242.71 972.43,-247.93"/>
</g>
<!-- 4435026896relu&#45;&gt;4435026896 -->
<g id="edge13" class="edge">
<title>4435026896relu&#45;&gt;4435026896</title>
<path fill="none" stroke="black" d="M811.48,-316.25C818.84,-316.25 827.1,-316.25 835.41,-316.25"/>
<polygon fill="black" stroke="black" points="835.19,-319.75 845.19,-316.25 835.19,-312.75 835.19,-319.75"/>
</g>
<!-- 4435026944 -->
<g id="node35" class="node">
<title>4435026944</title>
<polygon fill="none" stroke="black" points="1270.5,-372.5 1270.5,-446 1356.25,-446 1356.25,-372.5 1270.5,-372.5"/>
<text text-anchor="middle" x="1313.38" y="-428.7" font-family="Times,serif" font-size="14.00">data=0.181</text>
<polyline fill="none" stroke="black" points="1270.5,-421.5 1356.25,-421.5"/>
<text text-anchor="middle" x="1313.38" y="-404.2" font-family="Times,serif" font-size="14.00">grad=0.0000</text>
<polyline fill="none" stroke="black" points="1270.5,-397 1356.25,-397"/>
<text text-anchor="middle" x="1313.38" y="-379.7" font-family="Times,serif" font-size="14.00">deg=1</text>
</g>
<!-- 4435026944&#45;&gt;4435026560relu -->
<g id="edge27" class="edge">
<title>4435026944&#45;&gt;4435026560relu</title>
<path fill="none" stroke="black" d="M1356.62,-409.25C1364.53,-409.25 1372.75,-409.25 1380.51,-409.25"/>
<polygon fill="black" stroke="black" points="1380.32,-412.75 1390.32,-409.25 1380.32,-405.75 1380.32,-412.75"/>
</g>
<!-- 4435026944+&#45;&gt;4435026944 -->
<g id="edge14" class="edge">
<title>4435026944+&#45;&gt;4435026944</title>
<path fill="none" stroke="black" d="M1234.98,-409.25C1242.34,-409.25 1250.6,-409.25 1258.91,-409.25"/>
<polygon fill="black" stroke="black" points="1258.69,-412.75 1268.69,-409.25 1258.69,-405.75 1258.69,-412.75"/>
</g>
<!-- 4435026992 -->
<g id="node37" class="node">
<title>4435026992</title>
<polygon fill="none" stroke="black" points="423.5,-186.5 423.5,-260 509.25,-260 509.25,-186.5 423.5,-186.5"/>
<text text-anchor="middle" x="466.38" y="-242.7" font-family="Times,serif" font-size="14.00">data=0.025</text>
<polyline fill="none" stroke="black" points="423.5,-235.5 509.25,-235.5"/>
<text text-anchor="middle" x="466.38" y="-218.2" font-family="Times,serif" font-size="14.00">grad=0.0000</text>
<polyline fill="none" stroke="black" points="423.5,-211 509.25,-211"/>
<text text-anchor="middle" x="466.38" y="-193.7" font-family="Times,serif" font-size="14.00">deg=1</text>
</g>
<!-- 4435026992&#45;&gt;4435026800+ -->
<g id="edge50" class="edge">
<title>4435026992&#45;&gt;4435026800+</title>
<path fill="none" stroke="black" d="M508.73,-260.27C521.58,-271.78 535.35,-284.1 546.68,-294.25"/>
<polygon fill="black" stroke="black" points="544.26,-296.79 554.05,-300.85 548.93,-291.57 544.26,-296.79"/>
</g>
<!-- 4435026992*&#45;&gt;4435026992 -->
<g id="edge15" class="edge">
<title>4435026992*&#45;&gt;4435026992</title>
<path fill="none" stroke="black" d="M387.98,-223.25C395.34,-223.25 403.6,-223.25 411.91,-223.25"/>
<polygon fill="black" stroke="black" points="411.69,-226.75 421.69,-223.25 411.69,-219.75 411.69,-226.75"/>
</g>
<!-- 4435029056 -->
<g id="node39" class="node">
<title>4435029056</title>
<polygon fill="none" stroke="black" points="1058.75,-186.5 1058.75,-260 1144.5,-260 1144.5,-186.5 1058.75,-186.5"/>
<text text-anchor="middle" x="1101.62" y="-242.7" font-family="Times,serif" font-size="14.00">data=0.017</text>
<polyline fill="none" stroke="black" points="1058.75,-235.5 1144.5,-235.5"/>
<text text-anchor="middle" x="1101.62" y="-218.2" font-family="Times,serif" font-size="14.00">grad=0.0000</text>
<polyline fill="none" stroke="black" points="1058.75,-211 1144.5,-211"/>
<text text-anchor="middle" x="1101.62" y="-193.7" font-family="Times,serif" font-size="14.00">deg=1</text>
</g>
<!-- 4435029152+ -->
<g id="node42" class="node">
<title>4435029152+</title>
<ellipse fill="none" stroke="black" cx="1207.5" cy="-223.25" rx="27" ry="18"/>
<text text-anchor="middle" x="1207.5" y="-218.2" font-family="Times,serif" font-size="14.00">+</text>
</g>
<!-- 4435029056&#45;&gt;4435029152+ -->
<g id="edge55" class="edge">
<title>4435029056&#45;&gt;4435029152+</title>
<path fill="none" stroke="black" d="M1144.87,-223.25C1152.78,-223.25 1161,-223.25 1168.76,-223.25"/>
<polygon fill="black" stroke="black" points="1168.57,-226.75 1178.57,-223.25 1168.57,-219.75 1168.57,-226.75"/>
</g>
<!-- 4435029056*&#45;&gt;4435029056 -->
<g id="edge16" class="edge">
<title>4435029056*&#45;&gt;4435029056</title>
<path fill="none" stroke="black" d="M1023.23,-223.25C1030.59,-223.25 1038.85,-223.25 1047.16,-223.25"/>
<polygon fill="black" stroke="black" points="1046.94,-226.75 1056.94,-223.25 1046.94,-219.75 1046.94,-226.75"/>
</g>
<!-- 4435029152 -->
<g id="node41" class="node">
<title>4435029152</title>
<polygon fill="none" stroke="black" points="1270.5,-187.5 1270.5,-261 1356.25,-261 1356.25,-187.5 1270.5,-187.5"/>
<text text-anchor="middle" x="1313.38" y="-243.7" font-family="Times,serif" font-size="14.00">data=0.488</text>
<polyline fill="none" stroke="black" points="1270.5,-236.5 1356.25,-236.5"/>
<text text-anchor="middle" x="1313.38" y="-219.2" font-family="Times,serif" font-size="14.00">grad=0.0000</text>
<polyline fill="none" stroke="black" points="1270.5,-212 1356.25,-212"/>
<text text-anchor="middle" x="1313.38" y="-194.7" font-family="Times,serif" font-size="14.00">deg=1</text>
</g>
<!-- 4435029152&#45;&gt;4435026032relu -->
<g id="edge31" class="edge">
<title>4435029152&#45;&gt;4435026032relu</title>
<path fill="none" stroke="black" d="M1356.62,-224.66C1364.53,-224.73 1372.75,-224.81 1380.51,-224.89"/>
<polygon fill="black" stroke="black" points="1380.29,-228.38 1390.32,-224.98 1380.36,-221.38 1380.29,-228.38"/>
</g>
<!-- 4435029152+&#45;&gt;4435029152 -->
<g id="edge17" class="edge">
<title>4435029152+&#45;&gt;4435029152</title>
<path fill="none" stroke="black" d="M1234.98,-223.5C1242.34,-223.58 1250.6,-223.66 1258.91,-223.74"/>
<polygon fill="black" stroke="black" points="1258.65,-227.23 1268.69,-223.83 1258.72,-220.23 1258.65,-227.23"/>
</g>
<!-- 4435029200 -->
<g id="node43" class="node">
<title>4435029200</title>
<polygon fill="none" stroke="black" points="1058.75,-93.5 1058.75,-167 1144.5,-167 1144.5,-93.5 1058.75,-93.5"/>
<text text-anchor="middle" x="1101.62" y="-149.7" font-family="Times,serif" font-size="14.00">data=0.471</text>
<polyline fill="none" stroke="black" points="1058.75,-142.5 1144.5,-142.5"/>
<text text-anchor="middle" x="1101.62" y="-125.2" font-family="Times,serif" font-size="14.00">grad=0.0000</text>
<polyline fill="none" stroke="black" points="1058.75,-118 1144.5,-118"/>
<text text-anchor="middle" x="1101.62" y="-100.7" font-family="Times,serif" font-size="14.00">deg=1</text>
</g>
<!-- 4435029200&#45;&gt;4435029152+ -->
<g id="edge53" class="edge">
<title>4435029200&#45;&gt;4435029152+</title>
<path fill="none" stroke="black" d="M1143.98,-167.27C1156.83,-178.78 1170.6,-191.1 1181.93,-201.25"/>
<polygon fill="black" stroke="black" points="1179.51,-203.79 1189.3,-207.85 1184.18,-198.57 1179.51,-203.79"/>
</g>
<!-- 4435029200+&#45;&gt;4435029200 -->
<g id="edge18" class="edge">
<title>4435029200+&#45;&gt;4435029200</title>
<path fill="none" stroke="black" d="M1023.23,-130.25C1030.59,-130.25 1038.85,-130.25 1047.16,-130.25"/>
<polygon fill="black" stroke="black" points="1046.94,-133.75 1056.94,-130.25 1046.94,-126.75 1046.94,-133.75"/>
</g>
<!-- 4435059952 -->
<g id="node45" class="node">
<title>4435059952</title>
<polygon fill="none" stroke="black" points="635.25,-372.5 635.25,-446 721,-446 721,-372.5 635.25,-372.5"/>
<text text-anchor="middle" x="678.12" y="-428.7" font-family="Times,serif" font-size="14.00">data=0.639</text>
<polyline fill="none" stroke="black" points="635.25,-421.5 721,-421.5"/>
<text text-anchor="middle" x="678.12" y="-404.2" font-family="Times,serif" font-size="14.00">grad=0.0000</text>
<polyline fill="none" stroke="black" points="635.25,-397 721,-397"/>
<text text-anchor="middle" x="678.12" y="-379.7" font-family="Times,serif" font-size="14.00">deg=2</text>
</g>
<!-- 4435059952&#45;&gt;4435026128* -->
<g id="edge46" class="edge">
<title>4435059952&#45;&gt;4435026128*</title>
<path fill="none" stroke="black" d="M714.81,-372.17C717.08,-368.94 719.18,-365.62 721,-362.25 757.23,-295.04 773.36,-205.27 779.6,-159.6"/>
<polygon fill="black" stroke="black" points="783.03,-160.33 780.85,-149.97 776.09,-159.43 783.03,-160.33"/>
</g>
<!-- 4435059952&#45;&gt;4435026656* -->
<g id="edge52" class="edge">
<title>4435059952&#45;&gt;4435026656*</title>
<path fill="none" stroke="black" d="M720.48,-446.27C733.33,-457.78 747.1,-470.1 758.43,-480.25"/>
<polygon fill="black" stroke="black" points="756.01,-482.79 765.8,-486.85 760.68,-477.57 756.01,-482.79"/>
</g>
<!-- 4435059952relu -->
<g id="node46" class="node">
<title>4435059952relu</title>
<ellipse fill="none" stroke="black" cx="572.25" cy="-409.25" rx="27" ry="18"/>
<text text-anchor="middle" x="572.25" y="-404.2" font-family="Times,serif" font-size="14.00">relu</text>
</g>
<!-- 4435059952relu&#45;&gt;4435059952 -->
<g id="edge19" class="edge">
<title>4435059952relu&#45;&gt;4435059952</title>
<path fill="none" stroke="black" d="M599.73,-409.25C607.09,-409.25 615.35,-409.25 623.66,-409.25"/>
<polygon fill="black" stroke="black" points="623.44,-412.75 633.44,-409.25 623.44,-405.75 623.44,-412.75"/>
</g>
<!-- 4435027280 -->
<g id="node47" class="node">
<title>4435027280</title>
<polygon fill="none" stroke="black" points="423.5,-372.5 423.5,-446 509.25,-446 509.25,-372.5 423.5,-372.5"/>
<text text-anchor="middle" x="466.38" y="-428.7" font-family="Times,serif" font-size="14.00">data=0.639</text>
<polyline fill="none" stroke="black" points="423.5,-421.5 509.25,-421.5"/>
<text text-anchor="middle" x="466.38" y="-404.2" font-family="Times,serif" font-size="14.00">grad=0.0000</text>
<polyline fill="none" stroke="black" points="423.5,-397 509.25,-397"/>
<text text-anchor="middle" x="466.38" y="-379.7" font-family="Times,serif" font-size="14.00">deg=1</text>
</g>
<!-- 4435027280&#45;&gt;4435059952relu -->
<g id="edge44" class="edge">
<title>4435027280&#45;&gt;4435059952relu</title>
<path fill="none" stroke="black" d="M509.62,-409.25C517.53,-409.25 525.75,-409.25 533.51,-409.25"/>
<polygon fill="black" stroke="black" points="533.32,-412.75 543.32,-409.25 533.32,-405.75 533.32,-412.75"/>
</g>
<!-- 4435027280+&#45;&gt;4435027280 -->
<g id="edge20" class="edge">
<title>4435027280+&#45;&gt;4435027280</title>
<path fill="none" stroke="black" d="M387.98,-409.25C395.34,-409.25 403.6,-409.25 411.91,-409.25"/>
<polygon fill="black" stroke="black" points="411.69,-412.75 421.69,-409.25 411.69,-405.75 411.69,-412.75"/>
</g>
<!-- 4435060192 -->
<g id="node49" class="node">
<title>4435060192</title>
<polygon fill="none" stroke="black" points="635.25,-465.5 635.25,-539 721,-539 721,-465.5 635.25,-465.5"/>
<text text-anchor="middle" x="678.12" y="-521.7" font-family="Times,serif" font-size="14.00">data=0.275</text>
<polyline fill="none" stroke="black" points="635.25,-514.5 721,-514.5"/>
<text text-anchor="middle" x="678.12" y="-497.2" font-family="Times,serif" font-size="14.00">grad=0.0000</text>
<polyline fill="none" stroke="black" points="635.25,-490 721,-490"/>
<text text-anchor="middle" x="678.12" y="-472.7" font-family="Times,serif" font-size="14.00">deg=1</text>
</g>
<!-- 4435060192&#45;&gt;4435026656* -->
<g id="edge56" class="edge">
<title>4435060192&#45;&gt;4435026656*</title>
<path fill="none" stroke="black" d="M721.37,-502.25C729.28,-502.25 737.5,-502.25 745.26,-502.25"/>
<polygon fill="black" stroke="black" points="745.07,-505.75 755.07,-502.25 745.07,-498.75 745.07,-505.75"/>
</g>
<!-- 4435060240 -->
<g id="node50" class="node">
<title>4435060240</title>
<polygon fill="none" stroke="black" points="847,-558.5 847,-632 932.75,-632 932.75,-558.5 847,-558.5"/>
<text text-anchor="middle" x="889.88" y="-614.7" font-family="Times,serif" font-size="14.00">data=0.000</text>
<polyline fill="none" stroke="black" points="847,-607.5 932.75,-607.5"/>
<text text-anchor="middle" x="889.88" y="-590.2" font-family="Times,serif" font-size="14.00">grad=0.0000</text>
<polyline fill="none" stroke="black" points="847,-583 932.75,-583"/>
<text text-anchor="middle" x="889.88" y="-565.7" font-family="Times,serif" font-size="14.00">deg=1</text>
</g>
<!-- 4435060240&#45;&gt;4435026512+ -->
<g id="edge39" class="edge">
<title>4435060240&#45;&gt;4435026512+</title>
<path fill="none" stroke="black" d="M932.23,-558.23C945.08,-546.72 958.85,-534.4 970.18,-524.25"/>
<polygon fill="black" stroke="black" points="972.43,-526.93 977.55,-517.65 967.76,-521.71 972.43,-526.93"/>
</g>
<!-- 4435060288 -->
<g id="node51" class="node">
<title>4435060288</title>
<polygon fill="none" stroke="black" points="847,-372.5 847,-446 932.75,-446 932.75,-372.5 847,-372.5"/>
<text text-anchor="middle" x="889.88" y="-428.7" font-family="Times,serif" font-size="14.00">data=0.223</text>
<polyline fill="none" stroke="black" points="847,-421.5 932.75,-421.5"/>
<text text-anchor="middle" x="889.88" y="-404.2" font-family="Times,serif" font-size="14.00">grad=0.0000</text>
<polyline fill="none" stroke="black" points="847,-397 932.75,-397"/>
<text text-anchor="middle" x="889.88" y="-379.7" font-family="Times,serif" font-size="14.00">deg=1</text>
</g>
<!-- 4435060288&#45;&gt;4435026416* -->
<g id="edge33" class="edge">
<title>4435060288&#45;&gt;4435026416*</title>
<path fill="none" stroke="black" d="M933.12,-409.25C941.03,-409.25 949.25,-409.25 957.01,-409.25"/>
<polygon fill="black" stroke="black" points="956.82,-412.75 966.82,-409.25 956.82,-405.75 956.82,-412.75"/>
</g>
<!-- 4435060384 -->
<g id="node52" class="node">
<title>4435060384</title>
<polygon fill="none" stroke="black" points="847,-93.5 847,-167 932.75,-167 932.75,-93.5 847,-93.5"/>
<text text-anchor="middle" x="889.88" y="-149.7" font-family="Times,serif" font-size="14.00">data=0.000</text>
<polyline fill="none" stroke="black" points="847,-142.5 932.75,-142.5"/>
<text text-anchor="middle" x="889.88" y="-125.2" font-family="Times,serif" font-size="14.00">grad=0.0000</text>
<polyline fill="none" stroke="black" points="847,-118 932.75,-118"/>
<text text-anchor="middle" x="889.88" y="-100.7" font-family="Times,serif" font-size="14.00">deg=1</text>
</g>
<!-- 4435060384&#45;&gt;4435029200+ -->
<g id="edge37" class="edge">
<title>4435060384&#45;&gt;4435029200+</title>
<path fill="none" stroke="black" d="M933.12,-130.25C941.03,-130.25 949.25,-130.25 957.01,-130.25"/>
<polygon fill="black" stroke="black" points="956.82,-133.75 966.82,-130.25 956.82,-126.75 956.82,-133.75"/>
</g>
<!-- 4435060480 -->
<g id="node53" class="node">
<title>4435060480</title>
<polygon fill="none" stroke="black" points="635.25,-93.5 635.25,-167 721,-167 721,-93.5 635.25,-93.5"/>
<text text-anchor="middle" x="678.12" y="-149.7" font-family="Times,serif" font-size="14.00">data=0.736</text>
<polyline fill="none" stroke="black" points="635.25,-142.5 721,-142.5"/>
<text text-anchor="middle" x="678.12" y="-125.2" font-family="Times,serif" font-size="14.00">grad=0.0000</text>
<polyline fill="none" stroke="black" points="635.25,-118 721,-118"/>
<text text-anchor="middle" x="678.12" y="-100.7" font-family="Times,serif" font-size="14.00">deg=1</text>
</g>
<!-- 4435060480&#45;&gt;4435026128* -->
<g id="edge47" class="edge">
<title>4435060480&#45;&gt;4435026128*</title>
<path fill="none" stroke="black" d="M721.37,-130.25C729.28,-130.25 737.5,-130.25 745.26,-130.25"/>
<polygon fill="black" stroke="black" points="745.07,-133.75 755.07,-130.25 745.07,-126.75 745.07,-133.75"/>
</g>
<!-- 4435060576 -->
<g id="node54" class="node">
<title>4435060576</title>
<polygon fill="none" stroke="black" points="847,-186.5 847,-260 932.75,-260 932.75,-186.5 847,-186.5"/>
<text text-anchor="middle" x="889.88" y="-242.7" font-family="Times,serif" font-size="14.00">data=0.677</text>
<polyline fill="none" stroke="black" points="847,-235.5 932.75,-235.5"/>
<text text-anchor="middle" x="889.88" y="-218.2" font-family="Times,serif" font-size="14.00">grad=0.0000</text>
<polyline fill="none" stroke="black" points="847,-211 932.75,-211"/>
<text text-anchor="middle" x="889.88" y="-193.7" font-family="Times,serif" font-size="14.00">deg=1</text>
</g>
<!-- 4435060576&#45;&gt;4435029056* -->
<g id="edge51" class="edge">
<title>4435060576&#45;&gt;4435029056*</title>
<path fill="none" stroke="black" d="M933.12,-223.25C941.03,-223.25 949.25,-223.25 957.01,-223.25"/>
<polygon fill="black" stroke="black" points="956.82,-226.75 966.82,-223.25 956.82,-219.75 956.82,-226.75"/>
</g>
</g>
</svg>