<?xml version="1.0" encoding="UTF-8" standalone="no"?>
<!DOCTYPE svg PUBLIC "-//W3C//DTD SVG 1.1//EN"
 "http://www.w3.org/Graphics/SVG/1.1/DTD/svg11.dtd">
<!-- Generated by graphviz version 9.0.0 (20230911.1827)
 -->
<!-- Pages: 1 -->
<svg width="941pt" height="269pt"
 viewBox="0.00 0.00 940.75 268.50" xmlns="http://www.w3.org/2000/svg" xmlns:xlink="http://www.w3.org/1999/xlink">
<g id="graph0" class="graph" transform="scale(1 1) rotate(0) translate(4 264.5)">
<polygon fill="white" stroke="none" points="-4,4 -4,-264.5 936.75,-264.5 936.75,4 -4,4"/>
<!-- 4434548816 -->
<g id="node1" class="node">
<title>4434548816</title>
<polygon fill="none" stroke="black" points="211.75,-46.5 211.75,-120 297.5,-120 297.5,-46.5 211.75,-46.5"/>
<text text-anchor="middle" x="254.62" y="-102.7" font-family="Times,serif" font-size="14.00">data=&#45;2.000</text>
<polyline fill="none" stroke="black" points="211.75,-95.5 297.5,-95.5"/>
<text text-anchor="middle" x="254.62" y="-78.2" font-family="Times,serif" font-size="14.00">grad=1.0000</text>
<polyline fill="none" stroke="black" points="211.75,-71 297.5,-71"/>
<text text-anchor="middle" x="254.62" y="-53.7" font-family="Times,serif" font-size="14.00">deg=0</text>
</g>
<!-- 4434549344+ -->
<g id="node4" class="node">
<title>4434549344+</title>
<ellipse fill="none" stroke="black" cx="360.5" cy="-129.25" rx="27" ry="18"/>
<text text-anchor="middle" x="360.5" y="-124.2" font-family="Times,serif" font-size="14.00">+</text>
</g>
<!-- 4434548816&#45;&gt;4434549344+ -->
<g id="edge14" class="edge">
<title>4434548816&#45;&gt;4434549344+</title>
<path fill="none" stroke="black" d="M297.87,-101.96C307.64,-106.29 317.89,-110.82 327.16,-114.93"/>
<polygon fill="black" stroke="black" points="325.56,-118.05 336.12,-118.9 328.39,-111.65 325.56,-118.05"/>
</g>
<!-- 4434548816* -->
<g id="node2" class="node">
<title>4434548816*</title>
<ellipse fill="none" stroke="black" cx="148.75" cy="-83.25" rx="27" ry="18"/>
<text text-anchor="middle" x="148.75" y="-78.2" font-family="Times,serif" font-size="14.00">*</text>
</g>
<!-- 4434548816*&#45;&gt;4434548816 -->
<g id="edge1" class="edge">
<title>4434548816*&#45;&gt;4434548816</title>
<path fill="none" stroke="black" d="M176.23,-83.25C183.59,-83.25 191.85,-83.25 200.16,-83.25"/>
<polygon fill="black" stroke="black" points="199.94,-86.75 209.94,-83.25 199.94,-79.75 199.94,-86.75"/>
</g>
<!-- 4434549344 -->
<g id="node3" class="node">
<title>4434549344</title>
<polygon fill="none" stroke="black" points="423.5,-92.5 423.5,-166 509.25,-166 509.25,-92.5 423.5,-92.5"/>
<text text-anchor="middle" x="466.38" y="-148.7" font-family="Times,serif" font-size="14.00">data=2.000</text>
<polyline fill="none" stroke="black" points="423.5,-141.5 509.25,-141.5"/>
<text text-anchor="middle" x="466.38" y="-124.2" font-family="Times,serif" font-size="14.00">grad=1.0000</text>
<polyline fill="none" stroke="black" points="423.5,-117 509.25,-117"/>
<text text-anchor="middle" x="466.38" y="-99.7" font-family="Times,serif" font-size="14.00">deg=0</text>
</g>
<!-- 4434547568+ -->
<g id="node10" class="node">
<title>4434547568+</title>
<ellipse fill="none" stroke="black" cx="572.25" cy="-175.25" rx="27" ry="18"/>
<text text-anchor="middle" x="572.25" y="-170.2" font-family="Times,serif" font-size="14.00">+</text>
</g>
<!-- 4434549344&#45;&gt;4434547568+ -->
<g id="edge10" class="edge">
<title>4434549344&#45;&gt;4434547568+</title>
<path fill="none" stroke="black" d="M509.62,-147.96C519.39,-152.29 529.64,-156.82 538.91,-160.93"/>
<polygon fill="black" stroke="black" points="537.31,-164.05 547.87,-164.9 540.14,-157.65 537.31,-164.05"/>
</g>
<!-- 4434549344+&#45;&gt;4434549344 -->
<g id="edge2" class="edge">
<title>4434549344+&#45;&gt;4434549344</title>
<path fill="none" stroke="black" d="M387.98,-129.25C395.34,-129.25 403.6,-129.25 411.91,-129.25"/>
<polygon fill="black" stroke="black" points="411.69,-132.75 421.69,-129.25 411.69,-125.75 411.69,-132.75"/>
</g>
<!-- 4434549008 -->
<g id="node5" class="node">
<title>4434549008</title>
<polygon fill="none" stroke="black" points="847,-138.5 847,-212 932.75,-212 932.75,-138.5 847,-138.5"/>
<text text-anchor="middle" x="889.88" y="-194.7" font-family="Times,serif" font-size="14.00">data=6.000</text>
<polyline fill="none" stroke="black" points="847,-187.5 932.75,-187.5"/>
<text text-anchor="middle" x="889.88" y="-170.2" font-family="Times,serif" font-size="14.00">grad=1.0000</text>
<polyline fill="none" stroke="black" points="847,-163 932.75,-163"/>
<text text-anchor="middle" x="889.88" y="-145.7" font-family="Times,serif" font-size="14.00">deg=0</text>
</g>
<!-- 4434549008relu -->
<g id="node6" class="node">
<title>4434549008relu</title>
<ellipse fill="none" stroke="black" cx="784" cy="-175.25" rx="27" ry="18"/>
<text text-anchor="middle" x="784" y="-170.2" font-family="Times,serif" font-size="14.00">relu</text>
</g>
<!-- 4434549008relu&#45;&gt;4434549008 -->
<g id="edge3" class="edge">
<title>4434549008relu&#45;&gt;4434549008</title>
<path fill="none" stroke="black" d="M811.48,-175.25C818.84,-175.25 827.1,-175.25 835.41,-175.25"/>
<polygon fill="black" stroke="black" points="835.19,-178.75 845.19,-175.25 835.19,-171.75 835.19,-178.75"/>
</g>
<!-- 4434554160 -->
<g id="node7" class="node">
<title>4434554160</title>
<polygon fill="none" stroke="black" points="0,-0.5 0,-74 85.75,-74 85.75,-0.5 0,-0.5"/>
<text text-anchor="middle" x="42.88" y="-56.7" font-family="Times,serif" font-size="14.00">data=&#45;1.000</text>
<polyline fill="none" stroke="black" points="0,-49.5 85.75,-49.5"/>
<text text-anchor="middle" x="42.88" y="-32.2" font-family="Times,serif" font-size="14.00">grad=2.0000</text>
<polyline fill="none" stroke="black" points="0,-25 85.75,-25"/>
<text text-anchor="middle" x="42.88" y="-7.7" font-family="Times,serif" font-size="14.00">deg=0</text>
</g>
<!-- 4434554160&#45;&gt;4434548816* -->
<g id="edge8" class="edge">
<title>4434554160&#45;&gt;4434548816*</title>
<path fill="none" stroke="black" d="M86.12,-55.96C95.89,-60.29 106.14,-64.82 115.41,-68.93"/>
<polygon fill="black" stroke="black" points="113.81,-72.05 124.37,-72.9 116.64,-65.65 113.81,-72.05"/>
</g>
<!-- 4434553680 -->
<g id="node8" class="node">
<title>4434553680</title>
<polygon fill="none" stroke="black" points="0,-186.5 0,-260 85.75,-260 85.75,-186.5 0,-186.5"/>
<text text-anchor="middle" x="42.88" y="-242.7" font-family="Times,serif" font-size="14.00">data=2.000</text>
<polyline fill="none" stroke="black" points="0,-235.5 85.75,-235.5"/>
<text text-anchor="middle" x="42.88" y="-218.2" font-family="Times,serif" font-size="14.00">grad=2.0000</text>
<polyline fill="none" stroke="black" points="0,-211 85.75,-211"/>
<text text-anchor="middle" x="42.88" y="-193.7" font-family="Times,serif" font-size="14.00">deg=0</text>
</g>
<!-- 4434549200* -->
<g id="node13" class="node">
<title>4434549200*</title>
<ellipse fill="none" stroke="black" cx="148.75" cy="-176.25" rx="27" ry="18"/>
<text text-anchor="middle" x="148.75" y="-171.2" font-family="Times,serif" font-size="14.00">*</text>
</g>
<!-- 4434553680&#45;&gt;4434549200* -->
<g id="edge11" class="edge">
<title>4434553680&#45;&gt;4434549200*</title>
<path fill="none" stroke="black" d="M86.12,-204.13C95.89,-199.71 106.14,-195.08 115.41,-190.88"/>
<polygon fill="black" stroke="black" points="116.71,-194.14 124.37,-186.83 113.82,-187.76 116.71,-194.14"/>
</g>
<!-- 4434547568 -->
<g id="node9" class="node">
<title>4434547568</title>
<polygon fill="none" stroke="black" points="635.25,-138.5 635.25,-212 721,-212 721,-138.5 635.25,-138.5"/>
<text text-anchor="middle" x="678.12" y="-194.7" font-family="Times,serif" font-size="14.00">data=6.000</text>
<polyline fill="none" stroke="black" points="635.25,-187.5 721,-187.5"/>
<text text-anchor="middle" x="678.12" y="-170.2" font-family="Times,serif" font-size="14.00">grad=1.0000</text>
<polyline fill="none" stroke="black" points="635.25,-163 721,-163"/>
<text text-anchor="middle" x="678.12" y="-145.7" font-family="Times,serif" font-size="14.00">deg=0</text>
</g>
<!-- 4434547568&#45;&gt;4434549008relu -->
<g id="edge9" class="edge">
<title>4434547568&#45;&gt;4434549008relu</title>
<path fill="none" stroke="black" d="M721.37,-175.25C729.28,-175.25 737.5,-175.25 745.26,-175.25"/>
<polygon fill="black" stroke="black" points="745.07,-178.75 755.07,-175.25 745.07,-171.75 745.07,-178.75"/>
</g>
<!-- 4434547568+&#45;&gt;4434547568 -->
<g id="edge4" class="edge">
<title>4434547568+&#45;&gt;4434547568</title>
<path fill="none" stroke="black" d="M599.73,-175.25C607.09,-175.25 615.35,-175.25 623.66,-175.25"/>
<polygon fill="black" stroke="black" points="623.44,-178.75 633.44,-175.25 623.44,-171.75 623.44,-178.75"/>
</g>
<!-- 4434554256 -->
<g id="node11" class="node">
<title>4434554256</title>
<polygon fill="none" stroke="black" points="423.5,-185.5 423.5,-259 509.25,-259 509.25,-185.5 423.5,-185.5"/>
<text text-anchor="middle" x="466.38" y="-241.7" font-family="Times,serif" font-size="14.00">data=4.000</text>
<polyline fill="none" stroke="black" points="423.5,-234.5 509.25,-234.5"/>
<text text-anchor="middle" x="466.38" y="-217.2" font-family="Times,serif" font-size="14.00">grad=1.0000</text>
<polyline fill="none" stroke="black" points="423.5,-210 509.25,-210"/>
<text text-anchor="middle" x="466.38" y="-192.7" font-family="Times,serif" font-size="14.00">deg=0</text>
</g>
<!-- 4434554256&#45;&gt;4434547568+ -->
<g id="edge6" class="edge">
<title>4434554256&#45;&gt;4434547568+</title>
<path fill="none" stroke="black" d="M509.62,-203.13C519.39,-198.71 529.64,-194.08 538.91,-189.88"/>
<polygon fill="black" stroke="black" points="540.21,-193.14 547.87,-185.83 537.32,-186.76 540.21,-193.14"/>
</g>
<!-- 4434549200 -->
<g id="node12" class="node">
<title>4434549200</title>
<polygon fill="none" stroke="black" points="211.75,-139.5 211.75,-213 297.5,-213 297.5,-139.5 211.75,-139.5"/>
<text text-anchor="middle" x="254.62" y="-195.7" font-family="Times,serif" font-size="14.00">data=4.000</text>
<polyline fill="none" stroke="black" points="211.75,-188.5 297.5,-188.5"/>
<text text-anchor="middle" x="254.62" y="-171.2" font-family="Times,serif" font-size="14.00">grad=1.0000</text>
<polyline fill="none" stroke="black" points="211.75,-164 297.5,-164"/>
<text text-anchor="middle" x="254.62" y="-146.7" font-family="Times,serif" font-size="14.00">deg=0</text>
</g>
<!-- 4434549200&#45;&gt;4434549344+ -->
<g id="edge12" class="edge">
<title>4434549200&#45;&gt;4434549344+</title>
<path fill="none" stroke="black" d="M297.87,-157.13C307.64,-152.71 317.89,-148.08 327.16,-143.88"/>
<polygon fill="black" stroke="black" points="328.46,-147.14 336.12,-139.83 325.57,-140.76 328.46,-147.14"/>
</g>
<!-- 4434549200*&#45;&gt;4434549200 -->
<g id="edge5" class="edge">
<title>4434549200*&#45;&gt;4434549200</title>
<path fill="none" stroke="black" d="M176.23,-176.25C183.59,-176.25 191.85,-176.25 200.16,-176.25"/>
<polygon fill="black" stroke="black" points="199.94,-179.75 209.94,-176.25 199.94,-172.75 199.94,-179.75"/>
</g>
<!-- 4434548720 -->
<g id="node14" class="node">
<title>4434548720</title>
<polygon fill="none" stroke="black" points="0,-93.5 0,-167 85.75,-167 85.75,-93.5 0,-93.5"/>
<text text-anchor="middle" x="42.88" y="-149.7" font-family="Times,serif" font-size="14.00">data=2.000</text>
<polyline fill="none" stroke="black" points="0,-142.5 85.75,-142.5"/>
<text text-anchor="middle" x="42.88" y="-125.2" font-family="Times,serif" font-size="14.00">grad=1.0000</text>
<polyline fill="none" stroke="black" points="0,-118 85.75,-118"/>
<text text-anchor="middle" x="42.88" y="-100.7" font-family="Times,serif" font-size="14.00">deg=0</text>
</g>
<!-- 4434548720&#45;&gt;4434548816* -->
<g id="edge7" class="edge">
<title>4434548720&#45;&gt;4434548816*</title>
<path fill="none" stroke="black" d="M86.12,-111.13C95.89,-106.71 106.14,-102.08 115.41,-97.88"/>
<polygon fill="black" stroke="black" points="116.71,-101.14 124.37,-93.83 113.82,-94.76 116.71,-101.14"/>
</g>
<!-- 4434548720&#45;&gt;4434549200* -->
<g id="edge13" class="edge">
<title>4434548720&#45;&gt;4434549200*</title>
<path fill="none" stroke="black" d="M86.12,-148.96C95.89,-153.29 106.14,-157.82 115.41,-161.93"/>
<polygon fill="black" stroke="black" points="113.81,-165.05 124.37,-165.9 116.64,-158.65 113.81,-165.05"/>
</g>
</g>
</svg>