<?xml version="1.0" encoding="utf-8" standalone="no"?>
<!DOCTYPE svg PUBLIC "-//W3C//DTD SVG 1.1//EN"
  "http://www.w3.org/Graphics/SVG/1.1/DTD/svg11.dtd">
<svg xmlns:xlink="http://www.w3.org/1999/xlink" width="372.103125pt" height="211.07625pt" viewBox="0 0 372.103125 211.07625" xmlns="http://www.w3.org/2000/svg" version="1.1">
 <metadata>
  <rdf:RDF xmlns:dc="http://purl.org/dc/elements/1.1/" xmlns:cc="http://creativecommons.org/ns#" xmlns:rdf="http://www.w3.org/1999/02/22-rdf-syntax-ns#">
   <cc:Work>
    <dc:type rdf:resource="http://purl.org/dc/dcmitype/StillImage"/>
    <dc:date>2024-06-13T22:30:53.144473</dc:date>
    <dc:format>image/svg+xml</dc:format>
    <dc:creator>
     <cc:Agent>
      <dc:title>Matplotlib v3.7.1, https://matplotlib.org/</dc:title>
     </cc:Agent>
    </dc:creator>
   </cc:Work>
  </rdf:RDF>
 </metadata>
 <defs>
  <style type="text/css">*{stroke-linejoin: round; stroke-linecap: butt}</style>
 </defs>
 <g id="figure_1">
  <g id="patch_1">
   <path d="M 0 211.07625 
L 372.103125 211.07625 
L 372.103125 0 
L 0 0 
z
" style="fill: #ffffff"/>
  </g>
  <g id="axes_1">
   <g id="patch_2">
    <path d="M 30.103125 173.52 
L 364.903125 173.52 
L 364.903125 7.2 
L 30.103125 7.2 
z
" style="fill: #ffffff"/>
   </g>
   <g id="matplotlib.axis_1">
    <g id="xtick_1">
     <g id="line2d_1">
      <defs>
       <path id="m3c5fea3ac1" d="M 0 0 
L 0 3.5 
" style="stroke: #000000; stroke-width: 0.8"/>
      </defs>
      <g>
       <use xlink:href="#m3c5fea3ac1" x="45.321307" y="173.52" style="stroke: #000000; stroke-width: 0.8"/>
      </g>
     </g>
     <g id="text_1">
      <!-- 0 -->
      <g transform="translate(42.140057 188.118438) scale(0.1 -0.1)">
       <defs>
        <path id="DejaVuSans-30" d="M 2034 4250 
Q 1547 4250 1301 3770 
Q 1056 3291 1056 2328 
Q 1056 1369 1301 889 
Q 1547 409 2034 409 
Q 2525 409 2770 889 
Q 3016 1369 3016 2328 
Q 3016 3291 2770 3770 
Q 2525 4250 2034 4250 
z
M 2034 4750 
Q 2819 4750 3233 4129 
Q 3647 3509 3647 2328 
Q 3647 1150 3233 529 
Q 2819 -91 2034 -91 
Q 1250 -91 836 529 
Q 422 1150 422 2328 
Q 422 3509 836 4129 
Q 1250 4750 2034 4750 
z
" transform="scale(0.015625)"/>
       </defs>
       <use xlink:href="#DejaVuSans-30"/>
      </g>
     </g>
    </g>
    <g id="xtick_2">
     <g id="line2d_2">
      <g>
       <use xlink:href="#m3c5fea3ac1" x="83.462113" y="173.52" style="stroke: #000000; stroke-width: 0.8"/>
      </g>
     </g>
     <g id="text_2">
      <!-- 50 -->
      <g transform="translate(77.099613 188.118438) scale(0.1 -0.1)">
       <defs>
        <path id="DejaVuSans-35" d="M 691 4666 
L 3169 4666 
L 3169 4134 
L 1269 4134 
L 1269 2991 
Q 1406 3038 1543 3061 
Q 1681 3084 1819 3084 
Q 2600 3084 3056 2656 
Q 3513 2228 3513 1497 
Q 3513 744 3044 326 
Q 2575 -91 1722 -91 
Q 1428 -91 1123 -41 
Q 819 9 494 109 
L 494 744 
Q 775 591 1075 516 
Q 1375 441 1709 441 
Q 2250 441 2565 725 
Q 2881 1009 2881 1497 
Q 2881 1984 2565 2268 
Q 2250 2553 1709 2553 
Q 1456 2553 1204 2497 
Q 953 2441 691 2322 
L 691 4666 
z
" transform="scale(0.015625)"/>
       </defs>
       <use xlink:href="#DejaVuSans-35"/>
       <use xlink:href="#DejaVuSans-30" x="63.623047"/>
      </g>
     </g>
    </g>
    <g id="xtick_3">
     <g id="line2d_3">
      <g>
       <use xlink:href="#m3c5fea3ac1" x="121.60292" y="173.52" style="stroke: #000000; stroke-width: 0.8"/>
      </g>
     </g>
     <g id="text_3">
      <!-- 100 -->
      <g transform="translate(112.05917 188.118438) scale(0.1 -0.1)">
       <defs>
        <path id="DejaVuSans-31" d="M 794 531 
L 1825 531 
L 1825 4091 
L 703 3866 
L 703 4441 
L 1819 4666 
L 2450 4666 
L 2450 531 
L 3481 531 
L 3481 0 
L 794 0 
L 794 531 
z
" transform="scale(0.015625)"/>
       </defs>
       <use xlink:href="#DejaVuSans-31"/>
       <use xlink:href="#DejaVuSans-30" x="63.623047"/>
       <use xlink:href="#DejaVuSans-30" x="127.246094"/>
      </g>
     </g>
    </g>
    <g id="xtick_4">
     <g id="line2d_4">
      <g>
       <use xlink:href="#m3c5fea3ac1" x="159.743727" y="173.52" style="stroke: #000000; stroke-width: 0.8"/>
      </g>
     </g>
     <g id="text_4">
      <!-- 150 -->
      <g transform="translate(150.199977 188.118438) scale(0.1 -0.1)">
       <use xlink:href="#DejaVuSans-31"/>
       <use xlink:href="#DejaVuSans-35" x="63.623047"/>
       <use xlink:href="#DejaVuSans-30" x="127.246094"/>
      </g>
     </g>
    </g>
    <g id="xtick_5">
     <g id="line2d_5">
      <g>
       <use xlink:href="#m3c5fea3ac1" x="197.884533" y="173.52" style="stroke: #000000; stroke-width: 0.8"/>
      </g>
     </g>
     <g id="text_5">
      <!-- 200 -->
      <g transform="translate(188.340783 188.118438) scale(0.1 -0.1)">
       <defs>
        <path id="DejaVuSans-32" d="M 1228 531 
L 3431 531 
L 3431 0 
L 469 0 
L 469 531 
Q 828 903 1448 1529 
Q 2069 2156 2228 2338 
Q 2531 2678 2651 2914 
Q 2772 3150 2772 3378 
Q 2772 3750 2511 3984 
Q 2250 4219 1831 4219 
Q 1534 4219 1204 4116 
Q 875 4013 500 3803 
L 500 4441 
Q 881 4594 1212 4672 
Q 1544 4750 1819 4750 
Q 2544 4750 2975 4387 
Q 3406 4025 3406 3419 
Q 3406 3131 3298 2873 
Q 3191 2616 2906 2266 
Q 2828 2175 2409 1742 
Q 1991 1309 1228 531 
z
" transform="scale(0.015625)"/>
       </defs>
       <use xlink:href="#DejaVuSans-32"/>
       <use xlink:href="#DejaVuSans-30" x="63.623047"/>
       <use xlink:href="#DejaVuSans-30" x="127.246094"/>
      </g>
     </g>
    </g>
    <g id="xtick_6">
     <g id="line2d_6">
      <g>
       <use xlink:href="#m3c5fea3ac1" x="236.02534" y="173.52" style="stroke: #000000; stroke-width: 0.8"/>
      </g>
     </g>
     <g id="text_6">
      <!-- 250 -->
      <g transform="translate(226.48159 188.118438) scale(0.1 -0.1)">
       <use xlink:href="#DejaVuSans-32"/>
       <use xlink:href="#DejaVuSans-35" x="63.623047"/>
       <use xlink:href="#DejaVuSans-30" x="127.246094"/>
      </g>
     </g>
    </g>
    <g id="xtick_7">
     <g id="line2d_7">
      <g>
       <use xlink:href="#m3c5fea3ac1" x="274.166146" y="173.52" style="stroke: #000000; stroke-width: 0.8"/>
      </g>
     </g>
     <g id="text_7">
      <!-- 300 -->
      <g transform="translate(264.622396 188.118438) scale(0.1 -0.1)">
       <defs>
        <path id="DejaVuSans-33" d="M 2597 2516 
Q 3050 2419 3304 2112 
Q 3559 1806 3559 1356 
Q 3559 666 3084 287 
Q 2609 -91 1734 -91 
Q 1441 -91 1130 -33 
Q 819 25 488 141 
L 488 750 
Q 750 597 1062 519 
Q 1375 441 1716 441 
Q 2309 441 2620 675 
Q 2931 909 2931 1356 
Q 2931 1769 2642 2001 
Q 2353 2234 1838 2234 
L 1294 2234 
L 1294 2753 
L 1863 2753 
Q 2328 2753 2575 2939 
Q 2822 3125 2822 3475 
Q 2822 3834 2567 4026 
Q 2313 4219 1838 4219 
Q 1578 4219 1281 4162 
Q 984 4106 628 3988 
L 628 4550 
Q 988 4650 1302 4700 
Q 1616 4750 1894 4750 
Q 2613 4750 3031 4423 
Q 3450 4097 3450 3541 
Q 3450 3153 3228 2886 
Q 3006 2619 2597 2516 
z
" transform="scale(0.015625)"/>
       </defs>
       <use xlink:href="#DejaVuSans-33"/>
       <use xlink:href="#DejaVuSans-30" x="63.623047"/>
       <use xlink:href="#DejaVuSans-30" x="127.246094"/>
      </g>
     </g>
    </g>
    <g id="xtick_8">
     <g id="line2d_8">
      <g>
       <use xlink:href="#m3c5fea3ac1" x="312.306953" y="173.52" style="stroke: #000000; stroke-width: 0.8"/>
      </g>
     </g>
     <g id="text_8">
      <!-- 350 -->
      <g transform="translate(302.763203 188.118438) scale(0.1 -0.1)">
       <use xlink:href="#DejaVuSans-33"/>
       <use xlink:href="#DejaVuSans-35" x="63.623047"/>
       <use xlink:href="#DejaVuSans-30" x="127.246094"/>
      </g>
     </g>
    </g>
    <g id="xtick_9">
     <g id="line2d_9">
      <g>
       <use xlink:href="#m3c5fea3ac1" x="350.447759" y="173.52" style="stroke: #000000; stroke-width: 0.8"/>
      </g>
     </g>
     <g id="text_9">
      <!-- 400 -->
      <g transform="translate(340.904009 188.118438) scale(0.1 -0.1)">
       <defs>
        <path id="DejaVuSans-34" d="M 2419 4116 
L 825 1625 
L 2419 1625 
L 2419 4116 
z
M 2253 4666 
L 3047 4666 
L 3047 1625 
L 3713 1625 
L 3713 1100 
L 3047 1100 
L 3047 0 
L 2419 0 
L 2419 1100 
L 313 1100 
L 313 1709 
L 2253 4666 
z
" transform="scale(0.015625)"/>
       </defs>
       <use xlink:href="#DejaVuSans-34"/>
       <use xlink:href="#DejaVuSans-30" x="63.623047"/>
       <use xlink:href="#DejaVuSans-30" x="127.246094"/>
      </g>
     </g>
    </g>
    <g id="text_10">
     <!-- position -->
     <g transform="translate(177.698438 201.796563) scale(0.1 -0.1)">
      <defs>
       <path id="DejaVuSans-70" d="M 1159 525 
L 1159 -1331 
L 581 -1331 
L 581 3500 
L 1159 3500 
L 1159 2969 
Q 1341 3281 1617 3432 
Q 1894 3584 2278 3584 
Q 2916 3584 3314 3078 
Q 3713 2572 3713 1747 
Q 3713 922 3314 415 
Q 2916 -91 2278 -91 
Q 1894 -91 1617 61 
Q 1341 213 1159 525 
z
M 3116 1747 
Q 3116 2381 2855 2742 
Q 2594 3103 2138 3103 
Q 1681 3103 1420 2742 
Q 1159 2381 1159 1747 
Q 1159 1113 1420 752 
Q 1681 391 2138 391 
Q 2594 391 2855 752 
Q 3116 1113 3116 1747 
z
" transform="scale(0.015625)"/>
       <path id="DejaVuSans-6f" d="M 1959 3097 
Q 1497 3097 1228 2736 
Q 959 2375 959 1747 
Q 959 1119 1226 758 
Q 1494 397 1959 397 
Q 2419 397 2687 759 
Q 2956 1122 2956 1747 
Q 2956 2369 2687 2733 
Q 2419 3097 1959 3097 
z
M 1959 3584 
Q 2709 3584 3137 3096 
Q 3566 2609 3566 1747 
Q 3566 888 3137 398 
Q 2709 -91 1959 -91 
Q 1206 -91 779 398 
Q 353 888 353 1747 
Q 353 2609 779 3096 
Q 1206 3584 1959 3584 
z
" transform="scale(0.015625)"/>
       <path id="DejaVuSans-73" d="M 2834 3397 
L 2834 2853 
Q 2591 2978 2328 3040 
Q 2066 3103 1784 3103 
Q 1356 3103 1142 2972 
Q 928 2841 928 2578 
Q 928 2378 1081 2264 
Q 1234 2150 1697 2047 
L 1894 2003 
Q 2506 1872 2764 1633 
Q 3022 1394 3022 966 
Q 3022 478 2636 193 
Q 2250 -91 1575 -91 
Q 1294 -91 989 -36 
Q 684 19 347 128 
L 347 722 
Q 666 556 975 473 
Q 1284 391 1588 391 
Q 1994 391 2212 530 
Q 2431 669 2431 922 
Q 2431 1156 2273 1281 
Q 2116 1406 1581 1522 
L 1381 1569 
Q 847 1681 609 1914 
Q 372 2147 372 2553 
Q 372 3047 722 3315 
Q 1072 3584 1716 3584 
Q 2034 3584 2315 3537 
Q 2597 3491 2834 3397 
z
" transform="scale(0.015625)"/>
       <path id="DejaVuSans-69" d="M 603 3500 
L 1178 3500 
L 1178 0 
L 603 0 
L 603 3500 
z
M 603 4863 
L 1178 4863 
L 1178 4134 
L 603 4134 
L 603 4863 
z
" transform="scale(0.015625)"/>
       <path id="DejaVuSans-74" d="M 1172 4494 
L 1172 3500 
L 2356 3500 
L 2356 3053 
L 1172 3053 
L 1172 1153 
Q 1172 725 1289 603 
Q 1406 481 1766 481 
L 2356 481 
L 2356 0 
L 1766 0 
Q 1100 0 847 248 
Q 594 497 594 1153 
L 594 3053 
L 172 3053 
L 172 3500 
L 594 3500 
L 594 4494 
L 1172 4494 
z
" transform="scale(0.015625)"/>
       <path id="DejaVuSans-6e" d="M 3513 2113 
L 3513 0 
L 2938 0 
L 2938 2094 
Q 2938 2591 2744 2837 
Q 2550 3084 2163 3084 
Q 1697 3084 1428 2787 
Q 1159 2491 1159 1978 
L 1159 0 
L 581 0 
L 581 3500 
L 1159 3500 
L 1159 2956 
Q 1366 3272 1645 3428 
Q 1925 3584 2291 3584 
Q 2894 3584 3203 3211 
Q 3513 2838 3513 2113 
z
" transform="scale(0.015625)"/>
      </defs>
      <use xlink:href="#DejaVuSans-70"/>
      <use xlink:href="#DejaVuSans-6f" x="63.476562"/>
      <use xlink:href="#DejaVuSans-73" x="124.658203"/>
      <use xlink:href="#DejaVuSans-69" x="176.757812"/>
      <use xlink:href="#DejaVuSans-74" x="204.541016"/>
      <use xlink:href="#DejaVuSans-69" x="243.75"/>
      <use xlink:href="#DejaVuSans-6f" x="271.533203"/>
      <use xlink:href="#DejaVuSans-6e" x="332.714844"/>
     </g>
    </g>
   </g>
   <g id="matplotlib.axis_2">
    <g id="ytick_1">
     <g id="line2d_10">
      <defs>
       <path id="m0026186896" d="M 0 0 
L -3.5 0 
" style="stroke: #000000; stroke-width: 0.8"/>
      </defs>
      <g>
       <use xlink:href="#m0026186896" x="30.103125" y="167.413053" style="stroke: #000000; stroke-width: 0.8"/>
      </g>
     </g>
     <g id="text_11">
      <!-- 0.3 -->
      <g transform="translate(7.2 171.212272) scale(0.1 -0.1)">
       <defs>
        <path id="DejaVuSans-2e" d="M 684 794 
L 1344 794 
L 1344 0 
L 684 0 
L 684 794 
z
" transform="scale(0.015625)"/>
       </defs>
       <use xlink:href="#DejaVuSans-30"/>
       <use xlink:href="#DejaVuSans-2e" x="63.623047"/>
       <use xlink:href="#DejaVuSans-33" x="95.410156"/>
      </g>
     </g>
    </g>
    <g id="ytick_2">
     <g id="line2d_11">
      <g>
       <use xlink:href="#m0026186896" x="30.103125" y="145.605474" style="stroke: #000000; stroke-width: 0.8"/>
      </g>
     </g>
     <g id="text_12">
      <!-- 0.4 -->
      <g transform="translate(7.2 149.404693) scale(0.1 -0.1)">
       <use xlink:href="#DejaVuSans-30"/>
       <use xlink:href="#DejaVuSans-2e" x="63.623047"/>
       <use xlink:href="#DejaVuSans-34" x="95.410156"/>
      </g>
     </g>
    </g>
    <g id="ytick_3">
     <g id="line2d_12">
      <g>
       <use xlink:href="#m0026186896" x="30.103125" y="123.797895" style="stroke: #000000; stroke-width: 0.8"/>
      </g>
     </g>
     <g id="text_13">
      <!-- 0.5 -->
      <g transform="translate(7.2 127.597114) scale(0.1 -0.1)">
       <use xlink:href="#DejaVuSans-30"/>
       <use xlink:href="#DejaVuSans-2e" x="63.623047"/>
       <use xlink:href="#DejaVuSans-35" x="95.410156"/>
      </g>
     </g>
    </g>
    <g id="ytick_4">
     <g id="line2d_13">
      <g>
       <use xlink:href="#m0026186896" x="30.103125" y="101.990316" style="stroke: #000000; stroke-width: 0.8"/>
      </g>
     </g>
     <g id="text_14">
      <!-- 0.6 -->
      <g transform="translate(7.2 105.789535) scale(0.1 -0.1)">
       <defs>
        <path id="DejaVuSans-36" d="M 2113 2584 
Q 1688 2584 1439 2293 
Q 1191 2003 1191 1497 
Q 1191 994 1439 701 
Q 1688 409 2113 409 
Q 2538 409 2786 701 
Q 3034 994 3034 1497 
Q 3034 2003 2786 2293 
Q 2538 2584 2113 2584 
z
M 3366 4563 
L 3366 3988 
Q 3128 4100 2886 4159 
Q 2644 4219 2406 4219 
Q 1781 4219 1451 3797 
Q 1122 3375 1075 2522 
Q 1259 2794 1537 2939 
Q 1816 3084 2150 3084 
Q 2853 3084 3261 2657 
Q 3669 2231 3669 1497 
Q 3669 778 3244 343 
Q 2819 -91 2113 -91 
Q 1303 -91 875 529 
Q 447 1150 447 2328 
Q 447 3434 972 4092 
Q 1497 4750 2381 4750 
Q 2619 4750 2861 4703 
Q 3103 4656 3366 4563 
z
" transform="scale(0.015625)"/>
       </defs>
       <use xlink:href="#DejaVuSans-30"/>
       <use xlink:href="#DejaVuSans-2e" x="63.623047"/>
       <use xlink:href="#DejaVuSans-36" x="95.410156"/>
      </g>
     </g>
    </g>
    <g id="ytick_5">
     <g id="line2d_14">
      <g>
       <use xlink:href="#m0026186896" x="30.103125" y="80.182737" style="stroke: #000000; stroke-width: 0.8"/>
      </g>
     </g>
     <g id="text_15">
      <!-- 0.7 -->
      <g transform="translate(7.2 83.981956) scale(0.1 -0.1)">
       <defs>
        <path id="DejaVuSans-37" d="M 525 4666 
L 3525 4666 
L 3525 4397 
L 1831 0 
L 1172 0 
L 2766 4134 
L 525 4134 
L 525 4666 
z
" transform="scale(0.015625)"/>
       </defs>
       <use xlink:href="#DejaVuSans-30"/>
       <use xlink:href="#DejaVuSans-2e" x="63.623047"/>
       <use xlink:href="#DejaVuSans-37" x="95.410156"/>
      </g>
     </g>
    </g>
    <g id="ytick_6">
     <g id="line2d_15">
      <g>
       <use xlink:href="#m0026186896" x="30.103125" y="58.375158" style="stroke: #000000; stroke-width: 0.8"/>
      </g>
     </g>
     <g id="text_16">
      <!-- 0.8 -->
      <g transform="translate(7.2 62.174377) scale(0.1 -0.1)">
       <defs>
        <path id="DejaVuSans-38" d="M 2034 2216 
Q 1584 2216 1326 1975 
Q 1069 1734 1069 1313 
Q 1069 891 1326 650 
Q 1584 409 2034 409 
Q 2484 409 2743 651 
Q 3003 894 3003 1313 
Q 3003 1734 2745 1975 
Q 2488 2216 2034 2216 
z
M 1403 2484 
Q 997 2584 770 2862 
Q 544 3141 544 3541 
Q 544 4100 942 4425 
Q 1341 4750 2034 4750 
Q 2731 4750 3128 4425 
Q 3525 4100 3525 3541 
Q 3525 3141 3298 2862 
Q 3072 2584 2669 2484 
Q 3125 2378 3379 2068 
Q 3634 1759 3634 1313 
Q 3634 634 3220 271 
Q 2806 -91 2034 -91 
Q 1263 -91 848 271 
Q 434 634 434 1313 
Q 434 1759 690 2068 
Q 947 2378 1403 2484 
z
M 1172 3481 
Q 1172 3119 1398 2916 
Q 1625 2713 2034 2713 
Q 2441 2713 2670 2916 
Q 2900 3119 2900 3481 
Q 2900 3844 2670 4047 
Q 2441 4250 2034 4250 
Q 1625 4250 1398 4047 
Q 1172 3844 1172 3481 
z
" transform="scale(0.015625)"/>
       </defs>
       <use xlink:href="#DejaVuSans-30"/>
       <use xlink:href="#DejaVuSans-2e" x="63.623047"/>
       <use xlink:href="#DejaVuSans-38" x="95.410156"/>
      </g>
     </g>
    </g>
    <g id="ytick_7">
     <g id="line2d_16">
      <g>
       <use xlink:href="#m0026186896" x="30.103125" y="36.567579" style="stroke: #000000; stroke-width: 0.8"/>
      </g>
     </g>
     <g id="text_17">
      <!-- 0.9 -->
      <g transform="translate(7.2 40.366798) scale(0.1 -0.1)">
       <defs>
        <path id="DejaVuSans-39" d="M 703 97 
L 703 672 
Q 941 559 1184 500 
Q 1428 441 1663 441 
Q 2288 441 2617 861 
Q 2947 1281 2994 2138 
Q 2813 1869 2534 1725 
Q 2256 1581 1919 1581 
Q 1219 1581 811 2004 
Q 403 2428 403 3163 
Q 403 3881 828 4315 
Q 1253 4750 1959 4750 
Q 2769 4750 3195 4129 
Q 3622 3509 3622 2328 
Q 3622 1225 3098 567 
Q 2575 -91 1691 -91 
Q 1453 -91 1209 -44 
Q 966 3 703 97 
z
M 1959 2075 
Q 2384 2075 2632 2365 
Q 2881 2656 2881 3163 
Q 2881 3666 2632 3958 
Q 2384 4250 1959 4250 
Q 1534 4250 1286 3958 
Q 1038 3666 1038 3163 
Q 1038 2656 1286 2365 
Q 1534 2075 1959 2075 
z
" transform="scale(0.015625)"/>
       </defs>
       <use xlink:href="#DejaVuSans-30"/>
       <use xlink:href="#DejaVuSans-2e" x="63.623047"/>
       <use xlink:href="#DejaVuSans-39" x="95.410156"/>
      </g>
     </g>
    </g>
    <g id="ytick_8">
     <g id="line2d_17">
      <g>
       <use xlink:href="#m0026186896" x="30.103125" y="14.76" style="stroke: #000000; stroke-width: 0.8"/>
      </g>
     </g>
     <g id="text_18">
      <!-- 1.0 -->
      <g transform="translate(7.2 18.559219) scale(0.1 -0.1)">
       <use xlink:href="#DejaVuSans-31"/>
       <use xlink:href="#DejaVuSans-2e" x="63.623047"/>
       <use xlink:href="#DejaVuSans-30" x="95.410156"/>
      </g>
     </g>
    </g>
   </g>
   <g id="line2d_18">
    <path d="M 45.321307 162.717164 
L 46.084123 165.96 
L 46.846939 164.112983 
L 48.372571 150.609187 
L 49.135387 146.503846 
L 49.898204 146.970525 
L 50.66102 150.126877 
L 51.423836 152.524913 
L 52.186652 152.122667 
L 52.949468 149.944647 
L 53.712284 149.053579 
L 54.4751 151.728564 
L 56.000733 162.262489 
L 56.763549 163.245364 
L 57.526365 159.350102 
L 58.289181 152.96854 
L 59.051997 147.821032 
L 59.814813 146.148205 
L 60.577629 147.333614 
L 61.340446 148.961661 
L 62.103262 149.215577 
L 62.866078 148.456579 
L 63.628894 148.65934 
L 64.39171 151.318304 
L 65.154526 155.763538 
L 65.917342 159.408406 
L 66.680158 159.723115 
L 67.442975 156.231998 
L 68.205791 150.861315 
L 68.968607 146.422964 
L 69.731423 144.589712 
L 70.494239 145.036068 
L 71.257055 146.287528 
L 72.782688 148.338352 
L 73.545504 150.243849 
L 75.071136 156.016609 
L 75.833952 156.778968 
L 76.596768 154.429357 
L 78.1224 144.920942 
L 78.885217 142.133164 
L 79.648033 142.165231 
L 80.410849 144.250319 
L 81.936481 149.457496 
L 82.699297 151.434698 
L 83.462113 152.914739 
L 84.22493 153.447067 
L 84.987746 152.233205 
L 85.750562 148.943737 
L 86.513378 144.466715 
L 87.276194 140.749297 
L 88.03901 139.675089 
L 88.801826 141.803059 
L 90.327459 150.037137 
L 91.090275 152.228714 
L 91.853091 151.953156 
L 92.615907 149.74392 
L 94.904355 140.687041 
L 95.667171 139.45506 
L 96.429988 140.339336 
L 97.192804 143.426914 
L 97.95562 147.628884 
L 98.718436 150.867392 
L 99.481252 151.16894 
L 100.244068 148.00024 
L 101.769701 138.293854 
L 102.532517 136.717488 
L 103.295333 138.640454 
L 104.820965 146.632439 
L 105.583781 148.525197 
L 106.346597 147.704866 
L 107.109413 144.703278 
L 107.87223 140.796214 
L 108.635046 137.511354 
L 109.397862 136.224416 
L 110.160678 137.674185 
L 111.68631 145.544719 
L 112.449126 147.547716 
L 113.211942 145.694954 
L 114.737575 135.085431 
L 115.500391 132.847365 
L 116.263207 135.490472 
L 117.026023 141.269861 
L 117.788839 146.033281 
L 118.551655 146.166669 
L 119.314472 141.353953 
L 120.077288 134.948025 
L 120.840104 131.512437 
L 121.60292 133.353286 
L 122.365736 138.75328 
L 123.128552 143.335269 
L 123.891368 143.495552 
L 124.654184 139.174666 
L 125.417001 133.771286 
L 126.179817 131.329979 
L 126.942633 133.329805 
L 127.705449 137.662337 
L 128.468265 140.528969 
L 129.231081 139.585543 
L 130.756714 132.08914 
L 131.51953 131.386496 
L 132.282346 133.675359 
L 133.045162 136.560865 
L 133.807978 137.376828 
L 134.570794 135.423465 
L 135.33361 132.3778 
L 136.096426 130.671341 
L 136.859243 131.366472 
L 137.622059 133.376144 
L 138.384875 134.587601 
L 139.147691 133.772268 
L 139.910507 131.57091 
L 140.673323 129.771148 
L 141.436139 129.642867 
L 142.961772 131.939737 
L 143.724588 131.625958 
L 145.25022 128.383524 
L 146.013036 127.889074 
L 147.538668 129.432626 
L 148.301485 129.303487 
L 149.064301 128.050936 
L 149.827117 126.567885 
L 150.589933 125.902364 
L 151.352749 126.275435 
L 152.115565 126.919048 
L 152.878381 126.844866 
L 153.641197 125.781012 
L 154.404014 124.395253 
L 155.16683 123.625018 
L 155.929646 123.779997 
L 156.692462 124.271502 
L 157.455278 124.202533 
L 158.218094 123.231558 
L 158.98091 121.882071 
L 159.743727 121.018995 
L 160.506543 121.011053 
L 161.269359 121.386952 
L 162.032175 121.303542 
L 162.794991 120.364165 
L 163.557807 118.995623 
L 164.320623 118.025935 
L 165.083439 117.878599 
L 165.846256 118.163015 
L 166.609072 118.055623 
L 167.371888 117.10139 
L 168.134704 115.657964 
L 168.89752 114.549804 
L 169.660336 114.265063 
L 170.423152 114.472425 
L 171.185968 114.33424 
L 171.948785 113.320396 
L 172.711601 111.734886 
L 173.474417 110.434065 
L 174.237233 109.993864 
L 175.000049 110.130892 
L 175.762865 109.953972 
L 176.525681 108.825028 
L 178.051314 105.41437 
L 178.81413 104.772812 
L 179.576946 104.837998 
L 180.339762 104.609358 
L 181.102578 103.27868 
L 182.62821 99.002866 
L 183.391027 98.059811 
L 184.153843 98.038975 
L 184.916659 97.732942 
L 185.679475 96.030707 
L 187.205107 90.148897 
L 187.967923 88.659263 
L 188.730739 88.507416 
L 189.493556 88.057674 
L 190.256372 85.53293 
L 191.782004 75.820669 
L 192.54482 72.941552 
L 193.307636 72.478929 
L 194.070452 71.594483 
L 194.833269 65.966414 
L 195.596085 53.30608 
L 197.121717 20.838292 
L 197.884533 14.76 
L 198.647349 20.838331 
L 200.935798 65.966414 
L 201.698614 71.594535 
L 202.46143 72.478994 
L 203.224246 72.941487 
L 203.987062 75.820643 
L 205.512694 85.532917 
L 206.275511 88.057687 
L 207.038327 88.507429 
L 207.801143 88.659263 
L 208.563959 90.148858 
L 210.089591 96.030707 
L 210.852407 97.732929 
L 211.615223 98.039014 
L 212.37804 98.05985 
L 213.140856 99.002879 
L 214.666488 103.27868 
L 215.429304 104.609358 
L 216.19212 104.83805 
L 216.954936 104.772877 
L 217.717752 105.414383 
L 220.006201 109.95392 
L 220.769017 110.130801 
L 221.531833 109.993838 
L 222.294649 110.43413 
L 223.057465 111.734977 
L 223.820282 113.320435 
L 224.583098 114.334266 
L 225.345914 114.472451 
L 226.10873 114.265024 
L 226.871546 114.54983 
L 227.634362 115.657938 
L 228.397178 117.101429 
L 229.159994 118.055662 
L 229.922811 118.163002 
L 230.685627 117.878625 
L 231.448443 118.025961 
L 232.211259 118.995649 
L 232.974075 120.364191 
L 233.736891 121.303529 
L 234.499707 121.386939 
L 235.262523 121.01104 
L 236.02534 121.018943 
L 236.788156 121.88211 
L 237.550972 123.231597 
L 238.313788 124.202566 
L 239.076604 124.271522 
L 239.83942 123.779958 
L 240.602236 123.624953 
L 241.365053 124.395182 
L 242.127869 125.780966 
L 242.890685 126.844892 
L 243.653501 126.91908 
L 244.416317 126.275371 
L 245.179133 125.902396 
L 245.941949 126.567917 
L 247.467582 129.303507 
L 248.230398 129.432619 
L 249.75603 127.889133 
L 250.518846 128.383518 
L 252.044478 131.625932 
L 252.807295 131.939737 
L 254.332927 129.642854 
L 255.095743 129.771096 
L 255.858559 131.570949 
L 256.621375 133.772287 
L 257.384191 134.587627 
L 258.147007 133.376222 
L 258.909824 131.366543 
L 259.67264 130.671393 
L 260.435456 132.377807 
L 261.198272 135.423465 
L 261.961088 137.376815 
L 262.723904 136.560923 
L 263.48672 133.675398 
L 264.249536 131.386496 
L 265.012353 132.089199 
L 266.537985 139.585452 
L 267.300801 140.528891 
L 268.063617 137.662311 
L 268.826433 133.329798 
L 269.589249 131.330044 
L 270.352066 133.771332 
L 271.114882 139.174699 
L 271.877698 143.495558 
L 272.640514 143.335263 
L 273.40333 138.753312 
L 274.166146 133.353299 
L 274.928962 131.512398 
L 275.691778 134.948038 
L 276.454595 141.353921 
L 277.217411 146.16663 
L 277.980227 146.033294 
L 278.743043 141.269874 
L 279.505859 135.490485 
L 280.268675 132.847352 
L 281.031491 135.085405 
L 282.557124 145.694921 
L 283.31994 147.54771 
L 284.082756 145.544719 
L 285.608388 137.674113 
L 286.371204 136.224396 
L 287.13402 137.511354 
L 287.896837 140.796247 
L 288.659653 144.70335 
L 289.422469 147.70495 
L 290.185285 148.525216 
L 290.948101 146.632393 
L 292.473733 138.640383 
L 293.236549 136.717501 
L 293.999366 138.293925 
L 295.524998 148.000285 
L 296.287814 151.168927 
L 297.05063 150.867353 
L 297.813446 147.628852 
L 298.576262 143.426946 
L 299.339079 140.339356 
L 300.101895 139.455092 
L 300.864711 140.687048 
L 301.627527 143.318352 
L 303.153159 149.743868 
L 303.915975 151.953136 
L 304.678791 152.228662 
L 305.441608 150.037143 
L 306.96724 141.803098 
L 307.730056 139.675063 
L 308.492872 140.749258 
L 309.255688 144.466722 
L 310.018504 148.94375 
L 310.78132 152.233133 
L 311.544137 153.447086 
L 312.306953 152.914817 
L 313.069769 151.434724 
L 313.832585 149.457632 
L 316.121033 142.165199 
L 316.88385 142.133132 
L 317.646666 144.92089 
L 319.172298 154.429363 
L 319.935114 156.779007 
L 320.69793 156.016602 
L 322.223562 150.243797 
L 322.986379 148.338365 
L 324.512011 146.287534 
L 325.274827 145.036107 
L 326.037643 144.589745 
L 326.800459 146.42299 
L 327.563275 150.861302 
L 328.326092 156.231939 
L 329.088908 159.723135 
L 329.851724 159.408426 
L 330.61454 155.763564 
L 331.377356 151.318317 
L 332.140172 148.659372 
L 332.902988 148.456637 
L 333.665804 149.215668 
L 334.428621 148.961707 
L 335.191437 147.333699 
L 335.954253 146.148212 
L 336.717069 147.821058 
L 337.479885 152.968579 
L 338.242701 159.35007 
L 339.005517 163.245338 
L 339.768333 162.262502 
L 341.293966 151.72857 
L 342.056782 149.053599 
L 342.819598 149.944667 
L 343.582414 152.122634 
L 344.34523 152.524855 
L 345.108046 150.126799 
L 345.870863 146.970493 
L 346.633679 146.503872 
L 347.396495 150.609167 
L 348.922127 164.113009 
L 349.684943 165.959942 
L 349.684943 165.959942 
" clip-path="url(#p50284ae272)" style="fill: none; stroke: #000000; stroke-width: 1.5; stroke-linecap: square"/>
   </g>
   <g id="patch_3">
    <path d="M 30.103125 173.52 
L 30.103125 7.2 
" style="fill: none; stroke: #000000; stroke-width: 0.8; stroke-linejoin: miter; stroke-linecap: square"/>
   </g>
   <g id="patch_4">
    <path d="M 364.903125 173.52 
L 364.903125 7.2 
" style="fill: none; stroke: #000000; stroke-width: 0.8; stroke-linejoin: miter; stroke-linecap: square"/>
   </g>
   <g id="patch_5">
    <path d="M 30.103125 173.52 
L 364.903125 173.52 
" style="fill: none; stroke: #000000; stroke-width: 0.8; stroke-linejoin: miter; stroke-linecap: square"/>
   </g>
   <g id="patch_6">
    <path d="M 30.103125 7.2 
L 364.903125 7.2 
" style="fill: none; stroke: #000000; stroke-width: 0.8; stroke-linejoin: miter; stroke-linecap: square"/>
   </g>
   <g id="legend_1">
    <g id="patch_7">
     <path d="M 291.3375 29.878125 
L 357.903125 29.878125 
Q 359.903125 29.878125 359.903125 27.878125 
L 359.903125 14.2 
Q 359.903125 12.2 357.903125 12.2 
L 291.3375 12.2 
Q 289.3375 12.2 289.3375 14.2 
L 289.3375 27.878125 
Q 289.3375 29.878125 291.3375 29.878125 
z
" style="fill: #ffffff; opacity: 0.8; stroke: #cccccc; stroke-linejoin: miter"/>
    </g>
    <g id="line2d_19">
     <path d="M 293.3375 20.298438 
L 303.3375 20.298438 
L 313.3375 20.298438 
" style="fill: none; stroke: #000000; stroke-width: 1.5; stroke-linecap: square"/>
    </g>
    <g id="text_19">
     <!-- t= 200 -->
     <g transform="translate(321.3375 23.798438) scale(0.1 -0.1)">
      <defs>
       <path id="DejaVuSans-3d" d="M 678 2906 
L 4684 2906 
L 4684 2381 
L 678 2381 
L 678 2906 
z
M 678 1631 
L 4684 1631 
L 4684 1100 
L 678 1100 
L 678 1631 
z
" transform="scale(0.015625)"/>
       <path id="DejaVuSans-20" transform="scale(0.015625)"/>
      </defs>
      <use xlink:href="#DejaVuSans-74"/>
      <use xlink:href="#DejaVuSans-3d" x="39.208984"/>
      <use xlink:href="#DejaVuSans-20" x="122.998047"/>
      <use xlink:href="#DejaVuSans-32" x="154.785156"/>
      <use xlink:href="#DejaVuSans-30" x="218.408203"/>
      <use xlink:href="#DejaVuSans-30" x="282.03125"/>
     </g>
    </g>
   </g>
  </g>
 </g>
 <defs>
  <clipPath id="p50284ae272">
   <rect x="30.103125" y="7.2" width="334.8" height="166.32"/>
  </clipPath>
 </defs>
</svg>