<?xml version="1.0" encoding="utf-8" standalone="no"?>
<!DOCTYPE svg PUBLIC "-//W3C//DTD SVG 1.1//EN"
  "http://www.w3.org/Graphics/SVG/1.1/DTD/svg11.dtd">
<svg xmlns:xlink="http://www.w3.org/1999/xlink" width="568.526875pt" height="172.076562pt" viewBox="0 0 568.526875 172.076562" xmlns="http://www.w3.org/2000/svg" version="1.1">
 <metadata>
  <rdf:RDF xmlns:dc="http://purl.org/dc/elements/1.1/" xmlns:cc="http://creativecommons.org/ns#" xmlns:rdf="http://www.w3.org/1999/02/22-rdf-syntax-ns#">
   <cc:Work>
    <dc:type rdf:resource="http://purl.org/dc/dcmitype/StillImage"/>
    <dc:date>2024-06-13T22:30:51.378893</dc:date>
    <dc:format>image/svg+xml</dc:format>
    <dc:creator>
     <cc:Agent>
      <dc:title>Matplotlib v3.7.1, https://matplotlib.org/</dc:title>
     </cc:Agent>
    </dc:creator>
   </cc:Work>
  </rdf:RDF>
 </metadata>
 <defs>
  <style type="text/css">*{stroke-linejoin: round; stroke-linecap: butt}</style>
 </defs>
 <g id="figure_1">
  <g id="patch_1">
   <path d="M 0 172.076562 
L 568.526875 172.076562 
L 568.526875 0 
L 0 0 
z
" style="fill: #ffffff"/>
  </g>
  <g id="axes_1">
   <g id="patch_2">
    <path d="M 46.965625 148.198437 
L 272.395625 148.198437 
L 272.395625 20.798437 
L 46.965625 20.798437 
z
" style="fill: #ffffff"/>
   </g>
   <g id="patch_3">
    <path d="M 127.750359 148.198437 
L 128.915624 148.198437 
L 128.915624 146.427148 
L 127.750359 146.427148 
z
" clip-path="url(#pf8144790ad)" style="fill: #1f77b4; fill-opacity: 0.75; stroke: #000000; stroke-width: 0.104885; stroke-linejoin: miter"/>
   </g>
   <g id="patch_4">
    <path d="M 128.915624 148.198437 
L 130.080888 148.198437 
L 130.080888 147.312793 
L 128.915624 147.312793 
z
" clip-path="url(#pf8144790ad)" style="fill: #1f77b4; fill-opacity: 0.75; stroke: #000000; stroke-width: 0.104885; stroke-linejoin: miter"/>
   </g>
   <g id="patch_5">
    <path d="M 130.080888 148.198437 
L 131.246153 148.198437 
L 131.246153 145.541503 
L 130.080888 145.541503 
z
" clip-path="url(#pf8144790ad)" style="fill: #1f77b4; fill-opacity: 0.75; stroke: #000000; stroke-width: 0.104885; stroke-linejoin: miter"/>
   </g>
   <g id="patch_6">
    <path d="M 131.246153 148.198437 
L 132.411418 148.198437 
L 132.411418 147.312793 
L 131.246153 147.312793 
z
" clip-path="url(#pf8144790ad)" style="fill: #1f77b4; fill-opacity: 0.75; stroke: #000000; stroke-width: 0.104885; stroke-linejoin: miter"/>
   </g>
   <g id="patch_7">
    <path d="M 132.411418 148.198437 
L 133.576683 148.198437 
L 133.576683 142.884569 
L 132.411418 142.884569 
z
" clip-path="url(#pf8144790ad)" style="fill: #1f77b4; fill-opacity: 0.75; stroke: #000000; stroke-width: 0.104885; stroke-linejoin: miter"/>
   </g>
   <g id="patch_8">
    <path d="M 133.576683 148.198437 
L 134.741948 148.198437 
L 134.741948 144.655858 
L 133.576683 144.655858 
z
" clip-path="url(#pf8144790ad)" style="fill: #1f77b4; fill-opacity: 0.75; stroke: #000000; stroke-width: 0.104885; stroke-linejoin: miter"/>
   </g>
   <g id="patch_9">
    <path d="M 134.741948 148.198437 
L 135.907213 148.198437 
L 135.907213 136.685056 
L 134.741948 136.685056 
z
" clip-path="url(#pf8144790ad)" style="fill: #1f77b4; fill-opacity: 0.75; stroke: #000000; stroke-width: 0.104885; stroke-linejoin: miter"/>
   </g>
   <g id="patch_10">
    <path d="M 135.907213 148.198437 
L 137.072478 148.198437 
L 137.072478 135.799411 
L 135.907213 135.799411 
z
" clip-path="url(#pf8144790ad)" style="fill: #1f77b4; fill-opacity: 0.75; stroke: #000000; stroke-width: 0.104885; stroke-linejoin: miter"/>
   </g>
   <g id="patch_11">
    <path d="M 137.072478 148.198437 
L 138.237743 148.198437 
L 138.237743 129.599897 
L 137.072478 129.599897 
z
" clip-path="url(#pf8144790ad)" style="fill: #1f77b4; fill-opacity: 0.75; stroke: #000000; stroke-width: 0.104885; stroke-linejoin: miter"/>
   </g>
   <g id="patch_12">
    <path d="M 138.237743 148.198437 
L 139.403008 148.198437 
L 139.403008 127.828608 
L 138.237743 127.828608 
z
" clip-path="url(#pf8144790ad)" style="fill: #1f77b4; fill-opacity: 0.75; stroke: #000000; stroke-width: 0.104885; stroke-linejoin: miter"/>
   </g>
   <g id="patch_13">
    <path d="M 139.403008 148.198437 
L 140.568273 148.198437 
L 140.568273 130.485542 
L 139.403008 130.485542 
z
" clip-path="url(#pf8144790ad)" style="fill: #1f77b4; fill-opacity: 0.75; stroke: #000000; stroke-width: 0.104885; stroke-linejoin: miter"/>
   </g>
   <g id="patch_14">
    <path d="M 140.568273 148.198437 
L 141.733538 148.198437 
L 141.733538 118.97216 
L 140.568273 118.97216 
z
" clip-path="url(#pf8144790ad)" style="fill: #1f77b4; fill-opacity: 0.75; stroke: #000000; stroke-width: 0.104885; stroke-linejoin: miter"/>
   </g>
   <g id="patch_15">
    <path d="M 141.733538 148.198437 
L 142.898802 148.198437 
L 142.898802 108.344423 
L 141.733538 108.344423 
z
" clip-path="url(#pf8144790ad)" style="fill: #1f77b4; fill-opacity: 0.75; stroke: #000000; stroke-width: 0.104885; stroke-linejoin: miter"/>
   </g>
   <g id="patch_16">
    <path d="M 142.898802 148.198437 
L 144.064067 148.198437 
L 144.064067 103.030554 
L 142.898802 103.030554 
z
" clip-path="url(#pf8144790ad)" style="fill: #1f77b4; fill-opacity: 0.75; stroke: #000000; stroke-width: 0.104885; stroke-linejoin: miter"/>
   </g>
   <g id="patch_17">
    <path d="M 144.064067 148.198437 
L 145.229332 148.198437 
L 145.229332 74.689922 
L 144.064067 74.689922 
z
" clip-path="url(#pf8144790ad)" style="fill: #1f77b4; fill-opacity: 0.75; stroke: #000000; stroke-width: 0.104885; stroke-linejoin: miter"/>
   </g>
   <g id="patch_18">
    <path d="M 145.229332 148.198437 
L 146.394597 148.198437 
L 146.394597 103.030554 
L 145.229332 103.030554 
z
" clip-path="url(#pf8144790ad)" style="fill: #1f77b4; fill-opacity: 0.75; stroke: #000000; stroke-width: 0.104885; stroke-linejoin: miter"/>
   </g>
   <g id="patch_19">
    <path d="M 146.394597 148.198437 
L 147.559862 148.198437 
L 147.559862 89.745883 
L 146.394597 89.745883 
z
" clip-path="url(#pf8144790ad)" style="fill: #1f77b4; fill-opacity: 0.75; stroke: #000000; stroke-width: 0.104885; stroke-linejoin: miter"/>
   </g>
   <g id="patch_20">
    <path d="M 147.559862 148.198437 
L 148.725127 148.198437 
L 148.725127 73.804277 
L 147.559862 73.804277 
z
" clip-path="url(#pf8144790ad)" style="fill: #1f77b4; fill-opacity: 0.75; stroke: #000000; stroke-width: 0.104885; stroke-linejoin: miter"/>
   </g>
   <g id="patch_21">
    <path d="M 148.725127 148.198437 
L 149.890392 148.198437 
L 149.890392 82.660725 
L 148.725127 82.660725 
z
" clip-path="url(#pf8144790ad)" style="fill: #1f77b4; fill-opacity: 0.75; stroke: #000000; stroke-width: 0.104885; stroke-linejoin: miter"/>
   </g>
   <g id="patch_22">
    <path d="M 149.890392 148.198437 
L 151.055657 148.198437 
L 151.055657 64.947829 
L 149.890392 64.947829 
z
" clip-path="url(#pf8144790ad)" style="fill: #1f77b4; fill-opacity: 0.75; stroke: #000000; stroke-width: 0.104885; stroke-linejoin: miter"/>
   </g>
   <g id="patch_23">
    <path d="M 151.055657 148.198437 
L 152.220922 148.198437 
L 152.220922 52.548802 
L 151.055657 52.548802 
z
" clip-path="url(#pf8144790ad)" style="fill: #1f77b4; fill-opacity: 0.75; stroke: #000000; stroke-width: 0.104885; stroke-linejoin: miter"/>
   </g>
   <g id="patch_24">
    <path d="M 152.220922 148.198437 
L 153.386187 148.198437 
L 153.386187 51.663158 
L 152.220922 51.663158 
z
" clip-path="url(#pf8144790ad)" style="fill: #1f77b4; fill-opacity: 0.75; stroke: #000000; stroke-width: 0.104885; stroke-linejoin: miter"/>
   </g>
   <g id="patch_25">
    <path d="M 153.386187 148.198437 
L 154.551452 148.198437 
L 154.551452 47.234934 
L 153.386187 47.234934 
z
" clip-path="url(#pf8144790ad)" style="fill: #1f77b4; fill-opacity: 0.75; stroke: #000000; stroke-width: 0.104885; stroke-linejoin: miter"/>
   </g>
   <g id="patch_26">
    <path d="M 154.551452 148.198437 
L 155.716716 148.198437 
L 155.716716 61.40525 
L 154.551452 61.40525 
z
" clip-path="url(#pf8144790ad)" style="fill: #1f77b4; fill-opacity: 0.75; stroke: #000000; stroke-width: 0.104885; stroke-linejoin: miter"/>
   </g>
   <g id="patch_27">
    <path d="M 155.716716 148.198437 
L 156.881981 148.198437 
L 156.881981 33.950262 
L 155.716716 33.950262 
z
" clip-path="url(#pf8144790ad)" style="fill: #1f77b4; fill-opacity: 0.75; stroke: #000000; stroke-width: 0.104885; stroke-linejoin: miter"/>
   </g>
   <g id="patch_28">
    <path d="M 156.881981 148.198437 
L 158.047246 148.198437 
L 158.047246 26.865104 
L 156.881981 26.865104 
z
" clip-path="url(#pf8144790ad)" style="fill: #1f77b4; fill-opacity: 0.75; stroke: #000000; stroke-width: 0.104885; stroke-linejoin: miter"/>
   </g>
   <g id="patch_29">
    <path d="M 158.047246 148.198437 
L 159.212511 148.198437 
L 159.212511 37.492841 
L 158.047246 37.492841 
z
" clip-path="url(#pf8144790ad)" style="fill: #1f77b4; fill-opacity: 0.75; stroke: #000000; stroke-width: 0.104885; stroke-linejoin: miter"/>
   </g>
   <g id="patch_30">
    <path d="M 159.212511 148.198437 
L 160.377776 148.198437 
L 160.377776 49.006223 
L 159.212511 49.006223 
z
" clip-path="url(#pf8144790ad)" style="fill: #1f77b4; fill-opacity: 0.75; stroke: #000000; stroke-width: 0.104885; stroke-linejoin: miter"/>
   </g>
   <g id="patch_31">
    <path d="M 160.377776 148.198437 
L 161.543041 148.198437 
L 161.543041 34.835907 
L 160.377776 34.835907 
z
" clip-path="url(#pf8144790ad)" style="fill: #1f77b4; fill-opacity: 0.75; stroke: #000000; stroke-width: 0.104885; stroke-linejoin: miter"/>
   </g>
   <g id="patch_32">
    <path d="M 161.543041 148.198437 
L 162.708306 148.198437 
L 162.708306 49.006223 
L 161.543041 49.006223 
z
" clip-path="url(#pf8144790ad)" style="fill: #1f77b4; fill-opacity: 0.75; stroke: #000000; stroke-width: 0.104885; stroke-linejoin: miter"/>
   </g>
   <g id="patch_33">
    <path d="M 162.708306 148.198437 
L 163.873571 148.198437 
L 163.873571 56.977026 
L 162.708306 56.977026 
z
" clip-path="url(#pf8144790ad)" style="fill: #1f77b4; fill-opacity: 0.75; stroke: #000000; stroke-width: 0.104885; stroke-linejoin: miter"/>
   </g>
   <g id="patch_34">
    <path d="M 163.873571 148.198437 
L 165.038836 148.198437 
L 165.038836 56.091382 
L 163.873571 56.091382 
z
" clip-path="url(#pf8144790ad)" style="fill: #1f77b4; fill-opacity: 0.75; stroke: #000000; stroke-width: 0.104885; stroke-linejoin: miter"/>
   </g>
   <g id="patch_35">
    <path d="M 165.038836 148.198437 
L 166.204101 148.198437 
L 166.204101 67.604764 
L 165.038836 67.604764 
z
" clip-path="url(#pf8144790ad)" style="fill: #1f77b4; fill-opacity: 0.75; stroke: #000000; stroke-width: 0.104885; stroke-linejoin: miter"/>
   </g>
   <g id="patch_36">
    <path d="M 166.204101 148.198437 
L 167.369366 148.198437 
L 167.369366 59.633961 
L 166.204101 59.633961 
z
" clip-path="url(#pf8144790ad)" style="fill: #1f77b4; fill-opacity: 0.75; stroke: #000000; stroke-width: 0.104885; stroke-linejoin: miter"/>
   </g>
   <g id="patch_37">
    <path d="M 167.369366 148.198437 
L 168.534631 148.198437 
L 168.534631 43.692355 
L 167.369366 43.692355 
z
" clip-path="url(#pf8144790ad)" style="fill: #1f77b4; fill-opacity: 0.75; stroke: #000000; stroke-width: 0.104885; stroke-linejoin: miter"/>
   </g>
   <g id="patch_38">
    <path d="M 168.534631 148.198437 
L 169.699895 148.198437 
L 169.699895 80.00379 
L 168.534631 80.00379 
z
" clip-path="url(#pf8144790ad)" style="fill: #1f77b4; fill-opacity: 0.75; stroke: #000000; stroke-width: 0.104885; stroke-linejoin: miter"/>
   </g>
   <g id="patch_39">
    <path d="M 169.699895 148.198437 
L 170.86516 148.198437 
L 170.86516 83.546369 
L 169.699895 83.546369 
z
" clip-path="url(#pf8144790ad)" style="fill: #1f77b4; fill-opacity: 0.75; stroke: #000000; stroke-width: 0.104885; stroke-linejoin: miter"/>
   </g>
   <g id="patch_40">
    <path d="M 170.86516 148.198437 
L 172.030425 148.198437 
L 172.030425 93.288462 
L 170.86516 93.288462 
z
" clip-path="url(#pf8144790ad)" style="fill: #1f77b4; fill-opacity: 0.75; stroke: #000000; stroke-width: 0.104885; stroke-linejoin: miter"/>
   </g>
   <g id="patch_41">
    <path d="M 172.030425 148.198437 
L 173.19569 148.198437 
L 173.19569 91.517172 
L 172.030425 91.517172 
z
" clip-path="url(#pf8144790ad)" style="fill: #1f77b4; fill-opacity: 0.75; stroke: #000000; stroke-width: 0.104885; stroke-linejoin: miter"/>
   </g>
   <g id="patch_42">
    <path d="M 173.19569 148.198437 
L 174.360955 148.198437 
L 174.360955 99.487975 
L 173.19569 99.487975 
z
" clip-path="url(#pf8144790ad)" style="fill: #1f77b4; fill-opacity: 0.75; stroke: #000000; stroke-width: 0.104885; stroke-linejoin: miter"/>
   </g>
   <g id="patch_43">
    <path d="M 174.360955 148.198437 
L 175.52622 148.198437 
L 175.52622 98.60233 
L 174.360955 98.60233 
z
" clip-path="url(#pf8144790ad)" style="fill: #1f77b4; fill-opacity: 0.75; stroke: #000000; stroke-width: 0.104885; stroke-linejoin: miter"/>
   </g>
   <g id="patch_44">
    <path d="M 175.52622 148.198437 
L 176.691485 148.198437 
L 176.691485 103.916199 
L 175.52622 103.916199 
z
" clip-path="url(#pf8144790ad)" style="fill: #1f77b4; fill-opacity: 0.75; stroke: #000000; stroke-width: 0.104885; stroke-linejoin: miter"/>
   </g>
   <g id="patch_45">
    <path d="M 176.691485 148.198437 
L 177.85675 148.198437 
L 177.85675 118.086515 
L 176.691485 118.086515 
z
" clip-path="url(#pf8144790ad)" style="fill: #1f77b4; fill-opacity: 0.75; stroke: #000000; stroke-width: 0.104885; stroke-linejoin: miter"/>
   </g>
   <g id="patch_46">
    <path d="M 177.85675 148.198437 
L 179.022015 148.198437 
L 179.022015 121.629094 
L 177.85675 121.629094 
z
" clip-path="url(#pf8144790ad)" style="fill: #1f77b4; fill-opacity: 0.75; stroke: #000000; stroke-width: 0.104885; stroke-linejoin: miter"/>
   </g>
   <g id="patch_47">
    <path d="M 179.022015 148.198437 
L 180.18728 148.198437 
L 180.18728 123.400384 
L 179.022015 123.400384 
z
" clip-path="url(#pf8144790ad)" style="fill: #1f77b4; fill-opacity: 0.75; stroke: #000000; stroke-width: 0.104885; stroke-linejoin: miter"/>
   </g>
   <g id="patch_48">
    <path d="M 180.18728 148.198437 
L 181.352545 148.198437 
L 181.352545 134.028121 
L 180.18728 134.028121 
z
" clip-path="url(#pf8144790ad)" style="fill: #1f77b4; fill-opacity: 0.75; stroke: #000000; stroke-width: 0.104885; stroke-linejoin: miter"/>
   </g>
   <g id="patch_49">
    <path d="M 181.352545 148.198437 
L 182.517809 148.198437 
L 182.517809 131.371187 
L 181.352545 131.371187 
z
" clip-path="url(#pf8144790ad)" style="fill: #1f77b4; fill-opacity: 0.75; stroke: #000000; stroke-width: 0.104885; stroke-linejoin: miter"/>
   </g>
   <g id="patch_50">
    <path d="M 182.517809 148.198437 
L 183.683074 148.198437 
L 183.683074 140.227635 
L 182.517809 140.227635 
z
" clip-path="url(#pf8144790ad)" style="fill: #1f77b4; fill-opacity: 0.75; stroke: #000000; stroke-width: 0.104885; stroke-linejoin: miter"/>
   </g>
   <g id="patch_51">
    <path d="M 183.683074 148.198437 
L 184.848339 148.198437 
L 184.848339 141.113279 
L 183.683074 141.113279 
z
" clip-path="url(#pf8144790ad)" style="fill: #1f77b4; fill-opacity: 0.75; stroke: #000000; stroke-width: 0.104885; stroke-linejoin: miter"/>
   </g>
   <g id="patch_52">
    <path d="M 184.848339 148.198437 
L 186.013604 148.198437 
L 186.013604 141.113279 
L 184.848339 141.113279 
z
" clip-path="url(#pf8144790ad)" style="fill: #1f77b4; fill-opacity: 0.75; stroke: #000000; stroke-width: 0.104885; stroke-linejoin: miter"/>
   </g>
   <g id="patch_53">
    <path d="M 186.013604 148.198437 
L 187.178869 148.198437 
L 187.178869 141.998924 
L 186.013604 141.998924 
z
" clip-path="url(#pf8144790ad)" style="fill: #1f77b4; fill-opacity: 0.75; stroke: #000000; stroke-width: 0.104885; stroke-linejoin: miter"/>
   </g>
   <g id="patch_54">
    <path d="M 187.178869 148.198437 
L 188.344134 148.198437 
L 188.344134 140.227635 
L 187.178869 140.227635 
z
" clip-path="url(#pf8144790ad)" style="fill: #1f77b4; fill-opacity: 0.75; stroke: #000000; stroke-width: 0.104885; stroke-linejoin: miter"/>
   </g>
   <g id="patch_55">
    <path d="M 188.344134 148.198437 
L 189.509399 148.198437 
L 189.509399 145.541503 
L 188.344134 145.541503 
z
" clip-path="url(#pf8144790ad)" style="fill: #1f77b4; fill-opacity: 0.75; stroke: #000000; stroke-width: 0.104885; stroke-linejoin: miter"/>
   </g>
   <g id="patch_56">
    <path d="M 189.509399 148.198437 
L 190.674664 148.198437 
L 190.674664 142.884569 
L 189.509399 142.884569 
z
" clip-path="url(#pf8144790ad)" style="fill: #1f77b4; fill-opacity: 0.75; stroke: #000000; stroke-width: 0.104885; stroke-linejoin: miter"/>
   </g>
   <g id="patch_57">
    <path d="M 190.674664 148.198437 
L 191.839929 148.198437 
L 191.839929 145.541503 
L 190.674664 145.541503 
z
" clip-path="url(#pf8144790ad)" style="fill: #1f77b4; fill-opacity: 0.75; stroke: #000000; stroke-width: 0.104885; stroke-linejoin: miter"/>
   </g>
   <g id="patch_58">
    <path d="M 191.839929 148.198437 
L 193.005194 148.198437 
L 193.005194 147.312793 
L 191.839929 147.312793 
z
" clip-path="url(#pf8144790ad)" style="fill: #1f77b4; fill-opacity: 0.75; stroke: #000000; stroke-width: 0.104885; stroke-linejoin: miter"/>
   </g>
   <g id="patch_59">
    <path d="M 193.005194 148.198437 
L 194.170459 148.198437 
L 194.170459 147.312793 
L 193.005194 147.312793 
z
" clip-path="url(#pf8144790ad)" style="fill: #1f77b4; fill-opacity: 0.75; stroke: #000000; stroke-width: 0.104885; stroke-linejoin: miter"/>
   </g>
   <g id="patch_60">
    <path d="M 194.170459 148.198437 
L 195.335723 148.198437 
L 195.335723 146.427148 
L 194.170459 146.427148 
z
" clip-path="url(#pf8144790ad)" style="fill: #1f77b4; fill-opacity: 0.75; stroke: #000000; stroke-width: 0.104885; stroke-linejoin: miter"/>
   </g>
   <g id="patch_61">
    <path d="M 195.335723 148.198437 
L 196.500988 148.198437 
L 196.500988 147.312793 
L 195.335723 147.312793 
z
" clip-path="url(#pf8144790ad)" style="fill: #1f77b4; fill-opacity: 0.75; stroke: #000000; stroke-width: 0.104885; stroke-linejoin: miter"/>
   </g>
   <g id="patch_62">
    <path d="M 196.500988 148.198437 
L 197.666253 148.198437 
L 197.666253 147.312793 
L 196.500988 147.312793 
z
" clip-path="url(#pf8144790ad)" style="fill: #1f77b4; fill-opacity: 0.75; stroke: #000000; stroke-width: 0.104885; stroke-linejoin: miter"/>
   </g>
   <g id="matplotlib.axis_1">
    <g id="xtick_1">
     <g id="line2d_1">
      <defs>
       <path id="ma0dcf3e69f" d="M 0 0 
L 0 3.5 
" style="stroke: #000000; stroke-width: 0.8"/>
      </defs>
      <g>
       <use xlink:href="#ma0dcf3e69f" x="46.965625" y="148.198437" style="stroke: #000000; stroke-width: 0.8"/>
      </g>
     </g>
     <g id="text_1">
      <!-- −1 -->
      <g transform="translate(39.594531 162.796875) scale(0.1 -0.1)">
       <defs>
        <path id="DejaVuSans-2212" d="M 678 2272 
L 4684 2272 
L 4684 1741 
L 678 1741 
L 678 2272 
z
" transform="scale(0.015625)"/>
        <path id="DejaVuSans-31" d="M 794 531 
L 1825 531 
L 1825 4091 
L 703 3866 
L 703 4441 
L 1819 4666 
L 2450 4666 
L 2450 531 
L 3481 531 
L 3481 0 
L 794 0 
L 794 531 
z
" transform="scale(0.015625)"/>
       </defs>
       <use xlink:href="#DejaVuSans-2212"/>
       <use xlink:href="#DejaVuSans-31" x="83.789062"/>
      </g>
     </g>
    </g>
    <g id="xtick_2">
     <g id="line2d_2">
      <g>
       <use xlink:href="#ma0dcf3e69f" x="103.323125" y="148.198437" style="stroke: #000000; stroke-width: 0.8"/>
      </g>
     </g>
     <g id="text_2">
      <!-- 0 -->
      <g transform="translate(100.141875 162.796875) scale(0.1 -0.1)">
       <defs>
        <path id="DejaVuSans-30" d="M 2034 4250 
Q 1547 4250 1301 3770 
Q 1056 3291 1056 2328 
Q 1056 1369 1301 889 
Q 1547 409 2034 409 
Q 2525 409 2770 889 
Q 3016 1369 3016 2328 
Q 3016 3291 2770 3770 
Q 2525 4250 2034 4250 
z
M 2034 4750 
Q 2819 4750 3233 4129 
Q 3647 3509 3647 2328 
Q 3647 1150 3233 529 
Q 2819 -91 2034 -91 
Q 1250 -91 836 529 
Q 422 1150 422 2328 
Q 422 3509 836 4129 
Q 1250 4750 2034 4750 
z
" transform="scale(0.015625)"/>
       </defs>
       <use xlink:href="#DejaVuSans-30"/>
      </g>
     </g>
    </g>
    <g id="xtick_3">
     <g id="line2d_3">
      <g>
       <use xlink:href="#ma0dcf3e69f" x="159.680625" y="148.198437" style="stroke: #000000; stroke-width: 0.8"/>
      </g>
     </g>
     <g id="text_3">
      <!-- 1 -->
      <g transform="translate(156.499375 162.796875) scale(0.1 -0.1)">
       <use xlink:href="#DejaVuSans-31"/>
      </g>
     </g>
    </g>
    <g id="xtick_4">
     <g id="line2d_4">
      <g>
       <use xlink:href="#ma0dcf3e69f" x="216.038125" y="148.198437" style="stroke: #000000; stroke-width: 0.8"/>
      </g>
     </g>
     <g id="text_4">
      <!-- 2 -->
      <g transform="translate(212.856875 162.796875) scale(0.1 -0.1)">
       <defs>
        <path id="DejaVuSans-32" d="M 1228 531 
L 3431 531 
L 3431 0 
L 469 0 
L 469 531 
Q 828 903 1448 1529 
Q 2069 2156 2228 2338 
Q 2531 2678 2651 2914 
Q 2772 3150 2772 3378 
Q 2772 3750 2511 3984 
Q 2250 4219 1831 4219 
Q 1534 4219 1204 4116 
Q 875 4013 500 3803 
L 500 4441 
Q 881 4594 1212 4672 
Q 1544 4750 1819 4750 
Q 2544 4750 2975 4387 
Q 3406 4025 3406 3419 
Q 3406 3131 3298 2873 
Q 3191 2616 2906 2266 
Q 2828 2175 2409 1742 
Q 1991 1309 1228 531 
z
" transform="scale(0.015625)"/>
       </defs>
       <use xlink:href="#DejaVuSans-32"/>
      </g>
     </g>
    </g>
    <g id="xtick_5">
     <g id="line2d_5">
      <g>
       <use xlink:href="#ma0dcf3e69f" x="272.395625" y="148.198437" style="stroke: #000000; stroke-width: 0.8"/>
      </g>
     </g>
     <g id="text_5">
      <!-- 3 -->
      <g transform="translate(269.214375 162.796875) scale(0.1 -0.1)">
       <defs>
        <path id="DejaVuSans-33" d="M 2597 2516 
Q 3050 2419 3304 2112 
Q 3559 1806 3559 1356 
Q 3559 666 3084 287 
Q 2609 -91 1734 -91 
Q 1441 -91 1130 -33 
Q 819 25 488 141 
L 488 750 
Q 750 597 1062 519 
Q 1375 441 1716 441 
Q 2309 441 2620 675 
Q 2931 909 2931 1356 
Q 2931 1769 2642 2001 
Q 2353 2234 1838 2234 
L 1294 2234 
L 1294 2753 
L 1863 2753 
Q 2328 2753 2575 2939 
Q 2822 3125 2822 3475 
Q 2822 3834 2567 4026 
Q 2313 4219 1838 4219 
Q 1578 4219 1281 4162 
Q 984 4106 628 3988 
L 628 4550 
Q 988 4650 1302 4700 
Q 1616 4750 1894 4750 
Q 2613 4750 3031 4423 
Q 3450 4097 3450 3541 
Q 3450 3153 3228 2886 
Q 3006 2619 2597 2516 
z
" transform="scale(0.015625)"/>
       </defs>
       <use xlink:href="#DejaVuSans-33"/>
      </g>
     </g>
    </g>
   </g>
   <g id="matplotlib.axis_2">
    <g id="ytick_1">
     <g id="line2d_6">
      <defs>
       <path id="m847d355489" d="M 0 0 
L -3.5 0 
" style="stroke: #000000; stroke-width: 0.8"/>
      </defs>
      <g>
       <use xlink:href="#m847d355489" x="46.965625" y="148.198437" style="stroke: #000000; stroke-width: 0.8"/>
      </g>
     </g>
     <g id="text_6">
      <!-- 0 -->
      <g transform="translate(33.603125 151.997656) scale(0.1 -0.1)">
       <use xlink:href="#DejaVuSans-30"/>
      </g>
     </g>
    </g>
    <g id="ytick_2">
     <g id="line2d_7">
      <g>
       <use xlink:href="#m847d355489" x="46.965625" y="126.057318" style="stroke: #000000; stroke-width: 0.8"/>
      </g>
     </g>
     <g id="text_7">
      <!-- 25 -->
      <g transform="translate(27.240625 129.856537) scale(0.1 -0.1)">
       <defs>
        <path id="DejaVuSans-35" d="M 691 4666 
L 3169 4666 
L 3169 4134 
L 1269 4134 
L 1269 2991 
Q 1406 3038 1543 3061 
Q 1681 3084 1819 3084 
Q 2600 3084 3056 2656 
Q 3513 2228 3513 1497 
Q 3513 744 3044 326 
Q 2575 -91 1722 -91 
Q 1428 -91 1123 -41 
Q 819 9 494 109 
L 494 744 
Q 775 591 1075 516 
Q 1375 441 1709 441 
Q 2250 441 2565 725 
Q 2881 1009 2881 1497 
Q 2881 1984 2565 2268 
Q 2250 2553 1709 2553 
Q 1456 2553 1204 2497 
Q 953 2441 691 2322 
L 691 4666 
z
" transform="scale(0.015625)"/>
       </defs>
       <use xlink:href="#DejaVuSans-32"/>
       <use xlink:href="#DejaVuSans-35" x="63.623047"/>
      </g>
     </g>
    </g>
    <g id="ytick_3">
     <g id="line2d_8">
      <g>
       <use xlink:href="#m847d355489" x="46.965625" y="103.916199" style="stroke: #000000; stroke-width: 0.8"/>
      </g>
     </g>
     <g id="text_8">
      <!-- 50 -->
      <g transform="translate(27.240625 107.715418) scale(0.1 -0.1)">
       <use xlink:href="#DejaVuSans-35"/>
       <use xlink:href="#DejaVuSans-30" x="63.623047"/>
      </g>
     </g>
    </g>
    <g id="ytick_4">
     <g id="line2d_9">
      <g>
       <use xlink:href="#m847d355489" x="46.965625" y="81.77508" style="stroke: #000000; stroke-width: 0.8"/>
      </g>
     </g>
     <g id="text_9">
      <!-- 75 -->
      <g transform="translate(27.240625 85.574299) scale(0.1 -0.1)">
       <defs>
        <path id="DejaVuSans-37" d="M 525 4666 
L 3525 4666 
L 3525 4397 
L 1831 0 
L 1172 0 
L 2766 4134 
L 525 4134 
L 525 4666 
z
" transform="scale(0.015625)"/>
       </defs>
       <use xlink:href="#DejaVuSans-37"/>
       <use xlink:href="#DejaVuSans-35" x="63.623047"/>
      </g>
     </g>
    </g>
    <g id="ytick_5">
     <g id="line2d_10">
      <g>
       <use xlink:href="#m847d355489" x="46.965625" y="59.633961" style="stroke: #000000; stroke-width: 0.8"/>
      </g>
     </g>
     <g id="text_10">
      <!-- 100 -->
      <g transform="translate(20.878125 63.433179) scale(0.1 -0.1)">
       <use xlink:href="#DejaVuSans-31"/>
       <use xlink:href="#DejaVuSans-30" x="63.623047"/>
       <use xlink:href="#DejaVuSans-30" x="127.246094"/>
      </g>
     </g>
    </g>
    <g id="ytick_6">
     <g id="line2d_11">
      <g>
       <use xlink:href="#m847d355489" x="46.965625" y="37.492841" style="stroke: #000000; stroke-width: 0.8"/>
      </g>
     </g>
     <g id="text_11">
      <!-- 125 -->
      <g transform="translate(20.878125 41.29206) scale(0.1 -0.1)">
       <use xlink:href="#DejaVuSans-31"/>
       <use xlink:href="#DejaVuSans-32" x="63.623047"/>
       <use xlink:href="#DejaVuSans-35" x="127.246094"/>
      </g>
     </g>
    </g>
    <g id="text_12">
     <!-- Count -->
     <g transform="translate(14.798437 99.346875) rotate(-90) scale(0.1 -0.1)">
      <defs>
       <path id="DejaVuSans-43" d="M 4122 4306 
L 4122 3641 
Q 3803 3938 3442 4084 
Q 3081 4231 2675 4231 
Q 1875 4231 1450 3742 
Q 1025 3253 1025 2328 
Q 1025 1406 1450 917 
Q 1875 428 2675 428 
Q 3081 428 3442 575 
Q 3803 722 4122 1019 
L 4122 359 
Q 3791 134 3420 21 
Q 3050 -91 2638 -91 
Q 1578 -91 968 557 
Q 359 1206 359 2328 
Q 359 3453 968 4101 
Q 1578 4750 2638 4750 
Q 3056 4750 3426 4639 
Q 3797 4528 4122 4306 
z
" transform="scale(0.015625)"/>
       <path id="DejaVuSans-6f" d="M 1959 3097 
Q 1497 3097 1228 2736 
Q 959 2375 959 1747 
Q 959 1119 1226 758 
Q 1494 397 1959 397 
Q 2419 397 2687 759 
Q 2956 1122 2956 1747 
Q 2956 2369 2687 2733 
Q 2419 3097 1959 3097 
z
M 1959 3584 
Q 2709 3584 3137 3096 
Q 3566 2609 3566 1747 
Q 3566 888 3137 398 
Q 2709 -91 1959 -91 
Q 1206 -91 779 398 
Q 353 888 353 1747 
Q 353 2609 779 3096 
Q 1206 3584 1959 3584 
z
" transform="scale(0.015625)"/>
       <path id="DejaVuSans-75" d="M 544 1381 
L 544 3500 
L 1119 3500 
L 1119 1403 
Q 1119 906 1312 657 
Q 1506 409 1894 409 
Q 2359 409 2629 706 
Q 2900 1003 2900 1516 
L 2900 3500 
L 3475 3500 
L 3475 0 
L 2900 0 
L 2900 538 
Q 2691 219 2414 64 
Q 2138 -91 1772 -91 
Q 1169 -91 856 284 
Q 544 659 544 1381 
z
M 1991 3584 
L 1991 3584 
z
" transform="scale(0.015625)"/>
       <path id="DejaVuSans-6e" d="M 3513 2113 
L 3513 0 
L 2938 0 
L 2938 2094 
Q 2938 2591 2744 2837 
Q 2550 3084 2163 3084 
Q 1697 3084 1428 2787 
Q 1159 2491 1159 1978 
L 1159 0 
L 581 0 
L 581 3500 
L 1159 3500 
L 1159 2956 
Q 1366 3272 1645 3428 
Q 1925 3584 2291 3584 
Q 2894 3584 3203 3211 
Q 3513 2838 3513 2113 
z
" transform="scale(0.015625)"/>
       <path id="DejaVuSans-74" d="M 1172 4494 
L 1172 3500 
L 2356 3500 
L 2356 3053 
L 1172 3053 
L 1172 1153 
Q 1172 725 1289 603 
Q 1406 481 1766 481 
L 2356 481 
L 2356 0 
L 1766 0 
Q 1100 0 847 248 
Q 594 497 594 1153 
L 594 3053 
L 172 3053 
L 172 3500 
L 594 3500 
L 594 4494 
L 1172 4494 
z
" transform="scale(0.015625)"/>
      </defs>
      <use xlink:href="#DejaVuSans-43"/>
      <use xlink:href="#DejaVuSans-6f" x="69.824219"/>
      <use xlink:href="#DejaVuSans-75" x="131.005859"/>
      <use xlink:href="#DejaVuSans-6e" x="194.384766"/>
      <use xlink:href="#DejaVuSans-74" x="257.763672"/>
     </g>
    </g>
   </g>
   <g id="patch_63">
    <path d="M 46.965625 148.198437 
L 46.965625 20.798437 
" style="fill: none; stroke: #000000; stroke-width: 0.8; stroke-linejoin: miter; stroke-linecap: square"/>
   </g>
   <g id="patch_64">
    <path d="M 272.395625 148.198437 
L 272.395625 20.798437 
" style="fill: none; stroke: #000000; stroke-width: 0.8; stroke-linejoin: miter; stroke-linecap: square"/>
   </g>
   <g id="patch_65">
    <path d="M 46.965625 148.198437 
L 272.395625 148.198437 
" style="fill: none; stroke: #000000; stroke-width: 0.8; stroke-linejoin: miter; stroke-linecap: square"/>
   </g>
   <g id="patch_66">
    <path d="M 46.965625 20.798437 
L 272.395625 20.798437 
" style="fill: none; stroke: #000000; stroke-width: 0.8; stroke-linejoin: miter; stroke-linecap: square"/>
   </g>
   <g id="text_13">
    <!-- Sum attention weights (train) -->
    <g transform="translate(85.891563 14.798437) scale(0.1 -0.1)">
     <defs>
      <path id="DejaVuSans-53" d="M 3425 4513 
L 3425 3897 
Q 3066 4069 2747 4153 
Q 2428 4238 2131 4238 
Q 1616 4238 1336 4038 
Q 1056 3838 1056 3469 
Q 1056 3159 1242 3001 
Q 1428 2844 1947 2747 
L 2328 2669 
Q 3034 2534 3370 2195 
Q 3706 1856 3706 1288 
Q 3706 609 3251 259 
Q 2797 -91 1919 -91 
Q 1588 -91 1214 -16 
Q 841 59 441 206 
L 441 856 
Q 825 641 1194 531 
Q 1563 422 1919 422 
Q 2459 422 2753 634 
Q 3047 847 3047 1241 
Q 3047 1584 2836 1778 
Q 2625 1972 2144 2069 
L 1759 2144 
Q 1053 2284 737 2584 
Q 422 2884 422 3419 
Q 422 4038 858 4394 
Q 1294 4750 2059 4750 
Q 2388 4750 2728 4690 
Q 3069 4631 3425 4513 
z
" transform="scale(0.015625)"/>
      <path id="DejaVuSans-6d" d="M 3328 2828 
Q 3544 3216 3844 3400 
Q 4144 3584 4550 3584 
Q 5097 3584 5394 3201 
Q 5691 2819 5691 2113 
L 5691 0 
L 5113 0 
L 5113 2094 
Q 5113 2597 4934 2840 
Q 4756 3084 4391 3084 
Q 3944 3084 3684 2787 
Q 3425 2491 3425 1978 
L 3425 0 
L 2847 0 
L 2847 2094 
Q 2847 2600 2669 2842 
Q 2491 3084 2119 3084 
Q 1678 3084 1418 2786 
Q 1159 2488 1159 1978 
L 1159 0 
L 581 0 
L 581 3500 
L 1159 3500 
L 1159 2956 
Q 1356 3278 1631 3431 
Q 1906 3584 2284 3584 
Q 2666 3584 2933 3390 
Q 3200 3197 3328 2828 
z
" transform="scale(0.015625)"/>
      <path id="DejaVuSans-20" transform="scale(0.015625)"/>
      <path id="DejaVuSans-61" d="M 2194 1759 
Q 1497 1759 1228 1600 
Q 959 1441 959 1056 
Q 959 750 1161 570 
Q 1363 391 1709 391 
Q 2188 391 2477 730 
Q 2766 1069 2766 1631 
L 2766 1759 
L 2194 1759 
z
M 3341 1997 
L 3341 0 
L 2766 0 
L 2766 531 
Q 2569 213 2275 61 
Q 1981 -91 1556 -91 
Q 1019 -91 701 211 
Q 384 513 384 1019 
Q 384 1609 779 1909 
Q 1175 2209 1959 2209 
L 2766 2209 
L 2766 2266 
Q 2766 2663 2505 2880 
Q 2244 3097 1772 3097 
Q 1472 3097 1187 3025 
Q 903 2953 641 2809 
L 641 3341 
Q 956 3463 1253 3523 
Q 1550 3584 1831 3584 
Q 2591 3584 2966 3190 
Q 3341 2797 3341 1997 
z
" transform="scale(0.015625)"/>
      <path id="DejaVuSans-65" d="M 3597 1894 
L 3597 1613 
L 953 1613 
Q 991 1019 1311 708 
Q 1631 397 2203 397 
Q 2534 397 2845 478 
Q 3156 559 3463 722 
L 3463 178 
Q 3153 47 2828 -22 
Q 2503 -91 2169 -91 
Q 1331 -91 842 396 
Q 353 884 353 1716 
Q 353 2575 817 3079 
Q 1281 3584 2069 3584 
Q 2775 3584 3186 3129 
Q 3597 2675 3597 1894 
z
M 3022 2063 
Q 3016 2534 2758 2815 
Q 2500 3097 2075 3097 
Q 1594 3097 1305 2825 
Q 1016 2553 972 2059 
L 3022 2063 
z
" transform="scale(0.015625)"/>
      <path id="DejaVuSans-69" d="M 603 3500 
L 1178 3500 
L 1178 0 
L 603 0 
L 603 3500 
z
M 603 4863 
L 1178 4863 
L 1178 4134 
L 603 4134 
L 603 4863 
z
" transform="scale(0.015625)"/>
      <path id="DejaVuSans-77" d="M 269 3500 
L 844 3500 
L 1563 769 
L 2278 3500 
L 2956 3500 
L 3675 769 
L 4391 3500 
L 4966 3500 
L 4050 0 
L 3372 0 
L 2619 2869 
L 1863 0 
L 1184 0 
L 269 3500 
z
" transform="scale(0.015625)"/>
      <path id="DejaVuSans-67" d="M 2906 1791 
Q 2906 2416 2648 2759 
Q 2391 3103 1925 3103 
Q 1463 3103 1205 2759 
Q 947 2416 947 1791 
Q 947 1169 1205 825 
Q 1463 481 1925 481 
Q 2391 481 2648 825 
Q 2906 1169 2906 1791 
z
M 3481 434 
Q 3481 -459 3084 -895 
Q 2688 -1331 1869 -1331 
Q 1566 -1331 1297 -1286 
Q 1028 -1241 775 -1147 
L 775 -588 
Q 1028 -725 1275 -790 
Q 1522 -856 1778 -856 
Q 2344 -856 2625 -561 
Q 2906 -266 2906 331 
L 2906 616 
Q 2728 306 2450 153 
Q 2172 0 1784 0 
Q 1141 0 747 490 
Q 353 981 353 1791 
Q 353 2603 747 3093 
Q 1141 3584 1784 3584 
Q 2172 3584 2450 3431 
Q 2728 3278 2906 2969 
L 2906 3500 
L 3481 3500 
L 3481 434 
z
" transform="scale(0.015625)"/>
      <path id="DejaVuSans-68" d="M 3513 2113 
L 3513 0 
L 2938 0 
L 2938 2094 
Q 2938 2591 2744 2837 
Q 2550 3084 2163 3084 
Q 1697 3084 1428 2787 
Q 1159 2491 1159 1978 
L 1159 0 
L 581 0 
L 581 4863 
L 1159 4863 
L 1159 2956 
Q 1366 3272 1645 3428 
Q 1925 3584 2291 3584 
Q 2894 3584 3203 3211 
Q 3513 2838 3513 2113 
z
" transform="scale(0.015625)"/>
      <path id="DejaVuSans-73" d="M 2834 3397 
L 2834 2853 
Q 2591 2978 2328 3040 
Q 2066 3103 1784 3103 
Q 1356 3103 1142 2972 
Q 928 2841 928 2578 
Q 928 2378 1081 2264 
Q 1234 2150 1697 2047 
L 1894 2003 
Q 2506 1872 2764 1633 
Q 3022 1394 3022 966 
Q 3022 478 2636 193 
Q 2250 -91 1575 -91 
Q 1294 -91 989 -36 
Q 684 19 347 128 
L 347 722 
Q 666 556 975 473 
Q 1284 391 1588 391 
Q 1994 391 2212 530 
Q 2431 669 2431 922 
Q 2431 1156 2273 1281 
Q 2116 1406 1581 1522 
L 1381 1569 
Q 847 1681 609 1914 
Q 372 2147 372 2553 
Q 372 3047 722 3315 
Q 1072 3584 1716 3584 
Q 2034 3584 2315 3537 
Q 2597 3491 2834 3397 
z
" transform="scale(0.015625)"/>
      <path id="DejaVuSans-28" d="M 1984 4856 
Q 1566 4138 1362 3434 
Q 1159 2731 1159 2009 
Q 1159 1288 1364 580 
Q 1569 -128 1984 -844 
L 1484 -844 
Q 1016 -109 783 600 
Q 550 1309 550 2009 
Q 550 2706 781 3412 
Q 1013 4119 1484 4856 
L 1984 4856 
z
" transform="scale(0.015625)"/>
      <path id="DejaVuSans-72" d="M 2631 2963 
Q 2534 3019 2420 3045 
Q 2306 3072 2169 3072 
Q 1681 3072 1420 2755 
Q 1159 2438 1159 1844 
L 1159 0 
L 581 0 
L 581 3500 
L 1159 3500 
L 1159 2956 
Q 1341 3275 1631 3429 
Q 1922 3584 2338 3584 
Q 2397 3584 2469 3576 
Q 2541 3569 2628 3553 
L 2631 2963 
z
" transform="scale(0.015625)"/>
      <path id="DejaVuSans-29" d="M 513 4856 
L 1013 4856 
Q 1481 4119 1714 3412 
Q 1947 2706 1947 2009 
Q 1947 1309 1714 600 
Q 1481 -109 1013 -844 
L 513 -844 
Q 928 -128 1133 580 
Q 1338 1288 1338 2009 
Q 1338 2731 1133 3434 
Q 928 4138 513 4856 
z
" transform="scale(0.015625)"/>
     </defs>
     <use xlink:href="#DejaVuSans-53"/>
     <use xlink:href="#DejaVuSans-75" x="63.476562"/>
     <use xlink:href="#DejaVuSans-6d" x="126.855469"/>
     <use xlink:href="#DejaVuSans-20" x="224.267578"/>
     <use xlink:href="#DejaVuSans-61" x="256.054688"/>
     <use xlink:href="#DejaVuSans-74" x="317.333984"/>
     <use xlink:href="#DejaVuSans-74" x="356.542969"/>
     <use xlink:href="#DejaVuSans-65" x="395.751953"/>
     <use xlink:href="#DejaVuSans-6e" x="457.275391"/>
     <use xlink:href="#DejaVuSans-74" x="520.654297"/>
     <use xlink:href="#DejaVuSans-69" x="559.863281"/>
     <use xlink:href="#DejaVuSans-6f" x="587.646484"/>
     <use xlink:href="#DejaVuSans-6e" x="648.828125"/>
     <use xlink:href="#DejaVuSans-20" x="712.207031"/>
     <use xlink:href="#DejaVuSans-77" x="743.994141"/>
     <use xlink:href="#DejaVuSans-65" x="825.78125"/>
     <use xlink:href="#DejaVuSans-69" x="887.304688"/>
     <use xlink:href="#DejaVuSans-67" x="915.087891"/>
     <use xlink:href="#DejaVuSans-68" x="978.564453"/>
     <use xlink:href="#DejaVuSans-74" x="1041.943359"/>
     <use xlink:href="#DejaVuSans-73" x="1081.152344"/>
     <use xlink:href="#DejaVuSans-20" x="1133.251953"/>
     <use xlink:href="#DejaVuSans-28" x="1165.039062"/>
     <use xlink:href="#DejaVuSans-74" x="1204.052734"/>
     <use xlink:href="#DejaVuSans-72" x="1243.261719"/>
     <use xlink:href="#DejaVuSans-61" x="1284.375"/>
     <use xlink:href="#DejaVuSans-69" x="1345.654297"/>
     <use xlink:href="#DejaVuSans-6e" x="1373.4375"/>
     <use xlink:href="#DejaVuSans-29" x="1436.816406"/>
    </g>
   </g>
  </g>
  <g id="axes_2">
   <g id="patch_67">
    <path d="M 332.715625 148.198437 
L 558.145625 148.198437 
L 558.145625 20.798437 
L 332.715625 20.798437 
z
" style="fill: #ffffff"/>
   </g>
   <g id="patch_68">
    <path d="M 417.251875 148.198437 
L 420.06975 148.198437 
L 420.06975 148.198437 
L 417.251875 148.198437 
z
" clip-path="url(#p9f72e1113f)" style="fill: #1f77b4; fill-opacity: 0.75; stroke: #000000; stroke-width: 0.253636; stroke-linejoin: miter"/>
   </g>
   <g id="patch_69">
    <path d="M 420.06975 148.198437 
L 422.887625 148.198437 
L 422.887625 148.198437 
L 420.06975 148.198437 
z
" clip-path="url(#p9f72e1113f)" style="fill: #1f77b4; fill-opacity: 0.75; stroke: #000000; stroke-width: 0.253636; stroke-linejoin: miter"/>
   </g>
   <g id="patch_70">
    <path d="M 422.887625 148.198437 
L 425.7055 148.198437 
L 425.7055 148.198437 
L 422.887625 148.198437 
z
" clip-path="url(#p9f72e1113f)" style="fill: #1f77b4; fill-opacity: 0.75; stroke: #000000; stroke-width: 0.253636; stroke-linejoin: miter"/>
   </g>
   <g id="patch_71">
    <path d="M 425.7055 148.198437 
L 428.523375 148.198437 
L 428.523375 148.198437 
L 425.7055 148.198437 
z
" clip-path="url(#p9f72e1113f)" style="fill: #1f77b4; fill-opacity: 0.75; stroke: #000000; stroke-width: 0.253636; stroke-linejoin: miter"/>
   </g>
   <g id="patch_72">
    <path d="M 428.523375 148.198437 
L 431.34125 148.198437 
L 431.34125 148.198437 
L 428.523375 148.198437 
z
" clip-path="url(#p9f72e1113f)" style="fill: #1f77b4; fill-opacity: 0.75; stroke: #000000; stroke-width: 0.253636; stroke-linejoin: miter"/>
   </g>
   <g id="patch_73">
    <path d="M 431.34125 148.198437 
L 434.159125 148.198437 
L 434.159125 148.198437 
L 431.34125 148.198437 
z
" clip-path="url(#p9f72e1113f)" style="fill: #1f77b4; fill-opacity: 0.75; stroke: #000000; stroke-width: 0.253636; stroke-linejoin: miter"/>
   </g>
   <g id="patch_74">
    <path d="M 434.159125 148.198437 
L 436.977 148.198437 
L 436.977 148.198437 
L 434.159125 148.198437 
z
" clip-path="url(#p9f72e1113f)" style="fill: #1f77b4; fill-opacity: 0.75; stroke: #000000; stroke-width: 0.253636; stroke-linejoin: miter"/>
   </g>
   <g id="patch_75">
    <path d="M 436.977 148.198437 
L 439.794875 148.198437 
L 439.794875 148.198437 
L 436.977 148.198437 
z
" clip-path="url(#p9f72e1113f)" style="fill: #1f77b4; fill-opacity: 0.75; stroke: #000000; stroke-width: 0.253636; stroke-linejoin: miter"/>
   </g>
   <g id="patch_76">
    <path d="M 439.794875 148.198437 
L 442.61275 148.198437 
L 442.61275 148.198437 
L 439.794875 148.198437 
z
" clip-path="url(#p9f72e1113f)" style="fill: #1f77b4; fill-opacity: 0.75; stroke: #000000; stroke-width: 0.253636; stroke-linejoin: miter"/>
   </g>
   <g id="patch_77">
    <path d="M 442.61275 148.198437 
L 445.430625 148.198437 
L 445.430625 148.198437 
L 442.61275 148.198437 
z
" clip-path="url(#p9f72e1113f)" style="fill: #1f77b4; fill-opacity: 0.75; stroke: #000000; stroke-width: 0.253636; stroke-linejoin: miter"/>
   </g>
   <g id="patch_78">
    <path d="M 445.430625 148.198437 
L 448.2485 148.198437 
L 448.2485 26.865104 
L 445.430625 26.865104 
z
" clip-path="url(#p9f72e1113f)" style="fill: #1f77b4; fill-opacity: 0.75; stroke: #000000; stroke-width: 0.253636; stroke-linejoin: miter"/>
   </g>
   <g id="patch_79">
    <path d="M 448.2485 148.198437 
L 451.066375 148.198437 
L 451.066375 148.198437 
L 448.2485 148.198437 
z
" clip-path="url(#p9f72e1113f)" style="fill: #1f77b4; fill-opacity: 0.75; stroke: #000000; stroke-width: 0.253636; stroke-linejoin: miter"/>
   </g>
   <g id="patch_80">
    <path d="M 451.066375 148.198437 
L 453.88425 148.198437 
L 453.88425 148.198437 
L 451.066375 148.198437 
z
" clip-path="url(#p9f72e1113f)" style="fill: #1f77b4; fill-opacity: 0.75; stroke: #000000; stroke-width: 0.253636; stroke-linejoin: miter"/>
   </g>
   <g id="patch_81">
    <path d="M 453.88425 148.198437 
L 456.702125 148.198437 
L 456.702125 148.198437 
L 453.88425 148.198437 
z
" clip-path="url(#p9f72e1113f)" style="fill: #1f77b4; fill-opacity: 0.75; stroke: #000000; stroke-width: 0.253636; stroke-linejoin: miter"/>
   </g>
   <g id="patch_82">
    <path d="M 456.702125 148.198437 
L 459.52 148.198437 
L 459.52 148.198437 
L 456.702125 148.198437 
z
" clip-path="url(#p9f72e1113f)" style="fill: #1f77b4; fill-opacity: 0.75; stroke: #000000; stroke-width: 0.253636; stroke-linejoin: miter"/>
   </g>
   <g id="patch_83">
    <path d="M 459.52 148.198437 
L 462.337875 148.198437 
L 462.337875 148.198437 
L 459.52 148.198437 
z
" clip-path="url(#p9f72e1113f)" style="fill: #1f77b4; fill-opacity: 0.75; stroke: #000000; stroke-width: 0.253636; stroke-linejoin: miter"/>
   </g>
   <g id="patch_84">
    <path d="M 462.337875 148.198437 
L 465.15575 148.198437 
L 465.15575 148.198437 
L 462.337875 148.198437 
z
" clip-path="url(#p9f72e1113f)" style="fill: #1f77b4; fill-opacity: 0.75; stroke: #000000; stroke-width: 0.253636; stroke-linejoin: miter"/>
   </g>
   <g id="patch_85">
    <path d="M 465.15575 148.198437 
L 467.973625 148.198437 
L 467.973625 148.198437 
L 465.15575 148.198437 
z
" clip-path="url(#p9f72e1113f)" style="fill: #1f77b4; fill-opacity: 0.75; stroke: #000000; stroke-width: 0.253636; stroke-linejoin: miter"/>
   </g>
   <g id="patch_86">
    <path d="M 467.973625 148.198437 
L 470.7915 148.198437 
L 470.7915 148.198437 
L 467.973625 148.198437 
z
" clip-path="url(#p9f72e1113f)" style="fill: #1f77b4; fill-opacity: 0.75; stroke: #000000; stroke-width: 0.253636; stroke-linejoin: miter"/>
   </g>
   <g id="patch_87">
    <path d="M 470.7915 148.198437 
L 473.609375 148.198437 
L 473.609375 148.198437 
L 470.7915 148.198437 
z
" clip-path="url(#p9f72e1113f)" style="fill: #1f77b4; fill-opacity: 0.75; stroke: #000000; stroke-width: 0.253636; stroke-linejoin: miter"/>
   </g>
   <g id="matplotlib.axis_3">
    <g id="xtick_6">
     <g id="line2d_12">
      <g>
       <use xlink:href="#ma0dcf3e69f" x="332.715625" y="148.198437" style="stroke: #000000; stroke-width: 0.8"/>
      </g>
     </g>
     <g id="text_14">
      <!-- −1 -->
      <g transform="translate(325.344531 162.796875) scale(0.1 -0.1)">
       <use xlink:href="#DejaVuSans-2212"/>
       <use xlink:href="#DejaVuSans-31" x="83.789062"/>
      </g>
     </g>
    </g>
    <g id="xtick_7">
     <g id="line2d_13">
      <g>
       <use xlink:href="#ma0dcf3e69f" x="389.073125" y="148.198437" style="stroke: #000000; stroke-width: 0.8"/>
      </g>
     </g>
     <g id="text_15">
      <!-- 0 -->
      <g transform="translate(385.891875 162.796875) scale(0.1 -0.1)">
       <use xlink:href="#DejaVuSans-30"/>
      </g>
     </g>
    </g>
    <g id="xtick_8">
     <g id="line2d_14">
      <g>
       <use xlink:href="#ma0dcf3e69f" x="445.430625" y="148.198437" style="stroke: #000000; stroke-width: 0.8"/>
      </g>
     </g>
     <g id="text_16">
      <!-- 1 -->
      <g transform="translate(442.249375 162.796875) scale(0.1 -0.1)">
       <use xlink:href="#DejaVuSans-31"/>
      </g>
     </g>
    </g>
    <g id="xtick_9">
     <g id="line2d_15">
      <g>
       <use xlink:href="#ma0dcf3e69f" x="501.788125" y="148.198437" style="stroke: #000000; stroke-width: 0.8"/>
      </g>
     </g>
     <g id="text_17">
      <!-- 2 -->
      <g transform="translate(498.606875 162.796875) scale(0.1 -0.1)">
       <use xlink:href="#DejaVuSans-32"/>
      </g>
     </g>
    </g>
    <g id="xtick_10">
     <g id="line2d_16">
      <g>
       <use xlink:href="#ma0dcf3e69f" x="558.145625" y="148.198437" style="stroke: #000000; stroke-width: 0.8"/>
      </g>
     </g>
     <g id="text_18">
      <!-- 3 -->
      <g transform="translate(554.964375 162.796875) scale(0.1 -0.1)">
       <use xlink:href="#DejaVuSans-33"/>
      </g>
     </g>
    </g>
   </g>
   <g id="matplotlib.axis_4">
    <g id="ytick_7">
     <g id="line2d_17">
      <g>
       <use xlink:href="#m847d355489" x="332.715625" y="148.198437" style="stroke: #000000; stroke-width: 0.8"/>
      </g>
     </g>
     <g id="text_19">
      <!-- 0 -->
      <g transform="translate(319.353125 151.997656) scale(0.1 -0.1)">
       <use xlink:href="#DejaVuSans-30"/>
      </g>
     </g>
    </g>
    <g id="ytick_8">
     <g id="line2d_18">
      <g>
       <use xlink:href="#m847d355489" x="332.715625" y="107.753993" style="stroke: #000000; stroke-width: 0.8"/>
      </g>
     </g>
     <g id="text_20">
      <!-- 1000 -->
      <g transform="translate(300.265625 111.553212) scale(0.1 -0.1)">
       <use xlink:href="#DejaVuSans-31"/>
       <use xlink:href="#DejaVuSans-30" x="63.623047"/>
       <use xlink:href="#DejaVuSans-30" x="127.246094"/>
       <use xlink:href="#DejaVuSans-30" x="190.869141"/>
      </g>
     </g>
    </g>
    <g id="ytick_9">
     <g id="line2d_19">
      <g>
       <use xlink:href="#m847d355489" x="332.715625" y="67.309549" style="stroke: #000000; stroke-width: 0.8"/>
      </g>
     </g>
     <g id="text_21">
      <!-- 2000 -->
      <g transform="translate(300.265625 71.108767) scale(0.1 -0.1)">
       <use xlink:href="#DejaVuSans-32"/>
       <use xlink:href="#DejaVuSans-30" x="63.623047"/>
       <use xlink:href="#DejaVuSans-30" x="127.246094"/>
       <use xlink:href="#DejaVuSans-30" x="190.869141"/>
      </g>
     </g>
    </g>
    <g id="ytick_10">
     <g id="line2d_20">
      <g>
       <use xlink:href="#m847d355489" x="332.715625" y="26.865104" style="stroke: #000000; stroke-width: 0.8"/>
      </g>
     </g>
     <g id="text_22">
      <!-- 3000 -->
      <g transform="translate(300.265625 30.664323) scale(0.1 -0.1)">
       <use xlink:href="#DejaVuSans-33"/>
       <use xlink:href="#DejaVuSans-30" x="63.623047"/>
       <use xlink:href="#DejaVuSans-30" x="127.246094"/>
       <use xlink:href="#DejaVuSans-30" x="190.869141"/>
      </g>
     </g>
    </g>
    <g id="text_23">
     <!-- Count -->
     <g transform="translate(294.185938 99.346875) rotate(-90) scale(0.1 -0.1)">
      <use xlink:href="#DejaVuSans-43"/>
      <use xlink:href="#DejaVuSans-6f" x="69.824219"/>
      <use xlink:href="#DejaVuSans-75" x="131.005859"/>
      <use xlink:href="#DejaVuSans-6e" x="194.384766"/>
      <use xlink:href="#DejaVuSans-74" x="257.763672"/>
     </g>
    </g>
   </g>
   <g id="patch_88">
    <path d="M 332.715625 148.198437 
L 332.715625 20.798437 
" style="fill: none; stroke: #000000; stroke-width: 0.8; stroke-linejoin: miter; stroke-linecap: square"/>
   </g>
   <g id="patch_89">
    <path d="M 558.145625 148.198437 
L 558.145625 20.798437 
" style="fill: none; stroke: #000000; stroke-width: 0.8; stroke-linejoin: miter; stroke-linecap: square"/>
   </g>
   <g id="patch_90">
    <path d="M 332.715625 148.198437 
L 558.145625 148.198437 
" style="fill: none; stroke: #000000; stroke-width: 0.8; stroke-linejoin: miter; stroke-linecap: square"/>
   </g>
   <g id="patch_91">
    <path d="M 332.715625 20.798437 
L 558.145625 20.798437 
" style="fill: none; stroke: #000000; stroke-width: 0.8; stroke-linejoin: miter; stroke-linecap: square"/>
   </g>
   <g id="text_24">
    <!-- Sum attention weights (valid) -->
    <g transform="translate(371.303281 14.798437) scale(0.1 -0.1)">
     <defs>
      <path id="DejaVuSans-76" d="M 191 3500 
L 800 3500 
L 1894 563 
L 2988 3500 
L 3597 3500 
L 2284 0 
L 1503 0 
L 191 3500 
z
" transform="scale(0.015625)"/>
      <path id="DejaVuSans-6c" d="M 603 4863 
L 1178 4863 
L 1178 0 
L 603 0 
L 603 4863 
z
" transform="scale(0.015625)"/>
      <path id="DejaVuSans-64" d="M 2906 2969 
L 2906 4863 
L 3481 4863 
L 3481 0 
L 2906 0 
L 2906 525 
Q 2725 213 2448 61 
Q 2172 -91 1784 -91 
Q 1150 -91 751 415 
Q 353 922 353 1747 
Q 353 2572 751 3078 
Q 1150 3584 1784 3584 
Q 2172 3584 2448 3432 
Q 2725 3281 2906 2969 
z
M 947 1747 
Q 947 1113 1208 752 
Q 1469 391 1925 391 
Q 2381 391 2643 752 
Q 2906 1113 2906 1747 
Q 2906 2381 2643 2742 
Q 2381 3103 1925 3103 
Q 1469 3103 1208 2742 
Q 947 2381 947 1747 
z
" transform="scale(0.015625)"/>
     </defs>
     <use xlink:href="#DejaVuSans-53"/>
     <use xlink:href="#DejaVuSans-75" x="63.476562"/>
     <use xlink:href="#DejaVuSans-6d" x="126.855469"/>
     <use xlink:href="#DejaVuSans-20" x="224.267578"/>
     <use xlink:href="#DejaVuSans-61" x="256.054688"/>
     <use xlink:href="#DejaVuSans-74" x="317.333984"/>
     <use xlink:href="#DejaVuSans-74" x="356.542969"/>
     <use xlink:href="#DejaVuSans-65" x="395.751953"/>
     <use xlink:href="#DejaVuSans-6e" x="457.275391"/>
     <use xlink:href="#DejaVuSans-74" x="520.654297"/>
     <use xlink:href="#DejaVuSans-69" x="559.863281"/>
     <use xlink:href="#DejaVuSans-6f" x="587.646484"/>
     <use xlink:href="#DejaVuSans-6e" x="648.828125"/>
     <use xlink:href="#DejaVuSans-20" x="712.207031"/>
     <use xlink:href="#DejaVuSans-77" x="743.994141"/>
     <use xlink:href="#DejaVuSans-65" x="825.78125"/>
     <use xlink:href="#DejaVuSans-69" x="887.304688"/>
     <use xlink:href="#DejaVuSans-67" x="915.087891"/>
     <use xlink:href="#DejaVuSans-68" x="978.564453"/>
     <use xlink:href="#DejaVuSans-74" x="1041.943359"/>
     <use xlink:href="#DejaVuSans-73" x="1081.152344"/>
     <use xlink:href="#DejaVuSans-20" x="1133.251953"/>
     <use xlink:href="#DejaVuSans-28" x="1165.039062"/>
     <use xlink:href="#DejaVuSans-76" x="1204.052734"/>
     <use xlink:href="#DejaVuSans-61" x="1263.232422"/>
     <use xlink:href="#DejaVuSans-6c" x="1324.511719"/>
     <use xlink:href="#DejaVuSans-69" x="1352.294922"/>
     <use xlink:href="#DejaVuSans-64" x="1380.078125"/>
     <use xlink:href="#DejaVuSans-29" x="1443.554688"/>
    </g>
   </g>
  </g>
 </g>
 <defs>
  <clipPath id="pf8144790ad">
   <rect x="46.965625" y="20.798437" width="225.43" height="127.4"/>
  </clipPath>
  <clipPath id="p9f72e1113f">
   <rect x="332.715625" y="20.798437" width="225.43" height="127.4"/>
  </clipPath>
 </defs>
</svg>