<?xml version="1.0" encoding="utf-8" standalone="no"?>
<!DOCTYPE svg PUBLIC "-//W3C//DTD SVG 1.1//EN"
  "http://www.w3.org/Graphics/SVG/1.1/DTD/svg11.dtd">
<svg xmlns:xlink="http://www.w3.org/1999/xlink" width="493.25pt" height="212.51625pt" viewBox="0 0 493.25 212.51625" xmlns="http://www.w3.org/2000/svg" version="1.1">
 <metadata>
  <rdf:RDF xmlns:dc="http://purl.org/dc/elements/1.1/" xmlns:cc="http://creativecommons.org/ns#" xmlns:rdf="http://www.w3.org/1999/02/22-rdf-syntax-ns#">
   <cc:Work>
    <dc:type rdf:resource="http://purl.org/dc/dcmitype/StillImage"/>
    <dc:date>2023-03-29T02:52:07.613619</dc:date>
    <dc:format>image/svg+xml</dc:format>
    <dc:creator>
     <cc:Agent>
      <dc:title>Matplotlib v3.7.0, https://matplotlib.org/</dc:title>
     </cc:Agent>
    </dc:creator>
   </cc:Work>
  </rdf:RDF>
 </metadata>
 <defs>
  <style type="text/css">*{stroke-linejoin: round; stroke-linecap: butt}</style>
 </defs>
 <g id="figure_1">
  <g id="patch_1">
   <path d="M 0 212.51625 
L 493.25 212.51625 
L 493.25 0 
L 0 0 
z
" style="fill: #ffffff"/>
  </g>
  <g id="axes_1">
   <g id="patch_2">
    <path d="M 39.65 188.638125 
L 242.559091 188.638125 
L 242.559091 22.318125 
L 39.65 22.318125 
z
" style="fill: #ffffff"/>
   </g>
   <g id="patch_3">
    <path d="M 48.87314 188.638125 
L 52.562397 188.638125 
L 52.562397 30.238125 
L 48.87314 30.238125 
z
" clip-path="url(#p25392bcdb6)" style="fill: #1f77b4"/>
   </g>
   <g id="patch_4">
    <path d="M 52.562397 188.638125 
L 56.251653 188.638125 
L 56.251653 186.597966 
L 52.562397 186.597966 
z
" clip-path="url(#p25392bcdb6)" style="fill: #1f77b4"/>
   </g>
   <g id="patch_5">
    <path d="M 56.251653 188.638125 
L 59.940909 188.638125 
L 59.940909 187.330331 
L 56.251653 187.330331 
z
" clip-path="url(#p25392bcdb6)" style="fill: #1f77b4"/>
   </g>
   <g id="patch_6">
    <path d="M 59.940909 188.638125 
L 63.630165 188.638125 
L 63.630165 187.801137 
L 59.940909 187.801137 
z
" clip-path="url(#p25392bcdb6)" style="fill: #1f77b4"/>
   </g>
   <g id="patch_7">
    <path d="M 63.630165 188.638125 
L 67.319421 188.638125 
L 67.319421 188.062696 
L 63.630165 188.062696 
z
" clip-path="url(#p25392bcdb6)" style="fill: #1f77b4"/>
   </g>
   <g id="patch_8">
    <path d="M 67.319421 188.638125 
L 71.008678 188.638125 
L 71.008678 187.853449 
L 67.319421 187.853449 
z
" clip-path="url(#p25392bcdb6)" style="fill: #1f77b4"/>
   </g>
   <g id="patch_9">
    <path d="M 71.008678 188.638125 
L 74.697934 188.638125 
L 74.697934 187.958072 
L 71.008678 187.958072 
z
" clip-path="url(#p25392bcdb6)" style="fill: #1f77b4"/>
   </g>
   <g id="patch_10">
    <path d="M 74.697934 188.638125 
L 78.38719 188.638125 
L 78.38719 188.219631 
L 74.697934 188.219631 
z
" clip-path="url(#p25392bcdb6)" style="fill: #1f77b4"/>
   </g>
   <g id="patch_11">
    <path d="M 78.38719 188.638125 
L 82.076446 188.638125 
L 82.076446 188.324254 
L 78.38719 188.324254 
z
" clip-path="url(#p25392bcdb6)" style="fill: #1f77b4"/>
   </g>
   <g id="patch_12">
    <path d="M 82.076446 188.638125 
L 85.765702 188.638125 
L 85.765702 187.958072 
L 82.076446 187.958072 
z
" clip-path="url(#p25392bcdb6)" style="fill: #1f77b4"/>
   </g>
   <g id="patch_13">
    <path d="M 85.765702 188.638125 
L 89.454959 188.638125 
L 89.454959 188.533501 
L 85.765702 188.533501 
z
" clip-path="url(#p25392bcdb6)" style="fill: #1f77b4"/>
   </g>
   <g id="patch_14">
    <path d="M 89.454959 188.638125 
L 93.144215 188.638125 
L 93.144215 188.376566 
L 89.454959 188.376566 
z
" clip-path="url(#p25392bcdb6)" style="fill: #1f77b4"/>
   </g>
   <g id="patch_15">
    <path d="M 93.144215 188.638125 
L 96.833471 188.638125 
L 96.833471 188.324254 
L 93.144215 188.324254 
z
" clip-path="url(#p25392bcdb6)" style="fill: #1f77b4"/>
   </g>
   <g id="patch_16">
    <path d="M 96.833471 188.638125 
L 100.522727 188.638125 
L 100.522727 188.324254 
L 96.833471 188.324254 
z
" clip-path="url(#p25392bcdb6)" style="fill: #1f77b4"/>
   </g>
   <g id="patch_17">
    <path d="M 100.522727 188.638125 
L 104.211983 188.638125 
L 104.211983 188.585813 
L 100.522727 188.585813 
z
" clip-path="url(#p25392bcdb6)" style="fill: #1f77b4"/>
   </g>
   <g id="patch_18">
    <path d="M 104.211983 188.638125 
L 107.90124 188.638125 
L 107.90124 188.48119 
L 104.211983 188.48119 
z
" clip-path="url(#p25392bcdb6)" style="fill: #1f77b4"/>
   </g>
   <g id="patch_19">
    <path d="M 107.90124 188.638125 
L 111.590496 188.638125 
L 111.590496 188.585813 
L 107.90124 188.585813 
z
" clip-path="url(#p25392bcdb6)" style="fill: #1f77b4"/>
   </g>
   <g id="patch_20">
    <path d="M 111.590496 188.638125 
L 115.279752 188.638125 
L 115.279752 188.48119 
L 111.590496 188.48119 
z
" clip-path="url(#p25392bcdb6)" style="fill: #1f77b4"/>
   </g>
   <g id="patch_21">
    <path d="M 115.279752 188.638125 
L 118.969008 188.638125 
L 118.969008 188.48119 
L 115.279752 188.48119 
z
" clip-path="url(#p25392bcdb6)" style="fill: #1f77b4"/>
   </g>
   <g id="patch_22">
    <path d="M 118.969008 188.638125 
L 122.658264 188.638125 
L 122.658264 188.376566 
L 118.969008 188.376566 
z
" clip-path="url(#p25392bcdb6)" style="fill: #1f77b4"/>
   </g>
   <g id="patch_23">
    <path d="M 122.658264 188.638125 
L 126.347521 188.638125 
L 126.347521 188.428878 
L 122.658264 188.428878 
z
" clip-path="url(#p25392bcdb6)" style="fill: #1f77b4"/>
   </g>
   <g id="patch_24">
    <path d="M 126.347521 188.638125 
L 130.036777 188.638125 
L 130.036777 188.219631 
L 126.347521 188.219631 
z
" clip-path="url(#p25392bcdb6)" style="fill: #1f77b4"/>
   </g>
   <g id="patch_25">
    <path d="M 130.036777 188.638125 
L 133.726033 188.638125 
L 133.726033 188.324254 
L 130.036777 188.324254 
z
" clip-path="url(#p25392bcdb6)" style="fill: #1f77b4"/>
   </g>
   <g id="patch_26">
    <path d="M 133.726033 188.638125 
L 137.415289 188.638125 
L 137.415289 188.585813 
L 133.726033 188.585813 
z
" clip-path="url(#p25392bcdb6)" style="fill: #1f77b4"/>
   </g>
   <g id="patch_27">
    <path d="M 137.415289 188.638125 
L 141.104545 188.638125 
L 141.104545 188.48119 
L 137.415289 188.48119 
z
" clip-path="url(#p25392bcdb6)" style="fill: #1f77b4"/>
   </g>
   <g id="patch_28">
    <path d="M 141.104545 188.638125 
L 144.793802 188.638125 
L 144.793802 188.271943 
L 141.104545 188.271943 
z
" clip-path="url(#p25392bcdb6)" style="fill: #1f77b4"/>
   </g>
   <g id="patch_29">
    <path d="M 144.793802 188.638125 
L 148.483058 188.638125 
L 148.483058 188.324254 
L 144.793802 188.324254 
z
" clip-path="url(#p25392bcdb6)" style="fill: #1f77b4"/>
   </g>
   <g id="patch_30">
    <path d="M 148.483058 188.638125 
L 152.172314 188.638125 
L 152.172314 188.271943 
L 148.483058 188.271943 
z
" clip-path="url(#p25392bcdb6)" style="fill: #1f77b4"/>
   </g>
   <g id="patch_31">
    <path d="M 152.172314 188.638125 
L 155.86157 188.638125 
L 155.86157 188.428878 
L 152.172314 188.428878 
z
" clip-path="url(#p25392bcdb6)" style="fill: #1f77b4"/>
   </g>
   <g id="patch_32">
    <path d="M 155.86157 188.638125 
L 159.550826 188.638125 
L 159.550826 188.428878 
L 155.86157 188.428878 
z
" clip-path="url(#p25392bcdb6)" style="fill: #1f77b4"/>
   </g>
   <g id="patch_33">
    <path d="M 159.550826 188.638125 
L 163.240083 188.638125 
L 163.240083 188.48119 
L 159.550826 188.48119 
z
" clip-path="url(#p25392bcdb6)" style="fill: #1f77b4"/>
   </g>
   <g id="patch_34">
    <path d="M 163.240083 188.638125 
L 166.929339 188.638125 
L 166.929339 188.376566 
L 163.240083 188.376566 
z
" clip-path="url(#p25392bcdb6)" style="fill: #1f77b4"/>
   </g>
   <g id="patch_35">
    <path d="M 166.929339 188.638125 
L 170.618595 188.638125 
L 170.618595 188.533501 
L 166.929339 188.533501 
z
" clip-path="url(#p25392bcdb6)" style="fill: #1f77b4"/>
   </g>
   <g id="patch_36">
    <path d="M 170.618595 188.638125 
L 174.307851 188.638125 
L 174.307851 188.533501 
L 170.618595 188.533501 
z
" clip-path="url(#p25392bcdb6)" style="fill: #1f77b4"/>
   </g>
   <g id="patch_37">
    <path d="M 174.307851 188.638125 
L 177.997107 188.638125 
L 177.997107 188.324254 
L 174.307851 188.324254 
z
" clip-path="url(#p25392bcdb6)" style="fill: #1f77b4"/>
   </g>
   <g id="patch_38">
    <path d="M 177.997107 188.638125 
L 181.686364 188.638125 
L 181.686364 188.533501 
L 177.997107 188.533501 
z
" clip-path="url(#p25392bcdb6)" style="fill: #1f77b4"/>
   </g>
   <g id="patch_39">
    <path d="M 181.686364 188.638125 
L 185.37562 188.638125 
L 185.37562 188.271943 
L 181.686364 188.271943 
z
" clip-path="url(#p25392bcdb6)" style="fill: #1f77b4"/>
   </g>
   <g id="patch_40">
    <path d="M 185.37562 188.638125 
L 189.064876 188.638125 
L 189.064876 188.324254 
L 185.37562 188.324254 
z
" clip-path="url(#p25392bcdb6)" style="fill: #1f77b4"/>
   </g>
   <g id="patch_41">
    <path d="M 189.064876 188.638125 
L 192.754132 188.638125 
L 192.754132 188.376566 
L 189.064876 188.376566 
z
" clip-path="url(#p25392bcdb6)" style="fill: #1f77b4"/>
   </g>
   <g id="patch_42">
    <path d="M 192.754132 188.638125 
L 196.443388 188.638125 
L 196.443388 187.801137 
L 192.754132 187.801137 
z
" clip-path="url(#p25392bcdb6)" style="fill: #1f77b4"/>
   </g>
   <g id="patch_43">
    <path d="M 196.443388 188.638125 
L 200.132645 188.638125 
L 200.132645 188.48119 
L 196.443388 188.48119 
z
" clip-path="url(#p25392bcdb6)" style="fill: #1f77b4"/>
   </g>
   <g id="patch_44">
    <path d="M 200.132645 188.638125 
L 203.821901 188.638125 
L 203.821901 188.376566 
L 200.132645 188.376566 
z
" clip-path="url(#p25392bcdb6)" style="fill: #1f77b4"/>
   </g>
   <g id="patch_45">
    <path d="M 203.821901 188.638125 
L 207.511157 188.638125 
L 207.511157 188.115007 
L 203.821901 188.115007 
z
" clip-path="url(#p25392bcdb6)" style="fill: #1f77b4"/>
   </g>
   <g id="patch_46">
    <path d="M 207.511157 188.638125 
L 211.200413 188.638125 
L 211.200413 187.958072 
L 207.511157 187.958072 
z
" clip-path="url(#p25392bcdb6)" style="fill: #1f77b4"/>
   </g>
   <g id="patch_47">
    <path d="M 211.200413 188.638125 
L 214.889669 188.638125 
L 214.889669 188.219631 
L 211.200413 188.219631 
z
" clip-path="url(#p25392bcdb6)" style="fill: #1f77b4"/>
   </g>
   <g id="patch_48">
    <path d="M 214.889669 188.638125 
L 218.578926 188.638125 
L 218.578926 188.115007 
L 214.889669 188.115007 
z
" clip-path="url(#p25392bcdb6)" style="fill: #1f77b4"/>
   </g>
   <g id="patch_49">
    <path d="M 218.578926 188.638125 
L 222.268182 188.638125 
L 222.268182 187.90576 
L 218.578926 187.90576 
z
" clip-path="url(#p25392bcdb6)" style="fill: #1f77b4"/>
   </g>
   <g id="patch_50">
    <path d="M 222.268182 188.638125 
L 225.957438 188.638125 
L 225.957438 187.853449 
L 222.268182 187.853449 
z
" clip-path="url(#p25392bcdb6)" style="fill: #1f77b4"/>
   </g>
   <g id="patch_51">
    <path d="M 225.957438 188.638125 
L 229.646694 188.638125 
L 229.646694 186.859525 
L 225.957438 186.859525 
z
" clip-path="url(#p25392bcdb6)" style="fill: #1f77b4"/>
   </g>
   <g id="patch_52">
    <path d="M 229.646694 188.638125 
L 233.33595 188.638125 
L 233.33595 33.010648 
L 229.646694 33.010648 
z
" clip-path="url(#p25392bcdb6)" style="fill: #1f77b4"/>
   </g>
   <g id="matplotlib.axis_1">
    <g id="xtick_1">
     <g id="line2d_1">
      <defs>
       <path id="m2d8924a685" d="M 0 0 
L 0 3.5 
" style="stroke: #000000; stroke-width: 0.8"/>
      </defs>
      <g>
       <use xlink:href="#m2d8924a685" x="48.87314" y="188.638125" style="stroke: #000000; stroke-width: 0.8"/>
      </g>
     </g>
     <g id="text_1">
      <!-- −1.0 -->
      <g transform="translate(36.731734 203.236563) scale(0.1 -0.1)">
       <defs>
        <path id="DejaVuSans-2212" d="M 678 2272 
L 4684 2272 
L 4684 1741 
L 678 1741 
L 678 2272 
z
" transform="scale(0.015625)"/>
        <path id="DejaVuSans-31" d="M 794 531 
L 1825 531 
L 1825 4091 
L 703 3866 
L 703 4441 
L 1819 4666 
L 2450 4666 
L 2450 531 
L 3481 531 
L 3481 0 
L 794 0 
L 794 531 
z
" transform="scale(0.015625)"/>
        <path id="DejaVuSans-2e" d="M 684 794 
L 1344 794 
L 1344 0 
L 684 0 
L 684 794 
z
" transform="scale(0.015625)"/>
        <path id="DejaVuSans-30" d="M 2034 4250 
Q 1547 4250 1301 3770 
Q 1056 3291 1056 2328 
Q 1056 1369 1301 889 
Q 1547 409 2034 409 
Q 2525 409 2770 889 
Q 3016 1369 3016 2328 
Q 3016 3291 2770 3770 
Q 2525 4250 2034 4250 
z
M 2034 4750 
Q 2819 4750 3233 4129 
Q 3647 3509 3647 2328 
Q 3647 1150 3233 529 
Q 2819 -91 2034 -91 
Q 1250 -91 836 529 
Q 422 1150 422 2328 
Q 422 3509 836 4129 
Q 1250 4750 2034 4750 
z
" transform="scale(0.015625)"/>
       </defs>
       <use xlink:href="#DejaVuSans-2212"/>
       <use xlink:href="#DejaVuSans-31" x="83.789062"/>
       <use xlink:href="#DejaVuSans-2e" x="147.412109"/>
       <use xlink:href="#DejaVuSans-30" x="179.199219"/>
      </g>
     </g>
    </g>
    <g id="xtick_2">
     <g id="line2d_2">
      <g>
       <use xlink:href="#m2d8924a685" x="94.988843" y="188.638125" style="stroke: #000000; stroke-width: 0.8"/>
      </g>
     </g>
     <g id="text_2">
      <!-- −0.5 -->
      <g transform="translate(82.847437 203.236563) scale(0.1 -0.1)">
       <defs>
        <path id="DejaVuSans-35" d="M 691 4666 
L 3169 4666 
L 3169 4134 
L 1269 4134 
L 1269 2991 
Q 1406 3038 1543 3061 
Q 1681 3084 1819 3084 
Q 2600 3084 3056 2656 
Q 3513 2228 3513 1497 
Q 3513 744 3044 326 
Q 2575 -91 1722 -91 
Q 1428 -91 1123 -41 
Q 819 9 494 109 
L 494 744 
Q 775 591 1075 516 
Q 1375 441 1709 441 
Q 2250 441 2565 725 
Q 2881 1009 2881 1497 
Q 2881 1984 2565 2268 
Q 2250 2553 1709 2553 
Q 1456 2553 1204 2497 
Q 953 2441 691 2322 
L 691 4666 
z
" transform="scale(0.015625)"/>
       </defs>
       <use xlink:href="#DejaVuSans-2212"/>
       <use xlink:href="#DejaVuSans-30" x="83.789062"/>
       <use xlink:href="#DejaVuSans-2e" x="147.412109"/>
       <use xlink:href="#DejaVuSans-35" x="179.199219"/>
      </g>
     </g>
    </g>
    <g id="xtick_3">
     <g id="line2d_3">
      <g>
       <use xlink:href="#m2d8924a685" x="141.104545" y="188.638125" style="stroke: #000000; stroke-width: 0.8"/>
      </g>
     </g>
     <g id="text_3">
      <!-- 0.0 -->
      <g transform="translate(133.152983 203.236563) scale(0.1 -0.1)">
       <use xlink:href="#DejaVuSans-30"/>
       <use xlink:href="#DejaVuSans-2e" x="63.623047"/>
       <use xlink:href="#DejaVuSans-30" x="95.410156"/>
      </g>
     </g>
    </g>
    <g id="xtick_4">
     <g id="line2d_4">
      <g>
       <use xlink:href="#m2d8924a685" x="187.220248" y="188.638125" style="stroke: #000000; stroke-width: 0.8"/>
      </g>
     </g>
     <g id="text_4">
      <!-- 0.5 -->
      <g transform="translate(179.268685 203.236563) scale(0.1 -0.1)">
       <use xlink:href="#DejaVuSans-30"/>
       <use xlink:href="#DejaVuSans-2e" x="63.623047"/>
       <use xlink:href="#DejaVuSans-35" x="95.410156"/>
      </g>
     </g>
    </g>
    <g id="xtick_5">
     <g id="line2d_5">
      <g>
       <use xlink:href="#m2d8924a685" x="233.33595" y="188.638125" style="stroke: #000000; stroke-width: 0.8"/>
      </g>
     </g>
     <g id="text_5">
      <!-- 1.0 -->
      <g transform="translate(225.384388 203.236563) scale(0.1 -0.1)">
       <use xlink:href="#DejaVuSans-31"/>
       <use xlink:href="#DejaVuSans-2e" x="63.623047"/>
       <use xlink:href="#DejaVuSans-30" x="95.410156"/>
      </g>
     </g>
    </g>
   </g>
   <g id="matplotlib.axis_2">
    <g id="ytick_1">
     <g id="line2d_6">
      <defs>
       <path id="m23553d7b26" d="M 0 0 
L -3.5 0 
" style="stroke: #000000; stroke-width: 0.8"/>
      </defs>
      <g>
       <use xlink:href="#m23553d7b26" x="39.65" y="188.638125" style="stroke: #000000; stroke-width: 0.8"/>
      </g>
     </g>
     <g id="text_6">
      <!-- 0 -->
      <g transform="translate(26.2875 192.437344) scale(0.1 -0.1)">
       <use xlink:href="#DejaVuSans-30"/>
      </g>
     </g>
    </g>
    <g id="ytick_2">
     <g id="line2d_7">
      <g>
       <use xlink:href="#m23553d7b26" x="39.65" y="162.482247" style="stroke: #000000; stroke-width: 0.8"/>
      </g>
     </g>
     <g id="text_7">
      <!-- 500 -->
      <g transform="translate(13.5625 166.281465) scale(0.1 -0.1)">
       <use xlink:href="#DejaVuSans-35"/>
       <use xlink:href="#DejaVuSans-30" x="63.623047"/>
       <use xlink:href="#DejaVuSans-30" x="127.246094"/>
      </g>
     </g>
    </g>
    <g id="ytick_3">
     <g id="line2d_8">
      <g>
       <use xlink:href="#m23553d7b26" x="39.65" y="136.326368" style="stroke: #000000; stroke-width: 0.8"/>
      </g>
     </g>
     <g id="text_8">
      <!-- 1000 -->
      <g transform="translate(7.2 140.125587) scale(0.1 -0.1)">
       <use xlink:href="#DejaVuSans-31"/>
       <use xlink:href="#DejaVuSans-30" x="63.623047"/>
       <use xlink:href="#DejaVuSans-30" x="127.246094"/>
       <use xlink:href="#DejaVuSans-30" x="190.869141"/>
      </g>
     </g>
    </g>
    <g id="ytick_4">
     <g id="line2d_9">
      <g>
       <use xlink:href="#m23553d7b26" x="39.65" y="110.17049" style="stroke: #000000; stroke-width: 0.8"/>
      </g>
     </g>
     <g id="text_9">
      <!-- 1500 -->
      <g transform="translate(7.2 113.969708) scale(0.1 -0.1)">
       <use xlink:href="#DejaVuSans-31"/>
       <use xlink:href="#DejaVuSans-35" x="63.623047"/>
       <use xlink:href="#DejaVuSans-30" x="127.246094"/>
       <use xlink:href="#DejaVuSans-30" x="190.869141"/>
      </g>
     </g>
    </g>
    <g id="ytick_5">
     <g id="line2d_10">
      <g>
       <use xlink:href="#m23553d7b26" x="39.65" y="84.014611" style="stroke: #000000; stroke-width: 0.8"/>
      </g>
     </g>
     <g id="text_10">
      <!-- 2000 -->
      <g transform="translate(7.2 87.81383) scale(0.1 -0.1)">
       <defs>
        <path id="DejaVuSans-32" d="M 1228 531 
L 3431 531 
L 3431 0 
L 469 0 
L 469 531 
Q 828 903 1448 1529 
Q 2069 2156 2228 2338 
Q 2531 2678 2651 2914 
Q 2772 3150 2772 3378 
Q 2772 3750 2511 3984 
Q 2250 4219 1831 4219 
Q 1534 4219 1204 4116 
Q 875 4013 500 3803 
L 500 4441 
Q 881 4594 1212 4672 
Q 1544 4750 1819 4750 
Q 2544 4750 2975 4387 
Q 3406 4025 3406 3419 
Q 3406 3131 3298 2873 
Q 3191 2616 2906 2266 
Q 2828 2175 2409 1742 
Q 1991 1309 1228 531 
z
" transform="scale(0.015625)"/>
       </defs>
       <use xlink:href="#DejaVuSans-32"/>
       <use xlink:href="#DejaVuSans-30" x="63.623047"/>
       <use xlink:href="#DejaVuSans-30" x="127.246094"/>
       <use xlink:href="#DejaVuSans-30" x="190.869141"/>
      </g>
     </g>
    </g>
    <g id="ytick_6">
     <g id="line2d_11">
      <g>
       <use xlink:href="#m23553d7b26" x="39.65" y="57.858733" style="stroke: #000000; stroke-width: 0.8"/>
      </g>
     </g>
     <g id="text_11">
      <!-- 2500 -->
      <g transform="translate(7.2 61.657951) scale(0.1 -0.1)">
       <use xlink:href="#DejaVuSans-32"/>
       <use xlink:href="#DejaVuSans-35" x="63.623047"/>
       <use xlink:href="#DejaVuSans-30" x="127.246094"/>
       <use xlink:href="#DejaVuSans-30" x="190.869141"/>
      </g>
     </g>
    </g>
    <g id="ytick_7">
     <g id="line2d_12">
      <g>
       <use xlink:href="#m23553d7b26" x="39.65" y="31.702854" style="stroke: #000000; stroke-width: 0.8"/>
      </g>
     </g>
     <g id="text_12">
      <!-- 3000 -->
      <g transform="translate(7.2 35.502073) scale(0.1 -0.1)">
       <defs>
        <path id="DejaVuSans-33" d="M 2597 2516 
Q 3050 2419 3304 2112 
Q 3559 1806 3559 1356 
Q 3559 666 3084 287 
Q 2609 -91 1734 -91 
Q 1441 -91 1130 -33 
Q 819 25 488 141 
L 488 750 
Q 750 597 1062 519 
Q 1375 441 1716 441 
Q 2309 441 2620 675 
Q 2931 909 2931 1356 
Q 2931 1769 2642 2001 
Q 2353 2234 1838 2234 
L 1294 2234 
L 1294 2753 
L 1863 2753 
Q 2328 2753 2575 2939 
Q 2822 3125 2822 3475 
Q 2822 3834 2567 4026 
Q 2313 4219 1838 4219 
Q 1578 4219 1281 4162 
Q 984 4106 628 3988 
L 628 4550 
Q 988 4650 1302 4700 
Q 1616 4750 1894 4750 
Q 2613 4750 3031 4423 
Q 3450 4097 3450 3541 
Q 3450 3153 3228 2886 
Q 3006 2619 2597 2516 
z
" transform="scale(0.015625)"/>
       </defs>
       <use xlink:href="#DejaVuSans-33"/>
       <use xlink:href="#DejaVuSans-30" x="63.623047"/>
       <use xlink:href="#DejaVuSans-30" x="127.246094"/>
       <use xlink:href="#DejaVuSans-30" x="190.869141"/>
      </g>
     </g>
    </g>
   </g>
   <g id="patch_53">
    <path d="M 39.65 188.638125 
L 39.65 22.318125 
" style="fill: none; stroke: #000000; stroke-width: 0.8; stroke-linejoin: miter; stroke-linecap: square"/>
   </g>
   <g id="patch_54">
    <path d="M 242.559091 188.638125 
L 242.559091 22.318125 
" style="fill: none; stroke: #000000; stroke-width: 0.8; stroke-linejoin: miter; stroke-linecap: square"/>
   </g>
   <g id="patch_55">
    <path d="M 39.65 188.638125 
L 242.559091 188.638125 
" style="fill: none; stroke: #000000; stroke-width: 0.8; stroke-linejoin: miter; stroke-linecap: square"/>
   </g>
   <g id="patch_56">
    <path d="M 39.65 22.318125 
L 242.559091 22.318125 
" style="fill: none; stroke: #000000; stroke-width: 0.8; stroke-linejoin: miter; stroke-linecap: square"/>
   </g>
   <g id="text_13">
    <!-- tanh activations -->
    <g transform="translate(92.722045 16.318125) scale(0.12 -0.12)">
     <defs>
      <path id="DejaVuSans-74" d="M 1172 4494 
L 1172 3500 
L 2356 3500 
L 2356 3053 
L 1172 3053 
L 1172 1153 
Q 1172 725 1289 603 
Q 1406 481 1766 481 
L 2356 481 
L 2356 0 
L 1766 0 
Q 1100 0 847 248 
Q 594 497 594 1153 
L 594 3053 
L 172 3053 
L 172 3500 
L 594 3500 
L 594 4494 
L 1172 4494 
z
" transform="scale(0.015625)"/>
      <path id="DejaVuSans-61" d="M 2194 1759 
Q 1497 1759 1228 1600 
Q 959 1441 959 1056 
Q 959 750 1161 570 
Q 1363 391 1709 391 
Q 2188 391 2477 730 
Q 2766 1069 2766 1631 
L 2766 1759 
L 2194 1759 
z
M 3341 1997 
L 3341 0 
L 2766 0 
L 2766 531 
Q 2569 213 2275 61 
Q 1981 -91 1556 -91 
Q 1019 -91 701 211 
Q 384 513 384 1019 
Q 384 1609 779 1909 
Q 1175 2209 1959 2209 
L 2766 2209 
L 2766 2266 
Q 2766 2663 2505 2880 
Q 2244 3097 1772 3097 
Q 1472 3097 1187 3025 
Q 903 2953 641 2809 
L 641 3341 
Q 956 3463 1253 3523 
Q 1550 3584 1831 3584 
Q 2591 3584 2966 3190 
Q 3341 2797 3341 1997 
z
" transform="scale(0.015625)"/>
      <path id="DejaVuSans-6e" d="M 3513 2113 
L 3513 0 
L 2938 0 
L 2938 2094 
Q 2938 2591 2744 2837 
Q 2550 3084 2163 3084 
Q 1697 3084 1428 2787 
Q 1159 2491 1159 1978 
L 1159 0 
L 581 0 
L 581 3500 
L 1159 3500 
L 1159 2956 
Q 1366 3272 1645 3428 
Q 1925 3584 2291 3584 
Q 2894 3584 3203 3211 
Q 3513 2838 3513 2113 
z
" transform="scale(0.015625)"/>
      <path id="DejaVuSans-68" d="M 3513 2113 
L 3513 0 
L 2938 0 
L 2938 2094 
Q 2938 2591 2744 2837 
Q 2550 3084 2163 3084 
Q 1697 3084 1428 2787 
Q 1159 2491 1159 1978 
L 1159 0 
L 581 0 
L 581 4863 
L 1159 4863 
L 1159 2956 
Q 1366 3272 1645 3428 
Q 1925 3584 2291 3584 
Q 2894 3584 3203 3211 
Q 3513 2838 3513 2113 
z
" transform="scale(0.015625)"/>
      <path id="DejaVuSans-20" transform="scale(0.015625)"/>
      <path id="DejaVuSans-63" d="M 3122 3366 
L 3122 2828 
Q 2878 2963 2633 3030 
Q 2388 3097 2138 3097 
Q 1578 3097 1268 2742 
Q 959 2388 959 1747 
Q 959 1106 1268 751 
Q 1578 397 2138 397 
Q 2388 397 2633 464 
Q 2878 531 3122 666 
L 3122 134 
Q 2881 22 2623 -34 
Q 2366 -91 2075 -91 
Q 1284 -91 818 406 
Q 353 903 353 1747 
Q 353 2603 823 3093 
Q 1294 3584 2113 3584 
Q 2378 3584 2631 3529 
Q 2884 3475 3122 3366 
z
" transform="scale(0.015625)"/>
      <path id="DejaVuSans-69" d="M 603 3500 
L 1178 3500 
L 1178 0 
L 603 0 
L 603 3500 
z
M 603 4863 
L 1178 4863 
L 1178 4134 
L 603 4134 
L 603 4863 
z
" transform="scale(0.015625)"/>
      <path id="DejaVuSans-76" d="M 191 3500 
L 800 3500 
L 1894 563 
L 2988 3500 
L 3597 3500 
L 2284 0 
L 1503 0 
L 191 3500 
z
" transform="scale(0.015625)"/>
      <path id="DejaVuSans-6f" d="M 1959 3097 
Q 1497 3097 1228 2736 
Q 959 2375 959 1747 
Q 959 1119 1226 758 
Q 1494 397 1959 397 
Q 2419 397 2687 759 
Q 2956 1122 2956 1747 
Q 2956 2369 2687 2733 
Q 2419 3097 1959 3097 
z
M 1959 3584 
Q 2709 3584 3137 3096 
Q 3566 2609 3566 1747 
Q 3566 888 3137 398 
Q 2709 -91 1959 -91 
Q 1206 -91 779 398 
Q 353 888 353 1747 
Q 353 2609 779 3096 
Q 1206 3584 1959 3584 
z
" transform="scale(0.015625)"/>
      <path id="DejaVuSans-73" d="M 2834 3397 
L 2834 2853 
Q 2591 2978 2328 3040 
Q 2066 3103 1784 3103 
Q 1356 3103 1142 2972 
Q 928 2841 928 2578 
Q 928 2378 1081 2264 
Q 1234 2150 1697 2047 
L 1894 2003 
Q 2506 1872 2764 1633 
Q 3022 1394 3022 966 
Q 3022 478 2636 193 
Q 2250 -91 1575 -91 
Q 1294 -91 989 -36 
Q 684 19 347 128 
L 347 722 
Q 666 556 975 473 
Q 1284 391 1588 391 
Q 1994 391 2212 530 
Q 2431 669 2431 922 
Q 2431 1156 2273 1281 
Q 2116 1406 1581 1522 
L 1381 1569 
Q 847 1681 609 1914 
Q 372 2147 372 2553 
Q 372 3047 722 3315 
Q 1072 3584 1716 3584 
Q 2034 3584 2315 3537 
Q 2597 3491 2834 3397 
z
" transform="scale(0.015625)"/>
     </defs>
     <use xlink:href="#DejaVuSans-74"/>
     <use xlink:href="#DejaVuSans-61" x="39.208984"/>
     <use xlink:href="#DejaVuSans-6e" x="100.488281"/>
     <use xlink:href="#DejaVuSans-68" x="163.867188"/>
     <use xlink:href="#DejaVuSans-20" x="227.246094"/>
     <use xlink:href="#DejaVuSans-61" x="259.033203"/>
     <use xlink:href="#DejaVuSans-63" x="320.3125"/>
     <use xlink:href="#DejaVuSans-74" x="375.292969"/>
     <use xlink:href="#DejaVuSans-69" x="414.501953"/>
     <use xlink:href="#DejaVuSans-76" x="442.285156"/>
     <use xlink:href="#DejaVuSans-61" x="501.464844"/>
     <use xlink:href="#DejaVuSans-74" x="562.744141"/>
     <use xlink:href="#DejaVuSans-69" x="601.953125"/>
     <use xlink:href="#DejaVuSans-6f" x="629.736328"/>
     <use xlink:href="#DejaVuSans-6e" x="690.917969"/>
     <use xlink:href="#DejaVuSans-73" x="754.296875"/>
    </g>
   </g>
  </g>
  <g id="axes_2">
   <g id="patch_57">
    <path d="M 283.140909 188.638125 
L 486.05 188.638125 
L 486.05 22.318125 
L 283.140909 22.318125 
z
" style="fill: #ffffff"/>
   </g>
   <g id="patch_58">
    <path d="M 292.36405 188.638125 
L 296.053306 188.638125 
L 296.053306 30.238125 
L 292.36405 30.238125 
z
" clip-path="url(#p30e46276f3)" style="fill: #ff7f0e"/>
   </g>
   <g id="patch_59">
    <path d="M 296.053306 188.638125 
L 299.742562 188.638125 
L 299.742562 186.773642 
L 296.053306 186.773642 
z
" clip-path="url(#p30e46276f3)" style="fill: #ff7f0e"/>
   </g>
   <g id="patch_60">
    <path d="M 299.742562 188.638125 
L 303.431818 188.638125 
L 303.431818 187.260029 
L 299.742562 187.260029 
z
" clip-path="url(#p30e46276f3)" style="fill: #ff7f0e"/>
   </g>
   <g id="patch_61">
    <path d="M 303.431818 188.638125 
L 307.121074 188.638125 
L 307.121074 188.016631 
L 303.431818 188.016631 
z
" clip-path="url(#p30e46276f3)" style="fill: #ff7f0e"/>
   </g>
   <g id="patch_62">
    <path d="M 307.121074 188.638125 
L 310.810331 188.638125 
L 310.810331 188.232803 
L 307.121074 188.232803 
z
" clip-path="url(#p30e46276f3)" style="fill: #ff7f0e"/>
   </g>
   <g id="patch_63">
    <path d="M 310.810331 188.638125 
L 314.499587 188.638125 
L 314.499587 187.962588 
L 310.810331 187.962588 
z
" clip-path="url(#p30e46276f3)" style="fill: #ff7f0e"/>
   </g>
   <g id="patch_64">
    <path d="M 314.499587 188.638125 
L 318.188843 188.638125 
L 318.188843 188.043652 
L 314.499587 188.043652 
z
" clip-path="url(#p30e46276f3)" style="fill: #ff7f0e"/>
   </g>
   <g id="patch_65">
    <path d="M 318.188843 188.638125 
L 321.878099 188.638125 
L 321.878099 188.259824 
L 318.188843 188.259824 
z
" clip-path="url(#p30e46276f3)" style="fill: #ff7f0e"/>
   </g>
   <g id="patch_66">
    <path d="M 321.878099 188.638125 
L 325.567355 188.638125 
L 325.567355 188.394932 
L 321.878099 188.394932 
z
" clip-path="url(#p30e46276f3)" style="fill: #ff7f0e"/>
   </g>
   <g id="patch_67">
    <path d="M 325.567355 188.638125 
L 329.256612 188.638125 
L 329.256612 188.421953 
L 325.567355 188.421953 
z
" clip-path="url(#p30e46276f3)" style="fill: #ff7f0e"/>
   </g>
   <g id="patch_68">
    <path d="M 329.256612 188.638125 
L 332.945868 188.638125 
L 332.945868 188.17876 
L 329.256612 188.17876 
z
" clip-path="url(#p30e46276f3)" style="fill: #ff7f0e"/>
   </g>
   <g id="patch_69">
    <path d="M 332.945868 188.638125 
L 336.635124 188.638125 
L 336.635124 188.448975 
L 332.945868 188.448975 
z
" clip-path="url(#p30e46276f3)" style="fill: #ff7f0e"/>
   </g>
   <g id="patch_70">
    <path d="M 336.635124 188.638125 
L 340.32438 188.638125 
L 340.32438 188.340889 
L 336.635124 188.340889 
z
" clip-path="url(#p30e46276f3)" style="fill: #ff7f0e"/>
   </g>
   <g id="patch_71">
    <path d="M 340.32438 188.638125 
L 344.013636 188.638125 
L 344.013636 188.448975 
L 340.32438 188.448975 
z
" clip-path="url(#p30e46276f3)" style="fill: #ff7f0e"/>
   </g>
   <g id="patch_72">
    <path d="M 344.013636 188.638125 
L 347.702893 188.638125 
L 347.702893 188.475996 
L 344.013636 188.475996 
z
" clip-path="url(#p30e46276f3)" style="fill: #ff7f0e"/>
   </g>
   <g id="patch_73">
    <path d="M 347.702893 188.638125 
L 351.392149 188.638125 
L 351.392149 188.36791 
L 347.702893 188.36791 
z
" clip-path="url(#p30e46276f3)" style="fill: #ff7f0e"/>
   </g>
   <g id="patch_74">
    <path d="M 351.392149 188.638125 
L 355.081405 188.638125 
L 355.081405 188.475996 
L 351.392149 188.475996 
z
" clip-path="url(#p30e46276f3)" style="fill: #ff7f0e"/>
   </g>
   <g id="patch_75">
    <path d="M 355.081405 188.638125 
L 358.770661 188.638125 
L 358.770661 188.503018 
L 355.081405 188.503018 
z
" clip-path="url(#p30e46276f3)" style="fill: #ff7f0e"/>
   </g>
   <g id="patch_76">
    <path d="M 358.770661 188.638125 
L 362.459917 188.638125 
L 362.459917 188.475996 
L 358.770661 188.475996 
z
" clip-path="url(#p30e46276f3)" style="fill: #ff7f0e"/>
   </g>
   <g id="patch_77">
    <path d="M 362.459917 188.638125 
L 366.149174 188.638125 
L 366.149174 188.36791 
L 362.459917 188.36791 
z
" clip-path="url(#p30e46276f3)" style="fill: #ff7f0e"/>
   </g>
   <g id="patch_78">
    <path d="M 366.149174 188.638125 
L 369.83843 188.638125 
L 369.83843 188.448975 
L 366.149174 188.448975 
z
" clip-path="url(#p30e46276f3)" style="fill: #ff7f0e"/>
   </g>
   <g id="patch_79">
    <path d="M 369.83843 188.638125 
L 373.527686 188.638125 
L 373.527686 188.448975 
L 369.83843 188.448975 
z
" clip-path="url(#p30e46276f3)" style="fill: #ff7f0e"/>
   </g>
   <g id="patch_80">
    <path d="M 373.527686 188.638125 
L 377.216942 188.638125 
L 377.216942 188.448975 
L 373.527686 188.448975 
z
" clip-path="url(#p30e46276f3)" style="fill: #ff7f0e"/>
   </g>
   <g id="patch_81">
    <path d="M 377.216942 188.638125 
L 380.906198 188.638125 
L 380.906198 188.340889 
L 377.216942 188.340889 
z
" clip-path="url(#p30e46276f3)" style="fill: #ff7f0e"/>
   </g>
   <g id="patch_82">
    <path d="M 380.906198 188.638125 
L 384.595455 188.638125 
L 384.595455 188.394932 
L 380.906198 188.394932 
z
" clip-path="url(#p30e46276f3)" style="fill: #ff7f0e"/>
   </g>
   <g id="patch_83">
    <path d="M 384.595455 188.638125 
L 388.284711 188.638125 
L 388.284711 188.530039 
L 384.595455 188.530039 
z
" clip-path="url(#p30e46276f3)" style="fill: #ff7f0e"/>
   </g>
   <g id="patch_84">
    <path d="M 388.284711 188.638125 
L 391.973967 188.638125 
L 391.973967 188.448975 
L 388.284711 188.448975 
z
" clip-path="url(#p30e46276f3)" style="fill: #ff7f0e"/>
   </g>
   <g id="patch_85">
    <path d="M 391.973967 188.638125 
L 395.663223 188.638125 
L 395.663223 188.503018 
L 391.973967 188.503018 
z
" clip-path="url(#p30e46276f3)" style="fill: #ff7f0e"/>
   </g>
   <g id="patch_86">
    <path d="M 395.663223 188.638125 
L 399.352479 188.638125 
L 399.352479 188.503018 
L 395.663223 188.503018 
z
" clip-path="url(#p30e46276f3)" style="fill: #ff7f0e"/>
   </g>
   <g id="patch_87">
    <path d="M 399.352479 188.638125 
L 403.041736 188.638125 
L 403.041736 188.530039 
L 399.352479 188.530039 
z
" clip-path="url(#p30e46276f3)" style="fill: #ff7f0e"/>
   </g>
   <g id="patch_88">
    <path d="M 403.041736 188.638125 
L 406.730992 188.638125 
L 406.730992 188.448975 
L 403.041736 188.448975 
z
" clip-path="url(#p30e46276f3)" style="fill: #ff7f0e"/>
   </g>
   <g id="patch_89">
    <path d="M 406.730992 188.638125 
L 410.420248 188.638125 
L 410.420248 188.503018 
L 406.730992 188.503018 
z
" clip-path="url(#p30e46276f3)" style="fill: #ff7f0e"/>
   </g>
   <g id="patch_90">
    <path d="M 410.420248 188.638125 
L 414.109504 188.638125 
L 414.109504 188.394932 
L 410.420248 188.394932 
z
" clip-path="url(#p30e46276f3)" style="fill: #ff7f0e"/>
   </g>
   <g id="patch_91">
    <path d="M 414.109504 188.638125 
L 417.79876 188.638125 
L 417.79876 188.475996 
L 414.109504 188.475996 
z
" clip-path="url(#p30e46276f3)" style="fill: #ff7f0e"/>
   </g>
   <g id="patch_92">
    <path d="M 417.79876 188.638125 
L 421.488017 188.638125 
L 421.488017 188.394932 
L 417.79876 188.394932 
z
" clip-path="url(#p30e46276f3)" style="fill: #ff7f0e"/>
   </g>
   <g id="patch_93">
    <path d="M 421.488017 188.638125 
L 425.177273 188.638125 
L 425.177273 188.557061 
L 421.488017 188.557061 
z
" clip-path="url(#p30e46276f3)" style="fill: #ff7f0e"/>
   </g>
   <g id="patch_94">
    <path d="M 425.177273 188.638125 
L 428.866529 188.638125 
L 428.866529 188.475996 
L 425.177273 188.475996 
z
" clip-path="url(#p30e46276f3)" style="fill: #ff7f0e"/>
   </g>
   <g id="patch_95">
    <path d="M 428.866529 188.638125 
L 432.555785 188.638125 
L 432.555785 188.475996 
L 428.866529 188.475996 
z
" clip-path="url(#p30e46276f3)" style="fill: #ff7f0e"/>
   </g>
   <g id="patch_96">
    <path d="M 432.555785 188.638125 
L 436.245041 188.638125 
L 436.245041 188.530039 
L 432.555785 188.530039 
z
" clip-path="url(#p30e46276f3)" style="fill: #ff7f0e"/>
   </g>
   <g id="patch_97">
    <path d="M 436.245041 188.638125 
L 439.934298 188.638125 
L 439.934298 188.394932 
L 436.245041 188.394932 
z
" clip-path="url(#p30e46276f3)" style="fill: #ff7f0e"/>
   </g>
   <g id="patch_98">
    <path d="M 439.934298 188.638125 
L 443.623554 188.638125 
L 443.623554 188.557061 
L 439.934298 188.557061 
z
" clip-path="url(#p30e46276f3)" style="fill: #ff7f0e"/>
   </g>
   <g id="patch_99">
    <path d="M 443.623554 188.638125 
L 447.31281 188.638125 
L 447.31281 188.611104 
L 443.623554 188.611104 
z
" clip-path="url(#p30e46276f3)" style="fill: #ff7f0e"/>
   </g>
   <g id="patch_100">
    <path d="M 447.31281 188.638125 
L 451.002066 188.638125 
L 451.002066 188.530039 
L 447.31281 188.530039 
z
" clip-path="url(#p30e46276f3)" style="fill: #ff7f0e"/>
   </g>
   <g id="patch_101">
    <path d="M 451.002066 188.638125 
L 454.691322 188.638125 
L 454.691322 188.503018 
L 451.002066 188.503018 
z
" clip-path="url(#p30e46276f3)" style="fill: #ff7f0e"/>
   </g>
   <g id="patch_102">
    <path d="M 454.691322 188.638125 
L 458.380579 188.638125 
L 458.380579 188.557061 
L 454.691322 188.557061 
z
" clip-path="url(#p30e46276f3)" style="fill: #ff7f0e"/>
   </g>
   <g id="patch_103">
    <path d="M 458.380579 188.638125 
L 462.069835 188.638125 
L 462.069835 188.530039 
L 458.380579 188.530039 
z
" clip-path="url(#p30e46276f3)" style="fill: #ff7f0e"/>
   </g>
   <g id="patch_104">
    <path d="M 462.069835 188.638125 
L 465.759091 188.638125 
L 465.759091 188.421953 
L 462.069835 188.421953 
z
" clip-path="url(#p30e46276f3)" style="fill: #ff7f0e"/>
   </g>
   <g id="patch_105">
    <path d="M 465.759091 188.638125 
L 469.448347 188.638125 
L 469.448347 188.394932 
L 465.759091 188.394932 
z
" clip-path="url(#p30e46276f3)" style="fill: #ff7f0e"/>
   </g>
   <g id="patch_106">
    <path d="M 469.448347 188.638125 
L 473.137603 188.638125 
L 473.137603 188.313867 
L 469.448347 188.313867 
z
" clip-path="url(#p30e46276f3)" style="fill: #ff7f0e"/>
   </g>
   <g id="patch_107">
    <path d="M 473.137603 188.638125 
L 476.82686 188.638125 
L 476.82686 187.611308 
L 473.137603 187.611308 
z
" clip-path="url(#p30e46276f3)" style="fill: #ff7f0e"/>
   </g>
   <g id="matplotlib.axis_3">
    <g id="xtick_6">
     <g id="line2d_13">
      <g>
       <use xlink:href="#m2d8924a685" x="292.36405" y="188.638125" style="stroke: #000000; stroke-width: 0.8"/>
      </g>
     </g>
     <g id="text_14">
      <!-- 0.0 -->
      <g transform="translate(284.412487 203.236563) scale(0.1 -0.1)">
       <use xlink:href="#DejaVuSans-30"/>
       <use xlink:href="#DejaVuSans-2e" x="63.623047"/>
       <use xlink:href="#DejaVuSans-30" x="95.410156"/>
      </g>
     </g>
    </g>
    <g id="xtick_7">
     <g id="line2d_14">
      <g>
       <use xlink:href="#m2d8924a685" x="329.256772" y="188.638125" style="stroke: #000000; stroke-width: 0.8"/>
      </g>
     </g>
     <g id="text_15">
      <!-- 0.2 -->
      <g transform="translate(321.30521 203.236563) scale(0.1 -0.1)">
       <use xlink:href="#DejaVuSans-30"/>
       <use xlink:href="#DejaVuSans-2e" x="63.623047"/>
       <use xlink:href="#DejaVuSans-32" x="95.410156"/>
      </g>
     </g>
    </g>
    <g id="xtick_8">
     <g id="line2d_15">
      <g>
       <use xlink:href="#m2d8924a685" x="366.149495" y="188.638125" style="stroke: #000000; stroke-width: 0.8"/>
      </g>
     </g>
     <g id="text_16">
      <!-- 0.4 -->
      <g transform="translate(358.197932 203.236563) scale(0.1 -0.1)">
       <defs>
        <path id="DejaVuSans-34" d="M 2419 4116 
L 825 1625 
L 2419 1625 
L 2419 4116 
z
M 2253 4666 
L 3047 4666 
L 3047 1625 
L 3713 1625 
L 3713 1100 
L 3047 1100 
L 3047 0 
L 2419 0 
L 2419 1100 
L 313 1100 
L 313 1709 
L 2253 4666 
z
" transform="scale(0.015625)"/>
       </defs>
       <use xlink:href="#DejaVuSans-30"/>
       <use xlink:href="#DejaVuSans-2e" x="63.623047"/>
       <use xlink:href="#DejaVuSans-34" x="95.410156"/>
      </g>
     </g>
    </g>
    <g id="xtick_9">
     <g id="line2d_16">
      <g>
       <use xlink:href="#m2d8924a685" x="403.042217" y="188.638125" style="stroke: #000000; stroke-width: 0.8"/>
      </g>
     </g>
     <g id="text_17">
      <!-- 0.6 -->
      <g transform="translate(395.090655 203.236563) scale(0.1 -0.1)">
       <defs>
        <path id="DejaVuSans-36" d="M 2113 2584 
Q 1688 2584 1439 2293 
Q 1191 2003 1191 1497 
Q 1191 994 1439 701 
Q 1688 409 2113 409 
Q 2538 409 2786 701 
Q 3034 994 3034 1497 
Q 3034 2003 2786 2293 
Q 2538 2584 2113 2584 
z
M 3366 4563 
L 3366 3988 
Q 3128 4100 2886 4159 
Q 2644 4219 2406 4219 
Q 1781 4219 1451 3797 
Q 1122 3375 1075 2522 
Q 1259 2794 1537 2939 
Q 1816 3084 2150 3084 
Q 2853 3084 3261 2657 
Q 3669 2231 3669 1497 
Q 3669 778 3244 343 
Q 2819 -91 2113 -91 
Q 1303 -91 875 529 
Q 447 1150 447 2328 
Q 447 3434 972 4092 
Q 1497 4750 2381 4750 
Q 2619 4750 2861 4703 
Q 3103 4656 3366 4563 
z
" transform="scale(0.015625)"/>
       </defs>
       <use xlink:href="#DejaVuSans-30"/>
       <use xlink:href="#DejaVuSans-2e" x="63.623047"/>
       <use xlink:href="#DejaVuSans-36" x="95.410156"/>
      </g>
     </g>
    </g>
    <g id="xtick_10">
     <g id="line2d_17">
      <g>
       <use xlink:href="#m2d8924a685" x="439.93494" y="188.638125" style="stroke: #000000; stroke-width: 0.8"/>
      </g>
     </g>
     <g id="text_18">
      <!-- 0.8 -->
      <g transform="translate(431.983377 203.236563) scale(0.1 -0.1)">
       <defs>
        <path id="DejaVuSans-38" d="M 2034 2216 
Q 1584 2216 1326 1975 
Q 1069 1734 1069 1313 
Q 1069 891 1326 650 
Q 1584 409 2034 409 
Q 2484 409 2743 651 
Q 3003 894 3003 1313 
Q 3003 1734 2745 1975 
Q 2488 2216 2034 2216 
z
M 1403 2484 
Q 997 2584 770 2862 
Q 544 3141 544 3541 
Q 544 4100 942 4425 
Q 1341 4750 2034 4750 
Q 2731 4750 3128 4425 
Q 3525 4100 3525 3541 
Q 3525 3141 3298 2862 
Q 3072 2584 2669 2484 
Q 3125 2378 3379 2068 
Q 3634 1759 3634 1313 
Q 3634 634 3220 271 
Q 2806 -91 2034 -91 
Q 1263 -91 848 271 
Q 434 634 434 1313 
Q 434 1759 690 2068 
Q 947 2378 1403 2484 
z
M 1172 3481 
Q 1172 3119 1398 2916 
Q 1625 2713 2034 2713 
Q 2441 2713 2670 2916 
Q 2900 3119 2900 3481 
Q 2900 3844 2670 4047 
Q 2441 4250 2034 4250 
Q 1625 4250 1398 4047 
Q 1172 3844 1172 3481 
z
" transform="scale(0.015625)"/>
       </defs>
       <use xlink:href="#DejaVuSans-30"/>
       <use xlink:href="#DejaVuSans-2e" x="63.623047"/>
       <use xlink:href="#DejaVuSans-38" x="95.410156"/>
      </g>
     </g>
    </g>
    <g id="xtick_11">
     <g id="line2d_18">
      <g>
       <use xlink:href="#m2d8924a685" x="476.827662" y="188.638125" style="stroke: #000000; stroke-width: 0.8"/>
      </g>
     </g>
     <g id="text_19">
      <!-- 1.0 -->
      <g transform="translate(468.8761 203.236563) scale(0.1 -0.1)">
       <use xlink:href="#DejaVuSans-31"/>
       <use xlink:href="#DejaVuSans-2e" x="63.623047"/>
       <use xlink:href="#DejaVuSans-30" x="95.410156"/>
      </g>
     </g>
    </g>
   </g>
   <g id="matplotlib.axis_4">
    <g id="ytick_8">
     <g id="line2d_19">
      <g>
       <use xlink:href="#m23553d7b26" x="283.140909" y="188.638125" style="stroke: #000000; stroke-width: 0.8"/>
      </g>
     </g>
     <g id="text_20">
      <!-- 0 -->
      <g transform="translate(269.778409 192.437344) scale(0.1 -0.1)">
       <use xlink:href="#DejaVuSans-30"/>
      </g>
     </g>
    </g>
    <g id="ytick_9">
     <g id="line2d_20">
      <g>
       <use xlink:href="#m23553d7b26" x="283.140909" y="161.616631" style="stroke: #000000; stroke-width: 0.8"/>
      </g>
     </g>
     <g id="text_21">
      <!-- 1000 -->
      <g transform="translate(250.690909 165.415849) scale(0.1 -0.1)">
       <use xlink:href="#DejaVuSans-31"/>
       <use xlink:href="#DejaVuSans-30" x="63.623047"/>
       <use xlink:href="#DejaVuSans-30" x="127.246094"/>
       <use xlink:href="#DejaVuSans-30" x="190.869141"/>
      </g>
     </g>
    </g>
    <g id="ytick_10">
     <g id="line2d_21">
      <g>
       <use xlink:href="#m23553d7b26" x="283.140909" y="134.595136" style="stroke: #000000; stroke-width: 0.8"/>
      </g>
     </g>
     <g id="text_22">
      <!-- 2000 -->
      <g transform="translate(250.690909 138.394355) scale(0.1 -0.1)">
       <use xlink:href="#DejaVuSans-32"/>
       <use xlink:href="#DejaVuSans-30" x="63.623047"/>
       <use xlink:href="#DejaVuSans-30" x="127.246094"/>
       <use xlink:href="#DejaVuSans-30" x="190.869141"/>
      </g>
     </g>
    </g>
    <g id="ytick_11">
     <g id="line2d_22">
      <g>
       <use xlink:href="#m23553d7b26" x="283.140909" y="107.573642" style="stroke: #000000; stroke-width: 0.8"/>
      </g>
     </g>
     <g id="text_23">
      <!-- 3000 -->
      <g transform="translate(250.690909 111.372861) scale(0.1 -0.1)">
       <use xlink:href="#DejaVuSans-33"/>
       <use xlink:href="#DejaVuSans-30" x="63.623047"/>
       <use xlink:href="#DejaVuSans-30" x="127.246094"/>
       <use xlink:href="#DejaVuSans-30" x="190.869141"/>
      </g>
     </g>
    </g>
    <g id="ytick_12">
     <g id="line2d_23">
      <g>
       <use xlink:href="#m23553d7b26" x="283.140909" y="80.552148" style="stroke: #000000; stroke-width: 0.8"/>
      </g>
     </g>
     <g id="text_24">
      <!-- 4000 -->
      <g transform="translate(250.690909 84.351366) scale(0.1 -0.1)">
       <use xlink:href="#DejaVuSans-34"/>
       <use xlink:href="#DejaVuSans-30" x="63.623047"/>
       <use xlink:href="#DejaVuSans-30" x="127.246094"/>
       <use xlink:href="#DejaVuSans-30" x="190.869141"/>
      </g>
     </g>
    </g>
    <g id="ytick_13">
     <g id="line2d_24">
      <g>
       <use xlink:href="#m23553d7b26" x="283.140909" y="53.530653" style="stroke: #000000; stroke-width: 0.8"/>
      </g>
     </g>
     <g id="text_25">
      <!-- 5000 -->
      <g transform="translate(250.690909 57.329872) scale(0.1 -0.1)">
       <use xlink:href="#DejaVuSans-35"/>
       <use xlink:href="#DejaVuSans-30" x="63.623047"/>
       <use xlink:href="#DejaVuSans-30" x="127.246094"/>
       <use xlink:href="#DejaVuSans-30" x="190.869141"/>
      </g>
     </g>
    </g>
    <g id="ytick_14">
     <g id="line2d_25">
      <g>
       <use xlink:href="#m23553d7b26" x="283.140909" y="26.509159" style="stroke: #000000; stroke-width: 0.8"/>
      </g>
     </g>
     <g id="text_26">
      <!-- 6000 -->
      <g transform="translate(250.690909 30.308378) scale(0.1 -0.1)">
       <use xlink:href="#DejaVuSans-36"/>
       <use xlink:href="#DejaVuSans-30" x="63.623047"/>
       <use xlink:href="#DejaVuSans-30" x="127.246094"/>
       <use xlink:href="#DejaVuSans-30" x="190.869141"/>
      </g>
     </g>
    </g>
   </g>
   <g id="patch_108">
    <path d="M 283.140909 188.638125 
L 283.140909 22.318125 
" style="fill: none; stroke: #000000; stroke-width: 0.8; stroke-linejoin: miter; stroke-linecap: square"/>
   </g>
   <g id="patch_109">
    <path d="M 486.05 188.638125 
L 486.05 22.318125 
" style="fill: none; stroke: #000000; stroke-width: 0.8; stroke-linejoin: miter; stroke-linecap: square"/>
   </g>
   <g id="patch_110">
    <path d="M 283.140909 188.638125 
L 486.05 188.638125 
" style="fill: none; stroke: #000000; stroke-width: 0.8; stroke-linejoin: miter; stroke-linecap: square"/>
   </g>
   <g id="patch_111">
    <path d="M 283.140909 22.318125 
L 486.05 22.318125 
" style="fill: none; stroke: #000000; stroke-width: 0.8; stroke-linejoin: miter; stroke-linecap: square"/>
   </g>
   <g id="text_27">
    <!-- tanh gradients -->
    <g transform="translate(340.653892 16.318125) scale(0.12 -0.12)">
     <defs>
      <path id="DejaVuSans-67" d="M 2906 1791 
Q 2906 2416 2648 2759 
Q 2391 3103 1925 3103 
Q 1463 3103 1205 2759 
Q 947 2416 947 1791 
Q 947 1169 1205 825 
Q 1463 481 1925 481 
Q 2391 481 2648 825 
Q 2906 1169 2906 1791 
z
M 3481 434 
Q 3481 -459 3084 -895 
Q 2688 -1331 1869 -1331 
Q 1566 -1331 1297 -1286 
Q 1028 -1241 775 -1147 
L 775 -588 
Q 1028 -725 1275 -790 
Q 1522 -856 1778 -856 
Q 2344 -856 2625 -561 
Q 2906 -266 2906 331 
L 2906 616 
Q 2728 306 2450 153 
Q 2172 0 1784 0 
Q 1141 0 747 490 
Q 353 981 353 1791 
Q 353 2603 747 3093 
Q 1141 3584 1784 3584 
Q 2172 3584 2450 3431 
Q 2728 3278 2906 2969 
L 2906 3500 
L 3481 3500 
L 3481 434 
z
" transform="scale(0.015625)"/>
      <path id="DejaVuSans-72" d="M 2631 2963 
Q 2534 3019 2420 3045 
Q 2306 3072 2169 3072 
Q 1681 3072 1420 2755 
Q 1159 2438 1159 1844 
L 1159 0 
L 581 0 
L 581 3500 
L 1159 3500 
L 1159 2956 
Q 1341 3275 1631 3429 
Q 1922 3584 2338 3584 
Q 2397 3584 2469 3576 
Q 2541 3569 2628 3553 
L 2631 2963 
z
" transform="scale(0.015625)"/>
      <path id="DejaVuSans-64" d="M 2906 2969 
L 2906 4863 
L 3481 4863 
L 3481 0 
L 2906 0 
L 2906 525 
Q 2725 213 2448 61 
Q 2172 -91 1784 -91 
Q 1150 -91 751 415 
Q 353 922 353 1747 
Q 353 2572 751 3078 
Q 1150 3584 1784 3584 
Q 2172 3584 2448 3432 
Q 2725 3281 2906 2969 
z
M 947 1747 
Q 947 1113 1208 752 
Q 1469 391 1925 391 
Q 2381 391 2643 752 
Q 2906 1113 2906 1747 
Q 2906 2381 2643 2742 
Q 2381 3103 1925 3103 
Q 1469 3103 1208 2742 
Q 947 2381 947 1747 
z
" transform="scale(0.015625)"/>
      <path id="DejaVuSans-65" d="M 3597 1894 
L 3597 1613 
L 953 1613 
Q 991 1019 1311 708 
Q 1631 397 2203 397 
Q 2534 397 2845 478 
Q 3156 559 3463 722 
L 3463 178 
Q 3153 47 2828 -22 
Q 2503 -91 2169 -91 
Q 1331 -91 842 396 
Q 353 884 353 1716 
Q 353 2575 817 3079 
Q 1281 3584 2069 3584 
Q 2775 3584 3186 3129 
Q 3597 2675 3597 1894 
z
M 3022 2063 
Q 3016 2534 2758 2815 
Q 2500 3097 2075 3097 
Q 1594 3097 1305 2825 
Q 1016 2553 972 2059 
L 3022 2063 
z
" transform="scale(0.015625)"/>
     </defs>
     <use xlink:href="#DejaVuSans-74"/>
     <use xlink:href="#DejaVuSans-61" x="39.208984"/>
     <use xlink:href="#DejaVuSans-6e" x="100.488281"/>
     <use xlink:href="#DejaVuSans-68" x="163.867188"/>
     <use xlink:href="#DejaVuSans-20" x="227.246094"/>
     <use xlink:href="#DejaVuSans-67" x="259.033203"/>
     <use xlink:href="#DejaVuSans-72" x="322.509766"/>
     <use xlink:href="#DejaVuSans-61" x="363.623047"/>
     <use xlink:href="#DejaVuSans-64" x="424.902344"/>
     <use xlink:href="#DejaVuSans-69" x="488.378906"/>
     <use xlink:href="#DejaVuSans-65" x="516.162109"/>
     <use xlink:href="#DejaVuSans-6e" x="577.685547"/>
     <use xlink:href="#DejaVuSans-74" x="641.064453"/>
     <use xlink:href="#DejaVuSans-73" x="680.273438"/>
    </g>
   </g>
  </g>
 </g>
 <defs>
  <clipPath id="p25392bcdb6">
   <rect x="39.65" y="22.318125" width="202.909091" height="166.32"/>
  </clipPath>
  <clipPath id="p30e46276f3">
   <rect x="283.140909" y="22.318125" width="202.909091" height="166.32"/>
  </clipPath>
 </defs>
</svg>