<?xml version="1.0" encoding="utf-8" standalone="no"?>
<!DOCTYPE svg PUBLIC "-//W3C//DTD SVG 1.1//EN"
  "http://www.w3.org/Graphics/SVG/1.1/DTD/svg11.dtd">
<svg xmlns:xlink="http://www.w3.org/1999/xlink" width="329.98125pt" height="211.07625pt" viewBox="0 0 329.98125 211.07625" xmlns="http://www.w3.org/2000/svg" version="1.1">
 <metadata>
  <rdf:RDF xmlns:dc="http://purl.org/dc/elements/1.1/" xmlns:cc="http://creativecommons.org/ns#" xmlns:rdf="http://www.w3.org/1999/02/22-rdf-syntax-ns#">
   <cc:Work>
    <dc:type rdf:resource="http://purl.org/dc/dcmitype/StillImage"/>
    <dc:date>2025-01-13T22:21:44.083071</dc:date>
    <dc:format>image/svg+xml</dc:format>
    <dc:creator>
     <cc:Agent>
      <dc:title>Matplotlib v3.9.2, https://matplotlib.org/</dc:title>
     </cc:Agent>
    </dc:creator>
   </cc:Work>
  </rdf:RDF>
 </metadata>
 <defs>
  <style type="text/css">*{stroke-linejoin: round; stroke-linecap: butt}</style>
 </defs>
 <g id="figure_1">
  <g id="patch_1">
   <path d="M 0 211.07625 
L 329.98125 211.07625 
L 329.98125 0 
L 0 0 
z
" style="fill: #ffffff"/>
  </g>
  <g id="axes_1">
   <g id="patch_2">
    <path d="M 43.78125 173.52 
L 322.78125 173.52 
L 322.78125 7.2 
L 43.78125 7.2 
z
" style="fill: #ffffff"/>
   </g>
   <g id="matplotlib.axis_1">
    <g id="xtick_1">
     <g id="line2d_1">
      <defs>
       <path id="m7d57ca7148" d="M 0 0 
L 0 3.5 
" style="stroke: #000000; stroke-width: 0.8"/>
      </defs>
      <g>
       <use xlink:href="#m7d57ca7148" x="56.463068" y="173.52" style="stroke: #000000; stroke-width: 0.8"/>
      </g>
     </g>
     <g id="text_1">
      <!-- 0 -->
      <g transform="translate(53.281818 188.118438) scale(0.1 -0.1)">
       <defs>
        <path id="DejaVuSans-30" d="M 2034 4250 
Q 1547 4250 1301 3770 
Q 1056 3291 1056 2328 
Q 1056 1369 1301 889 
Q 1547 409 2034 409 
Q 2525 409 2770 889 
Q 3016 1369 3016 2328 
Q 3016 3291 2770 3770 
Q 2525 4250 2034 4250 
z
M 2034 4750 
Q 2819 4750 3233 4129 
Q 3647 3509 3647 2328 
Q 3647 1150 3233 529 
Q 2819 -91 2034 -91 
Q 1250 -91 836 529 
Q 422 1150 422 2328 
Q 422 3509 836 4129 
Q 1250 4750 2034 4750 
z
" transform="scale(0.015625)"/>
       </defs>
       <use xlink:href="#DejaVuSans-30"/>
      </g>
     </g>
    </g>
    <g id="xtick_2">
     <g id="line2d_2">
      <g>
       <use xlink:href="#m7d57ca7148" x="107.291999" y="173.52" style="stroke: #000000; stroke-width: 0.8"/>
      </g>
     </g>
     <g id="text_2">
      <!-- 100 -->
      <g transform="translate(97.748249 188.118438) scale(0.1 -0.1)">
       <defs>
        <path id="DejaVuSans-31" d="M 794 531 
L 1825 531 
L 1825 4091 
L 703 3866 
L 703 4441 
L 1819 4666 
L 2450 4666 
L 2450 531 
L 3481 531 
L 3481 0 
L 794 0 
L 794 531 
z
" transform="scale(0.015625)"/>
       </defs>
       <use xlink:href="#DejaVuSans-31"/>
       <use xlink:href="#DejaVuSans-30" x="63.623047"/>
       <use xlink:href="#DejaVuSans-30" x="127.246094"/>
      </g>
     </g>
    </g>
    <g id="xtick_3">
     <g id="line2d_3">
      <g>
       <use xlink:href="#m7d57ca7148" x="158.120929" y="173.52" style="stroke: #000000; stroke-width: 0.8"/>
      </g>
     </g>
     <g id="text_3">
      <!-- 200 -->
      <g transform="translate(148.577179 188.118438) scale(0.1 -0.1)">
       <defs>
        <path id="DejaVuSans-32" d="M 1228 531 
L 3431 531 
L 3431 0 
L 469 0 
L 469 531 
Q 828 903 1448 1529 
Q 2069 2156 2228 2338 
Q 2531 2678 2651 2914 
Q 2772 3150 2772 3378 
Q 2772 3750 2511 3984 
Q 2250 4219 1831 4219 
Q 1534 4219 1204 4116 
Q 875 4013 500 3803 
L 500 4441 
Q 881 4594 1212 4672 
Q 1544 4750 1819 4750 
Q 2544 4750 2975 4387 
Q 3406 4025 3406 3419 
Q 3406 3131 3298 2873 
Q 3191 2616 2906 2266 
Q 2828 2175 2409 1742 
Q 1991 1309 1228 531 
z
" transform="scale(0.015625)"/>
       </defs>
       <use xlink:href="#DejaVuSans-32"/>
       <use xlink:href="#DejaVuSans-30" x="63.623047"/>
       <use xlink:href="#DejaVuSans-30" x="127.246094"/>
      </g>
     </g>
    </g>
    <g id="xtick_4">
     <g id="line2d_4">
      <g>
       <use xlink:href="#m7d57ca7148" x="208.94986" y="173.52" style="stroke: #000000; stroke-width: 0.8"/>
      </g>
     </g>
     <g id="text_4">
      <!-- 300 -->
      <g transform="translate(199.40611 188.118438) scale(0.1 -0.1)">
       <defs>
        <path id="DejaVuSans-33" d="M 2597 2516 
Q 3050 2419 3304 2112 
Q 3559 1806 3559 1356 
Q 3559 666 3084 287 
Q 2609 -91 1734 -91 
Q 1441 -91 1130 -33 
Q 819 25 488 141 
L 488 750 
Q 750 597 1062 519 
Q 1375 441 1716 441 
Q 2309 441 2620 675 
Q 2931 909 2931 1356 
Q 2931 1769 2642 2001 
Q 2353 2234 1838 2234 
L 1294 2234 
L 1294 2753 
L 1863 2753 
Q 2328 2753 2575 2939 
Q 2822 3125 2822 3475 
Q 2822 3834 2567 4026 
Q 2313 4219 1838 4219 
Q 1578 4219 1281 4162 
Q 984 4106 628 3988 
L 628 4550 
Q 988 4650 1302 4700 
Q 1616 4750 1894 4750 
Q 2613 4750 3031 4423 
Q 3450 4097 3450 3541 
Q 3450 3153 3228 2886 
Q 3006 2619 2597 2516 
z
" transform="scale(0.015625)"/>
       </defs>
       <use xlink:href="#DejaVuSans-33"/>
       <use xlink:href="#DejaVuSans-30" x="63.623047"/>
       <use xlink:href="#DejaVuSans-30" x="127.246094"/>
      </g>
     </g>
    </g>
    <g id="xtick_5">
     <g id="line2d_5">
      <g>
       <use xlink:href="#m7d57ca7148" x="259.778791" y="173.52" style="stroke: #000000; stroke-width: 0.8"/>
      </g>
     </g>
     <g id="text_5">
      <!-- 400 -->
      <g transform="translate(250.235041 188.118438) scale(0.1 -0.1)">
       <defs>
        <path id="DejaVuSans-34" d="M 2419 4116 
L 825 1625 
L 2419 1625 
L 2419 4116 
z
M 2253 4666 
L 3047 4666 
L 3047 1625 
L 3713 1625 
L 3713 1100 
L 3047 1100 
L 3047 0 
L 2419 0 
L 2419 1100 
L 313 1100 
L 313 1709 
L 2253 4666 
z
" transform="scale(0.015625)"/>
       </defs>
       <use xlink:href="#DejaVuSans-34"/>
       <use xlink:href="#DejaVuSans-30" x="63.623047"/>
       <use xlink:href="#DejaVuSans-30" x="127.246094"/>
      </g>
     </g>
    </g>
    <g id="xtick_6">
     <g id="line2d_6">
      <g>
       <use xlink:href="#m7d57ca7148" x="310.607721" y="173.52" style="stroke: #000000; stroke-width: 0.8"/>
      </g>
     </g>
     <g id="text_6">
      <!-- 500 -->
      <g transform="translate(301.063971 188.118438) scale(0.1 -0.1)">
       <defs>
        <path id="DejaVuSans-35" d="M 691 4666 
L 3169 4666 
L 3169 4134 
L 1269 4134 
L 1269 2991 
Q 1406 3038 1543 3061 
Q 1681 3084 1819 3084 
Q 2600 3084 3056 2656 
Q 3513 2228 3513 1497 
Q 3513 744 3044 326 
Q 2575 -91 1722 -91 
Q 1428 -91 1123 -41 
Q 819 9 494 109 
L 494 744 
Q 775 591 1075 516 
Q 1375 441 1709 441 
Q 2250 441 2565 725 
Q 2881 1009 2881 1497 
Q 2881 1984 2565 2268 
Q 2250 2553 1709 2553 
Q 1456 2553 1204 2497 
Q 953 2441 691 2322 
L 691 4666 
z
" transform="scale(0.015625)"/>
       </defs>
       <use xlink:href="#DejaVuSans-35"/>
       <use xlink:href="#DejaVuSans-30" x="63.623047"/>
       <use xlink:href="#DejaVuSans-30" x="127.246094"/>
      </g>
     </g>
    </g>
    <g id="text_7">
     <!-- step -->
     <g transform="translate(172.465625 201.796563) scale(0.1 -0.1)">
      <defs>
       <path id="DejaVuSans-73" d="M 2834 3397 
L 2834 2853 
Q 2591 2978 2328 3040 
Q 2066 3103 1784 3103 
Q 1356 3103 1142 2972 
Q 928 2841 928 2578 
Q 928 2378 1081 2264 
Q 1234 2150 1697 2047 
L 1894 2003 
Q 2506 1872 2764 1633 
Q 3022 1394 3022 966 
Q 3022 478 2636 193 
Q 2250 -91 1575 -91 
Q 1294 -91 989 -36 
Q 684 19 347 128 
L 347 722 
Q 666 556 975 473 
Q 1284 391 1588 391 
Q 1994 391 2212 530 
Q 2431 669 2431 922 
Q 2431 1156 2273 1281 
Q 2116 1406 1581 1522 
L 1381 1569 
Q 847 1681 609 1914 
Q 372 2147 372 2553 
Q 372 3047 722 3315 
Q 1072 3584 1716 3584 
Q 2034 3584 2315 3537 
Q 2597 3491 2834 3397 
z
" transform="scale(0.015625)"/>
       <path id="DejaVuSans-74" d="M 1172 4494 
L 1172 3500 
L 2356 3500 
L 2356 3053 
L 1172 3053 
L 1172 1153 
Q 1172 725 1289 603 
Q 1406 481 1766 481 
L 2356 481 
L 2356 0 
L 1766 0 
Q 1100 0 847 248 
Q 594 497 594 1153 
L 594 3053 
L 172 3053 
L 172 3500 
L 594 3500 
L 594 4494 
L 1172 4494 
z
" transform="scale(0.015625)"/>
       <path id="DejaVuSans-65" d="M 3597 1894 
L 3597 1613 
L 953 1613 
Q 991 1019 1311 708 
Q 1631 397 2203 397 
Q 2534 397 2845 478 
Q 3156 559 3463 722 
L 3463 178 
Q 3153 47 2828 -22 
Q 2503 -91 2169 -91 
Q 1331 -91 842 396 
Q 353 884 353 1716 
Q 353 2575 817 3079 
Q 1281 3584 2069 3584 
Q 2775 3584 3186 3129 
Q 3597 2675 3597 1894 
z
M 3022 2063 
Q 3016 2534 2758 2815 
Q 2500 3097 2075 3097 
Q 1594 3097 1305 2825 
Q 1016 2553 972 2059 
L 3022 2063 
z
" transform="scale(0.015625)"/>
       <path id="DejaVuSans-70" d="M 1159 525 
L 1159 -1331 
L 581 -1331 
L 581 3500 
L 1159 3500 
L 1159 2969 
Q 1341 3281 1617 3432 
Q 1894 3584 2278 3584 
Q 2916 3584 3314 3078 
Q 3713 2572 3713 1747 
Q 3713 922 3314 415 
Q 2916 -91 2278 -91 
Q 1894 -91 1617 61 
Q 1341 213 1159 525 
z
M 3116 1747 
Q 3116 2381 2855 2742 
Q 2594 3103 2138 3103 
Q 1681 3103 1420 2742 
Q 1159 2381 1159 1747 
Q 1159 1113 1420 752 
Q 1681 391 2138 391 
Q 2594 391 2855 752 
Q 3116 1113 3116 1747 
z
" transform="scale(0.015625)"/>
      </defs>
      <use xlink:href="#DejaVuSans-73"/>
      <use xlink:href="#DejaVuSans-74" x="52.099609"/>
      <use xlink:href="#DejaVuSans-65" x="91.308594"/>
      <use xlink:href="#DejaVuSans-70" x="152.832031"/>
     </g>
    </g>
   </g>
   <g id="matplotlib.axis_2">
    <g id="ytick_1">
     <g id="line2d_7">
      <defs>
       <path id="m8714192423" d="M 0 0 
L -3.5 0 
" style="stroke: #000000; stroke-width: 0.8"/>
      </defs>
      <g>
       <use xlink:href="#m8714192423" x="43.78125" y="164.320607" style="stroke: #000000; stroke-width: 0.8"/>
      </g>
     </g>
     <g id="text_8">
      <!-- 2.4 -->
      <g transform="translate(20.878125 168.119826) scale(0.1 -0.1)">
       <defs>
        <path id="DejaVuSans-2e" d="M 684 794 
L 1344 794 
L 1344 0 
L 684 0 
L 684 794 
z
" transform="scale(0.015625)"/>
       </defs>
       <use xlink:href="#DejaVuSans-32"/>
       <use xlink:href="#DejaVuSans-2e" x="63.623047"/>
       <use xlink:href="#DejaVuSans-34" x="95.410156"/>
      </g>
     </g>
    </g>
    <g id="ytick_2">
     <g id="line2d_8">
      <g>
       <use xlink:href="#m8714192423" x="43.78125" y="143.041426" style="stroke: #000000; stroke-width: 0.8"/>
      </g>
     </g>
     <g id="text_9">
      <!-- 2.6 -->
      <g transform="translate(20.878125 146.840644) scale(0.1 -0.1)">
       <defs>
        <path id="DejaVuSans-36" d="M 2113 2584 
Q 1688 2584 1439 2293 
Q 1191 2003 1191 1497 
Q 1191 994 1439 701 
Q 1688 409 2113 409 
Q 2538 409 2786 701 
Q 3034 994 3034 1497 
Q 3034 2003 2786 2293 
Q 2538 2584 2113 2584 
z
M 3366 4563 
L 3366 3988 
Q 3128 4100 2886 4159 
Q 2644 4219 2406 4219 
Q 1781 4219 1451 3797 
Q 1122 3375 1075 2522 
Q 1259 2794 1537 2939 
Q 1816 3084 2150 3084 
Q 2853 3084 3261 2657 
Q 3669 2231 3669 1497 
Q 3669 778 3244 343 
Q 2819 -91 2113 -91 
Q 1303 -91 875 529 
Q 447 1150 447 2328 
Q 447 3434 972 4092 
Q 1497 4750 2381 4750 
Q 2619 4750 2861 4703 
Q 3103 4656 3366 4563 
z
" transform="scale(0.015625)"/>
       </defs>
       <use xlink:href="#DejaVuSans-32"/>
       <use xlink:href="#DejaVuSans-2e" x="63.623047"/>
       <use xlink:href="#DejaVuSans-36" x="95.410156"/>
      </g>
     </g>
    </g>
    <g id="ytick_3">
     <g id="line2d_9">
      <g>
       <use xlink:href="#m8714192423" x="43.78125" y="121.762244" style="stroke: #000000; stroke-width: 0.8"/>
      </g>
     </g>
     <g id="text_10">
      <!-- 2.8 -->
      <g transform="translate(20.878125 125.561463) scale(0.1 -0.1)">
       <defs>
        <path id="DejaVuSans-38" d="M 2034 2216 
Q 1584 2216 1326 1975 
Q 1069 1734 1069 1313 
Q 1069 891 1326 650 
Q 1584 409 2034 409 
Q 2484 409 2743 651 
Q 3003 894 3003 1313 
Q 3003 1734 2745 1975 
Q 2488 2216 2034 2216 
z
M 1403 2484 
Q 997 2584 770 2862 
Q 544 3141 544 3541 
Q 544 4100 942 4425 
Q 1341 4750 2034 4750 
Q 2731 4750 3128 4425 
Q 3525 4100 3525 3541 
Q 3525 3141 3298 2862 
Q 3072 2584 2669 2484 
Q 3125 2378 3379 2068 
Q 3634 1759 3634 1313 
Q 3634 634 3220 271 
Q 2806 -91 2034 -91 
Q 1263 -91 848 271 
Q 434 634 434 1313 
Q 434 1759 690 2068 
Q 947 2378 1403 2484 
z
M 1172 3481 
Q 1172 3119 1398 2916 
Q 1625 2713 2034 2713 
Q 2441 2713 2670 2916 
Q 2900 3119 2900 3481 
Q 2900 3844 2670 4047 
Q 2441 4250 2034 4250 
Q 1625 4250 1398 4047 
Q 1172 3844 1172 3481 
z
" transform="scale(0.015625)"/>
       </defs>
       <use xlink:href="#DejaVuSans-32"/>
       <use xlink:href="#DejaVuSans-2e" x="63.623047"/>
       <use xlink:href="#DejaVuSans-38" x="95.410156"/>
      </g>
     </g>
    </g>
    <g id="ytick_4">
     <g id="line2d_10">
      <g>
       <use xlink:href="#m8714192423" x="43.78125" y="100.483063" style="stroke: #000000; stroke-width: 0.8"/>
      </g>
     </g>
     <g id="text_11">
      <!-- 3.0 -->
      <g transform="translate(20.878125 104.282281) scale(0.1 -0.1)">
       <use xlink:href="#DejaVuSans-33"/>
       <use xlink:href="#DejaVuSans-2e" x="63.623047"/>
       <use xlink:href="#DejaVuSans-30" x="95.410156"/>
      </g>
     </g>
    </g>
    <g id="ytick_5">
     <g id="line2d_11">
      <g>
       <use xlink:href="#m8714192423" x="43.78125" y="79.203881" style="stroke: #000000; stroke-width: 0.8"/>
      </g>
     </g>
     <g id="text_12">
      <!-- 3.2 -->
      <g transform="translate(20.878125 83.0031) scale(0.1 -0.1)">
       <use xlink:href="#DejaVuSans-33"/>
       <use xlink:href="#DejaVuSans-2e" x="63.623047"/>
       <use xlink:href="#DejaVuSans-32" x="95.410156"/>
      </g>
     </g>
    </g>
    <g id="ytick_6">
     <g id="line2d_12">
      <g>
       <use xlink:href="#m8714192423" x="43.78125" y="57.9247" style="stroke: #000000; stroke-width: 0.8"/>
      </g>
     </g>
     <g id="text_13">
      <!-- 3.4 -->
      <g transform="translate(20.878125 61.723918) scale(0.1 -0.1)">
       <use xlink:href="#DejaVuSans-33"/>
       <use xlink:href="#DejaVuSans-2e" x="63.623047"/>
       <use xlink:href="#DejaVuSans-34" x="95.410156"/>
      </g>
     </g>
    </g>
    <g id="ytick_7">
     <g id="line2d_13">
      <g>
       <use xlink:href="#m8714192423" x="43.78125" y="36.645518" style="stroke: #000000; stroke-width: 0.8"/>
      </g>
     </g>
     <g id="text_14">
      <!-- 3.6 -->
      <g transform="translate(20.878125 40.444737) scale(0.1 -0.1)">
       <use xlink:href="#DejaVuSans-33"/>
       <use xlink:href="#DejaVuSans-2e" x="63.623047"/>
       <use xlink:href="#DejaVuSans-36" x="95.410156"/>
      </g>
     </g>
    </g>
    <g id="ytick_8">
     <g id="line2d_14">
      <g>
       <use xlink:href="#m8714192423" x="43.78125" y="15.366337" style="stroke: #000000; stroke-width: 0.8"/>
      </g>
     </g>
     <g id="text_15">
      <!-- 3.8 -->
      <g transform="translate(20.878125 19.165555) scale(0.1 -0.1)">
       <use xlink:href="#DejaVuSans-33"/>
       <use xlink:href="#DejaVuSans-2e" x="63.623047"/>
       <use xlink:href="#DejaVuSans-38" x="95.410156"/>
      </g>
     </g>
    </g>
    <g id="text_16">
     <!-- loss -->
     <g transform="translate(14.798438 100.017813) rotate(-90) scale(0.1 -0.1)">
      <defs>
       <path id="DejaVuSans-6c" d="M 603 4863 
L 1178 4863 
L 1178 0 
L 603 0 
L 603 4863 
z
" transform="scale(0.015625)"/>
       <path id="DejaVuSans-6f" d="M 1959 3097 
Q 1497 3097 1228 2736 
Q 959 2375 959 1747 
Q 959 1119 1226 758 
Q 1494 397 1959 397 
Q 2419 397 2687 759 
Q 2956 1122 2956 1747 
Q 2956 2369 2687 2733 
Q 2419 3097 1959 3097 
z
M 1959 3584 
Q 2709 3584 3137 3096 
Q 3566 2609 3566 1747 
Q 3566 888 3137 398 
Q 2709 -91 1959 -91 
Q 1206 -91 779 398 
Q 353 888 353 1747 
Q 353 2609 779 3096 
Q 1206 3584 1959 3584 
z
" transform="scale(0.015625)"/>
      </defs>
      <use xlink:href="#DejaVuSans-6c"/>
      <use xlink:href="#DejaVuSans-6f" x="27.783203"/>
      <use xlink:href="#DejaVuSans-73" x="88.964844"/>
      <use xlink:href="#DejaVuSans-73" x="141.064453"/>
     </g>
    </g>
   </g>
   <g id="line2d_15">
    <path d="M 56.463068 14.76 
L 57.479647 28.33317 
L 57.987936 24.865001 
L 58.496225 46.674353 
L 59.004515 41.990812 
L 59.512804 43.265365 
L 60.021093 56.566299 
L 60.529383 46.952424 
L 61.545961 62.456258 
L 62.054251 68.445427 
L 62.56254 70.815418 
L 63.070829 58.165521 
L 63.579118 70.214505 
L 64.595697 81.012095 
L 65.103986 77.151528 
L 65.612276 77.016729 
L 66.120565 86.833665 
L 66.628854 80.408366 
L 67.137144 75.863175 
L 67.645433 88.029708 
L 68.153722 83.51795 
L 68.662012 97.300473 
L 69.170301 81.870887 
L 69.67859 94.64092 
L 70.186879 99.228042 
L 70.695169 87.05116 
L 71.203458 103.814961 
L 71.711747 102.567297 
L 72.220037 103.54133 
L 72.728326 93.067445 
L 73.236615 93.378467 
L 73.744905 106.768997 
L 74.253194 100.650965 
L 74.761483 103.938954 
L 75.269772 117.215536 
L 75.778062 114.988208 
L 76.286351 118.988774 
L 76.79464 100.3041 
L 77.30293 106.332105 
L 77.811219 105.653341 
L 78.319508 113.933889 
L 78.827798 109.329644 
L 79.336087 106.385096 
L 80.352666 125.164211 
L 80.860955 122.775601 
L 81.369244 115.162427 
L 81.877533 110.463082 
L 82.385823 113.058178 
L 82.894112 113.149524 
L 83.402401 118.167449 
L 83.910691 117.902798 
L 84.41898 113.523404 
L 84.927269 124.026207 
L 85.435559 121.312547 
L 85.943848 121.380682 
L 86.452137 133.626055 
L 86.960427 123.133805 
L 87.468716 131.223417 
L 87.977005 131.491544 
L 88.485294 126.498198 
L 88.993584 134.209896 
L 89.501873 132.394499 
L 90.010162 119.010006 
L 90.518452 125.218673 
L 91.026741 133.459015 
L 91.53503 118.51231 
L 92.04332 123.237555 
L 92.551609 132.195979 
L 93.059898 118.617735 
L 93.568188 131.564498 
L 94.076477 129.055574 
L 94.584766 133.30169 
L 95.093055 143.782932 
L 95.601345 124.128993 
L 96.109634 131.611452 
L 96.617923 121.241419 
L 97.126213 128.528604 
L 98.142791 148.954022 
L 98.651081 119.536925 
L 99.15937 131.046839 
L 99.667659 132.449469 
L 100.175948 127.371525 
L 100.684238 125.086842 
L 101.192527 133.528393 
L 101.700816 131.688643 
L 102.209106 133.32792 
L 102.717395 121.255548 
L 103.225684 143.25198 
L 103.733974 130.793983 
L 104.242263 131.663936 
L 104.750552 136.56827 
L 105.258842 135.922483 
L 105.767131 131.414581 
L 106.27542 135.164955 
L 106.783709 133.856969 
L 107.291999 133.638104 
L 107.800288 132.059302 
L 108.308577 142.529763 
L 108.816867 120.911499 
L 109.325156 114.779515 
L 109.833445 131.762613 
L 110.341735 130.518678 
L 110.850024 137.373842 
L 111.358313 139.720572 
L 112.374892 124.479892 
L 112.883181 136.55305 
L 113.39147 138.427831 
L 113.89976 132.487696 
L 114.408049 136.098071 
L 114.916338 137.767128 
L 115.424628 134.611452 
L 115.932917 138.991252 
L 116.441206 136.333018 
L 116.949496 135.678353 
L 117.457785 134.68943 
L 117.966074 135.926186 
L 118.474363 143.807208 
L 118.982653 136.416247 
L 119.490942 147.55885 
L 119.999231 135.232152 
L 120.507521 129.719067 
L 121.01581 145.256994 
L 121.524099 130.322567 
L 122.032389 143.591286 
L 122.540678 144.035204 
L 123.048967 135.60933 
L 123.557257 121.849688 
L 124.065546 140.37473 
L 124.573835 132.557074 
L 125.082124 127.961201 
L 125.590414 141.951883 
L 126.098703 142.888931 
L 126.606992 136.593662 
L 127.115282 152.13164 
L 127.623571 141.247701 
L 128.13186 135.641774 
L 128.64015 138.374028 
L 129.148439 130.888829 
L 129.656728 146.31801 
L 130.165018 136.765801 
L 130.673307 141.778247 
L 131.181596 139.276324 
L 131.689885 137.690876 
L 132.198175 136.472814 
L 132.706464 149.75031 
L 133.214753 135.747021 
L 133.723043 138.414183 
L 134.231332 131.283841 
L 134.739621 138.097784 
L 135.247911 132.678556 
L 135.7562 147.246027 
L 136.264489 131.515541 
L 136.772779 137.758275 
L 137.281068 140.96438 
L 137.789357 156.707575 
L 138.297646 140.305073 
L 139.314225 148.383904 
L 139.822514 142.174146 
L 140.330804 134.421658 
L 141.347382 152.272299 
L 141.855672 132.259243 
L 142.363961 147.797856 
L 142.87225 141.219341 
L 143.380539 140.910476 
L 143.888829 152.731843 
L 144.905407 126.268629 
L 145.413697 146.619849 
L 146.430275 135.42953 
L 146.938565 139.030494 
L 147.446854 152.036997 
L 147.955143 137.38858 
L 148.463433 140.238079 
L 148.971722 151.424161 
L 149.480011 136.093429 
L 149.9883 144.439778 
L 150.49659 139.833378 
L 151.004879 151.549092 
L 151.513168 152.426275 
L 152.021458 147.410759 
L 152.529747 145.034299 
L 153.038036 149.093869 
L 153.546326 146.336654 
L 154.054615 145.097792 
L 154.562904 153.638349 
L 155.071194 141.545532 
L 155.579483 154.602362 
L 156.087772 140.864384 
L 156.596061 148.920462 
L 157.104351 124.249536 
L 157.61264 147.401982 
L 158.120929 140.485151 
L 158.629219 149.333128 
L 159.137508 131.763881 
L 159.645797 145.990093 
L 160.154087 132.232507 
L 160.662376 140.959307 
L 161.170665 134.96367 
L 161.678954 134.635703 
L 162.187244 140.97648 
L 162.695533 142.722956 
L 163.203822 142.55031 
L 163.712112 147.58825 
L 164.220401 139.423907 
L 164.72869 127.61743 
L 165.23698 151.645917 
L 165.745269 149.262152 
L 166.761848 134.683697 
L 167.270137 144.597636 
L 167.778426 149.314027 
L 168.286715 147.617523 
L 168.795005 146.577283 
L 169.303294 157.427383 
L 169.811583 155.149016 
L 170.319873 141.284483 
L 170.828162 150.558317 
L 171.336451 151.012382 
L 171.844741 147.890394 
L 172.35303 151.906814 
L 172.861319 147.289785 
L 173.369609 144.081853 
L 173.877898 156.487899 
L 174.386187 151.926499 
L 174.894476 149.654982 
L 175.402766 157.741981 
L 176.419344 148.501073 
L 176.927634 133.909833 
L 177.435923 144.300642 
L 177.944212 143.445046 
L 178.452502 147.855134 
L 178.960791 144.433944 
L 179.46908 148.291975 
L 179.97737 145.406683 
L 180.485659 144.712776 
L 180.993948 125.361843 
L 181.502237 155.534033 
L 182.010527 144.307998 
L 182.518816 149.780522 
L 183.027105 147.228397 
L 183.535395 146.513689 
L 184.043684 146.209491 
L 184.551973 150.481634 
L 185.060263 145.155426 
L 185.568552 157.939284 
L 186.076841 149.557776 
L 186.58513 145.265289 
L 187.09342 150.08817 
L 187.601709 148.578721 
L 188.618288 141.520267 
L 189.126577 151.299788 
L 189.634866 138.919185 
L 191.159734 150.660977 
L 191.668024 146.052115 
L 192.176313 137.37024 
L 193.192891 149.833995 
L 193.701181 139.363205 
L 194.20947 141.69824 
L 194.717759 142.518221 
L 195.226049 153.573943 
L 195.734338 153.538658 
L 196.242627 145.399707 
L 196.750917 148.207605 
L 197.259206 142.577402 
L 197.767495 151.155705 
L 198.275785 139.597035 
L 198.784074 137.2689 
L 199.292363 138.468646 
L 199.800652 144.386305 
L 200.308942 135.300211 
L 200.817231 156.56022 
L 201.32552 149.527158 
L 201.83381 147.580463 
L 202.342099 144.62734 
L 202.850388 136.502443 
L 203.358678 146.398904 
L 203.866967 150.487189 
L 204.375256 141.685988 
L 204.883546 142.458482 
L 205.391835 147.386001 
L 205.900124 144.344323 
L 206.408413 151.599927 
L 206.916703 153.056385 
L 207.424992 139.92348 
L 207.933281 151.117553 
L 208.441571 147.628938 
L 209.458149 149.954715 
L 209.966439 142.486259 
L 210.474728 152.809693 
L 210.983017 146.564828 
L 211.491306 136.278733 
L 211.999596 149.022157 
L 212.507885 154.147054 
L 213.016174 155.331936 
L 213.524464 133.616999 
L 214.032753 153.960152 
L 214.541042 151.306967 
L 215.049332 146.954208 
L 215.557621 139.525577 
L 216.06591 140.747494 
L 217.590778 150.914517 
L 218.099067 145.121333 
L 218.607357 157.444962 
L 219.115646 140.849595 
L 219.623935 143.962401 
L 220.132225 142.314602 
L 220.640514 142.92069 
L 221.148803 156.298968 
L 221.657093 147.400384 
L 222.165382 141.009482 
L 222.673671 140.52135 
L 223.181961 148.518931 
L 223.69025 143.187777 
L 224.198539 143.054982 
L 224.706828 134.488322 
L 225.215118 155.323311 
L 225.723407 143.542962 
L 226.231696 139.433141 
L 226.739986 158.162664 
L 227.248275 144.350868 
L 227.756564 149.917401 
L 228.264854 157.441537 
L 228.773143 137.312556 
L 229.281432 149.702671 
L 229.789721 146.888559 
L 230.298011 160.296059 
L 230.8063 147.51149 
L 231.314589 146.145034 
L 231.822879 136.953794 
L 232.331168 146.60714 
L 232.839457 138.897877 
L 233.347747 149.220373 
L 233.856036 155.170299 
L 234.364325 147.934202 
L 234.872615 148.861712 
L 235.380904 145.399454 
L 235.889193 133.333982 
L 236.397482 150.765589 
L 236.905772 146.512978 
L 237.414061 139.875461 
L 237.92235 156.813659 
L 238.43064 139.830613 
L 238.938929 132.657045 
L 239.447218 133.692034 
L 239.955508 137.783743 
L 240.463797 162.811681 
L 240.972086 149.912556 
L 241.480376 148.141804 
L 241.988665 161.448851 
L 242.496954 148.113215 
L 243.005243 140.618453 
L 243.513533 150.559586 
L 244.021822 143.714238 
L 244.530111 143.930515 
L 245.038401 149.723573 
L 245.54669 145.071512 
L 246.054979 146.825725 
L 246.563269 147.484018 
L 247.579847 141.858558 
L 248.088137 148.898697 
L 248.596426 150.475622 
L 249.104715 148.81207 
L 249.613004 143.301496 
L 250.121294 141.006514 
L 250.629583 144.76739 
L 251.137872 154.303085 
L 251.646162 144.710011 
L 252.154451 139.14845 
L 252.66274 135.470751 
L 253.17103 151.258643 
L 253.679319 144.715211 
L 254.187608 154.584301 
L 254.695897 153.523235 
L 255.204187 142.389434 
L 255.712476 148.968456 
L 256.220765 146.976328 
L 256.729055 142.121992 
L 257.237344 156.869517 
L 257.745633 152.052521 
L 258.762212 146.297234 
L 259.270501 152.869001 
L 259.778791 149.126947 
L 260.28708 144.277507 
L 260.795369 142.494757 
L 261.811948 155.136688 
L 262.828526 135.698976 
L 263.336816 156.424863 
L 263.845105 149.404561 
L 264.353394 147.159425 
L 264.861684 161.495475 
L 265.369973 152.916335 
L 265.878262 146.869179 
L 266.894841 138.973723 
L 267.40313 133.462947 
L 267.911419 161.397484 
L 268.419709 160.900346 
L 268.927998 148.609846 
L 269.436287 159.217794 
L 269.944577 134.67908 
L 270.452866 151.198625 
L 271.469445 140.174586 
L 271.977734 153.702883 
L 272.486023 144.030841 
L 272.994312 158.996393 
L 273.502602 162.004307 
L 274.010891 158.37407 
L 274.51918 146.28034 
L 275.02747 145.259302 
L 275.535759 147.687662 
L 276.044048 145.657687 
L 276.552338 138.76942 
L 277.060627 161.688745 
L 277.568916 145.398997 
L 278.077206 138.294249 
L 278.585495 155.756119 
L 279.093784 158.638544 
L 279.602073 150.985088 
L 280.110363 135.024043 
L 280.618652 152.26408 
L 281.126941 145.562105 
L 281.635231 144.195344 
L 282.14352 140.844421 
L 282.651809 157.152407 
L 283.160099 158.319379 
L 283.668388 149.634282 
L 284.176677 153.764727 
L 284.684967 145.067834 
L 285.193256 152.323565 
L 285.701545 138.72381 
L 286.209834 138.65707 
L 286.718124 154.87399 
L 287.226413 151.97467 
L 287.734702 142.335453 
L 288.242992 143.689531 
L 288.751281 154.327564 
L 289.25957 145.735081 
L 289.76786 147.351147 
L 290.276149 164.152339 
L 290.784438 144.565547 
L 291.292728 140.552551 
L 291.801017 154.183025 
L 292.309306 148.101191 
L 292.817595 147.416517 
L 293.325885 154.160955 
L 293.834174 143.688161 
L 294.342463 160.137643 
L 294.850753 156.978391 
L 295.359042 162.959924 
L 295.867331 145.16712 
L 296.375621 150.031602 
L 296.88391 160.396486 
L 297.392199 163.227366 
L 297.900488 138.055523 
L 298.408778 153.804502 
L 298.917067 161.151629 
L 299.425356 156.366494 
L 299.933646 154.68308 
L 300.441935 150.268248 
L 300.950224 138.382424 
L 301.458514 165.96 
L 301.966803 153.93646 
L 302.475092 148.405846 
L 302.983382 151.789341 
L 303.491671 139.978957 
L 303.99996 131.501792 
L 304.508249 164.639939 
L 305.016539 151.070751 
L 305.524828 152.36925 
L 306.541407 138.986686 
L 307.049696 137.389595 
L 307.557985 149.8949 
L 308.066275 150.047101 
L 308.574564 146.972345 
L 309.082853 152.924478 
L 309.591143 148.05576 
L 310.099432 149.332063 
L 310.099432 149.332063 
" clip-path="url(#p2817175c02)" style="fill: none; stroke: #1f77b4; stroke-width: 1.5; stroke-linecap: square"/>
   </g>
   <g id="patch_3">
    <path d="M 43.78125 173.52 
L 43.78125 7.2 
" style="fill: none; stroke: #000000; stroke-width: 0.8; stroke-linejoin: miter; stroke-linecap: square"/>
   </g>
   <g id="patch_4">
    <path d="M 322.78125 173.52 
L 322.78125 7.2 
" style="fill: none; stroke: #000000; stroke-width: 0.8; stroke-linejoin: miter; stroke-linecap: square"/>
   </g>
   <g id="patch_5">
    <path d="M 43.78125 173.52 
L 322.78125 173.52 
" style="fill: none; stroke: #000000; stroke-width: 0.8; stroke-linejoin: miter; stroke-linecap: square"/>
   </g>
   <g id="patch_6">
    <path d="M 43.78125 7.2 
L 322.78125 7.2 
" style="fill: none; stroke: #000000; stroke-width: 0.8; stroke-linejoin: miter; stroke-linecap: square"/>
   </g>
  </g>
 </g>
 <defs>
  <clipPath id="p2817175c02">
   <rect x="43.78125" y="7.2" width="279" height="166.32"/>
  </clipPath>
 </defs>
</svg>