<?xml version="1.0" encoding="utf-8" standalone="no"?>
<!DOCTYPE svg PUBLIC "-//W3C//DTD SVG 1.1//EN"
  "http://www.w3.org/Graphics/SVG/1.1/DTD/svg11.dtd">
<svg xmlns:xlink="http://www.w3.org/1999/xlink" width="497.38125pt" height="212.51625pt" viewBox="0 0 497.38125 212.51625" xmlns="http://www.w3.org/2000/svg" version="1.1">
 <metadata>
  <rdf:RDF xmlns:dc="http://purl.org/dc/elements/1.1/" xmlns:cc="http://creativecommons.org/ns#" xmlns:rdf="http://www.w3.org/1999/02/22-rdf-syntax-ns#">
   <cc:Work>
    <dc:type rdf:resource="http://purl.org/dc/dcmitype/StillImage"/>
    <dc:date>2023-03-29T02:51:28.528255</dc:date>
    <dc:format>image/svg+xml</dc:format>
    <dc:creator>
     <cc:Agent>
      <dc:title>Matplotlib v3.7.0, https://matplotlib.org/</dc:title>
     </cc:Agent>
    </dc:creator>
   </cc:Work>
  </rdf:RDF>
 </metadata>
 <defs>
  <style type="text/css">*{stroke-linejoin: round; stroke-linecap: butt}</style>
 </defs>
 <g id="figure_1">
  <g id="patch_1">
   <path d="M 0 212.51625 
L 497.38125 212.51625 
L 497.38125 0 
L 0 0 
z
" style="fill: #ffffff"/>
  </g>
  <g id="axes_1">
   <g id="patch_2">
    <path d="M 43.78125 188.638125 
L 246.690341 188.638125 
L 246.690341 22.318125 
L 43.78125 22.318125 
z
" style="fill: #ffffff"/>
   </g>
   <g id="patch_3">
    <path d="M 53.00439 188.638125 
L 58.510743 188.638125 
L 58.510743 181.894751 
L 53.00439 181.894751 
z
" clip-path="url(#p4a68346e1f)" style="fill: #1f77b4"/>
   </g>
   <g id="patch_4">
    <path d="M 59.887331 188.638125 
L 65.393684 188.638125 
L 65.393684 183.390106 
L 59.887331 183.390106 
z
" clip-path="url(#p4a68346e1f)" style="fill: #1f77b4"/>
   </g>
   <g id="patch_5">
    <path d="M 66.770272 188.638125 
L 72.276624 188.638125 
L 72.276624 181.39349 
L 66.770272 181.39349 
z
" clip-path="url(#p4a68346e1f)" style="fill: #1f77b4"/>
   </g>
   <g id="patch_6">
    <path d="M 73.653213 188.638125 
L 79.159565 188.638125 
L 79.159565 180.060954 
L 73.653213 180.060954 
z
" clip-path="url(#p4a68346e1f)" style="fill: #1f77b4"/>
   </g>
   <g id="patch_7">
    <path d="M 80.536153 188.638125 
L 86.042506 188.638125 
L 86.042506 182.041776 
L 80.536153 182.041776 
z
" clip-path="url(#p4a68346e1f)" style="fill: #1f77b4"/>
   </g>
   <g id="patch_8">
    <path d="M 87.419094 188.638125 
L 92.925446 188.638125 
L 92.925446 182.199566 
L 87.419094 182.199566 
z
" clip-path="url(#p4a68346e1f)" style="fill: #1f77b4"/>
   </g>
   <g id="patch_9">
    <path d="M 94.302035 188.638125 
L 99.808387 188.638125 
L 99.808387 183.089859 
L 94.302035 183.089859 
z
" clip-path="url(#p4a68346e1f)" style="fill: #1f77b4"/>
   </g>
   <g id="patch_10">
    <path d="M 101.184975 188.638125 
L 106.691328 188.638125 
L 106.691328 182.016865 
L 101.184975 182.016865 
z
" clip-path="url(#p4a68346e1f)" style="fill: #1f77b4"/>
   </g>
   <g id="patch_11">
    <path d="M 108.067916 188.638125 
L 113.574268 188.638125 
L 113.574268 183.637695 
L 108.067916 183.637695 
z
" clip-path="url(#p4a68346e1f)" style="fill: #1f77b4"/>
   </g>
   <g id="patch_12">
    <path d="M 114.950857 188.638125 
L 120.457209 188.638125 
L 120.457209 182.417974 
L 114.950857 182.417974 
z
" clip-path="url(#p4a68346e1f)" style="fill: #1f77b4"/>
   </g>
   <g id="patch_13">
    <path d="M 121.833797 188.638125 
L 127.34015 188.638125 
L 127.34015 182.975466 
L 121.833797 182.975466 
z
" clip-path="url(#p4a68346e1f)" style="fill: #1f77b4"/>
   </g>
   <g id="patch_14">
    <path d="M 128.716738 188.638125 
L 134.22309 188.638125 
L 134.22309 183.728326 
L 128.716738 183.728326 
z
" clip-path="url(#p4a68346e1f)" style="fill: #1f77b4"/>
   </g>
   <g id="patch_15">
    <path d="M 135.599679 188.638125 
L 141.106031 188.638125 
L 141.106031 182.962697 
L 135.599679 182.962697 
z
" clip-path="url(#p4a68346e1f)" style="fill: #1f77b4"/>
   </g>
   <g id="patch_16">
    <path d="M 142.482619 188.638125 
L 147.988972 188.638125 
L 147.988972 180.495388 
L 142.482619 180.495388 
z
" clip-path="url(#p4a68346e1f)" style="fill: #1f77b4"/>
   </g>
   <g id="patch_17">
    <path d="M 149.36556 188.638125 
L 154.871912 188.638125 
L 154.871912 183.044408 
L 149.36556 183.044408 
z
" clip-path="url(#p4a68346e1f)" style="fill: #1f77b4"/>
   </g>
   <g id="patch_18">
    <path d="M 156.248501 188.638125 
L 161.754853 188.638125 
L 161.754853 181.583404 
L 156.248501 181.583404 
z
" clip-path="url(#p4a68346e1f)" style="fill: #1f77b4"/>
   </g>
   <g id="patch_19">
    <path d="M 163.131441 188.638125 
L 168.637794 188.638125 
L 168.637794 181.960497 
L 163.131441 181.960497 
z
" clip-path="url(#p4a68346e1f)" style="fill: #1f77b4"/>
   </g>
   <g id="patch_20">
    <path d="M 170.014382 188.638125 
L 175.520734 188.638125 
L 175.520734 182.85345 
L 170.014382 182.85345 
z
" clip-path="url(#p4a68346e1f)" style="fill: #1f77b4"/>
   </g>
   <g id="patch_21">
    <path d="M 176.897323 188.638125 
L 182.403675 188.638125 
L 182.403675 182.84964 
L 176.897323 182.84964 
z
" clip-path="url(#p4a68346e1f)" style="fill: #1f77b4"/>
   </g>
   <g id="patch_22">
    <path d="M 183.780263 188.638125 
L 189.286616 188.638125 
L 189.286616 182.82678 
L 183.780263 182.82678 
z
" clip-path="url(#p4a68346e1f)" style="fill: #1f77b4"/>
   </g>
   <g id="patch_23">
    <path d="M 190.663204 188.638125 
L 196.169556 188.638125 
L 196.169556 183.488626 
L 190.663204 183.488626 
z
" clip-path="url(#p4a68346e1f)" style="fill: #1f77b4"/>
   </g>
   <g id="patch_24">
    <path d="M 197.546145 188.638125 
L 203.052497 188.638125 
L 203.052497 183.734047 
L 197.546145 183.734047 
z
" clip-path="url(#p4a68346e1f)" style="fill: #1f77b4"/>
   </g>
   <g id="patch_25">
    <path d="M 204.429085 188.638125 
L 209.935438 188.638125 
L 209.935438 181.755413 
L 204.429085 181.755413 
z
" clip-path="url(#p4a68346e1f)" style="fill: #1f77b4"/>
   </g>
   <g id="patch_26">
    <path d="M 211.312026 188.638125 
L 216.818378 188.638125 
L 216.818378 181.854439 
L 211.312026 181.854439 
z
" clip-path="url(#p4a68346e1f)" style="fill: #1f77b4"/>
   </g>
   <g id="patch_27">
    <path d="M 218.194967 188.638125 
L 223.701319 188.638125 
L 223.701319 183.407958 
L 218.194967 183.407958 
z
" clip-path="url(#p4a68346e1f)" style="fill: #1f77b4"/>
   </g>
   <g id="patch_28">
    <path d="M 225.077907 188.638125 
L 230.58426 188.638125 
L 230.58426 182.844478 
L 225.077907 182.844478 
z
" clip-path="url(#p4a68346e1f)" style="fill: #1f77b4"/>
   </g>
   <g id="patch_29">
    <path d="M 231.960848 188.638125 
L 237.4672 188.638125 
L 237.4672 182.401322 
L 231.960848 182.401322 
z
" clip-path="url(#p4a68346e1f)" style="fill: #1f77b4"/>
   </g>
   <g id="matplotlib.axis_1">
    <g id="xtick_1">
     <g id="line2d_1">
      <defs>
       <path id="m02a576965f" d="M 0 0 
L 0 3.5 
" style="stroke: #000000; stroke-width: 0.8"/>
      </defs>
      <g>
       <use xlink:href="#m02a576965f" x="55.757567" y="188.638125" style="stroke: #000000; stroke-width: 0.8"/>
      </g>
     </g>
     <g id="text_1">
      <!-- 0 -->
      <g transform="translate(52.576317 203.236563) scale(0.1 -0.1)">
       <defs>
        <path id="DejaVuSans-30" d="M 2034 4250 
Q 1547 4250 1301 3770 
Q 1056 3291 1056 2328 
Q 1056 1369 1301 889 
Q 1547 409 2034 409 
Q 2525 409 2770 889 
Q 3016 1369 3016 2328 
Q 3016 3291 2770 3770 
Q 2525 4250 2034 4250 
z
M 2034 4750 
Q 2819 4750 3233 4129 
Q 3647 3509 3647 2328 
Q 3647 1150 3233 529 
Q 2819 -91 2034 -91 
Q 1250 -91 836 529 
Q 422 1150 422 2328 
Q 422 3509 836 4129 
Q 1250 4750 2034 4750 
z
" transform="scale(0.015625)"/>
       </defs>
       <use xlink:href="#DejaVuSans-30"/>
      </g>
     </g>
    </g>
    <g id="xtick_2">
     <g id="line2d_2">
      <g>
       <use xlink:href="#m02a576965f" x="90.17227" y="188.638125" style="stroke: #000000; stroke-width: 0.8"/>
      </g>
     </g>
     <g id="text_2">
      <!-- 5 -->
      <g transform="translate(86.99102 203.236563) scale(0.1 -0.1)">
       <defs>
        <path id="DejaVuSans-35" d="M 691 4666 
L 3169 4666 
L 3169 4134 
L 1269 4134 
L 1269 2991 
Q 1406 3038 1543 3061 
Q 1681 3084 1819 3084 
Q 2600 3084 3056 2656 
Q 3513 2228 3513 1497 
Q 3513 744 3044 326 
Q 2575 -91 1722 -91 
Q 1428 -91 1123 -41 
Q 819 9 494 109 
L 494 744 
Q 775 591 1075 516 
Q 1375 441 1709 441 
Q 2250 441 2565 725 
Q 2881 1009 2881 1497 
Q 2881 1984 2565 2268 
Q 2250 2553 1709 2553 
Q 1456 2553 1204 2497 
Q 953 2441 691 2322 
L 691 4666 
z
" transform="scale(0.015625)"/>
       </defs>
       <use xlink:href="#DejaVuSans-35"/>
      </g>
     </g>
    </g>
    <g id="xtick_3">
     <g id="line2d_3">
      <g>
       <use xlink:href="#m02a576965f" x="124.586973" y="188.638125" style="stroke: #000000; stroke-width: 0.8"/>
      </g>
     </g>
     <g id="text_3">
      <!-- 10 -->
      <g transform="translate(118.224473 203.236563) scale(0.1 -0.1)">
       <defs>
        <path id="DejaVuSans-31" d="M 794 531 
L 1825 531 
L 1825 4091 
L 703 3866 
L 703 4441 
L 1819 4666 
L 2450 4666 
L 2450 531 
L 3481 531 
L 3481 0 
L 794 0 
L 794 531 
z
" transform="scale(0.015625)"/>
       </defs>
       <use xlink:href="#DejaVuSans-31"/>
       <use xlink:href="#DejaVuSans-30" x="63.623047"/>
      </g>
     </g>
    </g>
    <g id="xtick_4">
     <g id="line2d_4">
      <g>
       <use xlink:href="#m02a576965f" x="159.001677" y="188.638125" style="stroke: #000000; stroke-width: 0.8"/>
      </g>
     </g>
     <g id="text_4">
      <!-- 15 -->
      <g transform="translate(152.639177 203.236563) scale(0.1 -0.1)">
       <use xlink:href="#DejaVuSans-31"/>
       <use xlink:href="#DejaVuSans-35" x="63.623047"/>
      </g>
     </g>
    </g>
    <g id="xtick_5">
     <g id="line2d_5">
      <g>
       <use xlink:href="#m02a576965f" x="193.41638" y="188.638125" style="stroke: #000000; stroke-width: 0.8"/>
      </g>
     </g>
     <g id="text_5">
      <!-- 20 -->
      <g transform="translate(187.05388 203.236563) scale(0.1 -0.1)">
       <defs>
        <path id="DejaVuSans-32" d="M 1228 531 
L 3431 531 
L 3431 0 
L 469 0 
L 469 531 
Q 828 903 1448 1529 
Q 2069 2156 2228 2338 
Q 2531 2678 2651 2914 
Q 2772 3150 2772 3378 
Q 2772 3750 2511 3984 
Q 2250 4219 1831 4219 
Q 1534 4219 1204 4116 
Q 875 4013 500 3803 
L 500 4441 
Q 881 4594 1212 4672 
Q 1544 4750 1819 4750 
Q 2544 4750 2975 4387 
Q 3406 4025 3406 3419 
Q 3406 3131 3298 2873 
Q 3191 2616 2906 2266 
Q 2828 2175 2409 1742 
Q 1991 1309 1228 531 
z
" transform="scale(0.015625)"/>
       </defs>
       <use xlink:href="#DejaVuSans-32"/>
       <use xlink:href="#DejaVuSans-30" x="63.623047"/>
      </g>
     </g>
    </g>
    <g id="xtick_6">
     <g id="line2d_6">
      <g>
       <use xlink:href="#m02a576965f" x="227.831083" y="188.638125" style="stroke: #000000; stroke-width: 0.8"/>
      </g>
     </g>
     <g id="text_6">
      <!-- 25 -->
      <g transform="translate(221.468583 203.236563) scale(0.1 -0.1)">
       <use xlink:href="#DejaVuSans-32"/>
       <use xlink:href="#DejaVuSans-35" x="63.623047"/>
      </g>
     </g>
    </g>
   </g>
   <g id="matplotlib.axis_2">
    <g id="ytick_1">
     <g id="line2d_7">
      <defs>
       <path id="mdd119fde74" d="M 0 0 
L -3.5 0 
" style="stroke: #000000; stroke-width: 0.8"/>
      </defs>
      <g>
       <use xlink:href="#mdd119fde74" x="43.78125" y="188.638125" style="stroke: #000000; stroke-width: 0.8"/>
      </g>
     </g>
     <g id="text_7">
      <!-- 0.0 -->
      <g transform="translate(20.878125 192.437344) scale(0.1 -0.1)">
       <defs>
        <path id="DejaVuSans-2e" d="M 684 794 
L 1344 794 
L 1344 0 
L 684 0 
L 684 794 
z
" transform="scale(0.015625)"/>
       </defs>
       <use xlink:href="#DejaVuSans-30"/>
       <use xlink:href="#DejaVuSans-2e" x="63.623047"/>
       <use xlink:href="#DejaVuSans-30" x="95.410156"/>
      </g>
     </g>
    </g>
    <g id="ytick_2">
     <g id="line2d_8">
      <g>
       <use xlink:href="#mdd119fde74" x="43.78125" y="155.374125" style="stroke: #000000; stroke-width: 0.8"/>
      </g>
     </g>
     <g id="text_8">
      <!-- 0.2 -->
      <g transform="translate(20.878125 159.173344) scale(0.1 -0.1)">
       <use xlink:href="#DejaVuSans-30"/>
       <use xlink:href="#DejaVuSans-2e" x="63.623047"/>
       <use xlink:href="#DejaVuSans-32" x="95.410156"/>
      </g>
     </g>
    </g>
    <g id="ytick_3">
     <g id="line2d_9">
      <g>
       <use xlink:href="#mdd119fde74" x="43.78125" y="122.110125" style="stroke: #000000; stroke-width: 0.8"/>
      </g>
     </g>
     <g id="text_9">
      <!-- 0.4 -->
      <g transform="translate(20.878125 125.909344) scale(0.1 -0.1)">
       <defs>
        <path id="DejaVuSans-34" d="M 2419 4116 
L 825 1625 
L 2419 1625 
L 2419 4116 
z
M 2253 4666 
L 3047 4666 
L 3047 1625 
L 3713 1625 
L 3713 1100 
L 3047 1100 
L 3047 0 
L 2419 0 
L 2419 1100 
L 313 1100 
L 313 1709 
L 2253 4666 
z
" transform="scale(0.015625)"/>
       </defs>
       <use xlink:href="#DejaVuSans-30"/>
       <use xlink:href="#DejaVuSans-2e" x="63.623047"/>
       <use xlink:href="#DejaVuSans-34" x="95.410156"/>
      </g>
     </g>
    </g>
    <g id="ytick_4">
     <g id="line2d_10">
      <g>
       <use xlink:href="#mdd119fde74" x="43.78125" y="88.846125" style="stroke: #000000; stroke-width: 0.8"/>
      </g>
     </g>
     <g id="text_10">
      <!-- 0.6 -->
      <g transform="translate(20.878125 92.645344) scale(0.1 -0.1)">
       <defs>
        <path id="DejaVuSans-36" d="M 2113 2584 
Q 1688 2584 1439 2293 
Q 1191 2003 1191 1497 
Q 1191 994 1439 701 
Q 1688 409 2113 409 
Q 2538 409 2786 701 
Q 3034 994 3034 1497 
Q 3034 2003 2786 2293 
Q 2538 2584 2113 2584 
z
M 3366 4563 
L 3366 3988 
Q 3128 4100 2886 4159 
Q 2644 4219 2406 4219 
Q 1781 4219 1451 3797 
Q 1122 3375 1075 2522 
Q 1259 2794 1537 2939 
Q 1816 3084 2150 3084 
Q 2853 3084 3261 2657 
Q 3669 2231 3669 1497 
Q 3669 778 3244 343 
Q 2819 -91 2113 -91 
Q 1303 -91 875 529 
Q 447 1150 447 2328 
Q 447 3434 972 4092 
Q 1497 4750 2381 4750 
Q 2619 4750 2861 4703 
Q 3103 4656 3366 4563 
z
" transform="scale(0.015625)"/>
       </defs>
       <use xlink:href="#DejaVuSans-30"/>
       <use xlink:href="#DejaVuSans-2e" x="63.623047"/>
       <use xlink:href="#DejaVuSans-36" x="95.410156"/>
      </g>
     </g>
    </g>
    <g id="ytick_5">
     <g id="line2d_11">
      <g>
       <use xlink:href="#mdd119fde74" x="43.78125" y="55.582125" style="stroke: #000000; stroke-width: 0.8"/>
      </g>
     </g>
     <g id="text_11">
      <!-- 0.8 -->
      <g transform="translate(20.878125 59.381344) scale(0.1 -0.1)">
       <defs>
        <path id="DejaVuSans-38" d="M 2034 2216 
Q 1584 2216 1326 1975 
Q 1069 1734 1069 1313 
Q 1069 891 1326 650 
Q 1584 409 2034 409 
Q 2484 409 2743 651 
Q 3003 894 3003 1313 
Q 3003 1734 2745 1975 
Q 2488 2216 2034 2216 
z
M 1403 2484 
Q 997 2584 770 2862 
Q 544 3141 544 3541 
Q 544 4100 942 4425 
Q 1341 4750 2034 4750 
Q 2731 4750 3128 4425 
Q 3525 4100 3525 3541 
Q 3525 3141 3298 2862 
Q 3072 2584 2669 2484 
Q 3125 2378 3379 2068 
Q 3634 1759 3634 1313 
Q 3634 634 3220 271 
Q 2806 -91 2034 -91 
Q 1263 -91 848 271 
Q 434 634 434 1313 
Q 434 1759 690 2068 
Q 947 2378 1403 2484 
z
M 1172 3481 
Q 1172 3119 1398 2916 
Q 1625 2713 2034 2713 
Q 2441 2713 2670 2916 
Q 2900 3119 2900 3481 
Q 2900 3844 2670 4047 
Q 2441 4250 2034 4250 
Q 1625 4250 1398 4047 
Q 1172 3844 1172 3481 
z
" transform="scale(0.015625)"/>
       </defs>
       <use xlink:href="#DejaVuSans-30"/>
       <use xlink:href="#DejaVuSans-2e" x="63.623047"/>
       <use xlink:href="#DejaVuSans-38" x="95.410156"/>
      </g>
     </g>
    </g>
    <g id="ytick_6">
     <g id="line2d_12">
      <g>
       <use xlink:href="#mdd119fde74" x="43.78125" y="22.318125" style="stroke: #000000; stroke-width: 0.8"/>
      </g>
     </g>
     <g id="text_12">
      <!-- 1.0 -->
      <g transform="translate(20.878125 26.117344) scale(0.1 -0.1)">
       <use xlink:href="#DejaVuSans-31"/>
       <use xlink:href="#DejaVuSans-2e" x="63.623047"/>
       <use xlink:href="#DejaVuSans-30" x="95.410156"/>
      </g>
     </g>
    </g>
    <g id="text_13">
     <!-- softmax -->
     <g transform="translate(14.798438 125.66875) rotate(-90) scale(0.1 -0.1)">
      <defs>
       <path id="DejaVuSans-73" d="M 2834 3397 
L 2834 2853 
Q 2591 2978 2328 3040 
Q 2066 3103 1784 3103 
Q 1356 3103 1142 2972 
Q 928 2841 928 2578 
Q 928 2378 1081 2264 
Q 1234 2150 1697 2047 
L 1894 2003 
Q 2506 1872 2764 1633 
Q 3022 1394 3022 966 
Q 3022 478 2636 193 
Q 2250 -91 1575 -91 
Q 1294 -91 989 -36 
Q 684 19 347 128 
L 347 722 
Q 666 556 975 473 
Q 1284 391 1588 391 
Q 1994 391 2212 530 
Q 2431 669 2431 922 
Q 2431 1156 2273 1281 
Q 2116 1406 1581 1522 
L 1381 1569 
Q 847 1681 609 1914 
Q 372 2147 372 2553 
Q 372 3047 722 3315 
Q 1072 3584 1716 3584 
Q 2034 3584 2315 3537 
Q 2597 3491 2834 3397 
z
" transform="scale(0.015625)"/>
       <path id="DejaVuSans-6f" d="M 1959 3097 
Q 1497 3097 1228 2736 
Q 959 2375 959 1747 
Q 959 1119 1226 758 
Q 1494 397 1959 397 
Q 2419 397 2687 759 
Q 2956 1122 2956 1747 
Q 2956 2369 2687 2733 
Q 2419 3097 1959 3097 
z
M 1959 3584 
Q 2709 3584 3137 3096 
Q 3566 2609 3566 1747 
Q 3566 888 3137 398 
Q 2709 -91 1959 -91 
Q 1206 -91 779 398 
Q 353 888 353 1747 
Q 353 2609 779 3096 
Q 1206 3584 1959 3584 
z
" transform="scale(0.015625)"/>
       <path id="DejaVuSans-66" d="M 2375 4863 
L 2375 4384 
L 1825 4384 
Q 1516 4384 1395 4259 
Q 1275 4134 1275 3809 
L 1275 3500 
L 2222 3500 
L 2222 3053 
L 1275 3053 
L 1275 0 
L 697 0 
L 697 3053 
L 147 3053 
L 147 3500 
L 697 3500 
L 697 3744 
Q 697 4328 969 4595 
Q 1241 4863 1831 4863 
L 2375 4863 
z
" transform="scale(0.015625)"/>
       <path id="DejaVuSans-74" d="M 1172 4494 
L 1172 3500 
L 2356 3500 
L 2356 3053 
L 1172 3053 
L 1172 1153 
Q 1172 725 1289 603 
Q 1406 481 1766 481 
L 2356 481 
L 2356 0 
L 1766 0 
Q 1100 0 847 248 
Q 594 497 594 1153 
L 594 3053 
L 172 3053 
L 172 3500 
L 594 3500 
L 594 4494 
L 1172 4494 
z
" transform="scale(0.015625)"/>
       <path id="DejaVuSans-6d" d="M 3328 2828 
Q 3544 3216 3844 3400 
Q 4144 3584 4550 3584 
Q 5097 3584 5394 3201 
Q 5691 2819 5691 2113 
L 5691 0 
L 5113 0 
L 5113 2094 
Q 5113 2597 4934 2840 
Q 4756 3084 4391 3084 
Q 3944 3084 3684 2787 
Q 3425 2491 3425 1978 
L 3425 0 
L 2847 0 
L 2847 2094 
Q 2847 2600 2669 2842 
Q 2491 3084 2119 3084 
Q 1678 3084 1418 2786 
Q 1159 2488 1159 1978 
L 1159 0 
L 581 0 
L 581 3500 
L 1159 3500 
L 1159 2956 
Q 1356 3278 1631 3431 
Q 1906 3584 2284 3584 
Q 2666 3584 2933 3390 
Q 3200 3197 3328 2828 
z
" transform="scale(0.015625)"/>
       <path id="DejaVuSans-61" d="M 2194 1759 
Q 1497 1759 1228 1600 
Q 959 1441 959 1056 
Q 959 750 1161 570 
Q 1363 391 1709 391 
Q 2188 391 2477 730 
Q 2766 1069 2766 1631 
L 2766 1759 
L 2194 1759 
z
M 3341 1997 
L 3341 0 
L 2766 0 
L 2766 531 
Q 2569 213 2275 61 
Q 1981 -91 1556 -91 
Q 1019 -91 701 211 
Q 384 513 384 1019 
Q 384 1609 779 1909 
Q 1175 2209 1959 2209 
L 2766 2209 
L 2766 2266 
Q 2766 2663 2505 2880 
Q 2244 3097 1772 3097 
Q 1472 3097 1187 3025 
Q 903 2953 641 2809 
L 641 3341 
Q 956 3463 1253 3523 
Q 1550 3584 1831 3584 
Q 2591 3584 2966 3190 
Q 3341 2797 3341 1997 
z
" transform="scale(0.015625)"/>
       <path id="DejaVuSans-78" d="M 3513 3500 
L 2247 1797 
L 3578 0 
L 2900 0 
L 1881 1375 
L 863 0 
L 184 0 
L 1544 1831 
L 300 3500 
L 978 3500 
L 1906 2253 
L 2834 3500 
L 3513 3500 
z
" transform="scale(0.015625)"/>
      </defs>
      <use xlink:href="#DejaVuSans-73"/>
      <use xlink:href="#DejaVuSans-6f" x="52.099609"/>
      <use xlink:href="#DejaVuSans-66" x="113.28125"/>
      <use xlink:href="#DejaVuSans-74" x="146.736328"/>
      <use xlink:href="#DejaVuSans-6d" x="185.945312"/>
      <use xlink:href="#DejaVuSans-61" x="283.357422"/>
      <use xlink:href="#DejaVuSans-78" x="344.636719"/>
     </g>
    </g>
   </g>
   <g id="patch_30">
    <path d="M 43.78125 188.638125 
L 43.78125 22.318125 
" style="fill: none; stroke: #000000; stroke-width: 0.8; stroke-linejoin: miter; stroke-linecap: square"/>
   </g>
   <g id="patch_31">
    <path d="M 246.690341 188.638125 
L 246.690341 22.318125 
" style="fill: none; stroke: #000000; stroke-width: 0.8; stroke-linejoin: miter; stroke-linecap: square"/>
   </g>
   <g id="patch_32">
    <path d="M 43.78125 188.638125 
L 246.690341 188.638125 
" style="fill: none; stroke: #000000; stroke-width: 0.8; stroke-linejoin: miter; stroke-linecap: square"/>
   </g>
   <g id="patch_33">
    <path d="M 43.78125 22.318125 
L 246.690341 22.318125 
" style="fill: none; stroke: #000000; stroke-width: 0.8; stroke-linejoin: miter; stroke-linecap: square"/>
   </g>
   <g id="text_14">
    <!-- σ = 0.01 -->
    <g transform="translate(119.232358 16.318125) scale(0.12 -0.12)">
     <defs>
      <path id="DejaVuSans-3c3" d="M 1959 3044 
Q 1484 3044 1228 2700 
Q 959 2341 959 1747 
Q 959 1119 1226 758 
Q 1494 397 1959 397 
Q 2419 397 2687 759 
Q 2956 1122 2956 1747 
Q 2956 2319 2688 2700 
Q 2441 3044 1959 3044 
z
M 1959 3500 
L 3869 3500 
L 3869 2925 
L 3225 2925 
Q 3566 2438 3566 1747 
Q 3566 888 3138 400 
Q 2709 -91 1959 -91 
Q 1206 -91 781 400 
Q 353 888 353 1747 
Q 353 2613 781 3097 
Q 1134 3500 1959 3500 
z
" transform="scale(0.015625)"/>
      <path id="DejaVuSans-20" transform="scale(0.015625)"/>
      <path id="DejaVuSans-3d" d="M 678 2906 
L 4684 2906 
L 4684 2381 
L 678 2381 
L 678 2906 
z
M 678 1631 
L 4684 1631 
L 4684 1100 
L 678 1100 
L 678 1631 
z
" transform="scale(0.015625)"/>
     </defs>
     <use xlink:href="#DejaVuSans-3c3"/>
     <use xlink:href="#DejaVuSans-20" x="63.378906"/>
     <use xlink:href="#DejaVuSans-3d" x="95.166016"/>
     <use xlink:href="#DejaVuSans-20" x="178.955078"/>
     <use xlink:href="#DejaVuSans-30" x="210.742188"/>
     <use xlink:href="#DejaVuSans-2e" x="274.365234"/>
     <use xlink:href="#DejaVuSans-30" x="306.152344"/>
     <use xlink:href="#DejaVuSans-31" x="369.775391"/>
    </g>
   </g>
  </g>
  <g id="axes_2">
   <g id="patch_34">
    <path d="M 287.272159 188.638125 
L 490.18125 188.638125 
L 490.18125 22.318125 
L 287.272159 22.318125 
z
" style="fill: #ffffff"/>
   </g>
   <g id="patch_35">
    <path d="M 296.4953 188.638125 
L 302.001652 188.638125 
L 302.001652 188.638125 
L 296.4953 188.638125 
z
" clip-path="url(#p0cd6371fe7)" style="fill: #1f77b4"/>
   </g>
   <g id="patch_36">
    <path d="M 303.37824 188.638125 
L 308.884593 188.638125 
L 308.884593 188.638125 
L 303.37824 188.638125 
z
" clip-path="url(#p0cd6371fe7)" style="fill: #1f77b4"/>
   </g>
   <g id="patch_37">
    <path d="M 310.261181 188.638125 
L 315.767533 188.638125 
L 315.767533 188.638117 
L 310.261181 188.638117 
z
" clip-path="url(#p0cd6371fe7)" style="fill: #1f77b4"/>
   </g>
   <g id="patch_38">
    <path d="M 317.144122 188.638125 
L 322.650474 188.638125 
L 322.650474 23.232601 
L 317.144122 23.232601 
z
" clip-path="url(#p0cd6371fe7)" style="fill: #1f77b4"/>
   </g>
   <g id="patch_39">
    <path d="M 324.027062 188.638125 
L 329.533415 188.638125 
L 329.533415 188.638125 
L 324.027062 188.638125 
z
" clip-path="url(#p0cd6371fe7)" style="fill: #1f77b4"/>
   </g>
   <g id="patch_40">
    <path d="M 330.910003 188.638125 
L 336.416355 188.638125 
L 336.416355 188.638125 
L 330.910003 188.638125 
z
" clip-path="url(#p0cd6371fe7)" style="fill: #1f77b4"/>
   </g>
   <g id="patch_41">
    <path d="M 337.792944 188.638125 
L 343.299296 188.638125 
L 343.299296 188.638125 
L 337.792944 188.638125 
z
" clip-path="url(#p0cd6371fe7)" style="fill: #1f77b4"/>
   </g>
   <g id="patch_42">
    <path d="M 344.675884 188.638125 
L 350.182237 188.638125 
L 350.182237 188.638125 
L 344.675884 188.638125 
z
" clip-path="url(#p0cd6371fe7)" style="fill: #1f77b4"/>
   </g>
   <g id="patch_43">
    <path d="M 351.558825 188.638125 
L 357.065177 188.638125 
L 357.065177 188.638125 
L 351.558825 188.638125 
z
" clip-path="url(#p0cd6371fe7)" style="fill: #1f77b4"/>
   </g>
   <g id="patch_44">
    <path d="M 358.441766 188.638125 
L 363.948118 188.638125 
L 363.948118 188.638125 
L 358.441766 188.638125 
z
" clip-path="url(#p0cd6371fe7)" style="fill: #1f77b4"/>
   </g>
   <g id="patch_45">
    <path d="M 365.324706 188.638125 
L 370.831059 188.638125 
L 370.831059 188.638125 
L 365.324706 188.638125 
z
" clip-path="url(#p0cd6371fe7)" style="fill: #1f77b4"/>
   </g>
   <g id="patch_46">
    <path d="M 372.207647 188.638125 
L 377.713999 188.638125 
L 377.713999 188.638125 
L 372.207647 188.638125 
z
" clip-path="url(#p0cd6371fe7)" style="fill: #1f77b4"/>
   </g>
   <g id="patch_47">
    <path d="M 379.090588 188.638125 
L 384.59694 188.638125 
L 384.59694 188.638125 
L 379.090588 188.638125 
z
" clip-path="url(#p0cd6371fe7)" style="fill: #1f77b4"/>
   </g>
   <g id="patch_48">
    <path d="M 385.973528 188.638125 
L 391.479881 188.638125 
L 391.479881 187.72364 
L 385.973528 187.72364 
z
" clip-path="url(#p0cd6371fe7)" style="fill: #1f77b4"/>
   </g>
   <g id="patch_49">
    <path d="M 392.856469 188.638125 
L 398.362821 188.638125 
L 398.362821 188.638125 
L 392.856469 188.638125 
z
" clip-path="url(#p0cd6371fe7)" style="fill: #1f77b4"/>
   </g>
   <g id="patch_50">
    <path d="M 399.73941 188.638125 
L 405.245762 188.638125 
L 405.245762 188.638124 
L 399.73941 188.638124 
z
" clip-path="url(#p0cd6371fe7)" style="fill: #1f77b4"/>
   </g>
   <g id="patch_51">
    <path d="M 406.62235 188.638125 
L 412.128703 188.638125 
L 412.128703 188.638125 
L 406.62235 188.638125 
z
" clip-path="url(#p0cd6371fe7)" style="fill: #1f77b4"/>
   </g>
   <g id="patch_52">
    <path d="M 413.505291 188.638125 
L 419.011643 188.638125 
L 419.011643 188.638125 
L 413.505291 188.638125 
z
" clip-path="url(#p0cd6371fe7)" style="fill: #1f77b4"/>
   </g>
   <g id="patch_53">
    <path d="M 420.388232 188.638125 
L 425.894584 188.638125 
L 425.894584 188.638125 
L 420.388232 188.638125 
z
" clip-path="url(#p0cd6371fe7)" style="fill: #1f77b4"/>
   </g>
   <g id="patch_54">
    <path d="M 427.271172 188.638125 
L 432.777525 188.638125 
L 432.777525 188.638125 
L 427.271172 188.638125 
z
" clip-path="url(#p0cd6371fe7)" style="fill: #1f77b4"/>
   </g>
   <g id="patch_55">
    <path d="M 434.154113 188.638125 
L 439.660465 188.638125 
L 439.660465 188.638125 
L 434.154113 188.638125 
z
" clip-path="url(#p0cd6371fe7)" style="fill: #1f77b4"/>
   </g>
   <g id="patch_56">
    <path d="M 441.037054 188.638125 
L 446.543406 188.638125 
L 446.543406 188.638125 
L 441.037054 188.638125 
z
" clip-path="url(#p0cd6371fe7)" style="fill: #1f77b4"/>
   </g>
   <g id="patch_57">
    <path d="M 447.919994 188.638125 
L 453.426347 188.638125 
L 453.426347 188.638125 
L 447.919994 188.638125 
z
" clip-path="url(#p0cd6371fe7)" style="fill: #1f77b4"/>
   </g>
   <g id="patch_58">
    <path d="M 454.802935 188.638125 
L 460.309287 188.638125 
L 460.309287 188.638125 
L 454.802935 188.638125 
z
" clip-path="url(#p0cd6371fe7)" style="fill: #1f77b4"/>
   </g>
   <g id="patch_59">
    <path d="M 461.685876 188.638125 
L 467.192228 188.638125 
L 467.192228 188.638125 
L 461.685876 188.638125 
z
" clip-path="url(#p0cd6371fe7)" style="fill: #1f77b4"/>
   </g>
   <g id="patch_60">
    <path d="M 468.568816 188.638125 
L 474.075169 188.638125 
L 474.075169 188.638125 
L 468.568816 188.638125 
z
" clip-path="url(#p0cd6371fe7)" style="fill: #1f77b4"/>
   </g>
   <g id="patch_61">
    <path d="M 475.451757 188.638125 
L 480.95811 188.638125 
L 480.95811 188.638125 
L 475.451757 188.638125 
z
" clip-path="url(#p0cd6371fe7)" style="fill: #1f77b4"/>
   </g>
   <g id="matplotlib.axis_3">
    <g id="xtick_7">
     <g id="line2d_13">
      <g>
       <use xlink:href="#m02a576965f" x="299.248476" y="188.638125" style="stroke: #000000; stroke-width: 0.8"/>
      </g>
     </g>
     <g id="text_15">
      <!-- 0 -->
      <g transform="translate(296.067226 203.236563) scale(0.1 -0.1)">
       <use xlink:href="#DejaVuSans-30"/>
      </g>
     </g>
    </g>
    <g id="xtick_8">
     <g id="line2d_14">
      <g>
       <use xlink:href="#m02a576965f" x="333.663179" y="188.638125" style="stroke: #000000; stroke-width: 0.8"/>
      </g>
     </g>
     <g id="text_16">
      <!-- 5 -->
      <g transform="translate(330.481929 203.236563) scale(0.1 -0.1)">
       <use xlink:href="#DejaVuSans-35"/>
      </g>
     </g>
    </g>
    <g id="xtick_9">
     <g id="line2d_15">
      <g>
       <use xlink:href="#m02a576965f" x="368.077883" y="188.638125" style="stroke: #000000; stroke-width: 0.8"/>
      </g>
     </g>
     <g id="text_17">
      <!-- 10 -->
      <g transform="translate(361.715383 203.236563) scale(0.1 -0.1)">
       <use xlink:href="#DejaVuSans-31"/>
       <use xlink:href="#DejaVuSans-30" x="63.623047"/>
      </g>
     </g>
    </g>
    <g id="xtick_10">
     <g id="line2d_16">
      <g>
       <use xlink:href="#m02a576965f" x="402.492586" y="188.638125" style="stroke: #000000; stroke-width: 0.8"/>
      </g>
     </g>
     <g id="text_18">
      <!-- 15 -->
      <g transform="translate(396.130086 203.236563) scale(0.1 -0.1)">
       <use xlink:href="#DejaVuSans-31"/>
       <use xlink:href="#DejaVuSans-35" x="63.623047"/>
      </g>
     </g>
    </g>
    <g id="xtick_11">
     <g id="line2d_17">
      <g>
       <use xlink:href="#m02a576965f" x="436.907289" y="188.638125" style="stroke: #000000; stroke-width: 0.8"/>
      </g>
     </g>
     <g id="text_19">
      <!-- 20 -->
      <g transform="translate(430.544789 203.236563) scale(0.1 -0.1)">
       <use xlink:href="#DejaVuSans-32"/>
       <use xlink:href="#DejaVuSans-30" x="63.623047"/>
      </g>
     </g>
    </g>
    <g id="xtick_12">
     <g id="line2d_18">
      <g>
       <use xlink:href="#m02a576965f" x="471.321993" y="188.638125" style="stroke: #000000; stroke-width: 0.8"/>
      </g>
     </g>
     <g id="text_20">
      <!-- 25 -->
      <g transform="translate(464.959493 203.236563) scale(0.1 -0.1)">
       <use xlink:href="#DejaVuSans-32"/>
       <use xlink:href="#DejaVuSans-35" x="63.623047"/>
      </g>
     </g>
    </g>
   </g>
   <g id="matplotlib.axis_4">
    <g id="ytick_7">
     <g id="line2d_19">
      <g>
       <use xlink:href="#mdd119fde74" x="287.272159" y="188.638125" style="stroke: #000000; stroke-width: 0.8"/>
      </g>
     </g>
     <g id="text_21">
      <!-- 0.0 -->
      <g transform="translate(264.369034 192.437344) scale(0.1 -0.1)">
       <use xlink:href="#DejaVuSans-30"/>
       <use xlink:href="#DejaVuSans-2e" x="63.623047"/>
       <use xlink:href="#DejaVuSans-30" x="95.410156"/>
      </g>
     </g>
    </g>
    <g id="ytick_8">
     <g id="line2d_20">
      <g>
       <use xlink:href="#mdd119fde74" x="287.272159" y="155.374125" style="stroke: #000000; stroke-width: 0.8"/>
      </g>
     </g>
     <g id="text_22">
      <!-- 0.2 -->
      <g transform="translate(264.369034 159.173344) scale(0.1 -0.1)">
       <use xlink:href="#DejaVuSans-30"/>
       <use xlink:href="#DejaVuSans-2e" x="63.623047"/>
       <use xlink:href="#DejaVuSans-32" x="95.410156"/>
      </g>
     </g>
    </g>
    <g id="ytick_9">
     <g id="line2d_21">
      <g>
       <use xlink:href="#mdd119fde74" x="287.272159" y="122.110125" style="stroke: #000000; stroke-width: 0.8"/>
      </g>
     </g>
     <g id="text_23">
      <!-- 0.4 -->
      <g transform="translate(264.369034 125.909344) scale(0.1 -0.1)">
       <use xlink:href="#DejaVuSans-30"/>
       <use xlink:href="#DejaVuSans-2e" x="63.623047"/>
       <use xlink:href="#DejaVuSans-34" x="95.410156"/>
      </g>
     </g>
    </g>
    <g id="ytick_10">
     <g id="line2d_22">
      <g>
       <use xlink:href="#mdd119fde74" x="287.272159" y="88.846125" style="stroke: #000000; stroke-width: 0.8"/>
      </g>
     </g>
     <g id="text_24">
      <!-- 0.6 -->
      <g transform="translate(264.369034 92.645344) scale(0.1 -0.1)">
       <use xlink:href="#DejaVuSans-30"/>
       <use xlink:href="#DejaVuSans-2e" x="63.623047"/>
       <use xlink:href="#DejaVuSans-36" x="95.410156"/>
      </g>
     </g>
    </g>
    <g id="ytick_11">
     <g id="line2d_23">
      <g>
       <use xlink:href="#mdd119fde74" x="287.272159" y="55.582125" style="stroke: #000000; stroke-width: 0.8"/>
      </g>
     </g>
     <g id="text_25">
      <!-- 0.8 -->
      <g transform="translate(264.369034 59.381344) scale(0.1 -0.1)">
       <use xlink:href="#DejaVuSans-30"/>
       <use xlink:href="#DejaVuSans-2e" x="63.623047"/>
       <use xlink:href="#DejaVuSans-38" x="95.410156"/>
      </g>
     </g>
    </g>
    <g id="ytick_12">
     <g id="line2d_24">
      <g>
       <use xlink:href="#mdd119fde74" x="287.272159" y="22.318125" style="stroke: #000000; stroke-width: 0.8"/>
      </g>
     </g>
     <g id="text_26">
      <!-- 1.0 -->
      <g transform="translate(264.369034 26.117344) scale(0.1 -0.1)">
       <use xlink:href="#DejaVuSans-31"/>
       <use xlink:href="#DejaVuSans-2e" x="63.623047"/>
       <use xlink:href="#DejaVuSans-30" x="95.410156"/>
      </g>
     </g>
    </g>
    <g id="text_27">
     <!-- softmax -->
     <g transform="translate(258.289347 125.66875) rotate(-90) scale(0.1 -0.1)">
      <use xlink:href="#DejaVuSans-73"/>
      <use xlink:href="#DejaVuSans-6f" x="52.099609"/>
      <use xlink:href="#DejaVuSans-66" x="113.28125"/>
      <use xlink:href="#DejaVuSans-74" x="146.736328"/>
      <use xlink:href="#DejaVuSans-6d" x="185.945312"/>
      <use xlink:href="#DejaVuSans-61" x="283.357422"/>
      <use xlink:href="#DejaVuSans-78" x="344.636719"/>
     </g>
    </g>
   </g>
   <g id="patch_62">
    <path d="M 287.272159 188.638125 
L 287.272159 22.318125 
" style="fill: none; stroke: #000000; stroke-width: 0.8; stroke-linejoin: miter; stroke-linecap: square"/>
   </g>
   <g id="patch_63">
    <path d="M 490.18125 188.638125 
L 490.18125 22.318125 
" style="fill: none; stroke: #000000; stroke-width: 0.8; stroke-linejoin: miter; stroke-linecap: square"/>
   </g>
   <g id="patch_64">
    <path d="M 287.272159 188.638125 
L 490.18125 188.638125 
" style="fill: none; stroke: #000000; stroke-width: 0.8; stroke-linejoin: miter; stroke-linecap: square"/>
   </g>
   <g id="patch_65">
    <path d="M 287.272159 22.318125 
L 490.18125 22.318125 
" style="fill: none; stroke: #000000; stroke-width: 0.8; stroke-linejoin: miter; stroke-linecap: square"/>
   </g>
   <g id="text_28">
    <!-- σ = 1.0 -->
    <g transform="translate(366.540767 16.318125) scale(0.12 -0.12)">
     <use xlink:href="#DejaVuSans-3c3"/>
     <use xlink:href="#DejaVuSans-20" x="63.378906"/>
     <use xlink:href="#DejaVuSans-3d" x="95.166016"/>
     <use xlink:href="#DejaVuSans-20" x="178.955078"/>
     <use xlink:href="#DejaVuSans-31" x="210.742188"/>
     <use xlink:href="#DejaVuSans-2e" x="274.365234"/>
     <use xlink:href="#DejaVuSans-30" x="306.152344"/>
    </g>
   </g>
  </g>
 </g>
 <defs>
  <clipPath id="p4a68346e1f">
   <rect x="43.78125" y="22.318125" width="202.909091" height="166.32"/>
  </clipPath>
  <clipPath id="p0cd6371fe7">
   <rect x="287.272159" y="22.318125" width="202.909091" height="166.32"/>
  </clipPath>
 </defs>
</svg>