<?xml version="1.0" encoding="utf-8" standalone="no"?>
<!DOCTYPE svg PUBLIC "-//W3C//DTD SVG 1.1//EN"
  "http://www.w3.org/Graphics/SVG/1.1/DTD/svg11.dtd">
<svg xmlns:xlink="http://www.w3.org/1999/xlink" width="492.082812pt" height="197.398125pt" viewBox="0 0 492.082812 197.398125" xmlns="http://www.w3.org/2000/svg" version="1.1">
 <metadata>
  <rdf:RDF xmlns:dc="http://purl.org/dc/elements/1.1/" xmlns:cc="http://creativecommons.org/ns#" xmlns:rdf="http://www.w3.org/1999/02/22-rdf-syntax-ns#">
   <cc:Work>
    <dc:type rdf:resource="http://purl.org/dc/dcmitype/StillImage"/>
    <dc:date>2025-01-13T22:20:59.438245</dc:date>
    <dc:format>image/svg+xml</dc:format>
    <dc:creator>
     <cc:Agent>
      <dc:title>Matplotlib v3.9.2, https://matplotlib.org/</dc:title>
     </cc:Agent>
    </dc:creator>
   </cc:Work>
  </rdf:RDF>
 </metadata>
 <defs>
  <style type="text/css">*{stroke-linejoin: round; stroke-linecap: butt}</style>
 </defs>
 <g id="figure_1">
  <g id="patch_1">
   <path d="M 0 197.398125 
L 492.082812 197.398125 
L 492.082812 0 
L 0 0 
z
" style="fill: #ffffff"/>
  </g>
  <g id="axes_1">
   <g id="patch_2">
    <path d="M 38.482813 173.52 
L 484.882812 173.52 
L 484.882812 7.2 
L 38.482813 7.2 
z
" style="fill: #ffffff"/>
   </g>
   <g id="matplotlib.axis_1">
    <g id="xtick_1">
     <g id="line2d_1">
      <defs>
       <path id="m23e4972bff" d="M 0 0 
L 0 3.5 
" style="stroke: #000000; stroke-width: 0.8"/>
      </defs>
      <g>
       <use xlink:href="#m23e4972bff" x="58.773722" y="173.52" style="stroke: #000000; stroke-width: 0.8"/>
      </g>
     </g>
     <g id="text_1">
      <!-- 0 -->
      <g transform="translate(55.592472 188.118438) scale(0.1 -0.1)">
       <defs>
        <path id="DejaVuSans-30" d="M 2034 4250 
Q 1547 4250 1301 3770 
Q 1056 3291 1056 2328 
Q 1056 1369 1301 889 
Q 1547 409 2034 409 
Q 2525 409 2770 889 
Q 3016 1369 3016 2328 
Q 3016 3291 2770 3770 
Q 2525 4250 2034 4250 
z
M 2034 4750 
Q 2819 4750 3233 4129 
Q 3647 3509 3647 2328 
Q 3647 1150 3233 529 
Q 2819 -91 2034 -91 
Q 1250 -91 836 529 
Q 422 1150 422 2328 
Q 422 3509 836 4129 
Q 1250 4750 2034 4750 
z
" transform="scale(0.015625)"/>
       </defs>
       <use xlink:href="#DejaVuSans-30"/>
      </g>
     </g>
    </g>
    <g id="xtick_2">
     <g id="line2d_2">
      <g>
       <use xlink:href="#m23e4972bff" x="140.345215" y="173.52" style="stroke: #000000; stroke-width: 0.8"/>
      </g>
     </g>
     <g id="text_2">
      <!-- 200 -->
      <g transform="translate(130.801465 188.118438) scale(0.1 -0.1)">
       <defs>
        <path id="DejaVuSans-32" d="M 1228 531 
L 3431 531 
L 3431 0 
L 469 0 
L 469 531 
Q 828 903 1448 1529 
Q 2069 2156 2228 2338 
Q 2531 2678 2651 2914 
Q 2772 3150 2772 3378 
Q 2772 3750 2511 3984 
Q 2250 4219 1831 4219 
Q 1534 4219 1204 4116 
Q 875 4013 500 3803 
L 500 4441 
Q 881 4594 1212 4672 
Q 1544 4750 1819 4750 
Q 2544 4750 2975 4387 
Q 3406 4025 3406 3419 
Q 3406 3131 3298 2873 
Q 3191 2616 2906 2266 
Q 2828 2175 2409 1742 
Q 1991 1309 1228 531 
z
" transform="scale(0.015625)"/>
       </defs>
       <use xlink:href="#DejaVuSans-32"/>
       <use xlink:href="#DejaVuSans-30" x="63.623047"/>
       <use xlink:href="#DejaVuSans-30" x="127.246094"/>
      </g>
     </g>
    </g>
    <g id="xtick_3">
     <g id="line2d_3">
      <g>
       <use xlink:href="#m23e4972bff" x="221.916709" y="173.52" style="stroke: #000000; stroke-width: 0.8"/>
      </g>
     </g>
     <g id="text_3">
      <!-- 400 -->
      <g transform="translate(212.372959 188.118438) scale(0.1 -0.1)">
       <defs>
        <path id="DejaVuSans-34" d="M 2419 4116 
L 825 1625 
L 2419 1625 
L 2419 4116 
z
M 2253 4666 
L 3047 4666 
L 3047 1625 
L 3713 1625 
L 3713 1100 
L 3047 1100 
L 3047 0 
L 2419 0 
L 2419 1100 
L 313 1100 
L 313 1709 
L 2253 4666 
z
" transform="scale(0.015625)"/>
       </defs>
       <use xlink:href="#DejaVuSans-34"/>
       <use xlink:href="#DejaVuSans-30" x="63.623047"/>
       <use xlink:href="#DejaVuSans-30" x="127.246094"/>
      </g>
     </g>
    </g>
    <g id="xtick_4">
     <g id="line2d_4">
      <g>
       <use xlink:href="#m23e4972bff" x="303.488203" y="173.52" style="stroke: #000000; stroke-width: 0.8"/>
      </g>
     </g>
     <g id="text_4">
      <!-- 600 -->
      <g transform="translate(293.944453 188.118438) scale(0.1 -0.1)">
       <defs>
        <path id="DejaVuSans-36" d="M 2113 2584 
Q 1688 2584 1439 2293 
Q 1191 2003 1191 1497 
Q 1191 994 1439 701 
Q 1688 409 2113 409 
Q 2538 409 2786 701 
Q 3034 994 3034 1497 
Q 3034 2003 2786 2293 
Q 2538 2584 2113 2584 
z
M 3366 4563 
L 3366 3988 
Q 3128 4100 2886 4159 
Q 2644 4219 2406 4219 
Q 1781 4219 1451 3797 
Q 1122 3375 1075 2522 
Q 1259 2794 1537 2939 
Q 1816 3084 2150 3084 
Q 2853 3084 3261 2657 
Q 3669 2231 3669 1497 
Q 3669 778 3244 343 
Q 2819 -91 2113 -91 
Q 1303 -91 875 529 
Q 447 1150 447 2328 
Q 447 3434 972 4092 
Q 1497 4750 2381 4750 
Q 2619 4750 2861 4703 
Q 3103 4656 3366 4563 
z
" transform="scale(0.015625)"/>
       </defs>
       <use xlink:href="#DejaVuSans-36"/>
       <use xlink:href="#DejaVuSans-30" x="63.623047"/>
       <use xlink:href="#DejaVuSans-30" x="127.246094"/>
      </g>
     </g>
    </g>
    <g id="xtick_5">
     <g id="line2d_5">
      <g>
       <use xlink:href="#m23e4972bff" x="385.059697" y="173.52" style="stroke: #000000; stroke-width: 0.8"/>
      </g>
     </g>
     <g id="text_5">
      <!-- 800 -->
      <g transform="translate(375.515947 188.118438) scale(0.1 -0.1)">
       <defs>
        <path id="DejaVuSans-38" d="M 2034 2216 
Q 1584 2216 1326 1975 
Q 1069 1734 1069 1313 
Q 1069 891 1326 650 
Q 1584 409 2034 409 
Q 2484 409 2743 651 
Q 3003 894 3003 1313 
Q 3003 1734 2745 1975 
Q 2488 2216 2034 2216 
z
M 1403 2484 
Q 997 2584 770 2862 
Q 544 3141 544 3541 
Q 544 4100 942 4425 
Q 1341 4750 2034 4750 
Q 2731 4750 3128 4425 
Q 3525 4100 3525 3541 
Q 3525 3141 3298 2862 
Q 3072 2584 2669 2484 
Q 3125 2378 3379 2068 
Q 3634 1759 3634 1313 
Q 3634 634 3220 271 
Q 2806 -91 2034 -91 
Q 1263 -91 848 271 
Q 434 634 434 1313 
Q 434 1759 690 2068 
Q 947 2378 1403 2484 
z
M 1172 3481 
Q 1172 3119 1398 2916 
Q 1625 2713 2034 2713 
Q 2441 2713 2670 2916 
Q 2900 3119 2900 3481 
Q 2900 3844 2670 4047 
Q 2441 4250 2034 4250 
Q 1625 4250 1398 4047 
Q 1172 3844 1172 3481 
z
" transform="scale(0.015625)"/>
       </defs>
       <use xlink:href="#DejaVuSans-38"/>
       <use xlink:href="#DejaVuSans-30" x="63.623047"/>
       <use xlink:href="#DejaVuSans-30" x="127.246094"/>
      </g>
     </g>
    </g>
    <g id="xtick_6">
     <g id="line2d_6">
      <g>
       <use xlink:href="#m23e4972bff" x="466.631191" y="173.52" style="stroke: #000000; stroke-width: 0.8"/>
      </g>
     </g>
     <g id="text_6">
      <!-- 1000 -->
      <g transform="translate(453.906191 188.118438) scale(0.1 -0.1)">
       <defs>
        <path id="DejaVuSans-31" d="M 794 531 
L 1825 531 
L 1825 4091 
L 703 3866 
L 703 4441 
L 1819 4666 
L 2450 4666 
L 2450 531 
L 3481 531 
L 3481 0 
L 794 0 
L 794 531 
z
" transform="scale(0.015625)"/>
       </defs>
       <use xlink:href="#DejaVuSans-31"/>
       <use xlink:href="#DejaVuSans-30" x="63.623047"/>
       <use xlink:href="#DejaVuSans-30" x="127.246094"/>
       <use xlink:href="#DejaVuSans-30" x="190.869141"/>
      </g>
     </g>
    </g>
   </g>
   <g id="matplotlib.axis_2">
    <g id="ytick_1">
     <g id="line2d_7">
      <defs>
       <path id="me54ab73803" d="M 0 0 
L -3.5 0 
" style="stroke: #000000; stroke-width: 0.8"/>
      </defs>
      <g>
       <use xlink:href="#me54ab73803" x="38.482813" y="168.307167" style="stroke: #000000; stroke-width: 0.8"/>
      </g>
     </g>
     <g id="text_7">
      <!-- −1.5 -->
      <g transform="translate(7.2 172.106386) scale(0.1 -0.1)">
       <defs>
        <path id="DejaVuSans-2212" d="M 678 2272 
L 4684 2272 
L 4684 1741 
L 678 1741 
L 678 2272 
z
" transform="scale(0.015625)"/>
        <path id="DejaVuSans-2e" d="M 684 794 
L 1344 794 
L 1344 0 
L 684 0 
L 684 794 
z
" transform="scale(0.015625)"/>
        <path id="DejaVuSans-35" d="M 691 4666 
L 3169 4666 
L 3169 4134 
L 1269 4134 
L 1269 2991 
Q 1406 3038 1543 3061 
Q 1681 3084 1819 3084 
Q 2600 3084 3056 2656 
Q 3513 2228 3513 1497 
Q 3513 744 3044 326 
Q 2575 -91 1722 -91 
Q 1428 -91 1123 -41 
Q 819 9 494 109 
L 494 744 
Q 775 591 1075 516 
Q 1375 441 1709 441 
Q 2250 441 2565 725 
Q 2881 1009 2881 1497 
Q 2881 1984 2565 2268 
Q 2250 2553 1709 2553 
Q 1456 2553 1204 2497 
Q 953 2441 691 2322 
L 691 4666 
z
" transform="scale(0.015625)"/>
       </defs>
       <use xlink:href="#DejaVuSans-2212"/>
       <use xlink:href="#DejaVuSans-31" x="83.789062"/>
       <use xlink:href="#DejaVuSans-2e" x="147.412109"/>
       <use xlink:href="#DejaVuSans-35" x="179.199219"/>
      </g>
     </g>
    </g>
    <g id="ytick_2">
     <g id="line2d_8">
      <g>
       <use xlink:href="#me54ab73803" x="38.482813" y="143.04269" style="stroke: #000000; stroke-width: 0.8"/>
      </g>
     </g>
     <g id="text_8">
      <!-- −1.0 -->
      <g transform="translate(7.2 146.841909) scale(0.1 -0.1)">
       <use xlink:href="#DejaVuSans-2212"/>
       <use xlink:href="#DejaVuSans-31" x="83.789062"/>
       <use xlink:href="#DejaVuSans-2e" x="147.412109"/>
       <use xlink:href="#DejaVuSans-30" x="179.199219"/>
      </g>
     </g>
    </g>
    <g id="ytick_3">
     <g id="line2d_9">
      <g>
       <use xlink:href="#me54ab73803" x="38.482813" y="117.778214" style="stroke: #000000; stroke-width: 0.8"/>
      </g>
     </g>
     <g id="text_9">
      <!-- −0.5 -->
      <g transform="translate(7.2 121.577432) scale(0.1 -0.1)">
       <use xlink:href="#DejaVuSans-2212"/>
       <use xlink:href="#DejaVuSans-30" x="83.789062"/>
       <use xlink:href="#DejaVuSans-2e" x="147.412109"/>
       <use xlink:href="#DejaVuSans-35" x="179.199219"/>
      </g>
     </g>
    </g>
    <g id="ytick_4">
     <g id="line2d_10">
      <g>
       <use xlink:href="#me54ab73803" x="38.482813" y="92.513737" style="stroke: #000000; stroke-width: 0.8"/>
      </g>
     </g>
     <g id="text_10">
      <!-- 0.0 -->
      <g transform="translate(15.579688 96.312956) scale(0.1 -0.1)">
       <use xlink:href="#DejaVuSans-30"/>
       <use xlink:href="#DejaVuSans-2e" x="63.623047"/>
       <use xlink:href="#DejaVuSans-30" x="95.410156"/>
      </g>
     </g>
    </g>
    <g id="ytick_5">
     <g id="line2d_11">
      <g>
       <use xlink:href="#me54ab73803" x="38.482813" y="67.24926" style="stroke: #000000; stroke-width: 0.8"/>
      </g>
     </g>
     <g id="text_11">
      <!-- 0.5 -->
      <g transform="translate(15.579688 71.048479) scale(0.1 -0.1)">
       <use xlink:href="#DejaVuSans-30"/>
       <use xlink:href="#DejaVuSans-2e" x="63.623047"/>
       <use xlink:href="#DejaVuSans-35" x="95.410156"/>
      </g>
     </g>
    </g>
    <g id="ytick_6">
     <g id="line2d_12">
      <g>
       <use xlink:href="#me54ab73803" x="38.482813" y="41.984783" style="stroke: #000000; stroke-width: 0.8"/>
      </g>
     </g>
     <g id="text_12">
      <!-- 1.0 -->
      <g transform="translate(15.579688 45.784002) scale(0.1 -0.1)">
       <use xlink:href="#DejaVuSans-31"/>
       <use xlink:href="#DejaVuSans-2e" x="63.623047"/>
       <use xlink:href="#DejaVuSans-30" x="95.410156"/>
      </g>
     </g>
    </g>
    <g id="ytick_7">
     <g id="line2d_13">
      <g>
       <use xlink:href="#me54ab73803" x="38.482813" y="16.720307" style="stroke: #000000; stroke-width: 0.8"/>
      </g>
     </g>
     <g id="text_13">
      <!-- 1.5 -->
      <g transform="translate(15.579688 20.519525) scale(0.1 -0.1)">
       <use xlink:href="#DejaVuSans-31"/>
       <use xlink:href="#DejaVuSans-2e" x="63.623047"/>
       <use xlink:href="#DejaVuSans-35" x="95.410156"/>
      </g>
     </g>
    </g>
   </g>
   <g id="line2d_14">
    <path d="M 58.773722 83.132387 
L 59.181579 101.959872 
L 59.589437 89.414829 
L 59.997294 104.69216 
L 60.405151 95.573199 
L 60.813009 70.80761 
L 61.220866 90.933062 
L 61.628724 100.649361 
L 62.036581 93.319275 
L 62.444439 91.116251 
L 62.852296 92.73251 
L 63.260154 76.758442 
L 63.668011 67.368219 
L 64.075869 85.080417 
L 64.483726 87.997489 
L 64.891584 78.032787 
L 65.299441 89.641991 
L 65.707299 70.58957 
L 66.115156 72.901548 
L 66.523014 63.518873 
L 66.930871 67.08611 
L 67.338728 66.422345 
L 67.746586 72.866832 
L 68.154443 65.061192 
L 68.562301 80.405618 
L 68.970158 77.159399 
L 69.378016 79.641811 
L 69.785873 67.929468 
L 70.193731 90.13341 
L 71.009446 77.444759 
L 71.417303 57.358398 
L 71.825161 71.019154 
L 72.233018 78.061614 
L 72.640876 70.21367 
L 73.048733 80.664706 
L 73.45659 88.112926 
L 73.864448 61.848337 
L 74.272305 80.340625 
L 74.680163 77.066486 
L 75.08802 83.411693 
L 75.495878 48.629082 
L 75.903735 82.107015 
L 76.311593 74.111274 
L 76.71945 77.968407 
L 77.127308 74.939862 
L 77.535165 67.058158 
L 77.943023 62.093193 
L 78.35088 71.901209 
L 78.758738 54.495256 
L 79.166595 74.329088 
L 79.574453 73.111242 
L 79.98231 79.427625 
L 80.390167 64.458813 
L 80.798025 65.042884 
L 81.205882 57.155321 
L 81.61374 64.555759 
L 82.021597 44.51356 
L 82.429455 74.715556 
L 82.837312 48.356217 
L 83.24517 47.330083 
L 83.653027 52.87886 
L 84.060885 38.720559 
L 84.468742 55.454484 
L 84.8766 56.847041 
L 85.284457 61.956281 
L 85.692315 70.234723 
L 86.100172 46.280569 
L 86.508029 60.557641 
L 86.915887 53.149379 
L 87.323744 57.499035 
L 87.731602 53.395199 
L 88.139459 51.527871 
L 88.547317 63.462896 
L 88.955174 78.917728 
L 89.363032 63.853949 
L 89.770889 55.806435 
L 90.178747 58.992968 
L 90.586604 68.775468 
L 90.994462 60.803334 
L 91.402319 49.133721 
L 91.810177 48.919021 
L 92.218034 42.360251 
L 92.625892 53.047208 
L 93.033749 45.730892 
L 93.441606 57.799838 
L 93.849464 63.226624 
L 94.257321 46.209946 
L 94.665179 69.413874 
L 95.073036 60.073928 
L 95.480894 37.924473 
L 95.888751 46.234299 
L 96.296609 76.194059 
L 96.704466 45.617939 
L 97.112324 42.341349 
L 97.520181 49.705588 
L 97.928039 43.24887 
L 98.335896 43.563434 
L 98.743754 38.413179 
L 99.151611 53.486509 
L 99.559469 50.556024 
L 99.967326 40.827304 
L 100.375183 44.099316 
L 100.783041 46.145795 
L 101.190898 45.036284 
L 101.598756 34.615584 
L 102.006613 47.268269 
L 102.414471 50.100758 
L 102.822328 61.539167 
L 103.230186 47.635617 
L 103.638043 52.447645 
L 104.045901 41.367601 
L 104.453758 38.650578 
L 105.269473 49.536038 
L 105.677331 40.083766 
L 106.085188 45.366237 
L 106.493045 42.628186 
L 106.900903 43.55139 
L 107.30876 37.001007 
L 107.716618 33.496601 
L 108.124475 40.970742 
L 108.532333 36.977654 
L 108.94019 39.948598 
L 109.348048 24.447845 
L 109.755905 33.600464 
L 110.163763 58.209449 
L 110.57162 54.983704 
L 110.979478 44.817362 
L 111.387335 26.797476 
L 111.795193 36.594787 
L 112.20305 37.282281 
L 112.610908 31.464168 
L 113.018765 42.714096 
L 113.426622 61.057454 
L 113.83448 33.367746 
L 114.242337 46.429753 
L 114.650195 32.118034 
L 115.058052 49.423943 
L 115.46591 35.980881 
L 115.873767 52.182628 
L 116.281625 32.608637 
L 116.689482 25.877949 
L 117.09734 27.533357 
L 117.505197 39.426305 
L 118.320912 49.483687 
L 118.72877 40.995944 
L 119.136627 38.502417 
L 119.544484 32.230439 
L 119.952342 46.70186 
L 120.360199 25.769984 
L 120.768057 67.048376 
L 121.175914 46.206533 
L 121.583772 54.075104 
L 121.991629 33.797024 
L 122.399487 61.230203 
L 122.807344 39.735992 
L 123.215202 41.822088 
L 123.623059 45.601829 
L 124.030917 39.244527 
L 124.438774 49.571426 
L 124.846632 40.466519 
L 125.254489 53.340788 
L 125.662347 58.534452 
L 126.070204 28.733857 
L 126.478061 29.448933 
L 126.885919 42.017684 
L 127.293776 58.255927 
L 127.701634 35.059265 
L 128.109491 34.95672 
L 128.517349 22.406763 
L 128.925206 42.622054 
L 129.333064 41.867843 
L 129.740921 51.335763 
L 130.148779 45.403963 
L 130.964494 59.62364 
L 131.372351 55.152669 
L 131.780209 49.085945 
L 132.188066 49.184119 
L 132.595924 59.254771 
L 133.003781 63.700075 
L 133.411638 43.089018 
L 133.819496 34.199877 
L 134.227353 50.31493 
L 134.635211 37.746694 
L 135.043068 37.860575 
L 135.450926 27.278093 
L 135.858783 54.702673 
L 136.266641 35.848057 
L 136.674498 49.169576 
L 137.082356 57.835506 
L 137.490213 42.538107 
L 137.898071 41.521587 
L 138.305928 32.887683 
L 138.713786 41.464183 
L 139.121643 25.653784 
L 139.5295 52.481955 
L 139.937358 56.864171 
L 140.753073 37.111484 
L 141.16093 34.94757 
L 141.568788 43.748247 
L 141.976645 56.876209 
L 142.384503 59.217097 
L 142.79236 54.155533 
L 143.200218 55.400712 
L 143.608075 48.121974 
L 144.015933 45.49736 
L 144.42379 51.724723 
L 144.831648 73.934498 
L 145.647363 40.155573 
L 146.05522 69.36299 
L 146.463077 36.421267 
L 146.870935 48.833641 
L 147.278792 57.320137 
L 147.68665 42.112072 
L 148.094507 35.80785 
L 148.502365 53.244039 
L 148.910222 36.673628 
L 149.725937 64.882986 
L 150.133795 60.286417 
L 150.541652 53.989509 
L 150.94951 51.13121 
L 151.357367 35.412333 
L 151.765225 56.588312 
L 152.173082 65.367262 
L 152.580939 77.267587 
L 153.396654 57.10292 
L 153.804512 56.854428 
L 154.212369 56.060381 
L 154.620227 54.243211 
L 155.028084 68.147177 
L 155.435942 56.344125 
L 155.843799 64.962024 
L 156.251657 55.225822 
L 156.659514 69.099285 
L 157.067372 60.953004 
L 157.475229 64.642756 
L 157.883087 46.676618 
L 158.290944 49.183119 
L 158.698802 69.498762 
L 159.106659 54.05035 
L 159.514516 57.904997 
L 160.330231 58.201685 
L 160.738089 59.223136 
L 161.145946 62.507307 
L 161.553804 72.106306 
L 161.961661 59.910094 
L 162.369519 81.265518 
L 162.777376 82.743043 
L 163.185234 81.847196 
L 163.593091 62.968618 
L 164.000949 69.039923 
L 164.408806 60.314342 
L 164.816664 84.819332 
L 165.224521 70.212006 
L 165.632379 62.330483 
L 166.040236 69.613879 
L 166.448093 57.266202 
L 166.855951 68.426666 
L 167.263808 91.36169 
L 167.671666 71.655722 
L 168.079523 86.237584 
L 168.487381 66.438506 
L 168.895238 99.351776 
L 169.303096 73.939336 
L 169.710953 75.401535 
L 170.118811 82.18737 
L 170.526668 57.837979 
L 170.934526 75.001778 
L 171.342383 64.008052 
L 171.750241 56.964764 
L 172.158098 69.658593 
L 172.565955 67.591836 
L 172.973813 73.797985 
L 173.38167 66.784458 
L 173.789528 76.239518 
L 174.197385 79.816136 
L 174.605243 70.098804 
L 175.0131 90.682886 
L 175.420958 86.392428 
L 175.828815 85.865198 
L 176.236673 85.07113 
L 176.64453 83.702532 
L 177.052388 90.11714 
L 177.460245 83.86905 
L 177.868103 63.464616 
L 178.27596 81.818066 
L 178.683818 75.419771 
L 179.091675 78.185379 
L 179.499532 86.204687 
L 179.90739 85.357753 
L 180.315247 73.31162 
L 180.723105 80.181036 
L 181.130962 83.811374 
L 181.53882 95.610831 
L 181.946677 80.47383 
L 182.354535 99.090346 
L 182.762392 85.323633 
L 183.17025 77.819961 
L 183.578107 114.226746 
L 183.985965 104.427824 
L 184.393822 90.110084 
L 184.80168 113.925874 
L 185.209537 94.293559 
L 185.617395 103.96157 
L 186.025252 101.677058 
L 186.433109 95.012608 
L 186.840967 82.782776 
L 187.248824 105.391982 
L 187.656682 91.587362 
L 188.064539 103.719298 
L 188.472397 86.30972 
L 188.880254 112.165862 
L 189.288112 93.280008 
L 189.695969 94.72956 
L 190.103827 99.03127 
L 190.511684 98.681097 
L 191.327399 93.358722 
L 191.735257 118.402347 
L 192.143114 110.004767 
L 192.550971 97.580067 
L 192.958829 99.786402 
L 193.366686 108.901368 
L 194.182401 95.007354 
L 194.590259 102.602671 
L 194.998116 96.989803 
L 195.405974 106.011284 
L 195.813831 100.187212 
L 196.221689 113.573043 
L 196.629546 111.812091 
L 197.445261 101.702914 
L 197.853119 91.850835 
L 198.260976 109.667334 
L 198.668834 98.329756 
L 199.076691 100.186465 
L 199.484548 117.07632 
L 199.892406 116.501522 
L 200.300263 114.51932 
L 200.708121 119.673225 
L 201.115978 108.324474 
L 201.523836 111.692819 
L 201.931693 125.590109 
L 202.339551 116.741027 
L 202.747408 122.496281 
L 203.155266 119.991388 
L 203.563123 94.773801 
L 203.970981 96.121671 
L 204.378838 98.64541 
L 204.786696 115.939061 
L 205.194553 118.440196 
L 205.60241 135.033128 
L 206.010268 124.671651 
L 206.418125 121.976602 
L 206.825983 99.355708 
L 207.23384 121.063469 
L 207.641698 117.605211 
L 208.049555 98.044469 
L 208.457413 102.911464 
L 208.86527 117.063565 
L 209.273128 114.485357 
L 209.680985 123.455255 
L 210.088843 114.881123 
L 210.904558 134.557227 
L 211.312415 135.994087 
L 211.720273 118.897968 
L 212.12813 129.798258 
L 212.535987 115.592388 
L 212.943845 129.567707 
L 213.351702 128.636387 
L 213.75956 118.654907 
L 214.167417 126.521721 
L 214.575275 128.268169 
L 214.983132 124.844514 
L 215.39099 112.038717 
L 215.798847 136.75605 
L 216.206705 133.707703 
L 216.614562 128.999391 
L 217.02242 138.306188 
L 217.430277 153.852717 
L 217.838135 132.403909 
L 218.245992 120.877773 
L 218.65385 119.767343 
L 219.061707 133.440879 
L 219.469564 138.58362 
L 219.877422 122.423324 
L 220.285279 130.832918 
L 220.693137 142.161103 
L 221.508852 136.16252 
L 221.916709 122.631629 
L 222.324567 134.107358 
L 222.732424 131.427289 
L 223.140282 133.663412 
L 223.548139 124.021906 
L 223.955997 149.851877 
L 224.363854 124.173087 
L 224.771712 122.855075 
L 225.179569 136.146166 
L 225.587426 137.781495 
L 225.995284 137.212989 
L 226.403141 127.677701 
L 226.810999 128.879574 
L 227.218856 149.435344 
L 227.626714 141.519044 
L 228.034571 130.488207 
L 228.442429 141.55102 
L 228.850286 143.190977 
L 229.258144 137.743604 
L 229.666001 154.140449 
L 230.073859 142.62102 
L 230.481716 145.441003 
L 230.889574 135.002287 
L 231.297431 136.961838 
L 231.705289 128.14416 
L 232.113146 145.137285 
L 232.521003 144.212259 
L 232.928861 132.226465 
L 233.336718 144.385532 
L 233.744576 128.093101 
L 234.152433 144.428221 
L 234.560291 125.587714 
L 234.968148 131.534796 
L 235.376006 140.760993 
L 235.783863 133.683169 
L 236.191721 130.057055 
L 236.599578 133.778076 
L 237.007436 154.166386 
L 237.415293 140.659325 
L 237.823151 153.005648 
L 238.638865 129.421288 
L 239.046723 133.878172 
L 239.45458 149.226419 
L 239.862438 155.783569 
L 240.270295 136.987089 
L 240.678153 152.137652 
L 241.08601 141.777471 
L 241.901725 152.215585 
L 242.309583 148.866435 
L 242.71744 134.103789 
L 243.125298 126.449011 
L 243.533155 143.821447 
L 243.941013 147.546031 
L 244.34887 141.578936 
L 244.756728 141.99839 
L 245.164585 152.152946 
L 245.572442 155.624795 
L 245.9803 131.93493 
L 246.388157 131.861958 
L 246.796015 149.882627 
L 247.203872 142.329879 
L 247.61173 143.024015 
L 248.019587 141.392276 
L 248.427445 130.952707 
L 248.835302 156.24226 
L 249.24316 157.229473 
L 249.651017 153.744162 
L 250.058875 139.933786 
L 250.466732 138.812465 
L 250.87459 150.235473 
L 251.282447 114.319373 
L 251.690305 123.185841 
L 252.098162 122.187039 
L 252.506019 153.844381 
L 252.913877 126.413659 
L 253.321734 134.147694 
L 253.729592 146.740692 
L 254.137449 148.784509 
L 254.545307 147.699721 
L 254.953164 148.743537 
L 255.361022 159.061039 
L 256.176737 146.798494 
L 256.584594 142.893416 
L 257.400309 153.50404 
L 257.808167 146.386009 
L 258.623881 137.752151 
L 259.031739 141.954023 
L 259.439596 129.451065 
L 259.847454 144.59347 
L 260.255311 134.544331 
L 260.663169 140.007547 
L 261.071026 148.426923 
L 261.478884 147.211611 
L 261.886741 153.473718 
L 262.294599 120.494412 
L 262.702456 149.930725 
L 263.110314 165.96 
L 263.518171 132.674817 
L 263.926029 131.381621 
L 264.741744 135.017557 
L 265.149601 142.525698 
L 265.557458 133.668349 
L 265.965316 152.482222 
L 266.373173 136.543029 
L 266.781031 144.449086 
L 267.188888 136.415152 
L 267.596746 122.582309 
L 268.004603 135.47279 
L 268.412461 144.717006 
L 268.820318 146.782309 
L 269.228176 131.642672 
L 269.636033 141.359159 
L 270.043891 134.580517 
L 270.451748 140.078892 
L 270.859606 154.011004 
L 271.267463 134.711086 
L 271.67532 154.743837 
L 272.083178 141.608828 
L 272.491035 121.264676 
L 272.898893 147.626361 
L 273.30675 126.54162 
L 273.714608 127.476455 
L 274.122465 130.13765 
L 274.530323 160.168493 
L 274.93818 147.844334 
L 275.346038 142.627095 
L 275.753895 129.937934 
L 276.161753 134.003801 
L 276.56961 119.75975 
L 276.977468 135.898298 
L 277.385325 121.028352 
L 277.793183 124.7365 
L 278.20104 118.243645 
L 278.608897 136.387733 
L 279.016755 147.468918 
L 279.424612 130.834168 
L 279.83247 143.024644 
L 280.240327 117.637866 
L 280.648185 134.814106 
L 281.056042 136.139248 
L 281.4639 129.500096 
L 281.871757 110.833709 
L 282.279615 106.790613 
L 282.687472 139.367069 
L 283.09533 115.022673 
L 283.503187 108.032219 
L 283.911045 146.507883 
L 284.318902 129.357218 
L 284.72676 134.674186 
L 285.134617 124.750882 
L 285.542474 105.225825 
L 285.950332 97.122019 
L 286.358189 119.491592 
L 286.766047 118.975141 
L 287.173904 120.40165 
L 287.581762 124.389573 
L 287.989619 118.525721 
L 288.397477 125.725611 
L 288.805334 115.970496 
L 289.213192 113.767145 
L 289.621049 108.130386 
L 290.028907 119.319106 
L 290.436764 113.679443 
L 290.844622 124.729616 
L 291.252479 119.957581 
L 291.660336 111.603617 
L 292.068194 125.438292 
L 292.476051 128.207334 
L 292.883909 114.458758 
L 293.699624 133.629132 
L 294.107481 117.733497 
L 294.515339 119.085986 
L 294.923196 92.102108 
L 295.331054 118.57574 
L 295.738911 126.272221 
L 296.146769 105.335572 
L 296.554626 111.996266 
L 296.962484 115.029007 
L 297.370341 113.973972 
L 297.778199 123.118655 
L 298.186056 120.107374 
L 298.593913 109.371868 
L 299.001771 108.654509 
L 299.409628 101.479087 
L 300.225343 117.262926 
L 300.633201 104.436678 
L 301.041058 98.981127 
L 301.448916 117.883695 
L 301.856773 101.112132 
L 302.264631 117.785722 
L 302.672488 103.886118 
L 303.080346 100.230633 
L 303.488203 97.744681 
L 303.896061 102.082877 
L 304.303918 85.319175 
L 304.711775 96.375494 
L 305.119633 121.149343 
L 305.52749 78.213104 
L 305.935348 110.522226 
L 306.343205 93.99116 
L 306.751063 104.673037 
L 307.15892 123.148833 
L 307.566778 86.140786 
L 308.382493 106.793824 
L 308.79035 81.054481 
L 309.198208 81.040466 
L 309.606065 97.506373 
L 310.013923 91.852352 
L 310.42178 91.981812 
L 311.237495 82.778205 
L 311.645352 98.371885 
L 312.05321 88.446244 
L 312.461067 100.269542 
L 312.868925 97.043847 
L 313.276782 90.739665 
L 313.68464 90.945604 
L 314.092497 85.465856 
L 314.500355 96.501537 
L 314.908212 101.101881 
L 315.31607 93.574917 
L 315.723927 80.928103 
L 316.131785 73.496529 
L 316.539642 87.68899 
L 316.9475 73.033418 
L 317.355357 84.781931 
L 317.763215 81.506081 
L 318.171072 99.045333 
L 318.578929 86.010517 
L 318.986787 65.781503 
L 319.394644 81.208299 
L 319.802502 82.860022 
L 320.210359 91.328097 
L 320.618217 95.160561 
L 321.026074 74.794849 
L 321.433932 77.532545 
L 321.841789 79.114164 
L 322.249647 94.906016 
L 322.657504 62.450312 
L 323.065362 80.919982 
L 323.473219 81.262319 
L 323.881077 87.991859 
L 324.696791 82.408673 
L 325.104649 84.710652 
L 325.512506 79.576708 
L 325.920364 98.72453 
L 326.328221 75.406438 
L 326.736079 64.761251 
L 327.143936 76.528426 
L 327.551794 77.882444 
L 327.959651 84.028946 
L 328.367509 74.855595 
L 328.775366 83.72627 
L 329.183224 73.062757 
L 329.591081 77.757165 
L 329.998939 63.572862 
L 330.406796 71.004677 
L 330.814654 87.996166 
L 331.222511 49.158878 
L 331.630368 85.567928 
L 332.038226 68.371522 
L 332.446083 81.245786 
L 332.853941 74.22909 
L 333.261798 58.703264 
L 334.077513 73.325404 
L 334.485371 95.340497 
L 334.893228 73.859952 
L 335.301086 60.949645 
L 335.708943 83.096431 
L 336.116801 56.908782 
L 336.524658 67.684447 
L 336.932516 63.29165 
L 337.340373 55.265785 
L 337.74823 62.17011 
L 338.156088 55.813642 
L 338.563945 60.115156 
L 338.971803 34.866072 
L 339.37966 57.696839 
L 339.787518 64.785414 
L 340.195375 62.238317 
L 340.603233 45.28442 
L 341.01109 61.573435 
L 341.418948 64.318721 
L 341.826805 45.162937 
L 342.234663 66.460095 
L 342.64252 71.589586 
L 343.050378 27.991193 
L 343.458235 44.58418 
L 344.27395 54.200128 
L 344.681807 52.584611 
L 345.089665 41.343098 
L 345.497522 43.43844 
L 345.90538 57.201329 
L 346.313237 41.82934 
L 346.721095 60.195919 
L 347.128952 65.003716 
L 347.53681 68.444884 
L 347.944667 54.243027 
L 348.352525 58.098526 
L 348.760382 60.857946 
L 349.16824 56.883392 
L 349.983955 42.621168 
L 350.391812 39.523778 
L 350.79967 42.408713 
L 351.207527 50.757761 
L 351.615384 43.128484 
L 352.023242 30.070747 
L 352.431099 42.887089 
L 352.838957 47.81706 
L 353.246814 48.474543 
L 353.654672 46.497617 
L 354.062529 48.89406 
L 354.470387 31.935202 
L 354.878244 62.072345 
L 355.286102 45.086282 
L 355.693959 45.299033 
L 356.101817 63.258437 
L 356.509674 63.361794 
L 356.917532 50.2627 
L 357.325389 45.511898 
L 357.733246 48.33583 
L 358.141104 37.365604 
L 358.548961 34.18436 
L 358.956819 43.971639 
L 359.364676 37.886458 
L 359.772534 54.641432 
L 360.180391 60.703012 
L 360.588249 41.413489 
L 360.996106 40.490408 
L 361.403964 59.423123 
L 361.811821 25.707893 
L 362.219679 27.423115 
L 362.627536 55.079854 
L 363.035394 57.446435 
L 363.443251 68.039048 
L 363.851109 44.623727 
L 364.666823 61.070896 
L 365.074681 41.057282 
L 365.482538 32.063105 
L 366.298253 47.670845 
L 366.706111 14.76 
L 367.113968 35.1504 
L 367.521826 35.293724 
L 367.929683 24.156897 
L 368.337541 37.139783 
L 368.745398 42.328449 
L 369.153256 59.136451 
L 369.968971 36.925062 
L 370.376828 39.182557 
L 370.784686 73.926815 
L 371.192543 57.249174 
L 371.6004 56.907363 
L 372.008258 48.508136 
L 372.416115 44.937519 
L 372.823973 49.523954 
L 373.23183 46.106898 
L 373.639688 36.873977 
L 374.047545 50.421637 
L 374.455403 46.846674 
L 374.86326 35.978315 
L 375.271118 44.888644 
L 375.678975 34.239897 
L 376.086833 49.749367 
L 376.49469 51.585037 
L 376.902548 41.814221 
L 377.310405 41.174433 
L 378.12612 28.404696 
L 378.533977 40.735921 
L 378.941835 66.818401 
L 379.349692 37.860274 
L 379.75755 22.868225 
L 380.165407 49.555132 
L 380.573265 41.720309 
L 380.981122 57.589647 
L 381.38898 38.753315 
L 381.796837 34.844394 
L 382.204695 28.073655 
L 383.02041 43.919644 
L 383.428267 33.28806 
L 383.836125 37.341197 
L 384.243982 42.848674 
L 384.651839 57.503134 
L 385.059697 49.068269 
L 385.875412 41.142454 
L 386.283269 55.863701 
L 386.691127 47.575472 
L 387.098984 28.793496 
L 387.914699 53.868931 
L 388.322557 50.890125 
L 388.730414 48.80736 
L 389.138272 57.213262 
L 389.546129 33.455653 
L 389.953987 55.26724 
L 390.361844 64.750264 
L 390.769701 41.806023 
L 391.177559 40.589055 
L 391.585416 45.119059 
L 391.993274 55.680315 
L 392.401131 43.250849 
L 392.808989 53.337635 
L 393.216846 32.07502 
L 393.624704 49.32394 
L 394.032561 55.522149 
L 394.440419 27.106013 
L 394.848276 63.401833 
L 395.256134 25.223482 
L 395.663991 53.822173 
L 396.071849 46.225691 
L 396.479706 49.831253 
L 396.887564 40.642623 
L 397.295421 44.622284 
L 397.703278 32.263044 
L 398.111136 52.089812 
L 398.518993 53.443276 
L 398.926851 61.523931 
L 399.334708 55.375781 
L 400.558281 45.843481 
L 400.966138 45.538676 
L 401.373996 45.764139 
L 401.781853 40.793801 
L 402.189711 57.285734 
L 402.597568 47.598867 
L 403.005426 43.548113 
L 403.413283 61.121072 
L 403.821141 37.515608 
L 404.228998 44.303122 
L 404.636855 55.11926 
L 405.044713 43.360932 
L 405.45257 46.459711 
L 405.860428 55.419147 
L 406.676143 78.586381 
L 407.084 58.000012 
L 407.491858 56.754107 
L 407.899715 57.336144 
L 408.307573 44.59482 
L 408.71543 58.982532 
L 409.123288 39.925245 
L 409.939003 79.338603 
L 410.34686 74.678663 
L 411.162575 54.941373 
L 411.570432 63.048836 
L 411.97829 54.37459 
L 412.386147 83.720145 
L 412.794005 65.838437 
L 413.201862 66.566178 
L 413.60972 48.125591 
L 414.017577 48.30227 
L 414.425435 73.622484 
L 414.833292 62.936275 
L 415.24115 72.35857 
L 415.649007 48.079032 
L 416.056865 49.111952 
L 416.464722 77.066724 
L 416.87258 77.502502 
L 417.280437 77.278017 
L 417.688294 81.055444 
L 418.096152 91.185072 
L 418.504009 52.033166 
L 418.911867 71.764588 
L 419.319724 59.30517 
L 419.727582 75.792989 
L 420.135439 67.2714 
L 420.543297 54.528735 
L 420.951154 59.223428 
L 421.766869 85.177641 
L 422.174727 77.959703 
L 422.582584 77.504575 
L 422.990442 74.68083 
L 423.398299 61.550829 
L 424.214014 96.312225 
L 424.621871 69.358102 
L 425.029729 54.12784 
L 425.437586 62.38771 
L 425.845444 79.295838 
L 426.253301 81.968026 
L 426.661159 73.320123 
L 427.069016 77.830615 
L 427.476874 70.758685 
L 427.884731 59.507018 
L 428.292589 60.780204 
L 428.700446 81.556884 
L 429.108304 59.017276 
L 429.516161 89.210842 
L 429.924019 69.861357 
L 430.331876 87.720913 
L 430.739733 69.369186 
L 431.147591 89.041292 
L 431.555448 86.521236 
L 432.371163 70.340344 
L 432.779021 94.490078 
L 433.186878 56.434682 
L 433.594736 84.197491 
L 434.002593 84.547348 
L 434.410451 71.505179 
L 434.818308 75.940923 
L 435.226166 94.9348 
L 435.634023 85.200435 
L 436.041881 89.544758 
L 436.449738 109.436625 
L 436.857596 91.755434 
L 437.265453 83.452382 
L 437.67331 92.150708 
L 438.081168 91.059449 
L 438.489025 93.356848 
L 438.896883 80.952207 
L 439.30474 100.916364 
L 439.712598 104.181307 
L 440.120455 84.126404 
L 440.528313 88.156231 
L 440.93617 86.317138 
L 441.344028 83.492611 
L 441.751885 86.549523 
L 442.159743 91.296896 
L 442.5676 92.950356 
L 442.975458 93.565905 
L 443.383315 90.471153 
L 443.791172 93.016436 
L 444.19903 102.269145 
L 444.606887 91.062676 
L 445.014745 105.312655 
L 445.422602 99.831397 
L 445.83046 112.082666 
L 446.238317 104.073109 
L 446.646175 98.552627 
L 447.054032 96.389398 
L 447.46189 85.614175 
L 447.869747 104.32194 
L 448.277605 103.983936 
L 448.685462 106.343737 
L 449.09332 109.68083 
L 449.501177 104.434383 
L 449.909035 106.545182 
L 450.316892 110.172453 
L 450.724749 112.261063 
L 451.132607 91.58099 
L 451.540464 114.64415 
L 451.948322 108.413735 
L 452.356179 96.832011 
L 452.764037 111.373159 
L 453.171894 116.734326 
L 453.579752 114.862101 
L 453.987609 86.08707 
L 454.395467 115.220564 
L 454.803324 104.567467 
L 455.211182 101.002104 
L 455.619039 127.213625 
L 456.026897 98.629596 
L 456.434754 140.266835 
L 456.842611 115.417509 
L 457.250469 119.16743 
L 457.658326 128.775813 
L 458.066184 116.524674 
L 458.474041 117.538919 
L 458.881899 119.158627 
L 459.289756 119.409997 
L 459.697614 103.130136 
L 460.513329 123.622818 
L 460.921186 124.298711 
L 461.329044 115.096675 
L 461.736901 101.174125 
L 462.552616 123.313736 
L 462.960474 110.360546 
L 463.368331 111.653055 
L 463.776188 119.51568 
L 464.184046 123.414973 
L 464.591903 128.627388 
L 464.591903 128.627388 
" clip-path="url(#p42796b4a0b)" style="fill: none; stroke: #1f77b4; stroke-width: 1.5; stroke-linecap: square"/>
   </g>
   <g id="line2d_15">
    <path d="M 58.773722 94.701222 
L 59.181579 96.209888 
L 59.589437 100.612674 
L 59.997294 90.143865 
L 60.405151 101.170769 
L 60.813009 97.167245 
L 61.628724 82.699734 
L 62.036581 88.790043 
L 62.444439 99.437013 
L 63.260154 91.742698 
L 63.668011 86.101806 
L 64.075869 76.372524 
L 64.483726 74.756136 
L 64.891584 82.694904 
L 65.299441 86.50422 
L 65.707299 85.610701 
L 66.115156 78.986696 
L 66.523014 77.038544 
L 66.930871 66.584625 
L 67.338728 67.602401 
L 67.746586 65.596195 
L 68.154443 70.439357 
L 68.562301 69.136634 
L 68.970158 74.386804 
L 69.378016 76.075376 
L 69.785873 81.582406 
L 70.193731 74.543851 
L 70.601588 80.19364 
L 71.417303 86.267171 
L 71.825161 70.078725 
L 72.233018 66.119513 
L 72.640876 69.553721 
L 73.048733 76.230463 
L 73.45659 77.569638 
L 73.864448 81.602671 
L 74.272305 78.031654 
L 75.08802 72.861124 
L 75.495878 83.554978 
L 75.903735 68.021331 
L 76.311593 70.018116 
L 76.71945 68.970091 
L 77.127308 82.474317 
L 77.535165 75.603769 
L 77.943023 73.374099 
L 78.35088 66.560007 
L 78.758738 66.614453 
L 79.166595 62.998224 
L 79.574453 67.791046 
L 79.98231 68.764132 
L 80.390167 79.452006 
L 80.798025 72.625496 
L 81.205882 68.781809 
L 81.61374 60.240605 
L 82.021597 62.369684 
L 82.429455 54.557576 
L 82.837312 62.267113 
L 83.24517 56.561426 
L 83.653027 57.325666 
L 84.060885 46.84924 
L 84.468742 46.656078 
L 85.284457 52.013813 
L 85.692315 61.866582 
L 86.100172 65.493997 
L 86.508029 60.282631 
L 86.915887 58.14395 
L 87.323744 52.43826 
L 87.731602 58.965874 
L 88.139459 54.754319 
L 88.547317 54.66009 
L 88.955174 56.997809 
L 89.363032 68.406442 
L 89.770889 72.437228 
L 90.178747 65.884626 
L 90.586604 57.07085 
L 90.994462 62.14645 
L 91.402319 64.985112 
L 91.810177 59.356795 
L 92.218034 50.602101 
L 92.625892 45.324506 
L 93.033749 48.663889 
L 93.441606 48.050658 
L 93.849464 54.272485 
L 94.257321 57.77681 
L 94.665179 57.653641 
L 95.073036 60.255218 
L 95.480894 59.971085 
L 95.888751 56.380709 
L 96.296609 44.52483 
L 96.704466 55.014833 
L 97.112324 60.335626 
L 97.520181 54.316816 
L 97.928039 42.40811 
L 98.335896 46.092547 
L 98.743754 46.274208 
L 99.151611 41.227314 
L 99.559469 46.405382 
L 99.967326 49.79779 
L 100.375183 49.873547 
L 100.783041 44.175065 
L 101.190898 43.816666 
L 101.598756 46.584317 
L 102.006613 41.934379 
L 102.414471 42.275593 
L 102.822328 45.659107 
L 103.230186 56.970478 
L 103.638043 54.971018 
L 104.045901 54.331353 
L 104.453758 45.806894 
L 105.269473 40.926222 
L 105.677331 46.189592 
L 106.085188 46.46497 
L 106.493045 45.305725 
L 106.900903 42.788149 
L 107.30876 45.001498 
L 108.124475 37.552761 
L 108.532333 37.084493 
L 108.94019 38.365238 
L 109.348048 40.742902 
L 109.755905 33.211261 
L 110.163763 32.095096 
L 110.57162 40.991059 
L 110.979478 54.839208 
L 111.387335 55.505431 
L 111.795193 39.286029 
L 112.20305 33.257798 
L 112.610908 33.516906 
L 113.018765 36.932278 
L 113.426622 38.044624 
L 113.83448 48.484912 
L 114.242337 48.786669 
L 114.650195 46.809509 
L 115.058052 35.142528 
L 115.46591 44.382476 
L 115.873767 39.688286 
L 116.281625 48.230247 
L 116.689482 40.18154 
L 117.09734 36.141318 
L 117.505197 25.743679 
L 117.913055 32.110908 
L 118.72877 48.105144 
L 119.136627 46.519344 
L 119.544484 42.889697 
L 119.952342 35.888944 
L 120.360199 39.77791 
L 120.768057 35.454016 
L 121.175914 49.362783 
L 121.583772 49.272569 
L 121.991629 59.56139 
L 122.399487 42.097616 
L 122.807344 50.534099 
L 123.215202 45.575976 
L 123.623059 48.839213 
L 124.030917 40.797343 
L 124.846632 45.941435 
L 125.254489 43.926881 
L 125.662347 49.605597 
L 126.070204 52.848447 
L 126.478061 47.78809 
L 126.885919 35.514287 
L 127.293776 31.184514 
L 127.701634 47.620715 
L 128.109491 48.405754 
L 128.517349 41.955684 
L 128.925206 27.25077 
L 129.333064 33.760473 
L 129.740921 37.980738 
L 130.148779 49.605419 
L 130.556636 47.947789 
L 131.780209 58.423866 
L 132.188066 55.06282 
L 132.595924 50.258324 
L 133.003781 53.280258 
L 133.411638 60.198241 
L 133.819496 56.502004 
L 134.227353 44.188513 
L 134.635211 40.288632 
L 135.043068 41.90752 
L 135.450926 42.9552 
L 135.858783 32.439419 
L 136.266641 41.334436 
L 136.674498 41.549711 
L 137.082356 49.222101 
L 137.490213 48.684709 
L 137.898071 52.642283 
L 138.305928 46.651651 
L 138.713786 36.70174 
L 139.121643 38.568863 
L 139.5295 33.010027 
L 140.345215 48.401781 
L 140.753073 56.067416 
L 141.568788 36.876254 
L 141.976645 38.559924 
L 142.79236 57.678889 
L 143.200218 59.311332 
L 143.608075 56.5913 
L 144.015933 52.18102 
L 144.42379 49.170648 
L 144.831648 48.276643 
L 145.239505 60.362545 
L 145.647363 63.850233 
L 146.05522 55.737424 
L 146.870935 49.404496 
L 147.278792 51.988728 
L 147.68665 46.426148 
L 148.094507 52.066525 
L 148.502365 43.977497 
L 148.910222 42.783779 
L 149.31808 43.303784 
L 149.725937 49.20834 
L 150.133795 53.379718 
L 150.541652 63.814643 
L 150.94951 60.929325 
L 151.357367 53.930666 
L 151.765225 44.900182 
L 152.173082 47.256249 
L 152.580939 55.27648 
L 152.988797 72.60898 
L 153.396654 73.287909 
L 153.804512 67.302728 
L 154.212369 58.172549 
L 154.620227 55.779658 
L 155.028084 56.139527 
L 155.435942 60.988241 
L 155.843799 61.36891 
L 156.251657 64.605064 
L 156.659514 58.512396 
L 157.067372 64.595646 
L 157.475229 62.727292 
L 157.883087 66.532612 
L 158.290944 56.086707 
L 158.698802 51.982539 
L 159.106659 55.474621 
L 159.514516 60.74943 
L 159.922374 61.839193 
L 160.330231 55.873859 
L 160.738089 59.371363 
L 161.145946 59.35887 
L 161.553804 61.181307 
L 161.961661 66.843185 
L 162.369519 66.584218 
L 162.777376 72.935443 
L 163.185234 77.292344 
L 163.593091 85.810367 
L 164.000949 74.974867 
L 164.816664 62.41515 
L 165.224521 73.581714 
L 165.632379 74.087078 
L 166.040236 73.499971 
L 166.448093 65.322697 
L 166.855951 62.834242 
L 167.263808 65.736944 
L 167.671666 75.12013 
L 168.079523 81.557833 
L 168.487381 84.942464 
L 168.895238 73.409381 
L 169.303096 86.23188 
L 169.710953 81.100137 
L 170.118811 84.093253 
L 170.526668 75.06977 
L 170.934526 71.759611 
L 171.342383 70.72304 
L 171.750241 64.805054 
L 172.158098 66.029341 
L 172.565955 62.609667 
L 172.973813 66.401462 
L 173.38167 73.031563 
L 173.789528 70.235939 
L 174.605243 75.856895 
L 175.0131 77.172806 
L 176.236673 90.443213 
L 176.64453 85.656752 
L 177.052388 85.203134 
L 177.460245 87.147884 
L 177.868103 86.886149 
L 178.27596 77.935313 
L 178.683818 74.328794 
L 179.091675 73.882685 
L 179.499532 80.913322 
L 179.90739 80.842667 
L 180.315247 85.565263 
L 181.130962 78.733693 
L 181.53882 79.520175 
L 181.946677 89.769501 
L 182.354535 88.469397 
L 182.762392 93.084413 
L 183.17025 88.723644 
L 183.578107 87.745969 
L 183.985965 92.986881 
L 184.393822 103.618629 
L 184.80168 105.810443 
L 185.209537 101.662135 
L 185.617395 100.318938 
L 186.025252 105.565843 
L 186.433109 99.21381 
L 186.840967 101.234093 
L 187.248824 91.292356 
L 187.656682 93.95521 
L 188.064539 94.743077 
L 188.472397 102.766137 
L 188.880254 93.073349 
L 189.288112 102.347878 
L 189.695969 98.101575 
L 190.103827 101.288165 
L 190.511684 94.224613 
L 190.919542 98.983509 
L 191.327399 98.900303 
L 191.735257 95.968261 
L 192.550971 110.905935 
L 192.958829 110.316907 
L 193.366686 99.965446 
L 193.774544 102.06792 
L 194.182401 105.659699 
L 194.998116 99.161781 
L 195.405974 98.514759 
L 195.813831 103.370759 
L 196.221689 101.873502 
L 196.629546 108.618383 
L 197.445261 112.49377 
L 198.260976 98.32817 
L 198.668834 100.81254 
L 199.076691 101.162626 
L 199.484548 104.10655 
L 199.892406 105.927084 
L 200.300263 114.858252 
L 200.708121 118.709128 
L 201.115978 117.469243 
L 201.523836 114.33501 
L 201.931693 112.905447 
L 202.339551 115.894611 
L 202.747408 120.594734 
L 203.155266 123.120161 
L 203.563123 119.77062 
L 203.970981 111.217683 
L 204.378838 99.754582 
L 204.786696 93.987723 
L 205.194553 106.2496 
L 205.60241 115.037989 
L 206.010268 127.952832 
L 206.418125 128.807509 
L 206.825983 128.125827 
L 207.23384 112.026119 
L 207.641698 112.373309 
L 208.049555 113.36055 
L 208.457413 113.623332 
L 208.86527 103.417142 
L 209.273128 105.836348 
L 209.680985 114.886864 
L 210.088843 121.217454 
L 210.4967 118.550345 
L 210.904558 121.772416 
L 211.312415 126.058085 
L 211.720273 135.08293 
L 212.535987 127.011412 
L 212.943845 120.141524 
L 213.351702 125.867672 
L 213.75956 125.361311 
L 214.167417 127.10722 
L 214.575275 123.992876 
L 214.983132 125.050446 
L 215.39099 128.172154 
L 215.798847 120.823561 
L 216.206705 124.550892 
L 217.02242 136.238208 
L 217.430277 133.73552 
L 217.838135 143.073091 
L 218.245992 144.070954 
L 218.65385 133.822162 
L 219.061707 119.801231 
L 219.469564 124.562339 
L 219.877422 133.66737 
L 220.285279 133.396106 
L 220.693137 129.856059 
L 221.100994 132.384902 
L 221.508852 140.798086 
L 221.916709 140.583597 
L 222.324567 131.134398 
L 222.732424 129.720964 
L 223.140282 129.663237 
L 223.548139 134.927436 
L 223.955997 129.374678 
L 224.363854 137.241085 
L 224.771712 133.93232 
L 225.179569 132.039778 
L 225.587426 125.506457 
L 225.995284 134.931905 
L 226.403141 139.635164 
L 226.810999 134.0316 
L 227.218856 130.17926 
L 228.034571 143.346607 
L 228.442429 141.594293 
L 228.850286 136.304762 
L 229.666001 142.671515 
L 230.073859 146.200473 
L 230.481716 146.273038 
L 230.889574 148.483785 
L 231.297431 139.430256 
L 231.705289 138.426108 
L 232.113146 131.951338 
L 232.521003 137.482541 
L 232.928861 141.149507 
L 233.336718 142.221742 
L 233.744576 139.644687 
L 234.152433 134.326734 
L 234.560291 139.835976 
L 234.968148 132.005215 
L 235.376006 134.010945 
L 235.783863 132.231898 
L 236.191721 137.59188 
L 236.599578 135.132341 
L 237.007436 131.705759 
L 237.415293 141.657157 
L 238.231008 151.402801 
L 238.638865 145.029609 
L 239.046723 140.918881 
L 239.45458 132.40727 
L 239.862438 138.209089 
L 240.270295 150.505983 
L 240.678153 149.442699 
L 241.08601 147.823902 
L 241.493868 143.072682 
L 241.901725 148.087534 
L 242.309583 147.103652 
L 242.71744 150.984727 
L 243.125298 144.494076 
L 243.533155 133.350981 
L 243.941013 133.387243 
L 244.34887 141.883157 
L 244.756728 147.346695 
L 245.164585 143.728932 
L 245.572442 145.786753 
L 245.9803 152.417156 
L 246.388157 147.011606 
L 246.796015 136.79645 
L 247.203872 136.536912 
L 247.61173 144.181359 
L 248.019587 146.881854 
L 248.427445 141.614173 
L 248.835302 137.861101 
L 249.24316 143.506182 
L 250.058875 159.609866 
L 250.466732 149.111261 
L 250.87459 141.715423 
L 251.282447 142.282471 
L 252.506019 116.734161 
L 252.913877 137.363013 
L 253.321734 137.445319 
L 253.729592 139.170747 
L 254.137449 134.729648 
L 254.545307 147.061758 
L 254.953164 150.220041 
L 255.361022 149.047249 
L 255.768879 153.16765 
L 256.176737 155.300338 
L 256.584594 153.216857 
L 256.992452 145.715381 
L 257.400309 145.108342 
L 257.808167 149.178574 
L 258.216024 150.647066 
L 258.623881 147.031544 
L 259.031739 140.41911 
L 259.439596 140.075441 
L 259.847454 135.889374 
L 260.255311 138.937526 
L 260.663169 136.577423 
L 261.071026 141.117606 
L 261.478884 141.66684 
L 261.886741 147.746554 
L 262.294599 151.667131 
L 262.702456 138.913136 
L 263.110314 139.650316 
L 263.926029 153.969375 
L 264.741744 128.129336 
L 265.557458 138.597962 
L 265.965316 138.304234 
L 266.373173 144.543143 
L 266.781031 141.891325 
L 267.188888 145.622287 
L 267.596746 137.980882 
L 268.412461 129.633611 
L 268.820318 135.730398 
L 269.228176 146.337291 
L 269.636033 141.873284 
L 270.043891 138.986391 
L 270.451748 135.240563 
L 271.267463 144.499515 
L 271.67532 144.852385 
L 272.083178 148.724575 
L 273.30675 134.298541 
L 273.714608 132.027496 
L 274.122465 134.659974 
L 274.530323 125.951682 
L 274.93818 142.879345 
L 275.346038 150.848005 
L 275.753895 152.398844 
L 276.161753 136.89601 
L 276.56961 133.489098 
L 276.977468 126.069216 
L 277.385325 129.961887 
L 277.793183 125.485251 
L 278.20104 127.848613 
L 278.608897 119.820476 
L 279.424612 137.585206 
L 279.83247 141.709396 
L 280.240327 140.739835 
L 280.648185 128.505706 
L 281.056042 131.270057 
L 281.4639 129.419363 
L 281.871757 136.064177 
L 282.687472 111.842914 
L 283.09533 118.996624 
L 283.503187 123.721543 
L 283.911045 121.286448 
L 284.318902 122.379286 
L 285.134617 140.367482 
L 285.542474 127.703497 
L 285.950332 119.500781 
L 286.358189 104.232338 
L 286.766047 105.642583 
L 287.581762 123.366713 
L 287.989619 122.291493 
L 288.397477 122.003457 
L 288.805334 123.604603 
L 289.213192 120.145445 
L 289.621049 118.226005 
L 290.028907 110.944912 
L 290.436764 113.994116 
L 290.844622 114.854135 
L 291.252479 121.367606 
L 291.660336 120.631866 
L 292.068194 119.354976 
L 292.476051 118.645004 
L 292.883909 123.644957 
L 293.291766 124.47564 
L 293.699624 121.609058 
L 294.107481 124.973484 
L 294.515339 127.208068 
L 294.923196 122.841811 
L 295.331054 105.869618 
L 295.738911 108.428238 
L 296.554626 120.524409 
L 296.962484 113.243224 
L 297.370341 109.754559 
L 297.778199 115.58286 
L 298.186056 118.952108 
L 298.593913 120.726432 
L 299.001771 117.948613 
L 299.817486 104.822076 
L 300.225343 106.803845 
L 300.633201 111.266688 
L 301.041058 112.523413 
L 301.448916 105.855954 
L 301.856773 106.560849 
L 302.264631 107.526352 
L 302.672488 114.12053 
L 303.080346 107.390637 
L 303.488203 107.601772 
L 303.896061 98.420595 
L 304.303918 100.054688 
L 304.711775 94.602775 
L 305.119633 93.96463 
L 305.52749 103.136357 
L 305.935348 101.223843 
L 306.343205 102.97557 
L 306.751063 92.761829 
L 307.15892 106.381827 
L 307.566778 108.869973 
L 307.974635 106.678817 
L 308.79035 94.441536 
L 309.198208 96.380169 
L 309.606065 87.416967 
L 310.013923 84.931772 
L 310.42178 93.034656 
L 310.829638 95.800142 
L 311.237495 89.90289 
L 311.645352 86.91625 
L 312.05321 90.085584 
L 312.461067 91.591089 
L 312.868925 97.871576 
L 313.276782 96.162481 
L 313.68464 97.227521 
L 314.092497 92.036457 
L 314.500355 88.356166 
L 314.908212 91.655817 
L 315.31607 96.437332 
L 315.723927 99.359516 
L 316.131785 90.80413 
L 316.539642 79.501205 
L 316.9475 79.542924 
L 317.355357 78.810753 
L 317.763215 83.0589 
L 318.171072 80.045905 
L 318.578929 91.700676 
L 318.986787 90.844982 
L 319.802502 74.423469 
L 320.210359 77.145746 
L 320.618217 88.96959 
L 321.026074 92.395046 
L 321.433932 87.835611 
L 321.841789 80.52108 
L 322.249647 75.525102 
L 322.657504 86.507327 
L 323.065362 79.581916 
L 323.473219 78.479931 
L 323.881077 74.074993 
L 324.288934 87.298278 
L 324.696791 86.395785 
L 325.104649 86.089121 
L 325.920364 82.441353 
L 326.328221 89.415784 
L 326.736079 85.69984 
L 327.551794 68.838664 
L 327.959651 74.319807 
L 328.367509 82.568169 
L 328.775366 80.026122 
L 329.183224 81.627421 
L 329.591081 77.159155 
L 329.998939 78.727651 
L 330.406796 70.215553 
L 330.814654 70.400471 
L 331.222511 75.560424 
L 331.630368 70.660564 
L 332.038226 73.949727 
L 332.446083 67.516954 
L 332.853941 82.453498 
L 333.261798 74.412265 
L 333.669656 71.408504 
L 334.077513 63.70041 
L 334.485371 66.018911 
L 334.893228 82.781093 
L 335.301086 84.508397 
L 335.708943 75.814588 
L 336.116801 70.010501 
L 336.524658 67.326304 
L 336.932516 69.610153 
L 337.340373 61.061975 
L 337.74823 62.910271 
L 338.156088 59.595751 
L 338.563945 57.960139 
L 338.971803 60.381892 
L 339.37966 48.684029 
L 339.787518 49.990018 
L 340.195375 54.050196 
L 340.603233 66.505979 
L 341.01109 57.302672 
L 341.418948 55.301848 
L 341.826805 58.35464 
L 342.234663 58.889156 
L 342.64252 58.387125 
L 343.050378 63.083502 
L 343.458235 56.240993 
L 343.866093 43.673652 
L 344.27395 38.361184 
L 344.681807 53.636694 
L 345.089665 54.096475 
L 345.90538 44.63347 
L 346.313237 48.032699 
L 346.721095 49.546073 
L 347.128952 54.779371 
L 347.53681 57.72536 
L 347.944667 68.968225 
L 348.352525 63.328048 
L 348.760382 59.432013 
L 349.16824 57.337093 
L 349.576097 60.016451 
L 349.983955 55.458014 
L 350.79967 42.106856 
L 351.207527 41.103934 
L 351.615384 45.769608 
L 352.023242 47.363185 
L 352.431099 40.899953 
L 352.838957 37.323729 
L 353.246814 41.767545 
L 353.654672 49.867181 
L 354.062529 49.007206 
L 354.470387 48.692163 
L 354.878244 41.898942 
L 355.286102 48.484632 
L 355.693959 48.324153 
L 356.101817 53.029725 
L 356.509674 51.135927 
L 356.917532 61.090445 
L 357.325389 61.138498 
L 357.733246 51.213456 
L 358.141104 46.39382 
L 358.548961 43.380722 
L 358.956819 39.049449 
L 359.364676 38.056141 
L 359.772534 40.146718 
L 360.588249 54.296173 
L 360.996106 54.748834 
L 361.403964 45.858347 
L 361.811821 46.610161 
L 362.219679 42.815864 
L 362.627536 35.510679 
L 363.035394 34.749198 
L 363.851109 66.144227 
L 364.258966 57.548687 
L 364.666823 54.282915 
L 365.074681 52.43835 
L 365.482538 53.305027 
L 365.890396 42.529882 
L 366.298253 35.084021 
L 366.706111 41.653954 
L 367.113968 34.727947 
L 367.521826 30.589668 
L 367.929683 27.990976 
L 368.337541 34.320558 
L 368.745398 32.284927 
L 369.153256 36.392234 
L 369.561113 51.125618 
L 369.968971 52.839369 
L 370.376828 48.023242 
L 370.784686 38.668275 
L 371.192543 52.670352 
L 371.6004 62.235544 
L 372.008258 65.523871 
L 372.416115 51.828132 
L 373.23183 47.029991 
L 373.639688 47.597753 
L 374.047545 44.238517 
L 374.455403 44.377344 
L 374.86326 46.14594 
L 375.271118 45.589963 
L 376.086833 38.207891 
L 376.49469 44.553941 
L 377.310405 50.157794 
L 378.533977 33.76122 
L 378.941835 34.437149 
L 379.349692 49.534336 
L 379.75755 52.876411 
L 380.165407 40.872745 
L 380.573265 33.233066 
L 380.981122 40.519357 
L 381.38898 54.218427 
L 381.796837 46.729535 
L 382.204695 43.276112 
L 382.612552 30.799605 
L 383.02041 32.591434 
L 383.428267 37.661944 
L 383.836125 39.939575 
L 384.243982 38.739624 
L 384.651839 38.269916 
L 385.059697 49.424855 
L 385.467554 53.082518 
L 385.875412 51.547168 
L 386.283269 43.58513 
L 386.691127 48.102193 
L 387.098984 50.189231 
L 387.914699 36.345196 
L 388.322557 42.194047 
L 388.730414 52.763859 
L 389.138272 53.198573 
L 389.546129 53.006784 
L 389.953987 46.344556 
L 390.361844 48.49483 
L 391.177559 57.409201 
L 391.585416 47.214696 
L 391.993274 40.220603 
L 392.401131 49.390994 
L 392.808989 50.1327 
L 393.216846 51.797424 
L 393.624704 41.779056 
L 394.032561 45.039512 
L 394.440419 46.818439 
L 394.848276 45.819176 
L 395.256134 48.672578 
L 395.663991 38.153872 
L 396.071849 49.459575 
L 396.479706 41.267268 
L 396.887564 53.81689 
L 397.295421 45.083057 
L 397.703278 45.124941 
L 398.111136 38.27883 
L 398.926851 48.389228 
L 399.334708 60.160742 
L 400.150423 57.054747 
L 400.558281 51.508066 
L 401.373996 46.626054 
L 401.781853 45.965505 
L 402.189711 44.383485 
L 402.597568 49.328633 
L 403.005426 50.553257 
L 403.413283 50.613507 
L 403.821141 50.967687 
L 404.228998 48.512768 
L 404.636855 47.539572 
L 405.044713 45.135681 
L 405.45257 50.132173 
L 405.860428 48.91291 
L 406.268285 48.798337 
L 407.084 72.576796 
L 407.491858 70.880841 
L 408.307573 55.022447 
L 408.71543 52.478377 
L 409.123288 53.569616 
L 409.531145 47.573662 
L 410.34686 63.905059 
L 410.754717 78.539171 
L 411.162575 74.437111 
L 411.570432 62.433678 
L 411.97829 59.351792 
L 412.386147 57.384739 
L 412.794005 69.964344 
L 413.201862 70.832707 
L 413.60972 73.964421 
L 414.017577 56.91264 
L 414.425435 52.111279 
L 414.833292 57.004441 
L 415.649007 72.947309 
L 416.056865 59.834005 
L 416.464722 54.618717 
L 416.87258 57.942692 
L 417.280437 73.461056 
L 417.688294 81.975523 
L 418.096152 79.628416 
L 418.504009 85.294198 
L 418.911867 74.320253 
L 419.319724 68.924606 
L 419.727582 58.442671 
L 420.135439 71.779636 
L 420.543297 68.424931 
L 420.951154 66.39723 
L 421.359012 58.129644 
L 421.766869 63.044261 
L 422.174727 77.085246 
L 422.582584 82.693219 
L 422.990442 81.387337 
L 423.806156 70.27748 
L 424.214014 71.748833 
L 424.621871 82.576764 
L 425.029729 85.590198 
L 425.845444 57.014612 
L 426.253301 66.65195 
L 426.661159 79.463632 
L 427.069016 80.970986 
L 427.884731 73.576771 
L 428.292589 68.557798 
L 428.700446 61.621918 
L 429.108304 68.382286 
L 429.516161 69.554202 
L 429.924019 79.029264 
L 430.331876 73.585186 
L 430.739733 85.494528 
L 431.147591 75.002847 
L 431.555448 83.846915 
L 431.963306 82.776528 
L 432.371163 86.803552 
L 432.779021 76.511007 
L 433.186878 81.175455 
L 433.594736 74.141046 
L 434.002593 78.475782 
L 434.410451 75.018502 
L 434.818308 83.62868 
L 435.226166 76.250309 
L 436.449738 91.962376 
L 437.265453 99.954173 
L 437.67331 94.648933 
L 438.081168 86.599983 
L 438.489025 89.707407 
L 438.896883 94.061461 
L 439.30474 88.260943 
L 439.712598 92.325762 
L 440.120455 97.825427 
L 440.528313 98.681251 
L 440.93617 90.2302 
L 441.344028 84.515827 
L 441.751885 86.655545 
L 442.159743 85.627464 
L 442.5676 88.271333 
L 442.975458 92.266215 
L 443.383315 94.230452 
L 443.791172 93.025873 
L 444.19903 92.762178 
L 444.606887 96.645507 
L 445.014745 97.014054 
L 445.422602 100.804871 
L 445.83046 99.664897 
L 446.238317 108.474973 
L 446.646175 106.498101 
L 447.054032 105.410531 
L 447.869747 92.071288 
L 448.277605 95.546046 
L 448.685462 100.152736 
L 449.09332 108.26562 
L 449.501177 107.87916 
L 449.909035 107.840561 
L 450.316892 107.238957 
L 450.724749 107.545842 
L 451.132607 111.312178 
L 451.540464 104.349427 
L 451.948322 105.549125 
L 452.356179 105.855907 
L 452.764037 108.445073 
L 453.171894 104.542136 
L 453.579752 110.134542 
L 453.987609 117.67537 
L 454.395467 104.458602 
L 455.211182 102.433369 
L 455.619039 109.551136 
L 456.026897 111.625794 
L 456.434754 110.953502 
L 456.842611 125.060765 
L 457.250469 119.431971 
L 457.658326 127.536329 
L 458.066184 119.574412 
L 458.474041 123.109692 
L 458.881899 120.87593 
L 459.289756 116.851724 
L 459.697614 119.676638 
L 460.105471 113.331499 
L 460.513329 110.460034 
L 460.921186 113.957005 
L 461.329044 124.001044 
L 461.736901 122.40344 
L 462.144759 111.441705 
L 462.552616 107.016345 
L 463.368331 117.899964 
L 463.776188 115.296133 
L 464.184046 113.448108 
L 464.591903 120.567068 
L 464.591903 120.567068 
" clip-path="url(#p42796b4a0b)" style="fill: none; stroke: #ff7f0e; stroke-width: 1.5; stroke-linecap: square"/>
   </g>
   <g id="line2d_16">
    <path d="M 58.773722 85.668802 
L 59.181579 88.318036 
L 59.589437 94.689743 
L 59.997294 96.569541 
L 60.405151 94.799812 
L 60.813009 97.910015 
L 61.220866 90.12195 
L 61.628724 90.501508 
L 62.036581 89.490808 
L 62.444439 88.927327 
L 62.852296 94.004487 
L 63.260154 94.454349 
L 64.075869 81.993855 
L 64.891584 79.301141 
L 65.299441 79.619728 
L 65.707299 85.188171 
L 66.930871 74.162995 
L 67.338728 68.524024 
L 67.746586 67.482218 
L 68.154443 67.47354 
L 68.562301 67.859121 
L 69.378016 73.87326 
L 69.785873 75.567004 
L 70.193731 76.284074 
L 71.009446 80.54305 
L 71.417303 79.993787 
L 71.825161 77.351021 
L 72.233018 72.572456 
L 73.048733 69.163208 
L 73.864448 79.263229 
L 74.272305 75.209909 
L 74.680163 77.741649 
L 75.08802 76.842093 
L 75.495878 75.666784 
L 75.903735 72.361972 
L 76.311593 72.803568 
L 76.71945 72.064765 
L 77.127308 70.703945 
L 77.535165 77.28164 
L 78.35088 70.514904 
L 78.758738 68.998105 
L 79.166595 63.886955 
L 79.574453 65.704685 
L 79.98231 68.459199 
L 80.390167 70.340804 
L 80.798025 72.831693 
L 81.205882 70.510141 
L 82.429455 57.816879 
L 82.837312 60.235051 
L 83.24517 58.035273 
L 83.653027 53.728854 
L 84.060885 55.820178 
L 84.468742 46.82143 
L 84.8766 48.595995 
L 85.692315 53.244593 
L 86.100172 61.123132 
L 86.508029 58.829652 
L 86.915887 59.757302 
L 87.323744 57.555578 
L 87.731602 54.371657 
L 88.139459 56.150312 
L 88.547317 53.892871 
L 88.955174 56.471251 
L 89.363032 61.825923 
L 89.770889 64.440613 
L 90.178747 65.510252 
L 90.586604 64.392768 
L 90.994462 61.857203 
L 91.402319 61.094553 
L 91.810177 59.426372 
L 92.218034 56.907887 
L 92.625892 50.304082 
L 93.033749 48.36505 
L 93.441606 47.514342 
L 93.849464 49.734549 
L 94.257321 54.95114 
L 94.665179 53.241825 
L 95.073036 59.162569 
L 95.480894 59.731093 
L 95.888751 53.405553 
L 96.296609 53.411643 
L 96.704466 55.106689 
L 97.112324 51.492694 
L 97.928039 53.464734 
L 98.335896 45.228434 
L 98.743754 44.714812 
L 99.151611 43.732767 
L 99.559469 44.677996 
L 99.967326 46.504788 
L 100.375183 45.820754 
L 100.783041 47.24229 
L 101.598756 44.027176 
L 102.006613 42.474246 
L 102.822328 44.255223 
L 103.638043 51.635951 
L 104.045901 52.930797 
L 104.453758 50.747509 
L 104.861616 45.02536 
L 105.677331 43.606857 
L 106.085188 43.285894 
L 106.493045 44.964812 
L 106.900903 44.403558 
L 107.30876 42.907397 
L 107.716618 42.136706 
L 108.124475 39.169293 
L 108.532333 38.754935 
L 108.94019 37.111496 
L 109.348048 37.848396 
L 110.163763 33.743643 
L 110.57162 39.051594 
L 110.979478 42.810367 
L 111.387335 47.902742 
L 111.795193 46.201998 
L 112.610908 36.372982 
L 113.018765 33.034675 
L 113.426622 37.013831 
L 113.83448 43.129499 
L 114.242337 42.150864 
L 114.650195 45.892265 
L 115.46591 40.334869 
L 115.873767 40.98815 
L 116.281625 42.426374 
L 116.689482 42.549025 
L 117.09734 36.662521 
L 117.505197 34.550639 
L 117.913055 31.361558 
L 118.320912 34.26875 
L 118.72877 40.17018 
L 119.136627 43.535828 
L 119.544484 43.304856 
L 119.952342 40.303125 
L 120.360199 39.607661 
L 120.768057 35.801176 
L 121.175914 42.937665 
L 121.583772 46.43169 
L 122.399487 50.281758 
L 123.215202 47.209579 
L 123.623059 44.146327 
L 124.030917 47.09753 
L 124.438774 41.601109 
L 124.846632 44.059971 
L 125.254489 43.721075 
L 125.662347 45.655812 
L 126.070204 50.478297 
L 126.478061 45.268903 
L 127.293776 39.683732 
L 127.701634 39.6141 
L 128.517349 42.572399 
L 129.333064 33.761202 
L 129.740921 35.463346 
L 130.148779 39.558106 
L 130.556636 45.307406 
L 130.964494 47.862285 
L 131.372351 52.301234 
L 132.188066 54.175955 
L 132.595924 53.261594 
L 133.003781 53.169377 
L 133.411638 55.306227 
L 133.819496 53.806997 
L 134.227353 50.060936 
L 134.635211 47.825975 
L 135.043068 41.337628 
L 135.450926 40.030518 
L 135.858783 38.300075 
L 136.266641 39.397007 
L 136.674498 38.922353 
L 137.082356 41.749601 
L 137.490213 49.388955 
L 137.898071 46.347812 
L 138.305928 47.766195 
L 139.5295 35.381812 
L 139.937358 38.1219 
L 140.345215 44.116022 
L 140.753073 45.201238 
L 141.16093 48.065666 
L 141.976645 40.403091 
L 142.384503 43.170875 
L 143.200218 53.499273 
L 143.608075 56.412386 
L 144.015933 54.22383 
L 144.42379 50.793893 
L 144.831648 50.186192 
L 145.239505 54.819638 
L 145.647363 56.491581 
L 146.05522 55.156133 
L 146.463077 59.565699 
L 146.870935 50.187391 
L 147.278792 48.693371 
L 147.68665 52.984509 
L 148.094507 46.171781 
L 148.502365 46.018428 
L 148.910222 47.121027 
L 149.31808 41.9594 
L 149.725937 44.502796 
L 150.133795 51.771577 
L 150.541652 53.532177 
L 150.94951 57.861145 
L 151.357367 57.572528 
L 151.765225 50.204865 
L 152.173082 49.280342 
L 152.580939 52.124778 
L 153.396654 66.767168 
L 153.804512 66.895821 
L 154.212369 64.767612 
L 154.620227 59.465811 
L 155.028084 56.065236 
L 155.435942 58.8263 
L 155.843799 58.698722 
L 156.251657 60.924133 
L 157.067372 61.407815 
L 157.475229 62.560034 
L 157.883087 62.480216 
L 158.290944 60.342914 
L 158.698802 55.363875 
L 159.106659 57.500312 
L 159.514516 54.852213 
L 160.330231 59.875278 
L 160.738089 57.051012 
L 161.553804 59.494784 
L 161.961661 63.009608 
L 162.369519 63.436709 
L 163.185234 74.006241 
L 163.593091 76.441463 
L 164.000949 77.206095 
L 164.408806 74.149694 
L 164.816664 68.542519 
L 165.224521 69.285555 
L 165.632379 71.096401 
L 166.040236 69.419041 
L 166.448093 71.743924 
L 166.855951 64.855643 
L 167.263808 64.409309 
L 167.671666 71.667109 
L 168.079523 72.177569 
L 168.487381 79.420416 
L 168.895238 78.923376 
L 169.303096 80.920898 
L 169.710953 81.491801 
L 170.118811 78.782789 
L 170.526668 82.720004 
L 170.934526 72.341555 
L 171.342383 72.607165 
L 171.750241 69.758794 
L 172.158098 63.453144 
L 172.565955 66.408298 
L 172.973813 64.555813 
L 173.789528 69.458218 
L 174.197385 71.103449 
L 174.605243 74.159526 
L 175.0131 73.23473 
L 175.420958 79.209337 
L 175.828815 81.747563 
L 176.236673 83.259828 
L 176.64453 87.00291 
L 177.052388 85.257822 
L 177.460245 86.189 
L 177.868103 85.689964 
L 178.27596 80.288335 
L 178.683818 79.817219 
L 179.091675 76.142877 
L 179.499532 74.721957 
L 179.90739 80.406976 
L 180.315247 81.291898 
L 180.723105 80.76486 
L 181.130962 81.263775 
L 181.53882 80.665445 
L 181.946677 83.228715 
L 182.354535 85.019267 
L 182.762392 89.746595 
L 183.17025 90.12466 
L 183.578107 85.676942 
L 183.985965 94.115172 
L 184.80168 96.646154 
L 185.209537 105.672633 
L 185.617395 100.689335 
L 186.025252 100.572772 
L 186.433109 103.464516 
L 186.840967 98.736199 
L 187.248824 95.858503 
L 187.656682 96.216106 
L 188.064539 93.693682 
L 188.472397 95.870354 
L 188.880254 96.75209 
L 189.288112 98.44556 
L 189.695969 98.868721 
L 190.103827 96.621287 
L 190.511684 99.801674 
L 190.919542 96.430483 
L 191.327399 97.15131 
L 191.735257 96.808601 
L 192.143114 101.65137 
L 192.550971 104.482287 
L 192.958829 104.836476 
L 193.366686 106.443395 
L 194.182401 102.223574 
L 194.590259 101.580396 
L 194.998116 102.284463 
L 195.405974 99.306573 
L 195.813831 100.152778 
L 196.221689 101.447742 
L 196.629546 104.190335 
L 197.037404 107.895908 
L 197.445261 108.108811 
L 197.853119 108.487736 
L 198.260976 103.057185 
L 198.668834 102.520996 
L 199.076691 100.387709 
L 199.484548 100.008597 
L 199.892406 106.314969 
L 200.300263 108.023517 
L 201.115978 116.942598 
L 201.523836 114.754635 
L 201.931693 113.552459 
L 202.339551 116.320157 
L 202.747408 115.587107 
L 203.155266 119.130057 
L 203.563123 121.204699 
L 203.970981 113.500623 
L 204.786696 102.383068 
L 205.194553 101.369985 
L 205.60241 107.286584 
L 206.010268 117.014449 
L 206.418125 123.521008 
L 206.825983 125.030394 
L 207.641698 116.766859 
L 208.049555 115.000249 
L 208.457413 109.017214 
L 208.86527 109.906153 
L 209.680985 108.126215 
L 210.088843 114.47891 
L 210.4967 117.471326 
L 210.904558 119.112731 
L 211.312415 124.1307 
L 211.720273 127.265409 
L 212.12813 128.269621 
L 212.535987 129.811886 
L 212.943845 125.070676 
L 213.351702 123.46408 
L 213.75956 125.898685 
L 214.167417 123.112848 
L 214.575275 125.845181 
L 214.983132 125.520296 
L 215.39099 124.572329 
L 215.798847 122.91828 
L 216.206705 125.476863 
L 217.02242 127.875465 
L 217.430277 134.442335 
L 217.838135 138.716502 
L 218.245992 138.390554 
L 218.65385 136.360148 
L 219.469564 126.622477 
L 219.877422 128.167404 
L 220.285279 128.553792 
L 221.100994 133.500241 
L 221.508852 133.706836 
L 221.916709 137.141634 
L 223.140282 131.082201 
L 223.548139 130.457423 
L 223.955997 130.804993 
L 224.363854 134.741122 
L 224.771712 132.92757 
L 225.179569 130.225488 
L 225.587426 133.256554 
L 225.995284 130.238956 
L 226.403141 133.498928 
L 226.810999 134.70459 
L 227.218856 132.887941 
L 227.626714 135.801404 
L 228.034571 136.877915 
L 228.442429 137.580541 
L 228.850286 140.748404 
L 229.258144 139.187312 
L 229.666001 138.243453 
L 230.073859 144.156512 
L 230.481716 144.424016 
L 230.889574 144.986517 
L 231.297431 144.301191 
L 232.113146 136.387324 
L 232.521003 136.311394 
L 232.928861 138.613885 
L 233.336718 137.430046 
L 233.744576 141.490387 
L 234.152433 137.229342 
L 234.560291 137.283331 
L 234.968148 135.623641 
L 235.376006 132.41096 
L 235.783863 135.577931 
L 236.191721 132.891667 
L 236.599578 134.009003 
L 237.007436 134.569826 
L 237.415293 137.921171 
L 237.823151 139.665212 
L 238.231008 145.402356 
L 238.638865 147.546844 
L 239.046723 141.360568 
L 239.45458 139.665278 
L 239.862438 138.720471 
L 240.270295 142.077361 
L 240.678153 143.968813 
L 241.08601 148.533684 
L 241.901725 144.36104 
L 242.309583 148.168164 
L 242.71744 147.350357 
L 243.125298 145.431938 
L 243.533155 140.408704 
L 243.941013 138.31017 
L 244.34887 137.980069 
L 244.756728 139.848857 
L 245.164585 143.736202 
L 245.9803 147.838768 
L 246.796015 142.893657 
L 247.203872 142.326075 
L 247.61173 139.002348 
L 248.427445 144.157198 
L 248.835302 139.424723 
L 250.058875 149.542154 
L 250.466732 151.787421 
L 250.87459 147.42997 
L 251.282447 145.681474 
L 251.690305 135.825275 
L 252.506019 127.481931 
L 252.913877 128.384158 
L 253.729592 134.148194 
L 254.137449 140.286604 
L 254.545307 139.021635 
L 254.953164 144.34315 
L 255.768879 151.0722 
L 256.176737 152.077652 
L 256.584594 151.852348 
L 256.992452 150.38982 
L 257.400309 147.523762 
L 257.808167 147.698197 
L 258.623881 147.383529 
L 259.439596 142.03485 
L 259.847454 137.801116 
L 260.255311 138.437676 
L 260.663169 137.635722 
L 261.071026 137.149103 
L 261.478884 141.893068 
L 261.886741 142.547605 
L 262.294599 147.279948 
L 262.702456 142.401667 
L 263.110314 142.777619 
L 263.518171 147.464714 
L 263.926029 142.264988 
L 264.333886 144.986788 
L 264.741744 140.804769 
L 265.149601 133.069156 
L 265.557458 135.531878 
L 265.965316 136.103556 
L 266.373173 140.923456 
L 267.188888 141.785672 
L 267.596746 142.472371 
L 268.004603 134.997393 
L 268.412461 134.729834 
L 268.820318 134.796816 
L 269.636033 139.653695 
L 270.043891 141.125289 
L 270.451748 138.591164 
L 270.859606 136.915309 
L 271.267463 142.507392 
L 271.67532 140.845376 
L 272.083178 145.886202 
L 272.491035 146.268689 
L 272.898893 138.082107 
L 273.30675 141.310925 
L 273.714608 134.26037 
L 274.122465 130.727277 
L 274.530323 132.94552 
L 274.93818 136.081055 
L 275.346038 141.406732 
L 275.753895 145.194394 
L 276.161753 145.144465 
L 276.977468 131.582144 
L 277.385325 129.899947 
L 278.20104 125.355724 
L 278.608897 124.9767 
L 279.016755 125.099056 
L 279.424612 131.709198 
L 279.83247 133.233616 
L 280.240327 139.428867 
L 280.648185 134.7414 
L 281.056042 131.577696 
L 281.4639 132.903967 
L 281.871757 129.522829 
L 282.279615 127.82179 
L 282.687472 120.815917 
L 283.09533 121.62287 
L 283.503187 118.003514 
L 283.911045 117.303142 
L 284.318902 127.232461 
L 284.72676 124.729998 
L 285.542474 133.822545 
L 286.358189 115.443228 
L 286.766047 111.64758 
L 287.173904 110.203644 
L 287.581762 113.997601 
L 287.989619 120.81449 
L 288.397477 120.573022 
L 288.805334 122.260638 
L 289.213192 121.152849 
L 290.028907 115.898408 
L 290.436764 114.296781 
L 290.844622 113.72402 
L 291.660336 119.421436 
L 292.068194 117.492565 
L 292.476051 120.432276 
L 292.883909 121.301705 
L 293.291766 119.927002 
L 293.699624 122.997965 
L 294.107481 125.045673 
L 294.515339 122.427215 
L 294.923196 123.58402 
L 295.331054 115.63768 
L 295.738911 111.874332 
L 296.146769 114.009014 
L 296.554626 110.57141 
L 296.962484 115.54495 
L 297.370341 114.658266 
L 297.778199 111.583703 
L 298.186056 116.029474 
L 298.593913 118.057253 
L 299.409628 115.313101 
L 299.817486 109.903209 
L 300.225343 107.429885 
L 300.633201 109.40265 
L 301.041058 108.348192 
L 301.448916 107.7237 
L 301.856773 109.641106 
L 302.264631 105.603407 
L 302.672488 108.94067 
L 303.080346 110.166917 
L 303.488203 105.753651 
L 303.896061 104.911788 
L 304.711775 96.344341 
L 305.119633 95.380557 
L 305.52749 101.231722 
L 305.935348 95.264279 
L 306.343205 101.565042 
L 306.751063 100.968959 
L 307.15892 96.849882 
L 307.566778 108.083815 
L 307.974635 101.988454 
L 308.79035 103.138898 
L 309.198208 92.61531 
L 309.606065 91.34023 
L 310.013923 91.598786 
L 310.42178 87.863418 
L 310.829638 90.595251 
L 311.237495 92.205406 
L 311.645352 88.523365 
L 312.05321 90.153248 
L 312.461067 89.269355 
L 313.276782 96.03288 
L 313.68464 94.124825 
L 314.092497 94.749665 
L 314.500355 91.048743 
L 314.908212 90.913166 
L 315.31607 93.50372 
L 315.723927 94.161048 
L 316.131785 93.02661 
L 316.539642 87.275358 
L 316.9475 83.922135 
L 317.355357 78.78676 
L 317.763215 79.750216 
L 318.171072 81.752605 
L 318.986787 87.835965 
L 319.394644 83.085858 
L 319.802502 83.011413 
L 320.210359 78.965085 
L 320.618217 80.29448 
L 321.026074 87.639245 
L 321.841789 84.704013 
L 322.249647 81.65053 
L 322.657504 81.586893 
L 323.065362 78.50076 
L 323.473219 79.347619 
L 323.881077 79.884658 
L 324.288934 78.156118 
L 324.696791 83.839372 
L 325.104649 84.211544 
L 325.512506 85.073627 
L 325.920364 82.96984 
L 326.328221 86.355141 
L 326.736079 84.604582 
L 327.143936 79.617232 
L 327.551794 78.855161 
L 327.959651 73.64464 
L 329.183224 80.123314 
L 329.591081 78.918392 
L 329.998939 77.350447 
L 330.814654 71.349367 
L 331.222511 75.082716 
L 331.630368 67.933147 
L 332.038226 73.431913 
L 332.446083 72.773622 
L 332.853941 71.086027 
L 333.261798 77.353582 
L 333.669656 70.637415 
L 334.077513 69.835361 
L 334.485371 67.855265 
L 334.893228 73.133116 
L 335.301086 76.922289 
L 335.708943 75.868875 
L 336.116801 78.311632 
L 336.524658 68.703702 
L 336.932516 67.159826 
L 337.340373 67.745327 
L 337.74823 60.787667 
L 338.156088 62.102999 
L 338.563945 59.135298 
L 338.971803 58.341175 
L 339.37966 53.241244 
L 339.787518 52.122926 
L 340.195375 54.365868 
L 340.603233 54.896661 
L 341.01109 57.501246 
L 341.418948 58.470394 
L 341.826805 58.353725 
L 342.234663 54.08488 
L 342.64252 59.378799 
L 343.050378 61.882833 
L 343.458235 52.800954 
L 343.866093 52.656263 
L 344.681807 43.987255 
L 345.089665 50.135607 
L 345.497522 49.325338 
L 345.90538 47.891568 
L 346.313237 48.64187 
L 346.721095 45.953052 
L 347.944667 58.868465 
L 348.352525 61.971885 
L 348.760382 61.447538 
L 349.16824 60.411097 
L 349.576097 57.520723 
L 349.983955 56.258877 
L 350.391812 52.389536 
L 350.79967 47.055994 
L 351.207527 43.437325 
L 351.615384 43.827857 
L 352.023242 43.954682 
L 352.431099 41.591423 
L 352.838957 41.71102 
L 353.246814 40.97585 
L 353.654672 42.312361 
L 354.062529 46.419079 
L 354.470387 47.920821 
L 354.878244 43.950355 
L 355.286102 47.349807 
L 355.693959 46.996973 
L 356.101817 46.098216 
L 356.509674 53.929024 
L 356.917532 54.251388 
L 357.325389 55.54549 
L 357.733246 55.598705 
L 358.141104 51.868053 
L 358.548961 45.369008 
L 358.956819 41.349422 
L 359.364676 40.964357 
L 359.772534 38.352016 
L 360.180391 42.670971 
L 360.588249 49.300632 
L 360.996106 48.661097 
L 361.403964 49.312086 
L 361.811821 50.507505 
L 362.219679 41.758733 
L 362.627536 38.261133 
L 363.035394 41.908495 
L 363.443251 41.414326 
L 363.851109 51.997116 
L 364.258966 56.297265 
L 364.666823 55.787103 
L 365.074681 56.693218 
L 365.482538 49.947775 
L 366.706111 40.341483 
L 367.113968 33.767159 
L 367.521826 34.538989 
L 367.929683 33.218742 
L 368.337541 27.340255 
L 368.745398 32.935203 
L 369.153256 34.729718 
L 369.968971 46.446483 
L 370.376828 46.392805 
L 370.784686 45.606332 
L 371.192543 49.303921 
L 371.6004 51.820903 
L 372.008258 56.816474 
L 372.416115 59.147872 
L 372.823973 51.900546 
L 373.23183 49.969243 
L 374.047545 44.360586 
L 374.455403 45.731618 
L 374.86326 45.062296 
L 375.271118 42.530153 
L 375.678975 44.533817 
L 376.086833 40.488384 
L 376.49469 41.214056 
L 376.902548 45.115734 
L 377.310405 44.34713 
L 377.718262 46.080765 
L 378.12612 42.259438 
L 378.533977 36.464347 
L 378.941835 36.194777 
L 379.349692 42.605769 
L 379.75755 43.454824 
L 380.165407 42.070706 
L 380.573265 44.275507 
L 380.981122 38.000983 
L 381.796837 46.904602 
L 382.612552 39.815256 
L 383.02041 34.304144 
L 383.428267 35.595725 
L 383.836125 35.206642 
L 385.059697 42.745265 
L 385.467554 46.690316 
L 385.875412 48.571202 
L 387.098984 47.361589 
L 387.506842 43.34378 
L 387.914699 43.128192 
L 388.322557 42.629499 
L 388.730414 43.458161 
L 389.546129 52.694916 
L 389.953987 47.591597 
L 390.361844 48.685878 
L 390.769701 52.671605 
L 391.177559 48.819799 
L 391.585416 50.603146 
L 392.401131 45.798615 
L 392.808989 46.159818 
L 393.216846 49.346965 
L 393.624704 46.085955 
L 394.032561 44.49686 
L 394.440419 47.564687 
L 394.848276 41.00678 
L 395.256134 48.838484 
L 395.663991 42.81337 
L 396.071849 42.388374 
L 396.479706 47.168294 
L 396.887564 43.775648 
L 397.295421 47.630434 
L 397.703278 45.330464 
L 398.111136 41.839797 
L 398.518993 42.404442 
L 398.926851 45.604606 
L 399.334708 49.830015 
L 399.742566 55.608198 
L 400.150423 55.696132 
L 400.558281 54.668149 
L 400.966138 50.748036 
L 401.373996 48.288762 
L 402.189711 44.485023 
L 402.597568 47.345587 
L 403.005426 47.860637 
L 403.413283 47.306627 
L 403.821141 52.388449 
L 404.228998 47.445915 
L 404.636855 46.621979 
L 405.044713 49.514768 
L 405.45257 45.074732 
L 406.268285 50.089765 
L 406.676143 53.462509 
L 407.084 62.268869 
L 407.491858 65.153942 
L 407.899715 65.487685 
L 408.307573 62.669162 
L 408.71543 54.171272 
L 409.123288 54.416902 
L 409.531145 50.209684 
L 409.939003 51.544704 
L 410.34686 60.230648 
L 410.754717 64.154682 
L 411.162575 70.416472 
L 411.570432 68.482763 
L 412.386147 59.334303 
L 412.794005 64.021234 
L 413.201862 66.745501 
L 413.60972 67.624839 
L 414.017577 66.062587 
L 414.425435 57.208117 
L 414.833292 59.15413 
L 415.24115 58.246654 
L 415.649007 64.3049 
L 416.056865 64.249089 
L 416.464722 58.121458 
L 416.87258 61.654069 
L 417.280437 62.940052 
L 418.096152 78.225672 
L 418.504009 81.755258 
L 418.911867 75.387925 
L 419.319724 74.009567 
L 419.727582 68.572 
L 420.135439 64.723977 
L 420.543297 68.533538 
L 420.951154 64.224573 
L 421.359012 64.204139 
L 421.766869 63.454451 
L 422.174727 67.931014 
L 422.990442 78.359042 
L 423.398299 78.830686 
L 423.806156 72.923984 
L 424.214014 73.434595 
L 424.621871 78.136507 
L 425.029729 76.805826 
L 425.437586 74.950078 
L 426.253301 66.29237 
L 426.661159 69.444855 
L 427.476874 78.10365 
L 427.884731 75.969362 
L 428.292589 70.354109 
L 428.700446 67.21913 
L 429.108304 68.150698 
L 429.516161 65.215346 
L 429.924019 72.6413 
L 430.331876 74.91159 
L 430.739733 76.452596 
L 431.147591 79.040574 
L 431.555448 78.998187 
L 431.963306 83.163156 
L 432.371163 80.728905 
L 432.779021 80.971696 
L 433.186878 82.333892 
L 433.594736 74.812254 
L 434.002593 76.365649 
L 434.410451 79.9174 
L 434.818308 74.171175 
L 435.226166 79.047735 
L 435.634023 81.732063 
L 436.041881 81.895335 
L 436.449738 86.40523 
L 436.857596 94.779155 
L 437.265453 93.984313 
L 437.67331 93.5473 
L 438.081168 94.198787 
L 438.489025 89.604493 
L 438.896883 90.004847 
L 439.30474 89.379803 
L 439.712598 91.571217 
L 440.120455 94.851681 
L 440.528313 92.54407 
L 440.93617 94.345076 
L 441.344028 90.69527 
L 441.751885 85.523096 
L 442.5676 86.914042 
L 442.975458 88.572347 
L 443.383315 91.09067 
L 443.791172 92.071077 
L 444.19903 92.500962 
L 444.606887 94.83066 
L 445.014745 94.204852 
L 445.422602 97.915228 
L 445.83046 99.618968 
L 446.238317 102.072349 
L 446.646175 105.324957 
L 447.054032 103.63495 
L 447.46189 102.77445 
L 447.869747 96.157327 
L 448.277605 96.219535 
L 448.685462 97.577362 
L 449.09332 100.065947 
L 449.501177 106.08261 
L 449.909035 106.11072 
L 450.316892 106.751033 
L 450.724749 107.708212 
L 451.132607 108.353271 
L 451.540464 105.139922 
L 451.948322 107.164665 
L 452.356179 106.724984 
L 452.764037 102.867722 
L 453.171894 107.815764 
L 453.579752 108.338307 
L 453.987609 109.950399 
L 454.395467 107.264163 
L 454.803324 108.226015 
L 455.619039 101.719301 
L 456.026897 112.000941 
L 456.434754 107.853198 
L 456.842611 116.77804 
L 457.250469 120.381893 
L 457.658326 118.370344 
L 458.066184 125.906898 
L 458.474041 119.971356 
L 458.881899 120.501709 
L 459.289756 120.499508 
L 459.697614 118.158054 
L 460.105471 114.809421 
L 460.513329 113.613716 
L 461.329044 115.951942 
L 461.736901 118.943578 
L 462.552616 112.983445 
L 462.960474 112.737202 
L 463.368331 111.55317 
L 464.184046 116.210754 
L 464.591903 116.236063 
L 464.591903 116.236063 
" clip-path="url(#p42796b4a0b)" style="fill: none; stroke: #2ca02c; stroke-width: 1.5; stroke-linecap: square"/>
   </g>
   <g id="line2d_17">
    <path d="M 424.214014 173.52 
L 424.214014 7.2 
" clip-path="url(#p42796b4a0b)" style="fill: none; stroke-dasharray: 5.55,2.4; stroke-dashoffset: 0; stroke: #000000; stroke-width: 1.5"/>
   </g>
   <g id="patch_3">
    <path d="M 38.482813 173.52 
L 38.482813 7.2 
" style="fill: none; stroke: #000000; stroke-width: 0.8; stroke-linejoin: miter; stroke-linecap: square"/>
   </g>
   <g id="patch_4">
    <path d="M 484.882812 173.52 
L 484.882812 7.2 
" style="fill: none; stroke: #000000; stroke-width: 0.8; stroke-linejoin: miter; stroke-linecap: square"/>
   </g>
   <g id="patch_5">
    <path d="M 38.482813 173.52 
L 484.882812 173.52 
" style="fill: none; stroke: #000000; stroke-width: 0.8; stroke-linejoin: miter; stroke-linecap: square"/>
   </g>
   <g id="patch_6">
    <path d="M 38.482813 7.2 
L 484.882812 7.2 
" style="fill: none; stroke: #000000; stroke-width: 0.8; stroke-linejoin: miter; stroke-linecap: square"/>
   </g>
   <g id="legend_1">
    <g id="patch_7">
     <path d="M 44.082813 169.52 
L 110.657813 169.52 
Q 112.257813 169.52 112.257813 167.92 
L 112.257813 121.73375 
Q 112.257813 120.13375 110.657813 120.13375 
L 44.082813 120.13375 
Q 42.482813 120.13375 42.482813 121.73375 
L 42.482813 167.92 
Q 42.482813 169.52 44.082813 169.52 
z
" style="fill: #ffffff; opacity: 0.8; stroke: #cccccc; stroke-linejoin: miter"/>
    </g>
    <g id="line2d_18">
     <path d="M 45.682813 126.6125 
L 53.682813 126.6125 
L 61.682813 126.6125 
" style="fill: none; stroke: #1f77b4; stroke-width: 1.5; stroke-linecap: square"/>
    </g>
    <g id="text_14">
     <!-- $y$ -->
     <g transform="translate(68.082813 129.4125) scale(0.08 -0.08)">
      <defs>
       <path id="DejaVuSans-Oblique-79" d="M 1588 -325 
Q 1188 -997 936 -1164 
Q 684 -1331 294 -1331 
L -159 -1331 
L -63 -850 
L 269 -850 
Q 509 -850 678 -719 
Q 847 -588 1056 -206 
L 1234 128 
L 459 3500 
L 1069 3500 
L 1650 819 
L 3256 3500 
L 3859 3500 
L 1588 -325 
z
" transform="scale(0.015625)"/>
      </defs>
      <use xlink:href="#DejaVuSans-Oblique-79" transform="translate(0 0.3125)"/>
     </g>
    </g>
    <g id="line2d_19">
     <path d="M 45.682813 138.37125 
L 53.682813 138.37125 
L 61.682813 138.37125 
" style="fill: none; stroke: #ff7f0e; stroke-width: 1.5; stroke-linecap: square"/>
    </g>
    <g id="text_15">
     <!-- 4th-order -->
     <g transform="translate(68.082813 141.17125) scale(0.08 -0.08)">
      <defs>
       <path id="DejaVuSans-74" d="M 1172 4494 
L 1172 3500 
L 2356 3500 
L 2356 3053 
L 1172 3053 
L 1172 1153 
Q 1172 725 1289 603 
Q 1406 481 1766 481 
L 2356 481 
L 2356 0 
L 1766 0 
Q 1100 0 847 248 
Q 594 497 594 1153 
L 594 3053 
L 172 3053 
L 172 3500 
L 594 3500 
L 594 4494 
L 1172 4494 
z
" transform="scale(0.015625)"/>
       <path id="DejaVuSans-68" d="M 3513 2113 
L 3513 0 
L 2938 0 
L 2938 2094 
Q 2938 2591 2744 2837 
Q 2550 3084 2163 3084 
Q 1697 3084 1428 2787 
Q 1159 2491 1159 1978 
L 1159 0 
L 581 0 
L 581 4863 
L 1159 4863 
L 1159 2956 
Q 1366 3272 1645 3428 
Q 1925 3584 2291 3584 
Q 2894 3584 3203 3211 
Q 3513 2838 3513 2113 
z
" transform="scale(0.015625)"/>
       <path id="DejaVuSans-2d" d="M 313 2009 
L 1997 2009 
L 1997 1497 
L 313 1497 
L 313 2009 
z
" transform="scale(0.015625)"/>
       <path id="DejaVuSans-6f" d="M 1959 3097 
Q 1497 3097 1228 2736 
Q 959 2375 959 1747 
Q 959 1119 1226 758 
Q 1494 397 1959 397 
Q 2419 397 2687 759 
Q 2956 1122 2956 1747 
Q 2956 2369 2687 2733 
Q 2419 3097 1959 3097 
z
M 1959 3584 
Q 2709 3584 3137 3096 
Q 3566 2609 3566 1747 
Q 3566 888 3137 398 
Q 2709 -91 1959 -91 
Q 1206 -91 779 398 
Q 353 888 353 1747 
Q 353 2609 779 3096 
Q 1206 3584 1959 3584 
z
" transform="scale(0.015625)"/>
       <path id="DejaVuSans-72" d="M 2631 2963 
Q 2534 3019 2420 3045 
Q 2306 3072 2169 3072 
Q 1681 3072 1420 2755 
Q 1159 2438 1159 1844 
L 1159 0 
L 581 0 
L 581 3500 
L 1159 3500 
L 1159 2956 
Q 1341 3275 1631 3429 
Q 1922 3584 2338 3584 
Q 2397 3584 2469 3576 
Q 2541 3569 2628 3553 
L 2631 2963 
z
" transform="scale(0.015625)"/>
       <path id="DejaVuSans-64" d="M 2906 2969 
L 2906 4863 
L 3481 4863 
L 3481 0 
L 2906 0 
L 2906 525 
Q 2725 213 2448 61 
Q 2172 -91 1784 -91 
Q 1150 -91 751 415 
Q 353 922 353 1747 
Q 353 2572 751 3078 
Q 1150 3584 1784 3584 
Q 2172 3584 2448 3432 
Q 2725 3281 2906 2969 
z
M 947 1747 
Q 947 1113 1208 752 
Q 1469 391 1925 391 
Q 2381 391 2643 752 
Q 2906 1113 2906 1747 
Q 2906 2381 2643 2742 
Q 2381 3103 1925 3103 
Q 1469 3103 1208 2742 
Q 947 2381 947 1747 
z
" transform="scale(0.015625)"/>
       <path id="DejaVuSans-65" d="M 3597 1894 
L 3597 1613 
L 953 1613 
Q 991 1019 1311 708 
Q 1631 397 2203 397 
Q 2534 397 2845 478 
Q 3156 559 3463 722 
L 3463 178 
Q 3153 47 2828 -22 
Q 2503 -91 2169 -91 
Q 1331 -91 842 396 
Q 353 884 353 1716 
Q 353 2575 817 3079 
Q 1281 3584 2069 3584 
Q 2775 3584 3186 3129 
Q 3597 2675 3597 1894 
z
M 3022 2063 
Q 3016 2534 2758 2815 
Q 2500 3097 2075 3097 
Q 1594 3097 1305 2825 
Q 1016 2553 972 2059 
L 3022 2063 
z
" transform="scale(0.015625)"/>
      </defs>
      <use xlink:href="#DejaVuSans-34"/>
      <use xlink:href="#DejaVuSans-74" x="63.623047"/>
      <use xlink:href="#DejaVuSans-68" x="102.832031"/>
      <use xlink:href="#DejaVuSans-2d" x="166.210938"/>
      <use xlink:href="#DejaVuSans-6f" x="204.169922"/>
      <use xlink:href="#DejaVuSans-72" x="265.351562"/>
      <use xlink:href="#DejaVuSans-64" x="304.714844"/>
      <use xlink:href="#DejaVuSans-65" x="368.191406"/>
      <use xlink:href="#DejaVuSans-72" x="429.714844"/>
     </g>
    </g>
    <g id="line2d_20">
     <path d="M 45.682813 150.11375 
L 53.682813 150.11375 
L 61.682813 150.11375 
" style="fill: none; stroke: #2ca02c; stroke-width: 1.5; stroke-linecap: square"/>
    </g>
    <g id="text_16">
     <!-- baseline -->
     <g transform="translate(68.082813 152.91375) scale(0.08 -0.08)">
      <defs>
       <path id="DejaVuSans-62" d="M 3116 1747 
Q 3116 2381 2855 2742 
Q 2594 3103 2138 3103 
Q 1681 3103 1420 2742 
Q 1159 2381 1159 1747 
Q 1159 1113 1420 752 
Q 1681 391 2138 391 
Q 2594 391 2855 752 
Q 3116 1113 3116 1747 
z
M 1159 2969 
Q 1341 3281 1617 3432 
Q 1894 3584 2278 3584 
Q 2916 3584 3314 3078 
Q 3713 2572 3713 1747 
Q 3713 922 3314 415 
Q 2916 -91 2278 -91 
Q 1894 -91 1617 61 
Q 1341 213 1159 525 
L 1159 0 
L 581 0 
L 581 4863 
L 1159 4863 
L 1159 2969 
z
" transform="scale(0.015625)"/>
       <path id="DejaVuSans-61" d="M 2194 1759 
Q 1497 1759 1228 1600 
Q 959 1441 959 1056 
Q 959 750 1161 570 
Q 1363 391 1709 391 
Q 2188 391 2477 730 
Q 2766 1069 2766 1631 
L 2766 1759 
L 2194 1759 
z
M 3341 1997 
L 3341 0 
L 2766 0 
L 2766 531 
Q 2569 213 2275 61 
Q 1981 -91 1556 -91 
Q 1019 -91 701 211 
Q 384 513 384 1019 
Q 384 1609 779 1909 
Q 1175 2209 1959 2209 
L 2766 2209 
L 2766 2266 
Q 2766 2663 2505 2880 
Q 2244 3097 1772 3097 
Q 1472 3097 1187 3025 
Q 903 2953 641 2809 
L 641 3341 
Q 956 3463 1253 3523 
Q 1550 3584 1831 3584 
Q 2591 3584 2966 3190 
Q 3341 2797 3341 1997 
z
" transform="scale(0.015625)"/>
       <path id="DejaVuSans-73" d="M 2834 3397 
L 2834 2853 
Q 2591 2978 2328 3040 
Q 2066 3103 1784 3103 
Q 1356 3103 1142 2972 
Q 928 2841 928 2578 
Q 928 2378 1081 2264 
Q 1234 2150 1697 2047 
L 1894 2003 
Q 2506 1872 2764 1633 
Q 3022 1394 3022 966 
Q 3022 478 2636 193 
Q 2250 -91 1575 -91 
Q 1294 -91 989 -36 
Q 684 19 347 128 
L 347 722 
Q 666 556 975 473 
Q 1284 391 1588 391 
Q 1994 391 2212 530 
Q 2431 669 2431 922 
Q 2431 1156 2273 1281 
Q 2116 1406 1581 1522 
L 1381 1569 
Q 847 1681 609 1914 
Q 372 2147 372 2553 
Q 372 3047 722 3315 
Q 1072 3584 1716 3584 
Q 2034 3584 2315 3537 
Q 2597 3491 2834 3397 
z
" transform="scale(0.015625)"/>
       <path id="DejaVuSans-6c" d="M 603 4863 
L 1178 4863 
L 1178 0 
L 603 0 
L 603 4863 
z
" transform="scale(0.015625)"/>
       <path id="DejaVuSans-69" d="M 603 3500 
L 1178 3500 
L 1178 0 
L 603 0 
L 603 3500 
z
M 603 4863 
L 1178 4863 
L 1178 4134 
L 603 4134 
L 603 4863 
z
" transform="scale(0.015625)"/>
       <path id="DejaVuSans-6e" d="M 3513 2113 
L 3513 0 
L 2938 0 
L 2938 2094 
Q 2938 2591 2744 2837 
Q 2550 3084 2163 3084 
Q 1697 3084 1428 2787 
Q 1159 2491 1159 1978 
L 1159 0 
L 581 0 
L 581 3500 
L 1159 3500 
L 1159 2956 
Q 1366 3272 1645 3428 
Q 1925 3584 2291 3584 
Q 2894 3584 3203 3211 
Q 3513 2838 3513 2113 
z
" transform="scale(0.015625)"/>
      </defs>
      <use xlink:href="#DejaVuSans-62"/>
      <use xlink:href="#DejaVuSans-61" x="63.476562"/>
      <use xlink:href="#DejaVuSans-73" x="124.755859"/>
      <use xlink:href="#DejaVuSans-65" x="176.855469"/>
      <use xlink:href="#DejaVuSans-6c" x="238.378906"/>
      <use xlink:href="#DejaVuSans-69" x="266.162109"/>
      <use xlink:href="#DejaVuSans-6e" x="293.945312"/>
      <use xlink:href="#DejaVuSans-65" x="357.324219"/>
     </g>
    </g>
    <g id="line2d_21">
     <path d="M 45.682813 161.85625 
L 53.682813 161.85625 
L 61.682813 161.85625 
" style="fill: none; stroke-dasharray: 5.55,2.4; stroke-dashoffset: 0; stroke: #000000; stroke-width: 1.5"/>
    </g>
    <g id="text_17">
     <!-- [test split] -->
     <g transform="translate(68.082813 164.65625) scale(0.08 -0.08)">
      <defs>
       <path id="DejaVuSans-5b" d="M 550 4863 
L 1875 4863 
L 1875 4416 
L 1125 4416 
L 1125 -397 
L 1875 -397 
L 1875 -844 
L 550 -844 
L 550 4863 
z
" transform="scale(0.015625)"/>
       <path id="DejaVuSans-20" transform="scale(0.015625)"/>
       <path id="DejaVuSans-70" d="M 1159 525 
L 1159 -1331 
L 581 -1331 
L 581 3500 
L 1159 3500 
L 1159 2969 
Q 1341 3281 1617 3432 
Q 1894 3584 2278 3584 
Q 2916 3584 3314 3078 
Q 3713 2572 3713 1747 
Q 3713 922 3314 415 
Q 2916 -91 2278 -91 
Q 1894 -91 1617 61 
Q 1341 213 1159 525 
z
M 3116 1747 
Q 3116 2381 2855 2742 
Q 2594 3103 2138 3103 
Q 1681 3103 1420 2742 
Q 1159 2381 1159 1747 
Q 1159 1113 1420 752 
Q 1681 391 2138 391 
Q 2594 391 2855 752 
Q 3116 1113 3116 1747 
z
" transform="scale(0.015625)"/>
       <path id="DejaVuSans-5d" d="M 1947 4863 
L 1947 -844 
L 622 -844 
L 622 -397 
L 1369 -397 
L 1369 4416 
L 622 4416 
L 622 4863 
L 1947 4863 
z
" transform="scale(0.015625)"/>
      </defs>
      <use xlink:href="#DejaVuSans-5b"/>
      <use xlink:href="#DejaVuSans-74" x="39.013672"/>
      <use xlink:href="#DejaVuSans-65" x="78.222656"/>
      <use xlink:href="#DejaVuSans-73" x="139.746094"/>
      <use xlink:href="#DejaVuSans-74" x="191.845703"/>
      <use xlink:href="#DejaVuSans-20" x="231.054688"/>
      <use xlink:href="#DejaVuSans-73" x="262.841797"/>
      <use xlink:href="#DejaVuSans-70" x="314.941406"/>
      <use xlink:href="#DejaVuSans-6c" x="378.417969"/>
      <use xlink:href="#DejaVuSans-69" x="406.201172"/>
      <use xlink:href="#DejaVuSans-74" x="433.984375"/>
      <use xlink:href="#DejaVuSans-5d" x="473.193359"/>
     </g>
    </g>
   </g>
  </g>
 </g>
 <defs>
  <clipPath id="p42796b4a0b">
   <rect x="38.482813" y="7.2" width="446.4" height="166.32"/>
  </clipPath>
 </defs>
</svg>