<?xml version="1.0" encoding="UTF-8"?>
<svg xmlns="http://www.w3.org/2000/svg" xmlns:xlink="http://www.w3.org/1999/xlink" width="235pt" height="129pt" viewBox="0 0 235 129" version="1.1">
<g id="surface1">
<path style="fill-rule:nonzero;fill:rgb(69.803922%,85.098039%,100%);fill-opacity:1;stroke-width:1;stroke-linecap:round;stroke-linejoin:round;stroke:rgb(0%,0%,0%);stroke-opacity:1;stroke-miterlimit:10;" d="M 72.28125 111.1 L 98.28125 111.1 L 98.28125 131.1 L 72.28125 131.1 Z M 72.28125 111.1 " transform="matrix(1.25,0,0,1.25,-16.25,-86.25)"/>
<path style=" stroke:none;fill-rule:nonzero;fill:rgb(0%,0%,0%);fill-opacity:1;" d="M 87.324219 65.671875 C 86.71875 66.433594 86.582031 66.570312 86.40625 66.570312 C 86.289062 66.570312 86.210938 66.492188 86.210938 66.375 C 86.210938 66.238281 86.40625 65.554688 86.582031 64.96875 C 86.933594 63.914062 87.128906 63.074219 87.128906 62.800781 C 87.128906 62.371094 86.914062 62.039062 86.40625 62.039062 C 85.703125 62.039062 84.824219 62.761719 83.808594 64.421875 L 85.175781 59.382812 L 85.097656 59.324219 C 84.433594 59.460938 84.003906 59.539062 83.320312 59.617188 L 83.320312 59.792969 L 83.632812 59.792969 C 83.828125 59.792969 84.101562 59.871094 84.101562 60.066406 C 84.101562 60.222656 84.042969 60.417969 83.945312 60.769531 L 82.304688 67 L 83.144531 67 C 83.59375 65.261719 83.769531 64.871094 84.21875 64.1875 C 84.804688 63.289062 85.527344 62.605469 85.9375 62.605469 C 86.191406 62.605469 86.25 62.722656 86.25 62.898438 C 86.25 62.9375 86.210938 63.09375 86.171875 63.269531 L 85.546875 65.59375 C 85.410156 66.140625 85.332031 66.492188 85.332031 66.628906 C 85.332031 66.921875 85.527344 67.097656 85.820312 67.097656 C 86.40625 67.097656 86.777344 66.804688 87.460938 65.828125 Z M 87.324219 65.671875 "/>
<path style=" stroke:none;fill-rule:nonzero;fill:rgb(0%,0%,0%);fill-opacity:1;" d="M 89.941406 67.546875 L 89.335938 67.546875 L 89.550781 66.765625 C 89.550781 66.746094 89.550781 66.707031 89.550781 66.707031 C 89.550781 66.667969 89.53125 66.648438 89.492188 66.648438 C 89.453125 66.648438 89.414062 66.667969 89.375 66.726562 C 89.101562 67.136719 88.613281 67.488281 88.378906 67.546875 C 88.203125 67.585938 88.144531 67.644531 88.144531 67.742188 C 88.144531 67.742188 88.144531 67.761719 88.144531 67.78125 L 88.710938 67.78125 L 88.125 70.007812 C 88.066406 70.242188 88.007812 70.476562 88.007812 70.554688 C 88.007812 70.75 88.144531 70.828125 88.339844 70.828125 C 88.730469 70.828125 88.964844 70.613281 89.414062 69.929688 L 89.316406 69.871094 C 88.945312 70.339844 88.828125 70.457031 88.710938 70.457031 C 88.652344 70.457031 88.59375 70.4375 88.59375 70.339844 C 88.59375 70.320312 88.613281 70.261719 88.613281 70.242188 L 89.257812 67.78125 L 89.902344 67.78125 Z M 89.941406 67.546875 "/>
<path style=" stroke:none;fill-rule:nonzero;fill:rgb(0%,0%,0%);fill-opacity:1;" d="M 94.230469 69.109375 L 94.230469 68.601562 L 90.441406 68.601562 L 90.441406 69.109375 Z M 94.230469 69.109375 "/>
<path style=" stroke:none;fill-rule:nonzero;fill:rgb(0%,0%,0%);fill-opacity:1;" d="M 97.808594 70.75 L 97.808594 70.632812 C 97.242188 70.632812 97.105469 70.496094 97.105469 70.183594 L 97.105469 65.710938 L 97.027344 65.671875 L 95.699219 66.355469 L 95.699219 66.472656 L 95.894531 66.394531 C 96.03125 66.335938 96.148438 66.296875 96.226562 66.296875 C 96.382812 66.296875 96.460938 66.414062 96.460938 66.667969 L 96.460938 70.046875 C 96.460938 70.457031 96.304688 70.613281 95.738281 70.632812 L 95.738281 70.75 Z M 97.808594 70.75 "/>
<path style="fill-rule:nonzero;fill:rgb(69.803922%,85.098039%,100%);fill-opacity:1;stroke-width:1;stroke-linecap:round;stroke-linejoin:round;stroke:rgb(0%,0%,0%);stroke-opacity:1;stroke-miterlimit:10;" d="M 122.89375 111.1 L 148.89375 111.1 L 148.89375 131.1 L 122.89375 131.1 Z M 122.89375 111.1 " transform="matrix(1.25,0,0,1.25,-16.25,-86.25)"/>
<path style=" stroke:none;fill-rule:nonzero;fill:rgb(0%,0%,0%);fill-opacity:1;" d="M 154.824219 65.046875 C 154.21875 65.808594 154.082031 65.945312 153.90625 65.945312 C 153.789062 65.945312 153.710938 65.867188 153.710938 65.75 C 153.710938 65.613281 153.90625 64.929688 154.082031 64.34375 C 154.433594 63.289062 154.628906 62.449219 154.628906 62.175781 C 154.628906 61.746094 154.414062 61.414062 153.90625 61.414062 C 153.203125 61.414062 152.324219 62.136719 151.308594 63.796875 L 152.675781 58.757812 L 152.597656 58.699219 C 151.933594 58.835938 151.503906 58.914062 150.820312 58.992188 L 150.820312 59.167969 L 151.132812 59.167969 C 151.328125 59.167969 151.601562 59.246094 151.601562 59.441406 C 151.601562 59.597656 151.542969 59.792969 151.445312 60.144531 L 149.804688 66.375 L 150.644531 66.375 C 151.09375 64.636719 151.269531 64.246094 151.71875 63.5625 C 152.304688 62.664062 153.027344 61.980469 153.4375 61.980469 C 153.691406 61.980469 153.75 62.097656 153.75 62.273438 C 153.75 62.3125 153.710938 62.46875 153.671875 62.644531 L 153.046875 64.96875 C 152.910156 65.515625 152.832031 65.867188 152.832031 66.003906 C 152.832031 66.296875 153.027344 66.472656 153.320312 66.472656 C 153.90625 66.472656 154.277344 66.179688 154.960938 65.203125 Z M 154.824219 65.046875 "/>
<path style=" stroke:none;fill-rule:nonzero;fill:rgb(0%,0%,0%);fill-opacity:1;" d="M 157.8125 67.625 L 157.109375 67.625 L 157.34375 66.726562 C 157.363281 66.707031 157.363281 66.667969 157.363281 66.667969 C 157.363281 66.628906 157.324219 66.589844 157.285156 66.589844 C 157.246094 66.589844 157.1875 66.628906 157.148438 66.667969 C 156.835938 67.15625 156.269531 67.585938 155.996094 67.644531 C 155.78125 67.683594 155.703125 67.761719 155.703125 67.859375 C 155.703125 67.859375 155.703125 67.878906 155.722656 67.917969 L 156.367188 67.917969 L 155.683594 70.496094 C 155.625 70.789062 155.546875 71.042969 155.546875 71.140625 C 155.546875 71.375 155.722656 71.472656 155.957031 71.472656 C 156.40625 71.472656 156.679688 71.21875 157.207031 70.417969 L 157.089844 70.359375 C 156.660156 70.90625 156.523438 71.042969 156.386719 71.042969 C 156.308594 71.042969 156.25 71.023438 156.25 70.90625 C 156.25 70.867188 156.25 70.808594 156.269531 70.789062 L 157.03125 67.917969 L 157.753906 67.917969 Z M 157.8125 67.625 "/>
<path style="fill-rule:nonzero;fill:rgb(69.803922%,85.098039%,100%);fill-opacity:1;stroke-width:1;stroke-linecap:round;stroke-linejoin:round;stroke:rgb(0%,0%,0%);stroke-opacity:1;stroke-miterlimit:10;" d="M 173.80625 111.1 L 200.465625 111.1 L 200.465625 131.1 L 173.80625 131.1 Z M 173.80625 111.1 " transform="matrix(1.25,0,0,1.25,-16.25,-86.25)"/>
<path style=" stroke:none;fill-rule:nonzero;fill:rgb(0%,0%,0%);fill-opacity:1;" d="M 214.644531 65.671875 C 214.039062 66.433594 213.902344 66.570312 213.726562 66.570312 C 213.609375 66.570312 213.53125 66.492188 213.53125 66.375 C 213.53125 66.238281 213.726562 65.554688 213.902344 64.96875 C 214.253906 63.914062 214.449219 63.074219 214.449219 62.800781 C 214.449219 62.371094 214.234375 62.039062 213.726562 62.039062 C 213.023438 62.039062 212.144531 62.761719 211.128906 64.421875 L 212.496094 59.382812 L 212.417969 59.324219 C 211.753906 59.460938 211.324219 59.539062 210.640625 59.617188 L 210.640625 59.792969 L 210.953125 59.792969 C 211.148438 59.792969 211.421875 59.871094 211.421875 60.066406 C 211.421875 60.222656 211.363281 60.417969 211.265625 60.769531 L 209.625 67 L 210.464844 67 C 210.914062 65.261719 211.089844 64.871094 211.539062 64.1875 C 212.125 63.289062 212.847656 62.605469 213.257812 62.605469 C 213.511719 62.605469 213.570312 62.722656 213.570312 62.898438 C 213.570312 62.9375 213.53125 63.09375 213.492188 63.269531 L 212.867188 65.59375 C 212.730469 66.140625 212.652344 66.492188 212.652344 66.628906 C 212.652344 66.921875 212.847656 67.097656 213.140625 67.097656 C 213.726562 67.097656 214.097656 66.804688 214.78125 65.828125 Z M 214.644531 65.671875 "/>
<path style=" stroke:none;fill-rule:nonzero;fill:rgb(0%,0%,0%);fill-opacity:1;" d="M 217.261719 67.546875 L 216.65625 67.546875 L 216.871094 66.765625 C 216.871094 66.746094 216.871094 66.707031 216.871094 66.707031 C 216.871094 66.667969 216.851562 66.648438 216.8125 66.648438 C 216.773438 66.648438 216.734375 66.667969 216.695312 66.726562 C 216.421875 67.136719 215.933594 67.488281 215.699219 67.546875 C 215.523438 67.585938 215.464844 67.644531 215.464844 67.742188 C 215.464844 67.742188 215.464844 67.761719 215.464844 67.78125 L 216.03125 67.78125 L 215.445312 70.007812 C 215.386719 70.242188 215.328125 70.476562 215.328125 70.554688 C 215.328125 70.75 215.464844 70.828125 215.660156 70.828125 C 216.050781 70.828125 216.285156 70.613281 216.734375 69.929688 L 216.636719 69.871094 C 216.265625 70.339844 216.148438 70.457031 216.03125 70.457031 C 215.972656 70.457031 215.914062 70.4375 215.914062 70.339844 C 215.914062 70.320312 215.933594 70.261719 215.933594 70.242188 L 216.578125 67.78125 L 217.222656 67.78125 Z M 217.261719 67.546875 "/>
<path style=" stroke:none;fill-rule:nonzero;fill:rgb(0%,0%,0%);fill-opacity:1;" d="M 221.550781 69.109375 L 221.550781 68.601562 L 219.890625 68.601562 L 219.890625 66.960938 L 219.402344 66.960938 L 219.402344 68.601562 L 217.761719 68.601562 L 217.761719 69.109375 L 219.402344 69.109375 L 219.402344 70.75 L 219.890625 70.75 L 219.890625 69.109375 Z M 221.550781 69.109375 "/>
<path style=" stroke:none;fill-rule:nonzero;fill:rgb(0%,0%,0%);fill-opacity:1;" d="M 225.128906 70.75 L 225.128906 70.632812 C 224.5625 70.632812 224.425781 70.496094 224.425781 70.183594 L 224.425781 65.710938 L 224.347656 65.671875 L 223.019531 66.355469 L 223.019531 66.472656 L 223.214844 66.394531 C 223.351562 66.335938 223.46875 66.296875 223.546875 66.296875 C 223.703125 66.296875 223.78125 66.414062 223.78125 66.667969 L 223.78125 70.046875 C 223.78125 70.457031 223.625 70.613281 223.058594 70.632812 L 223.058594 70.75 Z M 225.128906 70.75 "/>
<path style="fill-rule:nonzero;fill:rgb(40%,74.901961%,100%);fill-opacity:1;stroke-width:1;stroke-linecap:round;stroke-linejoin:round;stroke:rgb(0%,0%,0%);stroke-opacity:1;stroke-miterlimit:10;" d="M 72.28125 74 L 98.28125 74 L 98.28125 94 L 72.28125 94 Z M 72.28125 74 " transform="matrix(1.25,0,0,1.25,-16.25,-86.25)"/>
<path style=" stroke:none;fill-rule:nonzero;fill:rgb(0%,0%,0%);fill-opacity:1;" d="M 83.085938 16.640625 C 82.929688 15.859375 82.792969 15.664062 82.519531 15.664062 C 82.246094 15.664062 81.875 15.742188 81.191406 15.996094 L 81.074219 16.035156 L 81.113281 16.210938 L 81.308594 16.152344 C 81.523438 16.09375 81.660156 16.074219 81.738281 16.074219 C 82.03125 16.074219 82.109375 16.171875 82.265625 16.835938 L 82.578125 18.242188 L 81.660156 19.550781 C 81.425781 19.882812 81.210938 20.097656 81.074219 20.097656 C 81.015625 20.097656 80.898438 20.058594 80.78125 20 C 80.644531 19.921875 80.527344 19.863281 80.429688 19.863281 C 80.214844 19.863281 80.039062 20.058594 80.039062 20.273438 C 80.039062 20.566406 80.253906 20.742188 80.605469 20.742188 C 80.957031 20.742188 81.191406 20.644531 81.679688 19.980469 L 82.675781 18.652344 L 82.988281 19.980469 C 83.125 20.546875 83.300781 20.742188 83.652344 20.742188 C 84.082031 20.742188 84.375 20.488281 85.039062 19.472656 L 84.863281 19.355469 C 84.765625 19.472656 84.726562 19.550781 84.628906 19.6875 C 84.375 20.019531 84.238281 20.136719 84.101562 20.136719 C 83.945312 20.136719 83.847656 19.980469 83.769531 19.667969 L 83.398438 18.164062 C 83.339844 17.890625 83.300781 17.734375 83.300781 17.65625 C 83.808594 16.796875 84.21875 16.289062 84.414062 16.289062 C 84.6875 16.289062 84.785156 16.484375 85 16.484375 C 85.214844 16.484375 85.371094 16.308594 85.371094 16.074219 C 85.371094 15.839844 85.195312 15.664062 84.921875 15.664062 C 84.433594 15.664062 84.003906 16.074219 83.222656 17.265625 Z M 83.085938 16.640625 "/>
<path style=" stroke:none;fill-rule:nonzero;fill:rgb(0%,0%,0%);fill-opacity:1;" d="M 87.570312 21.171875 L 86.964844 21.171875 L 87.179688 20.390625 C 87.179688 20.371094 87.179688 20.332031 87.179688 20.332031 C 87.179688 20.292969 87.160156 20.273438 87.121094 20.273438 C 87.082031 20.273438 87.042969 20.292969 87.003906 20.351562 C 86.730469 20.761719 86.242188 21.113281 86.007812 21.171875 C 85.832031 21.210938 85.773438 21.269531 85.773438 21.367188 C 85.773438 21.367188 85.773438 21.386719 85.773438 21.40625 L 86.339844 21.40625 L 85.753906 23.632812 C 85.695312 23.867188 85.636719 24.101562 85.636719 24.179688 C 85.636719 24.375 85.773438 24.453125 85.96875 24.453125 C 86.359375 24.453125 86.59375 24.238281 87.042969 23.554688 L 86.945312 23.496094 C 86.574219 23.964844 86.457031 24.082031 86.339844 24.082031 C 86.28125 24.082031 86.222656 24.0625 86.222656 23.964844 C 86.222656 23.945312 86.242188 23.886719 86.242188 23.867188 L 86.886719 21.40625 L 87.53125 21.40625 Z M 87.570312 21.171875 "/>
<path style=" stroke:none;fill-rule:nonzero;fill:rgb(0%,0%,0%);fill-opacity:1;" d="M 91.863281 22.734375 L 91.863281 22.226562 L 88.074219 22.226562 L 88.074219 22.734375 Z M 91.863281 22.734375 "/>
<path style=" stroke:none;fill-rule:nonzero;fill:rgb(0%,0%,0%);fill-opacity:1;" d="M 95.441406 24.375 L 95.441406 24.257812 C 94.875 24.257812 94.738281 24.121094 94.738281 23.808594 L 94.738281 19.335938 L 94.660156 19.296875 L 93.332031 19.980469 L 93.332031 20.097656 L 93.527344 20.019531 C 93.664062 19.960938 93.78125 19.921875 93.859375 19.921875 C 94.015625 19.921875 94.09375 20.039062 94.09375 20.292969 L 94.09375 23.671875 C 94.09375 24.082031 93.9375 24.238281 93.371094 24.257812 L 93.371094 24.375 Z M 95.441406 24.375 "/>
<path style="fill-rule:nonzero;fill:rgb(40%,74.901961%,100%);fill-opacity:1;stroke-width:1;stroke-linecap:round;stroke-linejoin:round;stroke:rgb(0%,0%,0%);stroke-opacity:1;stroke-miterlimit:10;" d="M 122.89375 74 L 148.89375 74 L 148.89375 94 L 122.89375 94 Z M 122.89375 74 " transform="matrix(1.25,0,0,1.25,-16.25,-86.25)"/>
<path style=" stroke:none;fill-rule:nonzero;fill:rgb(0%,0%,0%);fill-opacity:1;" d="M 152.8125 16.640625 C 152.65625 15.859375 152.519531 15.664062 152.246094 15.664062 C 151.972656 15.664062 151.601562 15.742188 150.917969 15.996094 L 150.800781 16.035156 L 150.839844 16.210938 L 151.035156 16.152344 C 151.25 16.09375 151.386719 16.074219 151.464844 16.074219 C 151.757812 16.074219 151.835938 16.171875 151.992188 16.835938 L 152.304688 18.242188 L 151.386719 19.550781 C 151.152344 19.882812 150.9375 20.097656 150.800781 20.097656 C 150.742188 20.097656 150.625 20.058594 150.507812 20 C 150.371094 19.921875 150.253906 19.863281 150.15625 19.863281 C 149.941406 19.863281 149.765625 20.058594 149.765625 20.273438 C 149.765625 20.566406 149.980469 20.742188 150.332031 20.742188 C 150.683594 20.742188 150.917969 20.644531 151.40625 19.980469 L 152.402344 18.652344 L 152.714844 19.980469 C 152.851562 20.546875 153.027344 20.742188 153.378906 20.742188 C 153.808594 20.742188 154.101562 20.488281 154.765625 19.472656 L 154.589844 19.355469 C 154.492188 19.472656 154.453125 19.550781 154.355469 19.6875 C 154.101562 20.019531 153.964844 20.136719 153.828125 20.136719 C 153.671875 20.136719 153.574219 19.980469 153.496094 19.667969 L 153.125 18.164062 C 153.066406 17.890625 153.027344 17.734375 153.027344 17.65625 C 153.535156 16.796875 153.945312 16.289062 154.140625 16.289062 C 154.414062 16.289062 154.511719 16.484375 154.726562 16.484375 C 154.941406 16.484375 155.097656 16.308594 155.097656 16.074219 C 155.097656 15.839844 154.921875 15.664062 154.648438 15.664062 C 154.160156 15.664062 153.730469 16.074219 152.949219 17.265625 Z M 152.8125 16.640625 "/>
<path style=" stroke:none;fill-rule:nonzero;fill:rgb(0%,0%,0%);fill-opacity:1;" d="M 157.296875 21.171875 L 156.691406 21.171875 L 156.90625 20.390625 C 156.90625 20.371094 156.90625 20.332031 156.90625 20.332031 C 156.90625 20.292969 156.886719 20.273438 156.847656 20.273438 C 156.808594 20.273438 156.769531 20.292969 156.730469 20.351562 C 156.457031 20.761719 155.96875 21.113281 155.734375 21.171875 C 155.558594 21.210938 155.5 21.269531 155.5 21.367188 C 155.5 21.367188 155.5 21.386719 155.5 21.40625 L 156.066406 21.40625 L 155.480469 23.632812 C 155.421875 23.867188 155.363281 24.101562 155.363281 24.179688 C 155.363281 24.375 155.5 24.453125 155.695312 24.453125 C 156.085938 24.453125 156.320312 24.238281 156.769531 23.554688 L 156.671875 23.496094 C 156.300781 23.964844 156.183594 24.082031 156.066406 24.082031 C 156.007812 24.082031 155.949219 24.0625 155.949219 23.964844 C 155.949219 23.945312 155.96875 23.886719 155.96875 23.867188 L 156.613281 21.40625 L 157.257812 21.40625 Z M 157.296875 21.171875 "/>
<path style="fill-rule:nonzero;fill:rgb(40%,74.901961%,100%);fill-opacity:1;stroke-width:1;stroke-linecap:round;stroke-linejoin:round;stroke:rgb(0%,0%,0%);stroke-opacity:1;stroke-miterlimit:10;" d="M 173.80625 74 L 199.80625 74 L 199.80625 94 L 173.80625 94 Z M 173.80625 74 " transform="matrix(1.25,0,0,1.25,-16.25,-86.25)"/>
<path style=" stroke:none;fill-rule:nonzero;fill:rgb(0%,0%,0%);fill-opacity:1;" d="M 212.046875 16.640625 C 211.890625 15.859375 211.753906 15.664062 211.480469 15.664062 C 211.207031 15.664062 210.835938 15.742188 210.152344 15.996094 L 210.035156 16.035156 L 210.074219 16.210938 L 210.269531 16.152344 C 210.484375 16.09375 210.621094 16.074219 210.699219 16.074219 C 210.992188 16.074219 211.070312 16.171875 211.226562 16.835938 L 211.539062 18.242188 L 210.621094 19.550781 C 210.386719 19.882812 210.171875 20.097656 210.035156 20.097656 C 209.976562 20.097656 209.859375 20.058594 209.742188 20 C 209.605469 19.921875 209.488281 19.863281 209.390625 19.863281 C 209.175781 19.863281 209 20.058594 209 20.273438 C 209 20.566406 209.214844 20.742188 209.566406 20.742188 C 209.917969 20.742188 210.152344 20.644531 210.640625 19.980469 L 211.636719 18.652344 L 211.949219 19.980469 C 212.085938 20.546875 212.261719 20.742188 212.613281 20.742188 C 213.042969 20.742188 213.335938 20.488281 214 19.472656 L 213.824219 19.355469 C 213.726562 19.472656 213.6875 19.550781 213.589844 19.6875 C 213.335938 20.019531 213.199219 20.136719 213.0625 20.136719 C 212.90625 20.136719 212.808594 19.980469 212.730469 19.667969 L 212.359375 18.164062 C 212.300781 17.890625 212.261719 17.734375 212.261719 17.65625 C 212.769531 16.796875 213.179688 16.289062 213.375 16.289062 C 213.648438 16.289062 213.746094 16.484375 213.960938 16.484375 C 214.175781 16.484375 214.332031 16.308594 214.332031 16.074219 C 214.332031 15.839844 214.15625 15.664062 213.882812 15.664062 C 213.394531 15.664062 212.964844 16.074219 212.183594 17.265625 Z M 212.046875 16.640625 "/>
<path style=" stroke:none;fill-rule:nonzero;fill:rgb(0%,0%,0%);fill-opacity:1;" d="M 216.53125 21.171875 L 215.925781 21.171875 L 216.140625 20.390625 C 216.140625 20.371094 216.140625 20.332031 216.140625 20.332031 C 216.140625 20.292969 216.121094 20.273438 216.082031 20.273438 C 216.042969 20.273438 216.003906 20.292969 215.964844 20.351562 C 215.691406 20.761719 215.203125 21.113281 214.96875 21.171875 C 214.792969 21.210938 214.734375 21.269531 214.734375 21.367188 C 214.734375 21.367188 214.734375 21.386719 214.734375 21.40625 L 215.300781 21.40625 L 214.714844 23.632812 C 214.65625 23.867188 214.597656 24.101562 214.597656 24.179688 C 214.597656 24.375 214.734375 24.453125 214.929688 24.453125 C 215.320312 24.453125 215.554688 24.238281 216.003906 23.554688 L 215.90625 23.496094 C 215.535156 23.964844 215.417969 24.082031 215.300781 24.082031 C 215.242188 24.082031 215.183594 24.0625 215.183594 23.964844 C 215.183594 23.945312 215.203125 23.886719 215.203125 23.867188 L 215.847656 21.40625 L 216.492188 21.40625 Z M 216.53125 21.171875 "/>
<path style=" stroke:none;fill-rule:nonzero;fill:rgb(0%,0%,0%);fill-opacity:1;" d="M 220.824219 22.734375 L 220.824219 22.226562 L 219.164062 22.226562 L 219.164062 20.585938 L 218.675781 20.585938 L 218.675781 22.226562 L 217.035156 22.226562 L 217.035156 22.734375 L 218.675781 22.734375 L 218.675781 24.375 L 219.164062 24.375 L 219.164062 22.734375 Z M 220.824219 22.734375 "/>
<path style=" stroke:none;fill-rule:nonzero;fill:rgb(0%,0%,0%);fill-opacity:1;" d="M 224.402344 24.375 L 224.402344 24.257812 C 223.835938 24.257812 223.699219 24.121094 223.699219 23.808594 L 223.699219 19.335938 L 223.621094 19.296875 L 222.292969 19.980469 L 222.292969 20.097656 L 222.488281 20.019531 C 222.625 19.960938 222.742188 19.921875 222.820312 19.921875 C 222.976562 19.921875 223.054688 20.039062 223.054688 20.292969 L 223.054688 23.671875 C 223.054688 24.082031 222.898438 24.238281 222.332031 24.257812 L 222.332031 24.375 Z M 224.402344 24.375 "/>
<path style="fill:none;stroke-width:1;stroke-linecap:round;stroke-linejoin:round;stroke:rgb(0%,0%,0%);stroke-opacity:1;stroke-miterlimit:10;" d="M 98.28125 121.1 L 116.99375 121.1 " transform="matrix(1.25,0,0,1.25,-16.25,-86.25)"/>
<path style="fill:none;stroke-width:1;stroke-linecap:butt;stroke-linejoin:miter;stroke:rgb(0%,0%,0%);stroke-opacity:1;stroke-miterlimit:10;" d="M 120.99375 121.1 L 116.99375 121.1 M 116.99375 119.6 L 120.99375 121.1 L 116.99375 122.6 " transform="matrix(1.25,0,0,1.25,-16.25,-86.25)"/>
<path style="fill:none;stroke-width:1;stroke-linecap:round;stroke-linejoin:round;stroke:rgb(0%,0%,0%);stroke-opacity:1;stroke-miterlimit:10;" d="M 148.89375 121.1 L 167.90625 121.1 " transform="matrix(1.25,0,0,1.25,-16.25,-86.25)"/>
<path style="fill:none;stroke-width:1;stroke-linecap:butt;stroke-linejoin:miter;stroke:rgb(0%,0%,0%);stroke-opacity:1;stroke-miterlimit:10;" d="M 171.90625 121.1 L 167.90625 121.1 M 167.90625 119.6 L 171.90625 121.1 L 167.90625 122.6 " transform="matrix(1.25,0,0,1.25,-16.25,-86.25)"/>
<path style="fill:none;stroke-width:1;stroke-linecap:round;stroke-linejoin:round;stroke:rgb(0%,0%,0%);stroke-opacity:1;stroke-miterlimit:10;" d="M 85.28125 111.1 L 85.28125 99.9 " transform="matrix(1.25,0,0,1.25,-16.25,-86.25)"/>
<path style="fill:none;stroke-width:1;stroke-linecap:butt;stroke-linejoin:miter;stroke:rgb(0%,0%,0%);stroke-opacity:1;stroke-miterlimit:10;" d="M 85.28125 95.9 L 85.28125 99.9 M 83.78125 99.9 L 85.28125 95.9 L 86.78125 99.9 " transform="matrix(1.25,0,0,1.25,-16.25,-86.25)"/>
<path style="fill:none;stroke-width:1;stroke-linecap:round;stroke-linejoin:round;stroke:rgb(0%,0%,0%);stroke-opacity:1;stroke-miterlimit:10;" d="M 135.89375 111.1 L 135.89375 99.9 " transform="matrix(1.25,0,0,1.25,-16.25,-86.25)"/>
<path style="fill:none;stroke-width:1;stroke-linecap:butt;stroke-linejoin:miter;stroke:rgb(0%,0%,0%);stroke-opacity:1;stroke-miterlimit:10;" d="M 135.89375 95.9 L 135.89375 99.9 M 134.39375 99.9 L 135.89375 95.9 L 137.39375 99.9 " transform="matrix(1.25,0,0,1.25,-16.25,-86.25)"/>
<path style="fill:none;stroke-width:1;stroke-linecap:round;stroke-linejoin:round;stroke:rgb(0%,0%,0%);stroke-opacity:1;stroke-miterlimit:10;" d="M 187.046875 111.1 L 186.95 99.9 " transform="matrix(1.25,0,0,1.25,-16.25,-86.25)"/>
<path style="fill:none;stroke-width:1;stroke-linecap:butt;stroke-linejoin:miter;stroke:rgb(0%,0%,0%);stroke-opacity:1;stroke-miterlimit:10;" d="M 186.909375 95.9 L 186.95 99.9 M 185.45 99.9125 L 186.909375 95.9 L 188.45 99.8875 " transform="matrix(1.25,0,0,1.25,-16.25,-86.25)"/>
<path style=" stroke:none;fill-rule:nonzero;fill:rgb(0%,0%,0%);fill-opacity:1;" d="M 9.328125 53.347656 L 9.328125 61.375 L 10.265625 61.375 L 10.265625 57.625 L 14.914062 57.625 L 14.914062 61.375 L 15.832031 61.375 L 15.832031 53.347656 L 14.914062 53.347656 L 14.914062 56.824219 L 10.265625 56.824219 L 10.265625 53.347656 Z M 9.328125 53.347656 "/>
<path style=" stroke:none;fill-rule:nonzero;fill:rgb(0%,0%,0%);fill-opacity:1;" d="M 18.070312 53.367188 C 17.875 53.367188 17.71875 53.425781 17.582031 53.5625 C 17.445312 53.660156 17.386719 53.835938 17.386719 54.03125 C 17.386719 54.226562 17.445312 54.382812 17.582031 54.519531 C 17.71875 54.636719 17.875 54.695312 18.070312 54.695312 C 18.265625 54.695312 18.421875 54.636719 18.539062 54.519531 C 18.675781 54.382812 18.753906 54.226562 18.753906 54.03125 C 18.753906 53.835938 18.675781 53.660156 18.539062 53.5625 C 18.421875 53.425781 18.265625 53.367188 18.070312 53.367188 Z M 17.621094 55.554688 L 17.621094 61.375 L 18.519531 61.375 L 18.519531 55.554688 Z M 17.621094 55.554688 "/>
<path style=" stroke:none;fill-rule:nonzero;fill:rgb(0%,0%,0%);fill-opacity:1;" d="M 24.507812 53.191406 L 24.507812 56.628906 C 24.058594 55.808594 23.414062 55.398438 22.574219 55.398438 C 21.753906 55.398438 21.109375 55.710938 20.640625 56.335938 C 20.191406 56.902344 19.976562 57.585938 19.976562 58.445312 C 19.976562 59.324219 20.191406 60.046875 20.640625 60.613281 C 21.109375 61.21875 21.773438 61.53125 22.632812 61.53125 C 23.492188 61.53125 24.15625 61.160156 24.566406 60.417969 L 24.566406 61.375 L 25.40625 61.375 L 25.40625 53.191406 Z M 22.769531 56.140625 C 23.296875 56.140625 23.707031 56.355469 24.039062 56.765625 C 24.351562 57.195312 24.527344 57.742188 24.527344 58.425781 L 24.527344 58.523438 C 24.527344 59.1875 24.371094 59.714844 24.097656 60.105469 C 23.765625 60.574219 23.316406 60.789062 22.730469 60.789062 C 22.105469 60.789062 21.636719 60.554688 21.324219 60.105469 C 21.03125 59.695312 20.894531 59.148438 20.894531 58.445312 C 20.894531 57.761719 21.03125 57.214844 21.324219 56.824219 C 21.636719 56.375 22.125 56.140625 22.769531 56.140625 Z M 22.769531 56.140625 "/>
<path style=" stroke:none;fill-rule:nonzero;fill:rgb(0%,0%,0%);fill-opacity:1;" d="M 31.097656 53.191406 L 31.097656 56.628906 C 30.648438 55.808594 30.003906 55.398438 29.164062 55.398438 C 28.34375 55.398438 27.699219 55.710938 27.230469 56.335938 C 26.78125 56.902344 26.566406 57.585938 26.566406 58.445312 C 26.566406 59.324219 26.78125 60.046875 27.230469 60.613281 C 27.699219 61.21875 28.363281 61.53125 29.222656 61.53125 C 30.082031 61.53125 30.746094 61.160156 31.15625 60.417969 L 31.15625 61.375 L 31.996094 61.375 L 31.996094 53.191406 Z M 29.359375 56.140625 C 29.886719 56.140625 30.296875 56.355469 30.628906 56.765625 C 30.941406 57.195312 31.117188 57.742188 31.117188 58.425781 L 31.117188 58.523438 C 31.117188 59.1875 30.960938 59.714844 30.6875 60.105469 C 30.355469 60.574219 29.90625 60.789062 29.320312 60.789062 C 28.695312 60.789062 28.226562 60.554688 27.914062 60.105469 C 27.621094 59.695312 27.484375 59.148438 27.484375 58.445312 C 27.484375 57.761719 27.621094 57.214844 27.914062 56.824219 C 28.226562 56.375 28.714844 56.140625 29.359375 56.140625 Z M 29.359375 56.140625 "/>
<path style=" stroke:none;fill-rule:nonzero;fill:rgb(0%,0%,0%);fill-opacity:1;" d="M 35.777344 55.398438 C 34.9375 55.398438 34.273438 55.710938 33.785156 56.316406 C 33.296875 56.882812 33.042969 57.605469 33.042969 58.464844 C 33.042969 59.402344 33.296875 60.144531 33.824219 60.710938 C 34.3125 61.257812 34.996094 61.53125 35.816406 61.53125 C 36.578125 61.53125 37.183594 61.316406 37.671875 60.886719 C 38.0625 60.515625 38.335938 60.066406 38.453125 59.5 L 37.554688 59.5 C 37.417969 59.910156 37.222656 60.222656 36.96875 60.417969 C 36.675781 60.652344 36.285156 60.769531 35.816406 60.769531 C 35.269531 60.769531 34.820312 60.59375 34.507812 60.242188 C 34.195312 59.871094 34.039062 59.363281 33.980469 58.71875 L 38.570312 58.71875 C 38.550781 57.703125 38.335938 56.902344 37.90625 56.355469 C 37.417969 55.710938 36.714844 55.398438 35.777344 55.398438 Z M 35.816406 56.160156 C 36.910156 56.160156 37.535156 56.765625 37.632812 58.015625 L 34 58.015625 C 34.058594 57.449219 34.234375 57 34.566406 56.667969 C 34.878906 56.316406 35.289062 56.160156 35.816406 56.160156 Z M 35.816406 56.160156 "/>
<path style=" stroke:none;fill-rule:nonzero;fill:rgb(0%,0%,0%);fill-opacity:1;" d="M 42.351562 55.398438 C 41.980469 55.398438 41.628906 55.496094 41.316406 55.671875 C 40.984375 55.847656 40.730469 56.082031 40.535156 56.414062 L 40.535156 55.554688 L 39.636719 55.554688 L 39.636719 61.375 L 40.535156 61.375 L 40.535156 57.859375 C 40.574219 57.332031 40.730469 56.921875 41.042969 56.609375 C 41.335938 56.316406 41.6875 56.160156 42.097656 56.160156 C 43.113281 56.160156 43.621094 56.726562 43.621094 57.859375 L 43.621094 61.375 L 44.519531 61.375 L 44.519531 57.800781 C 44.519531 56.199219 43.796875 55.398438 42.351562 55.398438 Z M 42.351562 55.398438 "/>
<path style=" stroke:none;fill-rule:nonzero;fill:rgb(0%,0%,0%);fill-opacity:1;" d="M 16.527344 71.648438 C 15.882812 71.648438 15.335938 71.804688 14.925781 72.097656 C 14.496094 72.390625 14.28125 72.761719 14.28125 73.269531 C 14.28125 73.757812 14.496094 74.128906 14.945312 74.402344 C 15.21875 74.578125 15.6875 74.753906 16.390625 74.910156 C 17.015625 75.066406 17.425781 75.203125 17.621094 75.28125 C 17.972656 75.457031 18.167969 75.710938 18.167969 76.042969 C 18.167969 76.6875 17.640625 77.019531 16.605469 77.019531 C 16.117188 77.019531 15.746094 76.941406 15.492188 76.765625 C 15.238281 76.550781 15.082031 76.238281 15.003906 75.769531 L 14.125 75.769531 C 14.261719 77.117188 15.101562 77.78125 16.625 77.78125 C 18.265625 77.78125 19.085938 77.175781 19.085938 75.984375 C 19.085938 75.476562 18.851562 75.085938 18.402344 74.792969 C 18.089844 74.597656 17.601562 74.421875 16.898438 74.246094 C 16.3125 74.089844 15.902344 73.972656 15.6875 73.875 C 15.355469 73.699219 15.199219 73.484375 15.199219 73.230469 C 15.199219 72.976562 15.316406 72.78125 15.570312 72.625 C 15.804688 72.46875 16.117188 72.410156 16.527344 72.410156 C 16.976562 72.410156 17.347656 72.488281 17.582031 72.683594 C 17.816406 72.839844 17.953125 73.09375 18.03125 73.464844 L 18.910156 73.464844 C 18.753906 72.253906 17.972656 71.648438 16.527344 71.648438 Z M 16.527344 71.648438 "/>
<path style=" stroke:none;fill-rule:nonzero;fill:rgb(0%,0%,0%);fill-opacity:1;" d="M 21.703125 69.929688 L 20.824219 70.300781 L 20.824219 71.804688 L 19.652344 71.804688 L 19.652344 72.566406 L 20.824219 72.566406 L 20.824219 76.257812 C 20.824219 76.707031 20.902344 77.019531 21.097656 77.253906 C 21.292969 77.507812 21.644531 77.625 22.132812 77.625 L 22.992188 77.625 L 22.992188 76.863281 L 22.25 76.863281 C 22.054688 76.863281 21.917969 76.824219 21.839844 76.726562 C 21.742188 76.628906 21.703125 76.472656 21.703125 76.257812 L 21.703125 72.566406 L 23.148438 72.566406 L 23.148438 71.804688 L 21.703125 71.804688 Z M 21.703125 69.929688 "/>
<path style=" stroke:none;fill-rule:nonzero;fill:rgb(0%,0%,0%);fill-opacity:1;" d="M 26.671875 71.648438 C 25.988281 71.648438 25.421875 71.785156 24.992188 72.058594 C 24.523438 72.351562 24.230469 72.800781 24.09375 73.425781 L 24.992188 73.484375 C 25.089844 73.113281 25.265625 72.839844 25.578125 72.644531 C 25.851562 72.46875 26.203125 72.390625 26.613281 72.390625 C 27.628906 72.390625 28.136719 72.878906 28.136719 73.855469 L 28.136719 74.167969 L 26.75 74.1875 C 25.871094 74.1875 25.1875 74.363281 24.71875 74.675781 C 24.171875 75.007812 23.917969 75.515625 23.917969 76.179688 C 23.917969 76.648438 24.09375 77.039062 24.464844 77.351562 C 24.816406 77.644531 25.265625 77.78125 25.851562 77.78125 C 26.398438 77.78125 26.886719 77.664062 27.316406 77.429688 C 27.667969 77.214844 27.980469 76.960938 28.195312 76.648438 L 28.195312 77.625 L 29.035156 77.625 L 29.035156 73.894531 C 29.035156 73.210938 28.859375 72.683594 28.527344 72.3125 C 28.117188 71.863281 27.511719 71.648438 26.671875 71.648438 Z M 28.136719 74.832031 L 28.136719 75.320312 C 28.136719 75.789062 27.921875 76.179688 27.511719 76.53125 C 27.082031 76.902344 26.59375 77.078125 26.046875 77.078125 C 25.695312 77.078125 25.402344 76.980469 25.167969 76.824219 C 24.953125 76.628906 24.835938 76.414062 24.835938 76.160156 C 24.835938 75.300781 25.5 74.871094 26.808594 74.851562 Z M 28.136719 74.832031 "/>
<path style=" stroke:none;fill-rule:nonzero;fill:rgb(0%,0%,0%);fill-opacity:1;" d="M 31.984375 69.929688 L 31.105469 70.300781 L 31.105469 71.804688 L 29.933594 71.804688 L 29.933594 72.566406 L 31.105469 72.566406 L 31.105469 76.257812 C 31.105469 76.707031 31.183594 77.019531 31.378906 77.253906 C 31.574219 77.507812 31.925781 77.625 32.414062 77.625 L 33.273438 77.625 L 33.273438 76.863281 L 32.53125 76.863281 C 32.335938 76.863281 32.199219 76.824219 32.121094 76.726562 C 32.023438 76.628906 31.984375 76.472656 31.984375 76.257812 L 31.984375 72.566406 L 33.429688 72.566406 L 33.429688 71.804688 L 31.984375 71.804688 Z M 31.984375 69.929688 "/>
<path style=" stroke:none;fill-rule:nonzero;fill:rgb(0%,0%,0%);fill-opacity:1;" d="M 36.816406 71.648438 C 35.976562 71.648438 35.3125 71.960938 34.824219 72.566406 C 34.335938 73.132812 34.082031 73.855469 34.082031 74.714844 C 34.082031 75.652344 34.335938 76.394531 34.863281 76.960938 C 35.351562 77.507812 36.035156 77.78125 36.855469 77.78125 C 37.617188 77.78125 38.222656 77.566406 38.710938 77.136719 C 39.101562 76.765625 39.375 76.316406 39.492188 75.75 L 38.59375 75.75 C 38.457031 76.160156 38.261719 76.472656 38.007812 76.667969 C 37.714844 76.902344 37.324219 77.019531 36.855469 77.019531 C 36.308594 77.019531 35.859375 76.84375 35.546875 76.492188 C 35.234375 76.121094 35.078125 75.613281 35.019531 74.96875 L 39.609375 74.96875 C 39.589844 73.953125 39.375 73.152344 38.945312 72.605469 C 38.457031 71.960938 37.753906 71.648438 36.816406 71.648438 Z M 36.855469 72.410156 C 37.949219 72.410156 38.574219 73.015625 38.671875 74.265625 L 35.039062 74.265625 C 35.097656 73.699219 35.273438 73.25 35.605469 72.917969 C 35.917969 72.566406 36.328125 72.410156 36.855469 72.410156 Z M 36.855469 72.410156 "/>
<path style=" stroke:none;fill-rule:nonzero;fill:rgb(0%,0%,0%);fill-opacity:1;" d="M 13.285156 14.316406 C 12.074219 14.316406 11.136719 14.707031 10.433594 15.527344 C 9.769531 16.289062 9.4375 17.285156 9.4375 18.496094 C 9.4375 19.707031 9.769531 20.683594 10.433594 21.445312 C 11.136719 22.246094 12.074219 22.65625 13.285156 22.65625 C 14.476562 22.65625 15.433594 22.246094 16.136719 21.445312 C 16.78125 20.683594 17.132812 19.707031 17.132812 18.496094 C 17.132812 17.265625 16.78125 16.269531 16.136719 15.507812 C 15.433594 14.707031 14.476562 14.316406 13.285156 14.316406 Z M 13.285156 15.136719 C 14.203125 15.136719 14.925781 15.429688 15.453125 16.054688 C 15.941406 16.660156 16.195312 17.480469 16.195312 18.496094 C 16.195312 19.511719 15.941406 20.3125 15.453125 20.917969 C 14.925781 21.523438 14.203125 21.835938 13.285156 21.835938 C 12.347656 21.835938 11.625 21.523438 11.097656 20.898438 C 10.609375 20.292969 10.355469 19.492188 10.355469 18.496094 C 10.355469 17.5 10.609375 16.699219 11.097656 16.09375 C 11.644531 15.449219 12.367188 15.136719 13.285156 15.136719 Z M 13.285156 15.136719 "/>
<path style=" stroke:none;fill-rule:nonzero;fill:rgb(0%,0%,0%);fill-opacity:1;" d="M 18.300781 16.679688 L 18.300781 20.292969 C 18.300781 21.855469 18.984375 22.65625 20.410156 22.65625 C 21.191406 22.65625 21.835938 22.304688 22.304688 21.601562 L 22.304688 22.5 L 23.203125 22.5 L 23.203125 16.679688 L 22.304688 16.679688 L 22.304688 20.234375 C 22.226562 20.722656 22.050781 21.132812 21.71875 21.445312 C 21.425781 21.738281 21.074219 21.894531 20.683594 21.894531 C 20.15625 21.894531 19.785156 21.738281 19.550781 21.484375 C 19.316406 21.210938 19.199219 20.78125 19.199219 20.234375 L 19.199219 16.679688 Z M 18.300781 16.679688 "/>
<path style=" stroke:none;fill-rule:nonzero;fill:rgb(0%,0%,0%);fill-opacity:1;" d="M 26.144531 14.804688 L 25.265625 15.175781 L 25.265625 16.679688 L 24.09375 16.679688 L 24.09375 17.441406 L 25.265625 17.441406 L 25.265625 21.132812 C 25.265625 21.582031 25.34375 21.894531 25.539062 22.128906 C 25.734375 22.382812 26.085938 22.5 26.574219 22.5 L 27.433594 22.5 L 27.433594 21.738281 L 26.691406 21.738281 C 26.496094 21.738281 26.359375 21.699219 26.28125 21.601562 C 26.183594 21.503906 26.144531 21.347656 26.144531 21.132812 L 26.144531 17.441406 L 27.589844 17.441406 L 27.589844 16.679688 L 26.144531 16.679688 Z M 26.144531 14.804688 "/>
<path style=" stroke:none;fill-rule:nonzero;fill:rgb(0%,0%,0%);fill-opacity:1;" d="M 31.371094 16.523438 C 30.492188 16.523438 29.847656 16.894531 29.4375 17.636719 L 29.4375 16.679688 L 28.597656 16.679688 L 28.597656 24.726562 L 29.496094 24.726562 L 29.496094 21.445312 C 29.945312 22.246094 30.589844 22.65625 31.410156 22.65625 C 32.25 22.65625 32.894531 22.34375 33.363281 21.738281 C 33.792969 21.171875 34.007812 20.46875 34.007812 19.609375 C 34.007812 18.730469 33.792969 18.027344 33.34375 17.460938 C 32.875 16.835938 32.210938 16.523438 31.371094 16.523438 Z M 31.253906 17.265625 C 31.878906 17.265625 32.347656 17.5 32.679688 17.96875 C 32.953125 18.378906 33.089844 18.925781 33.089844 19.609375 C 33.089844 20.3125 32.953125 20.859375 32.660156 21.269531 C 32.328125 21.699219 31.859375 21.914062 31.214844 21.914062 C 30.6875 21.914062 30.277344 21.699219 29.945312 21.289062 C 29.613281 20.878906 29.457031 20.332031 29.457031 19.667969 L 29.457031 19.550781 C 29.457031 18.90625 29.613281 18.359375 29.90625 17.949219 C 30.21875 17.5 30.667969 17.265625 31.253906 17.265625 Z M 31.253906 17.265625 "/>
<path style=" stroke:none;fill-rule:nonzero;fill:rgb(0%,0%,0%);fill-opacity:1;" d="M 35.1875 16.679688 L 35.1875 20.292969 C 35.1875 21.855469 35.871094 22.65625 37.296875 22.65625 C 38.078125 22.65625 38.722656 22.304688 39.191406 21.601562 L 39.191406 22.5 L 40.089844 22.5 L 40.089844 16.679688 L 39.191406 16.679688 L 39.191406 20.234375 C 39.113281 20.722656 38.9375 21.132812 38.605469 21.445312 C 38.3125 21.738281 37.960938 21.894531 37.570312 21.894531 C 37.042969 21.894531 36.671875 21.738281 36.4375 21.484375 C 36.203125 21.210938 36.085938 20.78125 36.085938 20.234375 L 36.085938 16.679688 Z M 35.1875 16.679688 "/>
<path style=" stroke:none;fill-rule:nonzero;fill:rgb(0%,0%,0%);fill-opacity:1;" d="M 43.03125 14.804688 L 42.152344 15.175781 L 42.152344 16.679688 L 40.980469 16.679688 L 40.980469 17.441406 L 42.152344 17.441406 L 42.152344 21.132812 C 42.152344 21.582031 42.230469 21.894531 42.425781 22.128906 C 42.621094 22.382812 42.972656 22.5 43.460938 22.5 L 44.320312 22.5 L 44.320312 21.738281 L 43.578125 21.738281 C 43.382812 21.738281 43.246094 21.699219 43.167969 21.601562 C 43.070312 21.503906 43.03125 21.347656 43.03125 21.132812 L 43.03125 17.441406 L 44.476562 17.441406 L 44.476562 16.679688 L 43.03125 16.679688 Z M 43.03125 14.804688 "/>
<path style=" stroke:none;fill-rule:nonzero;fill:rgb(0%,0%,0%);fill-opacity:1;" d="M 85.316406 13.980469 L 83.519531 10.328125 L 82.914062 10.328125 L 81.097656 13.980469 L 81.78125 13.980469 L 83.207031 11.089844 L 84.652344 13.980469 Z M 85.316406 13.980469 "/>
<path style=" stroke:none;fill-rule:nonzero;fill:rgb(0%,0%,0%);fill-opacity:1;" d="M 154.515625 13.980469 L 152.71875 10.328125 L 152.113281 10.328125 L 150.296875 13.980469 L 150.980469 13.980469 L 152.40625 11.089844 L 153.851562 13.980469 Z M 154.515625 13.980469 "/>
<path style=" stroke:none;fill-rule:nonzero;fill:rgb(0%,0%,0%);fill-opacity:1;" d="M 214.03125 13.980469 L 212.234375 10.328125 L 211.628906 10.328125 L 209.8125 13.980469 L 210.496094 13.980469 L 211.921875 11.089844 L 213.367188 13.980469 Z M 214.03125 13.980469 "/>
<path style="fill-rule:nonzero;fill:rgb(40%,74.901961%,100%);fill-opacity:1;stroke-width:1;stroke-linecap:round;stroke-linejoin:round;stroke:rgb(0%,0%,0%);stroke-opacity:1;stroke-miterlimit:10;" d="M 72.940625 150.55625 L 98.940625 150.55625 L 98.940625 170.55625 L 72.940625 170.55625 Z M 72.940625 150.55625 " transform="matrix(1.25,0,0,1.25,-16.25,-86.25)"/>
<path style=" stroke:none;fill-rule:nonzero;fill:rgb(0%,0%,0%);fill-opacity:1;" d="M 83.910156 112.335938 C 83.753906 111.554688 83.617188 111.359375 83.34375 111.359375 C 83.070312 111.359375 82.699219 111.4375 82.015625 111.691406 L 81.898438 111.730469 L 81.9375 111.90625 L 82.132812 111.847656 C 82.347656 111.789062 82.484375 111.769531 82.5625 111.769531 C 82.855469 111.769531 82.933594 111.867188 83.089844 112.53125 L 83.402344 113.9375 L 82.484375 115.246094 C 82.25 115.578125 82.035156 115.792969 81.898438 115.792969 C 81.839844 115.792969 81.722656 115.753906 81.605469 115.695312 C 81.46875 115.617188 81.351562 115.558594 81.253906 115.558594 C 81.039062 115.558594 80.863281 115.753906 80.863281 115.96875 C 80.863281 116.261719 81.078125 116.4375 81.429688 116.4375 C 81.78125 116.4375 82.015625 116.339844 82.503906 115.675781 L 83.5 114.347656 L 83.8125 115.675781 C 83.949219 116.242188 84.125 116.4375 84.476562 116.4375 C 84.90625 116.4375 85.199219 116.183594 85.863281 115.167969 L 85.6875 115.050781 C 85.589844 115.167969 85.550781 115.246094 85.453125 115.382812 C 85.199219 115.714844 85.0625 115.832031 84.925781 115.832031 C 84.769531 115.832031 84.671875 115.675781 84.59375 115.363281 L 84.222656 113.859375 C 84.164062 113.585938 84.125 113.429688 84.125 113.351562 C 84.632812 112.492188 85.042969 111.984375 85.238281 111.984375 C 85.511719 111.984375 85.609375 112.179688 85.824219 112.179688 C 86.039062 112.179688 86.195312 112.003906 86.195312 111.769531 C 86.195312 111.535156 86.019531 111.359375 85.746094 111.359375 C 85.257812 111.359375 84.828125 111.769531 84.046875 112.960938 Z M 83.910156 112.335938 "/>
<path style=" stroke:none;fill-rule:nonzero;fill:rgb(0%,0%,0%);fill-opacity:1;" d="M 88.394531 116.867188 L 87.789062 116.867188 L 88.003906 116.085938 C 88.003906 116.066406 88.003906 116.027344 88.003906 116.027344 C 88.003906 115.988281 87.984375 115.96875 87.945312 115.96875 C 87.90625 115.96875 87.867188 115.988281 87.828125 116.046875 C 87.554688 116.457031 87.066406 116.808594 86.832031 116.867188 C 86.65625 116.90625 86.597656 116.964844 86.597656 117.0625 C 86.597656 117.0625 86.597656 117.082031 86.597656 117.101562 L 87.164062 117.101562 L 86.578125 119.328125 C 86.519531 119.5625 86.460938 119.796875 86.460938 119.875 C 86.460938 120.070312 86.597656 120.148438 86.792969 120.148438 C 87.183594 120.148438 87.417969 119.933594 87.867188 119.25 L 87.769531 119.191406 C 87.398438 119.660156 87.28125 119.777344 87.164062 119.777344 C 87.105469 119.777344 87.046875 119.757812 87.046875 119.660156 C 87.046875 119.640625 87.066406 119.582031 87.066406 119.5625 L 87.710938 117.101562 L 88.355469 117.101562 Z M 88.394531 116.867188 "/>
<path style=" stroke:none;fill-rule:nonzero;fill:rgb(0%,0%,0%);fill-opacity:1;" d="M 92.6875 118.429688 L 92.6875 117.921875 L 88.898438 117.921875 L 88.898438 118.429688 Z M 92.6875 118.429688 "/>
<path style=" stroke:none;fill-rule:nonzero;fill:rgb(0%,0%,0%);fill-opacity:1;" d="M 96.871094 119.035156 L 96.773438 118.996094 C 96.519531 119.425781 96.363281 119.503906 96.050781 119.503906 L 94.292969 119.503906 L 95.523438 118.175781 C 96.1875 117.472656 96.480469 116.90625 96.480469 116.320312 C 96.480469 115.578125 95.953125 114.992188 95.09375 114.992188 C 94.175781 114.992188 93.707031 115.617188 93.550781 116.496094 L 93.707031 116.535156 C 94 115.792969 94.253906 115.558594 94.800781 115.558594 C 95.445312 115.558594 95.835938 115.929688 95.835938 116.613281 C 95.835938 117.257812 95.582031 117.824219 94.859375 118.566406 L 93.53125 119.972656 L 93.53125 120.070312 L 96.460938 120.070312 Z M 96.871094 119.035156 "/>
<path style="fill-rule:nonzero;fill:rgb(40%,74.901961%,100%);fill-opacity:1;stroke-width:1;stroke-linecap:round;stroke-linejoin:round;stroke:rgb(0%,0%,0%);stroke-opacity:1;stroke-miterlimit:10;" d="M 123.55625 150.55625 L 149.55625 150.55625 L 149.55625 170.55625 L 123.55625 170.55625 Z M 123.55625 150.55625 " transform="matrix(1.25,0,0,1.25,-16.25,-86.25)"/>
<path style=" stroke:none;fill-rule:nonzero;fill:rgb(0%,0%,0%);fill-opacity:1;" d="M 149.230469 112.335938 C 149.074219 111.554688 148.9375 111.359375 148.664062 111.359375 C 148.390625 111.359375 148.019531 111.4375 147.335938 111.691406 L 147.21875 111.730469 L 147.257812 111.90625 L 147.453125 111.847656 C 147.667969 111.789062 147.804688 111.769531 147.882812 111.769531 C 148.175781 111.769531 148.253906 111.867188 148.410156 112.53125 L 148.722656 113.9375 L 147.804688 115.246094 C 147.570312 115.578125 147.355469 115.792969 147.21875 115.792969 C 147.160156 115.792969 147.042969 115.753906 146.925781 115.695312 C 146.789062 115.617188 146.671875 115.558594 146.574219 115.558594 C 146.359375 115.558594 146.183594 115.753906 146.183594 115.96875 C 146.183594 116.261719 146.398438 116.4375 146.75 116.4375 C 147.101562 116.4375 147.335938 116.339844 147.824219 115.675781 L 148.820312 114.347656 L 149.132812 115.675781 C 149.269531 116.242188 149.445312 116.4375 149.796875 116.4375 C 150.226562 116.4375 150.519531 116.183594 151.183594 115.167969 L 151.007812 115.050781 C 150.910156 115.167969 150.871094 115.246094 150.773438 115.382812 C 150.519531 115.714844 150.382812 115.832031 150.246094 115.832031 C 150.089844 115.832031 149.992188 115.675781 149.914062 115.363281 L 149.542969 113.859375 C 149.484375 113.585938 149.445312 113.429688 149.445312 113.351562 C 149.953125 112.492188 150.363281 111.984375 150.558594 111.984375 C 150.832031 111.984375 150.929688 112.179688 151.144531 112.179688 C 151.359375 112.179688 151.515625 112.003906 151.515625 111.769531 C 151.515625 111.535156 151.339844 111.359375 151.066406 111.359375 C 150.578125 111.359375 150.148438 111.769531 149.367188 112.960938 Z M 149.230469 112.335938 "/>
<path style=" stroke:none;fill-rule:nonzero;fill:rgb(0%,0%,0%);fill-opacity:1;" d="M 153.71875 116.867188 L 153.113281 116.867188 L 153.328125 116.085938 C 153.328125 116.066406 153.328125 116.027344 153.328125 116.027344 C 153.328125 115.988281 153.308594 115.96875 153.269531 115.96875 C 153.230469 115.96875 153.191406 115.988281 153.152344 116.046875 C 152.878906 116.457031 152.390625 116.808594 152.15625 116.867188 C 151.980469 116.90625 151.921875 116.964844 151.921875 117.0625 C 151.921875 117.0625 151.921875 117.082031 151.921875 117.101562 L 152.488281 117.101562 L 151.902344 119.328125 C 151.84375 119.5625 151.785156 119.796875 151.785156 119.875 C 151.785156 120.070312 151.921875 120.148438 152.117188 120.148438 C 152.507812 120.148438 152.742188 119.933594 153.191406 119.25 L 153.09375 119.191406 C 152.722656 119.660156 152.605469 119.777344 152.488281 119.777344 C 152.429688 119.777344 152.371094 119.757812 152.371094 119.660156 C 152.371094 119.640625 152.390625 119.582031 152.390625 119.5625 L 153.035156 117.101562 L 153.679688 117.101562 Z M 153.71875 116.867188 "/>
<path style=" stroke:none;fill-rule:nonzero;fill:rgb(0%,0%,0%);fill-opacity:1;" d="M 158.007812 118.429688 L 158.007812 117.921875 L 154.21875 117.921875 L 154.21875 118.429688 Z M 158.007812 118.429688 "/>
<path style=" stroke:none;fill-rule:nonzero;fill:rgb(0%,0%,0%);fill-opacity:1;" d="M 161.585938 120.070312 L 161.585938 119.953125 C 161.019531 119.953125 160.882812 119.816406 160.882812 119.503906 L 160.882812 115.03125 L 160.804688 114.992188 L 159.476562 115.675781 L 159.476562 115.792969 L 159.671875 115.714844 C 159.808594 115.65625 159.925781 115.617188 160.003906 115.617188 C 160.160156 115.617188 160.238281 115.734375 160.238281 115.988281 L 160.238281 119.367188 C 160.238281 119.777344 160.082031 119.933594 159.515625 119.953125 L 159.515625 120.070312 Z M 161.585938 120.070312 "/>
<path style="fill-rule:nonzero;fill:rgb(40%,74.901961%,100%);fill-opacity:1;stroke-width:1;stroke-linecap:round;stroke-linejoin:round;stroke:rgb(0%,0%,0%);stroke-opacity:1;stroke-miterlimit:10;" d="M 174.465625 150.55625 L 200.465625 150.55625 L 200.465625 170.55625 L 174.465625 170.55625 Z M 174.465625 150.55625 " transform="matrix(1.25,0,0,1.25,-16.25,-86.25)"/>
<path style=" stroke:none;fill-rule:nonzero;fill:rgb(0%,0%,0%);fill-opacity:1;" d="M 217.277344 112.335938 C 217.121094 111.554688 216.984375 111.359375 216.710938 111.359375 C 216.4375 111.359375 216.066406 111.4375 215.382812 111.691406 L 215.265625 111.730469 L 215.304688 111.90625 L 215.5 111.847656 C 215.714844 111.789062 215.851562 111.769531 215.929688 111.769531 C 216.222656 111.769531 216.300781 111.867188 216.457031 112.53125 L 216.769531 113.9375 L 215.851562 115.246094 C 215.617188 115.578125 215.402344 115.792969 215.265625 115.792969 C 215.207031 115.792969 215.089844 115.753906 214.972656 115.695312 C 214.835938 115.617188 214.71875 115.558594 214.621094 115.558594 C 214.40625 115.558594 214.230469 115.753906 214.230469 115.96875 C 214.230469 116.261719 214.445312 116.4375 214.796875 116.4375 C 215.148438 116.4375 215.382812 116.339844 215.871094 115.675781 L 216.867188 114.347656 L 217.179688 115.675781 C 217.316406 116.242188 217.492188 116.4375 217.84375 116.4375 C 218.273438 116.4375 218.566406 116.183594 219.230469 115.167969 L 219.054688 115.050781 C 218.957031 115.167969 218.917969 115.246094 218.820312 115.382812 C 218.566406 115.714844 218.429688 115.832031 218.292969 115.832031 C 218.136719 115.832031 218.039062 115.675781 217.960938 115.363281 L 217.589844 113.859375 C 217.53125 113.585938 217.492188 113.429688 217.492188 113.351562 C 218 112.492188 218.410156 111.984375 218.605469 111.984375 C 218.878906 111.984375 218.976562 112.179688 219.191406 112.179688 C 219.40625 112.179688 219.5625 112.003906 219.5625 111.769531 C 219.5625 111.535156 219.386719 111.359375 219.113281 111.359375 C 218.625 111.359375 218.195312 111.769531 217.414062 112.960938 Z M 217.277344 112.335938 "/>
<path style=" stroke:none;fill-rule:nonzero;fill:rgb(0%,0%,0%);fill-opacity:1;" d="M 221.765625 116.867188 L 221.160156 116.867188 L 221.375 116.085938 C 221.375 116.066406 221.375 116.027344 221.375 116.027344 C 221.375 115.988281 221.355469 115.96875 221.316406 115.96875 C 221.277344 115.96875 221.238281 115.988281 221.199219 116.046875 C 220.925781 116.457031 220.4375 116.808594 220.203125 116.867188 C 220.027344 116.90625 219.96875 116.964844 219.96875 117.0625 C 219.96875 117.0625 219.96875 117.082031 219.96875 117.101562 L 220.535156 117.101562 L 219.949219 119.328125 C 219.890625 119.5625 219.832031 119.796875 219.832031 119.875 C 219.832031 120.070312 219.96875 120.148438 220.164062 120.148438 C 220.554688 120.148438 220.789062 119.933594 221.238281 119.25 L 221.140625 119.191406 C 220.769531 119.660156 220.652344 119.777344 220.535156 119.777344 C 220.476562 119.777344 220.417969 119.757812 220.417969 119.660156 C 220.417969 119.640625 220.4375 119.582031 220.4375 119.5625 L 221.082031 117.101562 L 221.726562 117.101562 Z M 221.765625 116.867188 "/>
<path style="fill:none;stroke-width:1;stroke-linecap:round;stroke-linejoin:round;stroke:rgb(0%,0%,0%);stroke-opacity:1;stroke-miterlimit:10;" d="M 85.440625 150.55625 L 85.36875 137 " transform="matrix(1.25,0,0,1.25,-16.25,-86.25)"/>
<path style="fill:none;stroke-width:1;stroke-linecap:butt;stroke-linejoin:miter;stroke:rgb(0%,0%,0%);stroke-opacity:1;stroke-miterlimit:10;" d="M 85.34375 133 L 85.36875 137 M 83.86875 137.00625 L 85.34375 133 L 86.86875 136.99375 " transform="matrix(1.25,0,0,1.25,-16.25,-86.25)"/>
<path style="fill:none;stroke-width:1;stroke-linecap:round;stroke-linejoin:round;stroke:rgb(0%,0%,0%);stroke-opacity:1;stroke-miterlimit:10;" d="M 136.215625 150.55625 L 136.065625 137 " transform="matrix(1.25,0,0,1.25,-16.25,-86.25)"/>
<path style="fill:none;stroke-width:1;stroke-linecap:butt;stroke-linejoin:miter;stroke:rgb(0%,0%,0%);stroke-opacity:1;stroke-miterlimit:10;" d="M 136.025 133 L 136.065625 137 M 134.565625 137.015625 L 136.025 133 L 137.565625 136.984375 " transform="matrix(1.25,0,0,1.25,-16.25,-86.25)"/>
<path style="fill:none;stroke-width:1;stroke-linecap:round;stroke-linejoin:round;stroke:rgb(0%,0%,0%);stroke-opacity:1;stroke-miterlimit:10;" d="M 186.984375 150.55625 L 187.05625 137 " transform="matrix(1.25,0,0,1.25,-16.25,-86.25)"/>
<path style="fill:none;stroke-width:1;stroke-linecap:butt;stroke-linejoin:miter;stroke:rgb(0%,0%,0%);stroke-opacity:1;stroke-miterlimit:10;" d="M 187.075 133 L 187.05625 137 M 185.55625 136.99375 L 187.075 133 L 188.55625 137.00625 " transform="matrix(1.25,0,0,1.25,-16.25,-86.25)"/>
<path style=" stroke:none;fill-rule:nonzero;fill:rgb(0%,0%,0%);fill-opacity:1;" d="M 16.261719 107.667969 L 16.261719 115.695312 L 17.179688 115.695312 L 17.179688 107.667969 Z M 16.261719 107.667969 "/>
<path style=" stroke:none;fill-rule:nonzero;fill:rgb(0%,0%,0%);fill-opacity:1;" d="M 21.46875 109.71875 C 21.097656 109.71875 20.746094 109.816406 20.433594 109.992188 C 20.101562 110.167969 19.847656 110.402344 19.652344 110.734375 L 19.652344 109.875 L 18.753906 109.875 L 18.753906 115.695312 L 19.652344 115.695312 L 19.652344 112.179688 C 19.691406 111.652344 19.847656 111.242188 20.160156 110.929688 C 20.453125 110.636719 20.804688 110.480469 21.214844 110.480469 C 22.230469 110.480469 22.738281 111.046875 22.738281 112.179688 L 22.738281 115.695312 L 23.636719 115.695312 L 23.636719 112.121094 C 23.636719 110.519531 22.914062 109.71875 21.46875 109.71875 Z M 21.46875 109.71875 "/>
<path style=" stroke:none;fill-rule:nonzero;fill:rgb(0%,0%,0%);fill-opacity:1;" d="M 27.816406 109.71875 C 26.9375 109.71875 26.292969 110.089844 25.882812 110.832031 L 25.882812 109.875 L 25.042969 109.875 L 25.042969 117.921875 L 25.941406 117.921875 L 25.941406 114.640625 C 26.390625 115.441406 27.035156 115.851562 27.855469 115.851562 C 28.695312 115.851562 29.339844 115.539062 29.808594 114.933594 C 30.238281 114.367188 30.453125 113.664062 30.453125 112.804688 C 30.453125 111.925781 30.238281 111.222656 29.789062 110.65625 C 29.320312 110.03125 28.65625 109.71875 27.816406 109.71875 Z M 27.699219 110.460938 C 28.324219 110.460938 28.792969 110.695312 29.125 111.164062 C 29.398438 111.574219 29.535156 112.121094 29.535156 112.804688 C 29.535156 113.507812 29.398438 114.054688 29.105469 114.464844 C 28.773438 114.894531 28.304688 115.109375 27.660156 115.109375 C 27.132812 115.109375 26.722656 114.894531 26.390625 114.484375 C 26.058594 114.074219 25.902344 113.527344 25.902344 112.863281 L 25.902344 112.746094 C 25.902344 112.101562 26.058594 111.554688 26.351562 111.144531 C 26.664062 110.695312 27.113281 110.460938 27.699219 110.460938 Z M 27.699219 110.460938 "/>
<path style=" stroke:none;fill-rule:nonzero;fill:rgb(0%,0%,0%);fill-opacity:1;" d="M 31.632812 109.875 L 31.632812 113.488281 C 31.632812 115.050781 32.316406 115.851562 33.742188 115.851562 C 34.523438 115.851562 35.167969 115.5 35.636719 114.796875 L 35.636719 115.695312 L 36.535156 115.695312 L 36.535156 109.875 L 35.636719 109.875 L 35.636719 113.429688 C 35.558594 113.917969 35.382812 114.328125 35.050781 114.640625 C 34.757812 114.933594 34.40625 115.089844 34.015625 115.089844 C 33.488281 115.089844 33.117188 114.933594 32.882812 114.679688 C 32.648438 114.40625 32.53125 113.976562 32.53125 113.429688 L 32.53125 109.875 Z M 31.632812 109.875 "/>
<path style=" stroke:none;fill-rule:nonzero;fill:rgb(0%,0%,0%);fill-opacity:1;" d="M 39.476562 108 L 38.597656 108.371094 L 38.597656 109.875 L 37.425781 109.875 L 37.425781 110.636719 L 38.597656 110.636719 L 38.597656 114.328125 C 38.597656 114.777344 38.675781 115.089844 38.871094 115.324219 C 39.066406 115.578125 39.417969 115.695312 39.90625 115.695312 L 40.765625 115.695312 L 40.765625 114.933594 L 40.023438 114.933594 C 39.828125 114.933594 39.691406 114.894531 39.613281 114.796875 C 39.515625 114.699219 39.476562 114.542969 39.476562 114.328125 L 39.476562 110.636719 L 40.921875 110.636719 L 40.921875 109.875 L 39.476562 109.875 Z M 39.476562 108 "/>
</g>
</svg>
