<?xml version="1.0" encoding="utf-8" standalone="no"?>
<!DOCTYPE svg PUBLIC "-//W3C//DTD SVG 1.1//EN"
  "http://www.w3.org/Graphics/SVG/1.1/DTD/svg11.dtd">
<svg xmlns:xlink="http://www.w3.org/1999/xlink" width="460.8pt" height="345.6pt" viewBox="0 0 460.8 345.6" xmlns="http://www.w3.org/2000/svg" version="1.1">
 <metadata>
  <rdf:RDF xmlns:dc="http://purl.org/dc/elements/1.1/" xmlns:cc="http://creativecommons.org/ns#" xmlns:rdf="http://www.w3.org/1999/02/22-rdf-syntax-ns#">
   <cc:Work>
    <dc:type rdf:resource="http://purl.org/dc/dcmitype/StillImage"/>
    <dc:date>2024-04-11T06:27:51.863426</dc:date>
    <dc:format>image/svg+xml</dc:format>
    <dc:creator>
     <cc:Agent>
      <dc:title>Matplotlib v3.7.1, https://matplotlib.org/</dc:title>
     </cc:Agent>
    </dc:creator>
   </cc:Work>
  </rdf:RDF>
 </metadata>
 <defs>
  <style type="text/css">*{stroke-linejoin: round; stroke-linecap: butt}</style>
 </defs>
 <g id="figure_1">
  <g id="patch_1">
   <path d="M 0 345.6 
L 460.8 345.6 
L 460.8 0 
L 0 0 
z
" style="fill: #ffffff"/>
  </g>
  <g id="axes_1">
   <g id="patch_2">
    <path d="M 103.104 307.584 
L 369.216 307.584 
L 369.216 41.472 
L 103.104 41.472 
z
" style="fill: #ffffff"/>
   </g>
   <g id="PathCollection_1">
    <defs>
     <path id="m4bd7ec3202" d="M 0 0.447214 
C 0.118602 0.447214 0.232363 0.400092 0.316228 0.316228 
C 0.400092 0.232363 0.447214 0.118602 0.447214 0 
C 0.447214 -0.118602 0.400092 -0.232363 0.316228 -0.316228 
C 0.232363 -0.400092 0.118602 -0.447214 0 -0.447214 
C -0.118602 -0.447214 -0.232363 -0.400092 -0.316228 -0.316228 
C -0.400092 -0.232363 -0.447214 -0.118602 -0.447214 0 
C -0.447214 0.118602 -0.400092 0.232363 -0.316228 0.316228 
C -0.232363 0.400092 -0.118602 0.447214 0 0.447214 
z
" style="stroke: #1f77b4"/>
    </defs>
    <g clip-path="url(#pf832fcea3e)">
     <use xlink:href="#m4bd7ec3202" x="280.512" y="174.528" style="fill: #1f77b4; stroke: #1f77b4"/>
     <use xlink:href="#m4bd7ec3202" x="280.15518" y="168.913371" style="fill: #1f77b4; stroke: #1f77b4"/>
     <use xlink:href="#m4bd7ec3202" x="279.090461" y="163.389084" style="fill: #1f77b4; stroke: #1f77b4"/>
     <use xlink:href="#m4bd7ec3202" x="277.334975" y="158.044027" style="fill: #1f77b4; stroke: #1f77b4"/>
     <use xlink:href="#m4bd7ec3202" x="274.916968" y="152.964202" style="fill: #1f77b4; stroke: #1f77b4"/>
     <use xlink:href="#m4bd7ec3202" x="271.875346" y="148.231348" style="fill: #1f77b4; stroke: #1f77b4"/>
     <use xlink:href="#m4bd7ec3202" x="268.259052" y="143.921616" style="fill: #1f77b4; stroke: #1f77b4"/>
     <use xlink:href="#m4bd7ec3202" x="264.126272" y="140.104352" style="fill: #1f77b4; stroke: #1f77b4"/>
     <use xlink:href="#m4bd7ec3202" x="259.543504" y="136.840978" style="fill: #1f77b4; stroke: #1f77b4"/>
     <use xlink:href="#m4bd7ec3202" x="254.584487" y="134.184002" style="fill: #1f77b4; stroke: #1f77b4"/>
     <use xlink:href="#m4bd7ec3202" x="249.329012" y="132.176176" style="fill: #1f77b4; stroke: #1f77b4"/>
     <use xlink:href="#m4bd7ec3202" x="243.861644" y="130.849807" style="fill: #1f77b4; stroke: #1f77b4"/>
     <use xlink:href="#m4bd7ec3202" x="238.270353" y="130.226236" style="fill: #1f77b4; stroke: #1f77b4"/>
     <use xlink:href="#m4bd7ec3202" x="232.645106" y="130.315497" style="fill: #1f77b4; stroke: #1f77b4"/>
     <use xlink:href="#m4bd7ec3202" x="227.076415" y="131.116154" style="fill: #1f77b4; stroke: #1f77b4"/>
     <use xlink:href="#m4bd7ec3202" x="221.653882" y="132.615324" style="fill: #1f77b4; stroke: #1f77b4"/>
     <use xlink:href="#m4bd7ec3202" x="216.464758" y="134.788884" style="fill: #1f77b4; stroke: #1f77b4"/>
     <use xlink:href="#m4bd7ec3202" x="211.592537" y="137.601862" style="fill: #1f77b4; stroke: #1f77b4"/>
     <use xlink:href="#m4bd7ec3202" x="207.115617" y="141.008995" style="fill: #1f77b4; stroke: #1f77b4"/>
     <use xlink:href="#m4bd7ec3202" x="203.106031" y="144.955461" style="fill: #1f77b4; stroke: #1f77b4"/>
     <use xlink:href="#m4bd7ec3202" x="199.628296" y="149.377761" style="fill: #1f77b4; stroke: #1f77b4"/>
     <use xlink:href="#m4bd7ec3202" x="196.73837" y="154.204737" style="fill: #1f77b4; stroke: #1f77b4"/>
     <use xlink:href="#m4bd7ec3202" x="194.482753" y="159.358723" style="fill: #1f77b4; stroke: #1f77b4"/>
     <use xlink:href="#m4bd7ec3202" x="192.897738" y="164.756787" style="fill: #1f77b4; stroke: #1f77b4"/>
     <use xlink:href="#m4bd7ec3202" x="192.008829" y="170.312074" style="fill: #1f77b4; stroke: #1f77b4"/>
     <use xlink:href="#m4bd7ec3202" x="191.830329" y="175.935197" style="fill: #1f77b4; stroke: #1f77b4"/>
     <use xlink:href="#m4bd7ec3202" x="192.36511" y="181.535678" style="fill: #1f77b4; stroke: #1f77b4"/>
     <use xlink:href="#m4bd7ec3202" x="193.604568" y="187.023402" style="fill: #1f77b4; stroke: #1f77b4"/>
     <use xlink:href="#m4bd7ec3202" x="195.528758" y="192.310071" style="fill: #1f77b4; stroke: #1f77b4"/>
     <use xlink:href="#m4bd7ec3202" x="198.10672" y="197.31062" style="fill: #1f77b4; stroke: #1f77b4"/>
     <use xlink:href="#m4bd7ec3202" x="201.296973" y="201.944587" style="fill: #1f77b4; stroke: #1f77b4"/>
     <use xlink:href="#m4bd7ec3202" x="205.048186" y="206.137412" style="fill: #1f77b4; stroke: #1f77b4"/>
     <use xlink:href="#m4bd7ec3202" x="209.299999" y="209.821629" style="fill: #1f77b4; stroke: #1f77b4"/>
     <use xlink:href="#m4bd7ec3202" x="213.984" y="212.937959" style="fill: #1f77b4; stroke: #1f77b4"/>
     <use xlink:href="#m4bd7ec3202" x="219.024821" y="215.436258" style="fill: #1f77b4; stroke: #1f77b4"/>
     <use xlink:href="#m4bd7ec3202" x="224.341353" y="217.276327" style="fill: #1f77b4; stroke: #1f77b4"/>
     <use xlink:href="#m4bd7ec3202" x="229.848052" y="218.428561" style="fill: #1f77b4; stroke: #1f77b4"/>
     <use xlink:href="#m4bd7ec3202" x="235.456313" y="218.874417" style="fill: #1f77b4; stroke: #1f77b4"/>
     <use xlink:href="#m4bd7ec3202" x="241.075896" y="218.606724" style="fill: #1f77b4; stroke: #1f77b4"/>
     <use xlink:href="#m4bd7ec3202" x="246.61638" y="217.629787" style="fill: #1f77b4; stroke: #1f77b4"/>
     <use xlink:href="#m4bd7ec3202" x="251.988618" y="215.959326" style="fill: #1f77b4; stroke: #1f77b4"/>
     <use xlink:href="#m4bd7ec3202" x="257.106167" y="213.62222" style="fill: #1f77b4; stroke: #1f77b4"/>
     <use xlink:href="#m4bd7ec3202" x="261.886684" y="210.656073" style="fill: #1f77b4; stroke: #1f77b4"/>
     <use xlink:href="#m4bd7ec3202" x="266.253249" y="207.108611" style="fill: #1f77b4; stroke: #1f77b4"/>
     <use xlink:href="#m4bd7ec3202" x="270.135603" y="203.036916" style="fill: #1f77b4; stroke: #1f77b4"/>
     <use xlink:href="#m4bd7ec3202" x="273.471277" y="198.506502" style="fill: #1f77b4; stroke: #1f77b4"/>
     <use xlink:href="#m4bd7ec3202" x="276.206598" y="193.590264" style="fill: #1f77b4; stroke: #1f77b4"/>
     <use xlink:href="#m4bd7ec3202" x="278.297554" y="188.367307" style="fill: #1f77b4; stroke: #1f77b4"/>
     <use xlink:href="#m4bd7ec3202" x="279.710502" y="182.921671" style="fill: #1f77b4; stroke: #1f77b4"/>
     <use xlink:href="#m4bd7ec3202" x="280.422705" y="177.340978" style="fill: #1f77b4; stroke: #1f77b4"/>
     <use xlink:href="#m4bd7ec3202" x="280.422705" y="171.715022" style="fill: #1f77b4; stroke: #1f77b4"/>
     <use xlink:href="#m4bd7ec3202" x="279.710502" y="166.134329" style="fill: #1f77b4; stroke: #1f77b4"/>
     <use xlink:href="#m4bd7ec3202" x="278.297554" y="160.688693" style="fill: #1f77b4; stroke: #1f77b4"/>
     <use xlink:href="#m4bd7ec3202" x="276.206598" y="155.465736" style="fill: #1f77b4; stroke: #1f77b4"/>
     <use xlink:href="#m4bd7ec3202" x="273.471277" y="150.549498" style="fill: #1f77b4; stroke: #1f77b4"/>
     <use xlink:href="#m4bd7ec3202" x="270.135603" y="146.019084" style="fill: #1f77b4; stroke: #1f77b4"/>
     <use xlink:href="#m4bd7ec3202" x="266.253249" y="141.947389" style="fill: #1f77b4; stroke: #1f77b4"/>
     <use xlink:href="#m4bd7ec3202" x="261.886684" y="138.399927" style="fill: #1f77b4; stroke: #1f77b4"/>
     <use xlink:href="#m4bd7ec3202" x="257.106167" y="135.43378" style="fill: #1f77b4; stroke: #1f77b4"/>
     <use xlink:href="#m4bd7ec3202" x="251.988618" y="133.096674" style="fill: #1f77b4; stroke: #1f77b4"/>
     <use xlink:href="#m4bd7ec3202" x="246.61638" y="131.426213" style="fill: #1f77b4; stroke: #1f77b4"/>
     <use xlink:href="#m4bd7ec3202" x="241.075896" y="130.449276" style="fill: #1f77b4; stroke: #1f77b4"/>
     <use xlink:href="#m4bd7ec3202" x="235.456313" y="130.181583" style="fill: #1f77b4; stroke: #1f77b4"/>
     <use xlink:href="#m4bd7ec3202" x="229.848052" y="130.627439" style="fill: #1f77b4; stroke: #1f77b4"/>
     <use xlink:href="#m4bd7ec3202" x="224.341353" y="131.779673" style="fill: #1f77b4; stroke: #1f77b4"/>
     <use xlink:href="#m4bd7ec3202" x="219.024821" y="133.619742" style="fill: #1f77b4; stroke: #1f77b4"/>
     <use xlink:href="#m4bd7ec3202" x="213.984" y="136.118041" style="fill: #1f77b4; stroke: #1f77b4"/>
     <use xlink:href="#m4bd7ec3202" x="209.299999" y="139.234371" style="fill: #1f77b4; stroke: #1f77b4"/>
     <use xlink:href="#m4bd7ec3202" x="205.048186" y="142.918588" style="fill: #1f77b4; stroke: #1f77b4"/>
     <use xlink:href="#m4bd7ec3202" x="201.296973" y="147.111413" style="fill: #1f77b4; stroke: #1f77b4"/>
     <use xlink:href="#m4bd7ec3202" x="198.10672" y="151.74538" style="fill: #1f77b4; stroke: #1f77b4"/>
     <use xlink:href="#m4bd7ec3202" x="195.528758" y="156.745929" style="fill: #1f77b4; stroke: #1f77b4"/>
     <use xlink:href="#m4bd7ec3202" x="193.604568" y="162.032598" style="fill: #1f77b4; stroke: #1f77b4"/>
     <use xlink:href="#m4bd7ec3202" x="192.36511" y="167.520322" style="fill: #1f77b4; stroke: #1f77b4"/>
     <use xlink:href="#m4bd7ec3202" x="191.830329" y="173.120803" style="fill: #1f77b4; stroke: #1f77b4"/>
     <use xlink:href="#m4bd7ec3202" x="192.008829" y="178.743926" style="fill: #1f77b4; stroke: #1f77b4"/>
     <use xlink:href="#m4bd7ec3202" x="192.897738" y="184.299213" style="fill: #1f77b4; stroke: #1f77b4"/>
     <use xlink:href="#m4bd7ec3202" x="194.482753" y="189.697277" style="fill: #1f77b4; stroke: #1f77b4"/>
     <use xlink:href="#m4bd7ec3202" x="196.73837" y="194.851263" style="fill: #1f77b4; stroke: #1f77b4"/>
     <use xlink:href="#m4bd7ec3202" x="199.628296" y="199.678239" style="fill: #1f77b4; stroke: #1f77b4"/>
     <use xlink:href="#m4bd7ec3202" x="203.106031" y="204.100539" style="fill: #1f77b4; stroke: #1f77b4"/>
     <use xlink:href="#m4bd7ec3202" x="207.115617" y="208.047005" style="fill: #1f77b4; stroke: #1f77b4"/>
     <use xlink:href="#m4bd7ec3202" x="211.592537" y="211.454138" style="fill: #1f77b4; stroke: #1f77b4"/>
     <use xlink:href="#m4bd7ec3202" x="216.464758" y="214.267116" style="fill: #1f77b4; stroke: #1f77b4"/>
     <use xlink:href="#m4bd7ec3202" x="221.653882" y="216.440676" style="fill: #1f77b4; stroke: #1f77b4"/>
     <use xlink:href="#m4bd7ec3202" x="227.076415" y="217.939846" style="fill: #1f77b4; stroke: #1f77b4"/>
     <use xlink:href="#m4bd7ec3202" x="232.645106" y="218.740503" style="fill: #1f77b4; stroke: #1f77b4"/>
     <use xlink:href="#m4bd7ec3202" x="238.270353" y="218.829764" style="fill: #1f77b4; stroke: #1f77b4"/>
     <use xlink:href="#m4bd7ec3202" x="243.861644" y="218.206193" style="fill: #1f77b4; stroke: #1f77b4"/>
     <use xlink:href="#m4bd7ec3202" x="249.329012" y="216.879824" style="fill: #1f77b4; stroke: #1f77b4"/>
     <use xlink:href="#m4bd7ec3202" x="254.584487" y="214.871998" style="fill: #1f77b4; stroke: #1f77b4"/>
     <use xlink:href="#m4bd7ec3202" x="259.543504" y="212.215022" style="fill: #1f77b4; stroke: #1f77b4"/>
     <use xlink:href="#m4bd7ec3202" x="264.126272" y="208.951648" style="fill: #1f77b4; stroke: #1f77b4"/>
     <use xlink:href="#m4bd7ec3202" x="268.259052" y="205.134384" style="fill: #1f77b4; stroke: #1f77b4"/>
     <use xlink:href="#m4bd7ec3202" x="271.875346" y="200.824652" style="fill: #1f77b4; stroke: #1f77b4"/>
     <use xlink:href="#m4bd7ec3202" x="274.916968" y="196.091798" style="fill: #1f77b4; stroke: #1f77b4"/>
     <use xlink:href="#m4bd7ec3202" x="277.334975" y="191.011973" style="fill: #1f77b4; stroke: #1f77b4"/>
     <use xlink:href="#m4bd7ec3202" x="279.090461" y="185.666916" style="fill: #1f77b4; stroke: #1f77b4"/>
     <use xlink:href="#m4bd7ec3202" x="280.15518" y="180.142629" style="fill: #1f77b4; stroke: #1f77b4"/>
     <use xlink:href="#m4bd7ec3202" x="280.512" y="174.528" style="fill: #1f77b4; stroke: #1f77b4"/>
    </g>
   </g>
   <g id="PathCollection_2">
    <defs>
     <path id="me67b5d9463" d="M 0 0.447214 
C 0.118602 0.447214 0.232363 0.400092 0.316228 0.316228 
C 0.400092 0.232363 0.447214 0.118602 0.447214 0 
C 0.447214 -0.118602 0.400092 -0.232363 0.316228 -0.316228 
C 0.232363 -0.400092 0.118602 -0.447214 0 -0.447214 
C -0.118602 -0.447214 -0.232363 -0.400092 -0.316228 -0.316228 
C -0.400092 -0.232363 -0.447214 -0.118602 -0.447214 0 
C -0.447214 0.118602 -0.400092 0.232363 -0.316228 0.316228 
C -0.232363 0.400092 -0.118602 0.447214 0 0.447214 
z
" style="stroke: #ff7f0e"/>
    </defs>
    <g clip-path="url(#pf832fcea3e)">
     <use xlink:href="#me67b5d9463" x="314.39925" y="131.119013" style="fill: #ff7f0e; stroke: #ff7f0e"/>
     <use xlink:href="#me67b5d9463" x="316.016534" y="118.886464" style="fill: #ff7f0e; stroke: #ff7f0e"/>
     <use xlink:href="#me67b5d9463" x="316.348897" y="107.549207" style="fill: #ff7f0e; stroke: #ff7f0e"/>
     <use xlink:href="#me67b5d9463" x="315.390991" y="97.289665" style="fill: #ff7f0e; stroke: #ff7f0e"/>
     <use xlink:href="#me67b5d9463" x="313.158229" y="88.272916" style="fill: #ff7f0e; stroke: #ff7f0e"/>
     <use xlink:href="#me67b5d9463" x="309.686536" y="80.644044" style="fill: #ff7f0e; stroke: #ff7f0e"/>
     <use xlink:href="#me67b5d9463" x="305.031773" y="74.5258" style="fill: #ff7f0e; stroke: #ff7f0e"/>
     <use xlink:href="#me67b5d9463" x="299.268838" y="70.016629" style="fill: #ff7f0e; stroke: #ff7f0e"/>
     <use xlink:href="#me67b5d9463" x="292.490459" y="67.189085" style="fill: #ff7f0e; stroke: #ff7f0e"/>
     <use xlink:href="#me67b5d9463" x="284.805701" y="66.088664" style="fill: #ff7f0e; stroke: #ff7f0e"/>
     <use xlink:href="#me67b5d9463" x="276.338215" y="66.733072" style="fill: #ff7f0e; stroke: #ff7f0e"/>
     <use xlink:href="#me67b5d9463" x="267.224247" y="69.111942" style="fill: #ff7f0e; stroke: #ff7f0e"/>
     <use xlink:href="#me67b5d9463" x="257.610444" y="73.186995" style="fill: #ff7f0e; stroke: #ff7f0e"/>
     <use xlink:href="#me67b5d9463" x="247.651495" y="78.892663" style="fill: #ff7f0e; stroke: #ff7f0e"/>
     <use xlink:href="#me67b5d9463" x="237.507643" y="86.137139" style="fill: #ff7f0e; stroke: #ff7f0e"/>
     <use xlink:href="#me67b5d9463" x="227.342108" y="94.803858" style="fill: #ff7f0e; stroke: #ff7f0e"/>
     <use xlink:href="#me67b5d9463" x="217.318455" y="104.753367" style="fill: #ff7f0e; stroke: #ff7f0e"/>
     <use xlink:href="#me67b5d9463" x="207.59797" y="115.825577" style="fill: #ff7f0e; stroke: #ff7f0e"/>
     <use xlink:href="#me67b5d9463" x="198.337059" y="127.842331" style="fill: #ff7f0e; stroke: #ff7f0e"/>
     <use xlink:href="#me67b5d9463" x="189.684733" y="140.610274" style="fill: #ff7f0e; stroke: #ff7f0e"/>
     <use xlink:href="#me67b5d9463" x="181.780212" y="153.923966" style="fill: #ff7f0e; stroke: #ff7f0e"/>
     <use xlink:href="#me67b5d9463" x="174.750681" y="167.569185" style="fill: #ff7f0e; stroke: #ff7f0e"/>
     <use xlink:href="#me67b5d9463" x="168.70925" y="181.326374" style="fill: #ff7f0e; stroke: #ff7f0e"/>
     <use xlink:href="#me67b5d9463" x="163.753127" y="194.974175" style="fill: #ff7f0e; stroke: #ff7f0e"/>
     <use xlink:href="#me67b5d9463" x="159.962057" y="208.292989" style="fill: #ff7f0e; stroke: #ff7f0e"/>
     <use xlink:href="#me67b5d9463" x="157.39704" y="221.068511" style="fill: #ff7f0e; stroke: #ff7f0e"/>
     <use xlink:href="#me67b5d9463" x="156.099349" y="233.09518" style="fill: #ff7f0e; stroke: #ff7f0e"/>
     <use xlink:href="#me67b5d9463" x="156.089864" y="244.17948" style="fill: #ff7f0e; stroke: #ff7f0e"/>
     <use xlink:href="#me67b5d9463" x="157.368738" y="254.143062" style="fill: #ff7f0e; stroke: #ff7f0e"/>
     <use xlink:href="#me67b5d9463" x="159.915392" y="262.825608" style="fill: #ff7f0e; stroke: #ff7f0e"/>
     <use xlink:href="#me67b5d9463" x="163.688851" y="270.087413" style="fill: #ff7f0e; stroke: #ff7f0e"/>
     <use xlink:href="#me67b5d9463" x="168.628397" y="275.81163" style="fill: #ff7f0e; stroke: #ff7f0e"/>
     <use xlink:href="#me67b5d9463" x="174.654552" y="279.906157" style="fill: #ff7f0e; stroke: #ff7f0e"/>
     <use xlink:href="#me67b5d9463" x="181.670353" y="282.305109" style="fill: #ff7f0e; stroke: #ff7f0e"/>
     <use xlink:href="#me67b5d9463" x="189.562913" y="282.969887" style="fill: #ff7f0e; stroke: #ff7f0e"/>
     <use xlink:href="#me67b5d9463" x="198.205237" y="281.889795" style="fill: #ff7f0e; stroke: #ff7f0e"/>
     <use xlink:href="#me67b5d9463" x="207.458268" y="279.082211" style="fill: #ff7f0e; stroke: #ff7f0e"/>
     <use xlink:href="#me67b5d9463" x="217.17312" y="274.59231" style="fill: #ff7f0e; stroke: #ff7f0e"/>
     <use xlink:href="#me67b5d9463" x="227.193479" y="268.492338" style="fill: #ff7f0e; stroke: #ff7f0e"/>
     <use xlink:href="#me67b5d9463" x="237.358112" y="260.880444" style="fill: #ff7f0e; stroke: #ff7f0e"/>
     <use xlink:href="#me67b5d9463" x="247.503466" y="251.879107" style="fill: #ff7f0e; stroke: #ff7f0e"/>
     <use xlink:href="#me67b5d9463" x="257.466301" y="241.633162" style="fill: #ff7f0e; stroke: #ff7f0e"/>
     <use xlink:href="#me67b5d9463" x="267.086309" y="230.307469" style="fill: #ff7f0e; stroke: #ff7f0e"/>
     <use xlink:href="#me67b5d9463" x="276.208701" y="218.084264" style="fill: #ff7f0e; stroke: #ff7f0e"/>
     <use xlink:href="#me67b5d9463" x="284.686694" y="205.160223" style="fill: #ff7f0e; stroke: #ff7f0e"/>
     <use xlink:href="#me67b5d9463" x="292.383875" y="191.743297" style="fill: #ff7f0e; stroke: #ff7f0e"/>
     <use xlink:href="#me67b5d9463" x="299.176393" y="178.049371" style="fill: #ff7f0e; stroke: #ff7f0e"/>
     <use xlink:href="#me67b5d9463" x="304.954953" y="164.298785" style="fill: #ff7f0e; stroke: #ff7f0e"/>
     <use xlink:href="#me67b5d9463" x="309.626576" y="150.712791" style="fill: #ff7f0e; stroke: #ff7f0e"/>
     <use xlink:href="#me67b5d9463" x="313.116095" y="137.509992" style="fill: #ff7f0e; stroke: #ff7f0e"/>
     <use xlink:href="#me67b5d9463" x="315.367362" y="124.902827" style="fill: #ff7f0e; stroke: #ff7f0e"/>
     <use xlink:href="#me67b5d9463" x="316.344153" y="113.094149" style="fill: #ff7f0e; stroke: #ff7f0e"/>
     <use xlink:href="#me67b5d9463" x="316.03075" y="102.273965" style="fill: #ff7f0e; stroke: #ff7f0e"/>
     <use xlink:href="#me67b5d9463" x="314.432197" y="92.616376" style="fill: #ff7f0e; stroke: #ff7f0e"/>
     <use xlink:href="#me67b5d9463" x="311.574215" y="84.276775" style="fill: #ff7f0e; stroke: #ff7f0e"/>
     <use xlink:href="#me67b5d9463" x="307.502791" y="77.389351" style="fill: #ff7f0e; stroke: #ff7f0e"/>
     <use xlink:href="#me67b5d9463" x="302.283434" y="72.064923" style="fill: #ff7f0e; stroke: #ff7f0e"/>
     <use xlink:href="#me67b5d9463" x="296.000126" y="68.389165" style="fill: #ff7f0e; stroke: #ff7f0e"/>
     <use xlink:href="#me67b5d9463" x="288.753968" y="66.42122" style="fill: #ff7f0e; stroke: #ff7f0e"/>
     <use xlink:href="#me67b5d9463" x="280.661554" y="66.192754" style="fill: #ff7f0e; stroke: #ff7f0e"/>
     <use xlink:href="#me67b5d9463" x="271.853093" y="67.707443" style="fill: #ff7f0e; stroke: #ff7f0e"/>
     <use xlink:href="#me67b5d9463" x="262.470317" y="70.940914" style="fill: #ff7f0e; stroke: #ff7f0e"/>
     <use xlink:href="#me67b5d9463" x="252.664197" y="75.84114" style="fill: #ff7f0e; stroke: #ff7f0e"/>
     <use xlink:href="#me67b5d9463" x="242.59252" y="82.329275" style="fill: #ff7f0e; stroke: #ff7f0e"/>
     <use xlink:href="#me67b5d9463" x="232.41734" y="90.300922" style="fill: #ff7f0e; stroke: #ff7f0e"/>
     <use xlink:href="#me67b5d9463" x="222.302381" y="99.627814" style="fill: #ff7f0e; stroke: #ff7f0e"/>
     <use xlink:href="#me67b5d9463" x="212.410397" y="110.159878" style="fill: #ff7f0e; stroke: #ff7f0e"/>
     <use xlink:href="#me67b5d9463" x="202.900553" y="121.72765" style="fill: #ff7f0e; stroke: #ff7f0e"/>
     <use xlink:href="#me67b5d9463" x="193.925865" y="134.144998" style="fill: #ff7f0e; stroke: #ff7f0e"/>
     <use xlink:href="#me67b5d9463" x="185.630741" y="147.212124" style="fill: #ff7f0e; stroke: #ff7f0e"/>
     <use xlink:href="#me67b5d9463" x="178.148651" y="160.718773" style="fill: #ff7f0e; stroke: #ff7f0e"/>
     <use xlink:href="#me67b5d9463" x="171.599986" y="174.447618" style="fill: #ff7f0e; stroke: #ff7f0e"/>
     <use xlink:href="#me67b5d9463" x="166.090115" y="188.177756" style="fill: #ff7f0e; stroke: #ff7f0e"/>
     <use xlink:href="#me67b5d9463" x="161.707695" y="201.688264" style="fill: #ff7f0e; stroke: #ff7f0e"/>
     <use xlink:href="#me67b5d9463" x="158.523241" y="214.761754" style="fill: #ff7f0e; stroke: #ff7f0e"/>
     <use xlink:href="#me67b5d9463" x="156.587991" y="227.187867" style="fill: #ff7f0e; stroke: #ff7f0e"/>
     <use xlink:href="#me67b5d9463" x="155.933084" y="238.766663" style="fill: #ff7f0e; stroke: #ff7f0e"/>
     <use xlink:href="#me67b5d9463" x="156.569059" y="249.311835" style="fill: #ff7f0e; stroke: #ff7f0e"/>
     <use xlink:href="#me67b5d9463" x="158.485681" y="258.653708" style="fill: #ff7f0e; stroke: #ff7f0e"/>
     <use xlink:href="#me67b5d9463" x="161.652113" y="266.641966" style="fill: #ff7f0e; stroke: #ff7f0e"/>
     <use xlink:href="#me67b5d9463" x="166.017404" y="273.148076" style="fill: #ff7f0e; stroke: #ff7f0e"/>
     <use xlink:href="#me67b5d9463" x="171.511316" y="278.067352" style="fill: #ff7f0e; stroke: #ff7f0e"/>
     <use xlink:href="#me67b5d9463" x="178.045449" y="281.320641" style="fill: #ff7f0e; stroke: #ff7f0e"/>
     <use xlink:href="#me67b5d9463" x="185.514668" y="282.855596" style="fill: #ff7f0e; stroke: #ff7f0e"/>
     <use xlink:href="#me67b5d9463" x="193.798788" y="282.64752" style="fill: #ff7f0e; stroke: #ff7f0e"/>
     <use xlink:href="#me67b5d9463" x="202.764517" y="280.699761" style="fill: #ff7f0e; stroke: #ff7f0e"/>
     <use xlink:href="#me67b5d9463" x="212.267591" y="277.043658" style="fill: #ff7f0e; stroke: #ff7f0e"/>
     <use xlink:href="#me67b5d9463" x="222.155103" y="271.738039" style="fill: #ff7f0e; stroke: #ff7f0e"/>
     <use xlink:href="#me67b5d9463" x="232.267959" y="264.868275" style="fill: #ff7f0e; stroke: #ff7f0e"/>
     <use xlink:href="#me67b5d9463" x="242.44344" y="256.544902" style="fill: #ff7f0e; stroke: #ff7f0e"/>
     <use xlink:href="#me67b5d9463" x="252.517817" y="246.901846" style="fill: #ff7f0e; stroke: #ff7f0e"/>
     <use xlink:href="#me67b5d9463" x="262.328991" y="236.094268" style="fill: #ff7f0e; stroke: #ff7f0e"/>
     <use xlink:href="#me67b5d9463" x="271.719097" y="224.296066" style="fill: #ff7f0e; stroke: #ff7f0e"/>
     <use xlink:href="#me67b5d9463" x="280.537043" y="211.697077" style="fill: #ff7f0e; stroke: #ff7f0e"/>
     <use xlink:href="#me67b5d9463" x="288.640946" y="198.500023" style="fill: #ff7f0e; stroke: #ff7f0e"/>
     <use xlink:href="#me67b5d9463" x="295.900411" y="184.917251" style="fill: #ff7f0e; stroke: #ff7f0e"/>
     <use xlink:href="#me67b5d9463" x="302.19863" y="171.167312" style="fill: #ff7f0e; stroke: #ff7f0e"/>
     <use xlink:href="#me67b5d9463" x="307.434263" y="157.471447" style="fill: #ff7f0e; stroke: #ff7f0e"/>
     <use xlink:href="#me67b5d9463" x="311.523066" y="144.050029" style="fill: #ff7f0e; stroke: #ff7f0e"/>
     <use xlink:href="#me67b5d9463" x="314.39925" y="131.119013" style="fill: #ff7f0e; stroke: #ff7f0e"/>
    </g>
   </g>
   <g id="patch_3">
    <path d="M 172.637315 278.79228 
L 173.107589 276.741715 
L 173.486351 276.972474 
L 235.970619 174.41262 
L 236.349381 174.64338 
L 173.865112 277.203234 
L 174.243874 277.433993 
z
" clip-path="url(#pf832fcea3e)" style="fill: #1f77b4; stroke: #000000; stroke-linejoin: miter"/>
   </g>
   <g id="patch_4">
    <path d="M 187.157631 144.673461 
L 189.208196 145.143735 
L 188.977437 145.522497 
L 236.27538 174.338619 
L 236.04462 174.717381 
L 188.746678 145.901258 
L 188.515919 146.280019 
z
" clip-path="url(#pf832fcea3e)" style="fill: #1f77b4; stroke: #000000; stroke-linejoin: miter"/>
   </g>
   <g id="matplotlib.axis_1">
    <g id="xtick_1">
     <g id="line2d_1">
      <defs>
       <path id="m574a6ca69e" d="M 0 0 
L 0 3.5 
" style="stroke: #000000; stroke-width: 0.8"/>
      </defs>
      <g>
       <use xlink:href="#m574a6ca69e" x="103.104" y="307.584" style="stroke: #000000; stroke-width: 0.8"/>
      </g>
     </g>
     <g id="text_1">
      <!-- −3 -->
      <g transform="translate(95.732906 322.182437) scale(0.1 -0.1)">
       <defs>
        <path id="DejaVuSans-2212" d="M 678 2272 
L 4684 2272 
L 4684 1741 
L 678 1741 
L 678 2272 
z
" transform="scale(0.015625)"/>
        <path id="DejaVuSans-33" d="M 2597 2516 
Q 3050 2419 3304 2112 
Q 3559 1806 3559 1356 
Q 3559 666 3084 287 
Q 2609 -91 1734 -91 
Q 1441 -91 1130 -33 
Q 819 25 488 141 
L 488 750 
Q 750 597 1062 519 
Q 1375 441 1716 441 
Q 2309 441 2620 675 
Q 2931 909 2931 1356 
Q 2931 1769 2642 2001 
Q 2353 2234 1838 2234 
L 1294 2234 
L 1294 2753 
L 1863 2753 
Q 2328 2753 2575 2939 
Q 2822 3125 2822 3475 
Q 2822 3834 2567 4026 
Q 2313 4219 1838 4219 
Q 1578 4219 1281 4162 
Q 984 4106 628 3988 
L 628 4550 
Q 988 4650 1302 4700 
Q 1616 4750 1894 4750 
Q 2613 4750 3031 4423 
Q 3450 4097 3450 3541 
Q 3450 3153 3228 2886 
Q 3006 2619 2597 2516 
z
" transform="scale(0.015625)"/>
       </defs>
       <use xlink:href="#DejaVuSans-2212"/>
       <use xlink:href="#DejaVuSans-33" x="83.789062"/>
      </g>
     </g>
    </g>
    <g id="xtick_2">
     <g id="line2d_2">
      <g>
       <use xlink:href="#m574a6ca69e" x="147.456" y="307.584" style="stroke: #000000; stroke-width: 0.8"/>
      </g>
     </g>
     <g id="text_2">
      <!-- −2 -->
      <g transform="translate(140.084906 322.182437) scale(0.1 -0.1)">
       <defs>
        <path id="DejaVuSans-32" d="M 1228 531 
L 3431 531 
L 3431 0 
L 469 0 
L 469 531 
Q 828 903 1448 1529 
Q 2069 2156 2228 2338 
Q 2531 2678 2651 2914 
Q 2772 3150 2772 3378 
Q 2772 3750 2511 3984 
Q 2250 4219 1831 4219 
Q 1534 4219 1204 4116 
Q 875 4013 500 3803 
L 500 4441 
Q 881 4594 1212 4672 
Q 1544 4750 1819 4750 
Q 2544 4750 2975 4387 
Q 3406 4025 3406 3419 
Q 3406 3131 3298 2873 
Q 3191 2616 2906 2266 
Q 2828 2175 2409 1742 
Q 1991 1309 1228 531 
z
" transform="scale(0.015625)"/>
       </defs>
       <use xlink:href="#DejaVuSans-2212"/>
       <use xlink:href="#DejaVuSans-32" x="83.789062"/>
      </g>
     </g>
    </g>
    <g id="xtick_3">
     <g id="line2d_3">
      <g>
       <use xlink:href="#m574a6ca69e" x="191.808" y="307.584" style="stroke: #000000; stroke-width: 0.8"/>
      </g>
     </g>
     <g id="text_3">
      <!-- −1 -->
      <g transform="translate(184.436906 322.182437) scale(0.1 -0.1)">
       <defs>
        <path id="DejaVuSans-31" d="M 794 531 
L 1825 531 
L 1825 4091 
L 703 3866 
L 703 4441 
L 1819 4666 
L 2450 4666 
L 2450 531 
L 3481 531 
L 3481 0 
L 794 0 
L 794 531 
z
" transform="scale(0.015625)"/>
       </defs>
       <use xlink:href="#DejaVuSans-2212"/>
       <use xlink:href="#DejaVuSans-31" x="83.789062"/>
      </g>
     </g>
    </g>
    <g id="xtick_4">
     <g id="line2d_4">
      <g>
       <use xlink:href="#m574a6ca69e" x="236.16" y="307.584" style="stroke: #000000; stroke-width: 0.8"/>
      </g>
     </g>
     <g id="text_4">
      <!-- 0 -->
      <g transform="translate(232.97875 322.182437) scale(0.1 -0.1)">
       <defs>
        <path id="DejaVuSans-30" d="M 2034 4250 
Q 1547 4250 1301 3770 
Q 1056 3291 1056 2328 
Q 1056 1369 1301 889 
Q 1547 409 2034 409 
Q 2525 409 2770 889 
Q 3016 1369 3016 2328 
Q 3016 3291 2770 3770 
Q 2525 4250 2034 4250 
z
M 2034 4750 
Q 2819 4750 3233 4129 
Q 3647 3509 3647 2328 
Q 3647 1150 3233 529 
Q 2819 -91 2034 -91 
Q 1250 -91 836 529 
Q 422 1150 422 2328 
Q 422 3509 836 4129 
Q 1250 4750 2034 4750 
z
" transform="scale(0.015625)"/>
       </defs>
       <use xlink:href="#DejaVuSans-30"/>
      </g>
     </g>
    </g>
    <g id="xtick_5">
     <g id="line2d_5">
      <g>
       <use xlink:href="#m574a6ca69e" x="280.512" y="307.584" style="stroke: #000000; stroke-width: 0.8"/>
      </g>
     </g>
     <g id="text_5">
      <!-- 1 -->
      <g transform="translate(277.33075 322.182437) scale(0.1 -0.1)">
       <use xlink:href="#DejaVuSans-31"/>
      </g>
     </g>
    </g>
    <g id="xtick_6">
     <g id="line2d_6">
      <g>
       <use xlink:href="#m574a6ca69e" x="324.864" y="307.584" style="stroke: #000000; stroke-width: 0.8"/>
      </g>
     </g>
     <g id="text_6">
      <!-- 2 -->
      <g transform="translate(321.68275 322.182437) scale(0.1 -0.1)">
       <use xlink:href="#DejaVuSans-32"/>
      </g>
     </g>
    </g>
    <g id="xtick_7">
     <g id="line2d_7">
      <g>
       <use xlink:href="#m574a6ca69e" x="369.216" y="307.584" style="stroke: #000000; stroke-width: 0.8"/>
      </g>
     </g>
     <g id="text_7">
      <!-- 3 -->
      <g transform="translate(366.03475 322.182437) scale(0.1 -0.1)">
       <use xlink:href="#DejaVuSans-33"/>
      </g>
     </g>
    </g>
    <g id="text_8">
     <!-- x -->
     <g transform="translate(233.200625 335.860562) scale(0.1 -0.1)">
      <defs>
       <path id="DejaVuSans-78" d="M 3513 3500 
L 2247 1797 
L 3578 0 
L 2900 0 
L 1881 1375 
L 863 0 
L 184 0 
L 1544 1831 
L 300 3500 
L 978 3500 
L 1906 2253 
L 2834 3500 
L 3513 3500 
z
" transform="scale(0.015625)"/>
      </defs>
      <use xlink:href="#DejaVuSans-78"/>
     </g>
    </g>
   </g>
   <g id="matplotlib.axis_2">
    <g id="ytick_1">
     <g id="line2d_8">
      <defs>
       <path id="m1bacb8371d" d="M 0 0 
L -3.5 0 
" style="stroke: #000000; stroke-width: 0.8"/>
      </defs>
      <g>
       <use xlink:href="#m1bacb8371d" x="103.104" y="307.584" style="stroke: #000000; stroke-width: 0.8"/>
      </g>
     </g>
     <g id="text_9">
      <!-- −3 -->
      <g transform="translate(81.361813 311.383219) scale(0.1 -0.1)">
       <use xlink:href="#DejaVuSans-2212"/>
       <use xlink:href="#DejaVuSans-33" x="83.789062"/>
      </g>
     </g>
    </g>
    <g id="ytick_2">
     <g id="line2d_9">
      <g>
       <use xlink:href="#m1bacb8371d" x="103.104" y="263.232" style="stroke: #000000; stroke-width: 0.8"/>
      </g>
     </g>
     <g id="text_10">
      <!-- −2 -->
      <g transform="translate(81.361813 267.031219) scale(0.1 -0.1)">
       <use xlink:href="#DejaVuSans-2212"/>
       <use xlink:href="#DejaVuSans-32" x="83.789062"/>
      </g>
     </g>
    </g>
    <g id="ytick_3">
     <g id="line2d_10">
      <g>
       <use xlink:href="#m1bacb8371d" x="103.104" y="218.88" style="stroke: #000000; stroke-width: 0.8"/>
      </g>
     </g>
     <g id="text_11">
      <!-- −1 -->
      <g transform="translate(81.361813 222.679219) scale(0.1 -0.1)">
       <use xlink:href="#DejaVuSans-2212"/>
       <use xlink:href="#DejaVuSans-31" x="83.789062"/>
      </g>
     </g>
    </g>
    <g id="ytick_4">
     <g id="line2d_11">
      <g>
       <use xlink:href="#m1bacb8371d" x="103.104" y="174.528" style="stroke: #000000; stroke-width: 0.8"/>
      </g>
     </g>
     <g id="text_12">
      <!-- 0 -->
      <g transform="translate(89.7415 178.327219) scale(0.1 -0.1)">
       <use xlink:href="#DejaVuSans-30"/>
      </g>
     </g>
    </g>
    <g id="ytick_5">
     <g id="line2d_12">
      <g>
       <use xlink:href="#m1bacb8371d" x="103.104" y="130.176" style="stroke: #000000; stroke-width: 0.8"/>
      </g>
     </g>
     <g id="text_13">
      <!-- 1 -->
      <g transform="translate(89.7415 133.975219) scale(0.1 -0.1)">
       <use xlink:href="#DejaVuSans-31"/>
      </g>
     </g>
    </g>
    <g id="ytick_6">
     <g id="line2d_13">
      <g>
       <use xlink:href="#m1bacb8371d" x="103.104" y="85.824" style="stroke: #000000; stroke-width: 0.8"/>
      </g>
     </g>
     <g id="text_14">
      <!-- 2 -->
      <g transform="translate(89.7415 89.623219) scale(0.1 -0.1)">
       <use xlink:href="#DejaVuSans-32"/>
      </g>
     </g>
    </g>
    <g id="ytick_7">
     <g id="line2d_14">
      <g>
       <use xlink:href="#m1bacb8371d" x="103.104" y="41.472" style="stroke: #000000; stroke-width: 0.8"/>
      </g>
     </g>
     <g id="text_15">
      <!-- 3 -->
      <g transform="translate(89.7415 45.271219) scale(0.1 -0.1)">
       <use xlink:href="#DejaVuSans-33"/>
      </g>
     </g>
    </g>
    <g id="text_16">
     <!-- y -->
     <g transform="translate(75.282125 177.487375) rotate(-90) scale(0.1 -0.1)">
      <defs>
       <path id="DejaVuSans-79" d="M 2059 -325 
Q 1816 -950 1584 -1140 
Q 1353 -1331 966 -1331 
L 506 -1331 
L 506 -850 
L 844 -850 
Q 1081 -850 1212 -737 
Q 1344 -625 1503 -206 
L 1606 56 
L 191 3500 
L 800 3500 
L 1894 763 
L 2988 3500 
L 3597 3500 
L 2059 -325 
z
" transform="scale(0.015625)"/>
      </defs>
      <use xlink:href="#DejaVuSans-79"/>
     </g>
    </g>
   </g>
   <g id="patch_5">
    <path d="M 103.104 307.584 
L 103.104 41.472 
" style="fill: none; stroke: #000000; stroke-width: 0.8; stroke-linejoin: miter; stroke-linecap: square"/>
   </g>
   <g id="patch_6">
    <path d="M 369.216 307.584 
L 369.216 41.472 
" style="fill: none; stroke: #000000; stroke-width: 0.8; stroke-linejoin: miter; stroke-linecap: square"/>
   </g>
   <g id="patch_7">
    <path d="M 103.104 307.584 
L 369.216 307.584 
" style="fill: none; stroke: #000000; stroke-width: 0.8; stroke-linejoin: miter; stroke-linecap: square"/>
   </g>
   <g id="patch_8">
    <path d="M 103.104 41.472 
L 369.216 41.472 
" style="fill: none; stroke: #000000; stroke-width: 0.8; stroke-linejoin: miter; stroke-linecap: square"/>
   </g>
   <g id="legend_1">
    <g id="patch_9">
     <path d="M 317.456625 78.82825 
L 362.216 78.82825 
Q 364.216 78.82825 364.216 76.82825 
L 364.216 48.472 
Q 364.216 46.472 362.216 46.472 
L 317.456625 46.472 
Q 315.456625 46.472 315.456625 48.472 
L 315.456625 76.82825 
Q 315.456625 78.82825 317.456625 78.82825 
z
" style="fill: #ffffff; opacity: 0.8; stroke: #cccccc; stroke-linejoin: miter"/>
    </g>
    <g id="PathCollection_3">
     <g>
      <use xlink:href="#m4bd7ec3202" x="329.456625" y="55.445437" style="fill: #1f77b4; stroke: #1f77b4"/>
     </g>
    </g>
    <g id="text_17">
     <!-- x -->
     <g transform="translate(347.456625 58.070437) scale(0.1 -0.1)">
      <use xlink:href="#DejaVuSans-78"/>
     </g>
    </g>
    <g id="PathCollection_4">
     <g>
      <use xlink:href="#me67b5d9463" x="329.456625" y="70.123562" style="fill: #ff7f0e; stroke: #ff7f0e"/>
     </g>
    </g>
    <g id="text_18">
     <!-- Ax -->
     <g transform="translate(347.456625 72.748562) scale(0.1 -0.1)">
      <defs>
       <path id="DejaVuSans-41" d="M 2188 4044 
L 1331 1722 
L 3047 1722 
L 2188 4044 
z
M 1831 4666 
L 2547 4666 
L 4325 0 
L 3669 0 
L 3244 1197 
L 1141 1197 
L 716 0 
L 50 0 
L 1831 4666 
z
" transform="scale(0.015625)"/>
      </defs>
      <use xlink:href="#DejaVuSans-41"/>
      <use xlink:href="#DejaVuSans-78" x="68.408203"/>
     </g>
    </g>
   </g>
  </g>
 </g>
 <defs>
  <clipPath id="pf832fcea3e">
   <rect x="103.104" y="41.472" width="266.112" height="266.112"/>
  </clipPath>
 </defs>
</svg>
